<?xml version="1.0" encoding="us-ascii" standalone="no"?><svg xmlns="http://www.w3.org/2000/svg" xmlns:xlink="http://www.w3.org/1999/xlink" contentStyleType="text/css" height="567px" preserveAspectRatio="none" style="width:956px;height:567px;background:#FFFFFF;" version="1.1" viewBox="0 0 956 567" width="956px" zoomAndPan="magnify"><defs/><g><!--class SwitchJobOpeningPhasesUI--><g id="elem_SwitchJobOpeningPhasesUI"><polygon fill="#F1F1F1" points="436.5,7,436.5,7.2102,446.6,6.5857,456.7,7.1933,466.8,7.3997,476.9,6.2866,487,6.9223,497.1,6.5735,507.2,6.6165,517.3,6.9318,527.4,6.3086,537.5,7.5536,547.6,6.3697,557.7,6.8022,567.8,7.4319,577.9,6.9142,588,7.0682,598.1,6.9681,608.2,7.1785,618.3,7.2391,628.4,7.5857,638.5,7,638.5856,7.2067,638.9402,7.3556,639.2396,7.3713,639.6198,7.5821,640.0038,7.802,640.2678,7.7322,640.0457,7.6402,640.6232,8.1723,640.4693,8.4015,640.8715,8.861,640.7011,9.0833,641,9.5,640.9315,9.5,641.7416,19.8138,640.9513,30.1276,641.1053,40.4414,641.3386,50.7552,641.4162,61.069,640.9961,71.3828,641.2872,81.6966,640.4276,92.0104,641,102.3242,641.0876,102.3605,641.0224,102.7477,640.844,103.088,640.7494,103.4631,640.2654,103.6768,640.2678,104.092,640.1846,103.8911,639.8349,104.0471,639.5531,104.3667,639.182,104.4708,638.9405,104.8876,638.5,104.8242,638.5,104.6495,628.4,104.4812,618.3,105.0525,608.2,104.1574,598.1,104.3051,588,105.4732,577.9,105.2599,567.8,105.5587,557.7,104.5024,547.6,105.1434,537.5,105.4146,527.4,104.3518,517.3,104.7284,507.2,104.9502,497.1,105.476,487,104.82,476.9,105.2868,466.8,104.2704,456.7,104.147,446.6,105.3278,436.5,104.8242,436.4085,104.6034,436.2114,104.8345,435.8193,104.595,435.4052,104.3024,435.0407,104.1295,434.7322,104.092,434.8735,104.1505,434.4936,103.7002,434.6216,103.4604,434.1227,102.9608,434.3366,102.7565,434,102.3242,434.4843,102.3242,434.245,92.0104,434.0472,81.6966,434.7266,71.3828,434.6136,61.069,434.1693,50.7552,434.2682,40.4414,433.8697,30.1276,434.7165,19.8138,434,9.5,434.0477,9.5198,434.1996,9.1685,434.1055,8.7153,434.3145,8.3876,434.7492,8.1535,434.7322,7.7322,434.7871,7.8646,435.0803,7.5726,435.3982,7.3401,435.765,7.2255,436.0589,6.9351,436.5,7" style="stroke:#181818;stroke-width:0.5;"/><polygon fill="#ADD1B2" points="460.0608,31.9667,458.4484,34.1698,456.5412,37.3967,453.8136,39.5714,450.9474,40.7606,448.662,40.8638,445.7247,39.3766,442.9532,38.4049,440.8495,36.4322,439.7461,34.1738,439.0917,32.3756,438.4506,30.0267,437.41,28.0055,438.2096,26.032,438.9102,23.8702,441.5393,22.1605,443.389,19.9421,445.6784,19.2055,448.4001,18.5711,451.8904,18.948,453.8021,19.8495,456.0247,20.2582,458.7272,23.027,459.6693,25.95,460.0786,27.9444,459.615,31.2309" style="stroke:#181818;stroke-width:1.0;"/><path d="M451.7656,25.166 Q451.9219,24.9473 452.1094,24.8379 Q452.2969,24.7285 452.5156,24.7285 Q452.8906,24.7285 453.125,24.9941 Q453.3594,25.2441 453.3594,25.8535 L453.3594,27.3066 Q453.3594,27.916 453.125,28.1816 Q452.8906,28.4473 452.5156,28.4473 Q452.1719,28.4473 451.9688,28.2441 Q451.7656,28.0566 451.6563,27.541 Q451.6094,27.1816 451.4219,26.9941 Q451.0938,26.6191 450.4844,26.4004 Q449.875,26.1816 449.25,26.1816 Q448.4844,26.1816 447.8438,26.5098 Q447.2188,26.8379 446.7188,27.5879 Q446.2344,28.3379 446.2344,29.3691 L446.2344,30.4629 Q446.2344,31.6973 447.125,32.5254 Q448.0156,33.3379 449.6094,33.3379 Q450.5469,33.3379 451.2031,33.0879 Q451.5938,32.9316 452.0156,32.4941 Q452.2813,32.2285 452.4219,32.1504 Q452.5781,32.0723 452.7813,32.0723 Q453.1094,32.0723 453.3594,32.3379 Q453.625,32.5879 453.625,32.9316 Q453.625,33.2754 453.2813,33.6816 Q452.7813,34.2598 451.9844,34.5879 Q450.9063,35.041 449.6094,35.041 Q448.0938,35.041 446.8906,34.416 Q445.9063,33.916 445.2188,32.8535 Q444.5313,31.7754 444.5313,30.4941 L444.5313,29.3379 Q444.5313,28.0098 445.1406,26.8691 Q445.7656,25.7129 446.8594,25.1035 Q447.9531,24.4785 449.1875,24.4785 Q449.9219,24.4785 450.5625,24.6504 Q451.2188,24.8066 451.7656,25.166 Z " fill="#000000"/><text fill="#000000" font-family="FG Virgil" font-size="12" font-style="italic" lengthAdjust="spacing" textLength="82" x="509.5" y="24.9492">&#171;presentation&#187;</text><text fill="#000000" font-family="FG Virgil" font-size="14" lengthAdjust="spacing" textLength="175" x="463" y="43.0684">SwitchJobOpeningPhasesUI</text><path d="M435,51.582 L435,51.8623 L444.7619,51.0296 L454.5238,51.8397 L464.2857,52.1149 L474.0476,50.6308 L483.8095,51.4784 L493.5714,51.0134 L503.3333,51.0707 L513.0952,51.4912 L522.8571,50.6602 L532.619,52.3202 L542.381,50.7417 L552.1429,51.3183 L561.9048,52.158 L571.6667,51.4677 L581.4286,51.673 L591.1905,51.5394 L600.9524,51.8201 L610.7143,51.9009 L620.4762,52.363 L630.2381,52.4768 L640,51.582 " fill="#F1F1F1" style="stroke:#181818;stroke-width:0.5;"/><path d="M435,59.582 L435,59.8623 L444.7619,59.0296 L454.5238,59.8397 L464.2857,60.1149 L474.0476,58.6308 L483.8095,59.4784 L493.5714,59.0134 L503.3333,59.0707 L513.0952,59.4912 L522.8571,58.6602 L532.619,60.3202 L542.381,58.7417 L552.1429,59.3183 L561.9048,60.158 L571.6667,59.4677 L581.4286,59.673 L591.1905,59.5394 L600.9524,59.8201 L610.7143,59.9009 L620.4762,60.363 L630.2381,60.4768 L640,59.582 " fill="#F1F1F1" style="stroke:#181818;stroke-width:0.5;"/><polygon fill="#F24D5C" points="442,71.3926,442,71.4626,443.2,71.2545,444.4,71.457,445.6,71.5258,446.8,71.1548,448,71.3926,447.9741,71.3926,447.8578,72.5926,447.8722,73.7926,447.9773,74.9926,447.7695,76.1926,448,77.3926,448,77.5771,446.8,77.1825,445.6,77.3267,444.4,77.5366,443.2,77.364,442,77.3926,442.0227,77.3926,441.9894,76.1926,442.0595,74.9926,442.0797,73.7926,442.1952,72.5926,442,71.3926" style="stroke:#C82930;stroke-width:1.0;"/><text fill="#000000" font-family="FG Virgil" font-size="14" lengthAdjust="spacing" textLength="60" x="454" y="78.6895">doShow()</text><polygon fill="#F24D5C" points="442,90.0137,442,90.0837,443.2,89.8756,444.4,90.0781,445.6,90.1469,446.8,89.7759,448,90.0137,447.9741,90.0137,447.8578,91.2137,447.8722,92.4137,447.9773,93.6137,447.7695,94.8137,448,96.0137,448,96.1982,446.8,95.8036,445.6,95.9477,444.4,96.1577,443.2,95.9851,442,96.0137,442.0227,96.0137,441.9894,94.8137,442.0595,93.6137,442.0797,92.4137,442.1952,91.2137,442,90.0137" style="stroke:#C82930;stroke-width:1.0;"/><text fill="#000000" font-family="FG Virgil" font-size="14" lengthAdjust="spacing" textLength="64" x="454" y="97.3105">headline()</text></g><!--class SwitchJobOpeningPhasesController--><g id="elem_SwitchJobOpeningPhasesController"><polygon fill="#F1F1F1" points="411.5,184,411.5,184.2102,421.58,183.5857,431.66,184.1933,441.74,184.3997,451.82,183.2866,461.9,183.9223,471.98,183.5735,482.06,183.6165,492.14,183.9318,502.22,183.3086,512.3,184.5536,522.38,183.3697,532.46,183.8022,542.54,184.4319,552.62,183.9142,562.7,184.0682,572.78,183.9681,582.86,184.1785,592.94,184.2391,603.02,184.5857,613.1,184.6711,623.18,184.6793,633.26,184.2546,643.34,184.4636,653.42,184.7022,663.5,184,663.408,183.7779,663.9401,184.3554,664.1693,184.2016,664.6288,184.6037,664.8511,184.4333,665.2678,184.7322,665.2467,184.7235,665.6426,185.1804,665.5457,185.4331,665.7395,185.8063,665.9578,186.1896,666,186.5,666.4162,186.5,665.9961,197.1004,666.2872,207.7009,665.4276,218.3013,666.2844,228.9018,666.5482,239.5022,666.4445,250.1027,666,260.7031,666.1888,260.7813,665.7048,260.9951,665.5063,261.327,665.3693,261.6845,665.3961,262.1098,665.2678,262.4709,665.2427,262.4104,665.0011,262.8272,664.5384,262.71,664.1633,262.8046,663.8827,263.127,663.5,263.2031,663.5,262.5363,653.42,262.684,643.34,263.8521,633.26,263.6388,623.18,263.9376,613.1,262.8813,603.02,263.5223,592.94,263.7935,582.86,262.7307,572.78,263.1073,562.7,263.3291,552.62,263.8549,542.54,263.1989,532.46,263.6657,522.38,262.6493,512.3,262.5259,502.22,263.7067,492.14,262.4862,482.06,263.7121,471.98,263.4098,461.9,262.9352,451.82,262.8494,441.74,263.6619,431.66,262.9038,421.58,263.795,411.5,263.2031,411.4295,263.0329,411.2252,263.2468,410.8547,263.0594,410.4706,262.8392,410.0918,262.6319,409.7322,262.4709,409.956,262.5636,409.7747,262.1956,409.4915,261.7854,409.3755,261.4444,409.1063,261.0401,409,260.7031,409.7165,260.7031,409.1549,250.1027,409.1726,239.5022,408.3916,228.9018,408.5948,218.3013,409.5307,207.7009,409.4298,197.1004,409,186.5,408.9868,186.4945,409.0472,186.1054,409.2255,185.765,409.228,185.3518,409.7135,185.1387,409.7322,184.7322,409.8266,184.96,410.1529,184.7479,410.528,184.6534,410.7755,184.2508,411.1576,184.1733,411.5,184" style="stroke:#181818;stroke-width:0.5;"/><polygon fill="#ADD1B2" points="435.0608,208.9667,433.4484,211.1698,431.5412,214.3967,428.8136,216.5714,425.9474,217.7606,423.662,217.8638,420.7247,216.3766,417.9532,215.4049,415.8495,213.4322,414.7461,211.1738,414.0917,209.3756,413.4506,207.0267,412.41,205.0055,413.2096,203.032,413.9102,200.8702,416.5393,199.1605,418.389,196.9421,420.6784,196.2055,423.4001,195.5711,426.8904,195.948,428.8021,196.8495,431.0247,197.2582,433.7272,200.027,434.6693,202.95,435.0786,204.9444,434.615,208.2309" style="stroke:#181818;stroke-width:1.0;"/><path d="M426.7656,202.166 Q426.9219,201.9473 427.1094,201.8379 Q427.2969,201.7285 427.5156,201.7285 Q427.8906,201.7285 428.125,201.9941 Q428.3594,202.2441 428.3594,202.8535 L428.3594,204.3066 Q428.3594,204.916 428.125,205.1816 Q427.8906,205.4473 427.5156,205.4473 Q427.1719,205.4473 426.9688,205.2441 Q426.7656,205.0566 426.6563,204.541 Q426.6094,204.1816 426.4219,203.9941 Q426.0938,203.6191 425.4844,203.4004 Q424.875,203.1816 424.25,203.1816 Q423.4844,203.1816 422.8438,203.5098 Q422.2188,203.8379 421.7188,204.5879 Q421.2344,205.3379 421.2344,206.3691 L421.2344,207.4629 Q421.2344,208.6973 422.125,209.5254 Q423.0156,210.3379 424.6094,210.3379 Q425.5469,210.3379 426.2031,210.0879 Q426.5938,209.9316 427.0156,209.4941 Q427.2813,209.2285 427.4219,209.1504 Q427.5781,209.0723 427.7813,209.0723 Q428.1094,209.0723 428.3594,209.3379 Q428.625,209.5879 428.625,209.9316 Q428.625,210.2754 428.2813,210.6816 Q427.7813,211.2598 426.9844,211.5879 Q425.9063,212.041 424.6094,212.041 Q423.0938,212.041 421.8906,211.416 Q420.9063,210.916 420.2188,209.8535 Q419.5313,208.7754 419.5313,207.4941 L419.5313,206.3379 Q419.5313,205.0098 420.1406,203.8691 Q420.7656,202.7129 421.8594,202.1035 Q422.9531,201.4785 424.1875,201.4785 Q424.9219,201.4785 425.5625,201.6504 Q426.2188,201.8066 426.7656,202.166 Z " fill="#000000"/><text fill="#000000" font-family="FG Virgil" font-size="12" font-style="italic" lengthAdjust="spacing" textLength="74" x="513.5" y="201.9492">&#171;application&#187;</text><text fill="#000000" font-family="FG Virgil" font-size="14" lengthAdjust="spacing" textLength="225" x="438" y="220.0684">SwitchJobOpeningPhasesController</text><path d="M410,228.582 L410,228.8623 L419.8077,228.0296 L429.6154,228.8397 L439.4231,229.1149 L449.2308,227.6308 L459.0385,228.4784 L468.8462,228.0134 L478.6538,228.0707 L488.4615,228.4912 L498.2692,227.6602 L508.0769,229.3202 L517.8846,227.7417 L527.6923,228.3183 L537.5,229.158 L547.3077,228.4677 L557.1154,228.673 L566.9231,228.5394 L576.7308,228.8201 L586.5385,228.9009 L596.3462,229.363 L606.1538,229.4768 L615.9615,229.4877 L625.7692,228.9215 L635.5769,229.2001 L645.3846,229.5183 L655.1923,227.6205 L665,228.582 " fill="#F1F1F1" style="stroke:#181818;stroke-width:0.5;"/><path d="M410,236.582 L410,236.8623 L419.8077,236.0296 L429.6154,236.8397 L439.4231,237.1149 L449.2308,235.6308 L459.0385,236.4784 L468.8462,236.0134 L478.6538,236.0707 L488.4615,236.4912 L498.2692,235.6602 L508.0769,237.3202 L517.8846,235.7417 L527.6923,236.3183 L537.5,237.158 L547.3077,236.4677 L557.1154,236.673 L566.9231,236.5394 L576.7308,236.8201 L586.5385,236.9009 L596.3462,237.363 L606.1538,237.4768 L615.9615,237.4877 L625.7692,236.9215 L635.5769,237.2001 L645.3846,237.5183 L655.1923,235.6205 L665,236.582 " fill="#F1F1F1" style="stroke:#181818;stroke-width:0.5;"/><polygon fill="#F24D5C" points="417,248.3926,417,248.4626,418.2,248.2545,419.4,248.457,420.6,248.5258,421.8,248.1548,423,248.3926,422.9741,248.3926,422.8578,249.5926,422.8722,250.7926,422.9773,251.9926,422.7695,253.1926,423,254.3926,423,254.5771,421.8,254.1825,420.6,254.3267,419.4,254.5366,418.2,254.364,417,254.3926,417.0227,254.3926,416.9894,253.1926,417.0595,251.9926,417.0797,250.7926,417.1952,249.5926,417,248.3926" style="stroke:#C82930;stroke-width:1.0;"/><text fill="#000000" font-family="FG Virgil" font-size="14" lengthAdjust="spacing" textLength="215" x="429" y="255.6895">switchJobOpeningProcessPhase()</text></g><!--class AuthorizationService--><g id="elem_AuthorizationService"><polygon fill="#F1F1F1" points="9.5,342,9.5,342.2102,19.4048,341.5857,29.3095,342.1933,39.2143,342.3997,49.119,341.2866,59.0238,341.9223,68.9286,341.5735,78.8333,341.6165,88.7381,341.9318,98.6429,341.3086,108.5476,342.5536,118.4524,341.3697,128.3571,341.8022,138.2619,342.4319,148.1667,341.9142,158.0714,342.0682,167.9762,341.9681,177.881,342.1785,187.7857,342.2391,197.6905,342.5857,207.5952,342.6711,217.5,342.6793,227.4048,342.2546,237.3095,342.4636,247.2143,342.7022,257.119,341.2788,267.0238,342.6785,276.9286,341.7035,286.8333,342.5338,296.7381,341.505,306.6429,341.9315,316.5476,342.7416,326.4524,341.9513,336.3571,342.1053,346.2619,342.3386,356.1667,342.4162,366.0714,341.9961,375.9762,342.2872,385.881,341.4276,395.7857,342.2844,405.6905,342.5482,415.5952,342.4445,425.5,342,425.5782,342.1888,425.7919,341.9977,426.1239,342.092,426.4814,342.248,426.9067,342.5677,427.2678,342.7322,427.2072,342.7072,427.6241,343.1727,427.5069,343.4171,427.6015,343.7491,427.9239,344.1756,428,344.5,427.3332,344.5,427.4809,355.1004,428.649,365.7009,428.4357,376.3013,428.7345,386.9018,427.6782,397.5022,428.3192,408.1027,428,418.7031,428.1818,418.7784,427.7081,418.9964,427.6776,419.398,427.5995,419.7799,427.6149,420.2005,427.2678,420.4709,427.2672,420.4696,426.9732,420.7598,426.49,420.5932,426.1207,420.7017,425.9178,421.2118,425.5,421.2031,425.5,420.4862,415.5952,421.7121,405.6905,421.4098,395.7857,420.9352,385.881,420.8494,375.9762,421.6619,366.0714,420.9038,356.1667,421.795,346.2619,420.6504,336.3571,421.8206,326.4524,421.6874,316.5476,421.4481,306.6429,421.2503,296.7381,421.9297,286.8333,421.8167,276.9286,421.3724,267.0238,421.4713,257.119,421.0729,247.2143,421.9196,237.3095,421.358,227.4048,421.3757,217.5,420.5948,207.5952,420.7979,197.6905,421.7339,187.7857,421.6329,177.881,421.1602,167.9762,420.881,158.0714,420.9842,148.1667,420.5169,138.2619,421.6179,128.3571,421.9427,118.4524,421.7295,108.5476,421.8981,98.6429,421.0664,88.7381,421.2903,78.8333,420.8155,68.9286,421.4872,59.0238,421.4499,49.119,421.7555,39.2143,420.9735,29.3095,421.0687,19.4048,421.6466,9.5,421.2031,9.5724,421.3778,9.0811,420.8988,8.7682,420.8505,8.4584,420.8098,8.0079,420.4292,7.7322,420.4709,7.8411,420.516,7.6652,420.1502,7.4083,419.7509,7.3367,419.4284,7.3708,419.1496,7,418.7031,6.6871,418.7031,7.315,408.1027,7.2856,397.5022,7.1158,386.9018,7.1409,376.3013,7.1135,365.7009,6.3758,355.1004,7,344.5,6.8766,344.4489,7.0043,344.0876,7.3125,343.801,7.4665,343.4506,7.6356,343.1064,7.7322,342.7322,7.6951,342.6426,8.0772,342.565,8.424,342.4023,8.8665,342.4705,9.2009,342.2778,9.5,342" style="stroke:#181818;stroke-width:0.5;"/><polygon fill="#ADD1B2" points="159.8108,366.9667,158.1984,369.1698,156.2912,372.3967,153.5636,374.5714,150.6974,375.7606,148.412,375.8638,145.4747,374.3766,142.7032,373.4049,140.5995,371.4322,139.4961,369.1738,138.8417,367.3756,138.2006,365.0267,137.16,363.0055,137.9596,361.032,138.6602,358.8702,141.2893,357.1605,143.139,354.9421,145.4284,354.2055,148.1501,353.5711,151.6404,353.948,153.5521,354.8495,155.7747,355.2582,158.4772,358.027,159.4193,360.95,159.8286,362.9444,159.365,366.2309" style="stroke:#181818;stroke-width:1.0;"/><path d="M151.5156,360.166 Q151.6719,359.9473 151.8594,359.8379 Q152.0469,359.7285 152.2656,359.7285 Q152.6406,359.7285 152.875,359.9941 Q153.1094,360.2441 153.1094,360.8535 L153.1094,362.3066 Q153.1094,362.916 152.875,363.1816 Q152.6406,363.4473 152.2656,363.4473 Q151.9219,363.4473 151.7188,363.2441 Q151.5156,363.0566 151.4063,362.541 Q151.3594,362.1816 151.1719,361.9941 Q150.8438,361.6191 150.2344,361.4004 Q149.625,361.1816 149,361.1816 Q148.2344,361.1816 147.5938,361.5098 Q146.9688,361.8379 146.4688,362.5879 Q145.9844,363.3379 145.9844,364.3691 L145.9844,365.4629 Q145.9844,366.6973 146.875,367.5254 Q147.7656,368.3379 149.3594,368.3379 Q150.2969,368.3379 150.9531,368.0879 Q151.3438,367.9316 151.7656,367.4941 Q152.0313,367.2285 152.1719,367.1504 Q152.3281,367.0723 152.5313,367.0723 Q152.8594,367.0723 153.1094,367.3379 Q153.375,367.5879 153.375,367.9316 Q153.375,368.2754 153.0313,368.6816 Q152.5313,369.2598 151.7344,369.5879 Q150.6563,370.041 149.3594,370.041 Q147.8438,370.041 146.6406,369.416 Q145.6563,368.916 144.9688,367.8535 Q144.2813,366.7754 144.2813,365.4941 L144.2813,364.3379 Q144.2813,363.0098 144.8906,361.8691 Q145.5156,360.7129 146.6094,360.1035 Q147.7031,359.4785 148.9375,359.4785 Q149.6719,359.4785 150.3125,359.6504 Q150.9688,359.8066 151.5156,360.166 Z " fill="#000000"/><text fill="#000000" font-family="FG Virgil" font-size="12" font-style="italic" lengthAdjust="spacing" textLength="53" x="207.25" y="359.9492">&#171;service&#187;</text><text fill="#000000" font-family="FG Virgil" font-size="14" lengthAdjust="spacing" textLength="129" x="169.25" y="378.0684">AuthorizationService</text><path d="M8,386.582 L8,386.8623 L17.9762,386.0296 L27.9524,386.8397 L37.9286,387.1149 L47.9048,385.6308 L57.881,386.4784 L67.8571,386.0134 L77.8333,386.0707 L87.8095,386.4912 L97.7857,385.6602 L107.7619,387.3202 L117.7381,385.7417 L127.7143,386.3183 L137.6905,387.158 L147.6667,386.4677 L157.6429,386.673 L167.619,386.5394 L177.5952,386.8201 L187.5714,386.9009 L197.5476,387.363 L207.5238,387.4768 L217.5,387.4877 L227.4762,386.9215 L237.4524,387.2001 L247.4286,387.5183 L257.4048,385.6205 L267.381,387.4867 L277.3571,386.1867 L287.3333,387.2938 L297.3095,385.922 L307.2857,386.4907 L317.2619,387.5708 L327.2381,386.5171 L337.2143,386.7224 L347.1905,387.0335 L357.1667,387.137 L367.1429,386.5768 L377.119,386.965 L387.0952,385.8188 L397.0714,386.9612 L407.0476,387.313 L417.0238,387.1747 L427,386.582 " fill="#F1F1F1" style="stroke:#181818;stroke-width:0.5;"/><path d="M8,394.582 L8,394.8623 L17.9762,394.0296 L27.9524,394.8397 L37.9286,395.1149 L47.9048,393.6308 L57.881,394.4784 L67.8571,394.0134 L77.8333,394.0707 L87.8095,394.4912 L97.7857,393.6602 L107.7619,395.3202 L117.7381,393.7417 L127.7143,394.3183 L137.6905,395.158 L147.6667,394.4677 L157.6429,394.673 L167.619,394.5394 L177.5952,394.8201 L187.5714,394.9009 L197.5476,395.363 L207.5238,395.4768 L217.5,395.4877 L227.4762,394.9215 L237.4524,395.2001 L247.4286,395.5183 L257.4048,393.6205 L267.381,395.4867 L277.3571,394.1867 L287.3333,395.2938 L297.3095,393.922 L307.2857,394.4907 L317.2619,395.5708 L327.2381,394.5171 L337.2143,394.7224 L347.1905,395.0335 L357.1667,395.137 L367.1429,394.5768 L377.119,394.965 L387.0952,393.8188 L397.0714,394.9612 L407.0476,395.313 L417.0238,395.1747 L427,394.582 " fill="#F1F1F1" style="stroke:#181818;stroke-width:0.5;"/><polygon fill="#F24D5C" points="15,406.3926,15,406.4626,16.2,406.2545,17.4,406.457,18.6,406.5258,19.8,406.1548,21,406.3926,20.9741,406.3926,20.8578,407.5926,20.8722,408.7926,20.9773,409.9926,20.7695,411.1926,21,412.3926,21,412.5771,19.8,412.1825,18.6,412.3267,17.4,412.5366,16.2,412.364,15,412.3926,15.0227,412.3926,14.9894,411.1926,15.0595,409.9926,15.0797,408.7926,15.1952,407.5926,15,406.3926" style="stroke:#C82930;stroke-width:1.0;"/><text fill="#000000" font-family="FG Virgil" font-size="14" lengthAdjust="spacing" textLength="395" x="27" y="413.6895">ensureAuthenticatedUserHasAnyOf(roles : List&lt;Jobs4uRoles&gt;)</text></g><!--class RepositoryFactory--><g id="elem_RepositoryFactory"><polygon fill="#F1F1F1" points="466,342,466,342.2102,476.2143,341.5857,486.4286,342.1933,496.6429,342.3997,506.8571,341.2866,517.0714,341.9223,527.2857,341.5735,537.5,341.6165,547.7143,341.9318,557.9286,341.3086,568.1429,342.5536,578.3571,341.3697,588.5714,341.8022,598.7857,342.4319,609,342,608.9891,341.9736,609.3623,342.1675,609.703,342.2831,610.0834,342.4943,610.4447,342.6594,610.7678,342.7322,610.9481,342.8069,611.1209,343.1714,611.2698,343.526,611.2855,343.8254,611.4963,344.2056,611.5,344.5,612.2022,344.5,610.7788,355.1004,612.1785,365.7009,611.2035,376.3013,612.0338,386.9018,611.005,397.5022,611.4315,408.1027,611.5,418.7031,611.7284,418.7977,611.3385,419.0505,611.2395,419.4237,611.1649,419.807,611.0424,420.1704,610.7678,420.4709,610.7673,420.4697,610.4509,420.7058,609.9876,420.5875,609.7434,420.9978,609.4235,421.2255,609,421.2031,609,421.6477,598.7857,421.8161,588.5714,420.72,578.3571,420.5509,568.1429,420.5817,557.9286,421.1442,547.7143,421.0066,537.5,421.8845,527.2857,421.0284,517.0714,420.8601,506.8571,421.4314,496.6429,420.5363,486.4286,420.684,476.2143,421.8521,466,421.2031,466.0556,421.3373,465.7401,421.2829,465.2518,420.8111,464.9801,420.8621,464.6611,420.7992,464.2322,420.4709,464.0868,420.4106,464.0563,420.1051,463.9781,419.7799,463.9936,419.4934,463.6452,419.0561,463.5,418.7031,463.9626,418.7031,462.9462,408.1027,462.8227,397.5022,464.0036,386.9018,462.7831,376.3013,464.009,365.7009,463.7066,355.1004,463.5,344.5,463.4175,344.4658,463.5375,344.1013,463.9342,343.8514,463.8472,343.4012,464.2681,343.1613,464.2322,342.7322,464.1617,342.562,464.6645,342.7759,465.0011,342.5885,465.3241,342.3683,465.6525,342.161,466,342" style="stroke:#181818;stroke-width:0.5;"/><polygon fill="#ADD1B2" points="489.5608,366.9667,487.9484,369.1698,486.0412,372.3967,483.3136,374.5714,480.4474,375.7606,478.162,375.8638,475.2247,374.3766,472.4532,373.4049,470.3495,371.4322,469.2461,369.1738,468.5917,367.3756,467.9506,365.0267,466.91,363.0055,467.7096,361.032,468.4102,358.8702,471.0393,357.1605,472.889,354.9421,475.1784,354.2055,477.9001,353.5711,481.3904,353.948,483.3021,354.8495,485.5247,355.2582,488.2272,358.027,489.1693,360.95,489.5786,362.9444,489.115,366.2309" style="stroke:#181818;stroke-width:1.0;"/><path d="M481.2656,360.166 Q481.4219,359.9473 481.6094,359.8379 Q481.7969,359.7285 482.0156,359.7285 Q482.3906,359.7285 482.625,359.9941 Q482.8594,360.2441 482.8594,360.8535 L482.8594,362.3066 Q482.8594,362.916 482.625,363.1816 Q482.3906,363.4473 482.0156,363.4473 Q481.6719,363.4473 481.4688,363.2441 Q481.2656,363.0566 481.1563,362.541 Q481.1094,362.1816 480.9219,361.9941 Q480.5938,361.6191 479.9844,361.4004 Q479.375,361.1816 478.75,361.1816 Q477.9844,361.1816 477.3438,361.5098 Q476.7188,361.8379 476.2188,362.5879 Q475.7344,363.3379 475.7344,364.3691 L475.7344,365.4629 Q475.7344,366.6973 476.625,367.5254 Q477.5156,368.3379 479.1094,368.3379 Q480.0469,368.3379 480.7031,368.0879 Q481.0938,367.9316 481.5156,367.4941 Q481.7813,367.2285 481.9219,367.1504 Q482.0781,367.0723 482.2813,367.0723 Q482.6094,367.0723 482.8594,367.3379 Q483.125,367.5879 483.125,367.9316 Q483.125,368.2754 482.7813,368.6816 Q482.2813,369.2598 481.4844,369.5879 Q480.4063,370.041 479.1094,370.041 Q477.5938,370.041 476.3906,369.416 Q475.4063,368.916 474.7188,367.8535 Q474.0313,366.7754 474.0313,365.4941 L474.0313,364.3379 Q474.0313,363.0098 474.6406,361.8691 Q475.2656,360.7129 476.3594,360.1035 Q477.4531,359.4785 478.6875,359.4785 Q479.4219,359.4785 480.0625,359.6504 Q480.7188,359.8066 481.2656,360.166 Z " fill="#000000"/><text fill="#000000" font-family="FG Virgil" font-size="12" font-style="italic" lengthAdjust="spacing" textLength="50" x="525.5" y="359.9492">&#171;factory&#187;</text><text fill="#000000" font-family="FG Virgil" font-size="14" lengthAdjust="spacing" textLength="116" x="492.5" y="378.0684">RepositoryFactory</text><path d="M464.5,386.582 L464.5,386.8623 L474.2333,386.0296 L483.9667,386.8397 L493.7,387.1149 L503.4333,385.6308 L513.1667,386.4784 L522.9,386.0134 L532.6333,386.0707 L542.3667,386.4912 L552.1,385.6602 L561.8333,387.3202 L571.5667,385.7417 L581.3,386.3183 L591.0333,387.158 L600.7667,386.4677 L610.5,386.582 " fill="#F1F1F1" style="stroke:#181818;stroke-width:0.5;"/><path d="M464.5,394.582 L464.5,394.8623 L474.2333,394.0296 L483.9667,394.8397 L493.7,395.1149 L503.4333,393.6308 L513.1667,394.4784 L522.9,394.0134 L532.6333,394.0707 L542.3667,394.4912 L552.1,393.6602 L561.8333,395.3202 L571.5667,393.7417 L581.3,394.3183 L591.0333,395.158 L600.7667,394.4677 L610.5,394.582 " fill="#F1F1F1" style="stroke:#181818;stroke-width:0.5;"/><polygon fill="#F24D5C" points="471.5,406.3926,471.5,406.4626,472.7,406.2545,473.9,406.457,475.1,406.5258,476.3,406.1548,477.5,406.3926,477.4741,406.3926,477.3578,407.5926,477.3722,408.7926,477.4773,409.9926,477.2695,411.1926,477.5,412.3926,477.5,412.5771,476.3,412.1825,475.1,412.3267,473.9,412.5366,472.7,412.364,471.5,412.3926,471.5227,412.3926,471.4894,411.1926,471.5595,409.9926,471.5797,408.7926,471.6952,407.5926,471.5,406.3926" style="stroke:#C82930;stroke-width:1.0;"/><text fill="#000000" font-family="FG Virgil" font-size="14" lengthAdjust="spacing" textLength="90" x="483.5" y="413.6895">jobOpenings()</text></g><!--class JobOpeningRepository--><g id="elem_JobOpeningRepository"><polygon fill="#F1F1F1" points="219,500,219,500.2102,229.0588,499.5857,239.1176,500.1933,249.1765,500.3997,259.2353,499.2866,269.2941,499.9223,279.3529,499.5735,289.4118,499.6165,299.4706,499.9318,309.5294,499.3086,319.5882,500.5536,329.6471,499.3697,339.7059,499.8022,349.7647,500.4319,359.8235,499.9142,369.8824,500.0682,379.9412,499.9681,390,500,390.0228,500.055,390.3841,500.2201,390.7818,500.4733,391.1463,500.646,391.5009,500.795,391.7678,500.7322,391.8462,500.7647,392.057,501.1449,392.2769,501.5289,391.985,501.7009,392.5625,502.233,392.5,502.5,392.2035,502.5,393.0338,511.7637,392.005,521.0273,392.4315,530.291,393.2416,539.5547,392.4513,548.8184,392.5,558.082,392.5324,558.0955,392.4578,558.4788,392.3353,558.8422,392.0595,559.1422,392.0027,559.5329,391.7678,559.8498,391.6947,559.6735,391.4505,560.0838,391.1306,560.3115,390.7638,560.426,390.4318,560.6244,390,560.582,390,560.099,379.9412,559.9298,369.8824,559.9606,359.8235,560.5232,349.7647,560.3855,339.7059,561.2634,329.6471,560.4074,319.5882,560.239,309.5294,560.8103,299.4706,559.9152,289.4118,560.0629,279.3529,561.231,269.2941,561.0177,259.2353,561.3165,249.1765,560.2602,239.1176,560.9012,229.0588,561.1725,219,560.582,218.9397,560.4365,218.6342,560.4061,218.309,560.3279,218.0225,560.3434,217.5853,559.995,217.2322,559.8498,217.3747,559.9088,216.9152,559.4256,216.7308,559.0563,216.948,558.8534,216.4257,558.3441,216.5,558.082,217.009,558.082,216.7066,548.8184,216.2321,539.5547,216.1462,530.291,216.9588,521.0273,216.2007,511.7637,216.5,502.5,216.6823,502.5755,216.4762,502.0759,216.983,501.8717,217.0885,501.5011,217.1612,501.117,217.2322,500.7322,217.2383,500.7468,217.6785,500.8096,218.0176,500.6283,218.3145,500.345,218.6807,500.229,219,500" style="stroke:#181818;stroke-width:0.5;"/><polygon fill="#ADD1B2" points="242.5608,524.9667,240.9484,527.1698,239.0412,530.3967,236.3136,532.5714,233.4474,533.7606,231.162,533.8638,228.2247,532.3766,225.4532,531.4049,223.3495,529.4322,222.2461,527.1738,221.5917,525.3756,220.9506,523.0267,219.91,521.0055,220.7096,519.032,221.4102,516.8702,224.0393,515.1605,225.889,512.9421,228.1784,512.2055,230.9001,511.5711,234.3904,511.948,236.3021,512.8495,238.5247,513.2582,241.2272,516.027,242.1693,518.95,242.5786,520.9444,242.115,524.2309" style="stroke:#181818;stroke-width:1.0;"/><path d="M234.2656,518.166 Q234.4219,517.9473 234.6094,517.8379 Q234.7969,517.7285 235.0156,517.7285 Q235.3906,517.7285 235.625,517.9941 Q235.8594,518.2441 235.8594,518.8535 L235.8594,520.3066 Q235.8594,520.916 235.625,521.1816 Q235.3906,521.4473 235.0156,521.4473 Q234.6719,521.4473 234.4688,521.2441 Q234.2656,521.0566 234.1563,520.541 Q234.1094,520.1816 233.9219,519.9941 Q233.5938,519.6191 232.9844,519.4004 Q232.375,519.1816 231.75,519.1816 Q230.9844,519.1816 230.3438,519.5098 Q229.7188,519.8379 229.2188,520.5879 Q228.7344,521.3379 228.7344,522.3691 L228.7344,523.4629 Q228.7344,524.6973 229.625,525.5254 Q230.5156,526.3379 232.1094,526.3379 Q233.0469,526.3379 233.7031,526.0879 Q234.0938,525.9316 234.5156,525.4941 Q234.7813,525.2285 234.9219,525.1504 Q235.0781,525.0723 235.2813,525.0723 Q235.6094,525.0723 235.8594,525.3379 Q236.125,525.5879 236.125,525.9316 Q236.125,526.2754 235.7813,526.6816 Q235.2813,527.2598 234.4844,527.5879 Q233.4063,528.041 232.1094,528.041 Q230.5938,528.041 229.3906,527.416 Q228.4063,526.916 227.7188,525.8535 Q227.0313,524.7754 227.0313,523.4941 L227.0313,522.3379 Q227.0313,521.0098 227.6406,519.8691 Q228.2656,518.7129 229.3594,518.1035 Q230.4531,517.4785 231.6875,517.4785 Q232.4219,517.4785 233.0625,517.6504 Q233.7188,517.8066 234.2656,518.166 Z " fill="#000000"/><text fill="#000000" font-family="FG Virgil" font-size="12" font-style="italic" lengthAdjust="spacing" textLength="68" x="283.5" y="517.9492">&#171;repository&#187;</text><text fill="#000000" font-family="FG Virgil" font-size="14" lengthAdjust="spacing" textLength="144" x="245.5" y="536.0684">JobOpeningRepository</text><path d="M217.5,544.582 L217.5,544.8623 L227.7353,544.0296 L237.9706,544.8397 L248.2059,545.1149 L258.4412,543.6308 L268.6765,544.4784 L278.9118,544.0134 L289.1471,544.0707 L299.3824,544.4912 L309.6176,543.6602 L319.8529,545.3202 L330.0882,543.7417 L340.3235,544.3183 L350.5588,545.158 L360.7941,544.4677 L371.0294,544.673 L381.2647,544.5394 L391.5,544.582 " fill="#F1F1F1" style="stroke:#181818;stroke-width:0.5;"/><path d="M217.5,552.582 L217.5,552.8623 L227.7353,552.0296 L237.9706,552.8397 L248.2059,553.1149 L258.4412,551.6308 L268.6765,552.4784 L278.9118,552.0134 L289.1471,552.0707 L299.3824,552.4912 L309.6176,551.6602 L319.8529,553.3202 L330.0882,551.7417 L340.3235,552.3183 L350.5588,553.158 L360.7941,552.4677 L371.0294,552.673 L381.2647,552.5394 L391.5,552.582 " fill="#F1F1F1" style="stroke:#181818;stroke-width:0.5;"/></g><!--class JobOpeningProcessRepository--><g id="elem_JobOpeningProcessRepository"><polygon fill="#F1F1F1" points="430.5,500,430.5,500.2102,440.5909,499.5857,450.6818,500.1933,460.7727,500.3997,470.8636,499.2866,480.9545,499.9223,491.0455,499.5735,501.1364,499.6165,511.2273,499.9318,521.3182,499.3086,531.4091,500.5536,541.5,499.3697,551.5909,499.8022,561.6818,500.4319,571.7727,499.9142,581.8636,500.0682,591.9545,499.9681,602.0455,500.1785,612.1364,500.2391,622.2273,500.5857,632.3182,500.6711,642.4091,500.6793,652.5,500,652.5325,500.0784,652.9127,500.2892,653.2967,500.5092,653.4687,500.2172,654.0008,500.7947,654.2678,500.7322,654.1765,500.6944,654.5786,501.1539,654.4082,501.3762,654.686,501.7842,655.0819,502.241,655,502.5,654.9513,502.5,655.1053,511.7637,655.3386,521.0273,655.4162,530.291,654.9961,539.5547,655.2872,548.8184,655,558.082,654.8237,558.009,654.9411,558.4719,654.8759,558.8591,654.6976,559.1994,654.603,559.5744,654.2678,559.8498,654.2061,559.701,653.831,559.7954,653.4814,559.9513,653.1996,560.271,652.8285,560.3751,652.5,560.582,652.5,561.2634,642.4091,560.4074,632.3182,560.239,622.2273,560.8103,612.1364,559.9152,602.0455,560.0629,591.9545,561.231,581.8636,561.0177,571.7727,561.3165,561.6818,560.2602,551.5909,560.9012,541.5,561.1725,531.4091,560.1096,521.3182,560.4862,511.2273,560.708,501.1364,561.2338,491.0455,560.5778,480.9545,561.0446,470.8636,560.0282,460.7727,559.9048,450.6818,561.0856,440.5909,559.8651,430.5,560.582,430.5649,560.7388,430.1728,560.4992,429.7587,560.2066,429.3942,560.0337,429.1443,560.1375,428.7322,559.8498,428.6401,559.8116,428.7681,559.5717,428.2691,559.0722,428.483,558.8679,428.2956,558.4974,428,558.082,428.245,558.082,428.0472,548.8184,428.7266,539.5547,428.6136,530.291,428.1693,521.0273,428.2682,511.7637,428,502.5,427.9599,502.4834,428.3671,502.2378,428.3406,501.8126,428.4925,501.4614,428.3984,501.0082,428.7322,500.7322,428.6805,500.6074,429.1535,500.7492,429.4942,500.5717,429.7874,500.2797,430.1054,500.0472,430.5,500" style="stroke:#181818;stroke-width:0.5;"/><polygon fill="#ADD1B2" points="454.0608,524.9667,452.4484,527.1698,450.5412,530.3967,447.8136,532.5714,444.9474,533.7606,442.662,533.8638,439.7247,532.3766,436.9532,531.4049,434.8495,529.4322,433.7461,527.1738,433.0917,525.3756,432.4506,523.0267,431.41,521.0055,432.2096,519.032,432.9102,516.8702,435.5393,515.1605,437.389,512.9421,439.6784,512.2055,442.4001,511.5711,445.8904,511.948,447.8021,512.8495,450.0247,513.2582,452.7272,516.027,453.6693,518.95,454.0786,520.9444,453.615,524.2309" style="stroke:#181818;stroke-width:1.0;"/><path d="M445.7656,518.166 Q445.9219,517.9473 446.1094,517.8379 Q446.2969,517.7285 446.5156,517.7285 Q446.8906,517.7285 447.125,517.9941 Q447.3594,518.2441 447.3594,518.8535 L447.3594,520.3066 Q447.3594,520.916 447.125,521.1816 Q446.8906,521.4473 446.5156,521.4473 Q446.1719,521.4473 445.9688,521.2441 Q445.7656,521.0566 445.6563,520.541 Q445.6094,520.1816 445.4219,519.9941 Q445.0938,519.6191 444.4844,519.4004 Q443.875,519.1816 443.25,519.1816 Q442.4844,519.1816 441.8438,519.5098 Q441.2188,519.8379 440.7188,520.5879 Q440.2344,521.3379 440.2344,522.3691 L440.2344,523.4629 Q440.2344,524.6973 441.125,525.5254 Q442.0156,526.3379 443.6094,526.3379 Q444.5469,526.3379 445.2031,526.0879 Q445.5938,525.9316 446.0156,525.4941 Q446.2813,525.2285 446.4219,525.1504 Q446.5781,525.0723 446.7813,525.0723 Q447.1094,525.0723 447.3594,525.3379 Q447.625,525.5879 447.625,525.9316 Q447.625,526.2754 447.2813,526.6816 Q446.7813,527.2598 445.9844,527.5879 Q444.9063,528.041 443.6094,528.041 Q442.0938,528.041 440.8906,527.416 Q439.9063,526.916 439.2188,525.8535 Q438.5313,524.7754 438.5313,523.4941 L438.5313,522.3379 Q438.5313,521.0098 439.1406,519.8691 Q439.7656,518.7129 440.8594,518.1035 Q441.9531,517.4785 443.1875,517.4785 Q443.9219,517.4785 444.5625,517.6504 Q445.2188,517.8066 445.7656,518.166 Z " fill="#000000"/><text fill="#000000" font-family="FG Virgil" font-size="12" font-style="italic" lengthAdjust="spacing" textLength="68" x="520.5" y="517.9492">&#171;repository&#187;</text><text fill="#000000" font-family="FG Virgil" font-size="14" lengthAdjust="spacing" textLength="195" x="457" y="536.0684">JobOpeningProcessRepository</text><path d="M429,544.582 L429,544.8623 L438.7826,544.0296 L448.5652,544.8397 L458.3478,545.1149 L468.1304,543.6308 L477.913,544.4784 L487.6957,544.0134 L497.4783,544.0707 L507.2609,544.4912 L517.0435,543.6602 L526.8261,545.3202 L536.6087,543.7417 L546.3913,544.3183 L556.1739,545.158 L565.9565,544.4677 L575.7391,544.673 L585.5217,544.5394 L595.3043,544.8201 L605.087,544.9009 L614.8696,545.363 L624.6522,545.4768 L634.4348,545.4877 L644.2174,544.9215 L654,544.582 " fill="#F1F1F1" style="stroke:#181818;stroke-width:0.5;"/><path d="M429,552.582 L429,552.8623 L438.7826,552.0296 L448.5652,552.8397 L458.3478,553.1149 L468.1304,551.6308 L477.913,552.4784 L487.6957,552.0134 L497.4783,552.0707 L507.2609,552.4912 L517.0435,551.6602 L526.8261,553.3202 L536.6087,551.7417 L546.3913,552.3183 L556.1739,553.158 L565.9565,552.4677 L575.7391,552.673 L585.5217,552.5394 L595.3043,552.8201 L605.087,552.9009 L614.8696,553.363 L624.6522,553.4768 L634.4348,553.4877 L644.2174,552.9215 L654,552.582 " fill="#F1F1F1" style="stroke:#181818;stroke-width:0.5;"/></g><!--class JobOpening--><g id="elem_JobOpening"><polygon fill="#F1F1F1" points="649,351,649,351.2102,659.3,350.5857,669.6,351.1933,679.9,351.3997,690.2,350.2866,700.5,350.9223,710.8,350.5735,721.1,350.6165,731.4,350.9318,741.7,350.3086,752,351,752.0706,351.1705,752.2732,350.9523,752.6819,351.232,753.1158,351.5724,753.4033,351.5594,753.7678,351.7322,753.7888,351.7409,753.9044,352.0817,754.1156,352.4621,754.2808,352.8234,754.5339,353.2212,754.5,353.5,755.1711,353.5,755.1793,362.7637,754.7546,372.0273,754.9636,381.291,755.2022,390.5547,753.7788,399.8184,754.5,409.082,754.709,409.1686,754.2622,409.3978,754.3715,409.8572,753.9082,410.0795,753.8931,410.4875,753.7678,410.8498,753.8624,411.0782,753.408,410.9812,753.0741,411.1751,752.7503,411.3934,752.4066,411.5638,752,411.582,752,411.5781,741.7,411.8692,731.4,411.0096,721.1,411.8664,710.8,412.1302,700.5,412.0266,690.2,412.1951,679.9,411.099,669.6,410.9298,659.3,410.9606,649,411.582,648.9925,411.5639,648.6214,411.3751,648.3798,411.499,647.9171,411.0889,647.542,410.8906,647.2322,410.8498,647.3025,410.8789,646.8804,410.4112,646.7795,410.0765,646.9927,409.8719,646.7806,409.4912,646.5,409.082,647.2345,409.082,646.1782,399.8184,646.8192,390.5547,647.0904,381.291,646.0276,372.0273,646.4041,362.7637,646.5,353.5,646.5388,353.5161,646.8472,353.2296,646.7916,352.7924,647.0818,352.4983,646.9152,352.0151,647.2322,351.7322,647.1458,351.5237,647.65,351.7409,647.8479,351.2186,648.3578,351.4496,648.6728,351.2101,649,351" style="stroke:#181818;stroke-width:0.5;"/><polygon fill="#ADD1B2" points="672.5608,375.9667,670.9484,378.1698,669.0412,381.3967,666.3136,383.5714,663.4474,384.7606,661.162,384.8638,658.2247,383.3766,655.4532,382.4049,653.3495,380.4322,652.2461,378.1738,651.5917,376.3756,650.9506,374.0267,649.91,372.0055,650.7096,370.032,651.4102,367.8702,654.0393,366.1605,655.889,363.9421,658.1784,363.2055,660.9001,362.5711,664.3904,362.948,666.3021,363.8495,668.5247,364.2582,671.2272,367.027,672.1693,369.95,672.5786,371.9444,672.115,375.2309" style="stroke:#181818;stroke-width:1.0;"/><path d="M664.2656,369.166 Q664.4219,368.9473 664.6094,368.8379 Q664.7969,368.7285 665.0156,368.7285 Q665.3906,368.7285 665.625,368.9941 Q665.8594,369.2441 665.8594,369.8535 L665.8594,371.3066 Q665.8594,371.916 665.625,372.1816 Q665.3906,372.4473 665.0156,372.4473 Q664.6719,372.4473 664.4688,372.2441 Q664.2656,372.0566 664.1563,371.541 Q664.1094,371.1816 663.9219,370.9941 Q663.5938,370.6191 662.9844,370.4004 Q662.375,370.1816 661.75,370.1816 Q660.9844,370.1816 660.3438,370.5098 Q659.7188,370.8379 659.2188,371.5879 Q658.7344,372.3379 658.7344,373.3691 L658.7344,374.4629 Q658.7344,375.6973 659.625,376.5254 Q660.5156,377.3379 662.1094,377.3379 Q663.0469,377.3379 663.7031,377.0879 Q664.0938,376.9316 664.5156,376.4941 Q664.7813,376.2285 664.9219,376.1504 Q665.0781,376.0723 665.2813,376.0723 Q665.6094,376.0723 665.8594,376.3379 Q666.125,376.5879 666.125,376.9316 Q666.125,377.2754 665.7813,377.6816 Q665.2813,378.2598 664.4844,378.5879 Q663.4063,379.041 662.1094,379.041 Q660.5938,379.041 659.3906,378.416 Q658.4063,377.916 657.7188,376.8535 Q657.0313,375.7754 657.0313,374.4941 L657.0313,373.3379 Q657.0313,372.0098 657.6406,370.8691 Q658.2656,369.7129 659.3594,369.1035 Q660.4531,368.4785 661.6875,368.4785 Q662.4219,368.4785 663.0625,368.6504 Q663.7188,368.8066 664.2656,369.166 Z " fill="#000000"/><text fill="#000000" font-family="FG Virgil" font-size="12" font-style="italic" lengthAdjust="spacing" textLength="56" x="685.5" y="368.9492">&#171;domain&#187;</text><text fill="#000000" font-family="FG Virgil" font-size="14" lengthAdjust="spacing" textLength="76" x="675.5" y="387.0684">JobOpening</text><path d="M647.5,395.582 L647.5,395.8623 L657.1364,395.0296 L666.7727,395.8397 L676.4091,396.1149 L686.0455,394.6308 L695.6818,395.4784 L705.3182,395.0134 L714.9545,395.0707 L724.5909,395.4912 L734.2273,394.6602 L743.8636,396.3202 L753.5,395.582 " fill="#F1F1F1" style="stroke:#181818;stroke-width:0.5;"/><path d="M647.5,403.582 L647.5,403.8623 L657.1364,403.0296 L666.7727,403.8397 L676.4091,404.1149 L686.0455,402.6308 L695.6818,403.4784 L705.3182,403.0134 L714.9545,403.0707 L724.5909,403.4912 L734.2273,402.6602 L743.8636,404.3202 L753.5,403.582 " fill="#F1F1F1" style="stroke:#181818;stroke-width:0.5;"/></g><!--class JobOpeningProcess--><g id="elem_JobOpeningProcess"><polygon fill="#F1F1F1" points="792.5,351,792.5,351.2102,802.7667,350.5857,813.0333,351.1933,823.3,351.3997,833.5667,350.2866,843.8333,350.9223,854.1,350.5735,864.3667,350.6165,874.6333,350.9318,884.9,350.3086,895.1667,351.5536,905.4333,350.3697,915.7,350.8022,925.9667,351.4319,936.2333,350.9142,946.5,351,946.5087,351.021,946.8495,351.1366,947.2299,351.3479,947.5912,351.513,947.9889,351.7662,948.2678,351.7322,948.4744,351.8178,948.6234,352.1724,948.6391,352.4718,948.8499,352.852,949.0698,353.236,949,353.5,948.2788,353.5,949.6785,362.7637,948.7035,372.0273,949.5338,381.291,948.505,390.5547,948.9315,399.8184,949,409.082,949.2284,409.1766,948.8385,409.4294,948.7395,409.8026,948.6649,410.1859,948.5424,410.5493,948.2678,410.8498,948.2673,410.8486,947.9509,411.0847,947.4876,410.9664,947.2434,411.3767,946.9235,411.6044,946.5,411.582,946.5,412.0266,936.2333,412.1951,925.9667,411.099,915.7,410.9298,905.4333,410.9606,895.1667,411.5232,884.9,411.3855,874.6333,412.2634,864.3667,411.4074,854.1,411.239,843.8333,411.8103,833.5667,410.9152,823.3,411.0629,813.0333,412.231,802.7667,412.0177,792.5,411.582,792.5937,411.8082,792.1054,411.3365,791.8336,411.3874,791.5147,411.3245,791.0255,410.8508,790.7322,410.8498,790.7027,410.8376,790.6246,410.5123,790.6401,410.2258,790.2916,409.7886,790.2889,409.4946,790,409.082,789.4462,409.082,789.3227,399.8184,790.5036,390.5547,789.2831,381.291,790.509,372.0273,790.2066,362.7637,790,353.5,789.9175,353.4658,790.0375,353.1013,790.4342,352.8514,790.3472,352.4012,790.7681,352.1613,790.7322,351.7322,790.6617,351.562,791.1645,351.7759,791.5011,351.5885,791.8241,351.3683,792.1525,351.161,792.5,351" style="stroke:#181818;stroke-width:0.5;"/><polygon fill="#ADD1B2" points="816.0608,375.9667,814.4484,378.1698,812.5412,381.3967,809.8136,383.5714,806.9474,384.7606,804.662,384.8638,801.7247,383.3766,798.9532,382.4049,796.8495,380.4322,795.7461,378.1738,795.0917,376.3756,794.4506,374.0267,793.41,372.0055,794.2096,370.032,794.9102,367.8702,797.5393,366.1605,799.389,363.9421,801.6784,363.2055,804.4001,362.5711,807.8904,362.948,809.8021,363.8495,812.0247,364.2582,814.7272,367.027,815.6693,369.95,816.0786,371.9444,815.615,375.2309" style="stroke:#181818;stroke-width:1.0;"/><path d="M807.7656,369.166 Q807.9219,368.9473 808.1094,368.8379 Q808.2969,368.7285 808.5156,368.7285 Q808.8906,368.7285 809.125,368.9941 Q809.3594,369.2441 809.3594,369.8535 L809.3594,371.3066 Q809.3594,371.916 809.125,372.1816 Q808.8906,372.4473 808.5156,372.4473 Q808.1719,372.4473 807.9688,372.2441 Q807.7656,372.0566 807.6563,371.541 Q807.6094,371.1816 807.4219,370.9941 Q807.0938,370.6191 806.4844,370.4004 Q805.875,370.1816 805.25,370.1816 Q804.4844,370.1816 803.8438,370.5098 Q803.2188,370.8379 802.7188,371.5879 Q802.2344,372.3379 802.2344,373.3691 L802.2344,374.4629 Q802.2344,375.6973 803.125,376.5254 Q804.0156,377.3379 805.6094,377.3379 Q806.5469,377.3379 807.2031,377.0879 Q807.5938,376.9316 808.0156,376.4941 Q808.2813,376.2285 808.4219,376.1504 Q808.5781,376.0723 808.7813,376.0723 Q809.1094,376.0723 809.3594,376.3379 Q809.625,376.5879 809.625,376.9316 Q809.625,377.2754 809.2813,377.6816 Q808.7813,378.2598 807.9844,378.5879 Q806.9063,379.041 805.6094,379.041 Q804.0938,379.041 802.8906,378.416 Q801.9063,377.916 801.2188,376.8535 Q800.5313,375.7754 800.5313,374.4941 L800.5313,373.3379 Q800.5313,372.0098 801.1406,370.8691 Q801.7656,369.7129 802.8594,369.1035 Q803.9531,368.4785 805.1875,368.4785 Q805.9219,368.4785 806.5625,368.6504 Q807.2188,368.8066 807.7656,369.166 Z " fill="#000000"/><text fill="#000000" font-family="FG Virgil" font-size="12" font-style="italic" lengthAdjust="spacing" textLength="56" x="854.5" y="368.9492">&#171;domain&#187;</text><text fill="#000000" font-family="FG Virgil" font-size="14" lengthAdjust="spacing" textLength="127" x="819" y="387.0684">JobOpeningProcess</text><path d="M791,395.582 L791,395.8623 L800.8125,395.0296 L810.625,395.8397 L820.4375,396.1149 L830.25,394.6308 L840.0625,395.4784 L849.875,395.0134 L859.6875,395.0707 L869.5,395.4912 L879.3125,394.6602 L889.125,396.3202 L898.9375,394.7417 L908.75,395.3183 L918.5625,396.158 L928.375,395.4677 L938.1875,395.673 L948,395.582 " fill="#F1F1F1" style="stroke:#181818;stroke-width:0.5;"/><path d="M791,403.582 L791,403.8623 L800.8125,403.0296 L810.625,403.8397 L820.4375,404.1149 L830.25,402.6308 L840.0625,403.4784 L849.875,403.0134 L859.6875,403.0707 L869.5,403.4912 L879.3125,402.6602 L889.125,404.3202 L898.9375,402.7417 L908.75,403.3183 L918.5625,404.158 L928.375,403.4677 L938.1875,403.673 L948,403.582 " fill="#F1F1F1" style="stroke:#181818;stroke-width:0.5;"/></g><!--class Application--><g id="elem_Application"><polygon fill="#F1F1F1" points="776.5,500,776.5,500.2102,786.1,499.5857,795.7,500.1933,805.3,500.3997,814.9,499.2866,824.5,499.9223,834.1,499.5735,843.7,499.6165,853.3,499.9318,862.9,499.3086,872.5,500,872.5706,500.1705,872.7732,499.9523,873.1819,500.232,873.6158,500.5724,873.9033,500.5594,874.2678,500.7322,874.2888,500.7409,874.4044,501.0817,874.6156,501.4621,874.7808,501.8234,875.0339,502.2212,875,502.5,875.6711,502.5,875.6793,511.7637,875.2546,521.0273,875.4636,530.291,875.7022,539.5547,874.2788,548.8184,875,558.082,875.209,558.1686,874.7622,558.3978,874.8715,558.8572,874.4082,559.0795,874.3931,559.4875,874.2678,559.8498,874.3624,560.0782,873.908,559.9812,873.5741,560.1751,873.2503,560.3934,872.9066,560.5638,872.5,560.582,872.5,560.5781,862.9,560.8692,853.3,560.0096,843.7,560.8664,834.1,561.1302,824.5,561.0266,814.9,561.1951,805.3,560.099,795.7,559.9298,786.1,559.9606,776.5,560.582,776.4925,560.5639,776.1214,560.3751,775.8798,560.499,775.4171,560.0889,775.042,559.8906,774.7322,559.8498,774.8025,559.8789,774.3804,559.4112,774.2795,559.0765,774.4927,558.8719,774.2806,558.4912,774,558.082,774.7345,558.082,773.6782,548.8184,774.3192,539.5547,774.5904,530.291,773.5276,521.0273,773.9041,511.7637,774,502.5,774.0388,502.5161,774.3472,502.2296,774.2916,501.7924,774.5818,501.4983,774.4152,501.0151,774.7322,500.7322,774.6458,500.5237,775.15,500.7409,775.3479,500.2186,775.8578,500.4496,776.1728,500.2101,776.5,500" style="stroke:#181818;stroke-width:0.5;"/><polygon fill="#ADD1B2" points="800.0608,524.9667,798.4484,527.1698,796.5412,530.3967,793.8136,532.5714,790.9474,533.7606,788.662,533.8638,785.7247,532.3766,782.9532,531.4049,780.8495,529.4322,779.7461,527.1738,779.0917,525.3756,778.4506,523.0267,777.41,521.0055,778.2096,519.032,778.9102,516.8702,781.5393,515.1605,783.389,512.9421,785.6784,512.2055,788.4001,511.5711,791.8904,511.948,793.8021,512.8495,796.0247,513.2582,798.7272,516.027,799.6693,518.95,800.0786,520.9444,799.615,524.2309" style="stroke:#181818;stroke-width:1.0;"/><path d="M791.7656,518.166 Q791.9219,517.9473 792.1094,517.8379 Q792.2969,517.7285 792.5156,517.7285 Q792.8906,517.7285 793.125,517.9941 Q793.3594,518.2441 793.3594,518.8535 L793.3594,520.3066 Q793.3594,520.916 793.125,521.1816 Q792.8906,521.4473 792.5156,521.4473 Q792.1719,521.4473 791.9688,521.2441 Q791.7656,521.0566 791.6563,520.541 Q791.6094,520.1816 791.4219,519.9941 Q791.0938,519.6191 790.4844,519.4004 Q789.875,519.1816 789.25,519.1816 Q788.4844,519.1816 787.8438,519.5098 Q787.2188,519.8379 786.7188,520.5879 Q786.2344,521.3379 786.2344,522.3691 L786.2344,523.4629 Q786.2344,524.6973 787.125,525.5254 Q788.0156,526.3379 789.6094,526.3379 Q790.5469,526.3379 791.2031,526.0879 Q791.5938,525.9316 792.0156,525.4941 Q792.2813,525.2285 792.4219,525.1504 Q792.5781,525.0723 792.7813,525.0723 Q793.1094,525.0723 793.3594,525.3379 Q793.625,525.5879 793.625,525.9316 Q793.625,526.2754 793.2813,526.6816 Q792.7813,527.2598 791.9844,527.5879 Q790.9063,528.041 789.6094,528.041 Q788.0938,528.041 786.8906,527.416 Q785.9063,526.916 785.2188,525.8535 Q784.5313,524.7754 784.5313,523.4941 L784.5313,522.3379 Q784.5313,521.0098 785.1406,519.8691 Q785.7656,518.7129 786.8594,518.1035 Q787.9531,517.4785 789.1875,517.4785 Q789.9219,517.4785 790.5625,517.6504 Q791.2188,517.8066 791.7656,518.166 Z " fill="#000000"/><text fill="#000000" font-family="FG Virgil" font-size="12" font-style="italic" lengthAdjust="spacing" textLength="56" x="809.5" y="517.9492">&#171;domain&#187;</text><text fill="#000000" font-family="FG Virgil" font-size="14" lengthAdjust="spacing" textLength="69" x="803" y="536.0684">Application</text><path d="M775,544.582 L775,544.8623 L784.9,544.0296 L794.8,544.8397 L804.7,545.1149 L814.6,543.6308 L824.5,544.4784 L834.4,544.0134 L844.3,544.0707 L854.2,544.4912 L864.1,543.6602 L874,544.582 " fill="#F1F1F1" style="stroke:#181818;stroke-width:0.5;"/><path d="M775,552.582 L775,552.8623 L784.9,552.0296 L794.8,552.8397 L804.7,553.1149 L814.6,551.6308 L824.5,552.4784 L834.4,552.0134 L844.3,552.0707 L854.2,552.4912 L864.1,551.6602 L874,552.582 " fill="#F1F1F1" style="stroke:#181818;stroke-width:0.5;"/></g><!--link SwitchJobOpeningPhasesUI to SwitchJobOpeningPhasesController--><g id="link_SwitchJobOpeningPhasesUI_SwitchJobOpeningPhasesController"><path d="M537.5,105.31 L537.7802,105.31 L536.9476,115.6729 L537.7577,126.0357 L538.0329,136.3986 L536.5488,146.7614 L537.3964,157.1243 L536.9313,167.4871 L537.5,177.85 " fill="none" style="stroke:#181818;stroke-width:1.0;"/><polygon fill="#181818" points="537.5,183.85,537.564,183.8785,538.1738,181.9939,539.1589,180.2762,540.0217,178.5041,540.4827,176.5534,541.5,174.85,541.4817,174.8317,540.5995,175.5495,539.8096,176.3596,539.0839,177.2339,538.137,177.887,537.5,178.85,537.6305,178.9805,536.5514,177.9014,535.8534,177.2034,535.2018,176.5518,534.2798,175.6298,533.5,174.85,533.5208,174.8592,534.2903,176.6457,535.1544,178.4742,535.9728,180.2824,536.8784,182.1293,537.5,183.85" style="stroke:#181818;stroke-width:1.0;"/><text fill="#000000" font-family="FG Virgil" font-size="13" lengthAdjust="spacing" textLength="73" x="538.5" y="150.0283">theController</text></g><!--link SwitchJobOpeningPhasesController to AuthorizationService--><g id="link_SwitchJobOpeningPhasesController_AuthorizationService"><path d="M458.4,263.06 L458.5228,263.3119 L448.9528,267.0511 L440.1027,272.267 L431.0182,277.0021 L421.1627,280.1557 L412.3291,285.4053 L402.9202,289.475 L393.7402,294.0142 L384.7193,298.8798 L375.1501,302.6206 L366.6724,308.6004 L356.7756,311.6692 L347.8232,316.6752 L338.986,321.9176 L329.4784,325.7848 L320.3633,330.4571 L311.0996,334.8247 L301.9132,339.3507 " fill="none" style="stroke:#181818;stroke-width:1.0;"/><polygon fill="#181818" points="296.52,341.98,296.5225,342.05,298.4837,341.7723,300.4594,341.905,302.4303,341.904,304.3857,341.4635,306.3627,341.6315,306.3543,341.607,305.2467,341.1285,304.1817,340.7736,303.1463,340.5044,302.0089,339.9395,301.0143,339.7889,301.1888,339.849,301.1842,338.6508,301.689,337.6281,302.256,336.6268,302.4614,335.5009,302.8569,334.4405,302.8743,334.4552,301.5814,335.9416,300.3677,337.4946,299.1158,339.0155,297.9368,340.5977,296.52,341.98" style="stroke:#181818;stroke-width:1.0;"/><text fill="#000000" font-family="FG Virgil" font-size="13" lengthAdjust="spacing" textLength="32" x="398.5" y="308.0283">authz</text></g><!--link SwitchJobOpeningPhasesController to JobOpening--><g id="link_SwitchJobOpeningPhasesController_JobOpening"><path d="M577.79,263.06 L577.9838,263.2625 L584.6985,269.6385 L592.5492,277.2013 L600.0299,284.3777 L606.2943,290.2831 L614.1708,297.873 L621.1398,304.5146 L628.4699,311.5336 L636.0511,318.8149 L642.7671,325.1921 L651.2053,333.369 L657.4044,339.2061 L665.2759,346.7908 " fill="none" style="stroke:#181818;stroke-width:1.0;"/><polygon fill="#181818" points="669.61,350.94,669.6748,350.9666,668.7352,349.065,668.1756,347.3192,667.4923,345.5226,666.402,343.5593,665.875,341.8268,665.8491,341.8263,665.7575,342.9548,665.7965,344.0863,665.9263,345.2196,665.7432,346.3462,665.9983,347.4823,666.0023,347.6668,664.8626,347.297,663.7346,347.4657,662.6081,347.7002,661.4732,347.5524,660.3428,347.6056,660.3505,347.627,662.1926,348.2625,664.0698,348.9954,665.9301,349.6812,667.8226,350.4568,669.61,350.94" style="stroke:#181818;stroke-width:1.0;"/><text fill="#000000" font-family="FG Virgil" font-size="13" lengthAdjust="spacing" textLength="51" x="630.5" y="308.0283">activates</text></g><!--link RepositoryFactory to JobOpeningRepository--><g id="link_RepositoryFactory_JobOpeningRepository"><path d="M463.46,416.63 L463.5029,416.713 L460.3001,418.058 L457.3489,419.8894 L454.3158,421.5624 L451.0131,422.7147 L448.0836,424.5878 L448.0671,424.5575 L444.8875,426.1107 L441.7912,427.817 L438.7527,429.6295 L435.5149,431.0756 L432.5563,433.035 L432.6792,433.2481 L429.3532,434.5598 L426.3861,436.4937 L423.4629,438.5036 L420.2848,440.0717 L417.2408,441.8722 L417.2567,441.898 L414.2851,443.6857 L411.3862,445.5908 L408.4523,447.4392 L405.5852,449.3957 L402.5,451 L402.6665,451.2474 L399.4139,453.4408 L396.0538,455.4746 L392.851,457.742 L389.6556,460.0203 L386.2267,461.9517 L386.0376,461.6929 L383.3644,464.4151 L380.0688,466.285 L377.2463,468.8029 L373.9366,470.6535 L371.0263,473.051 L371.0075,473.027 L368.3469,475.5672 L365.2478,477.5472 L362.4074,479.8577 L359.5888,482.196 L356.6134,484.3341 L356.7313,484.4766 L353.8302,486.6333 L351.1304,489.0336 L348.1048,491.0398 L345.5653,493.6338 L342.7026,495.837 " fill="none" style="stroke:#181818;stroke-width:1.0;"/><polygon fill="#181818" points="338.12,499.71,338.1396,499.7773,339.9725,499.0265,341.9204,498.6701,343.8308,498.1853,345.6182,497.2782,347.5759,496.9556,347.5737,496.9298,346.4366,496.7193,345.3104,496.639,344.1917,496.6491,343.047,496.3475,341.9388,496.4825,342.1227,496.498,341.8241,495.3376,342.0624,494.2222,342.3662,493.1123,342.2888,491.9705,342.4119,490.8455,342.4324,490.8554,341.5439,492.6138,340.7487,494.4172,339.9085,496.1989,339.1541,498.0222,338.12,499.71" style="stroke:#181818;stroke-width:1.0;"/><text fill="#000000" font-family="FG Virgil" font-size="13" lengthAdjust="spacing" textLength="127" x="403.5" y="466.0283">jobOpeningRepository</text></g><!--link RepositoryFactory to JobOpeningProcessRepository--><g id="link_RepositoryFactory_JobOpeningProcessRepository"><path d="M538.55,421.12 L538.8301,421.1276 L538.2815,431.511 L539.3751,441.9391 L539.9339,452.3526 L538.734,462.7182 L539.865,473.1473 L539.6839,483.5407 L540.536,493.9622 " fill="none" style="stroke:#181818;stroke-width:1.0;"/><polygon fill="#181818" points="540.7,499.96,540.7648,499.9867,541.3228,498.0862,542.2606,496.3422,543.0747,494.5472,543.4822,492.5846,544.4526,490.8541,544.4338,490.8362,543.5715,491.5779,542.8041,492.4093,542.1025,493.3031,541.1739,493.9819,540.5634,494.9619,540.6902,495.0959,539.5974,494.0315,538.8749,493.3583,538.1977,492.7329,537.2575,491.8297,536.4556,491.0727,536.4761,491.0825,537.2948,492.8455,538.207,494.6532,539.0742,496.4394,540.0273,498.2667,540.7,499.96" style="stroke:#181818;stroke-width:1.0;"/><text fill="#000000" font-family="FG Virgil" font-size="13" lengthAdjust="spacing" textLength="175" x="541.5" y="466.0283">jobOpeningProcessRepository</text></g><!--link JobOpening to Application--><g id="link_JobOpening_Application"><path d="M725.59,412.25 L725.8042,412.4307 L731.8814,419.8529 L739.2143,428.3343 L746.1383,436.4709 L751.7175,443.4731 L759.079,451.9786 L765.4371,459.6379 L772.1946,467.6339 L779.2296,475.8641 L785.3081,483.2875 L793.2906,492.3169 L799.44,499.8 " fill="none" style="stroke:#181818;stroke-width:1.0;"/><text fill="#000000" font-family="FG Virgil" font-size="13" lengthAdjust="spacing" textLength="55" x="775.5" y="466.0283">may have</text></g><!--link JobOpeningProcess to Application--><g id="link_JobOpeningProcess_Application"><path d="M860.39,412.25 L860.658,412.332 L856.884,421.8161 L854.6809,431.781 L851.9662,441.5893 L847.5694,450.8827 L845.402,460.8586 L841.9796,470.4502 L839.0566,480.1948 L836.4809,490.0456 L833.59,499.8 " fill="none" style="stroke:#181818;stroke-width:1.0;"/><text fill="#000000" font-family="FG Virgil" font-size="13" lengthAdjust="spacing" textLength="49" x="848.5" y="466.0283">contains</text></g><!--link SwitchJobOpeningPhasesController to RepositoryFactory--><g id="link_SwitchJobOpeningPhasesController_RepositoryFactory"><path d="M537.5,263.06 L537.7802,263.06 L536.9476,273.4571 L537.7577,283.8543 L538.0329,294.2514 L536.5488,304.6486 L537.3964,315.0457 L536.9313,325.4429 L537.5,335.84 " fill="none" style="stroke:#181818;stroke-width:1.0;stroke-dasharray:7.0,7.0;"/><polygon fill="#181818" points="537.5,341.84,537.564,341.8685,538.1738,339.9839,539.1589,338.2662,540.0217,336.4941,540.4827,334.5434,541.5,332.84,541.4817,332.8217,540.5995,333.5395,539.8096,334.3496,539.0839,335.2239,538.137,335.877,537.5,336.84,537.6305,336.9705,536.5514,335.8914,535.8534,335.1934,535.2018,334.5418,534.2798,333.6198,533.5,332.84,533.5208,332.8492,534.2903,334.6357,535.1544,336.4642,535.9728,338.2724,536.8784,340.1193,537.5,341.84" style="stroke:#181818;stroke-width:1.0;"/></g><!--SRC=[ZLJ1JkCm4BtxAtmhUmWdJb4LgLfHM8IM5HNS1tlQU77joEEqAYk-Xo_W2_YndQHHOmWbd38Ul_Tcnc-K2JqQLq60jJX4iWIdjy74Y4x6K6DoLO5wX1KkuiwY3AXYSgTn2RMDS-_YRrYZd5_8UnDMnYOOAa7xhN4hkGHBACJat4MZGIC9PO58BhOcglBAFznKw1ZufmH2klibfzCg8A6B48rtHI7_YKngloZzzkG7XoM2jiOX7vw_rFh93GPlBGRMXAgoHdMIZI9zv0IlaAYbjjATzgoEfG_cgQKkC6oCGjQZVTIrXuxgW0sK-sxAeBvZn2NGpErkbYVS1fBCvRMXEEMQT5RVDgcYBTHLkiNAaua-xEQWcW-NMUwZhipVGxUKJD_Fq2imDHmEBRkVQ33p2EqZYq7Qhy7ilJakUmGtwvqO82Op8gyClBsylVAc7DsHB2l6JSybsz6VnIYXKVtKxbm2fv- -fv0y5FDKD1jU1n93Tz-34nFonEW-FQemT3CL6joAfD4iUsTBBjUmuz_31iNGrG5MyVpi8SdnzpazBOPh_Xy0]--></g></svg>