<?xml version="1.0" encoding="us-ascii" standalone="no"?><svg xmlns="http://www.w3.org/2000/svg" xmlns:xlink="http://www.w3.org/1999/xlink" contentStyleType="text/css" height="1101px" preserveAspectRatio="none" style="width:540px;height:1101px;background:#FFFFFF;" version="1.1" viewBox="0 0 540 1101" width="540px" zoomAndPan="magnify"><defs/><g><!--class NotifyCandidateApplicationStateUI--><g id="elem_NotifyCandidateApplicationStateUI"><rect codeLine="3" fill="#F1F1F1" height="48" id="NotifyCandidateApplicationStateUI" rx="2.5" ry="2.5" style="stroke:#181818;stroke-width:0.5;" width="246" x="32" y="7"/><ellipse cx="47" cy="23" fill="#ADD1B2" rx="11" ry="11" style="stroke:#181818;stroke-width:1.0;"/><path d="M49.7656,18.875 Q49.9219,18.6563 50.1094,18.5469 Q50.2969,18.4375 50.5156,18.4375 Q50.8906,18.4375 51.125,18.7031 Q51.3594,18.9531 51.3594,19.5625 L51.3594,21.0156 Q51.3594,21.625 51.125,21.8906 Q50.8906,22.1563 50.5156,22.1563 Q50.1719,22.1563 49.9688,21.9531 Q49.7656,21.7656 49.6563,21.25 Q49.6094,20.8906 49.4219,20.7031 Q49.0938,20.3281 48.4844,20.1094 Q47.875,19.8906 47.25,19.8906 Q46.4844,19.8906 45.8438,20.2188 Q45.2188,20.5469 44.7188,21.2969 Q44.2344,22.0469 44.2344,23.0781 L44.2344,24.1719 Q44.2344,25.4063 45.125,26.2344 Q46.0156,27.0469 47.6094,27.0469 Q48.5469,27.0469 49.2031,26.7969 Q49.5938,26.6406 50.0156,26.2031 Q50.2813,25.9375 50.4219,25.8594 Q50.5781,25.7813 50.7813,25.7813 Q51.1094,25.7813 51.3594,26.0469 Q51.625,26.2969 51.625,26.6406 Q51.625,26.9844 51.2813,27.3906 Q50.7813,27.9688 49.9844,28.2969 Q48.9063,28.75 47.6094,28.75 Q46.0938,28.75 44.8906,28.125 Q43.9063,27.625 43.2188,26.5625 Q42.5313,25.4844 42.5313,24.2031 L42.5313,23.0469 Q42.5313,21.7188 43.1406,20.5781 Q43.7656,19.4219 44.8594,18.8125 Q45.9531,18.1875 47.1875,18.1875 Q47.9219,18.1875 48.5625,18.3594 Q49.2188,18.5156 49.7656,18.875 Z " fill="#000000"/><text fill="#000000" font-family="sans-serif" font-size="14" lengthAdjust="spacing" textLength="214" x="61" y="28.7969">NotifyCandidateApplicationStateUI</text><line style="stroke:#181818;stroke-width:0.5;" x1="33" x2="277" y1="39" y2="39"/><line style="stroke:#181818;stroke-width:0.5;" x1="33" x2="277" y1="47" y2="47"/></g><!--class NotifyCandidateApplicationStateController--><g id="elem_NotifyCandidateApplicationStateController"><rect codeLine="6" fill="#F1F1F1" height="66.6211" id="NotifyCandidateApplicationStateController" rx="2.5" ry="2.5" style="stroke:#181818;stroke-width:0.5;" width="296" x="7" y="134"/><ellipse cx="22" cy="150" fill="#ADD1B2" rx="11" ry="11" style="stroke:#181818;stroke-width:1.0;"/><path d="M24.7656,145.875 Q24.9219,145.6563 25.1094,145.5469 Q25.2969,145.4375 25.5156,145.4375 Q25.8906,145.4375 26.125,145.7031 Q26.3594,145.9531 26.3594,146.5625 L26.3594,148.0156 Q26.3594,148.625 26.125,148.8906 Q25.8906,149.1563 25.5156,149.1563 Q25.1719,149.1563 24.9688,148.9531 Q24.7656,148.7656 24.6563,148.25 Q24.6094,147.8906 24.4219,147.7031 Q24.0938,147.3281 23.4844,147.1094 Q22.875,146.8906 22.25,146.8906 Q21.4844,146.8906 20.8438,147.2188 Q20.2188,147.5469 19.7188,148.2969 Q19.2344,149.0469 19.2344,150.0781 L19.2344,151.1719 Q19.2344,152.4063 20.125,153.2344 Q21.0156,154.0469 22.6094,154.0469 Q23.5469,154.0469 24.2031,153.7969 Q24.5938,153.6406 25.0156,153.2031 Q25.2813,152.9375 25.4219,152.8594 Q25.5781,152.7813 25.7813,152.7813 Q26.1094,152.7813 26.3594,153.0469 Q26.625,153.2969 26.625,153.6406 Q26.625,153.9844 26.2813,154.3906 Q25.7813,154.9688 24.9844,155.2969 Q23.9063,155.75 22.6094,155.75 Q21.0938,155.75 19.8906,155.125 Q18.9063,154.625 18.2188,153.5625 Q17.5313,152.4844 17.5313,151.2031 L17.5313,150.0469 Q17.5313,148.7188 18.1406,147.5781 Q18.7656,146.4219 19.8594,145.8125 Q20.9531,145.1875 22.1875,145.1875 Q22.9219,145.1875 23.5625,145.3594 Q24.2188,145.5156 24.7656,145.875 Z " fill="#000000"/><text fill="#000000" font-family="sans-serif" font-size="14" lengthAdjust="spacing" textLength="264" x="36" y="155.7969">NotifyCandidateApplicationStateController</text><line style="stroke:#181818;stroke-width:0.5;" x1="8" x2="302" y1="166" y2="166"/><line style="stroke:#181818;stroke-width:0.5;" x1="8" x2="302" y1="174" y2="174"/><ellipse cx="18" cy="188.8105" fill="#84BE84" rx="3" ry="3" style="stroke:#038048;stroke-width:1.0;"/><text fill="#000000" font-family="sans-serif" font-size="14" lengthAdjust="spacing" textLength="250" x="27" y="193.1074">getNotifications() : Iterable&lt;Notification&gt;</text></g><!--class NotificationService--><g id="elem_NotificationService"><rect codeLine="10" fill="#F1F1F1" height="85.2422" id="NotificationService" rx="2.5" ry="2.5" style="stroke:#181818;stroke-width:0.5;" width="296" x="7" y="280"/><ellipse cx="92.75" cy="296" fill="#ADD1B2" rx="11" ry="11" style="stroke:#181818;stroke-width:1.0;"/><path d="M95.5156,291.875 Q95.6719,291.6563 95.8594,291.5469 Q96.0469,291.4375 96.2656,291.4375 Q96.6406,291.4375 96.875,291.7031 Q97.1094,291.9531 97.1094,292.5625 L97.1094,294.0156 Q97.1094,294.625 96.875,294.8906 Q96.6406,295.1563 96.2656,295.1563 Q95.9219,295.1563 95.7188,294.9531 Q95.5156,294.7656 95.4063,294.25 Q95.3594,293.8906 95.1719,293.7031 Q94.8438,293.3281 94.2344,293.1094 Q93.625,292.8906 93,292.8906 Q92.2344,292.8906 91.5938,293.2188 Q90.9688,293.5469 90.4688,294.2969 Q89.9844,295.0469 89.9844,296.0781 L89.9844,297.1719 Q89.9844,298.4063 90.875,299.2344 Q91.7656,300.0469 93.3594,300.0469 Q94.2969,300.0469 94.9531,299.7969 Q95.3438,299.6406 95.7656,299.2031 Q96.0313,298.9375 96.1719,298.8594 Q96.3281,298.7813 96.5313,298.7813 Q96.8594,298.7813 97.1094,299.0469 Q97.375,299.2969 97.375,299.6406 Q97.375,299.9844 97.0313,300.3906 Q96.5313,300.9688 95.7344,301.2969 Q94.6563,301.75 93.3594,301.75 Q91.8438,301.75 90.6406,301.125 Q89.6563,300.625 88.9688,299.5625 Q88.2813,298.4844 88.2813,297.2031 L88.2813,296.0469 Q88.2813,294.7188 88.8906,293.5781 Q89.5156,292.4219 90.6094,291.8125 Q91.7031,291.1875 92.9375,291.1875 Q93.6719,291.1875 94.3125,291.3594 Q94.9688,291.5156 95.5156,291.875 Z " fill="#000000"/><text fill="#000000" font-family="sans-serif" font-size="14" lengthAdjust="spacing" textLength="116" x="113.25" y="301.7969">NotificationService</text><line style="stroke:#181818;stroke-width:0.5;" x1="8" x2="302" y1="312" y2="312"/><line style="stroke:#181818;stroke-width:0.5;" x1="8" x2="302" y1="320" y2="320"/><ellipse cx="18" cy="334.8105" fill="#84BE84" rx="3" ry="3" style="stroke:#038048;stroke-width:1.0;"/><text fill="#000000" font-family="sans-serif" font-size="14" lengthAdjust="spacing" textLength="270" x="27" y="339.1074">findUnreadNotifications(): List&lt;Notification&gt;</text><ellipse cx="18" cy="353.4316" fill="#84BE84" rx="3" ry="3" style="stroke:#038048;stroke-width:1.0;"/><text fill="#000000" font-family="sans-serif" font-size="14" lengthAdjust="spacing" textLength="236" x="27" y="357.7285">remove(notification: Notification): void</text></g><!--class AuthorizationService--><g id="elem_AuthorizationService"><rect codeLine="15" fill="#F1F1F1" height="66.6211" id="AuthorizationService" rx="2.5" ry="2.5" style="stroke:#181818;stroke-width:0.5;" width="161" x="15.5" y="444"/><ellipse cx="30.5" cy="460" fill="#ADD1B2" rx="11" ry="11" style="stroke:#181818;stroke-width:1.0;"/><path d="M33.2656,455.875 Q33.4219,455.6563 33.6094,455.5469 Q33.7969,455.4375 34.0156,455.4375 Q34.3906,455.4375 34.625,455.7031 Q34.8594,455.9531 34.8594,456.5625 L34.8594,458.0156 Q34.8594,458.625 34.625,458.8906 Q34.3906,459.1563 34.0156,459.1563 Q33.6719,459.1563 33.4688,458.9531 Q33.2656,458.7656 33.1563,458.25 Q33.1094,457.8906 32.9219,457.7031 Q32.5938,457.3281 31.9844,457.1094 Q31.375,456.8906 30.75,456.8906 Q29.9844,456.8906 29.3438,457.2188 Q28.7188,457.5469 28.2188,458.2969 Q27.7344,459.0469 27.7344,460.0781 L27.7344,461.1719 Q27.7344,462.4063 28.625,463.2344 Q29.5156,464.0469 31.1094,464.0469 Q32.0469,464.0469 32.7031,463.7969 Q33.0938,463.6406 33.5156,463.2031 Q33.7813,462.9375 33.9219,462.8594 Q34.0781,462.7813 34.2813,462.7813 Q34.6094,462.7813 34.8594,463.0469 Q35.125,463.2969 35.125,463.6406 Q35.125,463.9844 34.7813,464.3906 Q34.2813,464.9688 33.4844,465.2969 Q32.4063,465.75 31.1094,465.75 Q29.5938,465.75 28.3906,465.125 Q27.4063,464.625 26.7188,463.5625 Q26.0313,462.4844 26.0313,461.2031 L26.0313,460.0469 Q26.0313,458.7188 26.6406,457.5781 Q27.2656,456.4219 28.3594,455.8125 Q29.4531,455.1875 30.6875,455.1875 Q31.4219,455.1875 32.0625,455.3594 Q32.7188,455.5156 33.2656,455.875 Z " fill="#000000"/><text fill="#000000" font-family="sans-serif" font-size="14" lengthAdjust="spacing" textLength="129" x="44.5" y="465.7969">AuthorizationService</text><line style="stroke:#181818;stroke-width:0.5;" x1="16.5" x2="175.5" y1="476" y2="476"/><line style="stroke:#181818;stroke-width:0.5;" x1="16.5" x2="175.5" y1="484" y2="484"/><ellipse cx="26.5" cy="498.8105" fill="#84BE84" rx="3" ry="3" style="stroke:#038048;stroke-width:1.0;"/><text fill="#000000" font-family="sans-serif" font-size="14" lengthAdjust="spacing" textLength="116" x="35.5" y="503.1074">session(): Session</text></g><!--class PersistenceContext--><g id="elem_PersistenceContext"><rect codeLine="19" fill="#F1F1F1" height="66.6211" id="PersistenceContext" rx="2.5" ry="2.5" style="stroke:#181818;stroke-width:0.5;" width="234" x="212" y="444"/><ellipse cx="263.75" cy="460" fill="#ADD1B2" rx="11" ry="11" style="stroke:#181818;stroke-width:1.0;"/><path d="M266.5156,455.875 Q266.6719,455.6563 266.8594,455.5469 Q267.0469,455.4375 267.2656,455.4375 Q267.6406,455.4375 267.875,455.7031 Q268.1094,455.9531 268.1094,456.5625 L268.1094,458.0156 Q268.1094,458.625 267.875,458.8906 Q267.6406,459.1563 267.2656,459.1563 Q266.9219,459.1563 266.7188,458.9531 Q266.5156,458.7656 266.4063,458.25 Q266.3594,457.8906 266.1719,457.7031 Q265.8438,457.3281 265.2344,457.1094 Q264.625,456.8906 264,456.8906 Q263.2344,456.8906 262.5938,457.2188 Q261.9688,457.5469 261.4688,458.2969 Q260.9844,459.0469 260.9844,460.0781 L260.9844,461.1719 Q260.9844,462.4063 261.875,463.2344 Q262.7656,464.0469 264.3594,464.0469 Q265.2969,464.0469 265.9531,463.7969 Q266.3438,463.6406 266.7656,463.2031 Q267.0313,462.9375 267.1719,462.8594 Q267.3281,462.7813 267.5313,462.7813 Q267.8594,462.7813 268.1094,463.0469 Q268.375,463.2969 268.375,463.6406 Q268.375,463.9844 268.0313,464.3906 Q267.5313,464.9688 266.7344,465.2969 Q265.6563,465.75 264.3594,465.75 Q262.8438,465.75 261.6406,465.125 Q260.6563,464.625 259.9688,463.5625 Q259.2813,462.4844 259.2813,461.2031 L259.2813,460.0469 Q259.2813,458.7188 259.8906,457.5781 Q260.5156,456.4219 261.6094,455.8125 Q262.7031,455.1875 263.9375,455.1875 Q264.6719,455.1875 265.3125,455.3594 Q265.9688,455.5156 266.5156,455.875 Z " fill="#000000"/><text fill="#000000" font-family="sans-serif" font-size="14" lengthAdjust="spacing" textLength="122" x="284.25" y="465.7969">PersistenceContext</text><line style="stroke:#181818;stroke-width:0.5;" x1="213" x2="445" y1="476" y2="476"/><line style="stroke:#181818;stroke-width:0.5;" x1="213" x2="445" y1="484" y2="484"/><ellipse cx="223" cy="498.8105" fill="#84BE84" rx="3" ry="3" style="stroke:#038048;stroke-width:1.0;"/><text fill="#000000" font-family="sans-serif" font-size="14" lengthAdjust="spacing" textLength="208" x="232" y="503.1074">repositories(): RepositoryFactory</text></g><!--class RepositoryFactory--><g id="elem_RepositoryFactory"><rect codeLine="23" fill="#F1F1F1" height="66.6211" id="RepositoryFactory" rx="2.5" ry="2.5" style="stroke:#181818;stroke-width:0.5;" width="256" x="201" y="590"/><ellipse cx="266.75" cy="606" fill="#ADD1B2" rx="11" ry="11" style="stroke:#181818;stroke-width:1.0;"/><path d="M269.5156,601.875 Q269.6719,601.6563 269.8594,601.5469 Q270.0469,601.4375 270.2656,601.4375 Q270.6406,601.4375 270.875,601.7031 Q271.1094,601.9531 271.1094,602.5625 L271.1094,604.0156 Q271.1094,604.625 270.875,604.8906 Q270.6406,605.1563 270.2656,605.1563 Q269.9219,605.1563 269.7188,604.9531 Q269.5156,604.7656 269.4063,604.25 Q269.3594,603.8906 269.1719,603.7031 Q268.8438,603.3281 268.2344,603.1094 Q267.625,602.8906 267,602.8906 Q266.2344,602.8906 265.5938,603.2188 Q264.9688,603.5469 264.4688,604.2969 Q263.9844,605.0469 263.9844,606.0781 L263.9844,607.1719 Q263.9844,608.4063 264.875,609.2344 Q265.7656,610.0469 267.3594,610.0469 Q268.2969,610.0469 268.9531,609.7969 Q269.3438,609.6406 269.7656,609.2031 Q270.0313,608.9375 270.1719,608.8594 Q270.3281,608.7813 270.5313,608.7813 Q270.8594,608.7813 271.1094,609.0469 Q271.375,609.2969 271.375,609.6406 Q271.375,609.9844 271.0313,610.3906 Q270.5313,610.9688 269.7344,611.2969 Q268.6563,611.75 267.3594,611.75 Q265.8438,611.75 264.6406,611.125 Q263.6563,610.625 262.9688,609.5625 Q262.2813,608.4844 262.2813,607.2031 L262.2813,606.0469 Q262.2813,604.7188 262.8906,603.5781 Q263.5156,602.4219 264.6094,601.8125 Q265.7031,601.1875 266.9375,601.1875 Q267.6719,601.1875 268.3125,601.3594 Q268.9688,601.5156 269.5156,601.875 Z " fill="#000000"/><text fill="#000000" font-family="sans-serif" font-size="14" lengthAdjust="spacing" textLength="116" x="287.25" y="611.7969">RepositoryFactory</text><line style="stroke:#181818;stroke-width:0.5;" x1="202" x2="456" y1="622" y2="622"/><line style="stroke:#181818;stroke-width:0.5;" x1="202" x2="456" y1="630" y2="630"/><ellipse cx="212" cy="644.8105" fill="#84BE84" rx="3" ry="3" style="stroke:#038048;stroke-width:1.0;"/><text fill="#000000" font-family="sans-serif" font-size="14" lengthAdjust="spacing" textLength="230" x="221" y="649.1074">notifications(): NotificationRepository</text></g><!--class NotificationRepository--><g id="elem_NotificationRepository"><rect codeLine="27" fill="#F1F1F1" height="66.6211" id="NotificationRepository" rx="2.5" ry="2.5" style="stroke:#181818;stroke-width:0.5;" width="409" x="124.5" y="736"/><ellipse cx="256.25" cy="752" fill="#ADD1B2" rx="11" ry="11" style="stroke:#181818;stroke-width:1.0;"/><path d="M259.0156,747.875 Q259.1719,747.6563 259.3594,747.5469 Q259.5469,747.4375 259.7656,747.4375 Q260.1406,747.4375 260.375,747.7031 Q260.6094,747.9531 260.6094,748.5625 L260.6094,750.0156 Q260.6094,750.625 260.375,750.8906 Q260.1406,751.1563 259.7656,751.1563 Q259.4219,751.1563 259.2188,750.9531 Q259.0156,750.7656 258.9063,750.25 Q258.8594,749.8906 258.6719,749.7031 Q258.3438,749.3281 257.7344,749.1094 Q257.125,748.8906 256.5,748.8906 Q255.7344,748.8906 255.0938,749.2188 Q254.4688,749.5469 253.9688,750.2969 Q253.4844,751.0469 253.4844,752.0781 L253.4844,753.1719 Q253.4844,754.4063 254.375,755.2344 Q255.2656,756.0469 256.8594,756.0469 Q257.7969,756.0469 258.4531,755.7969 Q258.8438,755.6406 259.2656,755.2031 Q259.5313,754.9375 259.6719,754.8594 Q259.8281,754.7813 260.0313,754.7813 Q260.3594,754.7813 260.6094,755.0469 Q260.875,755.2969 260.875,755.6406 Q260.875,755.9844 260.5313,756.3906 Q260.0313,756.9688 259.2344,757.2969 Q258.1563,757.75 256.8594,757.75 Q255.3438,757.75 254.1406,757.125 Q253.1563,756.625 252.4688,755.5625 Q251.7813,754.4844 251.7813,753.2031 L251.7813,752.0469 Q251.7813,750.7188 252.3906,749.5781 Q253.0156,748.4219 254.1094,747.8125 Q255.2031,747.1875 256.4375,747.1875 Q257.1719,747.1875 257.8125,747.3594 Q258.4688,747.5156 259.0156,747.875 Z " fill="#000000"/><text fill="#000000" font-family="sans-serif" font-size="14" lengthAdjust="spacing" textLength="137" x="276.75" y="757.7969">NotificationRepository</text><line style="stroke:#181818;stroke-width:0.5;" x1="125.5" x2="532.5" y1="768" y2="768"/><line style="stroke:#181818;stroke-width:0.5;" x1="125.5" x2="532.5" y1="776" y2="776"/><ellipse cx="135.5" cy="790.8105" fill="#84BE84" rx="3" ry="3" style="stroke:#038048;stroke-width:1.0;"/><text fill="#000000" font-family="sans-serif" font-size="14" lengthAdjust="spacing" textLength="383" x="144.5" y="795.1074">findNotificationsByCandidate(email: String): List&lt;Notification&gt;</text></g><!--class Notification--><g id="elem_Notification"><rect codeLine="31" fill="#F1F1F1" height="48" id="Notification" rx="2.5" ry="2.5" style="stroke:#181818;stroke-width:0.5;" width="101" x="278.5" y="882"/><ellipse cx="293.5" cy="898" fill="#ADD1B2" rx="11" ry="11" style="stroke:#181818;stroke-width:1.0;"/><path d="M296.2656,893.875 Q296.4219,893.6563 296.6094,893.5469 Q296.7969,893.4375 297.0156,893.4375 Q297.3906,893.4375 297.625,893.7031 Q297.8594,893.9531 297.8594,894.5625 L297.8594,896.0156 Q297.8594,896.625 297.625,896.8906 Q297.3906,897.1563 297.0156,897.1563 Q296.6719,897.1563 296.4688,896.9531 Q296.2656,896.7656 296.1563,896.25 Q296.1094,895.8906 295.9219,895.7031 Q295.5938,895.3281 294.9844,895.1094 Q294.375,894.8906 293.75,894.8906 Q292.9844,894.8906 292.3438,895.2188 Q291.7188,895.5469 291.2188,896.2969 Q290.7344,897.0469 290.7344,898.0781 L290.7344,899.1719 Q290.7344,900.4063 291.625,901.2344 Q292.5156,902.0469 294.1094,902.0469 Q295.0469,902.0469 295.7031,901.7969 Q296.0938,901.6406 296.5156,901.2031 Q296.7813,900.9375 296.9219,900.8594 Q297.0781,900.7813 297.2813,900.7813 Q297.6094,900.7813 297.8594,901.0469 Q298.125,901.2969 298.125,901.6406 Q298.125,901.9844 297.7813,902.3906 Q297.2813,902.9688 296.4844,903.2969 Q295.4063,903.75 294.1094,903.75 Q292.5938,903.75 291.3906,903.125 Q290.4063,902.625 289.7188,901.5625 Q289.0313,900.4844 289.0313,899.2031 L289.0313,898.0469 Q289.0313,896.7188 289.6406,895.5781 Q290.2656,894.4219 291.3594,893.8125 Q292.4531,893.1875 293.6875,893.1875 Q294.4219,893.1875 295.0625,893.3594 Q295.7188,893.5156 296.2656,893.875 Z " fill="#000000"/><text fill="#000000" font-family="sans-serif" font-size="14" lengthAdjust="spacing" textLength="69" x="307.5" y="903.7969">Notification</text><line style="stroke:#181818;stroke-width:0.5;" x1="279.5" x2="378.5" y1="914" y2="914"/><line style="stroke:#181818;stroke-width:0.5;" x1="279.5" x2="378.5" y1="922" y2="922"/></g><!--class NotificationStatus--><g id="elem_NotificationStatus"><rect codeLine="34" fill="#F1F1F1" height="85.2422" id="NotificationStatus" rx="2.5" ry="2.5" style="stroke:#181818;stroke-width:0.5;" width="141" x="258.5" y="1009"/><ellipse cx="273.5" cy="1025" fill="#EB937F" rx="11" ry="11" style="stroke:#181818;stroke-width:1.0;"/><path d="M272.3594,1025.7969 L272.3594,1028.2969 L276.6875,1028.2969 L276.6875,1027.375 Q276.6875,1026.7656 276.9219,1026.5 Q277.1719,1026.2344 277.5469,1026.2344 Q277.9219,1026.2344 278.1563,1026.5 Q278.3906,1026.7656 278.3906,1027.375 L278.3906,1030 L270.3906,1030 Q269.7656,1030 269.5,1029.7656 Q269.25,1029.5313 269.25,1029.1406 Q269.25,1028.7656 269.5156,1028.5313 Q269.7813,1028.2969 270.3906,1028.2969 L270.6563,1028.2969 L270.6563,1021.6406 L270.3906,1021.6406 Q269.7656,1021.6406 269.5,1021.4063 Q269.25,1021.1719 269.25,1020.7813 Q269.25,1020.4063 269.5,1020.1719 Q269.7656,1019.9375 270.3906,1019.9375 L278.0156,1019.9375 L278.0156,1022.5313 Q278.0156,1023.1406 277.7813,1023.4063 Q277.5625,1023.6563 277.1719,1023.6563 Q276.7969,1023.6563 276.5625,1023.4063 Q276.3281,1023.1406 276.3281,1022.5313 L276.3281,1021.6406 L272.3594,1021.6406 L272.3594,1024.0938 L273.8438,1024.0938 Q273.8438,1023.4375 273.9688,1023.25 Q274.2344,1022.8438 274.7031,1022.8438 Q275.0781,1022.8438 275.3125,1023.1094 Q275.5469,1023.3594 275.5469,1023.9688 L275.5469,1025.9375 Q275.5469,1026.4844 275.4219,1026.6719 Q275.1563,1027.0625 274.7031,1027.0625 Q274.2344,1027.0625 273.9688,1026.6563 Q273.8438,1026.4688 273.8438,1025.7969 L272.3594,1025.7969 Z " fill="#000000"/><text fill="#000000" font-family="sans-serif" font-size="14" lengthAdjust="spacing" textLength="109" x="287.5" y="1030.7969">NotificationStatus</text><line style="stroke:#181818;stroke-width:0.5;" x1="259.5" x2="398.5" y1="1041" y2="1041"/><text fill="#000000" font-family="sans-serif" font-size="14" lengthAdjust="spacing" textLength="38" x="264.5" y="1060.1074">READ</text><text fill="#000000" font-family="sans-serif" font-size="14" lengthAdjust="spacing" textLength="56" x="264.5" y="1078.7285">UNREAD</text><line style="stroke:#181818;stroke-width:0.5;" x1="259.5" x2="398.5" y1="1086.2422" y2="1086.2422"/></g><!--link NotifyCandidateApplicationStateUI to NotifyCandidateApplicationStateController--><g id="link_NotifyCandidateApplicationStateUI_NotifyCandidateApplicationStateController"><path codeLine="39" d="M155,55.12 C155,75.3 155,104.97 155,128.62 " fill="none" id="NotifyCandidateApplicationStateUI-to-NotifyCandidateApplicationStateController" style="stroke:#181818;stroke-width:1.0;"/><polygon fill="#181818" points="155,133.87,159,124.87,155,128.87,151,124.87,155,133.87" style="stroke:#181818;stroke-width:1.0;"/><text fill="#000000" font-family="sans-serif" font-size="13" lengthAdjust="spacing" textLength="75" x="156" y="100.0283">the controller</text></g><!--link NotifyCandidateApplicationStateController to NotificationService--><g id="link_NotifyCandidateApplicationStateController_NotificationService"><path codeLine="40" d="M155,201.32 C155,222.8 155,251.18 155,274.98 " fill="none" id="NotifyCandidateApplicationStateController-to-NotificationService" style="stroke:#181818;stroke-width:1.0;"/><polygon fill="#181818" points="155,279.98,159,270.98,155,274.98,151,270.98,155,279.98" style="stroke:#181818;stroke-width:1.0;"/><text fill="#000000" font-family="sans-serif" font-size="13" lengthAdjust="spacing" textLength="106" x="156" y="246.0283">notification service</text></g><!--link NotificationService to AuthorizationService--><g id="link_NotificationService_AuthorizationService"><path codeLine="41" d="M138.88,365.31 C129.96,388.44 118.97,416.93 110.35,439.29 " fill="none" id="NotificationService-to-AuthorizationService" style="stroke:#181818;stroke-width:1.0;"/><polygon fill="#181818" points="108.55,443.96,115.5185,437.0001,110.3478,439.2944,108.0535,434.1237,108.55,443.96" style="stroke:#181818;stroke-width:1.0;"/><text fill="#000000" font-family="sans-serif" font-size="13" lengthAdjust="spacing" textLength="76" x="129" y="410.0283">authz service</text></g><!--link NotificationService to PersistenceContext--><g id="link_NotificationService_PersistenceContext"><path codeLine="42" d="M202.55,365.31 C229.29,388.82 262.34,417.89 287.95,440.4 " fill="none" id="NotificationService-to-PersistenceContext" style="stroke:#181818;stroke-width:1.0;"/><polygon fill="#181818" points="291.99,443.96,287.8676,435.0154,288.2333,440.6604,282.5883,441.0261,291.99,443.96" style="stroke:#181818;stroke-width:1.0;"/><text fill="#000000" font-family="sans-serif" font-size="13" lengthAdjust="spacing" textLength="67" x="258" y="410.0283">persistence</text></g><!--link PersistenceContext to RepositoryFactory--><g id="link_PersistenceContext_RepositoryFactory"><path codeLine="43" d="M329,511.18 C329,533.09 329,562 329,584.87 " fill="none" id="PersistenceContext-to-RepositoryFactory" style="stroke:#181818;stroke-width:1.0;"/><polygon fill="#181818" points="329,589.95,333,580.95,329,584.95,325,580.95,329,589.95" style="stroke:#181818;stroke-width:1.0;"/><text fill="#000000" font-family="sans-serif" font-size="13" lengthAdjust="spacing" textLength="39" x="330" y="556.0283">factory</text></g><!--link RepositoryFactory to NotificationRepository--><g id="link_RepositoryFactory_NotificationRepository"><path codeLine="44" d="M329,657.18 C329,679.09 329,708 329,730.87 " fill="none" id="RepositoryFactory-to-NotificationRepository" style="stroke:#181818;stroke-width:1.0;"/><polygon fill="#181818" points="329,735.95,333,726.95,329,730.95,325,726.95,329,735.95" style="stroke:#181818;stroke-width:1.0;"/><text fill="#000000" font-family="sans-serif" font-size="13" lengthAdjust="spacing" textLength="123" x="330" y="702.0283">notification repository</text></g><!--link NotificationRepository to Notification--><g id="link_NotificationRepository_Notification"><path codeLine="45" d="M329,803.06 C329,825.51 329,855.08 329,876.58 " fill="none" id="NotificationRepository-to-Notification" style="stroke:#181818;stroke-width:1.0;"/><polygon fill="#181818" points="329,881.59,333,872.59,329,876.59,325,872.59,329,881.59" style="stroke:#181818;stroke-width:1.0;"/><text fill="#000000" font-family="sans-serif" font-size="13" lengthAdjust="spacing" textLength="62" x="330" y="848.0283">notification</text></g><!--link Notification to NotificationStatus--><g id="link_Notification_NotificationStatus"><path codeLine="46" d="M329,930.06 C329,949.88 329,979.09 329,1003.78 " fill="none" id="Notification-to-NotificationStatus" style="stroke:#181818;stroke-width:1.0;"/><polygon fill="#181818" points="329,1008.98,333,999.98,329,1003.98,325,999.98,329,1008.98" style="stroke:#181818;stroke-width:1.0;"/><text fill="#000000" font-family="sans-serif" font-size="13" lengthAdjust="spacing" textLength="102" x="330" y="975.0283">notification status</text></g><!--SRC=[bL9HRi8m3FtFAVp9D761Q49YR9EG9ZI1E42M6eXKaYenQ33jxajJIjeq4wm_JMo_P_lboL8u1mj3QdEQ2LseGX1EgwfKKf0oUaN-lfx3D_jXJDvJF3EQh2bBj1u4_dlS8WNCfSgD7e33dD2ApnAVkgb9qgNbHNjK4bk-ZTB5MbiKHKBBuLqvIXW3nEBU776aEndUQ-6nHwEAs7zwe9snwfmRmA5pFbetN3N7YFj0w_mGg6LG0h-eHLciZ5FaIJ7CkcplfpSXwrya6QHQ3fqktDqXel8ondnNoPw6p_5THxWNglGRabLwczSsswRn2kh3ll-8tXm7T-cyV9s-XCDw4OuUSDk3u_7a7-RZG3i4UGsm-w7NHed_E7Jr1zU4MQwqfiXQY8FmuVDDSCP77AeOP9c26ZUq3eVDnL_3NBffnoB9iZQQwmz0ofKmz613YHjtf0g7AFi5]--></g></svg>