<?xml version="1.0" encoding="us-ascii" standalone="no"?><svg xmlns="http://www.w3.org/2000/svg" xmlns:xlink="http://www.w3.org/1999/xlink" contentStyleType="text/css" height="573.3px" preserveAspectRatio="none" style="width:870px;height:573px;background:#FFFFFF;" version="1.1" viewBox="0 0 870 573" width="870.1px" zoomAndPan="magnify"><defs/><g><!--cluster JobOpeningAggregate--><g id="cluster_JobOpeningAggregate"><rect fill="none" height="223.3" rx="1.75" ry="1.75" style="stroke:#000000;stroke-width:1.0499999999999998;" width="536.9" x="4.9" y="4.9"/><text fill="#000000" font-family="sans-serif" font-size="9.8" font-weight="bold" lengthAdjust="spacing" textLength="111.3" x="217.7" y="16.8752">JobOpeningAggregate</text></g><!--cluster JobRequirementsAggregate--><g id="cluster_JobRequirementsAggregate"><rect fill="none" height="198.1" rx="1.75" ry="1.75" style="stroke:#000000;stroke-width:1.0499999999999998;" width="149.8" x="558.6" y="142.8"/><text fill="#000000" font-family="sans-serif" font-size="9.8" font-weight="bold" lengthAdjust="spacing" textLength="138.6" x="564.2" y="154.7752">JobRequirementsAggregate</text></g><!--cluster ApplicationAggregate--><g id="cluster_ApplicationAggregate"><rect fill="none" height="313.6" rx="1.75" ry="1.75" style="stroke:#000000;stroke-width:1.0499999999999998;" width="140.7" x="725.2" y="255.5"/><text fill="#000000" font-family="sans-serif" font-size="9.8" font-weight="bold" lengthAdjust="spacing" textLength="105.7" x="742.7" y="267.4752">ApplicationAggregate</text></g><!--class JobOpening--><g id="elem_JobOpening"><rect codeLine="5" fill="#F1F1F1" height="66.6148" id="JobOpening" rx="1.75" ry="1.75" style="stroke:#181818;stroke-width:0.3499999999999999;" width="75.6" x="371.7" y="30.8"/><ellipse cx="382.2" cy="51.99" fill="#ADD1B2" rx="7.7" ry="7.7" style="stroke:#181818;stroke-width:0.6999999999999998;"/><path d="M381.4016,52.5479 L381.4016,54.2979 L384.4312,54.2979 L384.4312,53.6525 Q384.4312,53.226 384.5953,53.04 Q384.7703,52.8541 385.0328,52.8541 Q385.2953,52.8541 385.4594,53.04 Q385.6234,53.226 385.6234,53.6525 L385.6234,55.49 L380.0234,55.49 Q379.5859,55.49 379.4,55.326 Q379.225,55.1619 379.225,54.8885 Q379.225,54.626 379.4109,54.4619 Q379.5969,54.2979 380.0234,54.2979 L380.2094,54.2979 L380.2094,49.6385 L380.0234,49.6385 Q379.5859,49.6385 379.4,49.4744 Q379.225,49.3104 379.225,49.0369 Q379.225,48.7744 379.4,48.6104 Q379.5859,48.4463 380.0234,48.4463 L385.3609,48.4463 L385.3609,50.2619 Q385.3609,50.6885 385.1969,50.8744 Q385.0437,51.0494 384.7703,51.0494 Q384.5078,51.0494 384.3437,50.8744 Q384.1797,50.6885 384.1797,50.2619 L384.1797,49.6385 L381.4016,49.6385 L381.4016,51.3557 L382.4406,51.3557 Q382.4406,50.8963 382.5281,50.765 Q382.7141,50.4807 383.0422,50.4807 Q383.3047,50.4807 383.4687,50.6666 Q383.6328,50.8416 383.6328,51.2682 L383.6328,52.6463 Q383.6328,53.0291 383.5453,53.1604 Q383.3594,53.4338 383.0422,53.4338 Q382.7141,53.4338 382.5281,53.1494 Q382.4406,53.0182 382.4406,52.5479 L381.4016,52.5479 Z " fill="#000000"/><text fill="#000000" font-family="sans-serif" font-size="8.4" font-style="italic" lengthAdjust="spacing" textLength="24.5" x="406.35" y="43.3645">&#171;root&#187;</text><text fill="#000000" font-family="sans-serif" font-size="8.4" font-style="italic" lengthAdjust="spacing" textLength="30.1" x="403.55" y="54.5371">&#171;entity&#187;</text><text fill="#000000" font-family="sans-serif" font-size="9.8" lengthAdjust="spacing" textLength="53.2" x="392" y="67.2205">JobOpening</text><line style="stroke:#181818;stroke-width:0.3499999999999999;" x1="372.4" x2="446.6" y1="73.1801" y2="73.1801"/><text fill="#000000" font-family="sans-serif" font-size="9.8" lengthAdjust="spacing" textLength="48.3" x="375.9" y="86.5553">description</text><line style="stroke:#181818;stroke-width:0.3499999999999999;" x1="372.4" x2="446.6" y1="91.8148" y2="91.8148"/></g><!--class JobReference--><g id="elem_JobReference"><rect codeLine="9" fill="#F1F1F1" height="42.4074" id="JobReference" rx="1.75" ry="1.75" style="stroke:#181818;stroke-width:0.3499999999999999;" width="84" x="16.1" y="174.3"/><ellipse cx="26.6" cy="189.9037" fill="#ADD1B2" rx="7.7" ry="7.7" style="stroke:#181818;stroke-width:0.6999999999999998;"/><path d="M28.5359,187.0162 Q28.6453,186.8631 28.7766,186.7865 Q28.9078,186.71 29.0609,186.71 Q29.3234,186.71 29.4875,186.8959 Q29.6516,187.0709 29.6516,187.4975 L29.6516,188.5146 Q29.6516,188.9412 29.4875,189.1271 Q29.3234,189.3131 29.0609,189.3131 Q28.8203,189.3131 28.6781,189.1709 Q28.5359,189.0396 28.4594,188.6787 Q28.4266,188.4271 28.2953,188.2959 Q28.0656,188.0334 27.6391,187.8803 Q27.2125,187.7271 26.775,187.7271 Q26.2391,187.7271 25.7906,187.9568 Q25.3531,188.1865 25.0031,188.7115 Q24.6641,189.2365 24.6641,189.9584 L24.6641,190.724 Q24.6641,191.5881 25.2875,192.1678 Q25.9109,192.7365 27.0266,192.7365 Q27.6828,192.7365 28.1422,192.5615 Q28.4156,192.4521 28.7109,192.1459 Q28.8969,191.96 28.9953,191.9053 Q29.1047,191.8506 29.2469,191.8506 Q29.4766,191.8506 29.6516,192.0365 Q29.8375,192.2115 29.8375,192.4521 Q29.8375,192.6928 29.5969,192.9771 Q29.2469,193.3818 28.6891,193.6115 Q27.9344,193.9287 27.0266,193.9287 Q25.9656,193.9287 25.1234,193.4912 Q24.4344,193.1412 23.9531,192.3975 Q23.4719,191.6428 23.4719,190.7459 L23.4719,189.9365 Q23.4719,189.0068 23.8984,188.2084 Q24.3359,187.399 25.1016,186.9725 Q25.8672,186.535 26.7312,186.535 Q27.2453,186.535 27.6937,186.6553 Q28.1531,186.7646 28.5359,187.0162 Z " fill="#000000"/><text fill="#000000" font-family="sans-serif" font-size="8.4" font-style="italic" lengthAdjust="spacing" textLength="32.2" x="51.1" y="186.8645">&#171;Value&#187;</text><text fill="#000000" font-family="sans-serif" font-size="9.8" lengthAdjust="spacing" textLength="61.6" x="36.4" y="199.5479">JobReference</text><line style="stroke:#181818;stroke-width:0.3499999999999999;" x1="16.8" x2="99.4" y1="205.5074" y2="205.5074"/><line style="stroke:#181818;stroke-width:0.3499999999999999;" x1="16.8" x2="99.4" y1="211.1074" y2="211.1074"/></g><!--class NumberOfVacancies--><g id="elem_NumberOfVacancies"><rect codeLine="12" fill="#F1F1F1" height="42.4074" id="NumberOfVacancies" rx="1.75" ry="1.75" style="stroke:#181818;stroke-width:0.3499999999999999;" width="112.7" x="124.95" y="174.3"/><ellipse cx="135.45" cy="189.9037" fill="#ADD1B2" rx="7.7" ry="7.7" style="stroke:#181818;stroke-width:0.6999999999999998;"/><path d="M137.3859,187.0162 Q137.4953,186.8631 137.6266,186.7865 Q137.7578,186.71 137.9109,186.71 Q138.1734,186.71 138.3375,186.8959 Q138.5016,187.0709 138.5016,187.4975 L138.5016,188.5146 Q138.5016,188.9412 138.3375,189.1271 Q138.1734,189.3131 137.9109,189.3131 Q137.6703,189.3131 137.5281,189.1709 Q137.3859,189.0396 137.3094,188.6787 Q137.2766,188.4271 137.1453,188.2959 Q136.9156,188.0334 136.4891,187.8803 Q136.0625,187.7271 135.625,187.7271 Q135.0891,187.7271 134.6406,187.9568 Q134.2031,188.1865 133.8531,188.7115 Q133.5141,189.2365 133.5141,189.9584 L133.5141,190.724 Q133.5141,191.5881 134.1375,192.1678 Q134.7609,192.7365 135.8766,192.7365 Q136.5328,192.7365 136.9922,192.5615 Q137.2656,192.4521 137.5609,192.1459 Q137.7469,191.96 137.8453,191.9053 Q137.9547,191.8506 138.0969,191.8506 Q138.3266,191.8506 138.5016,192.0365 Q138.6875,192.2115 138.6875,192.4521 Q138.6875,192.6928 138.4469,192.9771 Q138.0969,193.3818 137.5391,193.6115 Q136.7844,193.9287 135.8766,193.9287 Q134.8156,193.9287 133.9734,193.4912 Q133.2844,193.1412 132.8031,192.3975 Q132.3219,191.6428 132.3219,190.7459 L132.3219,189.9365 Q132.3219,189.0068 132.7484,188.2084 Q133.1859,187.399 133.9516,186.9725 Q134.7172,186.535 135.5812,186.535 Q136.0953,186.535 136.5437,186.6553 Q137.0031,186.7646 137.3859,187.0162 Z " fill="#000000"/><text fill="#000000" font-family="sans-serif" font-size="8.4" font-style="italic" lengthAdjust="spacing" textLength="32.2" x="174.3" y="186.8645">&#171;Value&#187;</text><text fill="#000000" font-family="sans-serif" font-size="9.8" lengthAdjust="spacing" textLength="90.3" x="145.25" y="199.5479">NumberOfVacancies</text><line style="stroke:#181818;stroke-width:0.3499999999999999;" x1="125.65" x2="236.95" y1="205.5074" y2="205.5074"/><line style="stroke:#181818;stroke-width:0.3499999999999999;" x1="125.65" x2="236.95" y1="211.1074" y2="211.1074"/></g><!--class ContractType--><g id="elem_ContractType"><rect codeLine="15" fill="#F1F1F1" height="42.4074" id="ContractType" rx="1.75" ry="1.75" style="stroke:#181818;stroke-width:0.3499999999999999;" width="82.6" x="262.5" y="174.3"/><ellipse cx="273" cy="189.9037" fill="#ADD1B2" rx="7.7" ry="7.7" style="stroke:#181818;stroke-width:0.6999999999999998;"/><path d="M274.9359,187.0162 Q275.0453,186.8631 275.1766,186.7865 Q275.3078,186.71 275.4609,186.71 Q275.7234,186.71 275.8875,186.8959 Q276.0516,187.0709 276.0516,187.4975 L276.0516,188.5146 Q276.0516,188.9412 275.8875,189.1271 Q275.7234,189.3131 275.4609,189.3131 Q275.2203,189.3131 275.0781,189.1709 Q274.9359,189.0396 274.8594,188.6787 Q274.8266,188.4271 274.6953,188.2959 Q274.4656,188.0334 274.0391,187.8803 Q273.6125,187.7271 273.175,187.7271 Q272.6391,187.7271 272.1906,187.9568 Q271.7531,188.1865 271.4031,188.7115 Q271.0641,189.2365 271.0641,189.9584 L271.0641,190.724 Q271.0641,191.5881 271.6875,192.1678 Q272.3109,192.7365 273.4266,192.7365 Q274.0828,192.7365 274.5422,192.5615 Q274.8156,192.4521 275.1109,192.1459 Q275.2969,191.96 275.3953,191.9053 Q275.5047,191.8506 275.6469,191.8506 Q275.8766,191.8506 276.0516,192.0365 Q276.2375,192.2115 276.2375,192.4521 Q276.2375,192.6928 275.9969,192.9771 Q275.6469,193.3818 275.0891,193.6115 Q274.3344,193.9287 273.4266,193.9287 Q272.3656,193.9287 271.5234,193.4912 Q270.8344,193.1412 270.3531,192.3975 Q269.8719,191.6428 269.8719,190.7459 L269.8719,189.9365 Q269.8719,189.0068 270.2984,188.2084 Q270.7359,187.399 271.5016,186.9725 Q272.2672,186.535 273.1312,186.535 Q273.6453,186.535 274.0937,186.6553 Q274.5531,186.7646 274.9359,187.0162 Z " fill="#000000"/><text fill="#000000" font-family="sans-serif" font-size="8.4" font-style="italic" lengthAdjust="spacing" textLength="32.2" x="296.8" y="186.8645">&#171;Value&#187;</text><text fill="#000000" font-family="sans-serif" font-size="9.8" lengthAdjust="spacing" textLength="60.2" x="282.8" y="199.5479">ContractType</text><line style="stroke:#181818;stroke-width:0.3499999999999999;" x1="263.2" x2="344.4" y1="205.5074" y2="205.5074"/><line style="stroke:#181818;stroke-width:0.3499999999999999;" x1="263.2" x2="344.4" y1="211.1074" y2="211.1074"/></g><!--class WorkRegime--><g id="elem_WorkRegime"><rect codeLine="19" fill="#F1F1F1" height="42.4074" id="WorkRegime" rx="1.75" ry="1.75" style="stroke:#181818;stroke-width:0.3499999999999999;" width="79.1" x="369.95" y="174.3"/><ellipse cx="380.45" cy="189.9037" fill="#ADD1B2" rx="7.7" ry="7.7" style="stroke:#181818;stroke-width:0.6999999999999998;"/><path d="M382.3859,187.0162 Q382.4953,186.8631 382.6266,186.7865 Q382.7578,186.71 382.9109,186.71 Q383.1734,186.71 383.3375,186.8959 Q383.5016,187.0709 383.5016,187.4975 L383.5016,188.5146 Q383.5016,188.9412 383.3375,189.1271 Q383.1734,189.3131 382.9109,189.3131 Q382.6703,189.3131 382.5281,189.1709 Q382.3859,189.0396 382.3094,188.6787 Q382.2766,188.4271 382.1453,188.2959 Q381.9156,188.0334 381.4891,187.8803 Q381.0625,187.7271 380.625,187.7271 Q380.0891,187.7271 379.6406,187.9568 Q379.2031,188.1865 378.8531,188.7115 Q378.5141,189.2365 378.5141,189.9584 L378.5141,190.724 Q378.5141,191.5881 379.1375,192.1678 Q379.7609,192.7365 380.8766,192.7365 Q381.5328,192.7365 381.9922,192.5615 Q382.2656,192.4521 382.5609,192.1459 Q382.7469,191.96 382.8453,191.9053 Q382.9547,191.8506 383.0969,191.8506 Q383.3266,191.8506 383.5016,192.0365 Q383.6875,192.2115 383.6875,192.4521 Q383.6875,192.6928 383.4469,192.9771 Q383.0969,193.3818 382.5391,193.6115 Q381.7844,193.9287 380.8766,193.9287 Q379.8156,193.9287 378.9734,193.4912 Q378.2844,193.1412 377.8031,192.3975 Q377.3219,191.6428 377.3219,190.7459 L377.3219,189.9365 Q377.3219,189.0068 377.7484,188.2084 Q378.1859,187.399 378.9516,186.9725 Q379.7172,186.535 380.5812,186.535 Q381.0953,186.535 381.5437,186.6553 Q382.0031,186.7646 382.3859,187.0162 Z " fill="#000000"/><text fill="#000000" font-family="sans-serif" font-size="8.4" font-style="italic" lengthAdjust="spacing" textLength="32.2" x="402.5" y="186.8645">&#171;Value&#187;</text><text fill="#000000" font-family="sans-serif" font-size="9.8" lengthAdjust="spacing" textLength="56.7" x="390.25" y="199.5479">WorkRegime</text><line style="stroke:#181818;stroke-width:0.3499999999999999;" x1="370.65" x2="448.35" y1="205.5074" y2="205.5074"/><line style="stroke:#181818;stroke-width:0.3499999999999999;" x1="370.65" x2="448.35" y1="211.1074" y2="211.1074"/></g><!--class JobTitle--><g id="elem_JobTitle"><rect codeLine="23" fill="#F1F1F1" height="42.4074" id="JobTitle" rx="1.75" ry="1.75" style="stroke:#181818;stroke-width:0.3499999999999999;" width="56.7" x="473.55" y="174.3"/><ellipse cx="484.05" cy="189.9037" fill="#ADD1B2" rx="7.7" ry="7.7" style="stroke:#181818;stroke-width:0.6999999999999998;"/><path d="M485.9859,187.0162 Q486.0953,186.8631 486.2266,186.7865 Q486.3578,186.71 486.5109,186.71 Q486.7734,186.71 486.9375,186.8959 Q487.1016,187.0709 487.1016,187.4975 L487.1016,188.5146 Q487.1016,188.9412 486.9375,189.1271 Q486.7734,189.3131 486.5109,189.3131 Q486.2703,189.3131 486.1281,189.1709 Q485.9859,189.0396 485.9094,188.6787 Q485.8766,188.4271 485.7453,188.2959 Q485.5156,188.0334 485.0891,187.8803 Q484.6625,187.7271 484.225,187.7271 Q483.6891,187.7271 483.2406,187.9568 Q482.8031,188.1865 482.4531,188.7115 Q482.1141,189.2365 482.1141,189.9584 L482.1141,190.724 Q482.1141,191.5881 482.7375,192.1678 Q483.3609,192.7365 484.4766,192.7365 Q485.1328,192.7365 485.5922,192.5615 Q485.8656,192.4521 486.1609,192.1459 Q486.3469,191.96 486.4453,191.9053 Q486.5547,191.8506 486.6969,191.8506 Q486.9266,191.8506 487.1016,192.0365 Q487.2875,192.2115 487.2875,192.4521 Q487.2875,192.6928 487.0469,192.9771 Q486.6969,193.3818 486.1391,193.6115 Q485.3844,193.9287 484.4766,193.9287 Q483.4156,193.9287 482.5734,193.4912 Q481.8844,193.1412 481.4031,192.3975 Q480.9219,191.6428 480.9219,190.7459 L480.9219,189.9365 Q480.9219,189.0068 481.3484,188.2084 Q481.7859,187.399 482.5516,186.9725 Q483.3172,186.535 484.1812,186.535 Q484.6953,186.535 485.1437,186.6553 Q485.6031,186.7646 485.9859,187.0162 Z " fill="#000000"/><text fill="#000000" font-family="sans-serif" font-size="8.4" font-style="italic" lengthAdjust="spacing" textLength="32.2" x="494.9" y="186.8645">&#171;Value&#187;</text><text fill="#000000" font-family="sans-serif" font-size="9.8" lengthAdjust="spacing" textLength="34.3" x="493.85" y="199.5479">JobTitle</text><line style="stroke:#181818;stroke-width:0.3499999999999999;" x1="474.25" x2="529.55" y1="205.5074" y2="205.5074"/><line style="stroke:#181818;stroke-width:0.3499999999999999;" x1="474.25" x2="529.55" y1="211.1074" y2="211.1074"/></g><!--class JobRequirements--><g id="elem_JobRequirements"><rect codeLine="28" fill="#F1F1F1" height="53.5801" id="JobRequirements" rx="1.75" ry="1.75" style="stroke:#181818;stroke-width:0.3499999999999999;" width="99.4" x="576.8" y="168.7"/><ellipse cx="587.3" cy="189.89" fill="#ADD1B2" rx="7.7" ry="7.7" style="stroke:#181818;stroke-width:0.6999999999999998;"/><path d="M586.5016,190.4479 L586.5016,192.1979 L589.5312,192.1979 L589.5312,191.5525 Q589.5312,191.126 589.6953,190.94 Q589.8703,190.7541 590.1328,190.7541 Q590.3953,190.7541 590.5594,190.94 Q590.7234,191.126 590.7234,191.5525 L590.7234,193.39 L585.1234,193.39 Q584.6859,193.39 584.5,193.226 Q584.325,193.0619 584.325,192.7885 Q584.325,192.526 584.5109,192.3619 Q584.6969,192.1979 585.1234,192.1979 L585.3094,192.1979 L585.3094,187.5385 L585.1234,187.5385 Q584.6859,187.5385 584.5,187.3744 Q584.325,187.2104 584.325,186.9369 Q584.325,186.6744 584.5,186.5104 Q584.6859,186.3463 585.1234,186.3463 L590.4609,186.3463 L590.4609,188.1619 Q590.4609,188.5885 590.2969,188.7744 Q590.1437,188.9494 589.8703,188.9494 Q589.6078,188.9494 589.4437,188.7744 Q589.2797,188.5885 589.2797,188.1619 L589.2797,187.5385 L586.5016,187.5385 L586.5016,189.2557 L587.5406,189.2557 Q587.5406,188.7963 587.6281,188.665 Q587.8141,188.3807 588.1422,188.3807 Q588.4047,188.3807 588.5687,188.5666 Q588.7328,188.7416 588.7328,189.1682 L588.7328,190.5463 Q588.7328,190.9291 588.6453,191.0604 Q588.4594,191.3338 588.1422,191.3338 Q587.8141,191.3338 587.6281,191.0494 Q587.5406,190.9182 587.5406,190.4479 L586.5016,190.4479 Z " fill="#000000"/><text fill="#000000" font-family="sans-serif" font-size="8.4" font-style="italic" lengthAdjust="spacing" textLength="24.5" x="623.35" y="181.2645">&#171;root&#187;</text><text fill="#000000" font-family="sans-serif" font-size="8.4" font-style="italic" lengthAdjust="spacing" textLength="30.1" x="620.55" y="192.4371">&#171;entity&#187;</text><text fill="#000000" font-family="sans-serif" font-size="9.8" lengthAdjust="spacing" textLength="77" x="597.1" y="205.1205">JobRequirements</text><line style="stroke:#181818;stroke-width:0.3499999999999999;" x1="577.5" x2="675.5" y1="211.0801" y2="211.0801"/><line style="stroke:#181818;stroke-width:0.3499999999999999;" x1="577.5" x2="675.5" y1="216.6801" y2="216.6801"/></g><!--class JobRequirementsPlugin--><g id="elem_JobRequirementsPlugin"><rect codeLine="32" fill="#F1F1F1" height="42.4074" id="JobRequirementsPlugin" rx="1.75" ry="1.75" style="stroke:#181818;stroke-width:0.3499999999999999;" width="126.7" x="570.15" y="287"/><ellipse cx="580.65" cy="302.6037" fill="#ADD1B2" rx="7.7" ry="7.7" style="stroke:#181818;stroke-width:0.6999999999999998;"/><path d="M582.5859,299.7162 Q582.6953,299.5631 582.8266,299.4865 Q582.9578,299.41 583.1109,299.41 Q583.3734,299.41 583.5375,299.5959 Q583.7016,299.7709 583.7016,300.1975 L583.7016,301.2146 Q583.7016,301.6412 583.5375,301.8271 Q583.3734,302.0131 583.1109,302.0131 Q582.8703,302.0131 582.7281,301.8709 Q582.5859,301.7396 582.5094,301.3787 Q582.4766,301.1271 582.3453,300.9959 Q582.1156,300.7334 581.6891,300.5803 Q581.2625,300.4271 580.825,300.4271 Q580.2891,300.4271 579.8406,300.6568 Q579.4031,300.8865 579.0531,301.4115 Q578.7141,301.9365 578.7141,302.6584 L578.7141,303.424 Q578.7141,304.2881 579.3375,304.8678 Q579.9609,305.4365 581.0766,305.4365 Q581.7328,305.4365 582.1922,305.2615 Q582.4656,305.1521 582.7609,304.8459 Q582.9469,304.66 583.0453,304.6053 Q583.1547,304.5506 583.2969,304.5506 Q583.5266,304.5506 583.7016,304.7365 Q583.8875,304.9115 583.8875,305.1521 Q583.8875,305.3928 583.6469,305.6771 Q583.2969,306.0818 582.7391,306.3115 Q581.9844,306.6287 581.0766,306.6287 Q580.0156,306.6287 579.1734,306.1912 Q578.4844,305.8412 578.0031,305.0975 Q577.5219,304.3428 577.5219,303.4459 L577.5219,302.6365 Q577.5219,301.7068 577.9484,300.9084 Q578.3859,300.099 579.1516,299.6725 Q579.9172,299.235 580.7812,299.235 Q581.2953,299.235 581.7437,299.3553 Q582.2031,299.4646 582.5859,299.7162 Z " fill="#000000"/><text fill="#000000" font-family="sans-serif" font-size="8.4" font-style="italic" lengthAdjust="spacing" textLength="32.2" x="626.5" y="299.5645">&#171;Value&#187;</text><text fill="#000000" font-family="sans-serif" font-size="9.8" lengthAdjust="spacing" textLength="104.3" x="590.45" y="312.2479">JobRequirementsPlugin</text><line style="stroke:#181818;stroke-width:0.3499999999999999;" x1="570.85" x2="696.15" y1="318.2074" y2="318.2074"/><line style="stroke:#181818;stroke-width:0.3499999999999999;" x1="570.85" x2="696.15" y1="323.8074" y2="323.8074"/></g><!--class Application--><g id="elem_Application"><rect codeLine="40" fill="#F1F1F1" height="53.5801" id="Application" rx="1.75" ry="1.75" style="stroke:#181818;stroke-width:0.3499999999999999;" width="70.7" x="747.25" y="281.4"/><ellipse cx="757.75" cy="302.59" fill="#ADD1B2" rx="7.7" ry="7.7" style="stroke:#181818;stroke-width:0.6999999999999998;"/><path d="M756.9516,303.1479 L756.9516,304.8979 L759.9812,304.8979 L759.9812,304.2525 Q759.9812,303.826 760.1453,303.64 Q760.3203,303.4541 760.5828,303.4541 Q760.8453,303.4541 761.0094,303.64 Q761.1734,303.826 761.1734,304.2525 L761.1734,306.09 L755.5734,306.09 Q755.1359,306.09 754.95,305.926 Q754.775,305.7619 754.775,305.4885 Q754.775,305.226 754.9609,305.0619 Q755.1469,304.8979 755.5734,304.8979 L755.7594,304.8979 L755.7594,300.2385 L755.5734,300.2385 Q755.1359,300.2385 754.95,300.0744 Q754.775,299.9104 754.775,299.6369 Q754.775,299.3744 754.95,299.2104 Q755.1359,299.0463 755.5734,299.0463 L760.9109,299.0463 L760.9109,300.8619 Q760.9109,301.2885 760.7469,301.4744 Q760.5937,301.6494 760.3203,301.6494 Q760.0578,301.6494 759.8937,301.4744 Q759.7297,301.2885 759.7297,300.8619 L759.7297,300.2385 L756.9516,300.2385 L756.9516,301.9557 L757.9906,301.9557 Q757.9906,301.4963 758.0781,301.365 Q758.2641,301.0807 758.5922,301.0807 Q758.8547,301.0807 759.0187,301.2666 Q759.1828,301.4416 759.1828,301.8682 L759.1828,303.2463 Q759.1828,303.6291 759.0953,303.7604 Q758.9094,304.0338 758.5922,304.0338 Q758.2641,304.0338 758.0781,303.7494 Q757.9906,303.6182 757.9906,303.1479 L756.9516,303.1479 Z " fill="#000000"/><text fill="#000000" font-family="sans-serif" font-size="8.4" font-style="italic" lengthAdjust="spacing" textLength="30.1" x="776.65" y="293.9645">&#171;entity&#187;</text><text fill="#000000" font-family="sans-serif" font-size="8.4" font-style="italic" lengthAdjust="spacing" textLength="24.5" x="779.45" y="305.1371">&#171;root&#187;</text><text fill="#000000" font-family="sans-serif" font-size="9.8" lengthAdjust="spacing" textLength="48.3" x="767.55" y="317.8205">Application</text><line style="stroke:#181818;stroke-width:0.3499999999999999;" x1="747.95" x2="817.25" y1="323.7801" y2="323.7801"/><line style="stroke:#181818;stroke-width:0.3499999999999999;" x1="747.95" x2="817.25" y1="329.3801" y2="329.3801"/></g><!--class ApplicationDate--><g id="elem_ApplicationDate"><rect codeLine="42" fill="#F1F1F1" height="42.4074" id="ApplicationDate" rx="1.75" ry="1.75" style="stroke:#181818;stroke-width:0.3499999999999999;" width="91.7" x="736.75" y="378"/><ellipse cx="747.25" cy="393.6037" fill="#ADD1B2" rx="7.7" ry="7.7" style="stroke:#181818;stroke-width:0.6999999999999998;"/><path d="M749.1859,390.7162 Q749.2953,390.5631 749.4266,390.4865 Q749.5578,390.41 749.7109,390.41 Q749.9734,390.41 750.1375,390.5959 Q750.3016,390.7709 750.3016,391.1975 L750.3016,392.2146 Q750.3016,392.6412 750.1375,392.8271 Q749.9734,393.0131 749.7109,393.0131 Q749.4703,393.0131 749.3281,392.8709 Q749.1859,392.7396 749.1094,392.3787 Q749.0766,392.1271 748.9453,391.9959 Q748.7156,391.7334 748.2891,391.5803 Q747.8625,391.4271 747.425,391.4271 Q746.8891,391.4271 746.4406,391.6568 Q746.0031,391.8865 745.6531,392.4115 Q745.3141,392.9365 745.3141,393.6584 L745.3141,394.424 Q745.3141,395.2881 745.9375,395.8678 Q746.5609,396.4365 747.6766,396.4365 Q748.3328,396.4365 748.7922,396.2615 Q749.0656,396.1521 749.3609,395.8459 Q749.5469,395.66 749.6453,395.6053 Q749.7547,395.5506 749.8969,395.5506 Q750.1266,395.5506 750.3016,395.7365 Q750.4875,395.9115 750.4875,396.1521 Q750.4875,396.3928 750.2469,396.6771 Q749.8969,397.0818 749.3391,397.3115 Q748.5844,397.6287 747.6766,397.6287 Q746.6156,397.6287 745.7734,397.1912 Q745.0844,396.8412 744.6031,396.0975 Q744.1219,395.3428 744.1219,394.4459 L744.1219,393.6365 Q744.1219,392.7068 744.5484,391.9084 Q744.9859,391.099 745.7516,390.6725 Q746.5172,390.235 747.3812,390.235 Q747.8953,390.235 748.3437,390.3553 Q748.8031,390.4646 749.1859,390.7162 Z " fill="#000000"/><text fill="#000000" font-family="sans-serif" font-size="8.4" font-style="italic" lengthAdjust="spacing" textLength="32.2" x="775.6" y="390.5645">&#171;Value&#187;</text><text fill="#000000" font-family="sans-serif" font-size="9.8" lengthAdjust="spacing" textLength="69.3" x="757.05" y="403.2479">ApplicationDate</text><line style="stroke:#181818;stroke-width:0.3499999999999999;" x1="737.45" x2="827.75" y1="409.2074" y2="409.2074"/><line style="stroke:#181818;stroke-width:0.3499999999999999;" x1="737.45" x2="827.75" y1="414.8074" y2="414.8074"/></g><!--class ApplicationStatus--><g id="elem_ApplicationStatus"><rect codeLine="45" fill="#F1F1F1" height="94.5465" id="ApplicationStatus" rx="1.75" ry="1.75" style="stroke:#181818;stroke-width:0.3499999999999999;" width="98.7" x="755.65" y="463.4"/><ellipse cx="766.15" cy="479.0037" fill="#EB937F" rx="7.7" ry="7.7" style="stroke:#181818;stroke-width:0.6999999999999998;"/><path d="M765.3516,479.5615 L765.3516,481.3115 L768.3812,481.3115 L768.3812,480.6662 Q768.3812,480.2396 768.5453,480.0537 Q768.7203,479.8678 768.9828,479.8678 Q769.2453,479.8678 769.4094,480.0537 Q769.5734,480.2396 769.5734,480.6662 L769.5734,482.5037 L763.9734,482.5037 Q763.5359,482.5037 763.35,482.3396 Q763.175,482.1756 763.175,481.9021 Q763.175,481.6396 763.3609,481.4756 Q763.5469,481.3115 763.9734,481.3115 L764.1594,481.3115 L764.1594,476.6521 L763.9734,476.6521 Q763.5359,476.6521 763.35,476.4881 Q763.175,476.324 763.175,476.0506 Q763.175,475.7881 763.35,475.624 Q763.5359,475.46 763.9734,475.46 L769.3109,475.46 L769.3109,477.2756 Q769.3109,477.7021 769.1469,477.8881 Q768.9937,478.0631 768.7203,478.0631 Q768.4578,478.0631 768.2937,477.8881 Q768.1297,477.7021 768.1297,477.2756 L768.1297,476.6521 L765.3516,476.6521 L765.3516,478.3693 L766.3906,478.3693 Q766.3906,477.91 766.4781,477.7787 Q766.6641,477.4943 766.9922,477.4943 Q767.2547,477.4943 767.4187,477.6803 Q767.5828,477.8553 767.5828,478.2818 L767.5828,479.66 Q767.5828,480.0428 767.4953,480.174 Q767.3094,480.4475 766.9922,480.4475 Q766.6641,480.4475 766.4781,480.1631 Q766.3906,480.0318 766.3906,479.5615 L765.3516,479.5615 Z " fill="#000000"/><text fill="#000000" font-family="sans-serif" font-size="8.4" font-style="italic" lengthAdjust="spacing" textLength="32.2" x="798" y="475.9645">&#171;Value&#187;</text><text fill="#000000" font-family="sans-serif" font-size="9.8" lengthAdjust="spacing" textLength="76.3" x="775.95" y="488.6479">ApplicationStatus</text><line style="stroke:#181818;stroke-width:0.3499999999999999;" x1="756.35" x2="853.65" y1="494.6074" y2="494.6074"/><text fill="#000000" font-family="sans-serif" font-size="9.8" lengthAdjust="spacing" textLength="42.7" x="759.85" y="507.9826">Approved</text><text fill="#000000" font-family="sans-serif" font-size="9.8" lengthAdjust="spacing" textLength="31.5" x="759.85" y="521.0174">Denied</text><text fill="#000000" font-family="sans-serif" font-size="9.8" lengthAdjust="spacing" textLength="71.4" x="759.85" y="534.0521">WaitingInterview</text><text fill="#000000" font-family="sans-serif" font-size="9.8" lengthAdjust="spacing" textLength="47.6" x="759.85" y="547.0869">InProgress</text><line style="stroke:#181818;stroke-width:0.3499999999999999;" x1="756.35" x2="853.65" y1="552.3465" y2="552.3465"/></g><!--link JobRequirements to JobRequirementsPlugin--><g id="link_JobRequirements_JobRequirementsPlugin"><path codeLine="54" d="M628.159,222.726 C629.391,242.333 630.7862,264.5243 631.9272,282.6543 " fill="none" id="JobRequirements-to-JobRequirementsPlugin" style="stroke:#181818;stroke-width:0.6999999999999998;"/><polygon fill="#181818" points="632.191,286.846,634.5898,280.3826,631.9712,283.3529,629.0008,280.7343,632.191,286.846" style="stroke:#181818;stroke-width:0.6999999999999998;"/><text fill="#000000" font-family="sans-serif" font-size="9.1" lengthAdjust="spacing" textLength="4.9" x="623.1379" y="237.643">1</text><text fill="#000000" font-family="sans-serif" font-size="9.1" lengthAdjust="spacing" textLength="4.9" x="626.5157" y="279.1546">1</text></g><!--link JobOpening to JobTitle--><g id="link_JobOpening_JobTitle"><path codeLine="57" d="M435.197,97.328 C440.447,104.195 445.872,111.433 450.8,118.3 C464.135,136.878 476.2358,155.0955 486.3298,170.6705 " fill="none" id="JobOpening-to-JobTitle" style="stroke:#181818;stroke-width:0.6999999999999998;"/><polygon fill="#181818" points="488.614,174.195,487.5374,167.3854,486.7105,171.2579,482.838,170.431,488.614,174.195" style="stroke:#181818;stroke-width:0.6999999999999998;"/><text fill="#000000" font-family="sans-serif" font-size="9.1" lengthAdjust="spacing" textLength="34.3" x="460.6" y="128.8198">contains</text><text fill="#000000" font-family="sans-serif" font-size="9.1" lengthAdjust="spacing" textLength="4.9" x="433.7114" y="112.916">1</text><text fill="#000000" font-family="sans-serif" font-size="9.1" lengthAdjust="spacing" textLength="4.9" x="480.4684" y="166.5137">1</text></g><!--link JobOpening to ContractType--><g id="link_JobOpening_ContractType"><path codeLine="58" d="M382.83,97.608 C363.321,121.639 340.0893,150.2493 323.3523,170.8643 " fill="none" id="JobOpening-to-ContractType" style="stroke:#181818;stroke-width:0.6999999999999998;"/><polygon fill="#181818" points="320.705,174.125,326.8497,170.9989,322.9111,171.4078,322.5021,167.4692,320.705,174.125" style="stroke:#181818;stroke-width:0.6999999999999998;"/><text fill="#000000" font-family="sans-serif" font-size="9.1" lengthAdjust="spacing" textLength="4.9" x="374.017" y="112.7427">1</text><text fill="#000000" font-family="sans-serif" font-size="9.1" lengthAdjust="spacing" textLength="4.9" x="318.7863" y="166.4293">1</text></g><!--link JobOpening to WorkRegime--><g id="link_JobOpening_WorkRegime"><path codeLine="59" d="M409.5,97.608 C409.5,121.639 409.5,149.31 409.5,169.925 " fill="none" id="JobOpening-to-WorkRegime" style="stroke:#181818;stroke-width:0.6999999999999998;"/><polygon fill="#181818" points="409.5,174.125,412.3,167.825,409.5,170.625,406.7,167.825,409.5,174.125" style="stroke:#181818;stroke-width:0.6999999999999998;"/><text fill="#000000" font-family="sans-serif" font-size="9.1" lengthAdjust="spacing" textLength="34.3" x="410.2" y="128.8198">contains</text><text fill="#000000" font-family="sans-serif" font-size="9.1" lengthAdjust="spacing" textLength="4.9" x="404.2708" y="112.7427">1</text><text fill="#000000" font-family="sans-serif" font-size="9.1" lengthAdjust="spacing" textLength="4.9" x="404.0947" y="166.4293">1</text></g><!--link JobOpening to NumberOfVacancies--><g id="link_JobOpening_NumberOfVacancies"><path codeLine="60" d="M371.574,78.561 C338.268,91.462 289.142,112.434 249.9,137.2 C233.051,147.833 219.0078,159.4478 206.0648,171.2218 " fill="none" id="JobOpening-to-NumberOfVacancies" style="stroke:#181818;stroke-width:0.6999999999999998;"/><polygon fill="#181818" points="202.958,174.048,209.5024,171.8799,205.547,171.6928,205.7341,167.7374,202.958,174.048" style="stroke:#181818;stroke-width:0.6999999999999998;"/><text fill="#000000" font-family="sans-serif" font-size="9.1" lengthAdjust="spacing" textLength="14.7" x="280" y="128.8198">has</text><text fill="#000000" font-family="sans-serif" font-size="9.1" lengthAdjust="spacing" textLength="4.9" x="361.2485" y="77.6372">1</text><text fill="#000000" font-family="sans-serif" font-size="9.1" lengthAdjust="spacing" textLength="4.9" x="202.0196" y="166.3364">1</text></g><!--link JobOpening to JobRequirements--><g id="link_JobOpening_JobRequirements"><path codeLine="61" d="M447.405,84.252 C474.166,98.315 510.65,118.111 541.8,137.2 C557.732,146.965 571.3936,156.0407 586.0376,166.1767 " fill="none" id="JobOpening-to-JobRequirements" style="stroke:#181818;stroke-width:0.6999999999999998;"/><polygon fill="#181818" points="589.491,168.567,585.9044,162.6792,586.6131,166.5751,582.7173,167.2838,589.491,168.567" style="stroke:#181818;stroke-width:0.6999999999999998;"/><text fill="#000000" font-family="sans-serif" font-size="9.1" lengthAdjust="spacing" textLength="32.2" x="532.7" y="128.8198">requires</text><text fill="#000000" font-family="sans-serif" font-size="9.1" lengthAdjust="spacing" textLength="4.9" x="452.8277" y="84.0929">1</text><text fill="#000000" font-family="sans-serif" font-size="9.1" lengthAdjust="spacing" textLength="4.9" x="577.809" y="160.8543">1</text></g><!--link JobOpening to JobReference--><g id="link_JobOpening_JobReference"><path codeLine="62" d="M371.574,67.144 C312.543,72.317 196.735,88.361 112.7,137.2 C96.831,146.419 85.3272,158.359 75.4222,170.861 " fill="none" id="JobOpening-to-JobReference" style="stroke:#181818;stroke-width:0.6999999999999998;"/><polygon fill="#181818" points="72.814,174.153,78.9209,170.9538,74.9875,171.4096,74.5316,167.4762,72.814,174.153" style="stroke:#181818;stroke-width:0.6999999999999998;"/><text fill="#000000" font-family="sans-serif" font-size="9.1" lengthAdjust="spacing" textLength="4.9" x="361.2485" y="64.686">1</text><text fill="#000000" font-family="sans-serif" font-size="9.1" lengthAdjust="spacing" textLength="4.9" x="70.4434" y="166.4631">1</text></g><!--link JobOpening to Application--><g id="link_JobOpening_Application"><path codeLine="66" d="M447.454,69.692 C518.714,79.639 668.906,103.999 708.4,137.2 C752.871,174.58 770.7029,239.5363 777.8429,277.2593 " fill="none" id="JobOpening-to-Application" style="stroke:#181818;stroke-width:0.6999999999999998;"/><polygon fill="#181818" points="778.624,281.386,780.2035,274.6752,777.9731,277.9471,774.7012,275.7166,778.624,281.386" style="stroke:#181818;stroke-width:0.6999999999999998;"/><text fill="#000000" font-family="sans-serif" font-size="9.1" lengthAdjust="spacing" textLength="14.7" x="766.5" y="199.5198">has</text><text fill="#000000" font-family="sans-serif" font-size="9.1" lengthAdjust="spacing" textLength="4.9" x="452.8833" y="67.5764">1</text><text fill="#000000" font-family="sans-serif" font-size="9.1" lengthAdjust="spacing" textLength="4.9" x="772.5794" y="273.4897">1</text></g><!--link Application to ApplicationDate--><g id="link_Application_ApplicationDate"><path codeLine="70" d="M782.6,335.447 C782.6,348.971 782.6,361.004 782.6,373.632 " fill="none" id="Application-to-ApplicationDate" style="stroke:#181818;stroke-width:0.6999999999999998;"/><polygon fill="#181818" points="782.6,377.832,785.4,371.532,782.6,374.332,779.8,371.532,782.6,377.832" style="stroke:#181818;stroke-width:0.6999999999999998;"/><text fill="#000000" font-family="sans-serif" font-size="9.1" lengthAdjust="spacing" textLength="4.9" x="777.3248" y="350.3672">1</text><text fill="#000000" font-family="sans-serif" font-size="9.1" lengthAdjust="spacing" textLength="4.9" x="777.1947" y="370.1377">1</text></g><!--link Application to ApplicationStatus--><g id="link_Application_ApplicationStatus"><path codeLine="71" d="M812.588,335.615 C823.655,347.368 834.904,362.117 840.7,378 C850.836,405.755 844.3374,433.8705 833.2774,459.3855 " fill="none" id="Application-to-ApplicationStatus" style="stroke:#181818;stroke-width:0.6999999999999998;"/><polygon fill="#181818" points="831.607,463.239,836.6816,458.5723,832.999,460.0277,831.5436,456.3451,831.607,463.239" style="stroke:#181818;stroke-width:0.6999999999999998;"/><text fill="#000000" font-family="sans-serif" font-size="9.1" lengthAdjust="spacing" textLength="4.9" x="811.7326" y="350.3517">1</text><text fill="#000000" font-family="sans-serif" font-size="9.1" lengthAdjust="spacing" textLength="4.9" x="829.1982" y="455.6641">1</text></g><!--SRC=[XPCnRy8m48Lt_mgBfHD3LuGYeRBGeI10C1_cS2qIExKTAeJuxxMJD5mIqcP8dDntzlFpYpihdOE5ZESWpY1nuwyfSel2WvOfCbP_v-_ciCnHAordKbgKu97V64VjbR-IAfzEhJ4-ISAWAYP9u8xeX5MvLqOpVcUCYnISYtrhFA55BJ0qx20jCBJUAFDHP0UqozCE16YXq0s1RqPx2y9lhpbIX39xOyzhb2eZoxM986chVDgJ4n5YnXg_2cKn2tjqr9678PHuOaefB5xt-aaSUJIkqa8gtTvDqnHkBxCyJvM0Q6mZez7vh1Xtytjif4w4DMBvhLoc4aROUPocPK-b1tMHKMxZmHUTuufrQovu3CDvI4mvs8Fo8JiBxT5U57w7JmkziYP8TgwSFMwrOmthlFFHwuYFnqdvV6fZDKSTL4Oos-cipd_2HGWKAEs6K1gu8OO4xly9-r6Vy4zmVqXj6J09FsxvEjZH-k5Ok7fS3P9Jh3MqiyOeG5VenEG9rmUhd8GLVW00]--></g></svg>