<?xml version="1.0" encoding="us-ascii" standalone="no"?><svg xmlns="http://www.w3.org/2000/svg" xmlns:xlink="http://www.w3.org/1999/xlink" contentStyleType="text/css" height="501px" preserveAspectRatio="none" style="width:1386px;height:501px;background:#FFFFFF;" version="1.1" viewBox="0 0 1386 501" width="1386px" zoomAndPan="magnify"><defs/><g><!--cluster JobOpeningAggregate--><g id="cluster_JobOpeningAggregate"><rect fill="none" height="346.5" rx="2.5" ry="2.5" style="stroke:#000000;stroke-width:1.5;" width="767" x="250" y="7"/><text fill="#000000" font-family="sans-serif" font-size="14" font-weight="bold" lengthAdjust="spacing" textLength="159" x="554" y="24.1074">JobOpeningAggregate</text></g><!--cluster CustomerManagerAggregate--><g id="cluster_CustomerManagerAggregate"><rect fill="none" height="130" rx="2.5" ry="2.5" style="stroke:#000000;stroke-width:1.5;" width="219" x="7" y="16"/><text fill="#000000" font-family="sans-serif" font-size="14" font-weight="bold" lengthAdjust="spacing" textLength="203" x="15" y="33.1074">CustomerManagerAggregate</text></g><!--cluster CompanyAggregate--><g id="cluster_CompanyAggregate"><rect fill="none" height="291.5" rx="2.5" ry="2.5" style="stroke:#000000;stroke-width:1.5;" width="339" x="1041" y="204"/><text fill="#000000" font-family="sans-serif" font-size="14" font-weight="bold" lengthAdjust="spacing" textLength="137" x="1142" y="221.1074">CompanyAggregate</text></g><!--class JobOpening--><g id="elem_JobOpening"><rect codeLine="5" fill="#F1F1F1" height="95.1641" id="JobOpening" rx="2.5" ry="2.5" style="stroke:#181818;stroke-width:0.5;" width="108" x="623" y="44"/><ellipse cx="638" cy="74.2715" fill="#ADD1B2" rx="11" ry="11" style="stroke:#181818;stroke-width:1.0;"/><path d="M636.8594,75.0684 L636.8594,77.5684 L641.1875,77.5684 L641.1875,76.6465 Q641.1875,76.0371 641.4219,75.7715 Q641.6719,75.5059 642.0469,75.5059 Q642.4219,75.5059 642.6563,75.7715 Q642.8906,76.0371 642.8906,76.6465 L642.8906,79.2715 L634.8906,79.2715 Q634.2656,79.2715 634,79.0371 Q633.75,78.8027 633.75,78.4121 Q633.75,78.0371 634.0156,77.8027 Q634.2813,77.5684 634.8906,77.5684 L635.1563,77.5684 L635.1563,70.9121 L634.8906,70.9121 Q634.2656,70.9121 634,70.6777 Q633.75,70.4434 633.75,70.0527 Q633.75,69.6777 634,69.4434 Q634.2656,69.209 634.8906,69.209 L642.5156,69.209 L642.5156,71.8027 Q642.5156,72.4121 642.2813,72.6777 Q642.0625,72.9277 641.6719,72.9277 Q641.2969,72.9277 641.0625,72.6777 Q640.8281,72.4121 640.8281,71.8027 L640.8281,70.9121 L636.8594,70.9121 L636.8594,73.3652 L638.3438,73.3652 Q638.3438,72.709 638.4688,72.5215 Q638.7344,72.1152 639.2031,72.1152 Q639.5781,72.1152 639.8125,72.3809 Q640.0469,72.6309 640.0469,73.2402 L640.0469,75.209 Q640.0469,75.7559 639.9219,75.9434 Q639.6563,76.334 639.2031,76.334 Q638.7344,76.334 638.4688,75.9277 Q638.3438,75.7402 638.3438,75.0684 L636.8594,75.0684 Z " fill="#000000"/><text fill="#000000" font-family="sans-serif" font-size="12" font-style="italic" lengthAdjust="spacing" textLength="35" x="672.5" y="61.9492">&#171;root&#187;</text><text fill="#000000" font-family="sans-serif" font-size="12" font-style="italic" lengthAdjust="spacing" textLength="43" x="668.5" y="77.9102">&#171;entity&#187;</text><text fill="#000000" font-family="sans-serif" font-size="14" lengthAdjust="spacing" textLength="76" x="652" y="96.0293">JobOpening</text><line style="stroke:#181818;stroke-width:0.5;" x1="624" x2="730" y1="104.543" y2="104.543"/><text fill="#000000" font-family="sans-serif" font-size="14" lengthAdjust="spacing" textLength="69" x="629" y="123.6504">description</text><line style="stroke:#181818;stroke-width:0.5;" x1="624" x2="730" y1="131.1641" y2="131.1641"/></g><!--class JobReference--><g id="elem_JobReference"><rect codeLine="9" fill="#F1F1F1" height="60.582" id="JobReference" rx="2.5" ry="2.5" style="stroke:#181818;stroke-width:0.5;" width="120" x="266" y="249"/><ellipse cx="281" cy="271.291" fill="#ADD1B2" rx="11" ry="11" style="stroke:#181818;stroke-width:1.0;"/><path d="M283.7656,267.166 Q283.9219,266.9473 284.1094,266.8379 Q284.2969,266.7285 284.5156,266.7285 Q284.8906,266.7285 285.125,266.9941 Q285.3594,267.2441 285.3594,267.8535 L285.3594,269.3066 Q285.3594,269.916 285.125,270.1816 Q284.8906,270.4473 284.5156,270.4473 Q284.1719,270.4473 283.9688,270.2441 Q283.7656,270.0566 283.6563,269.541 Q283.6094,269.1816 283.4219,268.9941 Q283.0938,268.6191 282.4844,268.4004 Q281.875,268.1816 281.25,268.1816 Q280.4844,268.1816 279.8438,268.5098 Q279.2188,268.8379 278.7188,269.5879 Q278.2344,270.3379 278.2344,271.3691 L278.2344,272.4629 Q278.2344,273.6973 279.125,274.5254 Q280.0156,275.3379 281.6094,275.3379 Q282.5469,275.3379 283.2031,275.0879 Q283.5938,274.9316 284.0156,274.4941 Q284.2813,274.2285 284.4219,274.1504 Q284.5781,274.0723 284.7813,274.0723 Q285.1094,274.0723 285.3594,274.3379 Q285.625,274.5879 285.625,274.9316 Q285.625,275.2754 285.2813,275.6816 Q284.7813,276.2598 283.9844,276.5879 Q282.9063,277.041 281.6094,277.041 Q280.0938,277.041 278.8906,276.416 Q277.9063,275.916 277.2188,274.8535 Q276.5313,273.7754 276.5313,272.4941 L276.5313,271.3379 Q276.5313,270.0098 277.1406,268.8691 Q277.7656,267.7129 278.8594,267.1035 Q279.9531,266.4785 281.1875,266.4785 Q281.9219,266.4785 282.5625,266.6504 Q283.2188,266.8066 283.7656,267.166 Z " fill="#000000"/><text fill="#000000" font-family="sans-serif" font-size="12" font-style="italic" lengthAdjust="spacing" textLength="46" x="316" y="266.9492">&#171;Value&#187;</text><text fill="#000000" font-family="sans-serif" font-size="14" lengthAdjust="spacing" textLength="88" x="295" y="285.0684">JobReference</text><line style="stroke:#181818;stroke-width:0.5;" x1="267" x2="385" y1="293.582" y2="293.582"/><line style="stroke:#181818;stroke-width:0.5;" x1="267" x2="385" y1="301.582" y2="301.582"/></g><!--class NumberOfVacancies--><g id="elem_NumberOfVacancies"><rect codeLine="12" fill="#F1F1F1" height="60.582" id="NumberOfVacancies" rx="2.5" ry="2.5" style="stroke:#181818;stroke-width:0.5;" width="161" x="421.5" y="249"/><ellipse cx="436.5" cy="271.291" fill="#ADD1B2" rx="11" ry="11" style="stroke:#181818;stroke-width:1.0;"/><path d="M439.2656,267.166 Q439.4219,266.9473 439.6094,266.8379 Q439.7969,266.7285 440.0156,266.7285 Q440.3906,266.7285 440.625,266.9941 Q440.8594,267.2441 440.8594,267.8535 L440.8594,269.3066 Q440.8594,269.916 440.625,270.1816 Q440.3906,270.4473 440.0156,270.4473 Q439.6719,270.4473 439.4688,270.2441 Q439.2656,270.0566 439.1563,269.541 Q439.1094,269.1816 438.9219,268.9941 Q438.5938,268.6191 437.9844,268.4004 Q437.375,268.1816 436.75,268.1816 Q435.9844,268.1816 435.3438,268.5098 Q434.7188,268.8379 434.2188,269.5879 Q433.7344,270.3379 433.7344,271.3691 L433.7344,272.4629 Q433.7344,273.6973 434.625,274.5254 Q435.5156,275.3379 437.1094,275.3379 Q438.0469,275.3379 438.7031,275.0879 Q439.0938,274.9316 439.5156,274.4941 Q439.7813,274.2285 439.9219,274.1504 Q440.0781,274.0723 440.2813,274.0723 Q440.6094,274.0723 440.8594,274.3379 Q441.125,274.5879 441.125,274.9316 Q441.125,275.2754 440.7813,275.6816 Q440.2813,276.2598 439.4844,276.5879 Q438.4063,277.041 437.1094,277.041 Q435.5938,277.041 434.3906,276.416 Q433.4063,275.916 432.7188,274.8535 Q432.0313,273.7754 432.0313,272.4941 L432.0313,271.3379 Q432.0313,270.0098 432.6406,268.8691 Q433.2656,267.7129 434.3594,267.1035 Q435.4531,266.4785 436.6875,266.4785 Q437.4219,266.4785 438.0625,266.6504 Q438.7188,266.8066 439.2656,267.166 Z " fill="#000000"/><text fill="#000000" font-family="sans-serif" font-size="12" font-style="italic" lengthAdjust="spacing" textLength="46" x="492" y="266.9492">&#171;Value&#187;</text><text fill="#000000" font-family="sans-serif" font-size="14" lengthAdjust="spacing" textLength="129" x="450.5" y="285.0684">NumberOfVacancies</text><line style="stroke:#181818;stroke-width:0.5;" x1="422.5" x2="581.5" y1="293.582" y2="293.582"/><line style="stroke:#181818;stroke-width:0.5;" x1="422.5" x2="581.5" y1="301.582" y2="301.582"/></g><!--class ContractType--><g id="elem_ContractType"><rect codeLine="15" fill="#F1F1F1" height="97.8242" id="ContractType" rx="2.5" ry="2.5" style="stroke:#181818;stroke-width:0.5;" width="118" x="618" y="230.5"/><ellipse cx="633" cy="252.791" fill="#EB937F" rx="11" ry="11" style="stroke:#181818;stroke-width:1.0;"/><path d="M631.8594,253.5879 L631.8594,256.0879 L636.1875,256.0879 L636.1875,255.166 Q636.1875,254.5566 636.4219,254.291 Q636.6719,254.0254 637.0469,254.0254 Q637.4219,254.0254 637.6563,254.291 Q637.8906,254.5566 637.8906,255.166 L637.8906,257.791 L629.8906,257.791 Q629.2656,257.791 629,257.5566 Q628.75,257.3223 628.75,256.9316 Q628.75,256.5566 629.0156,256.3223 Q629.2813,256.0879 629.8906,256.0879 L630.1563,256.0879 L630.1563,249.4316 L629.8906,249.4316 Q629.2656,249.4316 629,249.1973 Q628.75,248.9629 628.75,248.5723 Q628.75,248.1973 629,247.9629 Q629.2656,247.7285 629.8906,247.7285 L637.5156,247.7285 L637.5156,250.3223 Q637.5156,250.9316 637.2813,251.1973 Q637.0625,251.4473 636.6719,251.4473 Q636.2969,251.4473 636.0625,251.1973 Q635.8281,250.9316 635.8281,250.3223 L635.8281,249.4316 L631.8594,249.4316 L631.8594,251.8848 L633.3438,251.8848 Q633.3438,251.2285 633.4688,251.041 Q633.7344,250.6348 634.2031,250.6348 Q634.5781,250.6348 634.8125,250.9004 Q635.0469,251.1504 635.0469,251.7598 L635.0469,253.7285 Q635.0469,254.2754 634.9219,254.4629 Q634.6563,254.8535 634.2031,254.8535 Q633.7344,254.8535 633.4688,254.4473 Q633.3438,254.2598 633.3438,253.5879 L631.8594,253.5879 Z " fill="#000000"/><text fill="#000000" font-family="sans-serif" font-size="12" font-style="italic" lengthAdjust="spacing" textLength="46" x="667" y="248.4492">&#171;Value&#187;</text><text fill="#000000" font-family="sans-serif" font-size="14" lengthAdjust="spacing" textLength="86" x="647" y="266.5684">ContractType</text><line style="stroke:#181818;stroke-width:0.5;" x1="619" x2="735" y1="275.082" y2="275.082"/><text fill="#000000" font-family="sans-serif" font-size="14" lengthAdjust="spacing" textLength="49" x="624" y="294.1895">full-time</text><text fill="#000000" font-family="sans-serif" font-size="14" lengthAdjust="spacing" textLength="56" x="624" y="312.8105">part-time</text><line style="stroke:#181818;stroke-width:0.5;" x1="619" x2="735" y1="320.3242" y2="320.3242"/></g><!--class WorkRegime--><g id="elem_WorkRegime"><rect codeLine="20" fill="#F1F1F1" height="116.4453" id="WorkRegime" rx="2.5" ry="2.5" style="stroke:#181818;stroke-width:0.5;" width="113" x="771.5" y="221.5"/><ellipse cx="786.5" cy="243.791" fill="#EB937F" rx="11" ry="11" style="stroke:#181818;stroke-width:1.0;"/><path d="M785.3594,244.5879 L785.3594,247.0879 L789.6875,247.0879 L789.6875,246.166 Q789.6875,245.5566 789.9219,245.291 Q790.1719,245.0254 790.5469,245.0254 Q790.9219,245.0254 791.1563,245.291 Q791.3906,245.5566 791.3906,246.166 L791.3906,248.791 L783.3906,248.791 Q782.7656,248.791 782.5,248.5566 Q782.25,248.3223 782.25,247.9316 Q782.25,247.5566 782.5156,247.3223 Q782.7813,247.0879 783.3906,247.0879 L783.6563,247.0879 L783.6563,240.4316 L783.3906,240.4316 Q782.7656,240.4316 782.5,240.1973 Q782.25,239.9629 782.25,239.5723 Q782.25,239.1973 782.5,238.9629 Q782.7656,238.7285 783.3906,238.7285 L791.0156,238.7285 L791.0156,241.3223 Q791.0156,241.9316 790.7813,242.1973 Q790.5625,242.4473 790.1719,242.4473 Q789.7969,242.4473 789.5625,242.1973 Q789.3281,241.9316 789.3281,241.3223 L789.3281,240.4316 L785.3594,240.4316 L785.3594,242.8848 L786.8438,242.8848 Q786.8438,242.2285 786.9688,242.041 Q787.2344,241.6348 787.7031,241.6348 Q788.0781,241.6348 788.3125,241.9004 Q788.5469,242.1504 788.5469,242.7598 L788.5469,244.7285 Q788.5469,245.2754 788.4219,245.4629 Q788.1563,245.8535 787.7031,245.8535 Q787.2344,245.8535 786.9688,245.4473 Q786.8438,245.2598 786.8438,244.5879 L785.3594,244.5879 Z " fill="#000000"/><text fill="#000000" font-family="sans-serif" font-size="12" font-style="italic" lengthAdjust="spacing" textLength="46" x="818" y="239.4492">&#171;Value&#187;</text><text fill="#000000" font-family="sans-serif" font-size="14" lengthAdjust="spacing" textLength="81" x="800.5" y="257.5684">WorkRegime</text><line style="stroke:#181818;stroke-width:0.5;" x1="772.5" x2="883.5" y1="266.082" y2="266.082"/><text fill="#000000" font-family="sans-serif" font-size="14" lengthAdjust="spacing" textLength="44" x="777.5" y="285.1895">remote</text><text fill="#000000" font-family="sans-serif" font-size="14" lengthAdjust="spacing" textLength="39" x="777.5" y="303.8105">hybrid</text><text fill="#000000" font-family="sans-serif" font-size="14" lengthAdjust="spacing" textLength="38" x="777.5" y="322.4316">onsite</text><line style="stroke:#181818;stroke-width:0.5;" x1="772.5" x2="883.5" y1="329.9453" y2="329.9453"/></g><!--class JobTitle--><g id="elem_JobTitle"><rect codeLine="26" fill="#F1F1F1" height="60.582" id="JobTitle" rx="2.5" ry="2.5" style="stroke:#181818;stroke-width:0.5;" width="81" x="919.5" y="249"/><ellipse cx="934.5" cy="271.291" fill="#ADD1B2" rx="11" ry="11" style="stroke:#181818;stroke-width:1.0;"/><path d="M937.2656,267.166 Q937.4219,266.9473 937.6094,266.8379 Q937.7969,266.7285 938.0156,266.7285 Q938.3906,266.7285 938.625,266.9941 Q938.8594,267.2441 938.8594,267.8535 L938.8594,269.3066 Q938.8594,269.916 938.625,270.1816 Q938.3906,270.4473 938.0156,270.4473 Q937.6719,270.4473 937.4688,270.2441 Q937.2656,270.0566 937.1563,269.541 Q937.1094,269.1816 936.9219,268.9941 Q936.5938,268.6191 935.9844,268.4004 Q935.375,268.1816 934.75,268.1816 Q933.9844,268.1816 933.3438,268.5098 Q932.7188,268.8379 932.2188,269.5879 Q931.7344,270.3379 931.7344,271.3691 L931.7344,272.4629 Q931.7344,273.6973 932.625,274.5254 Q933.5156,275.3379 935.1094,275.3379 Q936.0469,275.3379 936.7031,275.0879 Q937.0938,274.9316 937.5156,274.4941 Q937.7813,274.2285 937.9219,274.1504 Q938.0781,274.0723 938.2813,274.0723 Q938.6094,274.0723 938.8594,274.3379 Q939.125,274.5879 939.125,274.9316 Q939.125,275.2754 938.7813,275.6816 Q938.2813,276.2598 937.4844,276.5879 Q936.4063,277.041 935.1094,277.041 Q933.5938,277.041 932.3906,276.416 Q931.4063,275.916 930.7188,274.8535 Q930.0313,273.7754 930.0313,272.4941 L930.0313,271.3379 Q930.0313,270.0098 930.6406,268.8691 Q931.2656,267.7129 932.3594,267.1035 Q933.4531,266.4785 934.6875,266.4785 Q935.4219,266.4785 936.0625,266.6504 Q936.7188,266.8066 937.2656,267.166 Z " fill="#000000"/><text fill="#000000" font-family="sans-serif" font-size="12" font-style="italic" lengthAdjust="spacing" textLength="46" x="950" y="266.9492">&#171;Value&#187;</text><text fill="#000000" font-family="sans-serif" font-size="14" lengthAdjust="spacing" textLength="49" x="948.5" y="285.0684">JobTitle</text><line style="stroke:#181818;stroke-width:0.5;" x1="920.5" x2="999.5" y1="293.582" y2="293.582"/><line style="stroke:#181818;stroke-width:0.5;" x1="920.5" x2="999.5" y1="301.582" y2="301.582"/></g><!--class CustomerManager--><g id="elem_CustomerManager"><rect codeLine="36" fill="#F1F1F1" height="76.543" id="CustomerManager" rx="2.5" ry="2.5" style="stroke:#181818;stroke-width:0.5;" width="149" x="60.5" y="53"/><ellipse cx="75.5" cy="83.2715" fill="#ADD1B2" rx="11" ry="11" style="stroke:#181818;stroke-width:1.0;"/><path d="M74.3594,84.0684 L74.3594,86.5684 L78.6875,86.5684 L78.6875,85.6465 Q78.6875,85.0371 78.9219,84.7715 Q79.1719,84.5059 79.5469,84.5059 Q79.9219,84.5059 80.1563,84.7715 Q80.3906,85.0371 80.3906,85.6465 L80.3906,88.2715 L72.3906,88.2715 Q71.7656,88.2715 71.5,88.0371 Q71.25,87.8027 71.25,87.4121 Q71.25,87.0371 71.5156,86.8027 Q71.7813,86.5684 72.3906,86.5684 L72.6563,86.5684 L72.6563,79.9121 L72.3906,79.9121 Q71.7656,79.9121 71.5,79.6777 Q71.25,79.4434 71.25,79.0527 Q71.25,78.6777 71.5,78.4434 Q71.7656,78.209 72.3906,78.209 L80.0156,78.209 L80.0156,80.8027 Q80.0156,81.4121 79.7813,81.6777 Q79.5625,81.9277 79.1719,81.9277 Q78.7969,81.9277 78.5625,81.6777 Q78.3281,81.4121 78.3281,80.8027 L78.3281,79.9121 L74.3594,79.9121 L74.3594,82.3652 L75.8438,82.3652 Q75.8438,81.709 75.9688,81.5215 Q76.2344,81.1152 76.7031,81.1152 Q77.0781,81.1152 77.3125,81.3809 Q77.5469,81.6309 77.5469,82.2402 L77.5469,84.209 Q77.5469,84.7559 77.4219,84.9434 Q77.1563,85.334 76.7031,85.334 Q76.2344,85.334 75.9688,84.9277 Q75.8438,84.7402 75.8438,84.0684 L74.3594,84.0684 Z " fill="#000000"/><text fill="#000000" font-family="sans-serif" font-size="12" font-style="italic" lengthAdjust="spacing" textLength="43" x="126.5" y="70.9492">&#171;entity&#187;</text><text fill="#000000" font-family="sans-serif" font-size="12" font-style="italic" lengthAdjust="spacing" textLength="35" x="130.5" y="86.9102">&#171;root&#187;</text><text fill="#000000" font-family="sans-serif" font-size="14" lengthAdjust="spacing" textLength="117" x="89.5" y="105.0293">CustomerManager</text><line style="stroke:#181818;stroke-width:0.5;" x1="61.5" x2="208.5" y1="113.543" y2="113.543"/><line style="stroke:#181818;stroke-width:0.5;" x1="61.5" x2="208.5" y1="121.543" y2="121.543"/></g><!--class Company--><g id="elem_Company"><rect codeLine="41" fill="#F1F1F1" height="76.543" id="Company" rx="2.5" ry="2.5" style="stroke:#181818;stroke-width:0.5;" width="92" x="1075" y="241"/><ellipse cx="1090" cy="271.2715" fill="#ADD1B2" rx="11" ry="11" style="stroke:#181818;stroke-width:1.0;"/><path d="M1088.8594,272.0684 L1088.8594,274.5684 L1093.1875,274.5684 L1093.1875,273.6465 Q1093.1875,273.0371 1093.4219,272.7715 Q1093.6719,272.5059 1094.0469,272.5059 Q1094.4219,272.5059 1094.6563,272.7715 Q1094.8906,273.0371 1094.8906,273.6465 L1094.8906,276.2715 L1086.8906,276.2715 Q1086.2656,276.2715 1086,276.0371 Q1085.75,275.8027 1085.75,275.4121 Q1085.75,275.0371 1086.0156,274.8027 Q1086.2813,274.5684 1086.8906,274.5684 L1087.1563,274.5684 L1087.1563,267.9121 L1086.8906,267.9121 Q1086.2656,267.9121 1086,267.6777 Q1085.75,267.4434 1085.75,267.0527 Q1085.75,266.6777 1086,266.4434 Q1086.2656,266.209 1086.8906,266.209 L1094.5156,266.209 L1094.5156,268.8027 Q1094.5156,269.4121 1094.2813,269.6777 Q1094.0625,269.9277 1093.6719,269.9277 Q1093.2969,269.9277 1093.0625,269.6777 Q1092.8281,269.4121 1092.8281,268.8027 L1092.8281,267.9121 L1088.8594,267.9121 L1088.8594,270.3652 L1090.3438,270.3652 Q1090.3438,269.709 1090.4688,269.5215 Q1090.7344,269.1152 1091.2031,269.1152 Q1091.5781,269.1152 1091.8125,269.3809 Q1092.0469,269.6309 1092.0469,270.2402 L1092.0469,272.209 Q1092.0469,272.7559 1091.9219,272.9434 Q1091.6563,273.334 1091.2031,273.334 Q1090.7344,273.334 1090.4688,272.9277 Q1090.3438,272.7402 1090.3438,272.0684 L1088.8594,272.0684 Z " fill="#000000"/><text fill="#000000" font-family="sans-serif" font-size="12" font-style="italic" lengthAdjust="spacing" textLength="43" x="1112.5" y="258.9492">&#171;entity&#187;</text><text fill="#000000" font-family="sans-serif" font-size="12" font-style="italic" lengthAdjust="spacing" textLength="35" x="1116.5" y="274.9102">&#171;root&#187;</text><text fill="#000000" font-family="sans-serif" font-size="14" lengthAdjust="spacing" textLength="60" x="1104" y="293.0293">Company</text><line style="stroke:#181818;stroke-width:0.5;" x1="1076" x2="1166" y1="301.543" y2="301.543"/><line style="stroke:#181818;stroke-width:0.5;" x1="1076" x2="1166" y1="309.543" y2="309.543"/></g><!--class CompanyName--><g id="elem_CompanyName"><rect codeLine="44" fill="#F1F1F1" height="60.582" id="CompanyName" rx="2.5" ry="2.5" style="stroke:#181818;stroke-width:0.5;" width="128" x="1057" y="418.5"/><ellipse cx="1072" cy="440.791" fill="#ADD1B2" rx="11" ry="11" style="stroke:#181818;stroke-width:1.0;"/><path d="M1074.7656,436.666 Q1074.9219,436.4473 1075.1094,436.3379 Q1075.2969,436.2285 1075.5156,436.2285 Q1075.8906,436.2285 1076.125,436.4941 Q1076.3594,436.7441 1076.3594,437.3535 L1076.3594,438.8066 Q1076.3594,439.416 1076.125,439.6816 Q1075.8906,439.9473 1075.5156,439.9473 Q1075.1719,439.9473 1074.9688,439.7441 Q1074.7656,439.5566 1074.6563,439.041 Q1074.6094,438.6816 1074.4219,438.4941 Q1074.0938,438.1191 1073.4844,437.9004 Q1072.875,437.6816 1072.25,437.6816 Q1071.4844,437.6816 1070.8438,438.0098 Q1070.2188,438.3379 1069.7188,439.0879 Q1069.2344,439.8379 1069.2344,440.8691 L1069.2344,441.9629 Q1069.2344,443.1973 1070.125,444.0254 Q1071.0156,444.8379 1072.6094,444.8379 Q1073.5469,444.8379 1074.2031,444.5879 Q1074.5938,444.4316 1075.0156,443.9941 Q1075.2813,443.7285 1075.4219,443.6504 Q1075.5781,443.5723 1075.7813,443.5723 Q1076.1094,443.5723 1076.3594,443.8379 Q1076.625,444.0879 1076.625,444.4316 Q1076.625,444.7754 1076.2813,445.1816 Q1075.7813,445.7598 1074.9844,446.0879 Q1073.9063,446.541 1072.6094,446.541 Q1071.0938,446.541 1069.8906,445.916 Q1068.9063,445.416 1068.2188,444.3535 Q1067.5313,443.2754 1067.5313,441.9941 L1067.5313,440.8379 Q1067.5313,439.5098 1068.1406,438.3691 Q1068.7656,437.2129 1069.8594,436.6035 Q1070.9531,435.9785 1072.1875,435.9785 Q1072.9219,435.9785 1073.5625,436.1504 Q1074.2188,436.3066 1074.7656,436.666 Z " fill="#000000"/><text fill="#000000" font-family="sans-serif" font-size="12" font-style="italic" lengthAdjust="spacing" textLength="46" x="1111" y="436.4492">&#171;Value&#187;</text><text fill="#000000" font-family="sans-serif" font-size="14" lengthAdjust="spacing" textLength="96" x="1086" y="454.5684">CompanyName</text><line style="stroke:#181818;stroke-width:0.5;" x1="1058" x2="1184" y1="463.082" y2="463.082"/><line style="stroke:#181818;stroke-width:0.5;" x1="1058" x2="1184" y1="471.082" y2="471.082"/></g><!--class CompanyAddress--><g id="elem_CompanyAddress"><rect codeLine="46" fill="#F1F1F1" height="60.582" id="CompanyAddress" rx="2.5" ry="2.5" style="stroke:#181818;stroke-width:0.5;" width="144" x="1220" y="418.5"/><ellipse cx="1235" cy="440.791" fill="#ADD1B2" rx="11" ry="11" style="stroke:#181818;stroke-width:1.0;"/><path d="M1237.7656,436.666 Q1237.9219,436.4473 1238.1094,436.3379 Q1238.2969,436.2285 1238.5156,436.2285 Q1238.8906,436.2285 1239.125,436.4941 Q1239.3594,436.7441 1239.3594,437.3535 L1239.3594,438.8066 Q1239.3594,439.416 1239.125,439.6816 Q1238.8906,439.9473 1238.5156,439.9473 Q1238.1719,439.9473 1237.9688,439.7441 Q1237.7656,439.5566 1237.6563,439.041 Q1237.6094,438.6816 1237.4219,438.4941 Q1237.0938,438.1191 1236.4844,437.9004 Q1235.875,437.6816 1235.25,437.6816 Q1234.4844,437.6816 1233.8438,438.0098 Q1233.2188,438.3379 1232.7188,439.0879 Q1232.2344,439.8379 1232.2344,440.8691 L1232.2344,441.9629 Q1232.2344,443.1973 1233.125,444.0254 Q1234.0156,444.8379 1235.6094,444.8379 Q1236.5469,444.8379 1237.2031,444.5879 Q1237.5938,444.4316 1238.0156,443.9941 Q1238.2813,443.7285 1238.4219,443.6504 Q1238.5781,443.5723 1238.7813,443.5723 Q1239.1094,443.5723 1239.3594,443.8379 Q1239.625,444.0879 1239.625,444.4316 Q1239.625,444.7754 1239.2813,445.1816 Q1238.7813,445.7598 1237.9844,446.0879 Q1236.9063,446.541 1235.6094,446.541 Q1234.0938,446.541 1232.8906,445.916 Q1231.9063,445.416 1231.2188,444.3535 Q1230.5313,443.2754 1230.5313,441.9941 L1230.5313,440.8379 Q1230.5313,439.5098 1231.1406,438.3691 Q1231.7656,437.2129 1232.8594,436.6035 Q1233.9531,435.9785 1235.1875,435.9785 Q1235.9219,435.9785 1236.5625,436.1504 Q1237.2188,436.3066 1237.7656,436.666 Z " fill="#000000"/><text fill="#000000" font-family="sans-serif" font-size="12" font-style="italic" lengthAdjust="spacing" textLength="46" x="1282" y="436.4492">&#171;Value&#187;</text><text fill="#000000" font-family="sans-serif" font-size="14" lengthAdjust="spacing" textLength="112" x="1249" y="454.5684">CompanyAddress</text><line style="stroke:#181818;stroke-width:0.5;" x1="1221" x2="1363" y1="463.082" y2="463.082"/><line style="stroke:#181818;stroke-width:0.5;" x1="1221" x2="1363" y1="471.082" y2="471.082"/></g><!--class CustomerEmployee--><g id="elem_CustomerEmployee"><rect fill="#F1F1F1" height="48" id="CustomerEmployee" rx="2.5" ry="2.5" style="stroke:#181818;stroke-width:0.5;" width="155" x="1043.5" y="67.5"/><ellipse cx="1058.5" cy="83.5" fill="#ADD1B2" rx="11" ry="11" style="stroke:#181818;stroke-width:1.0;"/><path d="M1061.2656,79.375 Q1061.4219,79.1563 1061.6094,79.0469 Q1061.7969,78.9375 1062.0156,78.9375 Q1062.3906,78.9375 1062.625,79.2031 Q1062.8594,79.4531 1062.8594,80.0625 L1062.8594,81.5156 Q1062.8594,82.125 1062.625,82.3906 Q1062.3906,82.6563 1062.0156,82.6563 Q1061.6719,82.6563 1061.4688,82.4531 Q1061.2656,82.2656 1061.1563,81.75 Q1061.1094,81.3906 1060.9219,81.2031 Q1060.5938,80.8281 1059.9844,80.6094 Q1059.375,80.3906 1058.75,80.3906 Q1057.9844,80.3906 1057.3438,80.7188 Q1056.7188,81.0469 1056.2188,81.7969 Q1055.7344,82.5469 1055.7344,83.5781 L1055.7344,84.6719 Q1055.7344,85.9063 1056.625,86.7344 Q1057.5156,87.5469 1059.1094,87.5469 Q1060.0469,87.5469 1060.7031,87.2969 Q1061.0938,87.1406 1061.5156,86.7031 Q1061.7813,86.4375 1061.9219,86.3594 Q1062.0781,86.2813 1062.2813,86.2813 Q1062.6094,86.2813 1062.8594,86.5469 Q1063.125,86.7969 1063.125,87.1406 Q1063.125,87.4844 1062.7813,87.8906 Q1062.2813,88.4688 1061.4844,88.7969 Q1060.4063,89.25 1059.1094,89.25 Q1057.5938,89.25 1056.3906,88.625 Q1055.4063,88.125 1054.7188,87.0625 Q1054.0313,85.9844 1054.0313,84.7031 L1054.0313,83.5469 Q1054.0313,82.2188 1054.6406,81.0781 Q1055.2656,79.9219 1056.3594,79.3125 Q1057.4531,78.6875 1058.6875,78.6875 Q1059.4219,78.6875 1060.0625,78.8594 Q1060.7188,79.0156 1061.2656,79.375 Z " fill="#000000"/><text fill="#000000" font-family="sans-serif" font-size="14" lengthAdjust="spacing" textLength="123" x="1072.5" y="89.2969">CustomerEmployee</text><line style="stroke:#181818;stroke-width:0.5;" x1="1044.5" x2="1197.5" y1="99.5" y2="99.5"/><line style="stroke:#181818;stroke-width:0.5;" x1="1044.5" x2="1197.5" y1="107.5" y2="107.5"/></g><!--link JobOpening to JobTitle--><g id="link_JobOpening_JobTitle"><path codeLine="51" d="M731.46,108.51 C780.04,124.77 851.13,153.62 902,196 C919.49,210.57 931.1025,226.4634 941.3225,243.6434 " fill="none" id="JobOpening-to-JobTitle" style="stroke:#181818;stroke-width:1.0;"/><polygon fill="#181818" points="944.39,248.8,943.2264,239.0201,941.8337,244.5029,936.351,243.1102,944.39,248.8" style="stroke:#181818;stroke-width:1.0;"/><text fill="#000000" font-family="sans-serif" font-size="13" lengthAdjust="spacing" textLength="49" x="893" y="184.0283">contains</text><text fill="#000000" font-family="sans-serif" font-size="13" lengthAdjust="spacing" textLength="7" x="738.8861" y="106.6368">1</text><text fill="#000000" font-family="sans-serif" font-size="13" lengthAdjust="spacing" textLength="7" x="933.4486" y="237.8164">1</text></g><!--link JobOpening to ContractType--><g id="link_JobOpening_ContractType"><path codeLine="52" d="M677,139.44 C677,167.2 677,196.3 677,224.28 " fill="none" id="JobOpening-to-ContractType" style="stroke:#181818;stroke-width:1.0;"/><polygon fill="#181818" points="677,230.28,681,221.28,677,225.28,673,221.28,677,230.28" style="stroke:#181818;stroke-width:1.0;"/><text fill="#000000" font-family="sans-serif" font-size="13" lengthAdjust="spacing" textLength="7" x="669.5297" y="161.061">1</text><text fill="#000000" font-family="sans-serif" font-size="13" lengthAdjust="spacing" textLength="7" x="669.5078" y="219.2243">1</text></g><!--link JobOpening to WorkRegime--><g id="link_JobOpening_WorkRegime"><path codeLine="53" d="M715.1,139.44 C735.29,164.3 756.4584,190.3717 777.7684,216.6217 " fill="none" id="JobOpening-to-WorkRegime" style="stroke:#181818;stroke-width:1.0;"/><polygon fill="#181818" points="781.55,221.28,778.9831,211.7715,778.3987,217.3981,772.7721,216.8137,781.55,221.28" style="stroke:#181818;stroke-width:1.0;"/><text fill="#000000" font-family="sans-serif" font-size="13" lengthAdjust="spacing" textLength="49" x="754" y="184.0283">contains</text><text fill="#000000" font-family="sans-serif" font-size="13" lengthAdjust="spacing" textLength="7" x="712.7494" y="161.061">1</text><text fill="#000000" font-family="sans-serif" font-size="13" lengthAdjust="spacing" textLength="7" x="768.4623" y="210.1674">1</text></g><!--link JobOpening to NumberOfVacancies--><g id="link_JobOpening_NumberOfVacancies"><path codeLine="54" d="M632.84,139.44 C600.54,173.77 561.8116,214.9302 534.1016,244.3802 " fill="none" id="JobOpening-to-NumberOfVacancies" style="stroke:#181818;stroke-width:1.0;"/><polygon fill="#181818" points="529.99,248.75,539.0706,244.9364,533.4163,245.1085,533.2442,239.4543,529.99,248.75" style="stroke:#181818;stroke-width:1.0;"/><text fill="#000000" font-family="sans-serif" font-size="13" lengthAdjust="spacing" textLength="21" x="601" y="184.0283">has</text><text fill="#000000" font-family="sans-serif" font-size="13" lengthAdjust="spacing" textLength="7" x="619.4357" y="161.061">1</text><text fill="#000000" font-family="sans-serif" font-size="13" lengthAdjust="spacing" textLength="7" x="528.0411" y="237.7561">1</text></g><!--link JobOpening to JobReference--><g id="link_JobOpening_JobReference"><path codeLine="55" d="M622.84,105.27 C565.19,120.57 472.96,150.04 404,196 C382.51,210.32 366.4109,226.9639 352.0809,244.3139 " fill="none" id="JobOpening-to-JobReference" style="stroke:#181818;stroke-width:1.0;"/><polygon fill="#181818" points="348.26,248.94,357.0754,244.5481,351.4441,245.0849,350.9072,239.4536,348.26,248.94" style="stroke:#181818;stroke-width:1.0;"/><text fill="#000000" font-family="sans-serif" font-size="13" lengthAdjust="spacing" textLength="7" x="608.0919" y="122.2994">1</text><text fill="#000000" font-family="sans-serif" font-size="13" lengthAdjust="spacing" textLength="7" x="345.3638" y="237.5015">1</text></g><!--link JobOpening to Company--><g id="link_JobOpening_Company"><path codeLine="56" d="M731.08,100.92 C800.92,113.53 924.47,141.85 1017,196 C1038.68,208.69 1056.1386,221.6914 1074.3386,236.8414 " fill="none" id="JobOpening-to-Company" style="stroke:#181818;stroke-width:1.0;"/><polygon fill="#181818" points="1078.95,240.68,1074.592,231.8478,1075.1072,237.4812,1069.4738,237.9963,1078.95,240.68" style="stroke:#181818;stroke-width:1.0;"/><text fill="#000000" font-family="sans-serif" font-size="13" lengthAdjust="spacing" textLength="7" x="739.1772" y="117.4772">1</text><text fill="#000000" font-family="sans-serif" font-size="13" lengthAdjust="spacing" textLength="7" x="1064.1211" y="229.6395">1</text></g><!--link CustomerManager to JobOpening--><g id="link_CustomerManager_JobOpening"><path codeLine="61" d="M209.51,91.5 C320.21,91.5 519.49,91.5 616.94,91.5 " fill="none" id="CustomerManager-to-JobOpening" style="stroke:#181818;stroke-width:1.0;"/><polygon fill="#181818" points="622.94,91.5,613.94,87.5,617.94,91.5,613.94,95.5,622.94,91.5" style="stroke:#181818;stroke-width:1.0;"/><text fill="#000000" font-family="sans-serif" font-size="13" lengthAdjust="spacing" textLength="43" x="394.75" y="84.5283">creates</text><text fill="#000000" font-family="sans-serif" font-size="13" lengthAdjust="spacing" textLength="7" x="217.5548" y="87.6903">1</text><text fill="#000000" font-family="sans-serif" font-size="13" lengthAdjust="spacing" textLength="20" x="595.1327" y="87.5001">0..*</text></g><!--link CustomerEmployee to Company--><g id="link_CustomerEmployee_Company"><path codeLine="62" d="M1121,115.68 C1121,147.04 1121,197.35 1121,234.83 " fill="none" id="CustomerEmployee-to-Company" style="stroke:#181818;stroke-width:1.0;"/><polygon fill="#181818" points="1121,240.83,1125,231.83,1121,235.83,1117,231.83,1121,240.83" style="stroke:#181818;stroke-width:1.0;"/><text fill="#000000" font-family="sans-serif" font-size="13" lengthAdjust="spacing" textLength="60" x="1122" y="184.0283">belongs to</text><text fill="#000000" font-family="sans-serif" font-size="13" lengthAdjust="spacing" textLength="7" x="1113.1469" y="137.7095">1</text><text fill="#000000" font-family="sans-serif" font-size="13" lengthAdjust="spacing" textLength="20" x="1099.2813" y="229.8153">1..*</text></g><!--link Company to CompanyName--><g id="link_Company_CompanyName"><path codeLine="63" d="M1121,318.09 C1121,348.38 1121,384.38 1121,412.33 " fill="none" id="Company-to-CompanyName" style="stroke:#181818;stroke-width:1.0;"/><polygon fill="#181818" points="1121,418.33,1125,409.33,1121,413.33,1117,409.33,1121,418.33" style="stroke:#181818;stroke-width:1.0;"/><text fill="#000000" font-family="sans-serif" font-size="13" lengthAdjust="spacing" textLength="21" x="1122" y="384.5283">has</text><text fill="#000000" font-family="sans-serif" font-size="13" lengthAdjust="spacing" textLength="7" x="1113.4422" y="339.6829">1</text><text fill="#000000" font-family="sans-serif" font-size="13" lengthAdjust="spacing" textLength="7" x="1113.2781" y="407.3526">1</text></g><!--link Company to CompanyAddress--><g id="link_Company_CompanyAddress"><path codeLine="64" d="M1159.38,318.09 C1190.3,348.38 1228.8833,386.1819 1257.4233,414.1319 " fill="none" id="Company-to-CompanyAddress" style="stroke:#181818;stroke-width:1.0;"/><polygon fill="#181818" points="1261.71,418.33,1258.0787,409.175,1258.1377,414.8316,1252.4812,414.8907,1261.71,418.33" style="stroke:#181818;stroke-width:1.0;"/><text fill="#000000" font-family="sans-serif" font-size="13" lengthAdjust="spacing" textLength="56" x="1227" y="384.5283">is located</text><text fill="#000000" font-family="sans-serif" font-size="13" lengthAdjust="spacing" textLength="7" x="1157.939" y="339.6829">1</text><text fill="#000000" font-family="sans-serif" font-size="13" lengthAdjust="spacing" textLength="7" x="1247.7408" y="407.3526">1</text></g><!--SRC=[XP9DQy9048Rl-oi6BuM2qbw314HwALJ1YZrFDcDSt8-mkpc4u7_lniGaHjFcacNdcOzztt5deNEqg217ViQCldqf2InnZpgJn5Xx3vycsUQaXSvMMMOfGqzGCI3jXIy7KLWkhJ4-ZiEX2SPnu59ot8hS2wCPN1W3Bj6vEcz7HxAaEOM40yg2GcerP3Q5IiXkZmVagBaWzmYIBXIiZVOMkT-NETqHnqBAkHUAM7YbzUsno_inzhoZB5psXKEM9MLyu4vbOaNAm6WdF8s6tmil7mQlaVfxMHVE6qNs2tMGq7R2TQ9E0HLhTHq1lQIzp5LeTwcR6PMZBfyq6GMWhzv4u4dPggxPFBEbDdWdq3YyIbDBpjqJzLpzQh31bipUPp2VnzT_fsC4F7Y8GhifTEZn53Fmy_-2ZyiLmGadyRk5dHxogaYp0krvP6J31_njiNYT3Ug4YIq5aroNyQ5oQKgYGOiwfpCl0e24fD6P0s_OxVh9G5S7c-VzGTsCZ40ua8Q7OLB6VW40]--></g></svg>