<?xml version="1.0" encoding="us-ascii" standalone="no"?><svg xmlns="http://www.w3.org/2000/svg" xmlns:xlink="http://www.w3.org/1999/xlink" contentStyleType="text/css" height="626.5px" preserveAspectRatio="none" style="width:1723px;height:626px;background:#FFFFFF;" version="1.1" viewBox="0 0 1723 626" width="1723.4px" zoomAndPan="magnify"><defs/><g><rect fill="#FFFFFF" height="459.9779" style="stroke:#181818;stroke-width:0.6999999999999998;" width="7" x="43.05" y="85.0732"/><rect fill="#FFFFFF" height="459.9779" style="stroke:#181818;stroke-width:0.6999999999999998;" width="7" x="276.85" y="85.0732"/><rect fill="#FFFFFF" height="306.652" style="stroke:#181818;stroke-width:0.6999999999999998;" width="7" x="524.65" y="216.4955"/><rect fill="#FFFFFF" height="21.9037" style="stroke:#181818;stroke-width:0.6999999999999998;" width="7" x="1209.95" y="435.5326"/><rect fill="#FFFFFF" height="43.8074" style="stroke:#181818;stroke-width:0.6999999999999998;" width="7" x="1414" y="326.0141"/><rect fill="#FFFFFF" height="21.9037" style="stroke:#181818;stroke-width:0.6999999999999998;" width="7" x="1648.85" y="391.7252"/><rect fill="#FFFFFF" height="21.9037" style="stroke:#181818;stroke-width:0.6999999999999998;" width="7" x="1648.85" y="479.34"/><line style="stroke:#181818;stroke-width:0.3499999999999999;stroke-dasharray:5.0,5.0;" x1="46.2" x2="46.2" y1="61.7695" y2="557.6512"/><line style="stroke:#181818;stroke-width:0.3499999999999999;stroke-dasharray:5.0,5.0;" x1="280" x2="280" y1="61.7695" y2="557.6512"/><line style="stroke:#181818;stroke-width:0.3499999999999999;stroke-dasharray:5.0,5.0;" x1="527.8" x2="527.8" y1="61.7695" y2="557.6512"/><line style="stroke:#181818;stroke-width:0.3499999999999999;stroke-dasharray:5.0,5.0;" x1="903" x2="903" y1="61.7695" y2="557.6512"/><line style="stroke:#181818;stroke-width:0.3499999999999999;stroke-dasharray:5.0,5.0;" x1="1008" x2="1008" y1="61.7695" y2="557.6512"/><line style="stroke:#181818;stroke-width:0.3499999999999999;stroke-dasharray:5.0,5.0;" x1="1110.2" x2="1110.2" y1="61.7695" y2="557.6512"/><line style="stroke:#181818;stroke-width:0.3499999999999999;stroke-dasharray:5.0,5.0;" x1="1213.1" x2="1213.1" y1="61.7695" y2="557.6512"/><line style="stroke:#181818;stroke-width:0.3499999999999999;stroke-dasharray:5.0,5.0;" x1="1317.4" x2="1317.4" y1="61.7695" y2="557.6512"/><line style="stroke:#181818;stroke-width:0.3499999999999999;stroke-dasharray:5.0,5.0;" x1="1417.5" x2="1417.5" y1="61.7695" y2="557.6512"/><line style="stroke:#181818;stroke-width:0.3499999999999999;stroke-dasharray:5.0,5.0;" x1="1522.5" x2="1522.5" y1="61.7695" y2="557.6512"/><line style="stroke:#181818;stroke-width:0.3499999999999999;stroke-dasharray:5.0,5.0;" x1="1652" x2="1652" y1="61.7695" y2="557.6512"/><text fill="#000000" font-family="FG Virgil" font-size="9.8" lengthAdjust="spacing" textLength="81.9" x="3.5" y="59.31">CostumerManager</text><ellipse cx="46.55" cy="12.6848" fill="#E3E3E3" rx="5.6" ry="5.6" style="stroke:#181818;stroke-width:0.3499999999999999;"/><path d="M46.55,18.2848 L46.55,37.1848 M37.45,23.8848 L55.65,23.8848 M46.55,37.1848 L37.45,47.6848 M46.55,37.1848 L55.65,47.6848 " fill="none" style="stroke:#181818;stroke-width:0.3499999999999999;"/><text fill="#000000" font-family="FG Virgil" font-size="9.8" lengthAdjust="spacing" textLength="81.9" x="3.5" y="567.5264">CostumerManager</text><ellipse cx="46.55" cy="575.9359" fill="#E3E3E3" rx="5.6" ry="5.6" style="stroke:#181818;stroke-width:0.3499999999999999;"/><path d="M46.55,581.5359 L46.55,600.4359 M37.45,587.1359 L55.65,587.1359 M46.55,600.4359 L37.45,610.9359 M46.55,600.4359 L55.65,610.9359 " fill="none" style="stroke:#181818;stroke-width:0.3499999999999999;"/><rect fill="#E3E3E3" height="35.8695" rx="1.75" ry="1.75" style="stroke:#181818;stroke-width:0.3499999999999999;" width="132.3" x="214.2" y="25.2"/><text fill="#000000" font-family="FG Virgil" font-size="9.8" font-style="italic" lengthAdjust="spacing" textLength="66.5" x="247.1" y="40.6752">&#171;presentation&#187;</text><text fill="#000000" font-family="FG Virgil" font-size="9.8" lengthAdjust="spacing" textLength="122.5" x="219.1" y="53.71">SwitchJobOpeningPhasesUI</text><rect fill="#E3E3E3" height="35.8695" rx="1.75" ry="1.75" style="stroke:#181818;stroke-width:0.3499999999999999;" width="132.3" x="214.2" y="556.9512"/><text fill="#000000" font-family="FG Virgil" font-size="9.8" font-style="italic" lengthAdjust="spacing" textLength="66.5" x="247.1" y="572.4264">&#171;presentation&#187;</text><text fill="#000000" font-family="FG Virgil" font-size="9.8" lengthAdjust="spacing" textLength="122.5" x="219.1" y="585.4611">SwitchJobOpeningPhasesUI</text><rect fill="#E3E3E3" height="35.8695" rx="1.75" ry="1.75" style="stroke:#181818;stroke-width:0.3499999999999999;" width="167.3" x="444.5" y="25.2"/><text fill="#000000" font-family="FG Virgil" font-size="9.8" font-style="italic" lengthAdjust="spacing" textLength="58.8" x="498.75" y="40.6752">&#171;application&#187;</text><text fill="#000000" font-family="FG Virgil" font-size="9.8" lengthAdjust="spacing" textLength="157.5" x="449.4" y="53.71">SwitchJobOpeningPhasesController</text><rect fill="#E3E3E3" height="35.8695" rx="1.75" ry="1.75" style="stroke:#181818;stroke-width:0.3499999999999999;" width="167.3" x="444.5" y="556.9512"/><text fill="#000000" font-family="FG Virgil" font-size="9.8" font-style="italic" lengthAdjust="spacing" textLength="58.8" x="498.75" y="572.4264">&#171;application&#187;</text><text fill="#000000" font-family="FG Virgil" font-size="9.8" lengthAdjust="spacing" textLength="157.5" x="449.4" y="585.4611">SwitchJobOpeningPhasesController</text><rect fill="#E3E3E3" height="35.8695" rx="1.75" ry="1.75" style="stroke:#181818;stroke-width:0.3499999999999999;" width="100.1" x="853.3" y="25.2"/><text fill="#000000" font-family="FG Virgil" font-size="9.8" font-style="italic" lengthAdjust="spacing" textLength="42" x="882.35" y="40.6752">&#171;service&#187;</text><text fill="#000000" font-family="FG Virgil" font-size="9.8" lengthAdjust="spacing" textLength="90.3" x="858.2" y="53.71">AuthorizationService</text><rect fill="#E3E3E3" height="35.8695" rx="1.75" ry="1.75" style="stroke:#181818;stroke-width:0.3499999999999999;" width="100.1" x="853.3" y="556.9512"/><text fill="#000000" font-family="FG Virgil" font-size="9.8" font-style="italic" lengthAdjust="spacing" textLength="42" x="882.35" y="572.4264">&#171;service&#187;</text><text fill="#000000" font-family="FG Virgil" font-size="9.8" lengthAdjust="spacing" textLength="90.3" x="858.2" y="585.4611">AuthorizationService</text><rect fill="#E3E3E3" height="35.8695" rx="1.75" ry="1.75" style="stroke:#181818;stroke-width:0.3499999999999999;" width="95.9" x="960.4" y="25.2"/><text fill="#000000" font-family="FG Virgil" font-size="9.8" font-style="italic" lengthAdjust="spacing" textLength="42" x="987.35" y="40.6752">&#171;service&#187;</text><text fill="#000000" font-family="FG Virgil" font-size="9.8" lengthAdjust="spacing" textLength="86.1" x="965.3" y="53.71">JobOpeningService</text><rect fill="#E3E3E3" height="35.8695" rx="1.75" ry="1.75" style="stroke:#181818;stroke-width:0.3499999999999999;" width="95.9" x="960.4" y="556.9512"/><text fill="#000000" font-family="FG Virgil" font-size="9.8" font-style="italic" lengthAdjust="spacing" textLength="42" x="987.35" y="572.4264">&#171;service&#187;</text><text fill="#000000" font-family="FG Virgil" font-size="9.8" lengthAdjust="spacing" textLength="86.1" x="965.3" y="585.4611">JobOpeningService</text><rect fill="#E3E3E3" height="35.8695" rx="1.75" ry="1.75" style="stroke:#181818;stroke-width:0.3499999999999999;" width="93.8" x="1063.3" y="25.2"/><text fill="#000000" font-family="FG Virgil" font-size="9.8" font-style="italic" lengthAdjust="spacing" textLength="41.3" x="1089.55" y="40.6752">&#171;builder&#187;</text><text fill="#000000" font-family="FG Virgil" font-size="9.8" lengthAdjust="spacing" textLength="84" x="1068.2" y="53.71">JobOpeningBuilder</text><rect fill="#E3E3E3" height="35.8695" rx="1.75" ry="1.75" style="stroke:#181818;stroke-width:0.3499999999999999;" width="93.8" x="1063.3" y="556.9512"/><text fill="#000000" font-family="FG Virgil" font-size="9.8" font-style="italic" lengthAdjust="spacing" textLength="41.3" x="1089.55" y="572.4264">&#171;builder&#187;</text><text fill="#000000" font-family="FG Virgil" font-size="9.8" lengthAdjust="spacing" textLength="84" x="1068.2" y="585.4611">JobOpeningBuilder</text><rect fill="#E3E3E3" height="35.8695" rx="1.75" ry="1.75" style="stroke:#181818;stroke-width:0.3499999999999999;" width="98.7" x="1164.1" y="25.2"/><text fill="#000000" font-family="FG Virgil" font-size="9.8" font-style="italic" lengthAdjust="spacing" textLength="43.4" x="1191.75" y="40.6752">&#171;domain&#187;</text><text fill="#000000" font-family="FG Virgil" font-size="9.8" lengthAdjust="spacing" textLength="88.9" x="1169" y="53.71">JobOpeningProcess</text><rect fill="#E3E3E3" height="35.8695" rx="1.75" ry="1.75" style="stroke:#181818;stroke-width:0.3499999999999999;" width="98.7" x="1164.1" y="556.9512"/><text fill="#000000" font-family="FG Virgil" font-size="9.8" font-style="italic" lengthAdjust="spacing" textLength="43.4" x="1191.75" y="572.4264">&#171;domain&#187;</text><text fill="#000000" font-family="FG Virgil" font-size="9.8" lengthAdjust="spacing" textLength="88.9" x="1169" y="585.4611">JobOpeningProcess</text><rect fill="#E3E3E3" height="35.8695" rx="1.75" ry="1.75" style="stroke:#181818;stroke-width:0.3499999999999999;" width="95.2" x="1269.8" y="25.2"/><text fill="#000000" font-family="FG Virgil" font-size="9.8" font-style="italic" lengthAdjust="spacing" textLength="62.3" x="1286.25" y="40.6752">&#171;persistence&#187;</text><text fill="#000000" font-family="FG Virgil" font-size="9.8" lengthAdjust="spacing" textLength="85.4" x="1274.7" y="53.71">PersistenceContext</text><rect fill="#E3E3E3" height="35.8695" rx="1.75" ry="1.75" style="stroke:#181818;stroke-width:0.3499999999999999;" width="95.2" x="1269.8" y="556.9512"/><text fill="#000000" font-family="FG Virgil" font-size="9.8" font-style="italic" lengthAdjust="spacing" textLength="62.3" x="1286.25" y="572.4264">&#171;persistence&#187;</text><text fill="#000000" font-family="FG Virgil" font-size="9.8" lengthAdjust="spacing" textLength="85.4" x="1274.7" y="585.4611">PersistenceContext</text><rect fill="#E3E3E3" height="35.8695" rx="1.75" ry="1.75" style="stroke:#181818;stroke-width:0.3499999999999999;" width="91" x="1372" y="25.2"/><text fill="#000000" font-family="FG Virgil" font-size="9.8" font-style="italic" lengthAdjust="spacing" textLength="41.3" x="1396.85" y="40.6752">&#171;factory&#187;</text><text fill="#000000" font-family="FG Virgil" font-size="9.8" lengthAdjust="spacing" textLength="81.2" x="1376.9" y="53.71">RepositoryFactory</text><rect fill="#E3E3E3" height="35.8695" rx="1.75" ry="1.75" style="stroke:#181818;stroke-width:0.3499999999999999;" width="91" x="1372" y="556.9512"/><text fill="#000000" font-family="FG Virgil" font-size="9.8" font-style="italic" lengthAdjust="spacing" textLength="41.3" x="1396.85" y="572.4264">&#171;factory&#187;</text><text fill="#000000" font-family="FG Virgil" font-size="9.8" lengthAdjust="spacing" textLength="81.2" x="1376.9" y="585.4611">RepositoryFactory</text><text fill="#000000" font-family="FG Virgil" font-size="9.8" font-style="italic" lengthAdjust="spacing" textLength="55.3" x="1492.75" y="46.2752">&#171;repository&#187;</text><text fill="#000000" font-family="FG Virgil" font-size="9.8" lengthAdjust="spacing" textLength="100.8" x="1470" y="59.31">JobOpeningRepository</text><path d="M1509.9,10.5 C1509.9,3.5 1522.5,3.5 1522.5,3.5 C1522.5,3.5 1535.1,3.5 1535.1,10.5 L1535.1,28.7 C1535.1,35.7 1522.5,35.7 1522.5,35.7 C1522.5,35.7 1509.9,35.7 1509.9,28.7 L1509.9,10.5 " fill="#E3E3E3" style="stroke:#181818;stroke-width:1.0499999999999998;"/><path d="M1509.9,10.5 C1509.9,17.5 1522.5,17.5 1522.5,17.5 C1522.5,17.5 1535.1,17.5 1535.1,10.5 " fill="none" style="stroke:#181818;stroke-width:1.0499999999999998;"/><text fill="#000000" font-family="FG Virgil" font-size="9.8" font-style="italic" lengthAdjust="spacing" textLength="55.3" x="1492.75" y="567.5264">&#171;repository&#187;</text><text fill="#000000" font-family="FG Virgil" font-size="9.8" lengthAdjust="spacing" textLength="100.8" x="1470" y="580.5611">JobOpeningRepository</text><path d="M1509.9,590.0207 C1509.9,583.0207 1522.5,583.0207 1522.5,583.0207 C1522.5,583.0207 1535.1,583.0207 1535.1,590.0207 L1535.1,608.2207 C1535.1,615.2207 1522.5,615.2207 1522.5,615.2207 C1522.5,615.2207 1509.9,615.2207 1509.9,608.2207 L1509.9,590.0207 " fill="#E3E3E3" style="stroke:#181818;stroke-width:1.0499999999999998;"/><path d="M1509.9,590.0207 C1509.9,597.0207 1522.5,597.0207 1522.5,597.0207 C1522.5,597.0207 1535.1,597.0207 1535.1,590.0207 " fill="none" style="stroke:#181818;stroke-width:1.0499999999999998;"/><text fill="#000000" font-family="FG Virgil" font-size="9.8" font-style="italic" lengthAdjust="spacing" textLength="55.3" x="1622.6" y="46.2752">&#171;repository&#187;</text><text fill="#000000" font-family="FG Virgil" font-size="9.8" lengthAdjust="spacing" textLength="136.5" x="1582" y="59.31">JobOpeningProcessRepository</text><path d="M1639.75,10.5 C1639.75,3.5 1652.35,3.5 1652.35,3.5 C1652.35,3.5 1664.95,3.5 1664.95,10.5 L1664.95,28.7 C1664.95,35.7 1652.35,35.7 1652.35,35.7 C1652.35,35.7 1639.75,35.7 1639.75,28.7 L1639.75,10.5 " fill="#E3E3E3" style="stroke:#181818;stroke-width:1.0499999999999998;"/><path d="M1639.75,10.5 C1639.75,17.5 1652.35,17.5 1652.35,17.5 C1652.35,17.5 1664.95,17.5 1664.95,10.5 " fill="none" style="stroke:#181818;stroke-width:1.0499999999999998;"/><text fill="#000000" font-family="FG Virgil" font-size="9.8" font-style="italic" lengthAdjust="spacing" textLength="55.3" x="1622.6" y="567.5264">&#171;repository&#187;</text><text fill="#000000" font-family="FG Virgil" font-size="9.8" lengthAdjust="spacing" textLength="136.5" x="1582" y="580.5611">JobOpeningProcessRepository</text><path d="M1639.75,590.0207 C1639.75,583.0207 1652.35,583.0207 1652.35,583.0207 C1652.35,583.0207 1664.95,583.0207 1664.95,590.0207 L1664.95,608.2207 C1664.95,615.2207 1652.35,615.2207 1652.35,615.2207 C1652.35,615.2207 1639.75,615.2207 1639.75,608.2207 L1639.75,590.0207 " fill="#E3E3E3" style="stroke:#181818;stroke-width:1.0499999999999998;"/><path d="M1639.75,590.0207 C1639.75,597.0207 1652.35,597.0207 1652.35,597.0207 C1652.35,597.0207 1664.95,597.0207 1664.95,590.0207 " fill="none" style="stroke:#181818;stroke-width:1.0499999999999998;"/><rect fill="#FFFFFF" height="459.9779" style="stroke:#181818;stroke-width:0.6999999999999998;" width="7" x="43.05" y="85.0732"/><rect fill="#FFFFFF" height="459.9779" style="stroke:#181818;stroke-width:0.6999999999999998;" width="7" x="276.85" y="85.0732"/><rect fill="#FFFFFF" height="306.652" style="stroke:#181818;stroke-width:0.6999999999999998;" width="7" x="524.65" y="216.4955"/><rect fill="#FFFFFF" height="21.9037" style="stroke:#181818;stroke-width:0.6999999999999998;" width="7" x="1209.95" y="435.5326"/><rect fill="#FFFFFF" height="43.8074" style="stroke:#181818;stroke-width:0.6999999999999998;" width="7" x="1414" y="326.0141"/><rect fill="#FFFFFF" height="21.9037" style="stroke:#181818;stroke-width:0.6999999999999998;" width="7" x="1648.85" y="391.7252"/><rect fill="#FFFFFF" height="21.9037" style="stroke:#181818;stroke-width:0.6999999999999998;" width="7" x="1648.85" y="479.34"/><polygon fill="#181818" points="268.45,82.2732,275.45,85.0732,268.45,87.8732,271.25,85.0732" style="stroke:#181818;stroke-width:0.6999999999999998;"/><line style="stroke:#181818;stroke-width:0.6999999999999998;stroke-dasharray:2.0,2.0;" x1="50.05" x2="272.65" y1="85.0732" y2="85.0732"/><text fill="#000000" font-family="FG Virgil" font-size="9.1" lengthAdjust="spacing" textLength="192.5" x="54.95" y="81.3894">asks to switch the Job Opening Process Phase</text><polygon fill="#181818" points="519.75,104.177,526.75,106.977,519.75,109.777,522.55,106.977" style="stroke:#181818;stroke-width:0.6999999999999998;"/><line style="stroke:#181818;stroke-width:0.6999999999999998;" x1="283.85" x2="523.95" y1="106.977" y2="106.977"/><text fill="#000000" font-family="FG Virgil" font-size="9.1" lengthAdjust="spacing" textLength="25.2" x="288.75" y="103.2931">create</text><polygon fill="#181818" points="57.75,126.0807,50.75,128.8807,57.75,131.6807,54.95,128.8807" style="stroke:#181818;stroke-width:0.6999999999999998;"/><line style="stroke:#181818;stroke-width:0.6999999999999998;stroke-dasharray:2.0,2.0;" x1="53.55" x2="276.15" y1="128.8807" y2="128.8807"/><text fill="#000000" font-family="FG Virgil" font-size="9.1" lengthAdjust="spacing" textLength="126" x="61.95" y="125.1968">asks to insert the jobReference</text><polygon fill="#181818" points="268.45,147.9844,275.45,150.7844,268.45,153.5844,271.25,150.7844" style="stroke:#181818;stroke-width:0.6999999999999998;"/><line style="stroke:#181818;stroke-width:0.6999999999999998;" x1="50.05" x2="272.65" y1="150.7844" y2="150.7844"/><text fill="#000000" font-family="FG Virgil" font-size="9.1" lengthAdjust="spacing" textLength="98" x="54.95" y="147.1005">inserts the jobReference</text><polygon fill="#181818" points="57.75,169.8881,50.75,172.6881,57.75,175.4881,54.95,172.6881" style="stroke:#181818;stroke-width:0.6999999999999998;"/><line style="stroke:#181818;stroke-width:0.6999999999999998;stroke-dasharray:2.0,2.0;" x1="53.55" x2="276.15" y1="172.6881" y2="172.6881"/><text fill="#000000" font-family="FG Virgil" font-size="9.1" lengthAdjust="spacing" textLength="210" x="61.95" y="169.0042">asks to select the switch decision (Advance/Return)</text><polygon fill="#181818" points="268.45,191.7918,275.45,194.5918,268.45,197.3918,271.25,194.5918" style="stroke:#181818;stroke-width:0.6999999999999998;"/><line style="stroke:#181818;stroke-width:0.6999999999999998;" x1="50.05" x2="272.65" y1="194.5918" y2="194.5918"/><text fill="#000000" font-family="FG Virgil" font-size="9.1" lengthAdjust="spacing" textLength="81.2" x="54.95" y="190.9079">selects the decision</text><polygon fill="#181818" points="516.25,213.6955,523.25,216.4955,516.25,219.2955,519.05,216.4955" style="stroke:#181818;stroke-width:0.6999999999999998;"/><line style="stroke:#181818;stroke-width:0.6999999999999998;" x1="283.85" x2="520.45" y1="216.4955" y2="216.4955"/><text fill="#000000" font-family="FG Virgil" font-size="9.1" lengthAdjust="spacing" textLength="227.5" x="288.75" y="212.8116">switchJobOpeningProcessPhase(jobReference,decision)</text><polygon fill="#181818" points="894.95,235.5992,901.95,238.3992,894.95,241.1992,897.75,238.3992" style="stroke:#181818;stroke-width:0.6999999999999998;"/><line style="stroke:#181818;stroke-width:0.6999999999999998;" x1="531.65" x2="899.15" y1="238.3992" y2="238.3992"/><text fill="#000000" font-family="FG Virgil" font-size="9.1" lengthAdjust="spacing" textLength="354.9" x="536.55" y="234.7153">ensureAuthenticatedUserHasAnyOf(Jobs4uRoles.POWER_USER,Jobs4uRoles.ADMIN)</text><polygon fill="#181818" points="1309,257.5029,1316,260.3029,1309,263.1029,1311.8,260.3029" style="stroke:#181818;stroke-width:0.6999999999999998;"/><line style="stroke:#181818;stroke-width:0.6999999999999998;" x1="531.65" x2="1313.2" y1="260.3029" y2="260.3029"/><text fill="#000000" font-family="FG Virgil" font-size="9.1" lengthAdjust="spacing" textLength="52.5" x="536.55" y="256.619">repositories()</text><polygon fill="#181818" points="1409.1,279.4066,1416.1,282.2066,1409.1,285.0066,1411.9,282.2066" style="stroke:#181818;stroke-width:0.6999999999999998;"/><line style="stroke:#181818;stroke-width:0.6999999999999998;" x1="1317.4" x2="1413.3" y1="282.2066" y2="282.2066"/><text fill="#000000" font-family="FG Virgil" font-size="9.1" lengthAdjust="spacing" textLength="30.8" x="1322.3" y="278.5228">create()</text><polygon fill="#181818" points="539.35,301.3104,532.35,304.1104,539.35,306.9104,536.55,304.1104" style="stroke:#181818;stroke-width:0.6999999999999998;"/><line style="stroke:#181818;stroke-width:0.6999999999999998;stroke-dasharray:2.0,2.0;" x1="535.15" x2="1316.7" y1="304.1104" y2="304.1104"/><text fill="#000000" font-family="FG Virgil" font-size="9.1" lengthAdjust="spacing" textLength="27.3" x="543.55" y="300.4265">factory</text><polygon fill="#181818" points="1405.6,323.2141,1412.6,326.0141,1405.6,328.8141,1408.4,326.0141" style="stroke:#181818;stroke-width:0.6999999999999998;"/><line style="stroke:#181818;stroke-width:0.6999999999999998;" x1="531.65" x2="1409.8" y1="326.0141" y2="326.0141"/><text fill="#000000" font-family="FG Virgil" font-size="9.1" lengthAdjust="spacing" textLength="84.7" x="536.55" y="322.3302">jobOpeningProcess()</text><polygon fill="#181818" points="1643.95,345.1178,1650.95,347.9178,1643.95,350.7178,1646.75,347.9178" style="stroke:#181818;stroke-width:0.6999999999999998;"/><line style="stroke:#181818;stroke-width:0.6999999999999998;" x1="1421" x2="1648.15" y1="347.9178" y2="347.9178"/><text fill="#000000" font-family="FG Virgil" font-size="9.1" lengthAdjust="spacing" textLength="30.8" x="1425.9" y="344.2339">create()</text><polygon fill="#181818" points="539.35,367.0215,532.35,369.8215,539.35,372.6215,536.55,369.8215" style="stroke:#181818;stroke-width:0.6999999999999998;"/><line style="stroke:#181818;stroke-width:0.6999999999999998;stroke-dasharray:2.0,2.0;" x1="535.15" x2="1416.8" y1="369.8215" y2="369.8215"/><text fill="#000000" font-family="FG Virgil" font-size="9.1" lengthAdjust="spacing" textLength="122.5" x="543.55" y="366.1376">jobOpeningProcessRepository</text><polygon fill="#181818" points="1640.45,388.9252,1647.45,391.7252,1640.45,394.5252,1643.25,391.7252" style="stroke:#181818;stroke-width:0.6999999999999998;"/><line style="stroke:#181818;stroke-width:0.6999999999999998;" x1="531.65" x2="1644.65" y1="391.7252" y2="391.7252"/><text fill="#000000" font-family="FG Virgil" font-size="9.1" lengthAdjust="spacing" textLength="137.9" x="536.55" y="388.0413">findByJobReference(jobReference)</text><polygon fill="#181818" points="539.35,410.8289,532.35,413.6289,539.35,416.4289,536.55,413.6289" style="stroke:#181818;stroke-width:0.6999999999999998;"/><line style="stroke:#181818;stroke-width:0.6999999999999998;stroke-dasharray:2.0,2.0;" x1="535.15" x2="1651.65" y1="413.6289" y2="413.6289"/><text fill="#000000" font-family="FG Virgil" font-size="9.1" lengthAdjust="spacing" textLength="79.1" x="543.55" y="409.945">jobOpeningProcess</text><polygon fill="#181818" points="1201.55,432.7326,1208.55,435.5326,1201.55,438.3326,1204.35,435.5326" style="stroke:#181818;stroke-width:0.6999999999999998;"/><line style="stroke:#181818;stroke-width:0.6999999999999998;" x1="531.65" x2="1205.75" y1="435.5326" y2="435.5326"/><text fill="#000000" font-family="FG Virgil" font-size="9.1" lengthAdjust="spacing" textLength="254.1" x="536.55" y="431.8487">switchJobOpeningProcessPhase(jobOpeningProcess,decision)</text><polygon fill="#181818" points="539.35,454.6363,532.35,457.4363,539.35,460.2363,536.55,457.4363" style="stroke:#181818;stroke-width:0.6999999999999998;"/><line style="stroke:#181818;stroke-width:0.6999999999999998;stroke-dasharray:2.0,2.0;" x1="535.15" x2="1212.75" y1="457.4363" y2="457.4363"/><text fill="#000000" font-family="FG Virgil" font-size="9.1" lengthAdjust="spacing" textLength="79.1" x="543.55" y="453.7524">jobOpeningProcess</text><polygon fill="#181818" points="1640.45,476.54,1647.45,479.34,1640.45,482.14,1643.25,479.34" style="stroke:#181818;stroke-width:0.6999999999999998;"/><line style="stroke:#181818;stroke-width:0.6999999999999998;" x1="531.65" x2="1644.65" y1="479.34" y2="479.34"/><text fill="#000000" font-family="FG Virgil" font-size="9.1" lengthAdjust="spacing" textLength="102.9" x="536.55" y="475.6562">save(jobOpeningProcess)</text><polygon fill="#181818" points="539.35,498.4437,532.35,501.2437,539.35,504.0437,536.55,501.2437" style="stroke:#181818;stroke-width:0.6999999999999998;"/><line style="stroke:#181818;stroke-width:0.6999999999999998;stroke-dasharray:2.0,2.0;" x1="535.15" x2="1651.65" y1="501.2437" y2="501.2437"/><text fill="#000000" font-family="FG Virgil" font-size="9.1" lengthAdjust="spacing" textLength="79.1" x="543.55" y="497.5599">jobOpeningProcess</text><polygon fill="#181818" points="291.55,520.3475,284.55,523.1475,291.55,525.9475,288.75,523.1475" style="stroke:#181818;stroke-width:0.6999999999999998;"/><line style="stroke:#181818;stroke-width:0.6999999999999998;stroke-dasharray:2.0,2.0;" x1="287.35" x2="527.45" y1="523.1475" y2="523.1475"/><text fill="#000000" font-family="FG Virgil" font-size="9.1" lengthAdjust="spacing" textLength="79.1" x="295.75" y="519.4636">jobOpeningProcess</text><polygon fill="#181818" points="54.25,542.2512,47.25,545.0512,54.25,547.8512,51.45,545.0512" style="stroke:#181818;stroke-width:0.6999999999999998;"/><line style="stroke:#181818;stroke-width:0.6999999999999998;stroke-dasharray:2.0,2.0;" x1="50.05" x2="279.65" y1="545.0512" y2="545.0512"/><text fill="#000000" font-family="FG Virgil" font-size="9.1" lengthAdjust="spacing" textLength="103.6" x="58.45" y="541.3673">displays the actual phase</text><!--SRC=[lLPRRzem57xFhx3s15BR3TfLMXHLeuLsPQL5KDh7oIG7S1lio7RewA_VSIx42G4wQHeFoF4vttUkFhPwPJoYaYx9Kd3XBwHO0j4o1aTj917rN-aSndeT0f7WQqiMm8p6eRuMNDzJX5xVa2ScvooqTDI21kADyJcPqL21ur1V2qckXDBn4kI0ScINXAhgbeDupNmMKQx9-8rfVz4NquS8E98D5rI1cjmQ7FvxNYH10TTKCy4lBZw0lKAdfGZ3tFRco_De58NChwFgn7eX97jFP6EGA-Q3WPlzz-pRyrIwg60B1opWrkPXz6NCmY3rEbzwtZHTLK2VhA2by46fJmRM5KlAEAA2P5413K4gfZHm7qnMuBSs66lNPBlugg1740d5iCBhwwJGQmFEbvutIrS82gYcKoo45Lc1BQV6slSykVce9ya2tSMrBQvGEjNEF3w-m1PpaUPL4Is8Ijg9w4LYbMIy92CcINUP9cShgc6hgJU2oQtZ4FnXzwA1elzSuaj0XKAQYCi-5TumZlsY4szUn7G4Cv2cAYbwAnGJ2O9JaDg1EcXJGOXp845doGZ0PmgF16bqWXL5fiyZqB7apVr-f4If7pb5YgZBZ05KZtAQz2Jd3JkIevokMV1PDSaf2w5b1etQvndD0bUn1BE98yPC1WWccC4VL7Nu-c7MG8VKMJmI8QYJuSDpR_HhCkwDZkpjJdTmUz_SPSy-NIxPz2C3rR0mjXQ2ybELTynErMeMiqEuKGvWaneBjylNmknBjGxemLQoC_M2BSSZrRvZMHVL1bgDw6KtKLsKMpwL8zplrepnu7BTjvgjr7arATZ3LxYmp-ZXUEkY_93PSkJPpN3ue9MtzvwsbBCGP3O-45DTK5MslwcSegiQv-jy_XyL-oSbooVfxeQeCsCDm2srdTC_O2eAwJgTraWLqv14fXzgJUJNMybg-Iequk_0WtWPEiumnDV3P717LcO2uKtIEcb_QP-Uj5gDPmZ862BIEYMjRsxxt3qz9S-zyICn2asdSJEy8qh44aST-gWbcyOwwSK-NL4oYd5aBy5DBkf-zsU-GNfynQJWInpfJlzfK2YSdnrVCdmsulZ7m9y6JZTzvYB25m6cs2LNKQlzjUtSKJwFCHQNH1hV3KWirouPFlu1]--></g></svg>