<?xml version="1.0" encoding="us-ascii" standalone="no"?><svg xmlns="http://www.w3.org/2000/svg" xmlns:xlink="http://www.w3.org/1999/xlink" contentStyleType="text/css" height="627px" preserveAspectRatio="none" style="width:657px;height:627px;background:#FFFFFF;" version="1.1" viewBox="0 0 657 627" width="657px" zoomAndPan="magnify"><defs/><g><!--cluster InterviewModelAggregate--><g id="cluster_InterviewModelAggregate"><rect fill="none" height="270" rx="2.5" ry="2.5" style="stroke:#000000;stroke-width:1.5;" width="199" x="452" y="351"/><text fill="#000000" font-family="sans-serif" font-size="14" font-weight="bold" lengthAdjust="spacing" textLength="183" x="460" y="368.1074">InterviewModelAggregate</text></g><!--cluster InterviewAggregate--><g id="cluster_InterviewAggregate"><rect fill="none" height="301" rx="2.5" ry="2.5" style="stroke:#000000;stroke-width:1.5;" width="421" x="7" y="172"/><text fill="#000000" font-family="sans-serif" font-size="14" font-weight="bold" lengthAdjust="spacing" textLength="139" x="148" y="189.1074">InterviewAggregate</text></g><!--cluster ValidationService--><g id="cluster_ValidationService"><rect fill="none" height="114" rx="2.5" ry="2.5" style="stroke:#000000;stroke-width:1.5;" width="166" x="107" y="7"/><text fill="#000000" font-family="sans-serif" font-size="14" font-weight="bold" lengthAdjust="spacing" textLength="123" x="128.5" y="24.1074">ValidationService</text></g><!--cluster RankingService--><g id="cluster_RankingService"><rect fill="none" height="114" rx="2.5" ry="2.5" style="stroke:#000000;stroke-width:1.5;" width="127" x="297" y="7"/><text fill="#000000" font-family="sans-serif" font-size="14" font-weight="bold" lengthAdjust="spacing" textLength="111" x="305" y="24.1074">RankingService</text></g><!--class InterviewModel--><g id="elem_InterviewModel"><rect codeLine="7" fill="#F1F1F1" height="76.543" id="InterviewModel" rx="2.5" ry="2.5" style="stroke:#181818;stroke-width:0.5;" width="125" x="476.5" y="388"/><ellipse cx="491.5" cy="418.2715" fill="#ADD1B2" rx="11" ry="11" style="stroke:#181818;stroke-width:1.0;"/><path d="M490.3594,419.0684 L490.3594,421.5684 L494.6875,421.5684 L494.6875,420.6465 Q494.6875,420.0371 494.9219,419.7715 Q495.1719,419.5059 495.5469,419.5059 Q495.9219,419.5059 496.1563,419.7715 Q496.3906,420.0371 496.3906,420.6465 L496.3906,423.2715 L488.3906,423.2715 Q487.7656,423.2715 487.5,423.0371 Q487.25,422.8027 487.25,422.4121 Q487.25,422.0371 487.5156,421.8027 Q487.7813,421.5684 488.3906,421.5684 L488.6563,421.5684 L488.6563,414.9121 L488.3906,414.9121 Q487.7656,414.9121 487.5,414.6777 Q487.25,414.4434 487.25,414.0527 Q487.25,413.6777 487.5,413.4434 Q487.7656,413.209 488.3906,413.209 L496.0156,413.209 L496.0156,415.8027 Q496.0156,416.4121 495.7813,416.6777 Q495.5625,416.9277 495.1719,416.9277 Q494.7969,416.9277 494.5625,416.6777 Q494.3281,416.4121 494.3281,415.8027 L494.3281,414.9121 L490.3594,414.9121 L490.3594,417.3652 L491.8438,417.3652 Q491.8438,416.709 491.9688,416.5215 Q492.2344,416.1152 492.7031,416.1152 Q493.0781,416.1152 493.3125,416.3809 Q493.5469,416.6309 493.5469,417.2402 L493.5469,419.209 Q493.5469,419.7559 493.4219,419.9434 Q493.1563,420.334 492.7031,420.334 Q492.2344,420.334 491.9688,419.9277 Q491.8438,419.7402 491.8438,419.0684 L490.3594,419.0684 Z " fill="#000000"/><text fill="#000000" font-family="sans-serif" font-size="12" font-style="italic" lengthAdjust="spacing" textLength="35" x="534.5" y="405.9492">&#171;root&#187;</text><text fill="#000000" font-family="sans-serif" font-size="12" font-style="italic" lengthAdjust="spacing" textLength="43" x="530.5" y="421.9102">&#171;entity&#187;</text><text fill="#000000" font-family="sans-serif" font-size="14" lengthAdjust="spacing" textLength="93" x="505.5" y="440.0293">InterviewModel</text><line style="stroke:#181818;stroke-width:0.5;" x1="477.5" x2="600.5" y1="448.543" y2="448.543"/><line style="stroke:#181818;stroke-width:0.5;" x1="477.5" x2="600.5" y1="456.543" y2="456.543"/></g><!--class InterviewModelType--><g id="elem_InterviewModelType"><rect codeLine="10" fill="#F1F1F1" height="60.582" id="InterviewModelType" rx="2.5" ry="2.5" style="stroke:#181818;stroke-width:0.5;" width="157" x="468.5" y="544"/><ellipse cx="483.5" cy="566.291" fill="#ADD1B2" rx="11" ry="11" style="stroke:#181818;stroke-width:1.0;"/><path d="M486.2656,562.166 Q486.4219,561.9473 486.6094,561.8379 Q486.7969,561.7285 487.0156,561.7285 Q487.3906,561.7285 487.625,561.9941 Q487.8594,562.2441 487.8594,562.8535 L487.8594,564.3066 Q487.8594,564.916 487.625,565.1816 Q487.3906,565.4473 487.0156,565.4473 Q486.6719,565.4473 486.4688,565.2441 Q486.2656,565.0566 486.1563,564.541 Q486.1094,564.1816 485.9219,563.9941 Q485.5938,563.6191 484.9844,563.4004 Q484.375,563.1816 483.75,563.1816 Q482.9844,563.1816 482.3438,563.5098 Q481.7188,563.8379 481.2188,564.5879 Q480.7344,565.3379 480.7344,566.3691 L480.7344,567.4629 Q480.7344,568.6973 481.625,569.5254 Q482.5156,570.3379 484.1094,570.3379 Q485.0469,570.3379 485.7031,570.0879 Q486.0938,569.9316 486.5156,569.4941 Q486.7813,569.2285 486.9219,569.1504 Q487.0781,569.0723 487.2813,569.0723 Q487.6094,569.0723 487.8594,569.3379 Q488.125,569.5879 488.125,569.9316 Q488.125,570.2754 487.7813,570.6816 Q487.2813,571.2598 486.4844,571.5879 Q485.4063,572.041 484.1094,572.041 Q482.5938,572.041 481.3906,571.416 Q480.4063,570.916 479.7188,569.8535 Q479.0313,568.7754 479.0313,567.4941 L479.0313,566.3379 Q479.0313,565.0098 479.6406,563.8691 Q480.2656,562.7129 481.3594,562.1035 Q482.4531,561.4785 483.6875,561.4785 Q484.4219,561.4785 485.0625,561.6504 Q485.7188,561.8066 486.2656,562.166 Z " fill="#000000"/><text fill="#000000" font-family="sans-serif" font-size="12" font-style="italic" lengthAdjust="spacing" textLength="46" x="537" y="561.9492">&#171;Value&#187;</text><text fill="#000000" font-family="sans-serif" font-size="14" lengthAdjust="spacing" textLength="125" x="497.5" y="580.0684">InterviewModelType</text><line style="stroke:#181818;stroke-width:0.5;" x1="469.5" x2="624.5" y1="588.582" y2="588.582"/><line style="stroke:#181818;stroke-width:0.5;" x1="469.5" x2="624.5" y1="596.582" y2="596.582"/></g><!--class Interview--><g id="elem_Interview"><rect codeLine="17" fill="#F1F1F1" height="76.543" id="Interview" rx="2.5" ry="2.5" style="stroke:#181818;stroke-width:0.5;" width="87" x="237.5" y="209"/><ellipse cx="252.5" cy="239.2715" fill="#ADD1B2" rx="11" ry="11" style="stroke:#181818;stroke-width:1.0;"/><path d="M251.3594,240.0684 L251.3594,242.5684 L255.6875,242.5684 L255.6875,241.6465 Q255.6875,241.0371 255.9219,240.7715 Q256.1719,240.5059 256.5469,240.5059 Q256.9219,240.5059 257.1563,240.7715 Q257.3906,241.0371 257.3906,241.6465 L257.3906,244.2715 L249.3906,244.2715 Q248.7656,244.2715 248.5,244.0371 Q248.25,243.8027 248.25,243.4121 Q248.25,243.0371 248.5156,242.8027 Q248.7813,242.5684 249.3906,242.5684 L249.6563,242.5684 L249.6563,235.9121 L249.3906,235.9121 Q248.7656,235.9121 248.5,235.6777 Q248.25,235.4434 248.25,235.0527 Q248.25,234.6777 248.5,234.4434 Q248.7656,234.209 249.3906,234.209 L257.0156,234.209 L257.0156,236.8027 Q257.0156,237.4121 256.7813,237.6777 Q256.5625,237.9277 256.1719,237.9277 Q255.7969,237.9277 255.5625,237.6777 Q255.3281,237.4121 255.3281,236.8027 L255.3281,235.9121 L251.3594,235.9121 L251.3594,238.3652 L252.8438,238.3652 Q252.8438,237.709 252.9688,237.5215 Q253.2344,237.1152 253.7031,237.1152 Q254.0781,237.1152 254.3125,237.3809 Q254.5469,237.6309 254.5469,238.2402 L254.5469,240.209 Q254.5469,240.7559 254.4219,240.9434 Q254.1563,241.334 253.7031,241.334 Q253.2344,241.334 252.9688,240.9277 Q252.8438,240.7402 252.8438,240.0684 L251.3594,240.0684 Z " fill="#000000"/><text fill="#000000" font-family="sans-serif" font-size="12" font-style="italic" lengthAdjust="spacing" textLength="35" x="276.5" y="226.9492">&#171;root&#187;</text><text fill="#000000" font-family="sans-serif" font-size="12" font-style="italic" lengthAdjust="spacing" textLength="43" x="272.5" y="242.9102">&#171;entity&#187;</text><text fill="#000000" font-family="sans-serif" font-size="14" lengthAdjust="spacing" textLength="55" x="266.5" y="261.0293">Interview</text><line style="stroke:#181818;stroke-width:0.5;" x1="238.5" x2="323.5" y1="269.543" y2="269.543"/><line style="stroke:#181818;stroke-width:0.5;" x1="238.5" x2="323.5" y1="277.543" y2="277.543"/></g><!--class InterviewForms--><g id="elem_InterviewForms"><rect codeLine="21" fill="#F1F1F1" height="60.582" id="InterviewForms" rx="2.5" ry="2.5" style="stroke:#181818;stroke-width:0.5;" width="127" x="23.5" y="396"/><ellipse cx="38.5" cy="418.291" fill="#ADD1B2" rx="11" ry="11" style="stroke:#181818;stroke-width:1.0;"/><path d="M41.2656,414.166 Q41.4219,413.9473 41.6094,413.8379 Q41.7969,413.7285 42.0156,413.7285 Q42.3906,413.7285 42.625,413.9941 Q42.8594,414.2441 42.8594,414.8535 L42.8594,416.3066 Q42.8594,416.916 42.625,417.1816 Q42.3906,417.4473 42.0156,417.4473 Q41.6719,417.4473 41.4688,417.2441 Q41.2656,417.0566 41.1563,416.541 Q41.1094,416.1816 40.9219,415.9941 Q40.5938,415.6191 39.9844,415.4004 Q39.375,415.1816 38.75,415.1816 Q37.9844,415.1816 37.3438,415.5098 Q36.7188,415.8379 36.2188,416.5879 Q35.7344,417.3379 35.7344,418.3691 L35.7344,419.4629 Q35.7344,420.6973 36.625,421.5254 Q37.5156,422.3379 39.1094,422.3379 Q40.0469,422.3379 40.7031,422.0879 Q41.0938,421.9316 41.5156,421.4941 Q41.7813,421.2285 41.9219,421.1504 Q42.0781,421.0723 42.2813,421.0723 Q42.6094,421.0723 42.8594,421.3379 Q43.125,421.5879 43.125,421.9316 Q43.125,422.2754 42.7813,422.6816 Q42.2813,423.2598 41.4844,423.5879 Q40.4063,424.041 39.1094,424.041 Q37.5938,424.041 36.3906,423.416 Q35.4063,422.916 34.7188,421.8535 Q34.0313,420.7754 34.0313,419.4941 L34.0313,418.3379 Q34.0313,417.0098 34.6406,415.8691 Q35.2656,414.7129 36.3594,414.1035 Q37.4531,413.4785 38.6875,413.4785 Q39.4219,413.4785 40.0625,413.6504 Q40.7188,413.8066 41.2656,414.166 Z " fill="#000000"/><text fill="#000000" font-family="sans-serif" font-size="12" font-style="italic" lengthAdjust="spacing" textLength="46" x="77" y="413.9492">&#171;Value&#187;</text><text fill="#000000" font-family="sans-serif" font-size="14" lengthAdjust="spacing" textLength="95" x="52.5" y="432.0684">InterviewForms</text><line style="stroke:#181818;stroke-width:0.5;" x1="24.5" x2="149.5" y1="440.582" y2="440.582"/><line style="stroke:#181818;stroke-width:0.5;" x1="24.5" x2="149.5" y1="448.582" y2="448.582"/></g><!--class InterviewDate--><g id="elem_InterviewDate"><rect codeLine="25" fill="#F1F1F1" height="60.582" id="InterviewDate" rx="2.5" ry="2.5" style="stroke:#181818;stroke-width:0.5;" width="117" x="185.5" y="396"/><ellipse cx="200.5" cy="418.291" fill="#ADD1B2" rx="11" ry="11" style="stroke:#181818;stroke-width:1.0;"/><path d="M203.2656,414.166 Q203.4219,413.9473 203.6094,413.8379 Q203.7969,413.7285 204.0156,413.7285 Q204.3906,413.7285 204.625,413.9941 Q204.8594,414.2441 204.8594,414.8535 L204.8594,416.3066 Q204.8594,416.916 204.625,417.1816 Q204.3906,417.4473 204.0156,417.4473 Q203.6719,417.4473 203.4688,417.2441 Q203.2656,417.0566 203.1563,416.541 Q203.1094,416.1816 202.9219,415.9941 Q202.5938,415.6191 201.9844,415.4004 Q201.375,415.1816 200.75,415.1816 Q199.9844,415.1816 199.3438,415.5098 Q198.7188,415.8379 198.2188,416.5879 Q197.7344,417.3379 197.7344,418.3691 L197.7344,419.4629 Q197.7344,420.6973 198.625,421.5254 Q199.5156,422.3379 201.1094,422.3379 Q202.0469,422.3379 202.7031,422.0879 Q203.0938,421.9316 203.5156,421.4941 Q203.7813,421.2285 203.9219,421.1504 Q204.0781,421.0723 204.2813,421.0723 Q204.6094,421.0723 204.8594,421.3379 Q205.125,421.5879 205.125,421.9316 Q205.125,422.2754 204.7813,422.6816 Q204.2813,423.2598 203.4844,423.5879 Q202.4063,424.041 201.1094,424.041 Q199.5938,424.041 198.3906,423.416 Q197.4063,422.916 196.7188,421.8535 Q196.0313,420.7754 196.0313,419.4941 L196.0313,418.3379 Q196.0313,417.0098 196.6406,415.8691 Q197.2656,414.7129 198.3594,414.1035 Q199.4531,413.4785 200.6875,413.4785 Q201.4219,413.4785 202.0625,413.6504 Q202.7188,413.8066 203.2656,414.166 Z " fill="#000000"/><text fill="#000000" font-family="sans-serif" font-size="12" font-style="italic" lengthAdjust="spacing" textLength="46" x="234" y="413.9492">&#171;Value&#187;</text><text fill="#000000" font-family="sans-serif" font-size="14" lengthAdjust="spacing" textLength="85" x="214.5" y="432.0684">InterviewDate</text><line style="stroke:#181818;stroke-width:0.5;" x1="186.5" x2="301.5" y1="440.582" y2="440.582"/><line style="stroke:#181818;stroke-width:0.5;" x1="186.5" x2="301.5" y1="448.582" y2="448.582"/></g><!--class Score--><g id="elem_Score"><rect codeLine="29" fill="#F1F1F1" height="60.582" id="Score" rx="2.5" ry="2.5" style="stroke:#181818;stroke-width:0.5;" width="74" x="338" y="396"/><ellipse cx="353" cy="418.291" fill="#ADD1B2" rx="11" ry="11" style="stroke:#181818;stroke-width:1.0;"/><path d="M355.7656,414.166 Q355.9219,413.9473 356.1094,413.8379 Q356.2969,413.7285 356.5156,413.7285 Q356.8906,413.7285 357.125,413.9941 Q357.3594,414.2441 357.3594,414.8535 L357.3594,416.3066 Q357.3594,416.916 357.125,417.1816 Q356.8906,417.4473 356.5156,417.4473 Q356.1719,417.4473 355.9688,417.2441 Q355.7656,417.0566 355.6563,416.541 Q355.6094,416.1816 355.4219,415.9941 Q355.0938,415.6191 354.4844,415.4004 Q353.875,415.1816 353.25,415.1816 Q352.4844,415.1816 351.8438,415.5098 Q351.2188,415.8379 350.7188,416.5879 Q350.2344,417.3379 350.2344,418.3691 L350.2344,419.4629 Q350.2344,420.6973 351.125,421.5254 Q352.0156,422.3379 353.6094,422.3379 Q354.5469,422.3379 355.2031,422.0879 Q355.5938,421.9316 356.0156,421.4941 Q356.2813,421.2285 356.4219,421.1504 Q356.5781,421.0723 356.7813,421.0723 Q357.1094,421.0723 357.3594,421.3379 Q357.625,421.5879 357.625,421.9316 Q357.625,422.2754 357.2813,422.6816 Q356.7813,423.2598 355.9844,423.5879 Q354.9063,424.041 353.6094,424.041 Q352.0938,424.041 350.8906,423.416 Q349.9063,422.916 349.2188,421.8535 Q348.5313,420.7754 348.5313,419.4941 L348.5313,418.3379 Q348.5313,417.0098 349.1406,415.8691 Q349.7656,414.7129 350.8594,414.1035 Q351.9531,413.4785 353.1875,413.4785 Q353.9219,413.4785 354.5625,413.6504 Q355.2188,413.8066 355.7656,414.166 Z " fill="#000000"/><text fill="#000000" font-family="sans-serif" font-size="12" font-style="italic" lengthAdjust="spacing" textLength="46" x="365" y="413.9492">&#171;Value&#187;</text><text fill="#000000" font-family="sans-serif" font-size="14" lengthAdjust="spacing" textLength="37" x="369.5" y="432.0684">Score</text><line style="stroke:#181818;stroke-width:0.5;" x1="339" x2="411" y1="440.582" y2="440.582"/><line style="stroke:#181818;stroke-width:0.5;" x1="339" x2="411" y1="448.582" y2="448.582"/></g><!--class ANTLRValidator--><g id="elem_ANTLRValidator"><rect codeLine="35" fill="#F1F1F1" height="60.582" id="ANTLRValidator" rx="2.5" ry="2.5" style="stroke:#181818;stroke-width:0.5;" width="133" x="123.5" y="44"/><ellipse cx="138.5" cy="66.291" fill="#ADD1B2" rx="11" ry="11" style="stroke:#181818;stroke-width:1.0;"/><path d="M137.3594,67.0879 L137.3594,69.5879 L141.6875,69.5879 L141.6875,68.666 Q141.6875,68.0566 141.9219,67.791 Q142.1719,67.5254 142.5469,67.5254 Q142.9219,67.5254 143.1563,67.791 Q143.3906,68.0566 143.3906,68.666 L143.3906,71.291 L135.3906,71.291 Q134.7656,71.291 134.5,71.0566 Q134.25,70.8223 134.25,70.4316 Q134.25,70.0566 134.5156,69.8223 Q134.7813,69.5879 135.3906,69.5879 L135.6563,69.5879 L135.6563,62.9316 L135.3906,62.9316 Q134.7656,62.9316 134.5,62.6973 Q134.25,62.4629 134.25,62.0723 Q134.25,61.6973 134.5,61.4629 Q134.7656,61.2285 135.3906,61.2285 L143.0156,61.2285 L143.0156,63.8223 Q143.0156,64.4316 142.7813,64.6973 Q142.5625,64.9473 142.1719,64.9473 Q141.7969,64.9473 141.5625,64.6973 Q141.3281,64.4316 141.3281,63.8223 L141.3281,62.9316 L137.3594,62.9316 L137.3594,65.3848 L138.8438,65.3848 Q138.8438,64.7285 138.9688,64.541 Q139.2344,64.1348 139.7031,64.1348 Q140.0781,64.1348 140.3125,64.4004 Q140.5469,64.6504 140.5469,65.2598 L140.5469,67.2285 Q140.5469,67.7754 140.4219,67.9629 Q140.1563,68.3535 139.7031,68.3535 Q139.2344,68.3535 138.9688,67.9473 Q138.8438,67.7598 138.8438,67.0879 L137.3594,67.0879 Z " fill="#000000"/><text fill="#000000" font-family="sans-serif" font-size="12" font-style="italic" lengthAdjust="spacing" textLength="53" x="176.5" y="61.9492">&#171;service&#187;</text><text fill="#000000" font-family="sans-serif" font-size="14" lengthAdjust="spacing" textLength="101" x="152.5" y="80.0684">ANTLRValidator</text><line style="stroke:#181818;stroke-width:0.5;" x1="124.5" x2="255.5" y1="88.582" y2="88.582"/><line style="stroke:#181818;stroke-width:0.5;" x1="124.5" x2="255.5" y1="96.582" y2="96.582"/></g><!--class Ranking--><g id="elem_Ranking"><rect codeLine="41" fill="#F1F1F1" height="60.582" id="Ranking" rx="2.5" ry="2.5" style="stroke:#181818;stroke-width:0.5;" width="84" x="313" y="44"/><ellipse cx="328" cy="66.291" fill="#ADD1B2" rx="11" ry="11" style="stroke:#181818;stroke-width:1.0;"/><path d="M326.8594,67.0879 L326.8594,69.5879 L331.1875,69.5879 L331.1875,68.666 Q331.1875,68.0566 331.4219,67.791 Q331.6719,67.5254 332.0469,67.5254 Q332.4219,67.5254 332.6563,67.791 Q332.8906,68.0566 332.8906,68.666 L332.8906,71.291 L324.8906,71.291 Q324.2656,71.291 324,71.0566 Q323.75,70.8223 323.75,70.4316 Q323.75,70.0566 324.0156,69.8223 Q324.2813,69.5879 324.8906,69.5879 L325.1563,69.5879 L325.1563,62.9316 L324.8906,62.9316 Q324.2656,62.9316 324,62.6973 Q323.75,62.4629 323.75,62.0723 Q323.75,61.6973 324,61.4629 Q324.2656,61.2285 324.8906,61.2285 L332.5156,61.2285 L332.5156,63.8223 Q332.5156,64.4316 332.2813,64.6973 Q332.0625,64.9473 331.6719,64.9473 Q331.2969,64.9473 331.0625,64.6973 Q330.8281,64.4316 330.8281,63.8223 L330.8281,62.9316 L326.8594,62.9316 L326.8594,65.3848 L328.3438,65.3848 Q328.3438,64.7285 328.4688,64.541 Q328.7344,64.1348 329.2031,64.1348 Q329.5781,64.1348 329.8125,64.4004 Q330.0469,64.6504 330.0469,65.2598 L330.0469,67.2285 Q330.0469,67.7754 329.9219,67.9629 Q329.6563,68.3535 329.2031,68.3535 Q328.7344,68.3535 328.4688,67.9473 Q328.3438,67.7598 328.3438,67.0879 L326.8594,67.0879 Z " fill="#000000"/><text fill="#000000" font-family="sans-serif" font-size="12" font-style="italic" lengthAdjust="spacing" textLength="53" x="341.5" y="61.9492">&#171;service&#187;</text><text fill="#000000" font-family="sans-serif" font-size="14" lengthAdjust="spacing" textLength="52" x="342" y="80.0684">Ranking</text><line style="stroke:#181818;stroke-width:0.5;" x1="314" x2="396" y1="88.582" y2="88.582"/><line style="stroke:#181818;stroke-width:0.5;" x1="314" x2="396" y1="96.582" y2="96.582"/></g><!--link Interview to Score--><g id="link_Interview_Score"><path codeLine="46" d="M300.93,286.04 C317.46,317.15 340.75,361.01 356.78,391.19 " fill="none" id="Interview-to-Score" style="stroke:#181818;stroke-width:1.0;"/><polygon fill="#181818" points="359.29,395.92,358.6039,386.0951,356.946,391.5035,351.5375,389.8455,359.29,395.92" style="stroke:#181818;stroke-width:1.0;"/><text fill="#000000" font-family="sans-serif" font-size="13" lengthAdjust="spacing" textLength="57" x="326" y="331.0283">generates</text><text fill="#000000" font-family="sans-serif" font-size="13" lengthAdjust="spacing" textLength="7" x="296.5485" y="307.6249">1</text><text fill="#000000" font-family="sans-serif" font-size="13" lengthAdjust="spacing" textLength="7" x="348.3279" y="384.9612">1</text></g><!--link Interview to InterviewForms--><g id="link_Interview_InterviewForms"><path codeLine="47" d="M237.49,283.21 C216.13,300.67 190.27,322.44 168,343 C151.14,358.57 133.19,376.68 118.48,391.96 " fill="none" id="Interview-to-InterviewForms" style="stroke:#181818;stroke-width:1.0;"/><polygon fill="#181818" points="114.81,395.78,123.9293,392.0599,118.2735,392.1739,118.1595,386.5182,114.81,395.78" style="stroke:#181818;stroke-width:1.0;"/><text fill="#000000" font-family="sans-serif" font-size="13" lengthAdjust="spacing" textLength="7" x="222.4102" y="284.9793">1</text><text fill="#000000" font-family="sans-serif" font-size="13" lengthAdjust="spacing" textLength="7" x="112.8239" y="384.7923">1</text></g><!--link Interview to InterviewDate--><g id="link_Interview_InterviewDate"><path codeLine="48" d="M273.15,286.04 C266.68,317.02 257.56,360.65 251.25,390.82 " fill="none" id="Interview-to-InterviewDate" style="stroke:#181818;stroke-width:1.0;"/><polygon fill="#181818" points="250.18,395.92,255.9213,387.9176,251.1935,391.0238,248.0873,386.296,250.18,395.92" style="stroke:#181818;stroke-width:1.0;"/><text fill="#000000" font-family="sans-serif" font-size="13" lengthAdjust="spacing" textLength="7" x="264.3411" y="307.6249">1</text><text fill="#000000" font-family="sans-serif" font-size="13" lengthAdjust="spacing" textLength="7" x="243.7328" y="384.9612">1</text></g><!--link InterviewModel to InterviewModelType--><g id="link_InterviewModel_InterviewModelType"><path codeLine="50" d="M541.06,465.1 C542.3,487.78 543.88,516.48 545.09,538.65 " fill="none" id="InterviewModel-to-InterviewModelType" style="stroke:#181818;stroke-width:1.0;"/><polygon fill="#181818" points="545.38,543.85,548.86,534.6365,545.0948,538.8581,540.8731,535.0929,545.38,543.85" style="stroke:#181818;stroke-width:1.0;"/><text fill="#000000" font-family="sans-serif" font-size="13" lengthAdjust="spacing" textLength="21" x="544" y="510.0283">has</text><text fill="#000000" font-family="sans-serif" font-size="13" lengthAdjust="spacing" textLength="7" x="533.8305" y="486.6945">1</text><text fill="#000000" font-family="sans-serif" font-size="13" lengthAdjust="spacing" textLength="7" x="537.324" y="532.8767">1</text></g><!--link Interview to InterviewModel--><g id="link_Interview_InterviewModel"><path codeLine="51" d="M324.55,273.7 C345.27,286.01 370.21,301.31 392,316 C424.19,337.71 459.08,363.59 486.79,384.75 " fill="none" id="Interview-to-InterviewModel" style="stroke:#181818;stroke-width:1.0;"/><polygon fill="#181818" points="490.83,387.83,486.1187,379.1811,486.861,384.789,481.2531,385.5314,490.83,387.83" style="stroke:#181818;stroke-width:1.0;"/><text fill="#000000" font-family="sans-serif" font-size="13" lengthAdjust="spacing" textLength="39" x="417" y="331.0283">follows</text><text fill="#000000" font-family="sans-serif" font-size="13" lengthAdjust="spacing" textLength="7" x="332.6367" y="273.8348">1</text><text fill="#000000" font-family="sans-serif" font-size="13" lengthAdjust="spacing" textLength="7" x="474.9492" y="376.8153">1</text></g><!--link ANTLRValidator to Interview--><g id="link_ANTLRValidator_Interview"><path codeLine="53" d="M205.85,105.29 C220.46,132.74 242.29,173.76 258.67,204.53 " fill="none" id="ANTLRValidator-to-Interview" style="stroke:#181818;stroke-width:1.0;"/><polygon fill="#181818" points="261.04,208.99,260.3539,199.1651,258.696,204.5735,253.2875,202.9155,261.04,208.99" style="stroke:#181818;stroke-width:1.0;"/><text fill="#000000" font-family="sans-serif" font-size="13" lengthAdjust="spacing" textLength="50" x="233" y="152.0283">validates</text></g><!--link Ranking to Interview--><g id="link_Ranking_Interview"><path codeLine="55" d="M342.11,105.29 C330.28,132.63 312.62,173.43 299.33,204.15 " fill="none" id="Ranking-to-Interview" style="stroke:#181818;stroke-width:1.0;"/><polygon fill="#181818" points="297.23,208.99,304.4769,202.3205,299.2168,204.4017,297.1357,199.1416,297.23,208.99" style="stroke:#181818;stroke-width:1.0;"/><text fill="#000000" font-family="sans-serif" font-size="13" lengthAdjust="spacing" textLength="32" x="327" y="152.0283">ranks</text></g><!--SRC=[XP8nQyCm48Nt-nL75ayPkXfZ29H2eSqGX-x2kQecYcGaDS4O__TAjbBRgjqiij5zUk_TIUPSoPffTi6QbMV6gR2D8DHKMYQv8018NgKbVQtezgvE97QSQ-BC4eGJk5B75aZQoZOHa6LQAPldc6L3tVssq06KWXaJmSUc9WT-CF5DUTvsdfia-YVCD0SWnb5m8KOFTdw9ehmeVJ5Z35m5dxtVEbUKIi_hljm3YTkhJinMIXPUgwInDxnV3lw1UWdyRM-tFxuT0gIqSp835hpGsuL4c1oOTBVF5-n6mpaJH89Pg2suT6456EUzUThWTfltts4EANAIf9sbMU7c5_08yiEVEFRlPvaSdrQAN-oXyA2KugSIGjqCG3HcVs2KIF4wL5nRS9zHZ6YtR-07]--></g></svg>