<?xml version="1.0" encoding="us-ascii" standalone="no"?><svg xmlns="http://www.w3.org/2000/svg" xmlns:xlink="http://www.w3.org/1999/xlink" contentStyleType="text/css" height="855px" preserveAspectRatio="none" style="width:2532px;height:855px;background:#FFFFFF;" version="1.1" viewBox="0 0 2532 855" width="2532px" zoomAndPan="magnify"><defs/><g><!--class RankCandidateUI--><g id="elem_RankCandidateUI"><rect codeLine="1" fill="#F1F1F1" height="97.8242" id="RankCandidateUI" rx="2.5" ry="2.5" style="stroke:#181818;stroke-width:0.5;" width="145" x="1067" y="7"/><ellipse cx="1083.35" cy="29.291" fill="#ADD1B2" rx="11" ry="11" style="stroke:#181818;stroke-width:1.0;"/><path d="M1086.1156,25.166 Q1086.2719,24.9473 1086.4594,24.8379 Q1086.6469,24.7285 1086.8656,24.7285 Q1087.2406,24.7285 1087.475,24.9941 Q1087.7094,25.2441 1087.7094,25.8535 L1087.7094,27.3066 Q1087.7094,27.916 1087.475,28.1816 Q1087.2406,28.4473 1086.8656,28.4473 Q1086.5219,28.4473 1086.3188,28.2441 Q1086.1156,28.0566 1086.0063,27.541 Q1085.9594,27.1816 1085.7719,26.9941 Q1085.4438,26.6191 1084.8344,26.4004 Q1084.225,26.1816 1083.6,26.1816 Q1082.8344,26.1816 1082.1938,26.5098 Q1081.5688,26.8379 1081.0688,27.5879 Q1080.5844,28.3379 1080.5844,29.3691 L1080.5844,30.4629 Q1080.5844,31.6973 1081.475,32.5254 Q1082.3656,33.3379 1083.9594,33.3379 Q1084.8969,33.3379 1085.5531,33.0879 Q1085.9438,32.9316 1086.3656,32.4941 Q1086.6313,32.2285 1086.7719,32.1504 Q1086.9281,32.0723 1087.1313,32.0723 Q1087.4594,32.0723 1087.7094,32.3379 Q1087.975,32.5879 1087.975,32.9316 Q1087.975,33.2754 1087.6313,33.6816 Q1087.1313,34.2598 1086.3344,34.5879 Q1085.2563,35.041 1083.9594,35.041 Q1082.4438,35.041 1081.2406,34.416 Q1080.2563,33.916 1079.5688,32.8535 Q1078.8813,31.7754 1078.8813,30.4941 L1078.8813,29.3379 Q1078.8813,28.0098 1079.4906,26.8691 Q1080.1156,25.7129 1081.2094,25.1035 Q1082.3031,24.4785 1083.5375,24.4785 Q1084.2719,24.4785 1084.9125,24.6504 Q1085.5688,24.8066 1086.1156,25.166 Z " fill="#000000"/><text fill="#000000" font-family="sans-serif" font-size="12" font-style="italic" lengthAdjust="spacing" textLength="82" x="1111.65" y="24.9492">&#171;presentation&#187;</text><text fill="#000000" font-family="sans-serif" font-size="14" lengthAdjust="spacing" textLength="110" x="1097.65" y="43.0684">RankCandidateUI</text><line style="stroke:#181818;stroke-width:0.5;" x1="1068" x2="1211" y1="51.582" y2="51.582"/><line style="stroke:#181818;stroke-width:0.5;" x1="1068" x2="1211" y1="59.582" y2="59.582"/><ellipse cx="1078" cy="74.3926" fill="#84BE84" rx="3" ry="3" style="stroke:#038048;stroke-width:1.0;"/><text fill="#000000" font-family="sans-serif" font-size="14" lengthAdjust="spacing" textLength="109" x="1087" y="78.6895">headline(): String</text><ellipse cx="1078" cy="93.0137" fill="#84BE84" rx="3" ry="3" style="stroke:#038048;stroke-width:1.0;"/><text fill="#000000" font-family="sans-serif" font-size="14" lengthAdjust="spacing" textLength="119" x="1087" y="97.3105">doShow(): boolean</text></g><!--class RankCandidateController--><g id="elem_RankCandidateController"><rect codeLine="6" fill="#F1F1F1" height="153.6875" id="RankCandidateController" rx="2.5" ry="2.5" style="stroke:#181818;stroke-width:0.5;" width="588" x="845.5" y="184"/><ellipse cx="1055.25" cy="206.291" fill="#ADD1B2" rx="11" ry="11" style="stroke:#181818;stroke-width:1.0;"/><path d="M1058.0156,202.166 Q1058.1719,201.9473 1058.3594,201.8379 Q1058.5469,201.7285 1058.7656,201.7285 Q1059.1406,201.7285 1059.375,201.9941 Q1059.6094,202.2441 1059.6094,202.8535 L1059.6094,204.3066 Q1059.6094,204.916 1059.375,205.1816 Q1059.1406,205.4473 1058.7656,205.4473 Q1058.4219,205.4473 1058.2188,205.2441 Q1058.0156,205.0566 1057.9063,204.541 Q1057.8594,204.1816 1057.6719,203.9941 Q1057.3438,203.6191 1056.7344,203.4004 Q1056.125,203.1816 1055.5,203.1816 Q1054.7344,203.1816 1054.0938,203.5098 Q1053.4688,203.8379 1052.9688,204.5879 Q1052.4844,205.3379 1052.4844,206.3691 L1052.4844,207.4629 Q1052.4844,208.6973 1053.375,209.5254 Q1054.2656,210.3379 1055.8594,210.3379 Q1056.7969,210.3379 1057.4531,210.0879 Q1057.8438,209.9316 1058.2656,209.4941 Q1058.5313,209.2285 1058.6719,209.1504 Q1058.8281,209.0723 1059.0313,209.0723 Q1059.3594,209.0723 1059.6094,209.3379 Q1059.875,209.5879 1059.875,209.9316 Q1059.875,210.2754 1059.5313,210.6816 Q1059.0313,211.2598 1058.2344,211.5879 Q1057.1563,212.041 1055.8594,212.041 Q1054.3438,212.041 1053.1406,211.416 Q1052.1563,210.916 1051.4688,209.8535 Q1050.7813,208.7754 1050.7813,207.4941 L1050.7813,206.3379 Q1050.7813,205.0098 1051.3906,203.8691 Q1052.0156,202.7129 1053.1094,202.1035 Q1054.2031,201.4785 1055.4375,201.4785 Q1056.1719,201.4785 1056.8125,201.6504 Q1057.4688,201.8066 1058.0156,202.166 Z " fill="#000000"/><text fill="#000000" font-family="sans-serif" font-size="12" font-style="italic" lengthAdjust="spacing" textLength="74" x="1118.75" y="201.9492">&#171;application&#187;</text><text fill="#000000" font-family="sans-serif" font-size="14" lengthAdjust="spacing" textLength="160" x="1075.75" y="220.0684">RankCandidateController</text><line style="stroke:#181818;stroke-width:0.5;" x1="846.5" x2="1432.5" y1="228.582" y2="228.582"/><line style="stroke:#181818;stroke-width:0.5;" x1="846.5" x2="1432.5" y1="236.582" y2="236.582"/><ellipse cx="856.5" cy="251.3926" fill="#84BE84" rx="3" ry="3" style="stroke:#038048;stroke-width:1.0;"/><text fill="#000000" font-family="sans-serif" font-size="14" lengthAdjust="spacing" textLength="287" x="865.5" y="255.6895">listAllJobOpenings(): Iterable&lt;JobApplication&gt;</text><ellipse cx="856.5" cy="270.0137" fill="#84BE84" rx="3" ry="3" style="stroke:#038048;stroke-width:1.0;"/><text fill="#000000" font-family="sans-serif" font-size="14" lengthAdjust="spacing" textLength="562" x="865.5" y="274.3105">findAllApplicationsByJobReference(jobReference: JobReference): Optional&lt;JobOpening&gt;</text><ellipse cx="856.5" cy="288.6348" fill="#84BE84" rx="3" ry="3" style="stroke:#038048;stroke-width:1.0;"/><text fill="#000000" font-family="sans-serif" font-size="14" lengthAdjust="spacing" textLength="477" x="865.5" y="292.9316">updateApplicationRank(application: JobApplication, position : Integer): Rank</text><ellipse cx="856.5" cy="307.2559" fill="#84BE84" rx="3" ry="3" style="stroke:#038048;stroke-width:1.0;"/><text fill="#000000" font-family="sans-serif" font-size="14" lengthAdjust="spacing" textLength="530" x="865.5" y="311.5527">markAsUnrankedRemainingApplications(applicationList : List&lt;JobApplication&gt;) : void</text><ellipse cx="856.5" cy="325.877" fill="#84BE84" rx="3" ry="3" style="stroke:#038048;stroke-width:1.0;"/><text fill="#000000" font-family="sans-serif" font-size="14" lengthAdjust="spacing" textLength="430" x="865.5" y="330.1738">verifyIsInAnalysisPhase(jobReference : String) : JobOpeningProcess</text></g><!--class AuthorizationService--><g id="elem_AuthorizationService"><rect codeLine="15" fill="#F1F1F1" height="79.2031" id="AuthorizationService" rx="2.5" ry="2.5" style="stroke:#181818;stroke-width:0.5;" width="369" x="7" y="420"/><ellipse cx="122.75" cy="442.291" fill="#ADD1B2" rx="11" ry="11" style="stroke:#181818;stroke-width:1.0;"/><path d="M125.5156,438.166 Q125.6719,437.9473 125.8594,437.8379 Q126.0469,437.7285 126.2656,437.7285 Q126.6406,437.7285 126.875,437.9941 Q127.1094,438.2441 127.1094,438.8535 L127.1094,440.3066 Q127.1094,440.916 126.875,441.1816 Q126.6406,441.4473 126.2656,441.4473 Q125.9219,441.4473 125.7188,441.2441 Q125.5156,441.0566 125.4063,440.541 Q125.3594,440.1816 125.1719,439.9941 Q124.8438,439.6191 124.2344,439.4004 Q123.625,439.1816 123,439.1816 Q122.2344,439.1816 121.5938,439.5098 Q120.9688,439.8379 120.4688,440.5879 Q119.9844,441.3379 119.9844,442.3691 L119.9844,443.4629 Q119.9844,444.6973 120.875,445.5254 Q121.7656,446.3379 123.3594,446.3379 Q124.2969,446.3379 124.9531,446.0879 Q125.3438,445.9316 125.7656,445.4941 Q126.0313,445.2285 126.1719,445.1504 Q126.3281,445.0723 126.5313,445.0723 Q126.8594,445.0723 127.1094,445.3379 Q127.375,445.5879 127.375,445.9316 Q127.375,446.2754 127.0313,446.6816 Q126.5313,447.2598 125.7344,447.5879 Q124.6563,448.041 123.3594,448.041 Q121.8438,448.041 120.6406,447.416 Q119.6563,446.916 118.9688,445.8535 Q118.2813,444.7754 118.2813,443.4941 L118.2813,442.3379 Q118.2813,441.0098 118.8906,439.8691 Q119.5156,438.7129 120.6094,438.1035 Q121.7031,437.4785 122.9375,437.4785 Q123.6719,437.4785 124.3125,437.6504 Q124.9688,437.8066 125.5156,438.166 Z " fill="#000000"/><text fill="#000000" font-family="sans-serif" font-size="12" font-style="italic" lengthAdjust="spacing" textLength="53" x="181.25" y="437.9492">&#171;service&#187;</text><text fill="#000000" font-family="sans-serif" font-size="14" lengthAdjust="spacing" textLength="129" x="143.25" y="456.0684">AuthorizationService</text><line style="stroke:#181818;stroke-width:0.5;" x1="8" x2="375" y1="464.582" y2="464.582"/><line style="stroke:#181818;stroke-width:0.5;" x1="8" x2="375" y1="472.582" y2="472.582"/><ellipse cx="18" cy="487.3926" fill="#84BE84" rx="3" ry="3" style="stroke:#038048;stroke-width:1.0;"/><text fill="#000000" font-family="sans-serif" font-size="14" lengthAdjust="spacing" textLength="343" x="27" y="491.6895">ensureAuthenticatedUserHasAnyOf(roles: Role[]): void</text></g><!--class JobApplicationService--><g id="elem_JobApplicationService"><rect codeLine="19" fill="#F1F1F1" height="79.2031" id="JobApplicationService" rx="2.5" ry="2.5" style="stroke:#181818;stroke-width:0.5;" width="436" x="411.5" y="420"/><ellipse cx="556.25" cy="442.291" fill="#ADD1B2" rx="11" ry="11" style="stroke:#181818;stroke-width:1.0;"/><path d="M559.0156,438.166 Q559.1719,437.9473 559.3594,437.8379 Q559.5469,437.7285 559.7656,437.7285 Q560.1406,437.7285 560.375,437.9941 Q560.6094,438.2441 560.6094,438.8535 L560.6094,440.3066 Q560.6094,440.916 560.375,441.1816 Q560.1406,441.4473 559.7656,441.4473 Q559.4219,441.4473 559.2188,441.2441 Q559.0156,441.0566 558.9063,440.541 Q558.8594,440.1816 558.6719,439.9941 Q558.3438,439.6191 557.7344,439.4004 Q557.125,439.1816 556.5,439.1816 Q555.7344,439.1816 555.0938,439.5098 Q554.4688,439.8379 553.9688,440.5879 Q553.4844,441.3379 553.4844,442.3691 L553.4844,443.4629 Q553.4844,444.6973 554.375,445.5254 Q555.2656,446.3379 556.8594,446.3379 Q557.7969,446.3379 558.4531,446.0879 Q558.8438,445.9316 559.2656,445.4941 Q559.5313,445.2285 559.6719,445.1504 Q559.8281,445.0723 560.0313,445.0723 Q560.3594,445.0723 560.6094,445.3379 Q560.875,445.5879 560.875,445.9316 Q560.875,446.2754 560.5313,446.6816 Q560.0313,447.2598 559.2344,447.5879 Q558.1563,448.041 556.8594,448.041 Q555.3438,448.041 554.1406,447.416 Q553.1563,446.916 552.4688,445.8535 Q551.7813,444.7754 551.7813,443.4941 L551.7813,442.3379 Q551.7813,441.0098 552.3906,439.8691 Q553.0156,438.7129 554.1094,438.1035 Q555.2031,437.4785 556.4375,437.4785 Q557.1719,437.4785 557.8125,437.6504 Q558.4688,437.8066 559.0156,438.166 Z " fill="#000000"/><text fill="#000000" font-family="sans-serif" font-size="12" font-style="italic" lengthAdjust="spacing" textLength="53" x="619.25" y="437.9492">&#171;service&#187;</text><text fill="#000000" font-family="sans-serif" font-size="14" lengthAdjust="spacing" textLength="138" x="576.75" y="456.0684">JobApplicationService</text><line style="stroke:#181818;stroke-width:0.5;" x1="412.5" x2="846.5" y1="464.582" y2="464.582"/><line style="stroke:#181818;stroke-width:0.5;" x1="412.5" x2="846.5" y1="472.582" y2="472.582"/><ellipse cx="422.5" cy="487.3926" fill="#84BE84" rx="3" ry="3" style="stroke:#038048;stroke-width:1.0;"/><text fill="#000000" font-family="sans-serif" font-size="14" lengthAdjust="spacing" textLength="410" x="431.5" y="491.6895">listAllApplications(jobReference:String) : Iterable&lt;JobApplication&gt;</text></g><!--class JobOpeningService--><g id="elem_JobOpeningService"><rect codeLine="23" fill="#F1F1F1" height="79.2031" id="JobOpeningService" rx="2.5" ry="2.5" style="stroke:#181818;stroke-width:0.5;" width="291" x="883" y="420"/><ellipse cx="962.75" cy="442.291" fill="#ADD1B2" rx="11" ry="11" style="stroke:#181818;stroke-width:1.0;"/><path d="M965.5156,438.166 Q965.6719,437.9473 965.8594,437.8379 Q966.0469,437.7285 966.2656,437.7285 Q966.6406,437.7285 966.875,437.9941 Q967.1094,438.2441 967.1094,438.8535 L967.1094,440.3066 Q967.1094,440.916 966.875,441.1816 Q966.6406,441.4473 966.2656,441.4473 Q965.9219,441.4473 965.7188,441.2441 Q965.5156,441.0566 965.4063,440.541 Q965.3594,440.1816 965.1719,439.9941 Q964.8438,439.6191 964.2344,439.4004 Q963.625,439.1816 963,439.1816 Q962.2344,439.1816 961.5938,439.5098 Q960.9688,439.8379 960.4688,440.5879 Q959.9844,441.3379 959.9844,442.3691 L959.9844,443.4629 Q959.9844,444.6973 960.875,445.5254 Q961.7656,446.3379 963.3594,446.3379 Q964.2969,446.3379 964.9531,446.0879 Q965.3438,445.9316 965.7656,445.4941 Q966.0313,445.2285 966.1719,445.1504 Q966.3281,445.0723 966.5313,445.0723 Q966.8594,445.0723 967.1094,445.3379 Q967.375,445.5879 967.375,445.9316 Q967.375,446.2754 967.0313,446.6816 Q966.5313,447.2598 965.7344,447.5879 Q964.6563,448.041 963.3594,448.041 Q961.8438,448.041 960.6406,447.416 Q959.6563,446.916 958.9688,445.8535 Q958.2813,444.7754 958.2813,443.4941 L958.2813,442.3379 Q958.2813,441.0098 958.8906,439.8691 Q959.5156,438.7129 960.6094,438.1035 Q961.7031,437.4785 962.9375,437.4785 Q963.6719,437.4785 964.3125,437.6504 Q964.9688,437.8066 965.5156,438.166 Z " fill="#000000"/><text fill="#000000" font-family="sans-serif" font-size="12" font-style="italic" lengthAdjust="spacing" textLength="53" x="1018.25" y="437.9492">&#171;service&#187;</text><text fill="#000000" font-family="sans-serif" font-size="14" lengthAdjust="spacing" textLength="123" x="983.25" y="456.0684">JobOpeningService</text><line style="stroke:#181818;stroke-width:0.5;" x1="884" x2="1173" y1="464.582" y2="464.582"/><line style="stroke:#181818;stroke-width:0.5;" x1="884" x2="1173" y1="472.582" y2="472.582"/><ellipse cx="894" cy="487.3926" fill="#84BE84" rx="3" ry="3" style="stroke:#038048;stroke-width:1.0;"/><text fill="#000000" font-family="sans-serif" font-size="14" lengthAdjust="spacing" textLength="265" x="903" y="491.6895">listAlljobOpenings():Iterable&lt;JobOpening&gt;</text></g><!--class Rank--><g id="elem_Rank"><rect codeLine="27" fill="#F1F1F1" height="122.4844" id="Rank" rx="2.5" ry="2.5" style="stroke:#181818;stroke-width:0.5;" width="266" x="2002.5" y="581"/><ellipse cx="2114.75" cy="597" fill="#ADD1B2" rx="11" ry="11" style="stroke:#181818;stroke-width:1.0;"/><path d="M2117.5156,592.875 Q2117.6719,592.6563 2117.8594,592.5469 Q2118.0469,592.4375 2118.2656,592.4375 Q2118.6406,592.4375 2118.875,592.7031 Q2119.1094,592.9531 2119.1094,593.5625 L2119.1094,595.0156 Q2119.1094,595.625 2118.875,595.8906 Q2118.6406,596.1563 2118.2656,596.1563 Q2117.9219,596.1563 2117.7188,595.9531 Q2117.5156,595.7656 2117.4063,595.25 Q2117.3594,594.8906 2117.1719,594.7031 Q2116.8438,594.3281 2116.2344,594.1094 Q2115.625,593.8906 2115,593.8906 Q2114.2344,593.8906 2113.5938,594.2188 Q2112.9688,594.5469 2112.4688,595.2969 Q2111.9844,596.0469 2111.9844,597.0781 L2111.9844,598.1719 Q2111.9844,599.4063 2112.875,600.2344 Q2113.7656,601.0469 2115.3594,601.0469 Q2116.2969,601.0469 2116.9531,600.7969 Q2117.3438,600.6406 2117.7656,600.2031 Q2118.0313,599.9375 2118.1719,599.8594 Q2118.3281,599.7813 2118.5313,599.7813 Q2118.8594,599.7813 2119.1094,600.0469 Q2119.375,600.2969 2119.375,600.6406 Q2119.375,600.9844 2119.0313,601.3906 Q2118.5313,601.9688 2117.7344,602.2969 Q2116.6563,602.75 2115.3594,602.75 Q2113.8438,602.75 2112.6406,602.125 Q2111.6563,601.625 2110.9688,600.5625 Q2110.2813,599.4844 2110.2813,598.2031 L2110.2813,597.0469 Q2110.2813,595.7188 2110.8906,594.5781 Q2111.5156,593.4219 2112.6094,592.8125 Q2113.7031,592.1875 2114.9375,592.1875 Q2115.6719,592.1875 2116.3125,592.3594 Q2116.9688,592.5156 2117.5156,592.875 Z " fill="#000000"/><text fill="#000000" font-family="sans-serif" font-size="14" lengthAdjust="spacing" textLength="33" x="2135.25" y="602.7969">Rank</text><line style="stroke:#181818;stroke-width:0.5;" x1="2003.5" x2="2267.5" y1="613" y2="613"/><line style="stroke:#181818;stroke-width:0.5;" x1="2003.5" x2="2267.5" y1="621" y2="621"/><ellipse cx="2013.5" cy="635.8105" fill="#84BE84" rx="3" ry="3" style="stroke:#038048;stroke-width:1.0;"/><text fill="#000000" font-family="sans-serif" font-size="14" lengthAdjust="spacing" textLength="205" x="2022.5" y="640.1074">create(position : Integer)) : Rank</text><ellipse cx="2013.5" cy="654.4316" fill="#84BE84" rx="3" ry="3" style="stroke:#038048;stroke-width:1.0;"/><text fill="#000000" font-family="sans-serif" font-size="14" lengthAdjust="spacing" textLength="95" x="2022.5" y="658.7285">create() : Rank</text><ellipse cx="2013.5" cy="673.0527" fill="#84BE84" rx="3" ry="3" style="stroke:#038048;stroke-width:1.0;"/><text fill="#000000" font-family="sans-serif" font-size="14" lengthAdjust="spacing" textLength="240" x="2022.5" y="677.3496">setPosition(position : Integer) : Integer</text><ellipse cx="2013.5" cy="691.6738" fill="#84BE84" rx="3" ry="3" style="stroke:#038048;stroke-width:1.0;"/><text fill="#000000" font-family="sans-serif" font-size="14" lengthAdjust="spacing" textLength="87" x="2022.5" y="695.9707">rank () : Rank</text></g><!--class PersistenceContext--><g id="elem_PersistenceContext"><rect codeLine="34" fill="#F1F1F1" height="66.6211" id="PersistenceContext" rx="2.5" ry="2.5" style="stroke:#181818;stroke-width:0.5;" width="234" x="1209.5" y="426"/><ellipse cx="1261.25" cy="442" fill="#ADD1B2" rx="11" ry="11" style="stroke:#181818;stroke-width:1.0;"/><path d="M1264.0156,437.875 Q1264.1719,437.6563 1264.3594,437.5469 Q1264.5469,437.4375 1264.7656,437.4375 Q1265.1406,437.4375 1265.375,437.7031 Q1265.6094,437.9531 1265.6094,438.5625 L1265.6094,440.0156 Q1265.6094,440.625 1265.375,440.8906 Q1265.1406,441.1563 1264.7656,441.1563 Q1264.4219,441.1563 1264.2188,440.9531 Q1264.0156,440.7656 1263.9063,440.25 Q1263.8594,439.8906 1263.6719,439.7031 Q1263.3438,439.3281 1262.7344,439.1094 Q1262.125,438.8906 1261.5,438.8906 Q1260.7344,438.8906 1260.0938,439.2188 Q1259.4688,439.5469 1258.9688,440.2969 Q1258.4844,441.0469 1258.4844,442.0781 L1258.4844,443.1719 Q1258.4844,444.4063 1259.375,445.2344 Q1260.2656,446.0469 1261.8594,446.0469 Q1262.7969,446.0469 1263.4531,445.7969 Q1263.8438,445.6406 1264.2656,445.2031 Q1264.5313,444.9375 1264.6719,444.8594 Q1264.8281,444.7813 1265.0313,444.7813 Q1265.3594,444.7813 1265.6094,445.0469 Q1265.875,445.2969 1265.875,445.6406 Q1265.875,445.9844 1265.5313,446.3906 Q1265.0313,446.9688 1264.2344,447.2969 Q1263.1563,447.75 1261.8594,447.75 Q1260.3438,447.75 1259.1406,447.125 Q1258.1563,446.625 1257.4688,445.5625 Q1256.7813,444.4844 1256.7813,443.2031 L1256.7813,442.0469 Q1256.7813,440.7188 1257.3906,439.5781 Q1258.0156,438.4219 1259.1094,437.8125 Q1260.2031,437.1875 1261.4375,437.1875 Q1262.1719,437.1875 1262.8125,437.3594 Q1263.4688,437.5156 1264.0156,437.875 Z " fill="#000000"/><text fill="#000000" font-family="sans-serif" font-size="14" lengthAdjust="spacing" textLength="122" x="1281.75" y="447.7969">PersistenceContext</text><line style="stroke:#181818;stroke-width:0.5;" x1="1210.5" x2="1442.5" y1="458" y2="458"/><line style="stroke:#181818;stroke-width:0.5;" x1="1210.5" x2="1442.5" y1="466" y2="466"/><ellipse cx="1220.5" cy="480.8105" fill="#84BE84" rx="3" ry="3" style="stroke:#038048;stroke-width:1.0;"/><text fill="#000000" font-family="sans-serif" font-size="14" lengthAdjust="spacing" textLength="208" x="1229.5" y="485.1074">repositories(): RepositoryFactory</text></g><!--class RepositoryFactory--><g id="elem_RepositoryFactory"><rect codeLine="38" fill="#F1F1F1" height="122.4844" id="RepositoryFactory" rx="2.5" ry="2.5" style="stroke:#181818;stroke-width:0.5;" width="382" x="1137.5" y="581"/><ellipse cx="1266.25" cy="597" fill="#ADD1B2" rx="11" ry="11" style="stroke:#181818;stroke-width:1.0;"/><path d="M1269.0156,592.875 Q1269.1719,592.6563 1269.3594,592.5469 Q1269.5469,592.4375 1269.7656,592.4375 Q1270.1406,592.4375 1270.375,592.7031 Q1270.6094,592.9531 1270.6094,593.5625 L1270.6094,595.0156 Q1270.6094,595.625 1270.375,595.8906 Q1270.1406,596.1563 1269.7656,596.1563 Q1269.4219,596.1563 1269.2188,595.9531 Q1269.0156,595.7656 1268.9063,595.25 Q1268.8594,594.8906 1268.6719,594.7031 Q1268.3438,594.3281 1267.7344,594.1094 Q1267.125,593.8906 1266.5,593.8906 Q1265.7344,593.8906 1265.0938,594.2188 Q1264.4688,594.5469 1263.9688,595.2969 Q1263.4844,596.0469 1263.4844,597.0781 L1263.4844,598.1719 Q1263.4844,599.4063 1264.375,600.2344 Q1265.2656,601.0469 1266.8594,601.0469 Q1267.7969,601.0469 1268.4531,600.7969 Q1268.8438,600.6406 1269.2656,600.2031 Q1269.5313,599.9375 1269.6719,599.8594 Q1269.8281,599.7813 1270.0313,599.7813 Q1270.3594,599.7813 1270.6094,600.0469 Q1270.875,600.2969 1270.875,600.6406 Q1270.875,600.9844 1270.5313,601.3906 Q1270.0313,601.9688 1269.2344,602.2969 Q1268.1563,602.75 1266.8594,602.75 Q1265.3438,602.75 1264.1406,602.125 Q1263.1563,601.625 1262.4688,600.5625 Q1261.7813,599.4844 1261.7813,598.2031 L1261.7813,597.0469 Q1261.7813,595.7188 1262.3906,594.5781 Q1263.0156,593.4219 1264.1094,592.8125 Q1265.2031,592.1875 1266.4375,592.1875 Q1267.1719,592.1875 1267.8125,592.3594 Q1268.4688,592.5156 1269.0156,592.875 Z " fill="#000000"/><text fill="#000000" font-family="sans-serif" font-size="14" lengthAdjust="spacing" textLength="116" x="1286.75" y="602.7969">RepositoryFactory</text><line style="stroke:#181818;stroke-width:0.5;" x1="1138.5" x2="1518.5" y1="613" y2="613"/><line style="stroke:#181818;stroke-width:0.5;" x1="1138.5" x2="1518.5" y1="621" y2="621"/><ellipse cx="1148.5" cy="635.8105" fill="#84BE84" rx="3" ry="3" style="stroke:#038048;stroke-width:1.0;"/><text fill="#000000" font-family="sans-serif" font-size="14" lengthAdjust="spacing" textLength="252" x="1157.5" y="640.1074">applications(): JobApplicationRepository</text><ellipse cx="1148.5" cy="654.4316" fill="#84BE84" rx="3" ry="3" style="stroke:#038048;stroke-width:1.0;"/><text fill="#000000" font-family="sans-serif" font-size="14" lengthAdjust="spacing" textLength="242" x="1157.5" y="658.7285">jobOpenings(): JobOpeningRepository</text><ellipse cx="1148.5" cy="673.0527" fill="#84BE84" rx="3" ry="3" style="stroke:#038048;stroke-width:1.0;"/><text fill="#000000" font-family="sans-serif" font-size="14" lengthAdjust="spacing" textLength="356" x="1157.5" y="677.3496">jobOpeningProcesses() : JobOpeningProcessRepository</text><ellipse cx="1148.5" cy="691.6738" fill="#84BE84" rx="3" ry="3" style="stroke:#038048;stroke-width:1.0;"/><text fill="#000000" font-family="sans-serif" font-size="14" lengthAdjust="spacing" textLength="45" x="1157.5" y="695.9707">ranks()</text></g><!--class JobApplicationRepository--><g id="elem_JobApplicationRepository"><rect codeLine="45" fill="#F1F1F1" height="66.6211" id="JobApplicationRepository" rx="2.5" ry="2.5" style="stroke:#181818;stroke-width:0.5;" width="287" x="486" y="608.5"/><ellipse cx="545.75" cy="624.5" fill="#ADD1B2" rx="11" ry="11" style="stroke:#181818;stroke-width:1.0;"/><path d="M548.5156,620.375 Q548.6719,620.1563 548.8594,620.0469 Q549.0469,619.9375 549.2656,619.9375 Q549.6406,619.9375 549.875,620.2031 Q550.1094,620.4531 550.1094,621.0625 L550.1094,622.5156 Q550.1094,623.125 549.875,623.3906 Q549.6406,623.6563 549.2656,623.6563 Q548.9219,623.6563 548.7188,623.4531 Q548.5156,623.2656 548.4063,622.75 Q548.3594,622.3906 548.1719,622.2031 Q547.8438,621.8281 547.2344,621.6094 Q546.625,621.3906 546,621.3906 Q545.2344,621.3906 544.5938,621.7188 Q543.9688,622.0469 543.4688,622.7969 Q542.9844,623.5469 542.9844,624.5781 L542.9844,625.6719 Q542.9844,626.9063 543.875,627.7344 Q544.7656,628.5469 546.3594,628.5469 Q547.2969,628.5469 547.9531,628.2969 Q548.3438,628.1406 548.7656,627.7031 Q549.0313,627.4375 549.1719,627.3594 Q549.3281,627.2813 549.5313,627.2813 Q549.8594,627.2813 550.1094,627.5469 Q550.375,627.7969 550.375,628.1406 Q550.375,628.4844 550.0313,628.8906 Q549.5313,629.4688 548.7344,629.7969 Q547.6563,630.25 546.3594,630.25 Q544.8438,630.25 543.6406,629.625 Q542.6563,629.125 541.9688,628.0625 Q541.2813,626.9844 541.2813,625.7031 L541.2813,624.5469 Q541.2813,623.2188 541.8906,622.0781 Q542.5156,620.9219 543.6094,620.3125 Q544.7031,619.6875 545.9375,619.6875 Q546.6719,619.6875 547.3125,619.8594 Q547.9688,620.0156 548.5156,620.375 Z " fill="#000000"/><text fill="#000000" font-family="sans-serif" font-size="14" lengthAdjust="spacing" textLength="159" x="566.25" y="630.2969">JobApplicationRepository</text><line style="stroke:#181818;stroke-width:0.5;" x1="487" x2="772" y1="640.5" y2="640.5"/><line style="stroke:#181818;stroke-width:0.5;" x1="487" x2="772" y1="648.5" y2="648.5"/><ellipse cx="497" cy="663.3105" fill="#84BE84" rx="3" ry="3" style="stroke:#038048;stroke-width:1.0;"/><text fill="#000000" font-family="sans-serif" font-size="14" lengthAdjust="spacing" textLength="261" x="506" y="667.6074">save(jobApplication: JobApplication): void</text></g><!--class JobOpeningProcessRepository--><g id="elem_JobOpeningProcessRepository"><rect codeLine="49" fill="#F1F1F1" height="66.6211" id="JobOpeningProcessRepository" rx="2.5" ry="2.5" style="stroke:#181818;stroke-width:0.5;" width="297" x="1558" y="608.5"/><ellipse cx="1604.75" cy="624.5" fill="#ADD1B2" rx="11" ry="11" style="stroke:#181818;stroke-width:1.0;"/><path d="M1607.5156,620.375 Q1607.6719,620.1563 1607.8594,620.0469 Q1608.0469,619.9375 1608.2656,619.9375 Q1608.6406,619.9375 1608.875,620.2031 Q1609.1094,620.4531 1609.1094,621.0625 L1609.1094,622.5156 Q1609.1094,623.125 1608.875,623.3906 Q1608.6406,623.6563 1608.2656,623.6563 Q1607.9219,623.6563 1607.7188,623.4531 Q1607.5156,623.2656 1607.4063,622.75 Q1607.3594,622.3906 1607.1719,622.2031 Q1606.8438,621.8281 1606.2344,621.6094 Q1605.625,621.3906 1605,621.3906 Q1604.2344,621.3906 1603.5938,621.7188 Q1602.9688,622.0469 1602.4688,622.7969 Q1601.9844,623.5469 1601.9844,624.5781 L1601.9844,625.6719 Q1601.9844,626.9063 1602.875,627.7344 Q1603.7656,628.5469 1605.3594,628.5469 Q1606.2969,628.5469 1606.9531,628.2969 Q1607.3438,628.1406 1607.7656,627.7031 Q1608.0313,627.4375 1608.1719,627.3594 Q1608.3281,627.2813 1608.5313,627.2813 Q1608.8594,627.2813 1609.1094,627.5469 Q1609.375,627.7969 1609.375,628.1406 Q1609.375,628.4844 1609.0313,628.8906 Q1608.5313,629.4688 1607.7344,629.7969 Q1606.6563,630.25 1605.3594,630.25 Q1603.8438,630.25 1602.6406,629.625 Q1601.6563,629.125 1600.9688,628.0625 Q1600.2813,626.9844 1600.2813,625.7031 L1600.2813,624.5469 Q1600.2813,623.2188 1600.8906,622.0781 Q1601.5156,620.9219 1602.6094,620.3125 Q1603.7031,619.6875 1604.9375,619.6875 Q1605.6719,619.6875 1606.3125,619.8594 Q1606.9688,620.0156 1607.5156,620.375 Z " fill="#000000"/><text fill="#000000" font-family="sans-serif" font-size="14" lengthAdjust="spacing" textLength="195" x="1625.25" y="630.2969">JobOpeningProcessRepository</text><line style="stroke:#181818;stroke-width:0.5;" x1="1559" x2="1854" y1="640.5" y2="640.5"/><line style="stroke:#181818;stroke-width:0.5;" x1="1559" x2="1854" y1="648.5" y2="648.5"/><ellipse cx="1569" cy="663.3105" fill="#84BE84" rx="3" ry="3" style="stroke:#038048;stroke-width:1.0;"/><text fill="#000000" font-family="sans-serif" font-size="14" lengthAdjust="spacing" textLength="271" x="1578" y="667.6074">findByJobReference(jobReference : String)</text></g><!--class JobOpeningRepository--><g id="elem_JobOpeningRepository"><rect codeLine="53" fill="#F1F1F1" height="66.6211" id="JobOpeningRepository" rx="2.5" ry="2.5" style="stroke:#181818;stroke-width:0.5;" width="267" x="835" y="608.5"/><ellipse cx="892.25" cy="624.5" fill="#ADD1B2" rx="11" ry="11" style="stroke:#181818;stroke-width:1.0;"/><path d="M895.0156,620.375 Q895.1719,620.1563 895.3594,620.0469 Q895.5469,619.9375 895.7656,619.9375 Q896.1406,619.9375 896.375,620.2031 Q896.6094,620.4531 896.6094,621.0625 L896.6094,622.5156 Q896.6094,623.125 896.375,623.3906 Q896.1406,623.6563 895.7656,623.6563 Q895.4219,623.6563 895.2188,623.4531 Q895.0156,623.2656 894.9063,622.75 Q894.8594,622.3906 894.6719,622.2031 Q894.3438,621.8281 893.7344,621.6094 Q893.125,621.3906 892.5,621.3906 Q891.7344,621.3906 891.0938,621.7188 Q890.4688,622.0469 889.9688,622.7969 Q889.4844,623.5469 889.4844,624.5781 L889.4844,625.6719 Q889.4844,626.9063 890.375,627.7344 Q891.2656,628.5469 892.8594,628.5469 Q893.7969,628.5469 894.4531,628.2969 Q894.8438,628.1406 895.2656,627.7031 Q895.5313,627.4375 895.6719,627.3594 Q895.8281,627.2813 896.0313,627.2813 Q896.3594,627.2813 896.6094,627.5469 Q896.875,627.7969 896.875,628.1406 Q896.875,628.4844 896.5313,628.8906 Q896.0313,629.4688 895.2344,629.7969 Q894.1563,630.25 892.8594,630.25 Q891.3438,630.25 890.1406,629.625 Q889.1563,629.125 888.4688,628.0625 Q887.7813,626.9844 887.7813,625.7031 L887.7813,624.5469 Q887.7813,623.2188 888.3906,622.0781 Q889.0156,620.9219 890.1094,620.3125 Q891.2031,619.6875 892.4375,619.6875 Q893.1719,619.6875 893.8125,619.8594 Q894.4688,620.0156 895.0156,620.375 Z " fill="#000000"/><text fill="#000000" font-family="sans-serif" font-size="14" lengthAdjust="spacing" textLength="144" x="912.75" y="630.2969">JobOpeningRepository</text><line style="stroke:#181818;stroke-width:0.5;" x1="836" x2="1101" y1="640.5" y2="640.5"/><line style="stroke:#181818;stroke-width:0.5;" x1="836" x2="1101" y1="648.5" y2="648.5"/><ellipse cx="846" cy="663.3105" fill="#84BE84" rx="3" ry="3" style="stroke:#038048;stroke-width:1.0;"/><text fill="#000000" font-family="sans-serif" font-size="14" lengthAdjust="spacing" textLength="241" x="855" y="667.6074">findAllActive() : Iterable &lt;JobOpening&gt;</text></g><!--class JobOpeningProcess--><g id="elem_JobOpeningProcess"><rect codeLine="57" fill="#F1F1F1" height="66.6211" id="JobOpeningProcess" rx="2.5" ry="2.5" style="stroke:#181818;stroke-width:0.5;" width="272" x="1570.5" y="782"/><ellipse cx="1638.75" cy="798" fill="#ADD1B2" rx="11" ry="11" style="stroke:#181818;stroke-width:1.0;"/><path d="M1641.5156,793.875 Q1641.6719,793.6563 1641.8594,793.5469 Q1642.0469,793.4375 1642.2656,793.4375 Q1642.6406,793.4375 1642.875,793.7031 Q1643.1094,793.9531 1643.1094,794.5625 L1643.1094,796.0156 Q1643.1094,796.625 1642.875,796.8906 Q1642.6406,797.1563 1642.2656,797.1563 Q1641.9219,797.1563 1641.7188,796.9531 Q1641.5156,796.7656 1641.4063,796.25 Q1641.3594,795.8906 1641.1719,795.7031 Q1640.8438,795.3281 1640.2344,795.1094 Q1639.625,794.8906 1639,794.8906 Q1638.2344,794.8906 1637.5938,795.2188 Q1636.9688,795.5469 1636.4688,796.2969 Q1635.9844,797.0469 1635.9844,798.0781 L1635.9844,799.1719 Q1635.9844,800.4063 1636.875,801.2344 Q1637.7656,802.0469 1639.3594,802.0469 Q1640.2969,802.0469 1640.9531,801.7969 Q1641.3438,801.6406 1641.7656,801.2031 Q1642.0313,800.9375 1642.1719,800.8594 Q1642.3281,800.7813 1642.5313,800.7813 Q1642.8594,800.7813 1643.1094,801.0469 Q1643.375,801.2969 1643.375,801.6406 Q1643.375,801.9844 1643.0313,802.3906 Q1642.5313,802.9688 1641.7344,803.2969 Q1640.6563,803.75 1639.3594,803.75 Q1637.8438,803.75 1636.6406,803.125 Q1635.6563,802.625 1634.9688,801.5625 Q1634.2813,800.4844 1634.2813,799.2031 L1634.2813,798.0469 Q1634.2813,796.7188 1634.8906,795.5781 Q1635.5156,794.4219 1636.6094,793.8125 Q1637.7031,793.1875 1638.9375,793.1875 Q1639.6719,793.1875 1640.3125,793.3594 Q1640.9688,793.5156 1641.5156,793.875 Z " fill="#000000"/><text fill="#000000" font-family="sans-serif" font-size="14" lengthAdjust="spacing" textLength="127" x="1659.25" y="803.7969">JobOpeningProcess</text><line style="stroke:#181818;stroke-width:0.5;" x1="1571.5" x2="1841.5" y1="814" y2="814"/><line style="stroke:#181818;stroke-width:0.5;" x1="1571.5" x2="1841.5" y1="822" y2="822"/><ellipse cx="1581.5" cy="836.8105" fill="#84BE84" rx="3" ry="3" style="stroke:#038048;stroke-width:1.0;"/><text fill="#000000" font-family="sans-serif" font-size="14" lengthAdjust="spacing" textLength="246" x="1590.5" y="841.1074">getCurrentPhase() : JobOpeningPhase</text></g><!--class RankRepository--><g id="elem_RankRepository"><rect codeLine="61" fill="#F1F1F1" height="85.2422" id="RankRepository" rx="2.5" ry="2.5" style="stroke:#181818;stroke-width:0.5;" width="186" x="2303.5" y="599.5"/><ellipse cx="2342.35" cy="615.5" fill="#ADD1B2" rx="11" ry="11" style="stroke:#181818;stroke-width:1.0;"/><path d="M2345.1156,611.375 Q2345.2719,611.1563 2345.4594,611.0469 Q2345.6469,610.9375 2345.8656,610.9375 Q2346.2406,610.9375 2346.475,611.2031 Q2346.7094,611.4531 2346.7094,612.0625 L2346.7094,613.5156 Q2346.7094,614.125 2346.475,614.3906 Q2346.2406,614.6563 2345.8656,614.6563 Q2345.5219,614.6563 2345.3188,614.4531 Q2345.1156,614.2656 2345.0063,613.75 Q2344.9594,613.3906 2344.7719,613.2031 Q2344.4438,612.8281 2343.8344,612.6094 Q2343.225,612.3906 2342.6,612.3906 Q2341.8344,612.3906 2341.1938,612.7188 Q2340.5688,613.0469 2340.0688,613.7969 Q2339.5844,614.5469 2339.5844,615.5781 L2339.5844,616.6719 Q2339.5844,617.9063 2340.475,618.7344 Q2341.3656,619.5469 2342.9594,619.5469 Q2343.8969,619.5469 2344.5531,619.2969 Q2344.9438,619.1406 2345.3656,618.7031 Q2345.6313,618.4375 2345.7719,618.3594 Q2345.9281,618.2813 2346.1313,618.2813 Q2346.4594,618.2813 2346.7094,618.5469 Q2346.975,618.7969 2346.975,619.1406 Q2346.975,619.4844 2346.6313,619.8906 Q2346.1313,620.4688 2345.3344,620.7969 Q2344.2563,621.25 2342.9594,621.25 Q2341.4438,621.25 2340.2406,620.625 Q2339.2563,620.125 2338.5688,619.0625 Q2337.8813,617.9844 2337.8813,616.7031 L2337.8813,615.5469 Q2337.8813,614.2188 2338.4906,613.0781 Q2339.1156,611.9219 2340.2094,611.3125 Q2341.3031,610.6875 2342.5375,610.6875 Q2343.2719,610.6875 2343.9125,610.8594 Q2344.5688,611.0156 2345.1156,611.375 Z " fill="#000000"/><text fill="#000000" font-family="sans-serif" font-size="14" lengthAdjust="spacing" textLength="101" x="2361.65" y="621.2969">RankRepository</text><line style="stroke:#181818;stroke-width:0.5;" x1="2304.5" x2="2488.5" y1="631.5" y2="631.5"/><line style="stroke:#181818;stroke-width:0.5;" x1="2304.5" x2="2488.5" y1="639.5" y2="639.5"/><ellipse cx="2314.5" cy="654.3105" fill="#84BE84" rx="3" ry="3" style="stroke:#038048;stroke-width:1.0;"/><text fill="#000000" font-family="sans-serif" font-size="14" lengthAdjust="spacing" textLength="160" x="2323.5" y="658.6074">findAll() : Iterable &lt;Rank&gt;</text><ellipse cx="2314.5" cy="672.9316" fill="#84BE84" rx="3" ry="3" style="stroke:#038048;stroke-width:1.0;"/><text fill="#000000" font-family="sans-serif" font-size="14" lengthAdjust="spacing" textLength="150" x="2323.5" y="677.2285">save(rank:Rank) : Rank</text></g><!--class JobOpeningProcessService--><g id="elem_JobOpeningProcessService"><rect codeLine="66" fill="#F1F1F1" height="66.6211" id="JobOpeningProcessService" rx="2.5" ry="2.5" style="stroke:#181818;stroke-width:0.5;" width="456" x="1478.5" y="426"/><ellipse cx="1615.25" cy="442" fill="#ADD1B2" rx="11" ry="11" style="stroke:#181818;stroke-width:1.0;"/><path d="M1618.0156,437.875 Q1618.1719,437.6563 1618.3594,437.5469 Q1618.5469,437.4375 1618.7656,437.4375 Q1619.1406,437.4375 1619.375,437.7031 Q1619.6094,437.9531 1619.6094,438.5625 L1619.6094,440.0156 Q1619.6094,440.625 1619.375,440.8906 Q1619.1406,441.1563 1618.7656,441.1563 Q1618.4219,441.1563 1618.2188,440.9531 Q1618.0156,440.7656 1617.9063,440.25 Q1617.8594,439.8906 1617.6719,439.7031 Q1617.3438,439.3281 1616.7344,439.1094 Q1616.125,438.8906 1615.5,438.8906 Q1614.7344,438.8906 1614.0938,439.2188 Q1613.4688,439.5469 1612.9688,440.2969 Q1612.4844,441.0469 1612.4844,442.0781 L1612.4844,443.1719 Q1612.4844,444.4063 1613.375,445.2344 Q1614.2656,446.0469 1615.8594,446.0469 Q1616.7969,446.0469 1617.4531,445.7969 Q1617.8438,445.6406 1618.2656,445.2031 Q1618.5313,444.9375 1618.6719,444.8594 Q1618.8281,444.7813 1619.0313,444.7813 Q1619.3594,444.7813 1619.6094,445.0469 Q1619.875,445.2969 1619.875,445.6406 Q1619.875,445.9844 1619.5313,446.3906 Q1619.0313,446.9688 1618.2344,447.2969 Q1617.1563,447.75 1615.8594,447.75 Q1614.3438,447.75 1613.1406,447.125 Q1612.1563,446.625 1611.4688,445.5625 Q1610.7813,444.4844 1610.7813,443.2031 L1610.7813,442.0469 Q1610.7813,440.7188 1611.3906,439.5781 Q1612.0156,438.4219 1613.1094,437.8125 Q1614.2031,437.1875 1615.4375,437.1875 Q1616.1719,437.1875 1616.8125,437.3594 Q1617.4688,437.5156 1618.0156,437.875 Z " fill="#000000"/><text fill="#000000" font-family="sans-serif" font-size="14" lengthAdjust="spacing" textLength="174" x="1635.75" y="447.7969">JobOpeningProcessService</text><line style="stroke:#181818;stroke-width:0.5;" x1="1479.5" x2="1933.5" y1="458" y2="458"/><line style="stroke:#181818;stroke-width:0.5;" x1="1479.5" x2="1933.5" y1="466" y2="466"/><ellipse cx="1489.5" cy="480.8105" fill="#84BE84" rx="3" ry="3" style="stroke:#038048;stroke-width:1.0;"/><text fill="#000000" font-family="sans-serif" font-size="14" lengthAdjust="spacing" textLength="430" x="1498.5" y="485.1074">verifyIsInAnalysisPhase(jobReference : String) : JobOpeningProcess</text></g><!--class RankService--><g id="elem_RankService"><rect codeLine="70" fill="#F1F1F1" height="85.2422" id="RankService" rx="2.5" ry="2.5" style="stroke:#181818;stroke-width:0.5;" width="556" x="1969.5" y="417"/><ellipse cx="2203.25" cy="433" fill="#ADD1B2" rx="11" ry="11" style="stroke:#181818;stroke-width:1.0;"/><path d="M2206.0156,428.875 Q2206.1719,428.6563 2206.3594,428.5469 Q2206.5469,428.4375 2206.7656,428.4375 Q2207.1406,428.4375 2207.375,428.7031 Q2207.6094,428.9531 2207.6094,429.5625 L2207.6094,431.0156 Q2207.6094,431.625 2207.375,431.8906 Q2207.1406,432.1563 2206.7656,432.1563 Q2206.4219,432.1563 2206.2188,431.9531 Q2206.0156,431.7656 2205.9063,431.25 Q2205.8594,430.8906 2205.6719,430.7031 Q2205.3438,430.3281 2204.7344,430.1094 Q2204.125,429.8906 2203.5,429.8906 Q2202.7344,429.8906 2202.0938,430.2188 Q2201.4688,430.5469 2200.9688,431.2969 Q2200.4844,432.0469 2200.4844,433.0781 L2200.4844,434.1719 Q2200.4844,435.4063 2201.375,436.2344 Q2202.2656,437.0469 2203.8594,437.0469 Q2204.7969,437.0469 2205.4531,436.7969 Q2205.8438,436.6406 2206.2656,436.2031 Q2206.5313,435.9375 2206.6719,435.8594 Q2206.8281,435.7813 2207.0313,435.7813 Q2207.3594,435.7813 2207.6094,436.0469 Q2207.875,436.2969 2207.875,436.6406 Q2207.875,436.9844 2207.5313,437.3906 Q2207.0313,437.9688 2206.2344,438.2969 Q2205.1563,438.75 2203.8594,438.75 Q2202.3438,438.75 2201.1406,438.125 Q2200.1563,437.625 2199.4688,436.5625 Q2198.7813,435.4844 2198.7813,434.2031 L2198.7813,433.0469 Q2198.7813,431.7188 2199.3906,430.5781 Q2200.0156,429.4219 2201.1094,428.8125 Q2202.2031,428.1875 2203.4375,428.1875 Q2204.1719,428.1875 2204.8125,428.3594 Q2205.4688,428.5156 2206.0156,428.875 Z " fill="#000000"/><text fill="#000000" font-family="sans-serif" font-size="14" lengthAdjust="spacing" textLength="80" x="2223.75" y="438.7969">RankService</text><line style="stroke:#181818;stroke-width:0.5;" x1="1970.5" x2="2524.5" y1="449" y2="449"/><line style="stroke:#181818;stroke-width:0.5;" x1="1970.5" x2="2524.5" y1="457" y2="457"/><ellipse cx="1980.5" cy="471.8105" fill="#84BE84" rx="3" ry="3" style="stroke:#038048;stroke-width:1.0;"/><text fill="#000000" font-family="sans-serif" font-size="14" lengthAdjust="spacing" textLength="477" x="1989.5" y="476.1074">updateApplicationRank(application: JobApplication, position : Integer): Rank</text><ellipse cx="1980.5" cy="490.4316" fill="#84BE84" rx="3" ry="3" style="stroke:#038048;stroke-width:1.0;"/><text fill="#000000" font-family="sans-serif" font-size="14" lengthAdjust="spacing" textLength="530" x="1989.5" y="494.7285">markAsUnrankedRemainingApplications(applicationList : List&lt;JobApplication&gt;) : void</text></g><!--link RankCandidateUI to RankCandidateController--><g id="link_RankCandidateUI_RankCandidateController"><path codeLine="79" d="M1139.5,105.11 C1139.5,128.56 1139.5,151.32 1139.5,177.67 " fill="none" id="RankCandidateUI-to-RankCandidateController" style="stroke:#181818;stroke-width:1.0;"/><polygon fill="#181818" points="1139.5,183.67,1143.5,174.67,1139.5,178.67,1135.5,174.67,1139.5,183.67" style="stroke:#181818;stroke-width:1.0;"/><text fill="#000000" font-family="sans-serif" font-size="13" lengthAdjust="spacing" textLength="73" x="1140.5" y="150.0283">theController</text></g><!--link RankCandidateController to JobApplicationService--><g id="link_RankCandidateController_JobApplicationService"><path codeLine="80" d="M941.96,338.11 C869.26,366.12 795.5889,394.5131 735.0789,417.8231 " fill="none" id="RankCandidateController-to-JobApplicationService" style="stroke:#181818;stroke-width:1.0;"/><polygon fill="#181818" points="729.48,419.98,739.3163,420.4773,734.1458,418.1826,736.4405,413.0121,729.48,419.98" style="stroke:#181818;stroke-width:1.0;"/><text fill="#000000" font-family="sans-serif" font-size="13" lengthAdjust="spacing" textLength="123" x="855.5" y="383.0283">jobApplicationService</text></g><!--link RankCandidateController to AuthorizationService--><g id="link_RankCandidateController_AuthorizationService"><path codeLine="81" d="M845.39,322.96 C692.22,354.71 515.4851,391.3423 382.2251,418.9623 " fill="none" id="RankCandidateController-to-AuthorizationService" style="stroke:#181818;stroke-width:1.0;"/><polygon fill="#181818" points="376.35,420.18,385.9745,422.2702,381.2459,419.1652,384.3509,414.4367,376.35,420.18" style="stroke:#181818;stroke-width:1.0;"/><text fill="#000000" font-family="sans-serif" font-size="13" lengthAdjust="spacing" textLength="74" x="610.5" y="383.0283">authzService</text></g><!--link RankCandidateController to RankService--><g id="link_RankCandidateController_RankService"><path codeLine="82" d="M1433.51,314.14 C1614.79,346.29 1838.1822,385.9123 2007.1822,415.8823 " fill="none" id="RankCandidateController-to-RankService" style="stroke:#181818;stroke-width:1.0;"/><polygon fill="#181818" points="2013.09,416.93,2004.9267,411.4199,2008.1668,416.0569,2003.5298,419.297,2013.09,416.93" style="stroke:#181818;stroke-width:1.0;"/><text fill="#000000" font-family="sans-serif" font-size="13" lengthAdjust="spacing" textLength="67" x="1826.5" y="383.0283">rankService</text></g><!--link RankService to RankRepository--><g id="link_RankService_RankRepository"><path codeLine="83" d="M2282.06,502.36 C2306.13,531.52 2334.2804,565.6229 2358.3104,594.7329 " fill="none" id="RankService-to-RankRepository" style="stroke:#181818;stroke-width:1.0;"/><polygon fill="#181818" points="2362.13,599.36,2359.4853,589.8729,2358.947,595.5041,2353.3158,594.9657,2362.13,599.36" style="stroke:#181818;stroke-width:1.0;"/><text fill="#000000" font-family="sans-serif" font-size="13" lengthAdjust="spacing" textLength="87" x="2323.5" y="547.0283">rankRepository</text></g><!--link RankCandidateController to JobOpeningService--><g id="link_RankCandidateController_JobOpeningService"><path codeLine="84" d="M1096.43,338.25 C1080.64,366.19 1066.4029,391.4169 1053.2529,414.6769 " fill="none" id="RankCandidateController-to-JobOpeningService" style="stroke:#181818;stroke-width:1.0;"/><polygon fill="#181818" points="1050.3,419.9,1058.2113,414.0339,1052.7607,415.5474,1051.2472,410.0968,1050.3,419.9" style="stroke:#181818;stroke-width:1.0;"/><text fill="#000000" font-family="sans-serif" font-size="13" lengthAdjust="spacing" textLength="107" x="1078.5" y="383.0283">jobOpeningService</text></g><!--link RankCandidateController to JobOpeningProcessService--><g id="link_RankCandidateController_JobOpeningProcessService"><path codeLine="85" d="M1359.12,338.11 C1447.11,368.61 1538.0908,400.1352 1607.0508,424.0352 " fill="none" id="RankCandidateController-to-JobOpeningProcessService" style="stroke:#181818;stroke-width:1.0;"/><polygon fill="#181818" points="1612.72,426,1605.5261,419.2733,1607.9957,424.3627,1602.9064,426.8322,1612.72,426" style="stroke:#181818;stroke-width:1.0;"/><text fill="#000000" font-family="sans-serif" font-size="13" lengthAdjust="spacing" textLength="155" x="1491.5" y="383.0283">jobOpeningProcessService</text></g><!--link JobOpeningProcessService to JobOpeningProcessRepository--><g id="link_JobOpeningProcessService_JobOpeningProcessRepository"><path codeLine="86" d="M1706.5,493.19 C1706.5,525.8 1706.5,569.62 1706.5,602.25 " fill="none" id="JobOpeningProcessService-to-JobOpeningProcessRepository" style="stroke:#181818;stroke-width:1.0;"/><polygon fill="#181818" points="1706.5,608.25,1710.5,599.25,1706.5,603.25,1702.5,599.25,1706.5,608.25" style="stroke:#181818;stroke-width:1.0;"/><text fill="#000000" font-family="sans-serif" font-size="13" lengthAdjust="spacing" textLength="175" x="1707.5" y="547.0283">jobOpeningProcessRepository</text></g><!--link JobOpeningProcessRepository to JobOpeningProcess--><g id="link_JobOpeningProcessRepository_JobOpeningProcess"><path codeLine="87" d="M1706.5,675.66 C1706.5,706.18 1706.5,745.48 1706.5,775.96 " fill="none" id="JobOpeningProcessRepository-to-JobOpeningProcess" style="stroke:#181818;stroke-width:1.0;"/><polygon fill="#181818" points="1706.5,781.96,1710.5,772.96,1706.5,776.96,1702.5,772.96,1706.5,781.96" style="stroke:#181818;stroke-width:1.0;"/><text fill="#000000" font-family="sans-serif" font-size="13" lengthAdjust="spacing" textLength="113" x="1707.5" y="748.0283">jobOpeningProcess</text></g><!--link JobOpeningService to JobOpeningRepository--><g id="link_JobOpeningService_JobOpeningRepository"><path codeLine="88" d="M1015.63,499.22 C1004.82,531.75 991.4329,572.0064 981.2329,602.6864 " fill="none" id="JobOpeningService-to-JobOpeningRepository" style="stroke:#181818;stroke-width:1.0;"/><polygon fill="#181818" points="979.34,608.38,985.9751,601.1016,980.9174,603.6353,978.3836,598.5777,979.34,608.38" style="stroke:#181818;stroke-width:1.0;"/><text fill="#000000" font-family="sans-serif" font-size="13" lengthAdjust="spacing" textLength="127" x="1005.5" y="547.0283">jobOpeningRepository</text></g><!--link JobApplicationService to JobApplicationRepository--><g id="link_JobApplicationService_JobApplicationRepository"><path codeLine="89" d="M629.5,499.22 C629.5,531.75 629.5,571.7 629.5,602.38 " fill="none" id="JobApplicationService-to-JobApplicationRepository" style="stroke:#181818;stroke-width:1.0;"/><polygon fill="#181818" points="629.5,608.38,633.5,599.38,629.5,603.38,625.5,599.38,629.5,608.38" style="stroke:#181818;stroke-width:1.0;"/><text fill="#000000" font-family="sans-serif" font-size="13" lengthAdjust="spacing" textLength="143" x="630.5" y="547.0283">jobApplicationRepository</text></g><!--link RankService to Rank--><g id="link_RankService_Rank"><path codeLine="90" d="M2221.52,502.36 C2207.05,525.69 2191.9329,550.0414 2175.9529,575.8014 " fill="none" id="RankService-to-Rank" style="stroke:#181818;stroke-width:1.0;"/><polygon fill="#181818" points="2172.79,580.9,2180.9334,575.3606,2175.4257,576.6511,2174.1353,571.1434,2172.79,580.9" style="stroke:#181818;stroke-width:1.0;"/><text fill="#000000" font-family="sans-serif" font-size="13" lengthAdjust="spacing" textLength="25" x="2203.5" y="547.0283">rank</text></g><!--link RankCandidateController to PersistenceContext--><g id="link_RankCandidateController_PersistenceContext"><path codeLine="91" d="M1212.07,338.25 C1241.02,368.68 1268.6534,397.7139 1291.3634,421.5739 " fill="none" id="RankCandidateController-to-PersistenceContext" style="stroke:#181818;stroke-width:1.0;"/><polygon fill="#181818" points="1295.5,425.92,1292.1925,416.6431,1292.0528,422.2983,1286.3977,422.1586,1295.5,425.92" style="stroke:#181818;stroke-width:1.0;"/><text fill="#000000" font-family="sans-serif" font-size="13" lengthAdjust="spacing" textLength="67" x="1256.5" y="383.0283">persistence</text></g><!--link PersistenceContext to RepositoryFactory--><g id="link_PersistenceContext_RepositoryFactory"><path codeLine="92" d="M1326.86,493.19 C1327.13,517.57 1327.4444,545.5704 1327.7644,574.8204 " fill="none" id="PersistenceContext-to-RepositoryFactory" style="stroke:#181818;stroke-width:1.0;"/><polygon fill="#181818" points="1327.83,580.82,1331.7313,571.7768,1327.7753,575.8203,1323.7318,571.8643,1327.83,580.82" style="stroke:#181818;stroke-width:1.0;"/><text fill="#000000" font-family="sans-serif" font-size="13" lengthAdjust="spacing" textLength="39" x="1328.5" y="547.0283">factory</text></g><!--SRC=[jLRDZjem4BxdANm4jVi2KOIK8bMbgWG2SQfwCCa0PhDEP1jQTjLtxpW_ojXnmXwsN1BicM_-lfb9Ld2jsPRBvoMNkSYvWVsA9KcbG8Cqt8XIBXPl4Mj_dzWPU5u82RDvp7P62NaYbtcvEvU_xTMXB0lWihxx6zMFR6XhMKgZog80bIIygWgHjHOPDLa8RTAY-5uUrXL8jAYjXPK1nGy597YU4bsYU1GoHqLogx_SKNmBHr0WCvXTo9-OqIkqiAwi2Y-ItZ95lrOs109kGvkHC6f0Sl-PLQKMzesX-zB02HIQiMe4zeMhvrJlfS9ZoBVmmeMrJ8EWHdvWSX3EFlnCpF7yLegSWDz0YUDzfLSonS3kMkZDcMit3wmhhDNlGz-eCWEjkugIagPNSowLUAsjxa3T188aYMxUNFg0r5S5LWFfPHs5V8-2txXEvNrzd24RG6DEyF7przppto6I6-m3ios5d2GwjUyZdkILxq6RcsdhhV6BmrzgnY7Ne5kSNiWKOCvc0I9PtpqgjSA16mrcqqA4iFfNecC9oLmmnzSDAEIJiUcqVGr_ZEEvWjeG4WNg_jrs_-zVUMOVWUXz4GUGqsBE_MRhTOcAMm9Im0VIBVUjuw6U26hRTA5yz82ulQuJdEQtkYlJyN52ksE4bmF_thpfE34E-p4mPM74_MxoPaRS6W9sV6VJX1_uJb5FO9PNXTwPPcfvnR1duHOQJm0wwRbdvHT-9MmnOtipJl-1vzrGQ4n-vEnrW_FjVFXU-cyxoQuH_FcV7qzFYx7FX9ZXukZ_HYDYDKHmGSJi4ZgU10hkjvXnF7vzZpujKbpF1QhLtNIIfACQOJ9T7eJhRQEOJB3t-3dAu7Wu2ZkyKPqWe1FRPMACJca6aKDuqJ0bhcuFIhLTDmBV64DoUK3XDHGgTbFXoQe4rchCglum2WZKy8Fb6RDZy_OF]--></g></svg>