<?xml version="1.0" encoding="us-ascii" standalone="no"?><svg xmlns="http://www.w3.org/2000/svg" xmlns:xlink="http://www.w3.org/1999/xlink" contentStyleType="text/css" height="464px" preserveAspectRatio="none" style="width:514px;height:464px;background:#FFFFFF;" version="1.1" viewBox="0 0 514 464" width="514px" zoomAndPan="magnify"><defs/><g><!--cluster UserAggregate--><g id="cluster_UserAggregate"><rect fill="none" height="270" rx="2.5" ry="2.5" style="stroke:#000000;stroke-width:1.5;" width="501" x="7" y="188"/><text fill="#000000" font-family="sans-serif" font-size="14" font-weight="bold" lengthAdjust="spacing" textLength="106" x="204.5" y="205.1074">UserAggregate</text></g><!--cluster CandidateAggregate--><g id="cluster_CandidateAggregate"><rect fill="none" height="130" rx="2.5" ry="2.5" style="stroke:#000000;stroke-width:1.5;" width="160" x="155" y="7"/><text fill="#000000" font-family="sans-serif" font-size="14" font-weight="bold" lengthAdjust="spacing" textLength="144" x="163" y="24.1074">CandidateAggregate</text></g><!--class User--><g id="elem_User"><rect codeLine="6" fill="#F1F1F1" height="76.543" id="User" rx="2.5" ry="2.5" style="stroke:#181818;stroke-width:0.5;" width="71" x="199.5" y="225"/><ellipse cx="214.5" cy="255.2715" fill="#ADD1B2" rx="11" ry="11" style="stroke:#181818;stroke-width:1.0;"/><path d="M213.3594,256.0684 L213.3594,258.5684 L217.6875,258.5684 L217.6875,257.6465 Q217.6875,257.0371 217.9219,256.7715 Q218.1719,256.5059 218.5469,256.5059 Q218.9219,256.5059 219.1563,256.7715 Q219.3906,257.0371 219.3906,257.6465 L219.3906,260.2715 L211.3906,260.2715 Q210.7656,260.2715 210.5,260.0371 Q210.25,259.8027 210.25,259.4121 Q210.25,259.0371 210.5156,258.8027 Q210.7813,258.5684 211.3906,258.5684 L211.6563,258.5684 L211.6563,251.9121 L211.3906,251.9121 Q210.7656,251.9121 210.5,251.6777 Q210.25,251.4434 210.25,251.0527 Q210.25,250.6777 210.5,250.4434 Q210.7656,250.209 211.3906,250.209 L219.0156,250.209 L219.0156,252.8027 Q219.0156,253.4121 218.7813,253.6777 Q218.5625,253.9277 218.1719,253.9277 Q217.7969,253.9277 217.5625,253.6777 Q217.3281,253.4121 217.3281,252.8027 L217.3281,251.9121 L213.3594,251.9121 L213.3594,254.3652 L214.8438,254.3652 Q214.8438,253.709 214.9688,253.5215 Q215.2344,253.1152 215.7031,253.1152 Q216.0781,253.1152 216.3125,253.3809 Q216.5469,253.6309 216.5469,254.2402 L216.5469,256.209 Q216.5469,256.7559 216.4219,256.9434 Q216.1563,257.334 215.7031,257.334 Q215.2344,257.334 214.9688,256.9277 Q214.8438,256.7402 214.8438,256.0684 L213.3594,256.0684 Z " fill="#000000"/><text fill="#000000" font-family="sans-serif" font-size="12" font-style="italic" lengthAdjust="spacing" textLength="35" x="230.5" y="242.9492">&#171;root&#187;</text><text fill="#000000" font-family="sans-serif" font-size="12" font-style="italic" lengthAdjust="spacing" textLength="43" x="226.5" y="258.9102">&#171;entity&#187;</text><text fill="#000000" font-family="sans-serif" font-size="14" lengthAdjust="spacing" textLength="29" x="233.5" y="277.0293">User</text><line style="stroke:#181818;stroke-width:0.5;" x1="200.5" x2="269.5" y1="285.543" y2="285.543"/><line style="stroke:#181818;stroke-width:0.5;" x1="200.5" x2="269.5" y1="293.543" y2="293.543"/></g><!--class Name--><g id="elem_Name"><rect codeLine="9" fill="#F1F1F1" height="60.582" id="Name" rx="2.5" ry="2.5" style="stroke:#181818;stroke-width:0.5;" width="74" x="23" y="381"/><ellipse cx="38" cy="403.291" fill="#ADD1B2" rx="11" ry="11" style="stroke:#181818;stroke-width:1.0;"/><path d="M40.7656,399.166 Q40.9219,398.9473 41.1094,398.8379 Q41.2969,398.7285 41.5156,398.7285 Q41.8906,398.7285 42.125,398.9941 Q42.3594,399.2441 42.3594,399.8535 L42.3594,401.3066 Q42.3594,401.916 42.125,402.1816 Q41.8906,402.4473 41.5156,402.4473 Q41.1719,402.4473 40.9688,402.2441 Q40.7656,402.0566 40.6563,401.541 Q40.6094,401.1816 40.4219,400.9941 Q40.0938,400.6191 39.4844,400.4004 Q38.875,400.1816 38.25,400.1816 Q37.4844,400.1816 36.8438,400.5098 Q36.2188,400.8379 35.7188,401.5879 Q35.2344,402.3379 35.2344,403.3691 L35.2344,404.4629 Q35.2344,405.6973 36.125,406.5254 Q37.0156,407.3379 38.6094,407.3379 Q39.5469,407.3379 40.2031,407.0879 Q40.5938,406.9316 41.0156,406.4941 Q41.2813,406.2285 41.4219,406.1504 Q41.5781,406.0723 41.7813,406.0723 Q42.1094,406.0723 42.3594,406.3379 Q42.625,406.5879 42.625,406.9316 Q42.625,407.2754 42.2813,407.6816 Q41.7813,408.2598 40.9844,408.5879 Q39.9063,409.041 38.6094,409.041 Q37.0938,409.041 35.8906,408.416 Q34.9063,407.916 34.2188,406.8535 Q33.5313,405.7754 33.5313,404.4941 L33.5313,403.3379 Q33.5313,402.0098 34.1406,400.8691 Q34.7656,399.7129 35.8594,399.1035 Q36.9531,398.4785 38.1875,398.4785 Q38.9219,398.4785 39.5625,398.6504 Q40.2188,398.8066 40.7656,399.166 Z " fill="#000000"/><text fill="#000000" font-family="sans-serif" font-size="12" font-style="italic" lengthAdjust="spacing" textLength="46" x="50" y="398.9492">&#171;Value&#187;</text><text fill="#000000" font-family="sans-serif" font-size="14" lengthAdjust="spacing" textLength="36" x="55" y="417.0684">Name</text><line style="stroke:#181818;stroke-width:0.5;" x1="24" x2="96" y1="425.582" y2="425.582"/><line style="stroke:#181818;stroke-width:0.5;" x1="24" x2="96" y1="433.582" y2="433.582"/></g><!--class Email--><g id="elem_Email"><rect codeLine="12" fill="#F1F1F1" height="60.582" id="Email" rx="2.5" ry="2.5" style="stroke:#181818;stroke-width:0.5;" width="74" x="132" y="381"/><ellipse cx="147" cy="403.291" fill="#ADD1B2" rx="11" ry="11" style="stroke:#181818;stroke-width:1.0;"/><path d="M149.7656,399.166 Q149.9219,398.9473 150.1094,398.8379 Q150.2969,398.7285 150.5156,398.7285 Q150.8906,398.7285 151.125,398.9941 Q151.3594,399.2441 151.3594,399.8535 L151.3594,401.3066 Q151.3594,401.916 151.125,402.1816 Q150.8906,402.4473 150.5156,402.4473 Q150.1719,402.4473 149.9688,402.2441 Q149.7656,402.0566 149.6563,401.541 Q149.6094,401.1816 149.4219,400.9941 Q149.0938,400.6191 148.4844,400.4004 Q147.875,400.1816 147.25,400.1816 Q146.4844,400.1816 145.8438,400.5098 Q145.2188,400.8379 144.7188,401.5879 Q144.2344,402.3379 144.2344,403.3691 L144.2344,404.4629 Q144.2344,405.6973 145.125,406.5254 Q146.0156,407.3379 147.6094,407.3379 Q148.5469,407.3379 149.2031,407.0879 Q149.5938,406.9316 150.0156,406.4941 Q150.2813,406.2285 150.4219,406.1504 Q150.5781,406.0723 150.7813,406.0723 Q151.1094,406.0723 151.3594,406.3379 Q151.625,406.5879 151.625,406.9316 Q151.625,407.2754 151.2813,407.6816 Q150.7813,408.2598 149.9844,408.5879 Q148.9063,409.041 147.6094,409.041 Q146.0938,409.041 144.8906,408.416 Q143.9063,407.916 143.2188,406.8535 Q142.5313,405.7754 142.5313,404.4941 L142.5313,403.3379 Q142.5313,402.0098 143.1406,400.8691 Q143.7656,399.7129 144.8594,399.1035 Q145.9531,398.4785 147.1875,398.4785 Q147.9219,398.4785 148.5625,398.6504 Q149.2188,398.8066 149.7656,399.166 Z " fill="#000000"/><text fill="#000000" font-family="sans-serif" font-size="12" font-style="italic" lengthAdjust="spacing" textLength="46" x="159" y="398.9492">&#171;Value&#187;</text><text fill="#000000" font-family="sans-serif" font-size="14" lengthAdjust="spacing" textLength="34" x="165" y="417.0684">Email</text><line style="stroke:#181818;stroke-width:0.5;" x1="133" x2="205" y1="425.582" y2="425.582"/><line style="stroke:#181818;stroke-width:0.5;" x1="133" x2="205" y1="433.582" y2="433.582"/></g><!--class PhoneNumber--><g id="elem_PhoneNumber"><rect codeLine="15" fill="#F1F1F1" height="60.582" id="PhoneNumber" rx="2.5" ry="2.5" style="stroke:#181818;stroke-width:0.5;" width="122" x="241" y="381"/><ellipse cx="256" cy="403.291" fill="#ADD1B2" rx="11" ry="11" style="stroke:#181818;stroke-width:1.0;"/><path d="M258.7656,399.166 Q258.9219,398.9473 259.1094,398.8379 Q259.2969,398.7285 259.5156,398.7285 Q259.8906,398.7285 260.125,398.9941 Q260.3594,399.2441 260.3594,399.8535 L260.3594,401.3066 Q260.3594,401.916 260.125,402.1816 Q259.8906,402.4473 259.5156,402.4473 Q259.1719,402.4473 258.9688,402.2441 Q258.7656,402.0566 258.6563,401.541 Q258.6094,401.1816 258.4219,400.9941 Q258.0938,400.6191 257.4844,400.4004 Q256.875,400.1816 256.25,400.1816 Q255.4844,400.1816 254.8438,400.5098 Q254.2188,400.8379 253.7188,401.5879 Q253.2344,402.3379 253.2344,403.3691 L253.2344,404.4629 Q253.2344,405.6973 254.125,406.5254 Q255.0156,407.3379 256.6094,407.3379 Q257.5469,407.3379 258.2031,407.0879 Q258.5938,406.9316 259.0156,406.4941 Q259.2813,406.2285 259.4219,406.1504 Q259.5781,406.0723 259.7813,406.0723 Q260.1094,406.0723 260.3594,406.3379 Q260.625,406.5879 260.625,406.9316 Q260.625,407.2754 260.2813,407.6816 Q259.7813,408.2598 258.9844,408.5879 Q257.9063,409.041 256.6094,409.041 Q255.0938,409.041 253.8906,408.416 Q252.9063,407.916 252.2188,406.8535 Q251.5313,405.7754 251.5313,404.4941 L251.5313,403.3379 Q251.5313,402.0098 252.1406,400.8691 Q252.7656,399.7129 253.8594,399.1035 Q254.9531,398.4785 256.1875,398.4785 Q256.9219,398.4785 257.5625,398.6504 Q258.2188,398.8066 258.7656,399.166 Z " fill="#000000"/><text fill="#000000" font-family="sans-serif" font-size="12" font-style="italic" lengthAdjust="spacing" textLength="46" x="292" y="398.9492">&#171;Value&#187;</text><text fill="#000000" font-family="sans-serif" font-size="14" lengthAdjust="spacing" textLength="90" x="270" y="417.0684">PhoneNumber</text><line style="stroke:#181818;stroke-width:0.5;" x1="242" x2="362" y1="425.582" y2="425.582"/><line style="stroke:#181818;stroke-width:0.5;" x1="242" x2="362" y1="433.582" y2="433.582"/></g><!--class Password--><g id="elem_Password"><rect codeLine="18" fill="#F1F1F1" height="60.582" id="Password" rx="2.5" ry="2.5" style="stroke:#181818;stroke-width:0.5;" width="93" x="398.5" y="381"/><ellipse cx="413.5" cy="403.291" fill="#ADD1B2" rx="11" ry="11" style="stroke:#181818;stroke-width:1.0;"/><path d="M416.2656,399.166 Q416.4219,398.9473 416.6094,398.8379 Q416.7969,398.7285 417.0156,398.7285 Q417.3906,398.7285 417.625,398.9941 Q417.8594,399.2441 417.8594,399.8535 L417.8594,401.3066 Q417.8594,401.916 417.625,402.1816 Q417.3906,402.4473 417.0156,402.4473 Q416.6719,402.4473 416.4688,402.2441 Q416.2656,402.0566 416.1563,401.541 Q416.1094,401.1816 415.9219,400.9941 Q415.5938,400.6191 414.9844,400.4004 Q414.375,400.1816 413.75,400.1816 Q412.9844,400.1816 412.3438,400.5098 Q411.7188,400.8379 411.2188,401.5879 Q410.7344,402.3379 410.7344,403.3691 L410.7344,404.4629 Q410.7344,405.6973 411.625,406.5254 Q412.5156,407.3379 414.1094,407.3379 Q415.0469,407.3379 415.7031,407.0879 Q416.0938,406.9316 416.5156,406.4941 Q416.7813,406.2285 416.9219,406.1504 Q417.0781,406.0723 417.2813,406.0723 Q417.6094,406.0723 417.8594,406.3379 Q418.125,406.5879 418.125,406.9316 Q418.125,407.2754 417.7813,407.6816 Q417.2813,408.2598 416.4844,408.5879 Q415.4063,409.041 414.1094,409.041 Q412.5938,409.041 411.3906,408.416 Q410.4063,407.916 409.7188,406.8535 Q409.0313,405.7754 409.0313,404.4941 L409.0313,403.3379 Q409.0313,402.0098 409.6406,400.8691 Q410.2656,399.7129 411.3594,399.1035 Q412.4531,398.4785 413.6875,398.4785 Q414.4219,398.4785 415.0625,398.6504 Q415.7188,398.8066 416.2656,399.166 Z " fill="#000000"/><text fill="#000000" font-family="sans-serif" font-size="12" font-style="italic" lengthAdjust="spacing" textLength="46" x="435" y="398.9492">&#171;Value&#187;</text><text fill="#000000" font-family="sans-serif" font-size="14" lengthAdjust="spacing" textLength="61" x="427.5" y="417.0684">Password</text><line style="stroke:#181818;stroke-width:0.5;" x1="399.5" x2="490.5" y1="425.582" y2="425.582"/><line style="stroke:#181818;stroke-width:0.5;" x1="399.5" x2="490.5" y1="433.582" y2="433.582"/></g><!--class Candidate--><g id="elem_Candidate"><rect codeLine="24" fill="#F1F1F1" height="76.543" id="Candidate" rx="2.5" ry="2.5" style="stroke:#181818;stroke-width:0.5;" width="97" x="186.5" y="44"/><ellipse cx="201.5" cy="74.2715" fill="#ADD1B2" rx="11" ry="11" style="stroke:#181818;stroke-width:1.0;"/><path d="M200.3594,75.0684 L200.3594,77.5684 L204.6875,77.5684 L204.6875,76.6465 Q204.6875,76.0371 204.9219,75.7715 Q205.1719,75.5059 205.5469,75.5059 Q205.9219,75.5059 206.1563,75.7715 Q206.3906,76.0371 206.3906,76.6465 L206.3906,79.2715 L198.3906,79.2715 Q197.7656,79.2715 197.5,79.0371 Q197.25,78.8027 197.25,78.4121 Q197.25,78.0371 197.5156,77.8027 Q197.7813,77.5684 198.3906,77.5684 L198.6563,77.5684 L198.6563,70.9121 L198.3906,70.9121 Q197.7656,70.9121 197.5,70.6777 Q197.25,70.4434 197.25,70.0527 Q197.25,69.6777 197.5,69.4434 Q197.7656,69.209 198.3906,69.209 L206.0156,69.209 L206.0156,71.8027 Q206.0156,72.4121 205.7813,72.6777 Q205.5625,72.9277 205.1719,72.9277 Q204.7969,72.9277 204.5625,72.6777 Q204.3281,72.4121 204.3281,71.8027 L204.3281,70.9121 L200.3594,70.9121 L200.3594,73.3652 L201.8438,73.3652 Q201.8438,72.709 201.9688,72.5215 Q202.2344,72.1152 202.7031,72.1152 Q203.0781,72.1152 203.3125,72.3809 Q203.5469,72.6309 203.5469,73.2402 L203.5469,75.209 Q203.5469,75.7559 203.4219,75.9434 Q203.1563,76.334 202.7031,76.334 Q202.2344,76.334 201.9688,75.9277 Q201.8438,75.7402 201.8438,75.0684 L200.3594,75.0684 Z " fill="#000000"/><text fill="#000000" font-family="sans-serif" font-size="12" font-style="italic" lengthAdjust="spacing" textLength="43" x="226.5" y="61.9492">&#171;entity&#187;</text><text fill="#000000" font-family="sans-serif" font-size="12" font-style="italic" lengthAdjust="spacing" textLength="35" x="230.5" y="77.9102">&#171;root&#187;</text><text fill="#000000" font-family="sans-serif" font-size="14" lengthAdjust="spacing" textLength="65" x="215.5" y="96.0293">Candidate</text><line style="stroke:#181818;stroke-width:0.5;" x1="187.5" x2="282.5" y1="104.543" y2="104.543"/><line style="stroke:#181818;stroke-width:0.5;" x1="187.5" x2="282.5" y1="112.543" y2="112.543"/></g><!--link Candidate to User--><g id="link_Candidate_User"><path codeLine="29" d="M235,121.02 C235,149.81 235,189.56 235,219.61 " fill="none" id="Candidate-to-User" style="stroke:#181818;stroke-width:1.0;"/><polygon fill="#181818" points="235,224.72,239,215.72,235,219.72,231,215.72,235,224.72" style="stroke:#181818;stroke-width:1.0;"/><text fill="#000000" font-family="sans-serif" font-size="13" lengthAdjust="spacing" textLength="48" x="236" y="168.0283">includes</text><text fill="#000000" font-family="sans-serif" font-size="13" lengthAdjust="spacing" textLength="7" x="227.4422" y="142.6017">1</text><text fill="#000000" font-family="sans-serif" font-size="13" lengthAdjust="spacing" textLength="7" x="227.3984" y="213.6864">1</text></g><!--link User to Name--><g id="link_User_Name"><path codeLine="30" d="M199.16,294.4 C170.17,318.59 129.38,352.62 99.45,377.59 " fill="none" id="User-to-Name" style="stroke:#181818;stroke-width:1.0;"/><polygon fill="#181818" points="95.49,380.89,104.9608,378.1873,99.3264,377.6834,99.8303,372.0491,95.49,380.89" style="stroke:#181818;stroke-width:1.0;"/><text fill="#000000" font-family="sans-serif" font-size="13" lengthAdjust="spacing" textLength="21" x="153" y="347.0283">has</text><text fill="#000000" font-family="sans-serif" font-size="13" lengthAdjust="spacing" textLength="7" x="184.4149" y="295.912">1</text><text fill="#000000" font-family="sans-serif" font-size="13" lengthAdjust="spacing" textLength="7" x="95.0879" y="369.925">1</text></g><!--link User to PhoneNumber--><g id="link_User_PhoneNumber"><path codeLine="31" d="M252.25,302.1 C262.75,324.97 276.06,353.97 286.27,376.21 " fill="none" id="User-to-PhoneNumber" style="stroke:#181818;stroke-width:1.0;"/><polygon fill="#181818" points="288.39,380.85,288.27,371.0019,286.3038,376.306,280.9996,374.3398,288.39,380.85" style="stroke:#181818;stroke-width:1.0;"/><text fill="#000000" font-family="sans-serif" font-size="13" lengthAdjust="spacing" textLength="21" x="275" y="347.0283">has</text><text fill="#000000" font-family="sans-serif" font-size="13" lengthAdjust="spacing" textLength="7" x="247.4414" y="323.6945">1</text><text fill="#000000" font-family="sans-serif" font-size="13" lengthAdjust="spacing" textLength="7" x="277.8611" y="369.8767">1</text></g><!--link User to Email--><g id="link_User_Email"><path codeLine="32" d="M218,302.1 C207.66,324.97 194.56,353.97 184.5,376.21 " fill="none" id="User-to-Email" style="stroke:#181818;stroke-width:1.0;"/><polygon fill="#181818" points="182.4,380.85,189.7487,374.2928,184.4572,376.2928,182.4571,371.0013,182.4,380.85" style="stroke:#181818;stroke-width:1.0;"/><text fill="#000000" font-family="sans-serif" font-size="13" lengthAdjust="spacing" textLength="21" x="204" y="347.0283">has</text><text fill="#000000" font-family="sans-serif" font-size="13" lengthAdjust="spacing" textLength="7" x="207.7328" y="323.6945">1</text><text fill="#000000" font-family="sans-serif" font-size="13" lengthAdjust="spacing" textLength="7" x="177.4419" y="369.8767">1</text></g><!--link User to Password--><g id="link_User_Password"><path codeLine="33" d="M270.62,289.27 C305.74,313.68 359.59,351.12 398.15,377.93 " fill="none" id="User-to-Password" style="stroke:#181818;stroke-width:1.0;"/><polygon fill="#181818" points="402.3,380.82,397.1893,372.401,398.1932,377.968,392.6261,378.9719,402.3,380.82" style="stroke:#181818;stroke-width:1.0;"/><text fill="#000000" font-family="sans-serif" font-size="13" lengthAdjust="spacing" textLength="21" x="359" y="347.0283">has</text><text fill="#000000" font-family="sans-serif" font-size="13" lengthAdjust="spacing" textLength="7" x="278.6885" y="289.9374">1</text><text fill="#000000" font-family="sans-serif" font-size="13" lengthAdjust="spacing" textLength="7" x="385.7713" y="369.8406">1</text></g><!--SRC=[TP3D2i8m48Jl-nIBbvuyU1K9Y7WjWkXzRPSqD4qbIH4flhiXrJQbUidFVBCXCwvMvawM6hnJKPFaitzgHik59oCr0sGNntOlfML9dk5ZmvcAFR3noZ-ZZBkTRLilH3WCiX0zl00AJSvXJWq7SYNTSV0avDYGqh_HgMeDvrrpOplo58VbqTeIPp3Wx42cL6NuupB24eqnHfH4c69zteR9jTgiSBqMSOyLR56PGdSbEuZtr10Bs695FrYIyvzbQEdV_BU8WRy1]--></g></svg>