<?xml version="1.0" encoding="us-ascii" standalone="no"?><svg xmlns="http://www.w3.org/2000/svg" xmlns:xlink="http://www.w3.org/1999/xlink" contentStyleType="text/css" height="386px" preserveAspectRatio="none" style="width:582px;height:386px;background:#FFFFFF;" version="1.1" viewBox="0 0 582 386" width="582px" zoomAndPan="magnify"><defs/><g><!--class InterviewModel--><g id="elem_InterviewModel"><rect codeLine="2" fill="#F1F1F1" height="76.543" id="InterviewModel" rx="2.5" ry="2.5" style="stroke:#181818;stroke-width:0.5;" width="125" x="26.5" y="163"/><ellipse cx="41.5" cy="193.2715" fill="#ADD1B2" rx="11" ry="11" style="stroke:#181818;stroke-width:1.0;"/><path d="M40.3594,194.0684 L40.3594,196.5684 L44.6875,196.5684 L44.6875,195.6465 Q44.6875,195.0371 44.9219,194.7715 Q45.1719,194.5059 45.5469,194.5059 Q45.9219,194.5059 46.1563,194.7715 Q46.3906,195.0371 46.3906,195.6465 L46.3906,198.2715 L38.3906,198.2715 Q37.7656,198.2715 37.5,198.0371 Q37.25,197.8027 37.25,197.4121 Q37.25,197.0371 37.5156,196.8027 Q37.7813,196.5684 38.3906,196.5684 L38.6563,196.5684 L38.6563,189.9121 L38.3906,189.9121 Q37.7656,189.9121 37.5,189.6777 Q37.25,189.4434 37.25,189.0527 Q37.25,188.6777 37.5,188.4434 Q37.7656,188.209 38.3906,188.209 L46.0156,188.209 L46.0156,190.8027 Q46.0156,191.4121 45.7813,191.6777 Q45.5625,191.9277 45.1719,191.9277 Q44.7969,191.9277 44.5625,191.6777 Q44.3281,191.4121 44.3281,190.8027 L44.3281,189.9121 L40.3594,189.9121 L40.3594,192.3652 L41.8438,192.3652 Q41.8438,191.709 41.9688,191.5215 Q42.2344,191.1152 42.7031,191.1152 Q43.0781,191.1152 43.3125,191.3809 Q43.5469,191.6309 43.5469,192.2402 L43.5469,194.209 Q43.5469,194.7559 43.4219,194.9434 Q43.1563,195.334 42.7031,195.334 Q42.2344,195.334 41.9688,194.9277 Q41.8438,194.7402 41.8438,194.0684 L40.3594,194.0684 Z " fill="#000000"/><text fill="#000000" font-family="sans-serif" font-size="12" font-style="italic" lengthAdjust="spacing" textLength="35" x="84.5" y="180.9492">&#171;root&#187;</text><text fill="#000000" font-family="sans-serif" font-size="12" font-style="italic" lengthAdjust="spacing" textLength="43" x="80.5" y="196.9102">&#171;entity&#187;</text><text fill="#000000" font-family="sans-serif" font-size="14" lengthAdjust="spacing" textLength="93" x="55.5" y="215.0293">InterviewModel</text><line style="stroke:#181818;stroke-width:0.5;" x1="27.5" x2="150.5" y1="223.543" y2="223.543"/><line style="stroke:#181818;stroke-width:0.5;" x1="27.5" x2="150.5" y1="231.543" y2="231.543"/></g><!--class InterviewModelPlugin--><g id="elem_InterviewModelPlugin"><rect codeLine="6" fill="#F1F1F1" height="60.582" id="InterviewModelPlugin" rx="2.5" ry="2.5" style="stroke:#181818;stroke-width:0.5;" width="164" x="7" y="319"/><ellipse cx="22" cy="341.291" fill="#ADD1B2" rx="11" ry="11" style="stroke:#181818;stroke-width:1.0;"/><path d="M24.7656,337.166 Q24.9219,336.9473 25.1094,336.8379 Q25.2969,336.7285 25.5156,336.7285 Q25.8906,336.7285 26.125,336.9941 Q26.3594,337.2441 26.3594,337.8535 L26.3594,339.3066 Q26.3594,339.916 26.125,340.1816 Q25.8906,340.4473 25.5156,340.4473 Q25.1719,340.4473 24.9688,340.2441 Q24.7656,340.0566 24.6563,339.541 Q24.6094,339.1816 24.4219,338.9941 Q24.0938,338.6191 23.4844,338.4004 Q22.875,338.1816 22.25,338.1816 Q21.4844,338.1816 20.8438,338.5098 Q20.2188,338.8379 19.7188,339.5879 Q19.2344,340.3379 19.2344,341.3691 L19.2344,342.4629 Q19.2344,343.6973 20.125,344.5254 Q21.0156,345.3379 22.6094,345.3379 Q23.5469,345.3379 24.2031,345.0879 Q24.5938,344.9316 25.0156,344.4941 Q25.2813,344.2285 25.4219,344.1504 Q25.5781,344.0723 25.7813,344.0723 Q26.1094,344.0723 26.3594,344.3379 Q26.625,344.5879 26.625,344.9316 Q26.625,345.2754 26.2813,345.6816 Q25.7813,346.2598 24.9844,346.5879 Q23.9063,347.041 22.6094,347.041 Q21.0938,347.041 19.8906,346.416 Q18.9063,345.916 18.2188,344.8535 Q17.5313,343.7754 17.5313,342.4941 L17.5313,341.3379 Q17.5313,340.0098 18.1406,338.8691 Q18.7656,337.7129 19.8594,337.1035 Q20.9531,336.4785 22.1875,336.4785 Q22.9219,336.4785 23.5625,336.6504 Q24.2188,336.8066 24.7656,337.166 Z " fill="#000000"/><text fill="#000000" font-family="sans-serif" font-size="12" font-style="italic" lengthAdjust="spacing" textLength="46" x="79" y="336.9492">&#171;Value&#187;</text><text fill="#000000" font-family="sans-serif" font-size="14" lengthAdjust="spacing" textLength="132" x="36" y="355.0684">InterviewModelPlugin</text><line style="stroke:#181818;stroke-width:0.5;" x1="8" x2="170" y1="363.582" y2="363.582"/><line style="stroke:#181818;stroke-width:0.5;" x1="8" x2="170" y1="371.582" y2="371.582"/></g><!--class Interview--><g id="elem_Interview"><rect codeLine="8" fill="#F1F1F1" height="76.543" id="Interview" rx="2.5" ry="2.5" style="stroke:#181818;stroke-width:0.5;" width="87" x="284.5" y="7"/><ellipse cx="299.5" cy="37.2715" fill="#ADD1B2" rx="11" ry="11" style="stroke:#181818;stroke-width:1.0;"/><path d="M298.3594,38.0684 L298.3594,40.5684 L302.6875,40.5684 L302.6875,39.6465 Q302.6875,39.0371 302.9219,38.7715 Q303.1719,38.5059 303.5469,38.5059 Q303.9219,38.5059 304.1563,38.7715 Q304.3906,39.0371 304.3906,39.6465 L304.3906,42.2715 L296.3906,42.2715 Q295.7656,42.2715 295.5,42.0371 Q295.25,41.8027 295.25,41.4121 Q295.25,41.0371 295.5156,40.8027 Q295.7813,40.5684 296.3906,40.5684 L296.6563,40.5684 L296.6563,33.9121 L296.3906,33.9121 Q295.7656,33.9121 295.5,33.6777 Q295.25,33.4434 295.25,33.0527 Q295.25,32.6777 295.5,32.4434 Q295.7656,32.209 296.3906,32.209 L304.0156,32.209 L304.0156,34.8027 Q304.0156,35.4121 303.7813,35.6777 Q303.5625,35.9277 303.1719,35.9277 Q302.7969,35.9277 302.5625,35.6777 Q302.3281,35.4121 302.3281,34.8027 L302.3281,33.9121 L298.3594,33.9121 L298.3594,36.3652 L299.8438,36.3652 Q299.8438,35.709 299.9688,35.5215 Q300.2344,35.1152 300.7031,35.1152 Q301.0781,35.1152 301.3125,35.3809 Q301.5469,35.6309 301.5469,36.2402 L301.5469,38.209 Q301.5469,38.7559 301.4219,38.9434 Q301.1563,39.334 300.7031,39.334 Q300.2344,39.334 299.9688,38.9277 Q299.8438,38.7402 299.8438,38.0684 L298.3594,38.0684 Z " fill="#000000"/><text fill="#000000" font-family="sans-serif" font-size="12" font-style="italic" lengthAdjust="spacing" textLength="35" x="323.5" y="24.9492">&#171;root&#187;</text><text fill="#000000" font-family="sans-serif" font-size="12" font-style="italic" lengthAdjust="spacing" textLength="43" x="319.5" y="40.9102">&#171;entity&#187;</text><text fill="#000000" font-family="sans-serif" font-size="14" lengthAdjust="spacing" textLength="55" x="313.5" y="59.0293">Interview</text><line style="stroke:#181818;stroke-width:0.5;" x1="285.5" x2="370.5" y1="67.543" y2="67.543"/><line style="stroke:#181818;stroke-width:0.5;" x1="285.5" x2="370.5" y1="75.543" y2="75.543"/></g><!--class InterviewForms--><g id="elem_InterviewForms"><rect codeLine="12" fill="#F1F1F1" height="60.582" id="InterviewForms" rx="2.5" ry="2.5" style="stroke:#181818;stroke-width:0.5;" width="127" x="186.5" y="171"/><ellipse cx="201.5" cy="193.291" fill="#ADD1B2" rx="11" ry="11" style="stroke:#181818;stroke-width:1.0;"/><path d="M204.2656,189.166 Q204.4219,188.9473 204.6094,188.8379 Q204.7969,188.7285 205.0156,188.7285 Q205.3906,188.7285 205.625,188.9941 Q205.8594,189.2441 205.8594,189.8535 L205.8594,191.3066 Q205.8594,191.916 205.625,192.1816 Q205.3906,192.4473 205.0156,192.4473 Q204.6719,192.4473 204.4688,192.2441 Q204.2656,192.0566 204.1563,191.541 Q204.1094,191.1816 203.9219,190.9941 Q203.5938,190.6191 202.9844,190.4004 Q202.375,190.1816 201.75,190.1816 Q200.9844,190.1816 200.3438,190.5098 Q199.7188,190.8379 199.2188,191.5879 Q198.7344,192.3379 198.7344,193.3691 L198.7344,194.4629 Q198.7344,195.6973 199.625,196.5254 Q200.5156,197.3379 202.1094,197.3379 Q203.0469,197.3379 203.7031,197.0879 Q204.0938,196.9316 204.5156,196.4941 Q204.7813,196.2285 204.9219,196.1504 Q205.0781,196.0723 205.2813,196.0723 Q205.6094,196.0723 205.8594,196.3379 Q206.125,196.5879 206.125,196.9316 Q206.125,197.2754 205.7813,197.6816 Q205.2813,198.2598 204.4844,198.5879 Q203.4063,199.041 202.1094,199.041 Q200.5938,199.041 199.3906,198.416 Q198.4063,197.916 197.7188,196.8535 Q197.0313,195.7754 197.0313,194.4941 L197.0313,193.3379 Q197.0313,192.0098 197.6406,190.8691 Q198.2656,189.7129 199.3594,189.1035 Q200.4531,188.4785 201.6875,188.4785 Q202.4219,188.4785 203.0625,188.6504 Q203.7188,188.8066 204.2656,189.166 Z " fill="#000000"/><text fill="#000000" font-family="sans-serif" font-size="12" font-style="italic" lengthAdjust="spacing" textLength="46" x="240" y="188.9492">&#171;Value&#187;</text><text fill="#000000" font-family="sans-serif" font-size="14" lengthAdjust="spacing" textLength="95" x="215.5" y="207.0684">InterviewForms</text><line style="stroke:#181818;stroke-width:0.5;" x1="187.5" x2="312.5" y1="215.582" y2="215.582"/><line style="stroke:#181818;stroke-width:0.5;" x1="187.5" x2="312.5" y1="223.582" y2="223.582"/></g><!--class InterviewDate--><g id="elem_InterviewDate"><rect codeLine="16" fill="#F1F1F1" height="60.582" id="InterviewDate" rx="2.5" ry="2.5" style="stroke:#181818;stroke-width:0.5;" width="117" x="348.5" y="171"/><ellipse cx="363.5" cy="193.291" fill="#ADD1B2" rx="11" ry="11" style="stroke:#181818;stroke-width:1.0;"/><path d="M366.2656,189.166 Q366.4219,188.9473 366.6094,188.8379 Q366.7969,188.7285 367.0156,188.7285 Q367.3906,188.7285 367.625,188.9941 Q367.8594,189.2441 367.8594,189.8535 L367.8594,191.3066 Q367.8594,191.916 367.625,192.1816 Q367.3906,192.4473 367.0156,192.4473 Q366.6719,192.4473 366.4688,192.2441 Q366.2656,192.0566 366.1563,191.541 Q366.1094,191.1816 365.9219,190.9941 Q365.5938,190.6191 364.9844,190.4004 Q364.375,190.1816 363.75,190.1816 Q362.9844,190.1816 362.3438,190.5098 Q361.7188,190.8379 361.2188,191.5879 Q360.7344,192.3379 360.7344,193.3691 L360.7344,194.4629 Q360.7344,195.6973 361.625,196.5254 Q362.5156,197.3379 364.1094,197.3379 Q365.0469,197.3379 365.7031,197.0879 Q366.0938,196.9316 366.5156,196.4941 Q366.7813,196.2285 366.9219,196.1504 Q367.0781,196.0723 367.2813,196.0723 Q367.6094,196.0723 367.8594,196.3379 Q368.125,196.5879 368.125,196.9316 Q368.125,197.2754 367.7813,197.6816 Q367.2813,198.2598 366.4844,198.5879 Q365.4063,199.041 364.1094,199.041 Q362.5938,199.041 361.3906,198.416 Q360.4063,197.916 359.7188,196.8535 Q359.0313,195.7754 359.0313,194.4941 L359.0313,193.3379 Q359.0313,192.0098 359.6406,190.8691 Q360.2656,189.7129 361.3594,189.1035 Q362.4531,188.4785 363.6875,188.4785 Q364.4219,188.4785 365.0625,188.6504 Q365.7188,188.8066 366.2656,189.166 Z " fill="#000000"/><text fill="#000000" font-family="sans-serif" font-size="12" font-style="italic" lengthAdjust="spacing" textLength="46" x="397" y="188.9492">&#171;Value&#187;</text><text fill="#000000" font-family="sans-serif" font-size="14" lengthAdjust="spacing" textLength="85" x="377.5" y="207.0684">InterviewDate</text><line style="stroke:#181818;stroke-width:0.5;" x1="349.5" x2="464.5" y1="215.582" y2="215.582"/><line style="stroke:#181818;stroke-width:0.5;" x1="349.5" x2="464.5" y1="223.582" y2="223.582"/></g><!--class Score--><g id="elem_Score"><rect codeLine="20" fill="#F1F1F1" height="60.582" id="Score" rx="2.5" ry="2.5" style="stroke:#181818;stroke-width:0.5;" width="74" x="501" y="171"/><ellipse cx="516" cy="193.291" fill="#ADD1B2" rx="11" ry="11" style="stroke:#181818;stroke-width:1.0;"/><path d="M518.7656,189.166 Q518.9219,188.9473 519.1094,188.8379 Q519.2969,188.7285 519.5156,188.7285 Q519.8906,188.7285 520.125,188.9941 Q520.3594,189.2441 520.3594,189.8535 L520.3594,191.3066 Q520.3594,191.916 520.125,192.1816 Q519.8906,192.4473 519.5156,192.4473 Q519.1719,192.4473 518.9688,192.2441 Q518.7656,192.0566 518.6563,191.541 Q518.6094,191.1816 518.4219,190.9941 Q518.0938,190.6191 517.4844,190.4004 Q516.875,190.1816 516.25,190.1816 Q515.4844,190.1816 514.8438,190.5098 Q514.2188,190.8379 513.7188,191.5879 Q513.2344,192.3379 513.2344,193.3691 L513.2344,194.4629 Q513.2344,195.6973 514.125,196.5254 Q515.0156,197.3379 516.6094,197.3379 Q517.5469,197.3379 518.2031,197.0879 Q518.5938,196.9316 519.0156,196.4941 Q519.2813,196.2285 519.4219,196.1504 Q519.5781,196.0723 519.7813,196.0723 Q520.1094,196.0723 520.3594,196.3379 Q520.625,196.5879 520.625,196.9316 Q520.625,197.2754 520.2813,197.6816 Q519.7813,198.2598 518.9844,198.5879 Q517.9063,199.041 516.6094,199.041 Q515.0938,199.041 513.8906,198.416 Q512.9063,197.916 512.2188,196.8535 Q511.5313,195.7754 511.5313,194.4941 L511.5313,193.3379 Q511.5313,192.0098 512.1406,190.8691 Q512.7656,189.7129 513.8594,189.1035 Q514.9531,188.4785 516.1875,188.4785 Q516.9219,188.4785 517.5625,188.6504 Q518.2188,188.8066 518.7656,189.166 Z " fill="#000000"/><text fill="#000000" font-family="sans-serif" font-size="12" font-style="italic" lengthAdjust="spacing" textLength="46" x="528" y="188.9492">&#171;Value&#187;</text><text fill="#000000" font-family="sans-serif" font-size="14" lengthAdjust="spacing" textLength="37" x="532.5" y="207.0684">Score</text><line style="stroke:#181818;stroke-width:0.5;" x1="502" x2="574" y1="215.582" y2="215.582"/><line style="stroke:#181818;stroke-width:0.5;" x1="502" x2="574" y1="223.582" y2="223.582"/></g><!--link Interview to Score--><g id="link_Interview_Score"><path codeLine="24" d="M371.51,78.41 C408.22,105.33 460.42,143.61 496.54,170.09 " fill="none" id="Interview-to-Score" style="stroke:#181818;stroke-width:1.0;"/><polygon fill="#181818" points="500.86,173.26,495.9718,164.7099,496.8293,170.3013,491.2379,171.1589,500.86,173.26" style="stroke:#181818;stroke-width:1.0;"/><text fill="#000000" font-family="sans-serif" font-size="13" lengthAdjust="spacing" textLength="57" x="447" y="129.0283">generates</text><text fill="#000000" font-family="sans-serif" font-size="13" lengthAdjust="spacing" textLength="7" x="379.5898" y="79.6981">1</text><text fill="#000000" font-family="sans-serif" font-size="13" lengthAdjust="spacing" textLength="7" x="486.113" y="163.3523">1</text></g><!--link Interview to InterviewForms--><g id="link_Interview_InterviewForms"><path codeLine="25" d="M308.92,84.17 C296.23,109.22 279.71,141.85 267.39,166.17 " fill="none" id="Interview-to-InterviewForms" style="stroke:#181818;stroke-width:1.0;"/><polygon fill="#181818" points="264.98,170.92,272.6146,164.698,267.2389,166.4594,265.4775,161.0837,264.98,170.92" style="stroke:#181818;stroke-width:1.0;"/><text fill="#000000" font-family="sans-serif" font-size="13" lengthAdjust="spacing" textLength="7" x="298.4624" y="105.4785">1</text><text fill="#000000" font-family="sans-serif" font-size="13" lengthAdjust="spacing" textLength="7" x="260.3478" y="159.9612">1</text></g><!--link Interview to InterviewDate--><g id="link_Interview_InterviewDate"><path codeLine="26" d="M347.33,84.17 C360.17,109.22 376.91,141.85 389.39,166.17 " fill="none" id="Interview-to-InterviewDate" style="stroke:#181818;stroke-width:1.0;"/><polygon fill="#181818" points="391.83,170.92,391.2946,161.0857,389.5539,166.4681,384.1716,164.7274,391.83,170.92" style="stroke:#181818;stroke-width:1.0;"/><text fill="#000000" font-family="sans-serif" font-size="13" lengthAdjust="spacing" textLength="7" x="342.754" y="105.4785">1</text><text fill="#000000" font-family="sans-serif" font-size="13" lengthAdjust="spacing" textLength="7" x="380.9793" y="159.9612">1</text></g><!--link InterviewModel to InterviewModelPlugin--><g id="link_InterviewModel_InterviewModelPlugin"><path codeLine="29" d="M89,240.1 C89,262.78 89,291.48 89,313.65 " fill="none" id="InterviewModel-to-InterviewModelPlugin" style="stroke:#181818;stroke-width:1.0;"/><polygon fill="#181818" points="89,318.85,93,309.85,89,313.85,85,309.85,89,318.85" style="stroke:#181818;stroke-width:1.0;"/><text fill="#000000" font-family="sans-serif" font-size="13" lengthAdjust="spacing" textLength="21" x="90" y="285.0283">has</text><text fill="#000000" font-family="sans-serif" font-size="13" lengthAdjust="spacing" textLength="7" x="81.4422" y="261.6945">1</text><text fill="#000000" font-family="sans-serif" font-size="13" lengthAdjust="spacing" textLength="7" x="81.2781" y="307.8767">1</text></g><!--link Interview to InterviewModel--><g id="link_Interview_InterviewModel"><path codeLine="30" d="M284.44,74.57 C247.34,98.47 193.57,133.12 151.82,160.02 " fill="none" id="Interview-to-InterviewModel" style="stroke:#181818;stroke-width:1.0;"/><polygon fill="#181818" points="147.56,162.77,157.29,161.2445,151.7594,160.0561,152.9478,154.5255,147.56,162.77" style="stroke:#181818;stroke-width:1.0;"/><text fill="#000000" font-family="sans-serif" font-size="13" lengthAdjust="spacing" textLength="39" x="224" y="129.0283">follows</text><text fill="#000000" font-family="sans-serif" font-size="13" lengthAdjust="spacing" textLength="7" x="269.6457" y="75.0672">1</text><text fill="#000000" font-family="sans-serif" font-size="13" lengthAdjust="spacing" textLength="7" x="150.0234" y="151.7449">1</text></g><!--SRC=[ZP0z2y8m48Rt_8gZYrC7rn8oYU0W289xg6Sjn1magKMA_zrhAlQ3LftoSSyzzt9eGnaUiBC1tRt4UazdD58weg0KI8cnpjT6YASGkT7UJ-Y3gOhICdlIfaAb6kO09rwOSR8Ie8LXejsIk_bU28lWHWVymXrpSkFwkxpw6FZHPqpM2QIfYcVNcq615XsFyOlaEFPlh0tDr2X6NEImDNxCzm-Ndi5L_p6oisLm8MEezYy0]--></g></svg>