<?xml version="1.0" encoding="us-ascii" standalone="no"?><svg xmlns="http://www.w3.org/2000/svg" xmlns:xlink="http://www.w3.org/1999/xlink" contentStyleType="text/css" height="658px" preserveAspectRatio="none" style="width:1551px;height:658px;background:#FFFFFF;" version="1.1" viewBox="0 0 1551 658" width="1551px" zoomAndPan="magnify"><defs><filter height="300%" id="fa8px6ksoalgz" width="300%" x="-1" y="-1"><feGaussianBlur result="blurOut" stdDeviation="2.0"/><feColorMatrix in="blurOut" result="blurOut2" type="matrix" values="0 0 0 0 0 0 0 0 0 0 0 0 0 0 0 0 0 0 .4 0"/><feOffset dx="4.0" dy="4.0" in="blurOut2" result="blurOut3"/><feBlend in="SourceGraphic" in2="blurOut3" mode="normal"/></filter></defs><g><!--class GenerateInterviewFileUI--><g id="elem_GenerateInterviewFileUI"><rect codeLine="6" fill="#F1F1F1" filter="url(#fa8px6ksoalgz)" height="116.4453" id="GenerateInterviewFileUI" rx="2.5" ry="2.5" style="stroke:#181818;stroke-width:0.5;" width="209" x="162" y="7"/><ellipse cx="189.15" cy="29.291" fill="#ADD1B2" rx="11" ry="11" style="stroke:#181818;stroke-width:1.0;"/><path d="M191.9156,25.166 Q192.0719,24.9473 192.2594,24.8379 Q192.4469,24.7285 192.6656,24.7285 Q193.0406,24.7285 193.275,24.9941 Q193.5094,25.2441 193.5094,25.8535 L193.5094,27.3066 Q193.5094,27.916 193.275,28.1816 Q193.0406,28.4473 192.6656,28.4473 Q192.3219,28.4473 192.1188,28.2441 Q191.9156,28.0566 191.8063,27.541 Q191.7594,27.1816 191.5719,26.9941 Q191.2438,26.6191 190.6344,26.4004 Q190.025,26.1816 189.4,26.1816 Q188.6344,26.1816 187.9938,26.5098 Q187.3688,26.8379 186.8688,27.5879 Q186.3844,28.3379 186.3844,29.3691 L186.3844,30.4629 Q186.3844,31.6973 187.275,32.5254 Q188.1656,33.3379 189.7594,33.3379 Q190.6969,33.3379 191.3531,33.0879 Q191.7438,32.9316 192.1656,32.4941 Q192.4313,32.2285 192.5719,32.1504 Q192.7281,32.0723 192.9313,32.0723 Q193.2594,32.0723 193.5094,32.3379 Q193.775,32.5879 193.775,32.9316 Q193.775,33.2754 193.4313,33.6816 Q192.9313,34.2598 192.1344,34.5879 Q191.0563,35.041 189.7594,35.041 Q188.2438,35.041 187.0406,34.416 Q186.0563,33.916 185.3688,32.8535 Q184.6813,31.7754 184.6813,30.4941 L184.6813,29.3379 Q184.6813,28.0098 185.2906,26.8691 Q185.9156,25.7129 187.0094,25.1035 Q188.1031,24.4785 189.3375,24.4785 Q190.0719,24.4785 190.7125,24.6504 Q191.3688,24.8066 191.9156,25.166 Z " fill="#000000"/><text fill="#000000" font-family="FG Virgil" font-size="12" font-style="italic" lengthAdjust="spacing" textLength="82" x="239.85" y="24.9492">&#171;presentation&#187;</text><text fill="#000000" font-family="FG Virgil" font-size="14" lengthAdjust="spacing" textLength="150" x="205.85" y="43.0684">GenerateInterviewFileUI</text><line style="stroke:#181818;stroke-width:0.5;" x1="163" x2="370" y1="51.582" y2="51.582"/><line style="stroke:#181818;stroke-width:0.5;" x1="163" x2="370" y1="59.582" y2="59.582"/><ellipse cx="173" cy="74.3926" fill="#84BE84" rx="3" ry="3" style="stroke:#038048;stroke-width:1.0;"/><text fill="#000000" font-family="FG Virgil" font-size="14" lengthAdjust="spacing" textLength="60" x="182" y="78.6895">doShow()</text><ellipse cx="173" cy="93.0137" fill="#84BE84" rx="3" ry="3" style="stroke:#038048;stroke-width:1.0;"/><text fill="#000000" font-family="FG Virgil" font-size="14" lengthAdjust="spacing" textLength="64" x="182" y="97.3105">headline()</text><ellipse cx="173" cy="111.6348" fill="#84BE84" rx="3" ry="3" style="stroke:#038048;stroke-width:1.0;"/><text fill="#000000" font-family="FG Virgil" font-size="14" lengthAdjust="spacing" textLength="183" x="182" y="115.9316">showMenuAndGetSelection()</text></g><!--class GenerateInterviewFileController--><g id="elem_GenerateInterviewFileController"><rect codeLine="12" fill="#F1F1F1" filter="url(#fa8px6ksoalgz)" height="116.4453" id="GenerateInterviewFileController" rx="2.5" ry="2.5" style="stroke:#181818;stroke-width:0.5;" width="519" x="7" y="202"/><ellipse cx="162.25" cy="224.291" fill="#ADD1B2" rx="11" ry="11" style="stroke:#181818;stroke-width:1.0;"/><path d="M165.0156,220.166 Q165.1719,219.9473 165.3594,219.8379 Q165.5469,219.7285 165.7656,219.7285 Q166.1406,219.7285 166.375,219.9941 Q166.6094,220.2441 166.6094,220.8535 L166.6094,222.3066 Q166.6094,222.916 166.375,223.1816 Q166.1406,223.4473 165.7656,223.4473 Q165.4219,223.4473 165.2188,223.2441 Q165.0156,223.0566 164.9063,222.541 Q164.8594,222.1816 164.6719,221.9941 Q164.3438,221.6191 163.7344,221.4004 Q163.125,221.1816 162.5,221.1816 Q161.7344,221.1816 161.0938,221.5098 Q160.4688,221.8379 159.9688,222.5879 Q159.4844,223.3379 159.4844,224.3691 L159.4844,225.4629 Q159.4844,226.6973 160.375,227.5254 Q161.2656,228.3379 162.8594,228.3379 Q163.7969,228.3379 164.4531,228.0879 Q164.8438,227.9316 165.2656,227.4941 Q165.5313,227.2285 165.6719,227.1504 Q165.8281,227.0723 166.0313,227.0723 Q166.3594,227.0723 166.6094,227.3379 Q166.875,227.5879 166.875,227.9316 Q166.875,228.2754 166.5313,228.6816 Q166.0313,229.2598 165.2344,229.5879 Q164.1563,230.041 162.8594,230.041 Q161.3438,230.041 160.1406,229.416 Q159.1563,228.916 158.4688,227.8535 Q157.7813,226.7754 157.7813,225.4941 L157.7813,224.3379 Q157.7813,223.0098 158.3906,221.8691 Q159.0156,220.7129 160.1094,220.1035 Q161.2031,219.4785 162.4375,219.4785 Q163.1719,219.4785 163.8125,219.6504 Q164.4688,219.8066 165.0156,220.166 Z " fill="#000000"/><text fill="#000000" font-family="FG Virgil" font-size="12" font-style="italic" lengthAdjust="spacing" textLength="74" x="245.75" y="219.9492">&#171;application&#187;</text><text fill="#000000" font-family="FG Virgil" font-size="14" lengthAdjust="spacing" textLength="200" x="182.75" y="238.0684">GenerateInterviewFileController</text><line style="stroke:#181818;stroke-width:0.5;" x1="8" x2="525" y1="246.582" y2="246.582"/><line style="stroke:#181818;stroke-width:0.5;" x1="8" x2="525" y1="254.582" y2="254.582"/><ellipse cx="18" cy="269.3926" fill="#84BE84" rx="3" ry="3" style="stroke:#038048;stroke-width:1.0;"/><text fill="#000000" font-family="FG Virgil" font-size="14" lengthAdjust="spacing" textLength="276" x="27" y="273.6895">listAllJobOpenings() : Iterable&lt;JobOpening&gt;</text><ellipse cx="18" cy="288.0137" fill="#84BE84" rx="3" ry="3" style="stroke:#038048;stroke-width:1.0;"/><text fill="#000000" font-family="FG Virgil" font-size="14" lengthAdjust="spacing" textLength="466" x="27" y="292.3105">findPluginByJobReference(jobReference : JobReference) : InterviewModel</text><ellipse cx="18" cy="306.6348" fill="#84BE84" rx="3" ry="3" style="stroke:#038048;stroke-width:1.0;"/><text fill="#000000" font-family="FG Virgil" font-size="14" lengthAdjust="spacing" textLength="493" x="27" y="310.9316">generateAndExportInterviewTemplate(interviewModel : InterviewModel) : String</text></g><!--class PersistenceContext--><g id="elem_PersistenceContext"><rect codeLine="18" fill="#F1F1F1" filter="url(#fa8px6ksoalgz)" height="66.6211" id="PersistenceContext" rx="2.5" ry="2.5" style="stroke:#181818;stroke-width:0.5;" width="154" x="1039.5" y="226.5"/><ellipse cx="1054.5" cy="242.5" fill="#ADD1B2" rx="11" ry="11" style="stroke:#181818;stroke-width:1.0;"/><path d="M1057.2656,238.375 Q1057.4219,238.1563 1057.6094,238.0469 Q1057.7969,237.9375 1058.0156,237.9375 Q1058.3906,237.9375 1058.625,238.2031 Q1058.8594,238.4531 1058.8594,239.0625 L1058.8594,240.5156 Q1058.8594,241.125 1058.625,241.3906 Q1058.3906,241.6563 1058.0156,241.6563 Q1057.6719,241.6563 1057.4688,241.4531 Q1057.2656,241.2656 1057.1563,240.75 Q1057.1094,240.3906 1056.9219,240.2031 Q1056.5938,239.8281 1055.9844,239.6094 Q1055.375,239.3906 1054.75,239.3906 Q1053.9844,239.3906 1053.3438,239.7188 Q1052.7188,240.0469 1052.2188,240.7969 Q1051.7344,241.5469 1051.7344,242.5781 L1051.7344,243.6719 Q1051.7344,244.9063 1052.625,245.7344 Q1053.5156,246.5469 1055.1094,246.5469 Q1056.0469,246.5469 1056.7031,246.2969 Q1057.0938,246.1406 1057.5156,245.7031 Q1057.7813,245.4375 1057.9219,245.3594 Q1058.0781,245.2813 1058.2813,245.2813 Q1058.6094,245.2813 1058.8594,245.5469 Q1059.125,245.7969 1059.125,246.1406 Q1059.125,246.4844 1058.7813,246.8906 Q1058.2813,247.4688 1057.4844,247.7969 Q1056.4063,248.25 1055.1094,248.25 Q1053.5938,248.25 1052.3906,247.625 Q1051.4063,247.125 1050.7188,246.0625 Q1050.0313,244.9844 1050.0313,243.7031 L1050.0313,242.5469 Q1050.0313,241.2188 1050.6406,240.0781 Q1051.2656,238.9219 1052.3594,238.3125 Q1053.4531,237.6875 1054.6875,237.6875 Q1055.4219,237.6875 1056.0625,237.8594 Q1056.7188,238.0156 1057.2656,238.375 Z " fill="#000000"/><text fill="#000000" font-family="FG Virgil" font-size="14" lengthAdjust="spacing" textLength="122" x="1068.5" y="248.2969">PersistenceContext</text><line style="stroke:#181818;stroke-width:0.5;" x1="1040.5" x2="1192.5" y1="258.5" y2="258.5"/><line style="stroke:#181818;stroke-width:0.5;" x1="1040.5" x2="1192.5" y1="266.5" y2="266.5"/><ellipse cx="1050.5" cy="281.3105" fill="#84BE84" rx="3" ry="3" style="stroke:#038048;stroke-width:1.0;"/><text fill="#000000" font-family="FG Virgil" font-size="14" lengthAdjust="spacing" textLength="84" x="1059.5" y="285.6074">create(): void</text></g><!--class RepositoryFactory--><g id="elem_RepositoryFactory"><rect codeLine="22" fill="#F1F1F1" filter="url(#fa8px6ksoalgz)" height="103.8633" id="RepositoryFactory" rx="2.5" ry="2.5" style="stroke:#181818;stroke-width:0.5;" width="322" x="955.5" y="397"/><ellipse cx="1054.25" cy="413" fill="#ADD1B2" rx="11" ry="11" style="stroke:#181818;stroke-width:1.0;"/><path d="M1057.0156,408.875 Q1057.1719,408.6563 1057.3594,408.5469 Q1057.5469,408.4375 1057.7656,408.4375 Q1058.1406,408.4375 1058.375,408.7031 Q1058.6094,408.9531 1058.6094,409.5625 L1058.6094,411.0156 Q1058.6094,411.625 1058.375,411.8906 Q1058.1406,412.1563 1057.7656,412.1563 Q1057.4219,412.1563 1057.2188,411.9531 Q1057.0156,411.7656 1056.9063,411.25 Q1056.8594,410.8906 1056.6719,410.7031 Q1056.3438,410.3281 1055.7344,410.1094 Q1055.125,409.8906 1054.5,409.8906 Q1053.7344,409.8906 1053.0938,410.2188 Q1052.4688,410.5469 1051.9688,411.2969 Q1051.4844,412.0469 1051.4844,413.0781 L1051.4844,414.1719 Q1051.4844,415.4063 1052.375,416.2344 Q1053.2656,417.0469 1054.8594,417.0469 Q1055.7969,417.0469 1056.4531,416.7969 Q1056.8438,416.6406 1057.2656,416.2031 Q1057.5313,415.9375 1057.6719,415.8594 Q1057.8281,415.7813 1058.0313,415.7813 Q1058.3594,415.7813 1058.6094,416.0469 Q1058.875,416.2969 1058.875,416.6406 Q1058.875,416.9844 1058.5313,417.3906 Q1058.0313,417.9688 1057.2344,418.2969 Q1056.1563,418.75 1054.8594,418.75 Q1053.3438,418.75 1052.1406,418.125 Q1051.1563,417.625 1050.4688,416.5625 Q1049.7813,415.4844 1049.7813,414.2031 L1049.7813,413.0469 Q1049.7813,411.7188 1050.3906,410.5781 Q1051.0156,409.4219 1052.1094,408.8125 Q1053.2031,408.1875 1054.4375,408.1875 Q1055.1719,408.1875 1055.8125,408.3594 Q1056.4688,408.5156 1057.0156,408.875 Z " fill="#000000"/><text fill="#000000" font-family="FG Virgil" font-size="14" lengthAdjust="spacing" textLength="116" x="1074.75" y="418.7969">RepositoryFactory</text><line style="stroke:#181818;stroke-width:0.5;" x1="956.5" x2="1276.5" y1="429" y2="429"/><line style="stroke:#181818;stroke-width:0.5;" x1="956.5" x2="1276.5" y1="437" y2="437"/><ellipse cx="966.5" cy="451.8105" fill="#84BE84" rx="3" ry="3" style="stroke:#038048;stroke-width:1.0;"/><text fill="#000000" font-family="FG Virgil" font-size="14" lengthAdjust="spacing" textLength="87" x="975.5" y="456.1074">factory(): void</text><ellipse cx="966.5" cy="470.4316" fill="#84BE84" rx="3" ry="3" style="stroke:#038048;stroke-width:1.0;"/><text fill="#000000" font-family="FG Virgil" font-size="14" lengthAdjust="spacing" textLength="242" x="975.5" y="474.7285">jobOpenings(): JobOpeningRepository</text><ellipse cx="966.5" cy="489.0527" fill="#84BE84" rx="3" ry="3" style="stroke:#038048;stroke-width:1.0;"/><text fill="#000000" font-family="FG Virgil" font-size="14" lengthAdjust="spacing" textLength="296" x="975.5" y="493.3496">interviewModels(): JobRequirementsRepository</text></g><!--class JobOpeningRepository--><g id="elem_JobOpeningRepository"><rect codeLine="28" fill="#F1F1F1" filter="url(#fa8px6ksoalgz)" height="66.6211" id="JobOpeningRepository" rx="2.5" ry="2.5" style="stroke:#181818;stroke-width:0.5;" width="260" x="790.5" y="580"/><ellipse cx="844.25" cy="596" fill="#ADD1B2" rx="11" ry="11" style="stroke:#181818;stroke-width:1.0;"/><path d="M847.0156,591.875 Q847.1719,591.6563 847.3594,591.5469 Q847.5469,591.4375 847.7656,591.4375 Q848.1406,591.4375 848.375,591.7031 Q848.6094,591.9531 848.6094,592.5625 L848.6094,594.0156 Q848.6094,594.625 848.375,594.8906 Q848.1406,595.1563 847.7656,595.1563 Q847.4219,595.1563 847.2188,594.9531 Q847.0156,594.7656 846.9063,594.25 Q846.8594,593.8906 846.6719,593.7031 Q846.3438,593.3281 845.7344,593.1094 Q845.125,592.8906 844.5,592.8906 Q843.7344,592.8906 843.0938,593.2188 Q842.4688,593.5469 841.9688,594.2969 Q841.4844,595.0469 841.4844,596.0781 L841.4844,597.1719 Q841.4844,598.4063 842.375,599.2344 Q843.2656,600.0469 844.8594,600.0469 Q845.7969,600.0469 846.4531,599.7969 Q846.8438,599.6406 847.2656,599.2031 Q847.5313,598.9375 847.6719,598.8594 Q847.8281,598.7813 848.0313,598.7813 Q848.3594,598.7813 848.6094,599.0469 Q848.875,599.2969 848.875,599.6406 Q848.875,599.9844 848.5313,600.3906 Q848.0313,600.9688 847.2344,601.2969 Q846.1563,601.75 844.8594,601.75 Q843.3438,601.75 842.1406,601.125 Q841.1563,600.625 840.4688,599.5625 Q839.7813,598.4844 839.7813,597.2031 L839.7813,596.0469 Q839.7813,594.7188 840.3906,593.5781 Q841.0156,592.4219 842.1094,591.8125 Q843.2031,591.1875 844.4375,591.1875 Q845.1719,591.1875 845.8125,591.3594 Q846.4688,591.5156 847.0156,591.875 Z " fill="#000000"/><text fill="#000000" font-family="FG Virgil" font-size="14" lengthAdjust="spacing" textLength="144" x="864.75" y="601.7969">JobOpeningRepository</text><line style="stroke:#181818;stroke-width:0.5;" x1="791.5" x2="1049.5" y1="612" y2="612"/><line style="stroke:#181818;stroke-width:0.5;" x1="791.5" x2="1049.5" y1="620" y2="620"/><ellipse cx="801.5" cy="634.8105" fill="#84BE84" rx="3" ry="3" style="stroke:#038048;stroke-width:1.0;"/><text fill="#000000" font-family="FG Virgil" font-size="14" lengthAdjust="spacing" textLength="234" x="810.5" y="639.1074">findAllOpen() : Iterable&lt;JobOpening&gt;</text></g><!--class InterviewModelRepository--><g id="elem_InterviewModelRepository"><rect codeLine="32" fill="#F1F1F1" filter="url(#fa8px6ksoalgz)" height="66.6211" id="InterviewModelRepository" rx="2.5" ry="2.5" style="stroke:#181818;stroke-width:0.5;" width="453" x="1086" y="580"/><ellipse cx="1227.75" cy="596" fill="#ADD1B2" rx="11" ry="11" style="stroke:#181818;stroke-width:1.0;"/><path d="M1230.5156,591.875 Q1230.6719,591.6563 1230.8594,591.5469 Q1231.0469,591.4375 1231.2656,591.4375 Q1231.6406,591.4375 1231.875,591.7031 Q1232.1094,591.9531 1232.1094,592.5625 L1232.1094,594.0156 Q1232.1094,594.625 1231.875,594.8906 Q1231.6406,595.1563 1231.2656,595.1563 Q1230.9219,595.1563 1230.7188,594.9531 Q1230.5156,594.7656 1230.4063,594.25 Q1230.3594,593.8906 1230.1719,593.7031 Q1229.8438,593.3281 1229.2344,593.1094 Q1228.625,592.8906 1228,592.8906 Q1227.2344,592.8906 1226.5938,593.2188 Q1225.9688,593.5469 1225.4688,594.2969 Q1224.9844,595.0469 1224.9844,596.0781 L1224.9844,597.1719 Q1224.9844,598.4063 1225.875,599.2344 Q1226.7656,600.0469 1228.3594,600.0469 Q1229.2969,600.0469 1229.9531,599.7969 Q1230.3438,599.6406 1230.7656,599.2031 Q1231.0313,598.9375 1231.1719,598.8594 Q1231.3281,598.7813 1231.5313,598.7813 Q1231.8594,598.7813 1232.1094,599.0469 Q1232.375,599.2969 1232.375,599.6406 Q1232.375,599.9844 1232.0313,600.3906 Q1231.5313,600.9688 1230.7344,601.2969 Q1229.6563,601.75 1228.3594,601.75 Q1226.8438,601.75 1225.6406,601.125 Q1224.6563,600.625 1223.9688,599.5625 Q1223.2813,598.4844 1223.2813,597.2031 L1223.2813,596.0469 Q1223.2813,594.7188 1223.8906,593.5781 Q1224.5156,592.4219 1225.6094,591.8125 Q1226.7031,591.1875 1227.9375,591.1875 Q1228.6719,591.1875 1229.3125,591.3594 Q1229.9688,591.5156 1230.5156,591.875 Z " fill="#000000"/><text fill="#000000" font-family="FG Virgil" font-size="14" lengthAdjust="spacing" textLength="161" x="1248.25" y="601.7969">InterviewModelRepository</text><line style="stroke:#181818;stroke-width:0.5;" x1="1087" x2="1538" y1="612" y2="612"/><line style="stroke:#181818;stroke-width:0.5;" x1="1087" x2="1538" y1="620" y2="620"/><ellipse cx="1097" cy="634.8105" fill="#84BE84" rx="3" ry="3" style="stroke:#038048;stroke-width:1.0;"/><text fill="#000000" font-family="FG Virgil" font-size="14" lengthAdjust="spacing" textLength="427" x="1106" y="639.1074">findByJobReference(jobReference : JobReference) : InterviewModel</text></g><!--class InterviewModelPlugin--><g id="elem_InterviewModelPlugin"><rect codeLine="36" fill="#F1F1F1" filter="url(#fa8px6ksoalgz)" height="66.6211" id="InterviewModelPlugin" rx="2.5" ry="2.5" style="stroke:#181818;stroke-width:0.5;" width="321" x="683" y="226.5"/><ellipse cx="773.25" cy="242.5" fill="#ADD1B2" rx="11" ry="11" style="stroke:#181818;stroke-width:1.0;"/><path d="M776.0156,238.375 Q776.1719,238.1563 776.3594,238.0469 Q776.5469,237.9375 776.7656,237.9375 Q777.1406,237.9375 777.375,238.2031 Q777.6094,238.4531 777.6094,239.0625 L777.6094,240.5156 Q777.6094,241.125 777.375,241.3906 Q777.1406,241.6563 776.7656,241.6563 Q776.4219,241.6563 776.2188,241.4531 Q776.0156,241.2656 775.9063,240.75 Q775.8594,240.3906 775.6719,240.2031 Q775.3438,239.8281 774.7344,239.6094 Q774.125,239.3906 773.5,239.3906 Q772.7344,239.3906 772.0938,239.7188 Q771.4688,240.0469 770.9688,240.7969 Q770.4844,241.5469 770.4844,242.5781 L770.4844,243.6719 Q770.4844,244.9063 771.375,245.7344 Q772.2656,246.5469 773.8594,246.5469 Q774.7969,246.5469 775.4531,246.2969 Q775.8438,246.1406 776.2656,245.7031 Q776.5313,245.4375 776.6719,245.3594 Q776.8281,245.2813 777.0313,245.2813 Q777.3594,245.2813 777.6094,245.5469 Q777.875,245.7969 777.875,246.1406 Q777.875,246.4844 777.5313,246.8906 Q777.0313,247.4688 776.2344,247.7969 Q775.1563,248.25 773.8594,248.25 Q772.3438,248.25 771.1406,247.625 Q770.1563,247.125 769.4688,246.0625 Q768.7813,244.9844 768.7813,243.7031 L768.7813,242.5469 Q768.7813,241.2188 769.3906,240.0781 Q770.0156,238.9219 771.1094,238.3125 Q772.2031,237.6875 773.4375,237.6875 Q774.1719,237.6875 774.8125,237.8594 Q775.4688,238.0156 776.0156,238.375 Z " fill="#000000"/><text fill="#000000" font-family="FG Virgil" font-size="14" lengthAdjust="spacing" textLength="132" x="793.75" y="248.2969">InterviewModelPlugin</text><line style="stroke:#181818;stroke-width:0.5;" x1="684" x2="1003" y1="258.5" y2="258.5"/><line style="stroke:#181818;stroke-width:0.5;" x1="684" x2="1003" y1="266.5" y2="266.5"/><ellipse cx="694" cy="281.3105" fill="#84BE84" rx="3" ry="3" style="stroke:#038048;stroke-width:1.0;"/><text fill="#000000" font-family="FG Virgil" font-size="14" lengthAdjust="spacing" textLength="295" x="703" y="285.6074">generateAndExportInterviewTemplate() : String</text></g><!--link GenerateInterviewFileUI to GenerateInterviewFileController--><g id="link_GenerateInterviewFileUI_GenerateInterviewFileController"><path codeLine="40" d="M266.5,123.12 C266.5,146.17 266.5,172.83 266.5,196.4 " fill="none" id="GenerateInterviewFileUI-to-GenerateInterviewFileController" style="stroke:#181818;stroke-width:1.0;"/><polygon fill="#181818" points="266.5,201.69,270.5,192.69,266.5,196.69,262.5,192.69,266.5,201.69" style="stroke:#181818;stroke-width:1.0;"/><text fill="#000000" font-family="FG Virgil" font-size="13" lengthAdjust="spacing" textLength="75" x="267.5" y="168.0283">the controller</text></g><!--link GenerateInterviewFileController to PersistenceContext--><g id="link_GenerateInterviewFileController_PersistenceContext"><path codeLine="41" d="M471.36,201.94 C574.53,178.88 701.85,159.77 817,169 C908.77,176.36 935.15,170.08 1021.5,202 C1036.32,207.48 1051.36,215.37 1064.97,223.58 " fill="none" id="GenerateInterviewFileController-to-PersistenceContext" style="stroke:#181818;stroke-width:1.0;"/><polygon fill="#181818" points="1069.53,226.37,1063.9341,218.2653,1065.2629,223.7639,1059.7643,225.0927,1069.53,226.37" style="stroke:#181818;stroke-width:1.0;"/><text fill="#000000" font-family="FG Virgil" font-size="13" lengthAdjust="spacing" textLength="67" x="749" y="168.0283">persistence</text></g><!--link PersistenceContext to RepositoryFactory--><g id="link_PersistenceContext_RepositoryFactory"><path codeLine="42" d="M1116.5,293.57 C1116.5,320.59 1116.5,359.63 1116.5,391.69 " fill="none" id="PersistenceContext-to-RepositoryFactory" style="stroke:#181818;stroke-width:1.0;"/><polygon fill="#181818" points="1116.5,396.78,1120.5,387.78,1116.5,391.78,1112.5,387.78,1116.5,396.78" style="stroke:#181818;stroke-width:1.0;"/><text fill="#000000" font-family="FG Virgil" font-size="13" lengthAdjust="spacing" textLength="39" x="1117.5" y="363.0283">factory</text></g><!--link RepositoryFactory to JobOpeningRepository--><g id="link_RepositoryFactory_JobOpeningRepository"><path codeLine="43" d="M1054.75,501.19 C1025.13,525.75 990.36,554.58 963.63,576.75 " fill="none" id="RepositoryFactory-to-JobOpeningRepository" style="stroke:#181818;stroke-width:1.0;"/><polygon fill="#181818" points="959.74,579.97,969.2157,577.2847,963.5823,576.7705,964.0965,571.137,959.74,579.97" style="stroke:#181818;stroke-width:1.0;"/><text fill="#000000" font-family="FG Virgil" font-size="13" lengthAdjust="spacing" textLength="127" x="1019.5" y="546.0283">jobOpeningRepository</text></g><!--link RepositoryFactory to InterviewModelRepository--><g id="link_RepositoryFactory_InterviewModelRepository"><path codeLine="44" d="M1178.25,501.19 C1207.87,525.75 1242.64,554.58 1269.37,576.75 " fill="none" id="RepositoryFactory-to-InterviewModelRepository" style="stroke:#181818;stroke-width:1.0;"/><polygon fill="#181818" points="1273.26,579.97,1268.9035,571.137,1269.4177,576.7705,1263.7843,577.2847,1273.26,579.97" style="stroke:#181818;stroke-width:1.0;"/><text fill="#000000" font-family="FG Virgil" font-size="13" lengthAdjust="spacing" textLength="146" x="1232.5" y="546.0283">InterviewModelRepository</text></g><!--link GenerateInterviewFileController to InterviewModelPlugin--><g id="link_GenerateInterviewFileController_InterviewModelPlugin"><path codeLine="45" d="M526.3,260 C577.68,260 630.27,260 677.5,260 " fill="none" id="GenerateInterviewFileController-to-InterviewModelPlugin" style="stroke:#181818;stroke-width:1.0;"/><polygon fill="#181818" points="682.64,260,673.64,256,677.64,260,673.64,264,682.64,260" style="stroke:#181818;stroke-width:1.0;"/><text fill="#000000" font-family="FG Virgil" font-size="13" lengthAdjust="spacing" textLength="120" x="544.5" y="253.0283">interviewModelPlugin</text></g><!--SRC=[fLFBRjim4BphA_PM6q5-G30Cf4Ljk43Qm6vxPwInJ8ScMPAAOmJzzoujwrLBJO3gGYrdTtRsmG_-IMehd3WapHzPaJs90fjmKY27B7Im75jHgh0mEdmL1z1YIJ-bAwJg-FYToCrHweA2Av4acHBUqn8QJWIiT81xbZWkfCAF5Srcri531n6aqVCvlIR4tqrkDZjpd4mhQmUHAwbHsvwnU-ZoJkTBX0qKo-HmXd__C-4d5kwCKd2SM5YhPFPNNYLzk5FgYtdyPg6v2Z-PKaeh9X6F2hCMc5S1Mwdp1rKMKdyyCRZ65WuwmsJVCPYXYvqPQrtt9eUgk8gBPYxhyuirBZHEtt6mYf69x8LTyKJcJN0ih-t40vpdgcBYM3zUGbrivX0vfoaz6vct4MjOusKmxhGGMJpgW6rbDX7dotstL-T2BsPBKpdsjTVEQ_mgfSE1Ty1t8XenGtnHpmt5rlEi8Ze-f8QdtwW-5rtO_ck48vcgvNXDtZFT_lZ6tipjxVojzKufx41POoTlFGUc7DYJb6nxcGmuH2dNsvBIPL6IQon638uqfVtGvWmpZ0up7ONUquAXoJ6b7BXE_W00]--></g></svg>