<?xml version="1.0" encoding="us-ascii" standalone="no"?><svg xmlns="http://www.w3.org/2000/svg" xmlns:xlink="http://www.w3.org/1999/xlink" contentStyleType="text/css" height="645px" preserveAspectRatio="none" style="width:514px;height:645px;background:#FFFFFF;" version="1.1" viewBox="0 0 514 645" width="514px" zoomAndPan="magnify"><defs/><g><!--cluster UserAggregate--><g id="cluster_UserAggregate"><rect fill="none" height="270" rx="2.5" ry="2.5" style="stroke:#000000;stroke-width:1.5;" width="501" x="7" y="369"/><text fill="#000000" font-family="sans-serif" font-size="14" font-weight="bold" lengthAdjust="spacing" textLength="106" x="204.5" y="386.1074">UserAggregate</text></g><!--cluster CustomerManagerAggregate--><g id="cluster_CustomerManagerAggregate"><rect fill="none" height="130" rx="2.5" ry="2.5" style="stroke:#000000;stroke-width:1.5;" width="219" x="132" y="7"/><text fill="#000000" font-family="sans-serif" font-size="14" font-weight="bold" lengthAdjust="spacing" textLength="203" x="140" y="24.1074">CustomerManagerAggregate</text></g><!--cluster CustomerAggregate--><g id="cluster_CustomerAggregate"><rect fill="none" height="130" rx="2.5" ry="2.5" style="stroke:#000000;stroke-width:1.5;" width="157" x="261" y="188"/><text fill="#000000" font-family="sans-serif" font-size="14" font-weight="bold" lengthAdjust="spacing" textLength="141" x="269" y="205.1074">CustomerAggregate</text></g><!--class User--><g id="elem_User"><rect codeLine="6" fill="#F1F1F1" height="76.543" id="User" rx="2.5" ry="2.5" style="stroke:#181818;stroke-width:0.5;" width="71" x="199.5" y="406"/><ellipse cx="214.5" cy="436.2715" fill="#ADD1B2" rx="11" ry="11" style="stroke:#181818;stroke-width:1.0;"/><path d="M213.3594,437.0684 L213.3594,439.5684 L217.6875,439.5684 L217.6875,438.6465 Q217.6875,438.0371 217.9219,437.7715 Q218.1719,437.5059 218.5469,437.5059 Q218.9219,437.5059 219.1563,437.7715 Q219.3906,438.0371 219.3906,438.6465 L219.3906,441.2715 L211.3906,441.2715 Q210.7656,441.2715 210.5,441.0371 Q210.25,440.8027 210.25,440.4121 Q210.25,440.0371 210.5156,439.8027 Q210.7813,439.5684 211.3906,439.5684 L211.6563,439.5684 L211.6563,432.9121 L211.3906,432.9121 Q210.7656,432.9121 210.5,432.6777 Q210.25,432.4434 210.25,432.0527 Q210.25,431.6777 210.5,431.4434 Q210.7656,431.209 211.3906,431.209 L219.0156,431.209 L219.0156,433.8027 Q219.0156,434.4121 218.7813,434.6777 Q218.5625,434.9277 218.1719,434.9277 Q217.7969,434.9277 217.5625,434.6777 Q217.3281,434.4121 217.3281,433.8027 L217.3281,432.9121 L213.3594,432.9121 L213.3594,435.3652 L214.8438,435.3652 Q214.8438,434.709 214.9688,434.5215 Q215.2344,434.1152 215.7031,434.1152 Q216.0781,434.1152 216.3125,434.3809 Q216.5469,434.6309 216.5469,435.2402 L216.5469,437.209 Q216.5469,437.7559 216.4219,437.9434 Q216.1563,438.334 215.7031,438.334 Q215.2344,438.334 214.9688,437.9277 Q214.8438,437.7402 214.8438,437.0684 L213.3594,437.0684 Z " fill="#000000"/><text fill="#000000" font-family="sans-serif" font-size="12" font-style="italic" lengthAdjust="spacing" textLength="35" x="230.5" y="423.9492">&#171;root&#187;</text><text fill="#000000" font-family="sans-serif" font-size="12" font-style="italic" lengthAdjust="spacing" textLength="43" x="226.5" y="439.9102">&#171;entity&#187;</text><text fill="#000000" font-family="sans-serif" font-size="14" lengthAdjust="spacing" textLength="29" x="233.5" y="458.0293">User</text><line style="stroke:#181818;stroke-width:0.5;" x1="200.5" x2="269.5" y1="466.543" y2="466.543"/><line style="stroke:#181818;stroke-width:0.5;" x1="200.5" x2="269.5" y1="474.543" y2="474.543"/></g><!--class Name--><g id="elem_Name"><rect codeLine="9" fill="#F1F1F1" height="60.582" id="Name" rx="2.5" ry="2.5" style="stroke:#181818;stroke-width:0.5;" width="74" x="23" y="562"/><ellipse cx="38" cy="584.291" fill="#ADD1B2" rx="11" ry="11" style="stroke:#181818;stroke-width:1.0;"/><path d="M40.7656,580.166 Q40.9219,579.9473 41.1094,579.8379 Q41.2969,579.7285 41.5156,579.7285 Q41.8906,579.7285 42.125,579.9941 Q42.3594,580.2441 42.3594,580.8535 L42.3594,582.3066 Q42.3594,582.916 42.125,583.1816 Q41.8906,583.4473 41.5156,583.4473 Q41.1719,583.4473 40.9688,583.2441 Q40.7656,583.0566 40.6563,582.541 Q40.6094,582.1816 40.4219,581.9941 Q40.0938,581.6191 39.4844,581.4004 Q38.875,581.1816 38.25,581.1816 Q37.4844,581.1816 36.8438,581.5098 Q36.2188,581.8379 35.7188,582.5879 Q35.2344,583.3379 35.2344,584.3691 L35.2344,585.4629 Q35.2344,586.6973 36.125,587.5254 Q37.0156,588.3379 38.6094,588.3379 Q39.5469,588.3379 40.2031,588.0879 Q40.5938,587.9316 41.0156,587.4941 Q41.2813,587.2285 41.4219,587.1504 Q41.5781,587.0723 41.7813,587.0723 Q42.1094,587.0723 42.3594,587.3379 Q42.625,587.5879 42.625,587.9316 Q42.625,588.2754 42.2813,588.6816 Q41.7813,589.2598 40.9844,589.5879 Q39.9063,590.041 38.6094,590.041 Q37.0938,590.041 35.8906,589.416 Q34.9063,588.916 34.2188,587.8535 Q33.5313,586.7754 33.5313,585.4941 L33.5313,584.3379 Q33.5313,583.0098 34.1406,581.8691 Q34.7656,580.7129 35.8594,580.1035 Q36.9531,579.4785 38.1875,579.4785 Q38.9219,579.4785 39.5625,579.6504 Q40.2188,579.8066 40.7656,580.166 Z " fill="#000000"/><text fill="#000000" font-family="sans-serif" font-size="12" font-style="italic" lengthAdjust="spacing" textLength="46" x="50" y="579.9492">&#171;Value&#187;</text><text fill="#000000" font-family="sans-serif" font-size="14" lengthAdjust="spacing" textLength="36" x="55" y="598.0684">Name</text><line style="stroke:#181818;stroke-width:0.5;" x1="24" x2="96" y1="606.582" y2="606.582"/><line style="stroke:#181818;stroke-width:0.5;" x1="24" x2="96" y1="614.582" y2="614.582"/></g><!--class Email--><g id="elem_Email"><rect codeLine="12" fill="#F1F1F1" height="60.582" id="Email" rx="2.5" ry="2.5" style="stroke:#181818;stroke-width:0.5;" width="74" x="132" y="562"/><ellipse cx="147" cy="584.291" fill="#ADD1B2" rx="11" ry="11" style="stroke:#181818;stroke-width:1.0;"/><path d="M149.7656,580.166 Q149.9219,579.9473 150.1094,579.8379 Q150.2969,579.7285 150.5156,579.7285 Q150.8906,579.7285 151.125,579.9941 Q151.3594,580.2441 151.3594,580.8535 L151.3594,582.3066 Q151.3594,582.916 151.125,583.1816 Q150.8906,583.4473 150.5156,583.4473 Q150.1719,583.4473 149.9688,583.2441 Q149.7656,583.0566 149.6563,582.541 Q149.6094,582.1816 149.4219,581.9941 Q149.0938,581.6191 148.4844,581.4004 Q147.875,581.1816 147.25,581.1816 Q146.4844,581.1816 145.8438,581.5098 Q145.2188,581.8379 144.7188,582.5879 Q144.2344,583.3379 144.2344,584.3691 L144.2344,585.4629 Q144.2344,586.6973 145.125,587.5254 Q146.0156,588.3379 147.6094,588.3379 Q148.5469,588.3379 149.2031,588.0879 Q149.5938,587.9316 150.0156,587.4941 Q150.2813,587.2285 150.4219,587.1504 Q150.5781,587.0723 150.7813,587.0723 Q151.1094,587.0723 151.3594,587.3379 Q151.625,587.5879 151.625,587.9316 Q151.625,588.2754 151.2813,588.6816 Q150.7813,589.2598 149.9844,589.5879 Q148.9063,590.041 147.6094,590.041 Q146.0938,590.041 144.8906,589.416 Q143.9063,588.916 143.2188,587.8535 Q142.5313,586.7754 142.5313,585.4941 L142.5313,584.3379 Q142.5313,583.0098 143.1406,581.8691 Q143.7656,580.7129 144.8594,580.1035 Q145.9531,579.4785 147.1875,579.4785 Q147.9219,579.4785 148.5625,579.6504 Q149.2188,579.8066 149.7656,580.166 Z " fill="#000000"/><text fill="#000000" font-family="sans-serif" font-size="12" font-style="italic" lengthAdjust="spacing" textLength="46" x="159" y="579.9492">&#171;Value&#187;</text><text fill="#000000" font-family="sans-serif" font-size="14" lengthAdjust="spacing" textLength="34" x="165" y="598.0684">Email</text><line style="stroke:#181818;stroke-width:0.5;" x1="133" x2="205" y1="606.582" y2="606.582"/><line style="stroke:#181818;stroke-width:0.5;" x1="133" x2="205" y1="614.582" y2="614.582"/></g><!--class PhoneNumber--><g id="elem_PhoneNumber"><rect codeLine="15" fill="#F1F1F1" height="60.582" id="PhoneNumber" rx="2.5" ry="2.5" style="stroke:#181818;stroke-width:0.5;" width="122" x="241" y="562"/><ellipse cx="256" cy="584.291" fill="#ADD1B2" rx="11" ry="11" style="stroke:#181818;stroke-width:1.0;"/><path d="M258.7656,580.166 Q258.9219,579.9473 259.1094,579.8379 Q259.2969,579.7285 259.5156,579.7285 Q259.8906,579.7285 260.125,579.9941 Q260.3594,580.2441 260.3594,580.8535 L260.3594,582.3066 Q260.3594,582.916 260.125,583.1816 Q259.8906,583.4473 259.5156,583.4473 Q259.1719,583.4473 258.9688,583.2441 Q258.7656,583.0566 258.6563,582.541 Q258.6094,582.1816 258.4219,581.9941 Q258.0938,581.6191 257.4844,581.4004 Q256.875,581.1816 256.25,581.1816 Q255.4844,581.1816 254.8438,581.5098 Q254.2188,581.8379 253.7188,582.5879 Q253.2344,583.3379 253.2344,584.3691 L253.2344,585.4629 Q253.2344,586.6973 254.125,587.5254 Q255.0156,588.3379 256.6094,588.3379 Q257.5469,588.3379 258.2031,588.0879 Q258.5938,587.9316 259.0156,587.4941 Q259.2813,587.2285 259.4219,587.1504 Q259.5781,587.0723 259.7813,587.0723 Q260.1094,587.0723 260.3594,587.3379 Q260.625,587.5879 260.625,587.9316 Q260.625,588.2754 260.2813,588.6816 Q259.7813,589.2598 258.9844,589.5879 Q257.9063,590.041 256.6094,590.041 Q255.0938,590.041 253.8906,589.416 Q252.9063,588.916 252.2188,587.8535 Q251.5313,586.7754 251.5313,585.4941 L251.5313,584.3379 Q251.5313,583.0098 252.1406,581.8691 Q252.7656,580.7129 253.8594,580.1035 Q254.9531,579.4785 256.1875,579.4785 Q256.9219,579.4785 257.5625,579.6504 Q258.2188,579.8066 258.7656,580.166 Z " fill="#000000"/><text fill="#000000" font-family="sans-serif" font-size="12" font-style="italic" lengthAdjust="spacing" textLength="46" x="292" y="579.9492">&#171;Value&#187;</text><text fill="#000000" font-family="sans-serif" font-size="14" lengthAdjust="spacing" textLength="90" x="270" y="598.0684">PhoneNumber</text><line style="stroke:#181818;stroke-width:0.5;" x1="242" x2="362" y1="606.582" y2="606.582"/><line style="stroke:#181818;stroke-width:0.5;" x1="242" x2="362" y1="614.582" y2="614.582"/></g><!--class Password--><g id="elem_Password"><rect codeLine="18" fill="#F1F1F1" height="60.582" id="Password" rx="2.5" ry="2.5" style="stroke:#181818;stroke-width:0.5;" width="93" x="398.5" y="562"/><ellipse cx="413.5" cy="584.291" fill="#ADD1B2" rx="11" ry="11" style="stroke:#181818;stroke-width:1.0;"/><path d="M416.2656,580.166 Q416.4219,579.9473 416.6094,579.8379 Q416.7969,579.7285 417.0156,579.7285 Q417.3906,579.7285 417.625,579.9941 Q417.8594,580.2441 417.8594,580.8535 L417.8594,582.3066 Q417.8594,582.916 417.625,583.1816 Q417.3906,583.4473 417.0156,583.4473 Q416.6719,583.4473 416.4688,583.2441 Q416.2656,583.0566 416.1563,582.541 Q416.1094,582.1816 415.9219,581.9941 Q415.5938,581.6191 414.9844,581.4004 Q414.375,581.1816 413.75,581.1816 Q412.9844,581.1816 412.3438,581.5098 Q411.7188,581.8379 411.2188,582.5879 Q410.7344,583.3379 410.7344,584.3691 L410.7344,585.4629 Q410.7344,586.6973 411.625,587.5254 Q412.5156,588.3379 414.1094,588.3379 Q415.0469,588.3379 415.7031,588.0879 Q416.0938,587.9316 416.5156,587.4941 Q416.7813,587.2285 416.9219,587.1504 Q417.0781,587.0723 417.2813,587.0723 Q417.6094,587.0723 417.8594,587.3379 Q418.125,587.5879 418.125,587.9316 Q418.125,588.2754 417.7813,588.6816 Q417.2813,589.2598 416.4844,589.5879 Q415.4063,590.041 414.1094,590.041 Q412.5938,590.041 411.3906,589.416 Q410.4063,588.916 409.7188,587.8535 Q409.0313,586.7754 409.0313,585.4941 L409.0313,584.3379 Q409.0313,583.0098 409.6406,581.8691 Q410.2656,580.7129 411.3594,580.1035 Q412.4531,579.4785 413.6875,579.4785 Q414.4219,579.4785 415.0625,579.6504 Q415.7188,579.8066 416.2656,580.166 Z " fill="#000000"/><text fill="#000000" font-family="sans-serif" font-size="12" font-style="italic" lengthAdjust="spacing" textLength="46" x="435" y="579.9492">&#171;Value&#187;</text><text fill="#000000" font-family="sans-serif" font-size="14" lengthAdjust="spacing" textLength="61" x="427.5" y="598.0684">Password</text><line style="stroke:#181818;stroke-width:0.5;" x1="399.5" x2="490.5" y1="606.582" y2="606.582"/><line style="stroke:#181818;stroke-width:0.5;" x1="399.5" x2="490.5" y1="614.582" y2="614.582"/></g><!--class CustomerManager--><g id="elem_CustomerManager"><rect codeLine="24" fill="#F1F1F1" height="76.543" id="CustomerManager" rx="2.5" ry="2.5" style="stroke:#181818;stroke-width:0.5;" width="149" x="166.5" y="44"/><ellipse cx="181.5" cy="74.2715" fill="#ADD1B2" rx="11" ry="11" style="stroke:#181818;stroke-width:1.0;"/><path d="M180.3594,75.0684 L180.3594,77.5684 L184.6875,77.5684 L184.6875,76.6465 Q184.6875,76.0371 184.9219,75.7715 Q185.1719,75.5059 185.5469,75.5059 Q185.9219,75.5059 186.1563,75.7715 Q186.3906,76.0371 186.3906,76.6465 L186.3906,79.2715 L178.3906,79.2715 Q177.7656,79.2715 177.5,79.0371 Q177.25,78.8027 177.25,78.4121 Q177.25,78.0371 177.5156,77.8027 Q177.7813,77.5684 178.3906,77.5684 L178.6563,77.5684 L178.6563,70.9121 L178.3906,70.9121 Q177.7656,70.9121 177.5,70.6777 Q177.25,70.4434 177.25,70.0527 Q177.25,69.6777 177.5,69.4434 Q177.7656,69.209 178.3906,69.209 L186.0156,69.209 L186.0156,71.8027 Q186.0156,72.4121 185.7813,72.6777 Q185.5625,72.9277 185.1719,72.9277 Q184.7969,72.9277 184.5625,72.6777 Q184.3281,72.4121 184.3281,71.8027 L184.3281,70.9121 L180.3594,70.9121 L180.3594,73.3652 L181.8438,73.3652 Q181.8438,72.709 181.9688,72.5215 Q182.2344,72.1152 182.7031,72.1152 Q183.0781,72.1152 183.3125,72.3809 Q183.5469,72.6309 183.5469,73.2402 L183.5469,75.209 Q183.5469,75.7559 183.4219,75.9434 Q183.1563,76.334 182.7031,76.334 Q182.2344,76.334 181.9688,75.9277 Q181.8438,75.7402 181.8438,75.0684 L180.3594,75.0684 Z " fill="#000000"/><text fill="#000000" font-family="sans-serif" font-size="12" font-style="italic" lengthAdjust="spacing" textLength="43" x="232.5" y="61.9492">&#171;entity&#187;</text><text fill="#000000" font-family="sans-serif" font-size="12" font-style="italic" lengthAdjust="spacing" textLength="35" x="236.5" y="77.9102">&#171;root&#187;</text><text fill="#000000" font-family="sans-serif" font-size="14" lengthAdjust="spacing" textLength="117" x="195.5" y="96.0293">CustomerManager</text><line style="stroke:#181818;stroke-width:0.5;" x1="167.5" x2="314.5" y1="104.543" y2="104.543"/><line style="stroke:#181818;stroke-width:0.5;" x1="167.5" x2="314.5" y1="112.543" y2="112.543"/></g><!--class Customer--><g id="elem_Customer"><rect codeLine="29" fill="#F1F1F1" height="76.543" id="Customer" rx="2.5" ry="2.5" style="stroke:#181818;stroke-width:0.5;" width="93" x="278.5" y="225"/><ellipse cx="293.5" cy="255.2715" fill="#ADD1B2" rx="11" ry="11" style="stroke:#181818;stroke-width:1.0;"/><path d="M292.3594,256.0684 L292.3594,258.5684 L296.6875,258.5684 L296.6875,257.6465 Q296.6875,257.0371 296.9219,256.7715 Q297.1719,256.5059 297.5469,256.5059 Q297.9219,256.5059 298.1563,256.7715 Q298.3906,257.0371 298.3906,257.6465 L298.3906,260.2715 L290.3906,260.2715 Q289.7656,260.2715 289.5,260.0371 Q289.25,259.8027 289.25,259.4121 Q289.25,259.0371 289.5156,258.8027 Q289.7813,258.5684 290.3906,258.5684 L290.6563,258.5684 L290.6563,251.9121 L290.3906,251.9121 Q289.7656,251.9121 289.5,251.6777 Q289.25,251.4434 289.25,251.0527 Q289.25,250.6777 289.5,250.4434 Q289.7656,250.209 290.3906,250.209 L298.0156,250.209 L298.0156,252.8027 Q298.0156,253.4121 297.7813,253.6777 Q297.5625,253.9277 297.1719,253.9277 Q296.7969,253.9277 296.5625,253.6777 Q296.3281,253.4121 296.3281,252.8027 L296.3281,251.9121 L292.3594,251.9121 L292.3594,254.3652 L293.8438,254.3652 Q293.8438,253.709 293.9688,253.5215 Q294.2344,253.1152 294.7031,253.1152 Q295.0781,253.1152 295.3125,253.3809 Q295.5469,253.6309 295.5469,254.2402 L295.5469,256.209 Q295.5469,256.7559 295.4219,256.9434 Q295.1563,257.334 294.7031,257.334 Q294.2344,257.334 293.9688,256.9277 Q293.8438,256.7402 293.8438,256.0684 L292.3594,256.0684 Z " fill="#000000"/><text fill="#000000" font-family="sans-serif" font-size="12" font-style="italic" lengthAdjust="spacing" textLength="43" x="316.5" y="242.9492">&#171;entity&#187;</text><text fill="#000000" font-family="sans-serif" font-size="12" font-style="italic" lengthAdjust="spacing" textLength="35" x="320.5" y="258.9102">&#171;root&#187;</text><text fill="#000000" font-family="sans-serif" font-size="14" lengthAdjust="spacing" textLength="61" x="307.5" y="277.0293">Customer</text><line style="stroke:#181818;stroke-width:0.5;" x1="279.5" x2="370.5" y1="285.543" y2="285.543"/><line style="stroke:#181818;stroke-width:0.5;" x1="279.5" x2="370.5" y1="293.543" y2="293.543"/></g><!--link Customer to User--><g id="link_Customer_User"><path codeLine="32" d="M306.13,302.02 C291.6,330.93 271.51,370.89 256.38,400.98 " fill="none" id="Customer-to-User" style="stroke:#181818;stroke-width:1.0;"/><polygon fill="#181818" points="254,405.72,261.6265,399.4881,256.2532,401.2565,254.4849,395.8831,254,405.72" style="stroke:#181818;stroke-width:1.0;"/><text fill="#000000" font-family="sans-serif" font-size="13" lengthAdjust="spacing" textLength="48" x="289" y="349.0283">includes</text><text fill="#000000" font-family="sans-serif" font-size="13" lengthAdjust="spacing" textLength="7" x="295.5648" y="323.6017">1</text><text fill="#000000" font-family="sans-serif" font-size="13" lengthAdjust="spacing" textLength="7" x="249.6641" y="394.6864">1</text></g><!--link CustomerManager to User--><g id="link_CustomerManager_User"><path codeLine="33" d="M226.81,121.42 C220.97,138.98 214.9,160.27 212,180 C202.56,244.2 205.74,261.41 212,326 C214.43,351.1 219.73,378.8 224.62,401 " fill="none" id="CustomerManager-to-User" style="stroke:#181818;stroke-width:1.0;"/><polygon fill="#181818" points="225.72,405.94,227.6664,396.2854,224.6323,401.0597,219.858,398.0257,225.72,405.94" style="stroke:#181818;stroke-width:1.0;"/><text fill="#000000" font-family="sans-serif" font-size="13" lengthAdjust="spacing" textLength="48" x="213" y="269.0283">includes</text><text fill="#000000" font-family="sans-serif" font-size="13" lengthAdjust="spacing" textLength="7" x="217.2118" y="142.4681">1</text><text fill="#000000" font-family="sans-serif" font-size="13" lengthAdjust="spacing" textLength="7" x="216.4436" y="394.6524">1</text></g><!--link User to Name--><g id="link_User_Name"><path codeLine="34" d="M199.16,475.4 C170.17,499.59 129.38,533.62 99.45,558.59 " fill="none" id="User-to-Name" style="stroke:#181818;stroke-width:1.0;"/><polygon fill="#181818" points="95.49,561.89,104.9608,559.1873,99.3264,558.6834,99.8303,553.0491,95.49,561.89" style="stroke:#181818;stroke-width:1.0;"/><text fill="#000000" font-family="sans-serif" font-size="13" lengthAdjust="spacing" textLength="21" x="153" y="528.0283">has</text><text fill="#000000" font-family="sans-serif" font-size="13" lengthAdjust="spacing" textLength="7" x="184.4149" y="476.912">1</text><text fill="#000000" font-family="sans-serif" font-size="13" lengthAdjust="spacing" textLength="7" x="95.0879" y="550.925">1</text></g><!--link User to PhoneNumber--><g id="link_User_PhoneNumber"><path codeLine="35" d="M252.25,483.1 C262.75,505.97 276.06,534.97 286.27,557.21 " fill="none" id="User-to-PhoneNumber" style="stroke:#181818;stroke-width:1.0;"/><polygon fill="#181818" points="288.39,561.85,288.27,552.0019,286.3038,557.306,280.9996,555.3398,288.39,561.85" style="stroke:#181818;stroke-width:1.0;"/><text fill="#000000" font-family="sans-serif" font-size="13" lengthAdjust="spacing" textLength="21" x="275" y="528.0283">has</text><text fill="#000000" font-family="sans-serif" font-size="13" lengthAdjust="spacing" textLength="7" x="247.4414" y="504.6945">1</text><text fill="#000000" font-family="sans-serif" font-size="13" lengthAdjust="spacing" textLength="7" x="277.8611" y="550.8767">1</text></g><!--link User to Email--><g id="link_User_Email"><path codeLine="36" d="M218,483.1 C207.66,505.97 194.56,534.97 184.5,557.21 " fill="none" id="User-to-Email" style="stroke:#181818;stroke-width:1.0;"/><polygon fill="#181818" points="182.4,561.85,189.7487,555.2928,184.4572,557.2928,182.4571,552.0013,182.4,561.85" style="stroke:#181818;stroke-width:1.0;"/><text fill="#000000" font-family="sans-serif" font-size="13" lengthAdjust="spacing" textLength="21" x="204" y="528.0283">has</text><text fill="#000000" font-family="sans-serif" font-size="13" lengthAdjust="spacing" textLength="7" x="207.7328" y="504.6945">1</text><text fill="#000000" font-family="sans-serif" font-size="13" lengthAdjust="spacing" textLength="7" x="177.4419" y="550.8767">1</text></g><!--link User to Password--><g id="link_User_Password"><path codeLine="37" d="M270.62,470.27 C305.74,494.68 359.59,532.12 398.15,558.93 " fill="none" id="User-to-Password" style="stroke:#181818;stroke-width:1.0;"/><polygon fill="#181818" points="402.3,561.82,397.1893,553.401,398.1932,558.968,392.6261,559.9719,402.3,561.82" style="stroke:#181818;stroke-width:1.0;"/><text fill="#000000" font-family="sans-serif" font-size="13" lengthAdjust="spacing" textLength="21" x="359" y="528.0283">has</text><text fill="#000000" font-family="sans-serif" font-size="13" lengthAdjust="spacing" textLength="7" x="278.6885" y="470.9374">1</text><text fill="#000000" font-family="sans-serif" font-size="13" lengthAdjust="spacing" textLength="7" x="385.7713" y="550.8406">1</text></g><!--link CustomerManager to Customer--><g id="link_CustomerManager_Customer"><path codeLine="38" d="M258.61,121.02 C272.17,149.93 290.93,189.89 305.05,219.98 " fill="none" id="CustomerManager-to-Customer" style="stroke:#181818;stroke-width:1.0;"/><polygon fill="#181818" points="307.27,224.72,307.0871,214.8728,305.1548,220.1894,299.8382,218.2572,307.27,224.72" style="stroke:#181818;stroke-width:1.0;"/><text fill="#000000" font-family="sans-serif" font-size="13" lengthAdjust="spacing" textLength="50" x="281" y="168.0283">registers</text><text fill="#000000" font-family="sans-serif" font-size="13" lengthAdjust="spacing" textLength="7" x="253.8588" y="142.6017">1</text><text fill="#000000" font-family="sans-serif" font-size="13" lengthAdjust="spacing" textLength="15" x="287.9336" y="213.6864">1..</text></g><!--SRC=[VP5FYy8m4CNl-HH3BvuKzYeI4DdZoiBYtcVR8GRpHv8K4TdllaDgsrZjNjBC_5wdyrxZIRip1hHmnlg4YhxIrH04gXCwPKY8nI5Is2eLI64YSPV1GnTkWbpIwPhRiDa4xvEKVEdQKjx4hn2rmHXXZvQOVADfYJK5URUepMlqUVIEzgtzeJ3m4lDnyQ611yXuiKFNw8PtVBQmQsFobi87EYv7DuEPYQ2mCrgyVsSwStxOEAIVaNtq6Agt2fPBcPyvpJLeLvkseIYc2_sdpNKfoBcluOWlM17ldAJxENFlz_btV7xFrQeQac0nPwHZeX357m00]--></g></svg>