<?xml version="1.0" encoding="us-ascii" standalone="no"?><svg xmlns="http://www.w3.org/2000/svg" xmlns:xlink="http://www.w3.org/1999/xlink" contentStyleType="text/css" height="2307px" preserveAspectRatio="none" style="width:791px;height:2307px;background:#FFFFFF;" version="1.1" viewBox="0 0 791 2307" width="791px" zoomAndPan="magnify"><defs/><g><!--entity Doctor--><g id="elem_Doctor"><ellipse cx="125.5" cy="754.22" fill="#F1F1F1" rx="8" ry="8" style="stroke:#181818;stroke-width:0.5;"/><path d="M125.5,762.22 L125.5,789.22 M112.5,770.22 L138.5,770.22 M125.5,789.22 L112.5,804.22 M125.5,789.22 L138.5,804.22 " fill="none" style="stroke:#181818;stroke-width:0.5;"/><text fill="#000000" font-family="sans-serif" font-size="14" lengthAdjust="spacing" textLength="46" x="102.5" y="819.2552">Doctor</text></g><!--entity Admin--><g id="elem_Admin"><ellipse cx="125.5" cy="1620.22" fill="#F1F1F1" rx="8" ry="8" style="stroke:#181818;stroke-width:0.5;"/><path d="M125.5,1628.22 L125.5,1655.22 M112.5,1636.22 L138.5,1636.22 M125.5,1655.22 L112.5,1670.22 M125.5,1655.22 L138.5,1670.22 " fill="none" style="stroke:#181818;stroke-width:0.5;"/><text fill="#000000" font-family="sans-serif" font-size="14" lengthAdjust="spacing" textLength="45" x="103" y="1685.2552">Admin</text></g><!--entity Nurse--><g id="elem_Nurse"><ellipse cx="125.5" cy="489.22" fill="#F1F1F1" rx="8" ry="8" style="stroke:#181818;stroke-width:0.5;"/><path d="M125.5,497.22 L125.5,524.22 M112.5,505.22 L138.5,505.22 M125.5,524.22 L112.5,539.22 M125.5,524.22 L138.5,539.22 " fill="none" style="stroke:#181818;stroke-width:0.5;"/><text fill="#000000" font-family="sans-serif" font-size="14" lengthAdjust="spacing" textLength="40" x="105.5" y="554.2552">Nurse</text></g><!--entity Technician--><g id="elem_Technician"><ellipse cx="125.5" cy="600.22" fill="#F1F1F1" rx="8" ry="8" style="stroke:#181818;stroke-width:0.5;"/><path d="M125.5,608.22 L125.5,635.22 M112.5,616.22 L138.5,616.22 M125.5,635.22 L112.5,650.22 M125.5,635.22 L138.5,650.22 " fill="none" style="stroke:#181818;stroke-width:0.5;"/><text fill="#000000" font-family="sans-serif" font-size="14" lengthAdjust="spacing" textLength="74" x="88.5" y="665.2552">Technician</text></g><!--entity Patient--><g id="elem_Patient"><ellipse cx="125.5" cy="277.22" fill="#F1F1F1" rx="8" ry="8" style="stroke:#181818;stroke-width:0.5;"/><path d="M125.5,285.22 L125.5,312.22 M112.5,293.22 L138.5,293.22 M125.5,312.22 L112.5,327.22 M125.5,312.22 L138.5,327.22 " fill="none" style="stroke:#181818;stroke-width:0.5;"/><text fill="#000000" font-family="sans-serif" font-size="14" lengthAdjust="spacing" textLength="47" x="102" y="342.2552">Patient</text></g><!--entity NonAuthenticatedBackofficeUser--><g id="elem_NonAuthenticatedBackofficeUser"><ellipse cx="125.5" cy="15.22" fill="#F1F1F1" rx="8" ry="8" style="stroke:#181818;stroke-width:0.5;"/><path d="M125.5,23.22 L125.5,50.22 M112.5,31.22 L138.5,31.22 M125.5,50.22 L112.5,65.22 M125.5,50.22 L138.5,65.22 " fill="none" style="stroke:#181818;stroke-width:0.5;"/><text fill="#000000" font-family="sans-serif" font-size="14" lengthAdjust="spacing" textLength="239" x="6" y="80.2552">Non-Authenticated Backoffice user</text></g><g id="elem_RegisterBackofficeUsers"><ellipse cx="545.1058" cy="1306.9592" fill="#F1F1F1" rx="146.5458" ry="31.7092" style="stroke:#181818;stroke-width:0.5;"/><text fill="#000000" font-family="sans-serif" font-size="14" lengthAdjust="spacing" textLength="263" x="413.6058" y="1310.2502">I want to register new backoffice users</text></g><g id="elem_ResetPassword"><ellipse cx="545.1109" cy="586.9602" fill="#F1F1F1" rx="112.5509" ry="24.9102" style="stroke:#181818;stroke-width:0.5;"/><text fill="#000000" font-family="sans-serif" font-size="14" lengthAdjust="spacing" textLength="191" x="449.6109" y="590.2512">I want to reset my password</text></g><g id="elem_RegisterHealthcareApplication"><ellipse cx="545.1121" cy="155.9624" fill="#F1F1F1" rx="175.0121" ry="37.4024" style="stroke:#181818;stroke-width:0.5;"/><text fill="#000000" font-family="sans-serif" font-size="14" lengthAdjust="spacing" textLength="322" x="384.1121" y="159.2534">I want to register for the healthcare application</text></g><g id="elem_UpdateUserProfile"><ellipse cx="545.1144" cy="255.9629" fill="#F1F1F1" rx="125.1644" ry="27.4329" style="stroke:#181818;stroke-width:0.5;"/><text fill="#000000" font-family="sans-serif" font-size="14" lengthAdjust="spacing" textLength="218" x="436.1144" y="259.2539">I want to update my user profile</text></g><g id="elem_DeleteAccount"><ellipse cx="545.1122" cy="357.9644" fill="#F1F1F1" rx="187.1722" ry="39.8344" style="stroke:#181818;stroke-width:0.5;"/><text fill="#000000" font-family="sans-serif" font-size="14" lengthAdjust="spacing" textLength="347" x="371.6122" y="361.2555">I want to delete my account and all associated data</text></g><g id="elem_LoginBackofficeUser"><ellipse cx="545.1092" cy="44.9578" fill="#F1F1F1" rx="182.7892" ry="38.9578" style="stroke:#181818;stroke-width:0.5;"/><text fill="#000000" font-family="sans-serif" font-size="14" lengthAdjust="spacing" textLength="338" x="376.1092" y="48.2489">I want to login to the system using my credentials</text></g><g id="elem_LoginPatient"><ellipse cx="545.108" cy="479.9596" fill="#F1F1F1" rx="222.898" ry="46.9796" style="stroke:#181818;stroke-width:0.5;"/><text fill="#000000" font-family="sans-serif" font-size="14" lengthAdjust="spacing" textLength="420" x="335.108" y="483.2506">I want to login to the healthcare system using IAM credentials</text></g><g id="elem_CreatePatientProfile"><ellipse cx="545.1122" cy="1403.9564" fill="#F1F1F1" rx="140.3322" ry="30.4664" style="stroke:#181818;stroke-width:0.5;"/><text fill="#000000" font-family="sans-serif" font-size="14" lengthAdjust="spacing" textLength="250" x="420.1122" y="1407.2475">I want to create a new patient profile</text></g><g id="elem_EditPatientProfile"><ellipse cx="545.1118" cy="1501.9604" fill="#F1F1F1" rx="149.9018" ry="32.3804" style="stroke:#181818;stroke-width:0.5;"/><text fill="#000000" font-family="sans-serif" font-size="14" lengthAdjust="spacing" textLength="270" x="410.1118" y="1505.2514">I want to edit an existing patient profile</text></g><g id="elem_DeletePatientProfile"><ellipse cx="545.1144" cy="1596.9629" fill="#F1F1F1" rx="125.1644" ry="27.4329" style="stroke:#181818;stroke-width:0.5;"/><text fill="#000000" font-family="sans-serif" font-size="14" lengthAdjust="spacing" textLength="218" x="436.1144" y="1600.2539">I want to delete a patient profile</text></g><g id="elem_ListPatientProfiles"><ellipse cx="545.1129" cy="1703.9646" fill="#F1F1F1" rx="211.1229" ry="44.6246" style="stroke:#181818;stroke-width:0.5;"/><text fill="#000000" font-family="sans-serif" font-size="14" lengthAdjust="spacing" textLength="396" x="347.1129" y="1707.2556">I want to list/search patient profiles by different atributtes</text></g><g id="elem_CreateStaffProfile"><ellipse cx="545.1056" cy="1811.9551" fill="#F1F1F1" rx="131.7756" ry="28.7551" style="stroke:#181818;stroke-width:0.5;"/><text fill="#000000" font-family="sans-serif" font-size="14" lengthAdjust="spacing" textLength="232" x="429.1056" y="1815.2461">I want to create a new staff profile</text></g><g id="elem_EditStaffProfile"><ellipse cx="545.1063" cy="1899.9633" fill="#F1F1F1" rx="109.3163" ry="24.2633" style="stroke:#181818;stroke-width:0.5;"/><text fill="#000000" font-family="sans-serif" font-size="14" lengthAdjust="spacing" textLength="184" x="453.1063" y="1903.2543">I want to edit a staff profile</text></g><g id="elem_DeactivateStaffProfile"><ellipse cx="545.1096" cy="1987.9619" fill="#F1F1F1" rx="129.4096" ry="28.2819" style="stroke:#181818;stroke-width:0.5;"/><text fill="#000000" font-family="sans-serif" font-size="14" lengthAdjust="spacing" textLength="227" x="431.6096" y="1991.2529">I want to deactivate a staff profile</text></g><g id="elem_ListStaffProfiles"><ellipse cx="545.1147" cy="2078.9629" fill="#F1F1F1" rx="128.4647" ry="28.0929" style="stroke:#181818;stroke-width:0.5;"/><text fill="#000000" font-family="sans-serif" font-size="14" lengthAdjust="spacing" textLength="225" x="432.6147" y="2082.254">I want to list/search staff profiles</text></g><g id="elem_RequestOperation"><ellipse cx="545.1117" cy="879.9603" fill="#F1F1F1" rx="120.0017" ry="26.4003" style="stroke:#181818;stroke-width:0.5;"/><text fill="#000000" font-family="sans-serif" font-size="14" lengthAdjust="spacing" textLength="207" x="441.6117" y="883.2514">I want to request an operation</text></g><g id="elem_UpdateOperationRequisition"><ellipse cx="545.1087" cy="974.9577" fill="#F1F1F1" rx="155.1887" ry="33.4377" style="stroke:#181818;stroke-width:0.5;"/><text fill="#000000" font-family="sans-serif" font-size="14" lengthAdjust="spacing" textLength="281" x="404.6087" y="978.2488">I want to update an operation requisition</text></g><g id="elem_RemoveOperationRequisition"><ellipse cx="545.1132" cy="680.9566" fill="#F1F1F1" rx="156.6332" ry="33.7266" style="stroke:#181818;stroke-width:0.5;"/><text fill="#000000" font-family="sans-serif" font-size="14" lengthAdjust="spacing" textLength="284" x="403.1132" y="684.2476">I want to remove an operation requisition</text></g><g id="elem_ListOperationRequisitions"><ellipse cx="545.1076" cy="783.9615" fill="#F1F1F1" rx="160.0076" ry="34.4015" style="stroke:#181818;stroke-width:0.5;"/><text fill="#000000" font-family="sans-serif" font-size="14" lengthAdjust="spacing" textLength="291" x="399.6076" y="787.2525">I want to list/search operation requisitions</text></g><g id="elem_AddNewOperationTypes"><ellipse cx="545.1148" cy="2172.965" fill="#F1F1F1" rx="143.6748" ry="31.135" style="stroke:#181818;stroke-width:0.5;"/><text fill="#000000" font-family="sans-serif" font-size="14" lengthAdjust="spacing" textLength="257" x="416.6148" y="2176.256">I want to add new types of operations</text></g><g id="elem_EditOperationTypes"><ellipse cx="545.1112" cy="2269.9562" fill="#F1F1F1" rx="144.6312" ry="31.3262" style="stroke:#181818;stroke-width:0.5;"/><text fill="#000000" font-family="sans-serif" font-size="14" lengthAdjust="spacing" textLength="259" x="415.6112" y="2273.2473">I want to edit existing operation types</text></g><g id="elem_RemoveObsoleteOperationTypes"><ellipse cx="545.1105" cy="1093.9621" fill="#F1F1F1" rx="240.1105" ry="50.4221" style="stroke:#181818;stroke-width:0.5;"/><text fill="#000000" font-family="sans-serif" font-size="14" lengthAdjust="spacing" textLength="455" x="317.6105" y="1097.2531">I want to remove obsolete or no longer performed operation types</text></g><g id="elem_ListOperationTypes"><ellipse cx="545.1058" cy="1209.9552" fill="#F1F1F1" rx="138.4258" ry="30.0852" style="stroke:#181818;stroke-width:0.5;"/><text fill="#000000" font-family="sans-serif" font-size="14" lengthAdjust="spacing" textLength="246" x="422.1058" y="1213.2462">I want to list/search operation types</text></g><!--link Admin to RegisterBackofficeUsers--><g id="link_Admin_RegisterBackofficeUsers"><path d="M138.52,1611.42 C160.54,1547.5 213.71,1420.26 305,1355.96 C333.93,1335.59 363.5492,1324.5285 398.2492,1317.2085 " fill="none" id="Admin-to-RegisterBackofficeUsers" style="stroke:#181818;stroke-width:1.0;"/><polygon fill="#181818" points="404.12,1315.97,394.4882,1313.9138,399.2277,1317.002,396.1394,1321.7415,404.12,1315.97" style="stroke:#181818;stroke-width:1.0;"/></g><!--link Admin to ResetPassword--><g id="link_Admin_ResetPassword"><path d="M131.98,1611.51 C157.98,1429.95 269.25,665.88 305,629.96 C338.77,596.03 383.6142,584.1527 429.7342,580.9727 " fill="none" id="Admin-to-ResetPassword" style="stroke:#181818;stroke-width:1.0;"/><polygon fill="#181818" points="435.72,580.56,426.4662,577.1886,430.7318,580.9039,427.0165,585.1696,435.72,580.56" style="stroke:#181818;stroke-width:1.0;"/></g><!--link Admin to CreatePatientProfile--><g id="link_Admin_CreatePatientProfile"><path d="M148.43,1613.91 C178.04,1568.52 235.22,1491.7 305,1451.96 C337.75,1433.32 370.7269,1422.9577 407.5169,1415.9177 " fill="none" id="Admin-to-CreatePatientProfile" style="stroke:#181818;stroke-width:1.0;"/><polygon fill="#181818" points="413.41,1414.79,403.8186,1412.5528,408.4991,1415.7297,405.3222,1420.4102,413.41,1414.79" style="stroke:#181818;stroke-width:1.0;"/></g><!--link Admin to EditPatientProfile--><g id="link_Admin_EditPatientProfile"><path d="M148.3,1635.19 C180.96,1613.73 245.15,1574.09 305,1551.96 C341.8,1538.36 377.3374,1529.2412 415.2374,1521.6312 " fill="none" id="Admin-to-EditPatientProfile" style="stroke:#181818;stroke-width:1.0;"/><polygon fill="#181818" points="421.12,1520.45,411.5087,1518.3,416.2178,1521.4343,413.0836,1526.1435,421.12,1520.45" style="stroke:#181818;stroke-width:1.0;"/></g><!--link Admin to DeletePatientProfile--><g id="link_Admin_DeletePatientProfile"><path d="M148.36,1647.19 C201.06,1640.5 332.0178,1623.8855 430.0278,1611.4455 " fill="none" id="Admin-to-DeletePatientProfile" style="stroke:#181818;stroke-width:1.0;"/><polygon fill="#181818" points="435.98,1610.69,426.548,1607.8551,431.0198,1611.3196,427.5553,1615.7914,435.98,1610.69" style="stroke:#181818;stroke-width:1.0;"/></g><!--link Admin to ListPatientProfiles--><g id="link_Admin_ListPatientProfiles"><path d="M148.36,1652.79 C188.98,1658.04 273.6595,1668.9905 357.9495,1679.8905 " fill="none" id="Admin-to-ListPatientProfiles" style="stroke:#181818;stroke-width:1.0;"/><polygon fill="#181818" points="363.9,1680.66,355.4873,1675.5388,358.9413,1680.0188,354.4613,1683.4727,363.9,1680.66" style="stroke:#181818;stroke-width:1.0;"/></g><!--link Admin to CreateStaffProfile--><g id="link_Admin_CreateStaffProfile"><path d="M148.31,1668.2 C180.47,1694.11 243.47,1741.16 305,1765.96 C343.42,1781.45 381.5587,1790.7919 421.2887,1797.7019 " fill="none" id="Admin-to-CreateStaffProfile" style="stroke:#181818;stroke-width:1.0;"/><polygon fill="#181818" points="427.2,1798.73,419.0185,1793.247,422.274,1797.8732,417.6477,1801.1287,427.2,1798.73" style="stroke:#181818;stroke-width:1.0;"/></g><!--link Admin to EditStaffProfile--><g id="link_Admin_EditStaffProfile"><path d="M148.07,1688.53 C177.1,1736.56 233.47,1817.22 305,1857.96 C344.55,1880.49 387.3328,1890.7745 430.4628,1895.9545 " fill="none" id="Admin-to-EditStaffProfile" style="stroke:#181818;stroke-width:1.0;"/><polygon fill="#181818" points="436.42,1896.67,427.9612,1891.6253,431.4557,1896.0738,427.0072,1899.5683,436.42,1896.67" style="stroke:#181818;stroke-width:1.0;"/></g><!--link Admin to DeactivateStaffProfile--><g id="link_Admin_DeactivateStaffProfile"><path d="M138.6,1688.63 C160.67,1752.38 213.8,1878.76 305,1941.96 C337.66,1964.6 372.6504,1975.8313 411.3604,1982.2313 " fill="none" id="Admin-to-DeactivateStaffProfile" style="stroke:#181818;stroke-width:1.0;"/><polygon fill="#181818" points="417.28,1983.21,409.053,1977.7955,412.347,1982.3944,407.7481,1985.6884,417.28,1983.21" style="stroke:#181818;stroke-width:1.0;"/></g><!--link Admin to ListStaffProfiles--><g id="link_Admin_ListStaffProfiles"><path d="M132.52,1688.48 C146.93,1766.96 191.1,1945.41 305,2033.96 C336.6,2058.53 371.6307,2070.1618 410.7007,2076.2118 " fill="none" id="Admin-to-ListStaffProfiles" style="stroke:#181818;stroke-width:1.0;"/><polygon fill="#181818" points="416.63,2077.13,408.3481,2071.7999,411.6889,2076.3649,407.1239,2079.7057,416.63,2077.13" style="stroke:#181818;stroke-width:1.0;"/></g><!--link Admin to AddNewOperationTypes--><g id="link_Admin_AddNewOperationTypes"><path d="M128.82,1688.39 C136.51,1779.45 169.1,2009.4 305,2124.96 C332.26,2148.14 361.6912,2160.0501 396.7712,2167.2101 " fill="none" id="Admin-to-AddNewOperationTypes" style="stroke:#181818;stroke-width:1.0;"/><polygon fill="#181818" points="402.65,2168.41,394.6317,2162.691,397.751,2167.4101,393.0319,2170.5294,402.65,2168.41" style="stroke:#181818;stroke-width:1.0;"/></g><!--link Admin to EditOperationTypes--><g id="link_Admin_EditOperationTypes"><path d="M126.03,1688.59 C127,1792.12 144.8,2077.67 305,2221.96 C331.43,2245.77 360.3736,2257.9087 395.2536,2265.0987 " fill="none" id="Admin-to-EditOperationTypes" style="stroke:#181818;stroke-width:1.0;"/><polygon fill="#181818" points="401.13,2266.31,393.1229,2260.5754,396.233,2265.3005,391.5078,2268.4106,401.13,2266.31" style="stroke:#181818;stroke-width:1.0;"/></g><!--link Admin to RemoveObsoleteOperationTypes--><g id="link_Admin_RemoveObsoleteOperationTypes"><path d="M129.09,1611.22 C137.37,1519.28 171.16,1286.3 305,1161.96 C320.97,1147.13 334.4719,1137.9697 354.6419,1128.8597 " fill="none" id="Admin-to-RemoveObsoleteOperationTypes" style="stroke:#181818;stroke-width:1.0;"/><polygon fill="#181818" points="360.11,1126.39,350.2613,1126.4492,355.5532,1128.4481,353.5543,1133.74,360.11,1126.39" style="stroke:#181818;stroke-width:1.0;"/></g><!--link Admin to ListOperationTypes--><g id="link_Admin_ListOperationTypes"><path d="M132.24,1611.39 C146.22,1531.84 189.75,1349.42 305,1257.96 C334.19,1234.8 365.6665,1223.0157 402.1565,1216.0457 " fill="none" id="Admin-to-ListOperationTypes" style="stroke:#181818;stroke-width:1.0;"/><polygon fill="#181818" points="408.05,1214.92,398.4593,1212.6796,403.1388,1215.8581,399.9603,1220.5375,408.05,1214.92" style="stroke:#181818;stroke-width:1.0;"/></g><!--link Doctor to ResetPassword--><g id="link_Doctor_ResetPassword"><path d="M148.67,766.29 C172.73,746.96 212.11,714.87 245,685.96 C272.4,661.89 272.39,646.3 305,629.96 C345.16,609.84 387.3447,599.8282 429.8647,594.0482 " fill="none" id="Doctor-to-ResetPassword" style="stroke:#181818;stroke-width:1.0;"/><polygon fill="#181818" points="435.81,593.24,426.3532,590.4887,430.8556,593.9135,427.4308,598.4158,435.81,593.24" style="stroke:#181818;stroke-width:1.0;"/></g><!--link Doctor to RequestOperation--><g id="link_Doctor_RequestOperation"><path d="M148.85,791.27 C182.46,802.07 248.15,822.49 305,835.96 C351.41,846.96 397.5285,855.8032 441.1685,863.3832 " fill="none" id="Doctor-to-RequestOperation" style="stroke:#181818;stroke-width:1.0;"/><polygon fill="#181818" points="447.08,864.41,438.8973,858.9288,442.1538,863.5543,437.5282,866.8108,447.08,864.41" style="stroke:#181818;stroke-width:1.0;"/></g><!--link Doctor to UpdateOperationRequisition--><g id="link_Doctor_UpdateOperationRequisition"><path d="M148.97,807.29 C180.7,838.8 241.86,894.42 305,923.96 C337.97,939.39 369.8111,948.9526 405.3811,956.5126 " fill="none" id="Doctor-to-UpdateOperationRequisition" style="stroke:#181818;stroke-width:1.0;"/><polygon fill="#181818" points="411.25,957.76,403.2782,951.9763,406.3592,956.7205,401.6151,959.8016,411.25,957.76" style="stroke:#181818;stroke-width:1.0;"/></g><!--link Doctor to RemoveOperationRequisition--><g id="link_Doctor_RemoveOperationRequisition"><path d="M148.9,776.86 C182.57,766.32 248.35,746.24 305,731.96 C345.03,721.88 383.2781,713.3332 422.6081,705.0732 " fill="none" id="Doctor-to-RemoveOperationRequisition" style="stroke:#181818;stroke-width:1.0;"/><polygon fill="#181818" points="428.48,703.84,418.85,701.7752,423.5868,704.8677,420.4943,709.6044,428.48,703.84" style="stroke:#181818;stroke-width:1.0;"/></g><!--link Doctor to ListOperationRequisitions--><g id="link_Doctor_ListOperationRequisitions"><path d="M148.95,783.96 C193.26,783.96 289.38,783.96 378.71,783.96 " fill="none" id="Doctor-to-ListOperationRequisitions" style="stroke:#181818;stroke-width:1.0;"/><polygon fill="#181818" points="384.71,783.96,375.71,779.96,379.71,783.96,375.71,787.96,384.71,783.96" style="stroke:#181818;stroke-width:1.0;"/></g><!--link Nurse to ResetPassword--><g id="link_Nurse_ResetPassword"><path d="M145.8,522.11 C199.54,530.86 347.5581,554.9553 447.5581,571.2453 " fill="none" id="Nurse-to-ResetPassword" style="stroke:#181818;stroke-width:1.0;"/><polygon fill="#181818" points="453.48,572.21,445.2402,566.815,448.545,571.4061,443.954,574.7109,453.48,572.21" style="stroke:#181818;stroke-width:1.0;"/></g><!--link Technician to ResetPassword--><g id="link_Technician_ResetPassword"><path d="M162.83,626.22 C224.54,619.87 345.9915,607.3644 436.5315,598.0444 " fill="none" id="Technician-to-ResetPassword" style="stroke:#181818;stroke-width:1.0;"/><polygon fill="#181818" points="442.5,597.43,433.1377,594.3726,437.5263,597.942,433.9569,602.3305,442.5,597.43" style="stroke:#181818;stroke-width:1.0;"/></g><!--link Patient to RegisterHealthcareApplication--><g id="link_Patient_RegisterHealthcareApplication"><path d="M149.23,292.15 C182.27,271.24 246.05,233.14 305,210.96 C338.29,198.44 369.4554,189.5965 404.2254,181.5265 " fill="none" id="Patient-to-RegisterHealthcareApplication" style="stroke:#181818;stroke-width:1.0;"/><polygon fill="#181818" points="410.07,180.17,400.3987,178.3084,405.1995,181.3004,402.2074,186.1012,410.07,180.17" style="stroke:#181818;stroke-width:1.0;"/></g><!--link Patient to UpdateUserProfile--><g id="link_Patient_UpdateUserProfile"><path d="M149.25,304.19 C202.44,297.69 331.8443,281.8876 429.2543,269.9876 " fill="none" id="Patient-to-UpdateUserProfile" style="stroke:#181818;stroke-width:1.0;"/><polygon fill="#181818" points="435.21,269.26,425.7914,266.3809,430.2469,269.8663,426.7615,274.3218,435.21,269.26" style="stroke:#181818;stroke-width:1.0;"/></g><!--link Patient to DeleteAccount--><g id="link_Patient_DeleteAccount"><path d="M149.25,309.74 C193.25,315.12 287.5143,326.6222 375.9743,337.4322 " fill="none" id="Patient-to-DeleteAccount" style="stroke:#181818;stroke-width:1.0;"/><polygon fill="#181818" points="381.93,338.16,373.4817,333.0978,376.9669,337.5535,372.5113,341.0388,381.93,338.16" style="stroke:#181818;stroke-width:1.0;"/></g><!--link Patient to LoginPatient--><g id="link_Patient_LoginPatient"><path d="M149.33,323.66 C182.23,347.04 245.57,389.5 305,414.96 C332.48,426.74 356.9099,435.2304 386.2999,443.8004 " fill="none" id="Patient-to-LoginPatient" style="stroke:#181818;stroke-width:1.0;"/><polygon fill="#181818" points="392.06,445.48,384.5396,439.1205,387.2599,444.0803,382.3001,446.8006,392.06,445.48" style="stroke:#181818;stroke-width:1.0;"/></g><!--link NonAuthenticatedBackofficeUser to LoginBackofficeUser--><g id="link_NonAuthenticatedBackofficeUser_LoginBackofficeUser"><path d="M245.33,44.96 C281.62,44.96 316.39,44.96 355.87,44.96 " fill="none" id="NonAuthenticatedBackofficeUser-to-LoginBackofficeUser" style="stroke:#181818;stroke-width:1.0;"/><polygon fill="#181818" points="361.87,44.96,352.87,40.96,356.87,44.96,352.87,48.96,361.87,44.96" style="stroke:#181818;stroke-width:1.0;"/></g><!--SRC=[ZLRRZjiW47ttLw1zZ_e7bT9kfQxKRbTx-O09Z1sq3hY0DytVTm37G8BZVOepSpWCPovWtwKQmC213S3VeSCNT-gH6UGELDTZqsFhcDFCo6xlc93U8xLg6k1E6tPth_tl7GFBukVPiHK7gO8zV9tDZwEn6CpXwsn-HRvNaak8IzBVC-09d4JbWdVwdYcrscn7joUJvE1Gi6zq5jssaYCRBSRe25M04kQD84r3G0uMsTq3EuAAPyPEMeU6AJooNSbf0-dpX2Z9R9tCecE74mbjxL4RCH6GzMcot8oXfQDI-6oFqBiz1uCCXg7tXw5y5D7yd27RXAYHZuCWANnG_aXiCBgLVSpEMt3vqpn5Qsszm1xZUk1SZsG49HZqFJ5OJUdpoI0UYFKHqDk8hD7rkfFAV_XpsXCTvK21ITNv7RX1uPC7VPJ-bmTV976DCzEke7_O_gxpdokjGanuhns4uXWYhb3mUm1C33T4H26zRWp_KV9yD3Mo7mHQfvho0LMAAFywIKzXVB48XkylUIpRdMW6j2qQRmLdv6vq3YV5Q659RrU5imxQjYBRYxUlYbPPxeLQMooG9eVyY55SKzpFxZMYNAg29mcIKopCXRyZsb01Ua2JTtDm_3aRRpHmlZOGIYjddjZ9CyrpSjV3EUYF5SRdWFaiOovIbJE9LQEiYWP2XF9nfu6AKhU9s4vNZdZ4uqptwc6BPJGtNeekyCxrjCupgQPtLeSEf5cj_EnHdH-hQ6Xu7sWKrZQOn9nMhczLbpFn5Jf6bgO9Lp3RRBuktbWv8h-IahqwpvAxCg6IipfxahisEIutBdgnt7R1jT37vRPbVoPVjOBARHUTDrDQRd-LgVY8gYIYS5nCXinteziBXiKEpb3BBTaquVLM2PCrJNgyrVrJfejoh3zPSkJrWoJtbc-Bt5FSunJtpMTWMd7nilWF]--></g></svg>