<?xml version="1.0" encoding="us-ascii" standalone="no"?><svg xmlns="http://www.w3.org/2000/svg" xmlns:xlink="http://www.w3.org/1999/xlink" contentStyleType="text/css" height="230px" preserveAspectRatio="none" style="width:427px;height:230px;background:#FFFFFF;" version="1.1" viewBox="0 0 427 230" width="427px" zoomAndPan="magnify"><defs/><g><!--class Interview--><g id="elem_Interview"><rect codeLine="2" fill="#F1F1F1" height="76.543" id="Interview" rx="2.5" ry="2.5" style="stroke:#181818;stroke-width:0.5;" width="87" x="149" y="7"/><ellipse cx="164" cy="37.2715" fill="#ADD1B2" rx="11" ry="11" style="stroke:#181818;stroke-width:1.0;"/><path d="M162.8594,38.0684 L162.8594,40.5684 L167.1875,40.5684 L167.1875,39.6465 Q167.1875,39.0371 167.4219,38.7715 Q167.6719,38.5059 168.0469,38.5059 Q168.4219,38.5059 168.6563,38.7715 Q168.8906,39.0371 168.8906,39.6465 L168.8906,42.2715 L160.8906,42.2715 Q160.2656,42.2715 160,42.0371 Q159.75,41.8027 159.75,41.4121 Q159.75,41.0371 160.0156,40.8027 Q160.2813,40.5684 160.8906,40.5684 L161.1563,40.5684 L161.1563,33.9121 L160.8906,33.9121 Q160.2656,33.9121 160,33.6777 Q159.75,33.4434 159.75,33.0527 Q159.75,32.6777 160,32.4434 Q160.2656,32.209 160.8906,32.209 L168.5156,32.209 L168.5156,34.8027 Q168.5156,35.4121 168.2813,35.6777 Q168.0625,35.9277 167.6719,35.9277 Q167.2969,35.9277 167.0625,35.6777 Q166.8281,35.4121 166.8281,34.8027 L166.8281,33.9121 L162.8594,33.9121 L162.8594,36.3652 L164.3438,36.3652 Q164.3438,35.709 164.4688,35.5215 Q164.7344,35.1152 165.2031,35.1152 Q165.5781,35.1152 165.8125,35.3809 Q166.0469,35.6309 166.0469,36.2402 L166.0469,38.209 Q166.0469,38.7559 165.9219,38.9434 Q165.6563,39.334 165.2031,39.334 Q164.7344,39.334 164.4688,38.9277 Q164.3438,38.7402 164.3438,38.0684 L162.8594,38.0684 Z " fill="#000000"/><text fill="#000000" font-family="sans-serif" font-size="12" font-style="italic" lengthAdjust="spacing" textLength="35" x="188" y="24.9492">&#171;root&#187;</text><text fill="#000000" font-family="sans-serif" font-size="12" font-style="italic" lengthAdjust="spacing" textLength="43" x="184" y="40.9102">&#171;entity&#187;</text><text fill="#000000" font-family="sans-serif" font-size="14" lengthAdjust="spacing" textLength="55" x="178" y="59.0293">Interview</text><line style="stroke:#181818;stroke-width:0.5;" x1="150" x2="235" y1="67.543" y2="67.543"/><line style="stroke:#181818;stroke-width:0.5;" x1="150" x2="235" y1="75.543" y2="75.543"/></g><!--class InterviewForms--><g id="elem_InterviewForms"><rect codeLine="6" fill="#F1F1F1" height="60.582" id="InterviewForms" rx="2.5" ry="2.5" style="stroke:#181818;stroke-width:0.5;" width="127" x="276" y="163"/><ellipse cx="291" cy="185.291" fill="#ADD1B2" rx="11" ry="11" style="stroke:#181818;stroke-width:1.0;"/><path d="M293.7656,181.166 Q293.9219,180.9473 294.1094,180.8379 Q294.2969,180.7285 294.5156,180.7285 Q294.8906,180.7285 295.125,180.9941 Q295.3594,181.2441 295.3594,181.8535 L295.3594,183.3066 Q295.3594,183.916 295.125,184.1816 Q294.8906,184.4473 294.5156,184.4473 Q294.1719,184.4473 293.9688,184.2441 Q293.7656,184.0566 293.6563,183.541 Q293.6094,183.1816 293.4219,182.9941 Q293.0938,182.6191 292.4844,182.4004 Q291.875,182.1816 291.25,182.1816 Q290.4844,182.1816 289.8438,182.5098 Q289.2188,182.8379 288.7188,183.5879 Q288.2344,184.3379 288.2344,185.3691 L288.2344,186.4629 Q288.2344,187.6973 289.125,188.5254 Q290.0156,189.3379 291.6094,189.3379 Q292.5469,189.3379 293.2031,189.0879 Q293.5938,188.9316 294.0156,188.4941 Q294.2813,188.2285 294.4219,188.1504 Q294.5781,188.0723 294.7813,188.0723 Q295.1094,188.0723 295.3594,188.3379 Q295.625,188.5879 295.625,188.9316 Q295.625,189.2754 295.2813,189.6816 Q294.7813,190.2598 293.9844,190.5879 Q292.9063,191.041 291.6094,191.041 Q290.0938,191.041 288.8906,190.416 Q287.9063,189.916 287.2188,188.8535 Q286.5313,187.7754 286.5313,186.4941 L286.5313,185.3379 Q286.5313,184.0098 287.1406,182.8691 Q287.7656,181.7129 288.8594,181.1035 Q289.9531,180.4785 291.1875,180.4785 Q291.9219,180.4785 292.5625,180.6504 Q293.2188,180.8066 293.7656,181.166 Z " fill="#000000"/><text fill="#000000" font-family="sans-serif" font-size="12" font-style="italic" lengthAdjust="spacing" textLength="46" x="329.5" y="180.9492">&#171;Value&#187;</text><text fill="#000000" font-family="sans-serif" font-size="14" lengthAdjust="spacing" textLength="95" x="305" y="199.0684">InterviewForms</text><line style="stroke:#181818;stroke-width:0.5;" x1="277" x2="402" y1="207.582" y2="207.582"/><line style="stroke:#181818;stroke-width:0.5;" x1="277" x2="402" y1="215.582" y2="215.582"/></g><!--class InterviewDate--><g id="elem_InterviewDate"><rect codeLine="10" fill="#F1F1F1" height="60.582" id="InterviewDate" rx="2.5" ry="2.5" style="stroke:#181818;stroke-width:0.5;" width="117" x="7" y="163"/><ellipse cx="22" cy="185.291" fill="#ADD1B2" rx="11" ry="11" style="stroke:#181818;stroke-width:1.0;"/><path d="M24.7656,181.166 Q24.9219,180.9473 25.1094,180.8379 Q25.2969,180.7285 25.5156,180.7285 Q25.8906,180.7285 26.125,180.9941 Q26.3594,181.2441 26.3594,181.8535 L26.3594,183.3066 Q26.3594,183.916 26.125,184.1816 Q25.8906,184.4473 25.5156,184.4473 Q25.1719,184.4473 24.9688,184.2441 Q24.7656,184.0566 24.6563,183.541 Q24.6094,183.1816 24.4219,182.9941 Q24.0938,182.6191 23.4844,182.4004 Q22.875,182.1816 22.25,182.1816 Q21.4844,182.1816 20.8438,182.5098 Q20.2188,182.8379 19.7188,183.5879 Q19.2344,184.3379 19.2344,185.3691 L19.2344,186.4629 Q19.2344,187.6973 20.125,188.5254 Q21.0156,189.3379 22.6094,189.3379 Q23.5469,189.3379 24.2031,189.0879 Q24.5938,188.9316 25.0156,188.4941 Q25.2813,188.2285 25.4219,188.1504 Q25.5781,188.0723 25.7813,188.0723 Q26.1094,188.0723 26.3594,188.3379 Q26.625,188.5879 26.625,188.9316 Q26.625,189.2754 26.2813,189.6816 Q25.7813,190.2598 24.9844,190.5879 Q23.9063,191.041 22.6094,191.041 Q21.0938,191.041 19.8906,190.416 Q18.9063,189.916 18.2188,188.8535 Q17.5313,187.7754 17.5313,186.4941 L17.5313,185.3379 Q17.5313,184.0098 18.1406,182.8691 Q18.7656,181.7129 19.8594,181.1035 Q20.9531,180.4785 22.1875,180.4785 Q22.9219,180.4785 23.5625,180.6504 Q24.2188,180.8066 24.7656,181.166 Z " fill="#000000"/><text fill="#000000" font-family="sans-serif" font-size="12" font-style="italic" lengthAdjust="spacing" textLength="46" x="55.5" y="180.9492">&#171;Value&#187;</text><text fill="#000000" font-family="sans-serif" font-size="14" lengthAdjust="spacing" textLength="85" x="36" y="199.0684">InterviewDate</text><line style="stroke:#181818;stroke-width:0.5;" x1="8" x2="123" y1="207.582" y2="207.582"/><line style="stroke:#181818;stroke-width:0.5;" x1="8" x2="123" y1="215.582" y2="215.582"/></g><!--class Score--><g id="elem_Score"><rect codeLine="14" fill="#F1F1F1" height="60.582" id="Score" rx="2.5" ry="2.5" style="stroke:#181818;stroke-width:0.5;" width="74" x="159.5" y="163"/><ellipse cx="174.5" cy="185.291" fill="#ADD1B2" rx="11" ry="11" style="stroke:#181818;stroke-width:1.0;"/><path d="M177.2656,181.166 Q177.4219,180.9473 177.6094,180.8379 Q177.7969,180.7285 178.0156,180.7285 Q178.3906,180.7285 178.625,180.9941 Q178.8594,181.2441 178.8594,181.8535 L178.8594,183.3066 Q178.8594,183.916 178.625,184.1816 Q178.3906,184.4473 178.0156,184.4473 Q177.6719,184.4473 177.4688,184.2441 Q177.2656,184.0566 177.1563,183.541 Q177.1094,183.1816 176.9219,182.9941 Q176.5938,182.6191 175.9844,182.4004 Q175.375,182.1816 174.75,182.1816 Q173.9844,182.1816 173.3438,182.5098 Q172.7188,182.8379 172.2188,183.5879 Q171.7344,184.3379 171.7344,185.3691 L171.7344,186.4629 Q171.7344,187.6973 172.625,188.5254 Q173.5156,189.3379 175.1094,189.3379 Q176.0469,189.3379 176.7031,189.0879 Q177.0938,188.9316 177.5156,188.4941 Q177.7813,188.2285 177.9219,188.1504 Q178.0781,188.0723 178.2813,188.0723 Q178.6094,188.0723 178.8594,188.3379 Q179.125,188.5879 179.125,188.9316 Q179.125,189.2754 178.7813,189.6816 Q178.2813,190.2598 177.4844,190.5879 Q176.4063,191.041 175.1094,191.041 Q173.5938,191.041 172.3906,190.416 Q171.4063,189.916 170.7188,188.8535 Q170.0313,187.7754 170.0313,186.4941 L170.0313,185.3379 Q170.0313,184.0098 170.6406,182.8691 Q171.2656,181.7129 172.3594,181.1035 Q173.4531,180.4785 174.6875,180.4785 Q175.4219,180.4785 176.0625,180.6504 Q176.7188,180.8066 177.2656,181.166 Z " fill="#000000"/><text fill="#000000" font-family="sans-serif" font-size="12" font-style="italic" lengthAdjust="spacing" textLength="46" x="186.5" y="180.9492">&#171;Value&#187;</text><text fill="#000000" font-family="sans-serif" font-size="14" lengthAdjust="spacing" textLength="37" x="191" y="199.0684">Score</text><line style="stroke:#181818;stroke-width:0.5;" x1="160.5" x2="232.5" y1="207.582" y2="207.582"/><line style="stroke:#181818;stroke-width:0.5;" x1="160.5" x2="232.5" y1="215.582" y2="215.582"/></g><!--class CustomerManager--><g id="elem_CustomerManager"><rect codeLine="17" fill="#F1F1F1" height="76.543" id="CustomerManager" rx="2.5" ry="2.5" style="stroke:#181818;stroke-width:0.5;" width="149" x="271" y="7"/><ellipse cx="286" cy="37.2715" fill="#ADD1B2" rx="11" ry="11" style="stroke:#181818;stroke-width:1.0;"/><path d="M284.8594,38.0684 L284.8594,40.5684 L289.1875,40.5684 L289.1875,39.6465 Q289.1875,39.0371 289.4219,38.7715 Q289.6719,38.5059 290.0469,38.5059 Q290.4219,38.5059 290.6563,38.7715 Q290.8906,39.0371 290.8906,39.6465 L290.8906,42.2715 L282.8906,42.2715 Q282.2656,42.2715 282,42.0371 Q281.75,41.8027 281.75,41.4121 Q281.75,41.0371 282.0156,40.8027 Q282.2813,40.5684 282.8906,40.5684 L283.1563,40.5684 L283.1563,33.9121 L282.8906,33.9121 Q282.2656,33.9121 282,33.6777 Q281.75,33.4434 281.75,33.0527 Q281.75,32.6777 282,32.4434 Q282.2656,32.209 282.8906,32.209 L290.5156,32.209 L290.5156,34.8027 Q290.5156,35.4121 290.2813,35.6777 Q290.0625,35.9277 289.6719,35.9277 Q289.2969,35.9277 289.0625,35.6777 Q288.8281,35.4121 288.8281,34.8027 L288.8281,33.9121 L284.8594,33.9121 L284.8594,36.3652 L286.3438,36.3652 Q286.3438,35.709 286.4688,35.5215 Q286.7344,35.1152 287.2031,35.1152 Q287.5781,35.1152 287.8125,35.3809 Q288.0469,35.6309 288.0469,36.2402 L288.0469,38.209 Q288.0469,38.7559 287.9219,38.9434 Q287.6563,39.334 287.2031,39.334 Q286.7344,39.334 286.4688,38.9277 Q286.3438,38.7402 286.3438,38.0684 L284.8594,38.0684 Z " fill="#000000"/><text fill="#000000" font-family="sans-serif" font-size="12" font-style="italic" lengthAdjust="spacing" textLength="43" x="337" y="24.9492">&#171;entity&#187;</text><text fill="#000000" font-family="sans-serif" font-size="12" font-style="italic" lengthAdjust="spacing" textLength="35" x="341" y="40.9102">&#171;root&#187;</text><text fill="#000000" font-family="sans-serif" font-size="14" lengthAdjust="spacing" textLength="117" x="300" y="59.0293">CustomerManager</text><line style="stroke:#181818;stroke-width:0.5;" x1="272" x2="419" y1="67.543" y2="67.543"/><line style="stroke:#181818;stroke-width:0.5;" x1="272" x2="419" y1="75.543" y2="75.543"/></g><!--link Interview to Score--><g id="link_Interview_Score"><path codeLine="20" d="M193.53,84.1 C194.2,108.6 194.9064,134.1222 195.5264,156.8522 " fill="none" id="Interview-to-Score" style="stroke:#181818;stroke-width:1.0;"/><polygon fill="#181818" points="195.69,162.85,199.4431,153.7443,195.5537,157.8519,191.4461,153.9624,195.69,162.85" style="stroke:#181818;stroke-width:1.0;"/><text fill="#000000" font-family="sans-serif" font-size="13" lengthAdjust="spacing" textLength="57" x="195.5" y="129.0283">generates</text><text fill="#000000" font-family="sans-serif" font-size="13" lengthAdjust="spacing" textLength="7" x="186.1363" y="105.6945">1</text><text fill="#000000" font-family="sans-serif" font-size="13" lengthAdjust="spacing" textLength="7" x="187.8011" y="151.8767">1</text></g><!--link Interview to InterviewForms--><g id="link_Interview_InterviewForms"><path codeLine="21" d="M231.28,84.25 C241.16,93.92 251.75,104.32 261.5,114 C277.73,130.1 291.4962,143.9386 306.1162,158.6886 " fill="none" id="Interview-to-InterviewForms" style="stroke:#181818;stroke-width:1.0;"/><polygon fill="#181818" points="310.34,162.95,306.8452,153.7421,306.8201,159.3989,301.1634,159.3738,310.34,162.95" style="stroke:#181818;stroke-width:1.0;"/><text fill="#000000" font-family="sans-serif" font-size="13" lengthAdjust="spacing" textLength="7" x="229.6823" y="105.5707">1</text><text fill="#000000" font-family="sans-serif" font-size="13" lengthAdjust="spacing" textLength="7" x="296.1956" y="151.5137">1</text></g><!--link Interview to InterviewDate--><g id="link_Interview_InterviewDate"><path codeLine="22" d="M159.79,84.1 C138.48,108.6 114.9976,135.5928 95.2276,158.3228 " fill="none" id="Interview-to-InterviewDate" style="stroke:#181818;stroke-width:1.0;"/><polygon fill="#181818" points="91.29,162.85,100.2145,158.6843,94.5713,159.0774,94.1783,153.4342,91.29,162.85" style="stroke:#181818;stroke-width:1.0;"/><text fill="#000000" font-family="sans-serif" font-size="13" lengthAdjust="spacing" textLength="7" x="147.019" y="105.6945">1</text><text fill="#000000" font-family="sans-serif" font-size="13" lengthAdjust="spacing" textLength="7" x="88.8873" y="151.8767">1</text></g><!--link CustomerManager to InterviewForms--><g id="link_CustomerManager_InterviewForms"><path codeLine="23" d="M343.95,84.1 C342.95,108.6 341.8953,134.125 340.9653,156.855 " fill="none" id="CustomerManager-to-InterviewForms" style="stroke:#181818;stroke-width:1.0;"/><polygon fill="#181818" points="340.72,162.85,345.0846,154.021,340.9244,157.8542,337.0913,153.694,340.72,162.85" style="stroke:#181818;stroke-width:1.0;"/><text fill="#000000" font-family="sans-serif" font-size="13" lengthAdjust="spacing" textLength="45" x="343.5" y="129.0283">uploads</text><text fill="#000000" font-family="sans-serif" font-size="13" lengthAdjust="spacing" textLength="7" x="336.1452" y="105.6945">1</text><text fill="#000000" font-family="sans-serif" font-size="13" lengthAdjust="spacing" textLength="15" x="324.4248" y="151.8767">1..</text></g><!--SRC=[XO_12i8m38RlVOgm-mPUPVIY21uy2TxB36FGDPAqYWpVtNOJwWRJIrFuluJlH-Sx_uIZyyZt3XzGrqpajOuV73Ej1wK0Nkbfh179y86ubmXUZ0qOLrR1lV7uWpitnFFy4qy6i0lYgKS-6MTQv6oMROUqe7ADObD0MUfnJkUtqA93ZYQomirx_ODI9xKm-oAhQdam6eIR9NCLK6y0]--></g></svg>