<?xml version="1.0" encoding="us-ascii" standalone="no"?><svg xmlns="http://www.w3.org/2000/svg" xmlns:xlink="http://www.w3.org/1999/xlink" contentStyleType="text/css" height="796px" preserveAspectRatio="none" style="width:1386px;height:796px;background:#FFFFFF;" version="1.1" viewBox="0 0 1386 796" width="1386px" zoomAndPan="magnify"><defs/><g><text fill="#000000" font-family="sans-serif" font-size="14" font-weight="bold" lengthAdjust="spacing" textLength="280" x="546" y="25.1074">Select Job Requirements Class Diagram</text><!--class SelectJobRequirementsUI--><g id="elem_SelectJobRequirementsUI"><rect codeLine="3" fill="#F1F1F1" height="103.8633" id="SelectJobRequirementsUI" rx="2.5" ry="2.5" style="stroke:#181818;stroke-width:0.5;" width="297" x="506.5" y="46.6211"/><ellipse cx="570.25" cy="62.6211" fill="#ADD1B2" rx="11" ry="11" style="stroke:#181818;stroke-width:1.0;"/><path d="M573.0156,58.4961 Q573.1719,58.2773 573.3594,58.168 Q573.5469,58.0586 573.7656,58.0586 Q574.1406,58.0586 574.375,58.3242 Q574.6094,58.5742 574.6094,59.1836 L574.6094,60.6367 Q574.6094,61.2461 574.375,61.5117 Q574.1406,61.7773 573.7656,61.7773 Q573.4219,61.7773 573.2188,61.5742 Q573.0156,61.3867 572.9063,60.8711 Q572.8594,60.5117 572.6719,60.3242 Q572.3438,59.9492 571.7344,59.7305 Q571.125,59.5117 570.5,59.5117 Q569.7344,59.5117 569.0938,59.8398 Q568.4688,60.168 567.9688,60.918 Q567.4844,61.668 567.4844,62.6992 L567.4844,63.793 Q567.4844,65.0273 568.375,65.8555 Q569.2656,66.668 570.8594,66.668 Q571.7969,66.668 572.4531,66.418 Q572.8438,66.2617 573.2656,65.8242 Q573.5313,65.5586 573.6719,65.4805 Q573.8281,65.4023 574.0313,65.4023 Q574.3594,65.4023 574.6094,65.668 Q574.875,65.918 574.875,66.2617 Q574.875,66.6055 574.5313,67.0117 Q574.0313,67.5898 573.2344,67.918 Q572.1563,68.3711 570.8594,68.3711 Q569.3438,68.3711 568.1406,67.7461 Q567.1563,67.2461 566.4688,66.1836 Q565.7813,65.1055 565.7813,63.8242 L565.7813,62.668 Q565.7813,61.3398 566.3906,60.1992 Q567.0156,59.043 568.1094,58.4336 Q569.2031,57.8086 570.4375,57.8086 Q571.1719,57.8086 571.8125,57.9805 Q572.4688,58.1367 573.0156,58.4961 Z " fill="#000000"/><text fill="#000000" font-family="sans-serif" font-size="14" lengthAdjust="spacing" textLength="161" x="590.75" y="68.418">SelectJobRequirementsUI</text><line style="stroke:#181818;stroke-width:0.5;" x1="507.5" x2="802.5" y1="78.6211" y2="78.6211"/><line style="stroke:#181818;stroke-width:0.5;" x1="507.5" x2="802.5" y1="86.6211" y2="86.6211"/><ellipse cx="517.5" cy="101.4316" fill="#84BE84" rx="3" ry="3" style="stroke:#038048;stroke-width:1.0;"/><text fill="#000000" font-family="sans-serif" font-size="14" lengthAdjust="spacing" textLength="123" x="526.5" y="105.7285">doShow() : boolean</text><ellipse cx="517.5" cy="120.0527" fill="#84BE84" rx="3" ry="3" style="stroke:#038048;stroke-width:1.0;"/><text fill="#000000" font-family="sans-serif" font-size="14" lengthAdjust="spacing" textLength="113" x="526.5" y="124.3496">headline() : String</text><ellipse cx="517.5" cy="138.6738" fill="#84BE84" rx="3" ry="3" style="stroke:#038048;stroke-width:1.0;"/><text fill="#000000" font-family="sans-serif" font-size="14" lengthAdjust="spacing" textLength="271" x="526.5" y="142.9707">showMenuAndGetSelection() : JobOpening</text></g><!--class SelectJobRequirementsController--><g id="elem_SelectJobRequirementsController"><rect codeLine="9" fill="#F1F1F1" height="85.2422" id="SelectJobRequirementsController" rx="2.5" ry="2.5" style="stroke:#181818;stroke-width:0.5;" width="567" x="371.5" y="229.6211"/><ellipse cx="545.25" cy="245.6211" fill="#ADD1B2" rx="11" ry="11" style="stroke:#181818;stroke-width:1.0;"/><path d="M548.0156,241.4961 Q548.1719,241.2773 548.3594,241.168 Q548.5469,241.0586 548.7656,241.0586 Q549.1406,241.0586 549.375,241.3242 Q549.6094,241.5742 549.6094,242.1836 L549.6094,243.6367 Q549.6094,244.2461 549.375,244.5117 Q549.1406,244.7773 548.7656,244.7773 Q548.4219,244.7773 548.2188,244.5742 Q548.0156,244.3867 547.9063,243.8711 Q547.8594,243.5117 547.6719,243.3242 Q547.3438,242.9492 546.7344,242.7305 Q546.125,242.5117 545.5,242.5117 Q544.7344,242.5117 544.0938,242.8398 Q543.4688,243.168 542.9688,243.918 Q542.4844,244.668 542.4844,245.6992 L542.4844,246.793 Q542.4844,248.0273 543.375,248.8555 Q544.2656,249.668 545.8594,249.668 Q546.7969,249.668 547.4531,249.418 Q547.8438,249.2617 548.2656,248.8242 Q548.5313,248.5586 548.6719,248.4805 Q548.8281,248.4023 549.0313,248.4023 Q549.3594,248.4023 549.6094,248.668 Q549.875,248.918 549.875,249.2617 Q549.875,249.6055 549.5313,250.0117 Q549.0313,250.5898 548.2344,250.918 Q547.1563,251.3711 545.8594,251.3711 Q544.3438,251.3711 543.1406,250.7461 Q542.1563,250.2461 541.4688,249.1836 Q540.7813,248.1055 540.7813,246.8242 L540.7813,245.668 Q540.7813,244.3398 541.3906,243.1992 Q542.0156,242.043 543.1094,241.4336 Q544.2031,240.8086 545.4375,240.8086 Q546.1719,240.8086 546.8125,240.9805 Q547.4688,241.1367 548.0156,241.4961 Z " fill="#000000"/><text fill="#000000" font-family="sans-serif" font-size="14" lengthAdjust="spacing" textLength="211" x="565.75" y="251.418">SelectJobRequirementsController</text><line style="stroke:#181818;stroke-width:0.5;" x1="372.5" x2="937.5" y1="261.6211" y2="261.6211"/><line style="stroke:#181818;stroke-width:0.5;" x1="372.5" x2="937.5" y1="269.6211" y2="269.6211"/><ellipse cx="382.5" cy="284.4316" fill="#84BE84" rx="3" ry="3" style="stroke:#038048;stroke-width:1.0;"/><text fill="#000000" font-family="sans-serif" font-size="14" lengthAdjust="spacing" textLength="272" x="391.5" y="288.7285">listAllJobOpenings(): Iterable&lt;JobOpening&gt;</text><ellipse cx="382.5" cy="303.0527" fill="#84BE84" rx="3" ry="3" style="stroke:#038048;stroke-width:1.0;"/><text fill="#000000" font-family="sans-serif" font-size="14" lengthAdjust="spacing" textLength="541" x="391.5" y="307.3496">selectJobRequirementsToJobOpening(jobReference: String, pluginName: String): void</text></g><!--class PersistenceContext--><g id="elem_PersistenceContext"><rect codeLine="14" fill="#F1F1F1" height="66.6211" id="PersistenceContext" rx="2.5" ry="2.5" style="stroke:#181818;stroke-width:0.5;" width="154" x="195" y="393.6211"/><ellipse cx="210" cy="409.6211" fill="#ADD1B2" rx="11" ry="11" style="stroke:#181818;stroke-width:1.0;"/><path d="M212.7656,405.4961 Q212.9219,405.2773 213.1094,405.168 Q213.2969,405.0586 213.5156,405.0586 Q213.8906,405.0586 214.125,405.3242 Q214.3594,405.5742 214.3594,406.1836 L214.3594,407.6367 Q214.3594,408.2461 214.125,408.5117 Q213.8906,408.7773 213.5156,408.7773 Q213.1719,408.7773 212.9688,408.5742 Q212.7656,408.3867 212.6563,407.8711 Q212.6094,407.5117 212.4219,407.3242 Q212.0938,406.9492 211.4844,406.7305 Q210.875,406.5117 210.25,406.5117 Q209.4844,406.5117 208.8438,406.8398 Q208.2188,407.168 207.7188,407.918 Q207.2344,408.668 207.2344,409.6992 L207.2344,410.793 Q207.2344,412.0273 208.125,412.8555 Q209.0156,413.668 210.6094,413.668 Q211.5469,413.668 212.2031,413.418 Q212.5938,413.2617 213.0156,412.8242 Q213.2813,412.5586 213.4219,412.4805 Q213.5781,412.4023 213.7813,412.4023 Q214.1094,412.4023 214.3594,412.668 Q214.625,412.918 214.625,413.2617 Q214.625,413.6055 214.2813,414.0117 Q213.7813,414.5898 212.9844,414.918 Q211.9063,415.3711 210.6094,415.3711 Q209.0938,415.3711 207.8906,414.7461 Q206.9063,414.2461 206.2188,413.1836 Q205.5313,412.1055 205.5313,410.8242 L205.5313,409.668 Q205.5313,408.3398 206.1406,407.1992 Q206.7656,406.043 207.8594,405.4336 Q208.9531,404.8086 210.1875,404.8086 Q210.9219,404.8086 211.5625,404.9805 Q212.2188,405.1367 212.7656,405.4961 Z " fill="#000000"/><text fill="#000000" font-family="sans-serif" font-size="14" lengthAdjust="spacing" textLength="122" x="224" y="415.418">PersistenceContext</text><line style="stroke:#181818;stroke-width:0.5;" x1="196" x2="348" y1="425.6211" y2="425.6211"/><line style="stroke:#181818;stroke-width:0.5;" x1="196" x2="348" y1="433.6211" y2="433.6211"/><ellipse cx="206" cy="448.4316" fill="#84BE84" rx="3" ry="3" style="stroke:#038048;stroke-width:1.0;"/><text fill="#000000" font-family="sans-serif" font-size="14" lengthAdjust="spacing" textLength="84" x="215" y="452.7285">create(): void</text></g><!--class RepositoryFactory--><g id="elem_RepositoryFactory"><rect codeLine="18" fill="#F1F1F1" height="103.8633" id="RepositoryFactory" rx="2.5" ry="2.5" style="stroke:#181818;stroke-width:0.5;" width="322" x="111" y="539.6211"/><ellipse cx="209.75" cy="555.6211" fill="#ADD1B2" rx="11" ry="11" style="stroke:#181818;stroke-width:1.0;"/><path d="M212.5156,551.4961 Q212.6719,551.2773 212.8594,551.168 Q213.0469,551.0586 213.2656,551.0586 Q213.6406,551.0586 213.875,551.3242 Q214.1094,551.5742 214.1094,552.1836 L214.1094,553.6367 Q214.1094,554.2461 213.875,554.5117 Q213.6406,554.7773 213.2656,554.7773 Q212.9219,554.7773 212.7188,554.5742 Q212.5156,554.3867 212.4063,553.8711 Q212.3594,553.5117 212.1719,553.3242 Q211.8438,552.9492 211.2344,552.7305 Q210.625,552.5117 210,552.5117 Q209.2344,552.5117 208.5938,552.8398 Q207.9688,553.168 207.4688,553.918 Q206.9844,554.668 206.9844,555.6992 L206.9844,556.793 Q206.9844,558.0273 207.875,558.8555 Q208.7656,559.668 210.3594,559.668 Q211.2969,559.668 211.9531,559.418 Q212.3438,559.2617 212.7656,558.8242 Q213.0313,558.5586 213.1719,558.4805 Q213.3281,558.4023 213.5313,558.4023 Q213.8594,558.4023 214.1094,558.668 Q214.375,558.918 214.375,559.2617 Q214.375,559.6055 214.0313,560.0117 Q213.5313,560.5898 212.7344,560.918 Q211.6563,561.3711 210.3594,561.3711 Q208.8438,561.3711 207.6406,560.7461 Q206.6563,560.2461 205.9688,559.1836 Q205.2813,558.1055 205.2813,556.8242 L205.2813,555.668 Q205.2813,554.3398 205.8906,553.1992 Q206.5156,552.043 207.6094,551.4336 Q208.7031,550.8086 209.9375,550.8086 Q210.6719,550.8086 211.3125,550.9805 Q211.9688,551.1367 212.5156,551.4961 Z " fill="#000000"/><text fill="#000000" font-family="sans-serif" font-size="14" lengthAdjust="spacing" textLength="116" x="230.25" y="561.418">RepositoryFactory</text><line style="stroke:#181818;stroke-width:0.5;" x1="112" x2="432" y1="571.6211" y2="571.6211"/><line style="stroke:#181818;stroke-width:0.5;" x1="112" x2="432" y1="579.6211" y2="579.6211"/><ellipse cx="122" cy="594.4316" fill="#84BE84" rx="3" ry="3" style="stroke:#038048;stroke-width:1.0;"/><text fill="#000000" font-family="sans-serif" font-size="14" lengthAdjust="spacing" textLength="87" x="131" y="598.7285">factory(): void</text><ellipse cx="122" cy="613.0527" fill="#84BE84" rx="3" ry="3" style="stroke:#038048;stroke-width:1.0;"/><text fill="#000000" font-family="sans-serif" font-size="14" lengthAdjust="spacing" textLength="242" x="131" y="617.3496">jobOpenings(): JobOpeningRepository</text><ellipse cx="122" cy="631.6738" fill="#84BE84" rx="3" ry="3" style="stroke:#038048;stroke-width:1.0;"/><text fill="#000000" font-family="sans-serif" font-size="14" lengthAdjust="spacing" textLength="296" x="131" y="635.9707">interviewModels(): JobRequirementsRepository</text></g><!--class JobReference--><g id="elem_JobReference"><rect codeLine="24" fill="#F1F1F1" height="66.6211" id="JobReference" rx="2.5" ry="2.5" style="stroke:#181818;stroke-width:0.5;" width="541" x="384.5" y="393.6211"/><ellipse cx="606.75" cy="409.6211" fill="#ADD1B2" rx="11" ry="11" style="stroke:#181818;stroke-width:1.0;"/><path d="M609.5156,405.4961 Q609.6719,405.2773 609.8594,405.168 Q610.0469,405.0586 610.2656,405.0586 Q610.6406,405.0586 610.875,405.3242 Q611.1094,405.5742 611.1094,406.1836 L611.1094,407.6367 Q611.1094,408.2461 610.875,408.5117 Q610.6406,408.7773 610.2656,408.7773 Q609.9219,408.7773 609.7188,408.5742 Q609.5156,408.3867 609.4063,407.8711 Q609.3594,407.5117 609.1719,407.3242 Q608.8438,406.9492 608.2344,406.7305 Q607.625,406.5117 607,406.5117 Q606.2344,406.5117 605.5938,406.8398 Q604.9688,407.168 604.4688,407.918 Q603.9844,408.668 603.9844,409.6992 L603.9844,410.793 Q603.9844,412.0273 604.875,412.8555 Q605.7656,413.668 607.3594,413.668 Q608.2969,413.668 608.9531,413.418 Q609.3438,413.2617 609.7656,412.8242 Q610.0313,412.5586 610.1719,412.4805 Q610.3281,412.4023 610.5313,412.4023 Q610.8594,412.4023 611.1094,412.668 Q611.375,412.918 611.375,413.2617 Q611.375,413.6055 611.0313,414.0117 Q610.5313,414.5898 609.7344,414.918 Q608.6563,415.3711 607.3594,415.3711 Q605.8438,415.3711 604.6406,414.7461 Q603.6563,414.2461 602.9688,413.1836 Q602.2813,412.1055 602.2813,410.8242 L602.2813,409.668 Q602.2813,408.3398 602.8906,407.1992 Q603.5156,406.043 604.6094,405.4336 Q605.7031,404.8086 606.9375,404.8086 Q607.6719,404.8086 608.3125,404.9805 Q608.9688,405.1367 609.5156,405.4961 Z " fill="#000000"/><text fill="#000000" font-family="sans-serif" font-size="14" lengthAdjust="spacing" textLength="88" x="627.25" y="415.418">JobReference</text><line style="stroke:#181818;stroke-width:0.5;" x1="385.5" x2="924.5" y1="425.6211" y2="425.6211"/><line style="stroke:#181818;stroke-width:0.5;" x1="385.5" x2="924.5" y1="433.6211" y2="433.6211"/><ellipse cx="395.5" cy="448.4316" fill="#84BE84" rx="3" ry="3" style="stroke:#038048;stroke-width:1.0;"/><text fill="#000000" font-family="sans-serif" font-size="14" lengthAdjust="spacing" textLength="515" x="404.5" y="452.7285">create(jobReference : String, code : CustomerCode, serialNumber : Integer ): void</text></g><!--class RequirementsSpecification--><g id="elem_RequirementsSpecification"><rect codeLine="28" fill="#F1F1F1" height="66.6211" id="RequirementsSpecification" rx="2.5" ry="2.5" style="stroke:#181818;stroke-width:0.5;" width="418" x="961" y="393.6211"/><ellipse cx="1081.75" cy="409.6211" fill="#ADD1B2" rx="11" ry="11" style="stroke:#181818;stroke-width:1.0;"/><path d="M1084.5156,405.4961 Q1084.6719,405.2773 1084.8594,405.168 Q1085.0469,405.0586 1085.2656,405.0586 Q1085.6406,405.0586 1085.875,405.3242 Q1086.1094,405.5742 1086.1094,406.1836 L1086.1094,407.6367 Q1086.1094,408.2461 1085.875,408.5117 Q1085.6406,408.7773 1085.2656,408.7773 Q1084.9219,408.7773 1084.7188,408.5742 Q1084.5156,408.3867 1084.4063,407.8711 Q1084.3594,407.5117 1084.1719,407.3242 Q1083.8438,406.9492 1083.2344,406.7305 Q1082.625,406.5117 1082,406.5117 Q1081.2344,406.5117 1080.5938,406.8398 Q1079.9688,407.168 1079.4688,407.918 Q1078.9844,408.668 1078.9844,409.6992 L1078.9844,410.793 Q1078.9844,412.0273 1079.875,412.8555 Q1080.7656,413.668 1082.3594,413.668 Q1083.2969,413.668 1083.9531,413.418 Q1084.3438,413.2617 1084.7656,412.8242 Q1085.0313,412.5586 1085.1719,412.4805 Q1085.3281,412.4023 1085.5313,412.4023 Q1085.8594,412.4023 1086.1094,412.668 Q1086.375,412.918 1086.375,413.2617 Q1086.375,413.6055 1086.0313,414.0117 Q1085.5313,414.5898 1084.7344,414.918 Q1083.6563,415.3711 1082.3594,415.3711 Q1080.8438,415.3711 1079.6406,414.7461 Q1078.6563,414.2461 1077.9688,413.1836 Q1077.2813,412.1055 1077.2813,410.8242 L1077.2813,409.668 Q1077.2813,408.3398 1077.8906,407.1992 Q1078.5156,406.043 1079.6094,405.4336 Q1080.7031,404.8086 1081.9375,404.8086 Q1082.6719,404.8086 1083.3125,404.9805 Q1083.9688,405.1367 1084.5156,405.4961 Z " fill="#000000"/><text fill="#000000" font-family="sans-serif" font-size="14" lengthAdjust="spacing" textLength="168" x="1102.25" y="415.418">RequirementsSpecification</text><line style="stroke:#181818;stroke-width:0.5;" x1="962" x2="1378" y1="425.6211" y2="425.6211"/><line style="stroke:#181818;stroke-width:0.5;" x1="962" x2="1378" y1="433.6211" y2="433.6211"/><ellipse cx="972" cy="448.4316" fill="#84BE84" rx="3" ry="3" style="stroke:#038048;stroke-width:1.0;"/><text fill="#000000" font-family="sans-serif" font-size="14" lengthAdjust="spacing" textLength="392" x="981" y="452.7285">create(jobReference: JobReference, pluginName: String): void</text></g><!--class JobOpeningRepository--><g id="elem_JobOpeningRepository"><rect codeLine="32" fill="#F1F1F1" height="66.6211" id="JobOpeningRepository" rx="2.5" ry="2.5" style="stroke:#181818;stroke-width:0.5;" width="260" x="7" y="722.6211"/><ellipse cx="60.75" cy="738.6211" fill="#ADD1B2" rx="11" ry="11" style="stroke:#181818;stroke-width:1.0;"/><path d="M63.5156,734.4961 Q63.6719,734.2773 63.8594,734.168 Q64.0469,734.0586 64.2656,734.0586 Q64.6406,734.0586 64.875,734.3242 Q65.1094,734.5742 65.1094,735.1836 L65.1094,736.6367 Q65.1094,737.2461 64.875,737.5117 Q64.6406,737.7773 64.2656,737.7773 Q63.9219,737.7773 63.7188,737.5742 Q63.5156,737.3867 63.4063,736.8711 Q63.3594,736.5117 63.1719,736.3242 Q62.8438,735.9492 62.2344,735.7305 Q61.625,735.5117 61,735.5117 Q60.2344,735.5117 59.5938,735.8398 Q58.9688,736.168 58.4688,736.918 Q57.9844,737.668 57.9844,738.6992 L57.9844,739.793 Q57.9844,741.0273 58.875,741.8555 Q59.7656,742.668 61.3594,742.668 Q62.2969,742.668 62.9531,742.418 Q63.3438,742.2617 63.7656,741.8242 Q64.0313,741.5586 64.1719,741.4805 Q64.3281,741.4023 64.5313,741.4023 Q64.8594,741.4023 65.1094,741.668 Q65.375,741.918 65.375,742.2617 Q65.375,742.6055 65.0313,743.0117 Q64.5313,743.5898 63.7344,743.918 Q62.6563,744.3711 61.3594,744.3711 Q59.8438,744.3711 58.6406,743.7461 Q57.6563,743.2461 56.9688,742.1836 Q56.2813,741.1055 56.2813,739.8242 L56.2813,738.668 Q56.2813,737.3398 56.8906,736.1992 Q57.5156,735.043 58.6094,734.4336 Q59.7031,733.8086 60.9375,733.8086 Q61.6719,733.8086 62.3125,733.9805 Q62.9688,734.1367 63.5156,734.4961 Z " fill="#000000"/><text fill="#000000" font-family="sans-serif" font-size="14" lengthAdjust="spacing" textLength="144" x="81.25" y="744.418">JobOpeningRepository</text><line style="stroke:#181818;stroke-width:0.5;" x1="8" x2="266" y1="754.6211" y2="754.6211"/><line style="stroke:#181818;stroke-width:0.5;" x1="8" x2="266" y1="762.6211" y2="762.6211"/><ellipse cx="18" cy="777.4316" fill="#84BE84" rx="3" ry="3" style="stroke:#038048;stroke-width:1.0;"/><text fill="#000000" font-family="sans-serif" font-size="14" lengthAdjust="spacing" textLength="234" x="27" y="781.7285">findAllOpen() : Iterable&lt;JobOpening&gt;</text></g><!--class JobRequirementsRepository--><g id="elem_JobRequirementsRepository"><rect codeLine="36" fill="#F1F1F1" height="66.6211" id="JobRequirementsRepository" rx="2.5" ry="2.5" style="stroke:#181818;stroke-width:0.5;" width="210" x="302" y="722.6211"/><ellipse cx="317" cy="738.6211" fill="#ADD1B2" rx="11" ry="11" style="stroke:#181818;stroke-width:1.0;"/><path d="M319.7656,734.4961 Q319.9219,734.2773 320.1094,734.168 Q320.2969,734.0586 320.5156,734.0586 Q320.8906,734.0586 321.125,734.3242 Q321.3594,734.5742 321.3594,735.1836 L321.3594,736.6367 Q321.3594,737.2461 321.125,737.5117 Q320.8906,737.7773 320.5156,737.7773 Q320.1719,737.7773 319.9688,737.5742 Q319.7656,737.3867 319.6563,736.8711 Q319.6094,736.5117 319.4219,736.3242 Q319.0938,735.9492 318.4844,735.7305 Q317.875,735.5117 317.25,735.5117 Q316.4844,735.5117 315.8438,735.8398 Q315.2188,736.168 314.7188,736.918 Q314.2344,737.668 314.2344,738.6992 L314.2344,739.793 Q314.2344,741.0273 315.125,741.8555 Q316.0156,742.668 317.6094,742.668 Q318.5469,742.668 319.2031,742.418 Q319.5938,742.2617 320.0156,741.8242 Q320.2813,741.5586 320.4219,741.4805 Q320.5781,741.4023 320.7813,741.4023 Q321.1094,741.4023 321.3594,741.668 Q321.625,741.918 321.625,742.2617 Q321.625,742.6055 321.2813,743.0117 Q320.7813,743.5898 319.9844,743.918 Q318.9063,744.3711 317.6094,744.3711 Q316.0938,744.3711 314.8906,743.7461 Q313.9063,743.2461 313.2188,742.1836 Q312.5313,741.1055 312.5313,739.8242 L312.5313,738.668 Q312.5313,737.3398 313.1406,736.1992 Q313.7656,735.043 314.8594,734.4336 Q315.9531,733.8086 317.1875,733.8086 Q317.9219,733.8086 318.5625,733.9805 Q319.2188,734.1367 319.7656,734.4961 Z " fill="#000000"/><text fill="#000000" font-family="sans-serif" font-size="14" lengthAdjust="spacing" textLength="178" x="331" y="744.418">JobRequirementsRepository</text><line style="stroke:#181818;stroke-width:0.5;" x1="303" x2="511" y1="754.6211" y2="754.6211"/><line style="stroke:#181818;stroke-width:0.5;" x1="303" x2="511" y1="762.6211" y2="762.6211"/><ellipse cx="313" cy="777.4316" fill="#84BE84" rx="3" ry="3" style="stroke:#038048;stroke-width:1.0;"/><text fill="#000000" font-family="sans-serif" font-size="14" lengthAdjust="spacing" textLength="183" x="322" y="781.7285">save(model : InterviewModel)</text></g><!--link SelectJobRequirementsUI to SelectJobRequirementsController--><g id="link_SelectJobRequirementsUI_SelectJobRequirementsController"><path codeLine="40" d="M655,151.0811 C655,176.1411 655,199.8811 655,223.4811 " fill="none" id="SelectJobRequirementsUI-to-SelectJobRequirementsController" style="stroke:#181818;stroke-width:1.0;"/><polygon fill="#181818" points="655,229.4811,659,220.4811,655,224.4811,651,220.4811,655,229.4811" style="stroke:#181818;stroke-width:1.0;"/><text fill="#000000" font-family="sans-serif" font-size="13" lengthAdjust="spacing" textLength="73" x="656" y="195.6494">theController</text></g><!--link SelectJobRequirementsController to PersistenceContext--><g id="link_SelectJobRequirementsController_PersistenceContext"><path codeLine="41" d="M551.1,314.6211 C487.41,340.0711 412.822,369.8656 354.762,393.0556 " fill="none" id="SelectJobRequirementsController-to-PersistenceContext" style="stroke:#181818;stroke-width:1.0;"/><polygon fill="#181818" points="349.19,395.2811,359.0317,395.6575,353.8333,393.4265,356.0643,388.2281,349.19,395.2811" style="stroke:#181818;stroke-width:1.0;"/><text fill="#000000" font-family="sans-serif" font-size="13" lengthAdjust="spacing" textLength="67" x="476" y="359.6494">persistence</text></g><!--link PersistenceContext to RepositoryFactory--><g id="link_PersistenceContext_RepositoryFactory"><path codeLine="42" d="M272,461.0011 C272,483.5411 272,507.8811 272,533.5411 " fill="none" id="PersistenceContext-to-RepositoryFactory" style="stroke:#181818;stroke-width:1.0;"/><polygon fill="#181818" points="272,539.5411,276,530.5411,272,534.5411,268,530.5411,272,539.5411" style="stroke:#181818;stroke-width:1.0;"/><text fill="#000000" font-family="sans-serif" font-size="13" lengthAdjust="spacing" textLength="39" x="273" y="505.6494">factory</text></g><!--link RepositoryFactory to JobOpeningRepository--><g id="link_RepositoryFactory_JobOpeningRepository"><path codeLine="43" d="M229.29,644.0411 C207.96,669.7011 186.643,695.355 167.993,717.815 " fill="none" id="RepositoryFactory-to-JobOpeningRepository" style="stroke:#181818;stroke-width:1.0;"/><polygon fill="#181818" points="164.16,722.4311,172.9869,718.0623,167.3542,718.5844,166.8321,712.9517,164.16,722.4311" style="stroke:#181818;stroke-width:1.0;"/><text fill="#000000" font-family="sans-serif" font-size="13" lengthAdjust="spacing" textLength="127" x="206" y="688.6494">jobOpeningRepository</text></g><!--link RepositoryFactory to JobRequirementsRepository--><g id="link_RepositoryFactory_JobRequirementsRepository"><path codeLine="44" d="M316.74,643.7811 C325.2,653.6211 333.93,663.9011 342,673.6211 C355.18,689.4911 365.788,702.6851 377.628,717.6551 " fill="none" id="RepositoryFactory-to-JobRequirementsRepository" style="stroke:#181818;stroke-width:1.0;"/><polygon fill="#181818" points="381.35,722.3611,378.9043,712.8207,378.2483,718.4394,372.6296,717.7835,381.35,722.3611" style="stroke:#181818;stroke-width:1.0;"/><text fill="#000000" font-family="sans-serif" font-size="13" lengthAdjust="spacing" textLength="162" x="358" y="688.6494">JobRequirementsRepository</text></g><!--link SelectJobRequirementsController to JobReference--><g id="link_SelectJobRequirementsController_JobReference"><path codeLine="45" d="M655,314.9311 C655,339.7011 655,364.6311 655,387.5811 " fill="none" id="SelectJobRequirementsController-to-JobReference" style="stroke:#181818;stroke-width:1.0;"/><polygon fill="#181818" points="655,393.5811,659,384.5811,655,388.5811,651,384.5811,655,393.5811" style="stroke:#181818;stroke-width:1.0;"/><text fill="#000000" font-family="sans-serif" font-size="13" lengthAdjust="spacing" textLength="36" x="656" y="359.6494">create</text></g><!--link SelectJobRequirementsController to RequirementsSpecification--><g id="link_SelectJobRequirementsController_RequirementsSpecification"><path codeLine="46" d="M794.71,314.6211 C878.26,339.4511 977.1483,368.833 1054.6983,391.863 " fill="none" id="SelectJobRequirementsController-to-RequirementsSpecification" style="stroke:#181818;stroke-width:1.0;"/><polygon fill="#181818" points="1060.45,393.5711,1052.9611,387.1745,1055.6569,392.1477,1050.6837,394.8434,1060.45,393.5711" style="stroke:#181818;stroke-width:1.0;"/><text fill="#000000" font-family="sans-serif" font-size="13" lengthAdjust="spacing" textLength="36" x="960" y="359.6494">create</text></g><!--SRC=[ZLDRRi8m4FpFAVOp27g1g492LAr0WbQaFO19bc3asAdjGAkgTw-T1qwA0-GdMU_ixknuegbc234oJ3GinHOs-5bIYJbohM3EY5BmH4acIHu4IHNMO8FjGZyMy1E0USQGYdWlJk488jWAmP3m9h57aZBAiKh5MbAUDHbb2bR8onbFNr3N0wZW5T0CUYsGM_3lLGfpmRKKZA5igJ2gz8mnrq65emWM6YNPCdnqvzCQhtnjtuN3XGURsw54dc2xmmGALcQKhqb-FZDZZeAcZl4RIcNOs3hB4xzqIpAHI3I65nKRB8IYMiZlPvBOLrkmgyDpHNLuwE_eABisDP2QuV98yRGIAR8Mt5suKt4ci-pi_OzuLn9mcYIclGddfT8YHpatuGGKIahOkiotvfBCJHWkcVdoxExen0KcT4SJOXrnPNRK8tdNfVXKiXF6iACyDSwnsSg4Ni_qrV49MDCr_YP737ChUBErku6HRJFqIpqyJ6zwFGAzHnS7j_2sfyUD4HJkCF00RDsb9oDex1XSvco5L-883Zv_3dOO4FUQS-zHOTbtRksfkog7_Tcs-GC0]--></g></svg>