<?xml version="1.0" encoding="us-ascii" standalone="no"?><svg xmlns="http://www.w3.org/2000/svg" xmlns:xlink="http://www.w3.org/1999/xlink" contentStyleType="text/css" height="737px" preserveAspectRatio="none" style="width:1443px;height:737px;background:#FFFFFF;" version="1.1" viewBox="0 0 1443 737" width="1443px" zoomAndPan="magnify"><defs/><g><polygon fill="#FFFFFF" points="33.5,92.2813,33.5,92.3513,35.5,92.1431,37.5,92.3457,39.5,92.4145,41.5,92.0435,43.5,92.2813,43.4223,92.2813,43.0735,102.3557,43.1165,112.4301,43.4318,122.5046,42.8086,132.579,44.0536,142.6534,42.8697,152.7279,43.3022,162.8023,43.9319,172.8768,43.4142,182.9512,43.5682,193.0256,43.4681,203.1001,43.6785,213.1745,43.7391,223.249,44.0857,233.3234,44.1711,243.3978,44.1793,253.4723,43.7546,263.5467,43.9636,273.6212,44.2022,283.6956,42.7788,293.77,44.1785,303.8445,43.2035,313.9189,44.0338,323.9934,43.005,334.0678,43.4315,344.1422,44.2416,354.2167,43.4513,364.2911,43.6053,374.3656,43.8386,384.44,43.9162,394.5144,43.4961,404.5889,43.7872,414.6633,42.9276,424.7378,43.7844,434.8122,44.0482,444.8866,43.9445,454.9611,44.113,465.0355,43.0169,475.11,42.8478,485.1844,42.8786,495.2588,43.4411,505.3333,43.3035,515.4077,44.1814,525.4822,43.3253,535.5566,43.1569,545.631,43.7283,555.7055,42.8332,565.7799,42.9809,575.8544,44.149,585.9288,43.9357,596.0032,44.2345,606.0777,43.1782,616.1521,43.5,626.2266,43.5,626.333,41.5,626.4234,39.5,626.0691,37.5,626.1946,35.5,626.2686,33.5,626.2266,34.1518,626.2266,33.4958,616.1521,33.9626,606.0777,32.9462,596.0032,32.8227,585.9288,34.0036,575.8544,32.7831,565.7799,34.009,555.7055,33.7066,545.631,33.2321,535.5566,33.1462,525.4822,33.9588,515.4077,33.2007,505.3333,34.0919,495.2588,32.9473,485.1844,34.1174,475.11,33.9843,465.0355,33.745,454.9611,33.5472,444.8866,34.2266,434.8122,34.1136,424.7378,33.6693,414.6633,33.7682,404.5889,33.3697,394.5144,34.2165,384.44,33.6549,374.3656,33.6726,364.2911,32.8916,354.2167,33.0948,344.1422,34.0307,334.0678,33.9298,323.9934,33.4571,313.9189,33.1778,303.8445,33.2811,293.77,32.8138,283.6956,33.9147,273.6212,34.2396,263.5467,34.0264,253.4723,34.1949,243.3978,33.3633,233.3234,33.5872,223.249,33.1124,213.1745,33.784,203.1001,33.7468,193.0256,34.0524,182.9512,33.2703,172.8768,33.3656,162.8023,33.9435,152.7279,34.0673,142.6534,32.9875,132.579,33.3061,122.5046,33.6493,112.4301,32.8892,102.3557,33.5,92.2813" style="stroke:#181818;stroke-width:1.0;"/><polygon fill="#FFFFFF" points="198.5,112.8047,198.5,112.8747,200.5,112.6666,202.5,112.8691,204.5,112.9379,206.5,112.5669,208.5,112.8047,208.4223,112.8047,208.0735,122.8718,208.1165,132.9389,208.4318,143.006,207.8086,153.0731,209.0536,163.1402,207.8697,173.2073,208.3022,183.2744,208.9319,193.3415,208.4142,203.4085,208.5682,213.4756,208.4681,223.5427,208.6785,233.6098,208.7391,243.6769,209.0857,253.744,209.1711,263.8111,209.1793,273.8782,208.7546,283.9453,208.9636,294.0124,209.2022,304.0795,207.7788,314.1466,209.1785,324.2137,208.2035,334.2808,209.0338,344.3479,208.005,354.415,208.4315,364.4821,209.2416,374.5492,208.4513,384.6163,208.6053,394.6834,208.8386,404.7505,208.9162,414.8176,208.4961,424.8847,208.7872,434.9517,207.9276,445.0188,208.7844,455.0859,209.0482,465.153,208.9445,475.2201,209.113,485.2872,208.0169,495.3543,207.8478,505.4214,207.8786,515.4885,208.4411,525.5556,208.3035,535.6227,209.1814,545.6898,208.3253,555.7569,208.1569,565.824,208.7283,575.8911,207.8332,585.9582,207.9809,596.0253,209.149,606.0924,208.9357,616.1595,208.5,626.2266,208.5,626.4714,206.5,626.1193,204.5,626.333,202.5,626.4234,200.5,626.0691,198.5,626.2266,198.4041,626.2266,198.626,616.1595,199.1518,606.0924,198.4958,596.0253,198.9626,585.9582,197.9462,575.8911,197.8227,565.824,199.0036,555.7569,197.7831,545.6898,199.009,535.6227,198.7066,525.5556,198.2321,515.4885,198.1462,505.4214,198.9588,495.3543,198.2007,485.2872,199.0919,475.2201,197.9473,465.153,199.1174,455.0859,198.9843,445.0188,198.745,434.9517,198.5472,424.8847,199.2266,414.8176,199.1136,404.7505,198.6693,394.6834,198.7682,384.6163,198.3697,374.5492,199.2165,364.4821,198.6549,354.415,198.6726,344.3479,197.8916,334.2808,198.0948,324.2137,199.0307,314.1466,198.9298,304.0795,198.4571,294.0124,198.1778,283.9453,198.2811,273.8782,197.8138,263.8111,198.9147,253.744,199.2396,243.6769,199.0264,233.6098,199.1949,223.5427,198.3633,213.4756,198.5872,203.4085,198.1124,193.3415,198.784,183.2744,198.7468,173.2073,199.0524,163.1402,198.2703,153.0731,198.3656,143.006,198.9435,132.9389,199.0673,122.8718,198.5,112.8047" style="stroke:#181818;stroke-width:1.0;"/><polygon fill="#FFFFFF" points="425.5,169.8516,425.5,169.9216,427.5,169.7135,429.5,169.916,431.5,169.9848,433.5,169.6138,435.5,169.8516,435.4223,169.8516,435.0735,179.8016,435.1165,189.7516,435.4318,199.7017,434.8086,209.6517,436.0536,219.6017,434.8697,229.5518,435.3022,239.5018,435.9319,249.4519,435.4142,259.4019,435.5682,269.3519,435.4681,279.302,435.6785,289.252,435.7391,299.202,436.0857,309.1521,436.1711,319.1021,436.1793,329.0521,435.7546,339.0022,435.9636,348.9522,436.2022,358.9023,434.7788,368.8523,436.1785,378.8023,435.2035,388.7524,436.0338,398.7024,435.005,408.6524,435.4315,418.6025,436.2416,428.5525,435.4513,438.5025,435.6053,448.4526,435.8386,458.4026,435.9162,468.3527,435.4961,478.3027,435.7872,488.2527,434.9276,498.2028,435.7844,508.1528,436.0482,518.1028,435.9445,528.0529,436.113,538.0029,435.0169,547.9529,434.8478,557.903,434.8786,567.853,435.4411,577.8031,435.3035,587.7531,435.5,597.7031,435.5,597.9303,433.5,597.6449,431.5,597.5888,429.5,597.7792,427.5,597.4808,425.5,597.7031,424.9809,597.7031,426.149,587.7531,425.9357,577.8031,426.2345,567.853,425.1782,557.903,425.8192,547.9529,426.0904,538.0029,425.0276,528.0529,425.4041,518.1028,425.626,508.1528,426.1518,498.2028,425.4958,488.2527,425.9626,478.3027,424.9462,468.3527,424.8227,458.4026,426.0036,448.4526,424.7831,438.5025,426.009,428.5525,425.7066,418.6025,425.2321,408.6524,425.1462,398.7024,425.9588,388.7524,425.2007,378.8023,426.0919,368.8523,424.9473,358.9023,426.1174,348.9522,425.9843,339.0022,425.745,329.0521,425.5472,319.1021,426.2266,309.1521,426.1136,299.202,425.6693,289.252,425.7682,279.302,425.3697,269.3519,426.2165,259.4019,425.6549,249.4519,425.6726,239.5018,424.8916,229.5518,425.0948,219.6017,426.0307,209.6517,425.9298,199.7017,425.4571,189.7516,425.1778,179.8016,425.5,169.8516" style="stroke:#181818;stroke-width:1.0;"/><polygon fill="#FFFFFF" points="777.5,198.375,777.5,198.4451,779.5,198.2369,781.5,198.4394,783.5,198.5082,785.5,198.1372,787.5,198.375,787.4223,198.375,787.0735,207.8828,787.1165,217.3906,787.4318,226.8984,786.8086,236.4063,788.0536,245.9141,787.5,255.4219,787.5,255.2118,785.5,255.356,783.5,255.5659,781.5,255.3933,779.5,255.4446,777.5,255.4219,777.4681,255.4219,777.6785,245.9141,777.7391,236.4063,778.0857,226.8984,778.1711,217.3906,778.1793,207.8828,777.5,198.375" style="stroke:#181818;stroke-width:1.0;"/><polygon fill="#FFFFFF" points="920.5,283.9453,920.5,284.0154,922.5,283.8072,924.5,284.0097,926.5,284.0785,928.5,283.7075,930.5,283.9453,930.4741,283.9453,930.3578,289.65,930.3722,295.3547,930.4773,301.0594,930.2695,306.7641,930.5,312.4688,930.5,312.6533,928.5,312.2587,926.5,312.4028,924.5,312.6127,922.5,312.4402,920.5,312.4688,920.5227,312.4688,920.4894,306.7641,920.5595,301.0594,920.5797,295.3547,920.6952,289.65,920.5,283.9453" style="stroke:#181818;stroke-width:1.0;"/><polygon fill="#FFFFFF" points="920.5,426.5625,920.5,426.6326,922.5,426.4244,924.5,426.6269,926.5,426.6957,928.5,426.3247,930.5,426.5625,930.4741,426.5625,930.3578,432.2672,930.3722,437.9719,930.4773,443.6766,930.2695,449.3813,930.5,455.0859,930.5,455.2705,928.5,454.8758,926.5,455.02,924.5,455.2299,922.5,455.0573,920.5,455.0859,920.5227,455.0859,920.4894,449.3813,920.5595,443.6766,920.5797,437.9719,920.6952,432.2672,920.5,426.5625" style="stroke:#181818;stroke-width:1.0;"/><polygon fill="#FFFFFF" points="1064,540.6563,1064,540.7263,1066,540.5181,1068,540.7207,1070,540.7895,1072,540.4185,1074,540.6563,1073.9741,540.6563,1073.8578,546.3609,1073.8722,552.0656,1073.9773,557.7703,1073.7695,563.475,1074,569.1797,1074,569.3642,1072,568.9696,1070,569.1138,1068,569.3237,1066,569.1511,1064,569.1797,1064.0227,569.1797,1063.9894,563.475,1064.0595,557.7703,1064.0797,552.0656,1064.1952,546.3609,1064,540.6563" style="stroke:#181818;stroke-width:1.0;"/><polygon fill="#FFFFFF" points="1210,483.6094,1210,483.6794,1212,483.4713,1214,483.6738,1216,483.7426,1218,483.3716,1220,483.6094,1219.9741,483.6094,1219.8578,489.3141,1219.8722,495.0188,1219.9773,500.7234,1219.7695,506.4281,1220,512.1328,1220,512.3174,1218,511.9227,1216,512.0669,1214,512.2768,1212,512.1042,1210,512.1328,1210.0227,512.1328,1209.9894,506.4281,1210.0595,500.7234,1210.0797,495.0188,1210.1952,489.3141,1210,483.6094" style="stroke:#181818;stroke-width:1.0;"/><path d="M38,82.2813 L38.2802,82.2813 L37.4476,92.316 L38.2577,102.3507 L38.5329,112.3855 L37.0488,122.4202 L37.8964,132.4549 L37.4313,142.4897 L37.4887,152.5244 L37.9091,162.5592 L37.0782,172.5939 L38.7382,182.6286 L37.1596,192.6634 L37.7363,202.6981 L38.5759,212.7328 L37.8856,222.7676 L38.091,232.8023 L37.9574,242.8371 L38.238,252.8718 L38.3188,262.9065 L38.7809,272.9413 L38.8947,282.976 L38.9057,293.0107 L38.3395,303.0455 L38.6181,313.0802 L38.9363,323.115 L37.0384,333.1497 L38.9047,343.1844 L37.6047,353.2192 L38.7117,363.2539 L37.34,373.2886 L37.9087,383.3234 L38.9888,393.3581 L37.935,403.3929 L38.1404,413.4276 L38.4515,423.4623 L38.555,433.4971 L37.9948,443.5318 L38.383,453.5665 L37.2368,463.6013 L38.3792,473.636 L38.7309,483.6708 L38.5927,493.7055 L38.8174,503.7402 L37.3559,513.775 L37.1304,523.8097 L37.1715,533.8444 L37.9215,543.8792 L37.738,553.9139 L38.9085,563.9487 L37.7671,573.9834 L37.5426,584.0181 L38.3044,594.0529 L37.1109,604.0876 L37.3078,614.1223 L38.8653,624.1571 L38.5809,634.1918 L38,644.2266 " fill="none" style="stroke:#181818;stroke-width:0.5;stroke-dasharray:5.0,5.0;"/><path d="M203.5,82.2813 L203.7802,82.2813 L202.9476,92.316 L203.7577,102.3507 L204.0329,112.3855 L202.5488,122.4202 L203.3964,132.4549 L202.9313,142.4897 L202.9887,152.5244 L203.4091,162.5592 L202.5782,172.5939 L204.2382,182.6286 L202.6596,192.6634 L203.2363,202.6981 L204.0759,212.7328 L203.3856,222.7676 L203.591,232.8023 L203.4574,242.8371 L203.738,252.8718 L203.8188,262.9065 L204.2809,272.9413 L204.3947,282.976 L204.4057,293.0107 L203.8395,303.0455 L204.1181,313.0802 L204.4363,323.115 L202.5384,333.1497 L204.4047,343.1844 L203.1047,353.2192 L204.2117,363.2539 L202.84,373.2886 L203.4087,383.3234 L204.4888,393.3581 L203.435,403.3929 L203.6404,413.4276 L203.9515,423.4623 L204.055,433.4971 L203.4948,443.5318 L203.883,453.5665 L202.7368,463.6013 L203.8792,473.636 L204.2309,483.6708 L204.0927,493.7055 L204.3174,503.7402 L202.8559,513.775 L202.6304,523.8097 L202.6715,533.8444 L203.4215,543.8792 L203.238,553.9139 L204.4085,563.9487 L203.2671,573.9834 L203.0426,584.0181 L203.8044,594.0529 L202.6109,604.0876 L202.8078,614.1223 L204.3653,624.1571 L204.0809,634.1918 L203.5,644.2266 " fill="none" style="stroke:#181818;stroke-width:0.5;stroke-dasharray:5.0,5.0;"/><path d="M430.5,82.2813 L430.7802,82.2813 L429.9476,92.316 L430.7577,102.3507 L431.0329,112.3855 L429.5488,122.4202 L430.3964,132.4549 L429.9313,142.4897 L429.9887,152.5244 L430.4091,162.5592 L429.5782,172.5939 L431.2382,182.6286 L429.6596,192.6634 L430.2363,202.6981 L431.0759,212.7328 L430.3856,222.7676 L430.591,232.8023 L430.4574,242.8371 L430.738,252.8718 L430.8188,262.9065 L431.2809,272.9413 L431.3947,282.976 L431.4057,293.0107 L430.8395,303.0455 L431.1181,313.0802 L431.4363,323.115 L429.5384,333.1497 L431.4047,343.1844 L430.1047,353.2192 L431.2117,363.2539 L429.84,373.2886 L430.4087,383.3234 L431.4888,393.3581 L430.435,403.3929 L430.6404,413.4276 L430.9515,423.4623 L431.055,433.4971 L430.4948,443.5318 L430.883,453.5665 L429.7368,463.6013 L430.8792,473.636 L431.2309,483.6708 L431.0927,493.7055 L431.3174,503.7402 L429.8559,513.775 L429.6304,523.8097 L429.6715,533.8444 L430.4215,543.8792 L430.238,553.9139 L431.4085,563.9487 L430.2671,573.9834 L430.0426,584.0181 L430.8044,594.0529 L429.6109,604.0876 L429.8078,614.1223 L431.3653,624.1571 L431.0809,634.1918 L430.5,644.2266 " fill="none" style="stroke:#181818;stroke-width:0.5;stroke-dasharray:5.0,5.0;"/><path d="M632.5,82.2813 L632.7802,82.2813 L631.9476,92.316 L632.7577,102.3507 L633.0329,112.3855 L631.5488,122.4202 L632.3964,132.4549 L631.9313,142.4897 L631.9887,152.5244 L632.4091,162.5592 L631.5782,172.5939 L633.2382,182.6286 L631.6596,192.6634 L632.2363,202.6981 L633.0759,212.7328 L632.3856,222.7676 L632.591,232.8023 L632.4574,242.8371 L632.738,252.8718 L632.8188,262.9065 L633.2809,272.9413 L633.3947,282.976 L633.4057,293.0107 L632.8395,303.0455 L633.1181,313.0802 L633.4363,323.115 L631.5384,333.1497 L633.4047,343.1844 L632.1047,353.2192 L633.2117,363.2539 L631.84,373.2886 L632.4087,383.3234 L633.4888,393.3581 L632.435,403.3929 L632.6404,413.4276 L632.9515,423.4623 L633.055,433.4971 L632.4948,443.5318 L632.883,453.5665 L631.7368,463.6013 L632.8792,473.636 L633.2309,483.6708 L633.0927,493.7055 L633.3174,503.7402 L631.8559,513.775 L631.6304,523.8097 L631.6715,533.8444 L632.4215,543.8792 L632.238,553.9139 L633.4085,563.9487 L632.2671,573.9834 L632.0426,584.0181 L632.8044,594.0529 L631.6109,604.0876 L631.8078,614.1223 L633.3653,624.1571 L633.0809,634.1918 L632.5,644.2266 " fill="none" style="stroke:#181818;stroke-width:0.5;stroke-dasharray:5.0,5.0;"/><path d="M782.5,82.2813 L782.7802,82.2813 L781.9476,92.316 L782.7577,102.3507 L783.0329,112.3855 L781.5488,122.4202 L782.3964,132.4549 L781.9313,142.4897 L781.9887,152.5244 L782.4091,162.5592 L781.5782,172.5939 L783.2382,182.6286 L781.6596,192.6634 L782.2363,202.6981 L783.0759,212.7328 L782.3856,222.7676 L782.591,232.8023 L782.4574,242.8371 L782.738,252.8718 L782.8188,262.9065 L783.2809,272.9413 L783.3947,282.976 L783.4057,293.0107 L782.8395,303.0455 L783.1181,313.0802 L783.4363,323.115 L781.5384,333.1497 L783.4047,343.1844 L782.1047,353.2192 L783.2117,363.2539 L781.84,373.2886 L782.4087,383.3234 L783.4888,393.3581 L782.435,403.3929 L782.6404,413.4276 L782.9515,423.4623 L783.055,433.4971 L782.4948,443.5318 L782.883,453.5665 L781.7368,463.6013 L782.8792,473.636 L783.2309,483.6708 L783.0927,493.7055 L783.3174,503.7402 L781.8559,513.775 L781.6304,523.8097 L781.6715,533.8444 L782.4215,543.8792 L782.238,553.9139 L783.4085,563.9487 L782.2671,573.9834 L782.0426,584.0181 L782.8044,594.0529 L781.6109,604.0876 L781.8078,614.1223 L783.3653,624.1571 L783.0809,634.1918 L782.5,644.2266 " fill="none" style="stroke:#181818;stroke-width:0.5;stroke-dasharray:5.0,5.0;"/><path d="M925.5,82.2813 L925.7802,82.2813 L924.9476,92.316 L925.7577,102.3507 L926.0329,112.3855 L924.5488,122.4202 L925.3964,132.4549 L924.9313,142.4897 L924.9887,152.5244 L925.4091,162.5592 L924.5782,172.5939 L926.2382,182.6286 L924.6596,192.6634 L925.2363,202.6981 L926.0759,212.7328 L925.3856,222.7676 L925.591,232.8023 L925.4574,242.8371 L925.738,252.8718 L925.8188,262.9065 L926.2809,272.9413 L926.3947,282.976 L926.4057,293.0107 L925.8395,303.0455 L926.1181,313.0802 L926.4363,323.115 L924.5384,333.1497 L926.4047,343.1844 L925.1047,353.2192 L926.2117,363.2539 L924.84,373.2886 L925.4087,383.3234 L926.4888,393.3581 L925.435,403.3929 L925.6404,413.4276 L925.9515,423.4623 L926.055,433.4971 L925.4948,443.5318 L925.883,453.5665 L924.7368,463.6013 L925.8792,473.636 L926.2309,483.6708 L926.0927,493.7055 L926.3174,503.7402 L924.8559,513.775 L924.6304,523.8097 L924.6715,533.8444 L925.4215,543.8792 L925.238,553.9139 L926.4085,563.9487 L925.2671,573.9834 L925.0426,584.0181 L925.8044,594.0529 L924.6109,604.0876 L924.8078,614.1223 L926.3653,624.1571 L926.0809,634.1918 L925.5,644.2266 " fill="none" style="stroke:#181818;stroke-width:0.5;stroke-dasharray:5.0,5.0;"/><path d="M1068.5,82.2813 L1068.7802,82.2813 L1067.9476,92.316 L1068.7577,102.3507 L1069.0329,112.3855 L1067.5488,122.4202 L1068.3964,132.4549 L1067.9313,142.4897 L1067.9887,152.5244 L1068.4091,162.5592 L1067.5782,172.5939 L1069.2382,182.6286 L1067.6596,192.6634 L1068.2363,202.6981 L1069.0759,212.7328 L1068.3856,222.7676 L1068.591,232.8023 L1068.4574,242.8371 L1068.738,252.8718 L1068.8188,262.9065 L1069.2809,272.9413 L1069.3947,282.976 L1069.4057,293.0107 L1068.8395,303.0455 L1069.1181,313.0802 L1069.4363,323.115 L1067.5384,333.1497 L1069.4047,343.1844 L1068.1047,353.2192 L1069.2117,363.2539 L1067.84,373.2886 L1068.4087,383.3234 L1069.4888,393.3581 L1068.435,403.3929 L1068.6404,413.4276 L1068.9515,423.4623 L1069.055,433.4971 L1068.4948,443.5318 L1068.883,453.5665 L1067.7368,463.6013 L1068.8792,473.636 L1069.2309,483.6708 L1069.0927,493.7055 L1069.3174,503.7402 L1067.8559,513.775 L1067.6304,523.8097 L1067.6715,533.8444 L1068.4215,543.8792 L1068.238,553.9139 L1069.4085,563.9487 L1068.2671,573.9834 L1068.0426,584.0181 L1068.8044,594.0529 L1067.6109,604.0876 L1067.8078,614.1223 L1069.3653,624.1571 L1069.0809,634.1918 L1068.5,644.2266 " fill="none" style="stroke:#181818;stroke-width:0.5;stroke-dasharray:5.0,5.0;"/><path d="M1214.5,82.2813 L1214.7802,82.2813 L1213.9476,92.316 L1214.7577,102.3507 L1215.0329,112.3855 L1213.5488,122.4202 L1214.3964,132.4549 L1213.9313,142.4897 L1213.9887,152.5244 L1214.4091,162.5592 L1213.5782,172.5939 L1215.2382,182.6286 L1213.6596,192.6634 L1214.2363,202.6981 L1215.0759,212.7328 L1214.3856,222.7676 L1214.591,232.8023 L1214.4574,242.8371 L1214.738,252.8718 L1214.8188,262.9065 L1215.2809,272.9413 L1215.3947,282.976 L1215.4057,293.0107 L1214.8395,303.0455 L1215.1181,313.0802 L1215.4363,323.115 L1213.5384,333.1497 L1215.4047,343.1844 L1214.1047,353.2192 L1215.2117,363.2539 L1213.84,373.2886 L1214.4087,383.3234 L1215.4888,393.3581 L1214.435,403.3929 L1214.6404,413.4276 L1214.9515,423.4623 L1215.055,433.4971 L1214.4948,443.5318 L1214.883,453.5665 L1213.7368,463.6013 L1214.8792,473.636 L1215.2309,483.6708 L1215.0927,493.7055 L1215.3174,503.7402 L1213.8559,513.775 L1213.6304,523.8097 L1213.6715,533.8444 L1214.4215,543.8792 L1214.238,553.9139 L1215.4085,563.9487 L1214.2671,573.9834 L1214.0426,584.0181 L1214.8044,594.0529 L1213.6109,604.0876 L1213.8078,614.1223 L1215.3653,624.1571 L1215.0809,634.1918 L1214.5,644.2266 " fill="none" style="stroke:#181818;stroke-width:0.5;stroke-dasharray:5.0,5.0;"/><path d="M1367.5,82.2813 L1367.7802,82.2813 L1366.9476,92.316 L1367.7577,102.3507 L1368.0329,112.3855 L1366.5488,122.4202 L1367.3964,132.4549 L1366.9313,142.4897 L1366.9887,152.5244 L1367.4091,162.5592 L1366.5782,172.5939 L1368.2382,182.6286 L1366.6596,192.6634 L1367.2363,202.6981 L1368.0759,212.7328 L1367.3856,222.7676 L1367.591,232.8023 L1367.4574,242.8371 L1367.738,252.8718 L1367.8188,262.9065 L1368.2809,272.9413 L1368.3947,282.976 L1368.4057,293.0107 L1367.8395,303.0455 L1368.1181,313.0802 L1368.4363,323.115 L1366.5384,333.1497 L1368.4047,343.1844 L1367.1047,353.2192 L1368.2117,363.2539 L1366.84,373.2886 L1367.4087,383.3234 L1368.4888,393.3581 L1367.435,403.3929 L1367.6404,413.4276 L1367.9515,423.4623 L1368.055,433.4971 L1367.4948,443.5318 L1367.883,453.5665 L1366.7368,463.6013 L1367.8792,473.636 L1368.2309,483.6708 L1368.0927,493.7055 L1368.3174,503.7402 L1366.8559,513.775 L1366.6304,523.8097 L1366.6715,533.8444 L1367.4215,543.8792 L1367.238,553.9139 L1368.4085,563.9487 L1367.2671,573.9834 L1367.0426,584.0181 L1367.8044,594.0529 L1366.6109,604.0876 L1366.8078,614.1223 L1368.3653,624.1571 L1368.0809,634.1918 L1367.5,644.2266 " fill="none" style="stroke:#181818;stroke-width:0.5;stroke-dasharray:5.0,5.0;"/><text fill="#000000" font-family="FG Virgil" font-size="14" lengthAdjust="spacing" textLength="61" x="5" y="79.3145">Customer</text><polygon fill="#E3E3E3" points="46.5442,17.0865,45.3715,18.6888,43.9845,21.0357,42.0008,22.6173,39.9163,23.4822,38.2542,23.5572,36.118,22.4756,34.1023,21.7689,32.5724,20.3342,31.7699,18.6917,31.2939,17.3839,30.8277,15.6757,30.0709,14.2057,30.6525,12.7704,31.162,11.1982,33.074,9.9548,34.4192,8.3414,36.0843,7.8057,38.0637,7.3443,40.6021,7.6184,41.9924,8.2741,43.6089,8.5713,45.5743,10.585,46.2595,12.7108,46.5571,14.1612,46.22,16.5514" style="stroke:#181818;stroke-width:0.5;"/><path d="M38.5,23.1406 L38.6868,23.1406 L38.1317,28.5406 L38.6718,33.9406 L38.8553,39.3406 L37.8659,44.7406 L38.5,50.1406 M25.5,31.1406 L25.5,31.0715 L30.7,30.7615 L35.9,30.7997 L41.1,31.08 L46.3,30.5261 L51.5,31.1406 M38.5,50.1406 L38.8719,50.4629 L35.4766,52.7737 L33.1672,56.0255 L30.9901,59.3921 L28.0424,62.0907 L25.5,65.1406 M38.5,50.1406 L38.5458,50.1804 L41.0785,53.122 L43.8199,56.2446 L46.4606,59.2798 L49.2934,62.4816 L51.5,65.1406 " fill="none" style="stroke:#181818;stroke-width:0.5;"/><text fill="#000000" font-family="FG Virgil" font-size="14" lengthAdjust="spacing" textLength="61" x="5" y="655.9004">Customer</text><polygon fill="#E3E3E3" points="46.5442,669.3131,45.3715,670.9154,43.9845,673.2622,42.0008,674.8438,39.9163,675.7087,38.2542,675.7838,36.118,674.7021,34.1023,673.9955,32.5724,672.5608,31.7699,670.9183,31.2939,669.6105,30.8277,667.9022,30.0709,666.4323,30.6525,664.997,31.162,663.4248,33.074,662.1814,34.4192,660.568,36.0843,660.0322,38.0637,659.5709,40.6021,659.845,41.9924,660.5007,43.6089,660.7979,45.5743,662.8115,46.2595,664.9373,46.5571,666.3878,46.22,668.778" style="stroke:#181818;stroke-width:0.5;"/><path d="M38.5,675.3672 L38.6868,675.3672 L38.1317,680.7672 L38.6718,686.1672 L38.8553,691.5672 L37.8659,696.9672 L38.5,702.3672 M25.5,683.3672 L25.5,683.2981 L30.7,682.9881 L35.9,683.0263 L41.1,683.3066 L46.3,682.7526 L51.5,683.3672 M38.5,702.3672 L38.8719,702.6895 L35.4766,705.0003 L33.1672,708.2521 L30.9901,711.6187 L28.0424,714.3173 L25.5,717.3672 M38.5,702.3672 L38.5458,702.4069 L41.0785,705.3486 L43.8199,708.4711 L46.4606,711.5064 L49.2934,714.7082 L51.5,717.3672 " fill="none" style="stroke:#181818;stroke-width:0.5;"/><polygon fill="#E3E3E3" points="110,36,110,36.2102,119.8421,35.5857,129.6842,36.1933,139.5263,36.3997,149.3684,35.2866,159.2105,35.9223,169.0526,35.5735,178.8947,35.6165,188.7368,35.9318,198.5789,35.3086,208.4211,36.5536,218.2632,35.3697,228.1053,35.8022,237.9474,36.4319,247.7895,35.9142,257.6316,36.0682,267.4737,35.9681,277.3158,36.1785,287.1579,36.2391,297,36,297.0747,36.1804,297.4392,36.3531,297.7938,36.5021,298.0931,36.5178,298.4733,36.7286,298.7678,36.7322,298.984,36.8218,298.6921,36.9938,299.2696,37.5259,299.1158,37.7551,299.5179,38.2145,299.5,38.5,299.335,38.5,299.4772,46.5563,299.7472,54.6125,299.4838,62.6688,299.5351,70.725,299.5,78.7813,299.6043,78.8244,299.4817,79.1879,299.2059,79.4879,299.1491,79.8785,298.7379,80.1224,298.7678,80.549,298.804,80.6366,298.4841,80.8643,298.1174,80.9788,297.7853,81.1771,297.2919,80.986,297,81.2813,297,80.6291,287.1579,80.6598,277.3158,81.2224,267.4737,81.0847,257.6316,81.9627,247.7895,81.1066,237.9474,80.9382,228.1053,81.5095,218.2632,80.6144,208.4211,80.7621,198.5789,81.9302,188.7368,81.7169,178.8947,82.0157,169.0526,80.9595,159.2105,81.6004,149.3684,81.8717,139.5263,80.8088,129.6842,81.1854,119.8421,81.4072,110,81.2813,110.0831,81.482,109.6459,81.1335,109.3519,81.1308,108.8687,80.6714,108.4994,80.4869,108.2322,80.549,108.3873,80.6133,107.865,80.104,108.0961,79.9068,107.8565,79.5147,107.5639,79.1006,107.5,78.7813,107.3821,78.7813,107.6529,70.725,107.4002,62.6688,107.6973,54.6125,107.3158,46.5563,107.5,38.5,107.6901,38.5788,107.7956,38.2082,107.8683,37.8241,107.9539,37.4454,108.3096,37.1785,108.2322,36.7322,108.3105,36.9212,108.6074,36.6379,108.9736,36.5219,109.2763,36.2528,109.7378,36.3671,110,36" style="stroke:#181818;stroke-width:0.5;"/><text fill="#000000" font-family="FG Virgil" font-size="14" font-style="italic" lengthAdjust="spacing" textLength="95" x="156" y="55.6738">&#171;presentation&#187;</text><text fill="#000000" font-family="FG Virgil" font-size="14" lengthAdjust="spacing" textLength="178" x="114.5" y="71.3145">CustomerListJobOpeningsUI</text><polygon fill="#E3E3E3" points="110,643.2266,110,643.4367,119.8421,642.8122,129.6842,643.4198,139.5263,643.6262,149.3684,642.5132,159.2105,643.1488,169.0526,642.8001,178.8947,642.8431,188.7368,643.1584,198.5789,642.5352,208.4211,643.7802,218.2632,642.5963,228.1053,643.0288,237.9474,643.6585,247.7895,643.1408,257.6316,643.2948,267.4737,643.1946,277.3158,643.4051,287.1579,643.4657,297,643.2266,297.0747,643.4069,297.4392,643.5797,297.7938,643.7286,298.0931,643.7443,298.4733,643.9551,298.7678,643.9588,298.984,644.0484,298.6921,644.2204,299.2696,644.7525,299.1158,644.9816,299.5179,645.4411,299.5,645.7266,299.335,645.7266,299.4772,653.7828,299.7472,661.8391,299.4838,669.8953,299.5351,677.9516,299.5,686.0078,299.6043,686.051,299.4817,686.4145,299.2059,686.7144,299.1491,687.1051,298.7379,687.349,298.7678,687.7756,298.804,687.8632,298.4841,688.0908,298.1174,688.2054,297.7853,688.4037,297.2919,688.2126,297,688.5078,297,687.8556,287.1579,687.8864,277.3158,688.4489,267.4737,688.3113,257.6316,689.1892,247.7895,688.3331,237.9474,688.1648,228.1053,688.7361,218.2632,687.841,208.4211,687.9887,198.5789,689.1568,188.7368,688.9435,178.8947,689.2423,169.0526,688.186,159.2105,688.827,149.3684,689.0982,139.5263,688.0354,129.6842,688.412,119.8421,688.6338,110,688.5078,110.0831,688.7085,109.6459,688.3601,109.3519,688.3574,108.8687,687.8979,108.4994,687.7135,108.2322,687.7756,108.3873,687.8398,107.865,687.3306,108.0961,687.1334,107.8565,686.7413,107.5639,686.3272,107.5,686.0078,107.3821,686.0078,107.6529,677.9516,107.4002,669.8953,107.6973,661.8391,107.3158,653.7828,107.5,645.7266,107.6901,645.8053,107.7956,645.4348,107.8683,645.0507,107.9539,644.6719,108.3096,644.405,108.2322,643.9588,108.3105,644.1478,108.6074,643.8645,108.9736,643.7485,109.2763,643.4793,109.7378,643.5936,110,643.2266" style="stroke:#181818;stroke-width:0.5;"/><text fill="#000000" font-family="FG Virgil" font-size="14" font-style="italic" lengthAdjust="spacing" textLength="95" x="156" y="662.9004">&#171;presentation&#187;</text><text fill="#000000" font-family="FG Virgil" font-size="14" lengthAdjust="spacing" textLength="178" x="114.5" y="678.541">CustomerListJobOpeningsUI</text><polygon fill="#E3E3E3" points="312,36,312,36.2102,321.875,35.5857,331.75,36.1933,341.625,36.3997,351.5,35.2866,361.375,35.9223,371.25,35.5735,381.125,35.6165,391,35.9318,400.875,35.3086,410.75,36.5536,420.625,35.3697,430.5,35.8022,440.375,36.4319,450.25,35.9142,460.125,36.0682,470,35.9681,479.875,36.1785,489.75,36.2391,499.625,36.5857,509.5,36.6711,519.375,36.6793,529.25,36.2546,539.125,36.4636,549,36,549.0896,36.2163,549.2616,35.9244,549.7937,36.5018,550.0228,36.348,550.4823,36.7502,550.7678,36.7322,550.6153,36.6691,550.8931,37.077,551.289,37.5339,551.1921,37.7867,551.386,38.1599,551.5,38.5,551.6129,38.5,551.6387,46.5563,551.4987,54.6125,551.5957,62.6688,551.3092,70.725,551.5,78.7813,551.5876,78.8175,551.5224,79.2047,551.344,79.5451,551.2494,79.9201,550.7654,80.1338,550.7678,80.549,550.6846,80.3482,550.3349,80.5041,550.0531,80.8238,549.682,80.9278,549.4405,81.3447,549,81.2813,549,81.1066,539.125,80.9382,529.25,81.5095,519.375,80.6144,509.5,80.7621,499.625,81.9302,489.75,81.7169,479.875,82.0157,470,80.9595,460.125,81.6004,450.25,81.8717,440.375,80.8088,430.5,81.1854,420.625,81.4072,410.75,81.933,400.875,81.2771,391,81.7438,381.125,80.7275,371.25,80.604,361.375,81.7849,351.5,80.5643,341.625,81.7902,331.75,81.4879,321.875,81.0133,312,81.2813,311.9549,81.1723,311.705,81.2761,311.2547,80.8962,311.0148,81.0242,310.5153,80.5252,310.2322,80.549,310.4224,80.6278,310.2349,80.2572,310.0148,79.8732,309.8074,79.4944,309.8702,79.2275,309.5,78.7813,309.7045,78.7813,309.5564,70.725,309.5894,62.6688,309.4566,54.6125,309.7388,46.5563,309.5,38.5,309.5477,38.5198,309.6996,38.1685,309.6055,37.7153,309.8145,37.3876,310.2492,37.1535,310.2322,36.7322,310.2871,36.8646,310.5803,36.5726,310.8982,36.3401,311.265,36.2255,311.5589,35.9351,312,36" style="stroke:#181818;stroke-width:0.5;"/><text fill="#000000" font-family="FG Virgil" font-size="14" font-style="italic" lengthAdjust="spacing" textLength="84" x="388.5" y="55.6738">&#171;application&#187;</text><text fill="#000000" font-family="FG Virgil" font-size="14" lengthAdjust="spacing" textLength="228" x="316.5" y="71.3145">CustomerListJobOpeningsController</text><polygon fill="#E3E3E3" points="312,643.2266,312,643.4367,321.875,642.8122,331.75,643.4198,341.625,643.6262,351.5,642.5132,361.375,643.1488,371.25,642.8001,381.125,642.8431,391,643.1584,400.875,642.5352,410.75,643.7802,420.625,642.5963,430.5,643.0288,440.375,643.6585,450.25,643.1408,460.125,643.2948,470,643.1946,479.875,643.4051,489.75,643.4657,499.625,643.8123,509.5,643.8976,519.375,643.9058,529.25,643.4812,539.125,643.6901,549,643.2266,549.0896,643.4428,549.2616,643.1509,549.7937,643.7284,550.0228,643.5746,550.4823,643.9767,550.7678,643.9588,550.6153,643.8956,550.8931,644.3036,551.289,644.7605,551.1921,645.0132,551.386,645.3864,551.5,645.7266,551.6129,645.7266,551.6387,653.7828,551.4987,661.8391,551.5957,669.8953,551.3092,677.9516,551.5,686.0078,551.5876,686.0441,551.5224,686.4313,551.344,686.7716,551.2494,687.1467,550.7654,687.3604,550.7678,687.7756,550.6846,687.5747,550.3349,687.7307,550.0531,688.0503,549.682,688.1544,549.4405,688.5712,549,688.5078,549,688.3331,539.125,688.1648,529.25,688.7361,519.375,687.841,509.5,687.9887,499.625,689.1568,489.75,688.9435,479.875,689.2423,470,688.186,460.125,688.827,450.25,689.0982,440.375,688.0354,430.5,688.412,420.625,688.6338,410.75,689.1596,400.875,688.5036,391,688.9704,381.125,687.954,371.25,687.8306,361.375,689.0114,351.5,687.7909,341.625,689.0168,331.75,688.7144,321.875,688.2399,312,688.5078,311.9549,688.3989,311.705,688.5026,311.2547,688.1227,311.0148,688.2507,310.5153,687.7518,310.2322,687.7756,310.4224,687.8543,310.2349,687.4838,310.0148,687.0997,309.8074,686.7209,309.8702,686.4541,309.5,686.0078,309.7045,686.0078,309.5564,677.9516,309.5894,669.8953,309.4566,661.8391,309.7388,653.7828,309.5,645.7266,309.5477,645.7463,309.6996,645.395,309.6055,644.9419,309.8145,644.6142,310.2492,644.3801,310.2322,643.9588,310.2871,644.0911,310.5803,643.7991,310.8982,643.5667,311.265,643.452,311.5589,643.1617,312,643.2266" style="stroke:#181818;stroke-width:0.5;"/><text fill="#000000" font-family="FG Virgil" font-size="14" font-style="italic" lengthAdjust="spacing" textLength="84" x="388.5" y="662.9004">&#171;application&#187;</text><text fill="#000000" font-family="FG Virgil" font-size="14" lengthAdjust="spacing" textLength="228" x="316.5" y="678.541">CustomerListJobOpeningsController</text><polygon fill="#E3E3E3" points="564,36,564,36.2102,573.8571,35.5857,583.7143,36.1933,593.5714,36.3997,603.4286,35.2866,613.2857,35.9223,623.1429,35.5735,633,35.6165,642.8571,35.9318,652.7143,35.3086,662.5714,36.5536,672.4286,35.3697,682.2857,35.8022,692.1429,36.4319,702,36,701.9891,35.9736,702.3623,36.1675,702.703,36.2831,703.0834,36.4943,703.4447,36.6594,703.7678,36.7322,703.9481,36.8069,704.1209,37.1714,704.2698,37.526,704.2855,37.8254,704.4963,38.2056,704.5,38.5,704.7341,38.5,704.2596,46.5563,704.7262,54.6125,704.4012,62.6688,704.6779,70.725,704.5,78.7813,704.3476,78.7181,704.3325,79.1261,704.4355,79.583,704.0457,79.8357,703.9466,80.2089,703.7678,80.549,703.811,80.6533,703.4673,80.8236,703.0602,80.8407,702.7437,81.0768,702.2805,80.9585,702,81.2813,702,81.5656,692.1429,81.8294,682.2857,81.7258,672.4286,81.8943,662.5714,80.7982,652.7143,80.6291,642.8571,80.6598,633,81.2224,623.1429,81.0847,613.2857,81.9627,603.4286,81.1066,593.5714,80.9382,583.7143,81.5095,573.8571,80.6144,564,81.2813,563.9338,81.1214,563.7292,81.3347,563.3485,81.1225,563.033,81.0681,562.5447,80.5964,562.2322,80.549,562.3305,80.5897,562.2676,80.2708,561.7939,79.7816,561.7634,79.4761,561.6852,79.1509,561.5,78.7813,561.7173,78.7813,561.4986,70.725,561.6542,62.6688,561.3154,54.6125,561.2742,46.5563,561.5,38.5,561.6551,38.5642,561.4257,38.055,561.9496,37.8578,562.003,37.4657,562.0033,37.0516,562.2322,36.7322,562.1871,36.6233,562.6443,36.7271,562.9012,36.3472,563.3684,36.4752,563.5759,35.9762,564,36" style="stroke:#181818;stroke-width:0.5;"/><text fill="#000000" font-family="FG Virgil" font-size="14" font-style="italic" lengthAdjust="spacing" textLength="60" x="603" y="55.6738">&#171;service&#187;</text><text fill="#000000" font-family="FG Virgil" font-size="14" lengthAdjust="spacing" textLength="129" x="568.5" y="71.3145">AuthorizationService</text><polygon fill="#E3E3E3" points="564,643.2266,564,643.4367,573.8571,642.8122,583.7143,643.4198,593.5714,643.6262,603.4286,642.5132,613.2857,643.1488,623.1429,642.8001,633,642.8431,642.8571,643.1584,652.7143,642.5352,662.5714,643.7802,672.4286,642.5963,682.2857,643.0288,692.1429,643.6585,702,643.2266,701.9891,643.2001,702.3623,643.394,702.703,643.5096,703.0834,643.7209,703.4447,643.886,703.7678,643.9588,703.9481,644.0335,704.1209,644.3979,704.2698,644.7525,704.2855,645.0519,704.4963,645.4321,704.5,645.7266,704.7341,645.7266,704.2596,653.7828,704.7262,661.8391,704.4012,669.8953,704.6779,677.9516,704.5,686.0078,704.3476,685.9447,704.3325,686.3526,704.4355,686.8095,704.0457,687.0623,703.9466,687.4355,703.7678,687.7756,703.811,687.8799,703.4673,688.0502,703.0602,688.0673,702.7437,688.3034,702.2805,688.1851,702,688.5078,702,688.7922,692.1429,689.056,682.2857,688.9523,672.4286,689.1208,662.5714,688.0247,652.7143,687.8556,642.8571,687.8864,633,688.4489,623.1429,688.3113,613.2857,689.1892,603.4286,688.3331,593.5714,688.1648,583.7143,688.7361,573.8571,687.841,564,688.5078,563.9338,688.3479,563.7292,688.5612,563.3485,688.3491,563.033,688.2947,562.5447,687.8229,562.2322,687.7756,562.3305,687.8163,562.2676,687.4973,561.7939,687.0082,561.7634,686.7027,561.6852,686.3774,561.5,686.0078,561.7173,686.0078,561.4986,677.9516,561.6542,669.8953,561.3154,661.8391,561.2742,653.7828,561.5,645.7266,561.6551,645.7908,561.4257,645.2816,561.9496,645.0844,562.003,644.6923,562.0033,644.2782,562.2322,643.9588,562.1871,643.8498,562.6443,643.9536,562.9012,643.5737,563.3684,643.7017,563.5759,643.2028,564,643.2266" style="stroke:#181818;stroke-width:0.5;"/><text fill="#000000" font-family="FG Virgil" font-size="14" font-style="italic" lengthAdjust="spacing" textLength="60" x="603" y="662.9004">&#171;service&#187;</text><text fill="#000000" font-family="FG Virgil" font-size="14" lengthAdjust="spacing" textLength="129" x="568.5" y="678.541">AuthorizationService</text><polygon fill="#E3E3E3" points="717,36,717,36.2102,727.0769,35.5857,737.1538,36.1933,747.2308,36.3997,757.3077,35.2866,767.3846,35.9223,777.4615,35.5735,787.5385,35.6165,797.6154,35.9318,807.6923,35.3086,817.7692,36.5536,827.8462,35.3697,837.9231,35.8022,848,36,848.0551,36.133,848.3426,36.12,848.7158,36.3139,849.0566,36.4295,849.437,36.6408,849.7678,36.7322,849.8414,36.7627,850.0946,37.1605,850.2673,37.5249,850.4163,37.8795,850.432,38.1789,850.5,38.5,850.6545,38.5,850.7341,46.5563,850.2596,54.6125,850.7262,62.6688,850.4012,70.725,850.5,78.7813,850.6644,78.8493,850.2011,79.0717,850.186,79.4796,850.289,79.9365,849.8992,80.1892,849.7678,80.549,849.7812,80.5814,849.4574,80.7997,849.1138,80.9701,848.7066,80.9872,848.3902,81.2233,848,81.2813,848,80.7088,837.9231,81.5656,827.8462,81.8294,817.7692,81.7258,807.6923,81.8943,797.6154,80.7982,787.5385,80.6291,777.4615,80.6598,767.3846,81.2224,757.3077,81.0847,747.2308,81.9627,737.1538,81.1066,727.0769,80.9382,717,81.2813,717.0291,81.3515,716.5614,80.9294,716.2267,80.8285,716.0221,81.0418,715.6414,80.8296,715.2322,80.549,715.4584,80.6427,714.9867,80.1544,715.0376,79.8826,714.9747,79.5637,714.501,79.0745,714.5,78.7813,714.468,78.7813,714.542,70.725,714.7173,62.6688,714.4986,54.6125,714.6542,46.5563,714.5,38.5,714.3295,38.4294,714.4379,38.0601,714.948,37.8571,714.7186,37.3479,715.2425,37.1507,715.2322,36.7322,715.2586,36.7959,715.5516,36.5033,715.8942,36.3304,716.3514,36.4342,716.6083,36.0543,717,36" style="stroke:#181818;stroke-width:0.5;"/><text fill="#000000" font-family="FG Virgil" font-size="14" font-style="italic" lengthAdjust="spacing" textLength="89" x="738" y="55.6738">&#171;persistence&#187;</text><text fill="#000000" font-family="FG Virgil" font-size="14" lengthAdjust="spacing" textLength="122" x="721.5" y="71.3145">PersistenceContext</text><polygon fill="#E3E3E3" points="717,643.2266,717,643.4367,727.0769,642.8122,737.1538,643.4198,747.2308,643.6262,757.3077,642.5132,767.3846,643.1488,777.4615,642.8001,787.5385,642.8431,797.6154,643.1584,807.6923,642.5352,817.7692,643.7802,827.8462,642.5963,837.9231,643.0288,848,643.2266,848.0551,643.3596,848.3426,643.3466,848.7158,643.5405,849.0566,643.6561,849.437,643.8673,849.7678,643.9588,849.8414,643.9893,850.0946,644.3871,850.2673,644.7515,850.4163,645.1061,850.432,645.4055,850.5,645.7266,850.6545,645.7266,850.7341,653.7828,850.2596,661.8391,850.7262,669.8953,850.4012,677.9516,850.5,686.0078,850.6644,686.0759,850.2011,686.2982,850.186,686.7062,850.289,687.1631,849.8992,687.4158,849.7678,687.7756,849.7812,687.808,849.4574,688.0263,849.1138,688.1967,848.7066,688.2137,848.3902,688.4498,848,688.5078,848,687.9354,837.9231,688.7922,827.8462,689.056,817.7692,688.9523,807.6923,689.1208,797.6154,688.0247,787.5385,687.8556,777.4615,687.8864,767.3846,688.4489,757.3077,688.3113,747.2308,689.1892,737.1538,688.3331,727.0769,688.1648,717,688.5078,717.0291,688.5781,716.5614,688.156,716.2267,688.055,716.0221,688.2683,715.6414,688.0562,715.2322,687.7756,715.4584,687.8693,714.9867,687.381,715.0376,687.1092,714.9747,686.7902,714.501,686.3011,714.5,686.0078,714.468,686.0078,714.542,677.9516,714.7173,669.8953,714.4986,661.8391,714.6542,653.7828,714.5,645.7266,714.3295,645.6559,714.4379,645.2866,714.948,645.0837,714.7186,644.5744,715.2425,644.3773,715.2322,643.9588,715.2586,644.0224,715.5516,643.7298,715.8942,643.557,716.3514,643.6607,716.6083,643.2808,717,643.2266" style="stroke:#181818;stroke-width:0.5;"/><text fill="#000000" font-family="FG Virgil" font-size="14" font-style="italic" lengthAdjust="spacing" textLength="89" x="738" y="662.9004">&#171;persistence&#187;</text><text fill="#000000" font-family="FG Virgil" font-size="14" lengthAdjust="spacing" textLength="122" x="721.5" y="678.541">PersistenceContext</text><polygon fill="#E3E3E3" points="863,36,863,36.2102,872.6154,35.5857,882.2308,36.1933,891.8462,36.3997,901.4615,35.2866,911.0769,35.9223,920.6923,35.5735,930.3077,35.6165,939.9231,35.9318,949.5385,35.3086,959.1538,36.5536,968.7692,35.3697,978.3846,35.8022,988,36,988.0551,36.133,988.3426,36.12,988.7158,36.3139,989.0566,36.4295,989.437,36.6408,989.7678,36.7322,989.8414,36.7627,990.0946,37.1605,990.2673,37.5249,990.4163,37.8795,990.432,38.1789,990.5,38.5,990.6545,38.5,990.7341,46.5563,990.2596,54.6125,990.7262,62.6688,990.4012,70.725,990.5,78.7813,990.6644,78.8493,990.2011,79.0717,990.186,79.4796,990.289,79.9365,989.8992,80.1892,989.7678,80.549,989.7812,80.5814,989.4574,80.7997,989.1138,80.9701,988.7066,80.9872,988.3902,81.2233,988,81.2813,988,80.7088,978.3846,81.5656,968.7692,81.8294,959.1538,81.7258,949.5385,81.8943,939.9231,80.7982,930.3077,80.6291,920.6923,80.6598,911.0769,81.2224,901.4615,81.0847,891.8462,81.9627,882.2308,81.1066,872.6154,80.9382,863,81.2813,863.0291,81.3515,862.5614,80.9294,862.2267,80.8285,862.0221,81.0418,861.6414,80.8296,861.2322,80.549,861.4584,80.6427,860.9867,80.1544,861.0376,79.8826,860.9747,79.5637,860.501,79.0745,860.5,78.7813,860.468,78.7813,860.542,70.725,860.7173,62.6688,860.4986,54.6125,860.6542,46.5563,860.5,38.5,860.3295,38.4294,860.4379,38.0601,860.948,37.8571,860.7186,37.3479,861.2425,37.1507,861.2322,36.7322,861.2586,36.7959,861.5516,36.5033,861.8942,36.3304,862.3514,36.4342,862.6083,36.0543,863,36" style="stroke:#181818;stroke-width:0.5;"/><text fill="#000000" font-family="FG Virgil" font-size="14" font-style="italic" lengthAdjust="spacing" textLength="59" x="896" y="55.6738">&#171;factory&#187;</text><text fill="#000000" font-family="FG Virgil" font-size="14" lengthAdjust="spacing" textLength="116" x="867.5" y="71.3145">RepositoryFactory</text><polygon fill="#E3E3E3" points="863,643.2266,863,643.4367,872.6154,642.8122,882.2308,643.4198,891.8462,643.6262,901.4615,642.5132,911.0769,643.1488,920.6923,642.8001,930.3077,642.8431,939.9231,643.1584,949.5385,642.5352,959.1538,643.7802,968.7692,642.5963,978.3846,643.0288,988,643.2266,988.0551,643.3596,988.3426,643.3466,988.7158,643.5405,989.0566,643.6561,989.437,643.8673,989.7678,643.9588,989.8414,643.9893,990.0946,644.3871,990.2673,644.7515,990.4163,645.1061,990.432,645.4055,990.5,645.7266,990.6545,645.7266,990.7341,653.7828,990.2596,661.8391,990.7262,669.8953,990.4012,677.9516,990.5,686.0078,990.6644,686.0759,990.2011,686.2982,990.186,686.7062,990.289,687.1631,989.8992,687.4158,989.7678,687.7756,989.7812,687.808,989.4574,688.0263,989.1138,688.1967,988.7066,688.2137,988.3902,688.4498,988,688.5078,988,687.9354,978.3846,688.7922,968.7692,689.056,959.1538,688.9523,949.5385,689.1208,939.9231,688.0247,930.3077,687.8556,920.6923,687.8864,911.0769,688.4489,901.4615,688.3113,891.8462,689.1892,882.2308,688.3331,872.6154,688.1648,863,688.5078,863.0291,688.5781,862.5614,688.156,862.2267,688.055,862.0221,688.2683,861.6414,688.0562,861.2322,687.7756,861.4584,687.8693,860.9867,687.381,861.0376,687.1092,860.9747,686.7902,860.501,686.3011,860.5,686.0078,860.468,686.0078,860.542,677.9516,860.7173,669.8953,860.4986,661.8391,860.6542,653.7828,860.5,645.7266,860.3295,645.6559,860.4379,645.2866,860.948,645.0837,860.7186,644.5744,861.2425,644.3773,861.2322,643.9588,861.2586,644.0224,861.5516,643.7298,861.8942,643.557,862.3514,643.6607,862.6083,643.2808,863,643.2266" style="stroke:#181818;stroke-width:0.5;"/><text fill="#000000" font-family="FG Virgil" font-size="14" font-style="italic" lengthAdjust="spacing" textLength="59" x="896" y="662.9004">&#171;factory&#187;</text><text fill="#000000" font-family="FG Virgil" font-size="14" lengthAdjust="spacing" textLength="116" x="867.5" y="678.541">RepositoryFactory</text><polygon fill="#E3E3E3" points="1003,36,1003,36.2102,1013.1538,35.5857,1023.3077,36.1933,1033.4615,36.3997,1043.6154,35.2866,1053.7692,35.9223,1063.9231,35.5735,1074.0769,35.6165,1084.2308,35.9318,1094.3846,35.3086,1104.5385,36.5536,1114.6923,35.3697,1124.8462,35.8022,1135,36,1135.0551,36.133,1135.3426,36.12,1135.7158,36.3139,1136.0566,36.4295,1136.437,36.6408,1136.7678,36.7322,1136.8414,36.7627,1137.0946,37.1605,1137.2673,37.5249,1137.4163,37.8795,1137.432,38.1789,1137.5,38.5,1137.6545,38.5,1137.7341,46.5563,1137.2596,54.6125,1137.7262,62.6688,1137.4012,70.725,1137.5,78.7813,1137.6644,78.8493,1137.2011,79.0717,1137.186,79.4796,1137.289,79.9365,1136.8992,80.1892,1136.7678,80.549,1136.7812,80.5814,1136.4574,80.7997,1136.1138,80.9701,1135.7066,80.9872,1135.3902,81.2233,1135,81.2813,1135,80.7088,1124.8462,81.5656,1114.6923,81.8294,1104.5385,81.7258,1094.3846,81.8943,1084.2308,80.7982,1074.0769,80.6291,1063.9231,80.6598,1053.7692,81.2224,1043.6154,81.0847,1033.4615,81.9627,1023.3077,81.1066,1013.1538,80.9382,1003,81.2813,1003.0291,81.3515,1002.5614,80.9294,1002.2267,80.8285,1002.0221,81.0418,1001.6414,80.8296,1001.2322,80.549,1001.4584,80.6427,1000.9867,80.1544,1001.0376,79.8826,1000.9747,79.5637,1000.501,79.0745,1000.5,78.7813,1000.468,78.7813,1000.542,70.725,1000.7173,62.6688,1000.4986,54.6125,1000.6542,46.5563,1000.5,38.5,1000.3295,38.4294,1000.4379,38.0601,1000.948,37.8571,1000.7186,37.3479,1001.2425,37.1507,1001.2322,36.7322,1001.2586,36.7959,1001.5516,36.5033,1001.8942,36.3304,1002.3514,36.4342,1002.6083,36.0543,1003,36" style="stroke:#181818;stroke-width:0.5;"/><text fill="#000000" font-family="FG Virgil" font-size="14" font-style="italic" lengthAdjust="spacing" textLength="60" x="1039" y="55.6738">&#171;service&#187;</text><text fill="#000000" font-family="FG Virgil" font-size="14" lengthAdjust="spacing" textLength="123" x="1007.5" y="71.3145">JobOpeningService</text><polygon fill="#E3E3E3" points="1003,643.2266,1003,643.4367,1013.1538,642.8122,1023.3077,643.4198,1033.4615,643.6262,1043.6154,642.5132,1053.7692,643.1488,1063.9231,642.8001,1074.0769,642.8431,1084.2308,643.1584,1094.3846,642.5352,1104.5385,643.7802,1114.6923,642.5963,1124.8462,643.0288,1135,643.2266,1135.0551,643.3596,1135.3426,643.3466,1135.7158,643.5405,1136.0566,643.6561,1136.437,643.8673,1136.7678,643.9588,1136.8414,643.9893,1137.0946,644.3871,1137.2673,644.7515,1137.4163,645.1061,1137.432,645.4055,1137.5,645.7266,1137.6545,645.7266,1137.7341,653.7828,1137.2596,661.8391,1137.7262,669.8953,1137.4012,677.9516,1137.5,686.0078,1137.6644,686.0759,1137.2011,686.2982,1137.186,686.7062,1137.289,687.1631,1136.8992,687.4158,1136.7678,687.7756,1136.7812,687.808,1136.4574,688.0263,1136.1138,688.1967,1135.7066,688.2137,1135.3902,688.4498,1135,688.5078,1135,687.9354,1124.8462,688.7922,1114.6923,689.056,1104.5385,688.9523,1094.3846,689.1208,1084.2308,688.0247,1074.0769,687.8556,1063.9231,687.8864,1053.7692,688.4489,1043.6154,688.3113,1033.4615,689.1892,1023.3077,688.3331,1013.1538,688.1648,1003,688.5078,1003.0291,688.5781,1002.5614,688.156,1002.2267,688.055,1002.0221,688.2683,1001.6414,688.0562,1001.2322,687.7756,1001.4584,687.8693,1000.9867,687.381,1001.0376,687.1092,1000.9747,686.7902,1000.501,686.3011,1000.5,686.0078,1000.468,686.0078,1000.542,677.9516,1000.7173,669.8953,1000.4986,661.8391,1000.6542,653.7828,1000.5,645.7266,1000.3295,645.6559,1000.4379,645.2866,1000.948,645.0837,1000.7186,644.5744,1001.2425,644.3773,1001.2322,643.9588,1001.2586,644.0224,1001.5516,643.7298,1001.8942,643.557,1002.3514,643.6607,1002.6083,643.2808,1003,643.2266" style="stroke:#181818;stroke-width:0.5;"/><text fill="#000000" font-family="FG Virgil" font-size="14" font-style="italic" lengthAdjust="spacing" textLength="60" x="1039" y="662.9004">&#171;service&#187;</text><text fill="#000000" font-family="FG Virgil" font-size="14" lengthAdjust="spacing" textLength="123" x="1007.5" y="678.541">JobOpeningService</text><text fill="#000000" font-family="FG Virgil" font-size="14" font-style="italic" lengthAdjust="spacing" textLength="79" x="1172.5" y="63.6738">&#171;repository&#187;</text><text fill="#000000" font-family="FG Virgil" font-size="14" lengthAdjust="spacing" textLength="129" x="1147.5" y="79.3145">CustomerRepository</text><path d="M1197,15 L1197,15 L1197.0651,15.067 L1198.6716,13.118 L1200.6599,11.5616 L1202.5238,9.8774 L1203.979,7.7727 L1206,6.25 L1205.9952,6.2158 L1207.7739,5.8122 L1209.5766,5.5812 L1211.3958,5.47 L1213.1577,4.9456 L1215,5 L1215,5 L1215.0339,5.2437 L1216.7615,4.9725 L1218.5879,5.4129 L1220.4264,5.9402 L1222.1948,5.9622 L1224,6.25 L1224.0211,6.2717 L1225.7901,7.9898 L1227.6553,9.8069 L1229.4741,11.5762 L1231.3815,13.4366 L1233,15 L1233.5965,15 L1233.6038,20.2 L1233.2263,25.4 L1233.4121,30.6 L1233.6242,35.8 L1233,41 L1233,41 L1232.7766,40.7702 L1231.4102,42.9662 L1229.3081,44.4055 L1227.7654,46.4201 L1225.6466,47.8423 L1224,49.75 L1223.9958,49.7198 L1222.2453,50.3265 L1220.397,50.2285 L1218.6064,50.5464 L1216.8207,50.8991 L1215,51 L1215,51 L1215.0254,51.1832 L1213.1998,50.7483 L1211.4176,50.6264 L1209.565,49.998 L1207.8174,50.1252 L1206,49.75 L1206.1698,49.9247 L1204.3377,48.1417 L1202.5899,46.4453 L1200.4503,44.3461 L1198.5979,42.5422 L1197,41 L1196.4476,41 L1196.9477,35.8 L1196.8253,30.6 L1197.6057,25.4 L1196.8447,20.2 L1197,15 " fill="#E3E3E3" style="stroke:#181818;stroke-width:1.5;"/><path d="M1197,15 L1197,15 L1197.0651,15.067 L1198.6716,16.618 L1200.6599,18.5616 L1202.5238,20.3774 L1203.979,21.7727 L1206,23.75 L1205.9952,23.7158 L1207.7739,23.8122 L1209.5766,24.0812 L1211.3958,24.47 L1213.1577,24.4456 L1215,25 L1215,25 L1215.0339,25.2437 L1216.7615,24.4725 L1218.5879,24.4129 L1220.4264,24.4402 L1222.1948,23.9622 L1224,23.75 L1224.0211,23.7717 L1225.7901,21.9898 L1227.6553,20.3069 L1229.4741,18.5762 L1231.3815,16.9366 L1233,15 " fill="none" style="stroke:#181818;stroke-width:1.5;"/><text fill="#000000" font-family="FG Virgil" font-size="14" font-style="italic" lengthAdjust="spacing" textLength="79" x="1172.5" y="655.9004">&#171;repository&#187;</text><text fill="#000000" font-family="FG Virgil" font-size="14" lengthAdjust="spacing" textLength="129" x="1147.5" y="671.541">CustomerRepository</text><path d="M1197,684.5078 L1197,684.5078 L1197.0651,684.5748 L1198.6716,682.6258 L1200.6599,681.0694 L1202.5238,679.3852 L1203.979,677.2805 L1206,675.7578 L1205.9952,675.7236 L1207.7739,675.3201 L1209.5766,675.089 L1211.3958,674.9778 L1213.1577,674.4535 L1215,674.5078 L1215,674.5078 L1215.0339,674.7515 L1216.7615,674.4804 L1218.5879,674.9208 L1220.4264,675.448 L1222.1948,675.4701 L1224,675.7578 L1224.0211,675.7796 L1225.7901,677.4976 L1227.6553,679.3147 L1229.4741,681.084 L1231.3815,682.9445 L1233,684.5078 L1233.5965,684.5078 L1233.6038,689.7078 L1233.2263,694.9078 L1233.4121,700.1078 L1233.6242,705.3078 L1233,710.5078 L1233,710.5078 L1232.7766,710.278 L1231.4102,712.474 L1229.3081,713.9133 L1227.7654,715.9279 L1225.6466,717.3501 L1224,719.2578 L1223.9958,719.2277 L1222.2453,719.8343 L1220.397,719.7364 L1218.6064,720.0542 L1216.8207,720.4069 L1215,720.5078 L1215,720.5078 L1215.0254,720.691 L1213.1998,720.2561 L1211.4176,720.1342 L1209.565,719.5058 L1207.8174,719.633 L1206,719.2578 L1206.1698,719.4325 L1204.3377,717.6495 L1202.5899,715.9532 L1200.4503,713.8539 L1198.5979,712.05 L1197,710.5078 L1196.4476,710.5078 L1196.9477,705.3078 L1196.8253,700.1078 L1197.6057,694.9078 L1196.8447,689.7078 L1197,684.5078 " fill="#E3E3E3" style="stroke:#181818;stroke-width:1.5;"/><path d="M1197,684.5078 L1197,684.5078 L1197.0651,684.5748 L1198.6716,686.1258 L1200.6599,688.0694 L1202.5238,689.8852 L1203.979,691.2805 L1206,693.2578 L1205.9952,693.2236 L1207.7739,693.3201 L1209.5766,693.589 L1211.3958,693.9778 L1213.1577,693.9535 L1215,694.5078 L1215,694.5078 L1215.0339,694.7515 L1216.7615,693.9804 L1218.5879,693.9208 L1220.4264,693.948 L1222.1948,693.4701 L1224,693.2578 L1224.0211,693.2796 L1225.7901,691.4976 L1227.6553,689.8147 L1229.4741,688.084 L1231.3815,686.4445 L1233,684.5078 " fill="none" style="stroke:#181818;stroke-width:1.5;"/><text fill="#000000" font-family="FG Virgil" font-size="14" font-style="italic" lengthAdjust="spacing" textLength="79" x="1325" y="63.6738">&#171;repository&#187;</text><text fill="#000000" font-family="FG Virgil" font-size="14" lengthAdjust="spacing" textLength="144" x="1292.5" y="79.3145">JobOpeningRepository</text><path d="M1349.5,15 L1349.5,15 L1349.5651,15.067 L1351.1716,13.118 L1353.1599,11.5616 L1355.0238,9.8774 L1356.479,7.7727 L1358.5,6.25 L1358.4952,6.2158 L1360.2739,5.8122 L1362.0766,5.5812 L1363.8958,5.47 L1365.6577,4.9456 L1367.5,5 L1367.5,5 L1367.5339,5.2437 L1369.2615,4.9725 L1371.0879,5.4129 L1372.9264,5.9402 L1374.6948,5.9622 L1376.5,6.25 L1376.5211,6.2717 L1378.2901,7.9898 L1380.1553,9.8069 L1381.9741,11.5762 L1383.8815,13.4366 L1385.5,15 L1386.0965,15 L1386.1038,20.2 L1385.7263,25.4 L1385.9121,30.6 L1386.1242,35.8 L1385.5,41 L1385.5,41 L1385.2766,40.7702 L1383.9102,42.9662 L1381.8081,44.4055 L1380.2654,46.4201 L1378.1466,47.8423 L1376.5,49.75 L1376.4958,49.7198 L1374.7453,50.3265 L1372.897,50.2285 L1371.1064,50.5464 L1369.3207,50.8991 L1367.5,51 L1367.5,51 L1367.5254,51.1832 L1365.6998,50.7483 L1363.9176,50.6264 L1362.065,49.998 L1360.3174,50.1252 L1358.5,49.75 L1358.6698,49.9247 L1356.8377,48.1417 L1355.0899,46.4453 L1352.9503,44.3461 L1351.0979,42.5422 L1349.5,41 L1348.9476,41 L1349.4477,35.8 L1349.3253,30.6 L1350.1057,25.4 L1349.3447,20.2 L1349.5,15 " fill="#E3E3E3" style="stroke:#181818;stroke-width:1.5;"/><path d="M1349.5,15 L1349.5,15 L1349.5651,15.067 L1351.1716,16.618 L1353.1599,18.5616 L1355.0238,20.3774 L1356.479,21.7727 L1358.5,23.75 L1358.4952,23.7158 L1360.2739,23.8122 L1362.0766,24.0812 L1363.8958,24.47 L1365.6577,24.4456 L1367.5,25 L1367.5,25 L1367.5339,25.2437 L1369.2615,24.4725 L1371.0879,24.4129 L1372.9264,24.4402 L1374.6948,23.9622 L1376.5,23.75 L1376.5211,23.7717 L1378.2901,21.9898 L1380.1553,20.3069 L1381.9741,18.5762 L1383.8815,16.9366 L1385.5,15 " fill="none" style="stroke:#181818;stroke-width:1.5;"/><text fill="#000000" font-family="FG Virgil" font-size="14" font-style="italic" lengthAdjust="spacing" textLength="79" x="1325" y="655.9004">&#171;repository&#187;</text><text fill="#000000" font-family="FG Virgil" font-size="14" lengthAdjust="spacing" textLength="144" x="1292.5" y="671.541">JobOpeningRepository</text><path d="M1349.5,684.5078 L1349.5,684.5078 L1349.5651,684.5748 L1351.1716,682.6258 L1353.1599,681.0694 L1355.0238,679.3852 L1356.479,677.2805 L1358.5,675.7578 L1358.4952,675.7236 L1360.2739,675.3201 L1362.0766,675.089 L1363.8958,674.9778 L1365.6577,674.4535 L1367.5,674.5078 L1367.5,674.5078 L1367.5339,674.7515 L1369.2615,674.4804 L1371.0879,674.9208 L1372.9264,675.448 L1374.6948,675.4701 L1376.5,675.7578 L1376.5211,675.7796 L1378.2901,677.4976 L1380.1553,679.3147 L1381.9741,681.084 L1383.8815,682.9445 L1385.5,684.5078 L1386.0965,684.5078 L1386.1038,689.7078 L1385.7263,694.9078 L1385.9121,700.1078 L1386.1242,705.3078 L1385.5,710.5078 L1385.5,710.5078 L1385.2766,710.278 L1383.9102,712.474 L1381.8081,713.9133 L1380.2654,715.9279 L1378.1466,717.3501 L1376.5,719.2578 L1376.4958,719.2277 L1374.7453,719.8343 L1372.897,719.7364 L1371.1064,720.0542 L1369.3207,720.4069 L1367.5,720.5078 L1367.5,720.5078 L1367.5254,720.691 L1365.6998,720.2561 L1363.9176,720.1342 L1362.065,719.5058 L1360.3174,719.633 L1358.5,719.2578 L1358.6698,719.4325 L1356.8377,717.6495 L1355.0899,715.9532 L1352.9503,713.8539 L1351.0979,712.05 L1349.5,710.5078 L1348.9476,710.5078 L1349.4477,705.3078 L1349.3253,700.1078 L1350.1057,694.9078 L1349.3447,689.7078 L1349.5,684.5078 " fill="#E3E3E3" style="stroke:#181818;stroke-width:1.5;"/><path d="M1349.5,684.5078 L1349.5,684.5078 L1349.5651,684.5748 L1351.1716,686.1258 L1353.1599,688.0694 L1355.0238,689.8852 L1356.479,691.2805 L1358.5,693.2578 L1358.4952,693.2236 L1360.2739,693.3201 L1362.0766,693.589 L1363.8958,693.9778 L1365.6577,693.9535 L1367.5,694.5078 L1367.5,694.5078 L1367.5339,694.7515 L1369.2615,693.9804 L1371.0879,693.9208 L1372.9264,693.948 L1374.6948,693.4701 L1376.5,693.2578 L1376.5211,693.2796 L1378.2901,691.4976 L1380.1553,689.8147 L1381.9741,688.084 L1383.8815,686.4445 L1385.5,684.5078 " fill="none" style="stroke:#181818;stroke-width:1.5;"/><polygon fill="#FFFFFF" points="33.5,92.2813,33.5,92.3513,35.5,92.1431,37.5,92.3457,39.5,92.4145,41.5,92.0435,43.5,92.2813,43.4223,92.2813,43.0735,102.3557,43.1165,112.4301,43.4318,122.5046,42.8086,132.579,44.0536,142.6534,42.8697,152.7279,43.3022,162.8023,43.9319,172.8768,43.4142,182.9512,43.5682,193.0256,43.4681,203.1001,43.6785,213.1745,43.7391,223.249,44.0857,233.3234,44.1711,243.3978,44.1793,253.4723,43.7546,263.5467,43.9636,273.6212,44.2022,283.6956,42.7788,293.77,44.1785,303.8445,43.2035,313.9189,44.0338,323.9934,43.005,334.0678,43.4315,344.1422,44.2416,354.2167,43.4513,364.2911,43.6053,374.3656,43.8386,384.44,43.9162,394.5144,43.4961,404.5889,43.7872,414.6633,42.9276,424.7378,43.7844,434.8122,44.0482,444.8866,43.9445,454.9611,44.113,465.0355,43.0169,475.11,42.8478,485.1844,42.8786,495.2588,43.4411,505.3333,43.3035,515.4077,44.1814,525.4822,43.3253,535.5566,43.1569,545.631,43.7283,555.7055,42.8332,565.7799,42.9809,575.8544,44.149,585.9288,43.9357,596.0032,44.2345,606.0777,43.1782,616.1521,43.5,626.2266,43.5,626.333,41.5,626.4234,39.5,626.0691,37.5,626.1946,35.5,626.2686,33.5,626.2266,34.1518,626.2266,33.4958,616.1521,33.9626,606.0777,32.9462,596.0032,32.8227,585.9288,34.0036,575.8544,32.7831,565.7799,34.009,555.7055,33.7066,545.631,33.2321,535.5566,33.1462,525.4822,33.9588,515.4077,33.2007,505.3333,34.0919,495.2588,32.9473,485.1844,34.1174,475.11,33.9843,465.0355,33.745,454.9611,33.5472,444.8866,34.2266,434.8122,34.1136,424.7378,33.6693,414.6633,33.7682,404.5889,33.3697,394.5144,34.2165,384.44,33.6549,374.3656,33.6726,364.2911,32.8916,354.2167,33.0948,344.1422,34.0307,334.0678,33.9298,323.9934,33.4571,313.9189,33.1778,303.8445,33.2811,293.77,32.8138,283.6956,33.9147,273.6212,34.2396,263.5467,34.0264,253.4723,34.1949,243.3978,33.3633,233.3234,33.5872,223.249,33.1124,213.1745,33.784,203.1001,33.7468,193.0256,34.0524,182.9512,33.2703,172.8768,33.3656,162.8023,33.9435,152.7279,34.0673,142.6534,32.9875,132.579,33.3061,122.5046,33.6493,112.4301,32.8892,102.3557,33.5,92.2813" style="stroke:#181818;stroke-width:1.0;"/><polygon fill="#FFFFFF" points="198.5,112.8047,198.5,112.8747,200.5,112.6666,202.5,112.8691,204.5,112.9379,206.5,112.5669,208.5,112.8047,208.4223,112.8047,208.0735,122.8718,208.1165,132.9389,208.4318,143.006,207.8086,153.0731,209.0536,163.1402,207.8697,173.2073,208.3022,183.2744,208.9319,193.3415,208.4142,203.4085,208.5682,213.4756,208.4681,223.5427,208.6785,233.6098,208.7391,243.6769,209.0857,253.744,209.1711,263.8111,209.1793,273.8782,208.7546,283.9453,208.9636,294.0124,209.2022,304.0795,207.7788,314.1466,209.1785,324.2137,208.2035,334.2808,209.0338,344.3479,208.005,354.415,208.4315,364.4821,209.2416,374.5492,208.4513,384.6163,208.6053,394.6834,208.8386,404.7505,208.9162,414.8176,208.4961,424.8847,208.7872,434.9517,207.9276,445.0188,208.7844,455.0859,209.0482,465.153,208.9445,475.2201,209.113,485.2872,208.0169,495.3543,207.8478,505.4214,207.8786,515.4885,208.4411,525.5556,208.3035,535.6227,209.1814,545.6898,208.3253,555.7569,208.1569,565.824,208.7283,575.8911,207.8332,585.9582,207.9809,596.0253,209.149,606.0924,208.9357,616.1595,208.5,626.2266,208.5,626.4714,206.5,626.1193,204.5,626.333,202.5,626.4234,200.5,626.0691,198.5,626.2266,198.4041,626.2266,198.626,616.1595,199.1518,606.0924,198.4958,596.0253,198.9626,585.9582,197.9462,575.8911,197.8227,565.824,199.0036,555.7569,197.7831,545.6898,199.009,535.6227,198.7066,525.5556,198.2321,515.4885,198.1462,505.4214,198.9588,495.3543,198.2007,485.2872,199.0919,475.2201,197.9473,465.153,199.1174,455.0859,198.9843,445.0188,198.745,434.9517,198.5472,424.8847,199.2266,414.8176,199.1136,404.7505,198.6693,394.6834,198.7682,384.6163,198.3697,374.5492,199.2165,364.4821,198.6549,354.415,198.6726,344.3479,197.8916,334.2808,198.0948,324.2137,199.0307,314.1466,198.9298,304.0795,198.4571,294.0124,198.1778,283.9453,198.2811,273.8782,197.8138,263.8111,198.9147,253.744,199.2396,243.6769,199.0264,233.6098,199.1949,223.5427,198.3633,213.4756,198.5872,203.4085,198.1124,193.3415,198.784,183.2744,198.7468,173.2073,199.0524,163.1402,198.2703,153.0731,198.3656,143.006,198.9435,132.9389,199.0673,122.8718,198.5,112.8047" style="stroke:#181818;stroke-width:1.0;"/><polygon fill="#FFFFFF" points="425.5,169.8516,425.5,169.9216,427.5,169.7135,429.5,169.916,431.5,169.9848,433.5,169.6138,435.5,169.8516,435.4223,169.8516,435.0735,179.8016,435.1165,189.7516,435.4318,199.7017,434.8086,209.6517,436.0536,219.6017,434.8697,229.5518,435.3022,239.5018,435.9319,249.4519,435.4142,259.4019,435.5682,269.3519,435.4681,279.302,435.6785,289.252,435.7391,299.202,436.0857,309.1521,436.1711,319.1021,436.1793,329.0521,435.7546,339.0022,435.9636,348.9522,436.2022,358.9023,434.7788,368.8523,436.1785,378.8023,435.2035,388.7524,436.0338,398.7024,435.005,408.6524,435.4315,418.6025,436.2416,428.5525,435.4513,438.5025,435.6053,448.4526,435.8386,458.4026,435.9162,468.3527,435.4961,478.3027,435.7872,488.2527,434.9276,498.2028,435.7844,508.1528,436.0482,518.1028,435.9445,528.0529,436.113,538.0029,435.0169,547.9529,434.8478,557.903,434.8786,567.853,435.4411,577.8031,435.3035,587.7531,435.5,597.7031,435.5,597.9303,433.5,597.6449,431.5,597.5888,429.5,597.7792,427.5,597.4808,425.5,597.7031,424.9809,597.7031,426.149,587.7531,425.9357,577.8031,426.2345,567.853,425.1782,557.903,425.8192,547.9529,426.0904,538.0029,425.0276,528.0529,425.4041,518.1028,425.626,508.1528,426.1518,498.2028,425.4958,488.2527,425.9626,478.3027,424.9462,468.3527,424.8227,458.4026,426.0036,448.4526,424.7831,438.5025,426.009,428.5525,425.7066,418.6025,425.2321,408.6524,425.1462,398.7024,425.9588,388.7524,425.2007,378.8023,426.0919,368.8523,424.9473,358.9023,426.1174,348.9522,425.9843,339.0022,425.745,329.0521,425.5472,319.1021,426.2266,309.1521,426.1136,299.202,425.6693,289.252,425.7682,279.302,425.3697,269.3519,426.2165,259.4019,425.6549,249.4519,425.6726,239.5018,424.8916,229.5518,425.0948,219.6017,426.0307,209.6517,425.9298,199.7017,425.4571,189.7516,425.1778,179.8016,425.5,169.8516" style="stroke:#181818;stroke-width:1.0;"/><polygon fill="#FFFFFF" points="777.5,198.375,777.5,198.4451,779.5,198.2369,781.5,198.4394,783.5,198.5082,785.5,198.1372,787.5,198.375,787.4223,198.375,787.0735,207.8828,787.1165,217.3906,787.4318,226.8984,786.8086,236.4063,788.0536,245.9141,787.5,255.4219,787.5,255.2118,785.5,255.356,783.5,255.5659,781.5,255.3933,779.5,255.4446,777.5,255.4219,777.4681,255.4219,777.6785,245.9141,777.7391,236.4063,778.0857,226.8984,778.1711,217.3906,778.1793,207.8828,777.5,198.375" style="stroke:#181818;stroke-width:1.0;"/><polygon fill="#FFFFFF" points="920.5,283.9453,920.5,284.0154,922.5,283.8072,924.5,284.0097,926.5,284.0785,928.5,283.7075,930.5,283.9453,930.4741,283.9453,930.3578,289.65,930.3722,295.3547,930.4773,301.0594,930.2695,306.7641,930.5,312.4688,930.5,312.6533,928.5,312.2587,926.5,312.4028,924.5,312.6127,922.5,312.4402,920.5,312.4688,920.5227,312.4688,920.4894,306.7641,920.5595,301.0594,920.5797,295.3547,920.6952,289.65,920.5,283.9453" style="stroke:#181818;stroke-width:1.0;"/><polygon fill="#FFFFFF" points="920.5,426.5625,920.5,426.6326,922.5,426.4244,924.5,426.6269,926.5,426.6957,928.5,426.3247,930.5,426.5625,930.4741,426.5625,930.3578,432.2672,930.3722,437.9719,930.4773,443.6766,930.2695,449.3813,930.5,455.0859,930.5,455.2705,928.5,454.8758,926.5,455.02,924.5,455.2299,922.5,455.0573,920.5,455.0859,920.5227,455.0859,920.4894,449.3813,920.5595,443.6766,920.5797,437.9719,920.6952,432.2672,920.5,426.5625" style="stroke:#181818;stroke-width:1.0;"/><polygon fill="#FFFFFF" points="1064,540.6563,1064,540.7263,1066,540.5181,1068,540.7207,1070,540.7895,1072,540.4185,1074,540.6563,1073.9741,540.6563,1073.8578,546.3609,1073.8722,552.0656,1073.9773,557.7703,1073.7695,563.475,1074,569.1797,1074,569.3642,1072,568.9696,1070,569.1138,1068,569.3237,1066,569.1511,1064,569.1797,1064.0227,569.1797,1063.9894,563.475,1064.0595,557.7703,1064.0797,552.0656,1064.1952,546.3609,1064,540.6563" style="stroke:#181818;stroke-width:1.0;"/><polygon fill="#FFFFFF" points="1210,483.6094,1210,483.6794,1212,483.4713,1214,483.6738,1216,483.7426,1218,483.3716,1220,483.6094,1219.9741,483.6094,1219.8578,489.3141,1219.8722,495.0188,1219.9773,500.7234,1219.7695,506.4281,1220,512.1328,1220,512.3174,1218,511.9227,1216,512.0669,1214,512.2768,1212,512.1042,1210,512.1328,1210.0227,512.1328,1209.9894,506.4281,1210.0595,500.7234,1210.0797,495.0188,1210.1952,489.3141,1210,483.6094" style="stroke:#181818;stroke-width:1.0;"/><polygon fill="#181818" points="186.5,108.8047,186.526,108.8697,188.4487,109.4765,190.5239,110.4645,192.5495,111.3284,194.4117,111.7839,196.5,112.8047,196.4904,112.7806,194.4472,113.4727,192.4525,114.286,190.4916,115.1836,188.4144,115.7907,186.5,116.8047,186.6305,116.9352,187.1514,115.8561,188.0534,115.1581,189.0018,114.5065,189.6798,113.5845,190.5,112.8047,190.5161,112.8208,189.6925,111.9972,188.9421,111.2468,188.1564,110.4611,187.438,109.7427,186.5,108.8047" style="stroke:#181818;stroke-width:1.0;"/><path d="M43.5,112.8047 L43.5,113.0849 L53.4333,112.2523 L63.3667,113.0624 L73.3,113.3376 L83.2333,111.8535 L93.1667,112.7011 L103.1,112.236 L113.0333,112.2934 L122.9667,112.7138 L132.9,111.8829 L142.8333,113.5429 L152.7667,111.9643 L162.7,112.541 L172.6333,113.3806 L182.5667,112.6903 L192.5,112.8047 " fill="none" style="stroke:#181818;stroke-width:1.0;"/><text fill="#000000" font-family="FG Virgil" font-size="13" lengthAdjust="spacing" textLength="100" x="50.5" y="108.0498">List JobOpenings</text><polygon fill="#181818" points="418.5,137.3281,418.526,137.3932,420.4487,137.9999,422.5239,138.9879,424.5495,139.8518,426.4117,140.3073,428.5,141.3281,428.4904,141.3041,426.4472,141.9961,424.4525,142.8094,422.4916,143.707,420.4144,144.3142,418.5,145.3281,418.6305,145.4586,419.1514,144.3796,420.0534,143.6815,421.0018,143.0299,421.6798,142.1079,422.5,141.3281,422.5161,141.3442,421.6925,140.5206,420.9421,139.7702,420.1564,138.9845,419.438,138.2662,418.5,137.3281" style="stroke:#181818;stroke-width:1.0;"/><path d="M208.5,141.3281 L208.5,141.6084 L218.3182,140.7757 L228.1364,141.5858 L237.9545,141.861 L247.7727,140.3769 L257.5909,141.2245 L267.4091,140.7595 L277.2273,140.8168 L287.0455,141.2372 L296.8636,140.4063 L306.6818,142.0663 L316.5,140.4878 L326.3182,141.0644 L336.1364,141.9041 L345.9545,141.2138 L355.7727,141.4191 L365.5909,141.2855 L375.4091,141.5662 L385.2273,141.647 L395.0455,142.109 L404.8636,142.2229 L414.6818,142.2338 L424.5,141.3281 " fill="none" style="stroke:#181818;stroke-width:1.0;"/><text fill="#000000" font-family="FG Virgil" font-size="13" lengthAdjust="spacing" textLength="44" x="215.5" y="136.5732">create()</text><polygon fill="#181818" points="413.5,165.8516,413.526,165.9166,415.4487,166.5233,417.5239,167.5114,419.5495,168.3753,421.4117,168.8308,423.5,169.8516,423.4904,169.8275,421.4472,170.5196,419.4525,171.3329,417.4916,172.2305,415.4144,172.8376,413.5,173.8516,413.6305,173.9821,414.1514,172.903,415.0534,172.2049,416.0018,171.5534,416.6798,170.6313,417.5,169.8516,417.5161,169.8676,416.6925,169.044,415.9421,168.2936,415.1564,167.5079,414.438,166.7896,413.5,165.8516" style="stroke:#181818;stroke-width:1.0;"/><path d="M208.5,169.8516 L208.5,170.1318 L218.5476,169.2991 L228.5952,170.1093 L238.6429,170.3845 L248.6905,168.9004 L258.7381,169.7479 L268.7857,169.2829 L278.8333,169.3402 L288.881,169.7607 L298.9286,168.9297 L308.9762,170.5898 L319.0238,169.0112 L329.0714,169.5879 L339.119,170.4275 L349.1667,169.7372 L359.2143,169.9425 L369.2619,169.809 L379.3095,170.0896 L389.3571,170.1704 L399.4048,170.6325 L409.4524,170.7463 L419.5,169.8516 " fill="none" style="stroke:#181818;stroke-width:1.0;"/><text fill="#000000" font-family="FG Virgil" font-size="13" lengthAdjust="spacing" textLength="166" x="215.5" y="165.0967">getJobOpeningByCustomer()</text><polygon fill="#181818" points="765.5,194.375,765.526,194.44,767.4487,195.0468,769.5239,196.0348,771.5495,196.8987,773.4117,197.3542,775.5,198.375,775.4904,198.3509,773.4472,199.043,771.4525,199.8563,769.4916,200.7539,767.4144,201.361,765.5,202.375,765.6305,202.5055,766.1514,201.4264,767.0534,200.7284,768.0018,200.0768,768.6798,199.1548,769.5,198.375,769.5161,198.3911,768.6925,197.5675,767.9421,196.8171,767.1564,196.0314,766.438,195.313,765.5,194.375" style="stroke:#181818;stroke-width:1.0;"/><path d="M435.5,198.375 L435.5,198.6552 L445.3824,197.8226 L455.2647,198.6327 L465.1471,198.9079 L475.0294,197.4238 L484.9118,198.2714 L494.7941,197.8063 L504.6765,197.8637 L514.5588,198.2841 L524.4412,197.4532 L534.3235,199.1132 L544.2059,197.5346 L554.0882,198.1113 L563.9706,198.9509 L573.8529,198.2606 L583.7353,198.466 L593.6176,198.3324 L603.5,198.613 L613.3824,198.6938 L623.2647,199.1559 L633.1471,199.2697 L643.0294,199.2807 L652.9118,198.7145 L662.7941,198.9931 L672.6765,199.3113 L682.5588,197.4134 L692.4412,199.2797 L702.3235,197.9797 L712.2059,199.0867 L722.0882,197.715 L731.9706,198.2837 L741.8529,199.3638 L751.7353,198.31 L761.6176,198.5154 L771.5,198.375 " fill="none" style="stroke:#181818;stroke-width:1.0;"/><text fill="#000000" font-family="FG Virgil" font-size="13" lengthAdjust="spacing" textLength="75" x="442.5" y="193.6201">repositories()</text><polygon fill="#181818" points="913.5,222.8984,913.526,222.9635,915.4487,223.5702,917.5239,224.5583,919.5495,225.4221,921.4117,225.8776,923.5,226.8984,923.4904,226.8744,921.4472,227.5664,919.4525,228.3797,917.4916,229.2773,915.4144,229.8845,913.5,230.8984,913.6305,231.0289,914.1514,229.9499,915.0534,229.2518,916.0018,228.6002,916.6798,227.6782,917.5,226.8984,917.5161,226.9145,916.6925,226.0909,915.9421,225.3405,915.1564,224.5548,914.438,223.8365,913.5,222.8984" style="stroke:#181818;stroke-width:1.0;"/><path d="M787.5,226.8984 L787.5,227.1787 L797.6538,226.346 L807.8077,227.1562 L817.9615,227.4313 L828.1154,225.9472 L838.2692,226.7948 L848.4231,226.3298 L858.5769,226.3871 L868.7308,226.8076 L878.8846,225.9766 L889.0385,227.6366 L899.1923,226.0581 L909.3462,226.6347 L919.5,226.8984 " fill="none" style="stroke:#181818;stroke-width:1.0;"/><text fill="#000000" font-family="FG Virgil" font-size="13" lengthAdjust="spacing" textLength="47" x="794.5" y="222.1436">factory()</text><polygon fill="#181818" points="446.5,251.4219,446.526,251.4869,444.4487,252.0936,442.5239,253.0817,440.5495,253.9456,438.4117,254.4011,436.5,255.4219,436.4904,255.3978,438.4472,256.0899,440.4525,256.9032,442.4916,257.8008,444.4144,258.4079,446.5,259.4219,446.6305,259.5524,445.5514,258.4733,444.8534,257.7753,444.2018,257.1237,443.2798,256.2017,442.5,255.4219,442.5161,255.438,443.2925,254.6143,444.1421,253.864,444.9564,253.0782,445.838,252.3599,446.5,251.4219" style="stroke:#181818;stroke-width:1.0;"/><path d="M440.5,255.4219 L440.5,255.7021 L450.5294,254.8694 L460.5588,255.6796 L470.5882,255.9548 L480.6176,254.4707 L490.6471,255.3183 L500.6765,254.8532 L510.7059,254.9105 L520.7353,255.331 L530.7647,254.5 L540.7941,256.1601 L550.8235,254.5815 L560.8529,255.1582 L570.8824,255.9978 L580.9118,255.3075 L590.9412,255.5129 L600.9706,255.3793 L611,255.6599 L621.0294,255.7407 L631.0588,256.2028 L641.0882,256.3166 L651.1176,256.3276 L661.1471,255.7614 L671.1765,256.04 L681.2059,256.3582 L691.2353,254.4603 L701.2647,256.3266 L711.2941,255.0265 L721.3235,256.1336 L731.3529,254.7618 L741.3824,255.3305 L751.4118,256.4107 L761.4412,255.3569 L771.4706,255.5623 L781.5,255.4219 " fill="none" style="stroke:#181818;stroke-width:1.0;stroke-dasharray:2.0,2.0;"/><text fill="#000000" font-family="FG Virgil" font-size="13" lengthAdjust="spacing" textLength="39" x="452.5" y="250.667">factory</text><polygon fill="#181818" points="908.5,279.9453,908.526,280.0104,910.4487,280.6171,912.5239,281.6051,914.5495,282.469,916.4117,282.9245,918.5,283.9453,918.4904,283.9213,916.4472,284.6133,914.4525,285.4266,912.4916,286.3242,910.4144,286.9313,908.5,287.9453,908.6305,288.0758,909.1514,286.9968,910.0534,286.2987,911.0018,285.6471,911.6798,284.7251,912.5,283.9453,912.5161,283.9614,911.6925,283.1378,910.9421,282.3874,910.1564,281.6017,909.438,280.8834,908.5,279.9453" style="stroke:#181818;stroke-width:1.0;"/><path d="M435.5,283.9453 L435.5,284.2256 L445.4792,283.3929 L455.4583,284.203 L465.4375,284.4782 L475.4167,282.9941 L485.3958,283.8417 L495.375,283.3767 L505.3542,283.434 L515.3333,283.8544 L525.3125,283.0235 L535.2917,284.6835 L545.2708,283.1049 L555.25,283.6816 L565.2292,284.5212 L575.2083,283.8309 L585.1875,284.0363 L595.1667,283.9027 L605.1458,284.1833 L615.125,284.2642 L625.1042,284.7262 L635.0833,284.8401 L645.0625,284.851 L655.0417,284.2848 L665.0208,284.5634 L675,284.8816 L684.9792,282.9837 L694.9583,284.85 L704.9375,283.55 L714.9167,284.6571 L724.8958,283.2853 L734.875,283.854 L744.8542,284.9341 L754.8333,283.8803 L764.8125,284.0857 L774.7917,284.3968 L784.7708,284.5003 L794.75,283.9401 L804.7292,284.3283 L814.7083,283.1821 L824.6875,284.3245 L834.6667,284.6762 L844.6458,284.538 L854.625,284.7627 L864.6042,283.3012 L874.5833,283.0757 L884.5625,283.1168 L894.5417,283.8668 L904.5208,283.6833 L914.5,283.9453 " fill="none" style="stroke:#181818;stroke-width:1.0;"/><text fill="#000000" font-family="FG Virgil" font-size="13" lengthAdjust="spacing" textLength="80" x="442.5" y="279.1904">jobOpenings()</text><polygon fill="#181818" points="446.5,308.4688,446.526,308.5338,444.4487,309.1405,442.5239,310.1286,440.5495,310.9924,438.4117,311.448,436.5,312.4688,436.4904,312.4447,438.4472,313.1368,440.4525,313.9501,442.4916,314.8477,444.4144,315.4548,446.5,316.4688,446.6305,316.5992,445.5514,315.5202,444.8534,314.8221,444.2018,314.1706,443.2798,313.2485,442.5,312.4688,442.5161,312.4848,443.2925,311.6612,444.1421,310.9108,444.9564,310.1251,445.838,309.4068,446.5,308.4688" style="stroke:#181818;stroke-width:1.0;"/><path d="M440.5,312.4688 L440.5,312.749 L450.5833,311.9163 L460.6667,312.7265 L470.75,313.0017 L480.8333,311.5176 L490.9167,312.3651 L501,311.9001 L511.0833,311.9574 L521.1667,312.3779 L531.25,311.5469 L541.3333,313.2069 L551.4167,311.6284 L561.5,312.2051 L571.5833,313.0447 L581.6667,312.3544 L591.75,312.5597 L601.8333,312.4262 L611.9167,312.7068 L622,312.7876 L632.0833,313.2497 L642.1667,313.3635 L652.25,313.3744 L662.3333,312.8083 L672.4167,313.0869 L682.5,313.4051 L692.5833,311.5072 L702.6667,313.3734 L712.75,312.0734 L722.8333,313.1805 L732.9167,311.8087 L743,312.3774 L753.0833,313.4576 L763.1667,312.4038 L773.25,312.6092 L783.3333,312.9203 L793.4167,313.0237 L803.5,312.4635 L813.5833,312.8517 L823.6667,311.7055 L833.75,312.8479 L843.8333,313.1997 L853.9167,313.0615 L864,313.2861 L874.0833,311.8246 L884.1667,311.5992 L894.25,311.6402 L904.3333,312.3902 L914.4167,312.2067 L924.5,312.4688 " fill="none" style="stroke:#181818;stroke-width:1.0;stroke-dasharray:2.0,2.0;"/><text fill="#000000" font-family="FG Virgil" font-size="13" lengthAdjust="spacing" textLength="127" x="452.5" y="307.7139">jobOpeningRepository</text><polygon fill="#181818" points="1057,336.9922,1057.026,337.0572,1058.9487,337.664,1061.0239,338.652,1063.0495,339.5159,1064.9117,339.9714,1067,340.9922,1066.9904,340.9681,1064.9472,341.6602,1062.9525,342.4735,1060.9916,343.3711,1058.9144,343.9782,1057,344.9922,1057.1305,345.1227,1057.6514,344.0436,1058.5534,343.3456,1059.5018,342.694,1060.1798,341.772,1061,340.9922,1061.0161,341.0083,1060.1925,340.1847,1059.4421,339.4343,1058.6564,338.6486,1057.938,337.9302,1057,336.9922" style="stroke:#181818;stroke-width:1.0;"/><path d="M435.5,340.9922 L435.5,341.2724 L445.4603,340.4398 L455.4206,341.2499 L465.381,341.5251 L475.3413,340.041 L485.3016,340.8886 L495.2619,340.4235 L505.2222,340.4809 L515.1825,340.9013 L525.1429,340.0704 L535.1032,341.7304 L545.0635,340.1518 L555.0238,340.7285 L564.9841,341.5681 L574.9444,340.8778 L584.9048,341.0832 L594.8651,340.9496 L604.8254,341.2302 L614.7857,341.311 L624.746,341.7731 L634.7063,341.8869 L644.6667,341.8979 L654.627,341.3317 L664.5873,341.6103 L674.5476,341.9285 L684.5079,340.0306 L694.4683,341.8969 L704.4286,340.5968 L714.3889,341.7039 L724.3492,340.3322 L734.3095,340.9009 L744.2698,341.981 L754.2302,340.9272 L764.1905,341.1326 L774.1508,341.4437 L784.1111,341.5472 L794.0714,340.987 L804.0317,341.3751 L813.9921,340.229 L823.9524,341.3714 L833.9127,341.7231 L843.873,341.5849 L853.8333,341.8096 L863.7937,340.3481 L873.754,340.1226 L883.7143,340.1637 L893.6746,340.9137 L903.6349,340.7301 L913.5952,341.9007 L923.5556,340.7593 L933.5159,340.5348 L943.4762,341.2965 L953.4365,340.1031 L963.3968,340.3 L973.3571,341.8575 L983.3175,341.5731 L993.2778,341.9715 L1003.2381,340.5631 L1013.1984,341.4178 L1023.1587,341.7794 L1033.119,340.3623 L1043.0794,340.8644 L1053.0397,341.1602 L1063,340.9922 " fill="none" style="stroke:#181818;stroke-width:1.0;"/><text fill="#000000" font-family="FG Virgil" font-size="13" lengthAdjust="spacing" textLength="171" x="442.5" y="336.2373">create(jobOpeningRepository)</text><polygon fill="#181818" points="621,365.5156,621.026,365.5807,622.9487,366.1874,625.0239,367.1754,627.0495,368.0393,628.9117,368.4948,631,369.5156,630.9904,369.4916,628.9472,370.1836,626.9525,370.9969,624.9916,371.8945,622.9144,372.5017,621,373.5156,621.1305,373.6461,621.6514,372.5671,622.5534,371.869,623.5018,371.2174,624.1798,370.2954,625,369.5156,625.0161,369.5317,624.1925,368.7081,623.4421,367.9577,622.6564,367.172,621.938,366.4537,621,365.5156" style="stroke:#181818;stroke-width:1.0;"/><path d="M435.5,369.5156 L435.5,369.7959 L445.5789,368.9632 L455.6579,369.7733 L465.7368,370.0485 L475.8158,368.5644 L485.8947,369.412 L495.9737,368.947 L506.0526,369.0043 L516.1316,369.4247 L526.2105,368.5938 L536.2895,370.2538 L546.3684,368.6753 L556.4474,369.2519 L566.5263,370.0916 L576.6053,369.4013 L586.6842,369.6066 L596.7632,369.473 L606.8421,369.7537 L616.9211,369.8345 L627,369.5156 " fill="none" style="stroke:#181818;stroke-width:1.0;"/><text fill="#000000" font-family="FG Virgil" font-size="13" lengthAdjust="spacing" textLength="53" x="442.5" y="364.7607">session()</text><polygon fill="#181818" points="446.5,394.0391,446.526,394.1041,444.4487,394.7108,442.5239,395.6989,440.5495,396.5628,438.4117,397.0183,436.5,398.0391,436.4904,398.015,438.4472,398.7071,440.4525,399.5204,442.4916,400.418,444.4144,401.0251,446.5,402.0391,446.6305,402.1696,445.5514,401.0905,444.8534,400.3924,444.2018,399.7409,443.2798,398.8188,442.5,398.0391,442.5161,398.0551,443.2925,397.2315,444.1421,396.4811,444.9564,395.6954,445.838,394.9771,446.5,394.0391" style="stroke:#181818;stroke-width:1.0;"/><path d="M440.5,398.0391 L440.5,398.3193 L450.5789,397.4866 L460.6579,398.2968 L470.7368,398.572 L480.8158,397.0879 L490.8947,397.9354 L500.9737,397.4704 L511.0526,397.5277 L521.1316,397.9482 L531.2105,397.1172 L541.2895,398.7773 L551.3684,397.1987 L561.4474,397.7754 L571.5263,398.615 L581.6053,397.9247 L591.6842,398.13 L601.7632,397.9965 L611.8421,398.2771 L621.9211,398.3579 L632,398.0391 " fill="none" style="stroke:#181818;stroke-width:1.0;stroke-dasharray:2.0,2.0;"/><text fill="#000000" font-family="FG Virgil" font-size="13" lengthAdjust="spacing" textLength="45" x="452.5" y="393.2842">session</text><polygon fill="#181818" points="908.5,422.5625,908.526,422.6275,910.4487,423.2343,912.5239,424.2223,914.5495,425.0862,916.4117,425.5417,918.5,426.5625,918.4904,426.5384,916.4472,427.2305,914.4525,428.0438,912.4916,428.9414,910.4144,429.5485,908.5,430.5625,908.6305,430.693,909.1514,429.6139,910.0534,428.9159,911.0018,428.2643,911.6798,427.3423,912.5,426.5625,912.5161,426.5786,911.6925,425.755,910.9421,425.0046,910.1564,424.2189,909.438,423.5005,908.5,422.5625" style="stroke:#181818;stroke-width:1.0;"/><path d="M435.5,426.5625 L435.5,426.8427 L445.4792,426.0101 L455.4583,426.8202 L465.4375,427.0954 L475.4167,425.6113 L485.3958,426.4589 L495.375,425.9938 L505.3542,426.0512 L515.3333,426.4716 L525.3125,425.6407 L535.2917,427.3007 L545.2708,425.7221 L555.25,426.2988 L565.2292,427.1384 L575.2083,426.4481 L585.1875,426.6535 L595.1667,426.5199 L605.1458,426.8005 L615.125,426.8813 L625.1042,427.3434 L635.0833,427.4572 L645.0625,427.4682 L655.0417,426.902 L665.0208,427.1806 L675,427.4988 L684.9792,425.6009 L694.9583,427.4672 L704.9375,426.1672 L714.9167,427.2742 L724.8958,425.9025 L734.875,426.4712 L744.8542,427.5513 L754.8333,426.4975 L764.8125,426.7029 L774.7917,427.014 L784.7708,427.1175 L794.75,426.5573 L804.7292,426.9455 L814.7083,425.7993 L824.6875,426.9417 L834.6667,427.2934 L844.6458,427.1552 L854.625,427.3799 L864.6042,425.9184 L874.5833,425.6929 L884.5625,425.734 L894.5417,426.484 L904.5208,426.3005 L914.5,426.5625 " fill="none" style="stroke:#181818;stroke-width:1.0;"/><text fill="#000000" font-family="FG Virgil" font-size="13" lengthAdjust="spacing" textLength="69" x="442.5" y="421.8076">customers()</text><polygon fill="#181818" points="446.5,451.0859,446.526,451.151,444.4487,451.7577,442.5239,452.7458,440.5495,453.6096,438.4117,454.0651,436.5,455.0859,436.4904,455.0619,438.4472,455.7539,440.4525,456.5672,442.4916,457.4648,444.4144,458.072,446.5,459.0859,446.6305,459.2164,445.5514,458.1374,444.8534,457.4393,444.2018,456.7877,443.2798,455.8657,442.5,455.0859,442.5161,455.102,443.2925,454.2784,444.1421,453.528,444.9564,452.7423,445.838,452.024,446.5,451.0859" style="stroke:#181818;stroke-width:1.0;"/><path d="M440.5,455.0859 L440.5,455.3662 L450.5833,454.5335 L460.6667,455.3437 L470.75,455.6188 L480.8333,454.1347 L490.9167,454.9823 L501,454.5173 L511.0833,454.5746 L521.1667,454.9951 L531.25,454.1641 L541.3333,455.8241 L551.4167,454.2456 L561.5,454.8222 L571.5833,455.6619 L581.6667,454.9716 L591.75,455.1769 L601.8333,455.0433 L611.9167,455.324 L622,455.4048 L632.0833,455.8669 L642.1667,455.9807 L652.25,455.9916 L662.3333,455.4254 L672.4167,455.7041 L682.5,456.0222 L692.5833,454.1244 L702.6667,455.9906 L712.75,454.6906 L722.8333,455.7977 L732.9167,454.4259 L743,454.9946 L753.0833,456.0747 L763.1667,455.021 L773.25,455.2263 L783.3333,455.5374 L793.4167,455.6409 L803.5,455.0807 L813.5833,455.4689 L823.6667,454.3227 L833.75,455.4651 L843.8333,455.8169 L853.9167,455.6786 L864,455.9033 L874.0833,454.4418 L884.1667,454.2164 L894.25,454.2574 L904.3333,455.0074 L914.4167,454.8239 L924.5,455.0859 " fill="none" style="stroke:#181818;stroke-width:1.0;stroke-dasharray:2.0,2.0;"/><text fill="#000000" font-family="FG Virgil" font-size="13" lengthAdjust="spacing" textLength="116" x="452.5" y="450.3311">customerRepository</text><polygon fill="#181818" points="1198,479.6094,1198.026,479.6744,1199.9487,480.2811,1202.0239,481.2692,1204.0495,482.1331,1205.9117,482.5886,1208,483.6094,1207.9904,483.5853,1205.9472,484.2774,1203.9525,485.0907,1201.9916,485.9883,1199.9144,486.5954,1198,487.6094,1198.1305,487.7399,1198.6514,486.6608,1199.5534,485.9628,1200.5018,485.3112,1201.1798,484.3892,1202,483.6094,1202.0161,483.6255,1201.1925,482.8018,1200.4421,482.0515,1199.6564,481.2657,1198.938,480.5474,1198,479.6094" style="stroke:#181818;stroke-width:1.0;"/><path d="M435.5,483.6094 L435.5,483.8896 L445.4805,483.0569 L455.461,483.8671 L465.4416,484.1423 L475.4221,482.6582 L485.4026,483.5058 L495.3831,483.0407 L505.3636,483.098 L515.3442,483.5185 L525.3247,482.6875 L535.3052,484.3476 L545.2857,482.769 L555.2662,483.3457 L565.2468,484.1853 L575.2273,483.495 L585.2078,483.7004 L595.1883,483.5668 L605.1688,483.8474 L615.1494,483.9282 L625.1299,484.3903 L635.1104,484.5041 L645.0909,484.5151 L655.0714,483.9489 L665.0519,484.2275 L675.0325,484.5457 L685.013,482.6478 L694.9935,484.5141 L704.974,483.214 L714.9545,484.3211 L724.9351,482.9493 L734.9156,483.518 L744.8961,484.5982 L754.8766,483.5444 L764.8571,483.7498 L774.8377,484.0609 L784.8182,484.1644 L794.7987,483.6042 L804.7792,483.9923 L814.7597,482.8462 L824.7403,483.9886 L834.7208,484.3403 L844.7013,484.2021 L854.6818,484.4267 L864.6623,482.9653 L874.6429,482.7398 L884.6234,482.7808 L894.6039,483.5309 L904.5844,483.3473 L914.5649,484.5179 L924.5455,483.3765 L934.526,483.152 L944.5065,483.9137 L954.487,482.7203 L964.4675,482.9172 L974.4481,484.4746 L984.4286,484.1903 L994.4091,484.5887 L1004.3896,483.1803 L1014.3701,484.035 L1024.3506,484.3966 L1034.3312,482.9795 L1044.3117,483.4816 L1054.2922,483.7774 L1064.2727,484.4784 L1074.2532,483.6038 L1084.2338,484.2261 L1094.2143,482.871 L1104.1948,482.7064 L1114.1753,484.2809 L1124.1558,482.6535 L1134.1364,484.288 L1144.1169,483.8849 L1154.0974,483.2522 L1164.0779,483.1377 L1174.0584,484.2211 L1184.039,483.2103 L1194.0195,484.3985 L1204,483.6094 " fill="none" style="stroke:#181818;stroke-width:1.0;"/><text fill="#000000" font-family="FG Virgil" font-size="13" lengthAdjust="spacing" textLength="263" x="442.5" y="478.8545">findByCustomerEmployee(authenticatedUser)</text><polygon fill="#181818" points="446.5,508.1328,446.526,508.1979,444.4487,508.8046,442.5239,509.7926,440.5495,510.6565,438.4117,511.112,436.5,512.1328,436.4904,512.1088,438.4472,512.8008,440.4525,513.6141,442.4916,514.5117,444.4144,515.1188,446.5,516.1328,446.6305,516.2633,445.5514,515.1843,444.8534,514.4862,444.2018,513.8346,443.2798,512.9126,442.5,512.1328,442.5161,512.1489,443.2925,511.3253,444.1421,510.5749,444.9564,509.7892,445.838,509.0709,446.5,508.1328" style="stroke:#181818;stroke-width:1.0;"/><path d="M440.5,512.1328 L440.5,512.4131 L450.5455,511.5804 L460.5909,512.3905 L470.6364,512.6657 L480.6818,511.1816 L490.7273,512.0292 L500.7727,511.5642 L510.8182,511.6215 L520.8636,512.0419 L530.9091,511.211 L540.9545,512.871 L551,511.2924 L561.0455,511.8691 L571.0909,512.7087 L581.1364,512.0184 L591.1818,512.2238 L601.2273,512.0902 L611.2727,512.3708 L621.3182,512.4517 L631.3636,512.9137 L641.4091,513.0276 L651.4545,513.0385 L661.5,512.4723 L671.5455,512.7509 L681.5909,513.0691 L691.6364,511.1712 L701.6818,513.0375 L711.7273,511.7375 L721.7727,512.8446 L731.8182,511.4728 L741.8636,512.0415 L751.9091,513.1216 L761.9545,512.0678 L772,512.2732 L782.0455,512.5843 L792.0909,512.6878 L802.1364,512.1276 L812.1818,512.5158 L822.2273,511.3696 L832.2727,512.512 L842.3182,512.8637 L852.3636,512.7255 L862.4091,512.9502 L872.4545,511.4887 L882.5,511.2632 L892.5455,511.3043 L902.5909,512.0543 L912.6364,511.8708 L922.6818,513.0414 L932.7273,511.8999 L942.7727,511.6754 L952.8182,512.4372 L962.8636,511.2437 L972.9091,511.4406 L982.9545,512.9981 L993,512.7137 L1003.0455,513.1121 L1013.0909,511.7038 L1023.1364,512.5584 L1033.1818,512.92 L1043.2273,511.5029 L1053.2727,512.005 L1063.3182,512.3008 L1073.3636,513.0018 L1083.4091,512.1272 L1093.4545,512.7496 L1103.5,511.3944 L1113.5455,511.2298 L1123.5909,512.8043 L1133.6364,511.1769 L1143.6818,512.8114 L1153.7273,512.4083 L1163.7727,511.7756 L1173.8182,511.6611 L1183.8636,512.7445 L1193.9091,511.7337 L1203.9545,512.922 L1214,512.1328 " fill="none" style="stroke:#181818;stroke-width:1.0;stroke-dasharray:2.0,2.0;"/><text fill="#000000" font-family="FG Virgil" font-size="13" lengthAdjust="spacing" textLength="54" x="452.5" y="507.3779">customer</text><polygon fill="#181818" points="1052,536.6563,1052.026,536.7213,1053.9487,537.328,1056.0239,538.3161,1058.0495,539.1799,1059.9117,539.6355,1062,540.6563,1061.9904,540.6322,1059.9472,541.3243,1057.9525,542.1376,1055.9916,543.0352,1053.9144,543.6423,1052,544.6563,1052.1305,544.7867,1052.6514,543.7077,1053.5534,543.0096,1054.5018,542.3581,1055.1798,541.436,1056,540.6563,1056.0161,540.6723,1055.1925,539.8487,1054.4421,539.0983,1053.6564,538.3126,1052.938,537.5943,1052,536.6563" style="stroke:#181818;stroke-width:1.0;"/><path d="M435.5,540.6563 L435.5,540.9365 L445.5403,540.1038 L455.5806,540.914 L465.621,541.1892 L475.6613,539.7051 L485.7016,540.5526 L495.7419,540.0876 L505.7823,540.1449 L515.8226,540.5654 L525.8629,539.7344 L535.9032,541.3944 L545.9435,539.8159 L555.9839,540.3926 L566.0242,541.2322 L576.0645,540.5419 L586.1048,540.7472 L596.1452,540.6137 L606.1855,540.8943 L616.2258,540.9751 L626.2661,541.4372 L636.3065,541.551 L646.3468,541.5619 L656.3871,540.9958 L666.4274,541.2744 L676.4677,541.5926 L686.5081,539.6947 L696.5484,541.5609 L706.5887,540.2609 L716.629,541.368 L726.6694,539.9962 L736.7097,540.5649 L746.75,541.6451 L756.7903,540.5913 L766.8306,540.7967 L776.871,541.1078 L786.9113,541.2112 L796.9516,540.651 L806.9919,541.0392 L817.0323,539.893 L827.0726,541.0354 L837.1129,541.3872 L847.1532,541.249 L857.1935,541.4736 L867.2339,540.0121 L877.2742,539.7867 L887.3145,539.8277 L897.3548,540.5777 L907.3952,540.3942 L917.4355,541.5648 L927.4758,540.4233 L937.5161,540.1988 L947.5565,540.9606 L957.5968,539.7671 L967.6371,539.9641 L977.6774,541.5215 L987.7177,541.2371 L997.7581,541.6356 L1007.7984,540.2272 L1017.8387,541.0818 L1027.879,541.4435 L1037.9194,540.0264 L1047.9597,540.5284 L1058,540.6563 " fill="none" style="stroke:#181818;stroke-width:1.0;"/><text fill="#000000" font-family="FG Virgil" font-size="13" lengthAdjust="spacing" textLength="226" x="442.5" y="535.9014">listJobOpeningsByCustomer(customer)</text><polygon fill="#181818" points="446.5,565.1797,446.526,565.2447,444.4487,565.8515,442.5239,566.8395,440.5495,567.7034,438.4117,568.1589,436.5,569.1797,436.4904,569.1556,438.4472,569.8477,440.4525,570.661,442.4916,571.5586,444.4144,572.1657,446.5,573.1797,446.6305,573.3102,445.5514,572.2311,444.8534,571.5331,444.2018,570.8815,443.2798,569.9595,442.5,569.1797,442.5161,569.1958,443.2925,568.3722,444.1421,567.6218,444.9564,566.8361,445.838,566.1177,446.5,565.1797" style="stroke:#181818;stroke-width:1.0;"/><path d="M440.5,569.1797 L440.5,569.4599 L450.4603,568.6273 L460.4206,569.4374 L470.381,569.7126 L480.3413,568.2285 L490.3016,569.0761 L500.2619,568.611 L510.2222,568.6684 L520.1825,569.0888 L530.1429,568.2579 L540.1032,569.9179 L550.0635,568.3393 L560.0238,568.916 L569.9841,569.7556 L579.9444,569.0653 L589.9048,569.2707 L599.8651,569.1371 L609.8254,569.4177 L619.7857,569.4985 L629.746,569.9606 L639.7063,570.0744 L649.6667,570.0854 L659.627,569.5192 L669.5873,569.7978 L679.5476,570.116 L689.5079,568.2181 L699.4683,570.0844 L709.4286,568.7843 L719.3889,569.8914 L729.3492,568.5197 L739.3095,569.0884 L749.2698,570.1685 L759.2302,569.1147 L769.1905,569.3201 L779.1508,569.6312 L789.1111,569.7347 L799.0714,569.1745 L809.0317,569.5626 L818.9921,568.4165 L828.9524,569.5589 L838.9127,569.9106 L848.873,569.7724 L858.8333,569.9971 L868.7937,568.5356 L878.754,568.3101 L888.7143,568.3512 L898.6746,569.1012 L908.6349,568.9176 L918.5952,570.0882 L928.5556,568.9468 L938.5159,568.7223 L948.4762,569.484 L958.4365,568.2906 L968.3968,568.4875 L978.3571,570.045 L988.3175,569.7606 L998.2778,570.159 L1008.2381,568.7506 L1018.1984,569.6053 L1028.1587,569.9669 L1038.119,568.5498 L1048.0794,569.0519 L1058.0397,569.3477 L1068,569.1797 " fill="none" style="stroke:#181818;stroke-width:1.0;stroke-dasharray:2.0,2.0;"/><text fill="#000000" font-family="FG Virgil" font-size="13" lengthAdjust="spacing" textLength="86" x="452.5" y="564.4248">jobOpeningList</text><polygon fill="#181818" points="219.5,593.7031,219.526,593.7682,217.4487,594.3749,215.5239,595.3629,213.5495,596.2268,211.4117,596.6823,209.5,597.7031,209.4904,597.6791,211.4472,598.3711,213.4525,599.1844,215.4916,600.082,217.4144,600.6892,219.5,601.7031,219.6305,601.8336,218.5514,600.7546,217.8534,600.0565,217.2018,599.4049,216.2798,598.4829,215.5,597.7031,215.5161,597.7192,216.2925,596.8956,217.1421,596.1452,217.9564,595.3595,218.838,594.6412,219.5,593.7031" style="stroke:#181818;stroke-width:1.0;"/><path d="M213.5,597.7031 L213.5,597.9834 L223.3182,597.1507 L233.1364,597.9608 L242.9545,598.236 L252.7727,596.7519 L262.5909,597.5995 L272.4091,597.1345 L282.2273,597.1918 L292.0455,597.6122 L301.8636,596.7813 L311.6818,598.4413 L321.5,596.8628 L331.3182,597.4394 L341.1364,598.2791 L350.9545,597.5888 L360.7727,597.7941 L370.5909,597.6605 L380.4091,597.9412 L390.2273,598.022 L400.0455,598.484 L409.8636,598.5979 L419.6818,598.6088 L429.5,597.7031 " fill="none" style="stroke:#181818;stroke-width:1.0;stroke-dasharray:2.0,2.0;"/><text fill="#000000" font-family="FG Virgil" font-size="13" lengthAdjust="spacing" textLength="86" x="225.5" y="592.9482">jobOpeningList</text><polygon fill="#181818" points="49.5,622.2266,49.526,622.2916,47.4487,622.8983,45.5239,623.8864,43.5495,624.7503,41.4117,625.2058,39.5,626.2266,39.4904,626.2025,41.4472,626.8946,43.4525,627.7079,45.4916,628.6055,47.4144,629.2126,49.5,630.2266,49.6305,630.3571,48.5514,629.278,47.8534,628.5799,47.2018,627.9284,46.2798,627.0063,45.5,626.2266,45.5161,626.2426,46.2925,625.419,47.1421,624.6686,47.9564,623.8829,48.838,623.1646,49.5,622.2266" style="stroke:#181818;stroke-width:1.0;"/><path d="M43.5,626.2266 L43.5,626.5068 L53.4375,625.6741 L63.375,626.4843 L73.3125,626.7595 L83.25,625.2754 L93.1875,626.1229 L103.125,625.6579 L113.0625,625.7152 L123,626.1357 L132.9375,625.3047 L142.875,626.9648 L152.8125,625.3862 L162.75,625.9629 L172.6875,626.8025 L182.625,626.1122 L192.5625,626.3175 L202.5,626.2266 " fill="none" style="stroke:#181818;stroke-width:1.0;stroke-dasharray:2.0,2.0;"/><text fill="#000000" font-family="FG Virgil" font-size="13" lengthAdjust="spacing" textLength="131" x="55.5" y="621.4717">display jobOpeningList</text><!--SRC=[hLLDRzim3BtxL-ZO7lO732D05on3Ys4RLcHtLMOIjOeaI4exzzUFyYTjot61JOV0elWU-IYAyIzIM-xucPsuBj-S304q2-u2cU-FpaORSNBc3DCJoyKBFy9Zg1Gm1oAGin8E_AB2pkZmdIDqzvNzbkue5V7n9rwQDwcFxC2LXopZ8XZ7jXSVC9fZtBExQCdGFKWXBTUXF_qcVNWmJpyiQ6Jm-_leZhz5OHruq847QVHcyn7m5hDqHgac9jaL1RTMIP7Ykhk4at7olJvx1FSg1TGfe_qTaRunJL0_mNaC3bf0Z0D_GiGGQnGmx2ReNs2DbrYIQbVNgehWxhCe3itN13G89LdEZJJZaWV-n3tq1Hi2rnMQMul2zHjACCGPKoJj4vBO3_AL1sZR86Euwa_sQHFlEcVn8WcNRtnwtFw-CSI5_eWYbvipuG2zRcwlEXs1jChdgjDEKNsy0JWSnaK8aPxUTivwoH8y9HqH4yZOWt8XTTSBEMjxOSeuyfzARJ5ZH0dhMOpr3Kay3pUpA6sN2jfHp59yJlJDOhv9wd6kytVGjqKgrEqrhkRbvyo3zpWJfegRuvcYrljZ1HLjz_slSehPI_wNOYRc0ZQLrENmRBwShJ8Lm0t7Qk2KZhCLoZsEdYL1svKK4q4NPIwAMmsosZHg_9T21aKNV4dWZ6tiDmzsvL74URWeSYKGrTZDroLcMhh4p8jZD3w8UbRdh9JUAbubsGXJdDPaMwF_0W00]--></g></svg>