<?xml version="1.0" encoding="us-ascii" standalone="no"?><svg xmlns="http://www.w3.org/2000/svg" xmlns:xlink="http://www.w3.org/1999/xlink" contentStyleType="text/css" height="796px" preserveAspectRatio="none" style="width:1386px;height:796px;background:#FFFFFF;" version="1.1" viewBox="0 0 1386 796" width="1386px" zoomAndPan="magnify"><defs/><g><text fill="#000000" font-family="sans-serif" font-size="14" font-weight="bold" lengthAdjust="spacing" textLength="265" x="553.5" y="25.1074">Select Interview Model Class Diagram</text><!--class SelectInterviewModelUI--><g id="elem_SelectInterviewModelUI"><rect codeLine="3" fill="#F1F1F1" height="103.8633" id="SelectInterviewModelUI" rx="2.5" ry="2.5" style="stroke:#181818;stroke-width:0.5;" width="297" x="506.5" y="46.6211"/><ellipse cx="578.75" cy="62.6211" fill="#ADD1B2" rx="11" ry="11" style="stroke:#181818;stroke-width:1.0;"/><path d="M581.5156,58.4961 Q581.6719,58.2773 581.8594,58.168 Q582.0469,58.0586 582.2656,58.0586 Q582.6406,58.0586 582.875,58.3242 Q583.1094,58.5742 583.1094,59.1836 L583.1094,60.6367 Q583.1094,61.2461 582.875,61.5117 Q582.6406,61.7773 582.2656,61.7773 Q581.9219,61.7773 581.7188,61.5742 Q581.5156,61.3867 581.4063,60.8711 Q581.3594,60.5117 581.1719,60.3242 Q580.8438,59.9492 580.2344,59.7305 Q579.625,59.5117 579,59.5117 Q578.2344,59.5117 577.5938,59.8398 Q576.9688,60.168 576.4688,60.918 Q575.9844,61.668 575.9844,62.6992 L575.9844,63.793 Q575.9844,65.0273 576.875,65.8555 Q577.7656,66.668 579.3594,66.668 Q580.2969,66.668 580.9531,66.418 Q581.3438,66.2617 581.7656,65.8242 Q582.0313,65.5586 582.1719,65.4805 Q582.3281,65.4023 582.5313,65.4023 Q582.8594,65.4023 583.1094,65.668 Q583.375,65.918 583.375,66.2617 Q583.375,66.6055 583.0313,67.0117 Q582.5313,67.5898 581.7344,67.918 Q580.6563,68.3711 579.3594,68.3711 Q577.8438,68.3711 576.6406,67.7461 Q575.6563,67.2461 574.9688,66.1836 Q574.2813,65.1055 574.2813,63.8242 L574.2813,62.668 Q574.2813,61.3398 574.8906,60.1992 Q575.5156,59.043 576.6094,58.4336 Q577.7031,57.8086 578.9375,57.8086 Q579.6719,57.8086 580.3125,57.9805 Q580.9688,58.1367 581.5156,58.4961 Z " fill="#000000"/><text fill="#000000" font-family="sans-serif" font-size="14" lengthAdjust="spacing" textLength="144" x="599.25" y="68.418">SelectInterviewModelUI</text><line style="stroke:#181818;stroke-width:0.5;" x1="507.5" x2="802.5" y1="78.6211" y2="78.6211"/><line style="stroke:#181818;stroke-width:0.5;" x1="507.5" x2="802.5" y1="86.6211" y2="86.6211"/><ellipse cx="517.5" cy="101.4316" fill="#84BE84" rx="3" ry="3" style="stroke:#038048;stroke-width:1.0;"/><text fill="#000000" font-family="sans-serif" font-size="14" lengthAdjust="spacing" textLength="123" x="526.5" y="105.7285">doShow() : boolean</text><ellipse cx="517.5" cy="120.0527" fill="#84BE84" rx="3" ry="3" style="stroke:#038048;stroke-width:1.0;"/><text fill="#000000" font-family="sans-serif" font-size="14" lengthAdjust="spacing" textLength="113" x="526.5" y="124.3496">headline() : String</text><ellipse cx="517.5" cy="138.6738" fill="#84BE84" rx="3" ry="3" style="stroke:#038048;stroke-width:1.0;"/><text fill="#000000" font-family="sans-serif" font-size="14" lengthAdjust="spacing" textLength="271" x="526.5" y="142.9707">showMenuAndGetSelection() : JobOpening</text></g><!--class SelectInterviewModelController--><g id="elem_SelectInterviewModelController"><rect codeLine="9" fill="#F1F1F1" height="85.2422" id="SelectInterviewModelController" rx="2.5" ry="2.5" style="stroke:#181818;stroke-width:0.5;" width="529" x="390.5" y="229.6211"/><ellipse cx="553.75" cy="245.6211" fill="#ADD1B2" rx="11" ry="11" style="stroke:#181818;stroke-width:1.0;"/><path d="M556.5156,241.4961 Q556.6719,241.2773 556.8594,241.168 Q557.0469,241.0586 557.2656,241.0586 Q557.6406,241.0586 557.875,241.3242 Q558.1094,241.5742 558.1094,242.1836 L558.1094,243.6367 Q558.1094,244.2461 557.875,244.5117 Q557.6406,244.7773 557.2656,244.7773 Q556.9219,244.7773 556.7188,244.5742 Q556.5156,244.3867 556.4063,243.8711 Q556.3594,243.5117 556.1719,243.3242 Q555.8438,242.9492 555.2344,242.7305 Q554.625,242.5117 554,242.5117 Q553.2344,242.5117 552.5938,242.8398 Q551.9688,243.168 551.4688,243.918 Q550.9844,244.668 550.9844,245.6992 L550.9844,246.793 Q550.9844,248.0273 551.875,248.8555 Q552.7656,249.668 554.3594,249.668 Q555.2969,249.668 555.9531,249.418 Q556.3438,249.2617 556.7656,248.8242 Q557.0313,248.5586 557.1719,248.4805 Q557.3281,248.4023 557.5313,248.4023 Q557.8594,248.4023 558.1094,248.668 Q558.375,248.918 558.375,249.2617 Q558.375,249.6055 558.0313,250.0117 Q557.5313,250.5898 556.7344,250.918 Q555.6563,251.3711 554.3594,251.3711 Q552.8438,251.3711 551.6406,250.7461 Q550.6563,250.2461 549.9688,249.1836 Q549.2813,248.1055 549.2813,246.8242 L549.2813,245.668 Q549.2813,244.3398 549.8906,243.1992 Q550.5156,242.043 551.6094,241.4336 Q552.7031,240.8086 553.9375,240.8086 Q554.6719,240.8086 555.3125,240.9805 Q555.9688,241.1367 556.5156,241.4961 Z " fill="#000000"/><text fill="#000000" font-family="sans-serif" font-size="14" lengthAdjust="spacing" textLength="194" x="574.25" y="251.418">SelectInterviewModelController</text><line style="stroke:#181818;stroke-width:0.5;" x1="391.5" x2="918.5" y1="261.6211" y2="261.6211"/><line style="stroke:#181818;stroke-width:0.5;" x1="391.5" x2="918.5" y1="269.6211" y2="269.6211"/><ellipse cx="401.5" cy="284.4316" fill="#84BE84" rx="3" ry="3" style="stroke:#038048;stroke-width:1.0;"/><text fill="#000000" font-family="sans-serif" font-size="14" lengthAdjust="spacing" textLength="272" x="410.5" y="288.7285">listAllJobOpenings(): Iterable&lt;JobOpening&gt;</text><ellipse cx="401.5" cy="303.0527" fill="#84BE84" rx="3" ry="3" style="stroke:#038048;stroke-width:1.0;"/><text fill="#000000" font-family="sans-serif" font-size="14" lengthAdjust="spacing" textLength="503" x="410.5" y="307.3496">selectInterviewModelToInterview(jobReference: String, pluginName: String): void</text></g><!--class PersistenceContext--><g id="elem_PersistenceContext"><rect codeLine="14" fill="#F1F1F1" height="66.6211" id="PersistenceContext" rx="2.5" ry="2.5" style="stroke:#181818;stroke-width:0.5;" width="154" x="195" y="393.6211"/><ellipse cx="210" cy="409.6211" fill="#ADD1B2" rx="11" ry="11" style="stroke:#181818;stroke-width:1.0;"/><path d="M212.7656,405.4961 Q212.9219,405.2773 213.1094,405.168 Q213.2969,405.0586 213.5156,405.0586 Q213.8906,405.0586 214.125,405.3242 Q214.3594,405.5742 214.3594,406.1836 L214.3594,407.6367 Q214.3594,408.2461 214.125,408.5117 Q213.8906,408.7773 213.5156,408.7773 Q213.1719,408.7773 212.9688,408.5742 Q212.7656,408.3867 212.6563,407.8711 Q212.6094,407.5117 212.4219,407.3242 Q212.0938,406.9492 211.4844,406.7305 Q210.875,406.5117 210.25,406.5117 Q209.4844,406.5117 208.8438,406.8398 Q208.2188,407.168 207.7188,407.918 Q207.2344,408.668 207.2344,409.6992 L207.2344,410.793 Q207.2344,412.0273 208.125,412.8555 Q209.0156,413.668 210.6094,413.668 Q211.5469,413.668 212.2031,413.418 Q212.5938,413.2617 213.0156,412.8242 Q213.2813,412.5586 213.4219,412.4805 Q213.5781,412.4023 213.7813,412.4023 Q214.1094,412.4023 214.3594,412.668 Q214.625,412.918 214.625,413.2617 Q214.625,413.6055 214.2813,414.0117 Q213.7813,414.5898 212.9844,414.918 Q211.9063,415.3711 210.6094,415.3711 Q209.0938,415.3711 207.8906,414.7461 Q206.9063,414.2461 206.2188,413.1836 Q205.5313,412.1055 205.5313,410.8242 L205.5313,409.668 Q205.5313,408.3398 206.1406,407.1992 Q206.7656,406.043 207.8594,405.4336 Q208.9531,404.8086 210.1875,404.8086 Q210.9219,404.8086 211.5625,404.9805 Q212.2188,405.1367 212.7656,405.4961 Z " fill="#000000"/><text fill="#000000" font-family="sans-serif" font-size="14" lengthAdjust="spacing" textLength="122" x="224" y="415.418">PersistenceContext</text><line style="stroke:#181818;stroke-width:0.5;" x1="196" x2="348" y1="425.6211" y2="425.6211"/><line style="stroke:#181818;stroke-width:0.5;" x1="196" x2="348" y1="433.6211" y2="433.6211"/><ellipse cx="206" cy="448.4316" fill="#84BE84" rx="3" ry="3" style="stroke:#038048;stroke-width:1.0;"/><text fill="#000000" font-family="sans-serif" font-size="14" lengthAdjust="spacing" textLength="84" x="215" y="452.7285">create(): void</text></g><!--class RepositoryFactory--><g id="elem_RepositoryFactory"><rect codeLine="18" fill="#F1F1F1" height="103.8633" id="RepositoryFactory" rx="2.5" ry="2.5" style="stroke:#181818;stroke-width:0.5;" width="305" x="119.5" y="539.6211"/><ellipse cx="209.75" cy="555.6211" fill="#ADD1B2" rx="11" ry="11" style="stroke:#181818;stroke-width:1.0;"/><path d="M212.5156,551.4961 Q212.6719,551.2773 212.8594,551.168 Q213.0469,551.0586 213.2656,551.0586 Q213.6406,551.0586 213.875,551.3242 Q214.1094,551.5742 214.1094,552.1836 L214.1094,553.6367 Q214.1094,554.2461 213.875,554.5117 Q213.6406,554.7773 213.2656,554.7773 Q212.9219,554.7773 212.7188,554.5742 Q212.5156,554.3867 212.4063,553.8711 Q212.3594,553.5117 212.1719,553.3242 Q211.8438,552.9492 211.2344,552.7305 Q210.625,552.5117 210,552.5117 Q209.2344,552.5117 208.5938,552.8398 Q207.9688,553.168 207.4688,553.918 Q206.9844,554.668 206.9844,555.6992 L206.9844,556.793 Q206.9844,558.0273 207.875,558.8555 Q208.7656,559.668 210.3594,559.668 Q211.2969,559.668 211.9531,559.418 Q212.3438,559.2617 212.7656,558.8242 Q213.0313,558.5586 213.1719,558.4805 Q213.3281,558.4023 213.5313,558.4023 Q213.8594,558.4023 214.1094,558.668 Q214.375,558.918 214.375,559.2617 Q214.375,559.6055 214.0313,560.0117 Q213.5313,560.5898 212.7344,560.918 Q211.6563,561.3711 210.3594,561.3711 Q208.8438,561.3711 207.6406,560.7461 Q206.6563,560.2461 205.9688,559.1836 Q205.2813,558.1055 205.2813,556.8242 L205.2813,555.668 Q205.2813,554.3398 205.8906,553.1992 Q206.5156,552.043 207.6094,551.4336 Q208.7031,550.8086 209.9375,550.8086 Q210.6719,550.8086 211.3125,550.9805 Q211.9688,551.1367 212.5156,551.4961 Z " fill="#000000"/><text fill="#000000" font-family="sans-serif" font-size="14" lengthAdjust="spacing" textLength="116" x="230.25" y="561.418">RepositoryFactory</text><line style="stroke:#181818;stroke-width:0.5;" x1="120.5" x2="423.5" y1="571.6211" y2="571.6211"/><line style="stroke:#181818;stroke-width:0.5;" x1="120.5" x2="423.5" y1="579.6211" y2="579.6211"/><ellipse cx="130.5" cy="594.4316" fill="#84BE84" rx="3" ry="3" style="stroke:#038048;stroke-width:1.0;"/><text fill="#000000" font-family="sans-serif" font-size="14" lengthAdjust="spacing" textLength="87" x="139.5" y="598.7285">factory(): void</text><ellipse cx="130.5" cy="613.0527" fill="#84BE84" rx="3" ry="3" style="stroke:#038048;stroke-width:1.0;"/><text fill="#000000" font-family="sans-serif" font-size="14" lengthAdjust="spacing" textLength="242" x="139.5" y="617.3496">jobOpenings(): JobOpeningRepository</text><ellipse cx="130.5" cy="631.6738" fill="#84BE84" rx="3" ry="3" style="stroke:#038048;stroke-width:1.0;"/><text fill="#000000" font-family="sans-serif" font-size="14" lengthAdjust="spacing" textLength="279" x="139.5" y="635.9707">interviewModels(): InterviewModelRepository</text></g><!--class JobReference--><g id="elem_JobReference"><rect codeLine="24" fill="#F1F1F1" height="66.6211" id="JobReference" rx="2.5" ry="2.5" style="stroke:#181818;stroke-width:0.5;" width="541" x="384.5" y="393.6211"/><ellipse cx="606.75" cy="409.6211" fill="#ADD1B2" rx="11" ry="11" style="stroke:#181818;stroke-width:1.0;"/><path d="M609.5156,405.4961 Q609.6719,405.2773 609.8594,405.168 Q610.0469,405.0586 610.2656,405.0586 Q610.6406,405.0586 610.875,405.3242 Q611.1094,405.5742 611.1094,406.1836 L611.1094,407.6367 Q611.1094,408.2461 610.875,408.5117 Q610.6406,408.7773 610.2656,408.7773 Q609.9219,408.7773 609.7188,408.5742 Q609.5156,408.3867 609.4063,407.8711 Q609.3594,407.5117 609.1719,407.3242 Q608.8438,406.9492 608.2344,406.7305 Q607.625,406.5117 607,406.5117 Q606.2344,406.5117 605.5938,406.8398 Q604.9688,407.168 604.4688,407.918 Q603.9844,408.668 603.9844,409.6992 L603.9844,410.793 Q603.9844,412.0273 604.875,412.8555 Q605.7656,413.668 607.3594,413.668 Q608.2969,413.668 608.9531,413.418 Q609.3438,413.2617 609.7656,412.8242 Q610.0313,412.5586 610.1719,412.4805 Q610.3281,412.4023 610.5313,412.4023 Q610.8594,412.4023 611.1094,412.668 Q611.375,412.918 611.375,413.2617 Q611.375,413.6055 611.0313,414.0117 Q610.5313,414.5898 609.7344,414.918 Q608.6563,415.3711 607.3594,415.3711 Q605.8438,415.3711 604.6406,414.7461 Q603.6563,414.2461 602.9688,413.1836 Q602.2813,412.1055 602.2813,410.8242 L602.2813,409.668 Q602.2813,408.3398 602.8906,407.1992 Q603.5156,406.043 604.6094,405.4336 Q605.7031,404.8086 606.9375,404.8086 Q607.6719,404.8086 608.3125,404.9805 Q608.9688,405.1367 609.5156,405.4961 Z " fill="#000000"/><text fill="#000000" font-family="sans-serif" font-size="14" lengthAdjust="spacing" textLength="88" x="627.25" y="415.418">JobReference</text><line style="stroke:#181818;stroke-width:0.5;" x1="385.5" x2="924.5" y1="425.6211" y2="425.6211"/><line style="stroke:#181818;stroke-width:0.5;" x1="385.5" x2="924.5" y1="433.6211" y2="433.6211"/><ellipse cx="395.5" cy="448.4316" fill="#84BE84" rx="3" ry="3" style="stroke:#038048;stroke-width:1.0;"/><text fill="#000000" font-family="sans-serif" font-size="14" lengthAdjust="spacing" textLength="515" x="404.5" y="452.7285">create(jobReference : String, code : CustomerCode, serialNumber : Integer ): void</text></g><!--class InterviewModel--><g id="elem_InterviewModel"><rect codeLine="28" fill="#F1F1F1" height="66.6211" id="InterviewModel" rx="2.5" ry="2.5" style="stroke:#181818;stroke-width:0.5;" width="418" x="961" y="393.6211"/><ellipse cx="1119.25" cy="409.6211" fill="#ADD1B2" rx="11" ry="11" style="stroke:#181818;stroke-width:1.0;"/><path d="M1122.0156,405.4961 Q1122.1719,405.2773 1122.3594,405.168 Q1122.5469,405.0586 1122.7656,405.0586 Q1123.1406,405.0586 1123.375,405.3242 Q1123.6094,405.5742 1123.6094,406.1836 L1123.6094,407.6367 Q1123.6094,408.2461 1123.375,408.5117 Q1123.1406,408.7773 1122.7656,408.7773 Q1122.4219,408.7773 1122.2188,408.5742 Q1122.0156,408.3867 1121.9063,407.8711 Q1121.8594,407.5117 1121.6719,407.3242 Q1121.3438,406.9492 1120.7344,406.7305 Q1120.125,406.5117 1119.5,406.5117 Q1118.7344,406.5117 1118.0938,406.8398 Q1117.4688,407.168 1116.9688,407.918 Q1116.4844,408.668 1116.4844,409.6992 L1116.4844,410.793 Q1116.4844,412.0273 1117.375,412.8555 Q1118.2656,413.668 1119.8594,413.668 Q1120.7969,413.668 1121.4531,413.418 Q1121.8438,413.2617 1122.2656,412.8242 Q1122.5313,412.5586 1122.6719,412.4805 Q1122.8281,412.4023 1123.0313,412.4023 Q1123.3594,412.4023 1123.6094,412.668 Q1123.875,412.918 1123.875,413.2617 Q1123.875,413.6055 1123.5313,414.0117 Q1123.0313,414.5898 1122.2344,414.918 Q1121.1563,415.3711 1119.8594,415.3711 Q1118.3438,415.3711 1117.1406,414.7461 Q1116.1563,414.2461 1115.4688,413.1836 Q1114.7813,412.1055 1114.7813,410.8242 L1114.7813,409.668 Q1114.7813,408.3398 1115.3906,407.1992 Q1116.0156,406.043 1117.1094,405.4336 Q1118.2031,404.8086 1119.4375,404.8086 Q1120.1719,404.8086 1120.8125,404.9805 Q1121.4688,405.1367 1122.0156,405.4961 Z " fill="#000000"/><text fill="#000000" font-family="sans-serif" font-size="14" lengthAdjust="spacing" textLength="93" x="1139.75" y="415.418">InterviewModel</text><line style="stroke:#181818;stroke-width:0.5;" x1="962" x2="1378" y1="425.6211" y2="425.6211"/><line style="stroke:#181818;stroke-width:0.5;" x1="962" x2="1378" y1="433.6211" y2="433.6211"/><ellipse cx="972" cy="448.4316" fill="#84BE84" rx="3" ry="3" style="stroke:#038048;stroke-width:1.0;"/><text fill="#000000" font-family="sans-serif" font-size="14" lengthAdjust="spacing" textLength="392" x="981" y="452.7285">create(jobReference: JobReference, pluginName: String): void</text></g><!--class JobOpeningRepository--><g id="elem_JobOpeningRepository"><rect codeLine="32" fill="#F1F1F1" height="66.6211" id="JobOpeningRepository" rx="2.5" ry="2.5" style="stroke:#181818;stroke-width:0.5;" width="260" x="7" y="722.6211"/><ellipse cx="60.75" cy="738.6211" fill="#ADD1B2" rx="11" ry="11" style="stroke:#181818;stroke-width:1.0;"/><path d="M63.5156,734.4961 Q63.6719,734.2773 63.8594,734.168 Q64.0469,734.0586 64.2656,734.0586 Q64.6406,734.0586 64.875,734.3242 Q65.1094,734.5742 65.1094,735.1836 L65.1094,736.6367 Q65.1094,737.2461 64.875,737.5117 Q64.6406,737.7773 64.2656,737.7773 Q63.9219,737.7773 63.7188,737.5742 Q63.5156,737.3867 63.4063,736.8711 Q63.3594,736.5117 63.1719,736.3242 Q62.8438,735.9492 62.2344,735.7305 Q61.625,735.5117 61,735.5117 Q60.2344,735.5117 59.5938,735.8398 Q58.9688,736.168 58.4688,736.918 Q57.9844,737.668 57.9844,738.6992 L57.9844,739.793 Q57.9844,741.0273 58.875,741.8555 Q59.7656,742.668 61.3594,742.668 Q62.2969,742.668 62.9531,742.418 Q63.3438,742.2617 63.7656,741.8242 Q64.0313,741.5586 64.1719,741.4805 Q64.3281,741.4023 64.5313,741.4023 Q64.8594,741.4023 65.1094,741.668 Q65.375,741.918 65.375,742.2617 Q65.375,742.6055 65.0313,743.0117 Q64.5313,743.5898 63.7344,743.918 Q62.6563,744.3711 61.3594,744.3711 Q59.8438,744.3711 58.6406,743.7461 Q57.6563,743.2461 56.9688,742.1836 Q56.2813,741.1055 56.2813,739.8242 L56.2813,738.668 Q56.2813,737.3398 56.8906,736.1992 Q57.5156,735.043 58.6094,734.4336 Q59.7031,733.8086 60.9375,733.8086 Q61.6719,733.8086 62.3125,733.9805 Q62.9688,734.1367 63.5156,734.4961 Z " fill="#000000"/><text fill="#000000" font-family="sans-serif" font-size="14" lengthAdjust="spacing" textLength="144" x="81.25" y="744.418">JobOpeningRepository</text><line style="stroke:#181818;stroke-width:0.5;" x1="8" x2="266" y1="754.6211" y2="754.6211"/><line style="stroke:#181818;stroke-width:0.5;" x1="8" x2="266" y1="762.6211" y2="762.6211"/><ellipse cx="18" cy="777.4316" fill="#84BE84" rx="3" ry="3" style="stroke:#038048;stroke-width:1.0;"/><text fill="#000000" font-family="sans-serif" font-size="14" lengthAdjust="spacing" textLength="234" x="27" y="781.7285">findAllOpen() : Iterable&lt;JobOpening&gt;</text></g><!--class InterviewModelRepository--><g id="elem_InterviewModelRepository"><rect codeLine="36" fill="#F1F1F1" height="66.6211" id="InterviewModelRepository" rx="2.5" ry="2.5" style="stroke:#181818;stroke-width:0.5;" width="209" x="302.5" y="722.6211"/><ellipse cx="324.7" cy="738.6211" fill="#ADD1B2" rx="11" ry="11" style="stroke:#181818;stroke-width:1.0;"/><path d="M327.4656,734.4961 Q327.6219,734.2773 327.8094,734.168 Q327.9969,734.0586 328.2156,734.0586 Q328.5906,734.0586 328.825,734.3242 Q329.0594,734.5742 329.0594,735.1836 L329.0594,736.6367 Q329.0594,737.2461 328.825,737.5117 Q328.5906,737.7773 328.2156,737.7773 Q327.8719,737.7773 327.6688,737.5742 Q327.4656,737.3867 327.3563,736.8711 Q327.3094,736.5117 327.1219,736.3242 Q326.7938,735.9492 326.1844,735.7305 Q325.575,735.5117 324.95,735.5117 Q324.1844,735.5117 323.5438,735.8398 Q322.9188,736.168 322.4188,736.918 Q321.9344,737.668 321.9344,738.6992 L321.9344,739.793 Q321.9344,741.0273 322.825,741.8555 Q323.7156,742.668 325.3094,742.668 Q326.2469,742.668 326.9031,742.418 Q327.2938,742.2617 327.7156,741.8242 Q327.9813,741.5586 328.1219,741.4805 Q328.2781,741.4023 328.4813,741.4023 Q328.8094,741.4023 329.0594,741.668 Q329.325,741.918 329.325,742.2617 Q329.325,742.6055 328.9813,743.0117 Q328.4813,743.5898 327.6844,743.918 Q326.6063,744.3711 325.3094,744.3711 Q323.7938,744.3711 322.5906,743.7461 Q321.6063,743.2461 320.9188,742.1836 Q320.2313,741.1055 320.2313,739.8242 L320.2313,738.668 Q320.2313,737.3398 320.8406,736.1992 Q321.4656,735.043 322.5594,734.4336 Q323.6531,733.8086 324.8875,733.8086 Q325.6219,733.8086 326.2625,733.9805 Q326.9188,734.1367 327.4656,734.4961 Z " fill="#000000"/><text fill="#000000" font-family="sans-serif" font-size="14" lengthAdjust="spacing" textLength="161" x="340.3" y="744.418">InterviewModelRepository</text><line style="stroke:#181818;stroke-width:0.5;" x1="303.5" x2="510.5" y1="754.6211" y2="754.6211"/><line style="stroke:#181818;stroke-width:0.5;" x1="303.5" x2="510.5" y1="762.6211" y2="762.6211"/><ellipse cx="313.5" cy="777.4316" fill="#84BE84" rx="3" ry="3" style="stroke:#038048;stroke-width:1.0;"/><text fill="#000000" font-family="sans-serif" font-size="14" lengthAdjust="spacing" textLength="183" x="322.5" y="781.7285">save(model : InterviewModel)</text></g><!--link SelectInterviewModelUI to SelectInterviewModelController--><g id="link_SelectInterviewModelUI_SelectInterviewModelController"><path codeLine="40" d="M655,151.0811 C655,174.3711 655,201.7211 655,224.4211 " fill="none" id="SelectInterviewModelUI-to-SelectInterviewModelController" style="stroke:#181818;stroke-width:1.0;"/><polygon fill="#181818" points="655,229.4811,659,220.4811,655,224.4811,651,220.4811,655,229.4811" style="stroke:#181818;stroke-width:1.0;"/><text fill="#000000" font-family="sans-serif" font-size="13" lengthAdjust="spacing" textLength="73" x="656" y="195.6494">theController</text></g><!--link SelectInterviewModelController to PersistenceContext--><g id="link_SelectInterviewModelController_PersistenceContext"><path codeLine="41" d="M551.1,314.6211 C489.16,339.3711 411.62,370.3511 354,393.3611 " fill="none" id="SelectInterviewModelController-to-PersistenceContext" style="stroke:#181818;stroke-width:1.0;"/><polygon fill="#181818" points="349.19,395.2811,359.0319,395.6525,353.8324,393.4241,356.0607,388.2247,349.19,395.2811" style="stroke:#181818;stroke-width:1.0;"/><text fill="#000000" font-family="sans-serif" font-size="13" lengthAdjust="spacing" textLength="67" x="476" y="359.6494">persistence</text></g><!--link PersistenceContext to RepositoryFactory--><g id="link_PersistenceContext_RepositoryFactory"><path codeLine="42" d="M272,461.0011 C272,482.0411 272,509.8911 272,534.3711 " fill="none" id="PersistenceContext-to-RepositoryFactory" style="stroke:#181818;stroke-width:1.0;"/><polygon fill="#181818" points="272,539.5411,276,530.5411,272,534.5411,268,530.5411,272,539.5411" style="stroke:#181818;stroke-width:1.0;"/><text fill="#000000" font-family="sans-serif" font-size="13" lengthAdjust="spacing" textLength="39" x="273" y="505.6494">factory</text></g><!--link RepositoryFactory to JobOpeningRepository--><g id="link_RepositoryFactory_JobOpeningRepository"><path codeLine="43" d="M229.29,644.0411 C209.21,668.2011 185.75,696.4411 167.5,718.4111 " fill="none" id="RepositoryFactory-to-JobOpeningRepository" style="stroke:#181818;stroke-width:1.0;"/><polygon fill="#181818" points="164.16,722.4311,172.9833,718.0552,167.3511,718.5818,166.8245,712.9495,164.16,722.4311" style="stroke:#181818;stroke-width:1.0;"/><text fill="#000000" font-family="sans-serif" font-size="13" lengthAdjust="spacing" textLength="127" x="206" y="688.6494">jobOpeningRepository</text></g><!--link RepositoryFactory to InterviewModelRepository--><g id="link_RepositoryFactory_InterviewModelRepository"><path codeLine="44" d="M316.74,643.7811 C325.2,653.6211 333.93,663.9011 342,673.6211 C354.05,688.1311 367.06,704.3311 378.25,718.4411 " fill="none" id="RepositoryFactory-to-InterviewModelRepository" style="stroke:#181818;stroke-width:1.0;"/><polygon fill="#181818" points="381.35,722.3611,378.8981,712.8223,378.2458,718.4414,372.6266,717.7891,381.35,722.3611" style="stroke:#181818;stroke-width:1.0;"/><text fill="#000000" font-family="sans-serif" font-size="13" lengthAdjust="spacing" textLength="146" x="358" y="688.6494">interviewModelRepository</text></g><!--link SelectInterviewModelController to JobReference--><g id="link_SelectInterviewModelController_JobReference"><path codeLine="45" d="M655,314.9311 C655,337.8611 655,366.0811 655,388.3411 " fill="none" id="SelectInterviewModelController-to-JobReference" style="stroke:#181818;stroke-width:1.0;"/><polygon fill="#181818" points="655,393.5811,659,384.5811,655,388.5811,651,384.5811,655,393.5811" style="stroke:#181818;stroke-width:1.0;"/><text fill="#000000" font-family="sans-serif" font-size="13" lengthAdjust="spacing" textLength="36" x="656" y="359.6494">create</text></g><!--link SelectInterviewModelController to InterviewModel--><g id="link_SelectInterviewModelController_InterviewModel"><path codeLine="46" d="M794.71,314.6211 C876.46,338.9111 978.42,369.2011 1055.42,392.0811 " fill="none" id="SelectInterviewModelController-to-InterviewModel" style="stroke:#181818;stroke-width:1.0;"/><polygon fill="#181818" points="1060.45,393.5711,1052.9649,387.17,1055.6577,392.1448,1050.6829,394.8376,1060.45,393.5711" style="stroke:#181818;stroke-width:1.0;"/><text fill="#000000" font-family="sans-serif" font-size="13" lengthAdjust="spacing" textLength="36" x="960" y="359.6494">create</text></g><!--SRC=[ZLFjRe8m5FtFKzoV6DqBaCN4i6pHHBVezW05hbXJMj8MtRBitTSM0P7wmH-u7-VqtDk3ffeXR91Xgc7EDSe3nICiHOOCOaQKWXTASacA84XTMFUshQxpQmw_0PXd39dOxCGn7444YH0C2JyLTaWoHZcwqaPBolDJHHd04daruzaRwfgV2kuQ5o9vBv7RvhzR2cB1jHICeMoKCAhqZB6EG8MZ2EO6H1A6prr-MlSh3-kdQEDmBv8rRb4YJx4PO08bgtBALwHeS-QGWw1P9_S3fJ9QBCwgn6_TI4mb4etX0B76KYYgXVnv9QbzDO1j7RO8bzpt9-m6wsZgHjgRhLv7BtK6QBKipiQ-q7s-4UXMaXeg4yQLqg906Pjm0Web9MnL5OcveVhSt7mDHkyBkd5Wr5Fsq4NuDcDF6CEMyinunLQTwxmkkQAnp-NyJ0uO5ax_vOP7bkNA7_JqDBrdxGZq3hiukDDk6JtkYw3iae6dmUA67epWPBzWMBC8xteZsFlyw6UukjW8w3MZFh22HT-djPaU0LwOiO7-0m00]--></g></svg>