<?xml version="1.0" encoding="us-ascii" standalone="no"?><svg xmlns="http://www.w3.org/2000/svg" xmlns:xlink="http://www.w3.org/1999/xlink" contentStyleType="text/css" height="417.6px" preserveAspectRatio="none" style="width:462px;height:417px;background:#FFFFFF;" version="1.1" viewBox="0 0 462 417" width="462.6px" zoomAndPan="magnify"><defs/><g><!--cluster UserAggregate--><g id="cluster_UserAggregate"><rect fill="none" height="243" rx="2.25" ry="2.25" style="stroke:#000000;stroke-width:1.35;" width="450.9" x="6.3" y="169.2"/><text fill="#000000" font-family="sans-serif" font-size="12.6" font-weight="bold" lengthAdjust="spacing" textLength="95.4" x="184.05" y="184.5967">UserAggregate</text></g><!--cluster CandidateAggregate--><g id="cluster_CandidateAggregate"><rect fill="none" height="117" rx="2.25" ry="2.25" style="stroke:#000000;stroke-width:1.35;" width="144" x="139.5" y="6.3"/><text fill="#000000" font-family="sans-serif" font-size="12.6" font-weight="bold" lengthAdjust="spacing" textLength="129.6" x="146.7" y="21.6967">CandidateAggregate</text></g><!--class User--><g id="elem_User"><rect codeLine="6" fill="#F1F1F1" height="68.8887" id="User" rx="2.25" ry="2.25" style="stroke:#181818;stroke-width:0.45;" width="63.9" x="179.55" y="202.5"/><ellipse cx="193.05" cy="229.7443" fill="#ADD1B2" rx="9.9" ry="9.9" style="stroke:#181818;stroke-width:0.9;"/><path d="M192.0234,230.4615 L192.0234,232.7115 L195.9188,232.7115 L195.9188,231.8818 Q195.9188,231.3334 196.1297,231.0943 Q196.3547,230.8553 196.6922,230.8553 Q197.0297,230.8553 197.2406,231.0943 Q197.4516,231.3334 197.4516,231.8818 L197.4516,234.2443 L190.2516,234.2443 Q189.6891,234.2443 189.45,234.0334 Q189.225,233.8225 189.225,233.4709 Q189.225,233.1334 189.4641,232.9225 Q189.7031,232.7115 190.2516,232.7115 L190.4906,232.7115 L190.4906,226.7209 L190.2516,226.7209 Q189.6891,226.7209 189.45,226.51 Q189.225,226.299 189.225,225.9475 Q189.225,225.61 189.45,225.399 Q189.6891,225.1881 190.2516,225.1881 L197.1141,225.1881 L197.1141,227.5225 Q197.1141,228.0709 196.9031,228.31 Q196.7063,228.535 196.3547,228.535 Q196.0172,228.535 195.8063,228.31 Q195.5953,228.0709 195.5953,227.5225 L195.5953,226.7209 L192.0234,226.7209 L192.0234,228.9287 L193.3594,228.9287 Q193.3594,228.3381 193.4719,228.1693 Q193.7109,227.8037 194.1328,227.8037 Q194.4703,227.8037 194.6813,228.0428 Q194.8922,228.2678 194.8922,228.8162 L194.8922,230.5881 Q194.8922,231.0803 194.7797,231.249 Q194.5406,231.6006 194.1328,231.6006 Q193.7109,231.6006 193.4719,231.235 Q193.3594,231.0662 193.3594,230.4615 L192.0234,230.4615 Z " fill="#000000"/><text fill="#000000" font-family="sans-serif" font-size="10.8" font-style="italic" lengthAdjust="spacing" textLength="31.5" x="207.45" y="218.6543">&#171;root&#187;</text><text fill="#000000" font-family="sans-serif" font-size="10.8" font-style="italic" lengthAdjust="spacing" textLength="38.7" x="203.85" y="233.0191">&#171;entity&#187;</text><text fill="#000000" font-family="sans-serif" font-size="12.6" lengthAdjust="spacing" textLength="26.1" x="210.15" y="249.3264">User</text><line style="stroke:#181818;stroke-width:0.45;" x1="180.45" x2="242.55" y1="256.9887" y2="256.9887"/><line style="stroke:#181818;stroke-width:0.45;" x1="180.45" x2="242.55" y1="264.1887" y2="264.1887"/></g><!--class Name--><g id="elem_Name"><rect codeLine="9" fill="#F1F1F1" height="54.5238" id="Name" rx="2.25" ry="2.25" style="stroke:#181818;stroke-width:0.45;" width="66.6" x="20.7" y="342.9"/><ellipse cx="34.2" cy="362.9619" fill="#ADD1B2" rx="9.9" ry="9.9" style="stroke:#181818;stroke-width:0.9;"/><path d="M36.6891,359.2494 Q36.8297,359.0525 36.9984,358.9541 Q37.1672,358.8557 37.3641,358.8557 Q37.7016,358.8557 37.9125,359.0947 Q38.1234,359.3197 38.1234,359.8682 L38.1234,361.176 Q38.1234,361.7244 37.9125,361.9635 Q37.7016,362.2025 37.3641,362.2025 Q37.0547,362.2025 36.8719,362.0197 Q36.6891,361.851 36.5906,361.3869 Q36.5484,361.0635 36.3797,360.8947 Q36.0844,360.5572 35.5359,360.3604 Q34.9875,360.1635 34.425,360.1635 Q33.7359,360.1635 33.1594,360.4588 Q32.5969,360.7541 32.1469,361.4291 Q31.7109,362.1041 31.7109,363.0322 L31.7109,364.0166 Q31.7109,365.1275 32.5125,365.8729 Q33.3141,366.6041 34.7484,366.6041 Q35.5922,366.6041 36.1828,366.3791 Q36.5344,366.2385 36.9141,365.8447 Q37.1531,365.6057 37.2797,365.5354 Q37.4203,365.465 37.6031,365.465 Q37.8984,365.465 38.1234,365.7041 Q38.3625,365.9291 38.3625,366.2385 Q38.3625,366.5479 38.0531,366.9135 Q37.6031,367.4338 36.8859,367.7291 Q35.9156,368.1369 34.7484,368.1369 Q33.3844,368.1369 32.3016,367.5744 Q31.4156,367.1244 30.7969,366.1682 Q30.1781,365.1979 30.1781,364.0447 L30.1781,363.0041 Q30.1781,361.8088 30.7266,360.7822 Q31.2891,359.7416 32.2734,359.1932 Q33.2578,358.6307 34.3688,358.6307 Q35.0297,358.6307 35.6063,358.7854 Q36.1969,358.926 36.6891,359.2494 Z " fill="#000000"/><text fill="#000000" font-family="sans-serif" font-size="10.8" font-style="italic" lengthAdjust="spacing" textLength="41.4" x="45" y="359.0543">&#171;Value&#187;</text><text fill="#000000" font-family="sans-serif" font-size="12.6" lengthAdjust="spacing" textLength="32.4" x="49.5" y="375.3615">Name</text><line style="stroke:#181818;stroke-width:0.45;" x1="21.6" x2="86.4" y1="383.0238" y2="383.0238"/><line style="stroke:#181818;stroke-width:0.45;" x1="21.6" x2="86.4" y1="390.2238" y2="390.2238"/></g><!--class Email--><g id="elem_Email"><rect codeLine="12" fill="#F1F1F1" height="54.5238" id="Email" rx="2.25" ry="2.25" style="stroke:#181818;stroke-width:0.45;" width="66.6" x="118.8" y="342.9"/><ellipse cx="132.3" cy="362.9619" fill="#ADD1B2" rx="9.9" ry="9.9" style="stroke:#181818;stroke-width:0.9;"/><path d="M134.7891,359.2494 Q134.9297,359.0525 135.0984,358.9541 Q135.2672,358.8557 135.4641,358.8557 Q135.8016,358.8557 136.0125,359.0947 Q136.2234,359.3197 136.2234,359.8682 L136.2234,361.176 Q136.2234,361.7244 136.0125,361.9635 Q135.8016,362.2025 135.4641,362.2025 Q135.1547,362.2025 134.9719,362.0197 Q134.7891,361.851 134.6906,361.3869 Q134.6484,361.0635 134.4797,360.8947 Q134.1844,360.5572 133.6359,360.3604 Q133.0875,360.1635 132.525,360.1635 Q131.8359,360.1635 131.2594,360.4588 Q130.6969,360.7541 130.2469,361.4291 Q129.8109,362.1041 129.8109,363.0322 L129.8109,364.0166 Q129.8109,365.1275 130.6125,365.8729 Q131.4141,366.6041 132.8484,366.6041 Q133.6922,366.6041 134.2828,366.3791 Q134.6344,366.2385 135.0141,365.8447 Q135.2531,365.6057 135.3797,365.5354 Q135.5203,365.465 135.7031,365.465 Q135.9984,365.465 136.2234,365.7041 Q136.4625,365.9291 136.4625,366.2385 Q136.4625,366.5479 136.1531,366.9135 Q135.7031,367.4338 134.9859,367.7291 Q134.0156,368.1369 132.8484,368.1369 Q131.4844,368.1369 130.4016,367.5744 Q129.5156,367.1244 128.8969,366.1682 Q128.2781,365.1979 128.2781,364.0447 L128.2781,363.0041 Q128.2781,361.8088 128.8266,360.7822 Q129.3891,359.7416 130.3734,359.1932 Q131.3578,358.6307 132.4688,358.6307 Q133.1297,358.6307 133.7063,358.7854 Q134.2969,358.926 134.7891,359.2494 Z " fill="#000000"/><text fill="#000000" font-family="sans-serif" font-size="10.8" font-style="italic" lengthAdjust="spacing" textLength="41.4" x="143.1" y="359.0543">&#171;Value&#187;</text><text fill="#000000" font-family="sans-serif" font-size="12.6" lengthAdjust="spacing" textLength="30.6" x="148.5" y="375.3615">Email</text><line style="stroke:#181818;stroke-width:0.45;" x1="119.7" x2="184.5" y1="383.0238" y2="383.0238"/><line style="stroke:#181818;stroke-width:0.45;" x1="119.7" x2="184.5" y1="390.2238" y2="390.2238"/></g><!--class PhoneNumber--><g id="elem_PhoneNumber"><rect codeLine="15" fill="#F1F1F1" height="54.5238" id="PhoneNumber" rx="2.25" ry="2.25" style="stroke:#181818;stroke-width:0.45;" width="109.8" x="216.9" y="342.9"/><ellipse cx="230.4" cy="362.9619" fill="#ADD1B2" rx="9.9" ry="9.9" style="stroke:#181818;stroke-width:0.9;"/><path d="M232.8891,359.2494 Q233.0297,359.0525 233.1984,358.9541 Q233.3672,358.8557 233.5641,358.8557 Q233.9016,358.8557 234.1125,359.0947 Q234.3234,359.3197 234.3234,359.8682 L234.3234,361.176 Q234.3234,361.7244 234.1125,361.9635 Q233.9016,362.2025 233.5641,362.2025 Q233.2547,362.2025 233.0719,362.0197 Q232.8891,361.851 232.7906,361.3869 Q232.7484,361.0635 232.5797,360.8947 Q232.2844,360.5572 231.7359,360.3604 Q231.1875,360.1635 230.625,360.1635 Q229.9359,360.1635 229.3594,360.4588 Q228.7969,360.7541 228.3469,361.4291 Q227.9109,362.1041 227.9109,363.0322 L227.9109,364.0166 Q227.9109,365.1275 228.7125,365.8729 Q229.5141,366.6041 230.9484,366.6041 Q231.7922,366.6041 232.3828,366.3791 Q232.7344,366.2385 233.1141,365.8447 Q233.3531,365.6057 233.4797,365.5354 Q233.6203,365.465 233.8031,365.465 Q234.0984,365.465 234.3234,365.7041 Q234.5625,365.9291 234.5625,366.2385 Q234.5625,366.5479 234.2531,366.9135 Q233.8031,367.4338 233.0859,367.7291 Q232.1156,368.1369 230.9484,368.1369 Q229.5844,368.1369 228.5016,367.5744 Q227.6156,367.1244 226.9969,366.1682 Q226.3781,365.1979 226.3781,364.0447 L226.3781,363.0041 Q226.3781,361.8088 226.9266,360.7822 Q227.4891,359.7416 228.4734,359.1932 Q229.4578,358.6307 230.5688,358.6307 Q231.2297,358.6307 231.8063,358.7854 Q232.3969,358.926 232.8891,359.2494 Z " fill="#000000"/><text fill="#000000" font-family="sans-serif" font-size="10.8" font-style="italic" lengthAdjust="spacing" textLength="41.4" x="262.8" y="359.0543">&#171;Value&#187;</text><text fill="#000000" font-family="sans-serif" font-size="12.6" lengthAdjust="spacing" textLength="81" x="243" y="375.3615">PhoneNumber</text><line style="stroke:#181818;stroke-width:0.45;" x1="217.8" x2="325.8" y1="383.0238" y2="383.0238"/><line style="stroke:#181818;stroke-width:0.45;" x1="217.8" x2="325.8" y1="390.2238" y2="390.2238"/></g><!--class Password--><g id="elem_Password"><rect codeLine="18" fill="#F1F1F1" height="54.5238" id="Password" rx="2.25" ry="2.25" style="stroke:#181818;stroke-width:0.45;" width="83.7" x="358.65" y="342.9"/><ellipse cx="372.15" cy="362.9619" fill="#ADD1B2" rx="9.9" ry="9.9" style="stroke:#181818;stroke-width:0.9;"/><path d="M374.6391,359.2494 Q374.7797,359.0525 374.9484,358.9541 Q375.1172,358.8557 375.3141,358.8557 Q375.6516,358.8557 375.8625,359.0947 Q376.0734,359.3197 376.0734,359.8682 L376.0734,361.176 Q376.0734,361.7244 375.8625,361.9635 Q375.6516,362.2025 375.3141,362.2025 Q375.0047,362.2025 374.8219,362.0197 Q374.6391,361.851 374.5406,361.3869 Q374.4984,361.0635 374.3297,360.8947 Q374.0344,360.5572 373.4859,360.3604 Q372.9375,360.1635 372.375,360.1635 Q371.6859,360.1635 371.1094,360.4588 Q370.5469,360.7541 370.0969,361.4291 Q369.6609,362.1041 369.6609,363.0322 L369.6609,364.0166 Q369.6609,365.1275 370.4625,365.8729 Q371.2641,366.6041 372.6984,366.6041 Q373.5422,366.6041 374.1328,366.3791 Q374.4844,366.2385 374.8641,365.8447 Q375.1031,365.6057 375.2297,365.5354 Q375.3703,365.465 375.5531,365.465 Q375.8484,365.465 376.0734,365.7041 Q376.3125,365.9291 376.3125,366.2385 Q376.3125,366.5479 376.0031,366.9135 Q375.5531,367.4338 374.8359,367.7291 Q373.8656,368.1369 372.6984,368.1369 Q371.3344,368.1369 370.2516,367.5744 Q369.3656,367.1244 368.7469,366.1682 Q368.1281,365.1979 368.1281,364.0447 L368.1281,363.0041 Q368.1281,361.8088 368.6766,360.7822 Q369.2391,359.7416 370.2234,359.1932 Q371.2078,358.6307 372.3188,358.6307 Q372.9797,358.6307 373.5563,358.7854 Q374.1469,358.926 374.6391,359.2494 Z " fill="#000000"/><text fill="#000000" font-family="sans-serif" font-size="10.8" font-style="italic" lengthAdjust="spacing" textLength="41.4" x="391.5" y="359.0543">&#171;Value&#187;</text><text fill="#000000" font-family="sans-serif" font-size="12.6" lengthAdjust="spacing" textLength="54.9" x="384.75" y="375.3615">Password</text><line style="stroke:#181818;stroke-width:0.45;" x1="359.55" x2="441.45" y1="383.0238" y2="383.0238"/><line style="stroke:#181818;stroke-width:0.45;" x1="359.55" x2="441.45" y1="390.2238" y2="390.2238"/></g><!--class Candidate--><g id="elem_Candidate"><rect codeLine="24" fill="#F1F1F1" height="68.8887" id="Candidate" rx="2.25" ry="2.25" style="stroke:#181818;stroke-width:0.45;" width="87.3" x="167.85" y="39.6"/><ellipse cx="181.35" cy="66.8443" fill="#ADD1B2" rx="9.9" ry="9.9" style="stroke:#181818;stroke-width:0.9;"/><path d="M180.3234,67.5615 L180.3234,69.8115 L184.2188,69.8115 L184.2188,68.9818 Q184.2188,68.4334 184.4297,68.1943 Q184.6547,67.9553 184.9922,67.9553 Q185.3297,67.9553 185.5406,68.1943 Q185.7516,68.4334 185.7516,68.9818 L185.7516,71.3443 L178.5516,71.3443 Q177.9891,71.3443 177.75,71.1334 Q177.525,70.9225 177.525,70.5709 Q177.525,70.2334 177.7641,70.0225 Q178.0031,69.8115 178.5516,69.8115 L178.7906,69.8115 L178.7906,63.8209 L178.5516,63.8209 Q177.9891,63.8209 177.75,63.61 Q177.525,63.399 177.525,63.0475 Q177.525,62.71 177.75,62.499 Q177.9891,62.2881 178.5516,62.2881 L185.4141,62.2881 L185.4141,64.6225 Q185.4141,65.1709 185.2031,65.41 Q185.0063,65.635 184.6547,65.635 Q184.3172,65.635 184.1063,65.41 Q183.8953,65.1709 183.8953,64.6225 L183.8953,63.8209 L180.3234,63.8209 L180.3234,66.0287 L181.6594,66.0287 Q181.6594,65.4381 181.7719,65.2693 Q182.0109,64.9037 182.4328,64.9037 Q182.7703,64.9037 182.9813,65.1428 Q183.1922,65.3678 183.1922,65.9162 L183.1922,67.6881 Q183.1922,68.1803 183.0797,68.349 Q182.8406,68.7006 182.4328,68.7006 Q182.0109,68.7006 181.7719,68.335 Q181.6594,68.1662 181.6594,67.5615 L180.3234,67.5615 Z " fill="#000000"/><text fill="#000000" font-family="sans-serif" font-size="10.8" font-style="italic" lengthAdjust="spacing" textLength="38.7" x="203.85" y="55.7543">&#171;entity&#187;</text><text fill="#000000" font-family="sans-serif" font-size="10.8" font-style="italic" lengthAdjust="spacing" textLength="31.5" x="207.45" y="70.1191">&#171;root&#187;</text><text fill="#000000" font-family="sans-serif" font-size="12.6" lengthAdjust="spacing" textLength="58.5" x="193.95" y="86.4264">Candidate</text><line style="stroke:#181818;stroke-width:0.45;" x1="168.75" x2="254.25" y1="94.0887" y2="94.0887"/><line style="stroke:#181818;stroke-width:0.45;" x1="168.75" x2="254.25" y1="101.2887" y2="101.2887"/></g><!--link Candidate to User--><g id="link_Candidate_User"><path codeLine="29" d="M211.5,108.918 C211.5,134.829 211.5,170.604 211.5,197.649 " fill="none" id="Candidate-to-User" style="stroke:#181818;stroke-width:0.9;"/><polygon fill="#181818" points="211.5,202.248,215.1,194.148,211.5,197.748,207.9,194.148,211.5,202.248" style="stroke:#181818;stroke-width:0.9;"/><text fill="#000000" font-family="sans-serif" font-size="11.7" lengthAdjust="spacing" textLength="43.2" x="212.4" y="151.2255">includes</text><text fill="#000000" font-family="sans-serif" font-size="11.7" lengthAdjust="spacing" textLength="6.3" x="204.698" y="128.3416">1</text><text fill="#000000" font-family="sans-serif" font-size="11.7" lengthAdjust="spacing" textLength="6.3" x="204.6586" y="192.3177">1</text></g><!--link User to Name--><g id="link_User_Name"><path codeLine="30" d="M179.244,264.96 C153.153,286.731 116.442,317.358 89.505,339.831 " fill="none" id="User-to-Name" style="stroke:#181818;stroke-width:0.9;"/><polygon fill="#181818" points="85.941,342.801,94.4647,340.3686,89.3938,339.9151,89.8473,334.8442,85.941,342.801" style="stroke:#181818;stroke-width:0.9;"/><text fill="#000000" font-family="sans-serif" font-size="11.7" lengthAdjust="spacing" textLength="18.9" x="137.7" y="312.3255">has</text><text fill="#000000" font-family="sans-serif" font-size="11.7" lengthAdjust="spacing" textLength="6.3" x="165.9734" y="266.3208">1</text><text fill="#000000" font-family="sans-serif" font-size="11.7" lengthAdjust="spacing" textLength="6.3" x="85.5791" y="332.9325">1</text></g><!--link User to PhoneNumber--><g id="link_User_PhoneNumber"><path codeLine="31" d="M227.025,271.89 C236.475,292.473 248.454,318.573 257.643,338.589 " fill="none" id="User-to-PhoneNumber" style="stroke:#181818;stroke-width:0.9;"/><polygon fill="#181818" points="259.551,342.765,259.443,333.9017,257.6734,338.6754,252.8997,336.9059,259.551,342.765" style="stroke:#181818;stroke-width:0.9;"/><text fill="#000000" font-family="sans-serif" font-size="11.7" lengthAdjust="spacing" textLength="18.9" x="247.5" y="312.3255">has</text><text fill="#000000" font-family="sans-serif" font-size="11.7" lengthAdjust="spacing" textLength="6.3" x="222.6973" y="291.325">1</text><text fill="#000000" font-family="sans-serif" font-size="11.7" lengthAdjust="spacing" textLength="6.3" x="250.075" y="332.8891">1</text></g><!--link User to Email--><g id="link_User_Email"><path codeLine="32" d="M196.2,271.89 C186.894,292.473 175.104,318.573 166.05,338.589 " fill="none" id="User-to-Email" style="stroke:#181818;stroke-width:0.9;"/><polygon fill="#181818" points="164.16,342.765,170.7738,336.8635,166.0115,338.6635,164.2114,333.9012,164.16,342.765" style="stroke:#181818;stroke-width:0.9;"/><text fill="#000000" font-family="sans-serif" font-size="11.7" lengthAdjust="spacing" textLength="18.9" x="183.6" y="312.3255">has</text><text fill="#000000" font-family="sans-serif" font-size="11.7" lengthAdjust="spacing" textLength="6.3" x="186.9595" y="291.325">1</text><text fill="#000000" font-family="sans-serif" font-size="11.7" lengthAdjust="spacing" textLength="6.3" x="159.6977" y="332.8891">1</text></g><!--link User to Password--><g id="link_User_Password"><path codeLine="33" d="M243.558,260.343 C275.166,282.312 323.631,316.008 358.335,340.137 " fill="none" id="User-to-Password" style="stroke:#181818;stroke-width:0.9;"/><polygon fill="#181818" points="362.07,342.738,357.4703,335.1609,358.3738,340.1712,353.3635,341.0747,362.07,342.738" style="stroke:#181818;stroke-width:0.9;"/><text fill="#000000" font-family="sans-serif" font-size="11.7" lengthAdjust="spacing" textLength="18.9" x="323.1" y="312.3255">has</text><text fill="#000000" font-family="sans-serif" font-size="11.7" lengthAdjust="spacing" textLength="6.3" x="250.8197" y="260.9437">1</text><text fill="#000000" font-family="sans-serif" font-size="11.7" lengthAdjust="spacing" textLength="6.3" x="347.1941" y="332.8565">1</text></g><!--SRC=[TP3D2i8m48Jl-nIBbvuyU1K9Y7WjWkXzRPSqD4qbIH4flhiXrJQbUidFVBCXCwvMvawM6hnJKPFaitzgHik59oCr0sGNntOlfML9dk5ZmvcAFR3noZ-ZZBkTRLilH3WCiX0zl00AJSvXJWq7SYNTSV0avDYGqh_HgMeDvrrpOplo58VbqTeIPp3Wx42cL6NuupB24eqnHfH4c69zteR9jTgiSBqMSOyLR56PGdSbEuZtr10Bs695FrYIyvzbQEdV_BU8WRy1]--></g></svg>