<?xml version="1.0" encoding="us-ascii" standalone="no"?><svg xmlns="http://www.w3.org/2000/svg" xmlns:xlink="http://www.w3.org/1999/xlink" contentStyleType="text/css" height="645.4px" preserveAspectRatio="none" style="width:1222px;height:645px;background:#FFFFFF;" version="1.1" viewBox="0 0 1222 645" width="1222.2px" zoomAndPan="magnify"><defs/><g><text fill="#000000" font-family="FG Virgil" font-size="9.8" font-weight="bold" lengthAdjust="spacing" textLength="169.4" x="521.675" y="17.5752">Evaluate Interviews Class Diagram</text><!--class EvaluateInterviewsUI--><g id="elem_EvaluateInterviewsUI"><rect codeLine="9" fill="#F1F1F1" height="59.6695" id="EvaluateInterviewsUI" rx="1.75" ry="1.75" style="stroke:#181818;stroke-width:0.3499999999999999;" width="112.7" x="424.9" y="32.6348"/><ellipse cx="435.4" cy="43.8348" fill="#ADD1B2" rx="7.7" ry="7.7" style="stroke:#181818;stroke-width:0.6999999999999998;"/><path d="M437.3359,40.9473 Q437.4453,40.7941 437.5766,40.7176 Q437.7078,40.641 437.8609,40.641 Q438.1234,40.641 438.2875,40.827 Q438.4516,41.002 438.4516,41.4285 L438.4516,42.4457 Q438.4516,42.8723 438.2875,43.0582 Q438.1234,43.2441 437.8609,43.2441 Q437.6203,43.2441 437.4781,43.102 Q437.3359,42.9707 437.2594,42.6098 Q437.2266,42.3582 437.0953,42.227 Q436.8656,41.9645 436.4391,41.8113 Q436.0125,41.6582 435.575,41.6582 Q435.0391,41.6582 434.5906,41.8879 Q434.1531,42.1176 433.8031,42.6426 Q433.4641,43.1676 433.4641,43.8895 L433.4641,44.6551 Q433.4641,45.5191 434.0875,46.0988 Q434.7109,46.6676 435.8266,46.6676 Q436.4828,46.6676 436.9422,46.4926 Q437.2156,46.3832 437.5109,46.077 Q437.6969,45.891 437.7953,45.8363 Q437.9047,45.7816 438.0469,45.7816 Q438.2766,45.7816 438.4516,45.9676 Q438.6375,46.1426 438.6375,46.3832 Q438.6375,46.6238 438.3969,46.9082 Q438.0469,47.3129 437.4891,47.5426 Q436.7344,47.8598 435.8266,47.8598 Q434.7656,47.8598 433.9234,47.4223 Q433.2344,47.0723 432.7531,46.3285 Q432.2719,45.5738 432.2719,44.677 L432.2719,43.8676 Q432.2719,42.9379 432.6984,42.1395 Q433.1359,41.3301 433.9016,40.9035 Q434.6672,40.466 435.5312,40.466 Q436.0453,40.466 436.4937,40.5863 Q436.9531,40.6957 437.3359,40.9473 Z " fill="#000000"/><text fill="#000000" font-family="FG Virgil" font-size="9.8" lengthAdjust="spacing" textLength="90.3" x="445.2" y="47.8926">EvaluateInterviewsUI</text><line style="stroke:#181818;stroke-width:0.3499999999999999;" x1="425.6" x2="536.9" y1="55.0348" y2="55.0348"/><line style="stroke:#181818;stroke-width:0.3499999999999999;" x1="425.6" x2="536.9" y1="60.6348" y2="60.6348"/><ellipse cx="432.6" cy="71.0021" fill="#84BE84" rx="2.1" ry="2.1" style="stroke:#038048;stroke-width:0.6999999999999998;"/><text fill="#000000" font-family="FG Virgil" font-size="9.8" lengthAdjust="spacing" textLength="80.5" x="438.9" y="74.01">boolean doShow()</text><ellipse cx="432.6" cy="84.0369" fill="#84BE84" rx="2.1" ry="2.1" style="stroke:#038048;stroke-width:0.6999999999999998;"/><text fill="#000000" font-family="FG Virgil" font-size="9.8" lengthAdjust="spacing" textLength="73.5" x="438.9" y="87.0447">String headline()</text></g><!--class EvaluateInterviewsController--><g id="elem_EvaluateInterviewsController"><rect codeLine="14" fill="#F1F1F1" height="59.6695" id="EvaluateInterviewsController" rx="1.75" ry="1.75" style="stroke:#181818;stroke-width:0.3499999999999999;" width="439.6" x="261.45" y="147.4348"/><ellipse cx="415.625" cy="158.6348" fill="#ADD1B2" rx="7.7" ry="7.7" style="stroke:#181818;stroke-width:0.6999999999999998;"/><path d="M417.5609,155.7473 Q417.6703,155.5941 417.8016,155.5176 Q417.9328,155.441 418.0859,155.441 Q418.3484,155.441 418.5125,155.627 Q418.6766,155.802 418.6766,156.2285 L418.6766,157.2457 Q418.6766,157.6723 418.5125,157.8582 Q418.3484,158.0441 418.0859,158.0441 Q417.8453,158.0441 417.7031,157.902 Q417.5609,157.7707 417.4844,157.4098 Q417.4516,157.1582 417.3203,157.027 Q417.0906,156.7645 416.6641,156.6113 Q416.2375,156.4582 415.8,156.4582 Q415.2641,156.4582 414.8156,156.6879 Q414.3781,156.9176 414.0281,157.4426 Q413.6891,157.9676 413.6891,158.6895 L413.6891,159.4551 Q413.6891,160.3191 414.3125,160.8988 Q414.9359,161.4676 416.0516,161.4676 Q416.7078,161.4676 417.1672,161.2926 Q417.4406,161.1832 417.7359,160.877 Q417.9219,160.691 418.0203,160.6363 Q418.1297,160.5816 418.2719,160.5816 Q418.5016,160.5816 418.6766,160.7676 Q418.8625,160.9426 418.8625,161.1832 Q418.8625,161.4238 418.6219,161.7082 Q418.2719,162.1129 417.7141,162.3426 Q416.9594,162.6598 416.0516,162.6598 Q414.9906,162.6598 414.1484,162.2223 Q413.4594,161.8723 412.9781,161.1285 Q412.4969,160.3738 412.4969,159.477 L412.4969,158.6676 Q412.4969,157.7379 412.9234,156.9395 Q413.3609,156.1301 414.1266,155.7035 Q414.8922,155.266 415.7562,155.266 Q416.2703,155.266 416.7187,155.3863 Q417.1781,155.4957 417.5609,155.7473 Z " fill="#000000"/><text fill="#000000" font-family="FG Virgil" font-size="9.8" lengthAdjust="spacing" textLength="125.3" x="429.975" y="162.6926">EvaluateInterviewsController</text><line style="stroke:#181818;stroke-width:0.3499999999999999;" x1="262.15" x2="700.35" y1="169.8348" y2="169.8348"/><line style="stroke:#181818;stroke-width:0.3499999999999999;" x1="262.15" x2="700.35" y1="175.4348" y2="175.4348"/><ellipse cx="269.15" cy="185.8021" fill="#84BE84" rx="2.1" ry="2.1" style="stroke:#038048;stroke-width:0.6999999999999998;"/><text fill="#000000" font-family="FG Virgil" font-size="9.8" lengthAdjust="spacing" textLength="268.8" x="275.45" y="188.81">Iterable&lt;JobApplication&gt; allApplications(String jobReference)</text><ellipse cx="269.15" cy="198.8369" fill="#84BE84" rx="2.1" ry="2.1" style="stroke:#038048;stroke-width:0.6999999999999998;"/><text fill="#000000" font-family="FG Virgil" font-size="9.8" lengthAdjust="spacing" textLength="421.4" x="275.45" y="201.8447">void evaluateInterview(String directoryFilePath, JobApplication application, String jobReference)</text></g><!--class JobApplicationService--><g id="elem_JobApplicationService"><rect codeLine="19" fill="#F1F1F1" height="46.6348" id="JobApplicationService" rx="1.75" ry="1.75" style="stroke:#181818;stroke-width:0.3499999999999999;" width="299.6" x="70.35" y="281.4848"/><ellipse cx="168.875" cy="292.6848" fill="#ADD1B2" rx="7.7" ry="7.7" style="stroke:#181818;stroke-width:0.6999999999999998;"/><path d="M170.8109,289.7973 Q170.9203,289.6441 171.0516,289.5676 Q171.1828,289.491 171.3359,289.491 Q171.5984,289.491 171.7625,289.677 Q171.9266,289.852 171.9266,290.2785 L171.9266,291.2957 Q171.9266,291.7223 171.7625,291.9082 Q171.5984,292.0941 171.3359,292.0941 Q171.0953,292.0941 170.9531,291.952 Q170.8109,291.8207 170.7344,291.4598 Q170.7016,291.2082 170.5703,291.077 Q170.3406,290.8145 169.9141,290.6613 Q169.4875,290.5082 169.05,290.5082 Q168.5141,290.5082 168.0656,290.7379 Q167.6281,290.9676 167.2781,291.4926 Q166.9391,292.0176 166.9391,292.7395 L166.9391,293.5051 Q166.9391,294.3691 167.5625,294.9488 Q168.1859,295.5176 169.3016,295.5176 Q169.9578,295.5176 170.4172,295.3426 Q170.6906,295.2332 170.9859,294.927 Q171.1719,294.741 171.2703,294.6863 Q171.3797,294.6316 171.5219,294.6316 Q171.7516,294.6316 171.9266,294.8176 Q172.1125,294.9926 172.1125,295.2332 Q172.1125,295.4738 171.8719,295.7582 Q171.5219,296.1629 170.9641,296.3926 Q170.2094,296.7098 169.3016,296.7098 Q168.2406,296.7098 167.3984,296.2723 Q166.7094,295.9223 166.2281,295.1785 Q165.7469,294.4238 165.7469,293.527 L165.7469,292.7176 Q165.7469,291.7879 166.1734,290.9895 Q166.6109,290.1801 167.3766,289.7535 Q168.1422,289.316 169.0062,289.316 Q169.5203,289.316 169.9687,289.4363 Q170.4281,289.5457 170.8109,289.7973 Z " fill="#000000"/><text fill="#000000" font-family="FG Virgil" font-size="9.8" lengthAdjust="spacing" textLength="96.6" x="183.225" y="296.7426">JobApplicationService</text><line style="stroke:#181818;stroke-width:0.3499999999999999;" x1="71.05" x2="369.25" y1="303.8848" y2="303.8848"/><line style="stroke:#181818;stroke-width:0.3499999999999999;" x1="71.05" x2="369.25" y1="309.4848" y2="309.4848"/><ellipse cx="78.05" cy="319.8521" fill="#84BE84" rx="2.1" ry="2.1" style="stroke:#038048;stroke-width:0.6999999999999998;"/><text fill="#000000" font-family="FG Virgil" font-size="9.8" lengthAdjust="spacing" textLength="281.4" x="84.35" y="322.86">Iterable&lt;JobApplication&gt; listAllApplications(String jobReference)</text></g><!--class JobApplicationRepository--><g id="elem_JobApplicationRepository"><rect codeLine="23" fill="#F1F1F1" height="46.6348" id="JobApplicationRepository" rx="1.75" ry="1.75" style="stroke:#181818;stroke-width:0.3499999999999999;" width="312.9" x="4.9" y="594.0348"/><ellipse cx="102.375" cy="605.2348" fill="#B4A7E5" rx="7.7" ry="7.7" style="stroke:#181818;stroke-width:0.6999999999999998;"/><path d="M103.0422,602.8832 L103.0422,607.5426 L104.2453,607.5426 Q104.6719,607.5426 104.8578,607.7066 Q105.0437,607.8707 105.0437,608.1441 Q105.0437,608.4066 104.8578,608.5707 Q104.6719,608.7348 104.2453,608.7348 L100.6469,608.7348 Q100.2203,608.7348 100.0344,608.5707 Q99.8484,608.4066 99.8484,608.1332 Q99.8484,607.8707 100.0344,607.7066 Q100.2203,607.5426 100.6469,607.5426 L101.85,607.5426 L101.85,602.8832 L100.6469,602.8832 Q100.2203,602.8832 100.0344,602.7191 Q99.8484,602.5551 99.8484,602.2816 Q99.8484,602.0191 100.0344,601.8551 Q100.2203,601.691 100.6469,601.691 L104.2453,601.691 Q104.6719,601.691 104.8578,601.8551 Q105.0437,602.0191 105.0437,602.2816 Q105.0437,602.5551 104.8578,602.7191 Q104.6719,602.8832 104.2453,602.8832 L103.0422,602.8832 Z " fill="#000000"/><text fill="#000000" font-family="FG Virgil" font-size="9.8" font-style="italic" lengthAdjust="spacing" textLength="112" x="116.725" y="609.2926">JobApplicationRepository</text><line style="stroke:#181818;stroke-width:0.3499999999999999;" x1="5.6" x2="317.1" y1="616.4348" y2="616.4348"/><line style="stroke:#181818;stroke-width:0.3499999999999999;" x1="5.6" x2="317.1" y1="622.0348" y2="622.0348"/><ellipse cx="12.6" cy="632.4021" fill="#84BE84" rx="2.1" ry="2.1" style="stroke:#038048;stroke-width:0.6999999999999998;"/><text fill="#000000" font-family="FG Virgil" font-size="9.8" lengthAdjust="spacing" textLength="294.7" x="18.9" y="635.41">Iterable&lt;JobApplication&gt; findByJobReference(String jobReference)</text></g><!--class PersistenceContext--><g id="elem_PersistenceContext"><rect codeLine="27" fill="#F1F1F1" height="46.6348" id="PersistenceContext" rx="1.75" ry="1.75" style="stroke:#181818;stroke-width:0.3499999999999999;" width="186.9" x="303.1" y="402.9348"/><ellipse cx="350.875" cy="414.1348" fill="#ADD1B2" rx="7.7" ry="7.7" style="stroke:#181818;stroke-width:0.6999999999999998;"/><path d="M352.8109,411.2473 Q352.9203,411.0941 353.0516,411.0176 Q353.1828,410.941 353.3359,410.941 Q353.5984,410.941 353.7625,411.127 Q353.9266,411.302 353.9266,411.7285 L353.9266,412.7457 Q353.9266,413.1723 353.7625,413.3582 Q353.5984,413.5441 353.3359,413.5441 Q353.0953,413.5441 352.9531,413.402 Q352.8109,413.2707 352.7344,412.9098 Q352.7016,412.6582 352.5703,412.527 Q352.3406,412.2645 351.9141,412.1113 Q351.4875,411.9582 351.05,411.9582 Q350.5141,411.9582 350.0656,412.1879 Q349.6281,412.4176 349.2781,412.9426 Q348.9391,413.4676 348.9391,414.1895 L348.9391,414.9551 Q348.9391,415.8191 349.5625,416.3988 Q350.1859,416.9676 351.3016,416.9676 Q351.9578,416.9676 352.4172,416.7926 Q352.6906,416.6832 352.9859,416.377 Q353.1719,416.191 353.2703,416.1363 Q353.3797,416.0816 353.5219,416.0816 Q353.7516,416.0816 353.9266,416.2676 Q354.1125,416.4426 354.1125,416.6832 Q354.1125,416.9238 353.8719,417.2082 Q353.5219,417.6129 352.9641,417.8426 Q352.2094,418.1598 351.3016,418.1598 Q350.2406,418.1598 349.3984,417.7223 Q348.7094,417.3723 348.2281,416.6285 Q347.7469,415.8738 347.7469,414.977 L347.7469,414.1676 Q347.7469,413.2379 348.1734,412.4395 Q348.6109,411.6301 349.3766,411.2035 Q350.1422,410.766 351.0062,410.766 Q351.5203,410.766 351.9687,410.8863 Q352.4281,410.9957 352.8109,411.2473 Z " fill="#000000"/><text fill="#000000" font-family="FG Virgil" font-size="9.8" lengthAdjust="spacing" textLength="85.4" x="365.225" y="418.1926">PersistenceContext</text><line style="stroke:#181818;stroke-width:0.3499999999999999;" x1="303.8" x2="489.3" y1="425.3348" y2="425.3348"/><line style="stroke:#181818;stroke-width:0.3499999999999999;" x1="303.8" x2="489.3" y1="430.9348" y2="430.9348"/><ellipse cx="310.8" cy="441.3021" fill="#84BE84" rx="2.1" ry="2.1" style="stroke:#038048;stroke-width:0.6999999999999998;"/><text fill="#000000" font-family="FG Virgil" font-size="9.8" lengthAdjust="spacing" textLength="168.7" x="317.1" y="444.31">static RepositoryFactory repositories()</text></g><!--class Interview--><g id="elem_Interview"><rect codeLine="31" fill="#F1F1F1" height="33.6" id="Interview" rx="1.75" ry="1.75" style="stroke:#181818;stroke-width:0.3499999999999999;" width="60.9" x="599.2" y="409.5848"/><ellipse cx="609.7" cy="420.7848" fill="#ADD1B2" rx="7.7" ry="7.7" style="stroke:#181818;stroke-width:0.6999999999999998;"/><path d="M611.6359,417.8973 Q611.7453,417.7441 611.8766,417.6676 Q612.0078,417.591 612.1609,417.591 Q612.4234,417.591 612.5875,417.777 Q612.7516,417.952 612.7516,418.3785 L612.7516,419.3957 Q612.7516,419.8223 612.5875,420.0082 Q612.4234,420.1941 612.1609,420.1941 Q611.9203,420.1941 611.7781,420.052 Q611.6359,419.9207 611.5594,419.5598 Q611.5266,419.3082 611.3953,419.177 Q611.1656,418.9145 610.7391,418.7613 Q610.3125,418.6082 609.875,418.6082 Q609.3391,418.6082 608.8906,418.8379 Q608.4531,419.0676 608.1031,419.5926 Q607.7641,420.1176 607.7641,420.8395 L607.7641,421.6051 Q607.7641,422.4691 608.3875,423.0488 Q609.0109,423.6176 610.1266,423.6176 Q610.7828,423.6176 611.2422,423.4426 Q611.5156,423.3332 611.8109,423.027 Q611.9969,422.841 612.0953,422.7863 Q612.2047,422.7316 612.3469,422.7316 Q612.5766,422.7316 612.7516,422.9176 Q612.9375,423.0926 612.9375,423.3332 Q612.9375,423.5738 612.6969,423.8582 Q612.3469,424.2629 611.7891,424.4926 Q611.0344,424.8098 610.1266,424.8098 Q609.0656,424.8098 608.2234,424.3723 Q607.5344,424.0223 607.0531,423.2785 Q606.5719,422.5238 606.5719,421.627 L606.5719,420.8176 Q606.5719,419.8879 606.9984,419.0895 Q607.4359,418.2801 608.2016,417.8535 Q608.9672,417.416 609.8312,417.416 Q610.3453,417.416 610.7937,417.5363 Q611.2531,417.6457 611.6359,417.8973 Z " fill="#000000"/><text fill="#000000" font-family="FG Virgil" font-size="9.8" lengthAdjust="spacing" textLength="38.5" x="619.5" y="424.8426">Interview</text><line style="stroke:#181818;stroke-width:0.3499999999999999;" x1="599.9" x2="659.4" y1="431.9848" y2="431.9848"/><line style="stroke:#181818;stroke-width:0.3499999999999999;" x1="599.9" x2="659.4" y1="437.5848" y2="437.5848"/></g><!--class InterviewBuilder--><g id="elem_InterviewBuilder"><rect codeLine="34" fill="#F1F1F1" height="85.7391" id="InterviewBuilder" rx="1.75" ry="1.75" style="stroke:#181818;stroke-width:0.3499999999999999;" width="315" x="472.15" y="262.2348"/><ellipse cx="592.025" cy="273.4348" fill="#ADD1B2" rx="7.7" ry="7.7" style="stroke:#181818;stroke-width:0.6999999999999998;"/><path d="M593.9609,270.5473 Q594.0703,270.3941 594.2016,270.3176 Q594.3328,270.241 594.4859,270.241 Q594.7484,270.241 594.9125,270.427 Q595.0766,270.602 595.0766,271.0285 L595.0766,272.0457 Q595.0766,272.4723 594.9125,272.6582 Q594.7484,272.8441 594.4859,272.8441 Q594.2453,272.8441 594.1031,272.702 Q593.9609,272.5707 593.8844,272.2098 Q593.8516,271.9582 593.7203,271.827 Q593.4906,271.5645 593.0641,271.4113 Q592.6375,271.2582 592.2,271.2582 Q591.6641,271.2582 591.2156,271.4879 Q590.7781,271.7176 590.4281,272.2426 Q590.0891,272.7676 590.0891,273.4895 L590.0891,274.2551 Q590.0891,275.1191 590.7125,275.6988 Q591.3359,276.2676 592.4516,276.2676 Q593.1078,276.2676 593.5672,276.0926 Q593.8406,275.9832 594.1359,275.677 Q594.3219,275.491 594.4203,275.4363 Q594.5297,275.3816 594.6719,275.3816 Q594.9016,275.3816 595.0766,275.5676 Q595.2625,275.7426 595.2625,275.9832 Q595.2625,276.2238 595.0219,276.5082 Q594.6719,276.9129 594.1141,277.1426 Q593.3594,277.4598 592.4516,277.4598 Q591.3906,277.4598 590.5484,277.0223 Q589.8594,276.6723 589.3781,275.9285 Q588.8969,275.1738 588.8969,274.277 L588.8969,273.4676 Q588.8969,272.5379 589.3234,271.7395 Q589.7609,270.9301 590.5266,270.5035 Q591.2922,270.066 592.1562,270.066 Q592.6703,270.066 593.1187,270.1863 Q593.5781,270.2957 593.9609,270.5473 Z " fill="#000000"/><text fill="#000000" font-family="FG Virgil" font-size="9.8" lengthAdjust="spacing" textLength="69.3" x="606.375" y="277.4926">InterviewBuilder</text><line style="stroke:#181818;stroke-width:0.3499999999999999;" x1="472.85" x2="786.45" y1="284.6348" y2="284.6348"/><line style="stroke:#181818;stroke-width:0.3499999999999999;" x1="472.85" x2="786.45" y1="290.2348" y2="290.2348"/><ellipse cx="479.85" cy="300.6021" fill="#84BE84" rx="2.1" ry="2.1" style="stroke:#038048;stroke-width:0.6999999999999998;"/><text fill="#000000" font-family="FG Virgil" font-size="9.8" lengthAdjust="spacing" textLength="158.9" x="486.15" y="303.61">InterviewBuilder withTitle(String title)</text><ellipse cx="479.85" cy="313.6369" fill="#84BE84" rx="2.1" ry="2.1" style="stroke:#038048;stroke-width:0.6999999999999998;"/><text fill="#000000" font-family="FG Virgil" font-size="9.8" lengthAdjust="spacing" textLength="179.9" x="486.15" y="316.6447">InterviewBuilder withDate(Calendar date)</text><ellipse cx="479.85" cy="326.6717" fill="#84BE84" rx="2.1" ry="2.1" style="stroke:#038048;stroke-width:0.6999999999999998;"/><text fill="#000000" font-family="FG Virgil" font-size="9.8" lengthAdjust="spacing" textLength="296.8" x="486.15" y="329.6795">InterviewBuilder withModel(String jobReference, String pluginName)</text><ellipse cx="479.85" cy="339.7064" fill="#84BE84" rx="2.1" ry="2.1" style="stroke:#038048;stroke-width:0.6999999999999998;"/><text fill="#000000" font-family="FG Virgil" font-size="9.8" lengthAdjust="spacing" textLength="69.3" x="486.15" y="342.7143">Interview build()</text></g><!--class InterviewRepository--><g id="elem_InterviewRepository"><rect codeLine="41" fill="#F1F1F1" height="46.6348" id="InterviewRepository" rx="1.75" ry="1.75" style="stroke:#181818;stroke-width:0.3499999999999999;" width="108.5" x="342.3" y="594.0348"/><ellipse cx="352.8" cy="605.2348" fill="#B4A7E5" rx="7.7" ry="7.7" style="stroke:#181818;stroke-width:0.6999999999999998;"/><path d="M353.4672,602.8832 L353.4672,607.5426 L354.6703,607.5426 Q355.0969,607.5426 355.2828,607.7066 Q355.4687,607.8707 355.4687,608.1441 Q355.4687,608.4066 355.2828,608.5707 Q355.0969,608.7348 354.6703,608.7348 L351.0719,608.7348 Q350.6453,608.7348 350.4594,608.5707 Q350.2734,608.4066 350.2734,608.1332 Q350.2734,607.8707 350.4594,607.7066 Q350.6453,607.5426 351.0719,607.5426 L352.275,607.5426 L352.275,602.8832 L351.0719,602.8832 Q350.6453,602.8832 350.4594,602.7191 Q350.2734,602.5551 350.2734,602.2816 Q350.2734,602.0191 350.4594,601.8551 Q350.6453,601.691 351.0719,601.691 L354.6703,601.691 Q355.0969,601.691 355.2828,601.8551 Q355.4687,602.0191 355.4687,602.2816 Q355.4687,602.5551 355.2828,602.7191 Q355.0969,602.8832 354.6703,602.8832 L353.4672,602.8832 Z " fill="#000000"/><text fill="#000000" font-family="FG Virgil" font-size="9.8" font-style="italic" lengthAdjust="spacing" textLength="86.1" x="362.6" y="609.2926">InterviewRepository</text><line style="stroke:#181818;stroke-width:0.3499999999999999;" x1="343" x2="450.1" y1="616.4348" y2="616.4348"/><line style="stroke:#181818;stroke-width:0.3499999999999999;" x1="343" x2="450.1" y1="622.0348" y2="622.0348"/><ellipse cx="350" cy="632.4021" fill="#84BE84" rx="2.1" ry="2.1" style="stroke:#038048;stroke-width:0.6999999999999998;"/><text fill="#000000" font-family="FG Virgil" font-size="9.8" lengthAdjust="spacing" textLength="87.5" x="356.3" y="635.41">void save(interview)</text></g><!--class InterviewModelRepository--><g id="elem_InterviewModelRepository"><rect codeLine="46" fill="#F1F1F1" height="46.6348" id="InterviewModelRepository" rx="1.75" ry="1.75" style="stroke:#181818;stroke-width:0.3499999999999999;" width="318.5" x="475.3" y="594.0348"/><ellipse cx="574.875" cy="605.2348" fill="#B4A7E5" rx="7.7" ry="7.7" style="stroke:#181818;stroke-width:0.6999999999999998;"/><path d="M575.5422,602.8832 L575.5422,607.5426 L576.7453,607.5426 Q577.1719,607.5426 577.3578,607.7066 Q577.5437,607.8707 577.5437,608.1441 Q577.5437,608.4066 577.3578,608.5707 Q577.1719,608.7348 576.7453,608.7348 L573.1469,608.7348 Q572.7203,608.7348 572.5344,608.5707 Q572.3484,608.4066 572.3484,608.1332 Q572.3484,607.8707 572.5344,607.7066 Q572.7203,607.5426 573.1469,607.5426 L574.35,607.5426 L574.35,602.8832 L573.1469,602.8832 Q572.7203,602.8832 572.5344,602.7191 Q572.3484,602.5551 572.3484,602.2816 Q572.3484,602.0191 572.5344,601.8551 Q572.7203,601.691 573.1469,601.691 L576.7453,601.691 Q577.1719,601.691 577.3578,601.8551 Q577.5437,602.0191 577.5437,602.2816 Q577.5437,602.5551 577.3578,602.7191 Q577.1719,602.8832 576.7453,602.8832 L575.5422,602.8832 Z " fill="#000000"/><text fill="#000000" font-family="FG Virgil" font-size="9.8" font-style="italic" lengthAdjust="spacing" textLength="113.4" x="589.225" y="609.2926">InterviewModelRepository</text><line style="stroke:#181818;stroke-width:0.3499999999999999;" x1="476" x2="793.1" y1="616.4348" y2="616.4348"/><line style="stroke:#181818;stroke-width:0.3499999999999999;" x1="476" x2="793.1" y1="622.0348" y2="622.0348"/><ellipse cx="483" cy="632.4021" fill="#84BE84" rx="2.1" ry="2.1" style="stroke:#038048;stroke-width:0.6999999999999998;"/><text fill="#000000" font-family="FG Virgil" font-size="9.8" lengthAdjust="spacing" textLength="300.3" x="489.3" y="635.41">Optional&lt;InterviewModel&gt; findByJobReference(String jobReference)</text></g><!--class InterviewModelPlugin--><g id="elem_InterviewModelPlugin"><rect codeLine="51" fill="#F1F1F1" height="46.6348" id="InterviewModelPlugin" rx="1.75" ry="1.75" style="stroke:#181818;stroke-width:0.3499999999999999;" width="406" x="811.65" y="281.4848"/><ellipse cx="965.125" cy="292.6848" fill="#B4A7E5" rx="7.7" ry="7.7" style="stroke:#181818;stroke-width:0.6999999999999998;"/><path d="M965.7922,290.3332 L965.7922,294.9926 L966.9953,294.9926 Q967.4219,294.9926 967.6078,295.1566 Q967.7937,295.3207 967.7937,295.5941 Q967.7937,295.8566 967.6078,296.0207 Q967.4219,296.1848 966.9953,296.1848 L963.3969,296.1848 Q962.9703,296.1848 962.7844,296.0207 Q962.5984,295.8566 962.5984,295.5832 Q962.5984,295.3207 962.7844,295.1566 Q962.9703,294.9926 963.3969,294.9926 L964.6,294.9926 L964.6,290.3332 L963.3969,290.3332 Q962.9703,290.3332 962.7844,290.1691 Q962.5984,290.0051 962.5984,289.7316 Q962.5984,289.4691 962.7844,289.3051 Q962.9703,289.141 963.3969,289.141 L966.9953,289.141 Q967.4219,289.141 967.6078,289.3051 Q967.7937,289.4691 967.7937,289.7316 Q967.7937,290.0051 967.6078,290.1691 Q967.4219,290.3332 966.9953,290.3332 L965.7922,290.3332 Z " fill="#000000"/><text fill="#000000" font-family="FG Virgil" font-size="9.8" font-style="italic" lengthAdjust="spacing" textLength="93.1" x="979.475" y="296.7426">InterviewModelPlugin</text><line style="stroke:#181818;stroke-width:0.3499999999999999;" x1="812.35" x2="1216.95" y1="303.8848" y2="303.8848"/><line style="stroke:#181818;stroke-width:0.3499999999999999;" x1="812.35" x2="1216.95" y1="309.4848" y2="309.4848"/><ellipse cx="819.35" cy="319.8521" fill="#84BE84" rx="2.1" ry="2.1" style="stroke:#038048;stroke-width:0.6999999999999998;"/><text fill="#000000" font-family="FG Virgil" font-size="9.8" lengthAdjust="spacing" textLength="387.8" x="825.65" y="322.86">Interview evaluateInterviewAndShowGrades(String directoryFilePath, Interview interview)</text></g><!--class RepositoryFactory--><g id="elem_RepositoryFactory"><rect fill="#F1F1F1" height="33.6" id="RepositoryFactory" rx="1.75" ry="1.75" style="stroke:#181818;stroke-width:0.3499999999999999;" width="103.6" x="344.75" y="505.1348"/><ellipse cx="355.25" cy="516.3348" fill="#ADD1B2" rx="7.7" ry="7.7" style="stroke:#181818;stroke-width:0.6999999999999998;"/><path d="M357.1859,513.4473 Q357.2953,513.2941 357.4266,513.2176 Q357.5578,513.141 357.7109,513.141 Q357.9734,513.141 358.1375,513.327 Q358.3016,513.502 358.3016,513.9285 L358.3016,514.9457 Q358.3016,515.3723 358.1375,515.5582 Q357.9734,515.7441 357.7109,515.7441 Q357.4703,515.7441 357.3281,515.602 Q357.1859,515.4707 357.1094,515.1098 Q357.0766,514.8582 356.9453,514.727 Q356.7156,514.4645 356.2891,514.3113 Q355.8625,514.1582 355.425,514.1582 Q354.8891,514.1582 354.4406,514.3879 Q354.0031,514.6176 353.6531,515.1426 Q353.3141,515.6676 353.3141,516.3895 L353.3141,517.1551 Q353.3141,518.0191 353.9375,518.5988 Q354.5609,519.1676 355.6766,519.1676 Q356.3328,519.1676 356.7922,518.9926 Q357.0656,518.8832 357.3609,518.577 Q357.5469,518.391 357.6453,518.3363 Q357.7547,518.2816 357.8969,518.2816 Q358.1266,518.2816 358.3016,518.4676 Q358.4875,518.6426 358.4875,518.8832 Q358.4875,519.1238 358.2469,519.4082 Q357.8969,519.8129 357.3391,520.0426 Q356.5844,520.3598 355.6766,520.3598 Q354.6156,520.3598 353.7734,519.9223 Q353.0844,519.5723 352.6031,518.8285 Q352.1219,518.0738 352.1219,517.177 L352.1219,516.3676 Q352.1219,515.4379 352.5484,514.6395 Q352.9859,513.8301 353.7516,513.4035 Q354.5172,512.966 355.3812,512.966 Q355.8953,512.966 356.3437,513.0863 Q356.8031,513.1957 357.1859,513.4473 Z " fill="#000000"/><text fill="#000000" font-family="FG Virgil" font-size="9.8" lengthAdjust="spacing" textLength="81.2" x="365.05" y="520.3926">RepositoryFactory</text><line style="stroke:#181818;stroke-width:0.3499999999999999;" x1="345.45" x2="447.65" y1="527.5348" y2="527.5348"/><line style="stroke:#181818;stroke-width:0.3499999999999999;" x1="345.45" x2="447.65" y1="533.1348" y2="533.1348"/></g><!--link EvaluateInterviewsUI to EvaluateInterviewsController--><g id="link_EvaluateInterviewsUI_EvaluateInterviewsController"><path codeLine="55" d="M481.25,92.2888 C481.25,108.0318 481.25,127.4988 481.25,143.7528 " fill="none" id="EvaluateInterviewsUI-to-EvaluateInterviewsController" style="stroke:#181818;stroke-width:0.6999999999999998;"/><polygon fill="#181818" points="481.25,147.3788,484.05,141.0788,481.25,143.8788,478.45,141.0788,481.25,147.3788" style="stroke:#181818;stroke-width:0.6999999999999998;"/><text fill="#000000" font-family="FG Virgil" font-size="9.1" lengthAdjust="spacing" textLength="52.5" x="481.95" y="123.6546">the controller</text></g><!--link EvaluateInterviewsController to JobApplicationService--><g id="link_EvaluateInterviewsController_JobApplicationService"><path codeLine="56" d="M416.255,206.9628 C401.443,213.7388 385.812,220.9978 371.35,227.9348 C336.308,244.7488 297.143,264.5378 267.456,279.7558 " fill="none" id="EvaluateInterviewsController-to-JobApplicationService" style="stroke:#181818;stroke-width:0.6999999999999998;"/><polygon fill="#181818" points="264.25,281.4008,271.134,281.026,267.3663,279.8075,268.5848,276.0399,264.25,281.4008" style="stroke:#181818;stroke-width:0.6999999999999998;"/><text fill="#000000" font-family="FG Virgil" font-size="9.1" lengthAdjust="spacing" textLength="28" x="372.05" y="238.4546">service</text></g><!--link JobApplicationService to PersistenceContext--><g id="link_JobApplicationService_PersistenceContext"><path codeLine="57" d="M253.743,328.4968 C284.151,349.1888 328.832,379.6038 360.101,400.8768 " fill="none" id="JobApplicationService-to-PersistenceContext" style="stroke:#181818;stroke-width:0.6999999999999998;"/><polygon fill="#181818" points="363.083,402.9068,359.4545,397.0447,360.191,400.9354,356.3003,401.6719,363.083,402.9068" style="stroke:#181818;stroke-width:0.6999999999999998;"/><text fill="#000000" font-family="FG Virgil" font-size="9.1" lengthAdjust="spacing" textLength="27.3" x="330.05" y="379.1546">persist</text></g><!--link EvaluateInterviewsController to PersistenceContext--><g id="link_EvaluateInterviewsController_PersistenceContext"><path codeLine="58" d="M460.509,207.0888 C450.233,222.7828 438.431,242.8518 430.85,262.2348 C412.72,308.6098 403.473,366.3248 399.357,399.2948 " fill="none" id="EvaluateInterviewsController-to-PersistenceContext" style="stroke:#181818;stroke-width:0.6999999999999998;"/><polygon fill="#181818" points="398.93,402.7948,402.4667,396.8769,399.3506,399.3201,396.9073,396.204,398.93,402.7948" style="stroke:#181818;stroke-width:0.6999999999999998;"/><text fill="#000000" font-family="FG Virgil" font-size="9.1" lengthAdjust="spacing" textLength="27.3" x="431.55" y="308.8046">persist</text></g><!--link EvaluateInterviewsController to InterviewBuilder--><g id="link_EvaluateInterviewsController_InterviewBuilder"><path codeLine="59" d="M515.48,207.0328 C533.834,222.6568 556.829,242.2358 577.367,259.7218 " fill="none" id="EvaluateInterviewsController-to-InterviewBuilder" style="stroke:#181818;stroke-width:0.6999999999999998;"/><polygon fill="#181818" points="580.118,262.0598,577.1319,255.8458,577.4515,259.7927,573.5046,260.1123,580.118,262.0598" style="stroke:#181818;stroke-width:0.6999999999999998;"/><text fill="#000000" font-family="FG Virgil" font-size="9.1" lengthAdjust="spacing" textLength="18.9" x="556.15" y="238.4546">build</text></g><!--link InterviewBuilder to Interview--><g id="link_InterviewBuilder_Interview"><path codeLine="60" d="M629.65,347.9568 C629.65,367.5848 629.65,389.9778 629.65,405.6718 " fill="none" id="InterviewBuilder-to-Interview" style="stroke:#181818;stroke-width:0.6999999999999998;"/><polygon fill="#181818" points="629.65,409.3118,632.45,403.0118,629.65,405.8118,626.85,403.0118,629.65,409.3118" style="stroke:#181818;stroke-width:0.6999999999999998;"/><text fill="#000000" font-family="FG Virgil" font-size="9.1" lengthAdjust="spacing" textLength="34.3" x="630.35" y="379.1546">interview</text></g><!--link EvaluateInterviewsController to InterviewModelPlugin--><g id="link_EvaluateInterviewsController_InterviewModelPlugin"><path codeLine="61" d="M603.96,206.9488 C698.243,229.2858 826.819,259.7428 914.844,280.5958 " fill="none" id="EvaluateInterviewsController-to-InterviewModelPlugin" style="stroke:#181818;stroke-width:0.6999999999999998;"/><polygon fill="#181818" points="918.484,281.4568,913.0016,277.2766,915.0788,280.6479,911.7075,282.725,918.484,281.4568" style="stroke:#181818;stroke-width:0.6999999999999998;"/><text fill="#000000" font-family="FG Virgil" font-size="9.1" lengthAdjust="spacing" textLength="23.8" x="748.65" y="238.4546">plugin</text></g><!--link PersistenceContext to RepositoryFactory--><g id="link_PersistenceContext_RepositoryFactory"><path codeLine="62" d="M396.55,449.8768 C396.55,465.5918 396.55,486.2908 396.55,501.3408 " fill="none" id="PersistenceContext-to-RepositoryFactory" style="stroke:#181818;stroke-width:0.6999999999999998;"/><polygon fill="#181818" points="396.55,504.8478,399.35,498.5478,396.55,501.3478,393.75,498.5478,396.55,504.8478" style="stroke:#181818;stroke-width:0.6999999999999998;"/><text fill="#000000" font-family="FG Virgil" font-size="9.1" lengthAdjust="spacing" textLength="27.3" x="397.25" y="481.3546">factory</text></g><!--link RepositoryFactory to InterviewRepository--><g id="link_RepositoryFactory_InterviewRepository"><path codeLine="63" d="M396.55,538.8188 C396.55,552.9448 396.55,573.7138 396.55,590.2688 " fill="none" id="RepositoryFactory-to-InterviewRepository" style="stroke:#181818;stroke-width:0.6999999999999998;"/><polygon fill="#181818" points="396.55,593.9438,399.35,587.6438,396.55,590.4438,393.75,587.6438,396.55,593.9438" style="stroke:#181818;stroke-width:0.6999999999999998;"/><text fill="#000000" font-family="FG Virgil" font-size="9.1" lengthAdjust="spacing" textLength="77" x="397.25" y="570.2546">interview repository</text></g><!--link RepositoryFactory to JobApplicationRepository--><g id="link_RepositoryFactory_JobApplicationRepository"><path codeLine="64" d="M346.57,538.7978 C328.251,544.9928 307.433,552.3568 288.75,559.7348 C263.508,569.7098 235.97,581.8758 212.975,592.4038 " fill="none" id="RepositoryFactory-to-JobApplicationRepository" style="stroke:#181818;stroke-width:0.6999999999999998;"/><polygon fill="#181818" points="209.615,593.9438,216.5087,593.8597,212.7958,592.4834,214.1721,588.7705,209.615,593.9438" style="stroke:#181818;stroke-width:0.6999999999999998;"/><text fill="#000000" font-family="FG Virgil" font-size="9.1" lengthAdjust="spacing" textLength="100.8" x="289.45" y="570.2546">job application repository</text></g><!--link RepositoryFactory to InterviewModelRepository--><g id="link_RepositoryFactory_InterviewModelRepository"><path codeLine="65" d="M437.465,538.8188 C474.964,553.6518 530.985,575.8138 573.727,592.7258 " fill="none" id="RepositoryFactory-to-InterviewModelRepository" style="stroke:#181818;stroke-width:0.6999999999999998;"/><polygon fill="#181818" points="577.038,594.0348,572.1972,589.126,573.7801,592.7556,570.1505,594.3386,577.038,594.0348" style="stroke:#181818;stroke-width:0.6999999999999998;"/><text fill="#000000" font-family="FG Virgil" font-size="9.1" lengthAdjust="spacing" textLength="104.3" x="523.95" y="570.2546">interview model repository</text></g><!--SRC=[fLLjRzem4FwUNt7Vbchj7uYgIfIEYahRKDds_OWFSgkn8zl0qBJ_FZj0uf0GLerFphqypvsVE-FOIO9FMvGRT0HJvSXicNOMnXAjXIV6bS5radomRwnA3EVw10KgiJFi72bOehGK-KhCtt15SxVt18Po5_a4BN4ZtKGhzmNN19Dd-C5cnJAAiGKAlMErEY8dULNGgTIcqkzJ-9s0_ts4XTQIK87GyqBlqfkZUUvCm2a8XMH5tlxdCjpO5sMqb6HgsAdtuKBI_OjUZCfISewEjNe0b3BwjkcHwATUlDAI3AcSJZLiDGkWSxPJXk1mGzhi9onfXgwuXJONO7E-XLwUkgTsvZmmvNIz6SdMZVwb8K_4eO4bUjWsoYkLsd9ev3hVafLutBz4qEbmNpCorjSOh44a-kLg4kiyQ0uD_GIhw_I3TxGmsLZtMW4FqJK-RbYAU03E7JjsnRUmEgUINVYu6Gf_yhgdOvIa11eG_cim_BCM9Fikf5Q_b9iLgx0_7I1O1AJqJAhQtQDIDPuMjvJoAQhAxaklIkl1-5e6OL7UjoFVfVH5lbdLRLUHxawDb0ZR_snGa1rOi0QYtNBl2tDtzp3yLcJW2eAyDYI3qG6kVqqpi8TJqkyFcJsBa45vC5xd_R_iph1cXs5BEevMj0-hR_aT9B7qsN7Yavu6Gb9t-JF_rr6TagwlHHCDSrHdytXS0hZu-6LXikCt-phMnVMAAre7NuoL_0K0]--></g></svg>