<?xml version="1.0" encoding="us-ascii" standalone="no"?><svg xmlns="http://www.w3.org/2000/svg" xmlns:xlink="http://www.w3.org/1999/xlink" contentStyleType="text/css" height="778px" preserveAspectRatio="none" style="width:1566px;height:778px;background:#FFFFFF;" version="1.1" viewBox="0 0 1566 778" width="1566px" zoomAndPan="magnify"><defs/><g><!--class Application--><g id="elem_Application"><rect codeLine="1" fill="#F1F1F1" height="76.543" id="Application" rx="2.5" ry="2.5" style="stroke:#181818;stroke-width:0.5;" width="101" x="560.23" y="376"/><ellipse cx="575.23" cy="406.2715" fill="#ADD1B2" rx="11" ry="11" style="stroke:#181818;stroke-width:1.0;"/><path d="M574.0894,407.0684 L574.0894,409.5684 L578.4175,409.5684 L578.4175,408.6465 Q578.4175,408.0371 578.6519,407.7715 Q578.9019,407.5059 579.2769,407.5059 Q579.6519,407.5059 579.8863,407.7715 Q580.1206,408.0371 580.1206,408.6465 L580.1206,411.2715 L572.1206,411.2715 Q571.4956,411.2715 571.23,411.0371 Q570.98,410.8027 570.98,410.4121 Q570.98,410.0371 571.2456,409.8027 Q571.5113,409.5684 572.1206,409.5684 L572.3863,409.5684 L572.3863,402.9121 L572.1206,402.9121 Q571.4956,402.9121 571.23,402.6777 Q570.98,402.4434 570.98,402.0527 Q570.98,401.6777 571.23,401.4434 Q571.4956,401.209 572.1206,401.209 L579.7456,401.209 L579.7456,403.8027 Q579.7456,404.4121 579.5113,404.6777 Q579.2925,404.9277 578.9019,404.9277 Q578.5269,404.9277 578.2925,404.6777 Q578.0581,404.4121 578.0581,403.8027 L578.0581,402.9121 L574.0894,402.9121 L574.0894,405.3652 L575.5738,405.3652 Q575.5738,404.709 575.6988,404.5215 Q575.9644,404.1152 576.4331,404.1152 Q576.8081,404.1152 577.0425,404.3809 Q577.2769,404.6309 577.2769,405.2402 L577.2769,407.209 Q577.2769,407.7559 577.1519,407.9434 Q576.8863,408.334 576.4331,408.334 Q575.9644,408.334 575.6988,407.9277 Q575.5738,407.7402 575.5738,407.0684 L574.0894,407.0684 Z " fill="#000000"/><text fill="#000000" font-family="sans-serif" font-size="12" font-style="italic" lengthAdjust="spacing" textLength="43" x="602.23" y="393.9492">&#171;entity&#187;</text><text fill="#000000" font-family="sans-serif" font-size="12" font-style="italic" lengthAdjust="spacing" textLength="35" x="606.23" y="409.9102">&#171;root&#187;</text><text fill="#000000" font-family="sans-serif" font-size="14" lengthAdjust="spacing" textLength="69" x="589.23" y="428.0293">Application</text><line style="stroke:#181818;stroke-width:0.5;" x1="561.23" x2="660.23" y1="436.543" y2="436.543"/><line style="stroke:#181818;stroke-width:0.5;" x1="561.23" x2="660.23" y1="444.543" y2="444.543"/></g><!--class ApplicationDate--><g id="elem_ApplicationDate"><rect codeLine="3" fill="#F1F1F1" height="60.582" id="ApplicationDate" rx="2.5" ry="2.5" style="stroke:#181818;stroke-width:0.5;" width="131" x="486.23" y="514"/><ellipse cx="501.23" cy="536.291" fill="#ADD1B2" rx="11" ry="11" style="stroke:#181818;stroke-width:1.0;"/><path d="M503.9956,532.166 Q504.1519,531.9473 504.3394,531.8379 Q504.5269,531.7285 504.7456,531.7285 Q505.1206,531.7285 505.355,531.9941 Q505.5894,532.2441 505.5894,532.8535 L505.5894,534.3066 Q505.5894,534.916 505.355,535.1816 Q505.1206,535.4473 504.7456,535.4473 Q504.4019,535.4473 504.1988,535.2441 Q503.9956,535.0566 503.8863,534.541 Q503.8394,534.1816 503.6519,533.9941 Q503.3238,533.6191 502.7144,533.4004 Q502.105,533.1816 501.48,533.1816 Q500.7144,533.1816 500.0738,533.5098 Q499.4488,533.8379 498.9488,534.5879 Q498.4644,535.3379 498.4644,536.3691 L498.4644,537.4629 Q498.4644,538.6973 499.355,539.5254 Q500.2456,540.3379 501.8394,540.3379 Q502.7769,540.3379 503.4331,540.0879 Q503.8238,539.9316 504.2456,539.4941 Q504.5113,539.2285 504.6519,539.1504 Q504.8081,539.0723 505.0113,539.0723 Q505.3394,539.0723 505.5894,539.3379 Q505.855,539.5879 505.855,539.9316 Q505.855,540.2754 505.5113,540.6816 Q505.0113,541.2598 504.2144,541.5879 Q503.1363,542.041 501.8394,542.041 Q500.3238,542.041 499.1206,541.416 Q498.1363,540.916 497.4488,539.8535 Q496.7613,538.7754 496.7613,537.4941 L496.7613,536.3379 Q496.7613,535.0098 497.3706,533.8691 Q497.9956,532.7129 499.0894,532.1035 Q500.1831,531.4785 501.4175,531.4785 Q502.1519,531.4785 502.7925,531.6504 Q503.4488,531.8066 503.9956,532.166 Z " fill="#000000"/><text fill="#000000" font-family="sans-serif" font-size="12" font-style="italic" lengthAdjust="spacing" textLength="46" x="541.73" y="531.9492">&#171;Value&#187;</text><text fill="#000000" font-family="sans-serif" font-size="14" lengthAdjust="spacing" textLength="99" x="515.23" y="550.0684">ApplicationDate</text><line style="stroke:#181818;stroke-width:0.5;" x1="487.23" x2="616.23" y1="558.582" y2="558.582"/><line style="stroke:#181818;stroke-width:0.5;" x1="487.23" x2="616.23" y1="566.582" y2="566.582"/></g><!--class ApplicationStatus--><g id="elem_ApplicationStatus"><rect codeLine="6" fill="#F1F1F1" height="135.0664" id="ApplicationStatus" rx="2.5" ry="2.5" style="stroke:#181818;stroke-width:0.5;" width="141" x="600.23" y="636"/><ellipse cx="615.23" cy="658.291" fill="#EB937F" rx="11" ry="11" style="stroke:#181818;stroke-width:1.0;"/><path d="M614.0894,659.0879 L614.0894,661.5879 L618.4175,661.5879 L618.4175,660.666 Q618.4175,660.0566 618.6519,659.791 Q618.9019,659.5254 619.2769,659.5254 Q619.6519,659.5254 619.8863,659.791 Q620.1206,660.0566 620.1206,660.666 L620.1206,663.291 L612.1206,663.291 Q611.4956,663.291 611.23,663.0566 Q610.98,662.8223 610.98,662.4316 Q610.98,662.0566 611.2456,661.8223 Q611.5113,661.5879 612.1206,661.5879 L612.3863,661.5879 L612.3863,654.9316 L612.1206,654.9316 Q611.4956,654.9316 611.23,654.6973 Q610.98,654.4629 610.98,654.0723 Q610.98,653.6973 611.23,653.4629 Q611.4956,653.2285 612.1206,653.2285 L619.7456,653.2285 L619.7456,655.8223 Q619.7456,656.4316 619.5113,656.6973 Q619.2925,656.9473 618.9019,656.9473 Q618.5269,656.9473 618.2925,656.6973 Q618.0581,656.4316 618.0581,655.8223 L618.0581,654.9316 L614.0894,654.9316 L614.0894,657.3848 L615.5738,657.3848 Q615.5738,656.7285 615.6988,656.541 Q615.9644,656.1348 616.4331,656.1348 Q616.8081,656.1348 617.0425,656.4004 Q617.2769,656.6504 617.2769,657.2598 L617.2769,659.2285 Q617.2769,659.7754 617.1519,659.9629 Q616.8863,660.3535 616.4331,660.3535 Q615.9644,660.3535 615.6988,659.9473 Q615.5738,659.7598 615.5738,659.0879 L614.0894,659.0879 Z " fill="#000000"/><text fill="#000000" font-family="sans-serif" font-size="12" font-style="italic" lengthAdjust="spacing" textLength="46" x="660.73" y="653.9492">&#171;Value&#187;</text><text fill="#000000" font-family="sans-serif" font-size="14" lengthAdjust="spacing" textLength="109" x="629.23" y="672.0684">ApplicationStatus</text><line style="stroke:#181818;stroke-width:0.5;" x1="601.23" x2="740.23" y1="680.582" y2="680.582"/><text fill="#000000" font-family="sans-serif" font-size="14" lengthAdjust="spacing" textLength="61" x="606.23" y="699.6895">Approved</text><text fill="#000000" font-family="sans-serif" font-size="14" lengthAdjust="spacing" textLength="45" x="606.23" y="718.3105">Denied</text><text fill="#000000" font-family="sans-serif" font-size="14" lengthAdjust="spacing" textLength="102" x="606.23" y="736.9316">WaitingInterview</text><text fill="#000000" font-family="sans-serif" font-size="14" lengthAdjust="spacing" textLength="68" x="606.23" y="755.5527">InProgress</text><line style="stroke:#181818;stroke-width:0.5;" x1="601.23" x2="740.23" y1="763.0664" y2="763.0664"/></g><!--class JobOpening--><g id="elem_JobOpening"><rect codeLine="13" fill="#F1F1F1" height="95.1641" id="JobOpening" rx="2.5" ry="2.5" style="stroke:#181818;stroke-width:0.5;" width="108" x="653.73" y="7"/><ellipse cx="668.73" cy="37.2715" fill="#ADD1B2" rx="11" ry="11" style="stroke:#181818;stroke-width:1.0;"/><path d="M667.5894,38.0684 L667.5894,40.5684 L671.9175,40.5684 L671.9175,39.6465 Q671.9175,39.0371 672.1519,38.7715 Q672.4019,38.5059 672.7769,38.5059 Q673.1519,38.5059 673.3863,38.7715 Q673.6206,39.0371 673.6206,39.6465 L673.6206,42.2715 L665.6206,42.2715 Q664.9956,42.2715 664.73,42.0371 Q664.48,41.8027 664.48,41.4121 Q664.48,41.0371 664.7456,40.8027 Q665.0113,40.5684 665.6206,40.5684 L665.8863,40.5684 L665.8863,33.9121 L665.6206,33.9121 Q664.9956,33.9121 664.73,33.6777 Q664.48,33.4434 664.48,33.0527 Q664.48,32.6777 664.73,32.4434 Q664.9956,32.209 665.6206,32.209 L673.2456,32.209 L673.2456,34.8027 Q673.2456,35.4121 673.0113,35.6777 Q672.7925,35.9277 672.4019,35.9277 Q672.0269,35.9277 671.7925,35.6777 Q671.5581,35.4121 671.5581,34.8027 L671.5581,33.9121 L667.5894,33.9121 L667.5894,36.3652 L669.0738,36.3652 Q669.0738,35.709 669.1988,35.5215 Q669.4644,35.1152 669.9331,35.1152 Q670.3081,35.1152 670.5425,35.3809 Q670.7769,35.6309 670.7769,36.2402 L670.7769,38.209 Q670.7769,38.7559 670.6519,38.9434 Q670.3863,39.334 669.9331,39.334 Q669.4644,39.334 669.1988,38.9277 Q669.0738,38.7402 669.0738,38.0684 L667.5894,38.0684 Z " fill="#000000"/><text fill="#000000" font-family="sans-serif" font-size="12" font-style="italic" lengthAdjust="spacing" textLength="35" x="703.23" y="24.9492">&#171;root&#187;</text><text fill="#000000" font-family="sans-serif" font-size="12" font-style="italic" lengthAdjust="spacing" textLength="43" x="699.23" y="40.9102">&#171;entity&#187;</text><text fill="#000000" font-family="sans-serif" font-size="14" lengthAdjust="spacing" textLength="76" x="682.73" y="59.0293">JobOpening</text><line style="stroke:#181818;stroke-width:0.5;" x1="654.73" x2="760.73" y1="67.543" y2="67.543"/><text fill="#000000" font-family="sans-serif" font-size="14" lengthAdjust="spacing" textLength="69" x="659.73" y="86.6504">description</text><line style="stroke:#181818;stroke-width:0.5;" x1="654.73" x2="760.73" y1="94.1641" y2="94.1641"/></g><!--class JobReference--><g id="elem_JobReference"><rect codeLine="17" fill="#F1F1F1" height="60.582" id="JobReference" rx="2.5" ry="2.5" style="stroke:#181818;stroke-width:0.5;" width="120" x="79.73" y="208.5"/><ellipse cx="94.73" cy="230.791" fill="#ADD1B2" rx="11" ry="11" style="stroke:#181818;stroke-width:1.0;"/><path d="M97.4956,226.666 Q97.6519,226.4473 97.8394,226.3379 Q98.0269,226.2285 98.2456,226.2285 Q98.6206,226.2285 98.855,226.4941 Q99.0894,226.7441 99.0894,227.3535 L99.0894,228.8066 Q99.0894,229.416 98.855,229.6816 Q98.6206,229.9473 98.2456,229.9473 Q97.9019,229.9473 97.6988,229.7441 Q97.4956,229.5566 97.3863,229.041 Q97.3394,228.6816 97.1519,228.4941 Q96.8238,228.1191 96.2144,227.9004 Q95.605,227.6816 94.98,227.6816 Q94.2144,227.6816 93.5738,228.0098 Q92.9488,228.3379 92.4488,229.0879 Q91.9644,229.8379 91.9644,230.8691 L91.9644,231.9629 Q91.9644,233.1973 92.855,234.0254 Q93.7456,234.8379 95.3394,234.8379 Q96.2769,234.8379 96.9331,234.5879 Q97.3238,234.4316 97.7456,233.9941 Q98.0113,233.7285 98.1519,233.6504 Q98.3081,233.5723 98.5113,233.5723 Q98.8394,233.5723 99.0894,233.8379 Q99.355,234.0879 99.355,234.4316 Q99.355,234.7754 99.0113,235.1816 Q98.5113,235.7598 97.7144,236.0879 Q96.6363,236.541 95.3394,236.541 Q93.8238,236.541 92.6206,235.916 Q91.6363,235.416 90.9488,234.3535 Q90.2613,233.2754 90.2613,231.9941 L90.2613,230.8379 Q90.2613,229.5098 90.8706,228.3691 Q91.4956,227.2129 92.5894,226.6035 Q93.6831,225.9785 94.9175,225.9785 Q95.6519,225.9785 96.2925,226.1504 Q96.9488,226.3066 97.4956,226.666 Z " fill="#000000"/><text fill="#000000" font-family="sans-serif" font-size="12" font-style="italic" lengthAdjust="spacing" textLength="46" x="129.73" y="226.4492">&#171;Value&#187;</text><text fill="#000000" font-family="sans-serif" font-size="14" lengthAdjust="spacing" textLength="88" x="108.73" y="244.5684">JobReference</text><line style="stroke:#181818;stroke-width:0.5;" x1="80.73" x2="198.73" y1="253.082" y2="253.082"/><line style="stroke:#181818;stroke-width:0.5;" x1="80.73" x2="198.73" y1="261.082" y2="261.082"/></g><!--class NumberOfVacancies--><g id="elem_NumberOfVacancies"><rect codeLine="20" fill="#F1F1F1" height="60.582" id="NumberOfVacancies" rx="2.5" ry="2.5" style="stroke:#181818;stroke-width:0.5;" width="161" x="235.23" y="208.5"/><ellipse cx="250.23" cy="230.791" fill="#ADD1B2" rx="11" ry="11" style="stroke:#181818;stroke-width:1.0;"/><path d="M252.9956,226.666 Q253.1519,226.4473 253.3394,226.3379 Q253.5269,226.2285 253.7456,226.2285 Q254.1206,226.2285 254.355,226.4941 Q254.5894,226.7441 254.5894,227.3535 L254.5894,228.8066 Q254.5894,229.416 254.355,229.6816 Q254.1206,229.9473 253.7456,229.9473 Q253.4019,229.9473 253.1988,229.7441 Q252.9956,229.5566 252.8863,229.041 Q252.8394,228.6816 252.6519,228.4941 Q252.3238,228.1191 251.7144,227.9004 Q251.105,227.6816 250.48,227.6816 Q249.7144,227.6816 249.0738,228.0098 Q248.4488,228.3379 247.9488,229.0879 Q247.4644,229.8379 247.4644,230.8691 L247.4644,231.9629 Q247.4644,233.1973 248.355,234.0254 Q249.2456,234.8379 250.8394,234.8379 Q251.7769,234.8379 252.4331,234.5879 Q252.8238,234.4316 253.2456,233.9941 Q253.5113,233.7285 253.6519,233.6504 Q253.8081,233.5723 254.0113,233.5723 Q254.3394,233.5723 254.5894,233.8379 Q254.855,234.0879 254.855,234.4316 Q254.855,234.7754 254.5113,235.1816 Q254.0113,235.7598 253.2144,236.0879 Q252.1363,236.541 250.8394,236.541 Q249.3238,236.541 248.1206,235.916 Q247.1363,235.416 246.4488,234.3535 Q245.7613,233.2754 245.7613,231.9941 L245.7613,230.8379 Q245.7613,229.5098 246.3706,228.3691 Q246.9956,227.2129 248.0894,226.6035 Q249.1831,225.9785 250.4175,225.9785 Q251.1519,225.9785 251.7925,226.1504 Q252.4488,226.3066 252.9956,226.666 Z " fill="#000000"/><text fill="#000000" font-family="sans-serif" font-size="12" font-style="italic" lengthAdjust="spacing" textLength="46" x="305.73" y="226.4492">&#171;Value&#187;</text><text fill="#000000" font-family="sans-serif" font-size="14" lengthAdjust="spacing" textLength="129" x="264.23" y="244.5684">NumberOfVacancies</text><line style="stroke:#181818;stroke-width:0.5;" x1="236.23" x2="395.23" y1="253.082" y2="253.082"/><line style="stroke:#181818;stroke-width:0.5;" x1="236.23" x2="395.23" y1="261.082" y2="261.082"/></g><!--class ContractType--><g id="elem_ContractType"><rect codeLine="23" fill="#F1F1F1" height="97.8242" id="ContractType" rx="2.5" ry="2.5" style="stroke:#181818;stroke-width:0.5;" width="118" x="431.73" y="190"/><ellipse cx="446.73" cy="212.291" fill="#EB937F" rx="11" ry="11" style="stroke:#181818;stroke-width:1.0;"/><path d="M445.5894,213.0879 L445.5894,215.5879 L449.9175,215.5879 L449.9175,214.666 Q449.9175,214.0566 450.1519,213.791 Q450.4019,213.5254 450.7769,213.5254 Q451.1519,213.5254 451.3863,213.791 Q451.6206,214.0566 451.6206,214.666 L451.6206,217.291 L443.6206,217.291 Q442.9956,217.291 442.73,217.0566 Q442.48,216.8223 442.48,216.4316 Q442.48,216.0566 442.7456,215.8223 Q443.0113,215.5879 443.6206,215.5879 L443.8863,215.5879 L443.8863,208.9316 L443.6206,208.9316 Q442.9956,208.9316 442.73,208.6973 Q442.48,208.4629 442.48,208.0723 Q442.48,207.6973 442.73,207.4629 Q442.9956,207.2285 443.6206,207.2285 L451.2456,207.2285 L451.2456,209.8223 Q451.2456,210.4316 451.0113,210.6973 Q450.7925,210.9473 450.4019,210.9473 Q450.0269,210.9473 449.7925,210.6973 Q449.5581,210.4316 449.5581,209.8223 L449.5581,208.9316 L445.5894,208.9316 L445.5894,211.3848 L447.0738,211.3848 Q447.0738,210.7285 447.1988,210.541 Q447.4644,210.1348 447.9331,210.1348 Q448.3081,210.1348 448.5425,210.4004 Q448.7769,210.6504 448.7769,211.2598 L448.7769,213.2285 Q448.7769,213.7754 448.6519,213.9629 Q448.3863,214.3535 447.9331,214.3535 Q447.4644,214.3535 447.1988,213.9473 Q447.0738,213.7598 447.0738,213.0879 L445.5894,213.0879 Z " fill="#000000"/><text fill="#000000" font-family="sans-serif" font-size="12" font-style="italic" lengthAdjust="spacing" textLength="46" x="480.73" y="207.9492">&#171;Value&#187;</text><text fill="#000000" font-family="sans-serif" font-size="14" lengthAdjust="spacing" textLength="86" x="460.73" y="226.0684">ContractType</text><line style="stroke:#181818;stroke-width:0.5;" x1="432.73" x2="548.73" y1="234.582" y2="234.582"/><text fill="#000000" font-family="sans-serif" font-size="14" lengthAdjust="spacing" textLength="49" x="437.73" y="253.6895">full-time</text><text fill="#000000" font-family="sans-serif" font-size="14" lengthAdjust="spacing" textLength="56" x="437.73" y="272.3105">part-time</text><line style="stroke:#181818;stroke-width:0.5;" x1="432.73" x2="548.73" y1="279.8242" y2="279.8242"/></g><!--class WorkRegime--><g id="elem_WorkRegime"><rect codeLine="28" fill="#F1F1F1" height="116.4453" id="WorkRegime" rx="2.5" ry="2.5" style="stroke:#181818;stroke-width:0.5;" width="113" x="585.23" y="181"/><ellipse cx="600.23" cy="203.291" fill="#EB937F" rx="11" ry="11" style="stroke:#181818;stroke-width:1.0;"/><path d="M599.0894,204.0879 L599.0894,206.5879 L603.4175,206.5879 L603.4175,205.666 Q603.4175,205.0566 603.6519,204.791 Q603.9019,204.5254 604.2769,204.5254 Q604.6519,204.5254 604.8863,204.791 Q605.1206,205.0566 605.1206,205.666 L605.1206,208.291 L597.1206,208.291 Q596.4956,208.291 596.23,208.0566 Q595.98,207.8223 595.98,207.4316 Q595.98,207.0566 596.2456,206.8223 Q596.5113,206.5879 597.1206,206.5879 L597.3863,206.5879 L597.3863,199.9316 L597.1206,199.9316 Q596.4956,199.9316 596.23,199.6973 Q595.98,199.4629 595.98,199.0723 Q595.98,198.6973 596.23,198.4629 Q596.4956,198.2285 597.1206,198.2285 L604.7456,198.2285 L604.7456,200.8223 Q604.7456,201.4316 604.5113,201.6973 Q604.2925,201.9473 603.9019,201.9473 Q603.5269,201.9473 603.2925,201.6973 Q603.0581,201.4316 603.0581,200.8223 L603.0581,199.9316 L599.0894,199.9316 L599.0894,202.3848 L600.5738,202.3848 Q600.5738,201.7285 600.6988,201.541 Q600.9644,201.1348 601.4331,201.1348 Q601.8081,201.1348 602.0425,201.4004 Q602.2769,201.6504 602.2769,202.2598 L602.2769,204.2285 Q602.2769,204.7754 602.1519,204.9629 Q601.8863,205.3535 601.4331,205.3535 Q600.9644,205.3535 600.6988,204.9473 Q600.5738,204.7598 600.5738,204.0879 L599.0894,204.0879 Z " fill="#000000"/><text fill="#000000" font-family="sans-serif" font-size="12" font-style="italic" lengthAdjust="spacing" textLength="46" x="631.73" y="198.9492">&#171;Value&#187;</text><text fill="#000000" font-family="sans-serif" font-size="14" lengthAdjust="spacing" textLength="81" x="614.23" y="217.0684">WorkRegime</text><line style="stroke:#181818;stroke-width:0.5;" x1="586.23" x2="697.23" y1="225.582" y2="225.582"/><text fill="#000000" font-family="sans-serif" font-size="14" lengthAdjust="spacing" textLength="44" x="591.23" y="244.6895">remote</text><text fill="#000000" font-family="sans-serif" font-size="14" lengthAdjust="spacing" textLength="39" x="591.23" y="263.3105">hybrid</text><text fill="#000000" font-family="sans-serif" font-size="14" lengthAdjust="spacing" textLength="38" x="591.23" y="281.9316">onsite</text><line style="stroke:#181818;stroke-width:0.5;" x1="586.23" x2="697.23" y1="289.4453" y2="289.4453"/></g><!--class JobTitle--><g id="elem_JobTitle"><rect codeLine="34" fill="#F1F1F1" height="60.582" id="JobTitle" rx="2.5" ry="2.5" style="stroke:#181818;stroke-width:0.5;" width="81" x="733.23" y="208.5"/><ellipse cx="748.23" cy="230.791" fill="#ADD1B2" rx="11" ry="11" style="stroke:#181818;stroke-width:1.0;"/><path d="M750.9956,226.666 Q751.1519,226.4473 751.3394,226.3379 Q751.5269,226.2285 751.7456,226.2285 Q752.1206,226.2285 752.355,226.4941 Q752.5894,226.7441 752.5894,227.3535 L752.5894,228.8066 Q752.5894,229.416 752.355,229.6816 Q752.1206,229.9473 751.7456,229.9473 Q751.4019,229.9473 751.1988,229.7441 Q750.9956,229.5566 750.8863,229.041 Q750.8394,228.6816 750.6519,228.4941 Q750.3238,228.1191 749.7144,227.9004 Q749.105,227.6816 748.48,227.6816 Q747.7144,227.6816 747.0738,228.0098 Q746.4488,228.3379 745.9488,229.0879 Q745.4644,229.8379 745.4644,230.8691 L745.4644,231.9629 Q745.4644,233.1973 746.355,234.0254 Q747.2456,234.8379 748.8394,234.8379 Q749.7769,234.8379 750.4331,234.5879 Q750.8238,234.4316 751.2456,233.9941 Q751.5113,233.7285 751.6519,233.6504 Q751.8081,233.5723 752.0113,233.5723 Q752.3394,233.5723 752.5894,233.8379 Q752.855,234.0879 752.855,234.4316 Q752.855,234.7754 752.5113,235.1816 Q752.0113,235.7598 751.2144,236.0879 Q750.1363,236.541 748.8394,236.541 Q747.3238,236.541 746.1206,235.916 Q745.1363,235.416 744.4488,234.3535 Q743.7613,233.2754 743.7613,231.9941 L743.7613,230.8379 Q743.7613,229.5098 744.3706,228.3691 Q744.9956,227.2129 746.0894,226.6035 Q747.1831,225.9785 748.4175,225.9785 Q749.1519,225.9785 749.7925,226.1504 Q750.4488,226.3066 750.9956,226.666 Z " fill="#000000"/><text fill="#000000" font-family="sans-serif" font-size="12" font-style="italic" lengthAdjust="spacing" textLength="46" x="763.73" y="226.4492">&#171;Value&#187;</text><text fill="#000000" font-family="sans-serif" font-size="14" lengthAdjust="spacing" textLength="49" x="762.23" y="244.5684">JobTitle</text><line style="stroke:#181818;stroke-width:0.5;" x1="734.23" x2="813.23" y1="253.082" y2="253.082"/><line style="stroke:#181818;stroke-width:0.5;" x1="734.23" x2="813.23" y1="261.082" y2="261.082"/></g><!--class Operator--><g id="elem_Operator"><rect codeLine="37" fill="#F1F1F1" height="60.582" id="Operator" rx="2.5" ry="2.5" style="stroke:#181818;stroke-width:0.5;" width="89" x="1154.23" y="208.5"/><ellipse cx="1169.23" cy="230.791" fill="#ADD1B2" rx="11" ry="11" style="stroke:#181818;stroke-width:1.0;"/><path d="M1171.9956,226.666 Q1172.1519,226.4473 1172.3394,226.3379 Q1172.5269,226.2285 1172.7456,226.2285 Q1173.1206,226.2285 1173.355,226.4941 Q1173.5894,226.7441 1173.5894,227.3535 L1173.5894,228.8066 Q1173.5894,229.416 1173.355,229.6816 Q1173.1206,229.9473 1172.7456,229.9473 Q1172.4019,229.9473 1172.1988,229.7441 Q1171.9956,229.5566 1171.8863,229.041 Q1171.8394,228.6816 1171.6519,228.4941 Q1171.3238,228.1191 1170.7144,227.9004 Q1170.105,227.6816 1169.48,227.6816 Q1168.7144,227.6816 1168.0738,228.0098 Q1167.4488,228.3379 1166.9488,229.0879 Q1166.4644,229.8379 1166.4644,230.8691 L1166.4644,231.9629 Q1166.4644,233.1973 1167.355,234.0254 Q1168.2456,234.8379 1169.8394,234.8379 Q1170.7769,234.8379 1171.4331,234.5879 Q1171.8238,234.4316 1172.2456,233.9941 Q1172.5113,233.7285 1172.6519,233.6504 Q1172.8081,233.5723 1173.0113,233.5723 Q1173.3394,233.5723 1173.5894,233.8379 Q1173.855,234.0879 1173.855,234.4316 Q1173.855,234.7754 1173.5113,235.1816 Q1173.0113,235.7598 1172.2144,236.0879 Q1171.1363,236.541 1169.8394,236.541 Q1168.3238,236.541 1167.1206,235.916 Q1166.1363,235.416 1165.4488,234.3535 Q1164.7613,233.2754 1164.7613,231.9941 L1164.7613,230.8379 Q1164.7613,229.5098 1165.3706,228.3691 Q1165.9956,227.2129 1167.0894,226.6035 Q1168.1831,225.9785 1169.4175,225.9785 Q1170.1519,225.9785 1170.7925,226.1504 Q1171.4488,226.3066 1171.9956,226.666 Z " fill="#000000"/><text fill="#000000" font-family="sans-serif" font-size="12" font-style="italic" lengthAdjust="spacing" textLength="43" x="1190.23" y="226.4492">&#171;entity&#187;</text><text fill="#000000" font-family="sans-serif" font-size="14" lengthAdjust="spacing" textLength="57" x="1183.23" y="244.5684">Operator</text><line style="stroke:#181818;stroke-width:0.5;" x1="1155.23" x2="1242.23" y1="253.082" y2="253.082"/><line style="stroke:#181818;stroke-width:0.5;" x1="1155.23" x2="1242.23" y1="261.082" y2="261.082"/></g><!--class JobRequirements--><g id="elem_JobRequirements"><rect fill="#F1F1F1" height="48" id="JobRequirements" rx="2.5" ry="2.5" style="stroke:#181818;stroke-width:0.5;" width="142" x="849.73" y="215"/><ellipse cx="864.73" cy="231" fill="#ADD1B2" rx="11" ry="11" style="stroke:#181818;stroke-width:1.0;"/><path d="M867.4956,226.875 Q867.6519,226.6563 867.8394,226.5469 Q868.0269,226.4375 868.2456,226.4375 Q868.6206,226.4375 868.855,226.7031 Q869.0894,226.9531 869.0894,227.5625 L869.0894,229.0156 Q869.0894,229.625 868.855,229.8906 Q868.6206,230.1563 868.2456,230.1563 Q867.9019,230.1563 867.6988,229.9531 Q867.4956,229.7656 867.3863,229.25 Q867.3394,228.8906 867.1519,228.7031 Q866.8238,228.3281 866.2144,228.1094 Q865.605,227.8906 864.98,227.8906 Q864.2144,227.8906 863.5738,228.2188 Q862.9488,228.5469 862.4488,229.2969 Q861.9644,230.0469 861.9644,231.0781 L861.9644,232.1719 Q861.9644,233.4063 862.855,234.2344 Q863.7456,235.0469 865.3394,235.0469 Q866.2769,235.0469 866.9331,234.7969 Q867.3238,234.6406 867.7456,234.2031 Q868.0113,233.9375 868.1519,233.8594 Q868.3081,233.7813 868.5113,233.7813 Q868.8394,233.7813 869.0894,234.0469 Q869.355,234.2969 869.355,234.6406 Q869.355,234.9844 869.0113,235.3906 Q868.5113,235.9688 867.7144,236.2969 Q866.6363,236.75 865.3394,236.75 Q863.8238,236.75 862.6206,236.125 Q861.6363,235.625 860.9488,234.5625 Q860.2613,233.4844 860.2613,232.2031 L860.2613,231.0469 Q860.2613,229.7188 860.8706,228.5781 Q861.4956,227.4219 862.5894,226.8125 Q863.6831,226.1875 864.9175,226.1875 Q865.6519,226.1875 866.2925,226.3594 Q866.9488,226.5156 867.4956,226.875 Z " fill="#000000"/><text fill="#000000" font-family="sans-serif" font-size="14" lengthAdjust="spacing" textLength="110" x="878.73" y="236.7969">JobRequirements</text><line style="stroke:#181818;stroke-width:0.5;" x1="850.73" x2="990.73" y1="247" y2="247"/><line style="stroke:#181818;stroke-width:0.5;" x1="850.73" x2="990.73" y1="255" y2="255"/></g><!--class Company--><g id="elem_Company"><rect fill="#F1F1F1" height="48" id="Company" rx="2.5" ry="2.5" style="stroke:#181818;stroke-width:0.5;" width="92" x="1026.73" y="215"/><ellipse cx="1041.73" cy="231" fill="#ADD1B2" rx="11" ry="11" style="stroke:#181818;stroke-width:1.0;"/><path d="M1044.4956,226.875 Q1044.6519,226.6563 1044.8394,226.5469 Q1045.0269,226.4375 1045.2456,226.4375 Q1045.6206,226.4375 1045.855,226.7031 Q1046.0894,226.9531 1046.0894,227.5625 L1046.0894,229.0156 Q1046.0894,229.625 1045.855,229.8906 Q1045.6206,230.1563 1045.2456,230.1563 Q1044.9019,230.1563 1044.6988,229.9531 Q1044.4956,229.7656 1044.3863,229.25 Q1044.3394,228.8906 1044.1519,228.7031 Q1043.8238,228.3281 1043.2144,228.1094 Q1042.605,227.8906 1041.98,227.8906 Q1041.2144,227.8906 1040.5738,228.2188 Q1039.9488,228.5469 1039.4488,229.2969 Q1038.9644,230.0469 1038.9644,231.0781 L1038.9644,232.1719 Q1038.9644,233.4063 1039.855,234.2344 Q1040.7456,235.0469 1042.3394,235.0469 Q1043.2769,235.0469 1043.9331,234.7969 Q1044.3238,234.6406 1044.7456,234.2031 Q1045.0113,233.9375 1045.1519,233.8594 Q1045.3081,233.7813 1045.5113,233.7813 Q1045.8394,233.7813 1046.0894,234.0469 Q1046.355,234.2969 1046.355,234.6406 Q1046.355,234.9844 1046.0113,235.3906 Q1045.5113,235.9688 1044.7144,236.2969 Q1043.6363,236.75 1042.3394,236.75 Q1040.8238,236.75 1039.6206,236.125 Q1038.6363,235.625 1037.9488,234.5625 Q1037.2613,233.4844 1037.2613,232.2031 L1037.2613,231.0469 Q1037.2613,229.7188 1037.8706,228.5781 Q1038.4956,227.4219 1039.5894,226.8125 Q1040.6831,226.1875 1041.9175,226.1875 Q1042.6519,226.1875 1043.2925,226.3594 Q1043.9488,226.5156 1044.4956,226.875 Z " fill="#000000"/><text fill="#000000" font-family="sans-serif" font-size="14" lengthAdjust="spacing" textLength="60" x="1055.73" y="236.7969">Company</text><line style="stroke:#181818;stroke-width:0.5;" x1="1027.73" x2="1117.73" y1="247" y2="247"/><line style="stroke:#181818;stroke-width:0.5;" x1="1027.73" x2="1117.73" y1="255" y2="255"/></g><!--class JobOpeningProcess--><g id="elem_JobOpeningProcess"><rect fill="#F1F1F1" height="48" id="JobOpeningProcess" rx="2.5" ry="2.5" style="stroke:#181818;stroke-width:0.5;" width="159" x="1400.23" y="215"/><ellipse cx="1415.23" cy="231" fill="#ADD1B2" rx="11" ry="11" style="stroke:#181818;stroke-width:1.0;"/><path d="M1417.9956,226.875 Q1418.1519,226.6563 1418.3394,226.5469 Q1418.5269,226.4375 1418.7456,226.4375 Q1419.1206,226.4375 1419.355,226.7031 Q1419.5894,226.9531 1419.5894,227.5625 L1419.5894,229.0156 Q1419.5894,229.625 1419.355,229.8906 Q1419.1206,230.1563 1418.7456,230.1563 Q1418.4019,230.1563 1418.1988,229.9531 Q1417.9956,229.7656 1417.8863,229.25 Q1417.8394,228.8906 1417.6519,228.7031 Q1417.3238,228.3281 1416.7144,228.1094 Q1416.105,227.8906 1415.48,227.8906 Q1414.7144,227.8906 1414.0738,228.2188 Q1413.4488,228.5469 1412.9488,229.2969 Q1412.4644,230.0469 1412.4644,231.0781 L1412.4644,232.1719 Q1412.4644,233.4063 1413.355,234.2344 Q1414.2456,235.0469 1415.8394,235.0469 Q1416.7769,235.0469 1417.4331,234.7969 Q1417.8238,234.6406 1418.2456,234.2031 Q1418.5113,233.9375 1418.6519,233.8594 Q1418.8081,233.7813 1419.0113,233.7813 Q1419.3394,233.7813 1419.5894,234.0469 Q1419.855,234.2969 1419.855,234.6406 Q1419.855,234.9844 1419.5113,235.3906 Q1419.0113,235.9688 1418.2144,236.2969 Q1417.1363,236.75 1415.8394,236.75 Q1414.3238,236.75 1413.1206,236.125 Q1412.1363,235.625 1411.4488,234.5625 Q1410.7613,233.4844 1410.7613,232.2031 L1410.7613,231.0469 Q1410.7613,229.7188 1411.3706,228.5781 Q1411.9956,227.4219 1413.0894,226.8125 Q1414.1831,226.1875 1415.4175,226.1875 Q1416.1519,226.1875 1416.7925,226.3594 Q1417.4488,226.5156 1417.9956,226.875 Z " fill="#000000"/><text fill="#000000" font-family="sans-serif" font-size="14" lengthAdjust="spacing" textLength="127" x="1429.23" y="236.7969">JobOpeningProcess</text><line style="stroke:#181818;stroke-width:0.5;" x1="1401.23" x2="1558.23" y1="247" y2="247"/><line style="stroke:#181818;stroke-width:0.5;" x1="1401.23" x2="1558.23" y1="255" y2="255"/></g><!--class JobOpeningStatus--><g id="elem_JobOpeningStatus"><rect fill="#F1F1F1" height="48" id="JobOpeningStatus" rx="2.5" ry="2.5" style="stroke:#181818;stroke-width:0.5;" width="148" x="1405.73" y="390.5"/><ellipse cx="1420.73" cy="406.5" fill="#ADD1B2" rx="11" ry="11" style="stroke:#181818;stroke-width:1.0;"/><path d="M1423.4956,402.375 Q1423.6519,402.1563 1423.8394,402.0469 Q1424.0269,401.9375 1424.2456,401.9375 Q1424.6206,401.9375 1424.855,402.2031 Q1425.0894,402.4531 1425.0894,403.0625 L1425.0894,404.5156 Q1425.0894,405.125 1424.855,405.3906 Q1424.6206,405.6563 1424.2456,405.6563 Q1423.9019,405.6563 1423.6988,405.4531 Q1423.4956,405.2656 1423.3863,404.75 Q1423.3394,404.3906 1423.1519,404.2031 Q1422.8238,403.8281 1422.2144,403.6094 Q1421.605,403.3906 1420.98,403.3906 Q1420.2144,403.3906 1419.5738,403.7188 Q1418.9488,404.0469 1418.4488,404.7969 Q1417.9644,405.5469 1417.9644,406.5781 L1417.9644,407.6719 Q1417.9644,408.9063 1418.855,409.7344 Q1419.7456,410.5469 1421.3394,410.5469 Q1422.2769,410.5469 1422.9331,410.2969 Q1423.3238,410.1406 1423.7456,409.7031 Q1424.0113,409.4375 1424.1519,409.3594 Q1424.3081,409.2813 1424.5113,409.2813 Q1424.8394,409.2813 1425.0894,409.5469 Q1425.355,409.7969 1425.355,410.1406 Q1425.355,410.4844 1425.0113,410.8906 Q1424.5113,411.4688 1423.7144,411.7969 Q1422.6363,412.25 1421.3394,412.25 Q1419.8238,412.25 1418.6206,411.625 Q1417.6363,411.125 1416.9488,410.0625 Q1416.2613,408.9844 1416.2613,407.7031 L1416.2613,406.5469 Q1416.2613,405.2188 1416.8706,404.0781 Q1417.4956,402.9219 1418.5894,402.3125 Q1419.6831,401.6875 1420.9175,401.6875 Q1421.6519,401.6875 1422.2925,401.8594 Q1422.9488,402.0156 1423.4956,402.375 Z " fill="#000000"/><text fill="#000000" font-family="sans-serif" font-size="14" lengthAdjust="spacing" textLength="116" x="1434.73" y="412.2969">JobOpeningStatus</text><line style="stroke:#181818;stroke-width:0.5;" x1="1406.73" x2="1552.73" y1="422.5" y2="422.5"/><line style="stroke:#181818;stroke-width:0.5;" x1="1406.73" x2="1552.73" y1="430.5" y2="430.5"/></g><!--class Interview--><g id="elem_Interview"><rect fill="#F1F1F1" height="48" id="Interview" rx="2.5" ry="2.5" style="stroke:#181818;stroke-width:0.5;" width="87" x="1278.23" y="215"/><ellipse cx="1293.23" cy="231" fill="#ADD1B2" rx="11" ry="11" style="stroke:#181818;stroke-width:1.0;"/><path d="M1295.9956,226.875 Q1296.1519,226.6563 1296.3394,226.5469 Q1296.5269,226.4375 1296.7456,226.4375 Q1297.1206,226.4375 1297.355,226.7031 Q1297.5894,226.9531 1297.5894,227.5625 L1297.5894,229.0156 Q1297.5894,229.625 1297.355,229.8906 Q1297.1206,230.1563 1296.7456,230.1563 Q1296.4019,230.1563 1296.1988,229.9531 Q1295.9956,229.7656 1295.8863,229.25 Q1295.8394,228.8906 1295.6519,228.7031 Q1295.3238,228.3281 1294.7144,228.1094 Q1294.105,227.8906 1293.48,227.8906 Q1292.7144,227.8906 1292.0738,228.2188 Q1291.4488,228.5469 1290.9488,229.2969 Q1290.4644,230.0469 1290.4644,231.0781 L1290.4644,232.1719 Q1290.4644,233.4063 1291.355,234.2344 Q1292.2456,235.0469 1293.8394,235.0469 Q1294.7769,235.0469 1295.4331,234.7969 Q1295.8238,234.6406 1296.2456,234.2031 Q1296.5113,233.9375 1296.6519,233.8594 Q1296.8081,233.7813 1297.0113,233.7813 Q1297.3394,233.7813 1297.5894,234.0469 Q1297.855,234.2969 1297.855,234.6406 Q1297.855,234.9844 1297.5113,235.3906 Q1297.0113,235.9688 1296.2144,236.2969 Q1295.1363,236.75 1293.8394,236.75 Q1292.3238,236.75 1291.1206,236.125 Q1290.1363,235.625 1289.4488,234.5625 Q1288.7613,233.4844 1288.7613,232.2031 L1288.7613,231.0469 Q1288.7613,229.7188 1289.3706,228.5781 Q1289.9956,227.4219 1291.0894,226.8125 Q1292.1831,226.1875 1293.4175,226.1875 Q1294.1519,226.1875 1294.7925,226.3594 Q1295.4488,226.5156 1295.9956,226.875 Z " fill="#000000"/><text fill="#000000" font-family="sans-serif" font-size="14" lengthAdjust="spacing" textLength="55" x="1307.23" y="236.7969">Interview</text><line style="stroke:#181818;stroke-width:0.5;" x1="1279.23" x2="1364.23" y1="247" y2="247"/><line style="stroke:#181818;stroke-width:0.5;" x1="1279.23" x2="1364.23" y1="255" y2="255"/></g><!--link Application to ApplicationDate--><g id="link_Application_ApplicationDate"><path codeLine="40" d="M593.35,453.21 C585.21,470.87 575.58,491.77 567.63,509 " fill="none" id="Application-to-ApplicationDate" style="stroke:#181818;stroke-width:1.0;"/><polygon fill="#181818" points="565.44,513.76,572.8304,507.2498,567.5262,509.216,565.56,503.9119,565.44,513.76" style="stroke:#181818;stroke-width:1.0;"/><text fill="#000000" font-family="sans-serif" font-size="13" lengthAdjust="spacing" textLength="7" x="583.1528" y="474.5246">1</text><text fill="#000000" font-family="sans-serif" font-size="13" lengthAdjust="spacing" textLength="7" x="560.5458" y="502.7682">1</text></g><!--link Application to ApplicationStatus--><g id="link_Application_ApplicationStatus"><path codeLine="41" d="M620.41,453.28 C624.97,471.57 630.36,493.88 634.73,514 C643.06,552.32 651.34,595.26 657.85,630.46 " fill="none" id="Application-to-ApplicationStatus" style="stroke:#181818;stroke-width:1.0;"/><polygon fill="#181818" points="658.8,635.6,661.0863,626.0202,657.8855,630.6843,653.2213,627.4835,658.8,635.6" style="stroke:#181818;stroke-width:1.0;"/><text fill="#000000" font-family="sans-serif" font-size="13" lengthAdjust="spacing" textLength="7" x="614.3563" y="474.6053">1</text><text fill="#000000" font-family="sans-serif" font-size="13" lengthAdjust="spacing" textLength="7" x="650.2088" y="624.7612">1</text></g><!--link JobOpening to JobTitle--><g id="link_JobOpening_JobTitle"><path codeLine="42" d="M724.56,102.02 C736,133.67 750.9,174.85 761.28,203.57 " fill="none" id="JobOpening-to-JobTitle" style="stroke:#181818;stroke-width:1.0;"/><polygon fill="#181818" points="763.04,208.42,763.7403,198.5961,761.3393,203.7181,756.2173,201.3172,763.04,208.42" style="stroke:#181818;stroke-width:1.0;"/><text fill="#000000" font-family="sans-serif" font-size="13" lengthAdjust="spacing" textLength="49" x="741.73" y="147.0283">contains</text><text fill="#000000" font-family="sans-serif" font-size="13" lengthAdjust="spacing" textLength="7" x="719.5178" y="124.2856">1</text><text fill="#000000" font-family="sans-serif" font-size="13" lengthAdjust="spacing" textLength="7" x="753.1133" y="197.4612">1</text></g><!--link JobOpening to ContractType--><g id="link_JobOpening_ContractType"><path codeLine="43" d="M653.53,101.08 C622.65,127.05 583.86,159.68 551.89,186.56 " fill="none" id="JobOpening-to-ContractType" style="stroke:#181818;stroke-width:1.0;"/><polygon fill="#181818" points="548.03,189.81,557.4948,187.0866,551.8594,186.595,552.3509,180.9596,548.03,189.81" style="stroke:#181818;stroke-width:1.0;"/><text fill="#000000" font-family="sans-serif" font-size="13" lengthAdjust="spacing" textLength="7" x="638.7766" y="122.5182">1</text><text fill="#000000" font-family="sans-serif" font-size="13" lengthAdjust="spacing" textLength="7" x="548.5956" y="178.7585">1</text></g><!--link JobOpening to WorkRegime--><g id="link_JobOpening_WorkRegime"><path codeLine="44" d="M689.75,102.36 C686.05,112.13 682.23,122.39 678.73,132 C673.55,146.23 668.11,161.59 663.03,176.09 " fill="none" id="JobOpening-to-WorkRegime" style="stroke:#181818;stroke-width:1.0;"/><polygon fill="#181818" points="661.33,180.96,668.0689,173.7776,662.9754,176.2385,660.5145,171.145,661.33,180.96" style="stroke:#181818;stroke-width:1.0;"/><text fill="#000000" font-family="sans-serif" font-size="13" lengthAdjust="spacing" textLength="49" x="679.73" y="147.0283">contains</text><text fill="#000000" font-family="sans-serif" font-size="13" lengthAdjust="spacing" textLength="7" x="679.7294" y="124.3229">1</text><text fill="#000000" font-family="sans-serif" font-size="13" lengthAdjust="spacing" textLength="7" x="656.2922" y="169.8694">1</text></g><!--link JobOpening to NumberOfVacancies--><g id="link_JobOpening_NumberOfVacancies"><path codeLine="45" d="M653.72,76.23 C594.05,99.66 495.58,139.93 413.73,181 C398.75,188.52 382.88,197.35 368.38,205.78 " fill="none" id="JobOpening-to-NumberOfVacancies" style="stroke:#181818;stroke-width:1.0;"/><polygon fill="#181818" points="363.93,208.38,373.7199,207.3043,368.2499,205.8624,369.6918,200.3924,363.93,208.38" style="stroke:#181818;stroke-width:1.0;"/><text fill="#000000" font-family="sans-serif" font-size="13" lengthAdjust="spacing" textLength="21" x="518.73" y="147.0283">has</text><text fill="#000000" font-family="sans-serif" font-size="13" lengthAdjust="spacing" textLength="7" x="638.6327" y="94.5183">1</text><text fill="#000000" font-family="sans-serif" font-size="13" lengthAdjust="spacing" textLength="7" x="366.1494" y="197.4129">1</text></g><!--link JobOpening to JobRequirements--><g id="link_JobOpening_JobRequirements"><path codeLine="46" d="M761.93,100.17 C774.4,110.56 787.57,121.62 799.73,132 C830.99,158.68 866.28,189.7 890.65,211.27 " fill="none" id="JobOpening-to-JobRequirements" style="stroke:#181818;stroke-width:1.0;"/><polygon fill="#181818" points="894.47,214.64,890.3838,205.6788,890.7267,211.3253,885.0802,211.6682,894.47,214.64" style="stroke:#181818;stroke-width:1.0;"/><text fill="#000000" font-family="sans-serif" font-size="13" lengthAdjust="spacing" textLength="46" x="820.73" y="147.0283">requires</text><text fill="#000000" font-family="sans-serif" font-size="13" lengthAdjust="spacing" textLength="7" x="769.6834" y="102.2016">1</text><text fill="#000000" font-family="sans-serif" font-size="13" lengthAdjust="spacing" textLength="7" x="880.216" y="203.6942">1</text></g><!--link JobOpening to JobReference--><g id="link_JobOpening_JobReference"><path codeLine="47" d="M653.61,62.5 C560.79,75.98 366.84,110.64 217.73,181 C204.1,187.43 190.44,196.37 178.43,205.26 " fill="none" id="JobOpening-to-JobReference" style="stroke:#181818;stroke-width:1.0;"/><polygon fill="#181818" points="174.43,208.27,184.025,206.0481,178.4231,205.2609,179.2104,199.6591,174.43,208.27" style="stroke:#181818;stroke-width:1.0;"/><text fill="#000000" font-family="sans-serif" font-size="13" lengthAdjust="spacing" textLength="7" x="638.8673" y="78.754">1</text><text fill="#000000" font-family="sans-serif" font-size="13" lengthAdjust="spacing" textLength="7" x="173.865" y="197.2802">1</text></g><!--link JobOpening to Company--><g id="link_JobOpening_Company"><path codeLine="48" d="M762,72.03 C824.37,92.37 928.45,130.52 1008.73,181 C1022.31,189.54 1035.81,201 1046.88,211.4 " fill="none" id="JobOpening-to-Company" style="stroke:#181818;stroke-width:1.0;"/><polygon fill="#181818" points="1050.53,214.88,1046.7544,205.7836,1046.9029,211.4385,1041.248,211.587,1050.53,214.88" style="stroke:#181818;stroke-width:1.0;"/><text fill="#000000" font-family="sans-serif" font-size="13" lengthAdjust="spacing" textLength="7" x="769.7628" y="70.2803">1</text><text fill="#000000" font-family="sans-serif" font-size="13" lengthAdjust="spacing" textLength="7" x="1036.9444" y="203.5867">1</text></g><!--link JobOpening to JobOpeningProcess--><g id="link_JobOpening_JobOpeningProcess"><path codeLine="49" d="M761.8,57.27 C879.57,62.85 1166.06,85.96 1382.73,181 C1402.52,189.68 1423.32,201.5 1440.56,212.13 " fill="none" id="JobOpening-to-JobOpeningProcess" style="stroke:#181818;stroke-width:1.0;"/><polygon fill="#181818" points="1444.87,214.8,1439.3457,206.6464,1440.626,212.1564,1435.1159,213.4368,1444.87,214.8" style="stroke:#181818;stroke-width:1.0;"/><text fill="#000000" font-family="sans-serif" font-size="13" lengthAdjust="spacing" textLength="21" x="1296.73" y="147.0283">has</text><text fill="#000000" font-family="sans-serif" font-size="13" lengthAdjust="spacing" textLength="7" x="769.8958" y="53.5015">1</text><text fill="#000000" font-family="sans-serif" font-size="13" lengthAdjust="spacing" textLength="20" x="1413.9354" y="203.8932">1..*</text></g><!--link JobOpeningProcess to JobOpeningStatus--><g id="link_JobOpeningProcess_JobOpeningStatus"><path codeLine="50" d="M1479.73,263.04 C1479.73,294.54 1479.73,351.01 1479.73,385.09 " fill="none" id="JobOpeningProcess-to-JobOpeningStatus" style="stroke:#181818;stroke-width:1.0;"/><polygon fill="#181818" points="1479.73,390.37,1483.73,381.37,1479.73,385.37,1475.73,381.37,1479.73,390.37" style="stroke:#181818;stroke-width:1.0;"/><text fill="#000000" font-family="sans-serif" font-size="13" lengthAdjust="spacing" textLength="21" x="1480.73" y="342.0283">has</text><text fill="#000000" font-family="sans-serif" font-size="13" lengthAdjust="spacing" textLength="7" x="1471.8769" y="285.0354">1</text><text fill="#000000" font-family="sans-serif" font-size="13" lengthAdjust="spacing" textLength="20" x="1457.1675" y="379.0742">1..*</text></g><!--link JobOpening to Interview--><g id="link_JobOpening_Interview"><path codeLine="51" d="M762.02,58.45 C864.98,66.01 1093.28,92.26 1260.73,181 C1275,188.56 1288.4,200.34 1298.99,211.23 " fill="none" id="JobOpening-to-Interview" style="stroke:#181818;stroke-width:1.0;"/><polygon fill="#181818" points="1302.47,214.88,1299.1578,205.6048,1299.021,211.26,1293.3658,211.1232,1302.47,214.88" style="stroke:#181818;stroke-width:1.0;"/><text fill="#000000" font-family="sans-serif" font-size="13" lengthAdjust="spacing" textLength="21" x="1191.73" y="147.0283">has</text><text fill="#000000" font-family="sans-serif" font-size="13" lengthAdjust="spacing" textLength="7" x="769.7855" y="74.1598">1</text><text fill="#000000" font-family="sans-serif" font-size="13" lengthAdjust="spacing" textLength="22" x="1272.7159" y="203.5867">0..1</text></g><!--link JobOpening to Application--><g id="link_JobOpening_Application"><path codeLine="52" d="M653.7,57.09 C508.69,62.6 116.67,86.16 38.73,181 C6,220.83 6.12,257.07 38.73,297 C103.63,376.45 423.59,403.1 554.63,410.77 " fill="none" id="JobOpening-to-Application" style="stroke:#181818;stroke-width:1.0;"/><polygon fill="#181818" points="559.96,411.08,551.2029,406.5731,554.9681,410.7948,550.7465,414.56,559.96,411.08" style="stroke:#181818;stroke-width:1.0;"/><text fill="#000000" font-family="sans-serif" font-size="13" lengthAdjust="spacing" textLength="21" x="39.73" y="244.5283">has</text><text fill="#000000" font-family="sans-serif" font-size="13" lengthAdjust="spacing" textLength="7" x="638.6098" y="53.2962">1</text><text fill="#000000" font-family="sans-serif" font-size="13" lengthAdjust="spacing" textLength="7" x="545.3283" y="406.4847">1</text></g><!--link Operator to Application--><g id="link_Operator_Application"><path codeLine="53" d="M1172.28,269.57 C1161.82,279.64 1149.1,290.09 1135.73,297 C978.46,378.26 766.16,403.06 666.62,410.45 " fill="none" id="Operator-to-Application" style="stroke:#181818;stroke-width:1.0;"/><polygon fill="#181818" points="661.38,410.83,670.6523,414.1503,666.3662,410.4585,670.058,406.1724,661.38,410.83" style="stroke:#181818;stroke-width:1.0;"/><text fill="#000000" font-family="sans-serif" font-size="13" lengthAdjust="spacing" textLength="50" x="1056.73" y="342.0283">registers</text><text fill="#000000" font-family="sans-serif" font-size="13" lengthAdjust="spacing" textLength="7" x="1159.5708" y="291.1136">1</text><text fill="#000000" font-family="sans-serif" font-size="13" lengthAdjust="spacing" textLength="7" x="669.3333" y="406.1258">1</text></g><!--SRC=[ZPFDRi8m383lF4N4SH9ekw8AQHeNTXWJGt0EmHHhRT8vBXD2U_UvWPLGQBLJxVgpur-mZ7nGpqMHeT6CpYO9X7_ZiKeISev5KCUVNayfasdlOtQY6OHQwgm4mOx2111icSVS1sikVOCKExazR4ISWCKWh3GosdHg6MYFy2s_flQTN4hWVOYkL8WVidvrwraXhZQzf7f9ltf3RS0Rmg9AebBF_kTAn7yEMo2mfbb6WtmhypNGRBlKHbk3uDlmKFcBiqpQyE9GG8FRbbasOCoXKWfDN2jN4LQEFkUGYkdoKF0do1q7VdTO4rOzKyvwPBXRtW8vkrjQX4aBIREZPkl29ACXglvJNmq6u_1jBC5TyXOzxO70qUJYg7N68sMaXnfj1nntkPsAElcVeBU37gcTxavv3byboc2aUnLE9xN3vshnkWhC2sqFRS1m-D2FB78bHexaJhv_bbRNytbsLVeu78fOtsKxUplqcgqNhMMHGkzIzFA6x_q2]--></g></svg>