<?xml version="1.0" encoding="us-ascii" standalone="no"?><svg xmlns="http://www.w3.org/2000/svg" xmlns:xlink="http://www.w3.org/1999/xlink" contentStyleType="text/css" height="739px" preserveAspectRatio="none" style="width:1974px;height:739px;background:#FFFFFF;" version="1.1" viewBox="0 0 1974 739" width="1974px" zoomAndPan="magnify"><defs/><g><polygon fill="#FFFFFF" points="61.5,121.5332,61.5,121.6033,63.5,121.3951,65.5,121.5976,67.5,121.6664,69.5,121.2954,71.5,121.5332,71.4223,121.5332,71.0735,131.5463,71.1165,141.5595,71.4318,151.5726,70.8086,161.5857,72.0536,171.5988,70.8697,181.612,71.3022,191.6251,71.9319,201.6382,71.4142,211.6513,71.5682,221.6645,71.4681,231.6776,71.6785,241.6907,71.7391,251.7038,72.0857,261.717,72.1711,271.7301,72.1793,281.7432,71.7546,291.7563,71.9636,301.7695,72.2022,311.7826,70.7788,321.7957,72.1785,331.8088,71.2035,341.822,72.0338,351.8351,71.005,361.8482,71.4315,371.8613,72.2416,381.8745,71.4513,391.8876,71.6053,401.9007,71.8386,411.9138,71.9162,421.927,71.4961,431.9401,71.7872,441.9532,70.9276,451.9663,71.7844,461.9795,72.0482,471.9926,71.9445,482.0057,72.113,492.0188,71.0169,502.032,70.8478,512.0451,70.8786,522.0582,71.4411,532.0713,71.3035,542.0845,72.1814,552.0976,71.3253,562.1107,71.1569,572.1238,71.7283,582.137,70.8332,592.1501,70.9809,602.1632,72.149,612.1763,71.5,622.1895,71.5,622.3347,69.5,622.4343,67.5,622.0822,65.5,622.2959,63.5,622.3863,61.5,622.1895,61.0276,622.1895,61.4041,612.1763,61.626,602.1632,62.1518,592.1501,61.4958,582.137,61.9626,572.1238,60.9462,562.1107,60.8227,552.0976,62.0036,542.0845,60.7831,532.0713,62.009,522.0582,61.7066,512.0451,61.2321,502.032,61.1462,492.0188,61.9588,482.0057,61.2007,471.9926,62.0919,461.9795,60.9473,451.9663,62.1174,441.9532,61.9843,431.9401,61.745,421.927,61.5472,411.9138,62.2266,401.9007,62.1136,391.8876,61.6693,381.8745,61.7682,371.8613,61.3697,361.8482,62.2165,351.8351,61.6549,341.822,61.6726,331.8088,60.8916,321.7957,61.0948,311.7826,62.0307,301.7695,61.9298,291.7563,61.4571,281.7432,61.1778,271.7301,61.2811,261.717,60.8138,251.7038,61.9147,241.6907,62.2396,231.6776,62.0264,221.6645,62.1949,211.6513,61.3633,201.6382,61.5872,191.6251,61.1124,181.612,61.784,171.5988,61.7468,161.5857,62.0524,151.5726,61.2703,141.5595,61.3656,131.5463,61.5,121.5332" style="stroke:#181818;stroke-width:1.0;"/><polygon fill="#FFFFFF" points="334.5,121.5332,334.5,121.6033,336.5,121.3951,338.5,121.5976,340.5,121.6664,342.5,121.2954,344.5,121.5332,344.4223,121.5332,344.0735,131.5463,344.1165,141.5595,344.4318,151.5726,343.8086,161.5857,345.0536,171.5988,343.8697,181.612,344.3022,191.6251,344.9319,201.6382,344.4142,211.6513,344.5682,221.6645,344.4681,231.6776,344.6785,241.6907,344.7391,251.7038,345.0857,261.717,345.1711,271.7301,345.1793,281.7432,344.7546,291.7563,344.9636,301.7695,345.2022,311.7826,343.7788,321.7957,345.1785,331.8088,344.2035,341.822,345.0338,351.8351,344.005,361.8482,344.4315,371.8613,345.2416,381.8745,344.4513,391.8876,344.6053,401.9007,344.8386,411.9138,344.9162,421.927,344.4961,431.9401,344.7872,441.9532,343.9276,451.9663,344.7844,461.9795,345.0482,471.9926,344.9445,482.0057,345.113,492.0188,344.0169,502.032,343.8478,512.0451,343.8786,522.0582,344.4411,532.0713,344.3035,542.0845,345.1814,552.0976,344.3253,562.1107,344.1569,572.1238,344.7283,582.137,343.8332,592.1501,343.9809,602.1632,345.149,612.1763,344.5,622.1895,344.5,622.3347,342.5,622.4343,340.5,622.0822,338.5,622.2959,336.5,622.3863,334.5,622.1895,334.0276,622.1895,334.4041,612.1763,334.626,602.1632,335.1518,592.1501,334.4958,582.137,334.9626,572.1238,333.9462,562.1107,333.8227,552.0976,335.0036,542.0845,333.7831,532.0713,335.009,522.0582,334.7066,512.0451,334.2321,502.032,334.1462,492.0188,334.9588,482.0057,334.2007,471.9926,335.0919,461.9795,333.9473,451.9663,335.1174,441.9532,334.9843,431.9401,334.745,421.927,334.5472,411.9138,335.2266,401.9007,335.1136,391.8876,334.6693,381.8745,334.7682,371.8613,334.3697,361.8482,335.2165,351.8351,334.6549,341.822,334.6726,331.8088,333.8916,321.7957,334.0948,311.7826,335.0307,301.7695,334.9298,291.7563,334.4571,281.7432,334.1778,271.7301,334.2811,261.717,333.8138,251.7038,334.9147,241.6907,335.2396,231.6776,335.0264,221.6645,335.1949,211.6513,334.3633,201.6382,334.5872,191.6251,334.1124,181.612,334.784,171.5988,334.7468,161.5857,335.0524,151.5726,334.2703,141.5595,334.3656,131.5463,334.5,121.5332" style="stroke:#181818;stroke-width:1.0;"/><polygon fill="#FFFFFF" points="534.5,559.6074,534.5,559.6775,536.5,559.4693,538.5,559.6719,540.5,559.7406,542.5,559.3696,544.5,559.6074,544.4741,559.6074,544.3578,565.8656,544.3722,572.1238,544.4773,578.382,544.2695,584.6402,544.5,590.8984,544.5,591.083,542.5,590.6883,540.5,590.8325,538.5,591.0424,536.5,590.8698,534.5,590.8984,534.5227,590.8984,534.4894,584.6402,534.5595,578.382,534.5797,572.1238,534.6952,565.8656,534.5,559.6074" style="stroke:#181818;stroke-width:1.0;"/><polygon fill="#FFFFFF" points="1315,277.9883,1315,278.0583,1317,277.8502,1319,278.0527,1321,278.1215,1323,277.7505,1325,277.9883,1324.9223,277.9883,1324.5735,288.0461,1324.6165,298.1039,1324.9318,308.1618,1324.3086,318.2196,1325.5536,328.2774,1324.3697,338.3352,1324.8022,348.3931,1325.4319,358.4509,1324.9142,368.5087,1325.0682,378.5665,1324.9681,388.6244,1325.1785,398.6822,1325.2391,408.74,1325.5857,418.7979,1325.6711,428.8557,1325.6793,438.9135,1325.2546,448.9713,1325.4636,459.0292,1325.7022,469.087,1324.2788,479.1448,1325.6785,489.2026,1324.7035,499.2605,1325.5338,509.3183,1324.505,519.3761,1324.9315,529.4339,1325.7416,539.4918,1324.9513,549.5496,1325,559.6074,1325,559.6425,1323,559.7203,1321,559.7462,1319,559.6061,1317,559.7032,1315,559.6074,1314.4276,559.6074,1315.2844,549.5496,1315.5482,539.4918,1315.4445,529.4339,1315.613,519.3761,1314.5169,509.3183,1314.3478,499.2605,1314.3786,489.2026,1314.9411,479.1448,1314.8035,469.087,1315.6814,459.0292,1314.8253,448.9713,1314.6569,438.9135,1315.2283,428.8557,1314.3332,418.7979,1314.4809,408.74,1315.649,398.6822,1315.4357,388.6244,1315.7345,378.5665,1314.6782,368.5087,1315.3192,358.4509,1315.5904,348.3931,1314.5276,338.3352,1314.9041,328.2774,1315.126,318.2196,1315.6518,308.1618,1314.9958,298.1039,1315.4626,288.0461,1315,277.9883" style="stroke:#181818;stroke-width:1.0;"/><polygon fill="#FFFFFF" points="1754,403.1523,1754,403.2224,1756,403.0142,1758,403.2168,1760,403.2856,1762,402.9145,1764,403.1523,1763.9223,403.1523,1763.5735,413.5827,1763.6165,424.013,1763.9318,434.4434,1763.3086,444.8737,1764.5536,455.304,1764,465.7344,1764,465.5243,1762,465.6685,1760,465.8784,1758,465.7058,1756,465.7571,1754,465.7344,1753.9681,465.7344,1754.1785,455.304,1754.2391,444.8737,1754.5857,434.4434,1754.6711,424.013,1754.6793,413.5827,1754,403.1523" style="stroke:#181818;stroke-width:1.0;"/><polygon fill="#FFFFFF" points="1898.5,497.0254,1898.5,497.0955,1900.5,496.8873,1902.5,497.0898,1904.5,497.1586,1906.5,496.7876,1908.5,497.0254,1908.4741,497.0254,1908.3578,503.2836,1908.3722,509.5418,1908.4773,515.8,1908.2695,522.0582,1908.5,528.3164,1908.5,528.501,1906.5,528.1063,1904.5,528.2505,1902.5,528.4604,1900.5,528.2878,1898.5,528.3164,1898.5227,528.3164,1898.4894,522.0582,1898.5595,515.8,1898.5797,509.5418,1898.6952,503.2836,1898.5,497.0254" style="stroke:#181818;stroke-width:1.0;"/><path d="M66,88.2422 L66.2802,88.2422 L65.4476,98.2776 L66.2577,108.313 L66.5329,118.3484 L65.0488,128.3838 L65.8964,138.4192 L65.4313,148.4546 L65.4887,158.49 L65.9091,168.5254 L65.0782,178.5608 L66.7382,188.5962 L65.1596,198.6316 L65.7363,208.667 L66.5759,218.7025 L65.8856,228.7379 L66.091,238.7733 L65.9574,248.8087 L66.238,258.8441 L66.3188,268.8795 L66.7809,278.9149 L66.8947,288.9503 L66.9057,298.9857 L66.3395,309.0211 L66.6181,319.0565 L66.9363,329.0919 L65.0384,339.1273 L66.9047,349.1627 L65.6047,359.1981 L66.7117,369.2335 L65.34,379.2689 L65.9087,389.3043 L66.9888,399.3397 L65.935,409.3751 L66.1404,419.4105 L66.4515,429.446 L66.555,439.4814 L65.9948,449.5168 L66.383,459.5522 L65.2368,469.5876 L66.3792,479.623 L66.7309,489.6584 L66.5927,499.6938 L66.8174,509.7292 L65.3559,519.7646 L65.1304,529.8 L65.1715,539.8354 L65.9215,549.8708 L65.738,559.9062 L66.9085,569.9416 L65.7671,579.977 L65.5426,590.0124 L66.3044,600.0478 L65.1109,610.0832 L65.3078,620.1186 L66.8653,630.154 L66,640.1895 " fill="none" style="stroke:#181818;stroke-width:0.5;stroke-dasharray:5.0,5.0;"/><path d="M339.5,88.2422 L339.7802,88.2422 L338.9476,98.2776 L339.7577,108.313 L340.0329,118.3484 L338.5488,128.3838 L339.3964,138.4192 L338.9313,148.4546 L338.9887,158.49 L339.4091,168.5254 L338.5782,178.5608 L340.2382,188.5962 L338.6596,198.6316 L339.2363,208.667 L340.0759,218.7025 L339.3856,228.7379 L339.591,238.7733 L339.4574,248.8087 L339.738,258.8441 L339.8188,268.8795 L340.2809,278.9149 L340.3947,288.9503 L340.4057,298.9857 L339.8395,309.0211 L340.1181,319.0565 L340.4363,329.0919 L338.5384,339.1273 L340.4047,349.1627 L339.1047,359.1981 L340.2117,369.2335 L338.84,379.2689 L339.4087,389.3043 L340.4888,399.3397 L339.435,409.3751 L339.6404,419.4105 L339.9515,429.446 L340.055,439.4814 L339.4948,449.5168 L339.883,459.5522 L338.7368,469.5876 L339.8792,479.623 L340.2309,489.6584 L340.0927,499.6938 L340.3174,509.7292 L338.8559,519.7646 L338.6304,529.8 L338.6715,539.8354 L339.4215,549.8708 L339.238,559.9062 L340.4085,569.9416 L339.2671,579.977 L339.0426,590.0124 L339.8044,600.0478 L338.6109,610.0832 L338.8078,620.1186 L340.3653,630.154 L339.5,640.1895 " fill="none" style="stroke:#181818;stroke-width:0.5;stroke-dasharray:5.0,5.0;"/><path d="M534.5,88.2422 L534.7802,88.2422 L533.9476,98.2776 L534.7577,108.313 L535.0329,118.3484 L533.5488,128.3838 L534.3964,138.4192 L533.9313,148.4546 L533.9887,158.49 L534.4091,168.5254 L533.5782,178.5608 L535.2382,188.5962 L533.6596,198.6316 L534.2363,208.667 L535.0759,218.7025 L534.3856,228.7379 L534.591,238.7733 L534.4574,248.8087 L534.738,258.8441 L534.8188,268.8795 L535.2809,278.9149 L535.3947,288.9503 L535.4057,298.9857 L534.8395,309.0211 L535.1181,319.0565 L535.4363,329.0919 L533.5384,339.1273 L535.4047,349.1627 L534.1047,359.1981 L535.2117,369.2335 L533.84,379.2689 L534.4087,389.3043 L535.4888,399.3397 L534.435,409.3751 L534.6404,419.4105 L534.9515,429.446 L535.055,439.4814 L534.4948,449.5168 L534.883,459.5522 L533.7368,469.5876 L534.8792,479.623 L535.2309,489.6584 L535.0927,499.6938 L535.3174,509.7292 L533.8559,519.7646 L533.6304,529.8 L533.6715,539.8354 L534.4215,549.8708 L534.238,559.9062 L535.4085,569.9416 L534.2671,579.977 L534.0426,590.0124 L534.8044,600.0478 L533.6109,610.0832 L533.8078,620.1186 L535.3653,630.154 L534.5,640.1895 " fill="none" style="stroke:#181818;stroke-width:0.5;stroke-dasharray:5.0,5.0;"/><path d="M1175,88.2422 L1175.2802,88.2422 L1174.4476,98.2776 L1175.2577,108.313 L1175.5329,118.3484 L1174.0488,128.3838 L1174.8964,138.4192 L1174.4313,148.4546 L1174.4887,158.49 L1174.9091,168.5254 L1174.0782,178.5608 L1175.7382,188.5962 L1174.1596,198.6316 L1174.7363,208.667 L1175.5759,218.7025 L1174.8856,228.7379 L1175.091,238.7733 L1174.9574,248.8087 L1175.238,258.8441 L1175.3188,268.8795 L1175.7809,278.9149 L1175.8947,288.9503 L1175.9057,298.9857 L1175.3395,309.0211 L1175.6181,319.0565 L1175.9363,329.0919 L1174.0384,339.1273 L1175.9047,349.1627 L1174.6047,359.1981 L1175.7117,369.2335 L1174.34,379.2689 L1174.9087,389.3043 L1175.9888,399.3397 L1174.935,409.3751 L1175.1404,419.4105 L1175.4515,429.446 L1175.555,439.4814 L1174.9948,449.5168 L1175.383,459.5522 L1174.2368,469.5876 L1175.3792,479.623 L1175.7309,489.6584 L1175.5927,499.6938 L1175.8174,509.7292 L1174.3559,519.7646 L1174.1304,529.8 L1174.1715,539.8354 L1174.9215,549.8708 L1174.738,559.9062 L1175.9085,569.9416 L1174.7671,579.977 L1174.5426,590.0124 L1175.3044,600.0478 L1174.1109,610.0832 L1174.3078,620.1186 L1175.8653,630.154 L1175,640.1895 " fill="none" style="stroke:#181818;stroke-width:0.5;stroke-dasharray:5.0,5.0;"/><path d="M1320,88.2422 L1320.2802,88.2422 L1319.4476,98.2776 L1320.2577,108.313 L1320.5329,118.3484 L1319.0488,128.3838 L1319.8964,138.4192 L1319.4313,148.4546 L1319.4887,158.49 L1319.9091,168.5254 L1319.0782,178.5608 L1320.7382,188.5962 L1319.1596,198.6316 L1319.7363,208.667 L1320.5759,218.7025 L1319.8856,228.7379 L1320.091,238.7733 L1319.9574,248.8087 L1320.238,258.8441 L1320.3188,268.8795 L1320.7809,278.9149 L1320.8947,288.9503 L1320.9057,298.9857 L1320.3395,309.0211 L1320.6181,319.0565 L1320.9363,329.0919 L1319.0384,339.1273 L1320.9047,349.1627 L1319.6047,359.1981 L1320.7117,369.2335 L1319.34,379.2689 L1319.9087,389.3043 L1320.9888,399.3397 L1319.935,409.3751 L1320.1404,419.4105 L1320.4515,429.446 L1320.555,439.4814 L1319.9948,449.5168 L1320.383,459.5522 L1319.2368,469.5876 L1320.3792,479.623 L1320.7309,489.6584 L1320.5927,499.6938 L1320.8174,509.7292 L1319.3559,519.7646 L1319.1304,529.8 L1319.1715,539.8354 L1319.9215,549.8708 L1319.738,559.9062 L1320.9085,569.9416 L1319.7671,579.977 L1319.5426,590.0124 L1320.3044,600.0478 L1319.1109,610.0832 L1319.3078,620.1186 L1320.8653,630.154 L1320,640.1895 " fill="none" style="stroke:#181818;stroke-width:0.5;stroke-dasharray:5.0,5.0;"/><path d="M1465,88.2422 L1465.2802,88.2422 L1464.4476,98.2776 L1465.2577,108.313 L1465.5329,118.3484 L1464.0488,128.3838 L1464.8964,138.4192 L1464.4313,148.4546 L1464.4887,158.49 L1464.9091,168.5254 L1464.0782,178.5608 L1465.7382,188.5962 L1464.1596,198.6316 L1464.7363,208.667 L1465.5759,218.7025 L1464.8856,228.7379 L1465.091,238.7733 L1464.9574,248.8087 L1465.238,258.8441 L1465.3188,268.8795 L1465.7809,278.9149 L1465.8947,288.9503 L1465.9057,298.9857 L1465.3395,309.0211 L1465.6181,319.0565 L1465.9363,329.0919 L1464.0384,339.1273 L1465.9047,349.1627 L1464.6047,359.1981 L1465.7117,369.2335 L1464.34,379.2689 L1464.9087,389.3043 L1465.9888,399.3397 L1464.935,409.3751 L1465.1404,419.4105 L1465.4515,429.446 L1465.555,439.4814 L1464.9948,449.5168 L1465.383,459.5522 L1464.2368,469.5876 L1465.3792,479.623 L1465.7309,489.6584 L1465.5927,499.6938 L1465.8174,509.7292 L1464.3559,519.7646 L1464.1304,529.8 L1464.1715,539.8354 L1464.9215,549.8708 L1464.738,559.9062 L1465.9085,569.9416 L1464.7671,579.977 L1464.5426,590.0124 L1465.3044,600.0478 L1464.1109,610.0832 L1464.3078,620.1186 L1465.8653,630.154 L1465,640.1895 " fill="none" style="stroke:#181818;stroke-width:0.5;stroke-dasharray:5.0,5.0;"/><path d="M1616,88.2422 L1616.2802,88.2422 L1615.4476,98.2776 L1616.2577,108.313 L1616.5329,118.3484 L1615.0488,128.3838 L1615.8964,138.4192 L1615.4313,148.4546 L1615.4887,158.49 L1615.9091,168.5254 L1615.0782,178.5608 L1616.7382,188.5962 L1615.1596,198.6316 L1615.7363,208.667 L1616.5759,218.7025 L1615.8856,228.7379 L1616.091,238.7733 L1615.9574,248.8087 L1616.238,258.8441 L1616.3188,268.8795 L1616.7809,278.9149 L1616.8947,288.9503 L1616.9057,298.9857 L1616.3395,309.0211 L1616.6181,319.0565 L1616.9363,329.0919 L1615.0384,339.1273 L1616.9047,349.1627 L1615.6047,359.1981 L1616.7117,369.2335 L1615.34,379.2689 L1615.9087,389.3043 L1616.9888,399.3397 L1615.935,409.3751 L1616.1404,419.4105 L1616.4515,429.446 L1616.555,439.4814 L1615.9948,449.5168 L1616.383,459.5522 L1615.2368,469.5876 L1616.3792,479.623 L1616.7309,489.6584 L1616.5927,499.6938 L1616.8174,509.7292 L1615.3559,519.7646 L1615.1304,529.8 L1615.1715,539.8354 L1615.9215,549.8708 L1615.738,559.9062 L1616.9085,569.9416 L1615.7671,579.977 L1615.5426,590.0124 L1616.3044,600.0478 L1615.1109,610.0832 L1615.3078,620.1186 L1616.8653,630.154 L1616,640.1895 " fill="none" style="stroke:#181818;stroke-width:0.5;stroke-dasharray:5.0,5.0;"/><path d="M1759,88.2422 L1759.2802,88.2422 L1758.4476,98.2776 L1759.2577,108.313 L1759.5329,118.3484 L1758.0488,128.3838 L1758.8964,138.4192 L1758.4313,148.4546 L1758.4887,158.49 L1758.9091,168.5254 L1758.0782,178.5608 L1759.7382,188.5962 L1758.1596,198.6316 L1758.7363,208.667 L1759.5759,218.7025 L1758.8856,228.7379 L1759.091,238.7733 L1758.9574,248.8087 L1759.238,258.8441 L1759.3188,268.8795 L1759.7809,278.9149 L1759.8947,288.9503 L1759.9057,298.9857 L1759.3395,309.0211 L1759.6181,319.0565 L1759.9363,329.0919 L1758.0384,339.1273 L1759.9047,349.1627 L1758.6047,359.1981 L1759.7117,369.2335 L1758.34,379.2689 L1758.9087,389.3043 L1759.9888,399.3397 L1758.935,409.3751 L1759.1404,419.4105 L1759.4515,429.446 L1759.555,439.4814 L1758.9948,449.5168 L1759.383,459.5522 L1758.2368,469.5876 L1759.3792,479.623 L1759.7309,489.6584 L1759.5927,499.6938 L1759.8174,509.7292 L1758.3559,519.7646 L1758.1304,529.8 L1758.1715,539.8354 L1758.9215,549.8708 L1758.738,559.9062 L1759.9085,569.9416 L1758.7671,579.977 L1758.5426,590.0124 L1759.3044,600.0478 L1758.1109,610.0832 L1758.3078,620.1186 L1759.8653,630.154 L1759,640.1895 " fill="none" style="stroke:#181818;stroke-width:0.5;stroke-dasharray:5.0,5.0;"/><path d="M1903,88.2422 L1903.2802,88.2422 L1902.4476,98.2776 L1903.2577,108.313 L1903.5329,118.3484 L1902.0488,128.3838 L1902.8964,138.4192 L1902.4313,148.4546 L1902.4887,158.49 L1902.9091,168.5254 L1902.0782,178.5608 L1903.7382,188.5962 L1902.1596,198.6316 L1902.7363,208.667 L1903.5759,218.7025 L1902.8856,228.7379 L1903.091,238.7733 L1902.9574,248.8087 L1903.238,258.8441 L1903.3188,268.8795 L1903.7809,278.9149 L1903.8947,288.9503 L1903.9057,298.9857 L1903.3395,309.0211 L1903.6181,319.0565 L1903.9363,329.0919 L1902.0384,339.1273 L1903.9047,349.1627 L1902.6047,359.1981 L1903.7117,369.2335 L1902.34,379.2689 L1902.9087,389.3043 L1903.9888,399.3397 L1902.935,409.3751 L1903.1404,419.4105 L1903.4515,429.446 L1903.555,439.4814 L1902.9948,449.5168 L1903.383,459.5522 L1902.2368,469.5876 L1903.3792,479.623 L1903.7309,489.6584 L1903.5927,499.6938 L1903.8174,509.7292 L1902.3559,519.7646 L1902.1304,529.8 L1902.1715,539.8354 L1902.9215,549.8708 L1902.738,559.9062 L1903.9085,569.9416 L1902.7671,579.977 L1902.5426,590.0124 L1903.3044,600.0478 L1902.1109,610.0832 L1902.3078,620.1186 L1903.8653,630.154 L1903,640.1895 " fill="none" style="stroke:#181818;stroke-width:0.5;stroke-dasharray:5.0,5.0;"/><text fill="#000000" font-family="FG Virgil" font-size="14" lengthAdjust="spacing" textLength="117" x="5" y="84.7285">CustomerManager</text><polygon fill="#E3E3E3" points="74.5442,20.067,73.3715,21.6693,71.9845,24.0162,70.0008,25.5977,67.9163,26.4626,66.2542,26.5377,64.118,25.456,62.1023,24.7494,60.5724,23.3147,59.7699,21.6722,59.2939,20.3644,58.8277,18.6561,58.0709,17.1862,58.6525,15.7509,59.162,14.1787,61.074,12.9353,62.4192,11.3219,64.0843,10.7861,66.0637,10.3248,68.6021,10.5989,69.9924,11.2546,71.6089,11.5518,73.5743,13.5654,74.2595,15.6912,74.5571,17.1417,74.22,19.5319" style="stroke:#181818;stroke-width:0.5;"/><path d="M66.5,26.1211 L66.6868,26.1211 L66.1317,31.5211 L66.6718,36.9211 L66.8553,42.3211 L65.8659,47.7211 L66.5,53.1211 M53.5,34.1211 L53.5,34.052 L58.7,33.742 L63.9,33.7802 L69.1,34.0605 L74.3,33.5065 L79.5,34.1211 M66.5,53.1211 L66.8719,53.4434 L63.4766,55.7542 L61.1672,59.006 L58.9901,62.3726 L56.0424,65.0712 L53.5,68.1211 M66.5,53.1211 L66.5458,53.1608 L69.0785,56.1025 L71.8199,59.225 L74.4606,62.2603 L77.2934,65.4621 L79.5,68.1211 " fill="none" style="stroke:#181818;stroke-width:0.5;"/><text fill="#000000" font-family="FG Virgil" font-size="14" lengthAdjust="spacing" textLength="117" x="5" y="654.2969">CustomerManager</text><polygon fill="#E3E3E3" points="74.5442,668.2565,73.3715,669.8588,71.9845,672.2056,70.0008,673.7872,67.9163,674.6521,66.2542,674.7271,64.118,673.6455,62.1023,672.9389,60.5724,671.5041,59.7699,669.8617,59.2939,668.5538,58.8277,666.8456,58.0709,665.3756,58.6525,663.9404,59.162,662.3682,61.074,661.1247,62.4192,659.5113,64.0843,658.9756,66.0637,658.5142,68.6021,658.7883,69.9924,659.444,71.6089,659.7412,73.5743,661.7549,74.2595,663.8807,74.5571,665.3312,74.22,667.7214" style="stroke:#181818;stroke-width:0.5;"/><path d="M66.5,674.3105 L66.6868,674.3105 L66.1317,679.7105 L66.6718,685.1105 L66.8553,690.5105 L65.8659,695.9105 L66.5,701.3105 M53.5,682.3105 L53.5,682.2415 L58.7,681.9314 L63.9,681.9697 L69.1,682.25 L74.3,681.696 L79.5,682.3105 M66.5,701.3105 L66.8719,701.6329 L63.4766,703.9436 L61.1672,707.1954 L58.9901,710.562 L56.0424,713.2606 L53.5,716.3105 M66.5,701.3105 L66.5458,701.3503 L69.0785,704.2919 L71.8199,707.4145 L74.4606,710.4498 L77.2934,713.6515 L79.5,716.3105 " fill="none" style="stroke:#181818;stroke-width:0.5;"/><polygon fill="#E3E3E3" points="262,36,262,36.2102,271.6875,35.5857,281.375,36.1933,291.0625,36.3997,300.75,35.2866,310.4375,35.9223,320.125,35.5735,329.8125,35.6165,339.5,35.9318,349.1875,35.3086,358.875,36.5536,368.5625,35.3697,378.25,35.8022,387.9375,36.4319,397.625,35.9142,407.3125,36.0682,417,36,416.9959,35.9902,417.3763,36.2014,417.7376,36.3665,418.1354,36.6197,418.4998,36.7924,418.7678,36.7322,418.977,36.8189,418.9926,37.1183,419.2034,37.4985,419.4234,37.8825,419.1315,38.0545,419.5,38.5,420.1785,38.5,419.2035,47.7484,420.0338,56.9969,419.005,66.2453,419.4315,75.4938,419.5,84.7422,419.7284,84.8368,419.3385,85.0895,419.2395,85.4627,419.1649,85.846,419.0424,86.2095,418.7678,86.51,418.7673,86.5088,418.4509,86.7449,417.9876,86.6266,417.7434,87.0369,417.4235,87.2646,417,87.2422,417,87.6867,407.3125,87.8552,397.625,86.7591,387.9375,86.59,378.25,86.6208,368.5625,87.1833,358.875,87.0457,349.1875,87.9236,339.5,87.0675,329.8125,86.8991,320.125,87.4705,310.4375,86.5753,300.75,86.7231,291.0625,87.8911,281.375,87.6779,271.6875,87.9767,262,87.2422,261.959,87.1431,261.6872,87.194,261.3682,87.1311,260.8791,86.6574,260.5736,86.6269,260.2322,86.51,260.271,86.526,260.2865,86.2395,259.938,85.8023,259.9353,85.5083,259.4759,85.0251,259.5,84.7422,258.8227,84.7422,260.0036,75.4938,258.7831,66.2453,260.009,56.9969,259.7066,47.7484,259.5,38.5,259.4175,38.4658,259.5375,38.1013,259.9342,37.8514,259.8472,37.4012,260.2681,37.1613,260.2322,36.7322,260.1617,36.562,260.6645,36.7759,261.0011,36.5885,261.3241,36.3683,261.6525,36.161,262,36" style="stroke:#181818;stroke-width:0.5;"/><text fill="#000000" font-family="FG Virgil" font-size="14" font-style="italic" lengthAdjust="spacing" textLength="95" x="292" y="58.1074">&#171;presentation&#187;</text><text fill="#000000" font-family="FG Virgil" font-size="14" lengthAdjust="spacing" textLength="146" x="266.5" y="76.7285">DisplayCandidateInfoUI</text><polygon fill="#E3E3E3" points="262,639.1895,262,639.3996,271.6875,638.7751,281.375,639.3827,291.0625,639.5891,300.75,638.4761,310.4375,639.1117,320.125,638.763,329.8125,638.806,339.5,639.1213,349.1875,638.4981,358.875,639.7431,368.5625,638.5592,378.25,638.9917,387.9375,639.6214,397.625,639.1037,407.3125,639.2577,417,639.1895,416.9959,639.1796,417.3763,639.3909,417.7376,639.556,418.1354,639.8092,418.4998,639.9819,418.7678,639.9217,418.977,640.0083,418.9926,640.3077,419.2034,640.6879,419.4234,641.0719,419.1315,641.2439,419.5,641.6895,420.1785,641.6895,419.2035,650.9379,420.0338,660.1863,419.005,669.4348,419.4315,678.6832,419.5,687.9316,419.7284,688.0262,419.3385,688.279,419.2395,688.6522,419.1649,689.0355,419.0424,689.3989,418.7678,689.6994,418.7673,689.6982,418.4509,689.9343,417.9876,689.816,417.7434,690.2263,417.4235,690.454,417,690.4316,417,690.8762,407.3125,691.0447,397.625,689.9486,387.9375,689.7795,378.25,689.8102,368.5625,690.3728,358.875,690.2351,349.1875,691.1131,339.5,690.257,329.8125,690.0886,320.125,690.6599,310.4375,689.7648,300.75,689.9125,291.0625,691.0806,281.375,690.8673,271.6875,691.1661,262,690.4316,261.959,690.3325,261.6872,690.3835,261.3682,690.3206,260.8791,689.8468,260.5736,689.8163,260.2322,689.6994,260.271,689.7155,260.2865,689.429,259.938,688.9918,259.9353,688.6978,259.4759,688.2146,259.5,687.9316,258.8227,687.9316,260.0036,678.6832,258.7831,669.4348,260.009,660.1863,259.7066,650.9379,259.5,641.6895,259.4175,641.6553,259.5375,641.2908,259.9342,641.0409,259.8472,640.5906,260.2681,640.3507,260.2322,639.9217,260.1617,639.7515,260.6645,639.9654,261.0011,639.7779,261.3241,639.5578,261.6525,639.3504,262,639.1895" style="stroke:#181818;stroke-width:0.5;"/><text fill="#000000" font-family="FG Virgil" font-size="14" font-style="italic" lengthAdjust="spacing" textLength="95" x="292" y="661.2969">&#171;presentation&#187;</text><text fill="#000000" font-family="FG Virgil" font-size="14" lengthAdjust="spacing" textLength="146" x="266.5" y="679.918">DisplayCandidateInfoUI</text><polygon fill="#E3E3E3" points="432,36,432,36.2102,441.7619,35.5857,451.5238,36.1933,461.2857,36.3997,471.0476,35.2866,480.8095,35.9223,490.5714,35.5735,500.3333,35.6165,510.0952,35.9318,519.8571,35.3086,529.619,36.5536,539.381,35.3697,549.1429,35.8022,558.9048,36.4319,568.6667,35.9142,578.4286,36.0682,588.1905,35.9681,597.9524,36.1785,607.7143,36.2391,617.4762,36.5857,627.2381,36.6711,637,36,637.0866,36.2092,637.386,36.2249,637.7662,36.4357,638.1502,36.6556,638.3222,36.3637,638.7678,36.7322,638.9767,36.8188,638.8229,37.048,639.2251,37.5074,639.0547,37.7297,639.3325,38.1377,639.5,38.5,640.2416,38.5,639.4513,47.7484,639.6053,56.9969,639.8386,66.2453,639.9162,75.4938,639.5,84.7422,639.4988,84.7417,639.442,85.1324,639.0308,85.3763,639.1482,85.8391,639.083,86.2263,638.7678,86.51,638.8245,86.6469,638.4924,86.8452,637.999,86.6541,637.6239,86.7484,637.2743,86.9044,637,87.2422,637,87.1833,627.2381,87.0457,617.4762,87.9236,607.7143,87.0675,597.9524,86.8991,588.1905,87.4705,578.4286,86.5753,568.6667,86.7231,558.9048,87.8911,549.1429,87.6779,539.381,87.9767,529.619,86.9204,519.8571,87.5614,510.0952,87.8326,500.3333,86.7698,490.5714,87.1463,480.8095,87.3682,471.0476,87.8939,461.2857,87.238,451.5238,87.7048,441.7619,86.6884,432,87.2422,431.9136,87.0336,431.7107,87.2508,431.2014,86.7285,431.0043,86.9596,430.6121,86.72,430.2322,86.51,430.1497,86.4758,429.9768,86.1113,430.0806,85.8614,429.7007,85.4111,429.8287,85.1712,429.5,84.7422,428.9473,84.7422,430.1174,75.4938,429.9843,66.2453,429.745,56.9969,429.5472,47.7484,429.5,38.5,429.7238,38.5927,429.8354,38.2247,429.845,37.8145,430.0219,37.4736,430.0457,37.0692,430.2322,36.7322,430.3236,36.9529,430.6055,36.6335,430.9614,36.4925,431.2153,36.1055,431.5948,36.0217,432,36" style="stroke:#181818;stroke-width:0.5;"/><text fill="#000000" font-family="FG Virgil" font-size="14" font-style="italic" lengthAdjust="spacing" textLength="84" x="492.5" y="58.1074">&#171;application&#187;</text><text fill="#000000" font-family="FG Virgil" font-size="14" lengthAdjust="spacing" textLength="196" x="436.5" y="76.7285">DisplayCandidateInfoController</text><polygon fill="#E3E3E3" points="432,639.1895,432,639.3996,441.7619,638.7751,451.5238,639.3827,461.2857,639.5891,471.0476,638.4761,480.8095,639.1117,490.5714,638.763,500.3333,638.806,510.0952,639.1213,519.8571,638.4981,529.619,639.7431,539.381,638.5592,549.1429,638.9917,558.9048,639.6214,568.6667,639.1037,578.4286,639.2577,588.1905,639.1575,597.9524,639.368,607.7143,639.4286,617.4762,639.7751,627.2381,639.8605,637,639.1895,637.0866,639.3986,637.386,639.4143,637.7662,639.6251,638.1502,639.8451,638.3222,639.5531,638.7678,639.9217,638.9767,640.0082,638.8229,640.2374,639.2251,640.6969,639.0547,640.9192,639.3325,641.3272,639.5,641.6895,640.2416,641.6895,639.4513,650.9379,639.6053,660.1863,639.8386,669.4348,639.9162,678.6832,639.5,687.9316,639.4988,687.9311,639.442,688.3218,639.0308,688.5657,639.1482,689.0286,639.083,689.4158,638.7678,689.6994,638.8245,689.8363,638.4924,690.0346,637.999,689.8435,637.6239,689.9379,637.2743,690.0938,637,690.4316,637,690.3728,627.2381,690.2351,617.4762,691.1131,607.7143,690.257,597.9524,690.0886,588.1905,690.6599,578.4286,689.7648,568.6667,689.9125,558.9048,691.0806,549.1429,690.8673,539.381,691.1661,529.619,690.1098,519.8571,690.7508,510.0952,691.0221,500.3333,689.9592,490.5714,690.3358,480.8095,690.5576,471.0476,691.0834,461.2857,690.4274,451.5238,690.8942,441.7619,689.8779,432,690.4316,431.9136,690.2231,431.7107,690.4403,431.2014,689.918,431.0043,690.149,430.6121,689.9095,430.2322,689.6994,430.1497,689.6652,429.9768,689.3007,430.0806,689.0508,429.7007,688.6006,429.8287,688.3607,429.5,687.9316,428.9473,687.9316,430.1174,678.6832,429.9843,669.4348,429.745,660.1863,429.5472,650.9379,429.5,641.6895,429.7238,641.7821,429.8354,641.4142,429.845,641.0039,430.0219,640.663,430.0457,640.2586,430.2322,639.9217,430.3236,640.1423,430.6055,639.8229,430.9614,639.6819,431.2153,639.295,431.5948,639.2111,432,639.1895" style="stroke:#181818;stroke-width:0.5;"/><text fill="#000000" font-family="FG Virgil" font-size="14" font-style="italic" lengthAdjust="spacing" textLength="84" x="492.5" y="661.2969">&#171;application&#187;</text><text fill="#000000" font-family="FG Virgil" font-size="14" lengthAdjust="spacing" textLength="196" x="436.5" y="679.918">DisplayCandidateInfoController</text><polygon fill="#E3E3E3" points="1106.5,36,1106.5,36.2102,1116.3571,35.5857,1126.2143,36.1933,1136.0714,36.3997,1145.9286,35.2866,1155.7857,35.9223,1165.6429,35.5735,1175.5,35.6165,1185.3571,35.9318,1195.2143,35.3086,1205.0714,36.5536,1214.9286,35.3697,1224.7857,35.8022,1234.6429,36.4319,1244.5,36,1244.4891,35.9736,1244.8623,36.1675,1245.203,36.2831,1245.5834,36.4943,1245.9447,36.6594,1246.2678,36.7322,1246.4481,36.8069,1246.6209,37.1714,1246.7698,37.526,1246.7855,37.8254,1246.9963,38.2056,1247,38.5,1247.7022,38.5,1246.2788,47.7484,1247.6785,56.9969,1246.7035,66.2453,1247.5338,75.4938,1247,84.7422,1246.8476,84.679,1246.8325,85.087,1246.9355,85.5439,1246.5457,85.7966,1246.4466,86.1698,1246.2678,86.51,1246.311,86.6142,1245.9673,86.7846,1245.5602,86.8016,1245.2437,87.0377,1244.7805,86.9195,1244.5,87.2422,1244.5,87.5266,1234.6429,87.7904,1224.7857,87.6867,1214.9286,87.8552,1205.0714,86.7591,1195.2143,86.59,1185.3571,86.6208,1175.5,87.1833,1165.6429,87.0457,1155.7857,87.9236,1145.9286,87.0675,1136.0714,86.8991,1126.2143,87.4705,1116.3571,86.5753,1106.5,87.2422,1106.4338,87.0823,1106.2292,87.2956,1105.8485,87.0835,1105.533,87.029,1105.0447,86.5573,1104.7322,86.51,1104.8305,86.5507,1104.7676,86.2317,1104.2939,85.7426,1104.2634,85.4371,1104.1852,85.1118,1104,84.7422,1104.6518,84.7422,1103.9958,75.4938,1104.4626,66.2453,1103.4462,56.9969,1103.3227,47.7484,1104,38.5,1104.1551,38.5642,1103.9257,38.055,1104.4496,37.8578,1104.503,37.4657,1104.5033,37.0516,1104.7322,36.7322,1104.6871,36.6233,1105.1443,36.7271,1105.4012,36.3472,1105.8684,36.4752,1106.0759,35.9762,1106.5,36" style="stroke:#181818;stroke-width:0.5;"/><text fill="#000000" font-family="FG Virgil" font-size="14" font-style="italic" lengthAdjust="spacing" textLength="60" x="1145.5" y="58.1074">&#171;service&#187;</text><text fill="#000000" font-family="FG Virgil" font-size="14" lengthAdjust="spacing" textLength="129" x="1111" y="76.7285">AuthorizationService</text><polygon fill="#E3E3E3" points="1106.5,639.1895,1106.5,639.3996,1116.3571,638.7751,1126.2143,639.3827,1136.0714,639.5891,1145.9286,638.4761,1155.7857,639.1117,1165.6429,638.763,1175.5,638.806,1185.3571,639.1213,1195.2143,638.4981,1205.0714,639.7431,1214.9286,638.5592,1224.7857,638.9917,1234.6429,639.6214,1244.5,639.1895,1244.4891,639.163,1244.8623,639.3569,1245.203,639.4725,1245.5834,639.6838,1245.9447,639.8489,1246.2678,639.9217,1246.4481,639.9964,1246.6209,640.3608,1246.7698,640.7154,1246.7855,641.0148,1246.9963,641.395,1247,641.6895,1247.7022,641.6895,1246.2788,650.9379,1247.6785,660.1863,1246.7035,669.4348,1247.5338,678.6832,1247,687.9316,1246.8476,687.8685,1246.8325,688.2765,1246.9355,688.7333,1246.5457,688.9861,1246.4466,689.3593,1246.2678,689.6994,1246.311,689.8037,1245.9673,689.974,1245.5602,689.9911,1245.2437,690.2272,1244.7805,690.1089,1244.5,690.4316,1244.5,690.716,1234.6429,690.9798,1224.7857,690.8762,1214.9286,691.0447,1205.0714,689.9486,1195.2143,689.7795,1185.3571,689.8102,1175.5,690.3728,1165.6429,690.2351,1155.7857,691.1131,1145.9286,690.257,1136.0714,690.0886,1126.2143,690.6599,1116.3571,689.7648,1106.5,690.4316,1106.4338,690.2718,1106.2292,690.485,1105.8485,690.2729,1105.533,690.2185,1105.0447,689.7468,1104.7322,689.6994,1104.8305,689.7401,1104.7676,689.4212,1104.2939,688.932,1104.2634,688.6265,1104.1852,688.3013,1104,687.9316,1104.6518,687.9316,1103.9958,678.6832,1104.4626,669.4348,1103.4462,660.1863,1103.3227,650.9379,1104,641.6895,1104.1551,641.7537,1103.9257,641.2444,1104.4496,641.0473,1104.503,640.6552,1104.5033,640.2411,1104.7322,639.9217,1104.6871,639.8127,1105.1443,639.9165,1105.4012,639.5366,1105.8684,639.6646,1106.0759,639.1657,1106.5,639.1895" style="stroke:#181818;stroke-width:0.5;"/><text fill="#000000" font-family="FG Virgil" font-size="14" font-style="italic" lengthAdjust="spacing" textLength="60" x="1145.5" y="661.2969">&#171;service&#187;</text><text fill="#000000" font-family="FG Virgil" font-size="14" lengthAdjust="spacing" textLength="129" x="1111" y="679.918">AuthorizationService</text><polygon fill="#E3E3E3" points="1259.5,36,1259.5,36.2102,1269.5833,35.5857,1279.6667,36.1933,1289.75,36.3997,1299.8333,35.2866,1309.9167,35.9223,1320,35.5735,1330.0833,35.6165,1340.1667,35.9318,1350.25,35.3086,1360.3333,36.5536,1370.4167,35.3697,1380.5,36,1380.4748,35.9391,1380.9087,36.2795,1381.1962,36.2665,1381.5694,36.4604,1381.9101,36.5759,1382.2678,36.7322,1382.3227,36.755,1382.4879,37.1163,1382.741,37.5141,1382.9138,37.8785,1383.0627,38.2331,1383,38.5,1383.2546,38.5,1383.4636,47.7484,1383.7022,56.9969,1382.2788,66.2453,1383.6785,75.4938,1383,84.7422,1382.9087,84.7044,1383.0179,85.1638,1382.5547,85.3861,1382.5396,85.7941,1382.6426,86.251,1382.2678,86.51,1382.2616,86.4949,1381.9276,86.6888,1381.6039,86.9071,1381.2602,87.0775,1380.8531,87.0945,1380.5,87.2422,1380.5,87.5294,1370.4167,86.6698,1360.3333,87.5266,1350.25,87.7904,1340.1667,87.6867,1330.0833,87.8552,1320,86.7591,1309.9167,86.59,1299.8333,86.6208,1289.75,87.1833,1279.6667,87.0457,1269.5833,87.9236,1259.5,87.2422,1259.4777,87.1884,1259.1027,86.9901,1258.822,87.0196,1258.3543,86.5975,1258.0196,86.4965,1257.7322,86.51,1257.9321,86.5927,1257.72,86.212,1257.6655,85.8965,1257.1938,85.4082,1257.2447,85.1365,1257,84.7422,1257.5904,84.7422,1256.5276,75.4938,1256.9041,66.2453,1257.126,56.9969,1257.6518,47.7484,1257,38.5,1256.9987,38.4995,1257.2889,38.2055,1257.1223,37.7223,1257.2308,37.3529,1257.7409,37.15,1257.7322,36.7322,1257.6408,36.5114,1258.1507,36.7425,1258.4657,36.503,1258.7587,36.2104,1259.1013,36.0375,1259.5,36" style="stroke:#181818;stroke-width:0.5;"/><text fill="#000000" font-family="FG Virgil" font-size="14" font-style="italic" lengthAdjust="spacing" textLength="60" x="1290" y="58.1074">&#171;service&#187;</text><text fill="#000000" font-family="FG Virgil" font-size="14" lengthAdjust="spacing" textLength="112" x="1264" y="76.7285">CandidateService</text><polygon fill="#E3E3E3" points="1259.5,639.1895,1259.5,639.3996,1269.5833,638.7751,1279.6667,639.3827,1289.75,639.5891,1299.8333,638.4761,1309.9167,639.1117,1320,638.763,1330.0833,638.806,1340.1667,639.1213,1350.25,638.4981,1360.3333,639.7431,1370.4167,638.5592,1380.5,639.1895,1380.4748,639.1285,1380.9087,639.4689,1381.1962,639.4559,1381.5694,639.6498,1381.9101,639.7654,1382.2678,639.9217,1382.3227,639.9445,1382.4879,640.3057,1382.741,640.7035,1382.9138,641.0679,1383.0627,641.4225,1383,641.6895,1383.2546,641.6895,1383.4636,650.9379,1383.7022,660.1863,1382.2788,669.4348,1383.6785,678.6832,1383,687.9316,1382.9087,687.8938,1383.0179,688.3533,1382.5547,688.5756,1382.5396,688.9836,1382.6426,689.4405,1382.2678,689.6994,1382.2616,689.6844,1381.9276,689.8783,1381.6039,690.0966,1381.2602,690.2669,1380.8531,690.284,1380.5,690.4316,1380.5,690.7189,1370.4167,689.8592,1360.3333,690.716,1350.25,690.9798,1340.1667,690.8762,1330.0833,691.0447,1320,689.9486,1309.9167,689.7795,1299.8333,689.8102,1289.75,690.3728,1279.6667,690.2351,1269.5833,691.1131,1259.5,690.4316,1259.4777,690.3778,1259.1027,690.1795,1258.822,690.209,1258.3543,689.7869,1258.0196,689.686,1257.7322,689.6994,1257.9321,689.7822,1257.72,689.4014,1257.6655,689.086,1257.1938,688.5977,1257.2447,688.3259,1257,687.9316,1257.5904,687.9316,1256.5276,678.6832,1256.9041,669.4348,1257.126,660.1863,1257.6518,650.9379,1257,641.6895,1256.9987,641.6889,1257.2889,641.3949,1257.1223,640.9117,1257.2308,640.5424,1257.7409,640.3395,1257.7322,639.9217,1257.6408,639.7009,1258.1507,639.932,1258.4657,639.6924,1258.7587,639.3998,1259.1013,639.227,1259.5,639.1895" style="stroke:#181818;stroke-width:0.5;"/><text fill="#000000" font-family="FG Virgil" font-size="14" font-style="italic" lengthAdjust="spacing" textLength="60" x="1290" y="661.2969">&#171;service&#187;</text><text fill="#000000" font-family="FG Virgil" font-size="14" lengthAdjust="spacing" textLength="112" x="1264" y="679.918">CandidateService</text><polygon fill="#E3E3E3" points="1395.5,36,1395.5,36.2102,1405.5,35.5857,1415.5,36.1933,1425.5,36.3997,1435.5,35.2866,1445.5,35.9223,1455.5,35.5735,1465.5,35.6165,1475.5,35.9318,1485.5,35.3086,1495.5,36.5536,1505.5,35.3697,1515.5,35.8022,1525.5,36.4319,1535.5,36,1535.4891,35.9736,1535.8623,36.1675,1536.203,36.2831,1536.5834,36.4943,1536.9447,36.6594,1537.2678,36.7322,1537.4481,36.8069,1537.6209,37.1714,1537.7698,37.526,1537.7855,37.8254,1537.9963,38.2056,1538,38.5,1538.7022,38.5,1537.2788,47.7484,1538.6785,56.9969,1537.7035,66.2453,1538.5338,75.4938,1538,84.7422,1537.8476,84.679,1537.8325,85.087,1537.9355,85.5439,1537.5457,85.7966,1537.4466,86.1698,1537.2678,86.51,1537.311,86.6142,1536.9673,86.7846,1536.5602,86.8016,1536.2437,87.0377,1535.7805,86.9195,1535.5,87.2422,1535.5,87.5266,1525.5,87.7904,1515.5,87.6867,1505.5,87.8552,1495.5,86.7591,1485.5,86.59,1475.5,86.6208,1465.5,87.1833,1455.5,87.0457,1445.5,87.9236,1435.5,87.0675,1425.5,86.8991,1415.5,87.4705,1405.5,86.5753,1395.5,87.2422,1395.4338,87.0823,1395.2292,87.2956,1394.8485,87.0835,1394.533,87.029,1394.0447,86.5573,1393.7322,86.51,1393.8305,86.5507,1393.7676,86.2317,1393.2939,85.7426,1393.2634,85.4371,1393.1852,85.1118,1393,84.7422,1393.6518,84.7422,1392.9958,75.4938,1393.4626,66.2453,1392.4462,56.9969,1392.3227,47.7484,1393,38.5,1393.1551,38.5642,1392.9257,38.055,1393.4496,37.8578,1393.503,37.4657,1393.5033,37.0516,1393.7322,36.7322,1393.6871,36.6233,1394.1443,36.7271,1394.4012,36.3472,1394.8684,36.4752,1395.0759,35.9762,1395.5,36" style="stroke:#181818;stroke-width:0.5;"/><text fill="#000000" font-family="FG Virgil" font-size="14" font-style="italic" lengthAdjust="spacing" textLength="62" x="1434.5" y="58.1074">&#171;domain&#187;</text><text fill="#000000" font-family="FG Virgil" font-size="14" lengthAdjust="spacing" textLength="131" x="1400" y="76.7285">candidate:Candidate</text><polygon fill="#E3E3E3" points="1395.5,639.1895,1395.5,639.3996,1405.5,638.7751,1415.5,639.3827,1425.5,639.5891,1435.5,638.4761,1445.5,639.1117,1455.5,638.763,1465.5,638.806,1475.5,639.1213,1485.5,638.4981,1495.5,639.7431,1505.5,638.5592,1515.5,638.9917,1525.5,639.6214,1535.5,639.1895,1535.4891,639.163,1535.8623,639.3569,1536.203,639.4725,1536.5834,639.6838,1536.9447,639.8489,1537.2678,639.9217,1537.4481,639.9964,1537.6209,640.3608,1537.7698,640.7154,1537.7855,641.0148,1537.9963,641.395,1538,641.6895,1538.7022,641.6895,1537.2788,650.9379,1538.6785,660.1863,1537.7035,669.4348,1538.5338,678.6832,1538,687.9316,1537.8476,687.8685,1537.8325,688.2765,1537.9355,688.7333,1537.5457,688.9861,1537.4466,689.3593,1537.2678,689.6994,1537.311,689.8037,1536.9673,689.974,1536.5602,689.9911,1536.2437,690.2272,1535.7805,690.1089,1535.5,690.4316,1535.5,690.716,1525.5,690.9798,1515.5,690.8762,1505.5,691.0447,1495.5,689.9486,1485.5,689.7795,1475.5,689.8102,1465.5,690.3728,1455.5,690.2351,1445.5,691.1131,1435.5,690.257,1425.5,690.0886,1415.5,690.6599,1405.5,689.7648,1395.5,690.4316,1395.4338,690.2718,1395.2292,690.485,1394.8485,690.2729,1394.533,690.2185,1394.0447,689.7468,1393.7322,689.6994,1393.8305,689.7401,1393.7676,689.4212,1393.2939,688.932,1393.2634,688.6265,1393.1852,688.3013,1393,687.9316,1393.6518,687.9316,1392.9958,678.6832,1393.4626,669.4348,1392.4462,660.1863,1392.3227,650.9379,1393,641.6895,1393.1551,641.7537,1392.9257,641.2444,1393.4496,641.0473,1393.503,640.6552,1393.5033,640.2411,1393.7322,639.9217,1393.6871,639.8127,1394.1443,639.9165,1394.4012,639.5366,1394.8684,639.6646,1395.0759,639.1657,1395.5,639.1895" style="stroke:#181818;stroke-width:0.5;"/><text fill="#000000" font-family="FG Virgil" font-size="14" font-style="italic" lengthAdjust="spacing" textLength="62" x="1434.5" y="661.2969">&#171;domain&#187;</text><text fill="#000000" font-family="FG Virgil" font-size="14" lengthAdjust="spacing" textLength="131" x="1400" y="679.918">candidate:Candidate</text><polygon fill="#E3E3E3" points="1550.5,36,1550.5,36.2102,1560.5769,35.5857,1570.6538,36.1933,1580.7308,36.3997,1590.8077,35.2866,1600.8846,35.9223,1610.9615,35.5735,1621.0385,35.6165,1631.1154,35.9318,1641.1923,35.3086,1651.2692,36.5536,1661.3462,35.3697,1671.4231,35.8022,1681.5,36,1681.5551,36.133,1681.8426,36.12,1682.2158,36.3139,1682.5566,36.4295,1682.937,36.6408,1683.2678,36.7322,1683.3414,36.7627,1683.5946,37.1605,1683.7673,37.5249,1683.9163,37.8795,1683.932,38.1789,1684,38.5,1684.4636,38.5,1684.7022,47.7484,1683.2788,56.9969,1684.6785,66.2453,1683.7035,75.4938,1684,84.7422,1684.1644,84.8103,1683.7011,85.0326,1683.686,85.4406,1683.789,85.8974,1683.3992,86.1502,1683.2678,86.51,1683.2812,86.5424,1682.9574,86.7607,1682.6138,86.931,1682.2066,86.9481,1681.8902,87.1842,1681.5,87.2422,1681.5,86.6698,1671.4231,87.5266,1661.3462,87.7904,1651.2692,87.6867,1641.1923,87.8552,1631.1154,86.7591,1621.0385,86.59,1610.9615,86.6208,1600.8846,87.1833,1590.8077,87.0457,1580.7308,87.9236,1570.6538,87.0675,1560.5769,86.8991,1550.5,87.2422,1550.5291,87.3125,1550.0614,86.8904,1549.7267,86.7894,1549.5221,87.0027,1549.1414,86.7906,1548.7322,86.51,1548.9584,86.6036,1548.4867,86.1154,1548.5376,85.8436,1548.4747,85.5246,1548.001,85.0355,1548,84.7422,1547.9041,84.7422,1548.126,75.4938,1548.6518,66.2453,1547.9958,56.9969,1548.4626,47.7484,1548,38.5,1547.8295,38.4294,1547.9379,38.0601,1548.448,37.8571,1548.2186,37.3479,1548.7425,37.1507,1548.7322,36.7322,1548.7586,36.7959,1549.0516,36.5033,1549.3942,36.3304,1549.8514,36.4342,1550.1083,36.0543,1550.5,36" style="stroke:#181818;stroke-width:0.5;"/><text fill="#000000" font-family="FG Virgil" font-size="14" font-style="italic" lengthAdjust="spacing" textLength="89" x="1571.5" y="58.1074">&#171;persistence&#187;</text><text fill="#000000" font-family="FG Virgil" font-size="14" lengthAdjust="spacing" textLength="122" x="1555" y="76.7285">PersistenceContext</text><polygon fill="#E3E3E3" points="1550.5,639.1895,1550.5,639.3996,1560.5769,638.7751,1570.6538,639.3827,1580.7308,639.5891,1590.8077,638.4761,1600.8846,639.1117,1610.9615,638.763,1621.0385,638.806,1631.1154,639.1213,1641.1923,638.4981,1651.2692,639.7431,1661.3462,638.5592,1671.4231,638.9917,1681.5,639.1895,1681.5551,639.3225,1681.8426,639.3095,1682.2158,639.5034,1682.5566,639.619,1682.937,639.8302,1683.2678,639.9217,1683.3414,639.9522,1683.5946,640.35,1683.7673,640.7144,1683.9163,641.069,1683.932,641.3684,1684,641.6895,1684.4636,641.6895,1684.7022,650.9379,1683.2788,660.1863,1684.6785,669.4348,1683.7035,678.6832,1684,687.9316,1684.1644,687.9997,1683.7011,688.222,1683.686,688.63,1683.789,689.0869,1683.3992,689.3396,1683.2678,689.6994,1683.2812,689.7318,1682.9574,689.9501,1682.6138,690.1205,1682.2066,690.1375,1681.8902,690.3736,1681.5,690.4316,1681.5,689.8592,1671.4231,690.716,1661.3462,690.9798,1651.2692,690.8762,1641.1923,691.0447,1631.1154,689.9486,1621.0385,689.7795,1610.9615,689.8102,1600.8846,690.3728,1590.8077,690.2351,1580.7308,691.1131,1570.6538,690.257,1560.5769,690.0886,1550.5,690.4316,1550.5291,690.5019,1550.0614,690.0798,1549.7267,689.9789,1549.5221,690.1922,1549.1414,689.98,1548.7322,689.6994,1548.9584,689.7931,1548.4867,689.3048,1548.5376,689.033,1548.4747,688.7141,1548.001,688.2249,1548,687.9316,1547.9041,687.9316,1548.126,678.6832,1548.6518,669.4348,1547.9958,660.1863,1548.4626,650.9379,1548,641.6895,1547.8295,641.6188,1547.9379,641.2495,1548.448,641.0466,1548.2186,640.5373,1548.7425,640.3402,1548.7322,639.9217,1548.7586,639.9853,1549.0516,639.6927,1549.3942,639.5198,1549.8514,639.6236,1550.1083,639.2437,1550.5,639.1895" style="stroke:#181818;stroke-width:0.5;"/><text fill="#000000" font-family="FG Virgil" font-size="14" font-style="italic" lengthAdjust="spacing" textLength="89" x="1571.5" y="661.2969">&#171;persistence&#187;</text><text fill="#000000" font-family="FG Virgil" font-size="14" lengthAdjust="spacing" textLength="122" x="1555" y="679.918">PersistenceContext</text><polygon fill="#E3E3E3" points="1696.5,36,1696.5,36.2102,1706.1154,35.5857,1715.7308,36.1933,1725.3462,36.3997,1734.9615,35.2866,1744.5769,35.9223,1754.1923,35.5735,1763.8077,35.6165,1773.4231,35.9318,1783.0385,35.3086,1792.6538,36.5536,1802.2692,35.3697,1811.8846,35.8022,1821.5,36,1821.5551,36.133,1821.8426,36.12,1822.2158,36.3139,1822.5566,36.4295,1822.937,36.6408,1823.2678,36.7322,1823.3414,36.7627,1823.5946,37.1605,1823.7673,37.5249,1823.9163,37.8795,1823.932,38.1789,1824,38.5,1824.4636,38.5,1824.7022,47.7484,1823.2788,56.9969,1824.6785,66.2453,1823.7035,75.4938,1824,84.7422,1824.1644,84.8103,1823.7011,85.0326,1823.686,85.4406,1823.789,85.8974,1823.3992,86.1502,1823.2678,86.51,1823.2812,86.5424,1822.9574,86.7607,1822.6138,86.931,1822.2066,86.9481,1821.8902,87.1842,1821.5,87.2422,1821.5,86.6698,1811.8846,87.5266,1802.2692,87.7904,1792.6538,87.6867,1783.0385,87.8552,1773.4231,86.7591,1763.8077,86.59,1754.1923,86.6208,1744.5769,87.1833,1734.9615,87.0457,1725.3462,87.9236,1715.7308,87.0675,1706.1154,86.8991,1696.5,87.2422,1696.5291,87.3125,1696.0614,86.8904,1695.7267,86.7894,1695.5221,87.0027,1695.1414,86.7906,1694.7322,86.51,1694.9584,86.6036,1694.4867,86.1154,1694.5376,85.8436,1694.4747,85.5246,1694.001,85.0355,1694,84.7422,1693.9041,84.7422,1694.126,75.4938,1694.6518,66.2453,1693.9958,56.9969,1694.4626,47.7484,1694,38.5,1693.8295,38.4294,1693.9379,38.0601,1694.448,37.8571,1694.2186,37.3479,1694.7425,37.1507,1694.7322,36.7322,1694.7586,36.7959,1695.0516,36.5033,1695.3942,36.3304,1695.8514,36.4342,1696.1083,36.0543,1696.5,36" style="stroke:#181818;stroke-width:0.5;"/><text fill="#000000" font-family="FG Virgil" font-size="14" font-style="italic" lengthAdjust="spacing" textLength="59" x="1729.5" y="58.1074">&#171;factory&#187;</text><text fill="#000000" font-family="FG Virgil" font-size="14" lengthAdjust="spacing" textLength="116" x="1701" y="76.7285">RepositoryFactory</text><polygon fill="#E3E3E3" points="1696.5,639.1895,1696.5,639.3996,1706.1154,638.7751,1715.7308,639.3827,1725.3462,639.5891,1734.9615,638.4761,1744.5769,639.1117,1754.1923,638.763,1763.8077,638.806,1773.4231,639.1213,1783.0385,638.4981,1792.6538,639.7431,1802.2692,638.5592,1811.8846,638.9917,1821.5,639.1895,1821.5551,639.3225,1821.8426,639.3095,1822.2158,639.5034,1822.5566,639.619,1822.937,639.8302,1823.2678,639.9217,1823.3414,639.9522,1823.5946,640.35,1823.7673,640.7144,1823.9163,641.069,1823.932,641.3684,1824,641.6895,1824.4636,641.6895,1824.7022,650.9379,1823.2788,660.1863,1824.6785,669.4348,1823.7035,678.6832,1824,687.9316,1824.1644,687.9997,1823.7011,688.222,1823.686,688.63,1823.789,689.0869,1823.3992,689.3396,1823.2678,689.6994,1823.2812,689.7318,1822.9574,689.9501,1822.6138,690.1205,1822.2066,690.1375,1821.8902,690.3736,1821.5,690.4316,1821.5,689.8592,1811.8846,690.716,1802.2692,690.9798,1792.6538,690.8762,1783.0385,691.0447,1773.4231,689.9486,1763.8077,689.7795,1754.1923,689.8102,1744.5769,690.3728,1734.9615,690.2351,1725.3462,691.1131,1715.7308,690.257,1706.1154,690.0886,1696.5,690.4316,1696.5291,690.5019,1696.0614,690.0798,1695.7267,689.9789,1695.5221,690.1922,1695.1414,689.98,1694.7322,689.6994,1694.9584,689.7931,1694.4867,689.3048,1694.5376,689.033,1694.4747,688.7141,1694.001,688.2249,1694,687.9316,1693.9041,687.9316,1694.126,678.6832,1694.6518,669.4348,1693.9958,660.1863,1694.4626,650.9379,1694,641.6895,1693.8295,641.6188,1693.9379,641.2495,1694.448,641.0466,1694.2186,640.5373,1694.7425,640.3402,1694.7322,639.9217,1694.7586,639.9853,1695.0516,639.6927,1695.3942,639.5198,1695.8514,639.6236,1696.1083,639.2437,1696.5,639.1895" style="stroke:#181818;stroke-width:0.5;"/><text fill="#000000" font-family="FG Virgil" font-size="14" font-style="italic" lengthAdjust="spacing" textLength="59" x="1729.5" y="661.2969">&#171;factory&#187;</text><text fill="#000000" font-family="FG Virgil" font-size="14" lengthAdjust="spacing" textLength="116" x="1701" y="679.918">RepositoryFactory</text><text fill="#000000" font-family="FG Virgil" font-size="14" font-style="italic" lengthAdjust="spacing" textLength="79" x="1861" y="66.1074">&#171;repository&#187;</text><text fill="#000000" font-family="FG Virgil" font-size="14" lengthAdjust="spacing" textLength="133" x="1834" y="84.7285">CandidateRepository</text><path d="M1885.5,15 L1885.5,15 L1885.5651,15.067 L1887.1716,13.118 L1889.1599,11.5616 L1891.0238,9.8774 L1892.479,7.7727 L1894.5,6.25 L1894.4952,6.2158 L1896.2739,5.8122 L1898.0766,5.5812 L1899.8958,5.47 L1901.6577,4.9456 L1903.5,5 L1903.5,5 L1903.5339,5.2437 L1905.2615,4.9725 L1907.0879,5.4129 L1908.9264,5.9402 L1910.6948,5.9622 L1912.5,6.25 L1912.5211,6.2717 L1914.2901,7.9898 L1916.1553,9.8069 L1917.9741,11.5762 L1919.8815,13.4366 L1921.5,15 L1922.0965,15 L1922.1038,20.2 L1921.7263,25.4 L1921.9121,30.6 L1922.1242,35.8 L1921.5,41 L1921.5,41 L1921.2766,40.7702 L1919.9102,42.9662 L1917.8081,44.4055 L1916.2654,46.4201 L1914.1466,47.8423 L1912.5,49.75 L1912.4958,49.7198 L1910.7453,50.3265 L1908.897,50.2285 L1907.1064,50.5464 L1905.3207,50.8991 L1903.5,51 L1903.5,51 L1903.5254,51.1832 L1901.6998,50.7483 L1899.9176,50.6264 L1898.065,49.998 L1896.3174,50.1252 L1894.5,49.75 L1894.6698,49.9247 L1892.8377,48.1417 L1891.0899,46.4453 L1888.9503,44.3461 L1887.0979,42.5422 L1885.5,41 L1884.9476,41 L1885.4477,35.8 L1885.3253,30.6 L1886.1057,25.4 L1885.3447,20.2 L1885.5,15 " fill="#E3E3E3" style="stroke:#181818;stroke-width:1.5;"/><path d="M1885.5,15 L1885.5,15 L1885.5651,15.067 L1887.1716,16.618 L1889.1599,18.5616 L1891.0238,20.3774 L1892.479,21.7727 L1894.5,23.75 L1894.4952,23.7158 L1896.2739,23.8122 L1898.0766,24.0812 L1899.8958,24.47 L1901.6577,24.4456 L1903.5,25 L1903.5,25 L1903.5339,25.2437 L1905.2615,24.4725 L1907.0879,24.4129 L1908.9264,24.4402 L1910.6948,23.9622 L1912.5,23.75 L1912.5211,23.7717 L1914.2901,21.9898 L1916.1553,20.3069 L1917.9741,18.5762 L1919.8815,16.9366 L1921.5,15 " fill="none" style="stroke:#181818;stroke-width:1.5;"/><text fill="#000000" font-family="FG Virgil" font-size="14" font-style="italic" lengthAdjust="spacing" textLength="79" x="1861" y="654.2969">&#171;repository&#187;</text><text fill="#000000" font-family="FG Virgil" font-size="14" lengthAdjust="spacing" textLength="133" x="1834" y="672.918">CandidateRepository</text><path d="M1885.5,686.4316 L1885.5,686.4316 L1885.5651,686.4986 L1887.1716,684.5496 L1889.1599,682.9932 L1891.0238,681.309 L1892.479,679.2043 L1894.5,677.6816 L1894.4952,677.6474 L1896.2739,677.2439 L1898.0766,677.0128 L1899.8958,676.9016 L1901.6577,676.3773 L1903.5,676.4316 L1903.5,676.4316 L1903.5339,676.6754 L1905.2615,676.4042 L1907.0879,676.8446 L1908.9264,677.3718 L1910.6948,677.3939 L1912.5,677.6816 L1912.5211,677.7034 L1914.2901,679.4215 L1916.1553,681.2385 L1917.9741,683.0078 L1919.8815,684.8683 L1921.5,686.4316 L1922.0965,686.4316 L1922.1038,691.6316 L1921.7263,696.8316 L1921.9121,702.0316 L1922.1242,707.2316 L1921.5,712.4316 L1921.5,712.4316 L1921.2766,712.2018 L1919.9102,714.3979 L1917.8081,715.8372 L1916.2654,717.8517 L1914.1466,719.2739 L1912.5,721.1816 L1912.4958,721.1515 L1910.7453,721.7581 L1908.897,721.6602 L1907.1064,721.978 L1905.3207,722.3307 L1903.5,722.4316 L1903.5,722.4316 L1903.5254,722.6149 L1901.6998,722.1799 L1899.9176,722.0581 L1898.065,721.4297 L1896.3174,721.5568 L1894.5,721.1816 L1894.6698,721.3563 L1892.8377,719.5733 L1891.0899,717.877 L1888.9503,715.7777 L1887.0979,713.9738 L1885.5,712.4316 L1884.9476,712.4316 L1885.4477,707.2316 L1885.3253,702.0316 L1886.1057,696.8316 L1885.3447,691.6316 L1885.5,686.4316 " fill="#E3E3E3" style="stroke:#181818;stroke-width:1.5;"/><path d="M1885.5,686.4316 L1885.5,686.4316 L1885.5651,686.4986 L1887.1716,688.0496 L1889.1599,689.9932 L1891.0238,691.809 L1892.479,693.2043 L1894.5,695.1816 L1894.4952,695.1474 L1896.2739,695.2439 L1898.0766,695.5128 L1899.8958,695.9016 L1901.6577,695.8773 L1903.5,696.4316 L1903.5,696.4316 L1903.5339,696.6754 L1905.2615,695.9042 L1907.0879,695.8446 L1908.9264,695.8718 L1910.6948,695.3939 L1912.5,695.1816 L1912.5211,695.2034 L1914.2901,693.4215 L1916.1553,691.7385 L1917.9741,690.0078 L1919.8815,688.3683 L1921.5,686.4316 " fill="none" style="stroke:#181818;stroke-width:1.5;"/><polygon fill="#FFFFFF" points="61.5,121.5332,61.5,121.6033,63.5,121.3951,65.5,121.5976,67.5,121.6664,69.5,121.2954,71.5,121.5332,71.4223,121.5332,71.0735,131.5463,71.1165,141.5595,71.4318,151.5726,70.8086,161.5857,72.0536,171.5988,70.8697,181.612,71.3022,191.6251,71.9319,201.6382,71.4142,211.6513,71.5682,221.6645,71.4681,231.6776,71.6785,241.6907,71.7391,251.7038,72.0857,261.717,72.1711,271.7301,72.1793,281.7432,71.7546,291.7563,71.9636,301.7695,72.2022,311.7826,70.7788,321.7957,72.1785,331.8088,71.2035,341.822,72.0338,351.8351,71.005,361.8482,71.4315,371.8613,72.2416,381.8745,71.4513,391.8876,71.6053,401.9007,71.8386,411.9138,71.9162,421.927,71.4961,431.9401,71.7872,441.9532,70.9276,451.9663,71.7844,461.9795,72.0482,471.9926,71.9445,482.0057,72.113,492.0188,71.0169,502.032,70.8478,512.0451,70.8786,522.0582,71.4411,532.0713,71.3035,542.0845,72.1814,552.0976,71.3253,562.1107,71.1569,572.1238,71.7283,582.137,70.8332,592.1501,70.9809,602.1632,72.149,612.1763,71.5,622.1895,71.5,622.3347,69.5,622.4343,67.5,622.0822,65.5,622.2959,63.5,622.3863,61.5,622.1895,61.0276,622.1895,61.4041,612.1763,61.626,602.1632,62.1518,592.1501,61.4958,582.137,61.9626,572.1238,60.9462,562.1107,60.8227,552.0976,62.0036,542.0845,60.7831,532.0713,62.009,522.0582,61.7066,512.0451,61.2321,502.032,61.1462,492.0188,61.9588,482.0057,61.2007,471.9926,62.0919,461.9795,60.9473,451.9663,62.1174,441.9532,61.9843,431.9401,61.745,421.927,61.5472,411.9138,62.2266,401.9007,62.1136,391.8876,61.6693,381.8745,61.7682,371.8613,61.3697,361.8482,62.2165,351.8351,61.6549,341.822,61.6726,331.8088,60.8916,321.7957,61.0948,311.7826,62.0307,301.7695,61.9298,291.7563,61.4571,281.7432,61.1778,271.7301,61.2811,261.717,60.8138,251.7038,61.9147,241.6907,62.2396,231.6776,62.0264,221.6645,62.1949,211.6513,61.3633,201.6382,61.5872,191.6251,61.1124,181.612,61.784,171.5988,61.7468,161.5857,62.0524,151.5726,61.2703,141.5595,61.3656,131.5463,61.5,121.5332" style="stroke:#181818;stroke-width:1.0;"/><polygon fill="#FFFFFF" points="334.5,121.5332,334.5,121.6033,336.5,121.3951,338.5,121.5976,340.5,121.6664,342.5,121.2954,344.5,121.5332,344.4223,121.5332,344.0735,131.5463,344.1165,141.5595,344.4318,151.5726,343.8086,161.5857,345.0536,171.5988,343.8697,181.612,344.3022,191.6251,344.9319,201.6382,344.4142,211.6513,344.5682,221.6645,344.4681,231.6776,344.6785,241.6907,344.7391,251.7038,345.0857,261.717,345.1711,271.7301,345.1793,281.7432,344.7546,291.7563,344.9636,301.7695,345.2022,311.7826,343.7788,321.7957,345.1785,331.8088,344.2035,341.822,345.0338,351.8351,344.005,361.8482,344.4315,371.8613,345.2416,381.8745,344.4513,391.8876,344.6053,401.9007,344.8386,411.9138,344.9162,421.927,344.4961,431.9401,344.7872,441.9532,343.9276,451.9663,344.7844,461.9795,345.0482,471.9926,344.9445,482.0057,345.113,492.0188,344.0169,502.032,343.8478,512.0451,343.8786,522.0582,344.4411,532.0713,344.3035,542.0845,345.1814,552.0976,344.3253,562.1107,344.1569,572.1238,344.7283,582.137,343.8332,592.1501,343.9809,602.1632,345.149,612.1763,344.5,622.1895,344.5,622.3347,342.5,622.4343,340.5,622.0822,338.5,622.2959,336.5,622.3863,334.5,622.1895,334.0276,622.1895,334.4041,612.1763,334.626,602.1632,335.1518,592.1501,334.4958,582.137,334.9626,572.1238,333.9462,562.1107,333.8227,552.0976,335.0036,542.0845,333.7831,532.0713,335.009,522.0582,334.7066,512.0451,334.2321,502.032,334.1462,492.0188,334.9588,482.0057,334.2007,471.9926,335.0919,461.9795,333.9473,451.9663,335.1174,441.9532,334.9843,431.9401,334.745,421.927,334.5472,411.9138,335.2266,401.9007,335.1136,391.8876,334.6693,381.8745,334.7682,371.8613,334.3697,361.8482,335.2165,351.8351,334.6549,341.822,334.6726,331.8088,333.8916,321.7957,334.0948,311.7826,335.0307,301.7695,334.9298,291.7563,334.4571,281.7432,334.1778,271.7301,334.2811,261.717,333.8138,251.7038,334.9147,241.6907,335.2396,231.6776,335.0264,221.6645,335.1949,211.6513,334.3633,201.6382,334.5872,191.6251,334.1124,181.612,334.784,171.5988,334.7468,161.5857,335.0524,151.5726,334.2703,141.5595,334.3656,131.5463,334.5,121.5332" style="stroke:#181818;stroke-width:1.0;"/><polygon fill="#FFFFFF" points="534.5,559.6074,534.5,559.6775,536.5,559.4693,538.5,559.6719,540.5,559.7406,542.5,559.3696,544.5,559.6074,544.4741,559.6074,544.3578,565.8656,544.3722,572.1238,544.4773,578.382,544.2695,584.6402,544.5,590.8984,544.5,591.083,542.5,590.6883,540.5,590.8325,538.5,591.0424,536.5,590.8698,534.5,590.8984,534.5227,590.8984,534.4894,584.6402,534.5595,578.382,534.5797,572.1238,534.6952,565.8656,534.5,559.6074" style="stroke:#181818;stroke-width:1.0;"/><polygon fill="#FFFFFF" points="1315,277.9883,1315,278.0583,1317,277.8502,1319,278.0527,1321,278.1215,1323,277.7505,1325,277.9883,1324.9223,277.9883,1324.5735,288.0461,1324.6165,298.1039,1324.9318,308.1618,1324.3086,318.2196,1325.5536,328.2774,1324.3697,338.3352,1324.8022,348.3931,1325.4319,358.4509,1324.9142,368.5087,1325.0682,378.5665,1324.9681,388.6244,1325.1785,398.6822,1325.2391,408.74,1325.5857,418.7979,1325.6711,428.8557,1325.6793,438.9135,1325.2546,448.9713,1325.4636,459.0292,1325.7022,469.087,1324.2788,479.1448,1325.6785,489.2026,1324.7035,499.2605,1325.5338,509.3183,1324.505,519.3761,1324.9315,529.4339,1325.7416,539.4918,1324.9513,549.5496,1325,559.6074,1325,559.6425,1323,559.7203,1321,559.7462,1319,559.6061,1317,559.7032,1315,559.6074,1314.4276,559.6074,1315.2844,549.5496,1315.5482,539.4918,1315.4445,529.4339,1315.613,519.3761,1314.5169,509.3183,1314.3478,499.2605,1314.3786,489.2026,1314.9411,479.1448,1314.8035,469.087,1315.6814,459.0292,1314.8253,448.9713,1314.6569,438.9135,1315.2283,428.8557,1314.3332,418.7979,1314.4809,408.74,1315.649,398.6822,1315.4357,388.6244,1315.7345,378.5665,1314.6782,368.5087,1315.3192,358.4509,1315.5904,348.3931,1314.5276,338.3352,1314.9041,328.2774,1315.126,318.2196,1315.6518,308.1618,1314.9958,298.1039,1315.4626,288.0461,1315,277.9883" style="stroke:#181818;stroke-width:1.0;"/><polygon fill="#FFFFFF" points="1754,403.1523,1754,403.2224,1756,403.0142,1758,403.2168,1760,403.2856,1762,402.9145,1764,403.1523,1763.9223,403.1523,1763.5735,413.5827,1763.6165,424.013,1763.9318,434.4434,1763.3086,444.8737,1764.5536,455.304,1764,465.7344,1764,465.5243,1762,465.6685,1760,465.8784,1758,465.7058,1756,465.7571,1754,465.7344,1753.9681,465.7344,1754.1785,455.304,1754.2391,444.8737,1754.5857,434.4434,1754.6711,424.013,1754.6793,413.5827,1754,403.1523" style="stroke:#181818;stroke-width:1.0;"/><polygon fill="#FFFFFF" points="1898.5,497.0254,1898.5,497.0955,1900.5,496.8873,1902.5,497.0898,1904.5,497.1586,1906.5,496.7876,1908.5,497.0254,1908.4741,497.0254,1908.3578,503.2836,1908.3722,509.5418,1908.4773,515.8,1908.2695,522.0582,1908.5,528.3164,1908.5,528.501,1906.5,528.1063,1904.5,528.2505,1902.5,528.4604,1900.5,528.2878,1898.5,528.3164,1898.5227,528.3164,1898.4894,522.0582,1898.5595,515.8,1898.5797,509.5418,1898.6952,503.2836,1898.5,497.0254" style="stroke:#181818;stroke-width:1.0;"/><polygon fill="#181818" points="322.5,117.5332,322.526,117.5983,324.4487,118.205,326.5239,119.193,328.5495,120.0569,330.4117,120.5124,332.5,121.5332,332.4904,121.5092,330.4472,122.2012,328.4525,123.0145,326.4916,123.9121,324.4144,124.5192,322.5,125.5332,322.6305,125.6637,323.1514,124.5846,324.0534,123.8866,325.0018,123.235,325.6798,122.313,326.5,121.5332,326.5161,121.5493,325.6925,120.7257,324.9421,119.9753,324.1564,119.1896,323.438,118.4713,322.5,117.5332" style="stroke:#181818;stroke-width:1.0;"/><path d="M71.5,121.5332 L71.5,121.8134 L81.3846,120.9808 L91.2692,121.7909 L101.1538,122.0661 L111.0385,120.582 L120.9231,121.4296 L130.8077,120.9645 L140.6923,121.0219 L150.5769,121.4423 L160.4615,120.6114 L170.3462,122.2714 L180.2308,120.6928 L190.1154,121.2695 L200,122.1091 L209.8846,121.4188 L219.7692,121.6242 L229.6538,121.4906 L239.5385,121.7712 L249.4231,121.852 L259.3077,122.3141 L269.1923,122.4279 L279.0769,122.4389 L288.9615,121.8727 L298.8462,122.1513 L308.7308,122.4695 L318.6154,120.5716 L328.5,121.5332 " fill="none" style="stroke:#181818;stroke-width:1.0;stroke-dasharray:2.0,2.0;"/><text fill="#000000" font-family="FG Virgil" font-size="13" lengthAdjust="spacing" textLength="249" x="78.5" y="116.2705">Display all the personal data of a candidate</text><polygon fill="#181818" points="82.5,148.8242,82.526,148.8893,80.4487,149.496,78.5239,150.484,76.5495,151.3479,74.4117,151.8034,72.5,152.8242,72.4904,152.8002,74.4472,153.4922,76.4525,154.3055,78.4916,155.2031,80.4144,155.8102,82.5,156.8242,82.6305,156.9547,81.5514,155.8757,80.8534,155.1776,80.2018,154.526,79.2798,153.604,78.5,152.8242,78.5161,152.8403,79.2925,152.0167,80.1421,151.2663,80.9564,150.4806,81.838,149.7623,82.5,148.8242" style="stroke:#181818;stroke-width:1.0;"/><path d="M76.5,152.8242 L76.5,153.1045 L86.3846,152.2718 L96.2692,153.0819 L106.1538,153.3571 L116.0385,151.873 L125.9231,152.7206 L135.8077,152.2556 L145.6923,152.3129 L155.5769,152.7333 L165.4615,151.9024 L175.3462,153.5624 L185.2308,151.9838 L195.1154,152.5605 L205,153.4001 L214.8846,152.7098 L224.7692,152.9152 L234.6538,152.7816 L244.5385,153.0623 L254.4231,153.1431 L264.3077,153.6051 L274.1923,153.719 L284.0769,153.7299 L293.9615,153.1637 L303.8462,153.4423 L313.7308,153.7605 L323.6154,151.8626 L333.5,152.8242 " fill="none" style="stroke:#181818;stroke-width:1.0;stroke-dasharray:2.0,2.0;"/><text fill="#000000" font-family="FG Virgil" font-size="13" lengthAdjust="spacing" textLength="118" x="88.5" y="147.5615">Ask candidate email</text><polygon fill="#181818" points="322.5,180.1152,322.526,180.1803,324.4487,180.787,326.5239,181.7751,328.5495,182.6389,330.4117,183.0944,332.5,184.1152,332.4904,184.0912,330.4472,184.7832,328.4525,185.5965,326.4916,186.4941,324.4144,187.1013,322.5,188.1152,322.6305,188.2457,323.1514,187.1667,324.0534,186.4686,325.0018,185.817,325.6798,184.895,326.5,184.1152,326.5161,184.1313,325.6925,183.3077,324.9421,182.5573,324.1564,181.7716,323.438,181.0533,322.5,180.1152" style="stroke:#181818;stroke-width:1.0;"/><path d="M71.5,184.1152 L71.5,184.3955 L81.3846,183.5628 L91.2692,184.3729 L101.1538,184.6481 L111.0385,183.164 L120.9231,184.0116 L130.8077,183.5466 L140.6923,183.6039 L150.5769,184.0244 L160.4615,183.1934 L170.3462,184.8534 L180.2308,183.2749 L190.1154,183.8515 L200,184.6912 L209.8846,184.0009 L219.7692,184.2062 L229.6538,184.0726 L239.5385,184.3533 L249.4231,184.4341 L259.3077,184.8962 L269.1923,185.01 L279.0769,185.0209 L288.9615,184.4547 L298.8462,184.7333 L308.7308,185.0515 L318.6154,183.1537 L328.5,184.1152 " fill="none" style="stroke:#181818;stroke-width:1.0;stroke-dasharray:2.0,2.0;"/><text fill="#000000" font-family="FG Virgil" font-size="13" lengthAdjust="spacing" textLength="31" x="78.5" y="178.8525">email</text><polygon fill="#181818" points="517.5,211.4063,517.526,211.4713,519.4487,212.078,521.5239,213.0661,523.5495,213.9299,525.4117,214.3855,527.5,215.4063,527.4904,215.3822,525.4472,216.0743,523.4525,216.8876,521.4916,217.7852,519.4144,218.3923,517.5,219.4063,517.6305,219.5367,518.1514,218.4577,519.0534,217.7596,520.0018,217.1081,520.6798,216.186,521.5,215.4063,521.5161,215.4223,520.6925,214.5987,519.9421,213.8483,519.1564,213.0626,518.438,212.3443,517.5,211.4063" style="stroke:#181818;stroke-width:1.0;"/><path d="M344.5,215.4063 L344.5,215.6865 L354.4444,214.8538 L364.3889,215.664 L374.3333,215.9392 L384.2778,214.4551 L394.2222,215.3026 L404.1667,214.8376 L414.1111,214.8949 L424.0556,215.3154 L434,214.4844 L443.9444,216.1444 L453.8889,214.5659 L463.8333,215.1426 L473.7778,215.9822 L483.7222,215.2919 L493.6667,215.4972 L503.6111,215.3637 L513.5556,215.6443 L523.5,215.4063 " fill="none" style="stroke:#181818;stroke-width:1.0;"/><text fill="#000000" font-family="FG Virgil" font-size="13" lengthAdjust="spacing" textLength="36" x="351.5" y="210.1436">create</text><polygon fill="#181818" points="1163.5,242.6973,1163.526,242.7623,1165.4487,243.369,1167.5239,244.3571,1169.5495,245.221,1171.4117,245.6765,1173.5,246.6973,1173.4904,246.6732,1171.4472,247.3653,1169.4525,248.1786,1167.4916,249.0762,1165.4144,249.6833,1163.5,250.6973,1163.6305,250.8278,1164.1514,249.7487,1165.0534,249.0507,1166.0018,248.3991,1166.6798,247.477,1167.5,246.6973,1167.5161,246.7133,1166.6925,245.8897,1165.9421,245.1393,1165.1564,244.3536,1164.438,243.6353,1163.5,242.6973" style="stroke:#181818;stroke-width:1.0;"/><path d="M539.5,246.6973 L539.5,246.9775 L549.5,246.1448 L559.5,246.955 L569.5,247.2302 L579.5,245.7461 L589.5,246.5936 L599.5,246.1286 L609.5,246.1859 L619.5,246.6064 L629.5,245.7754 L639.5,247.4355 L649.5,245.8569 L659.5,246.4336 L669.5,247.2732 L679.5,246.5829 L689.5,246.7883 L699.5,246.6547 L709.5,246.9353 L719.5,247.0161 L729.5,247.4782 L739.5,247.592 L749.5,247.6029 L759.5,247.0368 L769.5,247.3154 L779.5,247.6336 L789.5,245.7357 L799.5,247.6019 L809.5,246.3019 L819.5,247.409 L829.5,246.0372 L839.5,246.6059 L849.5,247.6861 L859.5,246.6323 L869.5,246.8377 L879.5,247.1488 L889.5,247.2522 L899.5,246.6921 L909.5,247.0802 L919.5,245.934 L929.5,247.0764 L939.5,247.4282 L949.5,247.29 L959.5,247.5146 L969.5,246.0532 L979.5,245.8277 L989.5,245.8687 L999.5,246.6188 L1009.5,246.4352 L1019.5,247.6058 L1029.5,246.4644 L1039.5,246.2399 L1049.5,247.0016 L1059.5,245.8081 L1069.5,246.0051 L1079.5,247.5625 L1089.5,247.2782 L1099.5,247.6766 L1109.5,246.2682 L1119.5,247.1229 L1129.5,247.4845 L1139.5,246.0674 L1149.5,246.5695 L1159.5,246.8652 L1169.5,246.6973 " fill="none" style="stroke:#181818;stroke-width:1.0;stroke-dasharray:2.0,2.0;"/><text fill="#000000" font-family="FG Virgil" font-size="13" lengthAdjust="spacing" textLength="612" x="546.5" y="241.4346">ensureAuthenticatedUserHasAnyOf(Jobs4uRoles.POWER_USER,Jobs4uRoles.CUSTOMER_MANAGER)</text><polygon fill="#181818" points="1303,273.9883,1303.026,274.0533,1304.9487,274.6601,1307.0239,275.6481,1309.0495,276.512,1310.9117,276.9675,1313,277.9883,1312.9904,277.9642,1310.9472,278.6563,1308.9525,279.4696,1306.9916,280.3672,1304.9144,280.9743,1303,281.9883,1303.1305,282.1188,1303.6514,281.0397,1304.5534,280.3417,1305.5018,279.6901,1306.1798,278.7681,1307,277.9883,1307.0161,278.0044,1306.1925,277.1808,1305.4421,276.4304,1304.6564,275.6446,1303.938,274.9263,1303,273.9883" style="stroke:#181818;stroke-width:1.0;"/><path d="M539.5,277.9883 L539.5,278.2685 L549.4935,277.4359 L559.487,278.246 L569.4805,278.5212 L579.474,277.0371 L589.4675,277.8847 L599.461,277.4196 L609.4545,277.4769 L619.4481,277.8974 L629.4416,277.0665 L639.4351,278.7265 L649.4286,277.1479 L659.4221,277.7246 L669.4156,278.5642 L679.4091,277.8739 L689.4026,278.0793 L699.3961,277.9457 L709.3896,278.2263 L719.3831,278.3071 L729.3766,278.7692 L739.3701,278.883 L749.3636,278.894 L759.3571,278.3278 L769.3506,278.6064 L779.3442,278.9246 L789.3377,277.0267 L799.3312,278.893 L809.3247,277.5929 L819.3182,278.7 L829.3117,277.3283 L839.3052,277.8969 L849.2987,278.9771 L859.2922,277.9233 L869.2857,278.1287 L879.2792,278.4398 L889.2727,278.5433 L899.2662,277.9831 L909.2597,278.3712 L919.2532,277.2251 L929.2468,278.3675 L939.2403,278.7192 L949.2338,278.581 L959.2273,278.8056 L969.2208,277.3442 L979.2143,277.1187 L989.2078,277.1597 L999.2013,277.9098 L1009.1948,277.7262 L1019.1883,278.8968 L1029.1818,277.7554 L1039.1753,277.5309 L1049.1688,278.2926 L1059.1623,277.0992 L1069.1558,277.2961 L1079.1494,278.8535 L1089.1429,278.5692 L1099.1364,278.9676 L1109.1299,277.5592 L1119.1234,278.4139 L1129.1169,278.7755 L1139.1104,277.3584 L1149.1039,277.8605 L1159.0974,278.1563 L1169.0909,278.8573 L1179.0844,277.9827 L1189.0779,278.605 L1199.0714,277.2499 L1209.0649,277.0853 L1219.0584,278.6598 L1229.0519,277.0324 L1239.0455,278.6669 L1249.039,278.2638 L1259.0325,277.6311 L1269.026,277.5166 L1279.0195,278.6 L1289.013,277.5892 L1299.0065,278.7774 L1309,277.9883 " fill="none" style="stroke:#181818;stroke-width:1.0;stroke-dasharray:2.0,2.0;"/><text fill="#000000" font-family="FG Virgil" font-size="13" lengthAdjust="spacing" textLength="108" x="546.5" y="272.7256">findByEmail(email)</text><polygon fill="#181818" points="1604,305.2793,1604.026,305.3443,1605.9487,305.9511,1608.0239,306.9391,1610.0495,307.803,1611.9117,308.2585,1614,309.2793,1613.9904,309.2552,1611.9472,309.9473,1609.9525,310.7606,1607.9916,311.6582,1605.9144,312.2653,1604,313.2793,1604.1305,313.4098,1604.6514,312.3307,1605.5534,311.6327,1606.5018,310.9811,1607.1798,310.0591,1608,309.2793,1608.0161,309.2954,1607.1925,308.4718,1606.4421,307.7214,1605.6564,306.9357,1604.938,306.2173,1604,305.2793" style="stroke:#181818;stroke-width:1.0;"/><path d="M1325,309.2793 L1325,309.5595 L1334.8276,308.7269 L1344.6552,309.537 L1354.4828,309.8122 L1364.3103,308.3281 L1374.1379,309.1757 L1383.9655,308.7106 L1393.7931,308.768 L1403.6207,309.1884 L1413.4483,308.3575 L1423.2759,310.0175 L1433.1034,308.4389 L1442.931,309.0156 L1452.7586,309.8552 L1462.5862,309.1649 L1472.4138,309.3703 L1482.2414,309.2367 L1492.069,309.5173 L1501.8966,309.5981 L1511.7241,310.0602 L1521.5517,310.174 L1531.3793,310.185 L1541.2069,309.6188 L1551.0345,309.8974 L1560.8621,310.2156 L1570.6897,308.3177 L1580.5172,310.184 L1590.3448,308.884 L1600.1724,309.991 L1610,309.2793 " fill="none" style="stroke:#181818;stroke-width:1.0;stroke-dasharray:2.0,2.0;"/><text fill="#000000" font-family="FG Virgil" font-size="13" lengthAdjust="spacing" textLength="75" x="1332" y="304.0166">repositories()</text><polygon fill="#181818" points="1747,336.5703,1747.026,336.6354,1748.9487,337.2421,1751.0239,338.2301,1753.0495,339.094,1754.9117,339.5495,1757,340.5703,1756.9904,340.5463,1754.9472,341.2383,1752.9525,342.0516,1750.9916,342.9492,1748.9144,343.5563,1747,344.5703,1747.1305,344.7008,1747.6514,343.6218,1748.5534,342.9237,1749.5018,342.2721,1750.1798,341.3501,1751,340.5703,1751.0161,340.5864,1750.1925,339.7628,1749.4421,339.0124,1748.6564,338.2267,1747.938,337.5084,1747,336.5703" style="stroke:#181818;stroke-width:1.0;"/><path d="M1616,340.5703 L1616,340.8506 L1625.7857,340.0179 L1635.5714,340.828 L1645.3571,341.1032 L1655.1429,339.6191 L1664.9286,340.4667 L1674.7143,340.0017 L1684.5,340.059 L1694.2857,340.4794 L1704.0714,339.6485 L1713.8571,341.3085 L1723.6429,339.7299 L1733.4286,340.3066 L1743.2143,341.1462 L1753,340.5703 " fill="none" style="stroke:#181818;stroke-width:1.0;stroke-dasharray:2.0,2.0;"/><text fill="#000000" font-family="FG Virgil" font-size="13" lengthAdjust="spacing" textLength="44" x="1623" y="335.3076">create()</text><polygon fill="#181818" points="1336,367.8613,1336.026,367.9264,1333.9487,368.5331,1332.0239,369.5211,1330.0495,370.385,1327.9117,370.8405,1326,371.8613,1325.9904,371.8373,1327.9472,372.5293,1329.9525,373.3426,1331.9916,374.2402,1333.9144,374.8474,1336,375.8613,1336.1305,375.9918,1335.0514,374.9128,1334.3534,374.2147,1333.7018,373.5631,1332.7798,372.6411,1332,371.8613,1332.0161,371.8774,1332.7925,371.0538,1333.6421,370.3034,1334.4564,369.5177,1335.338,368.7994,1336,367.8613" style="stroke:#181818;stroke-width:1.0;"/><path d="M1330,371.8613 L1330,372.1416 L1339.8276,371.3089 L1349.6552,372.119 L1359.4828,372.3942 L1369.3103,370.9101 L1379.1379,371.7577 L1388.9655,371.2927 L1398.7931,371.35 L1408.6207,371.7705 L1418.4483,370.9395 L1428.2759,372.5995 L1438.1034,371.021 L1447.931,371.5976 L1457.7586,372.4373 L1467.5862,371.747 L1477.4138,371.9523 L1487.2414,371.8187 L1497.069,372.0994 L1506.8966,372.1802 L1516.7241,372.6422 L1526.5517,372.7561 L1536.3793,372.767 L1546.2069,372.2008 L1556.0345,372.4794 L1565.8621,372.7976 L1575.6897,370.8997 L1585.5172,372.766 L1595.3448,371.466 L1605.1724,372.5731 L1615,371.8613 " fill="none" style="stroke:#181818;stroke-width:1.0;stroke-dasharray:2.0,2.0;"/><text fill="#000000" font-family="FG Virgil" font-size="13" lengthAdjust="spacing" textLength="39" x="1342" y="366.5986">factory</text><polygon fill="#181818" points="1742,399.1523,1742.026,399.2174,1743.9487,399.8241,1746.0239,400.8122,1748.0495,401.676,1749.9117,402.1316,1752,403.1523,1751.9904,403.1283,1749.9472,403.8203,1747.9525,404.6337,1745.9916,405.5312,1743.9144,406.1384,1742,407.1523,1742.1305,407.2828,1742.6514,406.2038,1743.5534,405.5057,1744.5018,404.8542,1745.1798,403.9321,1746,403.1523,1746.0161,403.1684,1745.1925,402.3448,1744.4421,401.5944,1743.6564,400.8087,1742.938,400.0904,1742,399.1523" style="stroke:#181818;stroke-width:1.0;"/><path d="M1325,403.1523 L1325,403.4326 L1335.0714,402.5999 L1345.1429,403.4101 L1355.2143,403.6852 L1365.2857,402.2012 L1375.3571,403.0487 L1385.4286,402.5837 L1395.5,402.641 L1405.5714,403.0615 L1415.6429,402.2305 L1425.7143,403.8905 L1435.7857,402.312 L1445.8571,402.8887 L1455.9286,403.7283 L1466,403.038 L1476.0714,403.2433 L1486.1429,403.1097 L1496.2143,403.3904 L1506.2857,403.4712 L1516.3571,403.9333 L1526.4286,404.0471 L1536.5,404.058 L1546.5714,403.4918 L1556.6429,403.7705 L1566.7143,404.0887 L1576.7857,402.1908 L1586.8571,404.057 L1596.9286,402.757 L1607,403.8641 L1617.0714,402.4923 L1627.1429,403.061 L1637.2143,404.1412 L1647.2857,403.0874 L1657.3571,403.2927 L1667.4286,403.6038 L1677.5,403.7073 L1687.5714,403.1471 L1697.6429,403.5353 L1707.7143,402.3891 L1717.7857,403.5315 L1727.8571,403.8833 L1737.9286,403.7451 L1748,403.1523 " fill="none" style="stroke:#181818;stroke-width:1.0;stroke-dasharray:2.0,2.0;"/><text fill="#000000" font-family="FG Virgil" font-size="13" lengthAdjust="spacing" textLength="71" x="1332" y="397.8896">candidates()</text><polygon fill="#181818" points="1891.5,430.4434,1891.526,430.5084,1893.4487,431.1151,1895.5239,432.1032,1897.5495,432.9671,1899.4117,433.4226,1901.5,434.4434,1901.4904,434.4193,1899.4472,435.1114,1897.4525,435.9247,1895.4916,436.8223,1893.4144,437.4294,1891.5,438.4434,1891.6305,438.5739,1892.1514,437.4948,1893.0534,436.7967,1894.0018,436.1452,1894.6798,435.2231,1895.5,434.4434,1895.5161,434.4594,1894.6925,433.6358,1893.9421,432.8854,1893.1564,432.0997,1892.438,431.3814,1891.5,430.4434" style="stroke:#181818;stroke-width:1.0;"/><path d="M1764,434.4434 L1764,434.7236 L1774.2692,433.8909 L1784.5385,434.7011 L1794.8077,434.9763 L1805.0769,433.4922 L1815.3462,434.3397 L1825.6154,433.8747 L1835.8846,433.932 L1846.1538,434.3525 L1856.4231,433.5215 L1866.6923,435.1815 L1876.9615,433.603 L1887.2308,434.1797 L1897.5,434.4434 " fill="none" style="stroke:#181818;stroke-width:1.0;stroke-dasharray:2.0,2.0;"/><text fill="#000000" font-family="FG Virgil" font-size="13" lengthAdjust="spacing" textLength="44" x="1771" y="429.1807">create()</text><polygon fill="#181818" points="1336,461.7344,1336.026,461.7994,1333.9487,462.4061,1332.0239,463.3942,1330.0495,464.2581,1327.9117,464.7136,1326,465.7344,1325.9904,465.7103,1327.9472,466.4024,1329.9525,467.2157,1331.9916,468.1133,1333.9144,468.7204,1336,469.7344,1336.1305,469.8649,1335.0514,468.7858,1334.3534,468.0878,1333.7018,467.4362,1332.7798,466.5142,1332,465.7344,1332.0161,465.7505,1332.7925,464.9268,1333.6421,464.1765,1334.4564,463.3907,1335.338,462.6724,1336,461.7344" style="stroke:#181818;stroke-width:1.0;"/><path d="M1330,465.7344 L1330,466.0146 L1339.9535,465.1819 L1349.907,465.9921 L1359.8605,466.2673 L1369.814,464.7832 L1379.7674,465.6308 L1389.7209,465.1657 L1399.6744,465.223 L1409.6279,465.6435 L1419.5814,464.8125 L1429.5349,466.4726 L1439.4884,464.894 L1449.4419,465.4707 L1459.3953,466.3103 L1469.3488,465.62 L1479.3023,465.8254 L1489.2558,465.6918 L1499.2093,465.9724 L1509.1628,466.0532 L1519.1163,466.5153 L1529.0698,466.6291 L1539.0233,466.6401 L1548.9767,466.0739 L1558.9302,466.3525 L1568.8837,466.6707 L1578.8372,464.7728 L1588.7907,466.6391 L1598.7442,465.339 L1608.6977,466.4461 L1618.6512,465.0743 L1628.6047,465.643 L1638.5581,466.7232 L1648.5116,465.6694 L1658.4651,465.8748 L1668.4186,466.1859 L1678.3721,466.2894 L1688.3256,465.7292 L1698.2791,466.1173 L1708.2326,464.9712 L1718.186,466.1136 L1728.1395,466.4653 L1738.093,466.3271 L1748.0465,466.5517 L1758,465.7344 " fill="none" style="stroke:#181818;stroke-width:1.0;stroke-dasharray:2.0,2.0;"/><text fill="#000000" font-family="FG Virgil" font-size="13" lengthAdjust="spacing" textLength="118" x="1342" y="460.4717">candidateRepository</text><polygon fill="#181818" points="1886.5,493.0254,1886.526,493.0904,1888.4487,493.6972,1890.5239,494.6852,1892.5495,495.5491,1894.4117,496.0046,1896.5,497.0254,1896.4904,497.0013,1894.4472,497.6934,1892.4525,498.5067,1890.4916,499.4043,1888.4144,500.0114,1886.5,501.0254,1886.6305,501.1559,1887.1514,500.0768,1888.0534,499.3788,1889.0018,498.7272,1889.6798,497.8052,1890.5,497.0254,1890.5161,497.0415,1889.6925,496.2179,1888.9421,495.4675,1888.1564,494.6818,1887.438,493.9634,1886.5,493.0254" style="stroke:#181818;stroke-width:1.0;"/><path d="M1325,497.0254 L1325,497.3056 L1334.9561,496.473 L1344.9123,497.2831 L1354.8684,497.5583 L1364.8246,496.0742 L1374.7807,496.9218 L1384.7368,496.4567 L1394.693,496.5141 L1404.6491,496.9345 L1414.6053,496.1036 L1424.5614,497.7636 L1434.5175,496.185 L1444.4737,496.7617 L1454.4298,497.6013 L1464.386,496.911 L1474.3421,497.1164 L1484.2982,496.9828 L1494.2544,497.2634 L1504.2105,497.3442 L1514.1667,497.8063 L1524.1228,497.9201 L1534.0789,497.9311 L1544.0351,497.3649 L1553.9912,497.6435 L1563.9474,497.9617 L1573.9035,496.0638 L1583.8596,497.9301 L1593.8158,496.6301 L1603.7719,497.7371 L1613.7281,496.3654 L1623.6842,496.9341 L1633.6404,498.0142 L1643.5965,496.9604 L1653.5526,497.1658 L1663.5088,497.4769 L1673.4649,497.5804 L1683.4211,497.0202 L1693.3772,497.4083 L1703.3333,496.2622 L1713.2895,497.4046 L1723.2456,497.7563 L1733.2018,497.6181 L1743.1579,497.8428 L1753.114,496.3813 L1763.0702,496.1558 L1773.0263,496.1969 L1782.9825,496.9469 L1792.9386,496.7634 L1802.8947,497.9339 L1812.8509,496.7925 L1822.807,496.568 L1832.7632,497.3297 L1842.7193,496.1363 L1852.6754,496.3332 L1862.6316,497.8907 L1872.5877,497.6063 L1882.5439,498.0047 L1892.5,497.0254 " fill="none" style="stroke:#181818;stroke-width:1.0;stroke-dasharray:2.0,2.0;"/><text fill="#000000" font-family="FG Virgil" font-size="13" lengthAdjust="spacing" textLength="108" x="1332" y="491.7627">findByEmail(email)</text><polygon fill="#181818" points="1336,524.3164,1336.026,524.3815,1333.9487,524.9882,1332.0239,525.9762,1330.0495,526.8401,1327.9117,527.2956,1326,528.3164,1325.9904,528.2924,1327.9472,528.9844,1329.9525,529.7977,1331.9916,530.6953,1333.9144,531.3024,1336,532.3164,1336.1305,532.4469,1335.0514,531.3678,1334.3534,530.6698,1333.7018,530.0182,1332.7798,529.0962,1332,528.3164,1332.0161,528.3325,1332.7925,527.5089,1333.6421,526.7585,1334.4564,525.9728,1335.338,525.2545,1336,524.3164" style="stroke:#181818;stroke-width:1.0;"/><path d="M1330,528.3164 L1330,528.5966 L1340.0439,527.764 L1350.0877,528.5741 L1360.1316,528.8493 L1370.1754,527.3652 L1380.2193,528.2128 L1390.2632,527.7477 L1400.307,527.8051 L1410.3509,528.2255 L1420.3947,527.3946 L1430.4386,529.0546 L1440.4825,527.476 L1450.5263,528.0527 L1460.5702,528.8923 L1470.614,528.202 L1480.6579,528.4074 L1490.7018,528.2738 L1500.7456,528.5544 L1510.7895,528.6353 L1520.8333,529.0973 L1530.8772,529.2111 L1540.9211,529.2221 L1550.9649,528.6559 L1561.0088,528.9345 L1571.0526,529.2527 L1581.0965,527.3548 L1591.1404,529.2211 L1601.1842,527.9211 L1611.2281,529.0282 L1621.2719,527.6564 L1631.3158,528.2251 L1641.3596,529.3052 L1651.4035,528.2514 L1661.4474,528.4568 L1671.4912,528.7679 L1681.5351,528.8714 L1691.5789,528.3112 L1701.6228,528.6994 L1711.6667,527.5532 L1721.7105,528.6956 L1731.7544,529.0473 L1741.7982,528.9091 L1751.8421,529.1338 L1761.886,527.6723 L1771.9298,527.4468 L1781.9737,527.4879 L1792.0175,528.2379 L1802.0614,528.0544 L1812.1053,529.225 L1822.1491,528.0835 L1832.193,527.859 L1842.2368,528.6208 L1852.2807,527.4273 L1862.3246,527.6242 L1872.3684,529.1817 L1882.4123,528.8973 L1892.4561,529.2957 L1902.5,528.3164 " fill="none" style="stroke:#181818;stroke-width:1.0;stroke-dasharray:2.0,2.0;"/><text fill="#000000" font-family="FG Virgil" font-size="13" lengthAdjust="spacing" textLength="56" x="1342" y="523.0537">candidate</text><polygon fill="#181818" points="555.5,555.6074,555.526,555.6725,553.4487,556.2792,551.5239,557.2672,549.5495,558.1311,547.4117,558.5866,545.5,559.6074,545.4904,559.5834,547.4472,560.2754,549.4525,561.0887,551.4916,561.9863,553.4144,562.5934,555.5,563.6074,555.6305,563.7379,554.5514,562.6589,553.8534,561.9608,553.2018,561.3092,552.2798,560.3872,551.5,559.6074,551.5161,559.6235,552.2925,558.7999,553.1421,558.0495,553.9564,557.2638,554.838,556.5455,555.5,555.6074" style="stroke:#181818;stroke-width:1.0;"/><path d="M549.5,559.6074 L549.5,559.8877 L559.4935,559.055 L569.487,559.8651 L579.4805,560.1403 L589.474,558.6562 L599.4675,559.5038 L609.461,559.0388 L619.4545,559.0961 L629.4481,559.5165 L639.4416,558.6856 L649.4351,560.3456 L659.4286,558.767 L669.4221,559.3437 L679.4156,560.1834 L689.4091,559.4931 L699.4026,559.6984 L709.3961,559.5648 L719.3896,559.8455 L729.3831,559.9263 L739.3766,560.3883 L749.3701,560.5022 L759.3636,560.5131 L769.3571,559.9469 L779.3506,560.2255 L789.3442,560.5437 L799.3377,558.6458 L809.3312,560.5121 L819.3247,559.2121 L829.3182,560.3192 L839.3117,558.9474 L849.3052,559.5161 L859.2987,560.5962 L869.2922,559.5424 L879.2857,559.7478 L889.2792,560.0589 L899.2727,560.1624 L909.2662,559.6022 L919.2597,559.9904 L929.2532,558.8442 L939.2468,559.9866 L949.2403,560.3383 L959.2338,560.2001 L969.2273,560.4248 L979.2208,558.9633 L989.2143,558.7378 L999.2078,558.7789 L1009.2013,559.5289 L1019.1948,559.3454 L1029.1883,560.516 L1039.1818,559.3745 L1049.1753,559.15 L1059.1688,559.9118 L1069.1623,558.7183 L1079.1558,558.9153 L1089.1494,560.4727 L1099.1429,560.1883 L1109.1364,560.5867 L1119.1299,559.1784 L1129.1234,560.033 L1139.1169,560.3946 L1149.1104,558.9775 L1159.1039,559.4796 L1169.0974,559.7754 L1179.0909,560.4764 L1189.0844,559.6018 L1199.0779,560.2242 L1209.0714,558.869 L1219.0649,558.7044 L1229.0584,560.2789 L1239.0519,558.6515 L1249.0455,560.286 L1259.039,559.8829 L1269.0325,559.2502 L1279.026,559.1357 L1289.0195,560.2191 L1299.013,559.2083 L1309.0065,560.3966 L1319,559.6074 " fill="none" style="stroke:#181818;stroke-width:1.0;stroke-dasharray:2.0,2.0;"/><text fill="#000000" font-family="FG Virgil" font-size="13" lengthAdjust="spacing" textLength="56" x="561.5" y="554.3447">candidate</text><polygon fill="#181818" points="355.5,586.8984,355.526,586.9635,353.4487,587.5702,351.5239,588.5583,349.5495,589.4221,347.4117,589.8776,345.5,590.8984,345.4904,590.8744,347.4472,591.5664,349.4525,592.3797,351.4916,593.2773,353.4144,593.8845,355.5,594.8984,355.6305,595.0289,354.5514,593.9499,353.8534,593.2518,353.2018,592.6002,352.2798,591.6782,351.5,590.8984,351.5161,590.9145,352.2925,590.0909,353.1421,589.3405,353.9564,588.5548,354.838,587.8365,355.5,586.8984" style="stroke:#181818;stroke-width:1.0;"/><path d="M349.5,590.8984 L349.5,591.1787 L359.4444,590.346 L369.3889,591.1562 L379.3333,591.4313 L389.2778,589.9472 L399.2222,590.7948 L409.1667,590.3298 L419.1111,590.3871 L429.0556,590.8076 L439,589.9766 L448.9444,591.6366 L458.8889,590.0581 L468.8333,590.6347 L478.7778,591.4744 L488.7222,590.7841 L498.6667,590.9894 L508.6111,590.8558 L518.5556,591.1365 L528.5,590.8984 " fill="none" style="stroke:#181818;stroke-width:1.0;stroke-dasharray:2.0,2.0;"/><text fill="#000000" font-family="FG Virgil" font-size="13" lengthAdjust="spacing" textLength="56" x="361.5" y="585.6357">candidate</text><polygon fill="#181818" points="77.5,618.1895,77.526,618.2545,75.4487,618.8612,73.5239,619.8493,71.5495,620.7132,69.4117,621.1687,67.5,622.1895,67.4904,622.1654,69.4472,622.8575,71.4525,623.6708,73.4916,624.5684,75.4144,625.1755,77.5,626.1895,77.6305,626.3199,76.5514,625.2409,75.8534,624.5428,75.2018,623.8913,74.2798,622.9692,73.5,622.1895,73.5161,622.2055,74.2925,621.3819,75.1421,620.6315,75.9564,619.8458,76.838,619.1275,77.5,618.1895" style="stroke:#181818;stroke-width:1.0;"/><path d="M71.5,622.1895 L71.5,622.4697 L81.3889,621.637 L91.2778,622.4472 L101.1667,622.7224 L111.0556,621.2383 L120.9444,622.0858 L130.8333,621.6208 L140.7222,621.6781 L150.6111,622.0986 L160.5,621.2676 L170.3889,622.9276 L180.2778,621.3491 L190.1667,621.9258 L200.0556,622.7654 L209.9444,622.0751 L219.8333,622.2804 L229.7222,622.1469 L239.6111,622.4275 L249.5,622.5083 L259.3889,622.9704 L269.2778,623.0842 L279.1667,623.0951 L289.0556,622.529 L298.9444,622.8076 L308.8333,623.1258 L318.7222,621.2279 L328.6111,623.0941 L338.5,622.1895 " fill="none" style="stroke:#181818;stroke-width:1.0;stroke-dasharray:2.0,2.0;"/><text fill="#000000" font-family="FG Virgil" font-size="13" lengthAdjust="spacing" textLength="236" x="83.5" y="616.9268">display all the personal data of candidate</text><!--SRC=[hLHBZvim4BxpAwozD96woQKdX2BHRB9DfMnMITCUAoyCmOgnaMrso_xwZaa0B-HLgHoGnpFVVFFoV4gDoVtnEETKc2BZeqXcOxrd8gUAPgFKPDnhH99I4RyfPWm8ObG1ZYgJGaQfaXbqDJcDzdG76rDo80eYu-XYI6Z1pLmAyqGHEdyaFvdQCPTKfpIMRqpiI4Av1i-ZaP6AJ0jja4qjgK3lYb1DGglm46LOn79CY3mmZPcLKuoRnTJ0GYHokx2s-0-2N846OQXXKamcLv5J35D9pWziZXG4DCyvYquv2WkJIiNUAzq6r2kBe0eMxz-FSX3emw63RTWTNFVk7FOkgWtz1d9d7Jp8Z3A1CSVLeGDx1gMPnWP7O1E4FyPYd5jRjbRgeDUGIysm2-Mywb9fmVKn29B32K4O3NsX6jfqMgZ5E58Gg4P0f5TrcTpVJx27VjqdGZad9WLYOvE2Sc8PY4m89KqXxEImLpmS9wKHjmlFmu6mFW_UVHBgVGiaW9NY7vZHv73f4VmiUE9CX4yY1PQHTBw6ihNrUaREP5KXEPDYQOKk5DXB75qxSn1lSGI-KHsASfKCliiN_QLOImvwzBpwDLl_tcvcwy_kzNIx-R5QecOPFeMFi_Mm5q8CRQqS-gknzYRM9maJyTToPeirg4esl52L3lm4NvV0ihhZwPDcN1ZemR3lmhMsw7e-wwRTWZcLvy7DfL8wNcxCp8cjLjkSpXRmQD_tNZkoJft7TIbd5t8YtwZ_SY_bVZQoatb_2F5V9iW9fcVaEBsMqwLCBb6SJCPv8pTIzDx1_zWZrTAwZRxZTBjmLsDyRUMs79xZ59UikrMg3VmN]--></g></svg>