<?xml version="1.0" encoding="us-ascii" standalone="no"?><svg xmlns="http://www.w3.org/2000/svg" xmlns:xlink="http://www.w3.org/1999/xlink" contentStyleType="text/css" height="612.8px" preserveAspectRatio="none" style="width:1963px;height:612px;background:#FFFFFF;" version="1.1" viewBox="0 0 1963 612" width="1963.2px" zoomAndPan="magnify"><defs/><g><!--cluster JobOpeningAggregate--><g id="cluster_JobOpeningAggregate"><rect fill="none" height="306.4" rx="2" ry="2" style="stroke:#000000;stroke-width:1.2000000000000002;" width="613.6" x="906.4" y="165.6"/><text fill="#000000" font-family="sans-serif" font-size="11.2" font-weight="bold" lengthAdjust="spacing" textLength="127.2" x="1149.6" y="179.2859">JobOpeningAggregate</text></g><!--cluster JobOpeningProcessAggregate--><g id="cluster_JobOpeningProcessAggregate"><rect fill="none" height="497.2" rx="2" ry="2" style="stroke:#000000;stroke-width:1.2000000000000002;" width="496.8" x="200" y="12"/><text fill="#000000" font-family="sans-serif" font-size="11.2" font-weight="bold" lengthAdjust="spacing" textLength="172.8" x="362" y="25.6859">JobOpeningProcessAggregate</text></g><!--cluster JobRequirementsAggregate--><g id="cluster_JobRequirementsAggregate"><rect fill="none" height="250.8" rx="2" ry="2" style="stroke:#000000;stroke-width:1.2000000000000002;" width="171.2" x="716" y="357.6"/><text fill="#000000" font-family="sans-serif" font-size="11.2" font-weight="bold" lengthAdjust="spacing" textLength="158.4" x="722.4" y="371.2859">JobRequirementsAggregate</text></g><!--cluster ApplicationAggregate--><g id="cluster_ApplicationAggregate"><rect fill="none" height="311.2" rx="2" ry="2" style="stroke:#000000;stroke-width:1.2000000000000002;" width="272" x="1686.4" y="5.6"/><text fill="#000000" font-family="sans-serif" font-size="11.2" font-weight="bold" lengthAdjust="spacing" textLength="120.8" x="1762" y="19.2859">ApplicationAggregate</text></g><!--cluster ValidationService--><g id="cluster_ValidationService"><rect fill="none" height="108" rx="2" ry="2" style="stroke:#000000;stroke-width:1.2000000000000002;" width="132.8" x="747.2" y="179.2"/><text fill="#000000" font-family="sans-serif" font-size="11.2" font-weight="bold" lengthAdjust="spacing" textLength="98.4" x="764.4" y="192.8859">ValidationService</text></g><!--cluster CandidateAggregate--><g id="cluster_CandidateAggregate"><rect fill="none" height="299.2" rx="2" ry="2" style="stroke:#000000;stroke-width:1.2000000000000002;" width="128" x="1539.2" y="172.8"/><text fill="#000000" font-family="sans-serif" font-size="11.2" font-weight="bold" lengthAdjust="spacing" textLength="115.2" x="1545.6" y="186.4859">CandidateAggregate</text></g><!--cluster CustomerManagerAggregate--><g id="cluster_CustomerManagerAggregate"><rect fill="none" height="120.8" rx="2" ry="2" style="stroke:#000000;stroke-width:1.2000000000000002;" width="175.2" x="5.6" y="172.8"/><text fill="#000000" font-family="sans-serif" font-size="11.2" font-weight="bold" lengthAdjust="spacing" textLength="162.4" x="12" y="186.4859">CustomerManagerAggregate</text></g><!--class JobOpening--><g id="elem_JobOpening"><rect codeLine="5" fill="#F1F1F1" height="76.1313" id="JobOpening" rx="2" ry="2" style="stroke:#181818;stroke-width:0.4000000000000001;" width="86.4" x="994.4" y="212"/><ellipse cx="1006.4" cy="236.2172" fill="#ADD1B2" rx="8.8" ry="8.8" style="stroke:#181818;stroke-width:0.8000000000000002;"/><path d="M1005.4875,236.8547 L1005.4875,238.8547 L1008.95,238.8547 L1008.95,238.1172 Q1008.95,237.6297 1009.1375,237.4172 Q1009.3375,237.2047 1009.6375,237.2047 Q1009.9375,237.2047 1010.125,237.4172 Q1010.3125,237.6297 1010.3125,238.1172 L1010.3125,240.2172 L1003.9125,240.2172 Q1003.4125,240.2172 1003.2,240.0297 Q1003,239.8422 1003,239.5297 Q1003,239.2297 1003.2125,239.0422 Q1003.425,238.8547 1003.9125,238.8547 L1004.125,238.8547 L1004.125,233.5297 L1003.9125,233.5297 Q1003.4125,233.5297 1003.2,233.3422 Q1003,233.1547 1003,232.8422 Q1003,232.5422 1003.2,232.3547 Q1003.4125,232.1672 1003.9125,232.1672 L1010.0125,232.1672 L1010.0125,234.2422 Q1010.0125,234.7297 1009.825,234.9422 Q1009.65,235.1422 1009.3375,235.1422 Q1009.0375,235.1422 1008.85,234.9422 Q1008.6625,234.7297 1008.6625,234.2422 L1008.6625,233.5297 L1005.4875,233.5297 L1005.4875,235.4922 L1006.675,235.4922 Q1006.675,234.9672 1006.775,234.8172 Q1006.9875,234.4922 1007.3625,234.4922 Q1007.6625,234.4922 1007.85,234.7047 Q1008.0375,234.9047 1008.0375,235.3922 L1008.0375,236.9672 Q1008.0375,237.4047 1007.9375,237.5547 Q1007.725,237.8672 1007.3625,237.8672 Q1006.9875,237.8672 1006.775,237.5422 Q1006.675,237.3922 1006.675,236.8547 L1005.4875,236.8547 Z " fill="#000000"/><text fill="#000000" font-family="sans-serif" font-size="9.6" font-style="italic" lengthAdjust="spacing" textLength="28" x="1034" y="226.3594">&#171;root&#187;</text><text fill="#000000" font-family="sans-serif" font-size="9.6" font-style="italic" lengthAdjust="spacing" textLength="34.4" x="1030.8" y="239.1281">&#171;entity&#187;</text><text fill="#000000" font-family="sans-serif" font-size="11.2" lengthAdjust="spacing" textLength="60.8" x="1017.6" y="253.6234">JobOpening</text><line style="stroke:#181818;stroke-width:0.4000000000000001;" x1="995.2" x2="1080" y1="260.4344" y2="260.4344"/><text fill="#000000" font-family="sans-serif" font-size="11.2" lengthAdjust="spacing" textLength="55.2" x="999.2" y="275.7203">description</text><line style="stroke:#181818;stroke-width:0.4000000000000001;" x1="995.2" x2="1080" y1="281.7313" y2="281.7313"/></g><!--class JobReference--><g id="elem_JobReference"><rect codeLine="9" fill="#F1F1F1" height="48.4656" id="JobReference" rx="2" ry="2" style="stroke:#181818;stroke-width:0.4000000000000001;" width="96" x="919.2" y="410.4"/><ellipse cx="931.2" cy="428.2328" fill="#ADD1B2" rx="8.8" ry="8.8" style="stroke:#181818;stroke-width:0.8000000000000002;"/><path d="M933.4125,424.9328 Q933.5375,424.7578 933.6875,424.6703 Q933.8375,424.5828 934.0125,424.5828 Q934.3125,424.5828 934.5,424.7953 Q934.6875,424.9953 934.6875,425.4828 L934.6875,426.6453 Q934.6875,427.1328 934.5,427.3453 Q934.3125,427.5578 934.0125,427.5578 Q933.7375,427.5578 933.575,427.3953 Q933.4125,427.2453 933.325,426.8328 Q933.2875,426.5453 933.1375,426.3953 Q932.875,426.0953 932.3875,425.9203 Q931.9,425.7453 931.4,425.7453 Q930.7875,425.7453 930.275,426.0078 Q929.775,426.2703 929.375,426.8703 Q928.9875,427.4703 928.9875,428.2953 L928.9875,429.1703 Q928.9875,430.1578 929.7,430.8203 Q930.4125,431.4703 931.6875,431.4703 Q932.4375,431.4703 932.9625,431.2703 Q933.275,431.1453 933.6125,430.7953 Q933.825,430.5828 933.9375,430.5203 Q934.0625,430.4578 934.225,430.4578 Q934.4875,430.4578 934.6875,430.6703 Q934.9,430.8703 934.9,431.1453 Q934.9,431.4203 934.625,431.7453 Q934.225,432.2078 933.5875,432.4703 Q932.725,432.8328 931.6875,432.8328 Q930.475,432.8328 929.5125,432.3328 Q928.725,431.9328 928.175,431.0828 Q927.625,430.2203 927.625,429.1953 L927.625,428.2703 Q927.625,427.2078 928.1125,426.2953 Q928.6125,425.3703 929.4875,424.8828 Q930.3625,424.3828 931.35,424.3828 Q931.9375,424.3828 932.45,424.5203 Q932.975,424.6453 933.4125,424.9328 Z " fill="#000000"/><text fill="#000000" font-family="sans-serif" font-size="9.6" font-style="italic" lengthAdjust="spacing" textLength="36.8" x="959.2" y="424.7594">&#171;Value&#187;</text><text fill="#000000" font-family="sans-serif" font-size="11.2" lengthAdjust="spacing" textLength="70.4" x="942.4" y="439.2547">JobReference</text><line style="stroke:#181818;stroke-width:0.4000000000000001;" x1="920" x2="1014.4" y1="446.0656" y2="446.0656"/><line style="stroke:#181818;stroke-width:0.4000000000000001;" x1="920" x2="1014.4" y1="452.4656" y2="452.4656"/></g><!--class NumberOfVacancies--><g id="elem_NumberOfVacancies"><rect codeLine="10" fill="#F1F1F1" height="48.4656" id="NumberOfVacancies" rx="2" ry="2" style="stroke:#181818;stroke-width:0.4000000000000001;" width="128.8" x="1043.6" y="410.4"/><ellipse cx="1055.6" cy="428.2328" fill="#ADD1B2" rx="8.8" ry="8.8" style="stroke:#181818;stroke-width:0.8000000000000002;"/><path d="M1057.8125,424.9328 Q1057.9375,424.7578 1058.0875,424.6703 Q1058.2375,424.5828 1058.4125,424.5828 Q1058.7125,424.5828 1058.9,424.7953 Q1059.0875,424.9953 1059.0875,425.4828 L1059.0875,426.6453 Q1059.0875,427.1328 1058.9,427.3453 Q1058.7125,427.5578 1058.4125,427.5578 Q1058.1375,427.5578 1057.975,427.3953 Q1057.8125,427.2453 1057.725,426.8328 Q1057.6875,426.5453 1057.5375,426.3953 Q1057.275,426.0953 1056.7875,425.9203 Q1056.3,425.7453 1055.8,425.7453 Q1055.1875,425.7453 1054.675,426.0078 Q1054.175,426.2703 1053.775,426.8703 Q1053.3875,427.4703 1053.3875,428.2953 L1053.3875,429.1703 Q1053.3875,430.1578 1054.1,430.8203 Q1054.8125,431.4703 1056.0875,431.4703 Q1056.8375,431.4703 1057.3625,431.2703 Q1057.675,431.1453 1058.0125,430.7953 Q1058.225,430.5828 1058.3375,430.5203 Q1058.4625,430.4578 1058.625,430.4578 Q1058.8875,430.4578 1059.0875,430.6703 Q1059.3,430.8703 1059.3,431.1453 Q1059.3,431.4203 1059.025,431.7453 Q1058.625,432.2078 1057.9875,432.4703 Q1057.125,432.8328 1056.0875,432.8328 Q1054.875,432.8328 1053.9125,432.3328 Q1053.125,431.9328 1052.575,431.0828 Q1052.025,430.2203 1052.025,429.1953 L1052.025,428.2703 Q1052.025,427.2078 1052.5125,426.2953 Q1053.0125,425.3703 1053.8875,424.8828 Q1054.7625,424.3828 1055.75,424.3828 Q1056.3375,424.3828 1056.85,424.5203 Q1057.375,424.6453 1057.8125,424.9328 Z " fill="#000000"/><text fill="#000000" font-family="sans-serif" font-size="9.6" font-style="italic" lengthAdjust="spacing" textLength="36.8" x="1100" y="424.7594">&#171;Value&#187;</text><text fill="#000000" font-family="sans-serif" font-size="11.2" lengthAdjust="spacing" textLength="103.2" x="1066.8" y="439.2547">NumberOfVacancies</text><line style="stroke:#181818;stroke-width:0.4000000000000001;" x1="1044.4" x2="1171.6" y1="446.0656" y2="446.0656"/><line style="stroke:#181818;stroke-width:0.4000000000000001;" x1="1044.4" x2="1171.6" y1="452.4656" y2="452.4656"/></g><!--class ContractType--><g id="elem_ContractType"><rect codeLine="11" fill="#F1F1F1" height="48.4656" id="ContractType" rx="2" ry="2" style="stroke:#181818;stroke-width:0.4000000000000001;" width="94.4" x="1200.8" y="410.4"/><ellipse cx="1212.8" cy="428.2328" fill="#ADD1B2" rx="8.8" ry="8.8" style="stroke:#181818;stroke-width:0.8000000000000002;"/><path d="M1215.0125,424.9328 Q1215.1375,424.7578 1215.2875,424.6703 Q1215.4375,424.5828 1215.6125,424.5828 Q1215.9125,424.5828 1216.1,424.7953 Q1216.2875,424.9953 1216.2875,425.4828 L1216.2875,426.6453 Q1216.2875,427.1328 1216.1,427.3453 Q1215.9125,427.5578 1215.6125,427.5578 Q1215.3375,427.5578 1215.175,427.3953 Q1215.0125,427.2453 1214.925,426.8328 Q1214.8875,426.5453 1214.7375,426.3953 Q1214.475,426.0953 1213.9875,425.9203 Q1213.5,425.7453 1213,425.7453 Q1212.3875,425.7453 1211.875,426.0078 Q1211.375,426.2703 1210.975,426.8703 Q1210.5875,427.4703 1210.5875,428.2953 L1210.5875,429.1703 Q1210.5875,430.1578 1211.3,430.8203 Q1212.0125,431.4703 1213.2875,431.4703 Q1214.0375,431.4703 1214.5625,431.2703 Q1214.875,431.1453 1215.2125,430.7953 Q1215.425,430.5828 1215.5375,430.5203 Q1215.6625,430.4578 1215.825,430.4578 Q1216.0875,430.4578 1216.2875,430.6703 Q1216.5,430.8703 1216.5,431.1453 Q1216.5,431.4203 1216.225,431.7453 Q1215.825,432.2078 1215.1875,432.4703 Q1214.325,432.8328 1213.2875,432.8328 Q1212.075,432.8328 1211.1125,432.3328 Q1210.325,431.9328 1209.775,431.0828 Q1209.225,430.2203 1209.225,429.1953 L1209.225,428.2703 Q1209.225,427.2078 1209.7125,426.2953 Q1210.2125,425.3703 1211.0875,424.8828 Q1211.9625,424.3828 1212.95,424.3828 Q1213.5375,424.3828 1214.05,424.5203 Q1214.575,424.6453 1215.0125,424.9328 Z " fill="#000000"/><text fill="#000000" font-family="sans-serif" font-size="9.6" font-style="italic" lengthAdjust="spacing" textLength="36.8" x="1240" y="424.7594">&#171;Value&#187;</text><text fill="#000000" font-family="sans-serif" font-size="11.2" lengthAdjust="spacing" textLength="68.8" x="1224" y="439.2547">ContractType</text><line style="stroke:#181818;stroke-width:0.4000000000000001;" x1="1201.6" x2="1294.4" y1="446.0656" y2="446.0656"/><line style="stroke:#181818;stroke-width:0.4000000000000001;" x1="1201.6" x2="1294.4" y1="452.4656" y2="452.4656"/></g><!--class WorkRegime--><g id="elem_WorkRegime"><rect codeLine="12" fill="#F1F1F1" height="48.4656" id="WorkRegime" rx="2" ry="2" style="stroke:#181818;stroke-width:0.4000000000000001;" width="90.4" x="1323.6" y="410.4"/><ellipse cx="1335.6" cy="428.2328" fill="#ADD1B2" rx="8.8" ry="8.8" style="stroke:#181818;stroke-width:0.8000000000000002;"/><path d="M1337.8125,424.9328 Q1337.9375,424.7578 1338.0875,424.6703 Q1338.2375,424.5828 1338.4125,424.5828 Q1338.7125,424.5828 1338.9,424.7953 Q1339.0875,424.9953 1339.0875,425.4828 L1339.0875,426.6453 Q1339.0875,427.1328 1338.9,427.3453 Q1338.7125,427.5578 1338.4125,427.5578 Q1338.1375,427.5578 1337.975,427.3953 Q1337.8125,427.2453 1337.725,426.8328 Q1337.6875,426.5453 1337.5375,426.3953 Q1337.275,426.0953 1336.7875,425.9203 Q1336.3,425.7453 1335.8,425.7453 Q1335.1875,425.7453 1334.675,426.0078 Q1334.175,426.2703 1333.775,426.8703 Q1333.3875,427.4703 1333.3875,428.2953 L1333.3875,429.1703 Q1333.3875,430.1578 1334.1,430.8203 Q1334.8125,431.4703 1336.0875,431.4703 Q1336.8375,431.4703 1337.3625,431.2703 Q1337.675,431.1453 1338.0125,430.7953 Q1338.225,430.5828 1338.3375,430.5203 Q1338.4625,430.4578 1338.625,430.4578 Q1338.8875,430.4578 1339.0875,430.6703 Q1339.3,430.8703 1339.3,431.1453 Q1339.3,431.4203 1339.025,431.7453 Q1338.625,432.2078 1337.9875,432.4703 Q1337.125,432.8328 1336.0875,432.8328 Q1334.875,432.8328 1333.9125,432.3328 Q1333.125,431.9328 1332.575,431.0828 Q1332.025,430.2203 1332.025,429.1953 L1332.025,428.2703 Q1332.025,427.2078 1332.5125,426.2953 Q1333.0125,425.3703 1333.8875,424.8828 Q1334.7625,424.3828 1335.75,424.3828 Q1336.3375,424.3828 1336.85,424.5203 Q1337.375,424.6453 1337.8125,424.9328 Z " fill="#000000"/><text fill="#000000" font-family="sans-serif" font-size="9.6" font-style="italic" lengthAdjust="spacing" textLength="36.8" x="1360.8" y="424.7594">&#171;Value&#187;</text><text fill="#000000" font-family="sans-serif" font-size="11.2" lengthAdjust="spacing" textLength="64.8" x="1346.8" y="439.2547">WorkRegime</text><line style="stroke:#181818;stroke-width:0.4000000000000001;" x1="1324.4" x2="1413.2" y1="446.0656" y2="446.0656"/><line style="stroke:#181818;stroke-width:0.4000000000000001;" x1="1324.4" x2="1413.2" y1="452.4656" y2="452.4656"/></g><!--class JobTitle--><g id="elem_JobTitle"><rect codeLine="13" fill="#F1F1F1" height="48.4656" id="JobTitle" rx="2" ry="2" style="stroke:#181818;stroke-width:0.4000000000000001;" width="64.8" x="1442" y="410.4"/><ellipse cx="1454" cy="428.2328" fill="#ADD1B2" rx="8.8" ry="8.8" style="stroke:#181818;stroke-width:0.8000000000000002;"/><path d="M1456.2125,424.9328 Q1456.3375,424.7578 1456.4875,424.6703 Q1456.6375,424.5828 1456.8125,424.5828 Q1457.1125,424.5828 1457.3,424.7953 Q1457.4875,424.9953 1457.4875,425.4828 L1457.4875,426.6453 Q1457.4875,427.1328 1457.3,427.3453 Q1457.1125,427.5578 1456.8125,427.5578 Q1456.5375,427.5578 1456.375,427.3953 Q1456.2125,427.2453 1456.125,426.8328 Q1456.0875,426.5453 1455.9375,426.3953 Q1455.675,426.0953 1455.1875,425.9203 Q1454.7,425.7453 1454.2,425.7453 Q1453.5875,425.7453 1453.075,426.0078 Q1452.575,426.2703 1452.175,426.8703 Q1451.7875,427.4703 1451.7875,428.2953 L1451.7875,429.1703 Q1451.7875,430.1578 1452.5,430.8203 Q1453.2125,431.4703 1454.4875,431.4703 Q1455.2375,431.4703 1455.7625,431.2703 Q1456.075,431.1453 1456.4125,430.7953 Q1456.625,430.5828 1456.7375,430.5203 Q1456.8625,430.4578 1457.025,430.4578 Q1457.2875,430.4578 1457.4875,430.6703 Q1457.7,430.8703 1457.7,431.1453 Q1457.7,431.4203 1457.425,431.7453 Q1457.025,432.2078 1456.3875,432.4703 Q1455.525,432.8328 1454.4875,432.8328 Q1453.275,432.8328 1452.3125,432.3328 Q1451.525,431.9328 1450.975,431.0828 Q1450.425,430.2203 1450.425,429.1953 L1450.425,428.2703 Q1450.425,427.2078 1450.9125,426.2953 Q1451.4125,425.3703 1452.2875,424.8828 Q1453.1625,424.3828 1454.15,424.3828 Q1454.7375,424.3828 1455.25,424.5203 Q1455.775,424.6453 1456.2125,424.9328 Z " fill="#000000"/><text fill="#000000" font-family="sans-serif" font-size="9.6" font-style="italic" lengthAdjust="spacing" textLength="36.8" x="1466.4" y="424.7594">&#171;Value&#187;</text><text fill="#000000" font-family="sans-serif" font-size="11.2" lengthAdjust="spacing" textLength="39.2" x="1465.2" y="439.2547">JobTitle</text><line style="stroke:#181818;stroke-width:0.4000000000000001;" x1="1442.8" x2="1506" y1="446.0656" y2="446.0656"/><line style="stroke:#181818;stroke-width:0.4000000000000001;" x1="1442.8" x2="1506" y1="452.4656" y2="452.4656"/></g><!--class JobOpeningProcess--><g id="elem_JobOpeningProcess"><rect codeLine="17" fill="#F1F1F1" height="48.4656" id="JobOpeningProcess" rx="2" ry="2" style="stroke:#181818;stroke-width:0.4000000000000001;" width="127.2" x="526.8" y="58.4"/><ellipse cx="538.8" cy="76.2328" fill="#ADD1B2" rx="8.8" ry="8.8" style="stroke:#181818;stroke-width:0.8000000000000002;"/><path d="M541.0125,72.9328 Q541.1375,72.7578 541.2875,72.6703 Q541.4375,72.5828 541.6125,72.5828 Q541.9125,72.5828 542.1,72.7953 Q542.2875,72.9953 542.2875,73.4828 L542.2875,74.6453 Q542.2875,75.1328 542.1,75.3453 Q541.9125,75.5578 541.6125,75.5578 Q541.3375,75.5578 541.175,75.3953 Q541.0125,75.2453 540.925,74.8328 Q540.8875,74.5453 540.7375,74.3953 Q540.475,74.0953 539.9875,73.9203 Q539.5,73.7453 539,73.7453 Q538.3875,73.7453 537.875,74.0078 Q537.375,74.2703 536.975,74.8703 Q536.5875,75.4703 536.5875,76.2953 L536.5875,77.1703 Q536.5875,78.1578 537.3,78.8203 Q538.0125,79.4703 539.2875,79.4703 Q540.0375,79.4703 540.5625,79.2703 Q540.875,79.1453 541.2125,78.7953 Q541.425,78.5828 541.5375,78.5203 Q541.6625,78.4578 541.825,78.4578 Q542.0875,78.4578 542.2875,78.6703 Q542.5,78.8703 542.5,79.1453 Q542.5,79.4203 542.225,79.7453 Q541.825,80.2078 541.1875,80.4703 Q540.325,80.8328 539.2875,80.8328 Q538.075,80.8328 537.1125,80.3328 Q536.325,79.9328 535.775,79.0828 Q535.225,78.2203 535.225,77.1953 L535.225,76.2703 Q535.225,75.2078 535.7125,74.2953 Q536.2125,73.3703 537.0875,72.8828 Q537.9625,72.3828 538.95,72.3828 Q539.5375,72.3828 540.05,72.5203 Q540.575,72.6453 541.0125,72.9328 Z " fill="#000000"/><text fill="#000000" font-family="sans-serif" font-size="9.6" font-style="italic" lengthAdjust="spacing" textLength="35.2" x="583.2" y="72.7594">&#171;Entity&#187;</text><text fill="#000000" font-family="sans-serif" font-size="11.2" lengthAdjust="spacing" textLength="101.6" x="550" y="87.2547">JobOpeningProcess</text><line style="stroke:#181818;stroke-width:0.4000000000000001;" x1="527.6" x2="653.2" y1="94.0656" y2="94.0656"/><line style="stroke:#181818;stroke-width:0.4000000000000001;" x1="527.6" x2="653.2" y1="100.4656" y2="100.4656"/></g><!--class JobOpeningPhases--><g id="elem_JobOpeningPhases"><rect codeLine="19" fill="#F1F1F1" height="122.95" id="JobOpeningPhases" rx="2" ry="2" style="stroke:#181818;stroke-width:0.4000000000000001;" width="124" x="213.2" y="373.2"/><ellipse cx="225.2" cy="391.0328" fill="#EB937F" rx="8.8" ry="8.8" style="stroke:#181818;stroke-width:0.8000000000000002;"/><path d="M224.2875,391.6703 L224.2875,393.6703 L227.75,393.6703 L227.75,392.9328 Q227.75,392.4453 227.9375,392.2328 Q228.1375,392.0203 228.4375,392.0203 Q228.7375,392.0203 228.925,392.2328 Q229.1125,392.4453 229.1125,392.9328 L229.1125,395.0328 L222.7125,395.0328 Q222.2125,395.0328 222,394.8453 Q221.8,394.6578 221.8,394.3453 Q221.8,394.0453 222.0125,393.8578 Q222.225,393.6703 222.7125,393.6703 L222.925,393.6703 L222.925,388.3453 L222.7125,388.3453 Q222.2125,388.3453 222,388.1578 Q221.8,387.9703 221.8,387.6578 Q221.8,387.3578 222,387.1703 Q222.2125,386.9828 222.7125,386.9828 L228.8125,386.9828 L228.8125,389.0578 Q228.8125,389.5453 228.625,389.7578 Q228.45,389.9578 228.1375,389.9578 Q227.8375,389.9578 227.65,389.7578 Q227.4625,389.5453 227.4625,389.0578 L227.4625,388.3453 L224.2875,388.3453 L224.2875,390.3078 L225.475,390.3078 Q225.475,389.7828 225.575,389.6328 Q225.7875,389.3078 226.1625,389.3078 Q226.4625,389.3078 226.65,389.5203 Q226.8375,389.7203 226.8375,390.2078 L226.8375,391.7828 Q226.8375,392.2203 226.7375,392.3703 Q226.525,392.6828 226.1625,392.6828 Q225.7875,392.6828 225.575,392.3578 Q225.475,392.2078 225.475,391.6703 L224.2875,391.6703 Z " fill="#000000"/><text fill="#000000" font-family="sans-serif" font-size="9.6" font-style="italic" lengthAdjust="spacing" textLength="36.8" x="267.2" y="387.5594">&#171;Value&#187;</text><text fill="#000000" font-family="sans-serif" font-size="11.2" lengthAdjust="spacing" textLength="98.4" x="236.4" y="402.0547">JobOpeningPhases</text><line style="stroke:#181818;stroke-width:0.4000000000000001;" x1="214" x2="336.4" y1="408.8656" y2="408.8656"/><text fill="#000000" font-family="sans-serif" font-size="11.2" lengthAdjust="spacing" textLength="55.2" x="218" y="424.1516">Application</text><text fill="#000000" font-family="sans-serif" font-size="11.2" lengthAdjust="spacing" textLength="51.2" x="218" y="439.0484">Screening</text><text fill="#000000" font-family="sans-serif" font-size="11.2" lengthAdjust="spacing" textLength="44" x="218" y="453.9453">Interview</text><text fill="#000000" font-family="sans-serif" font-size="11.2" lengthAdjust="spacing" textLength="41.6" x="218" y="468.8422">Analysis</text><text fill="#000000" font-family="sans-serif" font-size="11.2" lengthAdjust="spacing" textLength="32" x="218" y="483.7391">Result</text><line style="stroke:#181818;stroke-width:0.4000000000000001;" x1="214" x2="336.4" y1="489.75" y2="489.75"/></g><!--class JobOpeningPhase--><g id="elem_JobOpeningPhase"><rect codeLine="27" fill="#F1F1F1" height="38.4" id="JobOpeningPhase" rx="2" ry="2" style="stroke:#181818;stroke-width:0.4000000000000001;" width="118.4" x="443.2" y="230.8"/><ellipse cx="455.2" cy="243.6" fill="#ADD1B2" rx="8.8" ry="8.8" style="stroke:#181818;stroke-width:0.8000000000000002;"/><path d="M457.4125,240.3 Q457.5375,240.125 457.6875,240.0375 Q457.8375,239.95 458.0125,239.95 Q458.3125,239.95 458.5,240.1625 Q458.6875,240.3625 458.6875,240.85 L458.6875,242.0125 Q458.6875,242.5 458.5,242.7125 Q458.3125,242.925 458.0125,242.925 Q457.7375,242.925 457.575,242.7625 Q457.4125,242.6125 457.325,242.2 Q457.2875,241.9125 457.1375,241.7625 Q456.875,241.4625 456.3875,241.2875 Q455.9,241.1125 455.4,241.1125 Q454.7875,241.1125 454.275,241.375 Q453.775,241.6375 453.375,242.2375 Q452.9875,242.8375 452.9875,243.6625 L452.9875,244.5375 Q452.9875,245.525 453.7,246.1875 Q454.4125,246.8375 455.6875,246.8375 Q456.4375,246.8375 456.9625,246.6375 Q457.275,246.5125 457.6125,246.1625 Q457.825,245.95 457.9375,245.8875 Q458.0625,245.825 458.225,245.825 Q458.4875,245.825 458.6875,246.0375 Q458.9,246.2375 458.9,246.5125 Q458.9,246.7875 458.625,247.1125 Q458.225,247.575 457.5875,247.8375 Q456.725,248.2 455.6875,248.2 Q454.475,248.2 453.5125,247.7 Q452.725,247.3 452.175,246.45 Q451.625,245.5875 451.625,244.5625 L451.625,243.6375 Q451.625,242.575 452.1125,241.6625 Q452.6125,240.7375 453.4875,240.25 Q454.3625,239.75 455.35,239.75 Q455.9375,239.75 456.45,239.8875 Q456.975,240.0125 457.4125,240.3 Z " fill="#000000"/><text fill="#000000" font-family="sans-serif" font-size="11.2" lengthAdjust="spacing" textLength="92.8" x="466.4" y="248.2375">JobOpeningPhase</text><line style="stroke:#181818;stroke-width:0.4000000000000001;" x1="444" x2="560.8" y1="256.4" y2="256.4"/><line style="stroke:#181818;stroke-width:0.4000000000000001;" x1="444" x2="560.8" y1="262.8" y2="262.8"/></g><!--class StartDate--><g id="elem_StartDate"><rect codeLine="28" fill="#F1F1F1" height="48.4656" id="StartDate" rx="2" ry="2" style="stroke:#181818;stroke-width:0.4000000000000001;" width="73.6" x="365.6" y="410.4"/><ellipse cx="377.6" cy="428.2328" fill="#ADD1B2" rx="8.8" ry="8.8" style="stroke:#181818;stroke-width:0.8000000000000002;"/><path d="M379.8125,424.9328 Q379.9375,424.7578 380.0875,424.6703 Q380.2375,424.5828 380.4125,424.5828 Q380.7125,424.5828 380.9,424.7953 Q381.0875,424.9953 381.0875,425.4828 L381.0875,426.6453 Q381.0875,427.1328 380.9,427.3453 Q380.7125,427.5578 380.4125,427.5578 Q380.1375,427.5578 379.975,427.3953 Q379.8125,427.2453 379.725,426.8328 Q379.6875,426.5453 379.5375,426.3953 Q379.275,426.0953 378.7875,425.9203 Q378.3,425.7453 377.8,425.7453 Q377.1875,425.7453 376.675,426.0078 Q376.175,426.2703 375.775,426.8703 Q375.3875,427.4703 375.3875,428.2953 L375.3875,429.1703 Q375.3875,430.1578 376.1,430.8203 Q376.8125,431.4703 378.0875,431.4703 Q378.8375,431.4703 379.3625,431.2703 Q379.675,431.1453 380.0125,430.7953 Q380.225,430.5828 380.3375,430.5203 Q380.4625,430.4578 380.625,430.4578 Q380.8875,430.4578 381.0875,430.6703 Q381.3,430.8703 381.3,431.1453 Q381.3,431.4203 381.025,431.7453 Q380.625,432.2078 379.9875,432.4703 Q379.125,432.8328 378.0875,432.8328 Q376.875,432.8328 375.9125,432.3328 Q375.125,431.9328 374.575,431.0828 Q374.025,430.2203 374.025,429.1953 L374.025,428.2703 Q374.025,427.2078 374.5125,426.2953 Q375.0125,425.3703 375.8875,424.8828 Q376.7625,424.3828 377.75,424.3828 Q378.3375,424.3828 378.85,424.5203 Q379.375,424.6453 379.8125,424.9328 Z " fill="#000000"/><text fill="#000000" font-family="sans-serif" font-size="9.6" font-style="italic" lengthAdjust="spacing" textLength="35.2" x="395.2" y="424.7594">&#171;value&#187;</text><text fill="#000000" font-family="sans-serif" font-size="11.2" lengthAdjust="spacing" textLength="48" x="388.8" y="439.2547">StartDate</text><line style="stroke:#181818;stroke-width:0.4000000000000001;" x1="366.4" x2="438.4" y1="446.0656" y2="446.0656"/><line style="stroke:#181818;stroke-width:0.4000000000000001;" x1="366.4" x2="438.4" y1="452.4656" y2="452.4656"/></g><!--class EndDate--><g id="elem_EndDate"><rect codeLine="29" fill="#F1F1F1" height="48.4656" id="EndDate" rx="2" ry="2" style="stroke:#181818;stroke-width:0.4000000000000001;" width="69.6" x="467.6" y="410.4"/><ellipse cx="479.6" cy="428.2328" fill="#ADD1B2" rx="8.8" ry="8.8" style="stroke:#181818;stroke-width:0.8000000000000002;"/><path d="M481.8125,424.9328 Q481.9375,424.7578 482.0875,424.6703 Q482.2375,424.5828 482.4125,424.5828 Q482.7125,424.5828 482.9,424.7953 Q483.0875,424.9953 483.0875,425.4828 L483.0875,426.6453 Q483.0875,427.1328 482.9,427.3453 Q482.7125,427.5578 482.4125,427.5578 Q482.1375,427.5578 481.975,427.3953 Q481.8125,427.2453 481.725,426.8328 Q481.6875,426.5453 481.5375,426.3953 Q481.275,426.0953 480.7875,425.9203 Q480.3,425.7453 479.8,425.7453 Q479.1875,425.7453 478.675,426.0078 Q478.175,426.2703 477.775,426.8703 Q477.3875,427.4703 477.3875,428.2953 L477.3875,429.1703 Q477.3875,430.1578 478.1,430.8203 Q478.8125,431.4703 480.0875,431.4703 Q480.8375,431.4703 481.3625,431.2703 Q481.675,431.1453 482.0125,430.7953 Q482.225,430.5828 482.3375,430.5203 Q482.4625,430.4578 482.625,430.4578 Q482.8875,430.4578 483.0875,430.6703 Q483.3,430.8703 483.3,431.1453 Q483.3,431.4203 483.025,431.7453 Q482.625,432.2078 481.9875,432.4703 Q481.125,432.8328 480.0875,432.8328 Q478.875,432.8328 477.9125,432.3328 Q477.125,431.9328 476.575,431.0828 Q476.025,430.2203 476.025,429.1953 L476.025,428.2703 Q476.025,427.2078 476.5125,426.2953 Q477.0125,425.3703 477.8875,424.8828 Q478.7625,424.3828 479.75,424.3828 Q480.3375,424.3828 480.85,424.5203 Q481.375,424.6453 481.8125,424.9328 Z " fill="#000000"/><text fill="#000000" font-family="sans-serif" font-size="9.6" font-style="italic" lengthAdjust="spacing" textLength="35.2" x="495.2" y="424.7594">&#171;value&#187;</text><text fill="#000000" font-family="sans-serif" font-size="11.2" lengthAdjust="spacing" textLength="44" x="490.8" y="439.2547">EndDate</text><line style="stroke:#181818;stroke-width:0.4000000000000001;" x1="468.4" x2="536.4" y1="446.0656" y2="446.0656"/><line style="stroke:#181818;stroke-width:0.4000000000000001;" x1="468.4" x2="536.4" y1="452.4656" y2="452.4656"/></g><!--class JobOpeningStatus--><g id="elem_JobOpeningStatus"><rect codeLine="31" fill="#F1F1F1" height="78.2594" id="JobOpeningStatus" rx="2" ry="2" style="stroke:#181818;stroke-width:0.4000000000000001;" width="118.4" x="565.6" y="395.6"/><ellipse cx="577.6" cy="413.4328" fill="#EB937F" rx="8.8" ry="8.8" style="stroke:#181818;stroke-width:0.8000000000000002;"/><path d="M576.6875,414.0703 L576.6875,416.0703 L580.15,416.0703 L580.15,415.3328 Q580.15,414.8453 580.3375,414.6328 Q580.5375,414.4203 580.8375,414.4203 Q581.1375,414.4203 581.325,414.6328 Q581.5125,414.8453 581.5125,415.3328 L581.5125,417.4328 L575.1125,417.4328 Q574.6125,417.4328 574.4,417.2453 Q574.2,417.0578 574.2,416.7453 Q574.2,416.4453 574.4125,416.2578 Q574.625,416.0703 575.1125,416.0703 L575.325,416.0703 L575.325,410.7453 L575.1125,410.7453 Q574.6125,410.7453 574.4,410.5578 Q574.2,410.3703 574.2,410.0578 Q574.2,409.7578 574.4,409.5703 Q574.6125,409.3828 575.1125,409.3828 L581.2125,409.3828 L581.2125,411.4578 Q581.2125,411.9453 581.025,412.1578 Q580.85,412.3578 580.5375,412.3578 Q580.2375,412.3578 580.05,412.1578 Q579.8625,411.9453 579.8625,411.4578 L579.8625,410.7453 L576.6875,410.7453 L576.6875,412.7078 L577.875,412.7078 Q577.875,412.1828 577.975,412.0328 Q578.1875,411.7078 578.5625,411.7078 Q578.8625,411.7078 579.05,411.9203 Q579.2375,412.1203 579.2375,412.6078 L579.2375,414.1828 Q579.2375,414.6203 579.1375,414.7703 Q578.925,415.0828 578.5625,415.0828 Q578.1875,415.0828 577.975,414.7578 Q577.875,414.6078 577.875,414.0703 L576.6875,414.0703 Z " fill="#000000"/><text fill="#000000" font-family="sans-serif" font-size="9.6" font-style="italic" lengthAdjust="spacing" textLength="35.2" x="617.6" y="409.9594">&#171;value&#187;</text><text fill="#000000" font-family="sans-serif" font-size="11.2" lengthAdjust="spacing" textLength="92.8" x="588.8" y="424.4547">JobOpeningStatus</text><line style="stroke:#181818;stroke-width:0.4000000000000001;" x1="566.4" x2="683.2" y1="431.2656" y2="431.2656"/><text fill="#000000" font-family="sans-serif" font-size="11.2" lengthAdjust="spacing" textLength="30.4" x="570.4" y="446.5516">OPEN</text><text fill="#000000" font-family="sans-serif" font-size="11.2" lengthAdjust="spacing" textLength="45.6" x="570.4" y="461.4484">CLOSED</text><line style="stroke:#181818;stroke-width:0.4000000000000001;" x1="566.4" x2="683.2" y1="467.4594" y2="467.4594"/></g><!--class JobRequirements--><g id="elem_JobRequirements"><rect codeLine="38" fill="#F1F1F1" height="61.2344" id="JobRequirements" rx="2" ry="2" style="stroke:#181818;stroke-width:0.4000000000000001;" width="113.6" x="756.8" y="404"/><ellipse cx="768.8" cy="428.2172" fill="#ADD1B2" rx="8.8" ry="8.8" style="stroke:#181818;stroke-width:0.8000000000000002;"/><path d="M767.8875,428.8547 L767.8875,430.8547 L771.35,430.8547 L771.35,430.1172 Q771.35,429.6297 771.5375,429.4172 Q771.7375,429.2047 772.0375,429.2047 Q772.3375,429.2047 772.525,429.4172 Q772.7125,429.6297 772.7125,430.1172 L772.7125,432.2172 L766.3125,432.2172 Q765.8125,432.2172 765.6,432.0297 Q765.4,431.8422 765.4,431.5297 Q765.4,431.2297 765.6125,431.0422 Q765.825,430.8547 766.3125,430.8547 L766.525,430.8547 L766.525,425.5297 L766.3125,425.5297 Q765.8125,425.5297 765.6,425.3422 Q765.4,425.1547 765.4,424.8422 Q765.4,424.5422 765.6,424.3547 Q765.8125,424.1672 766.3125,424.1672 L772.4125,424.1672 L772.4125,426.2422 Q772.4125,426.7297 772.225,426.9422 Q772.05,427.1422 771.7375,427.1422 Q771.4375,427.1422 771.25,426.9422 Q771.0625,426.7297 771.0625,426.2422 L771.0625,425.5297 L767.8875,425.5297 L767.8875,427.4922 L769.075,427.4922 Q769.075,426.9672 769.175,426.8172 Q769.3875,426.4922 769.7625,426.4922 Q770.0625,426.4922 770.25,426.7047 Q770.4375,426.9047 770.4375,427.3922 L770.4375,428.9672 Q770.4375,429.4047 770.3375,429.5547 Q770.125,429.8672 769.7625,429.8672 Q769.3875,429.8672 769.175,429.5422 Q769.075,429.3922 769.075,428.8547 L767.8875,428.8547 Z " fill="#000000"/><text fill="#000000" font-family="sans-serif" font-size="9.6" font-style="italic" lengthAdjust="spacing" textLength="28" x="810" y="418.3594">&#171;root&#187;</text><text fill="#000000" font-family="sans-serif" font-size="9.6" font-style="italic" lengthAdjust="spacing" textLength="34.4" x="806.8" y="431.1281">&#171;entity&#187;</text><text fill="#000000" font-family="sans-serif" font-size="11.2" lengthAdjust="spacing" textLength="88" x="780" y="445.6234">JobRequirements</text><line style="stroke:#181818;stroke-width:0.4000000000000001;" x1="757.6" x2="869.6" y1="452.4344" y2="452.4344"/><line style="stroke:#181818;stroke-width:0.4000000000000001;" x1="757.6" x2="869.6" y1="458.8344" y2="458.8344"/></g><!--class JobRequirementsPlugin--><g id="elem_JobRequirementsPlugin"><rect codeLine="39" fill="#F1F1F1" height="48.4656" id="JobRequirementsPlugin" rx="2" ry="2" style="stroke:#181818;stroke-width:0.4000000000000001;" width="144.8" x="729.2" y="546.8"/><ellipse cx="741.2" cy="564.6328" fill="#ADD1B2" rx="8.8" ry="8.8" style="stroke:#181818;stroke-width:0.8000000000000002;"/><path d="M743.4125,561.3328 Q743.5375,561.1578 743.6875,561.0703 Q743.8375,560.9828 744.0125,560.9828 Q744.3125,560.9828 744.5,561.1953 Q744.6875,561.3953 744.6875,561.8828 L744.6875,563.0453 Q744.6875,563.5328 744.5,563.7453 Q744.3125,563.9578 744.0125,563.9578 Q743.7375,563.9578 743.575,563.7953 Q743.4125,563.6453 743.325,563.2328 Q743.2875,562.9453 743.1375,562.7953 Q742.875,562.4953 742.3875,562.3203 Q741.9,562.1453 741.4,562.1453 Q740.7875,562.1453 740.275,562.4078 Q739.775,562.6703 739.375,563.2703 Q738.9875,563.8703 738.9875,564.6953 L738.9875,565.5703 Q738.9875,566.5578 739.7,567.2203 Q740.4125,567.8703 741.6875,567.8703 Q742.4375,567.8703 742.9625,567.6703 Q743.275,567.5453 743.6125,567.1953 Q743.825,566.9828 743.9375,566.9203 Q744.0625,566.8578 744.225,566.8578 Q744.4875,566.8578 744.6875,567.0703 Q744.9,567.2703 744.9,567.5453 Q744.9,567.8203 744.625,568.1453 Q744.225,568.6078 743.5875,568.8703 Q742.725,569.2328 741.6875,569.2328 Q740.475,569.2328 739.5125,568.7328 Q738.725,568.3328 738.175,567.4828 Q737.625,566.6203 737.625,565.5953 L737.625,564.6703 Q737.625,563.6078 738.1125,562.6953 Q738.6125,561.7703 739.4875,561.2828 Q740.3625,560.7828 741.35,560.7828 Q741.9375,560.7828 742.45,560.9203 Q742.975,561.0453 743.4125,561.3328 Z " fill="#000000"/><text fill="#000000" font-family="sans-serif" font-size="9.6" font-style="italic" lengthAdjust="spacing" textLength="36.8" x="793.6" y="561.1594">&#171;Value&#187;</text><text fill="#000000" font-family="sans-serif" font-size="11.2" lengthAdjust="spacing" textLength="119.2" x="752.4" y="575.6547">JobRequirementsPlugin</text><line style="stroke:#181818;stroke-width:0.4000000000000001;" x1="730" x2="873.2" y1="582.4656" y2="582.4656"/><line style="stroke:#181818;stroke-width:0.4000000000000001;" x1="730" x2="873.2" y1="588.8656" y2="588.8656"/></g><!--class Application--><g id="elem_Application"><rect codeLine="44" fill="#F1F1F1" height="61.2344" id="Application" rx="2" ry="2" style="stroke:#181818;stroke-width:0.4000000000000001;" width="80.8" x="1705.2" y="52"/><ellipse cx="1717.2" cy="76.2172" fill="#ADD1B2" rx="8.8" ry="8.8" style="stroke:#181818;stroke-width:0.8000000000000002;"/><path d="M1716.2875,76.8547 L1716.2875,78.8547 L1719.75,78.8547 L1719.75,78.1172 Q1719.75,77.6297 1719.9375,77.4172 Q1720.1375,77.2047 1720.4375,77.2047 Q1720.7375,77.2047 1720.925,77.4172 Q1721.1125,77.6297 1721.1125,78.1172 L1721.1125,80.2172 L1714.7125,80.2172 Q1714.2125,80.2172 1714,80.0297 Q1713.8,79.8422 1713.8,79.5297 Q1713.8,79.2297 1714.0125,79.0422 Q1714.225,78.8547 1714.7125,78.8547 L1714.925,78.8547 L1714.925,73.5297 L1714.7125,73.5297 Q1714.2125,73.5297 1714,73.3422 Q1713.8,73.1547 1713.8,72.8422 Q1713.8,72.5422 1714,72.3547 Q1714.2125,72.1672 1714.7125,72.1672 L1720.8125,72.1672 L1720.8125,74.2422 Q1720.8125,74.7297 1720.625,74.9422 Q1720.45,75.1422 1720.1375,75.1422 Q1719.8375,75.1422 1719.65,74.9422 Q1719.4625,74.7297 1719.4625,74.2422 L1719.4625,73.5297 L1716.2875,73.5297 L1716.2875,75.4922 L1717.475,75.4922 Q1717.475,74.9672 1717.575,74.8172 Q1717.7875,74.4922 1718.1625,74.4922 Q1718.4625,74.4922 1718.65,74.7047 Q1718.8375,74.9047 1718.8375,75.3922 L1718.8375,76.9672 Q1718.8375,77.4047 1718.7375,77.5547 Q1718.525,77.8672 1718.1625,77.8672 Q1717.7875,77.8672 1717.575,77.5422 Q1717.475,77.3922 1717.475,76.8547 L1716.2875,76.8547 Z " fill="#000000"/><text fill="#000000" font-family="sans-serif" font-size="9.6" font-style="italic" lengthAdjust="spacing" textLength="34.4" x="1738.8" y="66.3594">&#171;entity&#187;</text><text fill="#000000" font-family="sans-serif" font-size="9.6" font-style="italic" lengthAdjust="spacing" textLength="28" x="1742" y="79.1281">&#171;root&#187;</text><text fill="#000000" font-family="sans-serif" font-size="11.2" lengthAdjust="spacing" textLength="55.2" x="1728.4" y="93.6234">Application</text><line style="stroke:#181818;stroke-width:0.4000000000000001;" x1="1706" x2="1785.2" y1="100.4344" y2="100.4344"/><line style="stroke:#181818;stroke-width:0.4000000000000001;" x1="1706" x2="1785.2" y1="106.8344" y2="106.8344"/></g><!--class ApplicationDate--><g id="elem_ApplicationDate"><rect codeLine="45" fill="#F1F1F1" height="48.4656" id="ApplicationDate" rx="2" ry="2" style="stroke:#181818;stroke-width:0.4000000000000001;" width="104.8" x="1699.6" y="225.6"/><ellipse cx="1711.6" cy="243.4328" fill="#ADD1B2" rx="8.8" ry="8.8" style="stroke:#181818;stroke-width:0.8000000000000002;"/><path d="M1713.8125,240.1328 Q1713.9375,239.9578 1714.0875,239.8703 Q1714.2375,239.7828 1714.4125,239.7828 Q1714.7125,239.7828 1714.9,239.9953 Q1715.0875,240.1953 1715.0875,240.6828 L1715.0875,241.8453 Q1715.0875,242.3328 1714.9,242.5453 Q1714.7125,242.7578 1714.4125,242.7578 Q1714.1375,242.7578 1713.975,242.5953 Q1713.8125,242.4453 1713.725,242.0328 Q1713.6875,241.7453 1713.5375,241.5953 Q1713.275,241.2953 1712.7875,241.1203 Q1712.3,240.9453 1711.8,240.9453 Q1711.1875,240.9453 1710.675,241.2078 Q1710.175,241.4703 1709.775,242.0703 Q1709.3875,242.6703 1709.3875,243.4953 L1709.3875,244.3703 Q1709.3875,245.3578 1710.1,246.0203 Q1710.8125,246.6703 1712.0875,246.6703 Q1712.8375,246.6703 1713.3625,246.4703 Q1713.675,246.3453 1714.0125,245.9953 Q1714.225,245.7828 1714.3375,245.7203 Q1714.4625,245.6578 1714.625,245.6578 Q1714.8875,245.6578 1715.0875,245.8703 Q1715.3,246.0703 1715.3,246.3453 Q1715.3,246.6203 1715.025,246.9453 Q1714.625,247.4078 1713.9875,247.6703 Q1713.125,248.0328 1712.0875,248.0328 Q1710.875,248.0328 1709.9125,247.5328 Q1709.125,247.1328 1708.575,246.2828 Q1708.025,245.4203 1708.025,244.3953 L1708.025,243.4703 Q1708.025,242.4078 1708.5125,241.4953 Q1709.0125,240.5703 1709.8875,240.0828 Q1710.7625,239.5828 1711.75,239.5828 Q1712.3375,239.5828 1712.85,239.7203 Q1713.375,239.8453 1713.8125,240.1328 Z " fill="#000000"/><text fill="#000000" font-family="sans-serif" font-size="9.6" font-style="italic" lengthAdjust="spacing" textLength="36.8" x="1744" y="239.9594">&#171;Value&#187;</text><text fill="#000000" font-family="sans-serif" font-size="11.2" lengthAdjust="spacing" textLength="79.2" x="1722.8" y="254.4547">ApplicationDate</text><line style="stroke:#181818;stroke-width:0.4000000000000001;" x1="1700.4" x2="1803.6" y1="261.2656" y2="261.2656"/><line style="stroke:#181818;stroke-width:0.4000000000000001;" x1="1700.4" x2="1803.6" y1="267.6656" y2="267.6656"/></g><!--class ApplicationStatus--><g id="elem_ApplicationStatus"><rect codeLine="46" fill="#F1F1F1" height="108.0531" id="ApplicationStatus" rx="2" ry="2" style="stroke:#181818;stroke-width:0.4000000000000001;" width="112.8" x="1832.4" y="196"/><ellipse cx="1844.4" cy="213.8328" fill="#EB937F" rx="8.8" ry="8.8" style="stroke:#181818;stroke-width:0.8000000000000002;"/><path d="M1843.4875,214.4703 L1843.4875,216.4703 L1846.95,216.4703 L1846.95,215.7328 Q1846.95,215.2453 1847.1375,215.0328 Q1847.3375,214.8203 1847.6375,214.8203 Q1847.9375,214.8203 1848.125,215.0328 Q1848.3125,215.2453 1848.3125,215.7328 L1848.3125,217.8328 L1841.9125,217.8328 Q1841.4125,217.8328 1841.2,217.6453 Q1841,217.4578 1841,217.1453 Q1841,216.8453 1841.2125,216.6578 Q1841.425,216.4703 1841.9125,216.4703 L1842.125,216.4703 L1842.125,211.1453 L1841.9125,211.1453 Q1841.4125,211.1453 1841.2,210.9578 Q1841,210.7703 1841,210.4578 Q1841,210.1578 1841.2,209.9703 Q1841.4125,209.7828 1841.9125,209.7828 L1848.0125,209.7828 L1848.0125,211.8578 Q1848.0125,212.3453 1847.825,212.5578 Q1847.65,212.7578 1847.3375,212.7578 Q1847.0375,212.7578 1846.85,212.5578 Q1846.6625,212.3453 1846.6625,211.8578 L1846.6625,211.1453 L1843.4875,211.1453 L1843.4875,213.1078 L1844.675,213.1078 Q1844.675,212.5828 1844.775,212.4328 Q1844.9875,212.1078 1845.3625,212.1078 Q1845.6625,212.1078 1845.85,212.3203 Q1846.0375,212.5203 1846.0375,213.0078 L1846.0375,214.5828 Q1846.0375,215.0203 1845.9375,215.1703 Q1845.725,215.4828 1845.3625,215.4828 Q1844.9875,215.4828 1844.775,215.1578 Q1844.675,215.0078 1844.675,214.4703 L1843.4875,214.4703 Z " fill="#000000"/><text fill="#000000" font-family="sans-serif" font-size="9.6" font-style="italic" lengthAdjust="spacing" textLength="36.8" x="1880.8" y="210.3594">&#171;Value&#187;</text><text fill="#000000" font-family="sans-serif" font-size="11.2" lengthAdjust="spacing" textLength="87.2" x="1855.6" y="224.8547">ApplicationStatus</text><line style="stroke:#181818;stroke-width:0.4000000000000001;" x1="1833.2" x2="1944.4" y1="231.6656" y2="231.6656"/><text fill="#000000" font-family="sans-serif" font-size="11.2" lengthAdjust="spacing" textLength="48.8" x="1837.2" y="246.9516">Approved</text><text fill="#000000" font-family="sans-serif" font-size="11.2" lengthAdjust="spacing" textLength="36" x="1837.2" y="261.8484">Denied</text><text fill="#000000" font-family="sans-serif" font-size="11.2" lengthAdjust="spacing" textLength="81.6" x="1837.2" y="276.7453">WaitingInterview</text><text fill="#000000" font-family="sans-serif" font-size="11.2" lengthAdjust="spacing" textLength="54.4" x="1837.2" y="291.6422">InProgress</text><line style="stroke:#181818;stroke-width:0.4000000000000001;" x1="1833.2" x2="1944.4" y1="297.6531" y2="297.6531"/></g><!--class ANTLRValidator--><g id="elem_ANTLRValidator"><rect codeLine="56" fill="#F1F1F1" height="48.4656" id="ANTLRValidator" rx="2" ry="2" style="stroke:#181818;stroke-width:0.4000000000000001;" width="106.4" x="760.4" y="225.6"/><ellipse cx="772.4" cy="243.4328" fill="#ADD1B2" rx="8.8" ry="8.8" style="stroke:#181818;stroke-width:0.8000000000000002;"/><path d="M771.4875,244.0703 L771.4875,246.0703 L774.95,246.0703 L774.95,245.3328 Q774.95,244.8453 775.1375,244.6328 Q775.3375,244.4203 775.6375,244.4203 Q775.9375,244.4203 776.125,244.6328 Q776.3125,244.8453 776.3125,245.3328 L776.3125,247.4328 L769.9125,247.4328 Q769.4125,247.4328 769.2,247.2453 Q769,247.0578 769,246.7453 Q769,246.4453 769.2125,246.2578 Q769.425,246.0703 769.9125,246.0703 L770.125,246.0703 L770.125,240.7453 L769.9125,240.7453 Q769.4125,240.7453 769.2,240.5578 Q769,240.3703 769,240.0578 Q769,239.7578 769.2,239.5703 Q769.4125,239.3828 769.9125,239.3828 L776.0125,239.3828 L776.0125,241.4578 Q776.0125,241.9453 775.825,242.1578 Q775.65,242.3578 775.3375,242.3578 Q775.0375,242.3578 774.85,242.1578 Q774.6625,241.9453 774.6625,241.4578 L774.6625,240.7453 L771.4875,240.7453 L771.4875,242.7078 L772.675,242.7078 Q772.675,242.1828 772.775,242.0328 Q772.9875,241.7078 773.3625,241.7078 Q773.6625,241.7078 773.85,241.9203 Q774.0375,242.1203 774.0375,242.6078 L774.0375,244.1828 Q774.0375,244.6203 773.9375,244.7703 Q773.725,245.0828 773.3625,245.0828 Q772.9875,245.0828 772.775,244.7578 Q772.675,244.6078 772.675,244.0703 L771.4875,244.0703 Z " fill="#000000"/><text fill="#000000" font-family="sans-serif" font-size="9.6" font-style="italic" lengthAdjust="spacing" textLength="42.4" x="802.8" y="239.9594">&#171;service&#187;</text><text fill="#000000" font-family="sans-serif" font-size="11.2" lengthAdjust="spacing" textLength="80.8" x="783.6" y="254.4547">ANTLRValidator</text><line style="stroke:#181818;stroke-width:0.4000000000000001;" x1="761.2" x2="866" y1="261.2656" y2="261.2656"/><line style="stroke:#181818;stroke-width:0.4000000000000001;" x1="761.2" x2="866" y1="267.6656" y2="267.6656"/></g><!--class Candidate--><g id="elem_Candidate"><rect codeLine="61" fill="#F1F1F1" height="61.2344" id="Candidate" rx="2" ry="2" style="stroke:#181818;stroke-width:0.4000000000000001;" width="77.6" x="1574" y="219.2"/><ellipse cx="1586" cy="243.4172" fill="#ADD1B2" rx="8.8" ry="8.8" style="stroke:#181818;stroke-width:0.8000000000000002;"/><path d="M1585.0875,244.0547 L1585.0875,246.0547 L1588.55,246.0547 L1588.55,245.3172 Q1588.55,244.8297 1588.7375,244.6172 Q1588.9375,244.4047 1589.2375,244.4047 Q1589.5375,244.4047 1589.725,244.6172 Q1589.9125,244.8297 1589.9125,245.3172 L1589.9125,247.4172 L1583.5125,247.4172 Q1583.0125,247.4172 1582.8,247.2297 Q1582.6,247.0422 1582.6,246.7297 Q1582.6,246.4297 1582.8125,246.2422 Q1583.025,246.0547 1583.5125,246.0547 L1583.725,246.0547 L1583.725,240.7297 L1583.5125,240.7297 Q1583.0125,240.7297 1582.8,240.5422 Q1582.6,240.3547 1582.6,240.0422 Q1582.6,239.7422 1582.8,239.5547 Q1583.0125,239.3672 1583.5125,239.3672 L1589.6125,239.3672 L1589.6125,241.4422 Q1589.6125,241.9297 1589.425,242.1422 Q1589.25,242.3422 1588.9375,242.3422 Q1588.6375,242.3422 1588.45,242.1422 Q1588.2625,241.9297 1588.2625,241.4422 L1588.2625,240.7297 L1585.0875,240.7297 L1585.0875,242.6922 L1586.275,242.6922 Q1586.275,242.1672 1586.375,242.0172 Q1586.5875,241.6922 1586.9625,241.6922 Q1587.2625,241.6922 1587.45,241.9047 Q1587.6375,242.1047 1587.6375,242.5922 L1587.6375,244.1672 Q1587.6375,244.6047 1587.5375,244.7547 Q1587.325,245.0672 1586.9625,245.0672 Q1586.5875,245.0672 1586.375,244.7422 Q1586.275,244.5922 1586.275,244.0547 L1585.0875,244.0547 Z " fill="#000000"/><text fill="#000000" font-family="sans-serif" font-size="9.6" font-style="italic" lengthAdjust="spacing" textLength="34.4" x="1606" y="233.5594">&#171;entity&#187;</text><text fill="#000000" font-family="sans-serif" font-size="9.6" font-style="italic" lengthAdjust="spacing" textLength="28" x="1609.2" y="246.3281">&#171;root&#187;</text><text fill="#000000" font-family="sans-serif" font-size="11.2" lengthAdjust="spacing" textLength="52" x="1597.2" y="260.8234">Candidate</text><line style="stroke:#181818;stroke-width:0.4000000000000001;" x1="1574.8" x2="1650.8" y1="267.6344" y2="267.6344"/><line style="stroke:#181818;stroke-width:0.4000000000000001;" x1="1574.8" x2="1650.8" y1="274.0344" y2="274.0344"/></g><!--class PhoneNumber--><g id="elem_PhoneNumber"><rect codeLine="62" fill="#F1F1F1" height="48.4656" id="PhoneNumber" rx="2" ry="2" style="stroke:#181818;stroke-width:0.4000000000000001;" width="97.6" x="1556.8" y="410.4"/><ellipse cx="1568.8" cy="428.2328" fill="#ADD1B2" rx="8.8" ry="8.8" style="stroke:#181818;stroke-width:0.8000000000000002;"/><path d="M1571.0125,424.9328 Q1571.1375,424.7578 1571.2875,424.6703 Q1571.4375,424.5828 1571.6125,424.5828 Q1571.9125,424.5828 1572.1,424.7953 Q1572.2875,424.9953 1572.2875,425.4828 L1572.2875,426.6453 Q1572.2875,427.1328 1572.1,427.3453 Q1571.9125,427.5578 1571.6125,427.5578 Q1571.3375,427.5578 1571.175,427.3953 Q1571.0125,427.2453 1570.925,426.8328 Q1570.8875,426.5453 1570.7375,426.3953 Q1570.475,426.0953 1569.9875,425.9203 Q1569.5,425.7453 1569,425.7453 Q1568.3875,425.7453 1567.875,426.0078 Q1567.375,426.2703 1566.975,426.8703 Q1566.5875,427.4703 1566.5875,428.2953 L1566.5875,429.1703 Q1566.5875,430.1578 1567.3,430.8203 Q1568.0125,431.4703 1569.2875,431.4703 Q1570.0375,431.4703 1570.5625,431.2703 Q1570.875,431.1453 1571.2125,430.7953 Q1571.425,430.5828 1571.5375,430.5203 Q1571.6625,430.4578 1571.825,430.4578 Q1572.0875,430.4578 1572.2875,430.6703 Q1572.5,430.8703 1572.5,431.1453 Q1572.5,431.4203 1572.225,431.7453 Q1571.825,432.2078 1571.1875,432.4703 Q1570.325,432.8328 1569.2875,432.8328 Q1568.075,432.8328 1567.1125,432.3328 Q1566.325,431.9328 1565.775,431.0828 Q1565.225,430.2203 1565.225,429.1953 L1565.225,428.2703 Q1565.225,427.2078 1565.7125,426.2953 Q1566.2125,425.3703 1567.0875,424.8828 Q1567.9625,424.3828 1568.95,424.3828 Q1569.5375,424.3828 1570.05,424.5203 Q1570.575,424.6453 1571.0125,424.9328 Z " fill="#000000"/><text fill="#000000" font-family="sans-serif" font-size="9.6" font-style="italic" lengthAdjust="spacing" textLength="36.8" x="1597.6" y="424.7594">&#171;Value&#187;</text><text fill="#000000" font-family="sans-serif" font-size="11.2" lengthAdjust="spacing" textLength="72" x="1580" y="439.2547">PhoneNumber</text><line style="stroke:#181818;stroke-width:0.4000000000000001;" x1="1557.6" x2="1653.6" y1="446.0656" y2="446.0656"/><line style="stroke:#181818;stroke-width:0.4000000000000001;" x1="1557.6" x2="1653.6" y1="452.4656" y2="452.4656"/></g><!--class CustomerManager--><g id="elem_CustomerManager"><rect codeLine="67" fill="#F1F1F1" height="61.2344" id="CustomerManager" rx="2" ry="2" style="stroke:#181818;stroke-width:0.4000000000000001;" width="119.2" x="48.4" y="219.2"/><ellipse cx="60.4" cy="243.4172" fill="#ADD1B2" rx="8.8" ry="8.8" style="stroke:#181818;stroke-width:0.8000000000000002;"/><path d="M59.4875,244.0547 L59.4875,246.0547 L62.95,246.0547 L62.95,245.3172 Q62.95,244.8297 63.1375,244.6172 Q63.3375,244.4047 63.6375,244.4047 Q63.9375,244.4047 64.125,244.6172 Q64.3125,244.8297 64.3125,245.3172 L64.3125,247.4172 L57.9125,247.4172 Q57.4125,247.4172 57.2,247.2297 Q57,247.0422 57,246.7297 Q57,246.4297 57.2125,246.2422 Q57.425,246.0547 57.9125,246.0547 L58.125,246.0547 L58.125,240.7297 L57.9125,240.7297 Q57.4125,240.7297 57.2,240.5422 Q57,240.3547 57,240.0422 Q57,239.7422 57.2,239.5547 Q57.4125,239.3672 57.9125,239.3672 L64.0125,239.3672 L64.0125,241.4422 Q64.0125,241.9297 63.825,242.1422 Q63.65,242.3422 63.3375,242.3422 Q63.0375,242.3422 62.85,242.1422 Q62.6625,241.9297 62.6625,241.4422 L62.6625,240.7297 L59.4875,240.7297 L59.4875,242.6922 L60.675,242.6922 Q60.675,242.1672 60.775,242.0172 Q60.9875,241.6922 61.3625,241.6922 Q61.6625,241.6922 61.85,241.9047 Q62.0375,242.1047 62.0375,242.5922 L62.0375,244.1672 Q62.0375,244.6047 61.9375,244.7547 Q61.725,245.0672 61.3625,245.0672 Q60.9875,245.0672 60.775,244.7422 Q60.675,244.5922 60.675,244.0547 L59.4875,244.0547 Z " fill="#000000"/><text fill="#000000" font-family="sans-serif" font-size="9.6" font-style="italic" lengthAdjust="spacing" textLength="34.4" x="101.2" y="233.5594">&#171;entity&#187;</text><text fill="#000000" font-family="sans-serif" font-size="9.6" font-style="italic" lengthAdjust="spacing" textLength="28" x="104.4" y="246.3281">&#171;root&#187;</text><text fill="#000000" font-family="sans-serif" font-size="11.2" lengthAdjust="spacing" textLength="93.6" x="71.6" y="260.8234">CustomerManager</text><line style="stroke:#181818;stroke-width:0.4000000000000001;" x1="49.2" x2="166.8" y1="267.6344" y2="267.6344"/><line style="stroke:#181818;stroke-width:0.4000000000000001;" x1="49.2" x2="166.8" y1="274.0344" y2="274.0344"/></g><!--link JobRequirements to JobRequirementsPlugin--><g id="link_JobRequirements_JobRequirementsPlugin"><path codeLine="72" d="M810.904,465.848 C808.728,490.304 806.1388,519.459 804.1308,541.955 " fill="none" id="JobRequirements-to-JobRequirementsPlugin" style="stroke:#181818;stroke-width:0.8000000000000002;"/><polygon fill="#181818" points="803.704,546.736,807.5315,539.849,804.0596,542.7518,801.1568,539.28,803.704,546.736" style="stroke:#181818;stroke-width:0.8000000000000002;"/><text fill="#000000" font-family="sans-serif" font-size="10.4" lengthAdjust="spacing" textLength="5.6" x="804.4624" y="482.9119">1</text><text fill="#000000" font-family="sans-serif" font-size="10.4" lengthAdjust="spacing" textLength="5.6" x="797.9605" y="537.9689">1</text></g><!--link ANTLRValidator to JobRequirements--><g id="link_ANTLRValidator_JobRequirements"><path codeLine="74" d="M813.6,274.752 C813.6,307.92 813.6,363.032 813.6,399.16 " fill="none" id="ANTLRValidator-to-JobRequirements" style="stroke:#181818;stroke-width:0.8000000000000002;"/><polygon fill="#181818" points="813.6,403.96,816.8,396.76,813.6,399.96,810.4,396.76,813.6,403.96" style="stroke:#181818;stroke-width:0.8000000000000002;"/><text fill="#000000" font-family="sans-serif" font-size="10.4" lengthAdjust="spacing" textLength="40" x="814.4" y="341.6227">validates</text></g><!--link JobOpening to JobTitle--><g id="link_JobOpening_JobTitle"><path codeLine="76" d="M1081.056,251.208 C1158.616,254.08 1322.624,270.112 1428,351.2 C1447.328,366.072 1458.1165,386.9349 1465.2125,405.6789 " fill="none" id="JobOpening-to-JobTitle" style="stroke:#181818;stroke-width:0.8000000000000002;"/><polygon fill="#181818" points="1466.912,410.168,1467.3555,402.3014,1465.4958,406.4271,1461.3701,404.5673,1466.912,410.168" style="stroke:#181818;stroke-width:0.8000000000000002;"/><text fill="#000000" font-family="sans-serif" font-size="10.4" lengthAdjust="spacing" textLength="5.6" x="1087.2717" y="248.0861">1</text><text fill="#000000" font-family="sans-serif" font-size="10.4" lengthAdjust="spacing" textLength="5.6" x="1459.1901" y="401.3663">1</text></g><!--link JobOpening to ContractType--><g id="link_JobOpening_ContractType"><path codeLine="77" d="M1080.8,274.616 C1112.112,293.088 1154.4,320.64 1186.4,351.2 C1204.928,368.896 1219.3525,388.6364 1230.7925,406.1644 " fill="none" id="JobOpening-to-ContractType" style="stroke:#181818;stroke-width:0.8000000000000002;"/><polygon fill="#181818" points="1233.416,410.184,1232.1605,402.4056,1231.2298,406.8343,1226.801,405.9036,1233.416,410.184" style="stroke:#181818;stroke-width:0.8000000000000002;"/><text fill="#000000" font-family="sans-serif" font-size="10.4" lengthAdjust="spacing" textLength="5.6" x="1087.2688" y="274.7512">1</text><text fill="#000000" font-family="sans-serif" font-size="10.4" lengthAdjust="spacing" textLength="5.6" x="1224.2306" y="401.3856">1</text></g><!--link JobOpening to WorkRegime--><g id="link_JobOpening_WorkRegime"><path codeLine="78" d="M1081.032,258.544 C1138.176,270.464 1239.576,297.76 1309.6,351.2 C1330.248,366.96 1344.3643,387.7289 1354.6363,406.1289 " fill="none" id="JobOpening-to-WorkRegime" style="stroke:#181818;stroke-width:0.8000000000000002;"/><polygon fill="#181818" points="1356.976,410.32,1356.2605,402.4735,1355.0262,406.8274,1350.6723,405.5931,1356.976,410.32" style="stroke:#181818;stroke-width:0.8000000000000002;"/><text fill="#000000" font-family="sans-serif" font-size="10.4" lengthAdjust="spacing" textLength="5.6" x="1087.2444" y="256.4078">1</text><text fill="#000000" font-family="sans-serif" font-size="10.4" lengthAdjust="spacing" textLength="5.6" x="1348.3598" y="401.5496">1</text></g><!--link JobOpening to NumberOfVacancies--><g id="link_JobOpening_NumberOfVacancies"><path codeLine="79" d="M1051.928,288.096 C1065.96,324.608 1085.1981,374.6555 1097.1181,405.6715 " fill="none" id="JobOpening-to-NumberOfVacancies" style="stroke:#181818;stroke-width:0.8000000000000002;"/><polygon fill="#181818" points="1098.84,410.152,1099.2441,402.2833,1097.4051,406.4182,1093.2701,404.5792,1098.84,410.152" style="stroke:#181818;stroke-width:0.8000000000000002;"/><text fill="#000000" font-family="sans-serif" font-size="10.4" lengthAdjust="spacing" textLength="5.6" x="1047.9491" y="305.6393">1</text><text fill="#000000" font-family="sans-serif" font-size="10.4" lengthAdjust="spacing" textLength="5.6" x="1090.7733" y="401.347">1</text></g><!--link JobOpening to JobRequirements--><g id="link_JobOpening_JobRequirements"><path codeLine="80" d="M994.12,282.784 C968.264,302.12 935.024,327.536 906.4,351.2 C885.928,368.12 867.2624,384.6657 849.6944,400.6497 " fill="none" id="JobOpening-to-JobRequirements" style="stroke:#181818;stroke-width:0.8000000000000002;"/><polygon fill="#181818" points="846.144,403.88,853.6231,401.4015,849.1027,401.1881,849.3161,396.6677,846.144,403.88" style="stroke:#181818;stroke-width:0.8000000000000002;"/><text fill="#000000" font-family="sans-serif" font-size="10.4" lengthAdjust="spacing" textLength="5.6" x="982.3011" y="283.9051">1</text><text fill="#000000" font-family="sans-serif" font-size="10.4" lengthAdjust="spacing" textLength="5.6" x="845.6563" y="395.071">1</text></g><!--link JobOpening to JobReference--><g id="link_JobOpening_JobReference"><path codeLine="81" d="M1023.272,288.096 C1009.24,324.608 990.0019,374.6555 978.0819,405.6715 " fill="none" id="JobOpening-to-JobReference" style="stroke:#181818;stroke-width:0.8000000000000002;"/><polygon fill="#181818" points="976.36,410.152,981.9299,404.5792,977.7949,406.4182,975.9559,402.2833,976.36,410.152" style="stroke:#181818;stroke-width:0.8000000000000002;"/><text fill="#000000" font-family="sans-serif" font-size="10.4" lengthAdjust="spacing" textLength="5.6" x="1015.2634" y="305.6393">1</text><text fill="#000000" font-family="sans-serif" font-size="10.4" lengthAdjust="spacing" textLength="5.6" x="972.0718" y="401.347">1</text></g><!--link JobOpeningProcess to JobOpening--><g id="link_JobOpeningProcess_JobOpening"><path codeLine="83" d="M654.088,85.744 C717.992,89.936 817.968,102.176 896.8,137.6 C936.488,155.432 971.2404,183.6785 997.8244,208.6945 " fill="none" id="JobOpeningProcess-to-JobOpening" style="stroke:#181818;stroke-width:0.8000000000000002;"/><polygon fill="#181818" points="1001.32,211.984,998.2695,204.7194,998.407,209.2428,993.8836,209.3802,1001.32,211.984" style="stroke:#181818;stroke-width:0.8000000000000002;"/><text fill="#000000" font-family="sans-serif" font-size="10.4" lengthAdjust="spacing" textLength="16.8" x="923.2" y="149.6227">has</text><text fill="#000000" font-family="sans-serif" font-size="10.4" lengthAdjust="spacing" textLength="5.6" x="660.4251" y="83.0262">1</text><text fill="#000000" font-family="sans-serif" font-size="10.4" lengthAdjust="spacing" textLength="16" x="997.1664" y="203.0318">1..*</text></g><!--link JobOpeningProcess to JobOpeningPhase--><g id="link_JobOpeningProcess_JobOpeningPhase"><path codeLine="86" d="M577.792,107.328 C560.112,140.592 530.5808,196.1775 514.5168,226.4015 " fill="none" id="JobOpeningProcess-to-JobOpeningPhase" style="stroke:#181818;stroke-width:0.8000000000000002;"/><polygon fill="#181818" points="512.264,230.64,518.4688,225.7841,514.1413,227.1079,512.8175,222.7804,512.264,230.64" style="stroke:#181818;stroke-width:0.8000000000000002;"/><text fill="#000000" font-family="sans-serif" font-size="10.4" lengthAdjust="spacing" textLength="5.6" x="569.2549" y="124.5766">1</text><text fill="#000000" font-family="sans-serif" font-size="10.4" lengthAdjust="spacing" textLength="5.6" x="508.3859" y="221.9145">1</text></g><!--link JobOpeningPhase to JobOpeningPhases--><g id="link_JobOpeningPhase_JobOpeningPhases"><path codeLine="87" d="M469.832,269.28 C438.08,288 389.168,318.752 351.2,351.2 C343.336,357.92 338.841,361.9889 331.313,369.6289 " fill="none" id="JobOpeningPhase-to-JobOpeningPhases" style="stroke:#181818;stroke-width:0.8000000000000002;"/><polygon fill="#181818" points="327.944,373.048,335.2768,370.1654,330.7515,370.1988,330.7181,365.6734,327.944,373.048" style="stroke:#181818;stroke-width:0.8000000000000002;"/><text fill="#000000" font-family="sans-serif" font-size="10.4" lengthAdjust="spacing" textLength="5.6" x="455.6111" y="286.888">1</text><text fill="#000000" font-family="sans-serif" font-size="10.4" lengthAdjust="spacing" textLength="5.6" x="327.1043" y="364.1598">1</text></g><!--link JobOpeningPhase to StartDate--><g id="link_JobOpeningPhase_StartDate"><path codeLine="88" d="M492.264,269.376 C473.992,302.848 437.8596,369.0347 417.6916,405.9867 " fill="none" id="JobOpeningPhase-to-StartDate" style="stroke:#181818;stroke-width:0.8000000000000002;"/><polygon fill="#181818" points="415.392,410.2,421.6502,405.4131,417.3083,406.6889,416.0325,402.347,415.392,410.2" style="stroke:#181818;stroke-width:0.8000000000000002;"/><text fill="#000000" font-family="sans-serif" font-size="10.4" lengthAdjust="spacing" textLength="5.6" x="483.6726" y="286.6788">1</text><text fill="#000000" font-family="sans-serif" font-size="10.4" lengthAdjust="spacing" textLength="17.6" x="398.6566" y="401.4049">0..1</text></g><!--link JobOpeningPhase to EndDate--><g id="link_JobOpeningPhase_EndDate"><path codeLine="89" d="M502.4,269.376 C502.4,302.848 502.4,368.448 502.4,405.4 " fill="none" id="JobOpeningPhase-to-EndDate" style="stroke:#181818;stroke-width:0.8000000000000002;"/><polygon fill="#181818" points="502.4,410.2,505.6,403,502.4,406.2,499.2,403,502.4,410.2" style="stroke:#181818;stroke-width:0.8000000000000002;"/><text fill="#000000" font-family="sans-serif" font-size="10.4" lengthAdjust="spacing" textLength="5.6" x="496.1525" y="286.6788">1</text><text fill="#000000" font-family="sans-serif" font-size="10.4" lengthAdjust="spacing" textLength="17.6" x="482.985" y="401.4049">0..1</text></g><!--link JobOpeningPhase to JobOpeningStatus--><g id="link_JobOpeningPhase_JobOpeningStatus"><path codeLine="90" d="M514.808,269.376 C534.44,298.76 570.4134,352.5928 596.2614,391.2808 " fill="none" id="JobOpeningPhase-to-JobOpeningStatus" style="stroke:#181818;stroke-width:0.8000000000000002;"/><polygon fill="#181818" points="598.928,395.272,597.5889,387.5075,596.7059,391.946,592.2674,391.0629,598.928,395.272" style="stroke:#181818;stroke-width:0.8000000000000002;"/><text fill="#000000" font-family="sans-serif" font-size="10.4" lengthAdjust="spacing" textLength="5.6" x="511.4299" y="286.6788">1</text><text fill="#000000" font-family="sans-serif" font-size="10.4" lengthAdjust="spacing" textLength="5.6" x="589.4752" y="386.6944">1</text></g><!--link Candidate to PhoneNumber--><g id="link_Candidate_PhoneNumber"><path codeLine="92" d="M1611.616,280.848 C1610.192,317.088 1608.0209,372.4517 1606.7169,405.5557 " fill="none" id="Candidate-to-PhoneNumber" style="stroke:#181818;stroke-width:0.8000000000000002;"/><polygon fill="#181818" points="1606.528,410.352,1610.0089,403.2835,1606.6854,406.3551,1603.6139,403.0316,1606.528,410.352" style="stroke:#181818;stroke-width:0.8000000000000002;"/><text fill="#000000" font-family="sans-serif" font-size="10.4" lengthAdjust="spacing" textLength="16.8" x="1610.4" y="341.6227">has</text><text fill="#000000" font-family="sans-serif" font-size="10.4" lengthAdjust="spacing" textLength="5.6" x="1605.3811" y="298.1185">1</text><text fill="#000000" font-family="sans-serif" font-size="10.4" lengthAdjust="spacing" textLength="5.6" x="1600.5185" y="401.2012">1</text></g><!--link CustomerManager to JobOpening--><g id="link_CustomerManager_JobOpening"><path codeLine="94" d="M129.128,219.016 C145.624,197.76 170.64,171.288 200,159.2 C267.192,131.528 781.336,157.688 854,157.6 C870,157.584 874.624,153.184 890,157.6 C928.352,168.616 962.5592,189.9611 990.4152,210.8411 " fill="none" id="CustomerManager-to-JobOpening" style="stroke:#181818;stroke-width:0.8000000000000002;"/><polygon fill="#181818" points="994.256,213.72,990.4141,206.8411,991.0553,211.3209,986.5755,211.9621,994.256,213.72" style="stroke:#181818;stroke-width:0.8000000000000002;"/><text fill="#000000" font-family="sans-serif" font-size="10.4" lengthAdjust="spacing" textLength="34.4" x="854.8" y="149.6227">creates</text><text fill="#000000" font-family="sans-serif" font-size="10.4" lengthAdjust="spacing" textLength="5.6" x="126.6781" y="210.196">1</text><text fill="#000000" font-family="sans-serif" font-size="10.4" lengthAdjust="spacing" textLength="16" x="971.9985" y="206.0985">0..*</text></g><!--link Application to ApplicationDate--><g id="link_Application_ApplicationDate"><path codeLine="97" d="M1746.776,113.976 C1748.016,146.096 1749.7584,191.2996 1750.8944,220.6516 " fill="none" id="Application-to-ApplicationDate" style="stroke:#181818;stroke-width:0.8000000000000002;"/><polygon fill="#181818" points="1751.08,225.448,1753.9992,218.1296,1750.9253,221.451,1747.6039,218.3771,1751.08,225.448" style="stroke:#181818;stroke-width:0.8000000000000002;"/><text fill="#000000" font-family="sans-serif" font-size="10.4" lengthAdjust="spacing" textLength="5.6" x="1740.9375" y="130.8203">1</text><text fill="#000000" font-family="sans-serif" font-size="10.4" lengthAdjust="spacing" textLength="5.6" x="1744.7128" y="216.6628">1</text></g><!--link Application to ApplicationStatus--><g id="link_Application_ApplicationStatus"><path codeLine="99" d="M1776.088,113.824 C1789.408,127.4 1805.016,143.792 1818.4,159.2 C1828.48,170.808 1835.9433,179.8602 1845.5833,192.1082 " fill="none" id="Application-to-ApplicationStatus" style="stroke:#181818;stroke-width:0.8000000000000002;"/><polygon fill="#181818" points="1848.552,195.88,1846.6135,188.2431,1846.0781,192.7368,1841.5844,192.2014,1848.552,195.88" style="stroke:#181818;stroke-width:0.8000000000000002;"/><text fill="#000000" font-family="sans-serif" font-size="10.4" lengthAdjust="spacing" textLength="5.6" x="1774.7277" y="130.8843">1</text><text fill="#000000" font-family="sans-serif" font-size="10.4" lengthAdjust="spacing" textLength="5.6" x="1838.2436" y="186.8494">1</text></g><!--link Application to Candidate--><g id="link_Application_Candidate"><path codeLine="100" d="M1713.264,113.824 C1705.752,121.344 1697.976,129.568 1691.2,137.6 C1669.136,163.752 1649.6274,191.919 1634.5314,214.999 " fill="none" id="Application-to-Candidate" style="stroke:#181818;stroke-width:0.8000000000000002;"/><polygon fill="#181818" points="1631.904,219.016,1638.5232,214.7421,1634.0935,215.6685,1633.1671,211.2388,1631.904,219.016" style="stroke:#181818;stroke-width:0.8000000000000002;"/><text fill="#000000" font-family="sans-serif" font-size="10.4" lengthAdjust="spacing" textLength="48" x="1692" y="149.6227">belongs to</text><text fill="#000000" font-family="sans-serif" font-size="10.4" lengthAdjust="spacing" textLength="5.6" x="1702.2838" y="130.8843">1</text><text fill="#000000" font-family="sans-serif" font-size="10.4" lengthAdjust="spacing" textLength="5.6" x="1629.1063" y="210.196">1</text></g><!--link Application to JobOpening--><g id="link_Application_JobOpening"><path codeLine="101" d="M1704.992,93.096 C1581.072,122.08 1213.1299,208.1468 1085.6179,237.9708 " fill="none" id="Application-to-JobOpening" style="stroke:#181818;stroke-width:0.8000000000000002;"/><polygon fill="#181818" points="1080.944,239.064,1088.6836,240.5401,1084.8389,238.153,1087.226,234.3083,1080.944,239.064" style="stroke:#181818;stroke-width:0.8000000000000002;"/><text fill="#000000" font-family="sans-serif" font-size="10.4" lengthAdjust="spacing" textLength="16.8" x="1496.8" y="149.6227">has</text><text fill="#000000" font-family="sans-serif" font-size="10.4" lengthAdjust="spacing" textLength="5.6" x="1693.2878" y="91.2524">1</text><text fill="#000000" font-family="sans-serif" font-size="10.4" lengthAdjust="spacing" textLength="5.6" x="1087.1446" y="234.3102">1</text></g><!--SRC=[ZPJDRk8m58NtVWgBvKX5Crk48bN0egCE843jsfZRr2AnKzkXGXNlFeuTmesJq6vQ6t- -FyStnno5B9XcEIqOFx8KjlQS0TN0BPDf1eJKlzE_QhygG0gPFgQfXfHPe5-4Kf1Ms3CwfjEfLiecYLk4moIfG4eFOBWMXHLAkls5k3yyOyPKbpVm1Xea1tVhXMKbkFjVbuPOblaUzEhjXN4ckG3JZysKj9fnkpiNq0kyAdtSG2fob0STkq9smcPH4PS-5TPQSJ2cBKOJfGsvS8jQYIgULwtCCVVE3EufwFLO59dWhDQBqYtNu76_Uv8Mz4d0Ps0boyv66B_PW2apsz4O9qDDRotJTkvQc4vF7KKMyX0VTSjt4MnPbN_2vQ_MYwLVp9vNsyNSbzEMSWCVfT2Gkp4nGrE5cPx9ektNm_GwArCXuvTiyYDrUtEZSvIkAG4dHcWbLZoRNYt4D78rrFMvjJh1mM_cJjXw-Sg4TIAtt_j9kjboLHjprRLfp4KLXv2eki3RNIrtpvkQKDhLO0BJrMV6vA6Ye547XMaEQPysI9hrkv8GlbxymRKIbSQg7FG_9jrMzwPh8xqvQnL8D0Lqz6T47nuI_xztGWY9HAdeECg4di8v69_YQdPHTEyUG-VOdOQOcq4D4Hqhl5CERk4kLfilRktgNJTsFFurmaO_eSv9oFqxezXuIBI_nvfX-FTux9QDTNq7rZRsm-JX0oNaDkMOGoDzbI2Qpu27vB5apiF3417a2AtuaPly2Amh7Y9lZKpe7Z8bKqEj6iIxR_mV]--></g></svg>