<?xml version="1.0" encoding="us-ascii" standalone="no"?><svg xmlns="http://www.w3.org/2000/svg" xmlns:xlink="http://www.w3.org/1999/xlink" contentStyleType="text/css" height="213px" preserveAspectRatio="none" style="width:496px;height:213px;background:#FFFFFF;" version="1.1" viewBox="0 0 496 213" width="496px" zoomAndPan="magnify"><defs/><g><!--class JobRequirements--><g id="elem_JobRequirements"><rect codeLine="2" fill="#F1F1F1" height="68.4531" id="JobRequirements" rx="2.5" ry="2.5" style="stroke:#181818;stroke-width:0.5;" width="142" x="7" y="7"/><ellipse cx="22" cy="33.2266" fill="#ADD1B2" rx="11" ry="11" style="stroke:#181818;stroke-width:1.0;"/><path d="M20.8594,34.0234 L20.8594,36.5234 L25.1875,36.5234 L25.1875,35.6016 Q25.1875,34.9922 25.4219,34.7266 Q25.6719,34.4609 26.0469,34.4609 Q26.4219,34.4609 26.6563,34.7266 Q26.8906,34.9922 26.8906,35.6016 L26.8906,38.2266 L18.8906,38.2266 Q18.2656,38.2266 18,37.9922 Q17.75,37.7578 17.75,37.3672 Q17.75,36.9922 18.0156,36.7578 Q18.2813,36.5234 18.8906,36.5234 L19.1563,36.5234 L19.1563,29.8672 L18.8906,29.8672 Q18.2656,29.8672 18,29.6328 Q17.75,29.3984 17.75,29.0078 Q17.75,28.6328 18,28.3984 Q18.2656,28.1641 18.8906,28.1641 L26.5156,28.1641 L26.5156,30.7578 Q26.5156,31.3672 26.2813,31.6328 Q26.0625,31.8828 25.6719,31.8828 Q25.2969,31.8828 25.0625,31.6328 Q24.8281,31.3672 24.8281,30.7578 L24.8281,29.8672 L20.8594,29.8672 L20.8594,32.3203 L22.3438,32.3203 Q22.3438,31.6641 22.4688,31.4766 Q22.7344,31.0703 23.2031,31.0703 Q23.5781,31.0703 23.8125,31.3359 Q24.0469,31.5859 24.0469,32.1953 L24.0469,34.1641 Q24.0469,34.7109 23.9219,34.8984 Q23.6563,35.2891 23.2031,35.2891 Q22.7344,35.2891 22.4688,34.8828 Q22.3438,34.6953 22.3438,34.0234 L20.8594,34.0234 Z " fill="#000000"/><text fill="#000000" font-family="sans-serif" font-size="12" font-style="italic" lengthAdjust="spacing" textLength="35" x="73.5" y="22.8633">&#171;root&#187;</text><text fill="#000000" font-family="sans-serif" font-size="12" font-style="italic" lengthAdjust="spacing" textLength="43" x="69.5" y="36.2695">&#171;entity&#187;</text><text fill="#000000" font-family="sans-serif" font-size="14" lengthAdjust="spacing" textLength="110" x="36" y="51.4863">JobRequirements</text><line style="stroke:#181818;stroke-width:0.5;" x1="8" x2="148" y1="59.4531" y2="59.4531"/><line style="stroke:#181818;stroke-width:0.5;" x1="8" x2="148" y1="67.4531" y2="67.4531"/></g><!--class JobRequirementsData--><g id="elem_JobRequirementsData"><rect codeLine="6" fill="#F1F1F1" height="55.0469" id="JobRequirementsData" rx="2.5" ry="2.5" style="stroke:#181818;stroke-width:0.5;" width="172" x="143" y="151"/><ellipse cx="158" cy="170.5234" fill="#ADD1B2" rx="11" ry="11" style="stroke:#181818;stroke-width:1.0;"/><path d="M160.7656,166.3984 Q160.9219,166.1797 161.1094,166.0703 Q161.2969,165.9609 161.5156,165.9609 Q161.8906,165.9609 162.125,166.2266 Q162.3594,166.4766 162.3594,167.0859 L162.3594,168.5391 Q162.3594,169.1484 162.125,169.4141 Q161.8906,169.6797 161.5156,169.6797 Q161.1719,169.6797 160.9688,169.4766 Q160.7656,169.2891 160.6563,168.7734 Q160.6094,168.4141 160.4219,168.2266 Q160.0938,167.8516 159.4844,167.6328 Q158.875,167.4141 158.25,167.4141 Q157.4844,167.4141 156.8438,167.7422 Q156.2188,168.0703 155.7188,168.8203 Q155.2344,169.5703 155.2344,170.6016 L155.2344,171.6953 Q155.2344,172.9297 156.125,173.7578 Q157.0156,174.5703 158.6094,174.5703 Q159.5469,174.5703 160.2031,174.3203 Q160.5938,174.1641 161.0156,173.7266 Q161.2813,173.4609 161.4219,173.3828 Q161.5781,173.3047 161.7813,173.3047 Q162.1094,173.3047 162.3594,173.5703 Q162.625,173.8203 162.625,174.1641 Q162.625,174.5078 162.2813,174.9141 Q161.7813,175.4922 160.9844,175.8203 Q159.9063,176.2734 158.6094,176.2734 Q157.0938,176.2734 155.8906,175.6484 Q154.9063,175.1484 154.2188,174.0859 Q153.5313,173.0078 153.5313,171.7266 L153.5313,170.5703 Q153.5313,169.2422 154.1406,168.1016 Q154.7656,166.9453 155.8594,166.3359 Q156.9531,165.7109 158.1875,165.7109 Q158.9219,165.7109 159.5625,165.8828 Q160.2188,166.0391 160.7656,166.3984 Z " fill="#000000"/><text fill="#000000" font-family="sans-serif" font-size="12" font-style="italic" lengthAdjust="spacing" textLength="46" x="219" y="166.8633">&#171;Value&#187;</text><text fill="#000000" font-family="sans-serif" font-size="14" lengthAdjust="spacing" textLength="140" x="172" y="182.0801">JobRequirementsData</text><line style="stroke:#181818;stroke-width:0.5;" x1="144" x2="314" y1="190.0469" y2="190.0469"/><line style="stroke:#181818;stroke-width:0.5;" x1="144" x2="314" y1="198.0469" y2="198.0469"/></g><!--class Operator--><g id="elem_Operator"><rect codeLine="10" fill="#F1F1F1" height="68.4531" id="Operator" rx="2.5" ry="2.5" style="stroke:#181818;stroke-width:0.5;" width="89" x="184.5" y="7"/><ellipse cx="199.5" cy="33.2266" fill="#ADD1B2" rx="11" ry="11" style="stroke:#181818;stroke-width:1.0;"/><path d="M198.3594,34.0234 L198.3594,36.5234 L202.6875,36.5234 L202.6875,35.6016 Q202.6875,34.9922 202.9219,34.7266 Q203.1719,34.4609 203.5469,34.4609 Q203.9219,34.4609 204.1563,34.7266 Q204.3906,34.9922 204.3906,35.6016 L204.3906,38.2266 L196.3906,38.2266 Q195.7656,38.2266 195.5,37.9922 Q195.25,37.7578 195.25,37.3672 Q195.25,36.9922 195.5156,36.7578 Q195.7813,36.5234 196.3906,36.5234 L196.6563,36.5234 L196.6563,29.8672 L196.3906,29.8672 Q195.7656,29.8672 195.5,29.6328 Q195.25,29.3984 195.25,29.0078 Q195.25,28.6328 195.5,28.3984 Q195.7656,28.1641 196.3906,28.1641 L204.0156,28.1641 L204.0156,30.7578 Q204.0156,31.3672 203.7813,31.6328 Q203.5625,31.8828 203.1719,31.8828 Q202.7969,31.8828 202.5625,31.6328 Q202.3281,31.3672 202.3281,30.7578 L202.3281,29.8672 L198.3594,29.8672 L198.3594,32.3203 L199.8438,32.3203 Q199.8438,31.6641 199.9688,31.4766 Q200.2344,31.0703 200.7031,31.0703 Q201.0781,31.0703 201.3125,31.3359 Q201.5469,31.5859 201.5469,32.1953 L201.5469,34.1641 Q201.5469,34.7109 201.4219,34.8984 Q201.1563,35.2891 200.7031,35.2891 Q200.2344,35.2891 199.9688,34.8828 Q199.8438,34.6953 199.8438,34.0234 L198.3594,34.0234 Z " fill="#000000"/><text fill="#000000" font-family="sans-serif" font-size="12" font-style="italic" lengthAdjust="spacing" textLength="43" x="220.5" y="22.8633">&#171;entity&#187;</text><text fill="#000000" font-family="sans-serif" font-size="12" font-style="italic" lengthAdjust="spacing" textLength="35" x="224.5" y="36.2695">&#171;root&#187;</text><text fill="#000000" font-family="sans-serif" font-size="14" lengthAdjust="spacing" textLength="57" x="213.5" y="51.4863">Operator</text><line style="stroke:#181818;stroke-width:0.5;" x1="185.5" x2="272.5" y1="59.4531" y2="59.4531"/><line style="stroke:#181818;stroke-width:0.5;" x1="185.5" x2="272.5" y1="67.4531" y2="67.4531"/></g><!--class JobRequirementsPlugin--><g id="elem_JobRequirementsPlugin"><rect codeLine="12" fill="#F1F1F1" height="48" id="JobRequirementsPlugin" rx="2.5" ry="2.5" style="stroke:#181818;stroke-width:0.5;" width="181" x="308.5" y="17"/><ellipse cx="323.5" cy="33" fill="#ADD1B2" rx="11" ry="11" style="stroke:#181818;stroke-width:1.0;"/><path d="M326.2656,28.875 Q326.4219,28.6563 326.6094,28.5469 Q326.7969,28.4375 327.0156,28.4375 Q327.3906,28.4375 327.625,28.7031 Q327.8594,28.9531 327.8594,29.5625 L327.8594,31.0156 Q327.8594,31.625 327.625,31.8906 Q327.3906,32.1563 327.0156,32.1563 Q326.6719,32.1563 326.4688,31.9531 Q326.2656,31.7656 326.1563,31.25 Q326.1094,30.8906 325.9219,30.7031 Q325.5938,30.3281 324.9844,30.1094 Q324.375,29.8906 323.75,29.8906 Q322.9844,29.8906 322.3438,30.2188 Q321.7188,30.5469 321.2188,31.2969 Q320.7344,32.0469 320.7344,33.0781 L320.7344,34.1719 Q320.7344,35.4063 321.625,36.2344 Q322.5156,37.0469 324.1094,37.0469 Q325.0469,37.0469 325.7031,36.7969 Q326.0938,36.6406 326.5156,36.2031 Q326.7813,35.9375 326.9219,35.8594 Q327.0781,35.7813 327.2813,35.7813 Q327.6094,35.7813 327.8594,36.0469 Q328.125,36.2969 328.125,36.6406 Q328.125,36.9844 327.7813,37.3906 Q327.2813,37.9688 326.4844,38.2969 Q325.4063,38.75 324.1094,38.75 Q322.5938,38.75 321.3906,38.125 Q320.4063,37.625 319.7188,36.5625 Q319.0313,35.4844 319.0313,34.2031 L319.0313,33.0469 Q319.0313,31.7188 319.6406,30.5781 Q320.2656,29.4219 321.3594,28.8125 Q322.4531,28.1875 323.6875,28.1875 Q324.4219,28.1875 325.0625,28.3594 Q325.7188,28.5156 326.2656,28.875 Z " fill="#000000"/><text fill="#000000" font-family="sans-serif" font-size="14" lengthAdjust="spacing" textLength="149" x="337.5" y="37.8535">JobRequirementsPlugin</text><line style="stroke:#181818;stroke-width:0.5;" x1="309.5" x2="488.5" y1="49" y2="49"/><line style="stroke:#181818;stroke-width:0.5;" x1="309.5" x2="488.5" y1="57" y2="57"/></g><!--link JobRequirements to JobRequirementsData--><g id="link_JobRequirements_JobRequirementsData"><path codeLine="15" d="M114.94,75.15 C139.47,97.16 171.43,125.84 195.27,147.23 " fill="none" id="JobRequirements-to-JobRequirementsData" style="stroke:#181818;stroke-width:1.0;"/><polygon fill="#181818" points="199.03,150.6,194.9799,141.6224,195.3001,147.2702,189.6523,147.5903,199.03,150.6" style="stroke:#181818;stroke-width:1.0;"/><text fill="#000000" font-family="sans-serif" font-size="13" lengthAdjust="spacing" textLength="7" x="114.837" y="95.413">1</text><text fill="#000000" font-family="sans-serif" font-size="13" lengthAdjust="spacing" textLength="7" x="184.2901" y="140.353">1</text></g><!--link Operator to JobRequirementsData--><g id="link_Operator_JobRequirementsData"><path codeLine="16" d="M229,75.15 C229,96.53 229,124.19 229,145.37 " fill="none" id="Operator-to-JobRequirementsData" style="stroke:#181818;stroke-width:1.0;"/><polygon fill="#181818" points="229,150.6,233,141.6,229,145.6,225,141.6,229,150.6" style="stroke:#181818;stroke-width:1.0;"/><text fill="#000000" font-family="sans-serif" font-size="13" lengthAdjust="spacing" textLength="45" x="230" y="117.7686">uploads</text><text fill="#000000" font-family="sans-serif" font-size="13" lengthAdjust="spacing" textLength="7" x="221.2781" y="95.413">1</text><text fill="#000000" font-family="sans-serif" font-size="13" lengthAdjust="spacing" textLength="15" x="212.2656" y="140.353">1..</text></g><!--link JobRequirementsPlugin to JobRequirementsData--><g id="link_JobRequirementsPlugin_JobRequirementsData"><path codeLine="17" d="M369.78,65.29 C341.25,88.03 297.71,122.73 266.61,147.52 " fill="none" id="JobRequirementsPlugin-to-JobRequirementsData" style="stroke:#181818;stroke-width:1.0;"/><polygon fill="#181818" points="262.5,150.8,272.0333,148.3267,266.4127,147.687,267.0524,142.0664,262.5,150.8" style="stroke:#181818;stroke-width:1.0;"/><text fill="#000000" font-family="sans-serif" font-size="13" lengthAdjust="spacing" textLength="50" x="320" y="117.7686">validates</text></g><!--SRC=[VOwn2i8m48RtFCNHlGLNAPcSN1G7zxCz912JcbmA4dntqnI9bE1oTyFt_VUJOSKlEDhRXPv1ENgGOGzzxwnbATD1cP0o2W7mNiQWqVkjSa36H5zH1qfUeLSVJXCvPEjAO7aI_-IUTRWh4zUqRSrcrq3RohnhVSJtwm_PTNLs3s7I5aSlgWsoNVTcr6f49ly1]--></g></svg>