<?xml version="1.0" encoding="us-ascii" standalone="no"?><svg xmlns="http://www.w3.org/2000/svg" xmlns:xlink="http://www.w3.org/1999/xlink" contentStyleType="text/css" height="695px" preserveAspectRatio="none" style="width:1854px;height:695px;background:#FFFFFF;" version="1.1" viewBox="0 0 1854 695" width="1854px" zoomAndPan="magnify"><defs/><g><text fill="#000000" font-family="sans-serif" font-size="14" font-weight="bold" lengthAdjust="spacing" textLength="162" x="847.5" y="30.1074">Select Interview Model</text><rect fill="#FFFFFF" height="461.3652" style="stroke:#181818;stroke-width:1.0;" width="10" x="61.5" y="133.2422"/><rect fill="#FFFFFF" height="438.0742" style="stroke:#181818;stroke-width:1.0;" width="10" x="437.5" y="156.5332"/><rect fill="#FFFFFF" height="250.3281" style="stroke:#181818;stroke-width:1.0;" width="10" x="806.5" y="219.1152"/><rect fill="#FFFFFF" height="40.291" style="stroke:#181818;stroke-width:1.0;" width="10" x="806.5" y="563.3164"/><rect fill="#FFFFFF" height="31.291" style="stroke:#181818;stroke-width:1.0;" width="10" x="986" y="250.4063"/><rect fill="#FFFFFF" height="31.291" style="stroke:#181818;stroke-width:1.0;" width="10" x="1129" y="344.2793"/><rect fill="#FFFFFF" height="31.291" style="stroke:#181818;stroke-width:1.0;" width="10" x="1579" y="406.8613"/><line style="stroke:#181818;stroke-width:0.5;stroke-dasharray:5.0,5.0;" x1="66" x2="66" y1="123.2422" y2="612.6074"/><line style="stroke:#181818;stroke-width:0.5;stroke-dasharray:5.0,5.0;" x1="442.5" x2="442.5" y1="123.2422" y2="612.6074"/><line style="stroke:#181818;stroke-width:0.5;stroke-dasharray:5.0,5.0;" x1="811" x2="811" y1="123.2422" y2="612.6074"/><line style="stroke:#181818;stroke-width:0.5;stroke-dasharray:5.0,5.0;" x1="991" x2="991" y1="123.2422" y2="612.6074"/><line style="stroke:#181818;stroke-width:0.5;stroke-dasharray:5.0,5.0;" x1="1134" x2="1134" y1="123.2422" y2="612.6074"/><line style="stroke:#181818;stroke-width:0.5;stroke-dasharray:5.0,5.0;" x1="1260" x2="1260" y1="123.2422" y2="612.6074"/><line style="stroke:#181818;stroke-width:0.5;stroke-dasharray:5.0,5.0;" x1="1410" x2="1410" y1="123.2422" y2="612.6074"/><line style="stroke:#181818;stroke-width:0.5;stroke-dasharray:5.0,5.0;" x1="1584" x2="1584" y1="123.2422" y2="612.6074"/><line style="stroke:#181818;stroke-width:0.5;stroke-dasharray:5.0,5.0;" x1="1761" x2="1761" y1="123.2422" y2="612.6074"/><text fill="#000000" font-family="sans-serif" font-size="14" lengthAdjust="spacing" textLength="117" x="5" y="119.7285">CostumerManager</text><ellipse cx="66.5" cy="53.1211" fill="#E2E2F0" rx="8" ry="8" style="stroke:#181818;stroke-width:0.5;"/><path d="M66.5,61.1211 L66.5,88.1211 M53.5,69.1211 L79.5,69.1211 M66.5,88.1211 L53.5,103.1211 M66.5,88.1211 L79.5,103.1211 " fill="none" style="stroke:#181818;stroke-width:0.5;"/><text fill="#000000" font-family="sans-serif" font-size="14" lengthAdjust="spacing" textLength="117" x="5" y="626.7148">CostumerManager</text><ellipse cx="66.5" cy="638.7285" fill="#E2E2F0" rx="8" ry="8" style="stroke:#181818;stroke-width:0.5;"/><path d="M66.5,646.7285 L66.5,673.7285 M53.5,654.7285 L79.5,654.7285 M66.5,673.7285 L53.5,688.7285 M66.5,673.7285 L79.5,688.7285 " fill="none" style="stroke:#181818;stroke-width:0.5;"/><rect fill="#E2E2F0" height="32.6211" rx="2.5" ry="2.5" style="stroke:#181818;stroke-width:0.5;" width="212" x="336.5" y="89.6211"/><text fill="#000000" font-family="sans-serif" font-size="14" lengthAdjust="spacing" textLength="198" x="343.5" y="111.7285">SelectRequirementsTemplateUI</text><rect fill="#E2E2F0" height="32.6211" rx="2.5" ry="2.5" style="stroke:#181818;stroke-width:0.5;" width="212" x="336.5" y="611.6074"/><text fill="#000000" font-family="sans-serif" font-size="14" lengthAdjust="spacing" textLength="198" x="343.5" y="633.7148">SelectRequirementsTemplateUI</text><rect fill="#E2E2F0" height="32.6211" rx="2.5" ry="2.5" style="stroke:#181818;stroke-width:0.5;" width="203" x="710" y="89.6211"/><text fill="#000000" font-family="sans-serif" font-size="14" lengthAdjust="spacing" textLength="189" x="717" y="111.7285">SelectRequirementsController</text><rect fill="#E2E2F0" height="32.6211" rx="2.5" ry="2.5" style="stroke:#181818;stroke-width:0.5;" width="203" x="710" y="611.6074"/><text fill="#000000" font-family="sans-serif" font-size="14" lengthAdjust="spacing" textLength="189" x="717" y="633.7148">SelectRequirementsController</text><rect fill="#E2E2F0" height="32.6211" rx="2.5" ry="2.5" style="stroke:#181818;stroke-width:0.5;" width="136" x="923" y="89.6211"/><text fill="#000000" font-family="sans-serif" font-size="14" lengthAdjust="spacing" textLength="122" x="930" y="111.7285">PersistenceContext</text><rect fill="#E2E2F0" height="32.6211" rx="2.5" ry="2.5" style="stroke:#181818;stroke-width:0.5;" width="136" x="923" y="611.6074"/><text fill="#000000" font-family="sans-serif" font-size="14" lengthAdjust="spacing" textLength="122" x="930" y="633.7148">PersistenceContext</text><rect fill="#E2E2F0" height="32.6211" rx="2.5" ry="2.5" style="stroke:#181818;stroke-width:0.5;" width="130" x="1069" y="89.6211"/><text fill="#000000" font-family="sans-serif" font-size="14" lengthAdjust="spacing" textLength="116" x="1076" y="111.7285">RepositoryFactory</text><rect fill="#E2E2F0" height="32.6211" rx="2.5" ry="2.5" style="stroke:#181818;stroke-width:0.5;" width="130" x="1069" y="611.6074"/><text fill="#000000" font-family="sans-serif" font-size="14" lengthAdjust="spacing" textLength="116" x="1076" y="633.7148">RepositoryFactory</text><rect fill="#E2E2F0" height="32.6211" rx="2.5" ry="2.5" style="stroke:#181818;stroke-width:0.5;" width="102" x="1209" y="89.6211"/><text fill="#000000" font-family="sans-serif" font-size="14" lengthAdjust="spacing" textLength="88" x="1216" y="111.7285">JobReference</text><rect fill="#E2E2F0" height="32.6211" rx="2.5" ry="2.5" style="stroke:#181818;stroke-width:0.5;" width="102" x="1209" y="611.6074"/><text fill="#000000" font-family="sans-serif" font-size="14" lengthAdjust="spacing" textLength="88" x="1216" y="633.7148">JobReference</text><rect fill="#E2E2F0" height="32.6211" rx="2.5" ry="2.5" style="stroke:#181818;stroke-width:0.5;" width="178" x="1321" y="89.6211"/><text fill="#000000" font-family="sans-serif" font-size="14" lengthAdjust="spacing" textLength="164" x="1328" y="111.7285">JobOpeningRequirements</text><rect fill="#E2E2F0" height="32.6211" rx="2.5" ry="2.5" style="stroke:#181818;stroke-width:0.5;" width="178" x="1321" y="611.6074"/><text fill="#000000" font-family="sans-serif" font-size="14" lengthAdjust="spacing" textLength="164" x="1328" y="633.7148">JobOpeningRequirements</text><text fill="#000000" font-family="sans-serif" font-size="14" lengthAdjust="spacing" textLength="144" x="1509" y="119.7285">JobOpeningRepository</text><path d="M1566,68.6211 C1566,58.6211 1584,58.6211 1584,58.6211 C1584,58.6211 1602,58.6211 1602,68.6211 L1602,94.6211 C1602,104.6211 1584,104.6211 1584,104.6211 C1584,104.6211 1566,104.6211 1566,94.6211 L1566,68.6211 " fill="#E2E2F0" style="stroke:#181818;stroke-width:1.5;"/><path d="M1566,68.6211 C1566,78.6211 1584,78.6211 1584,78.6211 C1584,78.6211 1602,78.6211 1602,68.6211 " fill="none" style="stroke:#181818;stroke-width:1.5;"/><text fill="#000000" font-family="sans-serif" font-size="14" lengthAdjust="spacing" textLength="144" x="1509" y="626.7148">JobOpeningRepository</text><path d="M1566,640.2285 C1566,630.2285 1584,630.2285 1584,630.2285 C1584,630.2285 1602,630.2285 1602,640.2285 L1602,666.2285 C1602,676.2285 1584,676.2285 1584,676.2285 C1584,676.2285 1566,676.2285 1566,666.2285 L1566,640.2285 " fill="#E2E2F0" style="stroke:#181818;stroke-width:1.5;"/><path d="M1566,640.2285 C1566,650.2285 1584,650.2285 1584,650.2285 C1584,650.2285 1602,650.2285 1602,640.2285 " fill="none" style="stroke:#181818;stroke-width:1.5;"/><text fill="#000000" font-family="sans-serif" font-size="14" lengthAdjust="spacing" textLength="178" x="1669" y="119.7285">JobRequirementsRepository</text><path d="M1743,68.6211 C1743,58.6211 1761,58.6211 1761,58.6211 C1761,58.6211 1779,58.6211 1779,68.6211 L1779,94.6211 C1779,104.6211 1761,104.6211 1761,104.6211 C1761,104.6211 1743,104.6211 1743,94.6211 L1743,68.6211 " fill="#E2E2F0" style="stroke:#181818;stroke-width:1.5;"/><path d="M1743,68.6211 C1743,78.6211 1761,78.6211 1761,78.6211 C1761,78.6211 1779,78.6211 1779,68.6211 " fill="none" style="stroke:#181818;stroke-width:1.5;"/><text fill="#000000" font-family="sans-serif" font-size="14" lengthAdjust="spacing" textLength="178" x="1669" y="626.7148">JobRequirementsRepository</text><path d="M1743,640.2285 C1743,630.2285 1761,630.2285 1761,630.2285 C1761,630.2285 1779,630.2285 1779,640.2285 L1779,666.2285 C1779,676.2285 1761,676.2285 1761,676.2285 C1761,676.2285 1743,676.2285 1743,666.2285 L1743,640.2285 " fill="#E2E2F0" style="stroke:#181818;stroke-width:1.5;"/><path d="M1743,640.2285 C1743,650.2285 1761,650.2285 1761,650.2285 C1761,650.2285 1779,650.2285 1779,640.2285 " fill="none" style="stroke:#181818;stroke-width:1.5;"/><rect fill="#FFFFFF" height="461.3652" style="stroke:#181818;stroke-width:1.0;" width="10" x="61.5" y="133.2422"/><rect fill="#FFFFFF" height="438.0742" style="stroke:#181818;stroke-width:1.0;" width="10" x="437.5" y="156.5332"/><rect fill="#FFFFFF" height="250.3281" style="stroke:#181818;stroke-width:1.0;" width="10" x="806.5" y="219.1152"/><rect fill="#FFFFFF" height="40.291" style="stroke:#181818;stroke-width:1.0;" width="10" x="806.5" y="563.3164"/><rect fill="#FFFFFF" height="31.291" style="stroke:#181818;stroke-width:1.0;" width="10" x="986" y="250.4063"/><rect fill="#FFFFFF" height="31.291" style="stroke:#181818;stroke-width:1.0;" width="10" x="1129" y="344.2793"/><rect fill="#FFFFFF" height="31.291" style="stroke:#181818;stroke-width:1.0;" width="10" x="1579" y="406.8613"/><polygon fill="#181818" points="425.5,152.5332,435.5,156.5332,425.5,160.5332,429.5,156.5332" style="stroke:#181818;stroke-width:1.0;"/><line style="stroke:#181818;stroke-width:1.0;" x1="71.5" x2="431.5" y1="156.5332" y2="156.5332"/><text fill="#000000" font-family="sans-serif" font-size="13" lengthAdjust="spacing" textLength="199" x="78.5" y="151.2705">Exports job requirements template</text><polygon fill="#181818" points="799.5,183.8242,809.5,187.8242,799.5,191.8242,803.5,187.8242" style="stroke:#181818;stroke-width:1.0;"/><line style="stroke:#181818;stroke-width:1.0;" x1="447.5" x2="805.5" y1="187.8242" y2="187.8242"/><text fill="#000000" font-family="sans-serif" font-size="13" lengthAdjust="spacing" textLength="44" x="454.5" y="182.5615">create()</text><polygon fill="#181818" points="794.5,215.1152,804.5,219.1152,794.5,223.1152,798.5,219.1152" style="stroke:#181818;stroke-width:1.0;"/><line style="stroke:#181818;stroke-width:1.0;" x1="447.5" x2="800.5" y1="219.1152" y2="219.1152"/><text fill="#000000" font-family="sans-serif" font-size="13" lengthAdjust="spacing" textLength="115" x="454.5" y="213.8525">listAllJobOpenings()</text><polygon fill="#181818" points="974,246.4063,984,250.4063,974,254.4063,978,250.4063" style="stroke:#181818;stroke-width:1.0;"/><line style="stroke:#181818;stroke-width:1.0;" x1="816.5" x2="980" y1="250.4063" y2="250.4063"/><text fill="#000000" font-family="sans-serif" font-size="13" lengthAdjust="spacing" textLength="44" x="823.5" y="245.1436">create()</text><polygon fill="#181818" points="1122,277.6973,1132,281.6973,1122,285.6973,1126,281.6973" style="stroke:#181818;stroke-width:1.0;"/><line style="stroke:#181818;stroke-width:1.0;" x1="991" x2="1128" y1="281.6973" y2="281.6973"/><text fill="#000000" font-family="sans-serif" font-size="13" lengthAdjust="spacing" textLength="47" x="998" y="276.4346">factory()</text><polygon fill="#181818" points="827.5,308.9883,817.5,312.9883,827.5,316.9883,823.5,312.9883" style="stroke:#181818;stroke-width:1.0;"/><line style="stroke:#181818;stroke-width:1.0;stroke-dasharray:2.0,2.0;" x1="821.5" x2="1133" y1="312.9883" y2="312.9883"/><text fill="#000000" font-family="sans-serif" font-size="13" lengthAdjust="spacing" textLength="39" x="833.5" y="307.7256">factory</text><polygon fill="#181818" points="1117,340.2793,1127,344.2793,1117,348.2793,1121,344.2793" style="stroke:#181818;stroke-width:1.0;"/><line style="stroke:#181818;stroke-width:1.0;" x1="816.5" x2="1123" y1="344.2793" y2="344.2793"/><text fill="#000000" font-family="sans-serif" font-size="13" lengthAdjust="spacing" textLength="80" x="823.5" y="339.0166">jobOpenings()</text><polygon fill="#181818" points="827.5,371.5703,817.5,375.5703,827.5,379.5703,823.5,375.5703" style="stroke:#181818;stroke-width:1.0;"/><line style="stroke:#181818;stroke-width:1.0;stroke-dasharray:2.0,2.0;" x1="821.5" x2="1133" y1="375.5703" y2="375.5703"/><text fill="#000000" font-family="sans-serif" font-size="13" lengthAdjust="spacing" textLength="130" x="833.5" y="370.3076">JobOpeningRepository</text><polygon fill="#181818" points="1567,402.8613,1577,406.8613,1567,410.8613,1571,406.8613" style="stroke:#181818;stroke-width:1.0;"/><line style="stroke:#181818;stroke-width:1.0;" x1="816.5" x2="1573" y1="406.8613" y2="406.8613"/><text fill="#000000" font-family="sans-serif" font-size="13" lengthAdjust="spacing" textLength="74" x="823.5" y="401.5986">findAllOpen()</text><polygon fill="#181818" points="827.5,434.1523,817.5,438.1523,827.5,442.1523,823.5,438.1523" style="stroke:#181818;stroke-width:1.0;"/><line style="stroke:#181818;stroke-width:1.0;stroke-dasharray:2.0,2.0;" x1="821.5" x2="1583" y1="438.1523" y2="438.1523"/><text fill="#000000" font-family="sans-serif" font-size="13" lengthAdjust="spacing" textLength="72" x="833.5" y="432.8896">jobOpenings</text><polygon fill="#181818" points="458.5,465.4434,448.5,469.4434,458.5,473.4434,454.5,469.4434" style="stroke:#181818;stroke-width:1.0;"/><line style="stroke:#181818;stroke-width:1.0;stroke-dasharray:2.0,2.0;" x1="452.5" x2="810.5" y1="469.4434" y2="469.4434"/><text fill="#000000" font-family="sans-serif" font-size="13" lengthAdjust="spacing" textLength="72" x="464.5" y="464.1807">jobOpenings</text><polygon fill="#181818" points="82.5,496.7344,72.5,500.7344,82.5,504.7344,78.5,500.7344" style="stroke:#181818;stroke-width:1.0;"/><line style="stroke:#181818;stroke-width:1.0;stroke-dasharray:2.0,2.0;" x1="76.5" x2="436.5" y1="500.7344" y2="500.7344"/><text fill="#000000" font-family="sans-serif" font-size="13" lengthAdjust="spacing" textLength="162" x="88.5" y="495.4717">asks to select a jobOpening</text><polygon fill="#181818" points="425.5,528.0254,435.5,532.0254,425.5,536.0254,429.5,532.0254" style="stroke:#181818;stroke-width:1.0;"/><line style="stroke:#181818;stroke-width:1.0;" x1="71.5" x2="431.5" y1="532.0254" y2="532.0254"/><text fill="#000000" font-family="sans-serif" font-size="13" lengthAdjust="spacing" textLength="133" x="78.5" y="526.7627">selects the jobOpening</text><polygon fill="#181818" points="794.5,559.3164,804.5,563.3164,794.5,567.3164,798.5,563.3164" style="stroke:#181818;stroke-width:1.0;"/><line style="stroke:#181818;stroke-width:1.0;" x1="447.5" x2="800.5" y1="563.3164" y2="563.3164"/><text fill="#000000" font-family="sans-serif" font-size="13" lengthAdjust="spacing" textLength="340" x="454.5" y="558.0537">generateAndExportJobRequirementsTemplate(pluginName)</text><polygon fill="#181818" points="77.5,590.6074,67.5,594.6074,77.5,598.6074,73.5,594.6074" style="stroke:#181818;stroke-width:1.0;"/><line style="stroke:#181818;stroke-width:1.0;stroke-dasharray:2.0,2.0;" x1="71.5" x2="441.5" y1="594.6074" y2="594.6074"/><text fill="#000000" font-family="sans-serif" font-size="13" lengthAdjust="spacing" textLength="342" x="83.5" y="589.3447">displays a message saying template exported successfully</text><!--SRC=[ZPNDRi8m3CVlVGfhf-sm5-0m2R5DOj8-nCO3XDQmi3JfafJHjv-Jjf3G5EY54jk_-1_RgULM87oYmDp2N5hKEuv_yAeA55d6Sgiqp9InTOdwbKcsGGtCmDGPignYslASLqnQk6aX2_ojkSOIfJLVM5Q2MLpERrpGSdufOAQarKe8r3xW-3SE_41jkB4eStGkkBVUFLYE_HTOASCfu-RPAsgyU_SUkxwerGBNg1t4UuKBZwfaN0u2tYkKN6v28NremjH12cRPYXcC2NsUW_ZU4CU5t65mskghodTKbhwA_WVk7wX04tZQLqfR0rkr0Xq0m7R5p82U0u9gwXUMSmSu5cm2kKPokBrBss42Wcer5UAeqlJEqGv14noCxWbOH0vg3wTx3v1XeqGU8OMWNOSGSDs-dH8BlCpi8VUd-ZjcTaxMCODj-fWYNNr7NxT_iht6v2NHSQufdfF9PK5bTgRHn2-daeGF90M7DAhaybwXB3yLLvB7EjNrFd7QCPlGSFxGD2amxQNB0dOS5ymbXRNk5FcDen69ATkWH4tPJMNHZlR9nT3VqRULg3TSlh4InweKwZidiE26a8qXQIKQGzyCCAoXP0zt2A1F1GimTPwJpxeMeXaxLxfZ4gj-jty0]--></g></svg>