<?xml version="1.0" encoding="us-ascii" standalone="no"?><svg xmlns="http://www.w3.org/2000/svg" xmlns:xlink="http://www.w3.org/1999/xlink" contentStyleType="text/css" height="683px" preserveAspectRatio="none" style="width:1968px;height:683px;background:#FFFFFF;" version="1.1" viewBox="0 0 1968 683" width="1968px" zoomAndPan="magnify"><defs/><g><!--cluster JobOpeningAggregate--><g id="cluster_JobOpeningAggregate"><path d="M372.5,187.0137 L532.5,187.0137 A3.75,3.75 0 0 1 535,189.5137 L542,211.6348 L1134.5,211.6348 A2.5,2.5 0 0 1 1137,214.1348 L1137,525.5137 A2.5,2.5 0 0 1 1134.5,528.0137 L372.5,528.0137 A2.5,2.5 0 0 1 370,525.5137 L370,189.5137 A2.5,2.5 0 0 1 372.5,187.0137 " fill="none" style="stroke:#000000;stroke-width:1.5;"/><line style="stroke:#000000;stroke-width:1.5;" x1="370" x2="542" y1="211.6348" y2="211.6348"/><text fill="#000000" font-family="sans-serif" font-size="14" font-weight="bold" lengthAdjust="spacing" textLength="159" x="374" y="204.1211">JobOpeningAggregate</text></g><!--cluster InterviewModelAggregate--><g id="cluster_InterviewModelAggregate"><path d="M1764.5,406.0137 L1948.5,406.0137 A3.75,3.75 0 0 1 1951,408.5137 L1958,430.6348 L1958.5,430.6348 A2.5,2.5 0 0 1 1961,433.1348 L1961,673.5137 A2.5,2.5 0 0 1 1958.5,676.0137 L1764.5,676.0137 A2.5,2.5 0 0 1 1762,673.5137 L1762,408.5137 A2.5,2.5 0 0 1 1764.5,406.0137 " fill="none" style="stroke:#000000;stroke-width:1.5;"/><line style="stroke:#000000;stroke-width:1.5;" x1="1762" x2="1958" y1="430.6348" y2="430.6348"/><text fill="#000000" font-family="sans-serif" font-size="14" font-weight="bold" lengthAdjust="spacing" textLength="183" x="1766" y="423.1211">InterviewModelAggregate</text></g><!--cluster ApplicationAggregate--><g id="cluster_ApplicationAggregate"><path d="M8.5,6.0137 L160.5,6.0137 A3.75,3.75 0 0 1 163,8.5137 L170,30.6348 L343.5,30.6348 A2.5,2.5 0 0 1 346,33.1348 L346,352.5137 A2.5,2.5 0 0 1 343.5,355.0137 L8.5,355.0137 A2.5,2.5 0 0 1 6,352.5137 L6,8.5137 A2.5,2.5 0 0 1 8.5,6.0137 " fill="none" style="stroke:#000000;stroke-width:1.5;"/><line style="stroke:#000000;stroke-width:1.5;" x1="6" x2="170" y1="30.6348" y2="30.6348"/><text fill="#000000" font-family="sans-serif" font-size="14" font-weight="bold" lengthAdjust="spacing" textLength="151" x="10" y="23.1211">ApplicationAggregate</text></g><!--cluster CustomerManagerAggregate--><g id="cluster_CustomerManagerAggregate"><path d="M1217.5,6.0137 L1421.5,6.0137 A3.75,3.75 0 0 1 1424,8.5137 L1431,30.6348 L1431.5,30.6348 A2.5,2.5 0 0 1 1434,33.1348 L1434,133.5137 A2.5,2.5 0 0 1 1431.5,136.0137 L1217.5,136.0137 A2.5,2.5 0 0 1 1215,133.5137 L1215,8.5137 A2.5,2.5 0 0 1 1217.5,6.0137 " fill="none" style="stroke:#000000;stroke-width:1.5;"/><line style="stroke:#000000;stroke-width:1.5;" x1="1215" x2="1431" y1="30.6348" y2="30.6348"/><text fill="#000000" font-family="sans-serif" font-size="14" font-weight="bold" lengthAdjust="spacing" textLength="203" x="1219" y="23.1211">CustomerManagerAggregate</text></g><!--cluster InterviewAggregate--><g id="cluster_InterviewAggregate"><path d="M1163.5,196.0137 L1303.5,196.0137 A3.75,3.75 0 0 1 1306,198.5137 L1313,220.6348 L1735.5,220.6348 A2.5,2.5 0 0 1 1738,223.1348 L1738,525.5137 A2.5,2.5 0 0 1 1735.5,528.0137 L1163.5,528.0137 A2.5,2.5 0 0 1 1161,525.5137 L1161,198.5137 A2.5,2.5 0 0 1 1163.5,196.0137 " fill="none" style="stroke:#000000;stroke-width:1.5;"/><line style="stroke:#000000;stroke-width:1.5;" x1="1161" x2="1313" y1="220.6348" y2="220.6348"/><text fill="#000000" font-family="sans-serif" font-size="14" font-weight="bold" lengthAdjust="spacing" textLength="139" x="1165" y="213.1211">InterviewAggregate</text></g><!--cluster ValidationService--><g id="cluster_ValidationService"><path d="M1460.5,14.0137 L1584.5,14.0137 A3.75,3.75 0 0 1 1587,16.5137 L1594,38.6348 L1621.5,38.6348 A2.5,2.5 0 0 1 1624,41.1348 L1624,125.5137 A2.5,2.5 0 0 1 1621.5,128.0137 L1460.5,128.0137 A2.5,2.5 0 0 1 1458,125.5137 L1458,16.5137 A2.5,2.5 0 0 1 1460.5,14.0137 " fill="none" style="stroke:#000000;stroke-width:1.5;"/><line style="stroke:#000000;stroke-width:1.5;" x1="1458" x2="1594" y1="38.6348" y2="38.6348"/><text fill="#000000" font-family="sans-serif" font-size="14" font-weight="bold" lengthAdjust="spacing" textLength="123" x="1462" y="31.1211">ValidationService</text></g><!--class JobOpening--><g id="elem_JobOpening"><rect codeLine="3" fill="#F1F1F1" height="95.1641" id="JobOpening" rx="2.5" ry="2.5" style="stroke:#181818;stroke-width:0.5;" width="108" x="656" y="224.0137"/><ellipse cx="671" cy="254.2852" fill="#ADD1B2" rx="11" ry="11" style="stroke:#181818;stroke-width:1.0;"/><path d="M669.8594,255.082 L669.8594,257.582 L674.1875,257.582 L674.1875,256.6602 Q674.1875,256.0508 674.4219,255.7852 Q674.6719,255.5195 675.0469,255.5195 Q675.4219,255.5195 675.6563,255.7852 Q675.8906,256.0508 675.8906,256.6602 L675.8906,259.2852 L667.8906,259.2852 Q667.2656,259.2852 667,259.0508 Q666.75,258.8164 666.75,258.4258 Q666.75,258.0508 667.0156,257.8164 Q667.2813,257.582 667.8906,257.582 L668.1563,257.582 L668.1563,250.9258 L667.8906,250.9258 Q667.2656,250.9258 667,250.6914 Q666.75,250.457 666.75,250.0664 Q666.75,249.6914 667,249.457 Q667.2656,249.2227 667.8906,249.2227 L675.5156,249.2227 L675.5156,251.8164 Q675.5156,252.4258 675.2813,252.6914 Q675.0625,252.9414 674.6719,252.9414 Q674.2969,252.9414 674.0625,252.6914 Q673.8281,252.4258 673.8281,251.8164 L673.8281,250.9258 L669.8594,250.9258 L669.8594,253.3789 L671.3438,253.3789 Q671.3438,252.7227 671.4688,252.5352 Q671.7344,252.1289 672.2031,252.1289 Q672.5781,252.1289 672.8125,252.3945 Q673.0469,252.6445 673.0469,253.2539 L673.0469,255.2227 Q673.0469,255.7695 672.9219,255.957 Q672.6563,256.3477 672.2031,256.3477 Q671.7344,256.3477 671.4688,255.9414 Q671.3438,255.7539 671.3438,255.082 L669.8594,255.082 Z " fill="#000000"/><text fill="#000000" font-family="sans-serif" font-size="12" font-style="italic" lengthAdjust="spacing" textLength="35" x="705.5" y="241.9629">&#171;root&#187;</text><text fill="#000000" font-family="sans-serif" font-size="12" font-style="italic" lengthAdjust="spacing" textLength="43" x="701.5" y="257.9238">&#171;entity&#187;</text><text fill="#000000" font-family="sans-serif" font-size="14" lengthAdjust="spacing" textLength="76" x="685" y="276.043">JobOpening</text><line style="stroke:#181818;stroke-width:0.5;" x1="657" x2="763" y1="284.5566" y2="284.5566"/><text fill="#000000" font-family="sans-serif" font-size="14" lengthAdjust="spacing" textLength="69" x="662" y="303.6641">description</text><line style="stroke:#181818;stroke-width:0.5;" x1="657" x2="763" y1="311.1777" y2="311.1777"/></g><!--class JobReference--><g id="elem_JobReference"><rect codeLine="7" fill="#F1F1F1" height="60.582" id="JobReference" rx="2.5" ry="2.5" style="stroke:#181818;stroke-width:0.5;" width="120" x="386" y="451.0137"/><ellipse cx="401" cy="473.3047" fill="#ADD1B2" rx="11" ry="11" style="stroke:#181818;stroke-width:1.0;"/><path d="M403.7656,469.1797 Q403.9219,468.9609 404.1094,468.8516 Q404.2969,468.7422 404.5156,468.7422 Q404.8906,468.7422 405.125,469.0078 Q405.3594,469.2578 405.3594,469.8672 L405.3594,471.3203 Q405.3594,471.9297 405.125,472.1953 Q404.8906,472.4609 404.5156,472.4609 Q404.1719,472.4609 403.9688,472.2578 Q403.7656,472.0703 403.6563,471.5547 Q403.6094,471.1953 403.4219,471.0078 Q403.0938,470.6328 402.4844,470.4141 Q401.875,470.1953 401.25,470.1953 Q400.4844,470.1953 399.8438,470.5234 Q399.2188,470.8516 398.7188,471.6016 Q398.2344,472.3516 398.2344,473.3828 L398.2344,474.4766 Q398.2344,475.7109 399.125,476.5391 Q400.0156,477.3516 401.6094,477.3516 Q402.5469,477.3516 403.2031,477.1016 Q403.5938,476.9453 404.0156,476.5078 Q404.2813,476.2422 404.4219,476.1641 Q404.5781,476.0859 404.7813,476.0859 Q405.1094,476.0859 405.3594,476.3516 Q405.625,476.6016 405.625,476.9453 Q405.625,477.2891 405.2813,477.6953 Q404.7813,478.2734 403.9844,478.6016 Q402.9063,479.0547 401.6094,479.0547 Q400.0938,479.0547 398.8906,478.4297 Q397.9063,477.9297 397.2188,476.8672 Q396.5313,475.7891 396.5313,474.5078 L396.5313,473.3516 Q396.5313,472.0234 397.1406,470.8828 Q397.7656,469.7266 398.8594,469.1172 Q399.9531,468.4922 401.1875,468.4922 Q401.9219,468.4922 402.5625,468.6641 Q403.2188,468.8203 403.7656,469.1797 Z " fill="#000000"/><text fill="#000000" font-family="sans-serif" font-size="12" font-style="italic" lengthAdjust="spacing" textLength="46" x="436" y="468.9629">&#171;Value&#187;</text><text fill="#000000" font-family="sans-serif" font-size="14" lengthAdjust="spacing" textLength="88" x="415" y="487.082">JobReference</text><line style="stroke:#181818;stroke-width:0.5;" x1="387" x2="505" y1="495.5957" y2="495.5957"/><line style="stroke:#181818;stroke-width:0.5;" x1="387" x2="505" y1="503.5957" y2="503.5957"/></g><!--class NumberOfVacancies--><g id="elem_NumberOfVacancies"><rect codeLine="8" fill="#F1F1F1" height="60.582" id="NumberOfVacancies" rx="2.5" ry="2.5" style="stroke:#181818;stroke-width:0.5;" width="161" x="541.5" y="451.0137"/><ellipse cx="556.5" cy="473.3047" fill="#ADD1B2" rx="11" ry="11" style="stroke:#181818;stroke-width:1.0;"/><path d="M559.2656,469.1797 Q559.4219,468.9609 559.6094,468.8516 Q559.7969,468.7422 560.0156,468.7422 Q560.3906,468.7422 560.625,469.0078 Q560.8594,469.2578 560.8594,469.8672 L560.8594,471.3203 Q560.8594,471.9297 560.625,472.1953 Q560.3906,472.4609 560.0156,472.4609 Q559.6719,472.4609 559.4688,472.2578 Q559.2656,472.0703 559.1563,471.5547 Q559.1094,471.1953 558.9219,471.0078 Q558.5938,470.6328 557.9844,470.4141 Q557.375,470.1953 556.75,470.1953 Q555.9844,470.1953 555.3438,470.5234 Q554.7188,470.8516 554.2188,471.6016 Q553.7344,472.3516 553.7344,473.3828 L553.7344,474.4766 Q553.7344,475.7109 554.625,476.5391 Q555.5156,477.3516 557.1094,477.3516 Q558.0469,477.3516 558.7031,477.1016 Q559.0938,476.9453 559.5156,476.5078 Q559.7813,476.2422 559.9219,476.1641 Q560.0781,476.0859 560.2813,476.0859 Q560.6094,476.0859 560.8594,476.3516 Q561.125,476.6016 561.125,476.9453 Q561.125,477.2891 560.7813,477.6953 Q560.2813,478.2734 559.4844,478.6016 Q558.4063,479.0547 557.1094,479.0547 Q555.5938,479.0547 554.3906,478.4297 Q553.4063,477.9297 552.7188,476.8672 Q552.0313,475.7891 552.0313,474.5078 L552.0313,473.3516 Q552.0313,472.0234 552.6406,470.8828 Q553.2656,469.7266 554.3594,469.1172 Q555.4531,468.4922 556.6875,468.4922 Q557.4219,468.4922 558.0625,468.6641 Q558.7188,468.8203 559.2656,469.1797 Z " fill="#000000"/><text fill="#000000" font-family="sans-serif" font-size="12" font-style="italic" lengthAdjust="spacing" textLength="46" x="612" y="468.9629">&#171;Value&#187;</text><text fill="#000000" font-family="sans-serif" font-size="14" lengthAdjust="spacing" textLength="129" x="570.5" y="487.082">NumberOfVacancies</text><line style="stroke:#181818;stroke-width:0.5;" x1="542.5" x2="701.5" y1="495.5957" y2="495.5957"/><line style="stroke:#181818;stroke-width:0.5;" x1="542.5" x2="701.5" y1="503.5957" y2="503.5957"/></g><!--class ContractType--><g id="elem_ContractType"><rect codeLine="9" fill="#F1F1F1" height="60.582" id="ContractType" rx="2.5" ry="2.5" style="stroke:#181818;stroke-width:0.5;" width="118" x="738" y="451.0137"/><ellipse cx="753" cy="473.3047" fill="#ADD1B2" rx="11" ry="11" style="stroke:#181818;stroke-width:1.0;"/><path d="M755.7656,469.1797 Q755.9219,468.9609 756.1094,468.8516 Q756.2969,468.7422 756.5156,468.7422 Q756.8906,468.7422 757.125,469.0078 Q757.3594,469.2578 757.3594,469.8672 L757.3594,471.3203 Q757.3594,471.9297 757.125,472.1953 Q756.8906,472.4609 756.5156,472.4609 Q756.1719,472.4609 755.9688,472.2578 Q755.7656,472.0703 755.6563,471.5547 Q755.6094,471.1953 755.4219,471.0078 Q755.0938,470.6328 754.4844,470.4141 Q753.875,470.1953 753.25,470.1953 Q752.4844,470.1953 751.8438,470.5234 Q751.2188,470.8516 750.7188,471.6016 Q750.2344,472.3516 750.2344,473.3828 L750.2344,474.4766 Q750.2344,475.7109 751.125,476.5391 Q752.0156,477.3516 753.6094,477.3516 Q754.5469,477.3516 755.2031,477.1016 Q755.5938,476.9453 756.0156,476.5078 Q756.2813,476.2422 756.4219,476.1641 Q756.5781,476.0859 756.7813,476.0859 Q757.1094,476.0859 757.3594,476.3516 Q757.625,476.6016 757.625,476.9453 Q757.625,477.2891 757.2813,477.6953 Q756.7813,478.2734 755.9844,478.6016 Q754.9063,479.0547 753.6094,479.0547 Q752.0938,479.0547 750.8906,478.4297 Q749.9063,477.9297 749.2188,476.8672 Q748.5313,475.7891 748.5313,474.5078 L748.5313,473.3516 Q748.5313,472.0234 749.1406,470.8828 Q749.7656,469.7266 750.8594,469.1172 Q751.9531,468.4922 753.1875,468.4922 Q753.9219,468.4922 754.5625,468.6641 Q755.2188,468.8203 755.7656,469.1797 Z " fill="#000000"/><text fill="#000000" font-family="sans-serif" font-size="12" font-style="italic" lengthAdjust="spacing" textLength="46" x="787" y="468.9629">&#171;Value&#187;</text><text fill="#000000" font-family="sans-serif" font-size="14" lengthAdjust="spacing" textLength="86" x="767" y="487.082">ContractType</text><line style="stroke:#181818;stroke-width:0.5;" x1="739" x2="855" y1="495.5957" y2="495.5957"/><line style="stroke:#181818;stroke-width:0.5;" x1="739" x2="855" y1="503.5957" y2="503.5957"/></g><!--class WorkRegime--><g id="elem_WorkRegime"><rect codeLine="10" fill="#F1F1F1" height="60.582" id="WorkRegime" rx="2.5" ry="2.5" style="stroke:#181818;stroke-width:0.5;" width="113" x="891.5" y="451.0137"/><ellipse cx="906.5" cy="473.3047" fill="#ADD1B2" rx="11" ry="11" style="stroke:#181818;stroke-width:1.0;"/><path d="M909.2656,469.1797 Q909.4219,468.9609 909.6094,468.8516 Q909.7969,468.7422 910.0156,468.7422 Q910.3906,468.7422 910.625,469.0078 Q910.8594,469.2578 910.8594,469.8672 L910.8594,471.3203 Q910.8594,471.9297 910.625,472.1953 Q910.3906,472.4609 910.0156,472.4609 Q909.6719,472.4609 909.4688,472.2578 Q909.2656,472.0703 909.1563,471.5547 Q909.1094,471.1953 908.9219,471.0078 Q908.5938,470.6328 907.9844,470.4141 Q907.375,470.1953 906.75,470.1953 Q905.9844,470.1953 905.3438,470.5234 Q904.7188,470.8516 904.2188,471.6016 Q903.7344,472.3516 903.7344,473.3828 L903.7344,474.4766 Q903.7344,475.7109 904.625,476.5391 Q905.5156,477.3516 907.1094,477.3516 Q908.0469,477.3516 908.7031,477.1016 Q909.0938,476.9453 909.5156,476.5078 Q909.7813,476.2422 909.9219,476.1641 Q910.0781,476.0859 910.2813,476.0859 Q910.6094,476.0859 910.8594,476.3516 Q911.125,476.6016 911.125,476.9453 Q911.125,477.2891 910.7813,477.6953 Q910.2813,478.2734 909.4844,478.6016 Q908.4063,479.0547 907.1094,479.0547 Q905.5938,479.0547 904.3906,478.4297 Q903.4063,477.9297 902.7188,476.8672 Q902.0313,475.7891 902.0313,474.5078 L902.0313,473.3516 Q902.0313,472.0234 902.6406,470.8828 Q903.2656,469.7266 904.3594,469.1172 Q905.4531,468.4922 906.6875,468.4922 Q907.4219,468.4922 908.0625,468.6641 Q908.7188,468.8203 909.2656,469.1797 Z " fill="#000000"/><text fill="#000000" font-family="sans-serif" font-size="12" font-style="italic" lengthAdjust="spacing" textLength="46" x="938" y="468.9629">&#171;Value&#187;</text><text fill="#000000" font-family="sans-serif" font-size="14" lengthAdjust="spacing" textLength="81" x="920.5" y="487.082">WorkRegime</text><line style="stroke:#181818;stroke-width:0.5;" x1="892.5" x2="1003.5" y1="495.5957" y2="495.5957"/><line style="stroke:#181818;stroke-width:0.5;" x1="892.5" x2="1003.5" y1="503.5957" y2="503.5957"/></g><!--class JobTitle--><g id="elem_JobTitle"><rect codeLine="11" fill="#F1F1F1" height="60.582" id="JobTitle" rx="2.5" ry="2.5" style="stroke:#181818;stroke-width:0.5;" width="81" x="1039.5" y="451.0137"/><ellipse cx="1054.5" cy="473.3047" fill="#ADD1B2" rx="11" ry="11" style="stroke:#181818;stroke-width:1.0;"/><path d="M1057.2656,469.1797 Q1057.4219,468.9609 1057.6094,468.8516 Q1057.7969,468.7422 1058.0156,468.7422 Q1058.3906,468.7422 1058.625,469.0078 Q1058.8594,469.2578 1058.8594,469.8672 L1058.8594,471.3203 Q1058.8594,471.9297 1058.625,472.1953 Q1058.3906,472.4609 1058.0156,472.4609 Q1057.6719,472.4609 1057.4688,472.2578 Q1057.2656,472.0703 1057.1563,471.5547 Q1057.1094,471.1953 1056.9219,471.0078 Q1056.5938,470.6328 1055.9844,470.4141 Q1055.375,470.1953 1054.75,470.1953 Q1053.9844,470.1953 1053.3438,470.5234 Q1052.7188,470.8516 1052.2188,471.6016 Q1051.7344,472.3516 1051.7344,473.3828 L1051.7344,474.4766 Q1051.7344,475.7109 1052.625,476.5391 Q1053.5156,477.3516 1055.1094,477.3516 Q1056.0469,477.3516 1056.7031,477.1016 Q1057.0938,476.9453 1057.5156,476.5078 Q1057.7813,476.2422 1057.9219,476.1641 Q1058.0781,476.0859 1058.2813,476.0859 Q1058.6094,476.0859 1058.8594,476.3516 Q1059.125,476.6016 1059.125,476.9453 Q1059.125,477.2891 1058.7813,477.6953 Q1058.2813,478.2734 1057.4844,478.6016 Q1056.4063,479.0547 1055.1094,479.0547 Q1053.5938,479.0547 1052.3906,478.4297 Q1051.4063,477.9297 1050.7188,476.8672 Q1050.0313,475.7891 1050.0313,474.5078 L1050.0313,473.3516 Q1050.0313,472.0234 1050.6406,470.8828 Q1051.2656,469.7266 1052.3594,469.1172 Q1053.4531,468.4922 1054.6875,468.4922 Q1055.4219,468.4922 1056.0625,468.6641 Q1056.7188,468.8203 1057.2656,469.1797 Z " fill="#000000"/><text fill="#000000" font-family="sans-serif" font-size="12" font-style="italic" lengthAdjust="spacing" textLength="46" x="1070" y="468.9629">&#171;Value&#187;</text><text fill="#000000" font-family="sans-serif" font-size="14" lengthAdjust="spacing" textLength="49" x="1068.5" y="487.082">JobTitle</text><line style="stroke:#181818;stroke-width:0.5;" x1="1040.5" x2="1119.5" y1="495.5957" y2="495.5957"/><line style="stroke:#181818;stroke-width:0.5;" x1="1040.5" x2="1119.5" y1="503.5957" y2="503.5957"/></g><!--class InterviewModel--><g id="elem_InterviewModel"><rect codeLine="15" fill="#F1F1F1" height="76.543" id="InterviewModel" rx="2.5" ry="2.5" style="stroke:#181818;stroke-width:0.5;" width="125" x="1787.5" y="443.0137"/><ellipse cx="1802.5" cy="473.2852" fill="#ADD1B2" rx="11" ry="11" style="stroke:#181818;stroke-width:1.0;"/><path d="M1801.3594,474.082 L1801.3594,476.582 L1805.6875,476.582 L1805.6875,475.6602 Q1805.6875,475.0508 1805.9219,474.7852 Q1806.1719,474.5195 1806.5469,474.5195 Q1806.9219,474.5195 1807.1563,474.7852 Q1807.3906,475.0508 1807.3906,475.6602 L1807.3906,478.2852 L1799.3906,478.2852 Q1798.7656,478.2852 1798.5,478.0508 Q1798.25,477.8164 1798.25,477.4258 Q1798.25,477.0508 1798.5156,476.8164 Q1798.7813,476.582 1799.3906,476.582 L1799.6563,476.582 L1799.6563,469.9258 L1799.3906,469.9258 Q1798.7656,469.9258 1798.5,469.6914 Q1798.25,469.457 1798.25,469.0664 Q1798.25,468.6914 1798.5,468.457 Q1798.7656,468.2227 1799.3906,468.2227 L1807.0156,468.2227 L1807.0156,470.8164 Q1807.0156,471.4258 1806.7813,471.6914 Q1806.5625,471.9414 1806.1719,471.9414 Q1805.7969,471.9414 1805.5625,471.6914 Q1805.3281,471.4258 1805.3281,470.8164 L1805.3281,469.9258 L1801.3594,469.9258 L1801.3594,472.3789 L1802.8438,472.3789 Q1802.8438,471.7227 1802.9688,471.5352 Q1803.2344,471.1289 1803.7031,471.1289 Q1804.0781,471.1289 1804.3125,471.3945 Q1804.5469,471.6445 1804.5469,472.2539 L1804.5469,474.2227 Q1804.5469,474.7695 1804.4219,474.957 Q1804.1563,475.3477 1803.7031,475.3477 Q1803.2344,475.3477 1802.9688,474.9414 Q1802.8438,474.7539 1802.8438,474.082 L1801.3594,474.082 Z " fill="#000000"/><text fill="#000000" font-family="sans-serif" font-size="12" font-style="italic" lengthAdjust="spacing" textLength="35" x="1845.5" y="460.9629">&#171;root&#187;</text><text fill="#000000" font-family="sans-serif" font-size="12" font-style="italic" lengthAdjust="spacing" textLength="43" x="1841.5" y="476.9238">&#171;entity&#187;</text><text fill="#000000" font-family="sans-serif" font-size="14" lengthAdjust="spacing" textLength="93" x="1816.5" y="495.043">InterviewModel</text><line style="stroke:#181818;stroke-width:0.5;" x1="1788.5" x2="1911.5" y1="503.5566" y2="503.5566"/><line style="stroke:#181818;stroke-width:0.5;" x1="1788.5" x2="1911.5" y1="511.5566" y2="511.5566"/></g><!--class InterviewModelPlugin--><g id="elem_InterviewModelPlugin"><rect codeLine="16" fill="#F1F1F1" height="60.582" id="InterviewModelPlugin" rx="2.5" ry="2.5" style="stroke:#181818;stroke-width:0.5;" width="164" x="1778" y="599.0137"/><ellipse cx="1793" cy="621.3047" fill="#ADD1B2" rx="11" ry="11" style="stroke:#181818;stroke-width:1.0;"/><path d="M1795.7656,617.1797 Q1795.9219,616.9609 1796.1094,616.8516 Q1796.2969,616.7422 1796.5156,616.7422 Q1796.8906,616.7422 1797.125,617.0078 Q1797.3594,617.2578 1797.3594,617.8672 L1797.3594,619.3203 Q1797.3594,619.9297 1797.125,620.1953 Q1796.8906,620.4609 1796.5156,620.4609 Q1796.1719,620.4609 1795.9688,620.2578 Q1795.7656,620.0703 1795.6563,619.5547 Q1795.6094,619.1953 1795.4219,619.0078 Q1795.0938,618.6328 1794.4844,618.4141 Q1793.875,618.1953 1793.25,618.1953 Q1792.4844,618.1953 1791.8438,618.5234 Q1791.2188,618.8516 1790.7188,619.6016 Q1790.2344,620.3516 1790.2344,621.3828 L1790.2344,622.4766 Q1790.2344,623.7109 1791.125,624.5391 Q1792.0156,625.3516 1793.6094,625.3516 Q1794.5469,625.3516 1795.2031,625.1016 Q1795.5938,624.9453 1796.0156,624.5078 Q1796.2813,624.2422 1796.4219,624.1641 Q1796.5781,624.0859 1796.7813,624.0859 Q1797.1094,624.0859 1797.3594,624.3516 Q1797.625,624.6016 1797.625,624.9453 Q1797.625,625.2891 1797.2813,625.6953 Q1796.7813,626.2734 1795.9844,626.6016 Q1794.9063,627.0547 1793.6094,627.0547 Q1792.0938,627.0547 1790.8906,626.4297 Q1789.9063,625.9297 1789.2188,624.8672 Q1788.5313,623.7891 1788.5313,622.5078 L1788.5313,621.3516 Q1788.5313,620.0234 1789.1406,618.8828 Q1789.7656,617.7266 1790.8594,617.1172 Q1791.9531,616.4922 1793.1875,616.4922 Q1793.9219,616.4922 1794.5625,616.6641 Q1795.2188,616.8203 1795.7656,617.1797 Z " fill="#000000"/><text fill="#000000" font-family="sans-serif" font-size="12" font-style="italic" lengthAdjust="spacing" textLength="46" x="1850" y="616.9629">&#171;Value&#187;</text><text fill="#000000" font-family="sans-serif" font-size="14" lengthAdjust="spacing" textLength="132" x="1807" y="635.082">InterviewModelPlugin</text><line style="stroke:#181818;stroke-width:0.5;" x1="1779" x2="1941" y1="643.5957" y2="643.5957"/><line style="stroke:#181818;stroke-width:0.5;" x1="1779" x2="1941" y1="651.5957" y2="651.5957"/></g><!--class Application--><g id="elem_Application"><rect codeLine="20" fill="#F1F1F1" height="76.543" id="Application" rx="2.5" ry="2.5" style="stroke:#181818;stroke-width:0.5;" width="101" x="218.5" y="43.0137"/><ellipse cx="233.5" cy="73.2852" fill="#ADD1B2" rx="11" ry="11" style="stroke:#181818;stroke-width:1.0;"/><path d="M232.3594,74.082 L232.3594,76.582 L236.6875,76.582 L236.6875,75.6602 Q236.6875,75.0508 236.9219,74.7852 Q237.1719,74.5195 237.5469,74.5195 Q237.9219,74.5195 238.1563,74.7852 Q238.3906,75.0508 238.3906,75.6602 L238.3906,78.2852 L230.3906,78.2852 Q229.7656,78.2852 229.5,78.0508 Q229.25,77.8164 229.25,77.4258 Q229.25,77.0508 229.5156,76.8164 Q229.7813,76.582 230.3906,76.582 L230.6563,76.582 L230.6563,69.9258 L230.3906,69.9258 Q229.7656,69.9258 229.5,69.6914 Q229.25,69.457 229.25,69.0664 Q229.25,68.6914 229.5,68.457 Q229.7656,68.2227 230.3906,68.2227 L238.0156,68.2227 L238.0156,70.8164 Q238.0156,71.4258 237.7813,71.6914 Q237.5625,71.9414 237.1719,71.9414 Q236.7969,71.9414 236.5625,71.6914 Q236.3281,71.4258 236.3281,70.8164 L236.3281,69.9258 L232.3594,69.9258 L232.3594,72.3789 L233.8438,72.3789 Q233.8438,71.7227 233.9688,71.5352 Q234.2344,71.1289 234.7031,71.1289 Q235.0781,71.1289 235.3125,71.3945 Q235.5469,71.6445 235.5469,72.2539 L235.5469,74.2227 Q235.5469,74.7695 235.4219,74.957 Q235.1563,75.3477 234.7031,75.3477 Q234.2344,75.3477 233.9688,74.9414 Q233.8438,74.7539 233.8438,74.082 L232.3594,74.082 Z " fill="#000000"/><text fill="#000000" font-family="sans-serif" font-size="12" font-style="italic" lengthAdjust="spacing" textLength="43" x="260.5" y="60.9629">&#171;entity&#187;</text><text fill="#000000" font-family="sans-serif" font-size="12" font-style="italic" lengthAdjust="spacing" textLength="35" x="264.5" y="76.9238">&#171;root&#187;</text><text fill="#000000" font-family="sans-serif" font-size="14" lengthAdjust="spacing" textLength="69" x="247.5" y="95.043">Application</text><line style="stroke:#181818;stroke-width:0.5;" x1="219.5" x2="318.5" y1="103.5566" y2="103.5566"/><line style="stroke:#181818;stroke-width:0.5;" x1="219.5" x2="318.5" y1="111.5566" y2="111.5566"/></g><!--class ApplicationDate--><g id="elem_ApplicationDate"><rect codeLine="21" fill="#F1F1F1" height="60.582" id="ApplicationDate" rx="2.5" ry="2.5" style="stroke:#181818;stroke-width:0.5;" width="131" x="22.5" y="241.0137"/><ellipse cx="37.5" cy="263.3047" fill="#ADD1B2" rx="11" ry="11" style="stroke:#181818;stroke-width:1.0;"/><path d="M40.2656,259.1797 Q40.4219,258.9609 40.6094,258.8516 Q40.7969,258.7422 41.0156,258.7422 Q41.3906,258.7422 41.625,259.0078 Q41.8594,259.2578 41.8594,259.8672 L41.8594,261.3203 Q41.8594,261.9297 41.625,262.1953 Q41.3906,262.4609 41.0156,262.4609 Q40.6719,262.4609 40.4688,262.2578 Q40.2656,262.0703 40.1563,261.5547 Q40.1094,261.1953 39.9219,261.0078 Q39.5938,260.6328 38.9844,260.4141 Q38.375,260.1953 37.75,260.1953 Q36.9844,260.1953 36.3438,260.5234 Q35.7188,260.8516 35.2188,261.6016 Q34.7344,262.3516 34.7344,263.3828 L34.7344,264.4766 Q34.7344,265.7109 35.625,266.5391 Q36.5156,267.3516 38.1094,267.3516 Q39.0469,267.3516 39.7031,267.1016 Q40.0938,266.9453 40.5156,266.5078 Q40.7813,266.2422 40.9219,266.1641 Q41.0781,266.0859 41.2813,266.0859 Q41.6094,266.0859 41.8594,266.3516 Q42.125,266.6016 42.125,266.9453 Q42.125,267.2891 41.7813,267.6953 Q41.2813,268.2734 40.4844,268.6016 Q39.4063,269.0547 38.1094,269.0547 Q36.5938,269.0547 35.3906,268.4297 Q34.4063,267.9297 33.7188,266.8672 Q33.0313,265.7891 33.0313,264.5078 L33.0313,263.3516 Q33.0313,262.0234 33.6406,260.8828 Q34.2656,259.7266 35.3594,259.1172 Q36.4531,258.4922 37.6875,258.4922 Q38.4219,258.4922 39.0625,258.6641 Q39.7188,258.8203 40.2656,259.1797 Z " fill="#000000"/><text fill="#000000" font-family="sans-serif" font-size="12" font-style="italic" lengthAdjust="spacing" textLength="46" x="78" y="258.9629">&#171;Value&#187;</text><text fill="#000000" font-family="sans-serif" font-size="14" lengthAdjust="spacing" textLength="99" x="51.5" y="277.082">ApplicationDate</text><line style="stroke:#181818;stroke-width:0.5;" x1="23.5" x2="152.5" y1="285.5957" y2="285.5957"/><line style="stroke:#181818;stroke-width:0.5;" x1="23.5" x2="152.5" y1="293.5957" y2="293.5957"/></g><!--class ApplicationStatus--><g id="elem_ApplicationStatus"><rect codeLine="22" fill="#F1F1F1" height="135.0664" id="ApplicationStatus" rx="2.5" ry="2.5" style="stroke:#181818;stroke-width:0.5;" width="141" x="188.5" y="204.0137"/><ellipse cx="203.5" cy="226.3047" fill="#EB937F" rx="11" ry="11" style="stroke:#181818;stroke-width:1.0;"/><path d="M202.3594,227.1016 L202.3594,229.6016 L206.6875,229.6016 L206.6875,228.6797 Q206.6875,228.0703 206.9219,227.8047 Q207.1719,227.5391 207.5469,227.5391 Q207.9219,227.5391 208.1563,227.8047 Q208.3906,228.0703 208.3906,228.6797 L208.3906,231.3047 L200.3906,231.3047 Q199.7656,231.3047 199.5,231.0703 Q199.25,230.8359 199.25,230.4453 Q199.25,230.0703 199.5156,229.8359 Q199.7813,229.6016 200.3906,229.6016 L200.6563,229.6016 L200.6563,222.9453 L200.3906,222.9453 Q199.7656,222.9453 199.5,222.7109 Q199.25,222.4766 199.25,222.0859 Q199.25,221.7109 199.5,221.4766 Q199.7656,221.2422 200.3906,221.2422 L208.0156,221.2422 L208.0156,223.8359 Q208.0156,224.4453 207.7813,224.7109 Q207.5625,224.9609 207.1719,224.9609 Q206.7969,224.9609 206.5625,224.7109 Q206.3281,224.4453 206.3281,223.8359 L206.3281,222.9453 L202.3594,222.9453 L202.3594,225.3984 L203.8438,225.3984 Q203.8438,224.7422 203.9688,224.5547 Q204.2344,224.1484 204.7031,224.1484 Q205.0781,224.1484 205.3125,224.4141 Q205.5469,224.6641 205.5469,225.2734 L205.5469,227.2422 Q205.5469,227.7891 205.4219,227.9766 Q205.1563,228.3672 204.7031,228.3672 Q204.2344,228.3672 203.9688,227.9609 Q203.8438,227.7734 203.8438,227.1016 L202.3594,227.1016 Z " fill="#000000"/><text fill="#000000" font-family="sans-serif" font-size="12" font-style="italic" lengthAdjust="spacing" textLength="46" x="249" y="221.9629">&#171;Value&#187;</text><text fill="#000000" font-family="sans-serif" font-size="14" lengthAdjust="spacing" textLength="109" x="217.5" y="240.082">ApplicationStatus</text><line style="stroke:#181818;stroke-width:0.5;" x1="189.5" x2="328.5" y1="248.5957" y2="248.5957"/><text fill="#000000" font-family="sans-serif" font-size="14" lengthAdjust="spacing" textLength="61" x="194.5" y="267.7031">Approved</text><text fill="#000000" font-family="sans-serif" font-size="14" lengthAdjust="spacing" textLength="45" x="194.5" y="286.3242">Denied</text><text fill="#000000" font-family="sans-serif" font-size="14" lengthAdjust="spacing" textLength="102" x="194.5" y="304.9453">WaitingInterview</text><text fill="#000000" font-family="sans-serif" font-size="14" lengthAdjust="spacing" textLength="68" x="194.5" y="323.5664">InProgress</text><line style="stroke:#181818;stroke-width:0.5;" x1="189.5" x2="328.5" y1="331.0801" y2="331.0801"/></g><!--class CustomerManager--><g id="elem_CustomerManager"><rect codeLine="31" fill="#F1F1F1" height="76.543" id="CustomerManager" rx="2.5" ry="2.5" style="stroke:#181818;stroke-width:0.5;" width="149" x="1268.5" y="43.0137"/><ellipse cx="1283.5" cy="73.2852" fill="#ADD1B2" rx="11" ry="11" style="stroke:#181818;stroke-width:1.0;"/><path d="M1282.3594,74.082 L1282.3594,76.582 L1286.6875,76.582 L1286.6875,75.6602 Q1286.6875,75.0508 1286.9219,74.7852 Q1287.1719,74.5195 1287.5469,74.5195 Q1287.9219,74.5195 1288.1563,74.7852 Q1288.3906,75.0508 1288.3906,75.6602 L1288.3906,78.2852 L1280.3906,78.2852 Q1279.7656,78.2852 1279.5,78.0508 Q1279.25,77.8164 1279.25,77.4258 Q1279.25,77.0508 1279.5156,76.8164 Q1279.7813,76.582 1280.3906,76.582 L1280.6563,76.582 L1280.6563,69.9258 L1280.3906,69.9258 Q1279.7656,69.9258 1279.5,69.6914 Q1279.25,69.457 1279.25,69.0664 Q1279.25,68.6914 1279.5,68.457 Q1279.7656,68.2227 1280.3906,68.2227 L1288.0156,68.2227 L1288.0156,70.8164 Q1288.0156,71.4258 1287.7813,71.6914 Q1287.5625,71.9414 1287.1719,71.9414 Q1286.7969,71.9414 1286.5625,71.6914 Q1286.3281,71.4258 1286.3281,70.8164 L1286.3281,69.9258 L1282.3594,69.9258 L1282.3594,72.3789 L1283.8438,72.3789 Q1283.8438,71.7227 1283.9688,71.5352 Q1284.2344,71.1289 1284.7031,71.1289 Q1285.0781,71.1289 1285.3125,71.3945 Q1285.5469,71.6445 1285.5469,72.2539 L1285.5469,74.2227 Q1285.5469,74.7695 1285.4219,74.957 Q1285.1563,75.3477 1284.7031,75.3477 Q1284.2344,75.3477 1283.9688,74.9414 Q1283.8438,74.7539 1283.8438,74.082 L1282.3594,74.082 Z " fill="#000000"/><text fill="#000000" font-family="sans-serif" font-size="12" font-style="italic" lengthAdjust="spacing" textLength="43" x="1334.5" y="60.9629">&#171;entity&#187;</text><text fill="#000000" font-family="sans-serif" font-size="12" font-style="italic" lengthAdjust="spacing" textLength="35" x="1338.5" y="76.9238">&#171;root&#187;</text><text fill="#000000" font-family="sans-serif" font-size="14" lengthAdjust="spacing" textLength="117" x="1297.5" y="95.043">CustomerManager</text><line style="stroke:#181818;stroke-width:0.5;" x1="1269.5" x2="1416.5" y1="103.5566" y2="103.5566"/><line style="stroke:#181818;stroke-width:0.5;" x1="1269.5" x2="1416.5" y1="111.5566" y2="111.5566"/></g><!--class Interview--><g id="elem_Interview"><rect codeLine="35" fill="#F1F1F1" height="76.543" id="Interview" rx="2.5" ry="2.5" style="stroke:#181818;stroke-width:0.5;" width="87" x="1385.5" y="233.0137"/><ellipse cx="1400.5" cy="263.2852" fill="#ADD1B2" rx="11" ry="11" style="stroke:#181818;stroke-width:1.0;"/><path d="M1403.2656,259.1602 Q1403.4219,258.9414 1403.6094,258.832 Q1403.7969,258.7227 1404.0156,258.7227 Q1404.3906,258.7227 1404.625,258.9883 Q1404.8594,259.2383 1404.8594,259.8477 L1404.8594,261.3008 Q1404.8594,261.9102 1404.625,262.1758 Q1404.3906,262.4414 1404.0156,262.4414 Q1403.6719,262.4414 1403.4688,262.2383 Q1403.2656,262.0508 1403.1563,261.5352 Q1403.1094,261.1758 1402.9219,260.9883 Q1402.5938,260.6133 1401.9844,260.3945 Q1401.375,260.1758 1400.75,260.1758 Q1399.9844,260.1758 1399.3438,260.5039 Q1398.7188,260.832 1398.2188,261.582 Q1397.7344,262.332 1397.7344,263.3633 L1397.7344,264.457 Q1397.7344,265.6914 1398.625,266.5195 Q1399.5156,267.332 1401.1094,267.332 Q1402.0469,267.332 1402.7031,267.082 Q1403.0938,266.9258 1403.5156,266.4883 Q1403.7813,266.2227 1403.9219,266.1445 Q1404.0781,266.0664 1404.2813,266.0664 Q1404.6094,266.0664 1404.8594,266.332 Q1405.125,266.582 1405.125,266.9258 Q1405.125,267.2695 1404.7813,267.6758 Q1404.2813,268.2539 1403.4844,268.582 Q1402.4063,269.0352 1401.1094,269.0352 Q1399.5938,269.0352 1398.3906,268.4102 Q1397.4063,267.9102 1396.7188,266.8477 Q1396.0313,265.7695 1396.0313,264.4883 L1396.0313,263.332 Q1396.0313,262.0039 1396.6406,260.8633 Q1397.2656,259.707 1398.3594,259.0977 Q1399.4531,258.4727 1400.6875,258.4727 Q1401.4219,258.4727 1402.0625,258.6445 Q1402.7188,258.8008 1403.2656,259.1602 Z " fill="#000000"/><text fill="#000000" font-family="sans-serif" font-size="12" font-style="italic" lengthAdjust="spacing" textLength="43" x="1420.5" y="250.9629">&#171;entity&#187;</text><text fill="#000000" font-family="sans-serif" font-size="12" font-style="italic" lengthAdjust="spacing" textLength="35" x="1424.5" y="266.9238">&#171;root&#187;</text><text fill="#000000" font-family="sans-serif" font-size="14" lengthAdjust="spacing" textLength="55" x="1414.5" y="285.043">Interview</text><line style="stroke:#181818;stroke-width:0.5;" x1="1386.5" x2="1471.5" y1="293.5566" y2="293.5566"/><line style="stroke:#181818;stroke-width:0.5;" x1="1386.5" x2="1471.5" y1="301.5566" y2="301.5566"/></g><!--class Score--><g id="elem_Score"><rect codeLine="36" fill="#F1F1F1" height="60.582" id="Score" rx="2.5" ry="2.5" style="stroke:#181818;stroke-width:0.5;" width="72" x="1177" y="451.0137"/><ellipse cx="1192" cy="473.3047" fill="#ADD1B2" rx="11" ry="11" style="stroke:#181818;stroke-width:1.0;"/><path d="M1194.7656,469.1797 Q1194.9219,468.9609 1195.1094,468.8516 Q1195.2969,468.7422 1195.5156,468.7422 Q1195.8906,468.7422 1196.125,469.0078 Q1196.3594,469.2578 1196.3594,469.8672 L1196.3594,471.3203 Q1196.3594,471.9297 1196.125,472.1953 Q1195.8906,472.4609 1195.5156,472.4609 Q1195.1719,472.4609 1194.9688,472.2578 Q1194.7656,472.0703 1194.6563,471.5547 Q1194.6094,471.1953 1194.4219,471.0078 Q1194.0938,470.6328 1193.4844,470.4141 Q1192.875,470.1953 1192.25,470.1953 Q1191.4844,470.1953 1190.8438,470.5234 Q1190.2188,470.8516 1189.7188,471.6016 Q1189.2344,472.3516 1189.2344,473.3828 L1189.2344,474.4766 Q1189.2344,475.7109 1190.125,476.5391 Q1191.0156,477.3516 1192.6094,477.3516 Q1193.5469,477.3516 1194.2031,477.1016 Q1194.5938,476.9453 1195.0156,476.5078 Q1195.2813,476.2422 1195.4219,476.1641 Q1195.5781,476.0859 1195.7813,476.0859 Q1196.1094,476.0859 1196.3594,476.3516 Q1196.625,476.6016 1196.625,476.9453 Q1196.625,477.2891 1196.2813,477.6953 Q1195.7813,478.2734 1194.9844,478.6016 Q1193.9063,479.0547 1192.6094,479.0547 Q1191.0938,479.0547 1189.8906,478.4297 Q1188.9063,477.9297 1188.2188,476.8672 Q1187.5313,475.7891 1187.5313,474.5078 L1187.5313,473.3516 Q1187.5313,472.0234 1188.1406,470.8828 Q1188.7656,469.7266 1189.8594,469.1172 Q1190.9531,468.4922 1192.1875,468.4922 Q1192.9219,468.4922 1193.5625,468.6641 Q1194.2188,468.8203 1194.7656,469.1797 Z " fill="#000000"/><text fill="#000000" font-family="sans-serif" font-size="12" font-style="italic" lengthAdjust="spacing" textLength="44" x="1204" y="468.9629">&#171;value&#187;</text><text fill="#000000" font-family="sans-serif" font-size="14" lengthAdjust="spacing" textLength="37" x="1207.5" y="487.082">Score</text><line style="stroke:#181818;stroke-width:0.5;" x1="1178" x2="1248" y1="495.5957" y2="495.5957"/><line style="stroke:#181818;stroke-width:0.5;" x1="1178" x2="1248" y1="503.5957" y2="503.5957"/></g><!--class JustificationText--><g id="elem_JustificationText"><rect codeLine="37" fill="#F1F1F1" height="60.582" id="JustificationText" rx="2.5" ry="2.5" style="stroke:#181818;stroke-width:0.5;" width="132" x="1284" y="451.0137"/><ellipse cx="1299" cy="473.3047" fill="#ADD1B2" rx="11" ry="11" style="stroke:#181818;stroke-width:1.0;"/><path d="M1301.7656,469.1797 Q1301.9219,468.9609 1302.1094,468.8516 Q1302.2969,468.7422 1302.5156,468.7422 Q1302.8906,468.7422 1303.125,469.0078 Q1303.3594,469.2578 1303.3594,469.8672 L1303.3594,471.3203 Q1303.3594,471.9297 1303.125,472.1953 Q1302.8906,472.4609 1302.5156,472.4609 Q1302.1719,472.4609 1301.9688,472.2578 Q1301.7656,472.0703 1301.6563,471.5547 Q1301.6094,471.1953 1301.4219,471.0078 Q1301.0938,470.6328 1300.4844,470.4141 Q1299.875,470.1953 1299.25,470.1953 Q1298.4844,470.1953 1297.8438,470.5234 Q1297.2188,470.8516 1296.7188,471.6016 Q1296.2344,472.3516 1296.2344,473.3828 L1296.2344,474.4766 Q1296.2344,475.7109 1297.125,476.5391 Q1298.0156,477.3516 1299.6094,477.3516 Q1300.5469,477.3516 1301.2031,477.1016 Q1301.5938,476.9453 1302.0156,476.5078 Q1302.2813,476.2422 1302.4219,476.1641 Q1302.5781,476.0859 1302.7813,476.0859 Q1303.1094,476.0859 1303.3594,476.3516 Q1303.625,476.6016 1303.625,476.9453 Q1303.625,477.2891 1303.2813,477.6953 Q1302.7813,478.2734 1301.9844,478.6016 Q1300.9063,479.0547 1299.6094,479.0547 Q1298.0938,479.0547 1296.8906,478.4297 Q1295.9063,477.9297 1295.2188,476.8672 Q1294.5313,475.7891 1294.5313,474.5078 L1294.5313,473.3516 Q1294.5313,472.0234 1295.1406,470.8828 Q1295.7656,469.7266 1296.8594,469.1172 Q1297.9531,468.4922 1299.1875,468.4922 Q1299.9219,468.4922 1300.5625,468.6641 Q1301.2188,468.8203 1301.7656,469.1797 Z " fill="#000000"/><text fill="#000000" font-family="sans-serif" font-size="12" font-style="italic" lengthAdjust="spacing" textLength="44" x="1341" y="468.9629">&#171;value&#187;</text><text fill="#000000" font-family="sans-serif" font-size="14" lengthAdjust="spacing" textLength="100" x="1313" y="487.082">JustificationText</text><line style="stroke:#181818;stroke-width:0.5;" x1="1285" x2="1415" y1="495.5957" y2="495.5957"/><line style="stroke:#181818;stroke-width:0.5;" x1="1285" x2="1415" y1="503.5957" y2="503.5957"/></g><!--class InterviewDate--><g id="elem_InterviewDate"><rect codeLine="38" fill="#F1F1F1" height="60.582" id="InterviewDate" rx="2.5" ry="2.5" style="stroke:#181818;stroke-width:0.5;" width="117" x="1451.5" y="451.0137"/><ellipse cx="1466.5" cy="473.3047" fill="#ADD1B2" rx="11" ry="11" style="stroke:#181818;stroke-width:1.0;"/><path d="M1469.2656,469.1797 Q1469.4219,468.9609 1469.6094,468.8516 Q1469.7969,468.7422 1470.0156,468.7422 Q1470.3906,468.7422 1470.625,469.0078 Q1470.8594,469.2578 1470.8594,469.8672 L1470.8594,471.3203 Q1470.8594,471.9297 1470.625,472.1953 Q1470.3906,472.4609 1470.0156,472.4609 Q1469.6719,472.4609 1469.4688,472.2578 Q1469.2656,472.0703 1469.1563,471.5547 Q1469.1094,471.1953 1468.9219,471.0078 Q1468.5938,470.6328 1467.9844,470.4141 Q1467.375,470.1953 1466.75,470.1953 Q1465.9844,470.1953 1465.3438,470.5234 Q1464.7188,470.8516 1464.2188,471.6016 Q1463.7344,472.3516 1463.7344,473.3828 L1463.7344,474.4766 Q1463.7344,475.7109 1464.625,476.5391 Q1465.5156,477.3516 1467.1094,477.3516 Q1468.0469,477.3516 1468.7031,477.1016 Q1469.0938,476.9453 1469.5156,476.5078 Q1469.7813,476.2422 1469.9219,476.1641 Q1470.0781,476.0859 1470.2813,476.0859 Q1470.6094,476.0859 1470.8594,476.3516 Q1471.125,476.6016 1471.125,476.9453 Q1471.125,477.2891 1470.7813,477.6953 Q1470.2813,478.2734 1469.4844,478.6016 Q1468.4063,479.0547 1467.1094,479.0547 Q1465.5938,479.0547 1464.3906,478.4297 Q1463.4063,477.9297 1462.7188,476.8672 Q1462.0313,475.7891 1462.0313,474.5078 L1462.0313,473.3516 Q1462.0313,472.0234 1462.6406,470.8828 Q1463.2656,469.7266 1464.3594,469.1172 Q1465.4531,468.4922 1466.6875,468.4922 Q1467.4219,468.4922 1468.0625,468.6641 Q1468.7188,468.8203 1469.2656,469.1797 Z " fill="#000000"/><text fill="#000000" font-family="sans-serif" font-size="12" font-style="italic" lengthAdjust="spacing" textLength="44" x="1501" y="468.9629">&#171;value&#187;</text><text fill="#000000" font-family="sans-serif" font-size="14" lengthAdjust="spacing" textLength="85" x="1480.5" y="487.082">InterviewDate</text><line style="stroke:#181818;stroke-width:0.5;" x1="1452.5" x2="1567.5" y1="495.5957" y2="495.5957"/><line style="stroke:#181818;stroke-width:0.5;" x1="1452.5" x2="1567.5" y1="503.5957" y2="503.5957"/></g><!--class InterviewTime--><g id="elem_InterviewTime"><rect codeLine="39" fill="#F1F1F1" height="60.582" id="InterviewTime" rx="2.5" ry="2.5" style="stroke:#181818;stroke-width:0.5;" width="118" x="1604" y="451.0137"/><ellipse cx="1619" cy="473.3047" fill="#ADD1B2" rx="11" ry="11" style="stroke:#181818;stroke-width:1.0;"/><path d="M1621.7656,469.1797 Q1621.9219,468.9609 1622.1094,468.8516 Q1622.2969,468.7422 1622.5156,468.7422 Q1622.8906,468.7422 1623.125,469.0078 Q1623.3594,469.2578 1623.3594,469.8672 L1623.3594,471.3203 Q1623.3594,471.9297 1623.125,472.1953 Q1622.8906,472.4609 1622.5156,472.4609 Q1622.1719,472.4609 1621.9688,472.2578 Q1621.7656,472.0703 1621.6563,471.5547 Q1621.6094,471.1953 1621.4219,471.0078 Q1621.0938,470.6328 1620.4844,470.4141 Q1619.875,470.1953 1619.25,470.1953 Q1618.4844,470.1953 1617.8438,470.5234 Q1617.2188,470.8516 1616.7188,471.6016 Q1616.2344,472.3516 1616.2344,473.3828 L1616.2344,474.4766 Q1616.2344,475.7109 1617.125,476.5391 Q1618.0156,477.3516 1619.6094,477.3516 Q1620.5469,477.3516 1621.2031,477.1016 Q1621.5938,476.9453 1622.0156,476.5078 Q1622.2813,476.2422 1622.4219,476.1641 Q1622.5781,476.0859 1622.7813,476.0859 Q1623.1094,476.0859 1623.3594,476.3516 Q1623.625,476.6016 1623.625,476.9453 Q1623.625,477.2891 1623.2813,477.6953 Q1622.7813,478.2734 1621.9844,478.6016 Q1620.9063,479.0547 1619.6094,479.0547 Q1618.0938,479.0547 1616.8906,478.4297 Q1615.9063,477.9297 1615.2188,476.8672 Q1614.5313,475.7891 1614.5313,474.5078 L1614.5313,473.3516 Q1614.5313,472.0234 1615.1406,470.8828 Q1615.7656,469.7266 1616.8594,469.1172 Q1617.9531,468.4922 1619.1875,468.4922 Q1619.9219,468.4922 1620.5625,468.6641 Q1621.2188,468.8203 1621.7656,469.1797 Z " fill="#000000"/><text fill="#000000" font-family="sans-serif" font-size="12" font-style="italic" lengthAdjust="spacing" textLength="44" x="1654" y="468.9629">&#171;value&#187;</text><text fill="#000000" font-family="sans-serif" font-size="14" lengthAdjust="spacing" textLength="86" x="1633" y="487.082">InterviewTime</text><line style="stroke:#181818;stroke-width:0.5;" x1="1605" x2="1721" y1="495.5957" y2="495.5957"/><line style="stroke:#181818;stroke-width:0.5;" x1="1605" x2="1721" y1="503.5957" y2="503.5957"/></g><!--class ANTLRValidator--><g id="elem_ANTLRValidator"><rect codeLine="43" fill="#F1F1F1" height="60.582" id="ANTLRValidator" rx="2.5" ry="2.5" style="stroke:#181818;stroke-width:0.5;" width="133" x="1474.5" y="51.0137"/><ellipse cx="1489.5" cy="73.3047" fill="#ADD1B2" rx="11" ry="11" style="stroke:#181818;stroke-width:1.0;"/><path d="M1488.3594,74.1016 L1488.3594,76.6016 L1492.6875,76.6016 L1492.6875,75.6797 Q1492.6875,75.0703 1492.9219,74.8047 Q1493.1719,74.5391 1493.5469,74.5391 Q1493.9219,74.5391 1494.1563,74.8047 Q1494.3906,75.0703 1494.3906,75.6797 L1494.3906,78.3047 L1486.3906,78.3047 Q1485.7656,78.3047 1485.5,78.0703 Q1485.25,77.8359 1485.25,77.4453 Q1485.25,77.0703 1485.5156,76.8359 Q1485.7813,76.6016 1486.3906,76.6016 L1486.6563,76.6016 L1486.6563,69.9453 L1486.3906,69.9453 Q1485.7656,69.9453 1485.5,69.7109 Q1485.25,69.4766 1485.25,69.0859 Q1485.25,68.7109 1485.5,68.4766 Q1485.7656,68.2422 1486.3906,68.2422 L1494.0156,68.2422 L1494.0156,70.8359 Q1494.0156,71.4453 1493.7813,71.7109 Q1493.5625,71.9609 1493.1719,71.9609 Q1492.7969,71.9609 1492.5625,71.7109 Q1492.3281,71.4453 1492.3281,70.8359 L1492.3281,69.9453 L1488.3594,69.9453 L1488.3594,72.3984 L1489.8438,72.3984 Q1489.8438,71.7422 1489.9688,71.5547 Q1490.2344,71.1484 1490.7031,71.1484 Q1491.0781,71.1484 1491.3125,71.4141 Q1491.5469,71.6641 1491.5469,72.2734 L1491.5469,74.2422 Q1491.5469,74.7891 1491.4219,74.9766 Q1491.1563,75.3672 1490.7031,75.3672 Q1490.2344,75.3672 1489.9688,74.9609 Q1489.8438,74.7734 1489.8438,74.1016 L1488.3594,74.1016 Z " fill="#000000"/><text fill="#000000" font-family="sans-serif" font-size="12" font-style="italic" lengthAdjust="spacing" textLength="53" x="1527.5" y="68.9629">&#171;service&#187;</text><text fill="#000000" font-family="sans-serif" font-size="14" lengthAdjust="spacing" textLength="101" x="1503.5" y="87.082">ANTLRValidator</text><line style="stroke:#181818;stroke-width:0.5;" x1="1475.5" x2="1606.5" y1="95.5957" y2="95.5957"/><line style="stroke:#181818;stroke-width:0.5;" x1="1475.5" x2="1606.5" y1="103.5957" y2="103.5957"/></g><!--link Interview to Score--><g id="link_Interview_Score"><path codeLine="47" d="M1385.2,300.4937 C1350.63,323.9137 1302.48,359.5937 1267,398.0137 C1253.52,412.6137 1241.16,430.9337 1231.68,446.6037 " fill="none" id="Interview-to-Score" style="stroke:#181818;stroke-width:1.0;"/><polygon fill="#181818" points="1229.08,450.9437,1237.1321,445.2724,1231.6462,446.6524,1230.2661,441.1665,1229.08,450.9437" style="stroke:#181818;stroke-width:1.0;"/><text fill="#000000" font-family="sans-serif" font-size="13" lengthAdjust="spacing" textLength="57" x="1291" y="386.042">generates</text><text fill="#000000" font-family="sans-serif" font-size="13" lengthAdjust="spacing" textLength="7" x="1370.3659" y="300.9759">1</text><text fill="#000000" font-family="sans-serif" font-size="13" lengthAdjust="spacing" textLength="7" x="1224.6746" y="439.9869">1</text></g><!--link Interview to JustificationText--><g id="link_Interview_JustificationText"><path codeLine="48" d="M1414.69,310.1837 C1400.01,348.8337 1377.36,408.4737 1363.13,445.9537 " fill="none" id="Interview-to-JustificationText" style="stroke:#181818;stroke-width:1.0;"/><polygon fill="#181818" points="1361.26,450.8637,1368.2099,443.8852,1363.0453,446.1933,1360.7373,441.0287,1361.26,450.8637" style="stroke:#181818;stroke-width:1.0;"/><text fill="#000000" font-family="sans-serif" font-size="13" lengthAdjust="spacing" textLength="7" x="1404.9628" y="331.4922">1</text><text fill="#000000" font-family="sans-serif" font-size="13" lengthAdjust="spacing" textLength="7" x="1355.8605" y="439.8904">1</text></g><!--link Interview to InterviewDate--><g id="link_Interview_InterviewDate"><path codeLine="49" d="M1443.67,310.1837 C1458.72,348.8337 1481.94,408.4737 1496.54,445.9537 " fill="none" id="Interview-to-InterviewDate" style="stroke:#181818;stroke-width:1.0;"/><polygon fill="#181818" points="1498.45,450.8637,1498.9102,441.0256,1496.635,446.2047,1491.4559,443.9296,1498.45,450.8637" style="stroke:#181818;stroke-width:1.0;"/><text fill="#000000" font-family="sans-serif" font-size="13" lengthAdjust="spacing" textLength="7" x="1438.3804" y="331.4922">1</text><text fill="#000000" font-family="sans-serif" font-size="13" lengthAdjust="spacing" textLength="7" x="1488.3459" y="439.8904">1</text></g><!--link Interview to InterviewTime--><g id="link_Interview_InterviewTime"><path codeLine="50" d="M1472.71,304.7237 C1505.01,329.1637 1549.52,364.2237 1586,398.0137 C1602.56,413.3537 1619.82,431.6037 1633.78,447.0337 " fill="none" id="Interview-to-InterviewTime" style="stroke:#181818;stroke-width:1.0;"/><polygon fill="#181818" points="1637.26,450.8837,1634.2125,441.5182,1633.9152,447.1672,1628.2661,446.8699,1637.26,450.8837" style="stroke:#181818;stroke-width:1.0;"/><text fill="#000000" font-family="sans-serif" font-size="13" lengthAdjust="spacing" textLength="7" x="1480.5292" y="305.9065">1</text><text fill="#000000" font-family="sans-serif" font-size="13" lengthAdjust="spacing" textLength="7" x="1624.2293" y="439.9145">1</text></g><!--link InterviewModel to InterviewModelPlugin--><g id="link_InterviewModel_InterviewModelPlugin"><path codeLine="52" d="M1852.58,520.1137 C1854.13,542.7937 1856.09,571.4937 1857.61,593.6637 " fill="none" id="InterviewModel-to-InterviewModelPlugin" style="stroke:#181818;stroke-width:1.0;"/><polygon fill="#181818" points="1857.97,598.8637,1861.3695,589.6201,1857.6412,593.8745,1853.3868,590.1462,1857.97,598.8637" style="stroke:#181818;stroke-width:1.0;"/><text fill="#000000" font-family="sans-serif" font-size="13" lengthAdjust="spacing" textLength="21" x="1856" y="565.042">has</text><text fill="#000000" font-family="sans-serif" font-size="13" lengthAdjust="spacing" textLength="7" x="1845.4334" y="541.7082">1</text><text fill="#000000" font-family="sans-serif" font-size="13" lengthAdjust="spacing" textLength="7" x="1849.8294" y="587.8904">1</text></g><!--link Interview to InterviewModel--><g id="link_Interview_InterviewModel"><path codeLine="53" d="M1472.53,286.3437 C1533.81,306.6637 1648.07,347.6737 1738,398.0137 C1759.35,409.9637 1781.35,425.3837 1800.14,439.6537 " fill="none" id="Interview-to-InterviewModel" style="stroke:#181818;stroke-width:1.0;"/><polygon fill="#181818" points="1804.34,442.8637,1799.609,434.2255,1800.3642,439.8317,1794.7579,440.5869,1804.34,442.8637" style="stroke:#181818;stroke-width:1.0;"/><text fill="#000000" font-family="sans-serif" font-size="13" lengthAdjust="spacing" textLength="39" x="1723" y="386.042">follows</text><text fill="#000000" font-family="sans-serif" font-size="13" lengthAdjust="spacing" textLength="7" x="1480.6133" y="284.5242">1</text><text fill="#000000" font-family="sans-serif" font-size="13" lengthAdjust="spacing" textLength="7" x="1788.8906" y="431.8524">1</text></g><!--link ANTLRValidator to Interview--><g id="link_ANTLRValidator_Interview"><path codeLine="55" d="M1523.25,112.3037 C1504.66,143.5137 1475.28,192.8237 1454.27,228.0937 " fill="none" id="ANTLRValidator-to-Interview" style="stroke:#181818;stroke-width:1.0;"/><polygon fill="#181818" points="1451.49,232.7537,1459.5282,227.0627,1454.0457,228.4562,1452.6522,222.9736,1451.49,232.7537" style="stroke:#181818;stroke-width:1.0;"/><text fill="#000000" font-family="sans-serif" font-size="13" lengthAdjust="spacing" textLength="50" x="1499" y="167.042">validates</text></g><!--link JobOpening to JobTitle--><g id="link_JobOpening_JobTitle"><path codeLine="57" d="M764.18,284.2537 C830.5,300.7337 943.65,335.9037 1022,398.0137 C1038.43,411.0337 1052.18,429.9237 1062.16,446.3437 " fill="none" id="JobOpening-to-JobTitle" style="stroke:#181818;stroke-width:1.0;"/><polygon fill="#181818" points="1064.88,450.9037,1063.7178,441.1236,1062.3243,446.6062,1056.8418,445.2127,1064.88,450.9037" style="stroke:#181818;stroke-width:1.0;"/><text fill="#000000" font-family="sans-serif" font-size="13" lengthAdjust="spacing" textLength="7" x="771.9308" y="281.8603">1</text><text fill="#000000" font-family="sans-serif" font-size="13" lengthAdjust="spacing" textLength="7" x="1054.0396" y="439.9387">1</text></g><!--link JobOpening to ContractType--><g id="link_JobOpening_ContractType"><path codeLine="58" d="M729.52,319.1937 C745.62,357.6637 768.07,411.3537 782.58,446.0337 " fill="none" id="JobOpening-to-ContractType" style="stroke:#181818;stroke-width:1.0;"/><polygon fill="#181818" points="784.66,451.0037,784.88,441.1573,782.7319,446.3904,777.4987,444.2423,784.66,451.0037" style="stroke:#181818;stroke-width:1.0;"/><text fill="#000000" font-family="sans-serif" font-size="13" lengthAdjust="spacing" textLength="7" x="724.7728" y="341.1312">1</text><text fill="#000000" font-family="sans-serif" font-size="13" lengthAdjust="spacing" textLength="7" x="774.195" y="439.5761">1</text></g><!--link JobOpening to WorkRegime--><g id="link_JobOpening_WorkRegime"><path codeLine="59" d="M764.08,309.9737 C797.06,333.7637 839.39,366.0037 874,398.0137 C890.28,413.0637 906.89,431.2837 920.25,446.7737 " fill="none" id="JobOpening-to-WorkRegime" style="stroke:#181818;stroke-width:1.0;"/><polygon fill="#181818" points="923.57,450.6437,920.7323,441.2125,920.309,446.8535,914.668,446.4301,923.57,450.6437" style="stroke:#181818;stroke-width:1.0;"/><text fill="#000000" font-family="sans-serif" font-size="13" lengthAdjust="spacing" textLength="7" x="772.1772" y="311.224">1</text><text fill="#000000" font-family="sans-serif" font-size="13" lengthAdjust="spacing" textLength="7" x="910.8094" y="439.625">1</text></g><!--link JobOpening to NumberOfVacancies--><g id="link_JobOpening_NumberOfVacancies"><path codeLine="60" d="M690.25,319.1937 C673.97,357.6637 651.26,411.3537 636.59,446.0337 " fill="none" id="JobOpening-to-NumberOfVacancies" style="stroke:#181818;stroke-width:1.0;"/><polygon fill="#181818" points="634.48,451.0037,641.6842,444.2881,636.4375,446.4028,634.3228,441.1561,634.48,451.0037" style="stroke:#181818;stroke-width:1.0;"/><text fill="#000000" font-family="sans-serif" font-size="13" lengthAdjust="spacing" textLength="7" x="679.9805" y="341.1312">1</text><text fill="#000000" font-family="sans-serif" font-size="13" lengthAdjust="spacing" textLength="7" x="629.4444" y="439.5761">1</text></g><!--link JobOpening to JobReference--><g id="link_JobOpening_JobReference"><path codeLine="61" d="M655.66,304.7337 C617.32,328.5037 565.59,362.7337 524,398.0137 C506.54,412.8237 488.87,431.1837 474.77,446.8137 " fill="none" id="JobOpening-to-JobReference" style="stroke:#181818;stroke-width:1.0;"/><polygon fill="#181818" points="471.26,450.7237,480.2539,446.7099,474.6048,447.0072,474.3075,441.3582,471.26,450.7237" style="stroke:#181818;stroke-width:1.0;"/><text fill="#000000" font-family="sans-serif" font-size="13" lengthAdjust="spacing" textLength="7" x="640.8878" y="305.0923">1</text><text fill="#000000" font-family="sans-serif" font-size="13" lengthAdjust="spacing" textLength="7" x="468.748" y="439.7215">1</text></g><!--link Application to ApplicationDate--><g id="link_Application_ApplicationDate"><path codeLine="63" d="M229.87,120.0637 C211.72,137.7137 190.02,159.2037 171,179.0137 C152.91,197.8537 133.25,219.4837 117.6,236.9737 " fill="none" id="Application-to-ApplicationDate" style="stroke:#181818;stroke-width:1.0;"/><polygon fill="#181818" points="114.13,240.8737,123.1076,236.8236,117.4598,237.1437,117.1397,231.4959,114.13,240.8737" style="stroke:#181818;stroke-width:1.0;"/><text fill="#000000" font-family="sans-serif" font-size="13" lengthAdjust="spacing" textLength="7" x="216.0758" y="141.6502">1</text><text fill="#000000" font-family="sans-serif" font-size="13" lengthAdjust="spacing" textLength="7" x="111.7974" y="229.9025">1</text></g><!--link Application to Interview--><g id="link_Application_Interview"><path codeLine="64" d="M319.93,84.7437 C454.64,91.3737 830.97,114.6837 1137,179.0137 C1224.48,197.4037 1323.12,231.1537 1380.45,252.1237 " fill="none" id="Application-to-Interview" style="stroke:#181818;stroke-width:1.0;"/><polygon fill="#181818" points="1385.18,253.8537,1378.1022,247.0049,1380.4844,252.1358,1375.3536,254.5179,1385.18,253.8537" style="stroke:#181818;stroke-width:1.0;"/><text fill="#000000" font-family="sans-serif" font-size="13" lengthAdjust="spacing" textLength="7" x="327.5842" y="81.0835">1</text><text fill="#000000" font-family="sans-serif" font-size="13" lengthAdjust="spacing" textLength="7" x="1370.6384" y="246.7724">1</text></g><!--link Application to ApplicationStatus--><g id="link_Application_ApplicationStatus"><path codeLine="65" d="M267,120.1037 C265.81,142.5037 264.26,171.6937 262.84,198.3837 " fill="none" id="Application-to-ApplicationStatus" style="stroke:#181818;stroke-width:1.0;"/><polygon fill="#181818" points="262.55,203.6937,267.032,194.9237,262.821,198.701,259.0437,194.4901,262.55,203.6937" style="stroke:#181818;stroke-width:1.0;"/><text fill="#000000" font-family="sans-serif" font-size="13" lengthAdjust="spacing" textLength="7" x="259.1234" y="141.6966">1</text><text fill="#000000" font-family="sans-serif" font-size="13" lengthAdjust="spacing" textLength="7" x="255.5552" y="192.8631">1</text></g><!--link Application to JobOpening--><g id="link_Application_JobOpening"><path codeLine="66" d="M319.59,104.0837 C401.83,139.1337 564.07,208.3037 651.28,245.4837 " fill="none" id="Application-to-JobOpening" style="stroke:#181818;stroke-width:1.0;"/><polygon fill="#181818" points="655.88,247.4437,649.1644,240.2394,651.2791,245.4862,646.0324,247.6008,655.88,247.4437" style="stroke:#181818;stroke-width:1.0;"/><text fill="#000000" font-family="sans-serif" font-size="13" lengthAdjust="spacing" textLength="21" x="478" y="167.042">has</text><text fill="#000000" font-family="sans-serif" font-size="13" lengthAdjust="spacing" textLength="7" x="327.5345" y="103.2335">1</text><text fill="#000000" font-family="sans-serif" font-size="13" lengthAdjust="spacing" textLength="7" x="641.1373" y="240.1039">1</text></g><!--link CustomerManager to Interview--><g id="link_CustomerManager_Interview"><path codeLine="68" d="M1360.2,120.1037 C1374.49,151.3637 1394.83,195.8137 1409.68,228.2837 " fill="none" id="CustomerManager-to-Interview" style="stroke:#181818;stroke-width:1.0;"/><polygon fill="#181818" points="1411.83,232.9837,1411.7356,223.1353,1409.7556,228.4343,1404.4566,226.4543,1411.83,232.9837" style="stroke:#181818;stroke-width:1.0;"/><text fill="#000000" font-family="sans-serif" font-size="13" lengthAdjust="spacing" textLength="54" x="1384" y="167.042">evaluates</text></g><!--SRC=[ZLJ1Jjj04BtlLumumG44Bb3LGb5fGYlI1ABWXlF6dhWhx5rhlGv5Y7zdrawSjMD3BudjUJlptfkToNZun6E4iLhUPoY5ZA_ZM6FC3S8h0q1fX7bnmd1rfPKoWm4zLC71m0818in3BJ8ZbAJtDqO_OSBpt1wUumeroX3fr88d1TBvrxSQSLUaIzJtgmKFkGm5vjsmeP96yz04Bnbs0XwLVffZB5AdZXCc8e4mIOi4CSqsBjnAWtejy7cg8amwdMX2Einm-JJ1iwI8XMmmSsfVPraYGcxjwopin9rYDG6th0CTsImjhr0MgOjvCDmK3SlBVX92gpL6vSk8chzvVEJ2q4MejPKVR-LCAsATvsNl7Lt38ZSgHJtbabvrhSsHre9qoNk5xaOrhMgvxdHbcyXnwI5KcgxHUl-Q41snsfWJu3_J1QgBM8S_10Hq7Ls0dOoj3d9SH5KJB3Z4ZVVRdjy5a_a6epJ9oIjKtICgH-bsWW_E3k3uU53-b_h0XnWbQYAPz-3svFRW6ee_mrZH3h7o_dSZtT7muI_FFqjTvV9XfP94FUUCjLoo1tOfV5XN4TBFd3NMS62p5_hYxjxfm-nMJnzYRybzGAVUbwHkDwWDL6l8Ut6xEVsFJDKgw4KwXAjMiTRexfcFzjvNvZFuZZ8gqeInMSAb-JETm1frRekSdNYdtfSJx_2XaF0Jb-1Tmkattxlmpx_2uqq0Ddp43d_D9f2hGjEWH28tMYmBI_A8ZVcQmxoWiKdH1qjoFFgz_G0tSYsqaYcD5HilfZl0vVdn3s703X-HNqpP25UyI0oT25L4EdqOPcVUXSScNCO5IVGXCsoeAB5-yM4Ml0C0]--></g></svg>