<?xml version="1.0" encoding="us-ascii" standalone="no"?><svg xmlns="http://www.w3.org/2000/svg" xmlns:xlink="http://www.w3.org/1999/xlink" contentStyleType="text/css" height="501px" preserveAspectRatio="none" style="width:1389px;height:501px;background:#FFFFFF;" version="1.1" viewBox="0 0 1389 501" width="1389px" zoomAndPan="magnify"><defs/><g><!--cluster JobOpeningAggregate--><g id="cluster_JobOpeningAggregate"><rect fill="none" height="346.5" rx="2.5" ry="2.5" style="stroke:#000000;stroke-width:1.5;" width="767" x="314" y="7"/><text fill="#000000" font-family="sans-serif" font-size="14" font-weight="bold" lengthAdjust="spacing" textLength="159" x="618" y="24.1074">JobOpeningAggregate</text></g><!--cluster JobRequirementsAggregate--><g id="cluster_JobRequirementsAggregate"><rect fill="none" height="291.5" rx="2.5" ry="2.5" style="stroke:#000000;stroke-width:1.5;" width="214" x="7" y="204"/><text fill="#000000" font-family="sans-serif" font-size="14" font-weight="bold" lengthAdjust="spacing" textLength="198" x="15" y="221.1074">JobRequirementsAggregate</text></g><!--cluster Ranking<<aggregate>>--><g id="cluster_Ranking&lt;&lt;aggregate&gt;&gt;"><rect fill="none" height="114" rx="2.5" ry="2.5" style="stroke:#000000;stroke-width:1.5;" width="161" x="1218" y="24"/><text fill="#000000" font-family="sans-serif" font-size="14" font-weight="bold" lengthAdjust="spacing" textLength="145" x="1226" y="41.1074">Ranking&#171;aggregate&#187;</text></g><!--class JobOpening--><g id="elem_JobOpening"><rect codeLine="5" fill="#F1F1F1" height="95.1641" id="JobOpening" rx="2.5" ry="2.5" style="stroke:#181818;stroke-width:0.5;" width="108" x="562" y="44"/><ellipse cx="577" cy="74.2715" fill="#ADD1B2" rx="11" ry="11" style="stroke:#181818;stroke-width:1.0;"/><path d="M575.8594,75.0684 L575.8594,77.5684 L580.1875,77.5684 L580.1875,76.6465 Q580.1875,76.0371 580.4219,75.7715 Q580.6719,75.5059 581.0469,75.5059 Q581.4219,75.5059 581.6563,75.7715 Q581.8906,76.0371 581.8906,76.6465 L581.8906,79.2715 L573.8906,79.2715 Q573.2656,79.2715 573,79.0371 Q572.75,78.8027 572.75,78.4121 Q572.75,78.0371 573.0156,77.8027 Q573.2813,77.5684 573.8906,77.5684 L574.1563,77.5684 L574.1563,70.9121 L573.8906,70.9121 Q573.2656,70.9121 573,70.6777 Q572.75,70.4434 572.75,70.0527 Q572.75,69.6777 573,69.4434 Q573.2656,69.209 573.8906,69.209 L581.5156,69.209 L581.5156,71.8027 Q581.5156,72.4121 581.2813,72.6777 Q581.0625,72.9277 580.6719,72.9277 Q580.2969,72.9277 580.0625,72.6777 Q579.8281,72.4121 579.8281,71.8027 L579.8281,70.9121 L575.8594,70.9121 L575.8594,73.3652 L577.3438,73.3652 Q577.3438,72.709 577.4688,72.5215 Q577.7344,72.1152 578.2031,72.1152 Q578.5781,72.1152 578.8125,72.3809 Q579.0469,72.6309 579.0469,73.2402 L579.0469,75.209 Q579.0469,75.7559 578.9219,75.9434 Q578.6563,76.334 578.2031,76.334 Q577.7344,76.334 577.4688,75.9277 Q577.3438,75.7402 577.3438,75.0684 L575.8594,75.0684 Z " fill="#000000"/><text fill="#000000" font-family="sans-serif" font-size="12" font-style="italic" lengthAdjust="spacing" textLength="35" x="611.5" y="61.9492">&#171;root&#187;</text><text fill="#000000" font-family="sans-serif" font-size="12" font-style="italic" lengthAdjust="spacing" textLength="43" x="607.5" y="77.9102">&#171;entity&#187;</text><text fill="#000000" font-family="sans-serif" font-size="14" lengthAdjust="spacing" textLength="76" x="591" y="96.0293">JobOpening</text><line style="stroke:#181818;stroke-width:0.5;" x1="563" x2="669" y1="104.543" y2="104.543"/><text fill="#000000" font-family="sans-serif" font-size="14" lengthAdjust="spacing" textLength="69" x="568" y="123.6504">description</text><line style="stroke:#181818;stroke-width:0.5;" x1="563" x2="669" y1="131.1641" y2="131.1641"/></g><!--class JobReference--><g id="elem_JobReference"><rect codeLine="9" fill="#F1F1F1" height="60.582" id="JobReference" rx="2.5" ry="2.5" style="stroke:#181818;stroke-width:0.5;" width="120" x="330" y="249"/><ellipse cx="345" cy="271.291" fill="#ADD1B2" rx="11" ry="11" style="stroke:#181818;stroke-width:1.0;"/><path d="M347.7656,267.166 Q347.9219,266.9473 348.1094,266.8379 Q348.2969,266.7285 348.5156,266.7285 Q348.8906,266.7285 349.125,266.9941 Q349.3594,267.2441 349.3594,267.8535 L349.3594,269.3066 Q349.3594,269.916 349.125,270.1816 Q348.8906,270.4473 348.5156,270.4473 Q348.1719,270.4473 347.9688,270.2441 Q347.7656,270.0566 347.6563,269.541 Q347.6094,269.1816 347.4219,268.9941 Q347.0938,268.6191 346.4844,268.4004 Q345.875,268.1816 345.25,268.1816 Q344.4844,268.1816 343.8438,268.5098 Q343.2188,268.8379 342.7188,269.5879 Q342.2344,270.3379 342.2344,271.3691 L342.2344,272.4629 Q342.2344,273.6973 343.125,274.5254 Q344.0156,275.3379 345.6094,275.3379 Q346.5469,275.3379 347.2031,275.0879 Q347.5938,274.9316 348.0156,274.4941 Q348.2813,274.2285 348.4219,274.1504 Q348.5781,274.0723 348.7813,274.0723 Q349.1094,274.0723 349.3594,274.3379 Q349.625,274.5879 349.625,274.9316 Q349.625,275.2754 349.2813,275.6816 Q348.7813,276.2598 347.9844,276.5879 Q346.9063,277.041 345.6094,277.041 Q344.0938,277.041 342.8906,276.416 Q341.9063,275.916 341.2188,274.8535 Q340.5313,273.7754 340.5313,272.4941 L340.5313,271.3379 Q340.5313,270.0098 341.1406,268.8691 Q341.7656,267.7129 342.8594,267.1035 Q343.9531,266.4785 345.1875,266.4785 Q345.9219,266.4785 346.5625,266.6504 Q347.2188,266.8066 347.7656,267.166 Z " fill="#000000"/><text fill="#000000" font-family="sans-serif" font-size="12" font-style="italic" lengthAdjust="spacing" textLength="46" x="380" y="266.9492">&#171;Value&#187;</text><text fill="#000000" font-family="sans-serif" font-size="14" lengthAdjust="spacing" textLength="88" x="359" y="285.0684">JobReference</text><line style="stroke:#181818;stroke-width:0.5;" x1="331" x2="449" y1="293.582" y2="293.582"/><line style="stroke:#181818;stroke-width:0.5;" x1="331" x2="449" y1="301.582" y2="301.582"/></g><!--class NumberOfVacancies--><g id="elem_NumberOfVacancies"><rect codeLine="12" fill="#F1F1F1" height="60.582" id="NumberOfVacancies" rx="2.5" ry="2.5" style="stroke:#181818;stroke-width:0.5;" width="161" x="485.5" y="249"/><ellipse cx="500.5" cy="271.291" fill="#ADD1B2" rx="11" ry="11" style="stroke:#181818;stroke-width:1.0;"/><path d="M503.2656,267.166 Q503.4219,266.9473 503.6094,266.8379 Q503.7969,266.7285 504.0156,266.7285 Q504.3906,266.7285 504.625,266.9941 Q504.8594,267.2441 504.8594,267.8535 L504.8594,269.3066 Q504.8594,269.916 504.625,270.1816 Q504.3906,270.4473 504.0156,270.4473 Q503.6719,270.4473 503.4688,270.2441 Q503.2656,270.0566 503.1563,269.541 Q503.1094,269.1816 502.9219,268.9941 Q502.5938,268.6191 501.9844,268.4004 Q501.375,268.1816 500.75,268.1816 Q499.9844,268.1816 499.3438,268.5098 Q498.7188,268.8379 498.2188,269.5879 Q497.7344,270.3379 497.7344,271.3691 L497.7344,272.4629 Q497.7344,273.6973 498.625,274.5254 Q499.5156,275.3379 501.1094,275.3379 Q502.0469,275.3379 502.7031,275.0879 Q503.0938,274.9316 503.5156,274.4941 Q503.7813,274.2285 503.9219,274.1504 Q504.0781,274.0723 504.2813,274.0723 Q504.6094,274.0723 504.8594,274.3379 Q505.125,274.5879 505.125,274.9316 Q505.125,275.2754 504.7813,275.6816 Q504.2813,276.2598 503.4844,276.5879 Q502.4063,277.041 501.1094,277.041 Q499.5938,277.041 498.3906,276.416 Q497.4063,275.916 496.7188,274.8535 Q496.0313,273.7754 496.0313,272.4941 L496.0313,271.3379 Q496.0313,270.0098 496.6406,268.8691 Q497.2656,267.7129 498.3594,267.1035 Q499.4531,266.4785 500.6875,266.4785 Q501.4219,266.4785 502.0625,266.6504 Q502.7188,266.8066 503.2656,267.166 Z " fill="#000000"/><text fill="#000000" font-family="sans-serif" font-size="12" font-style="italic" lengthAdjust="spacing" textLength="46" x="556" y="266.9492">&#171;Value&#187;</text><text fill="#000000" font-family="sans-serif" font-size="14" lengthAdjust="spacing" textLength="129" x="514.5" y="285.0684">NumberOfVacancies</text><line style="stroke:#181818;stroke-width:0.5;" x1="486.5" x2="645.5" y1="293.582" y2="293.582"/><line style="stroke:#181818;stroke-width:0.5;" x1="486.5" x2="645.5" y1="301.582" y2="301.582"/></g><!--class ContractType--><g id="elem_ContractType"><rect codeLine="15" fill="#F1F1F1" height="97.8242" id="ContractType" rx="2.5" ry="2.5" style="stroke:#181818;stroke-width:0.5;" width="118" x="682" y="230.5"/><ellipse cx="697" cy="252.791" fill="#EB937F" rx="11" ry="11" style="stroke:#181818;stroke-width:1.0;"/><path d="M695.8594,253.5879 L695.8594,256.0879 L700.1875,256.0879 L700.1875,255.166 Q700.1875,254.5566 700.4219,254.291 Q700.6719,254.0254 701.0469,254.0254 Q701.4219,254.0254 701.6563,254.291 Q701.8906,254.5566 701.8906,255.166 L701.8906,257.791 L693.8906,257.791 Q693.2656,257.791 693,257.5566 Q692.75,257.3223 692.75,256.9316 Q692.75,256.5566 693.0156,256.3223 Q693.2813,256.0879 693.8906,256.0879 L694.1563,256.0879 L694.1563,249.4316 L693.8906,249.4316 Q693.2656,249.4316 693,249.1973 Q692.75,248.9629 692.75,248.5723 Q692.75,248.1973 693,247.9629 Q693.2656,247.7285 693.8906,247.7285 L701.5156,247.7285 L701.5156,250.3223 Q701.5156,250.9316 701.2813,251.1973 Q701.0625,251.4473 700.6719,251.4473 Q700.2969,251.4473 700.0625,251.1973 Q699.8281,250.9316 699.8281,250.3223 L699.8281,249.4316 L695.8594,249.4316 L695.8594,251.8848 L697.3438,251.8848 Q697.3438,251.2285 697.4688,251.041 Q697.7344,250.6348 698.2031,250.6348 Q698.5781,250.6348 698.8125,250.9004 Q699.0469,251.1504 699.0469,251.7598 L699.0469,253.7285 Q699.0469,254.2754 698.9219,254.4629 Q698.6563,254.8535 698.2031,254.8535 Q697.7344,254.8535 697.4688,254.4473 Q697.3438,254.2598 697.3438,253.5879 L695.8594,253.5879 Z " fill="#000000"/><text fill="#000000" font-family="sans-serif" font-size="12" font-style="italic" lengthAdjust="spacing" textLength="46" x="731" y="248.4492">&#171;Value&#187;</text><text fill="#000000" font-family="sans-serif" font-size="14" lengthAdjust="spacing" textLength="86" x="711" y="266.5684">ContractType</text><line style="stroke:#181818;stroke-width:0.5;" x1="683" x2="799" y1="275.082" y2="275.082"/><text fill="#000000" font-family="sans-serif" font-size="14" lengthAdjust="spacing" textLength="49" x="688" y="294.1895">full-time</text><text fill="#000000" font-family="sans-serif" font-size="14" lengthAdjust="spacing" textLength="56" x="688" y="312.8105">part-time</text><line style="stroke:#181818;stroke-width:0.5;" x1="683" x2="799" y1="320.3242" y2="320.3242"/></g><!--class WorkRegime--><g id="elem_WorkRegime"><rect codeLine="20" fill="#F1F1F1" height="116.4453" id="WorkRegime" rx="2.5" ry="2.5" style="stroke:#181818;stroke-width:0.5;" width="113" x="835.5" y="221.5"/><ellipse cx="850.5" cy="243.791" fill="#EB937F" rx="11" ry="11" style="stroke:#181818;stroke-width:1.0;"/><path d="M849.3594,244.5879 L849.3594,247.0879 L853.6875,247.0879 L853.6875,246.166 Q853.6875,245.5566 853.9219,245.291 Q854.1719,245.0254 854.5469,245.0254 Q854.9219,245.0254 855.1563,245.291 Q855.3906,245.5566 855.3906,246.166 L855.3906,248.791 L847.3906,248.791 Q846.7656,248.791 846.5,248.5566 Q846.25,248.3223 846.25,247.9316 Q846.25,247.5566 846.5156,247.3223 Q846.7813,247.0879 847.3906,247.0879 L847.6563,247.0879 L847.6563,240.4316 L847.3906,240.4316 Q846.7656,240.4316 846.5,240.1973 Q846.25,239.9629 846.25,239.5723 Q846.25,239.1973 846.5,238.9629 Q846.7656,238.7285 847.3906,238.7285 L855.0156,238.7285 L855.0156,241.3223 Q855.0156,241.9316 854.7813,242.1973 Q854.5625,242.4473 854.1719,242.4473 Q853.7969,242.4473 853.5625,242.1973 Q853.3281,241.9316 853.3281,241.3223 L853.3281,240.4316 L849.3594,240.4316 L849.3594,242.8848 L850.8438,242.8848 Q850.8438,242.2285 850.9688,242.041 Q851.2344,241.6348 851.7031,241.6348 Q852.0781,241.6348 852.3125,241.9004 Q852.5469,242.1504 852.5469,242.7598 L852.5469,244.7285 Q852.5469,245.2754 852.4219,245.4629 Q852.1563,245.8535 851.7031,245.8535 Q851.2344,245.8535 850.9688,245.4473 Q850.8438,245.2598 850.8438,244.5879 L849.3594,244.5879 Z " fill="#000000"/><text fill="#000000" font-family="sans-serif" font-size="12" font-style="italic" lengthAdjust="spacing" textLength="46" x="882" y="239.4492">&#171;Value&#187;</text><text fill="#000000" font-family="sans-serif" font-size="14" lengthAdjust="spacing" textLength="81" x="864.5" y="257.5684">WorkRegime</text><line style="stroke:#181818;stroke-width:0.5;" x1="836.5" x2="947.5" y1="266.082" y2="266.082"/><text fill="#000000" font-family="sans-serif" font-size="14" lengthAdjust="spacing" textLength="44" x="841.5" y="285.1895">remote</text><text fill="#000000" font-family="sans-serif" font-size="14" lengthAdjust="spacing" textLength="39" x="841.5" y="303.8105">hybrid</text><text fill="#000000" font-family="sans-serif" font-size="14" lengthAdjust="spacing" textLength="38" x="841.5" y="322.4316">onsite</text><line style="stroke:#181818;stroke-width:0.5;" x1="836.5" x2="947.5" y1="329.9453" y2="329.9453"/></g><!--class JobTitle--><g id="elem_JobTitle"><rect codeLine="26" fill="#F1F1F1" height="60.582" id="JobTitle" rx="2.5" ry="2.5" style="stroke:#181818;stroke-width:0.5;" width="81" x="983.5" y="249"/><ellipse cx="998.5" cy="271.291" fill="#ADD1B2" rx="11" ry="11" style="stroke:#181818;stroke-width:1.0;"/><path d="M1001.2656,267.166 Q1001.4219,266.9473 1001.6094,266.8379 Q1001.7969,266.7285 1002.0156,266.7285 Q1002.3906,266.7285 1002.625,266.9941 Q1002.8594,267.2441 1002.8594,267.8535 L1002.8594,269.3066 Q1002.8594,269.916 1002.625,270.1816 Q1002.3906,270.4473 1002.0156,270.4473 Q1001.6719,270.4473 1001.4688,270.2441 Q1001.2656,270.0566 1001.1563,269.541 Q1001.1094,269.1816 1000.9219,268.9941 Q1000.5938,268.6191 999.9844,268.4004 Q999.375,268.1816 998.75,268.1816 Q997.9844,268.1816 997.3438,268.5098 Q996.7188,268.8379 996.2188,269.5879 Q995.7344,270.3379 995.7344,271.3691 L995.7344,272.4629 Q995.7344,273.6973 996.625,274.5254 Q997.5156,275.3379 999.1094,275.3379 Q1000.0469,275.3379 1000.7031,275.0879 Q1001.0938,274.9316 1001.5156,274.4941 Q1001.7813,274.2285 1001.9219,274.1504 Q1002.0781,274.0723 1002.2813,274.0723 Q1002.6094,274.0723 1002.8594,274.3379 Q1003.125,274.5879 1003.125,274.9316 Q1003.125,275.2754 1002.7813,275.6816 Q1002.2813,276.2598 1001.4844,276.5879 Q1000.4063,277.041 999.1094,277.041 Q997.5938,277.041 996.3906,276.416 Q995.4063,275.916 994.7188,274.8535 Q994.0313,273.7754 994.0313,272.4941 L994.0313,271.3379 Q994.0313,270.0098 994.6406,268.8691 Q995.2656,267.7129 996.3594,267.1035 Q997.4531,266.4785 998.6875,266.4785 Q999.4219,266.4785 1000.0625,266.6504 Q1000.7188,266.8066 1001.2656,267.166 Z " fill="#000000"/><text fill="#000000" font-family="sans-serif" font-size="12" font-style="italic" lengthAdjust="spacing" textLength="46" x="1014" y="266.9492">&#171;Value&#187;</text><text fill="#000000" font-family="sans-serif" font-size="14" lengthAdjust="spacing" textLength="49" x="1012.5" y="285.0684">JobTitle</text><line style="stroke:#181818;stroke-width:0.5;" x1="984.5" x2="1063.5" y1="293.582" y2="293.582"/><line style="stroke:#181818;stroke-width:0.5;" x1="984.5" x2="1063.5" y1="301.582" y2="301.582"/></g><!--class JobRequirements--><g id="elem_JobRequirements"><rect codeLine="33" fill="#F1F1F1" height="76.543" id="JobRequirements" rx="2.5" ry="2.5" style="stroke:#181818;stroke-width:0.5;" width="142" x="52" y="241"/><ellipse cx="67" cy="271.2715" fill="#ADD1B2" rx="11" ry="11" style="stroke:#181818;stroke-width:1.0;"/><path d="M65.8594,272.0684 L65.8594,274.5684 L70.1875,274.5684 L70.1875,273.6465 Q70.1875,273.0371 70.4219,272.7715 Q70.6719,272.5059 71.0469,272.5059 Q71.4219,272.5059 71.6563,272.7715 Q71.8906,273.0371 71.8906,273.6465 L71.8906,276.2715 L63.8906,276.2715 Q63.2656,276.2715 63,276.0371 Q62.75,275.8027 62.75,275.4121 Q62.75,275.0371 63.0156,274.8027 Q63.2813,274.5684 63.8906,274.5684 L64.1563,274.5684 L64.1563,267.9121 L63.8906,267.9121 Q63.2656,267.9121 63,267.6777 Q62.75,267.4434 62.75,267.0527 Q62.75,266.6777 63,266.4434 Q63.2656,266.209 63.8906,266.209 L71.5156,266.209 L71.5156,268.8027 Q71.5156,269.4121 71.2813,269.6777 Q71.0625,269.9277 70.6719,269.9277 Q70.2969,269.9277 70.0625,269.6777 Q69.8281,269.4121 69.8281,268.8027 L69.8281,267.9121 L65.8594,267.9121 L65.8594,270.3652 L67.3438,270.3652 Q67.3438,269.709 67.4688,269.5215 Q67.7344,269.1152 68.2031,269.1152 Q68.5781,269.1152 68.8125,269.3809 Q69.0469,269.6309 69.0469,270.2402 L69.0469,272.209 Q69.0469,272.7559 68.9219,272.9434 Q68.6563,273.334 68.2031,273.334 Q67.7344,273.334 67.4688,272.9277 Q67.3438,272.7402 67.3438,272.0684 L65.8594,272.0684 Z " fill="#000000"/><text fill="#000000" font-family="sans-serif" font-size="12" font-style="italic" lengthAdjust="spacing" textLength="35" x="118.5" y="258.9492">&#171;root&#187;</text><text fill="#000000" font-family="sans-serif" font-size="12" font-style="italic" lengthAdjust="spacing" textLength="43" x="114.5" y="274.9102">&#171;entity&#187;</text><text fill="#000000" font-family="sans-serif" font-size="14" lengthAdjust="spacing" textLength="110" x="81" y="293.0293">JobRequirements</text><line style="stroke:#181818;stroke-width:0.5;" x1="53" x2="193" y1="301.543" y2="301.543"/><line style="stroke:#181818;stroke-width:0.5;" x1="53" x2="193" y1="309.543" y2="309.543"/></g><!--class JobRequirementsPlugin--><g id="elem_JobRequirementsPlugin"><rect codeLine="37" fill="#F1F1F1" height="60.582" id="JobRequirementsPlugin" rx="2.5" ry="2.5" style="stroke:#181818;stroke-width:0.5;" width="181" x="23.5" y="418.5"/><ellipse cx="38.5" cy="440.791" fill="#ADD1B2" rx="11" ry="11" style="stroke:#181818;stroke-width:1.0;"/><path d="M41.2656,436.666 Q41.4219,436.4473 41.6094,436.3379 Q41.7969,436.2285 42.0156,436.2285 Q42.3906,436.2285 42.625,436.4941 Q42.8594,436.7441 42.8594,437.3535 L42.8594,438.8066 Q42.8594,439.416 42.625,439.6816 Q42.3906,439.9473 42.0156,439.9473 Q41.6719,439.9473 41.4688,439.7441 Q41.2656,439.5566 41.1563,439.041 Q41.1094,438.6816 40.9219,438.4941 Q40.5938,438.1191 39.9844,437.9004 Q39.375,437.6816 38.75,437.6816 Q37.9844,437.6816 37.3438,438.0098 Q36.7188,438.3379 36.2188,439.0879 Q35.7344,439.8379 35.7344,440.8691 L35.7344,441.9629 Q35.7344,443.1973 36.625,444.0254 Q37.5156,444.8379 39.1094,444.8379 Q40.0469,444.8379 40.7031,444.5879 Q41.0938,444.4316 41.5156,443.9941 Q41.7813,443.7285 41.9219,443.6504 Q42.0781,443.5723 42.2813,443.5723 Q42.6094,443.5723 42.8594,443.8379 Q43.125,444.0879 43.125,444.4316 Q43.125,444.7754 42.7813,445.1816 Q42.2813,445.7598 41.4844,446.0879 Q40.4063,446.541 39.1094,446.541 Q37.5938,446.541 36.3906,445.916 Q35.4063,445.416 34.7188,444.3535 Q34.0313,443.2754 34.0313,441.9941 L34.0313,440.8379 Q34.0313,439.5098 34.6406,438.3691 Q35.2656,437.2129 36.3594,436.6035 Q37.4531,435.9785 38.6875,435.9785 Q39.4219,435.9785 40.0625,436.1504 Q40.7188,436.3066 41.2656,436.666 Z " fill="#000000"/><text fill="#000000" font-family="sans-serif" font-size="12" font-style="italic" lengthAdjust="spacing" textLength="46" x="104" y="436.4492">&#171;Value&#187;</text><text fill="#000000" font-family="sans-serif" font-size="14" lengthAdjust="spacing" textLength="149" x="52.5" y="454.5684">JobRequirementsPlugin</text><line style="stroke:#181818;stroke-width:0.5;" x1="24.5" x2="203.5" y1="463.082" y2="463.082"/><line style="stroke:#181818;stroke-width:0.5;" x1="24.5" x2="203.5" y1="471.082" y2="471.082"/></g><!--class Ranking--><g id="elem_Ranking"><rect codeLine="51" fill="#F1F1F1" height="60.582" id="Ranking" rx="2.5" ry="2.5" style="stroke:#181818;stroke-width:0.5;" width="84" x="1256" y="61"/><ellipse cx="1271" cy="83.291" fill="#ADD1B2" rx="11" ry="11" style="stroke:#181818;stroke-width:1.0;"/><path d="M1269.8594,84.0879 L1269.8594,86.5879 L1274.1875,86.5879 L1274.1875,85.666 Q1274.1875,85.0566 1274.4219,84.791 Q1274.6719,84.5254 1275.0469,84.5254 Q1275.4219,84.5254 1275.6563,84.791 Q1275.8906,85.0566 1275.8906,85.666 L1275.8906,88.291 L1267.8906,88.291 Q1267.2656,88.291 1267,88.0566 Q1266.75,87.8223 1266.75,87.4316 Q1266.75,87.0566 1267.0156,86.8223 Q1267.2813,86.5879 1267.8906,86.5879 L1268.1563,86.5879 L1268.1563,79.9316 L1267.8906,79.9316 Q1267.2656,79.9316 1267,79.6973 Q1266.75,79.4629 1266.75,79.0723 Q1266.75,78.6973 1267,78.4629 Q1267.2656,78.2285 1267.8906,78.2285 L1275.5156,78.2285 L1275.5156,80.8223 Q1275.5156,81.4316 1275.2813,81.6973 Q1275.0625,81.9473 1274.6719,81.9473 Q1274.2969,81.9473 1274.0625,81.6973 Q1273.8281,81.4316 1273.8281,80.8223 L1273.8281,79.9316 L1269.8594,79.9316 L1269.8594,82.3848 L1271.3438,82.3848 Q1271.3438,81.7285 1271.4688,81.541 Q1271.7344,81.1348 1272.2031,81.1348 Q1272.5781,81.1348 1272.8125,81.4004 Q1273.0469,81.6504 1273.0469,82.2598 L1273.0469,84.2285 Q1273.0469,84.7754 1272.9219,84.9629 Q1272.6563,85.3535 1272.2031,85.3535 Q1271.7344,85.3535 1271.4688,84.9473 Q1271.3438,84.7598 1271.3438,84.0879 L1269.8594,84.0879 Z " fill="#000000"/><text fill="#000000" font-family="sans-serif" font-size="12" font-style="italic" lengthAdjust="spacing" textLength="42" x="1290" y="78.9492">&#171;class&#187;</text><text fill="#000000" font-family="sans-serif" font-size="14" lengthAdjust="spacing" textLength="52" x="1285" y="97.0684">Ranking</text><line style="stroke:#181818;stroke-width:0.5;" x1="1257" x2="1339" y1="105.582" y2="105.582"/><line style="stroke:#181818;stroke-width:0.5;" x1="1257" x2="1339" y1="113.582" y2="113.582"/></g><!--class Interview--><g id="elem_Interview"><rect fill="#F1F1F1" height="48" id="Interview" rx="2.5" ry="2.5" style="stroke:#181818;stroke-width:0.5;" width="87" x="1099.5" y="255.5"/><ellipse cx="1114.5" cy="271.5" fill="#ADD1B2" rx="11" ry="11" style="stroke:#181818;stroke-width:1.0;"/><path d="M1117.2656,267.375 Q1117.4219,267.1563 1117.6094,267.0469 Q1117.7969,266.9375 1118.0156,266.9375 Q1118.3906,266.9375 1118.625,267.2031 Q1118.8594,267.4531 1118.8594,268.0625 L1118.8594,269.5156 Q1118.8594,270.125 1118.625,270.3906 Q1118.3906,270.6563 1118.0156,270.6563 Q1117.6719,270.6563 1117.4688,270.4531 Q1117.2656,270.2656 1117.1563,269.75 Q1117.1094,269.3906 1116.9219,269.2031 Q1116.5938,268.8281 1115.9844,268.6094 Q1115.375,268.3906 1114.75,268.3906 Q1113.9844,268.3906 1113.3438,268.7188 Q1112.7188,269.0469 1112.2188,269.7969 Q1111.7344,270.5469 1111.7344,271.5781 L1111.7344,272.6719 Q1111.7344,273.9063 1112.625,274.7344 Q1113.5156,275.5469 1115.1094,275.5469 Q1116.0469,275.5469 1116.7031,275.2969 Q1117.0938,275.1406 1117.5156,274.7031 Q1117.7813,274.4375 1117.9219,274.3594 Q1118.0781,274.2813 1118.2813,274.2813 Q1118.6094,274.2813 1118.8594,274.5469 Q1119.125,274.7969 1119.125,275.1406 Q1119.125,275.4844 1118.7813,275.8906 Q1118.2813,276.4688 1117.4844,276.7969 Q1116.4063,277.25 1115.1094,277.25 Q1113.5938,277.25 1112.3906,276.625 Q1111.4063,276.125 1110.7188,275.0625 Q1110.0313,273.9844 1110.0313,272.7031 L1110.0313,271.5469 Q1110.0313,270.2188 1110.6406,269.0781 Q1111.2656,267.9219 1112.3594,267.3125 Q1113.4531,266.6875 1114.6875,266.6875 Q1115.4219,266.6875 1116.0625,266.8594 Q1116.7188,267.0156 1117.2656,267.375 Z " fill="#000000"/><text fill="#000000" font-family="sans-serif" font-size="14" lengthAdjust="spacing" textLength="55" x="1128.5" y="277.2969">Interview</text><line style="stroke:#181818;stroke-width:0.5;" x1="1100.5" x2="1185.5" y1="287.5" y2="287.5"/><line style="stroke:#181818;stroke-width:0.5;" x1="1100.5" x2="1185.5" y1="295.5" y2="295.5"/></g><!--class Application--><g id="elem_Application"><rect fill="#F1F1F1" height="48" id="Application" rx="2.5" ry="2.5" style="stroke:#181818;stroke-width:0.5;" width="101" x="1219.5" y="425"/><ellipse cx="1234.5" cy="441" fill="#ADD1B2" rx="11" ry="11" style="stroke:#181818;stroke-width:1.0;"/><path d="M1237.2656,436.875 Q1237.4219,436.6563 1237.6094,436.5469 Q1237.7969,436.4375 1238.0156,436.4375 Q1238.3906,436.4375 1238.625,436.7031 Q1238.8594,436.9531 1238.8594,437.5625 L1238.8594,439.0156 Q1238.8594,439.625 1238.625,439.8906 Q1238.3906,440.1563 1238.0156,440.1563 Q1237.6719,440.1563 1237.4688,439.9531 Q1237.2656,439.7656 1237.1563,439.25 Q1237.1094,438.8906 1236.9219,438.7031 Q1236.5938,438.3281 1235.9844,438.1094 Q1235.375,437.8906 1234.75,437.8906 Q1233.9844,437.8906 1233.3438,438.2188 Q1232.7188,438.5469 1232.2188,439.2969 Q1231.7344,440.0469 1231.7344,441.0781 L1231.7344,442.1719 Q1231.7344,443.4063 1232.625,444.2344 Q1233.5156,445.0469 1235.1094,445.0469 Q1236.0469,445.0469 1236.7031,444.7969 Q1237.0938,444.6406 1237.5156,444.2031 Q1237.7813,443.9375 1237.9219,443.8594 Q1238.0781,443.7813 1238.2813,443.7813 Q1238.6094,443.7813 1238.8594,444.0469 Q1239.125,444.2969 1239.125,444.6406 Q1239.125,444.9844 1238.7813,445.3906 Q1238.2813,445.9688 1237.4844,446.2969 Q1236.4063,446.75 1235.1094,446.75 Q1233.5938,446.75 1232.3906,446.125 Q1231.4063,445.625 1230.7188,444.5625 Q1230.0313,443.4844 1230.0313,442.2031 L1230.0313,441.0469 Q1230.0313,439.7188 1230.6406,438.5781 Q1231.2656,437.4219 1232.3594,436.8125 Q1233.4531,436.1875 1234.6875,436.1875 Q1235.4219,436.1875 1236.0625,436.3594 Q1236.7188,436.5156 1237.2656,436.875 Z " fill="#000000"/><text fill="#000000" font-family="sans-serif" font-size="14" lengthAdjust="spacing" textLength="69" x="1248.5" y="446.7969">Application</text><line style="stroke:#181818;stroke-width:0.5;" x1="1220.5" x2="1319.5" y1="457" y2="457"/><line style="stroke:#181818;stroke-width:0.5;" x1="1220.5" x2="1319.5" y1="465" y2="465"/></g><!--class Candidate--><g id="elem_Candidate"><rect fill="#F1F1F1" height="48" id="Candidate" rx="2.5" ry="2.5" style="stroke:#181818;stroke-width:0.5;" width="97" x="1221.5" y="255.5"/><ellipse cx="1236.5" cy="271.5" fill="#ADD1B2" rx="11" ry="11" style="stroke:#181818;stroke-width:1.0;"/><path d="M1239.2656,267.375 Q1239.4219,267.1563 1239.6094,267.0469 Q1239.7969,266.9375 1240.0156,266.9375 Q1240.3906,266.9375 1240.625,267.2031 Q1240.8594,267.4531 1240.8594,268.0625 L1240.8594,269.5156 Q1240.8594,270.125 1240.625,270.3906 Q1240.3906,270.6563 1240.0156,270.6563 Q1239.6719,270.6563 1239.4688,270.4531 Q1239.2656,270.2656 1239.1563,269.75 Q1239.1094,269.3906 1238.9219,269.2031 Q1238.5938,268.8281 1237.9844,268.6094 Q1237.375,268.3906 1236.75,268.3906 Q1235.9844,268.3906 1235.3438,268.7188 Q1234.7188,269.0469 1234.2188,269.7969 Q1233.7344,270.5469 1233.7344,271.5781 L1233.7344,272.6719 Q1233.7344,273.9063 1234.625,274.7344 Q1235.5156,275.5469 1237.1094,275.5469 Q1238.0469,275.5469 1238.7031,275.2969 Q1239.0938,275.1406 1239.5156,274.7031 Q1239.7813,274.4375 1239.9219,274.3594 Q1240.0781,274.2813 1240.2813,274.2813 Q1240.6094,274.2813 1240.8594,274.5469 Q1241.125,274.7969 1241.125,275.1406 Q1241.125,275.4844 1240.7813,275.8906 Q1240.2813,276.4688 1239.4844,276.7969 Q1238.4063,277.25 1237.1094,277.25 Q1235.5938,277.25 1234.3906,276.625 Q1233.4063,276.125 1232.7188,275.0625 Q1232.0313,273.9844 1232.0313,272.7031 L1232.0313,271.5469 Q1232.0313,270.2188 1232.6406,269.0781 Q1233.2656,267.9219 1234.3594,267.3125 Q1235.4531,266.6875 1236.6875,266.6875 Q1237.4219,266.6875 1238.0625,266.8594 Q1238.7188,267.0156 1239.2656,267.375 Z " fill="#000000"/><text fill="#000000" font-family="sans-serif" font-size="14" lengthAdjust="spacing" textLength="65" x="1250.5" y="277.2969">Candidate</text><line style="stroke:#181818;stroke-width:0.5;" x1="1222.5" x2="1317.5" y1="287.5" y2="287.5"/><line style="stroke:#181818;stroke-width:0.5;" x1="1222.5" x2="1317.5" y1="295.5" y2="295.5"/></g><!--link JobRequirements to JobRequirementsPlugin--><g id="link_JobRequirements_JobRequirementsPlugin"><path codeLine="68" d="M120.98,318.09 C119.45,346.6 117.36,385.49 115.87,413.28 " fill="none" id="JobRequirements-to-JobRequirementsPlugin" style="stroke:#181818;stroke-width:1.0;"/><polygon fill="#181818" points="115.59,418.33,120.0733,409.5608,115.8618,413.3374,112.0852,409.1259,115.59,418.33" style="stroke:#181818;stroke-width:1.0;"/><text fill="#000000" font-family="sans-serif" font-size="13" lengthAdjust="spacing" textLength="7" x="113.1003" y="339.6829">1</text><text fill="#000000" font-family="sans-serif" font-size="13" lengthAdjust="spacing" textLength="7" x="108.1961" y="407.3526">1</text></g><!--link JobOpening to JobTitle--><g id="link_JobOpening_JobTitle"><path codeLine="73" d="M670.01,97.37 C743.21,106.28 875.16,130.76 966,196 C983.16,208.32 997.03,227.36 1006.9,244.04 " fill="none" id="JobOpening-to-JobTitle" style="stroke:#181818;stroke-width:1.0;"/><polygon fill="#181818" points="1009.57,248.67,1008.5326,238.8759,1007.0693,244.3403,1001.605,242.877,1009.57,248.67" style="stroke:#181818;stroke-width:1.0;"/><text fill="#000000" font-family="sans-serif" font-size="13" lengthAdjust="spacing" textLength="49" x="950" y="184.0283">contains</text><text fill="#000000" font-family="sans-serif" font-size="13" lengthAdjust="spacing" textLength="7" x="678.0973" y="113.428">1</text><text fill="#000000" font-family="sans-serif" font-size="13" lengthAdjust="spacing" textLength="7" x="998.8719" y="237.6596">1</text></g><!--link JobOpening to ContractType--><g id="link_JobOpening_ContractType"><path codeLine="74" d="M647.54,139.44 C665.25,165.79 687.4,198.75 705.69,225.97 " fill="none" id="JobOpening-to-ContractType" style="stroke:#181818;stroke-width:1.0;"/><polygon fill="#181818" points="708.6,230.28,706.9128,220.5767,705.8166,226.1263,700.267,225.0301,708.6,230.28" style="stroke:#181818;stroke-width:1.0;"/><text fill="#000000" font-family="sans-serif" font-size="13" lengthAdjust="spacing" textLength="7" x="644.3079" y="161.061">1</text><text fill="#000000" font-family="sans-serif" font-size="13" lengthAdjust="spacing" textLength="7" x="696.5516" y="219.2243">1</text></g><!--link JobOpening to WorkRegime--><g id="link_JobOpening_WorkRegime"><path codeLine="75" d="M670.16,113.77 C712.73,131.96 772.27,160.76 818,196 C826.25,202.36 834.32,209.72 841.92,217.37 " fill="none" id="JobOpening-to-WorkRegime" style="stroke:#181818;stroke-width:1.0;"/><polygon fill="#181818" points="845.61,221.15,842.2048,211.9085,842.1248,217.5648,836.4685,217.4848,845.61,221.15" style="stroke:#181818;stroke-width:1.0;"/><text fill="#000000" font-family="sans-serif" font-size="13" lengthAdjust="spacing" textLength="49" x="804" y="184.0283">contains</text><text fill="#000000" font-family="sans-serif" font-size="13" lengthAdjust="spacing" textLength="7" x="677.9081" y="131.9416">1</text><text fill="#000000" font-family="sans-serif" font-size="13" lengthAdjust="spacing" textLength="7" x="832.8415" y="210.4399">1</text></g><!--link JobOpening to NumberOfVacancies--><g id="link_JobOpening_NumberOfVacancies"><path codeLine="76" d="M603.38,139.44 C594.66,171.89 583.24,214.35 575.33,243.78 " fill="none" id="JobOpening-to-NumberOfVacancies" style="stroke:#181818;stroke-width:1.0;"/><polygon fill="#181818" points="574,248.75,580.2022,241.0994,575.2999,243.9219,572.4773,239.0196,574,248.75" style="stroke:#181818;stroke-width:1.0;"/><text fill="#000000" font-family="sans-serif" font-size="13" lengthAdjust="spacing" textLength="21" x="594" y="184.0283">has</text><text fill="#000000" font-family="sans-serif" font-size="13" lengthAdjust="spacing" textLength="7" x="594.2139" y="161.061">1</text><text fill="#000000" font-family="sans-serif" font-size="13" lengthAdjust="spacing" textLength="7" x="567.9281" y="237.7561">1</text></g><!--link JobOpening to JobRequirements--><g id="link_JobOpening_JobRequirements"><path codeLine="77" d="M561.83,97.22 C462.83,106.69 257.41,130.45 198,169 C173.08,185.17 154.24,212.82 141.68,236.29 " fill="none" id="JobOpening-to-JobRequirements" style="stroke:#181818;stroke-width:1.0;"/><polygon fill="#181818" points="139.25,240.92,146.9635,234.7961,141.5658,236.4886,139.8733,231.0909,139.25,240.92" style="stroke:#181818;stroke-width:1.0;"/><text fill="#000000" font-family="sans-serif" font-size="13" lengthAdjust="spacing" textLength="46" x="199" y="184.0283">requires</text><text fill="#000000" font-family="sans-serif" font-size="13" lengthAdjust="spacing" textLength="7" x="546.9688" y="113.7033">1</text><text fill="#000000" font-family="sans-serif" font-size="13" lengthAdjust="spacing" textLength="7" x="134.5211" y="229.6288">1</text></g><!--link JobOpening to JobReference--><g id="link_JobOpening_JobReference"><path codeLine="78" d="M561.66,126.65 C532.79,145.73 497.32,170.71 468,196 C450.66,210.96 433,229.32 418.88,244.93 " fill="none" id="JobOpening-to-JobReference" style="stroke:#181818;stroke-width:1.0;"/><polygon fill="#181818" points="415.37,248.83,424.3639,244.8162,418.7148,245.1135,418.4175,239.4645,415.37,248.83" style="stroke:#181818;stroke-width:1.0;"/><text fill="#000000" font-family="sans-serif" font-size="13" lengthAdjust="spacing" textLength="7" x="546.8878" y="127.2679">1</text><text fill="#000000" font-family="sans-serif" font-size="13" lengthAdjust="spacing" textLength="7" x="412.8807" y="237.8526">1</text></g><!--link JobOpening to Interview--><g id="link_JobOpening_Interview"><path codeLine="80" d="M670.36,98.96 C778.57,112.72 1016.09,147.64 1081,196 C1100.6,210.6 1116.92,233.08 1127.89,250.88 " fill="none" id="JobOpening-to-Interview" style="stroke:#181818;stroke-width:1.0;"/><polygon fill="#181818" points="1130.56,255.3,1129.3211,245.5294,1127.9707,251.0227,1122.4774,249.6722,1130.56,255.3" style="stroke:#181818;stroke-width:1.0;"/><text fill="#000000" font-family="sans-serif" font-size="13" lengthAdjust="spacing" textLength="21" x="1063" y="184.0283">has</text><text fill="#000000" font-family="sans-serif" font-size="13" lengthAdjust="spacing" textLength="7" x="678.1349" y="95.8571">1</text><text fill="#000000" font-family="sans-serif" font-size="13" lengthAdjust="spacing" textLength="22" x="1102.8465" y="244.3932">0..1</text></g><!--link JobOpening to Application--><g id="link_JobOpening_Application"><path codeLine="81" d="M561.83,101.8 C477.82,117.45 322.39,151.73 290,196 C246.56,255.36 240.33,307.25 290,361.5 C352.7,429.98 1015.94,444.53 1214.28,447.36 " fill="none" id="JobOpening-to-Application" style="stroke:#181818;stroke-width:1.0;"/><polygon fill="#181818" points="1219.45,447.44,1210.5081,443.3118,1214.4505,447.3686,1210.3938,451.311,1219.45,447.44" style="stroke:#181818;stroke-width:1.0;"/><text fill="#000000" font-family="sans-serif" font-size="13" lengthAdjust="spacing" textLength="21" x="291" y="285.0283">has</text><text fill="#000000" font-family="sans-serif" font-size="13" lengthAdjust="spacing" textLength="7" x="547.0806" y="99.0787">1</text><text fill="#000000" font-family="sans-serif" font-size="13" lengthAdjust="spacing" textLength="7" x="1204.5114" y="443.0121">1</text></g><!--link Candidate to Application--><g id="link_Candidate_Application"><path codeLine="85" d="M1270,303.79 C1270,334.17 1270,387.26 1270,419.86 " fill="none" id="Candidate-to-Application" style="stroke:#181818;stroke-width:1.0;"/><polygon fill="#181818" points="1270,424.91,1274,415.91,1270,419.91,1266,415.91,1270,424.91" style="stroke:#181818;stroke-width:1.0;"/><text fill="#000000" font-family="sans-serif" font-size="13" lengthAdjust="spacing" textLength="39" x="1271" y="384.5283">makes</text><text fill="#000000" font-family="sans-serif" font-size="13" lengthAdjust="spacing" textLength="20" x="1247.6875" y="325.4347">1..*</text><text fill="#000000" font-family="sans-serif" font-size="13" lengthAdjust="spacing" textLength="7" x="1262.1031" y="413.6244">1</text></g><!--link Ranking to Application--><g id="link_Ranking_Application"><path codeLine="88" d="M1312.02,122.06 C1320.85,142.35 1331.41,170.18 1336,196 C1348.87,268.42 1356.4,290.83 1336,361.5 C1329.48,384.09 1313.7,405.16 1299.21,420.84 " fill="none" id="Ranking-to-Application" style="stroke:#181818;stroke-width:1.0;"/><polygon fill="#181818" points="1295.56,424.72,1304.6411,420.9077,1298.9868,421.079,1298.8155,415.4247,1295.56,424.72" style="stroke:#181818;stroke-width:1.0;"/><text fill="#000000" font-family="sans-serif" font-size="13" lengthAdjust="spacing" textLength="32" x="1349" y="285.0283">ranks</text></g><!--link Ranking to Interview--><g id="link_Ranking_Interview"><path codeLine="89" d="M1269.62,122.13 C1250.53,142.46 1225.09,170.29 1204,196 C1189.44,213.75 1174.08,234.54 1162.41,250.81 " fill="none" id="Ranking-to-Interview" style="stroke:#181818;stroke-width:1.0;"/><polygon fill="#181818" points="1159.23,255.27,1167.721,250.2798,1162.1402,251.2042,1161.2158,245.6234,1159.23,255.27" style="stroke:#181818;stroke-width:1.0;"/><text fill="#000000" font-family="sans-serif" font-size="13" lengthAdjust="spacing" textLength="32" x="1227" y="184.0283">ranks</text></g><!--SRC=[XLEnRi8m4Dtz5LQNIfL0xOgYI8Yf7KeL49qFSnWBnqbjfnL2_7ilmIHEWDQBpxxtpi_dPxTNfWGBEIz1x47YmXyqSel2Wv4Q6Glx_ArOpqiqoiYfb1ObUEH7nj5uvGzHbYU9BGgVfXISasbAk0qwOLNfLM4OFp76XGRdQbw6MxHe119X1Rf2eXvZp7kLhz7EjoiGO8H2Tmr4K-LyLXXlGVZbeSGUObjfFV8gHqQtj3w4BU-piFiC9MrsXObbCIyyuNQ7jLKRnWlZbCU1-ANo-afu3UarBiElIb4zweUBkzSrBqRSQ21X6Q_7ASnHzphYXwwaCh6OYDHegiTZ1ePUNIxGVYk1hPvMSCWd2LnIJQqWDcH9NAEXE-R4sYFEvmpKiS6QFxmyyD4eRUQRDxbK2SvYaSa6tFCpJBWW2u0oxXuqjiWzJ6I7_mjUUtF2T-3-aDfhmOHSrYplCde_XDr4FO_75BuQNpye_jnJ40fEor8h0VL734XgyWpCHcrg4xGHWSVZfqv8dvV3dZItNkB1JEoohbbzXgMCw-LZnUSiZLy0]--></g></svg>