<?xml version="1.0" encoding="us-ascii" standalone="no"?><svg xmlns="http://www.w3.org/2000/svg" xmlns:xlink="http://www.w3.org/1999/xlink" contentStyleType="text/css" height="675.2px" preserveAspectRatio="none" style="width:1281px;height:675px;background:#FFFFFF;" version="1.1" viewBox="0 0 1281 675" width="1281.6px" zoomAndPan="magnify"><defs/><g><rect fill="#FFFFFF" height="540.3219" style="stroke:#181818;stroke-width:0.8000000000000002;" width="8" x="52.4" y="63.6969"/><rect fill="#FFFFFF" height="521.6891" style="stroke:#181818;stroke-width:0.8000000000000002;" width="8" x="309.2" y="82.3297"/><rect fill="#FFFFFF" height="200.2625" style="stroke:#181818;stroke-width:0.8000000000000002;" width="8" x="541.2" y="182.4609"/><rect fill="#FFFFFF" height="146.1969" style="stroke:#181818;stroke-width:0.8000000000000002;" width="8" x="541.2" y="457.8219"/><rect fill="#FFFFFF" height="25.0328" style="stroke:#181818;stroke-width:0.8000000000000002;" width="8" x="832.4" y="282.5922"/><rect fill="#FFFFFF" height="50.0656" style="stroke:#181818;stroke-width:0.8000000000000002;" width="8" x="942.8" y="482.8547"/><rect fill="#FFFFFF" height="25.0328" style="stroke:#181818;stroke-width:0.8000000000000002;" width="8" x="1217.2" y="332.6578"/><line style="stroke:#181818;stroke-width:0.4000000000000001;stroke-dasharray:5.0,5.0;" x1="56" x2="56" y1="55.6969" y2="611.2188"/><line style="stroke:#181818;stroke-width:0.4000000000000001;stroke-dasharray:5.0,5.0;" x1="313.2" x2="313.2" y1="55.6969" y2="611.2188"/><line style="stroke:#181818;stroke-width:0.4000000000000001;stroke-dasharray:5.0,5.0;" x1="545.2" x2="545.2" y1="55.6969" y2="611.2188"/><line style="stroke:#181818;stroke-width:0.4000000000000001;stroke-dasharray:5.0,5.0;" x1="722" x2="722" y1="55.6969" y2="611.2188"/><line style="stroke:#181818;stroke-width:0.4000000000000001;stroke-dasharray:5.0,5.0;" x1="836.4" x2="836.4" y1="55.6969" y2="611.2188"/><line style="stroke:#181818;stroke-width:0.4000000000000001;stroke-dasharray:5.0,5.0;" x1="946.8" x2="946.8" y1="55.6969" y2="611.2188"/><line style="stroke:#181818;stroke-width:0.4000000000000001;stroke-dasharray:5.0,5.0;" x1="1115.6" x2="1115.6" y1="55.6969" y2="611.2188"/><line style="stroke:#181818;stroke-width:0.4000000000000001;stroke-dasharray:5.0,5.0;" x1="1221.2" x2="1221.2" y1="55.6969" y2="611.2188"/><rect fill="#E2E2F0" height="26.0969" rx="2" ry="2" style="stroke:#181818;stroke-width:0.4000000000000001;" width="104.8" x="4" y="28.8"/><text fill="#000000" font-family="sans-serif" font-size="11.2" lengthAdjust="spacing" textLength="93.6" x="9.6" y="46.4859">CustomerManager</text><rect fill="#E2E2F0" height="26.0969" rx="2" ry="2" style="stroke:#181818;stroke-width:0.4000000000000001;" width="104.8" x="4" y="610.4188"/><text fill="#000000" font-family="sans-serif" font-size="11.2" lengthAdjust="spacing" textLength="93.6" x="9.6" y="628.1047">CustomerManager</text><rect fill="#E2E2F0" height="26.0969" rx="2" ry="2" style="stroke:#181818;stroke-width:0.4000000000000001;" width="188.8" x="218.8" y="28.8"/><text fill="#000000" font-family="sans-serif" font-size="11.2" lengthAdjust="spacing" textLength="177.6" x="224.4" y="46.4859">NotifyCandidateJobRequirementsUI</text><rect fill="#E2E2F0" height="26.0969" rx="2" ry="2" style="stroke:#181818;stroke-width:0.4000000000000001;" width="188.8" x="218.8" y="610.4188"/><text fill="#000000" font-family="sans-serif" font-size="11.2" lengthAdjust="spacing" textLength="177.6" x="224.4" y="628.1047">NotifyCandidateJobRequirementsUI</text><rect fill="#E2E2F0" height="26.0969" rx="2" ry="2" style="stroke:#181818;stroke-width:0.4000000000000001;" width="228.8" x="430.8" y="28.8"/><text fill="#000000" font-family="sans-serif" font-size="11.2" lengthAdjust="spacing" textLength="217.6" x="436.4" y="46.4859">NotifyCandidateJobRequirementsController</text><rect fill="#E2E2F0" height="26.0969" rx="2" ry="2" style="stroke:#181818;stroke-width:0.4000000000000001;" width="228.8" x="430.8" y="610.4188"/><text fill="#000000" font-family="sans-serif" font-size="11.2" lengthAdjust="spacing" textLength="217.6" x="436.4" y="628.1047">NotifyCandidateJobRequirementsController</text><rect fill="#E2E2F0" height="26.0969" rx="2" ry="2" style="stroke:#181818;stroke-width:0.4000000000000001;" width="108.8" x="667.6" y="28.8"/><text fill="#000000" font-family="sans-serif" font-size="11.2" lengthAdjust="spacing" textLength="97.6" x="673.2" y="46.4859">PersistenceContext</text><rect fill="#E2E2F0" height="26.0969" rx="2" ry="2" style="stroke:#181818;stroke-width:0.4000000000000001;" width="108.8" x="667.6" y="610.4188"/><text fill="#000000" font-family="sans-serif" font-size="11.2" lengthAdjust="spacing" textLength="97.6" x="673.2" y="628.1047">PersistenceContext</text><rect fill="#E2E2F0" height="26.0969" rx="2" ry="2" style="stroke:#181818;stroke-width:0.4000000000000001;" width="104" x="784.4" y="28.8"/><text fill="#000000" font-family="sans-serif" font-size="11.2" lengthAdjust="spacing" textLength="92.8" x="790" y="46.4859">RepositoryFactory</text><rect fill="#E2E2F0" height="26.0969" rx="2" ry="2" style="stroke:#181818;stroke-width:0.4000000000000001;" width="104" x="784.4" y="610.4188"/><text fill="#000000" font-family="sans-serif" font-size="11.2" lengthAdjust="spacing" textLength="92.8" x="790" y="628.1047">RepositoryFactory</text><rect fill="#E2E2F0" height="26.0969" rx="2" ry="2" style="stroke:#181818;stroke-width:0.4000000000000001;" width="100.8" x="896.4" y="28.8"/><text fill="#000000" font-family="sans-serif" font-size="11.2" lengthAdjust="spacing" textLength="89.6" x="902" y="46.4859">CandidateService</text><rect fill="#E2E2F0" height="26.0969" rx="2" ry="2" style="stroke:#181818;stroke-width:0.4000000000000001;" width="100.8" x="896.4" y="610.4188"/><text fill="#000000" font-family="sans-serif" font-size="11.2" lengthAdjust="spacing" textLength="89.6" x="902" y="628.1047">CandidateService</text><rect fill="#E2E2F0" height="26.0969" rx="2" ry="2" style="stroke:#181818;stroke-width:0.4000000000000001;" width="75.2" x="1078" y="28.8"/><text fill="#000000" font-family="sans-serif" font-size="11.2" lengthAdjust="spacing" textLength="64" x="1083.6" y="46.4859">EmailSender</text><rect fill="#E2E2F0" height="26.0969" rx="2" ry="2" style="stroke:#181818;stroke-width:0.4000000000000001;" width="75.2" x="1078" y="610.4188"/><text fill="#000000" font-family="sans-serif" font-size="11.2" lengthAdjust="spacing" textLength="64" x="1083.6" y="628.1047">EmailSender</text><text fill="#000000" font-family="sans-serif" font-size="11.2" lengthAdjust="spacing" textLength="115.2" x="1161.2" y="52.8859">JobOpeningRepository</text><path d="M1206.8,12 C1206.8,4 1221.2,4 1221.2,4 C1221.2,4 1235.6,4 1235.6,12 L1235.6,32.8 C1235.6,40.8 1221.2,40.8 1221.2,40.8 C1221.2,40.8 1206.8,40.8 1206.8,32.8 L1206.8,12 " fill="#E2E2F0" style="stroke:#181818;stroke-width:1.2000000000000002;"/><path d="M1206.8,12 C1206.8,20 1221.2,20 1221.2,20 C1221.2,20 1235.6,20 1235.6,12 " fill="none" style="stroke:#181818;stroke-width:1.2000000000000002;"/><text fill="#000000" font-family="sans-serif" font-size="11.2" lengthAdjust="spacing" textLength="115.2" x="1161.2" y="622.5047">JobOpeningRepository</text><path d="M1206.8,633.3156 C1206.8,625.3156 1221.2,625.3156 1221.2,625.3156 C1221.2,625.3156 1235.6,625.3156 1235.6,633.3156 L1235.6,654.1156 C1235.6,662.1156 1221.2,662.1156 1221.2,662.1156 C1221.2,662.1156 1206.8,662.1156 1206.8,654.1156 L1206.8,633.3156 " fill="#E2E2F0" style="stroke:#181818;stroke-width:1.2000000000000002;"/><path d="M1206.8,633.3156 C1206.8,641.3156 1221.2,641.3156 1221.2,641.3156 C1221.2,641.3156 1235.6,641.3156 1235.6,633.3156 " fill="none" style="stroke:#181818;stroke-width:1.2000000000000002;"/><rect fill="#FFFFFF" height="540.3219" style="stroke:#181818;stroke-width:0.8000000000000002;" width="8" x="52.4" y="63.6969"/><rect fill="#FFFFFF" height="521.6891" style="stroke:#181818;stroke-width:0.8000000000000002;" width="8" x="309.2" y="82.3297"/><rect fill="#FFFFFF" height="200.2625" style="stroke:#181818;stroke-width:0.8000000000000002;" width="8" x="541.2" y="182.4609"/><rect fill="#FFFFFF" height="146.1969" style="stroke:#181818;stroke-width:0.8000000000000002;" width="8" x="541.2" y="457.8219"/><rect fill="#FFFFFF" height="25.0328" style="stroke:#181818;stroke-width:0.8000000000000002;" width="8" x="832.4" y="282.5922"/><rect fill="#FFFFFF" height="50.0656" style="stroke:#181818;stroke-width:0.8000000000000002;" width="8" x="942.8" y="482.8547"/><rect fill="#FFFFFF" height="25.0328" style="stroke:#181818;stroke-width:0.8000000000000002;" width="8" x="1217.2" y="332.6578"/><polygon fill="#181818" points="299.6,79.1297,307.6,82.3297,299.6,85.5297,302.8,82.3297" style="stroke:#181818;stroke-width:0.8000000000000002;"/><line style="stroke:#181818;stroke-width:0.8000000000000002;" x1="60.4" x2="304.4" y1="82.3297" y2="82.3297"/><text fill="#000000" font-family="sans-serif" font-size="10.4" lengthAdjust="spacing" textLength="152.8" x="66" y="78.1195">notify candidate job requirements</text><polygon fill="#181818" points="535.6,104.1625,543.6,107.3625,535.6,110.5625,538.8,107.3625" style="stroke:#181818;stroke-width:0.8000000000000002;"/><line style="stroke:#181818;stroke-width:0.8000000000000002;" x1="317.2" x2="540.4" y1="107.3625" y2="107.3625"/><text fill="#000000" font-family="sans-serif" font-size="10.4" lengthAdjust="spacing" textLength="35.2" x="322.8" y="103.1523">create()</text><polygon fill="#181818" points="69.2,129.1953,61.2,132.3953,69.2,135.5953,66,132.3953" style="stroke:#181818;stroke-width:0.8000000000000002;"/><line style="stroke:#181818;stroke-width:0.8000000000000002;stroke-dasharray:2.0,2.0;" x1="64.4" x2="308.4" y1="132.3953" y2="132.3953"/><text fill="#000000" font-family="sans-serif" font-size="10.4" lengthAdjust="spacing" textLength="108.8" x="74" y="128.1852">asks the Job Reference</text><polygon fill="#181818" points="299.6,154.2281,307.6,157.4281,299.6,160.6281,302.8,157.4281" style="stroke:#181818;stroke-width:0.8000000000000002;"/><line style="stroke:#181818;stroke-width:0.8000000000000002;" x1="60.4" x2="304.4" y1="157.4281" y2="157.4281"/><text fill="#000000" font-family="sans-serif" font-size="10.4" lengthAdjust="spacing" textLength="96" x="66" y="153.218">inserts Job reference</text><polygon fill="#181818" points="531.6,179.2609,539.6,182.4609,531.6,185.6609,534.8,182.4609" style="stroke:#181818;stroke-width:0.8000000000000002;"/><line style="stroke:#181818;stroke-width:0.8000000000000002;" x1="317.2" x2="536.4" y1="182.4609" y2="182.4609"/><text fill="#000000" font-family="sans-serif" font-size="10.4" lengthAdjust="spacing" textLength="157.6" x="322.8" y="178.2508">findByJobReference(jobReference)</text><polygon fill="#181818" points="712.4,204.2938,720.4,207.4938,712.4,210.6938,715.6,207.4938" style="stroke:#181818;stroke-width:0.8000000000000002;"/><line style="stroke:#181818;stroke-width:0.8000000000000002;" x1="549.2" x2="717.2" y1="207.4938" y2="207.4938"/><text fill="#000000" font-family="sans-serif" font-size="10.4" lengthAdjust="spacing" textLength="60" x="554.8" y="203.2836">repositories()</text><polygon fill="#181818" points="826.8,229.3266,834.8,232.5266,826.8,235.7266,830,232.5266" style="stroke:#181818;stroke-width:0.8000000000000002;"/><line style="stroke:#181818;stroke-width:0.8000000000000002;" x1="722" x2="831.6" y1="232.5266" y2="232.5266"/><text fill="#000000" font-family="sans-serif" font-size="10.4" lengthAdjust="spacing" textLength="35.2" x="727.6" y="228.3164">create()</text><polygon fill="#181818" points="558,254.3594,550,257.5594,558,260.7594,554.8,257.5594" style="stroke:#181818;stroke-width:0.8000000000000002;"/><line style="stroke:#181818;stroke-width:0.8000000000000002;stroke-dasharray:2.0,2.0;" x1="553.2" x2="721.2" y1="257.5594" y2="257.5594"/><text fill="#000000" font-family="sans-serif" font-size="10.4" lengthAdjust="spacing" textLength="31.2" x="562.8" y="253.3492">factory</text><polygon fill="#181818" points="822.8,279.3922,830.8,282.5922,822.8,285.7922,826,282.5922" style="stroke:#181818;stroke-width:0.8000000000000002;"/><line style="stroke:#181818;stroke-width:0.8000000000000002;" x1="549.2" x2="827.6" y1="282.5922" y2="282.5922"/><text fill="#000000" font-family="sans-serif" font-size="10.4" lengthAdjust="spacing" textLength="76.8" x="554.8" y="278.382">jobApplications()</text><polygon fill="#181818" points="558,304.425,550,307.625,558,310.825,554.8,307.625" style="stroke:#181818;stroke-width:0.8000000000000002;"/><line style="stroke:#181818;stroke-width:0.8000000000000002;stroke-dasharray:2.0,2.0;" x1="553.2" x2="835.6" y1="307.625" y2="307.625"/><text fill="#000000" font-family="sans-serif" font-size="10.4" lengthAdjust="spacing" textLength="116.8" x="562.8" y="303.4148">JobApplicationRepository</text><polygon fill="#181818" points="1207.6,329.4578,1215.6,332.6578,1207.6,335.8578,1210.8,332.6578" style="stroke:#181818;stroke-width:0.8000000000000002;"/><line style="stroke:#181818;stroke-width:0.8000000000000002;" x1="549.2" x2="1212.4" y1="332.6578" y2="332.6578"/><text fill="#000000" font-family="sans-serif" font-size="10.4" lengthAdjust="spacing" textLength="157.6" x="554.8" y="328.4477">findByJobReference(jobReference)</text><polygon fill="#181818" points="558,354.4906,550,357.6906,558,360.8906,554.8,357.6906" style="stroke:#181818;stroke-width:0.8000000000000002;"/><line style="stroke:#181818;stroke-width:0.8000000000000002;stroke-dasharray:2.0,2.0;" x1="553.2" x2="1220.4" y1="357.6906" y2="357.6906"/><text fill="#000000" font-family="sans-serif" font-size="10.4" lengthAdjust="spacing" textLength="87.2" x="562.8" y="353.4805">jobApplicationsList</text><polygon fill="#181818" points="326,379.5234,318,382.7234,326,385.9234,322.8,382.7234" style="stroke:#181818;stroke-width:0.8000000000000002;"/><line style="stroke:#181818;stroke-width:0.8000000000000002;stroke-dasharray:2.0,2.0;" x1="321.2" x2="544.4" y1="382.7234" y2="382.7234"/><text fill="#000000" font-family="sans-serif" font-size="10.4" lengthAdjust="spacing" textLength="87.2" x="330.8" y="378.5133">jobApplicationsList</text><polygon fill="#181818" points="69.2,404.5563,61.2,407.7563,69.2,410.9563,66,407.7563" style="stroke:#181818;stroke-width:0.8000000000000002;"/><line style="stroke:#181818;stroke-width:0.8000000000000002;stroke-dasharray:2.0,2.0;" x1="64.4" x2="308.4" y1="407.7563" y2="407.7563"/><text fill="#000000" font-family="sans-serif" font-size="10.4" lengthAdjust="spacing" textLength="205.6" x="74" y="403.5461">displays job applications, asks to select one</text><polygon fill="#181818" points="299.6,429.5891,307.6,432.7891,299.6,435.9891,302.8,432.7891" style="stroke:#181818;stroke-width:0.8000000000000002;"/><line style="stroke:#181818;stroke-width:0.8000000000000002;" x1="60.4" x2="304.4" y1="432.7891" y2="432.7891"/><text fill="#000000" font-family="sans-serif" font-size="10.4" lengthAdjust="spacing" textLength="103.2" x="66" y="428.5789">selects job application</text><polygon fill="#181818" points="531.6,454.6219,539.6,457.8219,531.6,461.0219,534.8,457.8219" style="stroke:#181818;stroke-width:0.8000000000000002;"/><line style="stroke:#181818;stroke-width:0.8000000000000002;" x1="317.2" x2="536.4" y1="457.8219" y2="457.8219"/><text fill="#000000" font-family="sans-serif" font-size="10.4" lengthAdjust="spacing" textLength="208.8" x="322.8" y="453.6117">NotifyCandidateJobRequirements(application)</text><polygon fill="#181818" points="933.2,479.6547,941.2,482.8547,933.2,486.0547,936.4,482.8547" style="stroke:#181818;stroke-width:0.8000000000000002;"/><line style="stroke:#181818;stroke-width:0.8000000000000002;" x1="549.2" x2="938" y1="482.8547" y2="482.8547"/><text fill="#000000" font-family="sans-serif" font-size="10.4" lengthAdjust="spacing" textLength="129.6" x="554.8" y="478.6445">create(candidateRepository)</text><polygon fill="#181818" points="558,504.6875,550,507.8875,558,511.0875,554.8,507.8875" style="stroke:#181818;stroke-width:0.8000000000000002;"/><line style="stroke:#181818;stroke-width:0.8000000000000002;stroke-dasharray:2.0,2.0;" x1="553.2" x2="942" y1="507.8875" y2="507.8875"/><text fill="#000000" font-family="sans-serif" font-size="10.4" lengthAdjust="spacing" textLength="78.4" x="562.8" y="503.6773">candidateService</text><polygon fill="#181818" points="937.2,529.7203,945.2,532.9203,937.2,536.1203,940.4,532.9203" style="stroke:#181818;stroke-width:0.8000000000000002;"/><line style="stroke:#181818;stroke-width:0.8000000000000002;" x1="549.2" x2="942" y1="532.9203" y2="532.9203"/><text fill="#000000" font-family="sans-serif" font-size="10.4" lengthAdjust="spacing" textLength="191.2" x="554.8" y="528.7102">notifyCandidateRequirements(application)</text><polygon fill="#181818" points="1106,568.5859,1114,571.7859,1106,574.9859,1109.2,571.7859" style="stroke:#181818;stroke-width:0.8000000000000002;"/><line style="stroke:#181818;stroke-width:0.8000000000000002;stroke-dasharray:2.0,2.0;" x1="946.8" x2="1110.8" y1="571.7859" y2="571.7859"/><text fill="#000000" font-family="sans-serif" font-size="10.4" lengthAdjust="spacing" textLength="146.4" x="952.4" y="553.743">sendEmail(emailTo, emailFrom,</text><text fill="#000000" font-family="sans-serif" font-size="10.4" lengthAdjust="spacing" textLength="118.4" x="955.6" y="567.5758">emailSubject, emailBody)</text><polygon fill="#181818" points="69.2,593.6188,61.2,596.8188,69.2,600.0188,66,596.8188" style="stroke:#181818;stroke-width:0.8000000000000002;"/><line style="stroke:#181818;stroke-width:0.8000000000000002;stroke-dasharray:2.0,2.0;" x1="64.4" x2="308.4" y1="596.8188" y2="596.8188"/><text fill="#000000" font-family="sans-serif" font-size="10.4" lengthAdjust="spacing" textLength="229.6" x="74" y="592.6086">displays message saying email sent successfully</text><!--SRC=[dLLDSziW4BtpAxZLcN7gkm-TIJpDJ3BzchYvzOBHsi6LG0MKgVvz5sGa4DXrguCjqDlTjqzlqRjNQrkpNgtQcadRDVLxhfgLWLyTI0wtbM07pHf2MgQjuA954Drqnge6z6ScsG4qPORUSQjq0lgYhDZt6oOhKJ4BJshtZ4c5XWQaDI-FBkhbyHz2DafQhUfwA3YjaXJVG1jXhEFk4F3REd2qcw2VeLL68FF-WRa6UWS-tSvQ3gIseDy41qzXjfS4V6oOgBSWgu5kj2G4OzYE6Q3OuTSMf927YOb3b_O98KXCl66zazh4_z7R3wWZNLFfrQCyiA97jQCw4f0GYjUO1CNt6-x219WcKdXDkGP4BMvI4AA6gcla-TDG- -gxG2NteBs-8pnb9wG1RNrhI2e35mZiXQpkUs-24tnnZ1OtO-pOKUI9yM6K4Wj4Hi0AEeWhmCIDnYWC2jueQP90imw2aywmcH9ZOtTjMmlEh50o8JDsD_eoF0dXMTsd95jieH1QmVcqASUYHQzuEJd_iga3h5WdwsocqoUKljZKvLfnXy6VrsOkUMms69KmU9ZsnWyWYv8kJpEZg84QkALAdfsN0P7bk3Wnby_FHPIcz7xYpiwO8Ji5nv4OJvr9xsb02xNcHsS6pKfbNk3p7DUJbgbGLwWKE-3_kCSV1FTwPULt5k1-lwibzJSFMZLB-aCEgsstEw8BJi_kLJM9-dVtDM0CVfwfOJtEmP32rRNKT9pZmtrNrptv0m00]--></g></svg>