<?xml version="1.0" encoding="us-ascii" standalone="no"?><svg xmlns="http://www.w3.org/2000/svg" xmlns:xlink="http://www.w3.org/1999/xlink" contentStyleType="text/css" height="658px" preserveAspectRatio="none" style="width:1487px;height:658px;background:#FFFFFF;" version="1.1" viewBox="0 0 1487 658" width="1487px" zoomAndPan="magnify"><defs><filter height="300%" id="f1q0hib5l4s5n2" width="300%" x="-1" y="-1"><feGaussianBlur result="blurOut" stdDeviation="2.0"/><feColorMatrix in="blurOut" result="blurOut2" type="matrix" values="0 0 0 0 0 0 0 0 0 0 0 0 0 0 0 0 0 0 .4 0"/><feOffset dx="4.0" dy="4.0" in="blurOut2" result="blurOut3"/><feBlend in="SourceGraphic" in2="blurOut3" mode="normal"/></filter></defs><g><!--class GenerateJobRequirementTemplateUI--><g id="elem_GenerateJobRequirementTemplateUI"><rect codeLine="6" fill="#F1F1F1" filter="url(#f1q0hib5l4s5n2)" height="116.4453" id="GenerateJobRequirementTemplateUI" rx="2.5" ry="2.5" style="stroke:#181818;stroke-width:0.5;" width="266" x="166" y="7"/><ellipse cx="181" cy="29.291" fill="#ADD1B2" rx="11" ry="11" style="stroke:#181818;stroke-width:1.0;"/><path d="M183.7656,25.166 Q183.9219,24.9473 184.1094,24.8379 Q184.2969,24.7285 184.5156,24.7285 Q184.8906,24.7285 185.125,24.9941 Q185.3594,25.2441 185.3594,25.8535 L185.3594,27.3066 Q185.3594,27.916 185.125,28.1816 Q184.8906,28.4473 184.5156,28.4473 Q184.1719,28.4473 183.9688,28.2441 Q183.7656,28.0566 183.6563,27.541 Q183.6094,27.1816 183.4219,26.9941 Q183.0938,26.6191 182.4844,26.4004 Q181.875,26.1816 181.25,26.1816 Q180.4844,26.1816 179.8438,26.5098 Q179.2188,26.8379 178.7188,27.5879 Q178.2344,28.3379 178.2344,29.3691 L178.2344,30.4629 Q178.2344,31.6973 179.125,32.5254 Q180.0156,33.3379 181.6094,33.3379 Q182.5469,33.3379 183.2031,33.0879 Q183.5938,32.9316 184.0156,32.4941 Q184.2813,32.2285 184.4219,32.1504 Q184.5781,32.0723 184.7813,32.0723 Q185.1094,32.0723 185.3594,32.3379 Q185.625,32.5879 185.625,32.9316 Q185.625,33.2754 185.2813,33.6816 Q184.7813,34.2598 183.9844,34.5879 Q182.9063,35.041 181.6094,35.041 Q180.0938,35.041 178.8906,34.416 Q177.9063,33.916 177.2188,32.8535 Q176.5313,31.7754 176.5313,30.4941 L176.5313,29.3379 Q176.5313,28.0098 177.1406,26.8691 Q177.7656,25.7129 178.8594,25.1035 Q179.9531,24.4785 181.1875,24.4785 Q181.9219,24.4785 182.5625,24.6504 Q183.2188,24.8066 183.7656,25.166 Z " fill="#000000"/><text fill="#000000" font-family="FG Virgil" font-size="12" font-style="italic" lengthAdjust="spacing" textLength="82" x="271" y="24.9492">&#171;presentation&#187;</text><text fill="#000000" font-family="FG Virgil" font-size="14" lengthAdjust="spacing" textLength="234" x="195" y="43.0684">GenerateJobRequirementTemplateUI</text><line style="stroke:#181818;stroke-width:0.5;" x1="167" x2="431" y1="51.582" y2="51.582"/><line style="stroke:#181818;stroke-width:0.5;" x1="167" x2="431" y1="59.582" y2="59.582"/><ellipse cx="177" cy="74.3926" fill="#84BE84" rx="3" ry="3" style="stroke:#038048;stroke-width:1.0;"/><text fill="#000000" font-family="FG Virgil" font-size="14" lengthAdjust="spacing" textLength="60" x="186" y="78.6895">doShow()</text><ellipse cx="177" cy="93.0137" fill="#84BE84" rx="3" ry="3" style="stroke:#038048;stroke-width:1.0;"/><text fill="#000000" font-family="FG Virgil" font-size="14" lengthAdjust="spacing" textLength="64" x="186" y="97.3105">headline()</text><ellipse cx="177" cy="111.6348" fill="#84BE84" rx="3" ry="3" style="stroke:#038048;stroke-width:1.0;"/><text fill="#000000" font-family="FG Virgil" font-size="14" lengthAdjust="spacing" textLength="183" x="186" y="115.9316">showMenuAndGetSelection()</text></g><!--class GenerateJobRequirementTemplateController--><g id="elem_GenerateJobRequirementTemplateController"><rect codeLine="12" fill="#F1F1F1" filter="url(#f1q0hib5l4s5n2)" height="116.4453" id="GenerateJobRequirementTemplateController" rx="2.5" ry="2.5" style="stroke:#181818;stroke-width:0.5;" width="584" x="7" y="202"/><ellipse cx="152.75" cy="224.291" fill="#ADD1B2" rx="11" ry="11" style="stroke:#181818;stroke-width:1.0;"/><path d="M155.5156,220.166 Q155.6719,219.9473 155.8594,219.8379 Q156.0469,219.7285 156.2656,219.7285 Q156.6406,219.7285 156.875,219.9941 Q157.1094,220.2441 157.1094,220.8535 L157.1094,222.3066 Q157.1094,222.916 156.875,223.1816 Q156.6406,223.4473 156.2656,223.4473 Q155.9219,223.4473 155.7188,223.2441 Q155.5156,223.0566 155.4063,222.541 Q155.3594,222.1816 155.1719,221.9941 Q154.8438,221.6191 154.2344,221.4004 Q153.625,221.1816 153,221.1816 Q152.2344,221.1816 151.5938,221.5098 Q150.9688,221.8379 150.4688,222.5879 Q149.9844,223.3379 149.9844,224.3691 L149.9844,225.4629 Q149.9844,226.6973 150.875,227.5254 Q151.7656,228.3379 153.3594,228.3379 Q154.2969,228.3379 154.9531,228.0879 Q155.3438,227.9316 155.7656,227.4941 Q156.0313,227.2285 156.1719,227.1504 Q156.3281,227.0723 156.5313,227.0723 Q156.8594,227.0723 157.1094,227.3379 Q157.375,227.5879 157.375,227.9316 Q157.375,228.2754 157.0313,228.6816 Q156.5313,229.2598 155.7344,229.5879 Q154.6563,230.041 153.3594,230.041 Q151.8438,230.041 150.6406,229.416 Q149.6563,228.916 148.9688,227.8535 Q148.2813,226.7754 148.2813,225.4941 L148.2813,224.3379 Q148.2813,223.0098 148.8906,221.8691 Q149.5156,220.7129 150.6094,220.1035 Q151.7031,219.4785 152.9375,219.4785 Q153.6719,219.4785 154.3125,219.6504 Q154.9688,219.8066 155.5156,220.166 Z " fill="#000000"/><text fill="#000000" font-family="FG Virgil" font-size="12" font-style="italic" lengthAdjust="spacing" textLength="74" x="278.25" y="219.9492">&#171;application&#187;</text><text fill="#000000" font-family="FG Virgil" font-size="14" lengthAdjust="spacing" textLength="284" x="173.25" y="238.0684">GenerateJobRequirementTemplateController</text><line style="stroke:#181818;stroke-width:0.5;" x1="8" x2="590" y1="246.582" y2="246.582"/><line style="stroke:#181818;stroke-width:0.5;" x1="8" x2="590" y1="254.582" y2="254.582"/><ellipse cx="18" cy="269.3926" fill="#84BE84" rx="3" ry="3" style="stroke:#038048;stroke-width:1.0;"/><text fill="#000000" font-family="FG Virgil" font-size="14" lengthAdjust="spacing" textLength="276" x="27" y="273.6895">listAllJobOpenings() : Iterable&lt;JobOpening&gt;</text><ellipse cx="18" cy="288.0137" fill="#84BE84" rx="3" ry="3" style="stroke:#038048;stroke-width:1.0;"/><text fill="#000000" font-family="FG Virgil" font-size="14" lengthAdjust="spacing" textLength="476" x="27" y="292.3105">findPluginByJobReference(jobReference : JobReference) : JobRequirement</text><ellipse cx="18" cy="306.6348" fill="#84BE84" rx="3" ry="3" style="stroke:#038048;stroke-width:1.0;"/><text fill="#000000" font-family="FG Virgil" font-size="14" lengthAdjust="spacing" textLength="558" x="27" y="310.9316">generateAndExportJobRequirementTemplate(jobRequirement : JobRequirement) : String</text></g><!--class PersistenceContext--><g id="elem_PersistenceContext"><rect codeLine="18" fill="#F1F1F1" filter="url(#f1q0hib5l4s5n2)" height="66.6211" id="PersistenceContext" rx="2.5" ry="2.5" style="stroke:#181818;stroke-width:0.5;" width="154" x="1158" y="226.5"/><ellipse cx="1173" cy="242.5" fill="#ADD1B2" rx="11" ry="11" style="stroke:#181818;stroke-width:1.0;"/><path d="M1175.7656,238.375 Q1175.9219,238.1563 1176.1094,238.0469 Q1176.2969,237.9375 1176.5156,237.9375 Q1176.8906,237.9375 1177.125,238.2031 Q1177.3594,238.4531 1177.3594,239.0625 L1177.3594,240.5156 Q1177.3594,241.125 1177.125,241.3906 Q1176.8906,241.6563 1176.5156,241.6563 Q1176.1719,241.6563 1175.9688,241.4531 Q1175.7656,241.2656 1175.6563,240.75 Q1175.6094,240.3906 1175.4219,240.2031 Q1175.0938,239.8281 1174.4844,239.6094 Q1173.875,239.3906 1173.25,239.3906 Q1172.4844,239.3906 1171.8438,239.7188 Q1171.2188,240.0469 1170.7188,240.7969 Q1170.2344,241.5469 1170.2344,242.5781 L1170.2344,243.6719 Q1170.2344,244.9063 1171.125,245.7344 Q1172.0156,246.5469 1173.6094,246.5469 Q1174.5469,246.5469 1175.2031,246.2969 Q1175.5938,246.1406 1176.0156,245.7031 Q1176.2813,245.4375 1176.4219,245.3594 Q1176.5781,245.2813 1176.7813,245.2813 Q1177.1094,245.2813 1177.3594,245.5469 Q1177.625,245.7969 1177.625,246.1406 Q1177.625,246.4844 1177.2813,246.8906 Q1176.7813,247.4688 1175.9844,247.7969 Q1174.9063,248.25 1173.6094,248.25 Q1172.0938,248.25 1170.8906,247.625 Q1169.9063,247.125 1169.2188,246.0625 Q1168.5313,244.9844 1168.5313,243.7031 L1168.5313,242.5469 Q1168.5313,241.2188 1169.1406,240.0781 Q1169.7656,238.9219 1170.8594,238.3125 Q1171.9531,237.6875 1173.1875,237.6875 Q1173.9219,237.6875 1174.5625,237.8594 Q1175.2188,238.0156 1175.7656,238.375 Z " fill="#000000"/><text fill="#000000" font-family="FG Virgil" font-size="14" lengthAdjust="spacing" textLength="122" x="1187" y="248.2969">PersistenceContext</text><line style="stroke:#181818;stroke-width:0.5;" x1="1159" x2="1311" y1="258.5" y2="258.5"/><line style="stroke:#181818;stroke-width:0.5;" x1="1159" x2="1311" y1="266.5" y2="266.5"/><ellipse cx="1169" cy="281.3105" fill="#84BE84" rx="3" ry="3" style="stroke:#038048;stroke-width:1.0;"/><text fill="#000000" font-family="FG Virgil" font-size="14" lengthAdjust="spacing" textLength="84" x="1178" y="285.6074">create(): void</text></g><!--class RepositoryFactory--><g id="elem_RepositoryFactory"><rect codeLine="22" fill="#F1F1F1" filter="url(#f1q0hib5l4s5n2)" height="103.8633" id="RepositoryFactory" rx="2.5" ry="2.5" style="stroke:#181818;stroke-width:0.5;" width="329" x="1070.5" y="397"/><ellipse cx="1172.75" cy="413" fill="#ADD1B2" rx="11" ry="11" style="stroke:#181818;stroke-width:1.0;"/><path d="M1175.5156,408.875 Q1175.6719,408.6563 1175.8594,408.5469 Q1176.0469,408.4375 1176.2656,408.4375 Q1176.6406,408.4375 1176.875,408.7031 Q1177.1094,408.9531 1177.1094,409.5625 L1177.1094,411.0156 Q1177.1094,411.625 1176.875,411.8906 Q1176.6406,412.1563 1176.2656,412.1563 Q1175.9219,412.1563 1175.7188,411.9531 Q1175.5156,411.7656 1175.4063,411.25 Q1175.3594,410.8906 1175.1719,410.7031 Q1174.8438,410.3281 1174.2344,410.1094 Q1173.625,409.8906 1173,409.8906 Q1172.2344,409.8906 1171.5938,410.2188 Q1170.9688,410.5469 1170.4688,411.2969 Q1169.9844,412.0469 1169.9844,413.0781 L1169.9844,414.1719 Q1169.9844,415.4063 1170.875,416.2344 Q1171.7656,417.0469 1173.3594,417.0469 Q1174.2969,417.0469 1174.9531,416.7969 Q1175.3438,416.6406 1175.7656,416.2031 Q1176.0313,415.9375 1176.1719,415.8594 Q1176.3281,415.7813 1176.5313,415.7813 Q1176.8594,415.7813 1177.1094,416.0469 Q1177.375,416.2969 1177.375,416.6406 Q1177.375,416.9844 1177.0313,417.3906 Q1176.5313,417.9688 1175.7344,418.2969 Q1174.6563,418.75 1173.3594,418.75 Q1171.8438,418.75 1170.6406,418.125 Q1169.6563,417.625 1168.9688,416.5625 Q1168.2813,415.4844 1168.2813,414.2031 L1168.2813,413.0469 Q1168.2813,411.7188 1168.8906,410.5781 Q1169.5156,409.4219 1170.6094,408.8125 Q1171.7031,408.1875 1172.9375,408.1875 Q1173.6719,408.1875 1174.3125,408.3594 Q1174.9688,408.5156 1175.5156,408.875 Z " fill="#000000"/><text fill="#000000" font-family="FG Virgil" font-size="14" lengthAdjust="spacing" textLength="116" x="1193.25" y="418.7969">RepositoryFactory</text><line style="stroke:#181818;stroke-width:0.5;" x1="1071.5" x2="1398.5" y1="429" y2="429"/><line style="stroke:#181818;stroke-width:0.5;" x1="1071.5" x2="1398.5" y1="437" y2="437"/><ellipse cx="1081.5" cy="451.8105" fill="#84BE84" rx="3" ry="3" style="stroke:#038048;stroke-width:1.0;"/><text fill="#000000" font-family="FG Virgil" font-size="14" lengthAdjust="spacing" textLength="87" x="1090.5" y="456.1074">factory(): void</text><ellipse cx="1081.5" cy="470.4316" fill="#84BE84" rx="3" ry="3" style="stroke:#038048;stroke-width:1.0;"/><text fill="#000000" font-family="FG Virgil" font-size="14" lengthAdjust="spacing" textLength="242" x="1090.5" y="474.7285">jobOpenings(): JobOpeningRepository</text><ellipse cx="1081.5" cy="489.0527" fill="#84BE84" rx="3" ry="3" style="stroke:#038048;stroke-width:1.0;"/><text fill="#000000" font-family="FG Virgil" font-size="14" lengthAdjust="spacing" textLength="303" x="1090.5" y="493.3496">jobRequirements(): JobRequirementsRepository</text></g><!--class JobOpeningRepository--><g id="elem_JobOpeningRepository"><rect codeLine="28" fill="#F1F1F1" filter="url(#f1q0hib5l4s5n2)" height="66.6211" id="JobOpeningRepository" rx="2.5" ry="2.5" style="stroke:#181818;stroke-width:0.5;" width="260" x="970" y="580"/><ellipse cx="1023.75" cy="596" fill="#ADD1B2" rx="11" ry="11" style="stroke:#181818;stroke-width:1.0;"/><path d="M1026.5156,591.875 Q1026.6719,591.6563 1026.8594,591.5469 Q1027.0469,591.4375 1027.2656,591.4375 Q1027.6406,591.4375 1027.875,591.7031 Q1028.1094,591.9531 1028.1094,592.5625 L1028.1094,594.0156 Q1028.1094,594.625 1027.875,594.8906 Q1027.6406,595.1563 1027.2656,595.1563 Q1026.9219,595.1563 1026.7188,594.9531 Q1026.5156,594.7656 1026.4063,594.25 Q1026.3594,593.8906 1026.1719,593.7031 Q1025.8438,593.3281 1025.2344,593.1094 Q1024.625,592.8906 1024,592.8906 Q1023.2344,592.8906 1022.5938,593.2188 Q1021.9688,593.5469 1021.4688,594.2969 Q1020.9844,595.0469 1020.9844,596.0781 L1020.9844,597.1719 Q1020.9844,598.4063 1021.875,599.2344 Q1022.7656,600.0469 1024.3594,600.0469 Q1025.2969,600.0469 1025.9531,599.7969 Q1026.3438,599.6406 1026.7656,599.2031 Q1027.0313,598.9375 1027.1719,598.8594 Q1027.3281,598.7813 1027.5313,598.7813 Q1027.8594,598.7813 1028.1094,599.0469 Q1028.375,599.2969 1028.375,599.6406 Q1028.375,599.9844 1028.0313,600.3906 Q1027.5313,600.9688 1026.7344,601.2969 Q1025.6563,601.75 1024.3594,601.75 Q1022.8438,601.75 1021.6406,601.125 Q1020.6563,600.625 1019.9688,599.5625 Q1019.2813,598.4844 1019.2813,597.2031 L1019.2813,596.0469 Q1019.2813,594.7188 1019.8906,593.5781 Q1020.5156,592.4219 1021.6094,591.8125 Q1022.7031,591.1875 1023.9375,591.1875 Q1024.6719,591.1875 1025.3125,591.3594 Q1025.9688,591.5156 1026.5156,591.875 Z " fill="#000000"/><text fill="#000000" font-family="FG Virgil" font-size="14" lengthAdjust="spacing" textLength="144" x="1044.25" y="601.7969">JobOpeningRepository</text><line style="stroke:#181818;stroke-width:0.5;" x1="971" x2="1229" y1="612" y2="612"/><line style="stroke:#181818;stroke-width:0.5;" x1="971" x2="1229" y1="620" y2="620"/><ellipse cx="981" cy="634.8105" fill="#84BE84" rx="3" ry="3" style="stroke:#038048;stroke-width:1.0;"/><text fill="#000000" font-family="FG Virgil" font-size="14" lengthAdjust="spacing" textLength="234" x="990" y="639.1074">findAllOpen() : Iterable&lt;JobOpening&gt;</text></g><!--class InterviewModelRepository--><g id="elem_InterviewModelRepository"><rect codeLine="32" fill="#F1F1F1" filter="url(#f1q0hib5l4s5n2)" height="66.6211" id="InterviewModelRepository" rx="2.5" ry="2.5" style="stroke:#181818;stroke-width:0.5;" width="463" x="467.5" y="31.5"/><ellipse cx="614.25" cy="47.5" fill="#ADD1B2" rx="11" ry="11" style="stroke:#181818;stroke-width:1.0;"/><path d="M617.0156,43.375 Q617.1719,43.1563 617.3594,43.0469 Q617.5469,42.9375 617.7656,42.9375 Q618.1406,42.9375 618.375,43.2031 Q618.6094,43.4531 618.6094,44.0625 L618.6094,45.5156 Q618.6094,46.125 618.375,46.3906 Q618.1406,46.6563 617.7656,46.6563 Q617.4219,46.6563 617.2188,46.4531 Q617.0156,46.2656 616.9063,45.75 Q616.8594,45.3906 616.6719,45.2031 Q616.3438,44.8281 615.7344,44.6094 Q615.125,44.3906 614.5,44.3906 Q613.7344,44.3906 613.0938,44.7188 Q612.4688,45.0469 611.9688,45.7969 Q611.4844,46.5469 611.4844,47.5781 L611.4844,48.6719 Q611.4844,49.9063 612.375,50.7344 Q613.2656,51.5469 614.8594,51.5469 Q615.7969,51.5469 616.4531,51.2969 Q616.8438,51.1406 617.2656,50.7031 Q617.5313,50.4375 617.6719,50.3594 Q617.8281,50.2813 618.0313,50.2813 Q618.3594,50.2813 618.6094,50.5469 Q618.875,50.7969 618.875,51.1406 Q618.875,51.4844 618.5313,51.8906 Q618.0313,52.4688 617.2344,52.7969 Q616.1563,53.25 614.8594,53.25 Q613.3438,53.25 612.1406,52.625 Q611.1563,52.125 610.4688,51.0625 Q609.7813,49.9844 609.7813,48.7031 L609.7813,47.5469 Q609.7813,46.2188 610.3906,45.0781 Q611.0156,43.9219 612.1094,43.3125 Q613.2031,42.6875 614.4375,42.6875 Q615.1719,42.6875 615.8125,42.8594 Q616.4688,43.0156 617.0156,43.375 Z " fill="#000000"/><text fill="#000000" font-family="FG Virgil" font-size="14" lengthAdjust="spacing" textLength="161" x="634.75" y="53.2969">InterviewModelRepository</text><line style="stroke:#181818;stroke-width:0.5;" x1="468.5" x2="929.5" y1="63.5" y2="63.5"/><line style="stroke:#181818;stroke-width:0.5;" x1="468.5" x2="929.5" y1="71.5" y2="71.5"/><ellipse cx="478.5" cy="86.3105" fill="#84BE84" rx="3" ry="3" style="stroke:#038048;stroke-width:1.0;"/><text fill="#000000" font-family="FG Virgil" font-size="14" lengthAdjust="spacing" textLength="437" x="487.5" y="90.6074">findByJobReference(jobReference : JobReference) : JobRequirement</text></g><!--class JobRequirementPlugin--><g id="elem_JobRequirementPlugin"><rect codeLine="36" fill="#F1F1F1" filter="url(#f1q0hib5l4s5n2)" height="66.6211" id="JobRequirementPlugin" rx="2.5" ry="2.5" style="stroke:#181818;stroke-width:0.5;" width="369" x="753.5" y="226.5"/><ellipse cx="862.75" cy="242.5" fill="#ADD1B2" rx="11" ry="11" style="stroke:#181818;stroke-width:1.0;"/><path d="M865.5156,238.375 Q865.6719,238.1563 865.8594,238.0469 Q866.0469,237.9375 866.2656,237.9375 Q866.6406,237.9375 866.875,238.2031 Q867.1094,238.4531 867.1094,239.0625 L867.1094,240.5156 Q867.1094,241.125 866.875,241.3906 Q866.6406,241.6563 866.2656,241.6563 Q865.9219,241.6563 865.7188,241.4531 Q865.5156,241.2656 865.4063,240.75 Q865.3594,240.3906 865.1719,240.2031 Q864.8438,239.8281 864.2344,239.6094 Q863.625,239.3906 863,239.3906 Q862.2344,239.3906 861.5938,239.7188 Q860.9688,240.0469 860.4688,240.7969 Q859.9844,241.5469 859.9844,242.5781 L859.9844,243.6719 Q859.9844,244.9063 860.875,245.7344 Q861.7656,246.5469 863.3594,246.5469 Q864.2969,246.5469 864.9531,246.2969 Q865.3438,246.1406 865.7656,245.7031 Q866.0313,245.4375 866.1719,245.3594 Q866.3281,245.2813 866.5313,245.2813 Q866.8594,245.2813 867.1094,245.5469 Q867.375,245.7969 867.375,246.1406 Q867.375,246.4844 867.0313,246.8906 Q866.5313,247.4688 865.7344,247.7969 Q864.6563,248.25 863.3594,248.25 Q861.8438,248.25 860.6406,247.625 Q859.6563,247.125 858.9688,246.0625 Q858.2813,244.9844 858.2813,243.7031 L858.2813,242.5469 Q858.2813,241.2188 858.8906,240.0781 Q859.5156,238.9219 860.6094,238.3125 Q861.7031,237.6875 862.9375,237.6875 Q863.6719,237.6875 864.3125,237.8594 Q864.9688,238.0156 865.5156,238.375 Z " fill="#000000"/><text fill="#000000" font-family="FG Virgil" font-size="14" lengthAdjust="spacing" textLength="142" x="883.25" y="248.2969">JobRequirementPlugin</text><line style="stroke:#181818;stroke-width:0.5;" x1="754.5" x2="1121.5" y1="258.5" y2="258.5"/><line style="stroke:#181818;stroke-width:0.5;" x1="754.5" x2="1121.5" y1="266.5" y2="266.5"/><ellipse cx="764.5" cy="281.3105" fill="#84BE84" rx="3" ry="3" style="stroke:#038048;stroke-width:1.0;"/><text fill="#000000" font-family="FG Virgil" font-size="14" lengthAdjust="spacing" textLength="343" x="773.5" y="285.6074">generateAndExportJobRequirementTemplate() : String</text></g><!--class JobRequirementsRepository--><g id="elem_JobRequirementsRepository"><rect fill="#F1F1F1" filter="url(#f1q0hib5l4s5n2)" height="48" id="JobRequirementsRepository" rx="2.5" ry="2.5" style="stroke:#181818;stroke-width:0.5;" width="210" x="1265" y="589.5"/><ellipse cx="1280" cy="605.5" fill="#ADD1B2" rx="11" ry="11" style="stroke:#181818;stroke-width:1.0;"/><path d="M1282.7656,601.375 Q1282.9219,601.1563 1283.1094,601.0469 Q1283.2969,600.9375 1283.5156,600.9375 Q1283.8906,600.9375 1284.125,601.2031 Q1284.3594,601.4531 1284.3594,602.0625 L1284.3594,603.5156 Q1284.3594,604.125 1284.125,604.3906 Q1283.8906,604.6563 1283.5156,604.6563 Q1283.1719,604.6563 1282.9688,604.4531 Q1282.7656,604.2656 1282.6563,603.75 Q1282.6094,603.3906 1282.4219,603.2031 Q1282.0938,602.8281 1281.4844,602.6094 Q1280.875,602.3906 1280.25,602.3906 Q1279.4844,602.3906 1278.8438,602.7188 Q1278.2188,603.0469 1277.7188,603.7969 Q1277.2344,604.5469 1277.2344,605.5781 L1277.2344,606.6719 Q1277.2344,607.9063 1278.125,608.7344 Q1279.0156,609.5469 1280.6094,609.5469 Q1281.5469,609.5469 1282.2031,609.2969 Q1282.5938,609.1406 1283.0156,608.7031 Q1283.2813,608.4375 1283.4219,608.3594 Q1283.5781,608.2813 1283.7813,608.2813 Q1284.1094,608.2813 1284.3594,608.5469 Q1284.625,608.7969 1284.625,609.1406 Q1284.625,609.4844 1284.2813,609.8906 Q1283.7813,610.4688 1282.9844,610.7969 Q1281.9063,611.25 1280.6094,611.25 Q1279.0938,611.25 1277.8906,610.625 Q1276.9063,610.125 1276.2188,609.0625 Q1275.5313,607.9844 1275.5313,606.7031 L1275.5313,605.5469 Q1275.5313,604.2188 1276.1406,603.0781 Q1276.7656,601.9219 1277.8594,601.3125 Q1278.9531,600.6875 1280.1875,600.6875 Q1280.9219,600.6875 1281.5625,600.8594 Q1282.2188,601.0156 1282.7656,601.375 Z " fill="#000000"/><text fill="#000000" font-family="FG Virgil" font-size="14" lengthAdjust="spacing" textLength="178" x="1294" y="611.2969">JobRequirementsRepository</text><line style="stroke:#181818;stroke-width:0.5;" x1="1266" x2="1474" y1="621.5" y2="621.5"/><line style="stroke:#181818;stroke-width:0.5;" x1="1266" x2="1474" y1="629.5" y2="629.5"/></g><!--link GenerateJobRequirementTemplateUI to GenerateJobRequirementTemplateController--><g id="link_GenerateJobRequirementTemplateUI_GenerateJobRequirementTemplateController"><path codeLine="40" d="M299,123.12 C299,146.17 299,172.83 299,196.4 " fill="none" id="GenerateJobRequirementTemplateUI-to-GenerateJobRequirementTemplateController" style="stroke:#181818;stroke-width:1.0;"/><polygon fill="#181818" points="299,201.69,303,192.69,299,196.69,295,192.69,299,201.69" style="stroke:#181818;stroke-width:1.0;"/><text fill="#000000" font-family="FG Virgil" font-size="13" lengthAdjust="spacing" textLength="75" x="300" y="168.0283">the controller</text></g><!--link GenerateJobRequirementTemplateController to PersistenceContext--><g id="link_GenerateJobRequirementTemplateController_PersistenceContext"><path codeLine="41" d="M526.73,201.97 C640.87,179.02 781.5,159.99 908.5,169 C1012.17,176.35 1042.19,166.87 1140,202 C1155.03,207.4 1170.26,215.36 1183.99,223.66 " fill="none" id="GenerateJobRequirementTemplateController-to-PersistenceContext" style="stroke:#181818;stroke-width:1.0;"/><polygon fill="#181818" points="1188.59,226.49,1183.0336,218.3582,1184.3356,223.8631,1178.8307,225.1652,1188.59,226.49" style="stroke:#181818;stroke-width:1.0;"/><text fill="#000000" font-family="FG Virgil" font-size="13" lengthAdjust="spacing" textLength="67" x="840.5" y="168.0283">persistence</text></g><!--link PersistenceContext to RepositoryFactory--><g id="link_PersistenceContext_RepositoryFactory"><path codeLine="42" d="M1235,293.57 C1235,320.59 1235,359.63 1235,391.69 " fill="none" id="PersistenceContext-to-RepositoryFactory" style="stroke:#181818;stroke-width:1.0;"/><polygon fill="#181818" points="1235,396.78,1239,387.78,1235,391.78,1231,387.78,1235,396.78" style="stroke:#181818;stroke-width:1.0;"/><text fill="#000000" font-family="FG Virgil" font-size="13" lengthAdjust="spacing" textLength="39" x="1236" y="363.0283">factory</text></g><!--link RepositoryFactory to JobOpeningRepository--><g id="link_RepositoryFactory_JobOpeningRepository"><path codeLine="43" d="M1192.29,501.42 C1172.21,525.58 1148.75,553.82 1130.5,575.79 " fill="none" id="RepositoryFactory-to-JobOpeningRepository" style="stroke:#181818;stroke-width:1.0;"/><polygon fill="#181818" points="1127.16,579.81,1135.9833,575.4341,1130.3511,575.9607,1129.8245,570.3284,1127.16,579.81" style="stroke:#181818;stroke-width:1.0;"/><text fill="#000000" font-family="FG Virgil" font-size="13" lengthAdjust="spacing" textLength="127" x="1169" y="546.0283">jobOpeningRepository</text></g><!--link RepositoryFactory to JobRequirementsRepository--><g id="link_RepositoryFactory_JobRequirementsRepository"><path codeLine="44" d="M1279.74,501.16 C1288.2,511 1296.93,521.28 1305,531 C1319.92,548.97 1336.32,569.54 1348.91,585.51 " fill="none" id="RepositoryFactory-to-JobRequirementsRepository" style="stroke:#181818;stroke-width:1.0;"/><polygon fill="#181818" points="1352.03,589.47,1349.6164,579.9215,1348.9415,585.5379,1343.3251,584.863,1352.03,589.47" style="stroke:#181818;stroke-width:1.0;"/><text fill="#000000" font-family="FG Virgil" font-size="13" lengthAdjust="spacing" textLength="152" x="1320" y="546.0283">jobRequirementRepository</text></g><!--link GenerateJobRequirementTemplateController to JobRequirementPlugin--><g id="link_GenerateJobRequirementTemplateController_JobRequirementPlugin"><path codeLine="45" d="M591.38,260 C644.6,260 698.83,260 748.1,260 " fill="none" id="GenerateJobRequirementTemplateController-to-JobRequirementPlugin" style="stroke:#181818;stroke-width:1.0;"/><polygon fill="#181818" points="753.16,260,744.16,256,748.16,260,744.16,264,753.16,260" style="stroke:#181818;stroke-width:1.0;"/><text fill="#000000" font-family="FG Virgil" font-size="13" lengthAdjust="spacing" textLength="126" x="609.25" y="253.0283">jobRequirementPlugin</text></g><!--SRC=[fLDTJy8m57tlhxXlGeX_O24aQ8HWeX9Htyjs6SNIrhOJYV6_UylOLcH4Z7lPxiSvzzoFNRXNeGotVCtgBp0yVUKvplnM8bXCVHJBSC4BwKTQ-Nk-HXYDuKNONCWenorvfZT2vU1jWOobaZi7OrHekSTRFN_4jq9ONAFoJxWsahpF4-ZtZKL7Fkw5LeC1V3AWfvVfsL9lEjtIMYBFf51OsOvYTwYAeSh6w6SeII_1AVnrNkLhQiLgAT6I0cwC5EaF0L8uFvIIu0y65VNbEbr8OEA9TIwntmG69M0XL3QLHIxKrNPNT84MLOgTLMGGGnphLdOjiEJAz-AflviFewrlxwAahjr7P85-vYrfREOoHUkejL0z304_VDLnQZ5mTXDuro9h48zej1DUs-s8f-5L0HQbMIDspbKyi9sWlTdGr8cHr2evTaM8MamRNz3JWp1_MbY8djvKpJEXrksxmCsTpb0USi6UxLzxZ1L7_l92FjdPApxSuQ__q-NbuEpJJy0l4TBQPcV_CrIavOuIC8sJjIG4SSVNbC3-aDXnB21QLvx0gksoJZAqtrL94yKYghyCest7Hzobctq3]--></g></svg>