<?xml version="1.0" encoding="us-ascii" standalone="no"?><svg xmlns="http://www.w3.org/2000/svg" xmlns:xlink="http://www.w3.org/1999/xlink" contentStyleType="text/css" height="939px" preserveAspectRatio="none" style="width:1152px;height:939px;background:#FFFFFF;" version="1.1" viewBox="0 0 1152 939" width="1152px" zoomAndPan="magnify"><defs/><g><!--class ListOrderedCandidatesUI--><g id="elem_ListOrderedCandidatesUI"><rect codeLine="6" fill="#F1F1F1" height="79.2031" id="ListOrderedCandidatesUI" rx="2.5" ry="2.5" style="stroke:#181818;stroke-width:0.5;" width="191" x="371.5" y="7"/><ellipse cx="386.5" cy="29.291" fill="#ADD1B2" rx="11" ry="11" style="stroke:#181818;stroke-width:1.0;"/><path d="M389.2656,25.166 Q389.4219,24.9473 389.6094,24.8379 Q389.7969,24.7285 390.0156,24.7285 Q390.3906,24.7285 390.625,24.9941 Q390.8594,25.2441 390.8594,25.8535 L390.8594,27.3066 Q390.8594,27.916 390.625,28.1816 Q390.3906,28.4473 390.0156,28.4473 Q389.6719,28.4473 389.4688,28.2441 Q389.2656,28.0566 389.1563,27.541 Q389.1094,27.1816 388.9219,26.9941 Q388.5938,26.6191 387.9844,26.4004 Q387.375,26.1816 386.75,26.1816 Q385.9844,26.1816 385.3438,26.5098 Q384.7188,26.8379 384.2188,27.5879 Q383.7344,28.3379 383.7344,29.3691 L383.7344,30.4629 Q383.7344,31.6973 384.625,32.5254 Q385.5156,33.3379 387.1094,33.3379 Q388.0469,33.3379 388.7031,33.0879 Q389.0938,32.9316 389.5156,32.4941 Q389.7813,32.2285 389.9219,32.1504 Q390.0781,32.0723 390.2813,32.0723 Q390.6094,32.0723 390.8594,32.3379 Q391.125,32.5879 391.125,32.9316 Q391.125,33.2754 390.7813,33.6816 Q390.2813,34.2598 389.4844,34.5879 Q388.4063,35.041 387.1094,35.041 Q385.5938,35.041 384.3906,34.416 Q383.4063,33.916 382.7188,32.8535 Q382.0313,31.7754 382.0313,30.4941 L382.0313,29.3379 Q382.0313,28.0098 382.6406,26.8691 Q383.2656,25.7129 384.3594,25.1035 Q385.4531,24.4785 386.6875,24.4785 Q387.4219,24.4785 388.0625,24.6504 Q388.7188,24.8066 389.2656,25.166 Z " fill="#000000"/><text fill="#000000" font-family="FG Virgil" font-size="12" font-style="italic" lengthAdjust="spacing" textLength="82" x="439" y="24.9492">&#171;presentation&#187;</text><text fill="#000000" font-family="FG Virgil" font-size="14" lengthAdjust="spacing" textLength="159" x="400.5" y="43.0684">ListOrderedCandidatesUI</text><line style="stroke:#181818;stroke-width:0.5;" x1="372.5" x2="561.5" y1="51.582" y2="51.582"/><line style="stroke:#181818;stroke-width:0.5;" x1="372.5" x2="561.5" y1="59.582" y2="59.582"/><ellipse cx="382.5" cy="74.3926" fill="#84BE84" rx="3" ry="3" style="stroke:#038048;stroke-width:1.0;"/><text fill="#000000" font-family="FG Virgil" font-size="14" lengthAdjust="spacing" textLength="60" x="391.5" y="78.6895">doShow()</text></g><!--class ListOrderedCandidatesController--><g id="elem_ListOrderedCandidatesController"><rect codeLine="10" fill="#F1F1F1" height="116.4453" id="ListOrderedCandidatesController" rx="2.5" ry="2.5" style="stroke:#181818;stroke-width:0.5;" width="475" x="229.5" y="165"/><ellipse cx="358.25" cy="187.291" fill="#ADD1B2" rx="11" ry="11" style="stroke:#181818;stroke-width:1.0;"/><path d="M361.0156,183.166 Q361.1719,182.9473 361.3594,182.8379 Q361.5469,182.7285 361.7656,182.7285 Q362.1406,182.7285 362.375,182.9941 Q362.6094,183.2441 362.6094,183.8535 L362.6094,185.3066 Q362.6094,185.916 362.375,186.1816 Q362.1406,186.4473 361.7656,186.4473 Q361.4219,186.4473 361.2188,186.2441 Q361.0156,186.0566 360.9063,185.541 Q360.8594,185.1816 360.6719,184.9941 Q360.3438,184.6191 359.7344,184.4004 Q359.125,184.1816 358.5,184.1816 Q357.7344,184.1816 357.0938,184.5098 Q356.4688,184.8379 355.9688,185.5879 Q355.4844,186.3379 355.4844,187.3691 L355.4844,188.4629 Q355.4844,189.6973 356.375,190.5254 Q357.2656,191.3379 358.8594,191.3379 Q359.7969,191.3379 360.4531,191.0879 Q360.8438,190.9316 361.2656,190.4941 Q361.5313,190.2285 361.6719,190.1504 Q361.8281,190.0723 362.0313,190.0723 Q362.3594,190.0723 362.6094,190.3379 Q362.875,190.5879 362.875,190.9316 Q362.875,191.2754 362.5313,191.6816 Q362.0313,192.2598 361.2344,192.5879 Q360.1563,193.041 358.8594,193.041 Q357.3438,193.041 356.1406,192.416 Q355.1563,191.916 354.4688,190.8535 Q353.7813,189.7754 353.7813,188.4941 L353.7813,187.3379 Q353.7813,186.0098 354.3906,184.8691 Q355.0156,183.7129 356.1094,183.1035 Q357.2031,182.4785 358.4375,182.4785 Q359.1719,182.4785 359.8125,182.6504 Q360.4688,182.8066 361.0156,183.166 Z " fill="#000000"/><text fill="#000000" font-family="FG Virgil" font-size="12" font-style="italic" lengthAdjust="spacing" textLength="74" x="446.25" y="182.9492">&#171;application&#187;</text><text fill="#000000" font-family="FG Virgil" font-size="14" lengthAdjust="spacing" textLength="209" x="378.75" y="201.0684">ListOrderedCandidatesController</text><line style="stroke:#181818;stroke-width:0.5;" x1="230.5" x2="703.5" y1="209.582" y2="209.582"/><line style="stroke:#181818;stroke-width:0.5;" x1="230.5" x2="703.5" y1="217.582" y2="217.582"/><ellipse cx="240.5" cy="232.3926" fill="#84BE84" rx="3" ry="3" style="stroke:#038048;stroke-width:1.0;"/><text fill="#000000" font-family="FG Virgil" font-size="14" lengthAdjust="spacing" textLength="50" x="249.5" y="236.6895">create()</text><ellipse cx="240.5" cy="251.0137" fill="#84BE84" rx="3" ry="3" style="stroke:#038048;stroke-width:1.0;"/><text fill="#000000" font-family="FG Virgil" font-size="14" lengthAdjust="spacing" textLength="226" x="249.5" y="255.3105">allApplications(String jobReference)</text><ellipse cx="240.5" cy="269.6348" fill="#84BE84" rx="3" ry="3" style="stroke:#038048;stroke-width:1.0;"/><text fill="#000000" font-family="FG Virgil" font-size="14" lengthAdjust="spacing" textLength="449" x="249.5" y="273.9316">findInterviewsAndSortCandidates(Iterator&lt;JobApplication&gt; applications)</text></g><!--class AuthorizationService--><g id="elem_AuthorizationService"><rect codeLine="16" fill="#F1F1F1" height="79.2031" id="AuthorizationService" rx="2.5" ry="2.5" style="stroke:#181818;stroke-width:0.5;" width="290" x="7" y="369.5"/><ellipse cx="83.25" cy="391.791" fill="#ADD1B2" rx="11" ry="11" style="stroke:#181818;stroke-width:1.0;"/><path d="M86.0156,387.666 Q86.1719,387.4473 86.3594,387.3379 Q86.5469,387.2285 86.7656,387.2285 Q87.1406,387.2285 87.375,387.4941 Q87.6094,387.7441 87.6094,388.3535 L87.6094,389.8066 Q87.6094,390.416 87.375,390.6816 Q87.1406,390.9473 86.7656,390.9473 Q86.4219,390.9473 86.2188,390.7441 Q86.0156,390.5566 85.9063,390.041 Q85.8594,389.6816 85.6719,389.4941 Q85.3438,389.1191 84.7344,388.9004 Q84.125,388.6816 83.5,388.6816 Q82.7344,388.6816 82.0938,389.0098 Q81.4688,389.3379 80.9688,390.0879 Q80.4844,390.8379 80.4844,391.8691 L80.4844,392.9629 Q80.4844,394.1973 81.375,395.0254 Q82.2656,395.8379 83.8594,395.8379 Q84.7969,395.8379 85.4531,395.5879 Q85.8438,395.4316 86.2656,394.9941 Q86.5313,394.7285 86.6719,394.6504 Q86.8281,394.5723 87.0313,394.5723 Q87.3594,394.5723 87.6094,394.8379 Q87.875,395.0879 87.875,395.4316 Q87.875,395.7754 87.5313,396.1816 Q87.0313,396.7598 86.2344,397.0879 Q85.1563,397.541 83.8594,397.541 Q82.3438,397.541 81.1406,396.916 Q80.1563,396.416 79.4688,395.3535 Q78.7813,394.2754 78.7813,392.9941 L78.7813,391.8379 Q78.7813,390.5098 79.3906,389.3691 Q80.0156,388.2129 81.1094,387.6035 Q82.2031,386.9785 83.4375,386.9785 Q84.1719,386.9785 84.8125,387.1504 Q85.4688,387.3066 86.0156,387.666 Z " fill="#000000"/><text fill="#000000" font-family="FG Virgil" font-size="12" font-style="italic" lengthAdjust="spacing" textLength="53" x="141.75" y="387.4492">&#171;service&#187;</text><text fill="#000000" font-family="FG Virgil" font-size="14" lengthAdjust="spacing" textLength="129" x="103.75" y="405.5684">AuthorizationService</text><line style="stroke:#181818;stroke-width:0.5;" x1="8" x2="296" y1="414.082" y2="414.082"/><line style="stroke:#181818;stroke-width:0.5;" x1="8" x2="296" y1="422.082" y2="422.082"/><ellipse cx="18" cy="436.8926" fill="#84BE84" rx="3" ry="3" style="stroke:#038048;stroke-width:1.0;"/><text fill="#000000" font-family="FG Virgil" font-size="14" lengthAdjust="spacing" textLength="264" x="27" y="441.1895">ensureAuthenticatedUserHasAnyOf(roles)</text></g><!--class JobApplicationService--><g id="elem_JobApplicationService"><rect codeLine="20" fill="#F1F1F1" height="79.2031" id="JobApplicationService" rx="2.5" ry="2.5" style="stroke:#181818;stroke-width:0.5;" width="270" x="332" y="369.5"/><ellipse cx="393.75" cy="391.791" fill="#ADD1B2" rx="11" ry="11" style="stroke:#181818;stroke-width:1.0;"/><path d="M396.5156,387.666 Q396.6719,387.4473 396.8594,387.3379 Q397.0469,387.2285 397.2656,387.2285 Q397.6406,387.2285 397.875,387.4941 Q398.1094,387.7441 398.1094,388.3535 L398.1094,389.8066 Q398.1094,390.416 397.875,390.6816 Q397.6406,390.9473 397.2656,390.9473 Q396.9219,390.9473 396.7188,390.7441 Q396.5156,390.5566 396.4063,390.041 Q396.3594,389.6816 396.1719,389.4941 Q395.8438,389.1191 395.2344,388.9004 Q394.625,388.6816 394,388.6816 Q393.2344,388.6816 392.5938,389.0098 Q391.9688,389.3379 391.4688,390.0879 Q390.9844,390.8379 390.9844,391.8691 L390.9844,392.9629 Q390.9844,394.1973 391.875,395.0254 Q392.7656,395.8379 394.3594,395.8379 Q395.2969,395.8379 395.9531,395.5879 Q396.3438,395.4316 396.7656,394.9941 Q397.0313,394.7285 397.1719,394.6504 Q397.3281,394.5723 397.5313,394.5723 Q397.8594,394.5723 398.1094,394.8379 Q398.375,395.0879 398.375,395.4316 Q398.375,395.7754 398.0313,396.1816 Q397.5313,396.7598 396.7344,397.0879 Q395.6563,397.541 394.3594,397.541 Q392.8438,397.541 391.6406,396.916 Q390.6563,396.416 389.9688,395.3535 Q389.2813,394.2754 389.2813,392.9941 L389.2813,391.8379 Q389.2813,390.5098 389.8906,389.3691 Q390.5156,388.2129 391.6094,387.6035 Q392.7031,386.9785 393.9375,386.9785 Q394.6719,386.9785 395.3125,387.1504 Q395.9688,387.3066 396.5156,387.666 Z " fill="#000000"/><text fill="#000000" font-family="FG Virgil" font-size="12" font-style="italic" lengthAdjust="spacing" textLength="53" x="456.75" y="387.4492">&#171;service&#187;</text><text fill="#000000" font-family="FG Virgil" font-size="14" lengthAdjust="spacing" textLength="138" x="414.25" y="405.5684">JobApplicationService</text><line style="stroke:#181818;stroke-width:0.5;" x1="333" x2="601" y1="414.082" y2="414.082"/><line style="stroke:#181818;stroke-width:0.5;" x1="333" x2="601" y1="422.082" y2="422.082"/><ellipse cx="343" cy="436.8926" fill="#84BE84" rx="3" ry="3" style="stroke:#038048;stroke-width:1.0;"/><text fill="#000000" font-family="FG Virgil" font-size="14" lengthAdjust="spacing" textLength="244" x="352" y="441.1895">listAllApplications(String jobReference)</text></g><!--class InterviewService--><g id="elem_InterviewService"><rect codeLine="24" fill="#F1F1F1" height="97.8242" id="InterviewService" rx="2.5" ry="2.5" style="stroke:#181818;stroke-width:0.5;" width="508" x="637" y="360"/><ellipse cx="835.75" cy="382.291" fill="#ADD1B2" rx="11" ry="11" style="stroke:#181818;stroke-width:1.0;"/><path d="M838.5156,378.166 Q838.6719,377.9473 838.8594,377.8379 Q839.0469,377.7285 839.2656,377.7285 Q839.6406,377.7285 839.875,377.9941 Q840.1094,378.2441 840.1094,378.8535 L840.1094,380.3066 Q840.1094,380.916 839.875,381.1816 Q839.6406,381.4473 839.2656,381.4473 Q838.9219,381.4473 838.7188,381.2441 Q838.5156,381.0566 838.4063,380.541 Q838.3594,380.1816 838.1719,379.9941 Q837.8438,379.6191 837.2344,379.4004 Q836.625,379.1816 836,379.1816 Q835.2344,379.1816 834.5938,379.5098 Q833.9688,379.8379 833.4688,380.5879 Q832.9844,381.3379 832.9844,382.3691 L832.9844,383.4629 Q832.9844,384.6973 833.875,385.5254 Q834.7656,386.3379 836.3594,386.3379 Q837.2969,386.3379 837.9531,386.0879 Q838.3438,385.9316 838.7656,385.4941 Q839.0313,385.2285 839.1719,385.1504 Q839.3281,385.0723 839.5313,385.0723 Q839.8594,385.0723 840.1094,385.3379 Q840.375,385.5879 840.375,385.9316 Q840.375,386.2754 840.0313,386.6816 Q839.5313,387.2598 838.7344,387.5879 Q837.6563,388.041 836.3594,388.041 Q834.8438,388.041 833.6406,387.416 Q832.6563,386.916 831.9688,385.8535 Q831.2813,384.7754 831.2813,383.4941 L831.2813,382.3379 Q831.2813,381.0098 831.8906,379.8691 Q832.5156,378.7129 833.6094,378.1035 Q834.7031,377.4785 835.9375,377.4785 Q836.6719,377.4785 837.3125,377.6504 Q837.9688,377.8066 838.5156,378.166 Z " fill="#000000"/><text fill="#000000" font-family="FG Virgil" font-size="12" font-style="italic" lengthAdjust="spacing" textLength="53" x="880.75" y="377.9492">&#171;service&#187;</text><text fill="#000000" font-family="FG Virgil" font-size="14" lengthAdjust="spacing" textLength="102" x="856.25" y="396.0684">InterviewService</text><line style="stroke:#181818;stroke-width:0.5;" x1="638" x2="1144" y1="404.582" y2="404.582"/><line style="stroke:#181818;stroke-width:0.5;" x1="638" x2="1144" y1="412.582" y2="412.582"/><ellipse cx="648" cy="427.3926" fill="#84BE84" rx="3" ry="3" style="stroke:#038048;stroke-width:1.0;"/><text fill="#000000" font-family="FG Virgil" font-size="14" lengthAdjust="spacing" textLength="460" x="657" y="431.6895">associateInterviewsAndCandidates(Iterator&lt;JobApplication&gt; applications)</text><ellipse cx="648" cy="446.0137" fill="#84BE84" rx="3" ry="3" style="stroke:#038048;stroke-width:1.0;"/><text fill="#000000" font-family="FG Virgil" font-size="14" lengthAdjust="spacing" textLength="482" x="657" y="450.3105">sortingCandidates(Map&lt;Candidate,Interview&gt; interviewsAndCandidatesMap)</text></g><!--class PersistenceContext--><g id="elem_PersistenceContext"><rect codeLine="29" fill="#F1F1F1" height="79.2031" id="PersistenceContext" rx="2.5" ry="2.5" style="stroke:#181818;stroke-width:0.5;" width="154" x="602" y="537"/><ellipse cx="617" cy="559.291" fill="#ADD1B2" rx="11" ry="11" style="stroke:#181818;stroke-width:1.0;"/><path d="M619.7656,555.166 Q619.9219,554.9473 620.1094,554.8379 Q620.2969,554.7285 620.5156,554.7285 Q620.8906,554.7285 621.125,554.9941 Q621.3594,555.2441 621.3594,555.8535 L621.3594,557.3066 Q621.3594,557.916 621.125,558.1816 Q620.8906,558.4473 620.5156,558.4473 Q620.1719,558.4473 619.9688,558.2441 Q619.7656,558.0566 619.6563,557.541 Q619.6094,557.1816 619.4219,556.9941 Q619.0938,556.6191 618.4844,556.4004 Q617.875,556.1816 617.25,556.1816 Q616.4844,556.1816 615.8438,556.5098 Q615.2188,556.8379 614.7188,557.5879 Q614.2344,558.3379 614.2344,559.3691 L614.2344,560.4629 Q614.2344,561.6973 615.125,562.5254 Q616.0156,563.3379 617.6094,563.3379 Q618.5469,563.3379 619.2031,563.0879 Q619.5938,562.9316 620.0156,562.4941 Q620.2813,562.2285 620.4219,562.1504 Q620.5781,562.0723 620.7813,562.0723 Q621.1094,562.0723 621.3594,562.3379 Q621.625,562.5879 621.625,562.9316 Q621.625,563.2754 621.2813,563.6816 Q620.7813,564.2598 619.9844,564.5879 Q618.9063,565.041 617.6094,565.041 Q616.0938,565.041 614.8906,564.416 Q613.9063,563.916 613.2188,562.8535 Q612.5313,561.7754 612.5313,560.4941 L612.5313,559.3379 Q612.5313,558.0098 613.1406,556.8691 Q613.7656,555.7129 614.8594,555.1035 Q615.9531,554.4785 617.1875,554.4785 Q617.9219,554.4785 618.5625,554.6504 Q619.2188,554.8066 619.7656,555.166 Z " fill="#000000"/><text fill="#000000" font-family="FG Virgil" font-size="12" font-style="italic" lengthAdjust="spacing" textLength="77" x="653.5" y="554.9492">&#171;persistence&#187;</text><text fill="#000000" font-family="FG Virgil" font-size="14" lengthAdjust="spacing" textLength="122" x="631" y="573.0684">PersistenceContext</text><line style="stroke:#181818;stroke-width:0.5;" x1="603" x2="755" y1="581.582" y2="581.582"/><line style="stroke:#181818;stroke-width:0.5;" x1="603" x2="755" y1="589.582" y2="589.582"/><ellipse cx="613" cy="604.3926" fill="#84BE84" rx="3" ry="3" style="stroke:#038048;stroke-width:1.0;"/><text fill="#000000" font-family="FG Virgil" font-size="14" lengthAdjust="spacing" textLength="84" x="622" y="608.6895">repositories()</text></g><!--class RepositoryFactory--><g id="elem_RepositoryFactory"><rect codeLine="33" fill="#F1F1F1" height="79.2031" id="RepositoryFactory" rx="2.5" ry="2.5" style="stroke:#181818;stroke-width:0.5;" width="148" x="605" y="695"/><ellipse cx="620" cy="717.291" fill="#ADD1B2" rx="11" ry="11" style="stroke:#181818;stroke-width:1.0;"/><path d="M622.7656,713.166 Q622.9219,712.9473 623.1094,712.8379 Q623.2969,712.7285 623.5156,712.7285 Q623.8906,712.7285 624.125,712.9941 Q624.3594,713.2441 624.3594,713.8535 L624.3594,715.3066 Q624.3594,715.916 624.125,716.1816 Q623.8906,716.4473 623.5156,716.4473 Q623.1719,716.4473 622.9688,716.2441 Q622.7656,716.0566 622.6563,715.541 Q622.6094,715.1816 622.4219,714.9941 Q622.0938,714.6191 621.4844,714.4004 Q620.875,714.1816 620.25,714.1816 Q619.4844,714.1816 618.8438,714.5098 Q618.2188,714.8379 617.7188,715.5879 Q617.2344,716.3379 617.2344,717.3691 L617.2344,718.4629 Q617.2344,719.6973 618.125,720.5254 Q619.0156,721.3379 620.6094,721.3379 Q621.5469,721.3379 622.2031,721.0879 Q622.5938,720.9316 623.0156,720.4941 Q623.2813,720.2285 623.4219,720.1504 Q623.5781,720.0723 623.7813,720.0723 Q624.1094,720.0723 624.3594,720.3379 Q624.625,720.5879 624.625,720.9316 Q624.625,721.2754 624.2813,721.6816 Q623.7813,722.2598 622.9844,722.5879 Q621.9063,723.041 620.6094,723.041 Q619.0938,723.041 617.8906,722.416 Q616.9063,721.916 616.2188,720.8535 Q615.5313,719.7754 615.5313,718.4941 L615.5313,717.3379 Q615.5313,716.0098 616.1406,714.8691 Q616.7656,713.7129 617.8594,713.1035 Q618.9531,712.4785 620.1875,712.4785 Q620.9219,712.4785 621.5625,712.6504 Q622.2188,712.8066 622.7656,713.166 Z " fill="#000000"/><text fill="#000000" font-family="FG Virgil" font-size="12" font-style="italic" lengthAdjust="spacing" textLength="50" x="667" y="712.9492">&#171;factory&#187;</text><text fill="#000000" font-family="FG Virgil" font-size="14" lengthAdjust="spacing" textLength="116" x="634" y="731.0684">RepositoryFactory</text><line style="stroke:#181818;stroke-width:0.5;" x1="606" x2="752" y1="739.582" y2="739.582"/><line style="stroke:#181818;stroke-width:0.5;" x1="606" x2="752" y1="747.582" y2="747.582"/><ellipse cx="616" cy="762.3926" fill="#84BE84" rx="3" ry="3" style="stroke:#038048;stroke-width:1.0;"/><text fill="#000000" font-family="FG Virgil" font-size="14" lengthAdjust="spacing" textLength="50" x="625" y="766.6895">create()</text></g><!--class JobApplicationRepository--><g id="elem_JobApplicationRepository"><rect codeLine="37" fill="#F1F1F1" height="79.2031" id="JobApplicationRepository" rx="2.5" ry="2.5" style="stroke:#181818;stroke-width:0.5;" width="289" x="387.5" y="853"/><ellipse cx="448.25" cy="875.291" fill="#ADD1B2" rx="11" ry="11" style="stroke:#181818;stroke-width:1.0;"/><path d="M451.0156,871.166 Q451.1719,870.9473 451.3594,870.8379 Q451.5469,870.7285 451.7656,870.7285 Q452.1406,870.7285 452.375,870.9941 Q452.6094,871.2441 452.6094,871.8535 L452.6094,873.3066 Q452.6094,873.916 452.375,874.1816 Q452.1406,874.4473 451.7656,874.4473 Q451.4219,874.4473 451.2188,874.2441 Q451.0156,874.0566 450.9063,873.541 Q450.8594,873.1816 450.6719,872.9941 Q450.3438,872.6191 449.7344,872.4004 Q449.125,872.1816 448.5,872.1816 Q447.7344,872.1816 447.0938,872.5098 Q446.4688,872.8379 445.9688,873.5879 Q445.4844,874.3379 445.4844,875.3691 L445.4844,876.4629 Q445.4844,877.6973 446.375,878.5254 Q447.2656,879.3379 448.8594,879.3379 Q449.7969,879.3379 450.4531,879.0879 Q450.8438,878.9316 451.2656,878.4941 Q451.5313,878.2285 451.6719,878.1504 Q451.8281,878.0723 452.0313,878.0723 Q452.3594,878.0723 452.6094,878.3379 Q452.875,878.5879 452.875,878.9316 Q452.875,879.2754 452.5313,879.6816 Q452.0313,880.2598 451.2344,880.5879 Q450.1563,881.041 448.8594,881.041 Q447.3438,881.041 446.1406,880.416 Q445.1563,879.916 444.4688,878.8535 Q443.7813,877.7754 443.7813,876.4941 L443.7813,875.3379 Q443.7813,874.0098 444.3906,872.8691 Q445.0156,871.7129 446.1094,871.1035 Q447.2031,870.4785 448.4375,870.4785 Q449.1719,870.4785 449.8125,870.6504 Q450.4688,870.8066 451.0156,871.166 Z " fill="#000000"/><text fill="#000000" font-family="FG Virgil" font-size="12" font-style="italic" lengthAdjust="spacing" textLength="68" x="514.25" y="870.9492">&#171;repository&#187;</text><text fill="#000000" font-family="FG Virgil" font-size="14" lengthAdjust="spacing" textLength="159" x="468.75" y="889.0684">JobApplicationRepository</text><line style="stroke:#181818;stroke-width:0.5;" x1="388.5" x2="675.5" y1="897.582" y2="897.582"/><line style="stroke:#181818;stroke-width:0.5;" x1="388.5" x2="675.5" y1="905.582" y2="905.582"/><ellipse cx="398.5" cy="920.3926" fill="#84BE84" rx="3" ry="3" style="stroke:#038048;stroke-width:1.0;"/><text fill="#000000" font-family="FG Virgil" font-size="14" lengthAdjust="spacing" textLength="263" x="407.5" y="924.6895">findByJobReference(String jobReference)</text></g><!--class InterviewRepository--><g id="elem_InterviewRepository"><rect codeLine="41" fill="#F1F1F1" height="79.2031" id="InterviewRepository" rx="2.5" ry="2.5" style="stroke:#181818;stroke-width:0.5;" width="229" x="711.5" y="853"/><ellipse cx="760.25" cy="875.291" fill="#ADD1B2" rx="11" ry="11" style="stroke:#181818;stroke-width:1.0;"/><path d="M763.0156,871.166 Q763.1719,870.9473 763.3594,870.8379 Q763.5469,870.7285 763.7656,870.7285 Q764.1406,870.7285 764.375,870.9941 Q764.6094,871.2441 764.6094,871.8535 L764.6094,873.3066 Q764.6094,873.916 764.375,874.1816 Q764.1406,874.4473 763.7656,874.4473 Q763.4219,874.4473 763.2188,874.2441 Q763.0156,874.0566 762.9063,873.541 Q762.8594,873.1816 762.6719,872.9941 Q762.3438,872.6191 761.7344,872.4004 Q761.125,872.1816 760.5,872.1816 Q759.7344,872.1816 759.0938,872.5098 Q758.4688,872.8379 757.9688,873.5879 Q757.4844,874.3379 757.4844,875.3691 L757.4844,876.4629 Q757.4844,877.6973 758.375,878.5254 Q759.2656,879.3379 760.8594,879.3379 Q761.7969,879.3379 762.4531,879.0879 Q762.8438,878.9316 763.2656,878.4941 Q763.5313,878.2285 763.6719,878.1504 Q763.8281,878.0723 764.0313,878.0723 Q764.3594,878.0723 764.6094,878.3379 Q764.875,878.5879 764.875,878.9316 Q764.875,879.2754 764.5313,879.6816 Q764.0313,880.2598 763.2344,880.5879 Q762.1563,881.041 760.8594,881.041 Q759.3438,881.041 758.1406,880.416 Q757.1563,879.916 756.4688,878.8535 Q755.7813,877.7754 755.7813,876.4941 L755.7813,875.3379 Q755.7813,874.0098 756.3906,872.8691 Q757.0156,871.7129 758.1094,871.1035 Q759.2031,870.4785 760.4375,870.4785 Q761.1719,870.4785 761.8125,870.6504 Q762.4688,870.8066 763.0156,871.166 Z " fill="#000000"/><text fill="#000000" font-family="FG Virgil" font-size="12" font-style="italic" lengthAdjust="spacing" textLength="68" x="808.25" y="870.9492">&#171;repository&#187;</text><text fill="#000000" font-family="FG Virgil" font-size="14" lengthAdjust="spacing" textLength="123" x="780.75" y="889.0684">InterviewRepository</text><line style="stroke:#181818;stroke-width:0.5;" x1="712.5" x2="939.5" y1="897.582" y2="897.582"/><line style="stroke:#181818;stroke-width:0.5;" x1="712.5" x2="939.5" y1="905.582" y2="905.582"/><ellipse cx="722.5" cy="920.3926" fill="#84BE84" rx="3" ry="3" style="stroke:#038048;stroke-width:1.0;"/><text fill="#000000" font-family="FG Virgil" font-size="14" lengthAdjust="spacing" textLength="203" x="731.5" y="924.6895">findInterview(Long applicationId)</text></g><!--link ListOrderedCandidatesUI to ListOrderedCandidatesController--><g id="link_ListOrderedCandidatesUI_ListOrderedCandidatesController"><path codeLine="45" d="M467,86.23 C467,107.79 467,135.14 467,159.64 " fill="none" id="ListOrderedCandidatesUI-to-ListOrderedCandidatesController" style="stroke:#181818;stroke-width:1.0;"/><polygon fill="#181818" points="467,164.82,471,155.82,467,159.82,463,155.82,467,164.82" style="stroke:#181818;stroke-width:1.0;"/><text fill="#000000" font-family="FG Virgil" font-size="13" lengthAdjust="spacing" textLength="75" x="468" y="131.0283">the controller</text></g><!--link ListOrderedCandidatesController to AuthorizationService--><g id="link_ListOrderedCandidatesController_AuthorizationService"><path codeLine="46" d="M369.06,281.21 C321.57,308.95 265.6,341.64 222.39,366.88 " fill="none" id="ListOrderedCandidatesController-to-AuthorizationService" style="stroke:#181818;stroke-width:1.0;"/><polygon fill="#181818" points="217.99,369.46,227.7773,368.3601,222.3037,366.9318,223.7321,361.4582,217.99,369.46" style="stroke:#181818;stroke-width:1.0;"/><text fill="#000000" font-family="FG Virgil" font-size="13" lengthAdjust="spacing" textLength="76" x="311" y="326.0283">authz service</text></g><!--link ListOrderedCandidatesController to JobApplicationService--><g id="link_ListOrderedCandidatesController_JobApplicationService"><path codeLine="47" d="M467,281.21 C467,308 467,339.4 467,364.26 " fill="none" id="ListOrderedCandidatesController-to-JobApplicationService" style="stroke:#181818;stroke-width:1.0;"/><polygon fill="#181818" points="467,369.46,471,360.46,467,364.46,463,360.46,467,369.46" style="stroke:#181818;stroke-width:1.0;"/><text fill="#000000" font-family="FG Virgil" font-size="13" lengthAdjust="spacing" textLength="127" x="468" y="326.0283">job application service</text></g><!--link ListOrderedCandidatesController to InterviewService--><g id="link_ListOrderedCandidatesController_InterviewService"><path codeLine="48" d="M598.54,281.08 C655.19,305.67 720.83,334.15 775.55,357.9 " fill="none" id="ListOrderedCandidatesController-to-InterviewService" style="stroke:#181818;stroke-width:1.0;"/><polygon fill="#181818" points="780.14,359.89,773.4705,352.6431,775.5517,357.9032,770.2916,359.9843,780.14,359.89" style="stroke:#181818;stroke-width:1.0;"/><text fill="#000000" font-family="FG Virgil" font-size="13" lengthAdjust="spacing" textLength="93" x="706" y="326.0283">interview service</text></g><!--link JobApplicationService to PersistenceContext--><g id="link_JobApplicationService_PersistenceContext"><path codeLine="49" d="M516.44,448.59 C549.12,474.11 591.95,507.55 625.45,533.69 " fill="none" id="JobApplicationService-to-PersistenceContext" style="stroke:#181818;stroke-width:1.0;"/><polygon fill="#181818" points="629.48,536.85,624.8381,528.1636,625.5355,533.7773,619.9219,534.4748,629.48,536.85" style="stroke:#181818;stroke-width:1.0;"/><text fill="#000000" font-family="FG Virgil" font-size="13" lengthAdjust="spacing" textLength="67" x="587" y="503.0283">persistence</text></g><!--link PersistenceContext to RepositoryFactory--><g id="link_PersistenceContext_RepositoryFactory"><path codeLine="50" d="M679,616.06 C679,638.37 679,666.53 679,689.68 " fill="none" id="PersistenceContext-to-RepositoryFactory" style="stroke:#181818;stroke-width:1.0;"/><polygon fill="#181818" points="679,694.84,683,685.84,679,689.84,675,685.84,679,694.84" style="stroke:#181818;stroke-width:1.0;"/><text fill="#000000" font-family="FG Virgil" font-size="13" lengthAdjust="spacing" textLength="39" x="680" y="661.0283">factory</text></g><!--link RepositoryFactory to JobApplicationRepository--><g id="link_RepositoryFactory_JobApplicationRepository"><path codeLine="51" d="M642.66,774.06 C621.2,796.84 593.99,825.72 571.92,849.13 " fill="none" id="RepositoryFactory-to-JobApplicationRepository" style="stroke:#181818;stroke-width:1.0;"/><polygon fill="#181818" points="568.43,852.84,577.5111,849.0277,571.8568,849.199,571.6855,843.5447,568.43,852.84" style="stroke:#181818;stroke-width:1.0;"/><text fill="#000000" font-family="FG Virgil" font-size="13" lengthAdjust="spacing" textLength="144" x="616" y="819.0283">job application repository</text></g><!--link RepositoryFactory to InterviewRepository--><g id="link_RepositoryFactory_InterviewRepository"><path codeLine="52" d="M736.26,774.37 C747.73,783.42 759.24,793.5 769,804 C781.3,817.24 792.67,833.44 801.96,848.28 " fill="none" id="RepositoryFactory-to-InterviewRepository" style="stroke:#181818;stroke-width:1.0;"/><polygon fill="#181818" points="804.78,852.84,803.4552,843.0807,802.1531,848.5856,796.6482,847.2836,804.78,852.84" style="stroke:#181818;stroke-width:1.0;"/><text fill="#000000" font-family="FG Virgil" font-size="13" lengthAdjust="spacing" textLength="110" x="785" y="819.0283">interview repository</text></g><!--link InterviewService to PersistenceContext--><g id="link_InterviewService_PersistenceContext"><path codeLine="53" d="M829.4,458.09 C798.87,481.92 762.34,510.44 732.93,533.4 " fill="none" id="InterviewService-to-PersistenceContext" style="stroke:#181818;stroke-width:1.0;"/><polygon fill="#181818" points="728.64,536.74,738.1981,534.3648,732.5845,533.6673,733.2819,528.0536,728.64,536.74" style="stroke:#181818;stroke-width:1.0;"/><text fill="#000000" font-family="FG Virgil" font-size="13" lengthAdjust="spacing" textLength="67" x="786" y="503.0283">persistence</text></g><!--SRC=[bPFTRjim38Nl_HIwzB3r1Op0G5OWMuh-33MwUrQY4wsAP53AidJOkuzACrcTdTJrZMs9_CX37VadRJiWs8YDiqwkoMrGj60y5ZvjTI2VO8LDs1iKX39aUmfRs9gmS3RS0kSkleZlcbRQP35-3Shjj5qToOKquBsurZxSaK92TGbMQGK1_SDIp6OTeKSR86XdwrhyBWG_7vLhrcvNVYZ-d2LSSYlaZ45Y4dITqV8_a2JaG0OT_i2OUH_booPGRFM7Uxp7bj5MuZ6orLOjRK3wgN7dvrOrZa9Vk5po5WH7ioltc25haNNXi_Rdsx1sf9yF6qt4IkIU_SjNtozQloMCqJoKo47rm45VWNlOtxKbgyMS-xhy6R3X-Ssdo4_e9FyCbUESrDpbgrczVqu7cESHSpzPzWrqi_JxATMeXHuln_6PW6z8dbL7MT4e-2j4l_MBlGp2pddDRMekcX7k_wtl5o3ZYm7jozU8nKuSIW_Xx5Gf0qIlVTvVPQSmzMGceLDqUUsOcGr-gGxGKvVpug9-yzfLWfqgP5eetag8qD7BK0dWvMTnzDWaqBZxgpYtNEUxc0FRLxtR4cYyS4mVCLqbCjCL8m4nRsYrIXojLWptXk8pAmprzzOumHfpLAux0mpcCqdrNm00]--></g></svg>