<?xml version="1.0" encoding="us-ascii" standalone="no"?><svg xmlns="http://www.w3.org/2000/svg" xmlns:xlink="http://www.w3.org/1999/xlink" contentStyleType="text/css" height="569px" preserveAspectRatio="none" style="width:969px;height:569px;background:#FFFFFF;" version="1.1" viewBox="0 0 969 569" width="969px" zoomAndPan="magnify"><defs/><g><!--cluster NotificationsAggregate--><g id="cluster_NotificationsAggregate"><path d="M8.5,6.0137 L170.5,6.0137 A3.75,3.75 0 0 1 173,8.5137 L180,30.6348 L284.5,30.6348 A2.5,2.5 0 0 1 287,33.1348 L287,344.0137 A2.5,2.5 0 0 1 284.5,346.5137 L8.5,346.5137 A2.5,2.5 0 0 1 6,344.0137 L6,8.5137 A2.5,2.5 0 0 1 8.5,6.0137 " fill="none" style="stroke:#000000;stroke-width:1.5;"/><line style="stroke:#000000;stroke-width:1.5;" x1="6" x2="180" y1="30.6348" y2="30.6348"/><text fill="#000000" font-family="sans-serif" font-size="14" font-weight="bold" lengthAdjust="spacing" textLength="161" x="10" y="23.1211">NotificationsAggregate</text></g><!--cluster CandidateAggregate--><g id="cluster_CandidateAggregate"><path d="M677.5,403.5137 L822.5,403.5137 A3.75,3.75 0 0 1 825,406.0137 L832,428.1348 L959.5,428.1348 A2.5,2.5 0 0 1 962,430.6348 L962,531.0137 A2.5,2.5 0 0 1 959.5,533.5137 L677.5,533.5137 A2.5,2.5 0 0 1 675,531.0137 L675,406.0137 A2.5,2.5 0 0 1 677.5,403.5137 " fill="none" style="stroke:#000000;stroke-width:1.5;"/><line style="stroke:#000000;stroke-width:1.5;" x1="675" x2="832" y1="428.1348" y2="428.1348"/><text fill="#000000" font-family="sans-serif" font-size="14" font-weight="bold" lengthAdjust="spacing" textLength="144" x="679" y="420.6211">CandidateAggregate</text></g><!--cluster ApplicationAggregate--><g id="cluster_ApplicationAggregate"><path d="M313.5,206.0137 L465.5,206.0137 A3.75,3.75 0 0 1 468,208.5137 L475,230.6348 L648.5,230.6348 A2.5,2.5 0 0 1 651,233.1348 L651,560.0137 A2.5,2.5 0 0 1 648.5,562.5137 L313.5,562.5137 A2.5,2.5 0 0 1 311,560.0137 L311,208.5137 A2.5,2.5 0 0 1 313.5,206.0137 " fill="none" style="stroke:#000000;stroke-width:1.5;"/><line style="stroke:#000000;stroke-width:1.5;" x1="311" x2="475" y1="230.6348" y2="230.6348"/><text fill="#000000" font-family="sans-serif" font-size="14" font-weight="bold" lengthAdjust="spacing" textLength="151" x="315" y="223.1211">ApplicationAggregate</text></g><!--class Notification--><g id="elem_Notification"><rect codeLine="3" fill="#F1F1F1" height="97.8242" id="Notification" rx="2.5" ry="2.5" style="stroke:#181818;stroke-width:0.5;" width="101" x="164.5" y="43.0137"/><ellipse cx="179.5" cy="65.3047" fill="#ADD1B2" rx="11" ry="11" style="stroke:#181818;stroke-width:1.0;"/><path d="M182.2656,61.1797 Q182.4219,60.9609 182.6094,60.8516 Q182.7969,60.7422 183.0156,60.7422 Q183.3906,60.7422 183.625,61.0078 Q183.8594,61.2578 183.8594,61.8672 L183.8594,63.3203 Q183.8594,63.9297 183.625,64.1953 Q183.3906,64.4609 183.0156,64.4609 Q182.6719,64.4609 182.4688,64.2578 Q182.2656,64.0703 182.1563,63.5547 Q182.1094,63.1953 181.9219,63.0078 Q181.5938,62.6328 180.9844,62.4141 Q180.375,62.1953 179.75,62.1953 Q178.9844,62.1953 178.3438,62.5234 Q177.7188,62.8516 177.2188,63.6016 Q176.7344,64.3516 176.7344,65.3828 L176.7344,66.4766 Q176.7344,67.7109 177.625,68.5391 Q178.5156,69.3516 180.1094,69.3516 Q181.0469,69.3516 181.7031,69.1016 Q182.0938,68.9453 182.5156,68.5078 Q182.7813,68.2422 182.9219,68.1641 Q183.0781,68.0859 183.2813,68.0859 Q183.6094,68.0859 183.8594,68.3516 Q184.125,68.6016 184.125,68.9453 Q184.125,69.2891 183.7813,69.6953 Q183.2813,70.2734 182.4844,70.6016 Q181.4063,71.0547 180.1094,71.0547 Q178.5938,71.0547 177.3906,70.4297 Q176.4063,69.9297 175.7188,68.8672 Q175.0313,67.7891 175.0313,66.5078 L175.0313,65.3516 Q175.0313,64.0234 175.6406,62.8828 Q176.2656,61.7266 177.3594,61.1172 Q178.4531,60.4922 179.6875,60.4922 Q180.4219,60.4922 181.0625,60.6641 Q181.7188,60.8203 182.2656,61.1797 Z " fill="#000000"/><text fill="#000000" font-family="sans-serif" font-size="12" font-style="italic" lengthAdjust="spacing" textLength="43" x="206.5" y="60.9629">&#171;entity&#187;</text><text fill="#000000" font-family="sans-serif" font-size="14" lengthAdjust="spacing" textLength="69" x="193.5" y="79.082">Notification</text><line style="stroke:#181818;stroke-width:0.5;" x1="165.5" x2="264.5" y1="87.5957" y2="87.5957"/><text fill="#000000" font-family="sans-serif" font-size="14" lengthAdjust="spacing" textLength="22" x="170.5" y="106.7031">title</text><text fill="#000000" font-family="sans-serif" font-size="14" lengthAdjust="spacing" textLength="47" x="170.5" y="125.3242">content</text><line style="stroke:#181818;stroke-width:0.5;" x1="165.5" x2="264.5" y1="132.8379" y2="132.8379"/></g><!--class Date--><g id="elem_Date"><rect codeLine="7" fill="#F1F1F1" height="60.582" id="Date" rx="2.5" ry="2.5" style="stroke:#181818;stroke-width:0.5;" width="72" x="22" y="251.0137"/><ellipse cx="37" cy="273.3047" fill="#ADD1B2" rx="11" ry="11" style="stroke:#181818;stroke-width:1.0;"/><path d="M39.7656,269.1797 Q39.9219,268.9609 40.1094,268.8516 Q40.2969,268.7422 40.5156,268.7422 Q40.8906,268.7422 41.125,269.0078 Q41.3594,269.2578 41.3594,269.8672 L41.3594,271.3203 Q41.3594,271.9297 41.125,272.1953 Q40.8906,272.4609 40.5156,272.4609 Q40.1719,272.4609 39.9688,272.2578 Q39.7656,272.0703 39.6563,271.5547 Q39.6094,271.1953 39.4219,271.0078 Q39.0938,270.6328 38.4844,270.4141 Q37.875,270.1953 37.25,270.1953 Q36.4844,270.1953 35.8438,270.5234 Q35.2188,270.8516 34.7188,271.6016 Q34.2344,272.3516 34.2344,273.3828 L34.2344,274.4766 Q34.2344,275.7109 35.125,276.5391 Q36.0156,277.3516 37.6094,277.3516 Q38.5469,277.3516 39.2031,277.1016 Q39.5938,276.9453 40.0156,276.5078 Q40.2813,276.2422 40.4219,276.1641 Q40.5781,276.0859 40.7813,276.0859 Q41.1094,276.0859 41.3594,276.3516 Q41.625,276.6016 41.625,276.9453 Q41.625,277.2891 41.2813,277.6953 Q40.7813,278.2734 39.9844,278.6016 Q38.9063,279.0547 37.6094,279.0547 Q36.0938,279.0547 34.8906,278.4297 Q33.9063,277.9297 33.2188,276.8672 Q32.5313,275.7891 32.5313,274.5078 L32.5313,273.3516 Q32.5313,272.0234 33.1406,270.8828 Q33.7656,269.7266 34.8594,269.1172 Q35.9531,268.4922 37.1875,268.4922 Q37.9219,268.4922 38.5625,268.6641 Q39.2188,268.8203 39.7656,269.1797 Z " fill="#000000"/><text fill="#000000" font-family="sans-serif" font-size="12" font-style="italic" lengthAdjust="spacing" textLength="44" x="49" y="268.9629">&#171;value&#187;</text><text fill="#000000" font-family="sans-serif" font-size="14" lengthAdjust="spacing" textLength="30" x="56" y="287.082">Date</text><line style="stroke:#181818;stroke-width:0.5;" x1="23" x2="93" y1="295.5957" y2="295.5957"/><line style="stroke:#181818;stroke-width:0.5;" x1="23" x2="93" y1="303.5957" y2="303.5957"/></g><!--class NotificationStatus--><g id="elem_NotificationStatus"><rect codeLine="8" fill="#F1F1F1" height="97.8242" id="NotificationStatus" rx="2.5" ry="2.5" style="stroke:#181818;stroke-width:0.5;" width="141" x="129.5" y="232.5137"/><ellipse cx="144.5" cy="254.8047" fill="#EB937F" rx="11" ry="11" style="stroke:#181818;stroke-width:1.0;"/><path d="M143.3594,255.6016 L143.3594,258.1016 L147.6875,258.1016 L147.6875,257.1797 Q147.6875,256.5703 147.9219,256.3047 Q148.1719,256.0391 148.5469,256.0391 Q148.9219,256.0391 149.1563,256.3047 Q149.3906,256.5703 149.3906,257.1797 L149.3906,259.8047 L141.3906,259.8047 Q140.7656,259.8047 140.5,259.5703 Q140.25,259.3359 140.25,258.9453 Q140.25,258.5703 140.5156,258.3359 Q140.7813,258.1016 141.3906,258.1016 L141.6563,258.1016 L141.6563,251.4453 L141.3906,251.4453 Q140.7656,251.4453 140.5,251.2109 Q140.25,250.9766 140.25,250.5859 Q140.25,250.2109 140.5,249.9766 Q140.7656,249.7422 141.3906,249.7422 L149.0156,249.7422 L149.0156,252.3359 Q149.0156,252.9453 148.7813,253.2109 Q148.5625,253.4609 148.1719,253.4609 Q147.7969,253.4609 147.5625,253.2109 Q147.3281,252.9453 147.3281,252.3359 L147.3281,251.4453 L143.3594,251.4453 L143.3594,253.8984 L144.8438,253.8984 Q144.8438,253.2422 144.9688,253.0547 Q145.2344,252.6484 145.7031,252.6484 Q146.0781,252.6484 146.3125,252.9141 Q146.5469,253.1641 146.5469,253.7734 L146.5469,255.7422 Q146.5469,256.2891 146.4219,256.4766 Q146.1563,256.8672 145.7031,256.8672 Q145.2344,256.8672 144.9688,256.4609 Q144.8438,256.2734 144.8438,255.6016 L143.3594,255.6016 Z " fill="#000000"/><text fill="#000000" font-family="sans-serif" font-size="12" font-style="italic" lengthAdjust="spacing" textLength="44" x="191" y="250.4629">&#171;value&#187;</text><text fill="#000000" font-family="sans-serif" font-size="14" lengthAdjust="spacing" textLength="109" x="158.5" y="268.582">NotificationStatus</text><line style="stroke:#181818;stroke-width:0.5;" x1="130.5" x2="269.5" y1="277.0957" y2="277.0957"/><text fill="#000000" font-family="sans-serif" font-size="14" lengthAdjust="spacing" textLength="38" x="135.5" y="296.2031">READ</text><text fill="#000000" font-family="sans-serif" font-size="14" lengthAdjust="spacing" textLength="56" x="135.5" y="314.8242">UNREAD</text><line style="stroke:#181818;stroke-width:0.5;" x1="130.5" x2="269.5" y1="322.3379" y2="322.3379"/></g><!--class Candidate--><g id="elem_Candidate"><rect codeLine="15" fill="#F1F1F1" height="76.543" id="Candidate" rx="2.5" ry="2.5" style="stroke:#181818;stroke-width:0.5;" width="97" x="848.5" y="440.5137"/><ellipse cx="863.5" cy="470.7852" fill="#ADD1B2" rx="11" ry="11" style="stroke:#181818;stroke-width:1.0;"/><path d="M862.3594,471.582 L862.3594,474.082 L866.6875,474.082 L866.6875,473.1602 Q866.6875,472.5508 866.9219,472.2852 Q867.1719,472.0195 867.5469,472.0195 Q867.9219,472.0195 868.1563,472.2852 Q868.3906,472.5508 868.3906,473.1602 L868.3906,475.7852 L860.3906,475.7852 Q859.7656,475.7852 859.5,475.5508 Q859.25,475.3164 859.25,474.9258 Q859.25,474.5508 859.5156,474.3164 Q859.7813,474.082 860.3906,474.082 L860.6563,474.082 L860.6563,467.4258 L860.3906,467.4258 Q859.7656,467.4258 859.5,467.1914 Q859.25,466.957 859.25,466.5664 Q859.25,466.1914 859.5,465.957 Q859.7656,465.7227 860.3906,465.7227 L868.0156,465.7227 L868.0156,468.3164 Q868.0156,468.9258 867.7813,469.1914 Q867.5625,469.4414 867.1719,469.4414 Q866.7969,469.4414 866.5625,469.1914 Q866.3281,468.9258 866.3281,468.3164 L866.3281,467.4258 L862.3594,467.4258 L862.3594,469.8789 L863.8438,469.8789 Q863.8438,469.2227 863.9688,469.0352 Q864.2344,468.6289 864.7031,468.6289 Q865.0781,468.6289 865.3125,468.8945 Q865.5469,469.1445 865.5469,469.7539 L865.5469,471.7227 Q865.5469,472.2695 865.4219,472.457 Q865.1563,472.8477 864.7031,472.8477 Q864.2344,472.8477 863.9688,472.4414 Q863.8438,472.2539 863.8438,471.582 L862.3594,471.582 Z " fill="#000000"/><text fill="#000000" font-family="sans-serif" font-size="12" font-style="italic" lengthAdjust="spacing" textLength="43" x="888.5" y="458.4629">&#171;entity&#187;</text><text fill="#000000" font-family="sans-serif" font-size="12" font-style="italic" lengthAdjust="spacing" textLength="35" x="892.5" y="474.4238">&#171;root&#187;</text><text fill="#000000" font-family="sans-serif" font-size="14" lengthAdjust="spacing" textLength="65" x="877.5" y="492.543">Candidate</text><line style="stroke:#181818;stroke-width:0.5;" x1="849.5" x2="944.5" y1="501.0566" y2="501.0566"/><line style="stroke:#181818;stroke-width:0.5;" x1="849.5" x2="944.5" y1="509.0566" y2="509.0566"/></g><!--class PhoneNumber--><g id="elem_PhoneNumber"><rect codeLine="16" fill="#F1F1F1" height="60.582" id="PhoneNumber" rx="2.5" ry="2.5" style="stroke:#181818;stroke-width:0.5;" width="122" x="691" y="448.5137"/><ellipse cx="706" cy="470.8047" fill="#ADD1B2" rx="11" ry="11" style="stroke:#181818;stroke-width:1.0;"/><path d="M708.7656,466.6797 Q708.9219,466.4609 709.1094,466.3516 Q709.2969,466.2422 709.5156,466.2422 Q709.8906,466.2422 710.125,466.5078 Q710.3594,466.7578 710.3594,467.3672 L710.3594,468.8203 Q710.3594,469.4297 710.125,469.6953 Q709.8906,469.9609 709.5156,469.9609 Q709.1719,469.9609 708.9688,469.7578 Q708.7656,469.5703 708.6563,469.0547 Q708.6094,468.6953 708.4219,468.5078 Q708.0938,468.1328 707.4844,467.9141 Q706.875,467.6953 706.25,467.6953 Q705.4844,467.6953 704.8438,468.0234 Q704.2188,468.3516 703.7188,469.1016 Q703.2344,469.8516 703.2344,470.8828 L703.2344,471.9766 Q703.2344,473.2109 704.125,474.0391 Q705.0156,474.8516 706.6094,474.8516 Q707.5469,474.8516 708.2031,474.6016 Q708.5938,474.4453 709.0156,474.0078 Q709.2813,473.7422 709.4219,473.6641 Q709.5781,473.5859 709.7813,473.5859 Q710.1094,473.5859 710.3594,473.8516 Q710.625,474.1016 710.625,474.4453 Q710.625,474.7891 710.2813,475.1953 Q709.7813,475.7734 708.9844,476.1016 Q707.9063,476.5547 706.6094,476.5547 Q705.0938,476.5547 703.8906,475.9297 Q702.9063,475.4297 702.2188,474.3672 Q701.5313,473.2891 701.5313,472.0078 L701.5313,470.8516 Q701.5313,469.5234 702.1406,468.3828 Q702.7656,467.2266 703.8594,466.6172 Q704.9531,465.9922 706.1875,465.9922 Q706.9219,465.9922 707.5625,466.1641 Q708.2188,466.3203 708.7656,466.6797 Z " fill="#000000"/><text fill="#000000" font-family="sans-serif" font-size="12" font-style="italic" lengthAdjust="spacing" textLength="46" x="742" y="466.4629">&#171;Value&#187;</text><text fill="#000000" font-family="sans-serif" font-size="14" lengthAdjust="spacing" textLength="90" x="720" y="484.582">PhoneNumber</text><line style="stroke:#181818;stroke-width:0.5;" x1="692" x2="812" y1="493.0957" y2="493.0957"/><line style="stroke:#181818;stroke-width:0.5;" x1="692" x2="812" y1="501.0957" y2="501.0957"/></g><!--class Application--><g id="elem_Application"><rect codeLine="20" fill="#F1F1F1" height="76.543" id="Application" rx="2.5" ry="2.5" style="stroke:#181818;stroke-width:0.5;" width="101" x="428.5" y="243.0137"/><ellipse cx="443.5" cy="273.2852" fill="#ADD1B2" rx="11" ry="11" style="stroke:#181818;stroke-width:1.0;"/><path d="M442.3594,274.082 L442.3594,276.582 L446.6875,276.582 L446.6875,275.6602 Q446.6875,275.0508 446.9219,274.7852 Q447.1719,274.5195 447.5469,274.5195 Q447.9219,274.5195 448.1563,274.7852 Q448.3906,275.0508 448.3906,275.6602 L448.3906,278.2852 L440.3906,278.2852 Q439.7656,278.2852 439.5,278.0508 Q439.25,277.8164 439.25,277.4258 Q439.25,277.0508 439.5156,276.8164 Q439.7813,276.582 440.3906,276.582 L440.6563,276.582 L440.6563,269.9258 L440.3906,269.9258 Q439.7656,269.9258 439.5,269.6914 Q439.25,269.457 439.25,269.0664 Q439.25,268.6914 439.5,268.457 Q439.7656,268.2227 440.3906,268.2227 L448.0156,268.2227 L448.0156,270.8164 Q448.0156,271.4258 447.7813,271.6914 Q447.5625,271.9414 447.1719,271.9414 Q446.7969,271.9414 446.5625,271.6914 Q446.3281,271.4258 446.3281,270.8164 L446.3281,269.9258 L442.3594,269.9258 L442.3594,272.3789 L443.8438,272.3789 Q443.8438,271.7227 443.9688,271.5352 Q444.2344,271.1289 444.7031,271.1289 Q445.0781,271.1289 445.3125,271.3945 Q445.5469,271.6445 445.5469,272.2539 L445.5469,274.2227 Q445.5469,274.7695 445.4219,274.957 Q445.1563,275.3477 444.7031,275.3477 Q444.2344,275.3477 443.9688,274.9414 Q443.8438,274.7539 443.8438,274.082 L442.3594,274.082 Z " fill="#000000"/><text fill="#000000" font-family="sans-serif" font-size="12" font-style="italic" lengthAdjust="spacing" textLength="43" x="470.5" y="260.9629">&#171;entity&#187;</text><text fill="#000000" font-family="sans-serif" font-size="12" font-style="italic" lengthAdjust="spacing" textLength="35" x="474.5" y="276.9238">&#171;root&#187;</text><text fill="#000000" font-family="sans-serif" font-size="14" lengthAdjust="spacing" textLength="69" x="457.5" y="295.043">Application</text><line style="stroke:#181818;stroke-width:0.5;" x1="429.5" x2="528.5" y1="303.5566" y2="303.5566"/><line style="stroke:#181818;stroke-width:0.5;" x1="429.5" x2="528.5" y1="311.5566" y2="311.5566"/></g><!--class ApplicationDate--><g id="elem_ApplicationDate"><rect codeLine="21" fill="#F1F1F1" height="60.582" id="ApplicationDate" rx="2.5" ry="2.5" style="stroke:#181818;stroke-width:0.5;" width="131" x="327.5" y="448.5137"/><ellipse cx="342.5" cy="470.8047" fill="#ADD1B2" rx="11" ry="11" style="stroke:#181818;stroke-width:1.0;"/><path d="M345.2656,466.6797 Q345.4219,466.4609 345.6094,466.3516 Q345.7969,466.2422 346.0156,466.2422 Q346.3906,466.2422 346.625,466.5078 Q346.8594,466.7578 346.8594,467.3672 L346.8594,468.8203 Q346.8594,469.4297 346.625,469.6953 Q346.3906,469.9609 346.0156,469.9609 Q345.6719,469.9609 345.4688,469.7578 Q345.2656,469.5703 345.1563,469.0547 Q345.1094,468.6953 344.9219,468.5078 Q344.5938,468.1328 343.9844,467.9141 Q343.375,467.6953 342.75,467.6953 Q341.9844,467.6953 341.3438,468.0234 Q340.7188,468.3516 340.2188,469.1016 Q339.7344,469.8516 339.7344,470.8828 L339.7344,471.9766 Q339.7344,473.2109 340.625,474.0391 Q341.5156,474.8516 343.1094,474.8516 Q344.0469,474.8516 344.7031,474.6016 Q345.0938,474.4453 345.5156,474.0078 Q345.7813,473.7422 345.9219,473.6641 Q346.0781,473.5859 346.2813,473.5859 Q346.6094,473.5859 346.8594,473.8516 Q347.125,474.1016 347.125,474.4453 Q347.125,474.7891 346.7813,475.1953 Q346.2813,475.7734 345.4844,476.1016 Q344.4063,476.5547 343.1094,476.5547 Q341.5938,476.5547 340.3906,475.9297 Q339.4063,475.4297 338.7188,474.3672 Q338.0313,473.2891 338.0313,472.0078 L338.0313,470.8516 Q338.0313,469.5234 338.6406,468.3828 Q339.2656,467.2266 340.3594,466.6172 Q341.4531,465.9922 342.6875,465.9922 Q343.4219,465.9922 344.0625,466.1641 Q344.7188,466.3203 345.2656,466.6797 Z " fill="#000000"/><text fill="#000000" font-family="sans-serif" font-size="12" font-style="italic" lengthAdjust="spacing" textLength="46" x="383" y="466.4629">&#171;Value&#187;</text><text fill="#000000" font-family="sans-serif" font-size="14" lengthAdjust="spacing" textLength="99" x="356.5" y="484.582">ApplicationDate</text><line style="stroke:#181818;stroke-width:0.5;" x1="328.5" x2="457.5" y1="493.0957" y2="493.0957"/><line style="stroke:#181818;stroke-width:0.5;" x1="328.5" x2="457.5" y1="501.0957" y2="501.0957"/></g><!--class ApplicationStatus--><g id="elem_ApplicationStatus"><rect codeLine="22" fill="#F1F1F1" height="135.0664" id="ApplicationStatus" rx="2.5" ry="2.5" style="stroke:#181818;stroke-width:0.5;" width="141" x="493.5" y="411.5137"/><ellipse cx="508.5" cy="433.8047" fill="#EB937F" rx="11" ry="11" style="stroke:#181818;stroke-width:1.0;"/><path d="M507.3594,434.6016 L507.3594,437.1016 L511.6875,437.1016 L511.6875,436.1797 Q511.6875,435.5703 511.9219,435.3047 Q512.1719,435.0391 512.5469,435.0391 Q512.9219,435.0391 513.1563,435.3047 Q513.3906,435.5703 513.3906,436.1797 L513.3906,438.8047 L505.3906,438.8047 Q504.7656,438.8047 504.5,438.5703 Q504.25,438.3359 504.25,437.9453 Q504.25,437.5703 504.5156,437.3359 Q504.7813,437.1016 505.3906,437.1016 L505.6563,437.1016 L505.6563,430.4453 L505.3906,430.4453 Q504.7656,430.4453 504.5,430.2109 Q504.25,429.9766 504.25,429.5859 Q504.25,429.2109 504.5,428.9766 Q504.7656,428.7422 505.3906,428.7422 L513.0156,428.7422 L513.0156,431.3359 Q513.0156,431.9453 512.7813,432.2109 Q512.5625,432.4609 512.1719,432.4609 Q511.7969,432.4609 511.5625,432.2109 Q511.3281,431.9453 511.3281,431.3359 L511.3281,430.4453 L507.3594,430.4453 L507.3594,432.8984 L508.8438,432.8984 Q508.8438,432.2422 508.9688,432.0547 Q509.2344,431.6484 509.7031,431.6484 Q510.0781,431.6484 510.3125,431.9141 Q510.5469,432.1641 510.5469,432.7734 L510.5469,434.7422 Q510.5469,435.2891 510.4219,435.4766 Q510.1563,435.8672 509.7031,435.8672 Q509.2344,435.8672 508.9688,435.4609 Q508.8438,435.2734 508.8438,434.6016 L507.3594,434.6016 Z " fill="#000000"/><text fill="#000000" font-family="sans-serif" font-size="12" font-style="italic" lengthAdjust="spacing" textLength="46" x="554" y="429.4629">&#171;Value&#187;</text><text fill="#000000" font-family="sans-serif" font-size="14" lengthAdjust="spacing" textLength="109" x="522.5" y="447.582">ApplicationStatus</text><line style="stroke:#181818;stroke-width:0.5;" x1="494.5" x2="633.5" y1="456.0957" y2="456.0957"/><text fill="#000000" font-family="sans-serif" font-size="14" lengthAdjust="spacing" textLength="61" x="499.5" y="475.2031">Approved</text><text fill="#000000" font-family="sans-serif" font-size="14" lengthAdjust="spacing" textLength="45" x="499.5" y="493.8242">Denied</text><text fill="#000000" font-family="sans-serif" font-size="14" lengthAdjust="spacing" textLength="102" x="499.5" y="512.4453">WaitingInterview</text><text fill="#000000" font-family="sans-serif" font-size="14" lengthAdjust="spacing" textLength="68" x="499.5" y="531.0664">InProgress</text><line style="stroke:#181818;stroke-width:0.5;" x1="494.5" x2="633.5" y1="538.5801" y2="538.5801"/></g><!--link Candidate to Notification--><g id="link_Candidate_Notification"><path codeLine="30" d="M875.12,440.3937 C837.52,379.3237 754.6,259.2737 651,198.0137 C528.12,125.3537 357.61,102.9137 270.73,96.0237 " fill="none" id="Candidate-to-Notification" style="stroke:#181818;stroke-width:1.0;"/><polygon fill="#181818" points="265.63,95.6337,274.308,100.2913,270.6162,96.0051,274.9023,92.3134,265.63,95.6337" style="stroke:#181818;stroke-width:1.0;"/><text fill="#000000" font-family="sans-serif" font-size="13" lengthAdjust="spacing" textLength="47" x="816" y="287.042">receives</text></g><!--link Notification to Application--><g id="link_Notification_Application"><path codeLine="32" d="M265.59,128.9437 C310.93,161.1437 377.31,208.2837 423.96,241.4237 " fill="none" id="Notification-to-Application" style="stroke:#181818;stroke-width:1.0;"/><polygon fill="#181818" points="428.13,244.3837,423.1201,235.9042,424.0575,241.4829,418.4788,242.4203,428.13,244.3837" style="stroke:#181818;stroke-width:1.0;"/><text fill="#000000" font-family="sans-serif" font-size="13" lengthAdjust="spacing" textLength="14" x="348" y="186.042">for</text><text fill="#000000" font-family="sans-serif" font-size="13" lengthAdjust="spacing" textLength="7" x="273.5345" y="130.1819">1</text><text fill="#000000" font-family="sans-serif" font-size="13" lengthAdjust="spacing" textLength="7" x="413.4842" y="235.0479">1</text></g><!--link Notification to Date--><g id="link_Notification_Date"><path codeLine="33" d="M164.44,140.5637 C147.04,157.9537 127.93,178.2237 112,198.0137 C99.74,213.2537 87.66,231.3237 78.05,246.6637 " fill="none" id="Notification-to-Date" style="stroke:#181818;stroke-width:1.0;"/><polygon fill="#181818" points="75.41,250.9137,83.5418,245.3573,78.0369,246.6593,76.7348,241.1543,75.41,250.9137" style="stroke:#181818;stroke-width:1.0;"/><text fill="#000000" font-family="sans-serif" font-size="13" lengthAdjust="spacing" textLength="21" x="134" y="186.042">has</text><text fill="#000000" font-family="sans-serif" font-size="13" lengthAdjust="spacing" textLength="7" x="149.4999" y="143.5086">1</text><text fill="#000000" font-family="sans-serif" font-size="13" lengthAdjust="spacing" textLength="7" x="71.2789" y="239.9507">1</text></g><!--link Notification to NotificationStatus--><g id="link_Notification_NotificationStatus"><path codeLine="34" d="M211.14,141.3037 C209.03,167.6537 206.41,200.3337 204.25,227.4037 " fill="none" id="Notification-to-NotificationStatus" style="stroke:#181818;stroke-width:1.0;"/><polygon fill="#181818" points="203.85,232.3937,208.5569,223.7424,204.2499,227.4097,200.5826,223.1026,203.85,232.3937" style="stroke:#181818;stroke-width:1.0;"/><text fill="#000000" font-family="sans-serif" font-size="13" lengthAdjust="spacing" textLength="21" x="210" y="186.042">has</text><text fill="#000000" font-family="sans-serif" font-size="13" lengthAdjust="spacing" textLength="7" x="203.197" y="162.7662">1</text><text fill="#000000" font-family="sans-serif" font-size="13" lengthAdjust="spacing" textLength="7" x="196.8992" y="221.352">1</text></g><!--link Application to ApplicationDate--><g id="link_Application_ApplicationDate"><path codeLine="36" d="M462.42,320.2037 C446.74,355.8437 423.41,408.8737 408.2,443.4537 " fill="none" id="Application-to-ApplicationDate" style="stroke:#181818;stroke-width:1.0;"/><polygon fill="#181818" points="406.02,448.4137,413.3018,441.7822,408.0308,443.8358,405.9772,438.5649,406.02,448.4137" style="stroke:#181818;stroke-width:1.0;"/><text fill="#000000" font-family="sans-serif" font-size="13" lengthAdjust="spacing" textLength="7" x="452.3453" y="341.5152">1</text><text fill="#000000" font-family="sans-serif" font-size="13" lengthAdjust="spacing" textLength="7" x="400.9835" y="437.4507">1</text></g><!--link Application to ApplicationStatus--><g id="link_Application_ApplicationStatus"><path codeLine="37" d="M495.39,320.2037 C506.01,344.6437 520.19,377.2537 532.9,406.4837 " fill="none" id="Application-to-ApplicationStatus" style="stroke:#181818;stroke-width:1.0;"/><polygon fill="#181818" points="534.93,411.1437,535.0243,401.2953,532.9432,406.5554,527.6831,404.4742,534.93,411.1437" style="stroke:#181818;stroke-width:1.0;"/><text fill="#000000" font-family="sans-serif" font-size="13" lengthAdjust="spacing" textLength="7" x="490.3638" y="341.5152">1</text><text fill="#000000" font-family="sans-serif" font-size="13" lengthAdjust="spacing" textLength="7" x="524.5712" y="400.3079">1</text></g><!--link Application to Candidate--><g id="link_Application_Candidate"><path codeLine="38" d="M529.55,309.1137 C575.57,332.0937 646.03,364.2537 711,381.5137 C762.89,395.3037 784.04,369.4837 831,395.5137 C848.01,404.9437 862.25,420.7137 873.1,435.9537 " fill="none" id="Application-to-Candidate" style="stroke:#181818;stroke-width:1.0;"/><polygon fill="#181818" points="876.07,440.2337,874.2219,430.5598,873.218,436.1268,867.651,435.1229,876.07,440.2337" style="stroke:#181818;stroke-width:1.0;"/><text fill="#000000" font-family="sans-serif" font-size="13" lengthAdjust="spacing" textLength="60" x="712" y="377.542">belongs to</text><text fill="#000000" font-family="sans-serif" font-size="13" lengthAdjust="spacing" textLength="7" x="537.4886" y="309.0022">1</text><text fill="#000000" font-family="sans-serif" font-size="13" lengthAdjust="spacing" textLength="7" x="864.8711" y="429.2">1</text></g><!--SRC=[ZLAnReCm5Dpz5K_PCtH520cL3bcYg5NRsO4NnognaMsegeX_xyEusAX5wiJXT-_kEDFn-eCBXADsyY9hxgHMjXJ2eE0ExmoWRhcrgpdaEIedtLTHJ0G0mYrwL6lbQ4PuN5Oh4ihpWRSzqi9qZgg_hHHV77UzZIIlzVnKLXwy7WCSsSXO5n8_SjN8XhHNQUTWSPXa9MYqTWJkCTpfgXKU-ziPJPw_BHaJdxBhsX1pSOB4Afd_vPMQ9THgpXOS8TQISEPMKfQlWnX63zZubmgL3F2TIoULED0Dc47Yfpyyg9FHbDhQd_vYDVjziRxN30pMA0UqZAq6kuUTPq_F920jNBJPflgFpE3AxJRdzsyGDbXgj15WClWFRnRUPCPACZXZgvMmu3HZtm00]--></g></svg>