<?xml version="1.0" encoding="us-ascii" standalone="no"?><svg xmlns="http://www.w3.org/2000/svg" xmlns:xlink="http://www.w3.org/1999/xlink" contentStyleType="text/css" height="977px" preserveAspectRatio="none" style="width:1735px;height:977px;background:#FFFFFF;" version="1.1" viewBox="0 0 1735 977" width="1735px" zoomAndPan="magnify"><defs/><g><text fill="#000000" font-family="sans-serif" font-size="14" font-weight="bold" lengthAdjust="spacing" textLength="184" x="774.75" y="30.1074">Generate Interview Model</text><rect fill="#FFFFFF" height="742.9844" style="stroke:#181818;stroke-width:1.0;" width="10" x="61.5" y="133.2422"/><rect fill="#FFFFFF" height="719.6934" style="stroke:#181818;stroke-width:1.0;" width="10" x="257.5" y="156.5332"/><rect fill="#FFFFFF" height="250.3281" style="stroke:#181818;stroke-width:1.0;" width="10" x="591.5" y="219.1152"/><rect fill="#FFFFFF" height="156.4551" style="stroke:#181818;stroke-width:1.0;" width="10" x="591.5" y="563.3164"/><rect fill="#FFFFFF" height="93.873" style="stroke:#181818;stroke-width:1.0;" width="10" x="591.5" y="751.0625"/><rect fill="#FFFFFF" height="31.291" style="stroke:#181818;stroke-width:1.0;" width="10" x="794.5" y="250.4063"/><rect fill="#FFFFFF" height="31.291" style="stroke:#181818;stroke-width:1.0;" width="10" x="937.5" y="344.2793"/><rect fill="#FFFFFF" height="31.291" style="stroke:#181818;stroke-width:1.0;" width="10" x="937.5" y="594.6074"/><rect fill="#FFFFFF" height="31.291" style="stroke:#181818;stroke-width:1.0;" width="10" x="1316.5" y="406.8613"/><rect fill="#FFFFFF" height="31.291" style="stroke:#181818;stroke-width:1.0;" width="10" x="1485" y="657.1895"/><rect fill="#FFFFFF" height="31.291" style="stroke:#181818;stroke-width:1.0;" width="10" x="1651.5" y="782.3535"/><line style="stroke:#181818;stroke-width:0.5;stroke-dasharray:5.0,5.0;" x1="66" x2="66" y1="123.2422" y2="894.2266"/><line style="stroke:#181818;stroke-width:0.5;stroke-dasharray:5.0,5.0;" x1="262.5" x2="262.5" y1="123.2422" y2="894.2266"/><line style="stroke:#181818;stroke-width:0.5;stroke-dasharray:5.0,5.0;" x1="596.5" x2="596.5" y1="123.2422" y2="894.2266"/><line style="stroke:#181818;stroke-width:0.5;stroke-dasharray:5.0,5.0;" x1="799.5" x2="799.5" y1="123.2422" y2="894.2266"/><line style="stroke:#181818;stroke-width:0.5;stroke-dasharray:5.0,5.0;" x1="942.5" x2="942.5" y1="123.2422" y2="894.2266"/><line style="stroke:#181818;stroke-width:0.5;stroke-dasharray:5.0,5.0;" x1="1068.5" x2="1068.5" y1="123.2422" y2="894.2266"/><line style="stroke:#181818;stroke-width:0.5;stroke-dasharray:5.0,5.0;" x1="1182.5" x2="1182.5" y1="123.2422" y2="894.2266"/><line style="stroke:#181818;stroke-width:0.5;stroke-dasharray:5.0,5.0;" x1="1321.5" x2="1321.5" y1="123.2422" y2="894.2266"/><line style="stroke:#181818;stroke-width:0.5;stroke-dasharray:5.0,5.0;" x1="1489.5" x2="1489.5" y1="123.2422" y2="894.2266"/><line style="stroke:#181818;stroke-width:0.5;stroke-dasharray:5.0,5.0;" x1="1656.5" x2="1656.5" y1="123.2422" y2="894.2266"/><text fill="#000000" font-family="sans-serif" font-size="14" lengthAdjust="spacing" textLength="117" x="5" y="119.7285">CostumerManager</text><ellipse cx="66.5" cy="53.1211" fill="#E2E2F0" rx="8" ry="8" style="stroke:#181818;stroke-width:0.5;"/><path d="M66.5,61.1211 L66.5,88.1211 M53.5,69.1211 L79.5,69.1211 M66.5,88.1211 L53.5,103.1211 M66.5,88.1211 L79.5,103.1211 " fill="none" style="stroke:#181818;stroke-width:0.5;"/><text fill="#000000" font-family="sans-serif" font-size="14" lengthAdjust="spacing" textLength="117" x="5" y="908.334">CostumerManager</text><ellipse cx="66.5" cy="920.3477" fill="#E2E2F0" rx="8" ry="8" style="stroke:#181818;stroke-width:0.5;"/><path d="M66.5,928.3477 L66.5,955.3477 M53.5,936.3477 L79.5,936.3477 M66.5,955.3477 L53.5,970.3477 M66.5,955.3477 L79.5,970.3477 " fill="none" style="stroke:#181818;stroke-width:0.5;"/><rect fill="#E2E2F0" height="32.6211" rx="2.5" ry="2.5" style="stroke:#181818;stroke-width:0.5;" width="200" x="162.5" y="89.6211"/><text fill="#000000" font-family="sans-serif" font-size="14" lengthAdjust="spacing" textLength="186" x="169.5" y="111.7285">GenerateInterviewTemplateUI</text><rect fill="#E2E2F0" height="32.6211" rx="2.5" ry="2.5" style="stroke:#181818;stroke-width:0.5;" width="200" x="162.5" y="893.2266"/><text fill="#000000" font-family="sans-serif" font-size="14" lengthAdjust="spacing" textLength="186" x="169.5" y="915.334">GenerateInterviewTemplateUI</text><rect fill="#E2E2F0" height="32.6211" rx="2.5" ry="2.5" style="stroke:#181818;stroke-width:0.5;" width="250" x="471.5" y="89.6211"/><text fill="#000000" font-family="sans-serif" font-size="14" lengthAdjust="spacing" textLength="236" x="478.5" y="111.7285">GenerateInterviewTemplateController</text><rect fill="#E2E2F0" height="32.6211" rx="2.5" ry="2.5" style="stroke:#181818;stroke-width:0.5;" width="250" x="471.5" y="893.2266"/><text fill="#000000" font-family="sans-serif" font-size="14" lengthAdjust="spacing" textLength="236" x="478.5" y="915.334">GenerateInterviewTemplateController</text><rect fill="#E2E2F0" height="32.6211" rx="2.5" ry="2.5" style="stroke:#181818;stroke-width:0.5;" width="136" x="731.5" y="89.6211"/><text fill="#000000" font-family="sans-serif" font-size="14" lengthAdjust="spacing" textLength="122" x="738.5" y="111.7285">PersistenceContext</text><rect fill="#E2E2F0" height="32.6211" rx="2.5" ry="2.5" style="stroke:#181818;stroke-width:0.5;" width="136" x="731.5" y="893.2266"/><text fill="#000000" font-family="sans-serif" font-size="14" lengthAdjust="spacing" textLength="122" x="738.5" y="915.334">PersistenceContext</text><rect fill="#E2E2F0" height="32.6211" rx="2.5" ry="2.5" style="stroke:#181818;stroke-width:0.5;" width="130" x="877.5" y="89.6211"/><text fill="#000000" font-family="sans-serif" font-size="14" lengthAdjust="spacing" textLength="116" x="884.5" y="111.7285">RepositoryFactory</text><rect fill="#E2E2F0" height="32.6211" rx="2.5" ry="2.5" style="stroke:#181818;stroke-width:0.5;" width="130" x="877.5" y="893.2266"/><text fill="#000000" font-family="sans-serif" font-size="14" lengthAdjust="spacing" textLength="116" x="884.5" y="915.334">RepositoryFactory</text><rect fill="#E2E2F0" height="32.6211" rx="2.5" ry="2.5" style="stroke:#181818;stroke-width:0.5;" width="102" x="1017.5" y="89.6211"/><text fill="#000000" font-family="sans-serif" font-size="14" lengthAdjust="spacing" textLength="88" x="1024.5" y="111.7285">JobReference</text><rect fill="#E2E2F0" height="32.6211" rx="2.5" ry="2.5" style="stroke:#181818;stroke-width:0.5;" width="102" x="1017.5" y="893.2266"/><text fill="#000000" font-family="sans-serif" font-size="14" lengthAdjust="spacing" textLength="88" x="1024.5" y="915.334">JobReference</text><rect fill="#E2E2F0" height="32.6211" rx="2.5" ry="2.5" style="stroke:#181818;stroke-width:0.5;" width="107" x="1129.5" y="89.6211"/><text fill="#000000" font-family="sans-serif" font-size="14" lengthAdjust="spacing" textLength="93" x="1136.5" y="111.7285">InterviewModel</text><rect fill="#E2E2F0" height="32.6211" rx="2.5" ry="2.5" style="stroke:#181818;stroke-width:0.5;" width="107" x="1129.5" y="893.2266"/><text fill="#000000" font-family="sans-serif" font-size="14" lengthAdjust="spacing" textLength="93" x="1136.5" y="915.334">InterviewModel</text><text fill="#000000" font-family="sans-serif" font-size="14" lengthAdjust="spacing" textLength="144" x="1246.5" y="119.7285">JobOpeningRepository</text><path d="M1303.5,68.6211 C1303.5,58.6211 1321.5,58.6211 1321.5,58.6211 C1321.5,58.6211 1339.5,58.6211 1339.5,68.6211 L1339.5,94.6211 C1339.5,104.6211 1321.5,104.6211 1321.5,104.6211 C1321.5,104.6211 1303.5,104.6211 1303.5,94.6211 L1303.5,68.6211 " fill="#E2E2F0" style="stroke:#181818;stroke-width:1.5;"/><path d="M1303.5,68.6211 C1303.5,78.6211 1321.5,78.6211 1321.5,78.6211 C1321.5,78.6211 1339.5,78.6211 1339.5,68.6211 " fill="none" style="stroke:#181818;stroke-width:1.5;"/><text fill="#000000" font-family="sans-serif" font-size="14" lengthAdjust="spacing" textLength="144" x="1246.5" y="908.334">JobOpeningRepository</text><path d="M1303.5,921.8477 C1303.5,911.8477 1321.5,911.8477 1321.5,911.8477 C1321.5,911.8477 1339.5,911.8477 1339.5,921.8477 L1339.5,947.8477 C1339.5,957.8477 1321.5,957.8477 1321.5,957.8477 C1321.5,957.8477 1303.5,957.8477 1303.5,947.8477 L1303.5,921.8477 " fill="#E2E2F0" style="stroke:#181818;stroke-width:1.5;"/><path d="M1303.5,921.8477 C1303.5,931.8477 1321.5,931.8477 1321.5,931.8477 C1321.5,931.8477 1339.5,931.8477 1339.5,921.8477 " fill="none" style="stroke:#181818;stroke-width:1.5;"/><text fill="#000000" font-family="sans-serif" font-size="14" lengthAdjust="spacing" textLength="161" x="1406.5" y="119.7285">InterviewModelRepository</text><path d="M1472,68.6211 C1472,58.6211 1490,58.6211 1490,58.6211 C1490,58.6211 1508,58.6211 1508,68.6211 L1508,94.6211 C1508,104.6211 1490,104.6211 1490,104.6211 C1490,104.6211 1472,104.6211 1472,94.6211 L1472,68.6211 " fill="#E2E2F0" style="stroke:#181818;stroke-width:1.5;"/><path d="M1472,68.6211 C1472,78.6211 1490,78.6211 1490,78.6211 C1490,78.6211 1508,78.6211 1508,68.6211 " fill="none" style="stroke:#181818;stroke-width:1.5;"/><text fill="#000000" font-family="sans-serif" font-size="14" lengthAdjust="spacing" textLength="161" x="1406.5" y="908.334">InterviewModelRepository</text><path d="M1472,921.8477 C1472,911.8477 1490,911.8477 1490,911.8477 C1490,911.8477 1508,911.8477 1508,921.8477 L1508,947.8477 C1508,957.8477 1490,957.8477 1490,957.8477 C1490,957.8477 1472,957.8477 1472,947.8477 L1472,921.8477 " fill="#E2E2F0" style="stroke:#181818;stroke-width:1.5;"/><path d="M1472,921.8477 C1472,931.8477 1490,931.8477 1490,931.8477 C1490,931.8477 1508,931.8477 1508,921.8477 " fill="none" style="stroke:#181818;stroke-width:1.5;"/><rect fill="#E2E2F0" height="32.6211" rx="2.5" ry="2.5" style="stroke:#181818;stroke-width:0.5;" width="146" x="1583.5" y="89.6211"/><text fill="#000000" font-family="sans-serif" font-size="14" lengthAdjust="spacing" textLength="132" x="1590.5" y="111.7285">InterviewModelPlugin</text><rect fill="#E2E2F0" height="32.6211" rx="2.5" ry="2.5" style="stroke:#181818;stroke-width:0.5;" width="146" x="1583.5" y="893.2266"/><text fill="#000000" font-family="sans-serif" font-size="14" lengthAdjust="spacing" textLength="132" x="1590.5" y="915.334">InterviewModelPlugin</text><rect fill="#FFFFFF" height="742.9844" style="stroke:#181818;stroke-width:1.0;" width="10" x="61.5" y="133.2422"/><rect fill="#FFFFFF" height="719.6934" style="stroke:#181818;stroke-width:1.0;" width="10" x="257.5" y="156.5332"/><rect fill="#FFFFFF" height="250.3281" style="stroke:#181818;stroke-width:1.0;" width="10" x="591.5" y="219.1152"/><rect fill="#FFFFFF" height="156.4551" style="stroke:#181818;stroke-width:1.0;" width="10" x="591.5" y="563.3164"/><rect fill="#FFFFFF" height="93.873" style="stroke:#181818;stroke-width:1.0;" width="10" x="591.5" y="751.0625"/><rect fill="#FFFFFF" height="31.291" style="stroke:#181818;stroke-width:1.0;" width="10" x="794.5" y="250.4063"/><rect fill="#FFFFFF" height="31.291" style="stroke:#181818;stroke-width:1.0;" width="10" x="937.5" y="344.2793"/><rect fill="#FFFFFF" height="31.291" style="stroke:#181818;stroke-width:1.0;" width="10" x="937.5" y="594.6074"/><rect fill="#FFFFFF" height="31.291" style="stroke:#181818;stroke-width:1.0;" width="10" x="1316.5" y="406.8613"/><rect fill="#FFFFFF" height="31.291" style="stroke:#181818;stroke-width:1.0;" width="10" x="1485" y="657.1895"/><rect fill="#FFFFFF" height="31.291" style="stroke:#181818;stroke-width:1.0;" width="10" x="1651.5" y="782.3535"/><polygon fill="#181818" points="245.5,152.5332,255.5,156.5332,245.5,160.5332,249.5,156.5332" style="stroke:#181818;stroke-width:1.0;"/><line style="stroke:#181818;stroke-width:1.0;" x1="71.5" x2="251.5" y1="156.5332" y2="156.5332"/><text fill="#000000" font-family="sans-serif" font-size="13" lengthAdjust="spacing" textLength="152" x="78.5" y="151.2705">Exports interview template</text><polygon fill="#181818" points="584.5,183.8242,594.5,187.8242,584.5,191.8242,588.5,187.8242" style="stroke:#181818;stroke-width:1.0;"/><line style="stroke:#181818;stroke-width:1.0;" x1="267.5" x2="590.5" y1="187.8242" y2="187.8242"/><text fill="#000000" font-family="sans-serif" font-size="13" lengthAdjust="spacing" textLength="44" x="274.5" y="182.5615">create()</text><polygon fill="#181818" points="579.5,215.1152,589.5,219.1152,579.5,223.1152,583.5,219.1152" style="stroke:#181818;stroke-width:1.0;"/><line style="stroke:#181818;stroke-width:1.0;" x1="267.5" x2="585.5" y1="219.1152" y2="219.1152"/><text fill="#000000" font-family="sans-serif" font-size="13" lengthAdjust="spacing" textLength="115" x="274.5" y="213.8525">listAllJobOpenings()</text><polygon fill="#181818" points="782.5,246.4063,792.5,250.4063,782.5,254.4063,786.5,250.4063" style="stroke:#181818;stroke-width:1.0;"/><line style="stroke:#181818;stroke-width:1.0;" x1="601.5" x2="788.5" y1="250.4063" y2="250.4063"/><text fill="#000000" font-family="sans-serif" font-size="13" lengthAdjust="spacing" textLength="44" x="608.5" y="245.1436">create()</text><polygon fill="#181818" points="930.5,277.6973,940.5,281.6973,930.5,285.6973,934.5,281.6973" style="stroke:#181818;stroke-width:1.0;"/><line style="stroke:#181818;stroke-width:1.0;" x1="799.5" x2="936.5" y1="281.6973" y2="281.6973"/><text fill="#000000" font-family="sans-serif" font-size="13" lengthAdjust="spacing" textLength="47" x="806.5" y="276.4346">factory()</text><polygon fill="#181818" points="612.5,308.9883,602.5,312.9883,612.5,316.9883,608.5,312.9883" style="stroke:#181818;stroke-width:1.0;"/><line style="stroke:#181818;stroke-width:1.0;stroke-dasharray:2.0,2.0;" x1="606.5" x2="941.5" y1="312.9883" y2="312.9883"/><text fill="#000000" font-family="sans-serif" font-size="13" lengthAdjust="spacing" textLength="39" x="618.5" y="307.7256">factory</text><polygon fill="#181818" points="925.5,340.2793,935.5,344.2793,925.5,348.2793,929.5,344.2793" style="stroke:#181818;stroke-width:1.0;"/><line style="stroke:#181818;stroke-width:1.0;" x1="601.5" x2="931.5" y1="344.2793" y2="344.2793"/><text fill="#000000" font-family="sans-serif" font-size="13" lengthAdjust="spacing" textLength="80" x="608.5" y="339.0166">jobOpenings()</text><polygon fill="#181818" points="612.5,371.5703,602.5,375.5703,612.5,379.5703,608.5,375.5703" style="stroke:#181818;stroke-width:1.0;"/><line style="stroke:#181818;stroke-width:1.0;stroke-dasharray:2.0,2.0;" x1="606.5" x2="941.5" y1="375.5703" y2="375.5703"/><text fill="#000000" font-family="sans-serif" font-size="13" lengthAdjust="spacing" textLength="130" x="618.5" y="370.3076">JobOpeningRepository</text><polygon fill="#181818" points="1304.5,402.8613,1314.5,406.8613,1304.5,410.8613,1308.5,406.8613" style="stroke:#181818;stroke-width:1.0;"/><line style="stroke:#181818;stroke-width:1.0;" x1="601.5" x2="1310.5" y1="406.8613" y2="406.8613"/><text fill="#000000" font-family="sans-serif" font-size="13" lengthAdjust="spacing" textLength="74" x="608.5" y="401.5986">findAllOpen()</text><polygon fill="#181818" points="612.5,434.1523,602.5,438.1523,612.5,442.1523,608.5,438.1523" style="stroke:#181818;stroke-width:1.0;"/><line style="stroke:#181818;stroke-width:1.0;stroke-dasharray:2.0,2.0;" x1="606.5" x2="1320.5" y1="438.1523" y2="438.1523"/><text fill="#000000" font-family="sans-serif" font-size="13" lengthAdjust="spacing" textLength="72" x="618.5" y="432.8896">jobOpenings</text><polygon fill="#181818" points="278.5,465.4434,268.5,469.4434,278.5,473.4434,274.5,469.4434" style="stroke:#181818;stroke-width:1.0;"/><line style="stroke:#181818;stroke-width:1.0;stroke-dasharray:2.0,2.0;" x1="272.5" x2="595.5" y1="469.4434" y2="469.4434"/><text fill="#000000" font-family="sans-serif" font-size="13" lengthAdjust="spacing" textLength="72" x="284.5" y="464.1807">jobOpenings</text><polygon fill="#181818" points="82.5,496.7344,72.5,500.7344,82.5,504.7344,78.5,500.7344" style="stroke:#181818;stroke-width:1.0;"/><line style="stroke:#181818;stroke-width:1.0;stroke-dasharray:2.0,2.0;" x1="76.5" x2="256.5" y1="500.7344" y2="500.7344"/><text fill="#000000" font-family="sans-serif" font-size="13" lengthAdjust="spacing" textLength="162" x="88.5" y="495.4717">asks to select a jobOpening</text><polygon fill="#181818" points="245.5,528.0254,255.5,532.0254,245.5,536.0254,249.5,532.0254" style="stroke:#181818;stroke-width:1.0;"/><line style="stroke:#181818;stroke-width:1.0;" x1="71.5" x2="251.5" y1="532.0254" y2="532.0254"/><text fill="#000000" font-family="sans-serif" font-size="13" lengthAdjust="spacing" textLength="133" x="78.5" y="526.7627">selects the jobOpening</text><polygon fill="#181818" points="579.5,559.3164,589.5,563.3164,579.5,567.3164,583.5,563.3164" style="stroke:#181818;stroke-width:1.0;"/><line style="stroke:#181818;stroke-width:1.0;" x1="267.5" x2="585.5" y1="563.3164" y2="563.3164"/><text fill="#000000" font-family="sans-serif" font-size="13" lengthAdjust="spacing" textLength="233" x="274.5" y="558.0537">findPluginByJobReference(jobReference)</text><polygon fill="#181818" points="925.5,590.6074,935.5,594.6074,925.5,598.6074,929.5,594.6074" style="stroke:#181818;stroke-width:1.0;"/><line style="stroke:#181818;stroke-width:1.0;" x1="601.5" x2="931.5" y1="594.6074" y2="594.6074"/><text fill="#000000" font-family="sans-serif" font-size="13" lengthAdjust="spacing" textLength="99" x="608.5" y="589.3447">interviewmodels()</text><polygon fill="#181818" points="612.5,621.8984,602.5,625.8984,612.5,629.8984,608.5,625.8984" style="stroke:#181818;stroke-width:1.0;"/><line style="stroke:#181818;stroke-width:1.0;stroke-dasharray:2.0,2.0;" x1="606.5" x2="941.5" y1="625.8984" y2="625.8984"/><text fill="#000000" font-family="sans-serif" font-size="13" lengthAdjust="spacing" textLength="111" x="618.5" y="620.6357">interviewRepository</text><polygon fill="#181818" points="1473,653.1895,1483,657.1895,1473,661.1895,1477,657.1895" style="stroke:#181818;stroke-width:1.0;"/><line style="stroke:#181818;stroke-width:1.0;" x1="601.5" x2="1479" y1="657.1895" y2="657.1895"/><text fill="#000000" font-family="sans-serif" font-size="13" lengthAdjust="spacing" textLength="197" x="608.5" y="651.9268">findByJobReference(jobReference)</text><polygon fill="#181818" points="612.5,684.4805,602.5,688.4805,612.5,692.4805,608.5,688.4805" style="stroke:#181818;stroke-width:1.0;"/><line style="stroke:#181818;stroke-width:1.0;stroke-dasharray:2.0,2.0;" x1="606.5" x2="1489" y1="688.4805" y2="688.4805"/><text fill="#000000" font-family="sans-serif" font-size="13" lengthAdjust="spacing" textLength="84" x="618.5" y="683.2178">interviewModel</text><polygon fill="#181818" points="278.5,715.7715,268.5,719.7715,278.5,723.7715,274.5,719.7715" style="stroke:#181818;stroke-width:1.0;"/><line style="stroke:#181818;stroke-width:1.0;stroke-dasharray:2.0,2.0;" x1="272.5" x2="595.5" y1="719.7715" y2="719.7715"/><text fill="#000000" font-family="sans-serif" font-size="13" lengthAdjust="spacing" textLength="84" x="284.5" y="714.5088">interviewModel</text><polygon fill="#181818" points="579.5,747.0625,589.5,751.0625,579.5,755.0625,583.5,751.0625" style="stroke:#181818;stroke-width:1.0;"/><line style="stroke:#181818;stroke-width:1.0;" x1="267.5" x2="585.5" y1="751.0625" y2="751.0625"/><text fill="#000000" font-family="sans-serif" font-size="13" lengthAdjust="spacing" textLength="305" x="274.5" y="745.7998">generateAndExportInterviewTemplate(interviewModel)</text><polygon fill="#181818" points="1639.5,778.3535,1649.5,782.3535,1639.5,786.3535,1643.5,782.3535" style="stroke:#181818;stroke-width:1.0;"/><line style="stroke:#181818;stroke-width:1.0;" x1="601.5" x2="1645.5" y1="782.3535" y2="782.3535"/><text fill="#000000" font-family="sans-serif" font-size="13" lengthAdjust="spacing" textLength="195" x="608.5" y="777.0908">generateTemplateInterviewModel()</text><polygon fill="#181818" points="612.5,809.6445,602.5,813.6445,612.5,817.6445,608.5,813.6445" style="stroke:#181818;stroke-width:1.0;"/><line style="stroke:#181818;stroke-width:1.0;stroke-dasharray:2.0,2.0;" x1="606.5" x2="1655.5" y1="813.6445" y2="813.6445"/><text fill="#000000" font-family="sans-serif" font-size="13" lengthAdjust="spacing" textLength="142" x="618.5" y="808.3818">interview model template</text><polygon fill="#181818" points="278.5,840.9355,268.5,844.9355,278.5,848.9355,274.5,844.9355" style="stroke:#181818;stroke-width:1.0;"/><line style="stroke:#181818;stroke-width:1.0;stroke-dasharray:2.0,2.0;" x1="272.5" x2="595.5" y1="844.9355" y2="844.9355"/><text fill="#000000" font-family="sans-serif" font-size="13" lengthAdjust="spacing" textLength="138" x="284.5" y="839.6729">interviewModel template</text><polygon fill="#181818" points="77.5,872.2266,67.5,876.2266,77.5,880.2266,73.5,876.2266" style="stroke:#181818;stroke-width:1.0;"/><line style="stroke:#181818;stroke-width:1.0;stroke-dasharray:2.0,2.0;" x1="71.5" x2="261.5" y1="876.2266" y2="876.2266"/><text fill="#000000" font-family="sans-serif" font-size="13" lengthAdjust="spacing" textLength="137" x="83.5" y="870.9639">interviewModelTemplate</text><!--SRC=[bLRRRkCW47ttLupwb7te3-IXKhOtfLArLTLy0BMdALq25j1ky_S5Z6smmMRz4XlcdBcS6OYccY7S8qT9DCAUQvHV5F_1esYGLHMfjP1mBPJ-FA5y99mSKG9HiBCRLTKIgMbDMy8rNFGq0yiBdbfc5Wxx2uivx0ljhmNNKZ26qk76pnZ_X59HfP7N3e7Vsfa7ox7zCxP2KHFt-SxbTNRc_ZqsVH2lp_Y6qf8ugt3XHfm8vJ5WoC4Lpa7Y9GzgY2QlHA5pyQT5JlbnZAjtDTi8S37j19lRT4hIBwknLyxzmEMLKMKBjz-ja5e17VJNNeeAp3DWZO9kuR2to56NBTGIZS7cLteVji2C93l6nkHKRnnv2BGUDkqJS1dcG6AO-fvHXlqGMOGiXjGtWY5ywzwcZ0skS_OabzFyFMUrbDOOmKUwJ55UVUEM-KzsLIwz97KSQuhFfabvOsIsMzd0rqD9aizI2egKpMJTLvYM6uT2vbodsjutFDryRSrG_bMW1IXaM6iW0NUC2mRIm3fpWtp7B28nPRRyJ-ppIFdlStXaRJw2ZvmkkOoM6dKuCKxsm9arwth3BZRjm9uJhwHlv-7dJabVmFBIHUdbpzuf9Ei_Nm1_7o_aNku-rV7_uMYfJH8jUVIt_8uttJKpk-utiVEb6fUtQ5oERYQ2Q7hViTccND-ESKrRxpUlAxYv6Q_RSeLp0QohM-PjJURWZ8lfNvBi0RFv5v5OTMG_]--></g></svg>