<?xml version="1.0" encoding="us-ascii" standalone="no"?><svg xmlns="http://www.w3.org/2000/svg" xmlns:xlink="http://www.w3.org/1999/xlink" contentStyleType="text/css" height="983px" preserveAspectRatio="none" style="width:2300px;height:983px;background:#FFFFFF;" version="1.1" viewBox="0 0 2300 983" width="2300px" zoomAndPan="magnify"><defs/><g><rect fill="#FFFFFF" height="814.5664" style="stroke:#181818;stroke-width:1.0;" width="10" x="65.5" y="79.6211"/><rect fill="#FFFFFF" height="791.2754" style="stroke:#181818;stroke-width:1.0;" width="10" x="386.5" y="102.9121"/><rect fill="#FFFFFF" height="250.3281" style="stroke:#181818;stroke-width:1.0;" width="10" x="621.5" y="228.0762"/><rect fill="#FFFFFF" height="384.4922" style="stroke:#181818;stroke-width:1.0;" width="10" x="621.5" y="509.6953"/><rect fill="#FFFFFF" height="31.291" style="stroke:#181818;stroke-width:1.0;" width="10" x="943.5" y="353.2402"/><rect fill="#FFFFFF" height="31.291" style="stroke:#181818;stroke-width:1.0;" width="10" x="943.5" y="540.9863"/><rect fill="#FFFFFF" height="31.291" style="stroke:#181818;stroke-width:1.0;" width="10" x="943.5" y="634.8594"/><rect fill="#FFFFFF" height="31.291" style="stroke:#181818;stroke-width:1.0;" width="10" x="1365.5" y="791.3145"/><rect fill="#FFFFFF" height="31.291" style="stroke:#181818;stroke-width:1.0;" width="10" x="1498.5" y="728.7324"/><rect fill="#FFFFFF" height="31.291" style="stroke:#181818;stroke-width:1.0;" width="10" x="2194" y="415.8223"/><line style="stroke:#181818;stroke-width:0.5;stroke-dasharray:5.0,5.0;" x1="70" x2="70" y1="69.6211" y2="903.1875"/><line style="stroke:#181818;stroke-width:0.5;stroke-dasharray:5.0,5.0;" x1="391.5" x2="391.5" y1="69.6211" y2="903.1875"/><line style="stroke:#181818;stroke-width:0.5;stroke-dasharray:5.0,5.0;" x1="626.5" x2="626.5" y1="69.6211" y2="903.1875"/><line style="stroke:#181818;stroke-width:0.5;stroke-dasharray:5.0,5.0;" x1="805.5" x2="805.5" y1="69.6211" y2="903.1875"/><line style="stroke:#181818;stroke-width:0.5;stroke-dasharray:5.0,5.0;" x1="948.5" x2="948.5" y1="69.6211" y2="903.1875"/><line style="stroke:#181818;stroke-width:0.5;stroke-dasharray:5.0,5.0;" x1="1094.5" x2="1094.5" y1="69.6211" y2="903.1875"/><line style="stroke:#181818;stroke-width:0.5;stroke-dasharray:5.0,5.0;" x1="1244.5" x2="1244.5" y1="69.6211" y2="903.1875"/><line style="stroke:#181818;stroke-width:0.5;stroke-dasharray:5.0,5.0;" x1="1370.5" x2="1370.5" y1="69.6211" y2="903.1875"/><line style="stroke:#181818;stroke-width:0.5;stroke-dasharray:5.0,5.0;" x1="1503.5" x2="1503.5" y1="69.6211" y2="903.1875"/><line style="stroke:#181818;stroke-width:0.5;stroke-dasharray:5.0,5.0;" x1="1612.5" x2="1612.5" y1="69.6211" y2="903.1875"/><line style="stroke:#181818;stroke-width:0.5;stroke-dasharray:5.0,5.0;" x1="1721.5" x2="1721.5" y1="69.6211" y2="903.1875"/><line style="stroke:#181818;stroke-width:0.5;stroke-dasharray:5.0,5.0;" x1="1888.5" x2="1888.5" y1="69.6211" y2="903.1875"/><line style="stroke:#181818;stroke-width:0.5;stroke-dasharray:5.0,5.0;" x1="2034.5" x2="2034.5" y1="69.6211" y2="903.1875"/><line style="stroke:#181818;stroke-width:0.5;stroke-dasharray:5.0,5.0;" x1="2198.5" x2="2198.5" y1="69.6211" y2="903.1875"/><rect fill="#E2E2F0" height="32.6211" rx="2.5" ry="2.5" style="stroke:#181818;stroke-width:0.5;" width="131" x="5" y="36"/><text fill="#000000" font-family="sans-serif" font-size="14" lengthAdjust="spacing" textLength="117" x="12" y="58.1074">CustomerManager</text><rect fill="#E2E2F0" height="32.6211" rx="2.5" ry="2.5" style="stroke:#181818;stroke-width:0.5;" width="131" x="5" y="902.1875"/><text fill="#000000" font-family="sans-serif" font-size="14" lengthAdjust="spacing" textLength="117" x="12" y="924.2949">CustomerManager</text><rect fill="#E2E2F0" height="32.6211" rx="2.5" ry="2.5" style="stroke:#181818;stroke-width:0.5;" width="152" x="315.5" y="36"/><text fill="#000000" font-family="sans-serif" font-size="14" lengthAdjust="spacing" textLength="138" x="322.5" y="58.1074">PublishRankResultsUI</text><rect fill="#E2E2F0" height="32.6211" rx="2.5" ry="2.5" style="stroke:#181818;stroke-width:0.5;" width="152" x="315.5" y="902.1875"/><text fill="#000000" font-family="sans-serif" font-size="14" lengthAdjust="spacing" textLength="138" x="322.5" y="924.2949">PublishRankResultsUI</text><rect fill="#E2E2F0" height="32.6211" rx="2.5" ry="2.5" style="stroke:#181818;stroke-width:0.5;" width="202" x="525.5" y="36"/><text fill="#000000" font-family="sans-serif" font-size="14" lengthAdjust="spacing" textLength="188" x="532.5" y="58.1074">PublishRankResultsController</text><rect fill="#E2E2F0" height="32.6211" rx="2.5" ry="2.5" style="stroke:#181818;stroke-width:0.5;" width="202" x="525.5" y="902.1875"/><text fill="#000000" font-family="sans-serif" font-size="14" lengthAdjust="spacing" textLength="188" x="532.5" y="924.2949">PublishRankResultsController</text><rect fill="#E2E2F0" height="32.6211" rx="2.5" ry="2.5" style="stroke:#181818;stroke-width:0.5;" width="136" x="737.5" y="36"/><text fill="#000000" font-family="sans-serif" font-size="14" lengthAdjust="spacing" textLength="122" x="744.5" y="58.1074">PersistenceContext</text><rect fill="#E2E2F0" height="32.6211" rx="2.5" ry="2.5" style="stroke:#181818;stroke-width:0.5;" width="136" x="737.5" y="902.1875"/><text fill="#000000" font-family="sans-serif" font-size="14" lengthAdjust="spacing" textLength="122" x="744.5" y="924.2949">PersistenceContext</text><rect fill="#E2E2F0" height="32.6211" rx="2.5" ry="2.5" style="stroke:#181818;stroke-width:0.5;" width="130" x="883.5" y="36"/><text fill="#000000" font-family="sans-serif" font-size="14" lengthAdjust="spacing" textLength="116" x="890.5" y="58.1074">RepositoryFactory</text><rect fill="#E2E2F0" height="32.6211" rx="2.5" ry="2.5" style="stroke:#181818;stroke-width:0.5;" width="130" x="883.5" y="902.1875"/><text fill="#000000" font-family="sans-serif" font-size="14" lengthAdjust="spacing" textLength="116" x="890.5" y="924.2949">RepositoryFactory</text><rect fill="#E2E2F0" height="32.6211" rx="2.5" ry="2.5" style="stroke:#181818;stroke-width:0.5;" width="143" x="1023.5" y="36"/><text fill="#000000" font-family="sans-serif" font-size="14" lengthAdjust="spacing" textLength="129" x="1030.5" y="58.1074">AuthorizationService</text><rect fill="#E2E2F0" height="32.6211" rx="2.5" ry="2.5" style="stroke:#181818;stroke-width:0.5;" width="143" x="1023.5" y="902.1875"/><text fill="#000000" font-family="sans-serif" font-size="14" lengthAdjust="spacing" textLength="129" x="1030.5" y="924.2949">AuthorizationService</text><rect fill="#E2E2F0" height="32.6211" rx="2.5" ry="2.5" style="stroke:#181818;stroke-width:0.5;" width="137" x="1176.5" y="36"/><text fill="#000000" font-family="sans-serif" font-size="14" lengthAdjust="spacing" textLength="123" x="1183.5" y="58.1074">JobOpeningService</text><rect fill="#E2E2F0" height="32.6211" rx="2.5" ry="2.5" style="stroke:#181818;stroke-width:0.5;" width="137" x="1176.5" y="902.1875"/><text fill="#000000" font-family="sans-serif" font-size="14" lengthAdjust="spacing" textLength="123" x="1183.5" y="924.2949">JobOpeningService</text><rect fill="#E2E2F0" height="32.6211" rx="2.5" ry="2.5" style="stroke:#181818;stroke-width:0.5;" width="94" x="1323.5" y="36"/><text fill="#000000" font-family="sans-serif" font-size="14" lengthAdjust="spacing" textLength="80" x="1330.5" y="58.1074">RankService</text><rect fill="#E2E2F0" height="32.6211" rx="2.5" ry="2.5" style="stroke:#181818;stroke-width:0.5;" width="94" x="1323.5" y="902.1875"/><text fill="#000000" font-family="sans-serif" font-size="14" lengthAdjust="spacing" textLength="80" x="1330.5" y="924.2949">RankService</text><rect fill="#E2E2F0" height="32.6211" rx="2.5" ry="2.5" style="stroke:#181818;stroke-width:0.5;" width="152" x="1427.5" y="36"/><text fill="#000000" font-family="sans-serif" font-size="14" lengthAdjust="spacing" textLength="138" x="1434.5" y="58.1074">JobApplicationService</text><rect fill="#E2E2F0" height="32.6211" rx="2.5" ry="2.5" style="stroke:#181818;stroke-width:0.5;" width="152" x="1427.5" y="902.1875"/><text fill="#000000" font-family="sans-serif" font-size="14" lengthAdjust="spacing" textLength="138" x="1434.5" y="924.2949">JobApplicationService</text><rect fill="#E2E2F0" height="32.6211" rx="2.5" ry="2.5" style="stroke:#181818;stroke-width:0.5;" width="47" x="1589.5" y="36"/><text fill="#000000" font-family="sans-serif" font-size="14" lengthAdjust="spacing" textLength="33" x="1596.5" y="58.1074">Rank</text><rect fill="#E2E2F0" height="32.6211" rx="2.5" ry="2.5" style="stroke:#181818;stroke-width:0.5;" width="47" x="1589.5" y="902.1875"/><text fill="#000000" font-family="sans-serif" font-size="14" lengthAdjust="spacing" textLength="33" x="1596.5" y="924.2949">Rank</text><text fill="#000000" font-family="sans-serif" font-size="14" lengthAdjust="spacing" textLength="144" x="1646.5" y="66.1074">JobOpeningRepository</text><path d="M1703.5,15 C1703.5,5 1721.5,5 1721.5,5 C1721.5,5 1739.5,5 1739.5,15 L1739.5,41 C1739.5,51 1721.5,51 1721.5,51 C1721.5,51 1703.5,51 1703.5,41 L1703.5,15 " fill="#E2E2F0" style="stroke:#181818;stroke-width:1.5;"/><path d="M1703.5,15 C1703.5,25 1721.5,25 1721.5,25 C1721.5,25 1739.5,25 1739.5,15 " fill="none" style="stroke:#181818;stroke-width:1.5;"/><text fill="#000000" font-family="sans-serif" font-size="14" lengthAdjust="spacing" textLength="144" x="1646.5" y="917.2949">JobOpeningRepository</text><path d="M1703.5,930.8086 C1703.5,920.8086 1721.5,920.8086 1721.5,920.8086 C1721.5,920.8086 1739.5,920.8086 1739.5,930.8086 L1739.5,956.8086 C1739.5,966.8086 1721.5,966.8086 1721.5,966.8086 C1721.5,966.8086 1703.5,966.8086 1703.5,956.8086 L1703.5,930.8086 " fill="#E2E2F0" style="stroke:#181818;stroke-width:1.5;"/><path d="M1703.5,930.8086 C1703.5,940.8086 1721.5,940.8086 1721.5,940.8086 C1721.5,940.8086 1739.5,940.8086 1739.5,930.8086 " fill="none" style="stroke:#181818;stroke-width:1.5;"/><text fill="#000000" font-family="sans-serif" font-size="14" lengthAdjust="spacing" textLength="159" x="1806.5" y="66.1074">JobApplicationRepository</text><path d="M1871,15 C1871,5 1889,5 1889,5 C1889,5 1907,5 1907,15 L1907,41 C1907,51 1889,51 1889,51 C1889,51 1871,51 1871,41 L1871,15 " fill="#E2E2F0" style="stroke:#181818;stroke-width:1.5;"/><path d="M1871,15 C1871,25 1889,25 1889,25 C1889,25 1907,25 1907,15 " fill="none" style="stroke:#181818;stroke-width:1.5;"/><text fill="#000000" font-family="sans-serif" font-size="14" lengthAdjust="spacing" textLength="159" x="1806.5" y="917.2949">JobApplicationRepository</text><path d="M1871,930.8086 C1871,920.8086 1889,920.8086 1889,920.8086 C1889,920.8086 1907,920.8086 1907,930.8086 L1907,956.8086 C1907,966.8086 1889,966.8086 1889,966.8086 C1889,966.8086 1871,966.8086 1871,956.8086 L1871,930.8086 " fill="#E2E2F0" style="stroke:#181818;stroke-width:1.5;"/><path d="M1871,930.8086 C1871,940.8086 1889,940.8086 1889,940.8086 C1889,940.8086 1907,940.8086 1907,930.8086 " fill="none" style="stroke:#181818;stroke-width:1.5;"/><text fill="#000000" font-family="sans-serif" font-size="14" lengthAdjust="spacing" textLength="101" x="1981.5" y="66.1074">RankRepository</text><path d="M2017,15 C2017,5 2035,5 2035,5 C2035,5 2053,5 2053,15 L2053,41 C2053,51 2035,51 2035,51 C2035,51 2017,51 2017,41 L2017,15 " fill="#E2E2F0" style="stroke:#181818;stroke-width:1.5;"/><path d="M2017,15 C2017,25 2035,25 2035,25 C2035,25 2053,25 2053,15 " fill="none" style="stroke:#181818;stroke-width:1.5;"/><text fill="#000000" font-family="sans-serif" font-size="14" lengthAdjust="spacing" textLength="101" x="1981.5" y="917.2949">RankRepository</text><path d="M2017,930.8086 C2017,920.8086 2035,920.8086 2035,920.8086 C2035,920.8086 2053,920.8086 2053,930.8086 L2053,956.8086 C2053,966.8086 2035,966.8086 2035,966.8086 C2035,966.8086 2017,966.8086 2017,956.8086 L2017,930.8086 " fill="#E2E2F0" style="stroke:#181818;stroke-width:1.5;"/><path d="M2017,930.8086 C2017,940.8086 2035,940.8086 2035,940.8086 C2035,940.8086 2053,940.8086 2053,930.8086 " fill="none" style="stroke:#181818;stroke-width:1.5;"/><text fill="#000000" font-family="sans-serif" font-size="14" lengthAdjust="spacing" textLength="195" x="2098.5" y="66.1074">JobOpeningProcessRepository</text><path d="M2181,15 C2181,5 2199,5 2199,5 C2199,5 2217,5 2217,15 L2217,41 C2217,51 2199,51 2199,51 C2199,51 2181,51 2181,41 L2181,15 " fill="#E2E2F0" style="stroke:#181818;stroke-width:1.5;"/><path d="M2181,15 C2181,25 2199,25 2199,25 C2199,25 2217,25 2217,15 " fill="none" style="stroke:#181818;stroke-width:1.5;"/><text fill="#000000" font-family="sans-serif" font-size="14" lengthAdjust="spacing" textLength="195" x="2098.5" y="917.2949">JobOpeningProcessRepository</text><path d="M2181,930.8086 C2181,920.8086 2199,920.8086 2199,920.8086 C2199,920.8086 2217,920.8086 2217,930.8086 L2217,956.8086 C2217,966.8086 2199,966.8086 2199,966.8086 C2199,966.8086 2181,966.8086 2181,956.8086 L2181,930.8086 " fill="#E2E2F0" style="stroke:#181818;stroke-width:1.5;"/><path d="M2181,930.8086 C2181,940.8086 2199,940.8086 2199,940.8086 C2199,940.8086 2217,940.8086 2217,930.8086 " fill="none" style="stroke:#181818;stroke-width:1.5;"/><rect fill="#FFFFFF" height="814.5664" style="stroke:#181818;stroke-width:1.0;" width="10" x="65.5" y="79.6211"/><rect fill="#FFFFFF" height="791.2754" style="stroke:#181818;stroke-width:1.0;" width="10" x="386.5" y="102.9121"/><rect fill="#FFFFFF" height="250.3281" style="stroke:#181818;stroke-width:1.0;" width="10" x="621.5" y="228.0762"/><rect fill="#FFFFFF" height="384.4922" style="stroke:#181818;stroke-width:1.0;" width="10" x="621.5" y="509.6953"/><rect fill="#FFFFFF" height="31.291" style="stroke:#181818;stroke-width:1.0;" width="10" x="943.5" y="353.2402"/><rect fill="#FFFFFF" height="31.291" style="stroke:#181818;stroke-width:1.0;" width="10" x="943.5" y="540.9863"/><rect fill="#FFFFFF" height="31.291" style="stroke:#181818;stroke-width:1.0;" width="10" x="943.5" y="634.8594"/><rect fill="#FFFFFF" height="31.291" style="stroke:#181818;stroke-width:1.0;" width="10" x="1365.5" y="791.3145"/><rect fill="#FFFFFF" height="31.291" style="stroke:#181818;stroke-width:1.0;" width="10" x="1498.5" y="728.7324"/><rect fill="#FFFFFF" height="31.291" style="stroke:#181818;stroke-width:1.0;" width="10" x="2194" y="415.8223"/><polygon fill="#181818" points="374.5,98.9121,384.5,102.9121,374.5,106.9121,378.5,102.9121" style="stroke:#181818;stroke-width:1.0;"/><line style="stroke:#181818;stroke-width:1.0;" x1="75.5" x2="380.5" y1="102.9121" y2="102.9121"/><text fill="#000000" font-family="sans-serif" font-size="13" lengthAdjust="spacing" textLength="113" x="82.5" y="97.6494">publish rank results</text><polygon fill="#181818" points="614.5,130.2031,624.5,134.2031,614.5,138.2031,618.5,134.2031" style="stroke:#181818;stroke-width:1.0;"/><line style="stroke:#181818;stroke-width:1.0;" x1="396.5" x2="620.5" y1="134.2031" y2="134.2031"/><text fill="#000000" font-family="sans-serif" font-size="13" lengthAdjust="spacing" textLength="44" x="403.5" y="128.9404">create()</text><polygon fill="#181818" points="86.5,161.4941,76.5,165.4941,86.5,169.4941,82.5,165.4941" style="stroke:#181818;stroke-width:1.0;"/><line style="stroke:#181818;stroke-width:1.0;stroke-dasharray:2.0,2.0;" x1="80.5" x2="385.5" y1="165.4941" y2="165.4941"/><text fill="#000000" font-family="sans-serif" font-size="13" lengthAdjust="spacing" textLength="180" x="92.5" y="160.2314">asks to insert the jobReference</text><polygon fill="#181818" points="374.5,192.7852,384.5,196.7852,374.5,200.7852,378.5,196.7852" style="stroke:#181818;stroke-width:1.0;"/><line style="stroke:#181818;stroke-width:1.0;" x1="75.5" x2="380.5" y1="196.7852" y2="196.7852"/><text fill="#000000" font-family="sans-serif" font-size="13" lengthAdjust="spacing" textLength="140" x="82.5" y="191.5225">inserts the jobReference</text><polygon fill="#181818" points="609.5,224.0762,619.5,228.0762,609.5,232.0762,613.5,228.0762" style="stroke:#181818;stroke-width:1.0;"/><line style="stroke:#181818;stroke-width:1.0;" x1="396.5" x2="615.5" y1="228.0762" y2="228.0762"/><text fill="#000000" font-family="sans-serif" font-size="13" lengthAdjust="spacing" textLength="206" x="403.5" y="222.8135">verifyIsInResultPhase(jobReference)</text><polygon fill="#181818" points="793.5,255.3672,803.5,259.3672,793.5,263.3672,797.5,259.3672" style="stroke:#181818;stroke-width:1.0;"/><line style="stroke:#181818;stroke-width:1.0;" x1="631.5" x2="799.5" y1="259.3672" y2="259.3672"/><text fill="#000000" font-family="sans-serif" font-size="13" lengthAdjust="spacing" textLength="75" x="638.5" y="254.1045">repositories()</text><polygon fill="#181818" points="936.5,286.6582,946.5,290.6582,936.5,294.6582,940.5,290.6582" style="stroke:#181818;stroke-width:1.0;"/><line style="stroke:#181818;stroke-width:1.0;" x1="805.5" x2="942.5" y1="290.6582" y2="290.6582"/><text fill="#000000" font-family="sans-serif" font-size="13" lengthAdjust="spacing" textLength="44" x="812.5" y="285.3955">create()</text><polygon fill="#181818" points="642.5,317.9492,632.5,321.9492,642.5,325.9492,638.5,321.9492" style="stroke:#181818;stroke-width:1.0;"/><line style="stroke:#181818;stroke-width:1.0;stroke-dasharray:2.0,2.0;" x1="636.5" x2="804.5" y1="321.9492" y2="321.9492"/><text fill="#000000" font-family="sans-serif" font-size="13" lengthAdjust="spacing" textLength="39" x="648.5" y="316.6865">factory</text><polygon fill="#181818" points="931.5,349.2402,941.5,353.2402,931.5,357.2402,935.5,353.2402" style="stroke:#181818;stroke-width:1.0;"/><line style="stroke:#181818;stroke-width:1.0;" x1="631.5" x2="937.5" y1="353.2402" y2="353.2402"/><text fill="#000000" font-family="sans-serif" font-size="13" lengthAdjust="spacing" textLength="135" x="638.5" y="347.9775">jobOpeningProcesses()</text><polygon fill="#181818" points="642.5,380.5313,632.5,384.5313,642.5,388.5313,638.5,384.5313" style="stroke:#181818;stroke-width:1.0;"/><line style="stroke:#181818;stroke-width:1.0;stroke-dasharray:2.0,2.0;" x1="636.5" x2="947.5" y1="384.5313" y2="384.5313"/><text fill="#000000" font-family="sans-serif" font-size="13" lengthAdjust="spacing" textLength="175" x="648.5" y="379.2686">jobOpeningProcessRepository</text><polygon fill="#181818" points="2182,411.8223,2192,415.8223,2182,419.8223,2186,415.8223" style="stroke:#181818;stroke-width:1.0;"/><line style="stroke:#181818;stroke-width:1.0;" x1="631.5" x2="2188" y1="415.8223" y2="415.8223"/><text fill="#000000" font-family="sans-serif" font-size="13" lengthAdjust="spacing" textLength="197" x="638.5" y="410.5596">findByJobReference(jobReference)</text><polygon fill="#181818" points="642.5,443.1133,632.5,447.1133,642.5,451.1133,638.5,447.1133" style="stroke:#181818;stroke-width:1.0;"/><line style="stroke:#181818;stroke-width:1.0;stroke-dasharray:2.0,2.0;" x1="636.5" x2="2198" y1="447.1133" y2="447.1133"/><text fill="#000000" font-family="sans-serif" font-size="13" lengthAdjust="spacing" textLength="113" x="648.5" y="441.8506">jobOpeningProcess</text><polygon fill="#181818" points="407.5,474.4043,397.5,478.4043,407.5,482.4043,403.5,478.4043" style="stroke:#181818;stroke-width:1.0;"/><line style="stroke:#181818;stroke-width:1.0;stroke-dasharray:2.0,2.0;" x1="401.5" x2="625.5" y1="478.4043" y2="478.4043"/><text fill="#000000" font-family="sans-serif" font-size="13" lengthAdjust="spacing" textLength="113" x="413.5" y="473.1416">jobOpeningProcess</text><polygon fill="#181818" points="609.5,505.6953,619.5,509.6953,609.5,513.6953,613.5,509.6953" style="stroke:#181818;stroke-width:1.0;"/><line style="stroke:#181818;stroke-width:1.0;" x1="396.5" x2="615.5" y1="509.6953" y2="509.6953"/><text fill="#000000" font-family="sans-serif" font-size="13" lengthAdjust="spacing" textLength="198" x="403.5" y="504.4326">publishRankResults(jobReference)</text><polygon fill="#181818" points="931.5,536.9863,941.5,540.9863,931.5,544.9863,935.5,540.9863" style="stroke:#181818;stroke-width:1.0;"/><line style="stroke:#181818;stroke-width:1.0;" x1="631.5" x2="937.5" y1="540.9863" y2="540.9863"/><text fill="#000000" font-family="sans-serif" font-size="13" lengthAdjust="spacing" textLength="40" x="638.5" y="535.7236">ranks()</text><polygon fill="#181818" points="642.5,568.2773,632.5,572.2773,642.5,576.2773,638.5,572.2773" style="stroke:#181818;stroke-width:1.0;"/><line style="stroke:#181818;stroke-width:1.0;stroke-dasharray:2.0,2.0;" x1="636.5" x2="947.5" y1="572.2773" y2="572.2773"/><text fill="#000000" font-family="sans-serif" font-size="13" lengthAdjust="spacing" textLength="87" x="648.5" y="567.0146">rankRepository</text><polygon fill="#181818" points="1358.5,599.5684,1368.5,603.5684,1358.5,607.5684,1362.5,603.5684" style="stroke:#181818;stroke-width:1.0;"/><line style="stroke:#181818;stroke-width:1.0;" x1="631.5" x2="1364.5" y1="603.5684" y2="603.5684"/><text fill="#000000" font-family="sans-serif" font-size="13" lengthAdjust="spacing" textLength="131" x="638.5" y="598.3057">create(rankRepository)</text><polygon fill="#181818" points="931.5,630.8594,941.5,634.8594,931.5,638.8594,935.5,634.8594" style="stroke:#181818;stroke-width:1.0;"/><line style="stroke:#181818;stroke-width:1.0;" x1="631.5" x2="937.5" y1="634.8594" y2="634.8594"/><text fill="#000000" font-family="sans-serif" font-size="13" lengthAdjust="spacing" textLength="77" x="638.5" y="629.5967">applications()</text><polygon fill="#181818" points="642.5,662.1504,632.5,666.1504,642.5,670.1504,638.5,666.1504" style="stroke:#181818;stroke-width:1.0;"/><line style="stroke:#181818;stroke-width:1.0;stroke-dasharray:2.0,2.0;" x1="636.5" x2="947.5" y1="666.1504" y2="666.1504"/><text fill="#000000" font-family="sans-serif" font-size="13" lengthAdjust="spacing" textLength="124" x="648.5" y="660.8877">applicationRepository</text><polygon fill="#181818" points="1491.5,693.4414,1501.5,697.4414,1491.5,701.4414,1495.5,697.4414" style="stroke:#181818;stroke-width:1.0;"/><line style="stroke:#181818;stroke-width:1.0;" x1="631.5" x2="1497.5" y1="697.4414" y2="697.4414"/><text fill="#000000" font-family="sans-serif" font-size="13" lengthAdjust="spacing" textLength="187" x="638.5" y="692.1787">create(jobApplicationRepository)</text><polygon fill="#181818" points="1486.5,724.7324,1496.5,728.7324,1486.5,732.7324,1490.5,728.7324" style="stroke:#181818;stroke-width:1.0;"/><line style="stroke:#181818;stroke-width:1.0;" x1="631.5" x2="1492.5" y1="728.7324" y2="728.7324"/><text fill="#000000" font-family="sans-serif" font-size="13" lengthAdjust="spacing" textLength="197" x="638.5" y="723.4697">findByJobReference(jobReference)</text><polygon fill="#181818" points="642.5,756.0234,632.5,760.0234,642.5,764.0234,638.5,760.0234" style="stroke:#181818;stroke-width:1.0;"/><line style="stroke:#181818;stroke-width:1.0;stroke-dasharray:2.0,2.0;" x1="636.5" x2="1502.5" y1="760.0234" y2="760.0234"/><text fill="#000000" font-family="sans-serif" font-size="13" lengthAdjust="spacing" textLength="103" x="648.5" y="754.7607">listAllApplications</text><polygon fill="#181818" points="1353.5,787.3145,1363.5,791.3145,1353.5,795.3145,1357.5,791.3145" style="stroke:#181818;stroke-width:1.0;"/><line style="stroke:#181818;stroke-width:1.0;" x1="631.5" x2="1359.5" y1="791.3145" y2="791.3145"/><text fill="#000000" font-family="sans-serif" font-size="13" lengthAdjust="spacing" textLength="253" x="638.5" y="786.0518">getRanksByJobApplications(applicationList)</text><polygon fill="#181818" points="642.5,818.6055,632.5,822.6055,642.5,826.6055,638.5,822.6055" style="stroke:#181818;stroke-width:1.0;"/><line style="stroke:#181818;stroke-width:1.0;stroke-dasharray:2.0,2.0;" x1="636.5" x2="1369.5" y1="822.6055" y2="822.6055"/><text fill="#000000" font-family="sans-serif" font-size="13" lengthAdjust="spacing" textLength="46" x="648.5" y="817.3428">rankList</text><polygon fill="#181818" points="1358.5,849.8965,1368.5,853.8965,1358.5,857.8965,1362.5,853.8965" style="stroke:#181818;stroke-width:1.0;"/><line style="stroke:#181818;stroke-width:1.0;" x1="631.5" x2="1364.5" y1="853.8965" y2="853.8965"/><text fill="#000000" font-family="sans-serif" font-size="13" lengthAdjust="spacing" textLength="226" x="638.5" y="848.6338">publishRanks(ranksList,applicationList)</text><polygon fill="#181818" points="86.5,881.1875,76.5,885.1875,86.5,889.1875,82.5,885.1875" style="stroke:#181818;stroke-width:1.0;"/><line style="stroke:#181818;stroke-width:1.0;stroke-dasharray:2.0,2.0;" x1="80.5" x2="385.5" y1="885.1875" y2="885.1875"/><text fill="#000000" font-family="sans-serif" font-size="13" lengthAdjust="spacing" textLength="287" x="92.5" y="879.9248">displays message saying email sent successfully</text><!--SRC=[hLR1Zjem4BtdAtmhIDrovr29RhKIgrP5LFi19WnWDh5JZuEQ_VgE2IHZuWIMBPVTs6zcthFVsFwqSwx0wMHIP5AxCi- -f2QV8FmfGQVmi5PoQsMU98MqJgMg891uBD6P7EnFgUKMh90ePgapDW0jobMcSBUK-dK9M6OEN-OU-JA_0diqsbcJPNNYzYiC0uiAdUVe4V3NUJ0R3T1BA0mgObWzIK-qyk3Jlm5mLhgTiUfDEcNqRx07bS9H7es_dRw3W6Up-bM0LdhBq9t1a0n9PM3sUPbvLXIPIY-vH2Sw5JpokycbqibQEhcI28nNko0XttOyY6BrmiZeH1jQxoeF24TYr1RMf83Onx0pdT0sgeDqSF9WSlmZ7hwIqyHK5BM_XFLhOck79OcWNnD7ZZmE-1_5K2Ipu5Ia5WWr6eSWGjM5fiJl5OKpGca4wuJRWTYRrH8sO8zERE92PZKS1_0HCWUmQbFDSQxhRbdiQFL6F9pnR1Io9cecMLegmZg7gjZpwYf0BfoZAEZSJB4r2g2NAZQdrkiXq-RTN-vxoASH-7IPy9oYKte_uAGcUWtzcKEgGxubdKgllrNFR7UkRjNpBVo6gbvN7DLvKrsk_MpZszB771YnTz6v3Vw3jrix-KFWemQouGbsXsVu1T2qJfXsV5sBR8_UZqgIqLFylcw8t5cDndtFJJ9-Rxxx-YfoQ_AEYbJgh1IPqysoZ45xkscesf0Vjk3y01xryK8Zjaq_Y4TC9NzCDBCyVzJEFbjKHZJT47dMltYqDFhSdplCpxdwhjIrGdgFLYXoEb3eZIbGLdJ22A07JIOGw963PUfFcqsPPLMTvXy0]--></g></svg>