<?xml version="1.0" encoding="us-ascii" standalone="no"?><svg xmlns="http://www.w3.org/2000/svg" xmlns:xlink="http://www.w3.org/1999/xlink" contentStyleType="text/css" height="611px" preserveAspectRatio="none" style="width:1468px;height:611px;background:#FFFFFF;" version="1.1" viewBox="0 0 1468 611" width="1468px" zoomAndPan="magnify"><defs/><g><text fill="#000000" font-family="sans-serif" font-size="14" font-weight="bold" lengthAdjust="spacing" textLength="294" x="580" y="22.6738">Upload Requirements File - Class Diagram</text><!--class JobRequirementsUploadUI--><g id="elem_JobRequirementsUploadUI"><rect codeLine="3" fill="#F1F1F1" height="79.2813" id="JobRequirementsUploadUI" rx="2.5" ry="2.5" style="stroke:#181818;stroke-width:0.5;" width="518" x="368" y="43.6406"/><ellipse cx="539.75" cy="59.6406" fill="#ADD1B2" rx="11" ry="11" style="stroke:#181818;stroke-width:1.0;"/><path d="M542.5156,55.5156 Q542.6719,55.2969 542.8594,55.1875 Q543.0469,55.0781 543.2656,55.0781 Q543.6406,55.0781 543.875,55.3438 Q544.1094,55.5938 544.1094,56.2031 L544.1094,57.6563 Q544.1094,58.2656 543.875,58.5313 Q543.6406,58.7969 543.2656,58.7969 Q542.9219,58.7969 542.7188,58.5938 Q542.5156,58.4063 542.4063,57.8906 Q542.3594,57.5313 542.1719,57.3438 Q541.8438,56.9688 541.2344,56.75 Q540.625,56.5313 540,56.5313 Q539.2344,56.5313 538.5938,56.8594 Q537.9688,57.1875 537.4688,57.9375 Q536.9844,58.6875 536.9844,59.7188 L536.9844,60.8125 Q536.9844,62.0469 537.875,62.875 Q538.7656,63.6875 540.3594,63.6875 Q541.2969,63.6875 541.9531,63.4375 Q542.3438,63.2813 542.7656,62.8438 Q543.0313,62.5781 543.1719,62.5 Q543.3281,62.4219 543.5313,62.4219 Q543.8594,62.4219 544.1094,62.6875 Q544.375,62.9375 544.375,63.2813 Q544.375,63.625 544.0313,64.0313 Q543.5313,64.6094 542.7344,64.9375 Q541.6563,65.3906 540.3594,65.3906 Q538.8438,65.3906 537.6406,64.7656 Q536.6563,64.2656 535.9688,63.2031 Q535.2813,62.125 535.2813,60.8438 L535.2813,59.6875 Q535.2813,58.3594 535.8906,57.2188 Q536.5156,56.0625 537.6094,55.4531 Q538.7031,54.8281 539.9375,54.8281 Q540.6719,54.8281 541.3125,55 Q541.9688,55.1563 542.5156,55.5156 Z " fill="#000000"/><text fill="#000000" font-family="sans-serif" font-size="14" lengthAdjust="spacing" textLength="166" x="560.25" y="64.4941">JobRequirementsUploadUI</text><line style="stroke:#181818;stroke-width:0.5;" x1="369" x2="885" y1="75.6406" y2="75.6406"/><line style="stroke:#181818;stroke-width:0.5;" x1="369" x2="885" y1="83.6406" y2="83.6406"/><ellipse cx="379" cy="96.9609" fill="#84BE84" rx="3" ry="3" style="stroke:#038048;stroke-width:1.0;"/><text fill="#000000" font-family="sans-serif" font-size="14" lengthAdjust="spacing" textLength="414" x="388" y="100.3145">allJobApplications(jobReference: String): Iterable&lt;JobApplication&gt;</text><ellipse cx="379" cy="112.6016" fill="#84BE84" rx="3" ry="3" style="stroke:#038048;stroke-width:1.0;"/><text fill="#000000" font-family="sans-serif" font-size="14" lengthAdjust="spacing" textLength="492" x="388" y="115.9551">validateFile(inputPath: String, outputPath: String, jobReference: String): String</text></g><!--class JobRequirementsUploadController--><g id="elem_JobRequirementsUploadController"><rect codeLine="8" fill="#F1F1F1" height="94.9219" id="JobRequirementsUploadController" rx="2.5" ry="2.5" style="stroke:#181818;stroke-width:0.5;" width="518" x="368" y="198.6406"/><ellipse cx="514.75" cy="214.6406" fill="#ADD1B2" rx="11" ry="11" style="stroke:#181818;stroke-width:1.0;"/><path d="M517.5156,210.5156 Q517.6719,210.2969 517.8594,210.1875 Q518.0469,210.0781 518.2656,210.0781 Q518.6406,210.0781 518.875,210.3438 Q519.1094,210.5938 519.1094,211.2031 L519.1094,212.6563 Q519.1094,213.2656 518.875,213.5313 Q518.6406,213.7969 518.2656,213.7969 Q517.9219,213.7969 517.7188,213.5938 Q517.5156,213.4063 517.4063,212.8906 Q517.3594,212.5313 517.1719,212.3438 Q516.8438,211.9688 516.2344,211.75 Q515.625,211.5313 515,211.5313 Q514.2344,211.5313 513.5938,211.8594 Q512.9688,212.1875 512.4688,212.9375 Q511.9844,213.6875 511.9844,214.7188 L511.9844,215.8125 Q511.9844,217.0469 512.875,217.875 Q513.7656,218.6875 515.3594,218.6875 Q516.2969,218.6875 516.9531,218.4375 Q517.3438,218.2813 517.7656,217.8438 Q518.0313,217.5781 518.1719,217.5 Q518.3281,217.4219 518.5313,217.4219 Q518.8594,217.4219 519.1094,217.6875 Q519.375,217.9375 519.375,218.2813 Q519.375,218.625 519.0313,219.0313 Q518.5313,219.6094 517.7344,219.9375 Q516.6563,220.3906 515.3594,220.3906 Q513.8438,220.3906 512.6406,219.7656 Q511.6563,219.2656 510.9688,218.2031 Q510.2813,217.125 510.2813,215.8438 L510.2813,214.6875 Q510.2813,213.3594 510.8906,212.2188 Q511.5156,211.0625 512.6094,210.4531 Q513.7031,209.8281 514.9375,209.8281 Q515.6719,209.8281 516.3125,210 Q516.9688,210.1563 517.5156,210.5156 Z " fill="#000000"/><text fill="#000000" font-family="sans-serif" font-size="14" lengthAdjust="spacing" textLength="216" x="535.25" y="219.4941">JobRequirementsUploadController</text><line style="stroke:#181818;stroke-width:0.5;" x1="369" x2="885" y1="230.6406" y2="230.6406"/><line style="stroke:#181818;stroke-width:0.5;" x1="369" x2="885" y1="238.6406" y2="238.6406"/><ellipse cx="379" cy="251.9609" fill="#84BE84" rx="3" ry="3" style="stroke:#038048;stroke-width:1.0;"/><text fill="#000000" font-family="sans-serif" font-size="14" lengthAdjust="spacing" textLength="84" x="388" y="255.3145">create(): void</text><ellipse cx="379" cy="267.6016" fill="#84BE84" rx="3" ry="3" style="stroke:#038048;stroke-width:1.0;"/><text fill="#000000" font-family="sans-serif" font-size="14" lengthAdjust="spacing" textLength="414" x="388" y="270.9551">allJobApplications(jobReference: String): Iterable&lt;JobApplication&gt;</text><ellipse cx="379" cy="283.2422" fill="#84BE84" rx="3" ry="3" style="stroke:#038048;stroke-width:1.0;"/><text fill="#000000" font-family="sans-serif" font-size="14" lengthAdjust="spacing" textLength="492" x="388" y="286.5957">validateFile(inputPath: String, outputPath: String, jobReference: String): String</text></g><!--class PersistenceContext--><g id="elem_PersistenceContext"><rect codeLine="14" fill="#F1F1F1" height="63.6406" id="PersistenceContext" rx="2.5" ry="2.5" style="stroke:#181818;stroke-width:0.5;" width="154" x="7" y="385.1406"/><ellipse cx="22" cy="401.1406" fill="#ADD1B2" rx="11" ry="11" style="stroke:#181818;stroke-width:1.0;"/><path d="M24.7656,397.0156 Q24.9219,396.7969 25.1094,396.6875 Q25.2969,396.5781 25.5156,396.5781 Q25.8906,396.5781 26.125,396.8438 Q26.3594,397.0938 26.3594,397.7031 L26.3594,399.1563 Q26.3594,399.7656 26.125,400.0313 Q25.8906,400.2969 25.5156,400.2969 Q25.1719,400.2969 24.9688,400.0938 Q24.7656,399.9063 24.6563,399.3906 Q24.6094,399.0313 24.4219,398.8438 Q24.0938,398.4688 23.4844,398.25 Q22.875,398.0313 22.25,398.0313 Q21.4844,398.0313 20.8438,398.3594 Q20.2188,398.6875 19.7188,399.4375 Q19.2344,400.1875 19.2344,401.2188 L19.2344,402.3125 Q19.2344,403.5469 20.125,404.375 Q21.0156,405.1875 22.6094,405.1875 Q23.5469,405.1875 24.2031,404.9375 Q24.5938,404.7813 25.0156,404.3438 Q25.2813,404.0781 25.4219,404 Q25.5781,403.9219 25.7813,403.9219 Q26.1094,403.9219 26.3594,404.1875 Q26.625,404.4375 26.625,404.7813 Q26.625,405.125 26.2813,405.5313 Q25.7813,406.1094 24.9844,406.4375 Q23.9063,406.8906 22.6094,406.8906 Q21.0938,406.8906 19.8906,406.2656 Q18.9063,405.7656 18.2188,404.7031 Q17.5313,403.625 17.5313,402.3438 L17.5313,401.1875 Q17.5313,399.8594 18.1406,398.7188 Q18.7656,397.5625 19.8594,396.9531 Q20.9531,396.3281 22.1875,396.3281 Q22.9219,396.3281 23.5625,396.5 Q24.2188,396.6563 24.7656,397.0156 Z " fill="#000000"/><text fill="#000000" font-family="sans-serif" font-size="14" lengthAdjust="spacing" textLength="122" x="36" y="405.9941">PersistenceContext</text><line style="stroke:#181818;stroke-width:0.5;" x1="8" x2="160" y1="417.1406" y2="417.1406"/><line style="stroke:#181818;stroke-width:0.5;" x1="8" x2="160" y1="425.1406" y2="425.1406"/><ellipse cx="18" cy="438.4609" fill="#84BE84" rx="3" ry="3" style="stroke:#038048;stroke-width:1.0;"/><text fill="#000000" font-family="sans-serif" font-size="14" lengthAdjust="spacing" textLength="84" x="27" y="441.8145">create(): void</text></g><!--class RepositoryFactory--><g id="elem_RepositoryFactory"><rect codeLine="18" fill="#F1F1F1" height="94.9219" id="RepositoryFactory" rx="2.5" ry="2.5" style="stroke:#181818;stroke-width:0.5;" width="329" x="196.5" y="369.6406"/><ellipse cx="298.75" cy="385.6406" fill="#ADD1B2" rx="11" ry="11" style="stroke:#181818;stroke-width:1.0;"/><path d="M301.5156,381.5156 Q301.6719,381.2969 301.8594,381.1875 Q302.0469,381.0781 302.2656,381.0781 Q302.6406,381.0781 302.875,381.3438 Q303.1094,381.5938 303.1094,382.2031 L303.1094,383.6563 Q303.1094,384.2656 302.875,384.5313 Q302.6406,384.7969 302.2656,384.7969 Q301.9219,384.7969 301.7188,384.5938 Q301.5156,384.4063 301.4063,383.8906 Q301.3594,383.5313 301.1719,383.3438 Q300.8438,382.9688 300.2344,382.75 Q299.625,382.5313 299,382.5313 Q298.2344,382.5313 297.5938,382.8594 Q296.9688,383.1875 296.4688,383.9375 Q295.9844,384.6875 295.9844,385.7188 L295.9844,386.8125 Q295.9844,388.0469 296.875,388.875 Q297.7656,389.6875 299.3594,389.6875 Q300.2969,389.6875 300.9531,389.4375 Q301.3438,389.2813 301.7656,388.8438 Q302.0313,388.5781 302.1719,388.5 Q302.3281,388.4219 302.5313,388.4219 Q302.8594,388.4219 303.1094,388.6875 Q303.375,388.9375 303.375,389.2813 Q303.375,389.625 303.0313,390.0313 Q302.5313,390.6094 301.7344,390.9375 Q300.6563,391.3906 299.3594,391.3906 Q297.8438,391.3906 296.6406,390.7656 Q295.6563,390.2656 294.9688,389.2031 Q294.2813,388.125 294.2813,386.8438 L294.2813,385.6875 Q294.2813,384.3594 294.8906,383.2188 Q295.5156,382.0625 296.6094,381.4531 Q297.7031,380.8281 298.9375,380.8281 Q299.6719,380.8281 300.3125,381 Q300.9688,381.1563 301.5156,381.5156 Z " fill="#000000"/><text fill="#000000" font-family="sans-serif" font-size="14" lengthAdjust="spacing" textLength="116" x="319.25" y="390.4941">RepositoryFactory</text><line style="stroke:#181818;stroke-width:0.5;" x1="197.5" x2="524.5" y1="401.6406" y2="401.6406"/><line style="stroke:#181818;stroke-width:0.5;" x1="197.5" x2="524.5" y1="409.6406" y2="409.6406"/><ellipse cx="207.5" cy="422.9609" fill="#84BE84" rx="3" ry="3" style="stroke:#038048;stroke-width:1.0;"/><text fill="#000000" font-family="sans-serif" font-size="14" lengthAdjust="spacing" textLength="177" x="216.5" y="426.3145">factory(): RepositoryFactory</text><ellipse cx="207.5" cy="438.6016" fill="#84BE84" rx="3" ry="3" style="stroke:#038048;stroke-width:1.0;"/><text fill="#000000" font-family="sans-serif" font-size="14" lengthAdjust="spacing" textLength="272" x="216.5" y="441.9551">jobApplications(): JobApplicationRepository</text><ellipse cx="207.5" cy="454.2422" fill="#84BE84" rx="3" ry="3" style="stroke:#038048;stroke-width:1.0;"/><text fill="#000000" font-family="sans-serif" font-size="14" lengthAdjust="spacing" textLength="303" x="216.5" y="457.5957">jobRequirements(): JobRequirementsRepository</text></g><!--class JobApplicationService--><g id="elem_JobApplicationService"><rect codeLine="24" fill="#F1F1F1" height="79.2813" id="JobApplicationService" rx="2.5" ry="2.5" style="stroke:#181818;stroke-width:0.5;" width="455" x="560.5" y="377.6406"/><ellipse cx="714.75" cy="393.6406" fill="#ADD1B2" rx="11" ry="11" style="stroke:#181818;stroke-width:1.0;"/><path d="M717.5156,389.5156 Q717.6719,389.2969 717.8594,389.1875 Q718.0469,389.0781 718.2656,389.0781 Q718.6406,389.0781 718.875,389.3438 Q719.1094,389.5938 719.1094,390.2031 L719.1094,391.6563 Q719.1094,392.2656 718.875,392.5313 Q718.6406,392.7969 718.2656,392.7969 Q717.9219,392.7969 717.7188,392.5938 Q717.5156,392.4063 717.4063,391.8906 Q717.3594,391.5313 717.1719,391.3438 Q716.8438,390.9688 716.2344,390.75 Q715.625,390.5313 715,390.5313 Q714.2344,390.5313 713.5938,390.8594 Q712.9688,391.1875 712.4688,391.9375 Q711.9844,392.6875 711.9844,393.7188 L711.9844,394.8125 Q711.9844,396.0469 712.875,396.875 Q713.7656,397.6875 715.3594,397.6875 Q716.2969,397.6875 716.9531,397.4375 Q717.3438,397.2813 717.7656,396.8438 Q718.0313,396.5781 718.1719,396.5 Q718.3281,396.4219 718.5313,396.4219 Q718.8594,396.4219 719.1094,396.6875 Q719.375,396.9375 719.375,397.2813 Q719.375,397.625 719.0313,398.0313 Q718.5313,398.6094 717.7344,398.9375 Q716.6563,399.3906 715.3594,399.3906 Q713.8438,399.3906 712.6406,398.7656 Q711.6563,398.2656 710.9688,397.2031 Q710.2813,396.125 710.2813,394.8438 L710.2813,393.6875 Q710.2813,392.3594 710.8906,391.2188 Q711.5156,390.0625 712.6094,389.4531 Q713.7031,388.8281 714.9375,388.8281 Q715.6719,388.8281 716.3125,389 Q716.9688,389.1563 717.5156,389.5156 Z " fill="#000000"/><text fill="#000000" font-family="sans-serif" font-size="14" lengthAdjust="spacing" textLength="138" x="735.25" y="398.4941">JobApplicationService</text><line style="stroke:#181818;stroke-width:0.5;" x1="561.5" x2="1014.5" y1="409.6406" y2="409.6406"/><line style="stroke:#181818;stroke-width:0.5;" x1="561.5" x2="1014.5" y1="417.6406" y2="417.6406"/><ellipse cx="571.5" cy="430.9609" fill="#84BE84" rx="3" ry="3" style="stroke:#038048;stroke-width:1.0;"/><text fill="#000000" font-family="sans-serif" font-size="14" lengthAdjust="spacing" textLength="407" x="580.5" y="434.3145">create(jobApplicationRepository: JobApplicationRepository): void</text><ellipse cx="571.5" cy="446.6016" fill="#84BE84" rx="3" ry="3" style="stroke:#038048;stroke-width:1.0;"/><text fill="#000000" font-family="sans-serif" font-size="14" lengthAdjust="spacing" textLength="429" x="580.5" y="449.9551">findByJobReference(jobReference: String): Iterable&lt;JobApplication&gt;</text></g><!--class JobRequirementsPlugin--><g id="elem_JobRequirementsPlugin"><rect codeLine="29" fill="#F1F1F1" height="63.6406" id="JobRequirementsPlugin" rx="2.5" ry="2.5" style="stroke:#181818;stroke-width:0.5;" width="410" x="1051" y="385.1406"/><ellipse cx="1177.25" cy="401.1406" fill="#ADD1B2" rx="11" ry="11" style="stroke:#181818;stroke-width:1.0;"/><path d="M1180.0156,397.0156 Q1180.1719,396.7969 1180.3594,396.6875 Q1180.5469,396.5781 1180.7656,396.5781 Q1181.1406,396.5781 1181.375,396.8438 Q1181.6094,397.0938 1181.6094,397.7031 L1181.6094,399.1563 Q1181.6094,399.7656 1181.375,400.0313 Q1181.1406,400.2969 1180.7656,400.2969 Q1180.4219,400.2969 1180.2188,400.0938 Q1180.0156,399.9063 1179.9063,399.3906 Q1179.8594,399.0313 1179.6719,398.8438 Q1179.3438,398.4688 1178.7344,398.25 Q1178.125,398.0313 1177.5,398.0313 Q1176.7344,398.0313 1176.0938,398.3594 Q1175.4688,398.6875 1174.9688,399.4375 Q1174.4844,400.1875 1174.4844,401.2188 L1174.4844,402.3125 Q1174.4844,403.5469 1175.375,404.375 Q1176.2656,405.1875 1177.8594,405.1875 Q1178.7969,405.1875 1179.4531,404.9375 Q1179.8438,404.7813 1180.2656,404.3438 Q1180.5313,404.0781 1180.6719,404 Q1180.8281,403.9219 1181.0313,403.9219 Q1181.3594,403.9219 1181.6094,404.1875 Q1181.875,404.4375 1181.875,404.7813 Q1181.875,405.125 1181.5313,405.5313 Q1181.0313,406.1094 1180.2344,406.4375 Q1179.1563,406.8906 1177.8594,406.8906 Q1176.3438,406.8906 1175.1406,406.2656 Q1174.1563,405.7656 1173.4688,404.7031 Q1172.7813,403.625 1172.7813,402.3438 L1172.7813,401.1875 Q1172.7813,399.8594 1173.3906,398.7188 Q1174.0156,397.5625 1175.1094,396.9531 Q1176.2031,396.3281 1177.4375,396.3281 Q1178.1719,396.3281 1178.8125,396.5 Q1179.4688,396.6563 1180.0156,397.0156 Z " fill="#000000"/><text fill="#000000" font-family="sans-serif" font-size="14" lengthAdjust="spacing" textLength="149" x="1197.75" y="405.9941">JobRequirementsPlugin</text><line style="stroke:#181818;stroke-width:0.5;" x1="1052" x2="1460" y1="417.1406" y2="417.1406"/><line style="stroke:#181818;stroke-width:0.5;" x1="1052" x2="1460" y1="425.1406" y2="425.1406"/><ellipse cx="1062" cy="438.4609" fill="#84BE84" rx="3" ry="3" style="stroke:#038048;stroke-width:1.0;"/><text fill="#000000" font-family="sans-serif" font-size="14" lengthAdjust="spacing" textLength="384" x="1071" y="441.8145">evaluateJobRequirement(Input: String, Output: String): String</text></g><!--class JobApplicationRepository--><g id="elem_JobApplicationRepository"><rect codeLine="33" fill="#F1F1F1" height="63.6406" id="JobApplicationRepository" rx="2.5" ry="2.5" style="stroke:#181818;stroke-width:0.5;" width="455" x="560.5" y="540.6406"/><ellipse cx="704.25" cy="556.6406" fill="#ADD1B2" rx="11" ry="11" style="stroke:#181818;stroke-width:1.0;"/><path d="M707.0156,552.5156 Q707.1719,552.2969 707.3594,552.1875 Q707.5469,552.0781 707.7656,552.0781 Q708.1406,552.0781 708.375,552.3438 Q708.6094,552.5938 708.6094,553.2031 L708.6094,554.6563 Q708.6094,555.2656 708.375,555.5313 Q708.1406,555.7969 707.7656,555.7969 Q707.4219,555.7969 707.2188,555.5938 Q707.0156,555.4063 706.9063,554.8906 Q706.8594,554.5313 706.6719,554.3438 Q706.3438,553.9688 705.7344,553.75 Q705.125,553.5313 704.5,553.5313 Q703.7344,553.5313 703.0938,553.8594 Q702.4688,554.1875 701.9688,554.9375 Q701.4844,555.6875 701.4844,556.7188 L701.4844,557.8125 Q701.4844,559.0469 702.375,559.875 Q703.2656,560.6875 704.8594,560.6875 Q705.7969,560.6875 706.4531,560.4375 Q706.8438,560.2813 707.2656,559.8438 Q707.5313,559.5781 707.6719,559.5 Q707.8281,559.4219 708.0313,559.4219 Q708.3594,559.4219 708.6094,559.6875 Q708.875,559.9375 708.875,560.2813 Q708.875,560.625 708.5313,561.0313 Q708.0313,561.6094 707.2344,561.9375 Q706.1563,562.3906 704.8594,562.3906 Q703.3438,562.3906 702.1406,561.7656 Q701.1563,561.2656 700.4688,560.2031 Q699.7813,559.125 699.7813,557.8438 L699.7813,556.6875 Q699.7813,555.3594 700.3906,554.2188 Q701.0156,553.0625 702.1094,552.4531 Q703.2031,551.8281 704.4375,551.8281 Q705.1719,551.8281 705.8125,552 Q706.4688,552.1563 707.0156,552.5156 Z " fill="#000000"/><text fill="#000000" font-family="sans-serif" font-size="14" lengthAdjust="spacing" textLength="159" x="724.75" y="561.4941">JobApplicationRepository</text><line style="stroke:#181818;stroke-width:0.5;" x1="561.5" x2="1014.5" y1="572.6406" y2="572.6406"/><line style="stroke:#181818;stroke-width:0.5;" x1="561.5" x2="1014.5" y1="580.6406" y2="580.6406"/><ellipse cx="571.5" cy="593.9609" fill="#84BE84" rx="3" ry="3" style="stroke:#038048;stroke-width:1.0;"/><text fill="#000000" font-family="sans-serif" font-size="14" lengthAdjust="spacing" textLength="429" x="580.5" y="597.3145">findByJobReference(jobReference: String): Iterable&lt;JobApplication&gt;</text></g><!--class JobRequirementsRepository--><g id="elem_JobRequirementsRepository"><rect codeLine="37" fill="#F1F1F1" height="63.6406" id="JobRequirementsRepository" rx="2.5" ry="2.5" style="stroke:#181818;stroke-width:0.5;" width="411" x="114.5" y="540.6406"/><ellipse cx="226.75" cy="556.6406" fill="#ADD1B2" rx="11" ry="11" style="stroke:#181818;stroke-width:1.0;"/><path d="M229.5156,552.5156 Q229.6719,552.2969 229.8594,552.1875 Q230.0469,552.0781 230.2656,552.0781 Q230.6406,552.0781 230.875,552.3438 Q231.1094,552.5938 231.1094,553.2031 L231.1094,554.6563 Q231.1094,555.2656 230.875,555.5313 Q230.6406,555.7969 230.2656,555.7969 Q229.9219,555.7969 229.7188,555.5938 Q229.5156,555.4063 229.4063,554.8906 Q229.3594,554.5313 229.1719,554.3438 Q228.8438,553.9688 228.2344,553.75 Q227.625,553.5313 227,553.5313 Q226.2344,553.5313 225.5938,553.8594 Q224.9688,554.1875 224.4688,554.9375 Q223.9844,555.6875 223.9844,556.7188 L223.9844,557.8125 Q223.9844,559.0469 224.875,559.875 Q225.7656,560.6875 227.3594,560.6875 Q228.2969,560.6875 228.9531,560.4375 Q229.3438,560.2813 229.7656,559.8438 Q230.0313,559.5781 230.1719,559.5 Q230.3281,559.4219 230.5313,559.4219 Q230.8594,559.4219 231.1094,559.6875 Q231.375,559.9375 231.375,560.2813 Q231.375,560.625 231.0313,561.0313 Q230.5313,561.6094 229.7344,561.9375 Q228.6563,562.3906 227.3594,562.3906 Q225.8438,562.3906 224.6406,561.7656 Q223.6563,561.2656 222.9688,560.2031 Q222.2813,559.125 222.2813,557.8438 L222.2813,556.6875 Q222.2813,555.3594 222.8906,554.2188 Q223.5156,553.0625 224.6094,552.4531 Q225.7031,551.8281 226.9375,551.8281 Q227.6719,551.8281 228.3125,552 Q228.9688,552.1563 229.5156,552.5156 Z " fill="#000000"/><text fill="#000000" font-family="sans-serif" font-size="14" lengthAdjust="spacing" textLength="178" x="247.25" y="561.4941">JobRequirementsRepository</text><line style="stroke:#181818;stroke-width:0.5;" x1="115.5" x2="524.5" y1="572.6406" y2="572.6406"/><line style="stroke:#181818;stroke-width:0.5;" x1="115.5" x2="524.5" y1="580.6406" y2="580.6406"/><ellipse cx="125.5" cy="593.9609" fill="#84BE84" rx="3" ry="3" style="stroke:#038048;stroke-width:1.0;"/><text fill="#000000" font-family="sans-serif" font-size="14" lengthAdjust="spacing" textLength="385" x="134.5" y="597.3145">findByJobReference(jobReference: String): JobRequirements</text></g><!--link JobRequirementsUploadUI to JobRequirementsUploadController--><g id="link_JobRequirementsUploadUI_JobRequirementsUploadController"><path codeLine="41" d="M627,122.7006 C627,143.8906 627,170.4606 627,193.4306 " fill="none" id="JobRequirementsUploadUI-to-JobRequirementsUploadController" style="stroke:#181818;stroke-width:1.0;"/><polygon fill="#181818" points="627,198.5706,631,189.5706,627,193.5706,623,189.5706,627,198.5706" style="stroke:#181818;stroke-width:1.0;"/><text fill="#000000" font-family="sans-serif" font-size="13" lengthAdjust="spacing" textLength="73" x="628" y="165.4092">theController</text></g><!--link JobRequirementsUploadController to PersistenceContext--><g id="link_JobRequirementsUploadController_PersistenceContext"><path codeLine="42" d="M425.39,293.6506 C347.38,313.8706 258.02,339.8006 179,369.6406 C168.72,373.5206 158.06,378.1306 147.75,382.9106 " fill="none" id="JobRequirementsUploadController-to-PersistenceContext" style="stroke:#181818;stroke-width:1.0;"/><polygon fill="#181818" points="143.04,385.1206,152.8872,384.9377,147.5706,383.0054,149.5028,377.6888,143.04,385.1206" style="stroke:#181818;stroke-width:1.0;"/><text fill="#000000" font-family="sans-serif" font-size="13" lengthAdjust="spacing" textLength="67" x="314" y="336.4092">persistence</text></g><!--link JobRequirementsUploadController to RepositoryFactory--><g id="link_JobRequirementsUploadController_RepositoryFactory"><path codeLine="43" d="M553.61,293.7706 C518,316.3906 475.19,343.5906 438.99,366.5906 " fill="none" id="JobRequirementsUploadController-to-RepositoryFactory" style="stroke:#181818;stroke-width:1.0;"/><polygon fill="#181818" points="434.61,369.3706,444.3517,367.9219,438.8307,366.6899,440.0626,361.1689,434.61,369.3706" style="stroke:#181818;stroke-width:1.0;"/><text fill="#000000" font-family="sans-serif" font-size="13" lengthAdjust="spacing" textLength="39" x="503" y="336.4092">factory</text></g><!--link RepositoryFactory to JobApplicationRepository--><g id="link_RepositoryFactory_JobApplicationRepository"><path codeLine="44" d="M490.56,464.7206 C557.04,488.6106 636.43,517.1506 696.47,538.7406 " fill="none" id="RepositoryFactory-to-JobApplicationRepository" style="stroke:#181818;stroke-width:1.0;"/><polygon fill="#181818" points="701.48,540.5406,694.3588,533.737,696.7736,538.8526,691.658,541.2673,701.48,540.5406" style="stroke:#181818;stroke-width:1.0;"/><text fill="#000000" font-family="sans-serif" font-size="13" lengthAdjust="spacing" textLength="143" x="614" y="507.4092">jobApplicationRepository</text></g><!--link RepositoryFactory to JobRequirementsRepository--><g id="link_RepositoryFactory_JobRequirementsRepository"><path codeLine="45" d="M348.48,465.0306 C342.41,487.7206 335.25,514.5406 329.63,535.6006 " fill="none" id="RepositoryFactory-to-JobRequirementsRepository" style="stroke:#181818;stroke-width:1.0;"/><polygon fill="#181818" points="328.3,540.5506,334.4755,532.8784,329.583,535.718,326.7433,530.8256,328.3,540.5506" style="stroke:#181818;stroke-width:1.0;"/><text fill="#000000" font-family="sans-serif" font-size="13" lengthAdjust="spacing" textLength="159" x="342" y="507.4092">jobRequirementsRepository</text></g><!--link JobRequirementsUploadController to JobApplicationService--><g id="link_JobRequirementsUploadController_JobApplicationService"><path codeLine="46" d="M671.42,293.7706 C695.19,318.7106 724.24,349.2106 747.4,373.5206 " fill="none" id="JobRequirementsUploadController-to-JobApplicationService" style="stroke:#181818;stroke-width:1.0;"/><polygon fill="#181818" points="751.07,377.3706,747.7396,368.102,747.6139,373.7574,741.9584,373.6317,751.07,377.3706" style="stroke:#181818;stroke-width:1.0;"/><text fill="#000000" font-family="sans-serif" font-size="13" lengthAdjust="spacing" textLength="123" x="714" y="336.4092">jobApplicationService</text></g><!--link JobApplicationService to JobApplicationRepository--><g id="link_JobApplicationService_JobApplicationRepository"><path codeLine="47" d="M788,456.8706 C788,480.8206 788,511.3706 788,534.9306 " fill="none" id="JobApplicationService-to-JobApplicationRepository" style="stroke:#181818;stroke-width:1.0;"/><polygon fill="#181818" points="788,540.1506,792,531.1506,788,535.1506,784,531.1506,788,540.1506" style="stroke:#181818;stroke-width:1.0;"/><text fill="#000000" font-family="sans-serif" font-size="13" lengthAdjust="spacing" textLength="143" x="789" y="507.4092">jobApplicationRepository</text></g><!--link JobRequirementsUploadController to JobRequirementsPlugin--><g id="link_JobRequirementsUploadController_JobRequirementsPlugin"><path codeLine="48" d="M800.13,293.6606 C906.59,322.2606 1040.35,358.2006 1135.39,383.7306 " fill="none" id="JobRequirementsUploadController-to-JobRequirementsPlugin" style="stroke:#181818;stroke-width:1.0;"/><polygon fill="#181818" points="1140.45,385.0906,1132.7994,378.8884,1135.6219,383.7908,1130.7196,386.6133,1140.45,385.0906" style="stroke:#181818;stroke-width:1.0;"/><text fill="#000000" font-family="sans-serif" font-size="13" lengthAdjust="spacing" textLength="85" x="962" y="336.4092">interviewPlugin</text></g><!--SRC=[rLJBRi8m4BpdA_P8rV83LeNKKbM2In683p390XiPEtKSMbJrtskJX3mDj5KFpOLuCxExuzd5a148oqGe7i4SNpFIk4DfKdWc-s48Oy7J59w8RpJV1K5uF4xLgexDwSi9V0HWdrikX4Ky98cWa1jICXt4Zh56ZJ941WkZIMvk64mCQhuIUD_4Z_8yUoueuWPTAmEIIMPct6nB-Xsep7HYdaBvI_1vLi5OIQEL4AXB9Q56MtzW4-mLHVz6tGnrIgbnAAS9tur7q8annqIbP9G-FFFG_PI4TNvqZ0ucHyIjox38fjwAToBKxxuWr4CrHjsnMiu5wZs5s98LU-hwEseukoOPFHwcjJl-jhE-0Pk9R4EoR1Ujzvbjk0aQJDmGL6Q_70VW_13tYZfvztTwVbEibShLyFsX38UZYwlAm6onEWUNy2vdpu8mIAhWLKcwEyEWM9UW-wsGqcyO0z_e-ZDvx60GUvVf6bNzUzPki8W7_UYVQhsolvx5Oa3MHbiTt_98y0K0]--></g></svg>