<?xml version="1.0" encoding="us-ascii" standalone="no"?><svg xmlns="http://www.w3.org/2000/svg" xmlns:xlink="http://www.w3.org/1999/xlink" contentStyleType="text/css" height="386px" preserveAspectRatio="none" style="width:374px;height:386px;background:#FFFFFF;" version="1.1" viewBox="0 0 374 386" width="374px" zoomAndPan="magnify"><defs/><g><!--class InterviewModel--><g id="elem_InterviewModel"><rect codeLine="2" fill="#F1F1F1" height="76.543" id="InterviewModel" rx="2.5" ry="2.5" style="stroke:#181818;stroke-width:0.5;" width="125" x="26.5" y="163"/><ellipse cx="41.5" cy="193.2715" fill="#ADD1B2" rx="11" ry="11" style="stroke:#181818;stroke-width:1.0;"/><path d="M40.3594,194.0684 L40.3594,196.5684 L44.6875,196.5684 L44.6875,195.6465 Q44.6875,195.0371 44.9219,194.7715 Q45.1719,194.5059 45.5469,194.5059 Q45.9219,194.5059 46.1563,194.7715 Q46.3906,195.0371 46.3906,195.6465 L46.3906,198.2715 L38.3906,198.2715 Q37.7656,198.2715 37.5,198.0371 Q37.25,197.8027 37.25,197.4121 Q37.25,197.0371 37.5156,196.8027 Q37.7813,196.5684 38.3906,196.5684 L38.6563,196.5684 L38.6563,189.9121 L38.3906,189.9121 Q37.7656,189.9121 37.5,189.6777 Q37.25,189.4434 37.25,189.0527 Q37.25,188.6777 37.5,188.4434 Q37.7656,188.209 38.3906,188.209 L46.0156,188.209 L46.0156,190.8027 Q46.0156,191.4121 45.7813,191.6777 Q45.5625,191.9277 45.1719,191.9277 Q44.7969,191.9277 44.5625,191.6777 Q44.3281,191.4121 44.3281,190.8027 L44.3281,189.9121 L40.3594,189.9121 L40.3594,192.3652 L41.8438,192.3652 Q41.8438,191.709 41.9688,191.5215 Q42.2344,191.1152 42.7031,191.1152 Q43.0781,191.1152 43.3125,191.3809 Q43.5469,191.6309 43.5469,192.2402 L43.5469,194.209 Q43.5469,194.7559 43.4219,194.9434 Q43.1563,195.334 42.7031,195.334 Q42.2344,195.334 41.9688,194.9277 Q41.8438,194.7402 41.8438,194.0684 L40.3594,194.0684 Z " fill="#000000"/><text fill="#000000" font-family="sans-serif" font-size="12" font-style="italic" lengthAdjust="spacing" textLength="35" x="84.5" y="180.9492">&#171;root&#187;</text><text fill="#000000" font-family="sans-serif" font-size="12" font-style="italic" lengthAdjust="spacing" textLength="43" x="80.5" y="196.9102">&#171;entity&#187;</text><text fill="#000000" font-family="sans-serif" font-size="14" lengthAdjust="spacing" textLength="93" x="55.5" y="215.0293">InterviewModel</text><line style="stroke:#181818;stroke-width:0.5;" x1="27.5" x2="150.5" y1="223.543" y2="223.543"/><line style="stroke:#181818;stroke-width:0.5;" x1="27.5" x2="150.5" y1="231.543" y2="231.543"/></g><!--class InterviewModelPlugin--><g id="elem_InterviewModelPlugin"><rect codeLine="6" fill="#F1F1F1" height="60.582" id="InterviewModelPlugin" rx="2.5" ry="2.5" style="stroke:#181818;stroke-width:0.5;" width="164" x="7" y="319"/><ellipse cx="22" cy="341.291" fill="#ADD1B2" rx="11" ry="11" style="stroke:#181818;stroke-width:1.0;"/><path d="M24.7656,337.166 Q24.9219,336.9473 25.1094,336.8379 Q25.2969,336.7285 25.5156,336.7285 Q25.8906,336.7285 26.125,336.9941 Q26.3594,337.2441 26.3594,337.8535 L26.3594,339.3066 Q26.3594,339.916 26.125,340.1816 Q25.8906,340.4473 25.5156,340.4473 Q25.1719,340.4473 24.9688,340.2441 Q24.7656,340.0566 24.6563,339.541 Q24.6094,339.1816 24.4219,338.9941 Q24.0938,338.6191 23.4844,338.4004 Q22.875,338.1816 22.25,338.1816 Q21.4844,338.1816 20.8438,338.5098 Q20.2188,338.8379 19.7188,339.5879 Q19.2344,340.3379 19.2344,341.3691 L19.2344,342.4629 Q19.2344,343.6973 20.125,344.5254 Q21.0156,345.3379 22.6094,345.3379 Q23.5469,345.3379 24.2031,345.0879 Q24.5938,344.9316 25.0156,344.4941 Q25.2813,344.2285 25.4219,344.1504 Q25.5781,344.0723 25.7813,344.0723 Q26.1094,344.0723 26.3594,344.3379 Q26.625,344.5879 26.625,344.9316 Q26.625,345.2754 26.2813,345.6816 Q25.7813,346.2598 24.9844,346.5879 Q23.9063,347.041 22.6094,347.041 Q21.0938,347.041 19.8906,346.416 Q18.9063,345.916 18.2188,344.8535 Q17.5313,343.7754 17.5313,342.4941 L17.5313,341.3379 Q17.5313,340.0098 18.1406,338.8691 Q18.7656,337.7129 19.8594,337.1035 Q20.9531,336.4785 22.1875,336.4785 Q22.9219,336.4785 23.5625,336.6504 Q24.2188,336.8066 24.7656,337.166 Z " fill="#000000"/><text fill="#000000" font-family="sans-serif" font-size="12" font-style="italic" lengthAdjust="spacing" textLength="46" x="79" y="336.9492">&#171;Value&#187;</text><text fill="#000000" font-family="sans-serif" font-size="14" lengthAdjust="spacing" textLength="132" x="36" y="355.0684">InterviewModelPlugin</text><line style="stroke:#181818;stroke-width:0.5;" x1="8" x2="170" y1="363.582" y2="363.582"/><line style="stroke:#181818;stroke-width:0.5;" x1="8" x2="170" y1="371.582" y2="371.582"/></g><!--class JobRequirements--><g id="elem_JobRequirements"><rect codeLine="8" fill="#F1F1F1" height="76.543" id="JobRequirements" rx="2.5" ry="2.5" style="stroke:#181818;stroke-width:0.5;" width="142" x="206" y="7"/><ellipse cx="221" cy="37.2715" fill="#ADD1B2" rx="11" ry="11" style="stroke:#181818;stroke-width:1.0;"/><path d="M219.8594,38.0684 L219.8594,40.5684 L224.1875,40.5684 L224.1875,39.6465 Q224.1875,39.0371 224.4219,38.7715 Q224.6719,38.5059 225.0469,38.5059 Q225.4219,38.5059 225.6563,38.7715 Q225.8906,39.0371 225.8906,39.6465 L225.8906,42.2715 L217.8906,42.2715 Q217.2656,42.2715 217,42.0371 Q216.75,41.8027 216.75,41.4121 Q216.75,41.0371 217.0156,40.8027 Q217.2813,40.5684 217.8906,40.5684 L218.1563,40.5684 L218.1563,33.9121 L217.8906,33.9121 Q217.2656,33.9121 217,33.6777 Q216.75,33.4434 216.75,33.0527 Q216.75,32.6777 217,32.4434 Q217.2656,32.209 217.8906,32.209 L225.5156,32.209 L225.5156,34.8027 Q225.5156,35.4121 225.2813,35.6777 Q225.0625,35.9277 224.6719,35.9277 Q224.2969,35.9277 224.0625,35.6777 Q223.8281,35.4121 223.8281,34.8027 L223.8281,33.9121 L219.8594,33.9121 L219.8594,36.3652 L221.3438,36.3652 Q221.3438,35.709 221.4688,35.5215 Q221.7344,35.1152 222.2031,35.1152 Q222.5781,35.1152 222.8125,35.3809 Q223.0469,35.6309 223.0469,36.2402 L223.0469,38.209 Q223.0469,38.7559 222.9219,38.9434 Q222.6563,39.334 222.2031,39.334 Q221.7344,39.334 221.4688,38.9277 Q221.3438,38.7402 221.3438,38.0684 L219.8594,38.0684 Z " fill="#000000"/><text fill="#000000" font-family="sans-serif" font-size="12" font-style="italic" lengthAdjust="spacing" textLength="35" x="272.5" y="24.9492">&#171;root&#187;</text><text fill="#000000" font-family="sans-serif" font-size="12" font-style="italic" lengthAdjust="spacing" textLength="43" x="268.5" y="40.9102">&#171;entity&#187;</text><text fill="#000000" font-family="sans-serif" font-size="14" lengthAdjust="spacing" textLength="110" x="235" y="59.0293">JobRequirements</text><line style="stroke:#181818;stroke-width:0.5;" x1="207" x2="347" y1="67.543" y2="67.543"/><line style="stroke:#181818;stroke-width:0.5;" x1="207" x2="347" y1="75.543" y2="75.543"/></g><!--class JobRequirementsPlugin--><g id="elem_JobRequirementsPlugin"><rect codeLine="12" fill="#F1F1F1" height="60.582" id="JobRequirementsPlugin" rx="2.5" ry="2.5" style="stroke:#181818;stroke-width:0.5;" width="181" x="186.5" y="171"/><ellipse cx="201.5" cy="193.291" fill="#ADD1B2" rx="11" ry="11" style="stroke:#181818;stroke-width:1.0;"/><path d="M204.2656,189.166 Q204.4219,188.9473 204.6094,188.8379 Q204.7969,188.7285 205.0156,188.7285 Q205.3906,188.7285 205.625,188.9941 Q205.8594,189.2441 205.8594,189.8535 L205.8594,191.3066 Q205.8594,191.916 205.625,192.1816 Q205.3906,192.4473 205.0156,192.4473 Q204.6719,192.4473 204.4688,192.2441 Q204.2656,192.0566 204.1563,191.541 Q204.1094,191.1816 203.9219,190.9941 Q203.5938,190.6191 202.9844,190.4004 Q202.375,190.1816 201.75,190.1816 Q200.9844,190.1816 200.3438,190.5098 Q199.7188,190.8379 199.2188,191.5879 Q198.7344,192.3379 198.7344,193.3691 L198.7344,194.4629 Q198.7344,195.6973 199.625,196.5254 Q200.5156,197.3379 202.1094,197.3379 Q203.0469,197.3379 203.7031,197.0879 Q204.0938,196.9316 204.5156,196.4941 Q204.7813,196.2285 204.9219,196.1504 Q205.0781,196.0723 205.2813,196.0723 Q205.6094,196.0723 205.8594,196.3379 Q206.125,196.5879 206.125,196.9316 Q206.125,197.2754 205.7813,197.6816 Q205.2813,198.2598 204.4844,198.5879 Q203.4063,199.041 202.1094,199.041 Q200.5938,199.041 199.3906,198.416 Q198.4063,197.916 197.7188,196.8535 Q197.0313,195.7754 197.0313,194.4941 L197.0313,193.3379 Q197.0313,192.0098 197.6406,190.8691 Q198.2656,189.7129 199.3594,189.1035 Q200.4531,188.4785 201.6875,188.4785 Q202.4219,188.4785 203.0625,188.6504 Q203.7188,188.8066 204.2656,189.166 Z " fill="#000000"/><text fill="#000000" font-family="sans-serif" font-size="12" font-style="italic" lengthAdjust="spacing" textLength="46" x="267" y="188.9492">&#171;Value&#187;</text><text fill="#000000" font-family="sans-serif" font-size="14" lengthAdjust="spacing" textLength="149" x="215.5" y="207.0684">JobRequirementsPlugin</text><line style="stroke:#181818;stroke-width:0.5;" x1="187.5" x2="366.5" y1="215.582" y2="215.582"/><line style="stroke:#181818;stroke-width:0.5;" x1="187.5" x2="366.5" y1="223.582" y2="223.582"/></g><!--class Interview--><g id="elem_Interview"><rect fill="#F1F1F1" height="48" id="Interview" rx="2.5" ry="2.5" style="stroke:#181818;stroke-width:0.5;" width="87" x="45.5" y="21.5"/><ellipse cx="60.5" cy="37.5" fill="#ADD1B2" rx="11" ry="11" style="stroke:#181818;stroke-width:1.0;"/><path d="M63.2656,33.375 Q63.4219,33.1563 63.6094,33.0469 Q63.7969,32.9375 64.0156,32.9375 Q64.3906,32.9375 64.625,33.2031 Q64.8594,33.4531 64.8594,34.0625 L64.8594,35.5156 Q64.8594,36.125 64.625,36.3906 Q64.3906,36.6563 64.0156,36.6563 Q63.6719,36.6563 63.4688,36.4531 Q63.2656,36.2656 63.1563,35.75 Q63.1094,35.3906 62.9219,35.2031 Q62.5938,34.8281 61.9844,34.6094 Q61.375,34.3906 60.75,34.3906 Q59.9844,34.3906 59.3438,34.7188 Q58.7188,35.0469 58.2188,35.7969 Q57.7344,36.5469 57.7344,37.5781 L57.7344,38.6719 Q57.7344,39.9063 58.625,40.7344 Q59.5156,41.5469 61.1094,41.5469 Q62.0469,41.5469 62.7031,41.2969 Q63.0938,41.1406 63.5156,40.7031 Q63.7813,40.4375 63.9219,40.3594 Q64.0781,40.2813 64.2813,40.2813 Q64.6094,40.2813 64.8594,40.5469 Q65.125,40.7969 65.125,41.1406 Q65.125,41.4844 64.7813,41.8906 Q64.2813,42.4688 63.4844,42.7969 Q62.4063,43.25 61.1094,43.25 Q59.5938,43.25 58.3906,42.625 Q57.4063,42.125 56.7188,41.0625 Q56.0313,39.9844 56.0313,38.7031 L56.0313,37.5469 Q56.0313,36.2188 56.6406,35.0781 Q57.2656,33.9219 58.3594,33.3125 Q59.4531,32.6875 60.6875,32.6875 Q61.4219,32.6875 62.0625,32.8594 Q62.7188,33.0156 63.2656,33.375 Z " fill="#000000"/><text fill="#000000" font-family="sans-serif" font-size="14" lengthAdjust="spacing" textLength="55" x="74.5" y="43.2969">Interview</text><line style="stroke:#181818;stroke-width:0.5;" x1="46.5" x2="131.5" y1="53.5" y2="53.5"/><line style="stroke:#181818;stroke-width:0.5;" x1="46.5" x2="131.5" y1="61.5" y2="61.5"/></g><!--link InterviewModel to InterviewModelPlugin--><g id="link_InterviewModel_InterviewModelPlugin"><path codeLine="16" d="M89,240.1 C89,262.78 89,291.48 89,313.65 " fill="none" id="InterviewModel-to-InterviewModelPlugin" style="stroke:#181818;stroke-width:1.0;"/><polygon fill="#181818" points="89,318.85,93,309.85,89,313.85,85,309.85,89,318.85" style="stroke:#181818;stroke-width:1.0;"/><text fill="#000000" font-family="sans-serif" font-size="13" lengthAdjust="spacing" textLength="21" x="90" y="285.0283">has</text><text fill="#000000" font-family="sans-serif" font-size="13" lengthAdjust="spacing" textLength="7" x="81.4422" y="261.6945">1</text><text fill="#000000" font-family="sans-serif" font-size="13" lengthAdjust="spacing" textLength="7" x="81.2781" y="307.8767">1</text></g><!--link Interview to InterviewModel--><g id="link_Interview_InterviewModel"><path codeLine="17" d="M89,69.56 C89,92.78 89,129.16 89,157.68 " fill="none" id="Interview-to-InterviewModel" style="stroke:#181818;stroke-width:1.0;"/><polygon fill="#181818" points="89,162.92,93,153.92,89,157.92,85,153.92,89,162.92" style="stroke:#181818;stroke-width:1.0;"/><text fill="#000000" font-family="sans-serif" font-size="13" lengthAdjust="spacing" textLength="39" x="90" y="129.0283">follows</text><text fill="#000000" font-family="sans-serif" font-size="13" lengthAdjust="spacing" textLength="7" x="81.1469" y="91.5603">1</text><text fill="#000000" font-family="sans-serif" font-size="13" lengthAdjust="spacing" textLength="7" x="81.3766" y="151.6288">1</text></g><!--link JobRequirements to JobRequirementsPlugin--><g id="link_JobRequirements_JobRequirementsPlugin"><path codeLine="18" d="M277,84.17 C277,109.11 277,141.58 277,165.87 " fill="none" id="JobRequirements-to-JobRequirementsPlugin" style="stroke:#181818;stroke-width:1.0;"/><polygon fill="#181818" points="277,170.92,281,161.92,277,165.92,273,161.92,277,170.92" style="stroke:#181818;stroke-width:1.0;"/><text fill="#000000" font-family="sans-serif" font-size="13" lengthAdjust="spacing" textLength="7" x="269.4641" y="105.4785">1</text><text fill="#000000" font-family="sans-serif" font-size="13" lengthAdjust="spacing" textLength="7" x="269.2781" y="159.9612">1</text></g><!--SRC=[IyqhoIofLF3CAqajAijCBVVDJqdDiR4foiyliRDJiB591Si3cTLSNBLSNCavYSN5QAe3SahJC_E0QiCISqfJxUogWUeWsXIyyfE2KWjBCujISu4YnJZCLG21MYWDiG5D8yGAk0t8cb3Teg1agAIWgsi7fh4wqqeX8x4OeGkF1g3IjFoSdFpoOYuqvw1emkfKBW00]--></g></svg>