<?xml version="1.0" encoding="us-ascii" standalone="no"?><svg xmlns="http://www.w3.org/2000/svg" xmlns:xlink="http://www.w3.org/1999/xlink" contentStyleType="text/css" height="1867px" preserveAspectRatio="none" style="width:2800px;height:1867px;background:#FFFFFF;" version="1.1" viewBox="0 0 2800 1867" width="2800px" zoomAndPan="magnify"><defs/><g><rect fill="#FFFFFF" height="1689.7148" style="stroke:#181818;stroke-width:1.0;" width="10" x="80.5" y="79.6211"/><rect fill="#FFFFFF" height="312.9102" style="stroke:#181818;stroke-width:1.0;" width="10" x="523.5" y="102.9121"/><rect fill="#FFFFFF" height="344.2012" style="stroke:#181818;stroke-width:1.0;" width="10" x="523.5" y="447.1133"/><rect fill="#FFFFFF" height="245.3281" style="stroke:#181818;stroke-width:1.0;" width="10" x="523.5" y="822.6055"/><rect fill="#FFFFFF" height="670.1113" style="stroke:#181818;stroke-width:1.0;" width="10" x="523.5" y="1099.2246"/><rect fill="#FFFFFF" height="219.0371" style="stroke:#181818;stroke-width:1.0;" width="10" x="835.5" y="165.4941"/><rect fill="#FFFFFF" height="281.6191" style="stroke:#181818;stroke-width:1.0;" width="10" x="835.5" y="478.4043"/><rect fill="#FFFFFF" height="156.4551" style="stroke:#181818;stroke-width:1.0;" width="10" x="835.5" y="853.8965"/><rect fill="#FFFFFF" height="473.3652" style="stroke:#181818;stroke-width:1.0;" width="10" x="835.5" y="1130.5156"/><rect fill="#FFFFFF" height="78.582" style="stroke:#181818;stroke-width:1.0;" width="10" x="835.5" y="1699.7539"/><rect fill="#FFFFFF" height="31.291" style="stroke:#181818;stroke-width:1.0;" width="10" x="1163" y="540.9863"/><rect fill="#FFFFFF" height="31.291" style="stroke:#181818;stroke-width:1.0;" width="10" x="1163" y="1161.8066"/><rect fill="#FFFFFF" height="93.873" style="stroke:#181818;stroke-width:1.0;" width="10" x="1459.5" y="259.3672"/><rect fill="#FFFFFF" height="316.9102" style="stroke:#181818;stroke-width:1.0;" width="10" x="1585" y="1255.6797"/><rect fill="#FFFFFF" height="93.873" style="stroke:#181818;stroke-width:1.0;" width="10" x="1736" y="634.8594"/><rect fill="#FFFFFF" height="93.873" style="stroke:#181818;stroke-width:1.0;" width="10" x="1916" y="885.1875"/><rect fill="#FFFFFF" height="31.291" style="stroke:#181818;stroke-width:1.0;" width="10" x="2134" y="290.6582"/><rect fill="#FFFFFF" height="31.291" style="stroke:#181818;stroke-width:1.0;" width="10" x="2301.5" y="916.4785"/><rect fill="#FFFFFF" height="31.291" style="stroke:#181818;stroke-width:1.0;" width="10" x="2447.5" y="1286.9707"/><rect fill="#FFFFFF" height="31.291" style="stroke:#181818;stroke-width:1.0;" width="10" x="2447.5" y="1407.1348"/><rect fill="#FFFFFF" height="31.291" style="stroke:#181818;stroke-width:1.0;" width="10" x="2447.5" y="1503.0078"/><rect fill="#FFFFFF" height="31.291" style="stroke:#181818;stroke-width:1.0;" width="10" x="2611.5" y="666.1504"/><rect fill="none" height="617.8203" style="stroke:#000000;stroke-width:1.5;" width="2784" x="10" y="1025.3516"/><rect fill="none" height="209.0371" style="stroke:#000000;stroke-width:1.5;" width="1251" x="1533" y="1333.2617"/><rect fill="none" height="81.873" style="stroke:#000000;stroke-width:1.5;" width="1194" x="453" y="1657.1719"/><line style="stroke:#181818;stroke-width:0.5;stroke-dasharray:5.0,5.0;" x1="85" x2="85" y1="69.6211" y2="1787.3359"/><line style="stroke:#181818;stroke-width:0.5;stroke-dasharray:5.0,5.0;" x1="528" x2="528" y1="69.6211" y2="1787.3359"/><line style="stroke:#181818;stroke-width:0.5;stroke-dasharray:5.0,5.0;" x1="840" x2="840" y1="69.6211" y2="1787.3359"/><line style="stroke:#181818;stroke-width:0.5;stroke-dasharray:5.0,5.0;" x1="1009" x2="1009" y1="69.6211" y2="1787.3359"/><line style="stroke:#181818;stroke-width:0.5;stroke-dasharray:5.0,5.0;" x1="1168" x2="1168" y1="69.6211" y2="1787.3359"/><line style="stroke:#181818;stroke-width:0.5;stroke-dasharray:5.0,5.0;" x1="1314" x2="1314" y1="69.6211" y2="1787.3359"/><line style="stroke:#181818;stroke-width:0.5;stroke-dasharray:5.0,5.0;" x1="1464" x2="1464" y1="69.6211" y2="1787.3359"/><line style="stroke:#181818;stroke-width:0.5;stroke-dasharray:5.0,5.0;" x1="1590" x2="1590" y1="69.6211" y2="1787.3359"/><line style="stroke:#181818;stroke-width:0.5;stroke-dasharray:5.0,5.0;" x1="1741" x2="1741" y1="69.6211" y2="1787.3359"/><line style="stroke:#181818;stroke-width:0.5;stroke-dasharray:5.0,5.0;" x1="1921" x2="1921" y1="69.6211" y2="1787.3359"/><line style="stroke:#181818;stroke-width:0.5;stroke-dasharray:5.0,5.0;" x1="2030" x2="2030" y1="69.6211" y2="1787.3359"/><line style="stroke:#181818;stroke-width:0.5;stroke-dasharray:5.0,5.0;" x1="2139" x2="2139" y1="69.6211" y2="1787.3359"/><line style="stroke:#181818;stroke-width:0.5;stroke-dasharray:5.0,5.0;" x1="2306" x2="2306" y1="69.6211" y2="1787.3359"/><line style="stroke:#181818;stroke-width:0.5;stroke-dasharray:5.0,5.0;" x1="2452" x2="2452" y1="69.6211" y2="1787.3359"/><line style="stroke:#181818;stroke-width:0.5;stroke-dasharray:5.0,5.0;" x1="2616" x2="2616" y1="69.6211" y2="1787.3359"/><line style="stroke:#181818;stroke-width:0.5;stroke-dasharray:5.0,5.0;" x1="2750" x2="2750" y1="69.6211" y2="1787.3359"/><rect fill="#E2E2F0" height="32.6211" rx="2.5" ry="2.5" style="stroke:#181818;stroke-width:0.5;" width="131" x="20" y="36"/><text fill="#000000" font-family="sans-serif" font-size="14" lengthAdjust="spacing" textLength="117" x="27" y="58.1074">CustomerManager</text><rect fill="#E2E2F0" height="32.6211" rx="2.5" ry="2.5" style="stroke:#181818;stroke-width:0.5;" width="131" x="20" y="1786.3359"/><text fill="#000000" font-family="sans-serif" font-size="14" lengthAdjust="spacing" textLength="117" x="27" y="1808.4434">CustomerManager</text><rect fill="#E2E2F0" height="32.6211" rx="2.5" ry="2.5" style="stroke:#181818;stroke-width:0.5;" width="131" x="463" y="36"/><text fill="#000000" font-family="sans-serif" font-size="14" lengthAdjust="spacing" textLength="117" x="470" y="58.1074">RankCandidatesUI</text><rect fill="#E2E2F0" height="32.6211" rx="2.5" ry="2.5" style="stroke:#181818;stroke-width:0.5;" width="131" x="463" y="1786.3359"/><text fill="#000000" font-family="sans-serif" font-size="14" lengthAdjust="spacing" textLength="117" x="470" y="1808.4434">RankCandidatesUI</text><rect fill="#E2E2F0" height="32.6211" rx="2.5" ry="2.5" style="stroke:#181818;stroke-width:0.5;" width="181" x="750" y="36"/><text fill="#000000" font-family="sans-serif" font-size="14" lengthAdjust="spacing" textLength="167" x="757" y="58.1074">RankCandidatesController</text><rect fill="#E2E2F0" height="32.6211" rx="2.5" ry="2.5" style="stroke:#181818;stroke-width:0.5;" width="181" x="750" y="1786.3359"/><text fill="#000000" font-family="sans-serif" font-size="14" lengthAdjust="spacing" textLength="167" x="757" y="1808.4434">RankCandidatesController</text><rect fill="#E2E2F0" height="32.6211" rx="2.5" ry="2.5" style="stroke:#181818;stroke-width:0.5;" width="136" x="941" y="36"/><text fill="#000000" font-family="sans-serif" font-size="14" lengthAdjust="spacing" textLength="122" x="948" y="58.1074">PersistenceContext</text><rect fill="#E2E2F0" height="32.6211" rx="2.5" ry="2.5" style="stroke:#181818;stroke-width:0.5;" width="136" x="941" y="1786.3359"/><text fill="#000000" font-family="sans-serif" font-size="14" lengthAdjust="spacing" textLength="122" x="948" y="1808.4434">PersistenceContext</text><rect fill="#E2E2F0" height="32.6211" rx="2.5" ry="2.5" style="stroke:#181818;stroke-width:0.5;" width="130" x="1103" y="36"/><text fill="#000000" font-family="sans-serif" font-size="14" lengthAdjust="spacing" textLength="116" x="1110" y="58.1074">RepositoryFactory</text><rect fill="#E2E2F0" height="32.6211" rx="2.5" ry="2.5" style="stroke:#181818;stroke-width:0.5;" width="130" x="1103" y="1786.3359"/><text fill="#000000" font-family="sans-serif" font-size="14" lengthAdjust="spacing" textLength="116" x="1110" y="1808.4434">RepositoryFactory</text><rect fill="#E2E2F0" height="32.6211" rx="2.5" ry="2.5" style="stroke:#181818;stroke-width:0.5;" width="143" x="1243" y="36"/><text fill="#000000" font-family="sans-serif" font-size="14" lengthAdjust="spacing" textLength="129" x="1250" y="58.1074">AuthorizationService</text><rect fill="#E2E2F0" height="32.6211" rx="2.5" ry="2.5" style="stroke:#181818;stroke-width:0.5;" width="143" x="1243" y="1786.3359"/><text fill="#000000" font-family="sans-serif" font-size="14" lengthAdjust="spacing" textLength="129" x="1250" y="1808.4434">AuthorizationService</text><rect fill="#E2E2F0" height="32.6211" rx="2.5" ry="2.5" style="stroke:#181818;stroke-width:0.5;" width="137" x="1396" y="36"/><text fill="#000000" font-family="sans-serif" font-size="14" lengthAdjust="spacing" textLength="123" x="1403" y="58.1074">JobOpeningService</text><rect fill="#E2E2F0" height="32.6211" rx="2.5" ry="2.5" style="stroke:#181818;stroke-width:0.5;" width="137" x="1396" y="1786.3359"/><text fill="#000000" font-family="sans-serif" font-size="14" lengthAdjust="spacing" textLength="123" x="1403" y="1808.4434">JobOpeningService</text><rect fill="#E2E2F0" height="32.6211" rx="2.5" ry="2.5" style="stroke:#181818;stroke-width:0.5;" width="94" x="1543" y="36"/><text fill="#000000" font-family="sans-serif" font-size="14" lengthAdjust="spacing" textLength="80" x="1550" y="58.1074">RankService</text><rect fill="#E2E2F0" height="32.6211" rx="2.5" ry="2.5" style="stroke:#181818;stroke-width:0.5;" width="94" x="1543" y="1786.3359"/><text fill="#000000" font-family="sans-serif" font-size="14" lengthAdjust="spacing" textLength="80" x="1550" y="1808.4434">RankService</text><rect fill="#E2E2F0" height="32.6211" rx="2.5" ry="2.5" style="stroke:#181818;stroke-width:0.5;" width="188" x="1647" y="36"/><text fill="#000000" font-family="sans-serif" font-size="14" lengthAdjust="spacing" textLength="174" x="1654" y="58.1074">JobOpeningProcessService</text><rect fill="#E2E2F0" height="32.6211" rx="2.5" ry="2.5" style="stroke:#181818;stroke-width:0.5;" width="188" x="1647" y="1786.3359"/><text fill="#000000" font-family="sans-serif" font-size="14" lengthAdjust="spacing" textLength="174" x="1654" y="1808.4434">JobOpeningProcessService</text><rect fill="#E2E2F0" height="32.6211" rx="2.5" ry="2.5" style="stroke:#181818;stroke-width:0.5;" width="152" x="1845" y="36"/><text fill="#000000" font-family="sans-serif" font-size="14" lengthAdjust="spacing" textLength="138" x="1852" y="58.1074">JobApplicationService</text><rect fill="#E2E2F0" height="32.6211" rx="2.5" ry="2.5" style="stroke:#181818;stroke-width:0.5;" width="152" x="1845" y="1786.3359"/><text fill="#000000" font-family="sans-serif" font-size="14" lengthAdjust="spacing" textLength="138" x="1852" y="1808.4434">JobApplicationService</text><rect fill="#E2E2F0" height="32.6211" rx="2.5" ry="2.5" style="stroke:#181818;stroke-width:0.5;" width="47" x="2007" y="36"/><text fill="#000000" font-family="sans-serif" font-size="14" lengthAdjust="spacing" textLength="33" x="2014" y="58.1074">Rank</text><rect fill="#E2E2F0" height="32.6211" rx="2.5" ry="2.5" style="stroke:#181818;stroke-width:0.5;" width="47" x="2007" y="1786.3359"/><text fill="#000000" font-family="sans-serif" font-size="14" lengthAdjust="spacing" textLength="33" x="2014" y="1808.4434">Rank</text><text fill="#000000" font-family="sans-serif" font-size="14" lengthAdjust="spacing" textLength="144" x="2064" y="66.1074">JobOpeningRepository</text><path d="M2121,15 C2121,5 2139,5 2139,5 C2139,5 2157,5 2157,15 L2157,41 C2157,51 2139,51 2139,51 C2139,51 2121,51 2121,41 L2121,15 " fill="#E2E2F0" style="stroke:#181818;stroke-width:1.5;"/><path d="M2121,15 C2121,25 2139,25 2139,25 C2139,25 2157,25 2157,15 " fill="none" style="stroke:#181818;stroke-width:1.5;"/><text fill="#000000" font-family="sans-serif" font-size="14" lengthAdjust="spacing" textLength="144" x="2064" y="1801.4434">JobOpeningRepository</text><path d="M2121,1814.957 C2121,1804.957 2139,1804.957 2139,1804.957 C2139,1804.957 2157,1804.957 2157,1814.957 L2157,1840.957 C2157,1850.957 2139,1850.957 2139,1850.957 C2139,1850.957 2121,1850.957 2121,1840.957 L2121,1814.957 " fill="#E2E2F0" style="stroke:#181818;stroke-width:1.5;"/><path d="M2121,1814.957 C2121,1824.957 2139,1824.957 2139,1824.957 C2139,1824.957 2157,1824.957 2157,1814.957 " fill="none" style="stroke:#181818;stroke-width:1.5;"/><text fill="#000000" font-family="sans-serif" font-size="14" lengthAdjust="spacing" textLength="159" x="2224" y="66.1074">JobApplicationRepository</text><path d="M2288.5,15 C2288.5,5 2306.5,5 2306.5,5 C2306.5,5 2324.5,5 2324.5,15 L2324.5,41 C2324.5,51 2306.5,51 2306.5,51 C2306.5,51 2288.5,51 2288.5,41 L2288.5,15 " fill="#E2E2F0" style="stroke:#181818;stroke-width:1.5;"/><path d="M2288.5,15 C2288.5,25 2306.5,25 2306.5,25 C2306.5,25 2324.5,25 2324.5,15 " fill="none" style="stroke:#181818;stroke-width:1.5;"/><text fill="#000000" font-family="sans-serif" font-size="14" lengthAdjust="spacing" textLength="159" x="2224" y="1801.4434">JobApplicationRepository</text><path d="M2288.5,1814.957 C2288.5,1804.957 2306.5,1804.957 2306.5,1804.957 C2306.5,1804.957 2324.5,1804.957 2324.5,1814.957 L2324.5,1840.957 C2324.5,1850.957 2306.5,1850.957 2306.5,1850.957 C2306.5,1850.957 2288.5,1850.957 2288.5,1840.957 L2288.5,1814.957 " fill="#E2E2F0" style="stroke:#181818;stroke-width:1.5;"/><path d="M2288.5,1814.957 C2288.5,1824.957 2306.5,1824.957 2306.5,1824.957 C2306.5,1824.957 2324.5,1824.957 2324.5,1814.957 " fill="none" style="stroke:#181818;stroke-width:1.5;"/><text fill="#000000" font-family="sans-serif" font-size="14" lengthAdjust="spacing" textLength="101" x="2399" y="66.1074">RankRepository</text><path d="M2434.5,15 C2434.5,5 2452.5,5 2452.5,5 C2452.5,5 2470.5,5 2470.5,15 L2470.5,41 C2470.5,51 2452.5,51 2452.5,51 C2452.5,51 2434.5,51 2434.5,41 L2434.5,15 " fill="#E2E2F0" style="stroke:#181818;stroke-width:1.5;"/><path d="M2434.5,15 C2434.5,25 2452.5,25 2452.5,25 C2452.5,25 2470.5,25 2470.5,15 " fill="none" style="stroke:#181818;stroke-width:1.5;"/><text fill="#000000" font-family="sans-serif" font-size="14" lengthAdjust="spacing" textLength="101" x="2399" y="1801.4434">RankRepository</text><path d="M2434.5,1814.957 C2434.5,1804.957 2452.5,1804.957 2452.5,1804.957 C2452.5,1804.957 2470.5,1804.957 2470.5,1814.957 L2470.5,1840.957 C2470.5,1850.957 2452.5,1850.957 2452.5,1850.957 C2452.5,1850.957 2434.5,1850.957 2434.5,1840.957 L2434.5,1814.957 " fill="#E2E2F0" style="stroke:#181818;stroke-width:1.5;"/><path d="M2434.5,1814.957 C2434.5,1824.957 2452.5,1824.957 2452.5,1824.957 C2452.5,1824.957 2470.5,1824.957 2470.5,1814.957 " fill="none" style="stroke:#181818;stroke-width:1.5;"/><text fill="#000000" font-family="sans-serif" font-size="14" lengthAdjust="spacing" textLength="195" x="2516" y="66.1074">JobOpeningProcessRepository</text><path d="M2598.5,15 C2598.5,5 2616.5,5 2616.5,5 C2616.5,5 2634.5,5 2634.5,15 L2634.5,41 C2634.5,51 2616.5,51 2616.5,51 C2616.5,51 2598.5,51 2598.5,41 L2598.5,15 " fill="#E2E2F0" style="stroke:#181818;stroke-width:1.5;"/><path d="M2598.5,15 C2598.5,25 2616.5,25 2616.5,25 C2616.5,25 2634.5,25 2634.5,15 " fill="none" style="stroke:#181818;stroke-width:1.5;"/><text fill="#000000" font-family="sans-serif" font-size="14" lengthAdjust="spacing" textLength="195" x="2516" y="1801.4434">JobOpeningProcessRepository</text><path d="M2598.5,1814.957 C2598.5,1804.957 2616.5,1804.957 2616.5,1804.957 C2616.5,1804.957 2634.5,1804.957 2634.5,1814.957 L2634.5,1840.957 C2634.5,1850.957 2616.5,1850.957 2616.5,1850.957 C2616.5,1850.957 2598.5,1850.957 2598.5,1840.957 L2598.5,1814.957 " fill="#E2E2F0" style="stroke:#181818;stroke-width:1.5;"/><path d="M2598.5,1814.957 C2598.5,1824.957 2616.5,1824.957 2616.5,1824.957 C2616.5,1824.957 2634.5,1824.957 2634.5,1814.957 " fill="none" style="stroke:#181818;stroke-width:1.5;"/><rect fill="#E2E2F0" height="32.6211" rx="2.5" ry="2.5" style="stroke:#181818;stroke-width:0.5;" width="47" x="2727" y="36"/><text fill="#000000" font-family="sans-serif" font-size="14" lengthAdjust="spacing" textLength="33" x="2734" y="58.1074">Rank</text><rect fill="#E2E2F0" height="32.6211" rx="2.5" ry="2.5" style="stroke:#181818;stroke-width:0.5;" width="47" x="2727" y="1786.3359"/><text fill="#000000" font-family="sans-serif" font-size="14" lengthAdjust="spacing" textLength="33" x="2734" y="1808.4434">Rank</text><rect fill="#FFFFFF" height="1689.7148" style="stroke:#181818;stroke-width:1.0;" width="10" x="80.5" y="79.6211"/><rect fill="#FFFFFF" height="312.9102" style="stroke:#181818;stroke-width:1.0;" width="10" x="523.5" y="102.9121"/><rect fill="#FFFFFF" height="344.2012" style="stroke:#181818;stroke-width:1.0;" width="10" x="523.5" y="447.1133"/><rect fill="#FFFFFF" height="245.3281" style="stroke:#181818;stroke-width:1.0;" width="10" x="523.5" y="822.6055"/><rect fill="#FFFFFF" height="670.1113" style="stroke:#181818;stroke-width:1.0;" width="10" x="523.5" y="1099.2246"/><rect fill="#FFFFFF" height="219.0371" style="stroke:#181818;stroke-width:1.0;" width="10" x="835.5" y="165.4941"/><rect fill="#FFFFFF" height="281.6191" style="stroke:#181818;stroke-width:1.0;" width="10" x="835.5" y="478.4043"/><rect fill="#FFFFFF" height="156.4551" style="stroke:#181818;stroke-width:1.0;" width="10" x="835.5" y="853.8965"/><rect fill="#FFFFFF" height="473.3652" style="stroke:#181818;stroke-width:1.0;" width="10" x="835.5" y="1130.5156"/><rect fill="#FFFFFF" height="78.582" style="stroke:#181818;stroke-width:1.0;" width="10" x="835.5" y="1699.7539"/><rect fill="#FFFFFF" height="31.291" style="stroke:#181818;stroke-width:1.0;" width="10" x="1163" y="540.9863"/><rect fill="#FFFFFF" height="31.291" style="stroke:#181818;stroke-width:1.0;" width="10" x="1163" y="1161.8066"/><rect fill="#FFFFFF" height="93.873" style="stroke:#181818;stroke-width:1.0;" width="10" x="1459.5" y="259.3672"/><rect fill="#FFFFFF" height="316.9102" style="stroke:#181818;stroke-width:1.0;" width="10" x="1585" y="1255.6797"/><rect fill="#FFFFFF" height="93.873" style="stroke:#181818;stroke-width:1.0;" width="10" x="1736" y="634.8594"/><rect fill="#FFFFFF" height="93.873" style="stroke:#181818;stroke-width:1.0;" width="10" x="1916" y="885.1875"/><rect fill="#FFFFFF" height="31.291" style="stroke:#181818;stroke-width:1.0;" width="10" x="2134" y="290.6582"/><rect fill="#FFFFFF" height="31.291" style="stroke:#181818;stroke-width:1.0;" width="10" x="2301.5" y="916.4785"/><rect fill="#FFFFFF" height="31.291" style="stroke:#181818;stroke-width:1.0;" width="10" x="2447.5" y="1286.9707"/><rect fill="#FFFFFF" height="31.291" style="stroke:#181818;stroke-width:1.0;" width="10" x="2447.5" y="1407.1348"/><rect fill="#FFFFFF" height="31.291" style="stroke:#181818;stroke-width:1.0;" width="10" x="2447.5" y="1503.0078"/><rect fill="#FFFFFF" height="31.291" style="stroke:#181818;stroke-width:1.0;" width="10" x="2611.5" y="666.1504"/><polygon fill="#181818" points="511.5,98.9121,521.5,102.9121,511.5,106.9121,515.5,102.9121" style="stroke:#181818;stroke-width:1.0;"/><line style="stroke:#181818;stroke-width:1.0;" x1="90.5" x2="517.5" y1="102.9121" y2="102.9121"/><text fill="#000000" font-family="sans-serif" font-size="13" lengthAdjust="spacing" textLength="175" x="97.5" y="97.6494">selects to rank the candidates</text><polygon fill="#181818" points="828.5,130.2031,838.5,134.2031,828.5,138.2031,832.5,134.2031" style="stroke:#181818;stroke-width:1.0;"/><line style="stroke:#181818;stroke-width:1.0;" x1="533.5" x2="834.5" y1="134.2031" y2="134.2031"/><text fill="#000000" font-family="sans-serif" font-size="13" lengthAdjust="spacing" textLength="44" x="540.5" y="128.9404">create()</text><polygon fill="#181818" points="823.5,161.4941,833.5,165.4941,823.5,169.4941,827.5,165.4941" style="stroke:#181818;stroke-width:1.0;"/><line style="stroke:#181818;stroke-width:1.0;" x1="533.5" x2="829.5" y1="165.4941" y2="165.4941"/><text fill="#000000" font-family="sans-serif" font-size="13" lengthAdjust="spacing" textLength="115" x="540.5" y="160.2314">listAllJobOpenings()</text><polygon fill="#181818" points="1302.5,192.7852,1312.5,196.7852,1302.5,200.7852,1306.5,196.7852" style="stroke:#181818;stroke-width:1.0;"/><line style="stroke:#181818;stroke-width:1.0;" x1="845.5" x2="1308.5" y1="196.7852" y2="196.7852"/><text fill="#000000" font-family="sans-serif" font-size="13" lengthAdjust="spacing" textLength="241" x="852.5" y="191.5225">ensureAuthenticatedUserHasAnyOf(roles)</text><polygon fill="#181818" points="1452.5,224.0762,1462.5,228.0762,1452.5,232.0762,1456.5,228.0762" style="stroke:#181818;stroke-width:1.0;"/><line style="stroke:#181818;stroke-width:1.0;" x1="845.5" x2="1458.5" y1="228.0762" y2="228.0762"/><text fill="#000000" font-family="sans-serif" font-size="13" lengthAdjust="spacing" textLength="44" x="852.5" y="222.8135">create()</text><polygon fill="#181818" points="1447.5,255.3672,1457.5,259.3672,1447.5,263.3672,1451.5,259.3672" style="stroke:#181818;stroke-width:1.0;"/><line style="stroke:#181818;stroke-width:1.0;" x1="845.5" x2="1453.5" y1="259.3672" y2="259.3672"/><text fill="#000000" font-family="sans-serif" font-size="13" lengthAdjust="spacing" textLength="115" x="852.5" y="254.1045">listAllJobOpenings()</text><polygon fill="#181818" points="2122,286.6582,2132,290.6582,2122,294.6582,2126,290.6582" style="stroke:#181818;stroke-width:1.0;"/><line style="stroke:#181818;stroke-width:1.0;" x1="1469.5" x2="2128" y1="290.6582" y2="290.6582"/><text fill="#000000" font-family="sans-serif" font-size="13" lengthAdjust="spacing" textLength="74" x="1476.5" y="285.3955">findAllOpen()</text><polygon fill="#181818" points="1480.5,317.9492,1470.5,321.9492,1480.5,325.9492,1476.5,321.9492" style="stroke:#181818;stroke-width:1.0;"/><line style="stroke:#181818;stroke-width:1.0;stroke-dasharray:2.0,2.0;" x1="1474.5" x2="2138" y1="321.9492" y2="321.9492"/><text fill="#000000" font-family="sans-serif" font-size="13" lengthAdjust="spacing" textLength="107" x="1486.5" y="316.6865">jobOpeningsActive</text><polygon fill="#181818" points="856.5,349.2402,846.5,353.2402,856.5,357.2402,852.5,353.2402" style="stroke:#181818;stroke-width:1.0;"/><line style="stroke:#181818;stroke-width:1.0;stroke-dasharray:2.0,2.0;" x1="850.5" x2="1463.5" y1="353.2402" y2="353.2402"/><text fill="#000000" font-family="sans-serif" font-size="13" lengthAdjust="spacing" textLength="107" x="862.5" y="347.9775">jobOpeningsActive</text><polygon fill="#181818" points="544.5,380.5313,534.5,384.5313,544.5,388.5313,540.5,384.5313" style="stroke:#181818;stroke-width:1.0;"/><line style="stroke:#181818;stroke-width:1.0;stroke-dasharray:2.0,2.0;" x1="538.5" x2="839.5" y1="384.5313" y2="384.5313"/><text fill="#000000" font-family="sans-serif" font-size="13" lengthAdjust="spacing" textLength="107" x="550.5" y="379.2686">jobOpeningsActive</text><polygon fill="#181818" points="101.5,411.8223,91.5,415.8223,101.5,419.8223,97.5,415.8223" style="stroke:#181818;stroke-width:1.0;"/><line style="stroke:#181818;stroke-width:1.0;stroke-dasharray:2.0,2.0;" x1="95.5" x2="527.5" y1="415.8223" y2="415.8223"/><text fill="#000000" font-family="sans-serif" font-size="13" lengthAdjust="spacing" textLength="257" x="107.5" y="410.5596">show all job openings and ask to select one)</text><polygon fill="#181818" points="511.5,443.1133,521.5,447.1133,511.5,451.1133,515.5,447.1133" style="stroke:#181818;stroke-width:1.0;"/><line style="stroke:#181818;stroke-width:1.0;" x1="90.5" x2="517.5" y1="447.1133" y2="447.1133"/><text fill="#000000" font-family="sans-serif" font-size="13" lengthAdjust="spacing" textLength="67" x="97.5" y="441.8506">selects one</text><polygon fill="#181818" points="823.5,474.4043,833.5,478.4043,823.5,482.4043,827.5,478.4043" style="stroke:#181818;stroke-width:1.0;"/><line style="stroke:#181818;stroke-width:1.0;" x1="533.5" x2="829.5" y1="478.4043" y2="478.4043"/><text fill="#000000" font-family="sans-serif" font-size="13" lengthAdjust="spacing" textLength="223" x="540.5" y="473.1416">verifyIsInAnalysisPhase((jobReference)</text><polygon fill="#181818" points="997,505.6953,1007,509.6953,997,513.6953,1001,509.6953" style="stroke:#181818;stroke-width:1.0;"/><line style="stroke:#181818;stroke-width:1.0;" x1="845.5" x2="1003" y1="509.6953" y2="509.6953"/><text fill="#000000" font-family="sans-serif" font-size="13" lengthAdjust="spacing" textLength="44" x="852.5" y="504.4326">create()</text><polygon fill="#181818" points="1151,536.9863,1161,540.9863,1151,544.9863,1155,540.9863" style="stroke:#181818;stroke-width:1.0;"/><line style="stroke:#181818;stroke-width:1.0;" x1="1009" x2="1157" y1="540.9863" y2="540.9863"/><text fill="#000000" font-family="sans-serif" font-size="13" lengthAdjust="spacing" textLength="135" x="1016" y="535.7236">jobOpeningProcesses()</text><polygon fill="#181818" points="856.5,568.2773,846.5,572.2773,856.5,576.2773,852.5,572.2773" style="stroke:#181818;stroke-width:1.0;"/><line style="stroke:#181818;stroke-width:1.0;stroke-dasharray:2.0,2.0;" x1="850.5" x2="1167" y1="572.2773" y2="572.2773"/><text fill="#000000" font-family="sans-serif" font-size="13" lengthAdjust="spacing" textLength="175" x="862.5" y="567.0146">jobOpeningProcessRepository</text><polygon fill="#181818" points="1729,599.5684,1739,603.5684,1729,607.5684,1733,603.5684" style="stroke:#181818;stroke-width:1.0;"/><line style="stroke:#181818;stroke-width:1.0;" x1="845.5" x2="1735" y1="603.5684" y2="603.5684"/><text fill="#000000" font-family="sans-serif" font-size="13" lengthAdjust="spacing" textLength="219" x="852.5" y="598.3057">create(jobOpeningProcessRepository)</text><polygon fill="#181818" points="1724,630.8594,1734,634.8594,1724,638.8594,1728,634.8594" style="stroke:#181818;stroke-width:1.0;"/><line style="stroke:#181818;stroke-width:1.0;" x1="845.5" x2="1730" y1="634.8594" y2="634.8594"/><text fill="#000000" font-family="sans-serif" font-size="13" lengthAdjust="spacing" textLength="219" x="852.5" y="629.5967">verifyIsInAnalysisPhase(jobReference)</text><polygon fill="#181818" points="2599.5,662.1504,2609.5,666.1504,2599.5,670.1504,2603.5,666.1504" style="stroke:#181818;stroke-width:1.0;"/><line style="stroke:#181818;stroke-width:1.0;" x1="1746" x2="2605.5" y1="666.1504" y2="666.1504"/><text fill="#000000" font-family="sans-serif" font-size="13" lengthAdjust="spacing" textLength="197" x="1753" y="660.8877">findByJobReference(jobReference)</text><polygon fill="#181818" points="1757,693.4414,1747,697.4414,1757,701.4414,1753,697.4414" style="stroke:#181818;stroke-width:1.0;"/><line style="stroke:#181818;stroke-width:1.0;stroke-dasharray:2.0,2.0;" x1="1751" x2="2615.5" y1="697.4414" y2="697.4414"/><text fill="#000000" font-family="sans-serif" font-size="13" lengthAdjust="spacing" textLength="77" x="1763" y="692.1787">currentPhase</text><polygon fill="#181818" points="856.5,724.7324,846.5,728.7324,856.5,732.7324,852.5,728.7324" style="stroke:#181818;stroke-width:1.0;"/><line style="stroke:#181818;stroke-width:1.0;stroke-dasharray:2.0,2.0;" x1="850.5" x2="1740" y1="728.7324" y2="728.7324"/><text fill="#000000" font-family="sans-serif" font-size="13" lengthAdjust="spacing" textLength="77" x="862.5" y="723.4697">currentPhase</text><polygon fill="#181818" points="544.5,756.0234,534.5,760.0234,544.5,764.0234,540.5,760.0234" style="stroke:#181818;stroke-width:1.0;"/><line style="stroke:#181818;stroke-width:1.0;stroke-dasharray:2.0,2.0;" x1="538.5" x2="839.5" y1="760.0234" y2="760.0234"/><text fill="#000000" font-family="sans-serif" font-size="13" lengthAdjust="spacing" textLength="77" x="550.5" y="754.7607">currentPhase</text><polygon fill="#181818" points="101.5,787.3145,91.5,791.3145,101.5,795.3145,97.5,791.3145" style="stroke:#181818;stroke-width:1.0;"/><line style="stroke:#181818;stroke-width:1.0;" x1="95.5" x2="527.5" y1="791.3145" y2="791.3145"/><text fill="#000000" font-family="sans-serif" font-size="13" lengthAdjust="spacing" textLength="273" x="107.5" y="786.0518">shows all rank methods and asks to select one</text><polygon fill="#181818" points="511.5,818.6055,521.5,822.6055,511.5,826.6055,515.5,822.6055" style="stroke:#181818;stroke-width:1.0;"/><line style="stroke:#181818;stroke-width:1.0;" x1="90.5" x2="517.5" y1="822.6055" y2="822.6055"/><text fill="#000000" font-family="sans-serif" font-size="13" lengthAdjust="spacing" textLength="67" x="97.5" y="817.3428">selects one</text><polygon fill="#181818" points="823.5,849.8965,833.5,853.8965,823.5,857.8965,827.5,853.8965" style="stroke:#181818;stroke-width:1.0;"/><line style="stroke:#181818;stroke-width:1.0;" x1="533.5" x2="829.5" y1="853.8965" y2="853.8965"/><text fill="#000000" font-family="sans-serif" font-size="13" lengthAdjust="spacing" textLength="283" x="540.5" y="848.6338">findAllApplicationsByJobReference(jobReference)</text><polygon fill="#181818" points="1904,881.1875,1914,885.1875,1904,889.1875,1908,885.1875" style="stroke:#181818;stroke-width:1.0;"/><line style="stroke:#181818;stroke-width:1.0;" x1="845.5" x2="1910" y1="885.1875" y2="885.1875"/><text fill="#000000" font-family="sans-serif" font-size="13" lengthAdjust="spacing" textLength="186" x="852.5" y="879.9248">listAllApplications(jobReference)</text><polygon fill="#181818" points="2289.5,912.4785,2299.5,916.4785,2289.5,920.4785,2293.5,916.4785" style="stroke:#181818;stroke-width:1.0;"/><line style="stroke:#181818;stroke-width:1.0;" x1="1926" x2="2295.5" y1="916.4785" y2="916.4785"/><text fill="#000000" font-family="sans-serif" font-size="13" lengthAdjust="spacing" textLength="197" x="1933" y="911.2158">findByJobReference(jobReference)</text><polygon fill="#181818" points="1937,943.7695,1927,947.7695,1937,951.7695,1933,947.7695" style="stroke:#181818;stroke-width:1.0;"/><line style="stroke:#181818;stroke-width:1.0;stroke-dasharray:2.0,2.0;" x1="1931" x2="2305.5" y1="947.7695" y2="947.7695"/><text fill="#000000" font-family="sans-serif" font-size="13" lengthAdjust="spacing" textLength="69" x="1943" y="942.5068">applications</text><polygon fill="#181818" points="856.5,975.0605,846.5,979.0605,856.5,983.0605,852.5,979.0605" style="stroke:#181818;stroke-width:1.0;"/><line style="stroke:#181818;stroke-width:1.0;stroke-dasharray:2.0,2.0;" x1="850.5" x2="2305.5" y1="979.0605" y2="979.0605"/><text fill="#000000" font-family="sans-serif" font-size="13" lengthAdjust="spacing" textLength="69" x="862.5" y="973.7979">applications</text><polygon fill="#181818" points="544.5,1006.3516,534.5,1010.3516,544.5,1014.3516,540.5,1010.3516" style="stroke:#181818;stroke-width:1.0;"/><line style="stroke:#181818;stroke-width:1.0;stroke-dasharray:2.0,2.0;" x1="538.5" x2="839.5" y1="1010.3516" y2="1010.3516"/><text fill="#000000" font-family="sans-serif" font-size="13" lengthAdjust="spacing" textLength="69" x="550.5" y="1005.0889">applications</text><path d="M10,1025.3516 L83,1025.3516 L83,1034.6426 L73,1044.6426 L10,1044.6426 L10,1025.3516 " fill="#EEEEEE" style="stroke:#000000;stroke-width:1.5;"/><rect fill="none" height="617.8203" style="stroke:#000000;stroke-width:1.5;" width="2784" x="10" y="1025.3516"/><text fill="#000000" font-family="sans-serif" font-size="13" font-weight="bold" lengthAdjust="spacing" textLength="28" x="25" y="1040.3799">loop</text><text fill="#000000" font-family="sans-serif" font-size="11" font-weight="bold" lengthAdjust="spacing" textLength="142" x="98" y="1039.2217">[(while he wants to rank)]</text><polygon fill="#181818" points="101.5,1063.9336,91.5,1067.9336,101.5,1071.9336,97.5,1067.9336" style="stroke:#181818;stroke-width:1.0;"/><line style="stroke:#181818;stroke-width:1.0;stroke-dasharray:2.0,2.0;" x1="95.5" x2="527.5" y1="1067.9336" y2="1067.9336"/><text fill="#000000" font-family="sans-serif" font-size="13" lengthAdjust="spacing" textLength="409" x="107.5" y="1062.6709">shows applications and asks to select the application he wants to rank</text><polygon fill="#181818" points="511.5,1095.2246,521.5,1099.2246,511.5,1103.2246,515.5,1099.2246" style="stroke:#181818;stroke-width:1.0;"/><line style="stroke:#181818;stroke-width:1.0;" x1="90.5" x2="517.5" y1="1099.2246" y2="1099.2246"/><text fill="#000000" font-family="sans-serif" font-size="13" lengthAdjust="spacing" textLength="130" x="97.5" y="1093.9619">selects the application</text><polygon fill="#181818" points="823.5,1126.5156,833.5,1130.5156,823.5,1134.5156,827.5,1130.5156" style="stroke:#181818;stroke-width:1.0;"/><line style="stroke:#181818;stroke-width:1.0;" x1="533.5" x2="829.5" y1="1130.5156" y2="1130.5156"/><text fill="#000000" font-family="sans-serif" font-size="13" lengthAdjust="spacing" textLength="252" x="540.5" y="1125.2529">updateApplicationRank(application,position)</text><polygon fill="#181818" points="1151,1157.8066,1161,1161.8066,1151,1165.8066,1155,1161.8066" style="stroke:#181818;stroke-width:1.0;"/><line style="stroke:#181818;stroke-width:1.0;" x1="845.5" x2="1157" y1="1161.8066" y2="1161.8066"/><text fill="#000000" font-family="sans-serif" font-size="13" lengthAdjust="spacing" textLength="40" x="852.5" y="1156.5439">ranks()</text><polygon fill="#181818" points="856.5,1189.0977,846.5,1193.0977,856.5,1197.0977,852.5,1193.0977" style="stroke:#181818;stroke-width:1.0;"/><line style="stroke:#181818;stroke-width:1.0;stroke-dasharray:2.0,2.0;" x1="850.5" x2="1167" y1="1193.0977" y2="1193.0977"/><text fill="#000000" font-family="sans-serif" font-size="13" lengthAdjust="spacing" textLength="92" x="862.5" y="1187.835">RankRepository</text><polygon fill="#181818" points="1578,1220.3887,1588,1224.3887,1578,1228.3887,1582,1224.3887" style="stroke:#181818;stroke-width:1.0;"/><line style="stroke:#181818;stroke-width:1.0;" x1="845.5" x2="1584" y1="1224.3887" y2="1224.3887"/><text fill="#000000" font-family="sans-serif" font-size="13" lengthAdjust="spacing" textLength="131" x="852.5" y="1219.126">create(rankRepository)</text><polygon fill="#181818" points="1573,1251.6797,1583,1255.6797,1573,1259.6797,1577,1255.6797" style="stroke:#181818;stroke-width:1.0;"/><line style="stroke:#181818;stroke-width:1.0;" x1="845.5" x2="1579" y1="1255.6797" y2="1255.6797"/><text fill="#000000" font-family="sans-serif" font-size="13" lengthAdjust="spacing" textLength="252" x="852.5" y="1250.417">updateApplicationRank(application,position)</text><polygon fill="#181818" points="2435.5,1282.9707,2445.5,1286.9707,2435.5,1290.9707,2439.5,1286.9707" style="stroke:#181818;stroke-width:1.0;"/><line style="stroke:#181818;stroke-width:1.0;" x1="1595" x2="2441.5" y1="1286.9707" y2="1286.9707"/><text fill="#000000" font-family="sans-serif" font-size="13" lengthAdjust="spacing" textLength="228" x="1602" y="1281.708">getRankByJobApplication(applicationId)</text><polygon fill="#181818" points="1606,1314.2617,1596,1318.2617,1606,1322.2617,1602,1318.2617" style="stroke:#181818;stroke-width:1.0;"/><line style="stroke:#181818;stroke-width:1.0;stroke-dasharray:2.0,2.0;" x1="1600" x2="2451.5" y1="1318.2617" y2="1318.2617"/><text fill="#000000" font-family="sans-serif" font-size="13" lengthAdjust="spacing" textLength="75" x="1612" y="1312.999">optionalRank</text><path d="M1533,1333.2617 L1594,1333.2617 L1594,1342.5527 L1584,1352.5527 L1533,1352.5527 L1533,1333.2617 " fill="#EEEEEE" style="stroke:#000000;stroke-width:1.5;"/><rect fill="none" height="209.0371" style="stroke:#000000;stroke-width:1.5;" width="1251" x="1533" y="1333.2617"/><text fill="#000000" font-family="sans-serif" font-size="13" font-weight="bold" lengthAdjust="spacing" textLength="16" x="1548" y="1348.29">alt</text><text fill="#000000" font-family="sans-serif" font-size="11" font-weight="bold" lengthAdjust="spacing" textLength="212" x="1609" y="1347.1318">[rank already exists over RankService]</text><polygon fill="#181818" points="2738.5,1371.8438,2748.5,1375.8438,2738.5,1379.8438,2742.5,1375.8438" style="stroke:#181818;stroke-width:1.0;"/><line style="stroke:#181818;stroke-width:1.0;" x1="1595" x2="2744.5" y1="1375.8438" y2="1375.8438"/><text fill="#000000" font-family="sans-serif" font-size="13" lengthAdjust="spacing" textLength="98" x="1602" y="1370.5811">setPosition(rank)</text><polygon fill="#181818" points="2435.5,1403.1348,2445.5,1407.1348,2435.5,1411.1348,2439.5,1407.1348" style="stroke:#181818;stroke-width:1.0;"/><line style="stroke:#181818;stroke-width:1.0;" x1="1595" x2="2441.5" y1="1407.1348" y2="1407.1348"/><text fill="#000000" font-family="sans-serif" font-size="13" lengthAdjust="spacing" textLength="34" x="1602" y="1401.8721">save()</text><polygon fill="#181818" points="1606,1434.4258,1596,1438.4258,1606,1442.4258,1602,1438.4258" style="stroke:#181818;stroke-width:1.0;"/><line style="stroke:#181818;stroke-width:1.0;stroke-dasharray:2.0,2.0;" x1="1600" x2="2451.5" y1="1438.4258" y2="1438.4258"/><text fill="#000000" font-family="sans-serif" font-size="13" lengthAdjust="spacing" textLength="25" x="1612" y="1433.1631">rank</text><line style="stroke:#000000;stroke-width:1.0;stroke-dasharray:2.0,2.0;" x1="1533" x2="2784" y1="1447.4258" y2="1447.4258"/><polygon fill="#181818" points="2738.5,1467.7168,2748.5,1471.7168,2738.5,1475.7168,2742.5,1471.7168" style="stroke:#181818;stroke-width:1.0;"/><line style="stroke:#181818;stroke-width:1.0;" x1="1595" x2="2744.5" y1="1471.7168" y2="1471.7168"/><text fill="#000000" font-family="sans-serif" font-size="13" lengthAdjust="spacing" textLength="103" x="1602" y="1466.4541">create(id,position)</text><polygon fill="#181818" points="2435.5,1499.0078,2445.5,1503.0078,2435.5,1507.0078,2439.5,1503.0078" style="stroke:#181818;stroke-width:1.0;"/><line style="stroke:#181818;stroke-width:1.0;" x1="1595" x2="2441.5" y1="1503.0078" y2="1503.0078"/><text fill="#000000" font-family="sans-serif" font-size="13" lengthAdjust="spacing" textLength="59" x="1602" y="1497.7451">save(rank)</text><polygon fill="#181818" points="1606,1530.2988,1596,1534.2988,1606,1538.2988,1602,1534.2988" style="stroke:#181818;stroke-width:1.0;"/><line style="stroke:#181818;stroke-width:1.0;stroke-dasharray:2.0,2.0;" x1="1600" x2="2451.5" y1="1534.2988" y2="1534.2988"/><text fill="#000000" font-family="sans-serif" font-size="13" lengthAdjust="spacing" textLength="25" x="1612" y="1529.0361">rank</text><polygon fill="#181818" points="856.5,1568.5898,846.5,1572.5898,856.5,1576.5898,852.5,1572.5898" style="stroke:#181818;stroke-width:1.0;"/><line style="stroke:#181818;stroke-width:1.0;stroke-dasharray:2.0,2.0;" x1="850.5" x2="1589" y1="1572.5898" y2="1572.5898"/><text fill="#000000" font-family="sans-serif" font-size="13" lengthAdjust="spacing" textLength="25" x="862.5" y="1567.3271">rank</text><polygon fill="#181818" points="544.5,1599.8809,534.5,1603.8809,544.5,1607.8809,540.5,1603.8809" style="stroke:#181818;stroke-width:1.0;"/><line style="stroke:#181818;stroke-width:1.0;stroke-dasharray:2.0,2.0;" x1="538.5" x2="839.5" y1="1603.8809" y2="1603.8809"/><text fill="#000000" font-family="sans-serif" font-size="13" lengthAdjust="spacing" textLength="25" x="550.5" y="1598.6182">rank</text><polygon fill="#181818" points="101.5,1631.1719,91.5,1635.1719,101.5,1639.1719,97.5,1635.1719" style="stroke:#181818;stroke-width:1.0;"/><line style="stroke:#181818;stroke-width:1.0;stroke-dasharray:2.0,2.0;" x1="95.5" x2="522.5" y1="1635.1719" y2="1635.1719"/><text fill="#000000" font-family="sans-serif" font-size="13" lengthAdjust="spacing" textLength="258" x="107.5" y="1629.9092">Rank of the application successfully updated</text><path d="M453,1657.1719 L514,1657.1719 L514,1666.4629 L504,1676.4629 L453,1676.4629 L453,1657.1719 " fill="#EEEEEE" style="stroke:#000000;stroke-width:1.5;"/><rect fill="none" height="81.873" style="stroke:#000000;stroke-width:1.5;" width="1194" x="453" y="1657.1719"/><text fill="#000000" font-family="sans-serif" font-size="13" font-weight="bold" lengthAdjust="spacing" textLength="16" x="468" y="1672.2002">alt</text><text fill="#000000" font-family="sans-serif" font-size="11" font-weight="bold" lengthAdjust="spacing" textLength="118" x="529" y="1671.042">[applications.size &gt; 0]</text><polygon fill="#181818" points="823.5,1695.7539,833.5,1699.7539,823.5,1703.7539,827.5,1699.7539" style="stroke:#181818;stroke-width:1.0;"/><line style="stroke:#181818;stroke-width:1.0;" x1="533.5" x2="829.5" y1="1699.7539" y2="1699.7539"/><text fill="#000000" font-family="sans-serif" font-size="13" lengthAdjust="spacing" textLength="255" x="540.5" y="1694.4912">markApplicationAsUnranked(applicationList)</text><polygon fill="#181818" points="1578,1727.0449,1588,1731.0449,1578,1735.0449,1582,1731.0449" style="stroke:#181818;stroke-width:1.0;"/><line style="stroke:#181818;stroke-width:1.0;" x1="845.5" x2="1584" y1="1731.0449" y2="1731.0449"/><text fill="#000000" font-family="sans-serif" font-size="13" lengthAdjust="spacing" textLength="191" x="852.5" y="1725.7822">markAsUnranked(applicationList)</text><polygon fill="#181818" points="96.5,1765.3359,86.5,1769.3359,96.5,1773.3359,92.5,1769.3359" style="stroke:#181818;stroke-width:1.0;"/><line style="stroke:#181818;stroke-width:1.0;stroke-dasharray:2.0,2.0;" x1="90.5" x2="527.5" y1="1769.3359" y2="1769.3359"/><text fill="#000000" font-family="sans-serif" font-size="13" lengthAdjust="spacing" textLength="298" x="102.5" y="1764.0732">All the applications you wanted to rank were ranked</text><!--SRC=[rLZ1Rjiu4BtxAtXR6rWtFUTGm9kYg8iM3LBa0rXf7BEXIPMaaYfVlqD5beSI9L5EYxQwsAQ6dCUPDuz3_xDthh2N5nU5vCgL1_agquSB2zzBK1ciSy7l33yi5WKtJcIYG2DsLLgd3s0-SSNlm31ksIPpsWH6DrpTNt6LYvmxiBTRRtMx7J6vqiePBUNpWgTVmPHhC5POvx5v2_ZXl34P3Hr0eQr0PDKxxW5MthZv6XXkIhVNHZnn9xJw0kP1P51l2yUVcj_1X0_ww-S2b51tnBetsDijCIO_1rQ-DZe3QwCEmdVT1JP58KNMtKpqHG-Yjtoh3roe1QQ5V-KMYDzJH4Cyf_5W5l4Npeo-E4trGC89uKWCMXEI8OIzrmlaWNX0vZNaNTGVRFq6QSekcGK9cRFCQMPyMDmUMDQITR5W-BGh8B7h0V_WR5o3iFcIPGRGQhaQDPB8u8sK9yJMJsXdjBv8PRGl_KCMmwKfSt5nKBOqu0T1EHzuo6yjcFVSRbJrURV4YM1NOmls6H_RLzgy-5Rf6krk-pKLs1sVlfV0DI759Ti9bQDt_whhTiGz8Su40k9iFH20RwUTRxohWLtby28WRIYwL7k9-z4qqDGV2sc-io66q-Bn5A_h5IjrhnyPbz9xOhfnnR1KKG3kVVq-bpBJ2bQJlcabqoSk3hZa1866rei8m0COiQksTgisYiiAJxJhFKhSSedxke4T67- -JH5sAdPXSPA3Sx2SZm-rnQd74vKckD5Oi9DrTJo4erR7fKTusrVpgSIEUXoIhCuHt8Pe1CZgXHw6M31DWaYnTjg4nQXSTA34OFPqzB_g0y7r8f0JkHp3ifv8McaGaQlZ65qxAdI951kENwyBc88nYcEsxixPTOhYXe9hQyMjEwC3OFESjufhGydzanMtwGH8Csfd4pfTUgCo46dLs_w8uaf1qgslIBS_EA-XSWIEJtoqZJzJ0VfGuvU1qRbnHEkHc78IpF6r2JT_AhA0UcV1EIEdCMKuotSAk_qZjIxOyd4l932yCZtYlRAzH4qG8jBNsG1iJ6BylOpOz7mcRt18DyRrgEC-aV5JlY9QLHR-uadPXPjR4jV_rcJ3BwbbbvhHKBDEVP-Fxc2dDw_Zc-pyEjV_r9mcEGttH_-cQViz4xXVdR_Uh2oc1PR-aJGwWo9fW0LgVWVEZzM2JX1ITDjyDGDLQi8wIDQzgEd2E-VoPauzpq70fNlkPRZ4XESLWnzu16EtWTru6E2v4QwbmbqtILqcgE1KcYn_WELlIOFvLU47QU6So3RLAV9KxKkARKAE_hRugdn6NBhQEnlMsOt9B4-fnrUdgwYfetUzli6McRzcxKefgqQcywcWritEjBBG5kQL5K_0th3Nink00pVtH9OtzbRvU45E1VeZojQlFVz3ojQWpaNY8uZncPK-l1PrKsTPfSkwwOEy_Rl-4QyWx1dLJ-i0wSN0m_aV]--></g></svg>