<?xml version="1.0" encoding="us-ascii" standalone="no"?><svg xmlns="http://www.w3.org/2000/svg" xmlns:xlink="http://www.w3.org/1999/xlink" contentStyleType="text/css" height="699px" preserveAspectRatio="none" style="width:1611px;height:699px;background:#FFFFFF;" version="1.1" viewBox="0 0 1611 699" width="1611px" zoomAndPan="magnify"><defs/><g><!--cluster JobOpeningAggregate--><g id="cluster_JobOpeningAggregate"><rect fill="none" height="346.5" rx="2.5" ry="2.5" style="stroke:#000000;stroke-width:1.5;" width="767" x="250" y="7"/><text fill="#000000" font-family="sans-serif" font-size="14" font-weight="bold" lengthAdjust="spacing" textLength="159" x="554" y="24.1074">JobOpeningAggregate</text></g><!--cluster ApplicationAggregate--><g id="cluster_ApplicationAggregate"><rect fill="none" height="489.5" rx="2.5" ry="2.5" style="stroke:#000000;stroke-width:1.5;" width="201" x="1404" y="204"/><text fill="#000000" font-family="sans-serif" font-size="14" font-weight="bold" lengthAdjust="spacing" textLength="151" x="1429" y="221.1074">ApplicationAggregate</text></g><!--cluster CandidateAggregate--><g id="cluster_CandidateAggregate"><rect fill="none" height="130" rx="2.5" ry="2.5" style="stroke:#000000;stroke-width:1.5;" width="160" x="1406" y="16"/><text fill="#000000" font-family="sans-serif" font-size="14" font-weight="bold" lengthAdjust="spacing" textLength="144" x="1414" y="33.1074">CandidateAggregate</text></g><!--cluster CustomerManagerAggregate--><g id="cluster_CustomerManagerAggregate"><rect fill="none" height="130" rx="2.5" ry="2.5" style="stroke:#000000;stroke-width:1.5;" width="219" x="7" y="16"/><text fill="#000000" font-family="sans-serif" font-size="14" font-weight="bold" lengthAdjust="spacing" textLength="203" x="15" y="33.1074">CustomerManagerAggregate</text></g><!--cluster CompanyAggregate--><g id="cluster_CompanyAggregate"><rect fill="none" height="291.5" rx="2.5" ry="2.5" style="stroke:#000000;stroke-width:1.5;" width="339" x="1041" y="204"/><text fill="#000000" font-family="sans-serif" font-size="14" font-weight="bold" lengthAdjust="spacing" textLength="137" x="1142" y="221.1074">CompanyAggregate</text></g><!--class JobOpening--><g id="elem_JobOpening"><rect codeLine="5" fill="#F1F1F1" height="95.1641" id="JobOpening" rx="2.5" ry="2.5" style="stroke:#181818;stroke-width:0.5;" width="108" x="609" y="44"/><ellipse cx="624" cy="74.2715" fill="#ADD1B2" rx="11" ry="11" style="stroke:#181818;stroke-width:1.0;"/><path d="M622.8594,75.0684 L622.8594,77.5684 L627.1875,77.5684 L627.1875,76.6465 Q627.1875,76.0371 627.4219,75.7715 Q627.6719,75.5059 628.0469,75.5059 Q628.4219,75.5059 628.6563,75.7715 Q628.8906,76.0371 628.8906,76.6465 L628.8906,79.2715 L620.8906,79.2715 Q620.2656,79.2715 620,79.0371 Q619.75,78.8027 619.75,78.4121 Q619.75,78.0371 620.0156,77.8027 Q620.2813,77.5684 620.8906,77.5684 L621.1563,77.5684 L621.1563,70.9121 L620.8906,70.9121 Q620.2656,70.9121 620,70.6777 Q619.75,70.4434 619.75,70.0527 Q619.75,69.6777 620,69.4434 Q620.2656,69.209 620.8906,69.209 L628.5156,69.209 L628.5156,71.8027 Q628.5156,72.4121 628.2813,72.6777 Q628.0625,72.9277 627.6719,72.9277 Q627.2969,72.9277 627.0625,72.6777 Q626.8281,72.4121 626.8281,71.8027 L626.8281,70.9121 L622.8594,70.9121 L622.8594,73.3652 L624.3438,73.3652 Q624.3438,72.709 624.4688,72.5215 Q624.7344,72.1152 625.2031,72.1152 Q625.5781,72.1152 625.8125,72.3809 Q626.0469,72.6309 626.0469,73.2402 L626.0469,75.209 Q626.0469,75.7559 625.9219,75.9434 Q625.6563,76.334 625.2031,76.334 Q624.7344,76.334 624.4688,75.9277 Q624.3438,75.7402 624.3438,75.0684 L622.8594,75.0684 Z " fill="#000000"/><text fill="#000000" font-family="sans-serif" font-size="12" font-style="italic" lengthAdjust="spacing" textLength="35" x="658.5" y="61.9492">&#171;root&#187;</text><text fill="#000000" font-family="sans-serif" font-size="12" font-style="italic" lengthAdjust="spacing" textLength="43" x="654.5" y="77.9102">&#171;entity&#187;</text><text fill="#000000" font-family="sans-serif" font-size="14" lengthAdjust="spacing" textLength="76" x="638" y="96.0293">JobOpening</text><line style="stroke:#181818;stroke-width:0.5;" x1="610" x2="716" y1="104.543" y2="104.543"/><text fill="#000000" font-family="sans-serif" font-size="14" lengthAdjust="spacing" textLength="69" x="615" y="123.6504">description</text><line style="stroke:#181818;stroke-width:0.5;" x1="610" x2="716" y1="131.1641" y2="131.1641"/></g><!--class JobReference--><g id="elem_JobReference"><rect codeLine="9" fill="#F1F1F1" height="60.582" id="JobReference" rx="2.5" ry="2.5" style="stroke:#181818;stroke-width:0.5;" width="120" x="531" y="249"/><ellipse cx="546" cy="271.291" fill="#ADD1B2" rx="11" ry="11" style="stroke:#181818;stroke-width:1.0;"/><path d="M548.7656,267.166 Q548.9219,266.9473 549.1094,266.8379 Q549.2969,266.7285 549.5156,266.7285 Q549.8906,266.7285 550.125,266.9941 Q550.3594,267.2441 550.3594,267.8535 L550.3594,269.3066 Q550.3594,269.916 550.125,270.1816 Q549.8906,270.4473 549.5156,270.4473 Q549.1719,270.4473 548.9688,270.2441 Q548.7656,270.0566 548.6563,269.541 Q548.6094,269.1816 548.4219,268.9941 Q548.0938,268.6191 547.4844,268.4004 Q546.875,268.1816 546.25,268.1816 Q545.4844,268.1816 544.8438,268.5098 Q544.2188,268.8379 543.7188,269.5879 Q543.2344,270.3379 543.2344,271.3691 L543.2344,272.4629 Q543.2344,273.6973 544.125,274.5254 Q545.0156,275.3379 546.6094,275.3379 Q547.5469,275.3379 548.2031,275.0879 Q548.5938,274.9316 549.0156,274.4941 Q549.2813,274.2285 549.4219,274.1504 Q549.5781,274.0723 549.7813,274.0723 Q550.1094,274.0723 550.3594,274.3379 Q550.625,274.5879 550.625,274.9316 Q550.625,275.2754 550.2813,275.6816 Q549.7813,276.2598 548.9844,276.5879 Q547.9063,277.041 546.6094,277.041 Q545.0938,277.041 543.8906,276.416 Q542.9063,275.916 542.2188,274.8535 Q541.5313,273.7754 541.5313,272.4941 L541.5313,271.3379 Q541.5313,270.0098 542.1406,268.8691 Q542.7656,267.7129 543.8594,267.1035 Q544.9531,266.4785 546.1875,266.4785 Q546.9219,266.4785 547.5625,266.6504 Q548.2188,266.8066 548.7656,267.166 Z " fill="#000000"/><text fill="#000000" font-family="sans-serif" font-size="12" font-style="italic" lengthAdjust="spacing" textLength="46" x="581" y="266.9492">&#171;Value&#187;</text><text fill="#000000" font-family="sans-serif" font-size="14" lengthAdjust="spacing" textLength="88" x="560" y="285.0684">JobReference</text><line style="stroke:#181818;stroke-width:0.5;" x1="532" x2="650" y1="293.582" y2="293.582"/><line style="stroke:#181818;stroke-width:0.5;" x1="532" x2="650" y1="301.582" y2="301.582"/></g><!--class NumberOfVacancies--><g id="elem_NumberOfVacancies"><rect codeLine="12" fill="#F1F1F1" height="60.582" id="NumberOfVacancies" rx="2.5" ry="2.5" style="stroke:#181818;stroke-width:0.5;" width="161" x="686.5" y="249"/><ellipse cx="701.5" cy="271.291" fill="#ADD1B2" rx="11" ry="11" style="stroke:#181818;stroke-width:1.0;"/><path d="M704.2656,267.166 Q704.4219,266.9473 704.6094,266.8379 Q704.7969,266.7285 705.0156,266.7285 Q705.3906,266.7285 705.625,266.9941 Q705.8594,267.2441 705.8594,267.8535 L705.8594,269.3066 Q705.8594,269.916 705.625,270.1816 Q705.3906,270.4473 705.0156,270.4473 Q704.6719,270.4473 704.4688,270.2441 Q704.2656,270.0566 704.1563,269.541 Q704.1094,269.1816 703.9219,268.9941 Q703.5938,268.6191 702.9844,268.4004 Q702.375,268.1816 701.75,268.1816 Q700.9844,268.1816 700.3438,268.5098 Q699.7188,268.8379 699.2188,269.5879 Q698.7344,270.3379 698.7344,271.3691 L698.7344,272.4629 Q698.7344,273.6973 699.625,274.5254 Q700.5156,275.3379 702.1094,275.3379 Q703.0469,275.3379 703.7031,275.0879 Q704.0938,274.9316 704.5156,274.4941 Q704.7813,274.2285 704.9219,274.1504 Q705.0781,274.0723 705.2813,274.0723 Q705.6094,274.0723 705.8594,274.3379 Q706.125,274.5879 706.125,274.9316 Q706.125,275.2754 705.7813,275.6816 Q705.2813,276.2598 704.4844,276.5879 Q703.4063,277.041 702.1094,277.041 Q700.5938,277.041 699.3906,276.416 Q698.4063,275.916 697.7188,274.8535 Q697.0313,273.7754 697.0313,272.4941 L697.0313,271.3379 Q697.0313,270.0098 697.6406,268.8691 Q698.2656,267.7129 699.3594,267.1035 Q700.4531,266.4785 701.6875,266.4785 Q702.4219,266.4785 703.0625,266.6504 Q703.7188,266.8066 704.2656,267.166 Z " fill="#000000"/><text fill="#000000" font-family="sans-serif" font-size="12" font-style="italic" lengthAdjust="spacing" textLength="46" x="757" y="266.9492">&#171;Value&#187;</text><text fill="#000000" font-family="sans-serif" font-size="14" lengthAdjust="spacing" textLength="129" x="715.5" y="285.0684">NumberOfVacancies</text><line style="stroke:#181818;stroke-width:0.5;" x1="687.5" x2="846.5" y1="293.582" y2="293.582"/><line style="stroke:#181818;stroke-width:0.5;" x1="687.5" x2="846.5" y1="301.582" y2="301.582"/></g><!--class ContractType--><g id="elem_ContractType"><rect codeLine="15" fill="#F1F1F1" height="97.8242" id="ContractType" rx="2.5" ry="2.5" style="stroke:#181818;stroke-width:0.5;" width="118" x="883" y="230.5"/><ellipse cx="898" cy="252.791" fill="#EB937F" rx="11" ry="11" style="stroke:#181818;stroke-width:1.0;"/><path d="M896.8594,253.5879 L896.8594,256.0879 L901.1875,256.0879 L901.1875,255.166 Q901.1875,254.5566 901.4219,254.291 Q901.6719,254.0254 902.0469,254.0254 Q902.4219,254.0254 902.6563,254.291 Q902.8906,254.5566 902.8906,255.166 L902.8906,257.791 L894.8906,257.791 Q894.2656,257.791 894,257.5566 Q893.75,257.3223 893.75,256.9316 Q893.75,256.5566 894.0156,256.3223 Q894.2813,256.0879 894.8906,256.0879 L895.1563,256.0879 L895.1563,249.4316 L894.8906,249.4316 Q894.2656,249.4316 894,249.1973 Q893.75,248.9629 893.75,248.5723 Q893.75,248.1973 894,247.9629 Q894.2656,247.7285 894.8906,247.7285 L902.5156,247.7285 L902.5156,250.3223 Q902.5156,250.9316 902.2813,251.1973 Q902.0625,251.4473 901.6719,251.4473 Q901.2969,251.4473 901.0625,251.1973 Q900.8281,250.9316 900.8281,250.3223 L900.8281,249.4316 L896.8594,249.4316 L896.8594,251.8848 L898.3438,251.8848 Q898.3438,251.2285 898.4688,251.041 Q898.7344,250.6348 899.2031,250.6348 Q899.5781,250.6348 899.8125,250.9004 Q900.0469,251.1504 900.0469,251.7598 L900.0469,253.7285 Q900.0469,254.2754 899.9219,254.4629 Q899.6563,254.8535 899.2031,254.8535 Q898.7344,254.8535 898.4688,254.4473 Q898.3438,254.2598 898.3438,253.5879 L896.8594,253.5879 Z " fill="#000000"/><text fill="#000000" font-family="sans-serif" font-size="12" font-style="italic" lengthAdjust="spacing" textLength="46" x="932" y="248.4492">&#171;Value&#187;</text><text fill="#000000" font-family="sans-serif" font-size="14" lengthAdjust="spacing" textLength="86" x="912" y="266.5684">ContractType</text><line style="stroke:#181818;stroke-width:0.5;" x1="884" x2="1000" y1="275.082" y2="275.082"/><text fill="#000000" font-family="sans-serif" font-size="14" lengthAdjust="spacing" textLength="49" x="889" y="294.1895">full-time</text><text fill="#000000" font-family="sans-serif" font-size="14" lengthAdjust="spacing" textLength="56" x="889" y="312.8105">part-time</text><line style="stroke:#181818;stroke-width:0.5;" x1="884" x2="1000" y1="320.3242" y2="320.3242"/></g><!--class WorkRegime--><g id="elem_WorkRegime"><rect codeLine="20" fill="#F1F1F1" height="116.4453" id="WorkRegime" rx="2.5" ry="2.5" style="stroke:#181818;stroke-width:0.5;" width="113" x="266.5" y="221.5"/><ellipse cx="281.5" cy="243.791" fill="#EB937F" rx="11" ry="11" style="stroke:#181818;stroke-width:1.0;"/><path d="M280.3594,244.5879 L280.3594,247.0879 L284.6875,247.0879 L284.6875,246.166 Q284.6875,245.5566 284.9219,245.291 Q285.1719,245.0254 285.5469,245.0254 Q285.9219,245.0254 286.1563,245.291 Q286.3906,245.5566 286.3906,246.166 L286.3906,248.791 L278.3906,248.791 Q277.7656,248.791 277.5,248.5566 Q277.25,248.3223 277.25,247.9316 Q277.25,247.5566 277.5156,247.3223 Q277.7813,247.0879 278.3906,247.0879 L278.6563,247.0879 L278.6563,240.4316 L278.3906,240.4316 Q277.7656,240.4316 277.5,240.1973 Q277.25,239.9629 277.25,239.5723 Q277.25,239.1973 277.5,238.9629 Q277.7656,238.7285 278.3906,238.7285 L286.0156,238.7285 L286.0156,241.3223 Q286.0156,241.9316 285.7813,242.1973 Q285.5625,242.4473 285.1719,242.4473 Q284.7969,242.4473 284.5625,242.1973 Q284.3281,241.9316 284.3281,241.3223 L284.3281,240.4316 L280.3594,240.4316 L280.3594,242.8848 L281.8438,242.8848 Q281.8438,242.2285 281.9688,242.041 Q282.2344,241.6348 282.7031,241.6348 Q283.0781,241.6348 283.3125,241.9004 Q283.5469,242.1504 283.5469,242.7598 L283.5469,244.7285 Q283.5469,245.2754 283.4219,245.4629 Q283.1563,245.8535 282.7031,245.8535 Q282.2344,245.8535 281.9688,245.4473 Q281.8438,245.2598 281.8438,244.5879 L280.3594,244.5879 Z " fill="#000000"/><text fill="#000000" font-family="sans-serif" font-size="12" font-style="italic" lengthAdjust="spacing" textLength="46" x="313" y="239.4492">&#171;Value&#187;</text><text fill="#000000" font-family="sans-serif" font-size="14" lengthAdjust="spacing" textLength="81" x="295.5" y="257.5684">WorkRegime</text><line style="stroke:#181818;stroke-width:0.5;" x1="267.5" x2="378.5" y1="266.082" y2="266.082"/><text fill="#000000" font-family="sans-serif" font-size="14" lengthAdjust="spacing" textLength="44" x="272.5" y="285.1895">remote</text><text fill="#000000" font-family="sans-serif" font-size="14" lengthAdjust="spacing" textLength="39" x="272.5" y="303.8105">hybrid</text><text fill="#000000" font-family="sans-serif" font-size="14" lengthAdjust="spacing" textLength="38" x="272.5" y="322.4316">onsite</text><line style="stroke:#181818;stroke-width:0.5;" x1="267.5" x2="378.5" y1="329.9453" y2="329.9453"/></g><!--class JobTitle--><g id="elem_JobTitle"><rect codeLine="26" fill="#F1F1F1" height="60.582" id="JobTitle" rx="2.5" ry="2.5" style="stroke:#181818;stroke-width:0.5;" width="81" x="414.5" y="249"/><ellipse cx="429.5" cy="271.291" fill="#ADD1B2" rx="11" ry="11" style="stroke:#181818;stroke-width:1.0;"/><path d="M432.2656,267.166 Q432.4219,266.9473 432.6094,266.8379 Q432.7969,266.7285 433.0156,266.7285 Q433.3906,266.7285 433.625,266.9941 Q433.8594,267.2441 433.8594,267.8535 L433.8594,269.3066 Q433.8594,269.916 433.625,270.1816 Q433.3906,270.4473 433.0156,270.4473 Q432.6719,270.4473 432.4688,270.2441 Q432.2656,270.0566 432.1563,269.541 Q432.1094,269.1816 431.9219,268.9941 Q431.5938,268.6191 430.9844,268.4004 Q430.375,268.1816 429.75,268.1816 Q428.9844,268.1816 428.3438,268.5098 Q427.7188,268.8379 427.2188,269.5879 Q426.7344,270.3379 426.7344,271.3691 L426.7344,272.4629 Q426.7344,273.6973 427.625,274.5254 Q428.5156,275.3379 430.1094,275.3379 Q431.0469,275.3379 431.7031,275.0879 Q432.0938,274.9316 432.5156,274.4941 Q432.7813,274.2285 432.9219,274.1504 Q433.0781,274.0723 433.2813,274.0723 Q433.6094,274.0723 433.8594,274.3379 Q434.125,274.5879 434.125,274.9316 Q434.125,275.2754 433.7813,275.6816 Q433.2813,276.2598 432.4844,276.5879 Q431.4063,277.041 430.1094,277.041 Q428.5938,277.041 427.3906,276.416 Q426.4063,275.916 425.7188,274.8535 Q425.0313,273.7754 425.0313,272.4941 L425.0313,271.3379 Q425.0313,270.0098 425.6406,268.8691 Q426.2656,267.7129 427.3594,267.1035 Q428.4531,266.4785 429.6875,266.4785 Q430.4219,266.4785 431.0625,266.6504 Q431.7188,266.8066 432.2656,267.166 Z " fill="#000000"/><text fill="#000000" font-family="sans-serif" font-size="12" font-style="italic" lengthAdjust="spacing" textLength="46" x="445" y="266.9492">&#171;Value&#187;</text><text fill="#000000" font-family="sans-serif" font-size="14" lengthAdjust="spacing" textLength="49" x="443.5" y="285.0684">JobTitle</text><line style="stroke:#181818;stroke-width:0.5;" x1="415.5" x2="494.5" y1="293.582" y2="293.582"/><line style="stroke:#181818;stroke-width:0.5;" x1="415.5" x2="494.5" y1="301.582" y2="301.582"/></g><!--class Application--><g id="elem_Application"><rect codeLine="36" fill="#F1F1F1" height="76.543" id="Application" rx="2.5" ry="2.5" style="stroke:#181818;stroke-width:0.5;" width="101" x="1435.5" y="241"/><ellipse cx="1450.5" cy="271.2715" fill="#ADD1B2" rx="11" ry="11" style="stroke:#181818;stroke-width:1.0;"/><path d="M1449.3594,272.0684 L1449.3594,274.5684 L1453.6875,274.5684 L1453.6875,273.6465 Q1453.6875,273.0371 1453.9219,272.7715 Q1454.1719,272.5059 1454.5469,272.5059 Q1454.9219,272.5059 1455.1563,272.7715 Q1455.3906,273.0371 1455.3906,273.6465 L1455.3906,276.2715 L1447.3906,276.2715 Q1446.7656,276.2715 1446.5,276.0371 Q1446.25,275.8027 1446.25,275.4121 Q1446.25,275.0371 1446.5156,274.8027 Q1446.7813,274.5684 1447.3906,274.5684 L1447.6563,274.5684 L1447.6563,267.9121 L1447.3906,267.9121 Q1446.7656,267.9121 1446.5,267.6777 Q1446.25,267.4434 1446.25,267.0527 Q1446.25,266.6777 1446.5,266.4434 Q1446.7656,266.209 1447.3906,266.209 L1455.0156,266.209 L1455.0156,268.8027 Q1455.0156,269.4121 1454.7813,269.6777 Q1454.5625,269.9277 1454.1719,269.9277 Q1453.7969,269.9277 1453.5625,269.6777 Q1453.3281,269.4121 1453.3281,268.8027 L1453.3281,267.9121 L1449.3594,267.9121 L1449.3594,270.3652 L1450.8438,270.3652 Q1450.8438,269.709 1450.9688,269.5215 Q1451.2344,269.1152 1451.7031,269.1152 Q1452.0781,269.1152 1452.3125,269.3809 Q1452.5469,269.6309 1452.5469,270.2402 L1452.5469,272.209 Q1452.5469,272.7559 1452.4219,272.9434 Q1452.1563,273.334 1451.7031,273.334 Q1451.2344,273.334 1450.9688,272.9277 Q1450.8438,272.7402 1450.8438,272.0684 L1449.3594,272.0684 Z " fill="#000000"/><text fill="#000000" font-family="sans-serif" font-size="12" font-style="italic" lengthAdjust="spacing" textLength="43" x="1477.5" y="258.9492">&#171;entity&#187;</text><text fill="#000000" font-family="sans-serif" font-size="12" font-style="italic" lengthAdjust="spacing" textLength="35" x="1481.5" y="274.9102">&#171;root&#187;</text><text fill="#000000" font-family="sans-serif" font-size="14" lengthAdjust="spacing" textLength="69" x="1464.5" y="293.0293">Application</text><line style="stroke:#181818;stroke-width:0.5;" x1="1436.5" x2="1535.5" y1="301.543" y2="301.543"/><line style="stroke:#181818;stroke-width:0.5;" x1="1436.5" x2="1535.5" y1="309.543" y2="309.543"/></g><!--class ApplicationDate--><g id="elem_ApplicationDate"><rect codeLine="38" fill="#F1F1F1" height="60.582" id="ApplicationDate" rx="2.5" ry="2.5" style="stroke:#181818;stroke-width:0.5;" width="131" x="1420.5" y="418.5"/><ellipse cx="1435.5" cy="440.791" fill="#ADD1B2" rx="11" ry="11" style="stroke:#181818;stroke-width:1.0;"/><path d="M1438.2656,436.666 Q1438.4219,436.4473 1438.6094,436.3379 Q1438.7969,436.2285 1439.0156,436.2285 Q1439.3906,436.2285 1439.625,436.4941 Q1439.8594,436.7441 1439.8594,437.3535 L1439.8594,438.8066 Q1439.8594,439.416 1439.625,439.6816 Q1439.3906,439.9473 1439.0156,439.9473 Q1438.6719,439.9473 1438.4688,439.7441 Q1438.2656,439.5566 1438.1563,439.041 Q1438.1094,438.6816 1437.9219,438.4941 Q1437.5938,438.1191 1436.9844,437.9004 Q1436.375,437.6816 1435.75,437.6816 Q1434.9844,437.6816 1434.3438,438.0098 Q1433.7188,438.3379 1433.2188,439.0879 Q1432.7344,439.8379 1432.7344,440.8691 L1432.7344,441.9629 Q1432.7344,443.1973 1433.625,444.0254 Q1434.5156,444.8379 1436.1094,444.8379 Q1437.0469,444.8379 1437.7031,444.5879 Q1438.0938,444.4316 1438.5156,443.9941 Q1438.7813,443.7285 1438.9219,443.6504 Q1439.0781,443.5723 1439.2813,443.5723 Q1439.6094,443.5723 1439.8594,443.8379 Q1440.125,444.0879 1440.125,444.4316 Q1440.125,444.7754 1439.7813,445.1816 Q1439.2813,445.7598 1438.4844,446.0879 Q1437.4063,446.541 1436.1094,446.541 Q1434.5938,446.541 1433.3906,445.916 Q1432.4063,445.416 1431.7188,444.3535 Q1431.0313,443.2754 1431.0313,441.9941 L1431.0313,440.8379 Q1431.0313,439.5098 1431.6406,438.3691 Q1432.2656,437.2129 1433.3594,436.6035 Q1434.4531,435.9785 1435.6875,435.9785 Q1436.4219,435.9785 1437.0625,436.1504 Q1437.7188,436.3066 1438.2656,436.666 Z " fill="#000000"/><text fill="#000000" font-family="sans-serif" font-size="12" font-style="italic" lengthAdjust="spacing" textLength="46" x="1476" y="436.4492">&#171;Value&#187;</text><text fill="#000000" font-family="sans-serif" font-size="14" lengthAdjust="spacing" textLength="99" x="1449.5" y="454.5684">ApplicationDate</text><line style="stroke:#181818;stroke-width:0.5;" x1="1421.5" x2="1550.5" y1="463.082" y2="463.082"/><line style="stroke:#181818;stroke-width:0.5;" x1="1421.5" x2="1550.5" y1="471.082" y2="471.082"/></g><!--class ApplicationStatus--><g id="elem_ApplicationStatus"><rect codeLine="41" fill="#F1F1F1" height="135.0664" id="ApplicationStatus" rx="2.5" ry="2.5" style="stroke:#181818;stroke-width:0.5;" width="141" x="1447.5" y="542.5"/><ellipse cx="1462.5" cy="564.791" fill="#EB937F" rx="11" ry="11" style="stroke:#181818;stroke-width:1.0;"/><path d="M1461.3594,565.5879 L1461.3594,568.0879 L1465.6875,568.0879 L1465.6875,567.166 Q1465.6875,566.5566 1465.9219,566.291 Q1466.1719,566.0254 1466.5469,566.0254 Q1466.9219,566.0254 1467.1563,566.291 Q1467.3906,566.5566 1467.3906,567.166 L1467.3906,569.791 L1459.3906,569.791 Q1458.7656,569.791 1458.5,569.5566 Q1458.25,569.3223 1458.25,568.9316 Q1458.25,568.5566 1458.5156,568.3223 Q1458.7813,568.0879 1459.3906,568.0879 L1459.6563,568.0879 L1459.6563,561.4316 L1459.3906,561.4316 Q1458.7656,561.4316 1458.5,561.1973 Q1458.25,560.9629 1458.25,560.5723 Q1458.25,560.1973 1458.5,559.9629 Q1458.7656,559.7285 1459.3906,559.7285 L1467.0156,559.7285 L1467.0156,562.3223 Q1467.0156,562.9316 1466.7813,563.1973 Q1466.5625,563.4473 1466.1719,563.4473 Q1465.7969,563.4473 1465.5625,563.1973 Q1465.3281,562.9316 1465.3281,562.3223 L1465.3281,561.4316 L1461.3594,561.4316 L1461.3594,563.8848 L1462.8438,563.8848 Q1462.8438,563.2285 1462.9688,563.041 Q1463.2344,562.6348 1463.7031,562.6348 Q1464.0781,562.6348 1464.3125,562.9004 Q1464.5469,563.1504 1464.5469,563.7598 L1464.5469,565.7285 Q1464.5469,566.2754 1464.4219,566.4629 Q1464.1563,566.8535 1463.7031,566.8535 Q1463.2344,566.8535 1462.9688,566.4473 Q1462.8438,566.2598 1462.8438,565.5879 L1461.3594,565.5879 Z " fill="#000000"/><text fill="#000000" font-family="sans-serif" font-size="12" font-style="italic" lengthAdjust="spacing" textLength="46" x="1508" y="560.4492">&#171;Value&#187;</text><text fill="#000000" font-family="sans-serif" font-size="14" lengthAdjust="spacing" textLength="109" x="1476.5" y="578.5684">ApplicationStatus</text><line style="stroke:#181818;stroke-width:0.5;" x1="1448.5" x2="1587.5" y1="587.082" y2="587.082"/><text fill="#000000" font-family="sans-serif" font-size="14" lengthAdjust="spacing" textLength="61" x="1453.5" y="606.1895">Approved</text><text fill="#000000" font-family="sans-serif" font-size="14" lengthAdjust="spacing" textLength="45" x="1453.5" y="624.8105">Denied</text><text fill="#000000" font-family="sans-serif" font-size="14" lengthAdjust="spacing" textLength="102" x="1453.5" y="643.4316">WaitingInterview</text><text fill="#000000" font-family="sans-serif" font-size="14" lengthAdjust="spacing" textLength="68" x="1453.5" y="662.0527">InProgress</text><line style="stroke:#181818;stroke-width:0.5;" x1="1448.5" x2="1587.5" y1="669.5664" y2="669.5664"/></g><!--class Candidate--><g id="elem_Candidate"><rect codeLine="51" fill="#F1F1F1" height="76.543" id="Candidate" rx="2.5" ry="2.5" style="stroke:#181818;stroke-width:0.5;" width="97" x="1437.5" y="53"/><ellipse cx="1452.5" cy="83.2715" fill="#ADD1B2" rx="11" ry="11" style="stroke:#181818;stroke-width:1.0;"/><path d="M1451.3594,84.0684 L1451.3594,86.5684 L1455.6875,86.5684 L1455.6875,85.6465 Q1455.6875,85.0371 1455.9219,84.7715 Q1456.1719,84.5059 1456.5469,84.5059 Q1456.9219,84.5059 1457.1563,84.7715 Q1457.3906,85.0371 1457.3906,85.6465 L1457.3906,88.2715 L1449.3906,88.2715 Q1448.7656,88.2715 1448.5,88.0371 Q1448.25,87.8027 1448.25,87.4121 Q1448.25,87.0371 1448.5156,86.8027 Q1448.7813,86.5684 1449.3906,86.5684 L1449.6563,86.5684 L1449.6563,79.9121 L1449.3906,79.9121 Q1448.7656,79.9121 1448.5,79.6777 Q1448.25,79.4434 1448.25,79.0527 Q1448.25,78.6777 1448.5,78.4434 Q1448.7656,78.209 1449.3906,78.209 L1457.0156,78.209 L1457.0156,80.8027 Q1457.0156,81.4121 1456.7813,81.6777 Q1456.5625,81.9277 1456.1719,81.9277 Q1455.7969,81.9277 1455.5625,81.6777 Q1455.3281,81.4121 1455.3281,80.8027 L1455.3281,79.9121 L1451.3594,79.9121 L1451.3594,82.3652 L1452.8438,82.3652 Q1452.8438,81.709 1452.9688,81.5215 Q1453.2344,81.1152 1453.7031,81.1152 Q1454.0781,81.1152 1454.3125,81.3809 Q1454.5469,81.6309 1454.5469,82.2402 L1454.5469,84.209 Q1454.5469,84.7559 1454.4219,84.9434 Q1454.1563,85.334 1453.7031,85.334 Q1453.2344,85.334 1452.9688,84.9277 Q1452.8438,84.7402 1452.8438,84.0684 L1451.3594,84.0684 Z " fill="#000000"/><text fill="#000000" font-family="sans-serif" font-size="12" font-style="italic" lengthAdjust="spacing" textLength="43" x="1477.5" y="70.9492">&#171;entity&#187;</text><text fill="#000000" font-family="sans-serif" font-size="12" font-style="italic" lengthAdjust="spacing" textLength="35" x="1481.5" y="86.9102">&#171;root&#187;</text><text fill="#000000" font-family="sans-serif" font-size="14" lengthAdjust="spacing" textLength="65" x="1466.5" y="105.0293">Candidate</text><line style="stroke:#181818;stroke-width:0.5;" x1="1438.5" x2="1533.5" y1="113.543" y2="113.543"/><line style="stroke:#181818;stroke-width:0.5;" x1="1438.5" x2="1533.5" y1="121.543" y2="121.543"/></g><!--class CustomerManager--><g id="elem_CustomerManager"><rect codeLine="59" fill="#F1F1F1" height="76.543" id="CustomerManager" rx="2.5" ry="2.5" style="stroke:#181818;stroke-width:0.5;" width="149" x="60.5" y="53"/><ellipse cx="75.5" cy="83.2715" fill="#ADD1B2" rx="11" ry="11" style="stroke:#181818;stroke-width:1.0;"/><path d="M74.3594,84.0684 L74.3594,86.5684 L78.6875,86.5684 L78.6875,85.6465 Q78.6875,85.0371 78.9219,84.7715 Q79.1719,84.5059 79.5469,84.5059 Q79.9219,84.5059 80.1563,84.7715 Q80.3906,85.0371 80.3906,85.6465 L80.3906,88.2715 L72.3906,88.2715 Q71.7656,88.2715 71.5,88.0371 Q71.25,87.8027 71.25,87.4121 Q71.25,87.0371 71.5156,86.8027 Q71.7813,86.5684 72.3906,86.5684 L72.6563,86.5684 L72.6563,79.9121 L72.3906,79.9121 Q71.7656,79.9121 71.5,79.6777 Q71.25,79.4434 71.25,79.0527 Q71.25,78.6777 71.5,78.4434 Q71.7656,78.209 72.3906,78.209 L80.0156,78.209 L80.0156,80.8027 Q80.0156,81.4121 79.7813,81.6777 Q79.5625,81.9277 79.1719,81.9277 Q78.7969,81.9277 78.5625,81.6777 Q78.3281,81.4121 78.3281,80.8027 L78.3281,79.9121 L74.3594,79.9121 L74.3594,82.3652 L75.8438,82.3652 Q75.8438,81.709 75.9688,81.5215 Q76.2344,81.1152 76.7031,81.1152 Q77.0781,81.1152 77.3125,81.3809 Q77.5469,81.6309 77.5469,82.2402 L77.5469,84.209 Q77.5469,84.7559 77.4219,84.9434 Q77.1563,85.334 76.7031,85.334 Q76.2344,85.334 75.9688,84.9277 Q75.8438,84.7402 75.8438,84.0684 L74.3594,84.0684 Z " fill="#000000"/><text fill="#000000" font-family="sans-serif" font-size="12" font-style="italic" lengthAdjust="spacing" textLength="43" x="126.5" y="70.9492">&#171;entity&#187;</text><text fill="#000000" font-family="sans-serif" font-size="12" font-style="italic" lengthAdjust="spacing" textLength="35" x="130.5" y="86.9102">&#171;root&#187;</text><text fill="#000000" font-family="sans-serif" font-size="14" lengthAdjust="spacing" textLength="117" x="89.5" y="105.0293">CustomerManager</text><line style="stroke:#181818;stroke-width:0.5;" x1="61.5" x2="208.5" y1="113.543" y2="113.543"/><line style="stroke:#181818;stroke-width:0.5;" x1="61.5" x2="208.5" y1="121.543" y2="121.543"/></g><!--class Company--><g id="elem_Company"><rect codeLine="64" fill="#F1F1F1" height="76.543" id="Company" rx="2.5" ry="2.5" style="stroke:#181818;stroke-width:0.5;" width="92" x="1075" y="241"/><ellipse cx="1090" cy="271.2715" fill="#ADD1B2" rx="11" ry="11" style="stroke:#181818;stroke-width:1.0;"/><path d="M1088.8594,272.0684 L1088.8594,274.5684 L1093.1875,274.5684 L1093.1875,273.6465 Q1093.1875,273.0371 1093.4219,272.7715 Q1093.6719,272.5059 1094.0469,272.5059 Q1094.4219,272.5059 1094.6563,272.7715 Q1094.8906,273.0371 1094.8906,273.6465 L1094.8906,276.2715 L1086.8906,276.2715 Q1086.2656,276.2715 1086,276.0371 Q1085.75,275.8027 1085.75,275.4121 Q1085.75,275.0371 1086.0156,274.8027 Q1086.2813,274.5684 1086.8906,274.5684 L1087.1563,274.5684 L1087.1563,267.9121 L1086.8906,267.9121 Q1086.2656,267.9121 1086,267.6777 Q1085.75,267.4434 1085.75,267.0527 Q1085.75,266.6777 1086,266.4434 Q1086.2656,266.209 1086.8906,266.209 L1094.5156,266.209 L1094.5156,268.8027 Q1094.5156,269.4121 1094.2813,269.6777 Q1094.0625,269.9277 1093.6719,269.9277 Q1093.2969,269.9277 1093.0625,269.6777 Q1092.8281,269.4121 1092.8281,268.8027 L1092.8281,267.9121 L1088.8594,267.9121 L1088.8594,270.3652 L1090.3438,270.3652 Q1090.3438,269.709 1090.4688,269.5215 Q1090.7344,269.1152 1091.2031,269.1152 Q1091.5781,269.1152 1091.8125,269.3809 Q1092.0469,269.6309 1092.0469,270.2402 L1092.0469,272.209 Q1092.0469,272.7559 1091.9219,272.9434 Q1091.6563,273.334 1091.2031,273.334 Q1090.7344,273.334 1090.4688,272.9277 Q1090.3438,272.7402 1090.3438,272.0684 L1088.8594,272.0684 Z " fill="#000000"/><text fill="#000000" font-family="sans-serif" font-size="12" font-style="italic" lengthAdjust="spacing" textLength="43" x="1112.5" y="258.9492">&#171;entity&#187;</text><text fill="#000000" font-family="sans-serif" font-size="12" font-style="italic" lengthAdjust="spacing" textLength="35" x="1116.5" y="274.9102">&#171;root&#187;</text><text fill="#000000" font-family="sans-serif" font-size="14" lengthAdjust="spacing" textLength="60" x="1104" y="293.0293">Company</text><line style="stroke:#181818;stroke-width:0.5;" x1="1076" x2="1166" y1="301.543" y2="301.543"/><line style="stroke:#181818;stroke-width:0.5;" x1="1076" x2="1166" y1="309.543" y2="309.543"/></g><!--class CompanyName--><g id="elem_CompanyName"><rect codeLine="67" fill="#F1F1F1" height="60.582" id="CompanyName" rx="2.5" ry="2.5" style="stroke:#181818;stroke-width:0.5;" width="128" x="1057" y="418.5"/><ellipse cx="1072" cy="440.791" fill="#ADD1B2" rx="11" ry="11" style="stroke:#181818;stroke-width:1.0;"/><path d="M1074.7656,436.666 Q1074.9219,436.4473 1075.1094,436.3379 Q1075.2969,436.2285 1075.5156,436.2285 Q1075.8906,436.2285 1076.125,436.4941 Q1076.3594,436.7441 1076.3594,437.3535 L1076.3594,438.8066 Q1076.3594,439.416 1076.125,439.6816 Q1075.8906,439.9473 1075.5156,439.9473 Q1075.1719,439.9473 1074.9688,439.7441 Q1074.7656,439.5566 1074.6563,439.041 Q1074.6094,438.6816 1074.4219,438.4941 Q1074.0938,438.1191 1073.4844,437.9004 Q1072.875,437.6816 1072.25,437.6816 Q1071.4844,437.6816 1070.8438,438.0098 Q1070.2188,438.3379 1069.7188,439.0879 Q1069.2344,439.8379 1069.2344,440.8691 L1069.2344,441.9629 Q1069.2344,443.1973 1070.125,444.0254 Q1071.0156,444.8379 1072.6094,444.8379 Q1073.5469,444.8379 1074.2031,444.5879 Q1074.5938,444.4316 1075.0156,443.9941 Q1075.2813,443.7285 1075.4219,443.6504 Q1075.5781,443.5723 1075.7813,443.5723 Q1076.1094,443.5723 1076.3594,443.8379 Q1076.625,444.0879 1076.625,444.4316 Q1076.625,444.7754 1076.2813,445.1816 Q1075.7813,445.7598 1074.9844,446.0879 Q1073.9063,446.541 1072.6094,446.541 Q1071.0938,446.541 1069.8906,445.916 Q1068.9063,445.416 1068.2188,444.3535 Q1067.5313,443.2754 1067.5313,441.9941 L1067.5313,440.8379 Q1067.5313,439.5098 1068.1406,438.3691 Q1068.7656,437.2129 1069.8594,436.6035 Q1070.9531,435.9785 1072.1875,435.9785 Q1072.9219,435.9785 1073.5625,436.1504 Q1074.2188,436.3066 1074.7656,436.666 Z " fill="#000000"/><text fill="#000000" font-family="sans-serif" font-size="12" font-style="italic" lengthAdjust="spacing" textLength="46" x="1111" y="436.4492">&#171;Value&#187;</text><text fill="#000000" font-family="sans-serif" font-size="14" lengthAdjust="spacing" textLength="96" x="1086" y="454.5684">CompanyName</text><line style="stroke:#181818;stroke-width:0.5;" x1="1058" x2="1184" y1="463.082" y2="463.082"/><line style="stroke:#181818;stroke-width:0.5;" x1="1058" x2="1184" y1="471.082" y2="471.082"/></g><!--class CompanyAddress--><g id="elem_CompanyAddress"><rect codeLine="69" fill="#F1F1F1" height="60.582" id="CompanyAddress" rx="2.5" ry="2.5" style="stroke:#181818;stroke-width:0.5;" width="144" x="1220" y="418.5"/><ellipse cx="1235" cy="440.791" fill="#ADD1B2" rx="11" ry="11" style="stroke:#181818;stroke-width:1.0;"/><path d="M1237.7656,436.666 Q1237.9219,436.4473 1238.1094,436.3379 Q1238.2969,436.2285 1238.5156,436.2285 Q1238.8906,436.2285 1239.125,436.4941 Q1239.3594,436.7441 1239.3594,437.3535 L1239.3594,438.8066 Q1239.3594,439.416 1239.125,439.6816 Q1238.8906,439.9473 1238.5156,439.9473 Q1238.1719,439.9473 1237.9688,439.7441 Q1237.7656,439.5566 1237.6563,439.041 Q1237.6094,438.6816 1237.4219,438.4941 Q1237.0938,438.1191 1236.4844,437.9004 Q1235.875,437.6816 1235.25,437.6816 Q1234.4844,437.6816 1233.8438,438.0098 Q1233.2188,438.3379 1232.7188,439.0879 Q1232.2344,439.8379 1232.2344,440.8691 L1232.2344,441.9629 Q1232.2344,443.1973 1233.125,444.0254 Q1234.0156,444.8379 1235.6094,444.8379 Q1236.5469,444.8379 1237.2031,444.5879 Q1237.5938,444.4316 1238.0156,443.9941 Q1238.2813,443.7285 1238.4219,443.6504 Q1238.5781,443.5723 1238.7813,443.5723 Q1239.1094,443.5723 1239.3594,443.8379 Q1239.625,444.0879 1239.625,444.4316 Q1239.625,444.7754 1239.2813,445.1816 Q1238.7813,445.7598 1237.9844,446.0879 Q1236.9063,446.541 1235.6094,446.541 Q1234.0938,446.541 1232.8906,445.916 Q1231.9063,445.416 1231.2188,444.3535 Q1230.5313,443.2754 1230.5313,441.9941 L1230.5313,440.8379 Q1230.5313,439.5098 1231.1406,438.3691 Q1231.7656,437.2129 1232.8594,436.6035 Q1233.9531,435.9785 1235.1875,435.9785 Q1235.9219,435.9785 1236.5625,436.1504 Q1237.2188,436.3066 1237.7656,436.666 Z " fill="#000000"/><text fill="#000000" font-family="sans-serif" font-size="12" font-style="italic" lengthAdjust="spacing" textLength="46" x="1282" y="436.4492">&#171;Value&#187;</text><text fill="#000000" font-family="sans-serif" font-size="14" lengthAdjust="spacing" textLength="112" x="1249" y="454.5684">CompanyAddress</text><line style="stroke:#181818;stroke-width:0.5;" x1="1221" x2="1363" y1="463.082" y2="463.082"/><line style="stroke:#181818;stroke-width:0.5;" x1="1221" x2="1363" y1="471.082" y2="471.082"/></g><!--class CustomerEmployee--><g id="elem_CustomerEmployee"><rect fill="#F1F1F1" height="48" id="CustomerEmployee" rx="2.5" ry="2.5" style="stroke:#181818;stroke-width:0.5;" width="155" x="1043.5" y="67.5"/><ellipse cx="1058.5" cy="83.5" fill="#ADD1B2" rx="11" ry="11" style="stroke:#181818;stroke-width:1.0;"/><path d="M1061.2656,79.375 Q1061.4219,79.1563 1061.6094,79.0469 Q1061.7969,78.9375 1062.0156,78.9375 Q1062.3906,78.9375 1062.625,79.2031 Q1062.8594,79.4531 1062.8594,80.0625 L1062.8594,81.5156 Q1062.8594,82.125 1062.625,82.3906 Q1062.3906,82.6563 1062.0156,82.6563 Q1061.6719,82.6563 1061.4688,82.4531 Q1061.2656,82.2656 1061.1563,81.75 Q1061.1094,81.3906 1060.9219,81.2031 Q1060.5938,80.8281 1059.9844,80.6094 Q1059.375,80.3906 1058.75,80.3906 Q1057.9844,80.3906 1057.3438,80.7188 Q1056.7188,81.0469 1056.2188,81.7969 Q1055.7344,82.5469 1055.7344,83.5781 L1055.7344,84.6719 Q1055.7344,85.9063 1056.625,86.7344 Q1057.5156,87.5469 1059.1094,87.5469 Q1060.0469,87.5469 1060.7031,87.2969 Q1061.0938,87.1406 1061.5156,86.7031 Q1061.7813,86.4375 1061.9219,86.3594 Q1062.0781,86.2813 1062.2813,86.2813 Q1062.6094,86.2813 1062.8594,86.5469 Q1063.125,86.7969 1063.125,87.1406 Q1063.125,87.4844 1062.7813,87.8906 Q1062.2813,88.4688 1061.4844,88.7969 Q1060.4063,89.25 1059.1094,89.25 Q1057.5938,89.25 1056.3906,88.625 Q1055.4063,88.125 1054.7188,87.0625 Q1054.0313,85.9844 1054.0313,84.7031 L1054.0313,83.5469 Q1054.0313,82.2188 1054.6406,81.0781 Q1055.2656,79.9219 1056.3594,79.3125 Q1057.4531,78.6875 1058.6875,78.6875 Q1059.4219,78.6875 1060.0625,78.8594 Q1060.7188,79.0156 1061.2656,79.375 Z " fill="#000000"/><text fill="#000000" font-family="sans-serif" font-size="14" lengthAdjust="spacing" textLength="123" x="1072.5" y="89.2969">CustomerEmployee</text><line style="stroke:#181818;stroke-width:0.5;" x1="1044.5" x2="1197.5" y1="99.5" y2="99.5"/><line style="stroke:#181818;stroke-width:0.5;" x1="1044.5" x2="1197.5" y1="107.5" y2="107.5"/></g><!--link JobOpening to JobTitle--><g id="link_JobOpening_JobTitle"><path codeLine="75" d="M608.86,123.31 C578.68,142.02 541.54,167.71 513,196 C497.21,211.65 486.016,227.0084 475.516,243.6184 " fill="none" id="JobOpening-to-JobTitle" style="stroke:#181818;stroke-width:1.0;"/><polygon fill="#181818" points="472.31,248.69,480.5001,243.2199,474.9817,244.4636,473.738,238.9452,472.31,248.69" style="stroke:#181818;stroke-width:1.0;"/><text fill="#000000" font-family="sans-serif" font-size="13" lengthAdjust="spacing" textLength="49" x="544" y="184.0283">contains</text><text fill="#000000" font-family="sans-serif" font-size="13" lengthAdjust="spacing" textLength="7" x="594.1146" y="142.7635">1</text><text fill="#000000" font-family="sans-serif" font-size="13" lengthAdjust="spacing" textLength="7" x="468.1583" y="237.6837">1</text></g><!--link JobOpening to ContractType--><g id="link_JobOpening_ContractType"><path codeLine="76" d="M717.4,114.21 C759.84,132.55 819.09,161.34 865,196 C878.13,205.92 886.8378,213.8314 898.1178,225.8714 " fill="none" id="JobOpening-to-ContractType" style="stroke:#181818;stroke-width:1.0;"/><polygon fill="#181818" points="902.22,230.25,898.9858,220.9473,898.8015,226.6012,893.1477,226.4169,902.22,230.25" style="stroke:#181818;stroke-width:1.0;"/><text fill="#000000" font-family="sans-serif" font-size="13" lengthAdjust="spacing" textLength="7" x="725.1803" y="113.1563">1</text><text fill="#000000" font-family="sans-serif" font-size="13" lengthAdjust="spacing" textLength="7" x="889.1338" y="219.19">1</text></g><!--link JobOpening to WorkRegime--><g id="link_JobOpening_WorkRegime"><path codeLine="77" d="M608.9,105.41 C552.43,120.66 463.06,149.95 397,196 C386.74,203.15 381.0991,207.6847 372.1591,216.8947 " fill="none" id="JobOpening-to-WorkRegime" style="stroke:#181818;stroke-width:1.0;"/><polygon fill="#181818" points="367.98,221.2,377.1188,217.5281,371.4626,217.6123,371.3784,211.956,367.98,221.2" style="stroke:#181818;stroke-width:1.0;"/><text fill="#000000" font-family="sans-serif" font-size="13" lengthAdjust="spacing" textLength="49" x="438" y="184.0283">contains</text><text fill="#000000" font-family="sans-serif" font-size="13" lengthAdjust="spacing" textLength="7" x="594.16" y="122.4582">1</text><text fill="#000000" font-family="sans-serif" font-size="13" lengthAdjust="spacing" textLength="7" x="366.0354" y="210.0777">1</text></g><!--link JobOpening to NumberOfVacancies--><g id="link_JobOpening_NumberOfVacancies"><path codeLine="78" d="M689.24,139.44 C708.44,173.77 730.9714,214.0633 747.4414,243.5133 " fill="none" id="JobOpening-to-NumberOfVacancies" style="stroke:#181818;stroke-width:1.0;"/><polygon fill="#181818" points="750.37,248.75,749.4682,238.9425,747.9295,244.3861,742.4859,242.8474,750.37,248.75" style="stroke:#181818;stroke-width:1.0;"/><text fill="#000000" font-family="sans-serif" font-size="13" lengthAdjust="spacing" textLength="21" x="716" y="184.0283">has</text><text fill="#000000" font-family="sans-serif" font-size="13" lengthAdjust="spacing" textLength="7" x="685.2957" y="161.061">1</text><text fill="#000000" font-family="sans-serif" font-size="13" lengthAdjust="spacing" textLength="7" x="739.2182" y="237.7561">1</text></g><!--link JobOpening to JobReference--><g id="link_JobOpening_JobReference"><path codeLine="79" d="M644.83,139.44 C631.54,173.77 616.086,213.7046 604.686,243.1546 " fill="none" id="JobOpening-to-JobReference" style="stroke:#181818;stroke-width:1.0;"/><polygon fill="#181818" points="602.52,248.75,609.4992,241.8009,604.325,244.0872,602.0387,238.9129,602.52,248.75" style="stroke:#181818;stroke-width:1.0;"/><text fill="#000000" font-family="sans-serif" font-size="13" lengthAdjust="spacing" textLength="7" x="634.9181" y="161.061">1</text><text fill="#000000" font-family="sans-serif" font-size="13" lengthAdjust="spacing" textLength="7" x="597.1741" y="237.7561">1</text></g><!--link JobOpening to Company--><g id="link_JobOpening_Company"><path codeLine="80" d="M717.16,107.1 C809.51,132.18 990.09,182.08 1017,196 C1039.92,207.86 1058.1375,221.2434 1076.4975,236.9234 " fill="none" id="JobOpening-to-Company" style="stroke:#181818;stroke-width:1.0;"/><polygon fill="#181818" points="1081.06,240.82,1076.8139,231.9335,1077.2579,237.5729,1071.6185,238.0169,1081.06,240.82" style="stroke:#181818;stroke-width:1.0;"/><text fill="#000000" font-family="sans-serif" font-size="13" lengthAdjust="spacing" textLength="7" x="724.9081" y="124.3753">1</text><text fill="#000000" font-family="sans-serif" font-size="13" lengthAdjust="spacing" textLength="7" x="1066.5938" y="229.8035">1</text></g><!--link JobOpening to Application--><g id="link_JobOpening_Application"><path codeLine="83" d="M717.1,105.21 C823.56,130.14 1053.16,183.42 1090,188 C1121.99,191.98 1349.66,185.11 1380,196 C1406.12,205.37 1426.4002,219.8462 1445.4002,236.9462 " fill="none" id="JobOpening-to-Application" style="stroke:#181818;stroke-width:1.0;"/><polygon fill="#181818" points="1449.86,240.96,1445.8462,231.9661,1446.1435,237.6152,1440.4945,237.9125,1449.86,240.96" style="stroke:#181818;stroke-width:1.0;"/><text fill="#000000" font-family="sans-serif" font-size="13" lengthAdjust="spacing" textLength="21" x="1091" y="184.0283">has</text><text fill="#000000" font-family="sans-serif" font-size="13" lengthAdjust="spacing" textLength="7" x="724.84" y="102.9469">1</text><text fill="#000000" font-family="sans-serif" font-size="13" lengthAdjust="spacing" textLength="7" x="1435.7991" y="229.6759">1</text></g><!--link Candidate to Application--><g id="link_Candidate_Application"><path codeLine="87" d="M1486,130.14 C1486,162.41 1486,202.66 1486,234.92 " fill="none" id="Candidate-to-Application" style="stroke:#181818;stroke-width:1.0;"/><polygon fill="#181818" points="1486,240.92,1490,231.92,1486,235.92,1482,231.92,1486,240.92" style="stroke:#181818;stroke-width:1.0;"/><text fill="#000000" font-family="sans-serif" font-size="13" lengthAdjust="spacing" textLength="39" x="1487" y="184.0283">makes</text><text fill="#000000" font-family="sans-serif" font-size="13" lengthAdjust="spacing" textLength="20" x="1464.4688" y="151.4439">1..*</text><text fill="#000000" font-family="sans-serif" font-size="13" lengthAdjust="spacing" textLength="7" x="1478.3766" y="229.6288">1</text></g><!--link CustomerManager to JobOpening--><g id="link_CustomerManager_JobOpening"><path codeLine="92" d="M209.53,91.5 C317.27,91.5 507.98,91.5 602.91,91.5 " fill="none" id="CustomerManager-to-JobOpening" style="stroke:#181818;stroke-width:1.0;"/><polygon fill="#181818" points="608.91,91.5,599.91,87.5,603.91,91.5,599.91,95.5,608.91,91.5" style="stroke:#181818;stroke-width:1.0;"/><text fill="#000000" font-family="sans-serif" font-size="13" lengthAdjust="spacing" textLength="43" x="387.75" y="84.5283">creates</text><text fill="#000000" font-family="sans-serif" font-size="13" lengthAdjust="spacing" textLength="7" x="217.5768" y="87.6903">1</text><text fill="#000000" font-family="sans-serif" font-size="13" lengthAdjust="spacing" textLength="20" x="581.099" y="87.5001">0..*</text></g><!--link CustomerEmployee to Company--><g id="link_CustomerEmployee_Company"><path codeLine="93" d="M1121,115.68 C1121,147.04 1121,197.35 1121,234.83 " fill="none" id="CustomerEmployee-to-Company" style="stroke:#181818;stroke-width:1.0;"/><polygon fill="#181818" points="1121,240.83,1125,231.83,1121,235.83,1117,231.83,1121,240.83" style="stroke:#181818;stroke-width:1.0;"/><text fill="#000000" font-family="sans-serif" font-size="13" lengthAdjust="spacing" textLength="60" x="1122" y="184.0283">belongs to</text><text fill="#000000" font-family="sans-serif" font-size="13" lengthAdjust="spacing" textLength="7" x="1113.1469" y="137.7095">1</text><text fill="#000000" font-family="sans-serif" font-size="13" lengthAdjust="spacing" textLength="20" x="1099.2813" y="229.8153">1..*</text></g><!--link Company to CompanyName--><g id="link_Company_CompanyName"><path codeLine="94" d="M1121,318.09 C1121,348.38 1121,384.38 1121,412.33 " fill="none" id="Company-to-CompanyName" style="stroke:#181818;stroke-width:1.0;"/><polygon fill="#181818" points="1121,418.33,1125,409.33,1121,413.33,1117,409.33,1121,418.33" style="stroke:#181818;stroke-width:1.0;"/><text fill="#000000" font-family="sans-serif" font-size="13" lengthAdjust="spacing" textLength="21" x="1122" y="384.5283">has</text><text fill="#000000" font-family="sans-serif" font-size="13" lengthAdjust="spacing" textLength="7" x="1113.4422" y="339.6829">1</text><text fill="#000000" font-family="sans-serif" font-size="13" lengthAdjust="spacing" textLength="7" x="1113.2781" y="407.3526">1</text></g><!--link Company to CompanyAddress--><g id="link_Company_CompanyAddress"><path codeLine="95" d="M1159.38,318.09 C1190.3,348.38 1228.8833,386.1819 1257.4233,414.1319 " fill="none" id="Company-to-CompanyAddress" style="stroke:#181818;stroke-width:1.0;"/><polygon fill="#181818" points="1261.71,418.33,1258.0787,409.175,1258.1377,414.8316,1252.4812,414.8907,1261.71,418.33" style="stroke:#181818;stroke-width:1.0;"/><text fill="#000000" font-family="sans-serif" font-size="13" lengthAdjust="spacing" textLength="56" x="1227" y="384.5283">is located</text><text fill="#000000" font-family="sans-serif" font-size="13" lengthAdjust="spacing" textLength="7" x="1157.939" y="339.6829">1</text><text fill="#000000" font-family="sans-serif" font-size="13" lengthAdjust="spacing" textLength="7" x="1247.7408" y="407.3526">1</text></g><!--link Application to ApplicationDate--><g id="link_Application_ApplicationDate"><path codeLine="99" d="M1486,318.09 C1486,348.38 1486,384.38 1486,412.33 " fill="none" id="Application-to-ApplicationDate" style="stroke:#181818;stroke-width:1.0;"/><polygon fill="#181818" points="1486,418.33,1490,409.33,1486,413.33,1482,409.33,1486,418.33" style="stroke:#181818;stroke-width:1.0;"/><text fill="#000000" font-family="sans-serif" font-size="13" lengthAdjust="spacing" textLength="7" x="1478.4422" y="339.6829">1</text><text fill="#000000" font-family="sans-serif" font-size="13" lengthAdjust="spacing" textLength="7" x="1478.2781" y="407.3526">1</text></g><!--link Application to ApplicationStatus--><g id="link_Application_ApplicationStatus"><path codeLine="100" d="M1516.28,318.02 C1535.54,344.4 1558.72,381.46 1569,418.5 C1579.1,454.9 1577.43,466.68 1569,503.5 C1566.03,516.49 1563.6358,524.2435 1558.1558,536.7635 " fill="none" id="Application-to-ApplicationStatus" style="stroke:#181818;stroke-width:1.0;"/><polygon fill="#181818" points="1555.75,542.26,1563.0231,535.6191,1557.7549,537.6795,1555.6944,532.4113,1555.75,542.26" style="stroke:#181818;stroke-width:1.0;"/><text fill="#000000" font-family="sans-serif" font-size="13" lengthAdjust="spacing" textLength="7" x="1513.5481" y="339.6017">1</text><text fill="#000000" font-family="sans-serif" font-size="13" lengthAdjust="spacing" textLength="7" x="1552.282" y="531.4377">1</text></g><!--SRC=[XLHDQ-Cm4BthLmov11PIjjTG3A7TGnVwGLlQyyIUk2AoP2IvYmdxttTaExOSszrSOZHltinxcf4xIbsYnG9AJ8-Oqwkl5O6brAFE5GdHdSDlitygIKkTx_BSKewUu2I0j9U-Zg9mSsEDyKd27sqmIHYNaKkjBBqqMi1V8I1Lw5p8Uw43MT8fSS8xgeeuzHHZ7gjYJ_Rfy8ufwbIIcm99LmNS6kqjflwjBcc4E5HARRmiIB1AwxlFFk_3sECBvNmu47EMfS9undtMUoip0KOxwUcY-JVfrQJn00c_zQuibKmnYEvDwmsT2uRyiwLHV71oS1TEeP6kamXx5sX63JKTjr8ZtAj7NrrO6UBMV16hXJk-pURZ0wNdUxtNdkoNf3zyTA-VhU6MdMlOcNzzYpgJ6TUU2fs6JgBJs8TWJk99DDo1lNBU56GVK3EZdQcn01WgZG6pvSvIJ56YhcUAN0HWO6yZSog22D7UKeTwnD6aNOPtMHQS7IE23UjXoKIqRwlh5MmsIVFVJ-GMKju6bDejGUDjMS94c_5_mkcQRk4J5-6ZrLzkih64nIy0ee7koiMpA8RvMbrVNVrOoYlmIAuTjAxWnRYqDJdrPs29Uc5RB36_wpD-5QKoDL7KPbFvF29R0DYJCZftu8qu7y-eRkQa5VKDwZmkMv0Eb65DlBNZjqV4QXVS2y_636uARDyDhl0F]--></g></svg>