<?xml version="1.0" encoding="us-ascii" standalone="no"?><svg xmlns="http://www.w3.org/2000/svg" xmlns:xlink="http://www.w3.org/1999/xlink" contentStyleType="text/css" height="745px" preserveAspectRatio="none" style="width:1146px;height:745px;background:#FFFFFF;" version="1.1" viewBox="0 0 1146 745" width="1146px" zoomAndPan="magnify"><defs/><g><!--class CandidateListApplicationUI--><g id="elem_CandidateListApplicationUI"><rect codeLine="4" fill="#F1F1F1" height="79.2813" id="CandidateListApplicationUI" rx="2.5" ry="2.5" style="stroke:#181818;stroke-width:0.5;" width="251" x="181" y="7"/><ellipse cx="218.95" cy="23" fill="#ADD1B2" rx="11" ry="11" style="stroke:#181818;stroke-width:1.0;"/><path d="M221.7156,18.875 Q221.8719,18.6563 222.0594,18.5469 Q222.2469,18.4375 222.4656,18.4375 Q222.8406,18.4375 223.075,18.7031 Q223.3094,18.9531 223.3094,19.5625 L223.3094,21.0156 Q223.3094,21.625 223.075,21.8906 Q222.8406,22.1563 222.4656,22.1563 Q222.1219,22.1563 221.9188,21.9531 Q221.7156,21.7656 221.6063,21.25 Q221.5594,20.8906 221.3719,20.7031 Q221.0438,20.3281 220.4344,20.1094 Q219.825,19.8906 219.2,19.8906 Q218.4344,19.8906 217.7938,20.2188 Q217.1688,20.5469 216.6688,21.2969 Q216.1844,22.0469 216.1844,23.0781 L216.1844,24.1719 Q216.1844,25.4063 217.075,26.2344 Q217.9656,27.0469 219.5594,27.0469 Q220.4969,27.0469 221.1531,26.7969 Q221.5438,26.6406 221.9656,26.2031 Q222.2313,25.9375 222.3719,25.8594 Q222.5281,25.7813 222.7313,25.7813 Q223.0594,25.7813 223.3094,26.0469 Q223.575,26.2969 223.575,26.6406 Q223.575,26.9844 223.2313,27.3906 Q222.7313,27.9688 221.9344,28.2969 Q220.8563,28.75 219.5594,28.75 Q218.0438,28.75 216.8406,28.125 Q215.8563,27.625 215.1688,26.5625 Q214.4813,25.4844 214.4813,24.2031 L214.4813,23.0469 Q214.4813,21.7188 215.0906,20.5781 Q215.7156,19.4219 216.8094,18.8125 Q217.9031,18.1875 219.1375,18.1875 Q219.8719,18.1875 220.5125,18.3594 Q221.1688,18.5156 221.7156,18.875 Z " fill="#000000"/><text fill="#000000" font-family="FG Virgil" font-size="14" lengthAdjust="spacing" textLength="168" x="238.05" y="27.8535">CandidateListApplicationUI</text><line style="stroke:#181818;stroke-width:0.5;" x1="182" x2="431" y1="39" y2="39"/><line style="stroke:#181818;stroke-width:0.5;" x1="182" x2="431" y1="47" y2="47"/><ellipse cx="192" cy="60.3203" fill="#84BE84" rx="3" ry="3" style="stroke:#038048;stroke-width:1.0;"/><text fill="#000000" font-family="FG Virgil" font-size="14" lengthAdjust="spacing" textLength="84" x="201" y="63.6738">create(): void</text><ellipse cx="192" cy="75.9609" fill="#84BE84" rx="3" ry="3" style="stroke:#038048;stroke-width:1.0;"/><text fill="#000000" font-family="FG Virgil" font-size="14" lengthAdjust="spacing" textLength="225" x="201" y="79.3145">getApplicationByCandidateId(): void</text></g><!--class ListApplicationController--><g id="elem_ListApplicationController"><rect codeLine="10" fill="#F1F1F1" height="79.2813" id="ListApplicationController" rx="2.5" ry="2.5" style="stroke:#181818;stroke-width:0.5;" width="217" x="198" y="162"/><ellipse cx="227.4" cy="178" fill="#ADD1B2" rx="11" ry="11" style="stroke:#181818;stroke-width:1.0;"/><path d="M230.1656,173.875 Q230.3219,173.6563 230.5094,173.5469 Q230.6969,173.4375 230.9156,173.4375 Q231.2906,173.4375 231.525,173.7031 Q231.7594,173.9531 231.7594,174.5625 L231.7594,176.0156 Q231.7594,176.625 231.525,176.8906 Q231.2906,177.1563 230.9156,177.1563 Q230.5719,177.1563 230.3688,176.9531 Q230.1656,176.7656 230.0563,176.25 Q230.0094,175.8906 229.8219,175.7031 Q229.4938,175.3281 228.8844,175.1094 Q228.275,174.8906 227.65,174.8906 Q226.8844,174.8906 226.2438,175.2188 Q225.6188,175.5469 225.1188,176.2969 Q224.6344,177.0469 224.6344,178.0781 L224.6344,179.1719 Q224.6344,180.4063 225.525,181.2344 Q226.4156,182.0469 228.0094,182.0469 Q228.9469,182.0469 229.6031,181.7969 Q229.9938,181.6406 230.4156,181.2031 Q230.6813,180.9375 230.8219,180.8594 Q230.9781,180.7813 231.1813,180.7813 Q231.5094,180.7813 231.7594,181.0469 Q232.025,181.2969 232.025,181.6406 Q232.025,181.9844 231.6813,182.3906 Q231.1813,182.9688 230.3844,183.2969 Q229.3063,183.75 228.0094,183.75 Q226.4938,183.75 225.2906,183.125 Q224.3063,182.625 223.6188,181.5625 Q222.9313,180.4844 222.9313,179.2031 L222.9313,178.0469 Q222.9313,176.7188 223.5406,175.5781 Q224.1656,174.4219 225.2594,173.8125 Q226.3531,173.1875 227.5875,173.1875 Q228.3219,173.1875 228.9625,173.3594 Q229.6188,173.5156 230.1656,173.875 Z " fill="#000000"/><text fill="#000000" font-family="FG Virgil" font-size="14" lengthAdjust="spacing" textLength="153" x="244.6" y="182.8535">ListApplicationController</text><line style="stroke:#181818;stroke-width:0.5;" x1="199" x2="414" y1="194" y2="194"/><line style="stroke:#181818;stroke-width:0.5;" x1="199" x2="414" y1="202" y2="202"/><ellipse cx="209" cy="215.3203" fill="#84BE84" rx="3" ry="3" style="stroke:#038048;stroke-width:1.0;"/><text fill="#000000" font-family="FG Virgil" font-size="14" lengthAdjust="spacing" textLength="50" x="218" y="218.6738">create()</text><ellipse cx="209" cy="230.9609" fill="#84BE84" rx="3" ry="3" style="stroke:#038048;stroke-width:1.0;"/><text fill="#000000" font-family="FG Virgil" font-size="14" lengthAdjust="spacing" textLength="191" x="218" y="234.3145">getApplicationByCandidateId()</text></g><!--class AuthorizationService--><g id="elem_AuthorizationService"><rect codeLine="16" fill="#F1F1F1" height="63.6406" id="AuthorizationService" rx="2.5" ry="2.5" style="stroke:#181818;stroke-width:0.5;" width="161" x="57" y="324.5"/><ellipse cx="72" cy="340.5" fill="#ADD1B2" rx="11" ry="11" style="stroke:#181818;stroke-width:1.0;"/><path d="M74.7656,336.375 Q74.9219,336.1563 75.1094,336.0469 Q75.2969,335.9375 75.5156,335.9375 Q75.8906,335.9375 76.125,336.2031 Q76.3594,336.4531 76.3594,337.0625 L76.3594,338.5156 Q76.3594,339.125 76.125,339.3906 Q75.8906,339.6563 75.5156,339.6563 Q75.1719,339.6563 74.9688,339.4531 Q74.7656,339.2656 74.6563,338.75 Q74.6094,338.3906 74.4219,338.2031 Q74.0938,337.8281 73.4844,337.6094 Q72.875,337.3906 72.25,337.3906 Q71.4844,337.3906 70.8438,337.7188 Q70.2188,338.0469 69.7188,338.7969 Q69.2344,339.5469 69.2344,340.5781 L69.2344,341.6719 Q69.2344,342.9063 70.125,343.7344 Q71.0156,344.5469 72.6094,344.5469 Q73.5469,344.5469 74.2031,344.2969 Q74.5938,344.1406 75.0156,343.7031 Q75.2813,343.4375 75.4219,343.3594 Q75.5781,343.2813 75.7813,343.2813 Q76.1094,343.2813 76.3594,343.5469 Q76.625,343.7969 76.625,344.1406 Q76.625,344.4844 76.2813,344.8906 Q75.7813,345.4688 74.9844,345.7969 Q73.9063,346.25 72.6094,346.25 Q71.0938,346.25 69.8906,345.625 Q68.9063,345.125 68.2188,344.0625 Q67.5313,342.9844 67.5313,341.7031 L67.5313,340.5469 Q67.5313,339.2188 68.1406,338.0781 Q68.7656,336.9219 69.8594,336.3125 Q70.9531,335.6875 72.1875,335.6875 Q72.9219,335.6875 73.5625,335.8594 Q74.2188,336.0156 74.7656,336.375 Z " fill="#000000"/><text fill="#000000" font-family="FG Virgil" font-size="14" lengthAdjust="spacing" textLength="129" x="86" y="345.3535">AuthorizationService</text><line style="stroke:#181818;stroke-width:0.5;" x1="58" x2="217" y1="356.5" y2="356.5"/><line style="stroke:#181818;stroke-width:0.5;" x1="58" x2="217" y1="364.5" y2="364.5"/><ellipse cx="68" cy="377.8203" fill="#84BE84" rx="3" ry="3" style="stroke:#038048;stroke-width:1.0;"/><text fill="#000000" font-family="FG Virgil" font-size="14" lengthAdjust="spacing" textLength="116" x="77" y="381.1738">session(): Session</text></g><!--class CandidateService--><g id="elem_CandidateService"><rect codeLine="20" fill="#F1F1F1" height="79.2813" id="CandidateService" rx="2.5" ry="2.5" style="stroke:#181818;stroke-width:0.5;" width="467" x="7" y="426"/><ellipse cx="180.25" cy="442" fill="#ADD1B2" rx="11" ry="11" style="stroke:#181818;stroke-width:1.0;"/><path d="M183.0156,437.875 Q183.1719,437.6563 183.3594,437.5469 Q183.5469,437.4375 183.7656,437.4375 Q184.1406,437.4375 184.375,437.7031 Q184.6094,437.9531 184.6094,438.5625 L184.6094,440.0156 Q184.6094,440.625 184.375,440.8906 Q184.1406,441.1563 183.7656,441.1563 Q183.4219,441.1563 183.2188,440.9531 Q183.0156,440.7656 182.9063,440.25 Q182.8594,439.8906 182.6719,439.7031 Q182.3438,439.3281 181.7344,439.1094 Q181.125,438.8906 180.5,438.8906 Q179.7344,438.8906 179.0938,439.2188 Q178.4688,439.5469 177.9688,440.2969 Q177.4844,441.0469 177.4844,442.0781 L177.4844,443.1719 Q177.4844,444.4063 178.375,445.2344 Q179.2656,446.0469 180.8594,446.0469 Q181.7969,446.0469 182.4531,445.7969 Q182.8438,445.6406 183.2656,445.2031 Q183.5313,444.9375 183.6719,444.8594 Q183.8281,444.7813 184.0313,444.7813 Q184.3594,444.7813 184.6094,445.0469 Q184.875,445.2969 184.875,445.6406 Q184.875,445.9844 184.5313,446.3906 Q184.0313,446.9688 183.2344,447.2969 Q182.1563,447.75 180.8594,447.75 Q179.3438,447.75 178.1406,447.125 Q177.1563,446.625 176.4688,445.5625 Q175.7813,444.4844 175.7813,443.2031 L175.7813,442.0469 Q175.7813,440.7188 176.3906,439.5781 Q177.0156,438.4219 178.1094,437.8125 Q179.2031,437.1875 180.4375,437.1875 Q181.1719,437.1875 181.8125,437.3594 Q182.4688,437.5156 183.0156,437.875 Z " fill="#000000"/><text fill="#000000" font-family="FG Virgil" font-size="14" lengthAdjust="spacing" textLength="112" x="200.75" y="446.8535">CandidateService</text><line style="stroke:#181818;stroke-width:0.5;" x1="8" x2="473" y1="458" y2="458"/><line style="stroke:#181818;stroke-width:0.5;" x1="8" x2="473" y1="466" y2="466"/><ellipse cx="18" cy="479.3203" fill="#84BE84" rx="3" ry="3" style="stroke:#038048;stroke-width:1.0;"/><text fill="#000000" font-family="FG Virgil" font-size="14" lengthAdjust="spacing" textLength="441" x="27" y="482.6738">create(candidateRepository: CandidateRepository): CandidateService</text><ellipse cx="18" cy="494.9609" fill="#84BE84" rx="3" ry="3" style="stroke:#038048;stroke-width:1.0;"/><text fill="#000000" font-family="FG Virgil" font-size="14" lengthAdjust="spacing" textLength="201" x="27" y="498.3145">findByEmail(email: String): Long</text></g><!--class JobApplicationService--><g id="elem_JobApplicationService"><rect codeLine="25" fill="#F1F1F1" height="79.2813" id="JobApplicationService" rx="2.5" ry="2.5" style="stroke:#181818;stroke-width:0.5;" width="546" x="593.5" y="317"/><ellipse cx="793.25" cy="333" fill="#ADD1B2" rx="11" ry="11" style="stroke:#181818;stroke-width:1.0;"/><path d="M796.0156,328.875 Q796.1719,328.6563 796.3594,328.5469 Q796.5469,328.4375 796.7656,328.4375 Q797.1406,328.4375 797.375,328.7031 Q797.6094,328.9531 797.6094,329.5625 L797.6094,331.0156 Q797.6094,331.625 797.375,331.8906 Q797.1406,332.1563 796.7656,332.1563 Q796.4219,332.1563 796.2188,331.9531 Q796.0156,331.7656 795.9063,331.25 Q795.8594,330.8906 795.6719,330.7031 Q795.3438,330.3281 794.7344,330.1094 Q794.125,329.8906 793.5,329.8906 Q792.7344,329.8906 792.0938,330.2188 Q791.4688,330.5469 790.9688,331.2969 Q790.4844,332.0469 790.4844,333.0781 L790.4844,334.1719 Q790.4844,335.4063 791.375,336.2344 Q792.2656,337.0469 793.8594,337.0469 Q794.7969,337.0469 795.4531,336.7969 Q795.8438,336.6406 796.2656,336.2031 Q796.5313,335.9375 796.6719,335.8594 Q796.8281,335.7813 797.0313,335.7813 Q797.3594,335.7813 797.6094,336.0469 Q797.875,336.2969 797.875,336.6406 Q797.875,336.9844 797.5313,337.3906 Q797.0313,337.9688 796.2344,338.2969 Q795.1563,338.75 793.8594,338.75 Q792.3438,338.75 791.1406,338.125 Q790.1563,337.625 789.4688,336.5625 Q788.7813,335.4844 788.7813,334.2031 L788.7813,333.0469 Q788.7813,331.7188 789.3906,330.5781 Q790.0156,329.4219 791.1094,328.8125 Q792.2031,328.1875 793.4375,328.1875 Q794.1719,328.1875 794.8125,328.3594 Q795.4688,328.5156 796.0156,328.875 Z " fill="#000000"/><text fill="#000000" font-family="FG Virgil" font-size="14" lengthAdjust="spacing" textLength="138" x="813.75" y="337.8535">JobApplicationService</text><line style="stroke:#181818;stroke-width:0.5;" x1="594.5" x2="1138.5" y1="349" y2="349"/><line style="stroke:#181818;stroke-width:0.5;" x1="594.5" x2="1138.5" y1="357" y2="357"/><ellipse cx="604.5" cy="370.3203" fill="#84BE84" rx="3" ry="3" style="stroke:#038048;stroke-width:1.0;"/><text fill="#000000" font-family="FG Virgil" font-size="14" lengthAdjust="spacing" textLength="499" x="613.5" y="373.6738">create(applicationRepository: JobApplicationRepository): JobApplicationService</text><ellipse cx="604.5" cy="385.9609" fill="#84BE84" rx="3" ry="3" style="stroke:#038048;stroke-width:1.0;"/><text fill="#000000" font-family="FG Virgil" font-size="14" lengthAdjust="spacing" textLength="520" x="613.5" y="389.3145">findApplicationsByCandidateId(candidateId: CandidateId): Iterable&lt;JobApplication&gt;</text></g><!--class PersistenceContext--><g id="elem_PersistenceContext"><rect codeLine="31" fill="#F1F1F1" height="63.6406" id="PersistenceContext" rx="2.5" ry="2.5" style="stroke:#181818;stroke-width:0.5;" width="234" x="324.5" y="324.5"/><ellipse cx="376.25" cy="340.5" fill="#ADD1B2" rx="11" ry="11" style="stroke:#181818;stroke-width:1.0;"/><path d="M379.0156,336.375 Q379.1719,336.1563 379.3594,336.0469 Q379.5469,335.9375 379.7656,335.9375 Q380.1406,335.9375 380.375,336.2031 Q380.6094,336.4531 380.6094,337.0625 L380.6094,338.5156 Q380.6094,339.125 380.375,339.3906 Q380.1406,339.6563 379.7656,339.6563 Q379.4219,339.6563 379.2188,339.4531 Q379.0156,339.2656 378.9063,338.75 Q378.8594,338.3906 378.6719,338.2031 Q378.3438,337.8281 377.7344,337.6094 Q377.125,337.3906 376.5,337.3906 Q375.7344,337.3906 375.0938,337.7188 Q374.4688,338.0469 373.9688,338.7969 Q373.4844,339.5469 373.4844,340.5781 L373.4844,341.6719 Q373.4844,342.9063 374.375,343.7344 Q375.2656,344.5469 376.8594,344.5469 Q377.7969,344.5469 378.4531,344.2969 Q378.8438,344.1406 379.2656,343.7031 Q379.5313,343.4375 379.6719,343.3594 Q379.8281,343.2813 380.0313,343.2813 Q380.3594,343.2813 380.6094,343.5469 Q380.875,343.7969 380.875,344.1406 Q380.875,344.4844 380.5313,344.8906 Q380.0313,345.4688 379.2344,345.7969 Q378.1563,346.25 376.8594,346.25 Q375.3438,346.25 374.1406,345.625 Q373.1563,345.125 372.4688,344.0625 Q371.7813,342.9844 371.7813,341.7031 L371.7813,340.5469 Q371.7813,339.2188 372.3906,338.0781 Q373.0156,336.9219 374.1094,336.3125 Q375.2031,335.6875 376.4375,335.6875 Q377.1719,335.6875 377.8125,335.8594 Q378.4688,336.0156 379.0156,336.375 Z " fill="#000000"/><text fill="#000000" font-family="FG Virgil" font-size="14" lengthAdjust="spacing" textLength="122" x="396.75" y="345.3535">PersistenceContext</text><line style="stroke:#181818;stroke-width:0.5;" x1="325.5" x2="557.5" y1="356.5" y2="356.5"/><line style="stroke:#181818;stroke-width:0.5;" x1="325.5" x2="557.5" y1="364.5" y2="364.5"/><ellipse cx="335.5" cy="377.8203" fill="#84BE84" rx="3" ry="3" style="stroke:#038048;stroke-width:1.0;"/><text fill="#000000" font-family="FG Virgil" font-size="14" lengthAdjust="spacing" textLength="208" x="344.5" y="381.1738">repositories(): RepositoryFactory</text></g><!--class RepositoryFactory--><g id="elem_RepositoryFactory"><rect codeLine="35" fill="#F1F1F1" height="79.2813" id="RepositoryFactory" rx="2.5" ry="2.5" style="stroke:#181818;stroke-width:0.5;" width="278" x="390.5" y="535"/><ellipse cx="467.25" cy="551" fill="#ADD1B2" rx="11" ry="11" style="stroke:#181818;stroke-width:1.0;"/><path d="M470.0156,546.875 Q470.1719,546.6563 470.3594,546.5469 Q470.5469,546.4375 470.7656,546.4375 Q471.1406,546.4375 471.375,546.7031 Q471.6094,546.9531 471.6094,547.5625 L471.6094,549.0156 Q471.6094,549.625 471.375,549.8906 Q471.1406,550.1563 470.7656,550.1563 Q470.4219,550.1563 470.2188,549.9531 Q470.0156,549.7656 469.9063,549.25 Q469.8594,548.8906 469.6719,548.7031 Q469.3438,548.3281 468.7344,548.1094 Q468.125,547.8906 467.5,547.8906 Q466.7344,547.8906 466.0938,548.2188 Q465.4688,548.5469 464.9688,549.2969 Q464.4844,550.0469 464.4844,551.0781 L464.4844,552.1719 Q464.4844,553.4063 465.375,554.2344 Q466.2656,555.0469 467.8594,555.0469 Q468.7969,555.0469 469.4531,554.7969 Q469.8438,554.6406 470.2656,554.2031 Q470.5313,553.9375 470.6719,553.8594 Q470.8281,553.7813 471.0313,553.7813 Q471.3594,553.7813 471.6094,554.0469 Q471.875,554.2969 471.875,554.6406 Q471.875,554.9844 471.5313,555.3906 Q471.0313,555.9688 470.2344,556.2969 Q469.1563,556.75 467.8594,556.75 Q466.3438,556.75 465.1406,556.125 Q464.1563,555.625 463.4688,554.5625 Q462.7813,553.4844 462.7813,552.2031 L462.7813,551.0469 Q462.7813,549.7188 463.3906,548.5781 Q464.0156,547.4219 465.1094,546.8125 Q466.2031,546.1875 467.4375,546.1875 Q468.1719,546.1875 468.8125,546.3594 Q469.4688,546.5156 470.0156,546.875 Z " fill="#000000"/><text fill="#000000" font-family="FG Virgil" font-size="14" lengthAdjust="spacing" textLength="116" x="487.75" y="555.8535">RepositoryFactory</text><line style="stroke:#181818;stroke-width:0.5;" x1="391.5" x2="667.5" y1="567" y2="567"/><line style="stroke:#181818;stroke-width:0.5;" x1="391.5" x2="667.5" y1="575" y2="575"/><ellipse cx="401.5" cy="588.3203" fill="#84BE84" rx="3" ry="3" style="stroke:#038048;stroke-width:1.0;"/><text fill="#000000" font-family="FG Virgil" font-size="14" lengthAdjust="spacing" textLength="252" x="410.5" y="591.6738">applications(): JobApplicationRepository</text><ellipse cx="401.5" cy="603.9609" fill="#84BE84" rx="3" ry="3" style="stroke:#038048;stroke-width:1.0;"/><text fill="#000000" font-family="FG Virgil" font-size="14" lengthAdjust="spacing" textLength="220" x="410.5" y="607.3145">candidates(): CandidateRepository</text></g><!--class JobApplicationRepository--><g id="elem_JobApplicationRepository"><rect fill="#F1F1F1" height="48" id="JobApplicationRepository" rx="2.5" ry="2.5" style="stroke:#181818;stroke-width:0.5;" width="191" x="658" y="690"/><ellipse cx="673" cy="706" fill="#ADD1B2" rx="11" ry="11" style="stroke:#181818;stroke-width:1.0;"/><path d="M675.7656,701.875 Q675.9219,701.6563 676.1094,701.5469 Q676.2969,701.4375 676.5156,701.4375 Q676.8906,701.4375 677.125,701.7031 Q677.3594,701.9531 677.3594,702.5625 L677.3594,704.0156 Q677.3594,704.625 677.125,704.8906 Q676.8906,705.1563 676.5156,705.1563 Q676.1719,705.1563 675.9688,704.9531 Q675.7656,704.7656 675.6563,704.25 Q675.6094,703.8906 675.4219,703.7031 Q675.0938,703.3281 674.4844,703.1094 Q673.875,702.8906 673.25,702.8906 Q672.4844,702.8906 671.8438,703.2188 Q671.2188,703.5469 670.7188,704.2969 Q670.2344,705.0469 670.2344,706.0781 L670.2344,707.1719 Q670.2344,708.4063 671.125,709.2344 Q672.0156,710.0469 673.6094,710.0469 Q674.5469,710.0469 675.2031,709.7969 Q675.5938,709.6406 676.0156,709.2031 Q676.2813,708.9375 676.4219,708.8594 Q676.5781,708.7813 676.7813,708.7813 Q677.1094,708.7813 677.3594,709.0469 Q677.625,709.2969 677.625,709.6406 Q677.625,709.9844 677.2813,710.3906 Q676.7813,710.9688 675.9844,711.2969 Q674.9063,711.75 673.6094,711.75 Q672.0938,711.75 670.8906,711.125 Q669.9063,710.625 669.2188,709.5625 Q668.5313,708.4844 668.5313,707.2031 L668.5313,706.0469 Q668.5313,704.7188 669.1406,703.5781 Q669.7656,702.4219 670.8594,701.8125 Q671.9531,701.1875 673.1875,701.1875 Q673.9219,701.1875 674.5625,701.3594 Q675.2188,701.5156 675.7656,701.875 Z " fill="#000000"/><text fill="#000000" font-family="FG Virgil" font-size="14" lengthAdjust="spacing" textLength="159" x="687" y="710.8535">JobApplicationRepository</text><line style="stroke:#181818;stroke-width:0.5;" x1="659" x2="848" y1="722" y2="722"/><line style="stroke:#181818;stroke-width:0.5;" x1="659" x2="848" y1="730" y2="730"/></g><!--class CandidateRepository--><g id="elem_CandidateRepository"><rect fill="#F1F1F1" height="48" id="CandidateRepository" rx="2.5" ry="2.5" style="stroke:#181818;stroke-width:0.5;" width="165" x="300" y="690"/><ellipse cx="315" cy="706" fill="#ADD1B2" rx="11" ry="11" style="stroke:#181818;stroke-width:1.0;"/><path d="M317.7656,701.875 Q317.9219,701.6563 318.1094,701.5469 Q318.2969,701.4375 318.5156,701.4375 Q318.8906,701.4375 319.125,701.7031 Q319.3594,701.9531 319.3594,702.5625 L319.3594,704.0156 Q319.3594,704.625 319.125,704.8906 Q318.8906,705.1563 318.5156,705.1563 Q318.1719,705.1563 317.9688,704.9531 Q317.7656,704.7656 317.6563,704.25 Q317.6094,703.8906 317.4219,703.7031 Q317.0938,703.3281 316.4844,703.1094 Q315.875,702.8906 315.25,702.8906 Q314.4844,702.8906 313.8438,703.2188 Q313.2188,703.5469 312.7188,704.2969 Q312.2344,705.0469 312.2344,706.0781 L312.2344,707.1719 Q312.2344,708.4063 313.125,709.2344 Q314.0156,710.0469 315.6094,710.0469 Q316.5469,710.0469 317.2031,709.7969 Q317.5938,709.6406 318.0156,709.2031 Q318.2813,708.9375 318.4219,708.8594 Q318.5781,708.7813 318.7813,708.7813 Q319.1094,708.7813 319.3594,709.0469 Q319.625,709.2969 319.625,709.6406 Q319.625,709.9844 319.2813,710.3906 Q318.7813,710.9688 317.9844,711.2969 Q316.9063,711.75 315.6094,711.75 Q314.0938,711.75 312.8906,711.125 Q311.9063,710.625 311.2188,709.5625 Q310.5313,708.4844 310.5313,707.2031 L310.5313,706.0469 Q310.5313,704.7188 311.1406,703.5781 Q311.7656,702.4219 312.8594,701.8125 Q313.9531,701.1875 315.1875,701.1875 Q315.9219,701.1875 316.5625,701.3594 Q317.2188,701.5156 317.7656,701.875 Z " fill="#000000"/><text fill="#000000" font-family="FG Virgil" font-size="14" lengthAdjust="spacing" textLength="133" x="329" y="710.8535">CandidateRepository</text><line style="stroke:#181818;stroke-width:0.5;" x1="301" x2="464" y1="722" y2="722"/><line style="stroke:#181818;stroke-width:0.5;" x1="301" x2="464" y1="730" y2="730"/></g><!--class JobApplication--><g id="elem_JobApplication"><rect fill="#F1F1F1" height="48" id="JobApplication" rx="2.5" ry="2.5" style="stroke:#181818;stroke-width:0.5;" width="123" x="704" y="550.5"/><ellipse cx="719" cy="566.5" fill="#ADD1B2" rx="11" ry="11" style="stroke:#181818;stroke-width:1.0;"/><path d="M721.7656,562.375 Q721.9219,562.1563 722.1094,562.0469 Q722.2969,561.9375 722.5156,561.9375 Q722.8906,561.9375 723.125,562.2031 Q723.3594,562.4531 723.3594,563.0625 L723.3594,564.5156 Q723.3594,565.125 723.125,565.3906 Q722.8906,565.6563 722.5156,565.6563 Q722.1719,565.6563 721.9688,565.4531 Q721.7656,565.2656 721.6563,564.75 Q721.6094,564.3906 721.4219,564.2031 Q721.0938,563.8281 720.4844,563.6094 Q719.875,563.3906 719.25,563.3906 Q718.4844,563.3906 717.8438,563.7188 Q717.2188,564.0469 716.7188,564.7969 Q716.2344,565.5469 716.2344,566.5781 L716.2344,567.6719 Q716.2344,568.9063 717.125,569.7344 Q718.0156,570.5469 719.6094,570.5469 Q720.5469,570.5469 721.2031,570.2969 Q721.5938,570.1406 722.0156,569.7031 Q722.2813,569.4375 722.4219,569.3594 Q722.5781,569.2813 722.7813,569.2813 Q723.1094,569.2813 723.3594,569.5469 Q723.625,569.7969 723.625,570.1406 Q723.625,570.4844 723.2813,570.8906 Q722.7813,571.4688 721.9844,571.7969 Q720.9063,572.25 719.6094,572.25 Q718.0938,572.25 716.8906,571.625 Q715.9063,571.125 715.2188,570.0625 Q714.5313,568.9844 714.5313,567.7031 L714.5313,566.5469 Q714.5313,565.2188 715.1406,564.0781 Q715.7656,562.9219 716.8594,562.3125 Q717.9531,561.6875 719.1875,561.6875 Q719.9219,561.6875 720.5625,561.8594 Q721.2188,562.0156 721.7656,562.375 Z " fill="#000000"/><text fill="#000000" font-family="FG Virgil" font-size="14" lengthAdjust="spacing" textLength="91" x="733" y="571.3535">JobApplication</text><line style="stroke:#181818;stroke-width:0.5;" x1="705" x2="826" y1="582.5" y2="582.5"/><line style="stroke:#181818;stroke-width:0.5;" x1="705" x2="826" y1="590.5" y2="590.5"/></g><!--link CandidateListApplicationUI to ListApplicationController--><g id="link_CandidateListApplicationUI_ListApplicationController"><path codeLine="40" d="M306.5,86.11 C306.5,107.58 306.5,134.38 306.5,156.64 " fill="none" id="CandidateListApplicationUI-to-ListApplicationController" style="stroke:#181818;stroke-width:1.0;"/><polygon fill="#181818" points="306.5,161.9,310.5,152.9,306.5,156.9,302.5,152.9,306.5,161.9" style="stroke:#181818;stroke-width:1.0;"/><text fill="#000000" font-family="FG Virgil" font-size="13" lengthAdjust="spacing" textLength="73" x="307.5" y="128.7686">theController</text></g><!--link ListApplicationController to PersistenceContext--><g id="link_ListApplicationController_PersistenceContext"><path codeLine="41" d="M340.57,241.11 C361.98,265.38 389.4,296.45 410.25,320.09 " fill="none" id="ListApplicationController-to-PersistenceContext" style="stroke:#181818;stroke-width:1.0;"/><polygon fill="#181818" points="413.8,324.11,410.8459,314.7146,410.4924,320.3604,404.8466,320.0068,413.8,324.11" style="stroke:#181818;stroke-width:1.0;"/><text fill="#000000" font-family="FG Virgil" font-size="13" lengthAdjust="spacing" textLength="28" x="379.5" y="283.7686">uses</text></g><!--link PersistenceContext to RepositoryFactory--><g id="link_PersistenceContext_RepositoryFactory"><path codeLine="42" d="M460.89,388.54 C467.62,400.05 474.87,413.37 480.5,426 C495.6,459.9 508.62,499.95 517.44,529.76 " fill="none" id="PersistenceContext-to-RepositoryFactory" style="stroke:#181818;stroke-width:1.0;"/><polygon fill="#181818" points="518.92,534.83,520.2132,525.0664,517.5069,530.0339,512.5394,527.3275,518.92,534.83" style="stroke:#181818;stroke-width:1.0;"/><text fill="#000000" font-family="FG Virgil" font-size="13" lengthAdjust="spacing" textLength="40" x="510.5" y="470.2686">returns</text></g><!--link RepositoryFactory to JobApplicationRepository--><g id="link_RepositoryFactory_JobApplicationRepository"><path codeLine="43" d="M592.49,614.17 C630.51,637.51 677.92,666.6 711.41,687.17 " fill="none" id="RepositoryFactory-to-JobApplicationRepository" style="stroke:#181818;stroke-width:1.0;"/><polygon fill="#181818" points="715.84,689.88,710.2639,681.7617,711.5793,687.2635,706.0775,688.5789,715.84,689.88" style="stroke:#181818;stroke-width:1.0;"/><text fill="#000000" font-family="FG Virgil" font-size="13" lengthAdjust="spacing" textLength="43" x="662.5" y="656.7686">creates</text></g><!--link RepositoryFactory to CandidateRepository--><g id="link_RepositoryFactory_CandidateRepository"><path codeLine="44" d="M488.16,614.17 C463.6,637.14 433.06,665.71 411.14,686.21 " fill="none" id="RepositoryFactory-to-CandidateRepository" style="stroke:#181818;stroke-width:1.0;"/><polygon fill="#181818" points="407.43,689.68,416.732,686.4439,411.0781,686.2608,411.2613,680.6069,407.43,689.68" style="stroke:#181818;stroke-width:1.0;"/><text fill="#000000" font-family="FG Virgil" font-size="13" lengthAdjust="spacing" textLength="43" x="457.5" y="656.7686">creates</text></g><!--link ListApplicationController to JobApplicationService--><g id="link_ListApplicationController_JobApplicationService"><path codeLine="45" d="M415.14,232.18 C502.08,255.94 624.85,289.48 720.4,315.58 " fill="none" id="ListApplicationController-to-JobApplicationService" style="stroke:#181818;stroke-width:1.0;"/><polygon fill="#181818" points="725.51,316.98,717.8936,310.7357,720.6892,315.6536,715.7713,318.4491,725.51,316.98" style="stroke:#181818;stroke-width:1.0;"/><text fill="#000000" font-family="FG Virgil" font-size="13" lengthAdjust="spacing" textLength="28" x="603.5" y="283.7686">uses</text></g><!--link ListApplicationController to CandidateService--><g id="link_ListApplicationController_CandidateService"><path codeLine="46" d="M296.76,241.16 C284.7,289.05 264.19,370.44 251.55,420.62 " fill="none" id="ListApplicationController-to-CandidateService" style="stroke:#181818;stroke-width:1.0;"/><polygon fill="#181818" points="250.28,425.68,256.3434,417.9189,251.4927,420.8293,248.5823,415.9786,250.28,425.68" style="stroke:#181818;stroke-width:1.0;"/><text fill="#000000" font-family="FG Virgil" font-size="13" lengthAdjust="spacing" textLength="28" x="290.5" y="283.7686">uses</text></g><!--link CandidateService to CandidateRepository--><g id="link_CandidateService_CandidateRepository"><path codeLine="47" d="M235.36,505.29 C233.09,536.55 234.25,580.64 252.5,614 C269.88,645.77 302.26,670.48 330.35,687.26 " fill="none" id="CandidateService-to-CandidateRepository" style="stroke:#181818;stroke-width:1.0;"/><polygon fill="#181818" points="334.82,689.89,329.1093,681.8658,330.5162,687.3449,325.0371,688.7519,334.82,689.89" style="stroke:#181818;stroke-width:1.0;"/><text fill="#000000" font-family="FG Virgil" font-size="13" lengthAdjust="spacing" textLength="118" x="253.5" y="579.2686">candidateRepository</text></g><!--link JobApplicationService to JobApplicationRepository--><g id="link_JobApplicationService_JobApplicationRepository"><path codeLine="48" d="M872.48,396.18 C873.73,405.89 874.87,416.31 875.5,426 C881.03,510.5 885.86,540.1 844.5,614 C829,641.69 804.3,667.89 784.55,686.37 " fill="none" id="JobApplicationService-to-JobApplicationRepository" style="stroke:#181818;stroke-width:1.0;"/><polygon fill="#181818" points="780.67,689.96,789.9979,686.7992,784.3457,686.5704,784.5745,680.9182,780.67,689.96" style="stroke:#181818;stroke-width:1.0;"/><text fill="#000000" font-family="FG Virgil" font-size="13" lengthAdjust="spacing" textLength="143" x="876.5" y="579.2686">jobApplicationRepository</text></g><!--link ListApplicationController to AuthorizationService--><g id="link_ListApplicationController_AuthorizationService"><path codeLine="49" d="M236.79,241.18 C223.39,250.11 209.98,260.19 198.5,271 C183.33,285.29 169.46,303.82 158.8,319.89 " fill="none" id="ListApplicationController-to-AuthorizationService" style="stroke:#181818;stroke-width:1.0;"/><polygon fill="#181818" points="155.88,324.35,164.1585,319.0146,158.6205,320.1679,157.4672,314.6299,155.88,324.35" style="stroke:#181818;stroke-width:1.0;"/><text fill="#000000" font-family="FG Virgil" font-size="13" lengthAdjust="spacing" textLength="28" x="199.5" y="283.7686">uses</text></g><!--link JobApplicationService to JobApplication--><g id="link_JobApplicationService_JobApplication"><path codeLine="50" d="M844.78,396.32 C839.61,405.94 834.23,416.27 829.5,426 C809.52,467.11 788.92,515.97 776.66,545.85 " fill="none" id="JobApplicationService-to-JobApplication" style="stroke:#181818;stroke-width:1.0;"/><polygon fill="#181818" points="774.77,550.48,781.8881,543.6732,776.6687,545.8545,774.4873,540.6352,774.77,550.48" style="stroke:#181818;stroke-width:1.0;"/><text fill="#000000" font-family="FG Virgil" font-size="13" lengthAdjust="spacing" textLength="40" x="830.5" y="470.2686">returns</text></g><!--SRC=[ZLJHJi8m57tVL_HHOlY1nP004JD3Z97eUsalK2tjqdOe6l_TTcoifTra3p3MSyuzzzmxz0SJ9LPuZoXiSCNDGWhpXFU05W_eZQajuva-O_GEK_d9n1PjCDUGPSXUX6EjqHmBoYWsi6JQJCkICu8Da-ArG3yrp5stY2Ymc9jHZWwIKUzW2pvhTZph5JH0_sP-rOjYSsjUISv19OjUMovHQ5gPdLJikuQlG1qOWQ261gtjaVEwEjssAecCKWADIT9YNg2KcXcfZdb7x1wEyaZE4zimGMV7-prc_0RSftLbb1sSfIsbsCRU7kNQ2sJ08EvGliMG7_XCIb-OzG0wd0RfxhsM2sg52mCAhpdSXHKcYVazWz9sLq0GS4i2NoReJRL-6MWtmix_0XFt5GSMGG91BwLQi2yUFz-sjvgG67dhOU1L6uyd0-z4ZimEkjzPFzBf92BBKMNtF4kSE4ASI6w3DPKIEelF7ACl5KiyRLiVCP6EnndkAxtfJMl3rEW5RbZHym6FYRcc7VqJq7lVHWstaFmZQzgureStrpy0]--></g></svg>