<?xml version="1.0" encoding="us-ascii" standalone="no"?><svg xmlns="http://www.w3.org/2000/svg" xmlns:xlink="http://www.w3.org/1999/xlink" contentStyleType="text/css" height="590.1px" preserveAspectRatio="none" style="width:966px;height:590px;background:#FFFFFF;" version="1.1" viewBox="0 0 966 590" width="966.7px" zoomAndPan="magnify"><defs/><g><rect fill="#FFFFFF" height="439.4742" style="stroke:#181818;stroke-width:0.6999999999999998;" width="7" x="35.35" y="68.7695"/><rect fill="#FFFFFF" height="423.1705" style="stroke:#181818;stroke-width:0.6999999999999998;" width="7" x="169.05" y="85.0732"/><rect fill="#FFFFFF" height="357.4594" style="stroke:#181818;stroke-width:0.6999999999999998;" width="7" x="353.15" y="128.8807"/><rect fill="#FFFFFF" height="313.652" style="stroke:#181818;stroke-width:0.6999999999999998;" width="7" x="502.95" y="150.7844"/><rect fill="#FFFFFF" height="21.9037" style="stroke:#181818;stroke-width:0.6999999999999998;" width="7" x="605.5" y="172.6881"/><rect fill="#FFFFFF" height="43.8074" style="stroke:#181818;stroke-width:0.6999999999999998;" width="7" x="710.15" y="216.4955"/><rect fill="#FFFFFF" height="43.8074" style="stroke:#181818;stroke-width:0.6999999999999998;" width="7" x="810.25" y="282.2066"/><rect fill="#FFFFFF" height="21.9037" style="stroke:#181818;stroke-width:0.6999999999999998;" width="7" x="912.8" y="347.9178"/><rect fill="none" height="44.5074" style="stroke:#000000;stroke-width:1.0499999999999998;" width="245.7" x="453.95" y="398.7252"/><line style="stroke:#181818;stroke-width:0.3499999999999999;stroke-dasharray:5.0,5.0;" x1="38.5" x2="38.5" y1="61.7695" y2="520.8437"/><line style="stroke:#181818;stroke-width:0.3499999999999999;stroke-dasharray:5.0,5.0;" x1="172.55" x2="172.55" y1="61.7695" y2="520.8437"/><line style="stroke:#181818;stroke-width:0.3499999999999999;stroke-dasharray:5.0,5.0;" x1="356.65" x2="356.65" y1="61.7695" y2="520.8437"/><line style="stroke:#181818;stroke-width:0.3499999999999999;stroke-dasharray:5.0,5.0;" x1="506.45" x2="506.45" y1="61.7695" y2="520.8437"/><line style="stroke:#181818;stroke-width:0.3499999999999999;stroke-dasharray:5.0,5.0;" x1="608.65" x2="608.65" y1="61.7695" y2="520.8437"/><line style="stroke:#181818;stroke-width:0.3499999999999999;stroke-dasharray:5.0,5.0;" x1="713.65" x2="713.65" y1="61.7695" y2="520.8437"/><line style="stroke:#181818;stroke-width:0.3499999999999999;stroke-dasharray:5.0,5.0;" x1="813.75" x2="813.75" y1="61.7695" y2="520.8437"/><line style="stroke:#181818;stroke-width:0.3499999999999999;stroke-dasharray:5.0,5.0;" x1="915.95" x2="915.95" y1="61.7695" y2="520.8437"/><text fill="#000000" font-family="FG Virgil" font-size="9.8" lengthAdjust="spacing" textLength="45.5" x="14" y="59.31">Candidate</text><ellipse cx="38.85" cy="12.6848" fill="#E3E3E3" rx="5.6" ry="5.6" style="stroke:#181818;stroke-width:0.3499999999999999;"/><path d="M38.85,18.2848 L38.85,37.1848 M29.75,23.8848 L47.95,23.8848 M38.85,37.1848 L29.75,47.6848 M38.85,37.1848 L47.95,47.6848 " fill="none" style="stroke:#181818;stroke-width:0.3499999999999999;"/><text fill="#000000" font-family="FG Virgil" font-size="9.8" lengthAdjust="spacing" textLength="45.5" x="14" y="530.7189">Candidate</text><ellipse cx="38.85" cy="539.1285" fill="#E3E3E3" rx="5.6" ry="5.6" style="stroke:#181818;stroke-width:0.3499999999999999;"/><path d="M38.85,544.7285 L38.85,563.6285 M29.75,550.3285 L47.95,550.3285 M38.85,563.6285 L29.75,574.1285 M38.85,563.6285 L47.95,574.1285 " fill="none" style="stroke:#181818;stroke-width:0.3499999999999999;"/><rect fill="#E3E3E3" height="35.8695" rx="1.75" ry="1.75" style="stroke:#181818;stroke-width:0.3499999999999999;" width="159.6" x="92.75" y="25.2"/><text fill="#000000" font-family="FG Virgil" font-size="9.8" font-style="italic" lengthAdjust="spacing" textLength="66.5" x="139.3" y="40.6752">&#171;presentation&#187;</text><text fill="#000000" font-family="FG Virgil" font-size="9.8" lengthAdjust="spacing" textLength="149.8" x="97.65" y="53.71">NotifyCandidateApplicationStateUI</text><rect fill="#E3E3E3" height="35.8695" rx="1.75" ry="1.75" style="stroke:#181818;stroke-width:0.3499999999999999;" width="159.6" x="92.75" y="520.1437"/><text fill="#000000" font-family="FG Virgil" font-size="9.8" font-style="italic" lengthAdjust="spacing" textLength="66.5" x="139.3" y="535.6189">&#171;presentation&#187;</text><text fill="#000000" font-family="FG Virgil" font-size="9.8" lengthAdjust="spacing" textLength="149.8" x="97.65" y="548.6537">NotifyCandidateApplicationStateUI</text><rect fill="#E3E3E3" height="35.8695" rx="1.75" ry="1.75" style="stroke:#181818;stroke-width:0.3499999999999999;" width="194.6" x="259.35" y="25.2"/><text fill="#000000" font-family="FG Virgil" font-size="9.8" font-style="italic" lengthAdjust="spacing" textLength="58.8" x="327.25" y="40.6752">&#171;application&#187;</text><text fill="#000000" font-family="FG Virgil" font-size="9.8" lengthAdjust="spacing" textLength="184.8" x="264.25" y="53.71">NotifyCandidateApplicationStateController</text><rect fill="#E3E3E3" height="35.8695" rx="1.75" ry="1.75" style="stroke:#181818;stroke-width:0.3499999999999999;" width="194.6" x="259.35" y="520.1437"/><text fill="#000000" font-family="FG Virgil" font-size="9.8" font-style="italic" lengthAdjust="spacing" textLength="58.8" x="327.25" y="535.6189">&#171;application&#187;</text><text fill="#000000" font-family="FG Virgil" font-size="9.8" lengthAdjust="spacing" textLength="184.8" x="264.25" y="548.6537">NotifyCandidateApplicationStateController</text><rect fill="#E3E3E3" height="35.8695" rx="1.75" ry="1.75" style="stroke:#181818;stroke-width:0.3499999999999999;" width="91" x="460.95" y="25.2"/><text fill="#000000" font-family="FG Virgil" font-size="9.8" font-style="italic" lengthAdjust="spacing" textLength="42" x="485.45" y="40.6752">&#171;service&#187;</text><text fill="#000000" font-family="FG Virgil" font-size="9.8" lengthAdjust="spacing" textLength="81.2" x="465.85" y="53.71">NotificationService</text><rect fill="#E3E3E3" height="35.8695" rx="1.75" ry="1.75" style="stroke:#181818;stroke-width:0.3499999999999999;" width="91" x="460.95" y="520.1437"/><text fill="#000000" font-family="FG Virgil" font-size="9.8" font-style="italic" lengthAdjust="spacing" textLength="42" x="485.45" y="535.6189">&#171;service&#187;</text><text fill="#000000" font-family="FG Virgil" font-size="9.8" lengthAdjust="spacing" textLength="81.2" x="465.85" y="548.6537">NotificationService</text><rect fill="#E3E3E3" height="35.8695" rx="1.75" ry="1.75" style="stroke:#181818;stroke-width:0.3499999999999999;" width="100.1" x="558.95" y="25.2"/><text fill="#000000" font-family="FG Virgil" font-size="9.8" font-style="italic" lengthAdjust="spacing" textLength="42" x="588" y="40.6752">&#171;service&#187;</text><text fill="#000000" font-family="FG Virgil" font-size="9.8" lengthAdjust="spacing" textLength="90.3" x="563.85" y="53.71">AuthorizationService</text><rect fill="#E3E3E3" height="35.8695" rx="1.75" ry="1.75" style="stroke:#181818;stroke-width:0.3499999999999999;" width="100.1" x="558.95" y="520.1437"/><text fill="#000000" font-family="FG Virgil" font-size="9.8" font-style="italic" lengthAdjust="spacing" textLength="42" x="588" y="535.6189">&#171;service&#187;</text><text fill="#000000" font-family="FG Virgil" font-size="9.8" lengthAdjust="spacing" textLength="90.3" x="563.85" y="548.6537">AuthorizationService</text><rect fill="#E3E3E3" height="35.8695" rx="1.75" ry="1.75" style="stroke:#181818;stroke-width:0.3499999999999999;" width="95.2" x="666.05" y="25.2"/><text fill="#000000" font-family="FG Virgil" font-size="9.8" font-style="italic" lengthAdjust="spacing" textLength="62.3" x="682.5" y="40.6752">&#171;persistence&#187;</text><text fill="#000000" font-family="FG Virgil" font-size="9.8" lengthAdjust="spacing" textLength="85.4" x="670.95" y="53.71">PersistenceContext</text><rect fill="#E3E3E3" height="35.8695" rx="1.75" ry="1.75" style="stroke:#181818;stroke-width:0.3499999999999999;" width="95.2" x="666.05" y="520.1437"/><text fill="#000000" font-family="FG Virgil" font-size="9.8" font-style="italic" lengthAdjust="spacing" textLength="62.3" x="682.5" y="535.6189">&#171;persistence&#187;</text><text fill="#000000" font-family="FG Virgil" font-size="9.8" lengthAdjust="spacing" textLength="85.4" x="670.95" y="548.6537">PersistenceContext</text><rect fill="#E3E3E3" height="35.8695" rx="1.75" ry="1.75" style="stroke:#181818;stroke-width:0.3499999999999999;" width="91" x="768.25" y="25.2"/><text fill="#000000" font-family="FG Virgil" font-size="9.8" font-style="italic" lengthAdjust="spacing" textLength="41.3" x="793.1" y="40.6752">&#171;factory&#187;</text><text fill="#000000" font-family="FG Virgil" font-size="9.8" lengthAdjust="spacing" textLength="81.2" x="773.15" y="53.71">RepositoryFactory</text><rect fill="#E3E3E3" height="35.8695" rx="1.75" ry="1.75" style="stroke:#181818;stroke-width:0.3499999999999999;" width="91" x="768.25" y="520.1437"/><text fill="#000000" font-family="FG Virgil" font-size="9.8" font-style="italic" lengthAdjust="spacing" textLength="41.3" x="793.1" y="535.6189">&#171;factory&#187;</text><text fill="#000000" font-family="FG Virgil" font-size="9.8" lengthAdjust="spacing" textLength="81.2" x="773.15" y="548.6537">RepositoryFactory</text><text fill="#000000" font-family="FG Virgil" font-size="9.8" font-style="italic" lengthAdjust="spacing" textLength="55.3" x="886.55" y="46.2752">&#171;repository&#187;</text><text fill="#000000" font-family="FG Virgil" font-size="9.8" lengthAdjust="spacing" textLength="95.9" x="866.25" y="59.31">NotificationRepository</text><path d="M903.7,10.5 C903.7,3.5 916.3,3.5 916.3,3.5 C916.3,3.5 928.9,3.5 928.9,10.5 L928.9,28.7 C928.9,35.7 916.3,35.7 916.3,35.7 C916.3,35.7 903.7,35.7 903.7,28.7 L903.7,10.5 " fill="#E3E3E3" style="stroke:#181818;stroke-width:1.0499999999999998;"/><path d="M903.7,10.5 C903.7,17.5 916.3,17.5 916.3,17.5 C916.3,17.5 928.9,17.5 928.9,10.5 " fill="none" style="stroke:#181818;stroke-width:1.0499999999999998;"/><text fill="#000000" font-family="FG Virgil" font-size="9.8" font-style="italic" lengthAdjust="spacing" textLength="55.3" x="886.55" y="530.7189">&#171;repository&#187;</text><text fill="#000000" font-family="FG Virgil" font-size="9.8" lengthAdjust="spacing" textLength="95.9" x="866.25" y="543.7537">NotificationRepository</text><path d="M903.7,553.2133 C903.7,546.2133 916.3,546.2133 916.3,546.2133 C916.3,546.2133 928.9,546.2133 928.9,553.2133 L928.9,571.4133 C928.9,578.4133 916.3,578.4133 916.3,578.4133 C916.3,578.4133 903.7,578.4133 903.7,571.4133 L903.7,553.2133 " fill="#E3E3E3" style="stroke:#181818;stroke-width:1.0499999999999998;"/><path d="M903.7,553.2133 C903.7,560.2133 916.3,560.2133 916.3,560.2133 C916.3,560.2133 928.9,560.2133 928.9,553.2133 " fill="none" style="stroke:#181818;stroke-width:1.0499999999999998;"/><rect fill="#FFFFFF" height="439.4742" style="stroke:#181818;stroke-width:0.6999999999999998;" width="7" x="35.35" y="68.7695"/><rect fill="#FFFFFF" height="423.1705" style="stroke:#181818;stroke-width:0.6999999999999998;" width="7" x="169.05" y="85.0732"/><rect fill="#FFFFFF" height="357.4594" style="stroke:#181818;stroke-width:0.6999999999999998;" width="7" x="353.15" y="128.8807"/><rect fill="#FFFFFF" height="313.652" style="stroke:#181818;stroke-width:0.6999999999999998;" width="7" x="502.95" y="150.7844"/><rect fill="#FFFFFF" height="21.9037" style="stroke:#181818;stroke-width:0.6999999999999998;" width="7" x="605.5" y="172.6881"/><rect fill="#FFFFFF" height="43.8074" style="stroke:#181818;stroke-width:0.6999999999999998;" width="7" x="710.15" y="216.4955"/><rect fill="#FFFFFF" height="43.8074" style="stroke:#181818;stroke-width:0.6999999999999998;" width="7" x="810.25" y="282.2066"/><rect fill="#FFFFFF" height="21.9037" style="stroke:#181818;stroke-width:0.6999999999999998;" width="7" x="912.8" y="347.9178"/><polygon fill="#181818" points="160.65,82.2732,167.65,85.0732,160.65,87.8732,163.45,85.0732" style="stroke:#181818;stroke-width:0.6999999999999998;"/><line style="stroke:#181818;stroke-width:0.6999999999999998;" x1="42.35" x2="164.85" y1="85.0732" y2="85.0732"/><text fill="#000000" font-family="FG Virgil" font-size="9.1" lengthAdjust="spacing" textLength="95.9" x="47.25" y="81.3894">see unread notifications</text><polygon fill="#181818" points="348.25,104.177,355.25,106.977,348.25,109.777,351.05,106.977" style="stroke:#181818;stroke-width:0.6999999999999998;"/><line style="stroke:#181818;stroke-width:0.6999999999999998;" x1="176.05" x2="352.45" y1="106.977" y2="106.977"/><text fill="#000000" font-family="FG Virgil" font-size="9.1" lengthAdjust="spacing" textLength="30.8" x="180.95" y="103.2931">create()</text><polygon fill="#181818" points="344.75,126.0807,351.75,128.8807,344.75,131.6807,347.55,128.8807" style="stroke:#181818;stroke-width:0.6999999999999998;"/><line style="stroke:#181818;stroke-width:0.6999999999999998;" x1="176.05" x2="348.95" y1="128.8807" y2="128.8807"/><text fill="#000000" font-family="FG Virgil" font-size="9.1" lengthAdjust="spacing" textLength="67.9" x="180.95" y="125.1968">getNotifications()</text><polygon fill="#181818" points="494.55,147.9844,501.55,150.7844,494.55,153.5844,497.35,150.7844" style="stroke:#181818;stroke-width:0.6999999999999998;"/><line style="stroke:#181818;stroke-width:0.6999999999999998;" x1="360.15" x2="498.75" y1="150.7844" y2="150.7844"/><text fill="#000000" font-family="FG Virgil" font-size="9.1" lengthAdjust="spacing" textLength="98" x="365.05" y="147.1005">findUnreadNotifications()</text><polygon fill="#181818" points="597.1,169.8881,604.1,172.6881,597.1,175.4881,599.9,172.6881" style="stroke:#181818;stroke-width:0.6999999999999998;"/><line style="stroke:#181818;stroke-width:0.6999999999999998;" x1="509.95" x2="601.3" y1="172.6881" y2="172.6881"/><text fill="#000000" font-family="FG Virgil" font-size="9.1" lengthAdjust="spacing" textLength="37.1" x="514.85" y="169.0042">session()</text><polygon fill="#181818" points="517.65,191.7918,510.65,194.5918,517.65,197.3918,514.85,194.5918" style="stroke:#181818;stroke-width:0.6999999999999998;"/><line style="stroke:#181818;stroke-width:0.6999999999999998;stroke-dasharray:2.0,2.0;" x1="513.45" x2="608.3" y1="194.5918" y2="194.5918"/><text fill="#000000" font-family="FG Virgil" font-size="9.1" lengthAdjust="spacing" textLength="31.5" x="521.85" y="190.9079">session</text><polygon fill="#181818" points="701.75,213.6955,708.75,216.4955,701.75,219.2955,704.55,216.4955" style="stroke:#181818;stroke-width:0.6999999999999998;"/><line style="stroke:#181818;stroke-width:0.6999999999999998;" x1="509.95" x2="705.95" y1="216.4955" y2="216.4955"/><text fill="#000000" font-family="FG Virgil" font-size="9.1" lengthAdjust="spacing" textLength="52.5" x="514.85" y="212.8116">repositories()</text><polygon fill="#181818" points="805.35,235.5992,812.35,238.3992,805.35,241.1992,808.15,238.3992" style="stroke:#181818;stroke-width:0.6999999999999998;"/><line style="stroke:#181818;stroke-width:0.6999999999999998;" x1="717.15" x2="809.55" y1="238.3992" y2="238.3992"/><text fill="#000000" font-family="FG Virgil" font-size="9.1" lengthAdjust="spacing" textLength="30.8" x="722.05" y="234.7153">create()</text><polygon fill="#181818" points="517.65,257.5029,510.65,260.3029,517.65,263.1029,514.85,260.3029" style="stroke:#181818;stroke-width:0.6999999999999998;"/><line style="stroke:#181818;stroke-width:0.6999999999999998;stroke-dasharray:2.0,2.0;" x1="513.45" x2="712.95" y1="260.3029" y2="260.3029"/><text fill="#000000" font-family="FG Virgil" font-size="9.1" lengthAdjust="spacing" textLength="27.3" x="521.85" y="256.619">factory</text><polygon fill="#181818" points="801.85,279.4066,808.85,282.2066,801.85,285.0066,804.65,282.2066" style="stroke:#181818;stroke-width:0.6999999999999998;"/><line style="stroke:#181818;stroke-width:0.6999999999999998;" x1="509.95" x2="806.05" y1="282.2066" y2="282.2066"/><text fill="#000000" font-family="FG Virgil" font-size="9.1" lengthAdjust="spacing" textLength="53.9" x="514.85" y="278.5228">notifications()</text><polygon fill="#181818" points="907.9,301.3104,914.9,304.1104,907.9,306.9104,910.7,304.1104" style="stroke:#181818;stroke-width:0.6999999999999998;"/><line style="stroke:#181818;stroke-width:0.6999999999999998;" x1="817.25" x2="912.1" y1="304.1104" y2="304.1104"/><text fill="#000000" font-family="FG Virgil" font-size="9.1" lengthAdjust="spacing" textLength="30.8" x="822.15" y="300.4265">create()</text><polygon fill="#181818" points="517.65,323.2141,510.65,326.0141,517.65,328.8141,514.85,326.0141" style="stroke:#181818;stroke-width:0.6999999999999998;"/><line style="stroke:#181818;stroke-width:0.6999999999999998;stroke-dasharray:2.0,2.0;" x1="513.45" x2="813.05" y1="326.0141" y2="326.0141"/><text fill="#000000" font-family="FG Virgil" font-size="9.1" lengthAdjust="spacing" textLength="86.8" x="521.85" y="322.3302">notificationRepository</text><polygon fill="#181818" points="904.4,345.1178,911.4,347.9178,904.4,350.7178,907.2,347.9178" style="stroke:#181818;stroke-width:0.6999999999999998;"/><line style="stroke:#181818;stroke-width:0.6999999999999998;" x1="509.95" x2="908.6" y1="347.9178" y2="347.9178"/><text fill="#000000" font-family="FG Virgil" font-size="9.1" lengthAdjust="spacing" textLength="142.8" x="514.85" y="344.2339">findNotificationsByCandidate(email)</text><polygon fill="#181818" points="517.65,367.0215,510.65,369.8215,517.65,372.6215,514.85,369.8215" style="stroke:#181818;stroke-width:0.6999999999999998;"/><line style="stroke:#181818;stroke-width:0.6999999999999998;stroke-dasharray:2.0,2.0;" x1="513.45" x2="915.6" y1="369.8215" y2="369.8215"/><text fill="#000000" font-family="FG Virgil" font-size="9.1" lengthAdjust="spacing" textLength="48.3" x="521.85" y="366.1376">notifications</text><path d="M453.95,398.7252 L496.65,398.7252 L496.65,405.2289 L489.65,412.2289 L453.95,412.2289 L453.95,398.7252 " fill="#EEEEEE" style="stroke:#000000;stroke-width:1.0499999999999998;"/><rect fill="none" height="44.5074" style="stroke:#000000;stroke-width:1.0499999999999998;" width="245.7" x="453.95" y="398.7252"/><text fill="#000000" font-family="FG Virgil" font-size="9.1" font-weight="bold" lengthAdjust="spacing" textLength="11.2" x="464.45" y="409.245">alt</text><text fill="#000000" font-family="FG Virgil" font-size="7.7" font-weight="bold" lengthAdjust="spacing" textLength="189" x="507.15" y="408.4343">[if notification.status() == NotificationStatus.READ]</text><line style="stroke:#181818;stroke-width:0.6999999999999998;" x1="509.95" x2="539.35" y1="428.5326" y2="428.5326"/><line style="stroke:#181818;stroke-width:0.6999999999999998;" x1="539.35" x2="539.35" y1="428.5326" y2="437.6326"/><line style="stroke:#181818;stroke-width:0.6999999999999998;" x1="510.65" x2="539.35" y1="437.6326" y2="437.6326"/><polygon fill="#181818" points="517.65,434.8326,510.65,437.6326,517.65,440.4326,514.85,437.6326" style="stroke:#181818;stroke-width:0.6999999999999998;"/><text fill="#000000" font-family="FG Virgil" font-size="9.1" lengthAdjust="spacing" textLength="77.7" x="514.85" y="424.8487">remove(notification)</text><polygon fill="#181818" points="367.85,461.6363,360.85,464.4363,367.85,467.2363,365.05,464.4363" style="stroke:#181818;stroke-width:0.6999999999999998;"/><line style="stroke:#181818;stroke-width:0.6999999999999998;stroke-dasharray:2.0,2.0;" x1="363.65" x2="505.75" y1="464.4363" y2="464.4363"/><text fill="#000000" font-family="FG Virgil" font-size="9.1" lengthAdjust="spacing" textLength="78.4" x="372.05" y="460.7524">unread notifications</text><polygon fill="#181818" points="183.75,483.54,176.75,486.34,183.75,489.14,180.95,486.34" style="stroke:#181818;stroke-width:0.6999999999999998;"/><line style="stroke:#181818;stroke-width:0.6999999999999998;stroke-dasharray:2.0,2.0;" x1="179.55" x2="355.95" y1="486.34" y2="486.34"/><text fill="#000000" font-family="FG Virgil" font-size="9.1" lengthAdjust="spacing" textLength="78.4" x="187.95" y="482.6562">unread notifications</text><polygon fill="#181818" points="46.55,505.4437,39.55,508.2437,46.55,511.0437,43.75,508.2437" style="stroke:#181818;stroke-width:0.6999999999999998;"/><line style="stroke:#181818;stroke-width:0.6999999999999998;stroke-dasharray:2.0,2.0;" x1="42.35" x2="171.85" y1="508.2437" y2="508.2437"/><text fill="#000000" font-family="FG Virgil" font-size="9.1" lengthAdjust="spacing" textLength="109.9" x="50.75" y="504.5599">display unread notifications</text><!--SRC=[bLLDR-CW4BtxLt1C3-qFYDn8sUwcwgLQjShUMNkSe6AmWAIR_leTx8IlGEJwOF4nxysR6M3q1nC3LRGdUohQJyMC0K4woZLKsktrKiXchsGFnAX3k3FGveFkuDsSE105ZGdsMkZeWPkD5EQL8dJpJFumjMCyiD5xsifF9dPddnLjZ5Ja2SMmbXeWLFj9XHZ36ZPGOSYhDAmxkRtrC73MKCEaU3SutxvOAFxhUb2WGPXnRxNw3iaJIbUISr2Z3Z-hQ-fDSvmN5b17renHP9RhMa-3X65zC7kfs5TAOTU_I0dr6vHc6ilNZBhXdx6OODMcmiyIz1iCKZFC_Mapbk1amPTXNNVJ246O9_gNQeW2ykWqLBzJrygDaSTMcXrjYNrzAr_t-vKjtf9e078G2cXBH42hguhWvpYsBzE2_H27wA1QIz8WWO75dJSg6Ex0XEerGaA4r-n0CML0XjIvex0a7HFjTWnfbgiCIUmpwmQzJyV5fb1ht4dulOFHBg6SiFV56CwSCQY5Mvm5bU41NH9tH1WK4n8WOWyX5J9VJc-f_95vkLeJIrK8j2Yc4AuN9UOK_smUKryu4it19Io5x935S4MMi1HzLjwjy8jwxQM8hiCF_omleAUCtrqxoTwHGFLjMO7_UVdGrtn1BcPhu58EP8DT3h7xoC6rhOkK6yAwoFX1OuiwuCaXZu-n-77zuUtN-cUPS6QDV28KzF88Yr11fY8Wshc78Nrwiw_yt8Jd7yRqHRuqbM-xAZtthetOO5plMfAMwO7JqutEbJZ0_fMwT5tnFm00]--></g></svg>