<?xml version="1.0" encoding="us-ascii" standalone="no"?><svg xmlns="http://www.w3.org/2000/svg" xmlns:xlink="http://www.w3.org/1999/xlink" contentStyleType="text/css" height="641px" preserveAspectRatio="none" style="width:1515px;height:641px;background:#FFFFFF;" version="1.1" viewBox="0 0 1515 641" width="1515px" zoomAndPan="magnify"><defs/><g><!--class SwitchJobOpeningPhasesUI--><g id="elem_SwitchJobOpeningPhasesUI"><rect codeLine="5" fill="#F1F1F1" height="97.8242" id="SwitchJobOpeningPhasesUI" rx="2.5" ry="2.5" style="stroke:#181818;stroke-width:0.5;" width="207" x="472" y="7"/><ellipse cx="487" cy="29.291" fill="#ADD1B2" rx="11" ry="11" style="stroke:#181818;stroke-width:1.0;"/><path d="M489.7656,25.166 Q489.9219,24.9473 490.1094,24.8379 Q490.2969,24.7285 490.5156,24.7285 Q490.8906,24.7285 491.125,24.9941 Q491.3594,25.2441 491.3594,25.8535 L491.3594,27.3066 Q491.3594,27.916 491.125,28.1816 Q490.8906,28.4473 490.5156,28.4473 Q490.1719,28.4473 489.9688,28.2441 Q489.7656,28.0566 489.6563,27.541 Q489.6094,27.1816 489.4219,26.9941 Q489.0938,26.6191 488.4844,26.4004 Q487.875,26.1816 487.25,26.1816 Q486.4844,26.1816 485.8438,26.5098 Q485.2188,26.8379 484.7188,27.5879 Q484.2344,28.3379 484.2344,29.3691 L484.2344,30.4629 Q484.2344,31.6973 485.125,32.5254 Q486.0156,33.3379 487.6094,33.3379 Q488.5469,33.3379 489.2031,33.0879 Q489.5938,32.9316 490.0156,32.4941 Q490.2813,32.2285 490.4219,32.1504 Q490.5781,32.0723 490.7813,32.0723 Q491.1094,32.0723 491.3594,32.3379 Q491.625,32.5879 491.625,32.9316 Q491.625,33.2754 491.2813,33.6816 Q490.7813,34.2598 489.9844,34.5879 Q488.9063,35.041 487.6094,35.041 Q486.0938,35.041 484.8906,34.416 Q483.9063,33.916 483.2188,32.8535 Q482.5313,31.7754 482.5313,30.4941 L482.5313,29.3379 Q482.5313,28.0098 483.1406,26.8691 Q483.7656,25.7129 484.8594,25.1035 Q485.9531,24.4785 487.1875,24.4785 Q487.9219,24.4785 488.5625,24.6504 Q489.2188,24.8066 489.7656,25.166 Z " fill="#000000"/><text fill="#000000" font-family="sans-serif" font-size="12" font-style="italic" lengthAdjust="spacing" textLength="82" x="547.5" y="24.9492">&#171;presentation&#187;</text><text fill="#000000" font-family="sans-serif" font-size="14" lengthAdjust="spacing" textLength="175" x="501" y="43.0684">SwitchJobOpeningPhasesUI</text><line style="stroke:#181818;stroke-width:0.5;" x1="473" x2="678" y1="51.582" y2="51.582"/><line style="stroke:#181818;stroke-width:0.5;" x1="473" x2="678" y1="59.582" y2="59.582"/><rect fill="#F24D5C" height="6" style="stroke:#C82930;stroke-width:1.0;" width="6" x="480" y="71.3926"/><text fill="#000000" font-family="sans-serif" font-size="14" lengthAdjust="spacing" textLength="60" x="492" y="78.6895">doShow()</text><rect fill="#F24D5C" height="6" style="stroke:#C82930;stroke-width:1.0;" width="6" x="480" y="90.0137"/><text fill="#000000" font-family="sans-serif" font-size="14" lengthAdjust="spacing" textLength="64" x="492" y="97.3105">headline()</text></g><!--class SwitchJobOpeningPhasesController--><g id="elem_SwitchJobOpeningPhasesController"><rect codeLine="9" fill="#F1F1F1" height="116.4453" id="SwitchJobOpeningPhasesController" rx="2.5" ry="2.5" style="stroke:#181818;stroke-width:0.5;" width="698" x="226.5" y="184"/><ellipse cx="458.75" cy="206.291" fill="#ADD1B2" rx="11" ry="11" style="stroke:#181818;stroke-width:1.0;"/><path d="M461.5156,202.166 Q461.6719,201.9473 461.8594,201.8379 Q462.0469,201.7285 462.2656,201.7285 Q462.6406,201.7285 462.875,201.9941 Q463.1094,202.2441 463.1094,202.8535 L463.1094,204.3066 Q463.1094,204.916 462.875,205.1816 Q462.6406,205.4473 462.2656,205.4473 Q461.9219,205.4473 461.7188,205.2441 Q461.5156,205.0566 461.4063,204.541 Q461.3594,204.1816 461.1719,203.9941 Q460.8438,203.6191 460.2344,203.4004 Q459.625,203.1816 459,203.1816 Q458.2344,203.1816 457.5938,203.5098 Q456.9688,203.8379 456.4688,204.5879 Q455.9844,205.3379 455.9844,206.3691 L455.9844,207.4629 Q455.9844,208.6973 456.875,209.5254 Q457.7656,210.3379 459.3594,210.3379 Q460.2969,210.3379 460.9531,210.0879 Q461.3438,209.9316 461.7656,209.4941 Q462.0313,209.2285 462.1719,209.1504 Q462.3281,209.0723 462.5313,209.0723 Q462.8594,209.0723 463.1094,209.3379 Q463.375,209.5879 463.375,209.9316 Q463.375,210.2754 463.0313,210.6816 Q462.5313,211.2598 461.7344,211.5879 Q460.6563,212.041 459.3594,212.041 Q457.8438,212.041 456.6406,211.416 Q455.6563,210.916 454.9688,209.8535 Q454.2813,208.7754 454.2813,207.4941 L454.2813,206.3379 Q454.2813,205.0098 454.8906,203.8691 Q455.5156,202.7129 456.6094,202.1035 Q457.7031,201.4785 458.9375,201.4785 Q459.6719,201.4785 460.3125,201.6504 Q460.9688,201.8066 461.5156,202.166 Z " fill="#000000"/><text fill="#000000" font-family="sans-serif" font-size="12" font-style="italic" lengthAdjust="spacing" textLength="74" x="554.75" y="201.9492">&#171;application&#187;</text><text fill="#000000" font-family="sans-serif" font-size="14" lengthAdjust="spacing" textLength="225" x="479.25" y="220.0684">SwitchJobOpeningPhasesController</text><line style="stroke:#181818;stroke-width:0.5;" x1="227.5" x2="923.5" y1="228.582" y2="228.582"/><line style="stroke:#181818;stroke-width:0.5;" x1="227.5" x2="923.5" y1="236.582" y2="236.582"/><rect fill="#F24D5C" height="6" style="stroke:#C82930;stroke-width:1.0;" width="6" x="234.5" y="248.3926"/><text fill="#000000" font-family="sans-serif" font-size="14" lengthAdjust="spacing" textLength="475" x="246.5" y="255.6895">findByJobReference(jobReference: String) : Optional&lt;JobOpeningProcess&gt;</text><rect fill="#F24D5C" height="6" style="stroke:#C82930;stroke-width:1.0;" width="6" x="234.5" y="267.0137"/><text fill="#000000" font-family="sans-serif" font-size="14" lengthAdjust="spacing" textLength="672" x="246.5" y="274.3105">switchJobOpeningProcessPhase(jobReference: String, advanceOrReturnPhase : int) : JobOpeningProcess</text><rect fill="#F24D5C" height="6" style="stroke:#C82930;stroke-width:1.0;" width="6" x="234.5" y="285.6348"/><text fill="#000000" font-family="sans-serif" font-size="14" lengthAdjust="spacing" textLength="647" x="246.5" y="292.9316">updateJobOpeningProcess(jobOpeningProcessRepository: JobOpeningProcess) : JobOpeningProcess</text></g><!--class AuthorizationService--><g id="elem_AuthorizationService"><rect codeLine="15" fill="#F1F1F1" height="79.2031" id="AuthorizationService" rx="2.5" ry="2.5" style="stroke:#181818;stroke-width:0.5;" width="459" x="7" y="379"/><ellipse cx="167.75" cy="401.291" fill="#ADD1B2" rx="11" ry="11" style="stroke:#181818;stroke-width:1.0;"/><path d="M170.5156,397.166 Q170.6719,396.9473 170.8594,396.8379 Q171.0469,396.7285 171.2656,396.7285 Q171.6406,396.7285 171.875,396.9941 Q172.1094,397.2441 172.1094,397.8535 L172.1094,399.3066 Q172.1094,399.916 171.875,400.1816 Q171.6406,400.4473 171.2656,400.4473 Q170.9219,400.4473 170.7188,400.2441 Q170.5156,400.0566 170.4063,399.541 Q170.3594,399.1816 170.1719,398.9941 Q169.8438,398.6191 169.2344,398.4004 Q168.625,398.1816 168,398.1816 Q167.2344,398.1816 166.5938,398.5098 Q165.9688,398.8379 165.4688,399.5879 Q164.9844,400.3379 164.9844,401.3691 L164.9844,402.4629 Q164.9844,403.6973 165.875,404.5254 Q166.7656,405.3379 168.3594,405.3379 Q169.2969,405.3379 169.9531,405.0879 Q170.3438,404.9316 170.7656,404.4941 Q171.0313,404.2285 171.1719,404.1504 Q171.3281,404.0723 171.5313,404.0723 Q171.8594,404.0723 172.1094,404.3379 Q172.375,404.5879 172.375,404.9316 Q172.375,405.2754 172.0313,405.6816 Q171.5313,406.2598 170.7344,406.5879 Q169.6563,407.041 168.3594,407.041 Q166.8438,407.041 165.6406,406.416 Q164.6563,405.916 163.9688,404.8535 Q163.2813,403.7754 163.2813,402.4941 L163.2813,401.3379 Q163.2813,400.0098 163.8906,398.8691 Q164.5156,397.7129 165.6094,397.1035 Q166.7031,396.4785 167.9375,396.4785 Q168.6719,396.4785 169.3125,396.6504 Q169.9688,396.8066 170.5156,397.166 Z " fill="#000000"/><text fill="#000000" font-family="sans-serif" font-size="12" font-style="italic" lengthAdjust="spacing" textLength="53" x="226.25" y="396.9492">&#171;service&#187;</text><text fill="#000000" font-family="sans-serif" font-size="14" lengthAdjust="spacing" textLength="129" x="188.25" y="415.0684">AuthorizationService</text><line style="stroke:#181818;stroke-width:0.5;" x1="8" x2="465" y1="423.582" y2="423.582"/><line style="stroke:#181818;stroke-width:0.5;" x1="8" x2="465" y1="431.582" y2="431.582"/><rect fill="#F24D5C" height="6" style="stroke:#C82930;stroke-width:1.0;" width="6" x="15" y="443.3926"/><text fill="#000000" font-family="sans-serif" font-size="14" lengthAdjust="spacing" textLength="433" x="27" y="450.6895">ensureAuthenticatedUserHasAnyOf(roles : List&lt;Jobs4uRoles&gt;) : void</text></g><!--class RepositoryFactory--><g id="elem_RepositoryFactory"><rect codeLine="20" fill="#F1F1F1" height="79.2031" id="RepositoryFactory" rx="2.5" ry="2.5" style="stroke:#181818;stroke-width:0.5;" width="148" x="501.5" y="379"/><ellipse cx="516.5" cy="401.291" fill="#ADD1B2" rx="11" ry="11" style="stroke:#181818;stroke-width:1.0;"/><path d="M519.2656,397.166 Q519.4219,396.9473 519.6094,396.8379 Q519.7969,396.7285 520.0156,396.7285 Q520.3906,396.7285 520.625,396.9941 Q520.8594,397.2441 520.8594,397.8535 L520.8594,399.3066 Q520.8594,399.916 520.625,400.1816 Q520.3906,400.4473 520.0156,400.4473 Q519.6719,400.4473 519.4688,400.2441 Q519.2656,400.0566 519.1563,399.541 Q519.1094,399.1816 518.9219,398.9941 Q518.5938,398.6191 517.9844,398.4004 Q517.375,398.1816 516.75,398.1816 Q515.9844,398.1816 515.3438,398.5098 Q514.7188,398.8379 514.2188,399.5879 Q513.7344,400.3379 513.7344,401.3691 L513.7344,402.4629 Q513.7344,403.6973 514.625,404.5254 Q515.5156,405.3379 517.1094,405.3379 Q518.0469,405.3379 518.7031,405.0879 Q519.0938,404.9316 519.5156,404.4941 Q519.7813,404.2285 519.9219,404.1504 Q520.0781,404.0723 520.2813,404.0723 Q520.6094,404.0723 520.8594,404.3379 Q521.125,404.5879 521.125,404.9316 Q521.125,405.2754 520.7813,405.6816 Q520.2813,406.2598 519.4844,406.5879 Q518.4063,407.041 517.1094,407.041 Q515.5938,407.041 514.3906,406.416 Q513.4063,405.916 512.7188,404.8535 Q512.0313,403.7754 512.0313,402.4941 L512.0313,401.3379 Q512.0313,400.0098 512.6406,398.8691 Q513.2656,397.7129 514.3594,397.1035 Q515.4531,396.4785 516.6875,396.4785 Q517.4219,396.4785 518.0625,396.6504 Q518.7188,396.8066 519.2656,397.166 Z " fill="#000000"/><text fill="#000000" font-family="sans-serif" font-size="12" font-style="italic" lengthAdjust="spacing" textLength="50" x="563.5" y="396.9492">&#171;factory&#187;</text><text fill="#000000" font-family="sans-serif" font-size="14" lengthAdjust="spacing" textLength="116" x="530.5" y="415.0684">RepositoryFactory</text><line style="stroke:#181818;stroke-width:0.5;" x1="502.5" x2="648.5" y1="423.582" y2="423.582"/><line style="stroke:#181818;stroke-width:0.5;" x1="502.5" x2="648.5" y1="431.582" y2="431.582"/><rect fill="#F24D5C" height="6" style="stroke:#C82930;stroke-width:1.0;" width="6" x="509.5" y="443.3926"/><text fill="#000000" font-family="sans-serif" font-size="14" lengthAdjust="spacing" textLength="90" x="521.5" y="450.6895">jobOpenings()</text></g><!--class JobOpeningProcessRepository--><g id="elem_JobOpeningProcessRepository"><rect codeLine="24" fill="#F1F1F1" height="97.8242" id="JobOpeningProcessRepository" rx="2.5" ry="2.5" style="stroke:#181818;stroke-width:0.5;" width="464" x="343.5" y="537"/><ellipse cx="473.75" cy="559.291" fill="#ADD1B2" rx="11" ry="11" style="stroke:#181818;stroke-width:1.0;"/><path d="M476.5156,555.166 Q476.6719,554.9473 476.8594,554.8379 Q477.0469,554.7285 477.2656,554.7285 Q477.6406,554.7285 477.875,554.9941 Q478.1094,555.2441 478.1094,555.8535 L478.1094,557.3066 Q478.1094,557.916 477.875,558.1816 Q477.6406,558.4473 477.2656,558.4473 Q476.9219,558.4473 476.7188,558.2441 Q476.5156,558.0566 476.4063,557.541 Q476.3594,557.1816 476.1719,556.9941 Q475.8438,556.6191 475.2344,556.4004 Q474.625,556.1816 474,556.1816 Q473.2344,556.1816 472.5938,556.5098 Q471.9688,556.8379 471.4688,557.5879 Q470.9844,558.3379 470.9844,559.3691 L470.9844,560.4629 Q470.9844,561.6973 471.875,562.5254 Q472.7656,563.3379 474.3594,563.3379 Q475.2969,563.3379 475.9531,563.0879 Q476.3438,562.9316 476.7656,562.4941 Q477.0313,562.2285 477.1719,562.1504 Q477.3281,562.0723 477.5313,562.0723 Q477.8594,562.0723 478.1094,562.3379 Q478.375,562.5879 478.375,562.9316 Q478.375,563.2754 478.0313,563.6816 Q477.5313,564.2598 476.7344,564.5879 Q475.6563,565.041 474.3594,565.041 Q472.8438,565.041 471.6406,564.416 Q470.6563,563.916 469.9688,562.8535 Q469.2813,561.7754 469.2813,560.4941 L469.2813,559.3379 Q469.2813,558.0098 469.8906,556.8691 Q470.5156,555.7129 471.6094,555.1035 Q472.7031,554.4785 473.9375,554.4785 Q474.6719,554.4785 475.3125,554.6504 Q475.9688,554.8066 476.5156,555.166 Z " fill="#000000"/><text fill="#000000" font-family="sans-serif" font-size="12" font-style="italic" lengthAdjust="spacing" textLength="68" x="557.75" y="554.9492">&#171;repository&#187;</text><text fill="#000000" font-family="sans-serif" font-size="14" lengthAdjust="spacing" textLength="195" x="494.25" y="573.0684">JobOpeningProcessRepository</text><line style="stroke:#181818;stroke-width:0.5;" x1="344.5" x2="806.5" y1="581.582" y2="581.582"/><line style="stroke:#181818;stroke-width:0.5;" x1="344.5" x2="806.5" y1="589.582" y2="589.582"/><rect fill="#F24D5C" height="6" style="stroke:#C82930;stroke-width:1.0;" width="6" x="351.5" y="601.3926"/><text fill="#000000" font-family="sans-serif" font-size="14" lengthAdjust="spacing" textLength="438" x="363.5" y="608.6895">save(jobOpeningProcess :JobOpeningProcess) : JobOpeningProcess</text><rect fill="#F24D5C" height="6" style="stroke:#C82930;stroke-width:1.0;" width="6" x="351.5" y="620.0137"/><text fill="#000000" font-family="sans-serif" font-size="14" lengthAdjust="spacing" textLength="410" x="363.5" y="627.3105">findByJobReference(jobReference : String) : JobOpeningProcess</text></g><!--class JobOpeningProcess--><g id="elem_JobOpeningProcess"><rect codeLine="29" fill="#F1F1F1" height="79.2031" id="JobOpeningProcess" rx="2.5" ry="2.5" style="stroke:#181818;stroke-width:0.5;" width="823" x="685" y="379"/><ellipse cx="1028.75" cy="401.291" fill="#ADD1B2" rx="11" ry="11" style="stroke:#181818;stroke-width:1.0;"/><path d="M1031.5156,397.166 Q1031.6719,396.9473 1031.8594,396.8379 Q1032.0469,396.7285 1032.2656,396.7285 Q1032.6406,396.7285 1032.875,396.9941 Q1033.1094,397.2441 1033.1094,397.8535 L1033.1094,399.3066 Q1033.1094,399.916 1032.875,400.1816 Q1032.6406,400.4473 1032.2656,400.4473 Q1031.9219,400.4473 1031.7188,400.2441 Q1031.5156,400.0566 1031.4063,399.541 Q1031.3594,399.1816 1031.1719,398.9941 Q1030.8438,398.6191 1030.2344,398.4004 Q1029.625,398.1816 1029,398.1816 Q1028.2344,398.1816 1027.5938,398.5098 Q1026.9688,398.8379 1026.4688,399.5879 Q1025.9844,400.3379 1025.9844,401.3691 L1025.9844,402.4629 Q1025.9844,403.6973 1026.875,404.5254 Q1027.7656,405.3379 1029.3594,405.3379 Q1030.2969,405.3379 1030.9531,405.0879 Q1031.3438,404.9316 1031.7656,404.4941 Q1032.0313,404.2285 1032.1719,404.1504 Q1032.3281,404.0723 1032.5313,404.0723 Q1032.8594,404.0723 1033.1094,404.3379 Q1033.375,404.5879 1033.375,404.9316 Q1033.375,405.2754 1033.0313,405.6816 Q1032.5313,406.2598 1031.7344,406.5879 Q1030.6563,407.041 1029.3594,407.041 Q1027.8438,407.041 1026.6406,406.416 Q1025.6563,405.916 1024.9688,404.8535 Q1024.2813,403.7754 1024.2813,402.4941 L1024.2813,401.3379 Q1024.2813,400.0098 1024.8906,398.8691 Q1025.5156,397.7129 1026.6094,397.1035 Q1027.7031,396.4785 1028.9375,396.4785 Q1029.6719,396.4785 1030.3125,396.6504 Q1030.9688,396.8066 1031.5156,397.166 Z " fill="#000000"/><text fill="#000000" font-family="sans-serif" font-size="12" font-style="italic" lengthAdjust="spacing" textLength="56" x="1084.75" y="396.9492">&#171;domain&#187;</text><text fill="#000000" font-family="sans-serif" font-size="14" lengthAdjust="spacing" textLength="127" x="1049.25" y="415.0684">JobOpeningProcess</text><line style="stroke:#181818;stroke-width:0.5;" x1="686" x2="1507" y1="423.582" y2="423.582"/><line style="stroke:#181818;stroke-width:0.5;" x1="686" x2="1507" y1="431.582" y2="431.582"/><rect fill="#F24D5C" height="6" style="stroke:#C82930;stroke-width:1.0;" width="6" x="693" y="443.3926"/><text fill="#000000" font-family="sans-serif" font-size="14" lengthAdjust="spacing" textLength="797" x="705" y="450.6895">switchJobOpeningProcessPhase(jobOpeningProcess:JobOpeningProcess, advanceOrReturnPhase : int) : JobOpeningProcess</text></g><!--link SwitchJobOpeningPhasesUI to SwitchJobOpeningPhasesController--><g id="link_SwitchJobOpeningPhasesUI_SwitchJobOpeningPhasesController"><path codeLine="36" d="M575.5,105.34 C575.5,129.41 575.5,152.66 575.5,177.83 " fill="none" id="SwitchJobOpeningPhasesUI-to-SwitchJobOpeningPhasesController" style="stroke:#181818;stroke-width:1.0;"/><polygon fill="#181818" points="575.5,183.83,579.5,174.83,575.5,178.83,571.5,174.83,575.5,183.83" style="stroke:#181818;stroke-width:1.0;"/><text fill="#000000" font-family="sans-serif" font-size="13" lengthAdjust="spacing" textLength="73" x="576.5" y="150.0283">theController</text></g><!--link SwitchJobOpeningPhasesController to AuthorizationService--><g id="link_SwitchJobOpeningPhasesController_AuthorizationService"><path codeLine="37" d="M464.5,300.14 C414.29,325.98 361.6144,353.0933 316.6744,376.2333 " fill="none" id="SwitchJobOpeningPhasesController-to-AuthorizationService" style="stroke:#181818;stroke-width:1.0;"/><polygon fill="#181818" points="311.34,378.98,321.1727,378.4162,315.7853,376.6911,317.5104,371.3037,311.34,378.98" style="stroke:#181818;stroke-width:1.0;"/><text fill="#000000" font-family="sans-serif" font-size="13" lengthAdjust="spacing" textLength="32" x="407.5" y="345.0283">authz</text></g><!--link SwitchJobOpeningPhasesController to JobOpeningProcess--><g id="link_SwitchJobOpeningPhasesController_JobOpeningProcess"><path codeLine="38" d="M745.73,300.02 C822.92,325.87 906.4705,353.8547 975.6305,377.0147 " fill="none" id="SwitchJobOpeningPhasesController-to-JobOpeningProcess" style="stroke:#181818;stroke-width:1.0;"/><polygon fill="#181818" points="981.32,378.92,974.056,372.2691,976.5788,377.3323,971.5156,379.8551,981.32,378.92" style="stroke:#181818;stroke-width:1.0;"/><text fill="#000000" font-family="sans-serif" font-size="13" lengthAdjust="spacing" textLength="113" x="884.5" y="345.0283">jobOpeningProcess</text></g><!--link RepositoryFactory to JobOpeningProcessRepository--><g id="link_RepositoryFactory_JobOpeningProcessRepository"><path codeLine="39" d="M575.5,458.3 C575.5,481.81 575.5,505.97 575.5,530.97 " fill="none" id="RepositoryFactory-to-JobOpeningProcessRepository" style="stroke:#181818;stroke-width:1.0;"/><polygon fill="#181818" points="575.5,536.97,579.5,527.97,575.5,531.97,571.5,527.97,575.5,536.97" style="stroke:#181818;stroke-width:1.0;"/><text fill="#000000" font-family="sans-serif" font-size="13" lengthAdjust="spacing" textLength="175" x="576.5" y="503.0283">jobOpeningProcessRepository</text></g><!--link SwitchJobOpeningPhasesController to RepositoryFactory--><g id="link_SwitchJobOpeningPhasesController_RepositoryFactory"><path codeLine="40" d="M575.5,300.14 C575.5,325.98 575.5,349.84 575.5,372.98 " fill="none" id="SwitchJobOpeningPhasesController-to-RepositoryFactory" style="stroke:#181818;stroke-width:1.0;stroke-dasharray:7.0,7.0;"/><polygon fill="#181818" points="575.5,378.98,579.5,369.98,575.5,373.98,571.5,369.98,575.5,378.98" style="stroke:#181818;stroke-width:1.0;"/></g><!--SRC=[bLDHJiCm3FtFAVAt8J6- -AgcIWE1024DRTe1JEFIG4cgEDsqePs74t22NGndAsoGGk6hZXs_vpw_zEX9cmeSF8lFI581oYwqUP0vb8H2z2wCrmeKaiXA89BJXVPPSMFlnnKQldXN027DhkLmM3aaD1wyjYPDvOiOI6MdXLtqZpWi45If3V9X_IlMkJNUsR94nvXGLQNE6iY0c6kZpfRSCy4S7PeC-uy7XqHElMEe8vd8SHNQe1mUC3YR8L7AGFITV5VQpj0AUIn1pO4JOpT1NpkplSeyslX05q4nILqfy1XL0lxNp0GhIzfRjsm1QaTVYqR6KUqBw_Hggz8KtLndoDBHBcesWOPgX-4ghoWeYch6Dww0HcOvplkiE1Bpt6hoGJ0whISXbGRokTKgy3M4-s4l8GiVPijtKSEs_p_QxhjflFdvjnd2VHuQ588vnbB9v8y2TPf57hhb5u6Z4W-hx3Fe3vjtUUbhEfx__zOAon2z4P7DD6nUDs_yG7zyceD1sltM4idMs9z5PqD0RRLU8e7JgxyXnDecCb9Cn8vhxJsmKmlAljezsib96jly7G00]--></g></svg>