<?xml version="1.0" encoding="us-ascii" standalone="no"?><svg xmlns="http://www.w3.org/2000/svg" xmlns:xlink="http://www.w3.org/1999/xlink" contentStyleType="text/css" height="407px" preserveAspectRatio="none" style="width:462px;height:407px;background:#FFFFFF;" version="1.1" viewBox="0 0 462 407" width="462px" zoomAndPan="magnify"><defs/><g><!--class Rank--><g id="elem_Rank"><rect codeLine="3" fill="#F1F1F1" height="60.582" id="Rank" rx="2.5" ry="2.5" style="stroke:#181818;stroke-width:0.5;" width="70" x="55.5" y="7"/><ellipse cx="70.5" cy="29.291" fill="#ADD1B2" rx="11" ry="11" style="stroke:#181818;stroke-width:1.0;"/><path d="M69.3594,30.0879 L69.3594,32.5879 L73.6875,32.5879 L73.6875,31.666 Q73.6875,31.0566 73.9219,30.791 Q74.1719,30.5254 74.5469,30.5254 Q74.9219,30.5254 75.1563,30.791 Q75.3906,31.0566 75.3906,31.666 L75.3906,34.291 L67.3906,34.291 Q66.7656,34.291 66.5,34.0566 Q66.25,33.8223 66.25,33.4316 Q66.25,33.0566 66.5156,32.8223 Q66.7813,32.5879 67.3906,32.5879 L67.6563,32.5879 L67.6563,25.9316 L67.3906,25.9316 Q66.7656,25.9316 66.5,25.6973 Q66.25,25.4629 66.25,25.0723 Q66.25,24.6973 66.5,24.4629 Q66.7656,24.2285 67.3906,24.2285 L75.0156,24.2285 L75.0156,26.8223 Q75.0156,27.4316 74.7813,27.6973 Q74.5625,27.9473 74.1719,27.9473 Q73.7969,27.9473 73.5625,27.6973 Q73.3281,27.4316 73.3281,26.8223 L73.3281,25.9316 L69.3594,25.9316 L69.3594,28.3848 L70.8438,28.3848 Q70.8438,27.7285 70.9688,27.541 Q71.2344,27.1348 71.7031,27.1348 Q72.0781,27.1348 72.3125,27.4004 Q72.5469,27.6504 72.5469,28.2598 L72.5469,30.2285 Q72.5469,30.7754 72.4219,30.9629 Q72.1563,31.3535 71.7031,31.3535 Q71.2344,31.3535 70.9688,30.9473 Q70.8438,30.7598 70.8438,30.0879 L69.3594,30.0879 Z " fill="#000000"/><text fill="#000000" font-family="sans-serif" font-size="12" font-style="italic" lengthAdjust="spacing" textLength="42" x="82.5" y="24.9492">&#171;class&#187;</text><text fill="#000000" font-family="sans-serif" font-size="14" lengthAdjust="spacing" textLength="33" x="87" y="43.0684">Rank</text><line style="stroke:#181818;stroke-width:0.5;" x1="56.5" x2="124.5" y1="51.582" y2="51.582"/><line style="stroke:#181818;stroke-width:0.5;" x1="56.5" x2="124.5" y1="59.582" y2="59.582"/></g><!--class RankStatus--><g id="elem_RankStatus"><rect codeLine="5" fill="#F1F1F1" height="97.8242" id="RankStatus" rx="2.5" ry="2.5" style="stroke:#181818;stroke-width:0.5;" width="105" x="7" y="147"/><ellipse cx="22" cy="169.291" fill="#EB937F" rx="11" ry="11" style="stroke:#181818;stroke-width:1.0;"/><path d="M20.8594,170.0879 L20.8594,172.5879 L25.1875,172.5879 L25.1875,171.666 Q25.1875,171.0566 25.4219,170.791 Q25.6719,170.5254 26.0469,170.5254 Q26.4219,170.5254 26.6563,170.791 Q26.8906,171.0566 26.8906,171.666 L26.8906,174.291 L18.8906,174.291 Q18.2656,174.291 18,174.0566 Q17.75,173.8223 17.75,173.4316 Q17.75,173.0566 18.0156,172.8223 Q18.2813,172.5879 18.8906,172.5879 L19.1563,172.5879 L19.1563,165.9316 L18.8906,165.9316 Q18.2656,165.9316 18,165.6973 Q17.75,165.4629 17.75,165.0723 Q17.75,164.6973 18,164.4629 Q18.2656,164.2285 18.8906,164.2285 L26.5156,164.2285 L26.5156,166.8223 Q26.5156,167.4316 26.2813,167.6973 Q26.0625,167.9473 25.6719,167.9473 Q25.2969,167.9473 25.0625,167.6973 Q24.8281,167.4316 24.8281,166.8223 L24.8281,165.9316 L20.8594,165.9316 L20.8594,168.3848 L22.3438,168.3848 Q22.3438,167.7285 22.4688,167.541 Q22.7344,167.1348 23.2031,167.1348 Q23.5781,167.1348 23.8125,167.4004 Q24.0469,167.6504 24.0469,168.2598 L24.0469,170.2285 Q24.0469,170.7754 23.9219,170.9629 Q23.6563,171.3535 23.2031,171.3535 Q22.7344,171.3535 22.4688,170.9473 Q22.3438,170.7598 22.3438,170.0879 L20.8594,170.0879 Z " fill="#000000"/><text fill="#000000" font-family="sans-serif" font-size="12" font-style="italic" lengthAdjust="spacing" textLength="44" x="50.5" y="164.9492">&#171;value&#187;</text><text fill="#000000" font-family="sans-serif" font-size="14" lengthAdjust="spacing" textLength="73" x="36" y="183.0684">RankStatus</text><line style="stroke:#181818;stroke-width:0.5;" x1="8" x2="111" y1="191.582" y2="191.582"/><text fill="#000000" font-family="sans-serif" font-size="14" lengthAdjust="spacing" textLength="56" x="13" y="210.6895">RANKED</text><text fill="#000000" font-family="sans-serif" font-size="14" lengthAdjust="spacing" textLength="74" x="13" y="229.3105">UNRANKED</text><line style="stroke:#181818;stroke-width:0.5;" x1="8" x2="111" y1="236.8242" y2="236.8242"/></g><!--class Candidate--><g id="elem_Candidate"><rect codeLine="10" fill="#F1F1F1" height="76.543" id="Candidate" rx="2.5" ry="2.5" style="stroke:#181818;stroke-width:0.5;" width="97" x="298" y="324"/><ellipse cx="313" cy="354.2715" fill="#ADD1B2" rx="11" ry="11" style="stroke:#181818;stroke-width:1.0;"/><path d="M311.8594,355.0684 L311.8594,357.5684 L316.1875,357.5684 L316.1875,356.6465 Q316.1875,356.0371 316.4219,355.7715 Q316.6719,355.5059 317.0469,355.5059 Q317.4219,355.5059 317.6563,355.7715 Q317.8906,356.0371 317.8906,356.6465 L317.8906,359.2715 L309.8906,359.2715 Q309.2656,359.2715 309,359.0371 Q308.75,358.8027 308.75,358.4121 Q308.75,358.0371 309.0156,357.8027 Q309.2813,357.5684 309.8906,357.5684 L310.1563,357.5684 L310.1563,350.9121 L309.8906,350.9121 Q309.2656,350.9121 309,350.6777 Q308.75,350.4434 308.75,350.0527 Q308.75,349.6777 309,349.4434 Q309.2656,349.209 309.8906,349.209 L317.5156,349.209 L317.5156,351.8027 Q317.5156,352.4121 317.2813,352.6777 Q317.0625,352.9277 316.6719,352.9277 Q316.2969,352.9277 316.0625,352.6777 Q315.8281,352.4121 315.8281,351.8027 L315.8281,350.9121 L311.8594,350.9121 L311.8594,353.3652 L313.3438,353.3652 Q313.3438,352.709 313.4688,352.5215 Q313.7344,352.1152 314.2031,352.1152 Q314.5781,352.1152 314.8125,352.3809 Q315.0469,352.6309 315.0469,353.2402 L315.0469,355.209 Q315.0469,355.7559 314.9219,355.9434 Q314.6563,356.334 314.2031,356.334 Q313.7344,356.334 313.4688,355.9277 Q313.3438,355.7402 313.3438,355.0684 L311.8594,355.0684 Z " fill="#000000"/><text fill="#000000" font-family="sans-serif" font-size="12" font-style="italic" lengthAdjust="spacing" textLength="43" x="338" y="341.9492">&#171;entity&#187;</text><text fill="#000000" font-family="sans-serif" font-size="12" font-style="italic" lengthAdjust="spacing" textLength="35" x="342" y="357.9102">&#171;root&#187;</text><text fill="#000000" font-family="sans-serif" font-size="14" lengthAdjust="spacing" textLength="65" x="327" y="376.0293">Candidate</text><line style="stroke:#181818;stroke-width:0.5;" x1="299" x2="394" y1="384.543" y2="384.543"/><line style="stroke:#181818;stroke-width:0.5;" x1="299" x2="394" y1="392.543" y2="392.543"/></g><!--class CustomerManager--><g id="elem_CustomerManager"><rect codeLine="12" fill="#F1F1F1" height="76.543" id="CustomerManager" rx="2.5" ry="2.5" style="stroke:#181818;stroke-width:0.5;" width="149" x="306" y="157.5"/><ellipse cx="321" cy="187.7715" fill="#ADD1B2" rx="11" ry="11" style="stroke:#181818;stroke-width:1.0;"/><path d="M319.8594,188.5684 L319.8594,191.0684 L324.1875,191.0684 L324.1875,190.1465 Q324.1875,189.5371 324.4219,189.2715 Q324.6719,189.0059 325.0469,189.0059 Q325.4219,189.0059 325.6563,189.2715 Q325.8906,189.5371 325.8906,190.1465 L325.8906,192.7715 L317.8906,192.7715 Q317.2656,192.7715 317,192.5371 Q316.75,192.3027 316.75,191.9121 Q316.75,191.5371 317.0156,191.3027 Q317.2813,191.0684 317.8906,191.0684 L318.1563,191.0684 L318.1563,184.4121 L317.8906,184.4121 Q317.2656,184.4121 317,184.1777 Q316.75,183.9434 316.75,183.5527 Q316.75,183.1777 317,182.9434 Q317.2656,182.709 317.8906,182.709 L325.5156,182.709 L325.5156,185.3027 Q325.5156,185.9121 325.2813,186.1777 Q325.0625,186.4277 324.6719,186.4277 Q324.2969,186.4277 324.0625,186.1777 Q323.8281,185.9121 323.8281,185.3027 L323.8281,184.4121 L319.8594,184.4121 L319.8594,186.8652 L321.3438,186.8652 Q321.3438,186.209 321.4688,186.0215 Q321.7344,185.6152 322.2031,185.6152 Q322.5781,185.6152 322.8125,185.8809 Q323.0469,186.1309 323.0469,186.7402 L323.0469,188.709 Q323.0469,189.2559 322.9219,189.4434 Q322.6563,189.834 322.2031,189.834 Q321.7344,189.834 321.4688,189.4277 Q321.3438,189.2402 321.3438,188.5684 L319.8594,188.5684 Z " fill="#000000"/><text fill="#000000" font-family="sans-serif" font-size="12" font-style="italic" lengthAdjust="spacing" textLength="43" x="372" y="175.4492">&#171;entity&#187;</text><text fill="#000000" font-family="sans-serif" font-size="12" font-style="italic" lengthAdjust="spacing" textLength="35" x="376" y="191.4102">&#171;root&#187;</text><text fill="#000000" font-family="sans-serif" font-size="14" lengthAdjust="spacing" textLength="117" x="335" y="209.5293">CustomerManager</text><line style="stroke:#181818;stroke-width:0.5;" x1="307" x2="454" y1="218.043" y2="218.043"/><line style="stroke:#181818;stroke-width:0.5;" x1="307" x2="454" y1="226.043" y2="226.043"/></g><!--class Application--><g id="elem_Application"><rect codeLine="14" fill="#F1F1F1" height="76.543" id="Application" rx="2.5" ry="2.5" style="stroke:#181818;stroke-width:0.5;" width="101" x="147" y="157.5"/><ellipse cx="162" cy="187.7715" fill="#ADD1B2" rx="11" ry="11" style="stroke:#181818;stroke-width:1.0;"/><path d="M160.8594,188.5684 L160.8594,191.0684 L165.1875,191.0684 L165.1875,190.1465 Q165.1875,189.5371 165.4219,189.2715 Q165.6719,189.0059 166.0469,189.0059 Q166.4219,189.0059 166.6563,189.2715 Q166.8906,189.5371 166.8906,190.1465 L166.8906,192.7715 L158.8906,192.7715 Q158.2656,192.7715 158,192.5371 Q157.75,192.3027 157.75,191.9121 Q157.75,191.5371 158.0156,191.3027 Q158.2813,191.0684 158.8906,191.0684 L159.1563,191.0684 L159.1563,184.4121 L158.8906,184.4121 Q158.2656,184.4121 158,184.1777 Q157.75,183.9434 157.75,183.5527 Q157.75,183.1777 158,182.9434 Q158.2656,182.709 158.8906,182.709 L166.5156,182.709 L166.5156,185.3027 Q166.5156,185.9121 166.2813,186.1777 Q166.0625,186.4277 165.6719,186.4277 Q165.2969,186.4277 165.0625,186.1777 Q164.8281,185.9121 164.8281,185.3027 L164.8281,184.4121 L160.8594,184.4121 L160.8594,186.8652 L162.3438,186.8652 Q162.3438,186.209 162.4688,186.0215 Q162.7344,185.6152 163.2031,185.6152 Q163.5781,185.6152 163.8125,185.8809 Q164.0469,186.1309 164.0469,186.7402 L164.0469,188.709 Q164.0469,189.2559 163.9219,189.4434 Q163.6563,189.834 163.2031,189.834 Q162.7344,189.834 162.4688,189.4277 Q162.3438,189.2402 162.3438,188.5684 L160.8594,188.5684 Z " fill="#000000"/><text fill="#000000" font-family="sans-serif" font-size="12" font-style="italic" lengthAdjust="spacing" textLength="43" x="189" y="175.4492">&#171;entity&#187;</text><text fill="#000000" font-family="sans-serif" font-size="12" font-style="italic" lengthAdjust="spacing" textLength="35" x="193" y="191.4102">&#171;root&#187;</text><text fill="#000000" font-family="sans-serif" font-size="14" lengthAdjust="spacing" textLength="69" x="176" y="209.5293">Application</text><line style="stroke:#181818;stroke-width:0.5;" x1="148" x2="247" y1="218.043" y2="218.043"/><line style="stroke:#181818;stroke-width:0.5;" x1="148" x2="247" y1="226.043" y2="226.043"/></g><!--class JobOpening--><g id="elem_JobOpening"><rect codeLine="16" fill="#F1F1F1" height="76.543" id="JobOpening" rx="2.5" ry="2.5" style="stroke:#181818;stroke-width:0.5;" width="108" x="120.5" y="324"/><ellipse cx="135.5" cy="354.2715" fill="#ADD1B2" rx="11" ry="11" style="stroke:#181818;stroke-width:1.0;"/><path d="M134.3594,355.0684 L134.3594,357.5684 L138.6875,357.5684 L138.6875,356.6465 Q138.6875,356.0371 138.9219,355.7715 Q139.1719,355.5059 139.5469,355.5059 Q139.9219,355.5059 140.1563,355.7715 Q140.3906,356.0371 140.3906,356.6465 L140.3906,359.2715 L132.3906,359.2715 Q131.7656,359.2715 131.5,359.0371 Q131.25,358.8027 131.25,358.4121 Q131.25,358.0371 131.5156,357.8027 Q131.7813,357.5684 132.3906,357.5684 L132.6563,357.5684 L132.6563,350.9121 L132.3906,350.9121 Q131.7656,350.9121 131.5,350.6777 Q131.25,350.4434 131.25,350.0527 Q131.25,349.6777 131.5,349.4434 Q131.7656,349.209 132.3906,349.209 L140.0156,349.209 L140.0156,351.8027 Q140.0156,352.4121 139.7813,352.6777 Q139.5625,352.9277 139.1719,352.9277 Q138.7969,352.9277 138.5625,352.6777 Q138.3281,352.4121 138.3281,351.8027 L138.3281,350.9121 L134.3594,350.9121 L134.3594,353.3652 L135.8438,353.3652 Q135.8438,352.709 135.9688,352.5215 Q136.2344,352.1152 136.7031,352.1152 Q137.0781,352.1152 137.3125,352.3809 Q137.5469,352.6309 137.5469,353.2402 L137.5469,355.209 Q137.5469,355.7559 137.4219,355.9434 Q137.1563,356.334 136.7031,356.334 Q136.2344,356.334 135.9688,355.9277 Q135.8438,355.7402 135.8438,355.0684 L134.3594,355.0684 Z " fill="#000000"/><text fill="#000000" font-family="sans-serif" font-size="12" font-style="italic" lengthAdjust="spacing" textLength="43" x="166" y="341.9492">&#171;entity&#187;</text><text fill="#000000" font-family="sans-serif" font-size="12" font-style="italic" lengthAdjust="spacing" textLength="35" x="170" y="357.9102">&#171;root&#187;</text><text fill="#000000" font-family="sans-serif" font-size="14" lengthAdjust="spacing" textLength="76" x="149.5" y="376.0293">JobOpening</text><line style="stroke:#181818;stroke-width:0.5;" x1="121.5" x2="227.5" y1="384.543" y2="384.543"/><line style="stroke:#181818;stroke-width:0.5;" x1="121.5" x2="227.5" y1="392.543" y2="392.543"/></g><!--link Rank to Application--><g id="link_Rank_Application"><path codeLine="18" d="M110.88,68.3 C128.16,93.58 149.6538,125.0168 168.3238,152.3268 " fill="none" id="Rank-to-Application" style="stroke:#181818;stroke-width:1.0;"/><polygon fill="#181818" points="171.71,157.28,169.9329,147.5928,168.8882,153.1524,163.3287,152.1077,171.71,157.28" style="stroke:#181818;stroke-width:1.0;"/><text fill="#000000" font-family="sans-serif" font-size="13" lengthAdjust="spacing" textLength="32" x="145.5" y="113.0283">ranks</text></g><!--link Rank to RankStatus--><g id="link_Rank_RankStatus"><path codeLine="19" d="M84.6,68.3 C80.2,90.48 75.2861,115.3144 70.2061,140.9544 " fill="none" id="Rank-to-RankStatus" style="stroke:#181818;stroke-width:1.0;"/><polygon fill="#181818" points="69.04,146.84,74.7129,138.789,70.0118,141.9353,66.8654,137.2342,69.04,146.84" style="stroke:#181818;stroke-width:1.0;"/><text fill="#000000" font-family="sans-serif" font-size="13" lengthAdjust="spacing" textLength="21" x="80.5" y="113.0283">has</text></g><!--link Application to Candidate--><g id="link_Application_Candidate"><path codeLine="20" d="M229.86,234.61 C245.58,252.71 264.85,274.64 282.5,294 C291.42,303.79 297.0614,309.8763 306.2314,319.5463 " fill="none" id="Application-to-Candidate" style="stroke:#181818;stroke-width:1.0;"/><polygon fill="#181818" points="310.36,323.9,307.0696,314.617,306.9195,320.2719,301.2646,320.1218,310.36,323.9" style="stroke:#181818;stroke-width:1.0;"/><text fill="#000000" font-family="sans-serif" font-size="13" lengthAdjust="spacing" textLength="68" x="283.5" y="290.0283">is refered to</text><text fill="#000000" font-family="sans-serif" font-size="13" lengthAdjust="spacing" textLength="20" x="213.4236" y="256.2061">1..*</text><text fill="#000000" font-family="sans-serif" font-size="13" lengthAdjust="spacing" textLength="7" x="296.2991" y="312.6053">1</text></g><!--link CustomerManager to Candidate--><g id="link_CustomerManager_Candidate"><path codeLine="21" d="M372.7,234.74 C367.17,261.49 360.9943,291.3542 355.4743,318.0642 " fill="none" id="CustomerManager-to-Candidate" style="stroke:#181818;stroke-width:1.0;"/><polygon fill="#181818" points="354.26,323.94,359.9987,315.9358,355.2719,319.0435,352.1643,314.3167,354.26,323.94" style="stroke:#181818;stroke-width:1.0;"/><text fill="#000000" font-family="sans-serif" font-size="13" lengthAdjust="spacing" textLength="32" x="364.5" y="290.0283">ranks</text><text fill="#000000" font-family="sans-serif" font-size="13" lengthAdjust="spacing" textLength="7" x="363.9697" y="256.0592">1</text><text fill="#000000" font-family="sans-serif" font-size="13" lengthAdjust="spacing" textLength="15" x="339.3063" y="312.6524">1..</text></g><!--link Application to JobOpening--><g id="link_Application_JobOpening"><path codeLine="22" d="M182.16,234.87 C177.81,247.42 173.67,261.61 171.5,275 C168.92,290.87 168.6411,302.6026 169.6311,317.8426 " fill="none" id="Application-to-JobOpening" style="stroke:#181818;stroke-width:1.0;"/><polygon fill="#181818" points="170.02,323.83,173.4282,314.5896,169.6959,318.8405,165.445,315.1082,170.02,323.83" style="stroke:#181818;stroke-width:1.0;"/><text fill="#000000" font-family="sans-serif" font-size="13" lengthAdjust="spacing" textLength="54" x="172.5" y="290.0283">related to</text><text fill="#000000" font-family="sans-serif" font-size="13" lengthAdjust="spacing" textLength="7" x="172.2751" y="256.2091">1</text><text fill="#000000" font-family="sans-serif" font-size="13" lengthAdjust="spacing" textLength="7" x="161.6484" y="312.8153">1</text></g><!--SRC=[RS_12i8m30RWUvyYx2Wuy3f6GTIBeeBY0qGNjJZRqMQ2YEzkxTHMyLRIBt_uIRFYAwnGdw0iTpKw9oNSxaAGRizXlcRarldV2zOjINaJg-5YDXcBpUBr23haZ51Nga8cpxkHJojBQmn_OZlOEZPdidFKU23xLqFamwQfrGvP6VsFfibJirqsf9K-HFc6JnQgzliopOG2h1-x-9aKB-283aJAiq6Uzx80iq6Mj2v0ER2q9qiLi14_DOFkjlByUw-x_tqaNeYbdfHglnFo7m00]--></g></svg>