<?xml version="1.0" encoding="us-ascii" standalone="no"?><svg xmlns="http://www.w3.org/2000/svg" xmlns:xlink="http://www.w3.org/1999/xlink" contentStyleType="text/css" height="1044px" preserveAspectRatio="none" style="width:1826px;height:1044px;background:#FFFFFF;" version="1.1" viewBox="0 0 1826 1044" width="1826px" zoomAndPan="magnify"><defs/><g><text fill="#000000" font-family="sans-serif" font-size="14" font-weight="bold" lengthAdjust="spacing" textLength="149" x="840.25" y="27.6738">Upload Interview File</text><rect fill="#FFFFFF" height="819.1797" style="stroke:#181818;stroke-width:1.0;" width="10" x="31.5" y="127.2813"/><rect fill="#FFFFFF" height="798.6563" style="stroke:#181818;stroke-width:1.0;" width="10" x="405.5" y="147.8047"/><rect fill="#FFFFFF" height="313.7578" style="stroke:#181818;stroke-width:1.0;" width="10" x="715.5" y="261.8984"/><rect fill="#FFFFFF" height="28.5234" style="stroke:#181818;stroke-width:1.0;" width="10" x="1051.5" y="375.9922"/><rect fill="#FFFFFF" height="28.5234" style="stroke:#181818;stroke-width:1.0;" width="10" x="1051.5" y="746.7969"/><rect fill="#FFFFFF" height="85.5703" style="stroke:#181818;stroke-width:1.0;" width="10" x="1202.5" y="461.5625"/><rect fill="#FFFFFF" height="28.5234" style="stroke:#181818;stroke-width:1.0;" width="10" x="1370" y="860.8906"/><rect fill="#FFFFFF" height="28.5234" style="stroke:#181818;stroke-width:1.0;" width="10" x="1544" y="490.0859"/><rect fill="#FFFFFF" height="28.5234" style="stroke:#181818;stroke-width:1.0;" width="10" x="1728.5" y="803.8438"/><line style="stroke:#181818;stroke-width:0.5;stroke-dasharray:5.0,5.0;" x1="36" x2="36" y1="117.2813" y2="964.4609"/><line style="stroke:#181818;stroke-width:0.5;stroke-dasharray:5.0,5.0;" x1="410.5" x2="410.5" y1="117.2813" y2="964.4609"/><line style="stroke:#181818;stroke-width:0.5;stroke-dasharray:5.0,5.0;" x1="720.5" x2="720.5" y1="117.2813" y2="964.4609"/><line style="stroke:#181818;stroke-width:0.5;stroke-dasharray:5.0,5.0;" x1="913.5" x2="913.5" y1="117.2813" y2="964.4609"/><line style="stroke:#181818;stroke-width:0.5;stroke-dasharray:5.0,5.0;" x1="1056.5" x2="1056.5" y1="117.2813" y2="964.4609"/><line style="stroke:#181818;stroke-width:0.5;stroke-dasharray:5.0,5.0;" x1="1207.5" x2="1207.5" y1="117.2813" y2="964.4609"/><line style="stroke:#181818;stroke-width:0.5;stroke-dasharray:5.0,5.0;" x1="1374.5" x2="1374.5" y1="117.2813" y2="964.4609"/><line style="stroke:#181818;stroke-width:0.5;stroke-dasharray:5.0,5.0;" x1="1548.5" x2="1548.5" y1="117.2813" y2="964.4609"/><line style="stroke:#181818;stroke-width:0.5;stroke-dasharray:5.0,5.0;" x1="1733.5" x2="1733.5" y1="117.2813" y2="964.4609"/><text fill="#000000" font-family="sans-serif" font-size="14" lengthAdjust="spacing" textLength="57" x="5" y="114.3145">Operator</text><ellipse cx="36.5" cy="50.1406" fill="#E2E2F0" rx="8" ry="8" style="stroke:#181818;stroke-width:0.5;"/><path d="M36.5,58.1406 L36.5,85.1406 M23.5,66.1406 L49.5,66.1406 M36.5,85.1406 L23.5,100.1406 M36.5,85.1406 L49.5,100.1406 " fill="none" style="stroke:#181818;stroke-width:0.5;"/><text fill="#000000" font-family="sans-serif" font-size="14" lengthAdjust="spacing" textLength="57" x="5" y="976.1348">Operator</text><ellipse cx="36.5" cy="987.6016" fill="#E2E2F0" rx="8" ry="8" style="stroke:#181818;stroke-width:0.5;"/><path d="M36.5,995.6016 L36.5,1022.6016 M23.5,1003.6016 L49.5,1003.6016 M36.5,1022.6016 L23.5,1037.6016 M36.5,1022.6016 L49.5,1037.6016 " fill="none" style="stroke:#181818;stroke-width:0.5;"/><rect fill="#E2E2F0" height="29.6406" rx="2.5" ry="2.5" style="stroke:#181818;stroke-width:0.5;" width="180" x="320.5" y="86.6406"/><text fill="#000000" font-family="sans-serif" font-size="14" lengthAdjust="spacing" textLength="166" x="327.5" y="106.3145">JobRequirementsUploadUI</text><rect fill="#E2E2F0" height="29.6406" rx="2.5" ry="2.5" style="stroke:#181818;stroke-width:0.5;" width="180" x="320.5" y="963.4609"/><text fill="#000000" font-family="sans-serif" font-size="14" lengthAdjust="spacing" textLength="166" x="327.5" y="983.1348">JobRequirementsUploadUI</text><rect fill="#E2E2F0" height="29.6406" rx="2.5" ry="2.5" style="stroke:#181818;stroke-width:0.5;" width="230" x="605.5" y="86.6406"/><text fill="#000000" font-family="sans-serif" font-size="14" lengthAdjust="spacing" textLength="216" x="612.5" y="106.3145">JobRequirementsUploadController</text><rect fill="#E2E2F0" height="29.6406" rx="2.5" ry="2.5" style="stroke:#181818;stroke-width:0.5;" width="230" x="605.5" y="963.4609"/><text fill="#000000" font-family="sans-serif" font-size="14" lengthAdjust="spacing" textLength="216" x="612.5" y="983.1348">JobRequirementsUploadController</text><rect fill="#E2E2F0" height="29.6406" rx="2.5" ry="2.5" style="stroke:#181818;stroke-width:0.5;" width="136" x="845.5" y="86.6406"/><text fill="#000000" font-family="sans-serif" font-size="14" lengthAdjust="spacing" textLength="122" x="852.5" y="106.3145">PersistenceContext</text><rect fill="#E2E2F0" height="29.6406" rx="2.5" ry="2.5" style="stroke:#181818;stroke-width:0.5;" width="136" x="845.5" y="963.4609"/><text fill="#000000" font-family="sans-serif" font-size="14" lengthAdjust="spacing" textLength="122" x="852.5" y="983.1348">PersistenceContext</text><rect fill="#E2E2F0" height="29.6406" rx="2.5" ry="2.5" style="stroke:#181818;stroke-width:0.5;" width="130" x="991.5" y="86.6406"/><text fill="#000000" font-family="sans-serif" font-size="14" lengthAdjust="spacing" textLength="116" x="998.5" y="106.3145">RepositoryFactory</text><rect fill="#E2E2F0" height="29.6406" rx="2.5" ry="2.5" style="stroke:#181818;stroke-width:0.5;" width="130" x="991.5" y="963.4609"/><text fill="#000000" font-family="sans-serif" font-size="14" lengthAdjust="spacing" textLength="116" x="998.5" y="983.1348">RepositoryFactory</text><rect fill="#E2E2F0" height="29.6406" rx="2.5" ry="2.5" style="stroke:#181818;stroke-width:0.5;" width="152" x="1131.5" y="86.6406"/><text fill="#000000" font-family="sans-serif" font-size="14" lengthAdjust="spacing" textLength="138" x="1138.5" y="106.3145">JobApplicationService</text><rect fill="#E2E2F0" height="29.6406" rx="2.5" ry="2.5" style="stroke:#181818;stroke-width:0.5;" width="152" x="1131.5" y="963.4609"/><text fill="#000000" font-family="sans-serif" font-size="14" lengthAdjust="spacing" textLength="138" x="1138.5" y="983.1348">JobApplicationService</text><rect fill="#E2E2F0" height="29.6406" rx="2.5" ry="2.5" style="stroke:#181818;stroke-width:0.5;" width="163" x="1293.5" y="86.6406"/><text fill="#000000" font-family="sans-serif" font-size="14" lengthAdjust="spacing" textLength="149" x="1300.5" y="106.3145">JobRequirementsPlugin</text><rect fill="#E2E2F0" height="29.6406" rx="2.5" ry="2.5" style="stroke:#181818;stroke-width:0.5;" width="163" x="1293.5" y="963.4609"/><text fill="#000000" font-family="sans-serif" font-size="14" lengthAdjust="spacing" textLength="149" x="1300.5" y="983.1348">JobRequirementsPlugin</text><text fill="#000000" font-family="sans-serif" font-size="14" lengthAdjust="spacing" textLength="159" x="1466.5" y="114.3145">JobApplicationRepository</text><path d="M1531,65.6406 C1531,55.6406 1549,55.6406 1549,55.6406 C1549,55.6406 1567,55.6406 1567,65.6406 L1567,91.6406 C1567,101.6406 1549,101.6406 1549,101.6406 C1549,101.6406 1531,101.6406 1531,91.6406 L1531,65.6406 " fill="#E2E2F0" style="stroke:#181818;stroke-width:1.5;"/><path d="M1531,65.6406 C1531,75.6406 1549,75.6406 1549,75.6406 C1549,75.6406 1567,75.6406 1567,65.6406 " fill="none" style="stroke:#181818;stroke-width:1.5;"/><text fill="#000000" font-family="sans-serif" font-size="14" lengthAdjust="spacing" textLength="159" x="1466.5" y="976.1348">JobApplicationRepository</text><path d="M1531,989.1016 C1531,979.1016 1549,979.1016 1549,979.1016 C1549,979.1016 1567,979.1016 1567,989.1016 L1567,1015.1016 C1567,1025.1016 1549,1025.1016 1549,1025.1016 C1549,1025.1016 1531,1025.1016 1531,1015.1016 L1531,989.1016 " fill="#E2E2F0" style="stroke:#181818;stroke-width:1.5;"/><path d="M1531,989.1016 C1531,999.1016 1549,999.1016 1549,999.1016 C1549,999.1016 1567,999.1016 1567,989.1016 " fill="none" style="stroke:#181818;stroke-width:1.5;"/><text fill="#000000" font-family="sans-serif" font-size="14" lengthAdjust="spacing" textLength="178" x="1641.5" y="114.3145">JobRequirementsRepository</text><path d="M1715.5,65.6406 C1715.5,55.6406 1733.5,55.6406 1733.5,55.6406 C1733.5,55.6406 1751.5,55.6406 1751.5,65.6406 L1751.5,91.6406 C1751.5,101.6406 1733.5,101.6406 1733.5,101.6406 C1733.5,101.6406 1715.5,101.6406 1715.5,91.6406 L1715.5,65.6406 " fill="#E2E2F0" style="stroke:#181818;stroke-width:1.5;"/><path d="M1715.5,65.6406 C1715.5,75.6406 1733.5,75.6406 1733.5,75.6406 C1733.5,75.6406 1751.5,75.6406 1751.5,65.6406 " fill="none" style="stroke:#181818;stroke-width:1.5;"/><text fill="#000000" font-family="sans-serif" font-size="14" lengthAdjust="spacing" textLength="178" x="1641.5" y="976.1348">JobRequirementsRepository</text><path d="M1715.5,989.1016 C1715.5,979.1016 1733.5,979.1016 1733.5,979.1016 C1733.5,979.1016 1751.5,979.1016 1751.5,989.1016 L1751.5,1015.1016 C1751.5,1025.1016 1733.5,1025.1016 1733.5,1025.1016 C1733.5,1025.1016 1715.5,1025.1016 1715.5,1015.1016 L1715.5,989.1016 " fill="#E2E2F0" style="stroke:#181818;stroke-width:1.5;"/><path d="M1715.5,989.1016 C1715.5,999.1016 1733.5,999.1016 1733.5,999.1016 C1733.5,999.1016 1751.5,999.1016 1751.5,989.1016 " fill="none" style="stroke:#181818;stroke-width:1.5;"/><rect fill="#FFFFFF" height="819.1797" style="stroke:#181818;stroke-width:1.0;" width="10" x="31.5" y="127.2813"/><rect fill="#FFFFFF" height="798.6563" style="stroke:#181818;stroke-width:1.0;" width="10" x="405.5" y="147.8047"/><rect fill="#FFFFFF" height="313.7578" style="stroke:#181818;stroke-width:1.0;" width="10" x="715.5" y="261.8984"/><rect fill="#FFFFFF" height="28.5234" style="stroke:#181818;stroke-width:1.0;" width="10" x="1051.5" y="375.9922"/><rect fill="#FFFFFF" height="28.5234" style="stroke:#181818;stroke-width:1.0;" width="10" x="1051.5" y="746.7969"/><rect fill="#FFFFFF" height="85.5703" style="stroke:#181818;stroke-width:1.0;" width="10" x="1202.5" y="461.5625"/><rect fill="#FFFFFF" height="28.5234" style="stroke:#181818;stroke-width:1.0;" width="10" x="1370" y="860.8906"/><rect fill="#FFFFFF" height="28.5234" style="stroke:#181818;stroke-width:1.0;" width="10" x="1544" y="490.0859"/><rect fill="#FFFFFF" height="28.5234" style="stroke:#181818;stroke-width:1.0;" width="10" x="1728.5" y="803.8438"/><polygon fill="#181818" points="393.5,143.8047,403.5,147.8047,393.5,151.8047,397.5,147.8047" style="stroke:#181818;stroke-width:1.0;"/><line style="stroke:#181818;stroke-width:1.0;" x1="41.5" x2="399.5" y1="147.8047" y2="147.8047"/><text fill="#000000" font-family="sans-serif" font-size="13" lengthAdjust="spacing" textLength="156" x="48.5" y="143.0498">Upload Candidate Answers</text><polygon fill="#181818" points="708.5,172.3281,718.5,176.3281,708.5,180.3281,712.5,176.3281" style="stroke:#181818;stroke-width:1.0;"/><line style="stroke:#181818;stroke-width:1.0;" x1="415.5" x2="714.5" y1="176.3281" y2="176.3281"/><text fill="#000000" font-family="sans-serif" font-size="13" lengthAdjust="spacing" textLength="44" x="422.5" y="171.5732">create()</text><polygon fill="#181818" points="52.5,200.8516,42.5,204.8516,52.5,208.8516,48.5,204.8516" style="stroke:#181818;stroke-width:1.0;"/><line style="stroke:#181818;stroke-width:1.0;stroke-dasharray:2.0,2.0;" x1="46.5" x2="404.5" y1="204.8516" y2="204.8516"/><text fill="#000000" font-family="sans-serif" font-size="13" lengthAdjust="spacing" textLength="340" x="58.5" y="200.0967">insert the job reference you want to upload the interview file</text><polygon fill="#181818" points="393.5,229.375,403.5,233.375,393.5,237.375,397.5,233.375" style="stroke:#181818;stroke-width:1.0;"/><line style="stroke:#181818;stroke-width:1.0;" x1="41.5" x2="399.5" y1="233.375" y2="233.375"/><text fill="#000000" font-family="sans-serif" font-size="13" lengthAdjust="spacing" textLength="132" x="48.5" y="228.6201">insert the job reference</text><polygon fill="#181818" points="703.5,257.8984,713.5,261.8984,703.5,265.8984,707.5,261.8984" style="stroke:#181818;stroke-width:1.0;"/><line style="stroke:#181818;stroke-width:1.0;" x1="415.5" x2="709.5" y1="261.8984" y2="261.8984"/><text fill="#000000" font-family="sans-serif" font-size="13" lengthAdjust="spacing" textLength="187" x="422.5" y="257.1436">allJobApplications(jobReference)</text><polygon fill="#181818" points="901.5,286.4219,911.5,290.4219,901.5,294.4219,905.5,290.4219" style="stroke:#181818;stroke-width:1.0;"/><line style="stroke:#181818;stroke-width:1.0;" x1="725.5" x2="907.5" y1="290.4219" y2="290.4219"/><text fill="#000000" font-family="sans-serif" font-size="13" lengthAdjust="spacing" textLength="44" x="732.5" y="285.667">create()</text><polygon fill="#181818" points="1044.5,314.9453,1054.5,318.9453,1044.5,322.9453,1048.5,318.9453" style="stroke:#181818;stroke-width:1.0;"/><line style="stroke:#181818;stroke-width:1.0;" x1="913.5" x2="1050.5" y1="318.9453" y2="318.9453"/><text fill="#000000" font-family="sans-serif" font-size="13" lengthAdjust="spacing" textLength="47" x="920.5" y="314.1904">factory()</text><polygon fill="#181818" points="736.5,343.4688,726.5,347.4688,736.5,351.4688,732.5,347.4688" style="stroke:#181818;stroke-width:1.0;"/><line style="stroke:#181818;stroke-width:1.0;stroke-dasharray:2.0,2.0;" x1="730.5" x2="1055.5" y1="347.4688" y2="347.4688"/><text fill="#000000" font-family="sans-serif" font-size="13" lengthAdjust="spacing" textLength="39" x="742.5" y="342.7139">factory</text><polygon fill="#181818" points="1039.5,371.9922,1049.5,375.9922,1039.5,379.9922,1043.5,375.9922" style="stroke:#181818;stroke-width:1.0;"/><line style="stroke:#181818;stroke-width:1.0;" x1="725.5" x2="1045.5" y1="375.9922" y2="375.9922"/><text fill="#000000" font-family="sans-serif" font-size="13" lengthAdjust="spacing" textLength="96" x="732.5" y="371.2373">jobApplications()</text><polygon fill="#181818" points="736.5,400.5156,726.5,404.5156,736.5,408.5156,732.5,404.5156" style="stroke:#181818;stroke-width:1.0;"/><line style="stroke:#181818;stroke-width:1.0;stroke-dasharray:2.0,2.0;" x1="730.5" x2="1055.5" y1="404.5156" y2="404.5156"/><text fill="#000000" font-family="sans-serif" font-size="13" lengthAdjust="spacing" textLength="146" x="742.5" y="399.7607">JobApplicationRepository</text><polygon fill="#181818" points="1195.5,429.0391,1205.5,433.0391,1195.5,437.0391,1199.5,433.0391" style="stroke:#181818;stroke-width:1.0;"/><line style="stroke:#181818;stroke-width:1.0;" x1="725.5" x2="1201.5" y1="433.0391" y2="433.0391"/><text fill="#000000" font-family="sans-serif" font-size="13" lengthAdjust="spacing" textLength="187" x="732.5" y="428.2842">create(jobApplicationRepository)</text><polygon fill="#181818" points="1190.5,457.5625,1200.5,461.5625,1190.5,465.5625,1194.5,461.5625" style="stroke:#181818;stroke-width:1.0;"/><line style="stroke:#181818;stroke-width:1.0;" x1="725.5" x2="1196.5" y1="461.5625" y2="461.5625"/><text fill="#000000" font-family="sans-serif" font-size="13" lengthAdjust="spacing" textLength="197" x="732.5" y="456.8076">findByJobReference(jobReference)</text><polygon fill="#181818" points="1532,486.0859,1542,490.0859,1532,494.0859,1536,490.0859" style="stroke:#181818;stroke-width:1.0;"/><line style="stroke:#181818;stroke-width:1.0;" x1="1212.5" x2="1538" y1="490.0859" y2="490.0859"/><text fill="#000000" font-family="sans-serif" font-size="13" lengthAdjust="spacing" textLength="197" x="1219.5" y="485.3311">findByJobReference(jobReference)</text><polygon fill="#181818" points="1223.5,514.6094,1213.5,518.6094,1223.5,522.6094,1219.5,518.6094" style="stroke:#181818;stroke-width:1.0;"/><line style="stroke:#181818;stroke-width:1.0;stroke-dasharray:2.0,2.0;" x1="1217.5" x2="1548" y1="518.6094" y2="518.6094"/><text fill="#000000" font-family="sans-serif" font-size="13" lengthAdjust="spacing" textLength="69" x="1229.5" y="513.8545">applications</text><polygon fill="#181818" points="736.5,543.1328,726.5,547.1328,736.5,551.1328,732.5,547.1328" style="stroke:#181818;stroke-width:1.0;"/><line style="stroke:#181818;stroke-width:1.0;stroke-dasharray:2.0,2.0;" x1="730.5" x2="1206.5" y1="547.1328" y2="547.1328"/><text fill="#000000" font-family="sans-serif" font-size="13" lengthAdjust="spacing" textLength="69" x="742.5" y="542.3779">applications</text><polygon fill="#181818" points="426.5,571.6563,416.5,575.6563,426.5,579.6563,422.5,575.6563" style="stroke:#181818;stroke-width:1.0;"/><line style="stroke:#181818;stroke-width:1.0;stroke-dasharray:2.0,2.0;" x1="420.5" x2="719.5" y1="575.6563" y2="575.6563"/><text fill="#000000" font-family="sans-serif" font-size="13" lengthAdjust="spacing" textLength="69" x="432.5" y="570.9014">applications</text><polygon fill="#181818" points="52.5,600.1797,42.5,604.1797,52.5,608.1797,48.5,604.1797" style="stroke:#181818;stroke-width:1.0;"/><line style="stroke:#181818;stroke-width:1.0;stroke-dasharray:2.0,2.0;" x1="46.5" x2="404.5" y1="604.1797" y2="604.1797"/><text fill="#000000" font-family="sans-serif" font-size="13" lengthAdjust="spacing" textLength="103" x="58.5" y="599.4248">show applications</text><polygon fill="#181818" points="393.5,628.7031,403.5,632.7031,393.5,636.7031,397.5,632.7031" style="stroke:#181818;stroke-width:1.0;"/><line style="stroke:#181818;stroke-width:1.0;" x1="41.5" x2="399.5" y1="632.7031" y2="632.7031"/><text fill="#000000" font-family="sans-serif" font-size="13" lengthAdjust="spacing" textLength="126" x="48.5" y="627.9482">choose an application</text><polygon fill="#181818" points="52.5,657.2266,42.5,661.2266,52.5,665.2266,48.5,661.2266" style="stroke:#181818;stroke-width:1.0;"/><line style="stroke:#181818;stroke-width:1.0;stroke-dasharray:2.0,2.0;" x1="46.5" x2="404.5" y1="661.2266" y2="661.2266"/><text fill="#000000" font-family="sans-serif" font-size="13" lengthAdjust="spacing" textLength="287" x="58.5" y="656.4717">asks to insert the path of the file with the answers</text><polygon fill="#181818" points="393.5,685.75,403.5,689.75,393.5,693.75,397.5,689.75" style="stroke:#181818;stroke-width:1.0;"/><line style="stroke:#181818;stroke-width:1.0;" x1="41.5" x2="399.5" y1="689.75" y2="689.75"/><text fill="#000000" font-family="sans-serif" font-size="13" lengthAdjust="spacing" textLength="90" x="48.5" y="684.9951">inserts the path</text><polygon fill="#181818" points="708.5,714.2734,718.5,718.2734,708.5,722.2734,712.5,718.2734" style="stroke:#181818;stroke-width:1.0;"/><line style="stroke:#181818;stroke-width:1.0;" x1="415.5" x2="714.5" y1="718.2734" y2="718.2734"/><text fill="#000000" font-family="sans-serif" font-size="13" lengthAdjust="spacing" textLength="281" x="422.5" y="713.5186">validateFile(inputPath, outputPath, jobReference)</text><polygon fill="#181818" points="1039.5,742.7969,1049.5,746.7969,1039.5,750.7969,1043.5,746.7969" style="stroke:#181818;stroke-width:1.0;"/><line style="stroke:#181818;stroke-width:1.0;" x1="720.5" x2="1045.5" y1="746.7969" y2="746.7969"/><text fill="#000000" font-family="sans-serif" font-size="13" lengthAdjust="spacing" textLength="105" x="727.5" y="742.042">jobRequirements()</text><polygon fill="#181818" points="731.5,771.3203,721.5,775.3203,731.5,779.3203,727.5,775.3203" style="stroke:#181818;stroke-width:1.0;"/><line style="stroke:#181818;stroke-width:1.0;stroke-dasharray:2.0,2.0;" x1="725.5" x2="1055.5" y1="775.3203" y2="775.3203"/><text fill="#000000" font-family="sans-serif" font-size="13" lengthAdjust="spacing" textLength="162" x="737.5" y="770.5654">JobRequirementsRepository</text><polygon fill="#181818" points="1716.5,799.8438,1726.5,803.8438,1716.5,807.8438,1720.5,803.8438" style="stroke:#181818;stroke-width:1.0;"/><line style="stroke:#181818;stroke-width:1.0;" x1="720.5" x2="1722.5" y1="803.8438" y2="803.8438"/><text fill="#000000" font-family="sans-serif" font-size="13" lengthAdjust="spacing" textLength="197" x="727.5" y="799.0889">findByJobReference(jobReference)</text><polygon fill="#181818" points="731.5,828.3672,721.5,832.3672,731.5,836.3672,727.5,832.3672" style="stroke:#181818;stroke-width:1.0;"/><line style="stroke:#181818;stroke-width:1.0;stroke-dasharray:2.0,2.0;" x1="725.5" x2="1732.5" y1="832.3672" y2="832.3672"/><text fill="#000000" font-family="sans-serif" font-size="13" lengthAdjust="spacing" textLength="93" x="737.5" y="827.6123">JobRequirement</text><polygon fill="#181818" points="1358,856.8906,1368,860.8906,1358,864.8906,1362,860.8906" style="stroke:#181818;stroke-width:1.0;"/><line style="stroke:#181818;stroke-width:1.0;" x1="720.5" x2="1364" y1="860.8906" y2="860.8906"/><text fill="#000000" font-family="sans-serif" font-size="13" lengthAdjust="spacing" textLength="223" x="727.5" y="856.1357">evaluateJobRequirement(Input, Output)</text><polygon fill="#181818" points="731.5,885.4141,721.5,889.4141,731.5,893.4141,727.5,889.4141" style="stroke:#181818;stroke-width:1.0;"/><line style="stroke:#181818;stroke-width:1.0;stroke-dasharray:2.0,2.0;" x1="725.5" x2="1374" y1="889.4141" y2="889.4141"/><text fill="#000000" font-family="sans-serif" font-size="13" lengthAdjust="spacing" textLength="53" x="737.5" y="884.6592">message</text><polygon fill="#181818" points="426.5,913.9375,416.5,917.9375,426.5,921.9375,422.5,917.9375" style="stroke:#181818;stroke-width:1.0;"/><line style="stroke:#181818;stroke-width:1.0;stroke-dasharray:2.0,2.0;" x1="420.5" x2="719.5" y1="917.9375" y2="917.9375"/><text fill="#000000" font-family="sans-serif" font-size="13" lengthAdjust="spacing" textLength="53" x="432.5" y="913.1826">message</text><polygon fill="#181818" points="47.5,942.4609,37.5,946.4609,47.5,950.4609,43.5,946.4609" style="stroke:#181818;stroke-width:1.0;"/><line style="stroke:#181818;stroke-width:1.0;stroke-dasharray:2.0,2.0;" x1="41.5" x2="409.5" y1="946.4609" y2="946.4609"/><text fill="#000000" font-family="sans-serif" font-size="13" lengthAdjust="spacing" textLength="331" x="53.5" y="941.7061">displays the message(syntax correct/ syntax not correct)</text><!--SRC=[hLRBRkCW5DtxAwwwIgH6iyzYf4wbIgaqQjHHFe3ODmqP2Xx0IVtt0_W53hXkr6nYmpdtt1VNQAePmgvaWXImuHhbcU85dYZ3B2Ev5X9UIfJ4FX053tOboqeYDSrfIRY6ksUnVyL_5PNuZbohnjPkSsVnkyqCxAFWMWh6K3hEy1fojoWLLHfvZXQ27zh1lUKG_ugbKDJuMp-vG6e7Rv-lt7eeIqPpegdWVsmISdJmwCvaJ5jMlL7ko7q-Vui2MREH5KIJFL4uLXtSZGWFco7V5nuP2CKz0xQiz4mqTjLqVx3wQQgrxbhXaV225Wx4rSMaE0FpwvcchcvXjx6yeM9ho2KQm68vx1j0ex06oXLA3Vg8S19xa7X0QGi7jQZWOhEf1LID1nP4-uOyk8Qq9Zrl9op6tJC4mbYOMhKusJoslANZ1R5w_TXlsfzdreXuRGX-5WAA3pASjXSD_j0yNH4wn6eSHal8fbmQp9z64Iz3MXzgTpZc-P1iqO1UuBJvqEVeUHiIUaf8Bc-nUQ2y-5K_UzKVjK8yIV6H463ZYbUk3Fv_bpUf8YHrLnFv8LxB96jwYtwVaAl3-NN5QFxz-dUJOfRjr5aVpJ5r59UHmG0UpgZyA8IPruJxb4dxHFrLTXHwqwqa-WZYu9xjC8GBDGlsZRG3UiA3nexg3LsBZmfn9inDVtiFM51ULdfhQFSWAjq_JtJdn1polrZVDuVYty5F1r7QvzJNy_Q3cluU-_2axYTH9qDDoywElhcu64aqRL4Pew7qOcFxunvUN6_C2x-z2qs4tefUXVsEIf4td1blJ2Ss7A9MHuUoeAfaf6vEKKjOg9fhyW6va19p_GFQTovqjxOCRFgkcajKQgkvcVq7]--></g></svg>