<?xml version="1.0" encoding="us-ascii" standalone="no"?><svg xmlns="http://www.w3.org/2000/svg" xmlns:xlink="http://www.w3.org/1999/xlink" contentStyleType="text/css" height="1019px" preserveAspectRatio="none" style="width:763px;height:1019px;background:#FFFFFF;" version="1.1" viewBox="0 0 763 1019" width="763px" zoomAndPan="magnify"><defs><filter height="300%" id="fl6r48ky5ymoz" width="300%" x="-1" y="-1"><feGaussianBlur result="blurOut" stdDeviation="2.0"/><feColorMatrix in="blurOut" result="blurOut2" type="matrix" values="0 0 0 0 0 0 0 0 0 0 0 0 0 0 0 0 0 0 .4 0"/><feOffset dx="4.0" dy="4.0" in="blurOut2" result="blurOut3"/><feBlend in="SourceGraphic" in2="blurOut3" mode="normal"/></filter></defs><g><!--class ListApplicationsUI--><g id="elem_ListApplicationsUI"><rect codeLine="8" fill="#F1F1F1" filter="url(#fl6r48ky5ymoz)" height="172.3086" id="ListApplicationsUI" rx="2.5" ry="2.5" style="stroke:#181818;stroke-width:0.5;" width="145" x="212.5" y="7"/><ellipse cx="228.85" cy="29.291" fill="#ADD1B2" rx="11" ry="11" style="stroke:#181818;stroke-width:1.0;"/><path d="M231.6156,25.166 Q231.7719,24.9473 231.9594,24.8379 Q232.1469,24.7285 232.3656,24.7285 Q232.7406,24.7285 232.975,24.9941 Q233.2094,25.2441 233.2094,25.8535 L233.2094,27.3066 Q233.2094,27.916 232.975,28.1816 Q232.7406,28.4473 232.3656,28.4473 Q232.0219,28.4473 231.8188,28.2441 Q231.6156,28.0566 231.5063,27.541 Q231.4594,27.1816 231.2719,26.9941 Q230.9438,26.6191 230.3344,26.4004 Q229.725,26.1816 229.1,26.1816 Q228.3344,26.1816 227.6938,26.5098 Q227.0688,26.8379 226.5688,27.5879 Q226.0844,28.3379 226.0844,29.3691 L226.0844,30.4629 Q226.0844,31.6973 226.975,32.5254 Q227.8656,33.3379 229.4594,33.3379 Q230.3969,33.3379 231.0531,33.0879 Q231.4438,32.9316 231.8656,32.4941 Q232.1313,32.2285 232.2719,32.1504 Q232.4281,32.0723 232.6313,32.0723 Q232.9594,32.0723 233.2094,32.3379 Q233.475,32.5879 233.475,32.9316 Q233.475,33.2754 233.1313,33.6816 Q232.6313,34.2598 231.8344,34.5879 Q230.7563,35.041 229.4594,35.041 Q227.9438,35.041 226.7406,34.416 Q225.7563,33.916 225.0688,32.8535 Q224.3813,31.7754 224.3813,30.4941 L224.3813,29.3379 Q224.3813,28.0098 224.9906,26.8691 Q225.6156,25.7129 226.7094,25.1035 Q227.8031,24.4785 229.0375,24.4785 Q229.7719,24.4785 230.4125,24.6504 Q231.0688,24.8066 231.6156,25.166 Z " fill="#000000"/><text fill="#000000" font-family="FG Virgil" font-size="12" font-style="italic" lengthAdjust="spacing" textLength="82" x="257.15" y="24.9492">&#171;presentation&#187;</text><text fill="#000000" font-family="FG Virgil" font-size="14" lengthAdjust="spacing" textLength="110" x="243.15" y="43.0684">ListApplicationsUI</text><line style="stroke:#181818;stroke-width:0.5;" x1="213.5" x2="356.5" y1="51.582" y2="51.582"/><line style="stroke:#181818;stroke-width:0.5;" x1="213.5" x2="356.5" y1="59.582" y2="59.582"/><rect fill="#F24D5C" height="6" style="stroke:#C82930;stroke-width:1.0;" width="6" x="220.5" y="71.3926"/><text fill="#000000" font-family="FG Virgil" font-size="14" lengthAdjust="spacing" textLength="64" x="232.5" y="78.6895">headline()</text><rect fill="#F24D5C" height="6" style="stroke:#C82930;stroke-width:1.0;" width="6" x="220.5" y="90.0137"/><text fill="#000000" font-family="FG Virgil" font-size="14" lengthAdjust="spacing" textLength="60" x="232.5" y="97.3105">doShow()</text><rect fill="#F24D5C" height="6" style="stroke:#C82930;stroke-width:1.0;" width="6" x="220.5" y="108.6348"/><text fill="#000000" font-family="FG Virgil" font-size="14" lengthAdjust="spacing" textLength="67" x="232.5" y="115.9316">elements()</text><rect fill="#F24D5C" height="6" style="stroke:#C82930;stroke-width:1.0;" width="6" x="220.5" y="127.2559"/><text fill="#000000" font-family="FG Virgil" font-size="14" lengthAdjust="spacing" textLength="119" x="232.5" y="134.5527">listApplicationInfo()</text><rect fill="#F24D5C" height="6" style="stroke:#C82930;stroke-width:1.0;" width="6" x="220.5" y="145.877"/><text fill="#000000" font-family="FG Virgil" font-size="14" lengthAdjust="spacing" textLength="34" x="232.5" y="153.1738">visit()</text><rect fill="#F24D5C" height="6" style="stroke:#C82930;stroke-width:1.0;" width="6" x="220.5" y="164.498"/><text fill="#000000" font-family="FG Virgil" font-size="14" lengthAdjust="spacing" textLength="73" x="232.5" y="171.7949">listHeader()</text></g><!--class ListApplicationsController--><g id="elem_ListApplicationsController"><rect codeLine="17" fill="#F1F1F1" filter="url(#fl6r48ky5ymoz)" height="97.8242" id="ListApplicationsController" rx="2.5" ry="2.5" style="stroke:#181818;stroke-width:0.5;" width="324" x="123" y="258"/><ellipse cx="200.75" cy="280.291" fill="#ADD1B2" rx="11" ry="11" style="stroke:#181818;stroke-width:1.0;"/><path d="M203.5156,276.166 Q203.6719,275.9473 203.8594,275.8379 Q204.0469,275.7285 204.2656,275.7285 Q204.6406,275.7285 204.875,275.9941 Q205.1094,276.2441 205.1094,276.8535 L205.1094,278.3066 Q205.1094,278.916 204.875,279.1816 Q204.6406,279.4473 204.2656,279.4473 Q203.9219,279.4473 203.7188,279.2441 Q203.5156,279.0566 203.4063,278.541 Q203.3594,278.1816 203.1719,277.9941 Q202.8438,277.6191 202.2344,277.4004 Q201.625,277.1816 201,277.1816 Q200.2344,277.1816 199.5938,277.5098 Q198.9688,277.8379 198.4688,278.5879 Q197.9844,279.3379 197.9844,280.3691 L197.9844,281.4629 Q197.9844,282.6973 198.875,283.5254 Q199.7656,284.3379 201.3594,284.3379 Q202.2969,284.3379 202.9531,284.0879 Q203.3438,283.9316 203.7656,283.4941 Q204.0313,283.2285 204.1719,283.1504 Q204.3281,283.0723 204.5313,283.0723 Q204.8594,283.0723 205.1094,283.3379 Q205.375,283.5879 205.375,283.9316 Q205.375,284.2754 205.0313,284.6816 Q204.5313,285.2598 203.7344,285.5879 Q202.6563,286.041 201.3594,286.041 Q199.8438,286.041 198.6406,285.416 Q197.6563,284.916 196.9688,283.8535 Q196.2813,282.7754 196.2813,281.4941 L196.2813,280.3379 Q196.2813,279.0098 196.8906,277.8691 Q197.5156,276.7129 198.6094,276.1035 Q199.7031,275.4785 200.9375,275.4785 Q201.6719,275.4785 202.3125,275.6504 Q202.9688,275.8066 203.5156,276.166 Z " fill="#000000"/><text fill="#000000" font-family="FG Virgil" font-size="12" font-style="italic" lengthAdjust="spacing" textLength="74" x="264.25" y="275.9492">&#171;application&#187;</text><text fill="#000000" font-family="FG Virgil" font-size="14" lengthAdjust="spacing" textLength="160" x="221.25" y="294.0684">ListApplicationsController</text><line style="stroke:#181818;stroke-width:0.5;" x1="124" x2="446" y1="302.582" y2="302.582"/><line style="stroke:#181818;stroke-width:0.5;" x1="124" x2="446" y1="310.582" y2="310.582"/><rect fill="#F24D5C" height="6" style="stroke:#C82930;stroke-width:1.0;" width="6" x="131" y="322.3926"/><text fill="#000000" font-family="FG Virgil" font-size="14" lengthAdjust="spacing" textLength="128" x="143" y="329.6895">listBackofficeUsers()</text><rect fill="#F24D5C" height="6" style="stroke:#C82930;stroke-width:1.0;" width="6" x="131" y="341.0137"/><text fill="#000000" font-family="FG Virgil" font-size="14" lengthAdjust="spacing" textLength="298" x="143" y="348.3105">filterBackofficeUsers(users : List&lt;SystemUser&gt;)</text></g><!--class AuthorizationService--><g id="elem_AuthorizationService"><rect codeLine="22" fill="#F1F1F1" filter="url(#fl6r48ky5ymoz)" height="79.2031" id="AuthorizationService" rx="2.5" ry="2.5" style="stroke:#181818;stroke-width:0.5;" width="368" x="7" y="435"/><ellipse cx="122.25" cy="457.291" fill="#ADD1B2" rx="11" ry="11" style="stroke:#181818;stroke-width:1.0;"/><path d="M125.0156,453.166 Q125.1719,452.9473 125.3594,452.8379 Q125.5469,452.7285 125.7656,452.7285 Q126.1406,452.7285 126.375,452.9941 Q126.6094,453.2441 126.6094,453.8535 L126.6094,455.3066 Q126.6094,455.916 126.375,456.1816 Q126.1406,456.4473 125.7656,456.4473 Q125.4219,456.4473 125.2188,456.2441 Q125.0156,456.0566 124.9063,455.541 Q124.8594,455.1816 124.6719,454.9941 Q124.3438,454.6191 123.7344,454.4004 Q123.125,454.1816 122.5,454.1816 Q121.7344,454.1816 121.0938,454.5098 Q120.4688,454.8379 119.9688,455.5879 Q119.4844,456.3379 119.4844,457.3691 L119.4844,458.4629 Q119.4844,459.6973 120.375,460.5254 Q121.2656,461.3379 122.8594,461.3379 Q123.7969,461.3379 124.4531,461.0879 Q124.8438,460.9316 125.2656,460.4941 Q125.5313,460.2285 125.6719,460.1504 Q125.8281,460.0723 126.0313,460.0723 Q126.3594,460.0723 126.6094,460.3379 Q126.875,460.5879 126.875,460.9316 Q126.875,461.2754 126.5313,461.6816 Q126.0313,462.2598 125.2344,462.5879 Q124.1563,463.041 122.8594,463.041 Q121.3438,463.041 120.1406,462.416 Q119.1563,461.916 118.4688,460.8535 Q117.7813,459.7754 117.7813,458.4941 L117.7813,457.3379 Q117.7813,456.0098 118.3906,454.8691 Q119.0156,453.7129 120.1094,453.1035 Q121.2031,452.4785 122.4375,452.4785 Q123.1719,452.4785 123.8125,452.6504 Q124.4688,452.8066 125.0156,453.166 Z " fill="#000000"/><text fill="#000000" font-family="FG Virgil" font-size="12" font-style="italic" lengthAdjust="spacing" textLength="53" x="180.75" y="452.9492">&#171;service&#187;</text><text fill="#000000" font-family="FG Virgil" font-size="14" lengthAdjust="spacing" textLength="129" x="142.75" y="471.0684">AuthorizationService</text><line style="stroke:#181818;stroke-width:0.5;" x1="8" x2="374" y1="479.582" y2="479.582"/><line style="stroke:#181818;stroke-width:0.5;" x1="8" x2="374" y1="487.582" y2="487.582"/><rect fill="#F24D5C" height="6" style="stroke:#C82930;stroke-width:1.0;" width="6" x="15" y="499.3926"/><text fill="#000000" font-family="FG Virgil" font-size="14" lengthAdjust="spacing" textLength="342" x="27" y="506.6895">ensureAuthenticatedUserHasAnyOf(roles : Set&lt;Role&gt;)</text></g><!--class PersistenceContext--><g id="elem_PersistenceContext"><rect codeLine="26" fill="#F1F1F1" filter="url(#fl6r48ky5ymoz)" height="79.2031" id="PersistenceContext" rx="2.5" ry="2.5" style="stroke:#181818;stroke-width:0.5;" width="154" x="268" y="602.5"/><ellipse cx="283" cy="624.791" fill="#ADD1B2" rx="11" ry="11" style="stroke:#181818;stroke-width:1.0;"/><path d="M285.7656,620.666 Q285.9219,620.4473 286.1094,620.3379 Q286.2969,620.2285 286.5156,620.2285 Q286.8906,620.2285 287.125,620.4941 Q287.3594,620.7441 287.3594,621.3535 L287.3594,622.8066 Q287.3594,623.416 287.125,623.6816 Q286.8906,623.9473 286.5156,623.9473 Q286.1719,623.9473 285.9688,623.7441 Q285.7656,623.5566 285.6563,623.041 Q285.6094,622.6816 285.4219,622.4941 Q285.0938,622.1191 284.4844,621.9004 Q283.875,621.6816 283.25,621.6816 Q282.4844,621.6816 281.8438,622.0098 Q281.2188,622.3379 280.7188,623.0879 Q280.2344,623.8379 280.2344,624.8691 L280.2344,625.9629 Q280.2344,627.1973 281.125,628.0254 Q282.0156,628.8379 283.6094,628.8379 Q284.5469,628.8379 285.2031,628.5879 Q285.5938,628.4316 286.0156,627.9941 Q286.2813,627.7285 286.4219,627.6504 Q286.5781,627.5723 286.7813,627.5723 Q287.1094,627.5723 287.3594,627.8379 Q287.625,628.0879 287.625,628.4316 Q287.625,628.7754 287.2813,629.1816 Q286.7813,629.7598 285.9844,630.0879 Q284.9063,630.541 283.6094,630.541 Q282.0938,630.541 280.8906,629.916 Q279.9063,629.416 279.2188,628.3535 Q278.5313,627.2754 278.5313,625.9941 L278.5313,624.8379 Q278.5313,623.5098 279.1406,622.3691 Q279.7656,621.2129 280.8594,620.6035 Q281.9531,619.9785 283.1875,619.9785 Q283.9219,619.9785 284.5625,620.1504 Q285.2188,620.3066 285.7656,620.666 Z " fill="#000000"/><text fill="#000000" font-family="FG Virgil" font-size="12" font-style="italic" lengthAdjust="spacing" textLength="77" x="319.5" y="620.4492">&#171;persistence&#187;</text><text fill="#000000" font-family="FG Virgil" font-size="14" lengthAdjust="spacing" textLength="122" x="297" y="638.5684">PersistenceContext</text><line style="stroke:#181818;stroke-width:0.5;" x1="269" x2="421" y1="647.082" y2="647.082"/><line style="stroke:#181818;stroke-width:0.5;" x1="269" x2="421" y1="655.082" y2="655.082"/><rect fill="#F24D5C" height="6" style="stroke:#C82930;stroke-width:1.0;" width="6" x="276" y="666.8926"/><text fill="#000000" font-family="FG Virgil" font-size="14" lengthAdjust="spacing" textLength="84" x="288" y="674.1895">repositories()</text></g><!--class RepositoryFactory--><g id="elem_RepositoryFactory"><rect codeLine="30" fill="#F1F1F1" filter="url(#fl6r48ky5ymoz)" height="79.2031" id="RepositoryFactory" rx="2.5" ry="2.5" style="stroke:#181818;stroke-width:0.5;" width="148" x="271" y="770"/><ellipse cx="286" cy="792.291" fill="#ADD1B2" rx="11" ry="11" style="stroke:#181818;stroke-width:1.0;"/><path d="M288.7656,788.166 Q288.9219,787.9473 289.1094,787.8379 Q289.2969,787.7285 289.5156,787.7285 Q289.8906,787.7285 290.125,787.9941 Q290.3594,788.2441 290.3594,788.8535 L290.3594,790.3066 Q290.3594,790.916 290.125,791.1816 Q289.8906,791.4473 289.5156,791.4473 Q289.1719,791.4473 288.9688,791.2441 Q288.7656,791.0566 288.6563,790.541 Q288.6094,790.1816 288.4219,789.9941 Q288.0938,789.6191 287.4844,789.4004 Q286.875,789.1816 286.25,789.1816 Q285.4844,789.1816 284.8438,789.5098 Q284.2188,789.8379 283.7188,790.5879 Q283.2344,791.3379 283.2344,792.3691 L283.2344,793.4629 Q283.2344,794.6973 284.125,795.5254 Q285.0156,796.3379 286.6094,796.3379 Q287.5469,796.3379 288.2031,796.0879 Q288.5938,795.9316 289.0156,795.4941 Q289.2813,795.2285 289.4219,795.1504 Q289.5781,795.0723 289.7813,795.0723 Q290.1094,795.0723 290.3594,795.3379 Q290.625,795.5879 290.625,795.9316 Q290.625,796.2754 290.2813,796.6816 Q289.7813,797.2598 288.9844,797.5879 Q287.9063,798.041 286.6094,798.041 Q285.0938,798.041 283.8906,797.416 Q282.9063,796.916 282.2188,795.8535 Q281.5313,794.7754 281.5313,793.4941 L281.5313,792.3379 Q281.5313,791.0098 282.1406,789.8691 Q282.7656,788.7129 283.8594,788.1035 Q284.9531,787.4785 286.1875,787.4785 Q286.9219,787.4785 287.5625,787.6504 Q288.2188,787.8066 288.7656,788.166 Z " fill="#000000"/><text fill="#000000" font-family="FG Virgil" font-size="12" font-style="italic" lengthAdjust="spacing" textLength="50" x="333" y="787.9492">&#171;factory&#187;</text><text fill="#000000" font-family="FG Virgil" font-size="14" lengthAdjust="spacing" textLength="116" x="300" y="806.0684">RepositoryFactory</text><line style="stroke:#181818;stroke-width:0.5;" x1="272" x2="418" y1="814.582" y2="814.582"/><line style="stroke:#181818;stroke-width:0.5;" x1="272" x2="418" y1="822.582" y2="822.582"/><rect fill="#F24D5C" height="6" style="stroke:#C82930;stroke-width:1.0;" width="6" x="279" y="834.3926"/><text fill="#000000" font-family="FG Virgil" font-size="14" lengthAdjust="spacing" textLength="45" x="291" y="841.6895">users()</text></g><!--class JobApplicationRepository--><g id="elem_JobApplicationRepository"><rect codeLine="34" fill="#F1F1F1" filter="url(#fl6r48ky5ymoz)" height="79.2031" id="JobApplicationRepository" rx="2.5" ry="2.5" style="stroke:#181818;stroke-width:0.5;" width="191" x="249.5" y="928"/><ellipse cx="264.5" cy="950.291" fill="#ADD1B2" rx="11" ry="11" style="stroke:#181818;stroke-width:1.0;"/><path d="M267.2656,946.166 Q267.4219,945.9473 267.6094,945.8379 Q267.7969,945.7285 268.0156,945.7285 Q268.3906,945.7285 268.625,945.9941 Q268.8594,946.2441 268.8594,946.8535 L268.8594,948.3066 Q268.8594,948.916 268.625,949.1816 Q268.3906,949.4473 268.0156,949.4473 Q267.6719,949.4473 267.4688,949.2441 Q267.2656,949.0566 267.1563,948.541 Q267.1094,948.1816 266.9219,947.9941 Q266.5938,947.6191 265.9844,947.4004 Q265.375,947.1816 264.75,947.1816 Q263.9844,947.1816 263.3438,947.5098 Q262.7188,947.8379 262.2188,948.5879 Q261.7344,949.3379 261.7344,950.3691 L261.7344,951.4629 Q261.7344,952.6973 262.625,953.5254 Q263.5156,954.3379 265.1094,954.3379 Q266.0469,954.3379 266.7031,954.0879 Q267.0938,953.9316 267.5156,953.4941 Q267.7813,953.2285 267.9219,953.1504 Q268.0781,953.0723 268.2813,953.0723 Q268.6094,953.0723 268.8594,953.3379 Q269.125,953.5879 269.125,953.9316 Q269.125,954.2754 268.7813,954.6816 Q268.2813,955.2598 267.4844,955.5879 Q266.4063,956.041 265.1094,956.041 Q263.5938,956.041 262.3906,955.416 Q261.4063,954.916 260.7188,953.8535 Q260.0313,952.7754 260.0313,951.4941 L260.0313,950.3379 Q260.0313,949.0098 260.6406,947.8691 Q261.2656,946.7129 262.3594,946.1035 Q263.4531,945.4785 264.6875,945.4785 Q265.4219,945.4785 266.0625,945.6504 Q266.7188,945.8066 267.2656,946.166 Z " fill="#000000"/><text fill="#000000" font-family="FG Virgil" font-size="12" font-style="italic" lengthAdjust="spacing" textLength="68" x="324" y="945.9492">&#171;repository&#187;</text><text fill="#000000" font-family="FG Virgil" font-size="14" lengthAdjust="spacing" textLength="159" x="278.5" y="964.0684">JobApplicationRepository</text><line style="stroke:#181818;stroke-width:0.5;" x1="250.5" x2="439.5" y1="972.582" y2="972.582"/><line style="stroke:#181818;stroke-width:0.5;" x1="250.5" x2="439.5" y1="980.582" y2="980.582"/><rect fill="#F24D5C" height="6" style="stroke:#C82930;stroke-width:1.0;" width="6" x="257.5" y="992.3926"/><text fill="#000000" font-family="FG Virgil" font-size="14" lengthAdjust="spacing" textLength="48" x="269.5" y="999.6895">findAll()</text></g><!--class ListApplicationFromJobOpeningController--><g id="elem_ListApplicationFromJobOpeningController"><rect codeLine="38" fill="#F1F1F1" filter="url(#fl6r48ky5ymoz)" height="97.8242" id="ListApplicationFromJobOpeningController" rx="2.5" ry="2.5" style="stroke:#181818;stroke-width:0.5;" width="294" x="457" y="593"/><ellipse cx="472" cy="615.291" fill="#ADD1B2" rx="11" ry="11" style="stroke:#181818;stroke-width:1.0;"/><path d="M474.7656,611.166 Q474.9219,610.9473 475.1094,610.8379 Q475.2969,610.7285 475.5156,610.7285 Q475.8906,610.7285 476.125,610.9941 Q476.3594,611.2441 476.3594,611.8535 L476.3594,613.3066 Q476.3594,613.916 476.125,614.1816 Q475.8906,614.4473 475.5156,614.4473 Q475.1719,614.4473 474.9688,614.2441 Q474.7656,614.0566 474.6563,613.541 Q474.6094,613.1816 474.4219,612.9941 Q474.0938,612.6191 473.4844,612.4004 Q472.875,612.1816 472.25,612.1816 Q471.4844,612.1816 470.8438,612.5098 Q470.2188,612.8379 469.7188,613.5879 Q469.2344,614.3379 469.2344,615.3691 L469.2344,616.4629 Q469.2344,617.6973 470.125,618.5254 Q471.0156,619.3379 472.6094,619.3379 Q473.5469,619.3379 474.2031,619.0879 Q474.5938,618.9316 475.0156,618.4941 Q475.2813,618.2285 475.4219,618.1504 Q475.5781,618.0723 475.7813,618.0723 Q476.1094,618.0723 476.3594,618.3379 Q476.625,618.5879 476.625,618.9316 Q476.625,619.2754 476.2813,619.6816 Q475.7813,620.2598 474.9844,620.5879 Q473.9063,621.041 472.6094,621.041 Q471.0938,621.041 469.8906,620.416 Q468.9063,619.916 468.2188,618.8535 Q467.5313,617.7754 467.5313,616.4941 L467.5313,615.3379 Q467.5313,614.0098 468.1406,612.8691 Q468.7656,611.7129 469.8594,611.1035 Q470.9531,610.4785 472.1875,610.4785 Q472.9219,610.4785 473.5625,610.6504 Q474.2188,610.8066 474.7656,611.166 Z " fill="#000000"/><text fill="#000000" font-family="FG Virgil" font-size="12" font-style="italic" lengthAdjust="spacing" textLength="65" x="584.5" y="610.9492">&#171;controller&#187;</text><text fill="#000000" font-family="FG Virgil" font-size="14" lengthAdjust="spacing" textLength="262" x="486" y="629.0684">ListApplicationFromJobOpeningController</text><line style="stroke:#181818;stroke-width:0.5;" x1="458" x2="750" y1="637.582" y2="637.582"/><line style="stroke:#181818;stroke-width:0.5;" x1="458" x2="750" y1="645.582" y2="645.582"/><rect fill="#F24D5C" height="6" style="stroke:#C82930;stroke-width:1.0;" width="6" x="465" y="657.3926"/><text fill="#000000" font-family="FG Virgil" font-size="14" lengthAdjust="spacing" textLength="176" x="477" y="664.6895">listApplications(jobOpening)</text><rect fill="#F24D5C" height="6" style="stroke:#C82930;stroke-width:1.0;" width="6" x="465" y="676.0137"/><text fill="#000000" font-family="FG Virgil" font-size="14" lengthAdjust="spacing" textLength="125" x="477" y="683.3105">listAllJobOpenings()</text></g><!--class JobOpeningRepository--><g id="elem_JobOpeningRepository"><rect codeLine="43" fill="#F1F1F1" filter="url(#fl6r48ky5ymoz)" height="79.2031" id="JobOpeningRepository" rx="2.5" ry="2.5" style="stroke:#181818;stroke-width:0.5;" width="176" x="516" y="770"/><ellipse cx="531" cy="792.291" fill="#ADD1B2" rx="11" ry="11" style="stroke:#181818;stroke-width:1.0;"/><path d="M533.7656,788.166 Q533.9219,787.9473 534.1094,787.8379 Q534.2969,787.7285 534.5156,787.7285 Q534.8906,787.7285 535.125,787.9941 Q535.3594,788.2441 535.3594,788.8535 L535.3594,790.3066 Q535.3594,790.916 535.125,791.1816 Q534.8906,791.4473 534.5156,791.4473 Q534.1719,791.4473 533.9688,791.2441 Q533.7656,791.0566 533.6563,790.541 Q533.6094,790.1816 533.4219,789.9941 Q533.0938,789.6191 532.4844,789.4004 Q531.875,789.1816 531.25,789.1816 Q530.4844,789.1816 529.8438,789.5098 Q529.2188,789.8379 528.7188,790.5879 Q528.2344,791.3379 528.2344,792.3691 L528.2344,793.4629 Q528.2344,794.6973 529.125,795.5254 Q530.0156,796.3379 531.6094,796.3379 Q532.5469,796.3379 533.2031,796.0879 Q533.5938,795.9316 534.0156,795.4941 Q534.2813,795.2285 534.4219,795.1504 Q534.5781,795.0723 534.7813,795.0723 Q535.1094,795.0723 535.3594,795.3379 Q535.625,795.5879 535.625,795.9316 Q535.625,796.2754 535.2813,796.6816 Q534.7813,797.2598 533.9844,797.5879 Q532.9063,798.041 531.6094,798.041 Q530.0938,798.041 528.8906,797.416 Q527.9063,796.916 527.2188,795.8535 Q526.5313,794.7754 526.5313,793.4941 L526.5313,792.3379 Q526.5313,791.0098 527.1406,789.8691 Q527.7656,788.7129 528.8594,788.1035 Q529.9531,787.4785 531.1875,787.4785 Q531.9219,787.4785 532.5625,787.6504 Q533.2188,787.8066 533.7656,788.166 Z " fill="#000000"/><text fill="#000000" font-family="FG Virgil" font-size="12" font-style="italic" lengthAdjust="spacing" textLength="68" x="583" y="787.9492">&#171;repository&#187;</text><text fill="#000000" font-family="FG Virgil" font-size="14" lengthAdjust="spacing" textLength="144" x="545" y="806.0684">JobOpeningRepository</text><line style="stroke:#181818;stroke-width:0.5;" x1="517" x2="691" y1="814.582" y2="814.582"/><line style="stroke:#181818;stroke-width:0.5;" x1="517" x2="691" y1="822.582" y2="822.582"/><rect fill="#F24D5C" height="6" style="stroke:#C82930;stroke-width:1.0;" width="6" x="524" y="834.3926"/><text fill="#000000" font-family="FG Virgil" font-size="14" lengthAdjust="spacing" textLength="48" x="536" y="841.6895">findAll()</text></g><!--class JobApplicationService--><g id="elem_JobApplicationService"><rect fill="#F1F1F1" filter="url(#fl6r48ky5ymoz)" height="48" id="JobApplicationService" rx="2.5" ry="2.5" style="stroke:#181818;stroke-width:0.5;" width="170" x="410" y="450.5"/><ellipse cx="425" cy="466.5" fill="#ADD1B2" rx="11" ry="11" style="stroke:#181818;stroke-width:1.0;"/><path d="M427.7656,462.375 Q427.9219,462.1563 428.1094,462.0469 Q428.2969,461.9375 428.5156,461.9375 Q428.8906,461.9375 429.125,462.2031 Q429.3594,462.4531 429.3594,463.0625 L429.3594,464.5156 Q429.3594,465.125 429.125,465.3906 Q428.8906,465.6563 428.5156,465.6563 Q428.1719,465.6563 427.9688,465.4531 Q427.7656,465.2656 427.6563,464.75 Q427.6094,464.3906 427.4219,464.2031 Q427.0938,463.8281 426.4844,463.6094 Q425.875,463.3906 425.25,463.3906 Q424.4844,463.3906 423.8438,463.7188 Q423.2188,464.0469 422.7188,464.7969 Q422.2344,465.5469 422.2344,466.5781 L422.2344,467.6719 Q422.2344,468.9063 423.125,469.7344 Q424.0156,470.5469 425.6094,470.5469 Q426.5469,470.5469 427.2031,470.2969 Q427.5938,470.1406 428.0156,469.7031 Q428.2813,469.4375 428.4219,469.3594 Q428.5781,469.2813 428.7813,469.2813 Q429.1094,469.2813 429.3594,469.5469 Q429.625,469.7969 429.625,470.1406 Q429.625,470.4844 429.2813,470.8906 Q428.7813,471.4688 427.9844,471.7969 Q426.9063,472.25 425.6094,472.25 Q424.0938,472.25 422.8906,471.625 Q421.9063,471.125 421.2188,470.0625 Q420.5313,468.9844 420.5313,467.7031 L420.5313,466.5469 Q420.5313,465.2188 421.1406,464.0781 Q421.7656,462.9219 422.8594,462.3125 Q423.9531,461.6875 425.1875,461.6875 Q425.9219,461.6875 426.5625,461.8594 Q427.2188,462.0156 427.7656,462.375 Z " fill="#000000"/><text fill="#000000" font-family="FG Virgil" font-size="14" lengthAdjust="spacing" textLength="138" x="439" y="472.2969">JobApplicationService</text><line style="stroke:#181818;stroke-width:0.5;" x1="411" x2="579" y1="482.5" y2="482.5"/><line style="stroke:#181818;stroke-width:0.5;" x1="411" x2="579" y1="490.5" y2="490.5"/></g><!--link ListApplicationsUI to ListApplicationsController--><g id="link_ListApplicationsUI_ListApplicationsController"><path codeLine="48" d="M285,179.01 C285,205.85 285,228.56 285,251.88 " fill="none" id="ListApplicationsUI-to-ListApplicationsController" style="stroke:#181818;stroke-width:1.0;"/><polygon fill="#181818" points="285,257.88,289,248.88,285,252.88,281,248.88,285,257.88" style="stroke:#181818;stroke-width:1.0;"/><text fill="#000000" font-family="FG Virgil" font-size="13" lengthAdjust="spacing" textLength="73" x="286" y="224.0283">theController</text></g><!--link ListApplicationsController to AuthorizationService--><g id="link_ListApplicationsController_AuthorizationService"><path codeLine="49" d="M257.56,356.31 C243.36,381.31 229.2227,406.1925 215.9127,429.6325 " fill="none" id="ListApplicationsController-to-AuthorizationService" style="stroke:#181818;stroke-width:1.0;"/><polygon fill="#181818" points="212.95,434.85,220.8724,428.9988,215.4189,430.5021,213.9157,425.0486,212.95,434.85" style="stroke:#181818;stroke-width:1.0;"/><text fill="#000000" font-family="FG Virgil" font-size="13" lengthAdjust="spacing" textLength="32" x="239" y="401.0283">authz</text></g><!--link ListApplicationsController to JobApplicationService--><g id="link_ListApplicationsController_JobApplicationService"><path codeLine="50" d="M346.02,356.09 C385.38,387.11 430.0873,422.3464 460.9373,446.6564 " fill="none" id="ListApplicationsController-to-JobApplicationService" style="stroke:#181818;stroke-width:1.0;"/><polygon fill="#181818" points="465.65,450.37,461.0568,441.6578,461.7228,447.2753,456.1053,447.9414,465.65,450.37" style="stroke:#181818;stroke-width:1.0;"/><text fill="#000000" font-family="FG Virgil" font-size="13" lengthAdjust="spacing" textLength="85" x="403" y="401.0283">application svc</text></g><!--link JobApplicationService to PersistenceContext--><g id="link_JobApplicationService_PersistenceContext"><path codeLine="51" d="M474.14,498.51 C449.83,525.34 413.299,565.644 384.119,597.844 " fill="none" id="JobApplicationService-to-PersistenceContext" style="stroke:#181818;stroke-width:1.0;"/><polygon fill="#181818" points="380.09,602.29,389.0975,598.307,383.4475,598.585,383.1695,592.935,380.09,602.29" style="stroke:#181818;stroke-width:1.0;"/><text fill="#000000" font-family="FG Virgil" font-size="13" lengthAdjust="spacing" textLength="67" x="429" y="559.0283">persistence</text></g><!--link PersistenceContext to RepositoryFactory--><g id="link_PersistenceContext_RepositoryFactory"><path codeLine="52" d="M345,681.8 C345,708.36 345,737.43 345,763.94 " fill="none" id="PersistenceContext-to-RepositoryFactory" style="stroke:#181818;stroke-width:1.0;"/><polygon fill="#181818" points="345,769.94,349,760.94,345,764.94,341,760.94,345,769.94" style="stroke:#181818;stroke-width:1.0;"/><text fill="#000000" font-family="FG Virgil" font-size="13" lengthAdjust="spacing" textLength="39" x="346" y="736.0283">factory</text></g><!--link RepositoryFactory to JobApplicationRepository--><g id="link_RepositoryFactory_JobApplicationRepository"><path codeLine="53" d="M345,849.06 C345,873.06 345,897.82 345,921.84 " fill="none" id="RepositoryFactory-to-JobApplicationRepository" style="stroke:#181818;stroke-width:1.0;"/><polygon fill="#181818" points="345,927.84,349,918.84,345,922.84,341,918.84,345,927.84" style="stroke:#181818;stroke-width:1.0;"/><text fill="#000000" font-family="FG Virgil" font-size="13" lengthAdjust="spacing" textLength="131" x="346" y="894.0283">applicationsRepository</text></g><!--link JobApplicationService to ListApplicationFromJobOpeningController--><g id="link_JobApplicationService_ListApplicationFromJobOpeningController"><path codeLine="54" d="M510.16,498.51 C526.13,522.76 548.4506,556.6486 568.8806,587.6786 " fill="none" id="JobApplicationService-to-ListApplicationFromJobOpeningController" style="stroke:#181818;stroke-width:1.0;"/><polygon fill="#181818" points="572.18,592.69,570.5717,582.9733,569.4305,588.5139,563.8899,587.3726,572.18,592.69" style="stroke:#181818;stroke-width:1.0;"/></g><!--link ListApplicationFromJobOpeningController to JobOpeningRepository--><g id="link_ListApplicationFromJobOpeningController_JobOpeningRepository"><path codeLine="55" d="M604,691.31 C604,716.31 604,740.41 604,763.85 " fill="none" id="ListApplicationFromJobOpeningController-to-JobOpeningRepository" style="stroke:#181818;stroke-width:1.0;"/><polygon fill="#181818" points="604,769.85,608,760.85,604,764.85,600,760.85,604,769.85" style="stroke:#181818;stroke-width:1.0;"/><text fill="#000000" font-family="FG Virgil" font-size="13" lengthAdjust="spacing" textLength="127" x="605" y="736.0283">jobOpeningRepository</text></g><!--SRC=[bL9BRjim4Dtp5DpPNVW2WY50BUecGT0K4T8zIuri9XGfS2YdJj3pz0GzGIxMeSn8jAsuwKQQtvjvd7apV52c5KuqZ0qcRuLy46ie_Ku3To1zagkW5ftsAslyLz40NttXtvLRAvtKu4PKzb6PDVUk0yPcdurNbQW0cTG2aLyhz4NRQYM5LzRWtILVBbi72CRtaJpdpsp1Do0ghGpCFv1JsN9Z7tiJD3HKYhsZ3vjTcjhsyQr2vOUA2se5ZjnVx0qId-X9pceDZiY8CP7dpx77HzgBhMibuGx1xQVNIdjmnvakV7dMprYME_JGX4IUZ2ywlx5EFVKpId1R0jDWt5jn0M2mSn1AwRc13rIXpuN0mknkwZdnXJ2d1B-y9JiTy8qeq7Wm4iBJuASFInw3SOI3rjAYY0fWkfxRr_Xk9MJu4RhUMn7PnIKCa2lx8rdes82GmvHNSArCLMXzvY0hPnlgUDE28IaTN4SEJknsf06Stm_0GI9QZzsEQSVmVr2U5OXMAl7o- -KFwNf2qOj5VavZ6QUZZZuxKnewJSebuuB2J__27jub0Oz1Zbl9fkj2XmajPJpH4fie2BXJ4MKyYeYTvawv9WSve8jZuWphTmgAlLTuaT-fM39-Fn7-2m00]--></g></svg>