<?xml version="1.0" encoding="us-ascii" standalone="no"?><svg xmlns="http://www.w3.org/2000/svg" xmlns:xlink="http://www.w3.org/1999/xlink" contentStyleType="text/css" height="698px" preserveAspectRatio="none" style="width:1611px;height:698px;background:#FFFFFF;" version="1.1" viewBox="0 0 1611 698" width="1611px" zoomAndPan="magnify"><defs/><g><!--class CustomerListJobOpeningsUI--><g id="elem_CustomerListJobOpeningsUI"><rect codeLine="4" fill="#F1F1F1" height="79.2813" id="CustomerListJobOpeningsUI" rx="2.5" ry="2.5" style="stroke:#181818;stroke-width:0.5;" width="356" x="578.5" y="7"/><ellipse cx="663.25" cy="23" fill="#ADD1B2" rx="11" ry="11" style="stroke:#181818;stroke-width:1.0;"/><path d="M666.0156,18.875 Q666.1719,18.6563 666.3594,18.5469 Q666.5469,18.4375 666.7656,18.4375 Q667.1406,18.4375 667.375,18.7031 Q667.6094,18.9531 667.6094,19.5625 L667.6094,21.0156 Q667.6094,21.625 667.375,21.8906 Q667.1406,22.1563 666.7656,22.1563 Q666.4219,22.1563 666.2188,21.9531 Q666.0156,21.7656 665.9063,21.25 Q665.8594,20.8906 665.6719,20.7031 Q665.3438,20.3281 664.7344,20.1094 Q664.125,19.8906 663.5,19.8906 Q662.7344,19.8906 662.0938,20.2188 Q661.4688,20.5469 660.9688,21.2969 Q660.4844,22.0469 660.4844,23.0781 L660.4844,24.1719 Q660.4844,25.4063 661.375,26.2344 Q662.2656,27.0469 663.8594,27.0469 Q664.7969,27.0469 665.4531,26.7969 Q665.8438,26.6406 666.2656,26.2031 Q666.5313,25.9375 666.6719,25.8594 Q666.8281,25.7813 667.0313,25.7813 Q667.3594,25.7813 667.6094,26.0469 Q667.875,26.2969 667.875,26.6406 Q667.875,26.9844 667.5313,27.3906 Q667.0313,27.9688 666.2344,28.2969 Q665.1563,28.75 663.8594,28.75 Q662.3438,28.75 661.1406,28.125 Q660.1563,27.625 659.4688,26.5625 Q658.7813,25.4844 658.7813,24.2031 L658.7813,23.0469 Q658.7813,21.7188 659.3906,20.5781 Q660.0156,19.4219 661.1094,18.8125 Q662.2031,18.1875 663.4375,18.1875 Q664.1719,18.1875 664.8125,18.3594 Q665.4688,18.5156 666.0156,18.875 Z " fill="#000000"/><text fill="#000000" font-family="FG Virgil" font-size="14" lengthAdjust="spacing" textLength="178" x="683.75" y="27.8535">CustomerListJobOpeningsUI</text><line style="stroke:#181818;stroke-width:0.5;" x1="579.5" x2="933.5" y1="39" y2="39"/><line style="stroke:#181818;stroke-width:0.5;" x1="579.5" x2="933.5" y1="47" y2="47"/><ellipse cx="589.5" cy="60.3203" fill="#84BE84" rx="3" ry="3" style="stroke:#038048;stroke-width:1.0;"/><text fill="#000000" font-family="FG Virgil" font-size="14" lengthAdjust="spacing" textLength="84" x="598.5" y="63.6738">create(): void</text><ellipse cx="589.5" cy="75.9609" fill="#84BE84" rx="3" ry="3" style="stroke:#038048;stroke-width:1.0;"/><text fill="#000000" font-family="FG Virgil" font-size="14" lengthAdjust="spacing" textLength="330" x="598.5" y="79.3145">getJobOpeningByCustomer(): Iterable&lt;JobOpening&gt;</text></g><!--class CustomerListJobOpeningsController--><g id="elem_CustomerListJobOpeningsController"><rect codeLine="10" fill="#F1F1F1" height="79.2813" id="CustomerListJobOpeningsController" rx="2.5" ry="2.5" style="stroke:#181818;stroke-width:0.5;" width="356" x="578.5" y="162"/><ellipse cx="638.25" cy="178" fill="#ADD1B2" rx="11" ry="11" style="stroke:#181818;stroke-width:1.0;"/><path d="M641.0156,173.875 Q641.1719,173.6563 641.3594,173.5469 Q641.5469,173.4375 641.7656,173.4375 Q642.1406,173.4375 642.375,173.7031 Q642.6094,173.9531 642.6094,174.5625 L642.6094,176.0156 Q642.6094,176.625 642.375,176.8906 Q642.1406,177.1563 641.7656,177.1563 Q641.4219,177.1563 641.2188,176.9531 Q641.0156,176.7656 640.9063,176.25 Q640.8594,175.8906 640.6719,175.7031 Q640.3438,175.3281 639.7344,175.1094 Q639.125,174.8906 638.5,174.8906 Q637.7344,174.8906 637.0938,175.2188 Q636.4688,175.5469 635.9688,176.2969 Q635.4844,177.0469 635.4844,178.0781 L635.4844,179.1719 Q635.4844,180.4063 636.375,181.2344 Q637.2656,182.0469 638.8594,182.0469 Q639.7969,182.0469 640.4531,181.7969 Q640.8438,181.6406 641.2656,181.2031 Q641.5313,180.9375 641.6719,180.8594 Q641.8281,180.7813 642.0313,180.7813 Q642.3594,180.7813 642.6094,181.0469 Q642.875,181.2969 642.875,181.6406 Q642.875,181.9844 642.5313,182.3906 Q642.0313,182.9688 641.2344,183.2969 Q640.1563,183.75 638.8594,183.75 Q637.3438,183.75 636.1406,183.125 Q635.1563,182.625 634.4688,181.5625 Q633.7813,180.4844 633.7813,179.2031 L633.7813,178.0469 Q633.7813,176.7188 634.3906,175.5781 Q635.0156,174.4219 636.1094,173.8125 Q637.2031,173.1875 638.4375,173.1875 Q639.1719,173.1875 639.8125,173.3594 Q640.4688,173.5156 641.0156,173.875 Z " fill="#000000"/><text fill="#000000" font-family="FG Virgil" font-size="14" lengthAdjust="spacing" textLength="228" x="658.75" y="182.8535">CustomerListJobOpeningsController</text><line style="stroke:#181818;stroke-width:0.5;" x1="579.5" x2="933.5" y1="194" y2="194"/><line style="stroke:#181818;stroke-width:0.5;" x1="579.5" x2="933.5" y1="202" y2="202"/><ellipse cx="589.5" cy="215.3203" fill="#84BE84" rx="3" ry="3" style="stroke:#038048;stroke-width:1.0;"/><text fill="#000000" font-family="FG Virgil" font-size="14" lengthAdjust="spacing" textLength="50" x="598.5" y="218.6738">create()</text><ellipse cx="589.5" cy="230.9609" fill="#84BE84" rx="3" ry="3" style="stroke:#038048;stroke-width:1.0;"/><text fill="#000000" font-family="FG Virgil" font-size="14" lengthAdjust="spacing" textLength="330" x="598.5" y="234.3145">getJobOpeningByCustomer(): Iterable&lt;JobOpening&gt;</text></g><!--class AuthorizationService--><g id="elem_AuthorizationService"><rect codeLine="16" fill="#F1F1F1" height="63.6406" id="AuthorizationService" rx="2.5" ry="2.5" style="stroke:#181818;stroke-width:0.5;" width="161" x="7" y="324.5"/><ellipse cx="22" cy="340.5" fill="#ADD1B2" rx="11" ry="11" style="stroke:#181818;stroke-width:1.0;"/><path d="M24.7656,336.375 Q24.9219,336.1563 25.1094,336.0469 Q25.2969,335.9375 25.5156,335.9375 Q25.8906,335.9375 26.125,336.2031 Q26.3594,336.4531 26.3594,337.0625 L26.3594,338.5156 Q26.3594,339.125 26.125,339.3906 Q25.8906,339.6563 25.5156,339.6563 Q25.1719,339.6563 24.9688,339.4531 Q24.7656,339.2656 24.6563,338.75 Q24.6094,338.3906 24.4219,338.2031 Q24.0938,337.8281 23.4844,337.6094 Q22.875,337.3906 22.25,337.3906 Q21.4844,337.3906 20.8438,337.7188 Q20.2188,338.0469 19.7188,338.7969 Q19.2344,339.5469 19.2344,340.5781 L19.2344,341.6719 Q19.2344,342.9063 20.125,343.7344 Q21.0156,344.5469 22.6094,344.5469 Q23.5469,344.5469 24.2031,344.2969 Q24.5938,344.1406 25.0156,343.7031 Q25.2813,343.4375 25.4219,343.3594 Q25.5781,343.2813 25.7813,343.2813 Q26.1094,343.2813 26.3594,343.5469 Q26.625,343.7969 26.625,344.1406 Q26.625,344.4844 26.2813,344.8906 Q25.7813,345.4688 24.9844,345.7969 Q23.9063,346.25 22.6094,346.25 Q21.0938,346.25 19.8906,345.625 Q18.9063,345.125 18.2188,344.0625 Q17.5313,342.9844 17.5313,341.7031 L17.5313,340.5469 Q17.5313,339.2188 18.1406,338.0781 Q18.7656,336.9219 19.8594,336.3125 Q20.9531,335.6875 22.1875,335.6875 Q22.9219,335.6875 23.5625,335.8594 Q24.2188,336.0156 24.7656,336.375 Z " fill="#000000"/><text fill="#000000" font-family="FG Virgil" font-size="14" lengthAdjust="spacing" textLength="129" x="36" y="345.3535">AuthorizationService</text><line style="stroke:#181818;stroke-width:0.5;" x1="8" x2="167" y1="356.5" y2="356.5"/><line style="stroke:#181818;stroke-width:0.5;" x1="8" x2="167" y1="364.5" y2="364.5"/><ellipse cx="18" cy="377.8203" fill="#84BE84" rx="3" ry="3" style="stroke:#038048;stroke-width:1.0;"/><text fill="#000000" font-family="FG Virgil" font-size="14" lengthAdjust="spacing" textLength="116" x="27" y="381.1738">session(): Session</text></g><!--class JobOpeningService--><g id="elem_JobOpeningService"><rect codeLine="20" fill="#F1F1F1" height="79.2813" id="JobOpeningService" rx="2.5" ry="2.5" style="stroke:#181818;stroke-width:0.5;" width="500" x="203.5" y="317"/><ellipse cx="387.75" cy="333" fill="#ADD1B2" rx="11" ry="11" style="stroke:#181818;stroke-width:1.0;"/><path d="M390.5156,328.875 Q390.6719,328.6563 390.8594,328.5469 Q391.0469,328.4375 391.2656,328.4375 Q391.6406,328.4375 391.875,328.7031 Q392.1094,328.9531 392.1094,329.5625 L392.1094,331.0156 Q392.1094,331.625 391.875,331.8906 Q391.6406,332.1563 391.2656,332.1563 Q390.9219,332.1563 390.7188,331.9531 Q390.5156,331.7656 390.4063,331.25 Q390.3594,330.8906 390.1719,330.7031 Q389.8438,330.3281 389.2344,330.1094 Q388.625,329.8906 388,329.8906 Q387.2344,329.8906 386.5938,330.2188 Q385.9688,330.5469 385.4688,331.2969 Q384.9844,332.0469 384.9844,333.0781 L384.9844,334.1719 Q384.9844,335.4063 385.875,336.2344 Q386.7656,337.0469 388.3594,337.0469 Q389.2969,337.0469 389.9531,336.7969 Q390.3438,336.6406 390.7656,336.2031 Q391.0313,335.9375 391.1719,335.8594 Q391.3281,335.7813 391.5313,335.7813 Q391.8594,335.7813 392.1094,336.0469 Q392.375,336.2969 392.375,336.6406 Q392.375,336.9844 392.0313,337.3906 Q391.5313,337.9688 390.7344,338.2969 Q389.6563,338.75 388.3594,338.75 Q386.8438,338.75 385.6406,338.125 Q384.6563,337.625 383.9688,336.5625 Q383.2813,335.4844 383.2813,334.2031 L383.2813,333.0469 Q383.2813,331.7188 383.8906,330.5781 Q384.5156,329.4219 385.6094,328.8125 Q386.7031,328.1875 387.9375,328.1875 Q388.6719,328.1875 389.3125,328.3594 Q389.9688,328.5156 390.5156,328.875 Z " fill="#000000"/><text fill="#000000" font-family="FG Virgil" font-size="14" lengthAdjust="spacing" textLength="123" x="408.25" y="337.8535">JobOpeningService</text><line style="stroke:#181818;stroke-width:0.5;" x1="204.5" x2="702.5" y1="349" y2="349"/><line style="stroke:#181818;stroke-width:0.5;" x1="204.5" x2="702.5" y1="357" y2="357"/><ellipse cx="214.5" cy="370.3203" fill="#84BE84" rx="3" ry="3" style="stroke:#038048;stroke-width:1.0;"/><text fill="#000000" font-family="FG Virgil" font-size="14" lengthAdjust="spacing" textLength="474" x="223.5" y="373.6738">create(jobOpeningRepository: JobOpeningRepository): JobOpeningService</text><ellipse cx="214.5" cy="385.9609" fill="#84BE84" rx="3" ry="3" style="stroke:#038048;stroke-width:1.0;"/><text fill="#000000" font-family="FG Virgil" font-size="14" lengthAdjust="spacing" textLength="461" x="223.5" y="389.3145">listJobOpeningsByCustomer(customer: Customer): Iterable&lt;JobOpening&gt;</text></g><!--class JobApplicationService--><g id="elem_JobApplicationService"><rect codeLine="25" fill="#F1F1F1" height="79.2813" id="JobApplicationService" rx="2.5" ry="2.5" style="stroke:#181818;stroke-width:0.5;" width="525" x="1079" y="317"/><ellipse cx="1268.25" cy="333" fill="#ADD1B2" rx="11" ry="11" style="stroke:#181818;stroke-width:1.0;"/><path d="M1271.0156,328.875 Q1271.1719,328.6563 1271.3594,328.5469 Q1271.5469,328.4375 1271.7656,328.4375 Q1272.1406,328.4375 1272.375,328.7031 Q1272.6094,328.9531 1272.6094,329.5625 L1272.6094,331.0156 Q1272.6094,331.625 1272.375,331.8906 Q1272.1406,332.1563 1271.7656,332.1563 Q1271.4219,332.1563 1271.2188,331.9531 Q1271.0156,331.7656 1270.9063,331.25 Q1270.8594,330.8906 1270.6719,330.7031 Q1270.3438,330.3281 1269.7344,330.1094 Q1269.125,329.8906 1268.5,329.8906 Q1267.7344,329.8906 1267.0938,330.2188 Q1266.4688,330.5469 1265.9688,331.2969 Q1265.4844,332.0469 1265.4844,333.0781 L1265.4844,334.1719 Q1265.4844,335.4063 1266.375,336.2344 Q1267.2656,337.0469 1268.8594,337.0469 Q1269.7969,337.0469 1270.4531,336.7969 Q1270.8438,336.6406 1271.2656,336.2031 Q1271.5313,335.9375 1271.6719,335.8594 Q1271.8281,335.7813 1272.0313,335.7813 Q1272.3594,335.7813 1272.6094,336.0469 Q1272.875,336.2969 1272.875,336.6406 Q1272.875,336.9844 1272.5313,337.3906 Q1272.0313,337.9688 1271.2344,338.2969 Q1270.1563,338.75 1268.8594,338.75 Q1267.3438,338.75 1266.1406,338.125 Q1265.1563,337.625 1264.4688,336.5625 Q1263.7813,335.4844 1263.7813,334.2031 L1263.7813,333.0469 Q1263.7813,331.7188 1264.3906,330.5781 Q1265.0156,329.4219 1266.1094,328.8125 Q1267.2031,328.1875 1268.4375,328.1875 Q1269.1719,328.1875 1269.8125,328.3594 Q1270.4688,328.5156 1271.0156,328.875 Z " fill="#000000"/><text fill="#000000" font-family="FG Virgil" font-size="14" lengthAdjust="spacing" textLength="138" x="1288.75" y="337.8535">JobApplicationService</text><line style="stroke:#181818;stroke-width:0.5;" x1="1080" x2="1603" y1="349" y2="349"/><line style="stroke:#181818;stroke-width:0.5;" x1="1080" x2="1603" y1="357" y2="357"/><ellipse cx="1090" cy="370.3203" fill="#84BE84" rx="3" ry="3" style="stroke:#038048;stroke-width:1.0;"/><text fill="#000000" font-family="FG Virgil" font-size="14" lengthAdjust="spacing" textLength="499" x="1099" y="373.6738">create(applicationRepository: JobApplicationRepository): JobApplicationService</text><ellipse cx="1090" cy="385.9609" fill="#84BE84" rx="3" ry="3" style="stroke:#038048;stroke-width:1.0;"/><text fill="#000000" font-family="FG Virgil" font-size="14" lengthAdjust="spacing" textLength="429" x="1099" y="389.3145">findByJobReference(jobReference: String): Iterable&lt;JobApplication&gt;</text></g><!--class PersistenceContext--><g id="elem_PersistenceContext"><rect codeLine="31" fill="#F1F1F1" height="63.6406" id="PersistenceContext" rx="2.5" ry="2.5" style="stroke:#181818;stroke-width:0.5;" width="234" x="809.5" y="324.5"/><ellipse cx="861.25" cy="340.5" fill="#ADD1B2" rx="11" ry="11" style="stroke:#181818;stroke-width:1.0;"/><path d="M864.0156,336.375 Q864.1719,336.1563 864.3594,336.0469 Q864.5469,335.9375 864.7656,335.9375 Q865.1406,335.9375 865.375,336.2031 Q865.6094,336.4531 865.6094,337.0625 L865.6094,338.5156 Q865.6094,339.125 865.375,339.3906 Q865.1406,339.6563 864.7656,339.6563 Q864.4219,339.6563 864.2188,339.4531 Q864.0156,339.2656 863.9063,338.75 Q863.8594,338.3906 863.6719,338.2031 Q863.3438,337.8281 862.7344,337.6094 Q862.125,337.3906 861.5,337.3906 Q860.7344,337.3906 860.0938,337.7188 Q859.4688,338.0469 858.9688,338.7969 Q858.4844,339.5469 858.4844,340.5781 L858.4844,341.6719 Q858.4844,342.9063 859.375,343.7344 Q860.2656,344.5469 861.8594,344.5469 Q862.7969,344.5469 863.4531,344.2969 Q863.8438,344.1406 864.2656,343.7031 Q864.5313,343.4375 864.6719,343.3594 Q864.8281,343.2813 865.0313,343.2813 Q865.3594,343.2813 865.6094,343.5469 Q865.875,343.7969 865.875,344.1406 Q865.875,344.4844 865.5313,344.8906 Q865.0313,345.4688 864.2344,345.7969 Q863.1563,346.25 861.8594,346.25 Q860.3438,346.25 859.1406,345.625 Q858.1563,345.125 857.4688,344.0625 Q856.7813,342.9844 856.7813,341.7031 L856.7813,340.5469 Q856.7813,339.2188 857.3906,338.0781 Q858.0156,336.9219 859.1094,336.3125 Q860.2031,335.6875 861.4375,335.6875 Q862.1719,335.6875 862.8125,335.8594 Q863.4688,336.0156 864.0156,336.375 Z " fill="#000000"/><text fill="#000000" font-family="FG Virgil" font-size="14" lengthAdjust="spacing" textLength="122" x="881.75" y="345.3535">PersistenceContext</text><line style="stroke:#181818;stroke-width:0.5;" x1="810.5" x2="1042.5" y1="356.5" y2="356.5"/><line style="stroke:#181818;stroke-width:0.5;" x1="810.5" x2="1042.5" y1="364.5" y2="364.5"/><ellipse cx="820.5" cy="377.8203" fill="#84BE84" rx="3" ry="3" style="stroke:#038048;stroke-width:1.0;"/><text fill="#000000" font-family="FG Virgil" font-size="14" lengthAdjust="spacing" textLength="208" x="829.5" y="381.1738">repositories(): RepositoryFactory</text></g><!--class RepositoryFactory--><g id="elem_RepositoryFactory"><rect codeLine="35" fill="#F1F1F1" height="94.9219" id="RepositoryFactory" rx="2.5" ry="2.5" style="stroke:#181818;stroke-width:0.5;" width="278" x="809.5" y="472"/><ellipse cx="886.25" cy="488" fill="#ADD1B2" rx="11" ry="11" style="stroke:#181818;stroke-width:1.0;"/><path d="M889.0156,483.875 Q889.1719,483.6563 889.3594,483.5469 Q889.5469,483.4375 889.7656,483.4375 Q890.1406,483.4375 890.375,483.7031 Q890.6094,483.9531 890.6094,484.5625 L890.6094,486.0156 Q890.6094,486.625 890.375,486.8906 Q890.1406,487.1563 889.7656,487.1563 Q889.4219,487.1563 889.2188,486.9531 Q889.0156,486.7656 888.9063,486.25 Q888.8594,485.8906 888.6719,485.7031 Q888.3438,485.3281 887.7344,485.1094 Q887.125,484.8906 886.5,484.8906 Q885.7344,484.8906 885.0938,485.2188 Q884.4688,485.5469 883.9688,486.2969 Q883.4844,487.0469 883.4844,488.0781 L883.4844,489.1719 Q883.4844,490.4063 884.375,491.2344 Q885.2656,492.0469 886.8594,492.0469 Q887.7969,492.0469 888.4531,491.7969 Q888.8438,491.6406 889.2656,491.2031 Q889.5313,490.9375 889.6719,490.8594 Q889.8281,490.7813 890.0313,490.7813 Q890.3594,490.7813 890.6094,491.0469 Q890.875,491.2969 890.875,491.6406 Q890.875,491.9844 890.5313,492.3906 Q890.0313,492.9688 889.2344,493.2969 Q888.1563,493.75 886.8594,493.75 Q885.3438,493.75 884.1406,493.125 Q883.1563,492.625 882.4688,491.5625 Q881.7813,490.4844 881.7813,489.2031 L881.7813,488.0469 Q881.7813,486.7188 882.3906,485.5781 Q883.0156,484.4219 884.1094,483.8125 Q885.2031,483.1875 886.4375,483.1875 Q887.1719,483.1875 887.8125,483.3594 Q888.4688,483.5156 889.0156,483.875 Z " fill="#000000"/><text fill="#000000" font-family="FG Virgil" font-size="14" lengthAdjust="spacing" textLength="116" x="906.75" y="492.8535">RepositoryFactory</text><line style="stroke:#181818;stroke-width:0.5;" x1="810.5" x2="1086.5" y1="504" y2="504"/><line style="stroke:#181818;stroke-width:0.5;" x1="810.5" x2="1086.5" y1="512" y2="512"/><ellipse cx="820.5" cy="525.3203" fill="#84BE84" rx="3" ry="3" style="stroke:#038048;stroke-width:1.0;"/><text fill="#000000" font-family="FG Virgil" font-size="14" lengthAdjust="spacing" textLength="252" x="829.5" y="528.6738">applications(): JobApplicationRepository</text><ellipse cx="820.5" cy="540.9609" fill="#84BE84" rx="3" ry="3" style="stroke:#038048;stroke-width:1.0;"/><text fill="#000000" font-family="FG Virgil" font-size="14" lengthAdjust="spacing" textLength="205" x="829.5" y="544.3145">customer(): CustomerRepository</text><ellipse cx="820.5" cy="556.6016" fill="#84BE84" rx="3" ry="3" style="stroke:#038048;stroke-width:1.0;"/><text fill="#000000" font-family="FG Virgil" font-size="14" lengthAdjust="spacing" textLength="242" x="829.5" y="559.9551">jobOpenings(): JobOpeningRepository</text></g><!--class JobApplicationRepository--><g id="elem_JobApplicationRepository"><rect fill="#F1F1F1" height="48" id="JobApplicationRepository" rx="2.5" ry="2.5" style="stroke:#181818;stroke-width:0.5;" width="191" x="1146" y="643"/><ellipse cx="1161" cy="659" fill="#ADD1B2" rx="11" ry="11" style="stroke:#181818;stroke-width:1.0;"/><path d="M1163.7656,654.875 Q1163.9219,654.6563 1164.1094,654.5469 Q1164.2969,654.4375 1164.5156,654.4375 Q1164.8906,654.4375 1165.125,654.7031 Q1165.3594,654.9531 1165.3594,655.5625 L1165.3594,657.0156 Q1165.3594,657.625 1165.125,657.8906 Q1164.8906,658.1563 1164.5156,658.1563 Q1164.1719,658.1563 1163.9688,657.9531 Q1163.7656,657.7656 1163.6563,657.25 Q1163.6094,656.8906 1163.4219,656.7031 Q1163.0938,656.3281 1162.4844,656.1094 Q1161.875,655.8906 1161.25,655.8906 Q1160.4844,655.8906 1159.8438,656.2188 Q1159.2188,656.5469 1158.7188,657.2969 Q1158.2344,658.0469 1158.2344,659.0781 L1158.2344,660.1719 Q1158.2344,661.4063 1159.125,662.2344 Q1160.0156,663.0469 1161.6094,663.0469 Q1162.5469,663.0469 1163.2031,662.7969 Q1163.5938,662.6406 1164.0156,662.2031 Q1164.2813,661.9375 1164.4219,661.8594 Q1164.5781,661.7813 1164.7813,661.7813 Q1165.1094,661.7813 1165.3594,662.0469 Q1165.625,662.2969 1165.625,662.6406 Q1165.625,662.9844 1165.2813,663.3906 Q1164.7813,663.9688 1163.9844,664.2969 Q1162.9063,664.75 1161.6094,664.75 Q1160.0938,664.75 1158.8906,664.125 Q1157.9063,663.625 1157.2188,662.5625 Q1156.5313,661.4844 1156.5313,660.2031 L1156.5313,659.0469 Q1156.5313,657.7188 1157.1406,656.5781 Q1157.7656,655.4219 1158.8594,654.8125 Q1159.9531,654.1875 1161.1875,654.1875 Q1161.9219,654.1875 1162.5625,654.3594 Q1163.2188,654.5156 1163.7656,654.875 Z " fill="#000000"/><text fill="#000000" font-family="FG Virgil" font-size="14" lengthAdjust="spacing" textLength="159" x="1175" y="663.8535">JobApplicationRepository</text><line style="stroke:#181818;stroke-width:0.5;" x1="1147" x2="1336" y1="675" y2="675"/><line style="stroke:#181818;stroke-width:0.5;" x1="1147" x2="1336" y1="683" y2="683"/></g><!--class JobOpeningRepository--><g id="elem_JobOpeningRepository"><rect fill="#F1F1F1" height="48" id="JobOpeningRepository" rx="2.5" ry="2.5" style="stroke:#181818;stroke-width:0.5;" width="176" x="446.5" y="643"/><ellipse cx="461.5" cy="659" fill="#ADD1B2" rx="11" ry="11" style="stroke:#181818;stroke-width:1.0;"/><path d="M464.2656,654.875 Q464.4219,654.6563 464.6094,654.5469 Q464.7969,654.4375 465.0156,654.4375 Q465.3906,654.4375 465.625,654.7031 Q465.8594,654.9531 465.8594,655.5625 L465.8594,657.0156 Q465.8594,657.625 465.625,657.8906 Q465.3906,658.1563 465.0156,658.1563 Q464.6719,658.1563 464.4688,657.9531 Q464.2656,657.7656 464.1563,657.25 Q464.1094,656.8906 463.9219,656.7031 Q463.5938,656.3281 462.9844,656.1094 Q462.375,655.8906 461.75,655.8906 Q460.9844,655.8906 460.3438,656.2188 Q459.7188,656.5469 459.2188,657.2969 Q458.7344,658.0469 458.7344,659.0781 L458.7344,660.1719 Q458.7344,661.4063 459.625,662.2344 Q460.5156,663.0469 462.1094,663.0469 Q463.0469,663.0469 463.7031,662.7969 Q464.0938,662.6406 464.5156,662.2031 Q464.7813,661.9375 464.9219,661.8594 Q465.0781,661.7813 465.2813,661.7813 Q465.6094,661.7813 465.8594,662.0469 Q466.125,662.2969 466.125,662.6406 Q466.125,662.9844 465.7813,663.3906 Q465.2813,663.9688 464.4844,664.2969 Q463.4063,664.75 462.1094,664.75 Q460.5938,664.75 459.3906,664.125 Q458.4063,663.625 457.7188,662.5625 Q457.0313,661.4844 457.0313,660.2031 L457.0313,659.0469 Q457.0313,657.7188 457.6406,656.5781 Q458.2656,655.4219 459.3594,654.8125 Q460.4531,654.1875 461.6875,654.1875 Q462.4219,654.1875 463.0625,654.3594 Q463.7188,654.5156 464.2656,654.875 Z " fill="#000000"/><text fill="#000000" font-family="FG Virgil" font-size="14" lengthAdjust="spacing" textLength="144" x="475.5" y="663.8535">JobOpeningRepository</text><line style="stroke:#181818;stroke-width:0.5;" x1="447.5" x2="621.5" y1="675" y2="675"/><line style="stroke:#181818;stroke-width:0.5;" x1="447.5" x2="621.5" y1="683" y2="683"/></g><!--class CustomerRepository--><g id="elem_CustomerRepository"><rect fill="#F1F1F1" height="48" id="CustomerRepository" rx="2.5" ry="2.5" style="stroke:#181818;stroke-width:0.5;" width="161" x="760" y="643"/><ellipse cx="775" cy="659" fill="#ADD1B2" rx="11" ry="11" style="stroke:#181818;stroke-width:1.0;"/><path d="M777.7656,654.875 Q777.9219,654.6563 778.1094,654.5469 Q778.2969,654.4375 778.5156,654.4375 Q778.8906,654.4375 779.125,654.7031 Q779.3594,654.9531 779.3594,655.5625 L779.3594,657.0156 Q779.3594,657.625 779.125,657.8906 Q778.8906,658.1563 778.5156,658.1563 Q778.1719,658.1563 777.9688,657.9531 Q777.7656,657.7656 777.6563,657.25 Q777.6094,656.8906 777.4219,656.7031 Q777.0938,656.3281 776.4844,656.1094 Q775.875,655.8906 775.25,655.8906 Q774.4844,655.8906 773.8438,656.2188 Q773.2188,656.5469 772.7188,657.2969 Q772.2344,658.0469 772.2344,659.0781 L772.2344,660.1719 Q772.2344,661.4063 773.125,662.2344 Q774.0156,663.0469 775.6094,663.0469 Q776.5469,663.0469 777.2031,662.7969 Q777.5938,662.6406 778.0156,662.2031 Q778.2813,661.9375 778.4219,661.8594 Q778.5781,661.7813 778.7813,661.7813 Q779.1094,661.7813 779.3594,662.0469 Q779.625,662.2969 779.625,662.6406 Q779.625,662.9844 779.2813,663.3906 Q778.7813,663.9688 777.9844,664.2969 Q776.9063,664.75 775.6094,664.75 Q774.0938,664.75 772.8906,664.125 Q771.9063,663.625 771.2188,662.5625 Q770.5313,661.4844 770.5313,660.2031 L770.5313,659.0469 Q770.5313,657.7188 771.1406,656.5781 Q771.7656,655.4219 772.8594,654.8125 Q773.9531,654.1875 775.1875,654.1875 Q775.9219,654.1875 776.5625,654.3594 Q777.2188,654.5156 777.7656,654.875 Z " fill="#000000"/><text fill="#000000" font-family="FG Virgil" font-size="14" lengthAdjust="spacing" textLength="129" x="789" y="663.8535">CustomerRepository</text><line style="stroke:#181818;stroke-width:0.5;" x1="761" x2="920" y1="675" y2="675"/><line style="stroke:#181818;stroke-width:0.5;" x1="761" x2="920" y1="683" y2="683"/></g><!--class JobOpening--><g id="elem_JobOpening"><rect fill="#F1F1F1" height="48" id="JobOpening" rx="2.5" ry="2.5" style="stroke:#181818;stroke-width:0.5;" width="108" x="595.5" y="495.5"/><ellipse cx="610.5" cy="511.5" fill="#ADD1B2" rx="11" ry="11" style="stroke:#181818;stroke-width:1.0;"/><path d="M613.2656,507.375 Q613.4219,507.1563 613.6094,507.0469 Q613.7969,506.9375 614.0156,506.9375 Q614.3906,506.9375 614.625,507.2031 Q614.8594,507.4531 614.8594,508.0625 L614.8594,509.5156 Q614.8594,510.125 614.625,510.3906 Q614.3906,510.6563 614.0156,510.6563 Q613.6719,510.6563 613.4688,510.4531 Q613.2656,510.2656 613.1563,509.75 Q613.1094,509.3906 612.9219,509.2031 Q612.5938,508.8281 611.9844,508.6094 Q611.375,508.3906 610.75,508.3906 Q609.9844,508.3906 609.3438,508.7188 Q608.7188,509.0469 608.2188,509.7969 Q607.7344,510.5469 607.7344,511.5781 L607.7344,512.6719 Q607.7344,513.9063 608.625,514.7344 Q609.5156,515.5469 611.1094,515.5469 Q612.0469,515.5469 612.7031,515.2969 Q613.0938,515.1406 613.5156,514.7031 Q613.7813,514.4375 613.9219,514.3594 Q614.0781,514.2813 614.2813,514.2813 Q614.6094,514.2813 614.8594,514.5469 Q615.125,514.7969 615.125,515.1406 Q615.125,515.4844 614.7813,515.8906 Q614.2813,516.4688 613.4844,516.7969 Q612.4063,517.25 611.1094,517.25 Q609.5938,517.25 608.3906,516.625 Q607.4063,516.125 606.7188,515.0625 Q606.0313,513.9844 606.0313,512.7031 L606.0313,511.5469 Q606.0313,510.2188 606.6406,509.0781 Q607.2656,507.9219 608.3594,507.3125 Q609.4531,506.6875 610.6875,506.6875 Q611.4219,506.6875 612.0625,506.8594 Q612.7188,507.0156 613.2656,507.375 Z " fill="#000000"/><text fill="#000000" font-family="FG Virgil" font-size="14" lengthAdjust="spacing" textLength="76" x="624.5" y="516.3535">JobOpening</text><line style="stroke:#181818;stroke-width:0.5;" x1="596.5" x2="702.5" y1="527.5" y2="527.5"/><line style="stroke:#181818;stroke-width:0.5;" x1="596.5" x2="702.5" y1="535.5" y2="535.5"/></g><!--class JobApplication--><g id="elem_JobApplication"><rect fill="#F1F1F1" height="48" id="JobApplication" rx="2.5" ry="2.5" style="stroke:#181818;stroke-width:0.5;" width="123" x="1148" y="495.5"/><ellipse cx="1163" cy="511.5" fill="#ADD1B2" rx="11" ry="11" style="stroke:#181818;stroke-width:1.0;"/><path d="M1165.7656,507.375 Q1165.9219,507.1563 1166.1094,507.0469 Q1166.2969,506.9375 1166.5156,506.9375 Q1166.8906,506.9375 1167.125,507.2031 Q1167.3594,507.4531 1167.3594,508.0625 L1167.3594,509.5156 Q1167.3594,510.125 1167.125,510.3906 Q1166.8906,510.6563 1166.5156,510.6563 Q1166.1719,510.6563 1165.9688,510.4531 Q1165.7656,510.2656 1165.6563,509.75 Q1165.6094,509.3906 1165.4219,509.2031 Q1165.0938,508.8281 1164.4844,508.6094 Q1163.875,508.3906 1163.25,508.3906 Q1162.4844,508.3906 1161.8438,508.7188 Q1161.2188,509.0469 1160.7188,509.7969 Q1160.2344,510.5469 1160.2344,511.5781 L1160.2344,512.6719 Q1160.2344,513.9063 1161.125,514.7344 Q1162.0156,515.5469 1163.6094,515.5469 Q1164.5469,515.5469 1165.2031,515.2969 Q1165.5938,515.1406 1166.0156,514.7031 Q1166.2813,514.4375 1166.4219,514.3594 Q1166.5781,514.2813 1166.7813,514.2813 Q1167.1094,514.2813 1167.3594,514.5469 Q1167.625,514.7969 1167.625,515.1406 Q1167.625,515.4844 1167.2813,515.8906 Q1166.7813,516.4688 1165.9844,516.7969 Q1164.9063,517.25 1163.6094,517.25 Q1162.0938,517.25 1160.8906,516.625 Q1159.9063,516.125 1159.2188,515.0625 Q1158.5313,513.9844 1158.5313,512.7031 L1158.5313,511.5469 Q1158.5313,510.2188 1159.1406,509.0781 Q1159.7656,507.9219 1160.8594,507.3125 Q1161.9531,506.6875 1163.1875,506.6875 Q1163.9219,506.6875 1164.5625,506.8594 Q1165.2188,507.0156 1165.7656,507.375 Z " fill="#000000"/><text fill="#000000" font-family="FG Virgil" font-size="14" lengthAdjust="spacing" textLength="91" x="1177" y="516.3535">JobApplication</text><line style="stroke:#181818;stroke-width:0.5;" x1="1149" x2="1270" y1="527.5" y2="527.5"/><line style="stroke:#181818;stroke-width:0.5;" x1="1149" x2="1270" y1="535.5" y2="535.5"/></g><!--link CustomerListJobOpeningsUI to CustomerListJobOpeningsController--><g id="link_CustomerListJobOpeningsUI_CustomerListJobOpeningsController"><path codeLine="41" d="M756.5,86.11 C756.5,107.58 756.5,134.38 756.5,156.64 " fill="none" id="CustomerListJobOpeningsUI-to-CustomerListJobOpeningsController" style="stroke:#181818;stroke-width:1.0;"/><polygon fill="#181818" points="756.5,161.9,760.5,152.9,756.5,156.9,752.5,152.9,756.5,161.9" style="stroke:#181818;stroke-width:1.0;"/><text fill="#000000" font-family="FG Virgil" font-size="13" lengthAdjust="spacing" textLength="73" x="757.5" y="128.7686">theController</text></g><!--link CustomerListJobOpeningsController to PersistenceContext--><g id="link_CustomerListJobOpeningsController_PersistenceContext"><path codeLine="42" d="M799.4,241.11 C826.68,265.66 861.7,297.18 888.07,320.92 " fill="none" id="CustomerListJobOpeningsController-to-PersistenceContext" style="stroke:#181818;stroke-width:1.0;"/><polygon fill="#181818" points="891.9,324.36,887.8691,315.3738,888.1772,321.0223,882.5287,321.3304,891.9,324.36" style="stroke:#181818;stroke-width:1.0;"/><text fill="#000000" font-family="FG Virgil" font-size="13" lengthAdjust="spacing" textLength="28" x="847.5" y="283.7686">uses</text></g><!--link PersistenceContext to RepositoryFactory--><g id="link_PersistenceContext_RepositoryFactory"><path codeLine="43" d="M930.74,388.54 C933.77,410.73 937.92,441.1 941.45,466.9 " fill="none" id="PersistenceContext-to-RepositoryFactory" style="stroke:#181818;stroke-width:1.0;"/><polygon fill="#181818" points="942.15,472,944.9022,462.5435,941.477,467.0455,936.975,463.6203,942.15,472" style="stroke:#181818;stroke-width:1.0;"/><text fill="#000000" font-family="FG Virgil" font-size="13" lengthAdjust="spacing" textLength="40" x="938.5" y="438.7686">returns</text></g><!--link RepositoryFactory to JobApplicationRepository--><g id="link_RepositoryFactory_JobApplicationRepository"><path codeLine="44" d="M1042.42,567.14 C1091.31,591.42 1149.22,620.18 1189.94,640.4 " fill="none" id="RepositoryFactory-to-JobApplicationRepository" style="stroke:#181818;stroke-width:1.0;"/><polygon fill="#181818" points="1194.82,642.82,1188.5493,635.2254,1190.345,640.5897,1184.9807,642.3854,1194.82,642.82" style="stroke:#181818;stroke-width:1.0;"/><text fill="#000000" font-family="FG Virgil" font-size="13" lengthAdjust="spacing" textLength="43" x="1130.5" y="609.7686">creates</text></g><!--link RepositoryFactory to JobOpeningRepository--><g id="link_RepositoryFactory_JobOpeningRepository"><path codeLine="45" d="M816.08,567.04 C745.9,591.7 662.52,621.01 604.79,641.3 " fill="none" id="RepositoryFactory-to-JobOpeningRepository" style="stroke:#181818;stroke-width:1.0;"/><polygon fill="#181818" points="599.98,642.99,609.7972,643.779,604.6971,641.3319,607.1442,636.2317,599.98,642.99" style="stroke:#181818;stroke-width:1.0;"/><text fill="#000000" font-family="FG Virgil" font-size="13" lengthAdjust="spacing" textLength="43" x="729.5" y="609.7686">creates</text></g><!--link RepositoryFactory to CustomerRepository--><g id="link_RepositoryFactory_CustomerRepository"><path codeLine="46" d="M914.37,567.17 C903.57,581.86 891.57,598.13 880.5,613 C874.34,621.27 867.6,630.23 861.44,638.39 " fill="none" id="RepositoryFactory-to-CustomerRepository" style="stroke:#181818;stroke-width:1.0;"/><polygon fill="#181818" points="858.09,642.83,866.7091,638.0645,861.106,638.842,860.3284,633.2389,858.09,642.83" style="stroke:#181818;stroke-width:1.0;"/><text fill="#000000" font-family="FG Virgil" font-size="13" lengthAdjust="spacing" textLength="43" x="892.5" y="609.7686">creates</text></g><!--link CustomerListJobOpeningsController to JobApplicationService--><g id="link_CustomerListJobOpeningsController_JobApplicationService"><path codeLine="47" d="M903.74,241.01 C990.94,263.82 1101.22,292.66 1189.28,315.69 " fill="none" id="CustomerListJobOpeningsController-to-JobApplicationService" style="stroke:#181818;stroke-width:1.0;"/><polygon fill="#181818" points="1194.25,316.99,1186.5607,310.8357,1189.4139,315.7203,1184.5293,318.5735,1194.25,316.99" style="stroke:#181818;stroke-width:1.0;"/><text fill="#000000" font-family="FG Virgil" font-size="13" lengthAdjust="spacing" textLength="28" x="1067.5" y="283.7686">uses</text></g><!--link CustomerListJobOpeningsController to JobOpeningService--><g id="link_CustomerListJobOpeningsController_JobOpeningService"><path codeLine="48" d="M680.04,241.11 C635.63,263.53 579.72,291.77 534.55,314.57 " fill="none" id="CustomerListJobOpeningsController-to-JobOpeningService" style="stroke:#181818;stroke-width:1.0;"/><polygon fill="#181818" points="529.94,316.9,539.7763,316.4025,534.4006,314.6411,536.162,309.2654,529.94,316.9" style="stroke:#181818;stroke-width:1.0;"/><text fill="#000000" font-family="FG Virgil" font-size="13" lengthAdjust="spacing" textLength="28" x="614.5" y="283.7686">uses</text></g><!--link CustomerListJobOpeningsController to CustomerRepository--><g id="link_CustomerListJobOpeningsController_CustomerRepository"><path codeLine="49" d="M748.96,241.22 C736.18,317.12 717.22,488.84 778.5,613 C783.46,623.04 791.26,631.93 799.69,639.43 " fill="none" id="CustomerListJobOpeningsController-to-CustomerRepository" style="stroke:#181818;stroke-width:1.0;"/><polygon fill="#181818" points="803.87,643,799.6206,634.1151,800.0667,639.7543,794.4274,640.2004,803.87,643" style="stroke:#181818;stroke-width:1.0;"/><text fill="#000000" font-family="FG Virgil" font-size="13" lengthAdjust="spacing" textLength="28" x="737.5" y="438.7686">uses</text></g><!--link JobOpeningService to JobOpeningRepository--><g id="link_JobOpeningService_JobOpeningRepository"><path codeLine="50" d="M444.51,396.37 C436.39,439.52 428.59,510.54 449.5,567 C460.05,595.48 482.86,621.28 502.2,639.4 " fill="none" id="JobOpeningService-to-JobOpeningRepository" style="stroke:#181818;stroke-width:1.0;"/><polygon fill="#181818" points="506.01,642.92,502.1055,633.8782,502.3343,639.5304,496.6821,639.7592,506.01,642.92" style="stroke:#181818;stroke-width:1.0;"/><text fill="#000000" font-family="FG Virgil" font-size="13" lengthAdjust="spacing" textLength="127" x="450.5" y="524.2686">jobOpeningRepository</text></g><!--link JobOpeningService to JobOpening--><g id="link_JobOpeningService_JobOpening"><path codeLine="51" d="M500.45,396.06 C536.54,425.71 585.45,465.89 617.24,492 " fill="none" id="JobOpeningService-to-JobOpening" style="stroke:#181818;stroke-width:1.0;"/><polygon fill="#181818" points="621.41,495.43,616.9826,486.6324,617.5421,492.2615,611.913,492.821,621.41,495.43" style="stroke:#181818;stroke-width:1.0;"/><text fill="#000000" font-family="FG Virgil" font-size="13" lengthAdjust="spacing" textLength="40" x="552.5" y="438.7686">returns</text></g><!--link JobApplicationService to JobApplicationRepository--><g id="link_JobApplicationService_JobApplicationRepository"><path codeLine="52" d="M1334.12,396.02 C1325.42,438.56 1309.47,508.75 1288.5,567 C1279.59,591.75 1266.59,618.65 1256.52,638.15 " fill="none" id="JobApplicationService-to-JobApplicationRepository" style="stroke:#181818;stroke-width:1.0;"/><polygon fill="#181818" points="1254.03,642.95,1261.7354,636.8159,1256.3399,638.5156,1254.6403,633.1201,1254.03,642.95" style="stroke:#181818;stroke-width:1.0;"/><text fill="#000000" font-family="FG Virgil" font-size="13" lengthAdjust="spacing" textLength="143" x="1317.5" y="524.2686">jobApplicationRepository</text></g><!--link CustomerListJobOpeningsController to AuthorizationService--><g id="link_CustomerListJobOpeningsController_AuthorizationService"><path codeLine="53" d="M578.34,229.89 C464.71,249.4 314.99,278.91 185.5,317 C179.68,318.71 173.72,320.63 167.75,322.67 " fill="none" id="CustomerListJobOpeningsController-to-AuthorizationService" style="stroke:#181818;stroke-width:1.0;"/><polygon fill="#181818" points="162.74,324.41,172.5543,325.2348,167.4631,322.7691,169.9288,317.6779,162.74,324.41" style="stroke:#181818;stroke-width:1.0;"/><text fill="#000000" font-family="FG Virgil" font-size="13" lengthAdjust="spacing" textLength="28" x="357.5" y="283.7686">uses</text></g><!--link JobApplicationService to JobApplication--><g id="link_JobApplicationService_JobApplication"><path codeLine="54" d="M1300.71,396.22 C1291.43,405.66 1281.86,415.95 1273.5,426 C1256.35,446.63 1239.18,471.75 1226.95,490.6 " fill="none" id="JobApplicationService-to-JobApplication" style="stroke:#181818;stroke-width:1.0;"/><polygon fill="#181818" points="1223.95,495.26,1232.1815,489.8524,1226.6538,491.0541,1225.4521,485.5264,1223.95,495.26" style="stroke:#181818;stroke-width:1.0;"/><text fill="#000000" font-family="FG Virgil" font-size="13" lengthAdjust="spacing" textLength="40" x="1274.5" y="438.7686">returns</text></g><!--SRC=[hLHTJy8m57tVh-YZnF076aC291YCKGFHzxBTGR6iIzkXQFpljcDREzgncRYNVTnxpkuvzzxATvhbH903IY0b1LCBdgadSW2qk4TlL6mfYsIJ8tSauHyqswAKC0bHXFGLCo8bcXTIyGE8HohL0zyyvv3fFFcwHDzbbhbkKIo0ABWPONJaD742Mt1GirFDPZAN2WJPCBYp2PCI-HCDA62kzGZE68XW8VzQmhHGEoxe5r6KPsiGHnf3wwyIfDGXGxa-FzOibiJ-8iHGrRrlabQGSqaL5oViGEtN4VOP7JxMTikH7LSFk76snuYMX6cUCnft6b7983RhGiSq51dXCBL3dD8icPrqrWfI4935fLVDY_PT2LtqXHI7CjJN5n1I-sG8p3Z1fsg94NM15AHfhIruGM9pyntoKbg4ZYqbOPSVhg7EjDRz2YRQoQcflP6fo-rUwV5uCc3VC58xiEzHFyBm1ip6gD2R4mKY1k1xYNLBL24o6VanW-ZoKmFFWta5wBdL2_BRuK26UH9UgCgMmHGNnygVu44H9Tudlk9KwDpgPN3w6JQYfwVxhlKP9ZrugblnW-fn9Fm2]--></g></svg>