<?xml version="1.0" encoding="us-ascii" standalone="no"?><svg xmlns="http://www.w3.org/2000/svg" xmlns:xlink="http://www.w3.org/1999/xlink" contentStyleType="text/css" height="212.4px" preserveAspectRatio="none" style="width:299px;height:212px;background:#FFFFFF;" version="1.1" viewBox="0 0 299 212" width="299.4px" zoomAndPan="magnify"><defs/><g><!--class User--><g id="elem_User"><rect codeLine="1" fill="#F1F1F1" height="36.3492" id="User" rx="1.5" ry="1.5" style="stroke:#181818;stroke-width:0.3;" width="42.6" x="120" y="88.2"/><ellipse cx="129" cy="101.5746" fill="#ADD1B2" rx="6.6" ry="6.6" style="stroke:#181818;stroke-width:0.6;"/><path d="M128.3156,102.0527 L128.3156,103.5527 L130.9125,103.5527 L130.9125,102.9996 Q130.9125,102.634 131.0531,102.4746 Q131.2031,102.3152 131.4281,102.3152 Q131.6531,102.3152 131.7938,102.4746 Q131.9344,102.634 131.9344,102.9996 L131.9344,104.5746 L127.1344,104.5746 Q126.7594,104.5746 126.6,104.434 Q126.45,104.2934 126.45,104.059 Q126.45,103.834 126.6094,103.6934 Q126.7688,103.5527 127.1344,103.5527 L127.2937,103.5527 L127.2937,99.559 L127.1344,99.559 Q126.7594,99.559 126.6,99.4184 Q126.45,99.2777 126.45,99.0434 Q126.45,98.8184 126.6,98.6777 Q126.7594,98.5371 127.1344,98.5371 L131.7094,98.5371 L131.7094,100.0934 Q131.7094,100.459 131.5688,100.6184 Q131.4375,100.7684 131.2031,100.7684 Q130.9781,100.7684 130.8375,100.6184 Q130.6969,100.459 130.6969,100.0934 L130.6969,99.559 L128.3156,99.559 L128.3156,101.0309 L129.2062,101.0309 Q129.2062,100.6371 129.2813,100.5246 Q129.4406,100.2809 129.7219,100.2809 Q129.9469,100.2809 130.0875,100.4402 Q130.2281,100.5902 130.2281,100.9559 L130.2281,102.1371 Q130.2281,102.4652 130.1531,102.5777 Q129.9938,102.8121 129.7219,102.8121 Q129.4406,102.8121 129.2813,102.5684 Q129.2062,102.4559 129.2062,102.0527 L128.3156,102.0527 Z " fill="#000000"/><text fill="#000000" font-family="sans-serif" font-size="7.2" font-style="italic" lengthAdjust="spacing" textLength="25.8" x="136.2" y="98.9695">&#171;entity&#187;</text><text fill="#000000" font-family="sans-serif" font-size="8.4" lengthAdjust="spacing" textLength="17.4" x="140.4" y="109.841">User</text><line style="stroke:#181818;stroke-width:0.3;" x1="120.6" x2="162" y1="114.9492" y2="114.9492"/><line style="stroke:#181818;stroke-width:0.3;" x1="120.6" x2="162" y1="119.7492" y2="119.7492"/></g><!--class Name--><g id="elem_Name"><rect codeLine="4" fill="#F1F1F1" height="36.3492" id="Name" rx="1.5" ry="1.5" style="stroke:#181818;stroke-width:0.3;" width="44.4" x="14.1" y="172.2"/><ellipse cx="23.1" cy="185.5746" fill="#ADD1B2" rx="6.6" ry="6.6" style="stroke:#181818;stroke-width:0.6;"/><path d="M24.7594,183.0996 Q24.8531,182.9684 24.9656,182.9027 Q25.0781,182.8371 25.2094,182.8371 Q25.4344,182.8371 25.575,182.9965 Q25.7156,183.1465 25.7156,183.5121 L25.7156,184.384 Q25.7156,184.7496 25.575,184.909 Q25.4344,185.0684 25.2094,185.0684 Q25.0031,185.0684 24.8812,184.9465 Q24.7594,184.834 24.6937,184.5246 Q24.6656,184.309 24.5531,184.1965 Q24.3563,183.9715 23.9906,183.8402 Q23.625,183.709 23.25,183.709 Q22.7906,183.709 22.4063,183.9059 Q22.0313,184.1027 21.7313,184.5527 Q21.4406,185.0027 21.4406,185.6215 L21.4406,186.2777 Q21.4406,187.0184 21.975,187.5152 Q22.5094,188.0027 23.4656,188.0027 Q24.0281,188.0027 24.4219,187.8527 Q24.6563,187.759 24.9094,187.4965 Q25.0687,187.3371 25.1531,187.2902 Q25.2469,187.2434 25.3688,187.2434 Q25.5656,187.2434 25.7156,187.4027 Q25.875,187.5527 25.875,187.759 Q25.875,187.9652 25.6688,188.209 Q25.3688,188.5559 24.8906,188.7527 Q24.2438,189.0246 23.4656,189.0246 Q22.5563,189.0246 21.8344,188.6496 Q21.2438,188.3496 20.8313,187.7121 Q20.4188,187.0652 20.4188,186.2965 L20.4188,185.6027 Q20.4188,184.8059 20.7844,184.1215 Q21.1594,183.4277 21.8156,183.0621 Q22.4719,182.6871 23.2125,182.6871 Q23.6531,182.6871 24.0375,182.7902 Q24.4313,182.884 24.7594,183.0996 Z " fill="#000000"/><text fill="#000000" font-family="sans-serif" font-size="7.2" font-style="italic" lengthAdjust="spacing" textLength="27.6" x="30.3" y="182.9695">&#171;Value&#187;</text><text fill="#000000" font-family="sans-serif" font-size="8.4" lengthAdjust="spacing" textLength="21.6" x="33.3" y="193.841">Name</text><line style="stroke:#181818;stroke-width:0.3;" x1="14.7" x2="57.9" y1="198.9492" y2="198.9492"/><line style="stroke:#181818;stroke-width:0.3;" x1="14.7" x2="57.9" y1="203.7492" y2="203.7492"/></g><!--class Email--><g id="elem_Email"><rect codeLine="7" fill="#F1F1F1" height="36.3492" id="Email" rx="1.5" ry="1.5" style="stroke:#181818;stroke-width:0.3;" width="44.4" x="79.5" y="172.2"/><ellipse cx="88.5" cy="185.5746" fill="#ADD1B2" rx="6.6" ry="6.6" style="stroke:#181818;stroke-width:0.6;"/><path d="M90.1594,183.0996 Q90.2531,182.9684 90.3656,182.9027 Q90.4781,182.8371 90.6094,182.8371 Q90.8344,182.8371 90.975,182.9965 Q91.1156,183.1465 91.1156,183.5121 L91.1156,184.384 Q91.1156,184.7496 90.975,184.909 Q90.8344,185.0684 90.6094,185.0684 Q90.4031,185.0684 90.2813,184.9465 Q90.1594,184.834 90.0938,184.5246 Q90.0656,184.309 89.9531,184.1965 Q89.7563,183.9715 89.3906,183.8402 Q89.025,183.709 88.65,183.709 Q88.1906,183.709 87.8062,183.9059 Q87.4312,184.1027 87.1313,184.5527 Q86.8406,185.0027 86.8406,185.6215 L86.8406,186.2777 Q86.8406,187.0184 87.375,187.5152 Q87.9094,188.0027 88.8656,188.0027 Q89.4281,188.0027 89.8219,187.8527 Q90.0562,187.759 90.3094,187.4965 Q90.4688,187.3371 90.5531,187.2902 Q90.6469,187.2434 90.7688,187.2434 Q90.9656,187.2434 91.1156,187.4027 Q91.275,187.5527 91.275,187.759 Q91.275,187.9652 91.0688,188.209 Q90.7688,188.5559 90.2906,188.7527 Q89.6438,189.0246 88.8656,189.0246 Q87.9563,189.0246 87.2344,188.6496 Q86.6438,188.3496 86.2313,187.7121 Q85.8188,187.0652 85.8188,186.2965 L85.8188,185.6027 Q85.8188,184.8059 86.1844,184.1215 Q86.5594,183.4277 87.2156,183.0621 Q87.8719,182.6871 88.6125,182.6871 Q89.0531,182.6871 89.4375,182.7902 Q89.8313,182.884 90.1594,183.0996 Z " fill="#000000"/><text fill="#000000" font-family="sans-serif" font-size="7.2" font-style="italic" lengthAdjust="spacing" textLength="27.6" x="95.7" y="182.9695">&#171;Value&#187;</text><text fill="#000000" font-family="sans-serif" font-size="8.4" lengthAdjust="spacing" textLength="20.4" x="99.3" y="193.841">Email</text><line style="stroke:#181818;stroke-width:0.3;" x1="80.1" x2="123.3" y1="198.9492" y2="198.9492"/><line style="stroke:#181818;stroke-width:0.3;" x1="80.1" x2="123.3" y1="203.7492" y2="203.7492"/></g><!--class PhoneNumber--><g id="elem_PhoneNumber"><rect codeLine="10" fill="#F1F1F1" height="36.3492" id="PhoneNumber" rx="1.5" ry="1.5" style="stroke:#181818;stroke-width:0.3;" width="73.2" x="144.9" y="172.2"/><ellipse cx="153.9" cy="185.5746" fill="#ADD1B2" rx="6.6" ry="6.6" style="stroke:#181818;stroke-width:0.6;"/><path d="M155.5594,183.0996 Q155.6531,182.9684 155.7656,182.9027 Q155.8781,182.8371 156.0094,182.8371 Q156.2344,182.8371 156.375,182.9965 Q156.5156,183.1465 156.5156,183.5121 L156.5156,184.384 Q156.5156,184.7496 156.375,184.909 Q156.2344,185.0684 156.0094,185.0684 Q155.8031,185.0684 155.6813,184.9465 Q155.5594,184.834 155.4938,184.5246 Q155.4656,184.309 155.3531,184.1965 Q155.1563,183.9715 154.7906,183.8402 Q154.425,183.709 154.05,183.709 Q153.5906,183.709 153.2062,183.9059 Q152.8312,184.1027 152.5313,184.5527 Q152.2406,185.0027 152.2406,185.6215 L152.2406,186.2777 Q152.2406,187.0184 152.775,187.5152 Q153.3094,188.0027 154.2656,188.0027 Q154.8281,188.0027 155.2219,187.8527 Q155.4562,187.759 155.7094,187.4965 Q155.8688,187.3371 155.9531,187.2902 Q156.0469,187.2434 156.1688,187.2434 Q156.3656,187.2434 156.5156,187.4027 Q156.675,187.5527 156.675,187.759 Q156.675,187.9652 156.4688,188.209 Q156.1688,188.5559 155.6906,188.7527 Q155.0438,189.0246 154.2656,189.0246 Q153.3563,189.0246 152.6344,188.6496 Q152.0438,188.3496 151.6313,187.7121 Q151.2188,187.0652 151.2188,186.2965 L151.2188,185.6027 Q151.2188,184.8059 151.5844,184.1215 Q151.9594,183.4277 152.6156,183.0621 Q153.2719,182.6871 154.0125,182.6871 Q154.4531,182.6871 154.8375,182.7902 Q155.2313,182.884 155.5594,183.0996 Z " fill="#000000"/><text fill="#000000" font-family="sans-serif" font-size="7.2" font-style="italic" lengthAdjust="spacing" textLength="27.6" x="175.5" y="182.9695">&#171;Value&#187;</text><text fill="#000000" font-family="sans-serif" font-size="8.4" lengthAdjust="spacing" textLength="54" x="162.3" y="193.841">PhoneNumber</text><line style="stroke:#181818;stroke-width:0.3;" x1="145.5" x2="217.5" y1="198.9492" y2="198.9492"/><line style="stroke:#181818;stroke-width:0.3;" x1="145.5" x2="217.5" y1="203.7492" y2="203.7492"/></g><!--class Password--><g id="elem_Password"><rect codeLine="13" fill="#F1F1F1" height="36.3492" id="Password" rx="1.5" ry="1.5" style="stroke:#181818;stroke-width:0.3;" width="55.8" x="239.4" y="172.2"/><ellipse cx="248.4" cy="185.5746" fill="#ADD1B2" rx="6.6" ry="6.6" style="stroke:#181818;stroke-width:0.6;"/><path d="M250.0594,183.0996 Q250.1531,182.9684 250.2656,182.9027 Q250.3781,182.8371 250.5094,182.8371 Q250.7344,182.8371 250.875,182.9965 Q251.0156,183.1465 251.0156,183.5121 L251.0156,184.384 Q251.0156,184.7496 250.875,184.909 Q250.7344,185.0684 250.5094,185.0684 Q250.3031,185.0684 250.1812,184.9465 Q250.0594,184.834 249.9937,184.5246 Q249.9656,184.309 249.8531,184.1965 Q249.6563,183.9715 249.2906,183.8402 Q248.925,183.709 248.55,183.709 Q248.0906,183.709 247.7062,183.9059 Q247.3312,184.1027 247.0313,184.5527 Q246.7406,185.0027 246.7406,185.6215 L246.7406,186.2777 Q246.7406,187.0184 247.275,187.5152 Q247.8094,188.0027 248.7656,188.0027 Q249.3281,188.0027 249.7219,187.8527 Q249.9562,187.759 250.2094,187.4965 Q250.3687,187.3371 250.4531,187.2902 Q250.5469,187.2434 250.6688,187.2434 Q250.8656,187.2434 251.0156,187.4027 Q251.175,187.5527 251.175,187.759 Q251.175,187.9652 250.9688,188.209 Q250.6688,188.5559 250.1906,188.7527 Q249.5438,189.0246 248.7656,189.0246 Q247.8563,189.0246 247.1344,188.6496 Q246.5438,188.3496 246.1313,187.7121 Q245.7188,187.0652 245.7188,186.2965 L245.7188,185.6027 Q245.7188,184.8059 246.0844,184.1215 Q246.4594,183.4277 247.1156,183.0621 Q247.7719,182.6871 248.5125,182.6871 Q248.9531,182.6871 249.3375,182.7902 Q249.7313,182.884 250.0594,183.0996 Z " fill="#000000"/><text fill="#000000" font-family="sans-serif" font-size="7.2" font-style="italic" lengthAdjust="spacing" textLength="27.6" x="261.3" y="182.9695">&#171;Value&#187;</text><text fill="#000000" font-family="sans-serif" font-size="8.4" lengthAdjust="spacing" textLength="36.6" x="256.8" y="193.841">Password</text><line style="stroke:#181818;stroke-width:0.3;" x1="240" x2="294.6" y1="198.9492" y2="198.9492"/><line style="stroke:#181818;stroke-width:0.3;" x1="240" x2="294.6" y1="203.7492" y2="203.7492"/></g><!--class CustomerManager--><g id="elem_CustomerManager"><rect codeLine="15" fill="#F1F1F1" height="36.3492" id="CustomerManager" rx="1.5" ry="1.5" style="stroke:#181818;stroke-width:0.3;" width="89.4" x="4.2" y="4.2"/><ellipse cx="13.2" cy="17.5746" fill="#ADD1B2" rx="6.6" ry="6.6" style="stroke:#181818;stroke-width:0.6;"/><path d="M12.5156,18.0527 L12.5156,19.5527 L15.1125,19.5527 L15.1125,18.9996 Q15.1125,18.634 15.2531,18.4746 Q15.4031,18.3152 15.6281,18.3152 Q15.8531,18.3152 15.9937,18.4746 Q16.1344,18.634 16.1344,18.9996 L16.1344,20.5746 L11.3344,20.5746 Q10.9594,20.5746 10.8,20.434 Q10.65,20.2934 10.65,20.059 Q10.65,19.834 10.8094,19.6934 Q10.9688,19.5527 11.3344,19.5527 L11.4938,19.5527 L11.4938,15.559 L11.3344,15.559 Q10.9594,15.559 10.8,15.4184 Q10.65,15.2777 10.65,15.0434 Q10.65,14.8184 10.8,14.6777 Q10.9594,14.5371 11.3344,14.5371 L15.9094,14.5371 L15.9094,16.0934 Q15.9094,16.459 15.7687,16.6184 Q15.6375,16.7684 15.4031,16.7684 Q15.1781,16.7684 15.0375,16.6184 Q14.8969,16.459 14.8969,16.0934 L14.8969,15.559 L12.5156,15.559 L12.5156,17.0309 L13.4063,17.0309 Q13.4063,16.6371 13.4813,16.5246 Q13.6406,16.2809 13.9219,16.2809 Q14.1469,16.2809 14.2875,16.4402 Q14.4281,16.5902 14.4281,16.9559 L14.4281,18.1371 Q14.4281,18.4652 14.3531,18.5777 Q14.1938,18.8121 13.9219,18.8121 Q13.6406,18.8121 13.4813,18.5684 Q13.4063,18.4559 13.4063,18.0527 L12.5156,18.0527 Z " fill="#000000"/><text fill="#000000" font-family="sans-serif" font-size="7.2" font-style="italic" lengthAdjust="spacing" textLength="25.8" x="43.8" y="14.9695">&#171;entity&#187;</text><text fill="#000000" font-family="sans-serif" font-size="8.4" lengthAdjust="spacing" textLength="70.2" x="21.6" y="25.841">CustomerManager</text><line style="stroke:#181818;stroke-width:0.3;" x1="4.8" x2="93" y1="30.9492" y2="30.9492"/><line style="stroke:#181818;stroke-width:0.3;" x1="4.8" x2="93" y1="35.7492" y2="35.7492"/></g><!--class Operator--><g id="elem_Operator"><rect codeLine="17" fill="#F1F1F1" height="36.3492" id="Operator" rx="1.5" ry="1.5" style="stroke:#181818;stroke-width:0.3;" width="53.4" x="114.6" y="4.2"/><ellipse cx="123.6" cy="17.5746" fill="#ADD1B2" rx="6.6" ry="6.6" style="stroke:#181818;stroke-width:0.6;"/><path d="M122.9156,18.0527 L122.9156,19.5527 L125.5125,19.5527 L125.5125,18.9996 Q125.5125,18.634 125.6531,18.4746 Q125.8031,18.3152 126.0281,18.3152 Q126.2531,18.3152 126.3938,18.4746 Q126.5344,18.634 126.5344,18.9996 L126.5344,20.5746 L121.7344,20.5746 Q121.3594,20.5746 121.2,20.434 Q121.05,20.2934 121.05,20.059 Q121.05,19.834 121.2094,19.6934 Q121.3687,19.5527 121.7344,19.5527 L121.8938,19.5527 L121.8938,15.559 L121.7344,15.559 Q121.3594,15.559 121.2,15.4184 Q121.05,15.2777 121.05,15.0434 Q121.05,14.8184 121.2,14.6777 Q121.3594,14.5371 121.7344,14.5371 L126.3094,14.5371 L126.3094,16.0934 Q126.3094,16.459 126.1687,16.6184 Q126.0375,16.7684 125.8031,16.7684 Q125.5781,16.7684 125.4375,16.6184 Q125.2969,16.459 125.2969,16.0934 L125.2969,15.559 L122.9156,15.559 L122.9156,17.0309 L123.8062,17.0309 Q123.8062,16.6371 123.8813,16.5246 Q124.0406,16.2809 124.3219,16.2809 Q124.5469,16.2809 124.6875,16.4402 Q124.8281,16.5902 124.8281,16.9559 L124.8281,18.1371 Q124.8281,18.4652 124.7531,18.5777 Q124.5938,18.8121 124.3219,18.8121 Q124.0406,18.8121 123.8813,18.5684 Q123.8062,18.4559 123.8062,18.0527 L122.9156,18.0527 Z " fill="#000000"/><text fill="#000000" font-family="sans-serif" font-size="7.2" font-style="italic" lengthAdjust="spacing" textLength="25.8" x="136.2" y="14.9695">&#171;entity&#187;</text><text fill="#000000" font-family="sans-serif" font-size="8.4" lengthAdjust="spacing" textLength="34.2" x="132" y="25.841">Operator</text><line style="stroke:#181818;stroke-width:0.3;" x1="115.2" x2="167.4" y1="30.9492" y2="30.9492"/><line style="stroke:#181818;stroke-width:0.3;" x1="115.2" x2="167.4" y1="35.7492" y2="35.7492"/></g><!--class SystemAdministrator--><g id="elem_SystemAdministrator"><rect codeLine="21" fill="#F1F1F1" height="36.3492" id="SystemAdministrator" rx="1.5" ry="1.5" style="stroke:#181818;stroke-width:0.3;" width="96.6" x="189" y="4.2"/><ellipse cx="198" cy="17.5746" fill="#ADD1B2" rx="6.6" ry="6.6" style="stroke:#181818;stroke-width:0.6;"/><path d="M197.3156,18.0527 L197.3156,19.5527 L199.9125,19.5527 L199.9125,18.9996 Q199.9125,18.634 200.0531,18.4746 Q200.2031,18.3152 200.4281,18.3152 Q200.6531,18.3152 200.7938,18.4746 Q200.9344,18.634 200.9344,18.9996 L200.9344,20.5746 L196.1344,20.5746 Q195.7594,20.5746 195.6,20.434 Q195.45,20.2934 195.45,20.059 Q195.45,19.834 195.6094,19.6934 Q195.7687,19.5527 196.1344,19.5527 L196.2938,19.5527 L196.2938,15.559 L196.1344,15.559 Q195.7594,15.559 195.6,15.4184 Q195.45,15.2777 195.45,15.0434 Q195.45,14.8184 195.6,14.6777 Q195.7594,14.5371 196.1344,14.5371 L200.7094,14.5371 L200.7094,16.0934 Q200.7094,16.459 200.5688,16.6184 Q200.4375,16.7684 200.2031,16.7684 Q199.9781,16.7684 199.8375,16.6184 Q199.6969,16.459 199.6969,16.0934 L199.6969,15.559 L197.3156,15.559 L197.3156,17.0309 L198.2062,17.0309 Q198.2062,16.6371 198.2813,16.5246 Q198.4406,16.2809 198.7219,16.2809 Q198.9469,16.2809 199.0875,16.4402 Q199.2281,16.5902 199.2281,16.9559 L199.2281,18.1371 Q199.2281,18.4652 199.1531,18.5777 Q198.9938,18.8121 198.7219,18.8121 Q198.4406,18.8121 198.2813,18.5684 Q198.2062,18.4559 198.2062,18.0527 L197.3156,18.0527 Z " fill="#000000"/><text fill="#000000" font-family="sans-serif" font-size="7.2" font-style="italic" lengthAdjust="spacing" textLength="25.8" x="232.2" y="14.9695">&#171;entity&#187;</text><text fill="#000000" font-family="sans-serif" font-size="8.4" lengthAdjust="spacing" textLength="77.4" x="206.4" y="25.841">SystemAdministrator</text><line style="stroke:#181818;stroke-width:0.3;" x1="189.6" x2="285" y1="30.9492" y2="30.9492"/><line style="stroke:#181818;stroke-width:0.3;" x1="189.6" x2="285" y1="35.7492" y2="35.7492"/></g><!--link CustomerManager to User--><g id="link_CustomerManager_User"><path codeLine="24" d="M68.724,40.86 C83.52,54.126 103.752,72.252 119.094,85.998 " fill="none" id="CustomerManager-to-User" style="stroke:#181818;stroke-width:0.6;"/><polygon fill="#181818" points="121.512,88.164,119.082,82.7774,119.274,86.1661,115.8854,86.3582,121.512,88.164" style="stroke:#181818;stroke-width:0.6;"/><text fill="#000000" font-family="sans-serif" font-size="7.8" lengthAdjust="spacing" textLength="28.8" x="101.7" y="67.817">includes</text><text fill="#000000" font-family="sans-serif" font-size="7.8" lengthAdjust="spacing" textLength="4.2" x="67.9026" y="53.7896">1</text><text fill="#000000" font-family="sans-serif" font-size="7.8" lengthAdjust="spacing" textLength="4.2" x="112.524" y="81.3009">1</text></g><!--link Operator to User--><g id="link_Operator_User"><path codeLine="25" d="M141.3,40.86 C141.3,53.85 141.3,71.508 141.3,85.146 " fill="none" id="Operator-to-User" style="stroke:#181818;stroke-width:0.6;"/><polygon fill="#181818" points="141.3,88.164,143.7,82.764,141.3,85.164,138.9,82.764,141.3,88.164" style="stroke:#181818;stroke-width:0.6;"/><text fill="#000000" font-family="sans-serif" font-size="7.8" lengthAdjust="spacing" textLength="28.8" x="141.9" y="67.817">includes</text><text fill="#000000" font-family="sans-serif" font-size="7.8" lengthAdjust="spacing" textLength="4.2" x="136.6997" y="53.7896">1</text><text fill="#000000" font-family="sans-serif" font-size="7.8" lengthAdjust="spacing" textLength="4.2" x="136.6406" y="81.3009">1</text></g><!--link SystemAdministrator to User--><g id="link_SystemAdministrator_User"><path codeLine="26" d="M216.708,40.86 C201.27,54.18 180.138,72.402 164.178,86.166 " fill="none" id="SystemAdministrator-to-User" style="stroke:#181818;stroke-width:0.6;"/><polygon fill="#181818" points="161.862,88.164,167.517,86.4492,164.1319,86.2025,164.3786,82.8173,161.862,88.164" style="stroke:#181818;stroke-width:0.6;"/><text fill="#000000" font-family="sans-serif" font-size="7.8" lengthAdjust="spacing" textLength="28.8" x="195.3" y="67.817">includes</text><text fill="#000000" font-family="sans-serif" font-size="7.8" lengthAdjust="spacing" textLength="4.2" x="208.1823" y="53.7896">1</text><text fill="#000000" font-family="sans-serif" font-size="7.8" lengthAdjust="spacing" textLength="4.2" x="161.7006" y="81.3009">1</text></g><!--link User to Name--><g id="link_User_Name"><path codeLine="27" d="M119.796,124.056 C102.744,137.502 78.894,156.312 61.044,170.388 " fill="none" id="User-to-Name" style="stroke:#181818;stroke-width:0.6;"/><polygon fill="#181818" points="58.68,172.254,64.4059,170.793,61.0351,170.3956,61.4325,167.0249,58.68,172.254" style="stroke:#181818;stroke-width:0.6;"/><text fill="#000000" font-family="sans-serif" font-size="7.8" lengthAdjust="spacing" textLength="12.6" x="95.7" y="151.817">has</text><text fill="#000000" font-family="sans-serif" font-size="7.8" lengthAdjust="spacing" textLength="4.2" x="110.949" y="124.7671">1</text><text fill="#000000" font-family="sans-serif" font-size="7.8" lengthAdjust="spacing" textLength="4.2" x="63.3465" y="166.0612">1</text></g><!--link User to PhoneNumber--><g id="link_User_PhoneNumber"><path codeLine="28" d="M149.922,124.86 C156.258,137.904 164.874,155.658 171.504,169.314 " fill="none" id="User-to-PhoneNumber" style="stroke:#181818;stroke-width:0.6;"/><polygon fill="#181818" points="172.89,172.164,172.6895,166.2581,171.5793,169.4655,168.3719,168.3552,172.89,172.164" style="stroke:#181818;stroke-width:0.6;"/><text fill="#000000" font-family="sans-serif" font-size="7.8" lengthAdjust="spacing" textLength="12.6" x="164.1" y="151.817">has</text><text fill="#000000" font-family="sans-serif" font-size="7.8" lengthAdjust="spacing" textLength="4.2" x="146.9653" y="137.7896">1</text><text fill="#000000" font-family="sans-serif" font-size="7.8" lengthAdjust="spacing" textLength="4.2" x="166.3472" y="165.3009">1</text></g><!--link User to Email--><g id="link_User_Email"><path codeLine="29" d="M132.804,124.86 C126.57,137.904 118.08,155.658 111.546,169.314 " fill="none" id="User-to-Email" style="stroke:#181818;stroke-width:0.6;"/><polygon fill="#181818" points="110.184,172.164,114.6777,168.3265,111.4775,169.4572,110.3468,166.2569,110.184,172.164" style="stroke:#181818;stroke-width:0.6;"/><text fill="#000000" font-family="sans-serif" font-size="7.8" lengthAdjust="spacing" textLength="12.6" x="124.5" y="151.817">has</text><text fill="#000000" font-family="sans-serif" font-size="7.8" lengthAdjust="spacing" textLength="4.2" x="126.5841" y="137.7896">1</text><text fill="#000000" font-family="sans-serif" font-size="7.8" lengthAdjust="spacing" textLength="4.2" x="107.3805" y="165.3009">1</text></g><!--link User to Password--><g id="link_User_Password"><path codeLine="30" d="M162.672,121.146 C183.252,134.67 214.554,155.238 237.558,170.358 " fill="none" id="User-to-Password" style="stroke:#181818;stroke-width:0.6;"/><polygon fill="#181818" points="240.324,172.176,237.1306,167.2039,237.8173,170.5278,234.4934,171.2145,240.324,172.176" style="stroke:#181818;stroke-width:0.6;"/><text fill="#000000" font-family="sans-serif" font-size="7.8" lengthAdjust="spacing" textLength="12.6" x="212.1" y="151.817">has</text><text fill="#000000" font-family="sans-serif" font-size="7.8" lengthAdjust="spacing" textLength="4.2" x="167.5131" y="121.3757">1</text><text fill="#000000" font-family="sans-serif" font-size="7.8" lengthAdjust="spacing" textLength="4.2" x="230.3997" y="165.8233">1</text></g><!--SRC=[VP4z2uCm48Rt_8hGfPD3Lv60b8wrXTBkLpqqa8-IH8f8_tibegPMNHAEvpdkvGwLuwwXTuk69WdwYh6MV0Z91LXBCv3OaGU86XcZ0Jb9u68PNIkjCAlb4yt8GzmzRssAgRdjM3-S7clhj4Hp1WNbRwf9khpGWDD_cVUtnZgKQI6vujPv9orBWoKu79eNdDaKCW-nE-ne537_-rt5bAjSr0LQCcRPafPcRlc-3WL_XvXMiC22TQyf_R7M-eTxzFmB]--></g></svg>