<?xml version="1.0" encoding="us-ascii" standalone="no"?><svg xmlns="http://www.w3.org/2000/svg" xmlns:xlink="http://www.w3.org/1999/xlink" contentStyleType="text/css" height="1323px" preserveAspectRatio="none" style="width:2466px;height:1323px;background:#FFFFFF;" version="1.1" viewBox="0 0 2466 1323" width="2466px" zoomAndPan="magnify"><defs/><g><rect fill="#FFFFFF" height="1107.5156" style="stroke:#181818;stroke-width:1.0;" width="10" x="61.5" y="98.2422"/><rect fill="#FFFFFF" height="1107.5156" style="stroke:#181818;stroke-width:1.0;" width="10" x="457.5" y="98.2422"/><rect fill="#FFFFFF" height="1021.6426" style="stroke:#181818;stroke-width:1.0;" width="10" x="756.5" y="152.8242"/><rect fill="#FFFFFF" height="281.6191" style="stroke:#181818;stroke-width:1.0;" width="10" x="1555" y="309.2793"/><rect fill="#FFFFFF" height="458.4043" style="stroke:#181818;stroke-width:1.0;" width="10" x="1699" y="684.7715"/><rect fill="#FFFFFF" height="62.582" style="stroke:#181818;stroke-width:1.0;" width="10" x="1835" y="340.5703"/><rect fill="#FFFFFF" height="62.582" style="stroke:#181818;stroke-width:1.0;" width="10" x="1835" y="716.0625"/><rect fill="#FFFFFF" height="62.582" style="stroke:#181818;stroke-width:1.0;" width="10" x="1978" y="434.4434"/><rect fill="#FFFFFF" height="62.582" style="stroke:#181818;stroke-width:1.0;" width="10" x="1978" y="809.9355"/><rect fill="#FFFFFF" height="31.291" style="stroke:#181818;stroke-width:1.0;" width="10" x="2135.5" y="528.3164"/><rect fill="#FFFFFF" height="31.291" style="stroke:#181818;stroke-width:1.0;" width="10" x="2292.5" y="930.0996"/><rect fill="none" height="162.7852" style="stroke:#000000;stroke-width:1.5;" width="824" x="1636" y="887.5176"/><line style="stroke:#181818;stroke-width:0.5;stroke-dasharray:5.0,5.0;" x1="66" x2="66" y1="88.2422" y2="1223.7578"/><line style="stroke:#181818;stroke-width:0.5;stroke-dasharray:5.0,5.0;" x1="462" x2="462" y1="88.2422" y2="1223.7578"/><line style="stroke:#181818;stroke-width:0.5;stroke-dasharray:5.0,5.0;" x1="761" x2="761" y1="88.2422" y2="1223.7578"/><line style="stroke:#181818;stroke-width:0.5;stroke-dasharray:5.0,5.0;" x1="1402" x2="1402" y1="88.2422" y2="1223.7578"/><line style="stroke:#181818;stroke-width:0.5;stroke-dasharray:5.0,5.0;" x1="1560" x2="1560" y1="88.2422" y2="1223.7578"/><line style="stroke:#181818;stroke-width:0.5;stroke-dasharray:5.0,5.0;" x1="1704" x2="1704" y1="88.2422" y2="1223.7578"/><line style="stroke:#181818;stroke-width:0.5;stroke-dasharray:5.0,5.0;" x1="1840" x2="1840" y1="88.2422" y2="1223.7578"/><line style="stroke:#181818;stroke-width:0.5;stroke-dasharray:5.0,5.0;" x1="1983" x2="1983" y1="88.2422" y2="1223.7578"/><line style="stroke:#181818;stroke-width:0.5;stroke-dasharray:5.0,5.0;" x1="2140" x2="2140" y1="88.2422" y2="1223.7578"/><line style="stroke:#181818;stroke-width:0.5;stroke-dasharray:5.0,5.0;" x1="2297" x2="2297" y1="88.2422" y2="1223.7578"/><line style="stroke:#181818;stroke-width:0.5;stroke-dasharray:5.0,5.0;" x1="2411" x2="2411" y1="1001.2012" y2="1223.7578"/><text fill="#000000" font-family="FG Virgil" font-size="14" lengthAdjust="spacing" textLength="117" x="5" y="84.7285">CustomerManager</text><ellipse cx="66.5" cy="18.1211" fill="#E2E2F0" rx="8" ry="8" style="stroke:#181818;stroke-width:0.5;"/><path d="M66.5,26.1211 L66.5,53.1211 M53.5,34.1211 L79.5,34.1211 M66.5,53.1211 L53.5,68.1211 M66.5,53.1211 L79.5,68.1211 " fill="none" style="stroke:#181818;stroke-width:0.5;"/><text fill="#000000" font-family="FG Virgil" font-size="14" lengthAdjust="spacing" textLength="117" x="5" y="1237.8652">CustomerManager</text><ellipse cx="66.5" cy="1249.8789" fill="#E2E2F0" rx="8" ry="8" style="stroke:#181818;stroke-width:0.5;"/><path d="M66.5,1257.8789 L66.5,1284.8789 M53.5,1265.8789 L79.5,1265.8789 M66.5,1284.8789 L53.5,1299.8789 M66.5,1284.8789 L79.5,1299.8789 " fill="none" style="stroke:#181818;stroke-width:0.5;"/><rect fill="#E2E2F0" height="51.2422" rx="2.5" ry="2.5" style="stroke:#181818;stroke-width:0.5;" width="173" x="376" y="36"/><text fill="#000000" font-family="FG Virgil" font-size="14" font-style="italic" lengthAdjust="spacing" textLength="95" x="415" y="58.1074">&#171;presentation&#187;</text><text fill="#000000" font-family="FG Virgil" font-size="14" lengthAdjust="spacing" textLength="159" x="383" y="76.7285">ListOrderedCandidatesUI</text><rect fill="#E2E2F0" height="51.2422" rx="2.5" ry="2.5" style="stroke:#181818;stroke-width:0.5;" width="173" x="376" y="1222.7578"/><text fill="#000000" font-family="FG Virgil" font-size="14" font-style="italic" lengthAdjust="spacing" textLength="95" x="415" y="1244.8652">&#171;presentation&#187;</text><text fill="#000000" font-family="FG Virgil" font-size="14" lengthAdjust="spacing" textLength="159" x="383" y="1263.4863">ListOrderedCandidatesUI</text><rect fill="#E2E2F0" height="51.2422" rx="2.5" ry="2.5" style="stroke:#181818;stroke-width:0.5;" width="223" x="650" y="36"/><text fill="#000000" font-family="FG Virgil" font-size="14" font-style="italic" lengthAdjust="spacing" textLength="84" x="719.5" y="58.1074">&#171;application&#187;</text><text fill="#000000" font-family="FG Virgil" font-size="14" lengthAdjust="spacing" textLength="209" x="657" y="76.7285">ListOrderedCandidatesController</text><rect fill="#E2E2F0" height="51.2422" rx="2.5" ry="2.5" style="stroke:#181818;stroke-width:0.5;" width="223" x="650" y="1222.7578"/><text fill="#000000" font-family="FG Virgil" font-size="14" font-style="italic" lengthAdjust="spacing" textLength="84" x="719.5" y="1244.8652">&#171;application&#187;</text><text fill="#000000" font-family="FG Virgil" font-size="14" lengthAdjust="spacing" textLength="209" x="657" y="1263.4863">ListOrderedCandidatesController</text><rect fill="#E2E2F0" height="51.2422" rx="2.5" ry="2.5" style="stroke:#181818;stroke-width:0.5;" width="143" x="1331" y="36"/><text fill="#000000" font-family="FG Virgil" font-size="14" font-style="italic" lengthAdjust="spacing" textLength="60" x="1372.5" y="58.1074">&#171;service&#187;</text><text fill="#000000" font-family="FG Virgil" font-size="14" lengthAdjust="spacing" textLength="129" x="1338" y="76.7285">AuthorizationService</text><rect fill="#E2E2F0" height="51.2422" rx="2.5" ry="2.5" style="stroke:#181818;stroke-width:0.5;" width="143" x="1331" y="1222.7578"/><text fill="#000000" font-family="FG Virgil" font-size="14" font-style="italic" lengthAdjust="spacing" textLength="60" x="1372.5" y="1244.8652">&#171;service&#187;</text><text fill="#000000" font-family="FG Virgil" font-size="14" lengthAdjust="spacing" textLength="129" x="1338" y="1263.4863">AuthorizationService</text><rect fill="#E2E2F0" height="51.2422" rx="2.5" ry="2.5" style="stroke:#181818;stroke-width:0.5;" width="152" x="1484" y="36"/><text fill="#000000" font-family="FG Virgil" font-size="14" font-style="italic" lengthAdjust="spacing" textLength="60" x="1530" y="58.1074">&#171;service&#187;</text><text fill="#000000" font-family="FG Virgil" font-size="14" lengthAdjust="spacing" textLength="138" x="1491" y="76.7285">JobApplicationService</text><rect fill="#E2E2F0" height="51.2422" rx="2.5" ry="2.5" style="stroke:#181818;stroke-width:0.5;" width="152" x="1484" y="1222.7578"/><text fill="#000000" font-family="FG Virgil" font-size="14" font-style="italic" lengthAdjust="spacing" textLength="60" x="1530" y="1244.8652">&#171;service&#187;</text><text fill="#000000" font-family="FG Virgil" font-size="14" lengthAdjust="spacing" textLength="138" x="1491" y="1263.4863">JobApplicationService</text><rect fill="#E2E2F0" height="51.2422" rx="2.5" ry="2.5" style="stroke:#181818;stroke-width:0.5;" width="116" x="1646" y="36"/><text fill="#000000" font-family="FG Virgil" font-size="14" font-style="italic" lengthAdjust="spacing" textLength="60" x="1674" y="58.1074">&#171;service&#187;</text><text fill="#000000" font-family="FG Virgil" font-size="14" lengthAdjust="spacing" textLength="102" x="1653" y="76.7285">InterviewService</text><rect fill="#E2E2F0" height="51.2422" rx="2.5" ry="2.5" style="stroke:#181818;stroke-width:0.5;" width="116" x="1646" y="1222.7578"/><text fill="#000000" font-family="FG Virgil" font-size="14" font-style="italic" lengthAdjust="spacing" textLength="60" x="1674" y="1244.8652">&#171;service&#187;</text><text fill="#000000" font-family="FG Virgil" font-size="14" lengthAdjust="spacing" textLength="102" x="1653" y="1263.4863">InterviewService</text><rect fill="#E2E2F0" height="51.2422" rx="2.5" ry="2.5" style="stroke:#181818;stroke-width:0.5;" width="136" x="1772" y="36"/><text fill="#000000" font-family="FG Virgil" font-size="14" font-style="italic" lengthAdjust="spacing" textLength="89" x="1795.5" y="58.1074">&#171;persistence&#187;</text><text fill="#000000" font-family="FG Virgil" font-size="14" lengthAdjust="spacing" textLength="122" x="1779" y="76.7285">PersistenceContext</text><rect fill="#E2E2F0" height="51.2422" rx="2.5" ry="2.5" style="stroke:#181818;stroke-width:0.5;" width="136" x="1772" y="1222.7578"/><text fill="#000000" font-family="FG Virgil" font-size="14" font-style="italic" lengthAdjust="spacing" textLength="89" x="1795.5" y="1244.8652">&#171;persistence&#187;</text><text fill="#000000" font-family="FG Virgil" font-size="14" lengthAdjust="spacing" textLength="122" x="1779" y="1263.4863">PersistenceContext</text><rect fill="#E2E2F0" height="51.2422" rx="2.5" ry="2.5" style="stroke:#181818;stroke-width:0.5;" width="130" x="1918" y="36"/><text fill="#000000" font-family="FG Virgil" font-size="14" font-style="italic" lengthAdjust="spacing" textLength="59" x="1953.5" y="58.1074">&#171;factory&#187;</text><text fill="#000000" font-family="FG Virgil" font-size="14" lengthAdjust="spacing" textLength="116" x="1925" y="76.7285">RepositoryFactory</text><rect fill="#E2E2F0" height="51.2422" rx="2.5" ry="2.5" style="stroke:#181818;stroke-width:0.5;" width="130" x="1918" y="1222.7578"/><text fill="#000000" font-family="FG Virgil" font-size="14" font-style="italic" lengthAdjust="spacing" textLength="59" x="1953.5" y="1244.8652">&#171;factory&#187;</text><text fill="#000000" font-family="FG Virgil" font-size="14" lengthAdjust="spacing" textLength="116" x="1925" y="1263.4863">RepositoryFactory</text><text fill="#000000" font-family="FG Virgil" font-size="14" font-style="italic" lengthAdjust="spacing" textLength="79" x="2098" y="66.1074">&#171;repository&#187;</text><text fill="#000000" font-family="FG Virgil" font-size="14" lengthAdjust="spacing" textLength="159" x="2058" y="84.7285">JobApplicationRepository</text><path d="M2122.5,15 C2122.5,5 2140.5,5 2140.5,5 C2140.5,5 2158.5,5 2158.5,15 L2158.5,41 C2158.5,51 2140.5,51 2140.5,51 C2140.5,51 2122.5,51 2122.5,41 L2122.5,15 " fill="#E2E2F0" style="stroke:#181818;stroke-width:1.5;"/><path d="M2122.5,15 C2122.5,25 2140.5,25 2140.5,25 C2140.5,25 2158.5,25 2158.5,15 " fill="none" style="stroke:#181818;stroke-width:1.5;"/><text fill="#000000" font-family="FG Virgil" font-size="14" font-style="italic" lengthAdjust="spacing" textLength="79" x="2098" y="1237.8652">&#171;repository&#187;</text><text fill="#000000" font-family="FG Virgil" font-size="14" lengthAdjust="spacing" textLength="159" x="2058" y="1256.4863">JobApplicationRepository</text><path d="M2122.5,1270 C2122.5,1260 2140.5,1260 2140.5,1260 C2140.5,1260 2158.5,1260 2158.5,1270 L2158.5,1296 C2158.5,1306 2140.5,1306 2140.5,1306 C2140.5,1306 2122.5,1306 2122.5,1296 L2122.5,1270 " fill="#E2E2F0" style="stroke:#181818;stroke-width:1.5;"/><path d="M2122.5,1270 C2122.5,1280 2140.5,1280 2140.5,1280 C2140.5,1280 2158.5,1280 2158.5,1270 " fill="none" style="stroke:#181818;stroke-width:1.5;"/><text fill="#000000" font-family="FG Virgil" font-size="14" font-style="italic" lengthAdjust="spacing" textLength="79" x="2255" y="66.1074">&#171;repository&#187;</text><text fill="#000000" font-family="FG Virgil" font-size="14" lengthAdjust="spacing" textLength="123" x="2233" y="84.7285">InterviewRepository</text><path d="M2279.5,15 C2279.5,5 2297.5,5 2297.5,5 C2297.5,5 2315.5,5 2315.5,15 L2315.5,41 C2315.5,51 2297.5,51 2297.5,51 C2297.5,51 2279.5,51 2279.5,41 L2279.5,15 " fill="#E2E2F0" style="stroke:#181818;stroke-width:1.5;"/><path d="M2279.5,15 C2279.5,25 2297.5,25 2297.5,25 C2297.5,25 2315.5,25 2315.5,15 " fill="none" style="stroke:#181818;stroke-width:1.5;"/><text fill="#000000" font-family="FG Virgil" font-size="14" font-style="italic" lengthAdjust="spacing" textLength="79" x="2255" y="1237.8652">&#171;repository&#187;</text><text fill="#000000" font-family="FG Virgil" font-size="14" lengthAdjust="spacing" textLength="123" x="2233" y="1256.4863">InterviewRepository</text><path d="M2279.5,1270 C2279.5,1260 2297.5,1260 2297.5,1260 C2297.5,1260 2315.5,1260 2315.5,1270 L2315.5,1296 C2315.5,1306 2297.5,1306 2297.5,1306 C2297.5,1306 2279.5,1306 2279.5,1296 L2279.5,1270 " fill="#E2E2F0" style="stroke:#181818;stroke-width:1.5;"/><path d="M2279.5,1270 C2279.5,1280 2297.5,1280 2297.5,1280 C2297.5,1280 2315.5,1280 2315.5,1270 " fill="none" style="stroke:#181818;stroke-width:1.5;"/><rect fill="#E2E2F0" height="32.6211" rx="2.5" ry="2.5" style="stroke:#181818;stroke-width:0.5;" width="78" x="2372" y="1222.7578"/><text fill="#000000" font-family="FG Virgil" font-size="14" lengthAdjust="spacing" textLength="64" x="2379" y="1244.8652">Map.Entry</text><rect fill="#FFFFFF" height="1107.5156" style="stroke:#181818;stroke-width:1.0;" width="10" x="61.5" y="98.2422"/><rect fill="#FFFFFF" height="1107.5156" style="stroke:#181818;stroke-width:1.0;" width="10" x="457.5" y="98.2422"/><rect fill="#FFFFFF" height="1021.6426" style="stroke:#181818;stroke-width:1.0;" width="10" x="756.5" y="152.8242"/><rect fill="#FFFFFF" height="281.6191" style="stroke:#181818;stroke-width:1.0;" width="10" x="1555" y="309.2793"/><rect fill="#FFFFFF" height="458.4043" style="stroke:#181818;stroke-width:1.0;" width="10" x="1699" y="684.7715"/><rect fill="#FFFFFF" height="62.582" style="stroke:#181818;stroke-width:1.0;" width="10" x="1835" y="340.5703"/><rect fill="#FFFFFF" height="62.582" style="stroke:#181818;stroke-width:1.0;" width="10" x="1835" y="716.0625"/><rect fill="#FFFFFF" height="62.582" style="stroke:#181818;stroke-width:1.0;" width="10" x="1978" y="434.4434"/><rect fill="#FFFFFF" height="62.582" style="stroke:#181818;stroke-width:1.0;" width="10" x="1978" y="809.9355"/><rect fill="#FFFFFF" height="31.291" style="stroke:#181818;stroke-width:1.0;" width="10" x="2135.5" y="528.3164"/><rect fill="#FFFFFF" height="31.291" style="stroke:#181818;stroke-width:1.0;" width="10" x="2292.5" y="930.0996"/><polygon fill="#181818" points="445.5,117.5332,455.5,121.5332,445.5,125.5332,449.5,121.5332" style="stroke:#181818;stroke-width:1.0;"/><line style="stroke:#181818;stroke-width:1.0;" x1="71.5" x2="451.5" y1="121.5332" y2="121.5332"/><text fill="#000000" font-family="FG Virgil" font-size="13" lengthAdjust="spacing" textLength="362" x="78.5" y="116.2705">List an ordered list of candidates, using the job interview points</text><polygon fill="#181818" points="744.5,148.8242,754.5,152.8242,744.5,156.8242,748.5,152.8242" style="stroke:#181818;stroke-width:1.0;"/><line style="stroke:#181818;stroke-width:1.0;" x1="467.5" x2="750.5" y1="152.8242" y2="152.8242"/><text fill="#000000" font-family="FG Virgil" font-size="13" lengthAdjust="spacing" textLength="36" x="474.5" y="147.5615">create</text><polygon fill="#181818" points="82.5,180.1152,72.5,184.1152,82.5,188.1152,78.5,184.1152" style="stroke:#181818;stroke-width:1.0;"/><line style="stroke:#181818;stroke-width:1.0;stroke-dasharray:2.0,2.0;" x1="76.5" x2="456.5" y1="184.1152" y2="184.1152"/><text fill="#000000" font-family="FG Virgil" font-size="13" lengthAdjust="spacing" textLength="126" x="88.5" y="178.8525">Asks for job reference</text><polygon fill="#181818" points="445.5,211.4063,455.5,215.4063,445.5,219.4063,449.5,215.4063" style="stroke:#181818;stroke-width:1.0;"/><line style="stroke:#181818;stroke-width:1.0;" x1="71.5" x2="451.5" y1="215.4063" y2="215.4063"/><text fill="#000000" font-family="FG Virgil" font-size="13" lengthAdjust="spacing" textLength="74" x="78.5" y="210.1436">job reference</text><polygon fill="#181818" points="744.5,242.6973,754.5,246.6973,744.5,250.6973,748.5,246.6973" style="stroke:#181818;stroke-width:1.0;"/><line style="stroke:#181818;stroke-width:1.0;" x1="467.5" x2="750.5" y1="246.6973" y2="246.6973"/><text fill="#000000" font-family="FG Virgil" font-size="13" lengthAdjust="spacing" textLength="166" x="474.5" y="241.4346">allApplications(job reference)</text><polygon fill="#181818" points="1390.5,273.9883,1400.5,277.9883,1390.5,281.9883,1394.5,277.9883" style="stroke:#181818;stroke-width:1.0;"/><line style="stroke:#181818;stroke-width:1.0;" x1="766.5" x2="1396.5" y1="277.9883" y2="277.9883"/><text fill="#000000" font-family="FG Virgil" font-size="13" lengthAdjust="spacing" textLength="612" x="773.5" y="272.7256">ensureAuthenticatedUserHasAnyOf(Jobs4uRoles.POWER_USER,Jobs4uRoles.CUSTOMER_MANAGER)</text><polygon fill="#181818" points="1543,305.2793,1553,309.2793,1543,313.2793,1547,309.2793" style="stroke:#181818;stroke-width:1.0;"/><line style="stroke:#181818;stroke-width:1.0;" x1="766.5" x2="1549" y1="309.2793" y2="309.2793"/><text fill="#000000" font-family="FG Virgil" font-size="13" lengthAdjust="spacing" textLength="185" x="773.5" y="304.0166">listAllApplications(job reference)</text><polygon fill="#181818" points="1823,336.5703,1833,340.5703,1823,344.5703,1827,340.5703" style="stroke:#181818;stroke-width:1.0;"/><line style="stroke:#181818;stroke-width:1.0;" x1="1565" x2="1829" y1="340.5703" y2="340.5703"/><text fill="#000000" font-family="FG Virgil" font-size="13" lengthAdjust="spacing" textLength="75" x="1572" y="335.3076">repositories()</text><polygon fill="#181818" points="1971,367.8613,1981,371.8613,1971,375.8613,1975,371.8613" style="stroke:#181818;stroke-width:1.0;"/><line style="stroke:#181818;stroke-width:1.0;" x1="1845" x2="1977" y1="371.8613" y2="371.8613"/><text fill="#000000" font-family="FG Virgil" font-size="13" lengthAdjust="spacing" textLength="44" x="1852" y="366.5986">create()</text><polygon fill="#181818" points="1576,399.1523,1566,403.1523,1576,407.1523,1572,403.1523" style="stroke:#181818;stroke-width:1.0;"/><line style="stroke:#181818;stroke-width:1.0;stroke-dasharray:2.0,2.0;" x1="1570" x2="1839" y1="403.1523" y2="403.1523"/><text fill="#000000" font-family="FG Virgil" font-size="13" lengthAdjust="spacing" textLength="39" x="1582" y="397.8896">factory</text><polygon fill="#181818" points="1966,430.4434,1976,434.4434,1966,438.4434,1970,434.4434" style="stroke:#181818;stroke-width:1.0;"/><line style="stroke:#181818;stroke-width:1.0;" x1="1565" x2="1972" y1="434.4434" y2="434.4434"/><text fill="#000000" font-family="FG Virgil" font-size="13" lengthAdjust="spacing" textLength="77" x="1572" y="429.1807">applications()</text><polygon fill="#181818" points="2128.5,461.7344,2138.5,465.7344,2128.5,469.7344,2132.5,465.7344" style="stroke:#181818;stroke-width:1.0;"/><line style="stroke:#181818;stroke-width:1.0;" x1="1988" x2="2134.5" y1="465.7344" y2="465.7344"/><text fill="#000000" font-family="FG Virgil" font-size="13" lengthAdjust="spacing" textLength="44" x="1995" y="460.4717">create()</text><polygon fill="#181818" points="1576,493.0254,1566,497.0254,1576,501.0254,1572,497.0254" style="stroke:#181818;stroke-width:1.0;"/><line style="stroke:#181818;stroke-width:1.0;" x1="1570" x2="1982" y1="497.0254" y2="497.0254"/><text fill="#000000" font-family="FG Virgil" font-size="13" lengthAdjust="spacing" textLength="124" x="1582" y="491.7627">applicationRepository</text><polygon fill="#181818" points="2123.5,524.3164,2133.5,528.3164,2123.5,532.3164,2127.5,528.3164" style="stroke:#181818;stroke-width:1.0;"/><line style="stroke:#181818;stroke-width:1.0;" x1="1565" x2="2129.5" y1="528.3164" y2="528.3164"/><text fill="#000000" font-family="FG Virgil" font-size="13" lengthAdjust="spacing" textLength="122" x="1572" y="523.0537">findByJobReference()</text><polygon fill="#181818" points="1576,555.6074,1566,559.6074,1576,563.6074,1572,559.6074" style="stroke:#181818;stroke-width:1.0;"/><line style="stroke:#181818;stroke-width:1.0;stroke-dasharray:2.0,2.0;" x1="1570" x2="2139.5" y1="559.6074" y2="559.6074"/><text fill="#000000" font-family="FG Virgil" font-size="13" lengthAdjust="spacing" textLength="69" x="1582" y="554.3447">applications</text><polygon fill="#181818" points="777.5,586.8984,767.5,590.8984,777.5,594.8984,773.5,590.8984" style="stroke:#181818;stroke-width:1.0;"/><line style="stroke:#181818;stroke-width:1.0;stroke-dasharray:2.0,2.0;" x1="771.5" x2="1559" y1="590.8984" y2="590.8984"/><text fill="#000000" font-family="FG Virgil" font-size="13" lengthAdjust="spacing" textLength="69" x="783.5" y="585.6357">applications</text><polygon fill="#181818" points="478.5,618.1895,468.5,622.1895,478.5,626.1895,474.5,622.1895" style="stroke:#181818;stroke-width:1.0;"/><line style="stroke:#181818;stroke-width:1.0;stroke-dasharray:2.0,2.0;" x1="472.5" x2="755.5" y1="622.1895" y2="622.1895"/><text fill="#000000" font-family="FG Virgil" font-size="13" lengthAdjust="spacing" textLength="69" x="484.5" y="616.9268">applications</text><polygon fill="#181818" points="744.5,649.4805,754.5,653.4805,744.5,657.4805,748.5,653.4805" style="stroke:#181818;stroke-width:1.0;"/><line style="stroke:#181818;stroke-width:1.0;" x1="467.5" x2="750.5" y1="653.4805" y2="653.4805"/><text fill="#000000" font-family="FG Virgil" font-size="13" lengthAdjust="spacing" textLength="265" x="474.5" y="648.2178">findInterviewsAndSortCandidates(applications)</text><polygon fill="#181818" points="1687,680.7715,1697,684.7715,1687,688.7715,1691,684.7715" style="stroke:#181818;stroke-width:1.0;"/><line style="stroke:#181818;stroke-width:1.0;" x1="766.5" x2="1693" y1="684.7715" y2="684.7715"/><text fill="#000000" font-family="FG Virgil" font-size="13" lengthAdjust="spacing" textLength="277" x="773.5" y="679.5088">associateInterviewsAndCandidates(applications)</text><polygon fill="#181818" points="1823,712.0625,1833,716.0625,1823,720.0625,1827,716.0625" style="stroke:#181818;stroke-width:1.0;"/><line style="stroke:#181818;stroke-width:1.0;" x1="1709" x2="1829" y1="716.0625" y2="716.0625"/><text fill="#000000" font-family="FG Virgil" font-size="13" lengthAdjust="spacing" textLength="75" x="1716" y="710.7998">repositories()</text><polygon fill="#181818" points="1971,743.3535,1981,747.3535,1971,751.3535,1975,747.3535" style="stroke:#181818;stroke-width:1.0;"/><line style="stroke:#181818;stroke-width:1.0;" x1="1845" x2="1977" y1="747.3535" y2="747.3535"/><text fill="#000000" font-family="FG Virgil" font-size="13" lengthAdjust="spacing" textLength="44" x="1852" y="742.0908">create()</text><polygon fill="#181818" points="1720,774.6445,1710,778.6445,1720,782.6445,1716,778.6445" style="stroke:#181818;stroke-width:1.0;"/><line style="stroke:#181818;stroke-width:1.0;stroke-dasharray:2.0,2.0;" x1="1714" x2="1839" y1="778.6445" y2="778.6445"/><text fill="#000000" font-family="FG Virgil" font-size="13" lengthAdjust="spacing" textLength="39" x="1726" y="773.3818">factory</text><polygon fill="#181818" points="1966,805.9355,1976,809.9355,1966,813.9355,1970,809.9355" style="stroke:#181818;stroke-width:1.0;"/><line style="stroke:#181818;stroke-width:1.0;" x1="1709" x2="1972" y1="809.9355" y2="809.9355"/><text fill="#000000" font-family="FG Virgil" font-size="13" lengthAdjust="spacing" textLength="64" x="1716" y="804.6729">interviews()</text><polygon fill="#181818" points="2285.5,837.2266,2295.5,841.2266,2285.5,845.2266,2289.5,841.2266" style="stroke:#181818;stroke-width:1.0;"/><line style="stroke:#181818;stroke-width:1.0;" x1="1988" x2="2291.5" y1="841.2266" y2="841.2266"/><text fill="#000000" font-family="FG Virgil" font-size="13" lengthAdjust="spacing" textLength="44" x="1995" y="835.9639">create()</text><polygon fill="#181818" points="1720,868.5176,1710,872.5176,1720,876.5176,1716,872.5176" style="stroke:#181818;stroke-width:1.0;"/><line style="stroke:#181818;stroke-width:1.0;" x1="1714" x2="1982" y1="872.5176" y2="872.5176"/><text fill="#000000" font-family="FG Virgil" font-size="13" lengthAdjust="spacing" textLength="111" x="1726" y="867.2549">interviewRepository</text><path d="M1636,887.5176 L1709,887.5176 L1709,896.8086 L1699,906.8086 L1636,906.8086 L1636,887.5176 " fill="#EEEEEE" style="stroke:#000000;stroke-width:1.5;"/><rect fill="none" height="162.7852" style="stroke:#000000;stroke-width:1.5;" width="824" x="1636" y="887.5176"/><text fill="#000000" font-family="FG Virgil" font-size="13" font-weight="bold" lengthAdjust="spacing" textLength="28" x="1651" y="902.5459">loop</text><text fill="#000000" font-family="FG Virgil" font-size="11" font-weight="bold" lengthAdjust="spacing" textLength="128" x="1724" y="901.3877">[for each application id]</text><polygon fill="#181818" points="2280.5,926.0996,2290.5,930.0996,2280.5,934.0996,2284.5,930.0996" style="stroke:#181818;stroke-width:1.0;"/><line style="stroke:#181818;stroke-width:1.0;" x1="1709" x2="2286.5" y1="930.0996" y2="930.0996"/><text fill="#000000" font-family="FG Virgil" font-size="13" lengthAdjust="spacing" textLength="149" x="1716" y="924.8369">findInterview(applicationId)</text><polygon fill="#181818" points="1720,957.3906,1710,961.3906,1720,965.3906,1716,961.3906" style="stroke:#181818;stroke-width:1.0;"/><line style="stroke:#181818;stroke-width:1.0;stroke-dasharray:2.0,2.0;" x1="1714" x2="2296.5" y1="961.3906" y2="961.3906"/><text fill="#000000" font-family="FG Virgil" font-size="13" lengthAdjust="spacing" textLength="49" x="1726" y="956.1279">interview</text><polygon fill="#181818" points="2360,988.6816,2370,992.6816,2360,996.6816,2364,992.6816" style="stroke:#181818;stroke-width:1.0;"/><line style="stroke:#181818;stroke-width:1.0;" x1="1709" x2="2366" y1="992.6816" y2="992.6816"/><text fill="#000000" font-family="FG Virgil" font-size="13" lengthAdjust="spacing" textLength="135" x="1716" y="987.4189">put(candidate,interview)</text><rect fill="#E2E2F0" height="32.6211" rx="2.5" ry="2.5" style="stroke:#181818;stroke-width:0.5;" width="78" x="2372" y="969.3906"/><text fill="#000000" font-family="FG Virgil" font-size="14" lengthAdjust="spacing" textLength="64" x="2379" y="991.498">Map.Entry</text><path d="M1714,1018.0117 L1714,1045.0117 L2068,1045.0117 L2068,1028.0117 L2058,1018.0117 L1714,1018.0117 " fill="#FEFFDD" style="stroke:#181818;stroke-width:0.5;"/><path d="M2058,1018.0117 L2058,1028.0117 L2068,1028.0117 L2058,1018.0117 " fill="#FEFFDD" style="stroke:#181818;stroke-width:0.5;"/><text fill="#000000" font-family="FG Virgil" font-size="13" lengthAdjust="spacing" textLength="333" x="1720" y="1037.04">Stores the candidate-interview pair in an entry&lt;key,value&gt;</text><polygon fill="#181818" points="777.5,1076.5938,767.5,1080.5938,777.5,1084.5938,773.5,1080.5938" style="stroke:#181818;stroke-width:1.0;"/><line style="stroke:#181818;stroke-width:1.0;stroke-dasharray:2.0,2.0;" x1="771.5" x2="1698" y1="1080.5938" y2="1080.5938"/><text fill="#000000" font-family="FG Virgil" font-size="13" lengthAdjust="spacing" textLength="169" x="783.5" y="1075.3311">interviewsAndCandidatesMap</text><polygon fill="#181818" points="1687,1107.8848,1697,1111.8848,1687,1115.8848,1691,1111.8848" style="stroke:#181818;stroke-width:1.0;"/><line style="stroke:#181818;stroke-width:1.0;" x1="766.5" x2="1693" y1="1111.8848" y2="1111.8848"/><text fill="#000000" font-family="FG Virgil" font-size="13" lengthAdjust="spacing" textLength="281" x="773.5" y="1106.6221">sortingCandidates(interviewsAndCandidatesMap)</text><polygon fill="#181818" points="777.5,1139.1758,767.5,1143.1758,777.5,1147.1758,773.5,1143.1758" style="stroke:#181818;stroke-width:1.0;"/><line style="stroke:#181818;stroke-width:1.0;stroke-dasharray:2.0,2.0;" x1="771.5" x2="1703" y1="1143.1758" y2="1143.1758"/><text fill="#000000" font-family="FG Virgil" font-size="13" lengthAdjust="spacing" textLength="108" x="783.5" y="1137.9131">orderedCandidates</text><polygon fill="#181818" points="478.5,1170.4668,468.5,1174.4668,478.5,1178.4668,474.5,1174.4668" style="stroke:#181818;stroke-width:1.0;"/><line style="stroke:#181818;stroke-width:1.0;stroke-dasharray:2.0,2.0;" x1="472.5" x2="760.5" y1="1174.4668" y2="1174.4668"/><text fill="#000000" font-family="FG Virgil" font-size="13" lengthAdjust="spacing" textLength="108" x="484.5" y="1169.2041">orderedCandidates</text><polygon fill="#181818" points="77.5,1201.7578,67.5,1205.7578,77.5,1209.7578,73.5,1205.7578" style="stroke:#181818;stroke-width:1.0;"/><line style="stroke:#181818;stroke-width:1.0;stroke-dasharray:2.0,2.0;" x1="71.5" x2="461.5" y1="1205.7578" y2="1205.7578"/><text fill="#000000" font-family="FG Virgil" font-size="13" lengthAdjust="spacing" textLength="155" x="83.5" y="1200.4951">display ordered candidates</text><!--SRC=[dLTBSzem4BxxL-XMaad8fIUFXndAa9HE2HaexR6Zs0ke6CaZoKdTNz-LmRAmPKERGyPwxBVxxKlBXvtMMVZmaAMKw_oG3cDnU51xnZCgwM6uquSqi4jo45p4EoaEG3OqLU0SPJJUqosiT942aH1hvoo13SrJ_IYuVgOe-_X4lZEvPIwqsj54l3E-FI47DDP2aackDAgJSyeHNHAgoE7u6Q2SPZ7Bq73obIcza0b8I2QK9ooX6jHwPgxZ_oZA92ZWccec-6XqMNI2fagHfaUDpYgAQ9QbBFOXZNEz4vBzASzM8DzO34RSxFyvhQD87JyQib_4wxW6TeLRkrqGCwxDFhmxqiszBjaNa0hz03m6GnP-QoFjx1eVrgk6z18oeHY6gtWierOOuUepYZR7BnH2tz9Ngg11jvOtWfrdKIJjmWMp9CznVDiDY3BBs1j6t6QLtLZFWjCUkH_XAYmpXL1En35RI6hMOaDYcpPt95ScXVKEo2_nIbXb0ia4VgiW8AS_p4f4hHCh9B44XB0Nh1trdI0mKYXMsHMIiTehii4wCTeaRD0k34zmRZdUQnmtjUCDcgQErzNWJEAcDjmHGWWtjH44kCebc4qiDWC5oHeJxZDLOruiDWCChVgOBqKAQlYo-35T_bolfiixTtkoNdrRpF5aFduUFqsNDrPp0jOdhjfEqzhb59OX6_SpRGMW3LIhz2X1rMxTXCHc70CryE0xjsjW5m8HgsAgqcHmqt6rY_Yf1dtEzEht4wlDeAu7FQHEDsl0IXHHEWlSnywHynAZFYGVpPP5VeezncqOJpuLU65PPOkFUHT0hRXJnVqL99MFssMTFhAj5d11IryXkBLNDPqplCxETtAixTROAfALaBf-Z0SkK6ShQZr_Q81I8cO8SGRU2TmAPHEoLbtzjPHUM_tNTO7_w0PTNS7ZdcPFkBOtz96lJRDlNo_jLbLwwjxtaFTHzudMh5aRhSy3dGQcGcJbqujtTswk4vPSvIe_hRDQS1DqblIuqOFL4wz6o-bpKfzh_asfmtnEi-4KQxSWjxSXoN8zi2FKdTNSPii5AfLikokdhYPmI5Pe0QXo-B9uzyu8Hfb4OcQ20wCysaDnzqRJ74Pjiu4dPOIl8THiPypVRP1r6ws_XuL4OIV4YTBfMTteJYbSDb8qV_84VH6-gjzV1UcEiyVdu7oYJPZ2twA57RBhuJe871YSpftLIVml]--></g></svg>