<?xml version="1.0" encoding="us-ascii" standalone="no"?><svg xmlns="http://www.w3.org/2000/svg" xmlns:xlink="http://www.w3.org/1999/xlink" contentStyleType="text/css" height="1019.7px" preserveAspectRatio="none" style="width:1758px;height:1019px;background:#FFFFFF;" version="1.1" viewBox="0 0 1758 1019" width="1758.6px" zoomAndPan="magnify"><defs/><g><text fill="#000000" font-family="sans-serif" font-size="12.6" font-weight="bold" lengthAdjust="spacing" textLength="134.1" x="813.825" y="27.0967">Upload Interview File</text><rect fill="#FFFFFF" height="809.4955" style="stroke:#181818;stroke-width:0.9;" width="9" x="55.35" y="119.918"/><rect fill="#FFFFFF" height="788.5336" style="stroke:#181818;stroke-width:0.9;" width="9" x="391.95" y="140.8799"/><rect fill="#FFFFFF" height="309.7811" style="stroke:#181818;stroke-width:0.9;" width="9" x="786.15" y="253.5275"/><rect fill="#FFFFFF" height="28.1619" style="stroke:#181818;stroke-width:0.9;" width="9" x="1092.15" y="366.1752"/><rect fill="#FFFFFF" height="28.1619" style="stroke:#181818;stroke-width:0.9;" width="9" x="1092.15" y="732.2801"/><rect fill="#FFFFFF" height="84.4857" style="stroke:#181818;stroke-width:0.9;" width="9" x="1228.05" y="450.6609"/><rect fill="#FFFFFF" height="28.1619" style="stroke:#181818;stroke-width:0.9;" width="9" x="1371.15" y="844.9277"/><rect fill="#FFFFFF" height="28.1619" style="stroke:#181818;stroke-width:0.9;" width="9" x="1520.1" y="478.8229"/><rect fill="#FFFFFF" height="28.1619" style="stroke:#181818;stroke-width:0.9;" width="9" x="1678.5" y="788.6039"/><line style="stroke:#181818;stroke-width:0.45;stroke-dasharray:5.0,5.0;" x1="59.4" x2="59.4" y1="110.918" y2="945.6135"/><line style="stroke:#181818;stroke-width:0.45;stroke-dasharray:5.0,5.0;" x1="396.45" x2="396.45" y1="110.918" y2="945.6135"/><line style="stroke:#181818;stroke-width:0.45;stroke-dasharray:5.0,5.0;" x1="790.65" x2="790.65" y1="110.918" y2="945.6135"/><line style="stroke:#181818;stroke-width:0.45;stroke-dasharray:5.0,5.0;" x1="967.95" x2="967.95" y1="110.918" y2="945.6135"/><line style="stroke:#181818;stroke-width:0.45;stroke-dasharray:5.0,5.0;" x1="1096.65" x2="1096.65" y1="110.918" y2="945.6135"/><line style="stroke:#181818;stroke-width:0.45;stroke-dasharray:5.0,5.0;" x1="1232.55" x2="1232.55" y1="110.918" y2="945.6135"/><line style="stroke:#181818;stroke-width:0.45;stroke-dasharray:5.0,5.0;" x1="1375.65" x2="1375.65" y1="110.918" y2="945.6135"/><line style="stroke:#181818;stroke-width:0.45;stroke-dasharray:5.0,5.0;" x1="1524.15" x2="1524.15" y1="110.918" y2="945.6135"/><line style="stroke:#181818;stroke-width:0.45;stroke-dasharray:5.0,5.0;" x1="1682.55" x2="1682.55" y1="110.918" y2="945.6135"/><text fill="#000000" font-family="sans-serif" font-size="12.6" lengthAdjust="spacing" textLength="105.3" x="4.5" y="107.7557">CustomerManager</text><ellipse cx="59.85" cy="47.809" fill="#E2E2F0" rx="7.2" ry="7.2" style="stroke:#181818;stroke-width:0.45;"/><path d="M59.85,55.009 L59.85,79.309 M48.15,62.209 L71.55,62.209 M59.85,79.309 L48.15,92.809 M59.85,79.309 L71.55,92.809 " fill="none" style="stroke:#181818;stroke-width:0.45;"/><text fill="#000000" font-family="sans-serif" font-size="12.6" lengthAdjust="spacing" textLength="105.3" x="4.5" y="958.3102">CustomerManager</text><ellipse cx="59.85" cy="969.1225" fill="#E2E2F0" rx="7.2" ry="7.2" style="stroke:#181818;stroke-width:0.45;"/><path d="M59.85,976.3225 L59.85,1000.6225 M48.15,983.5225 L71.55,983.5225 M59.85,1000.6225 L48.15,1014.1225 M59.85,1000.6225 L71.55,1014.1225 " fill="none" style="stroke:#181818;stroke-width:0.45;"/><rect fill="#E2E2F0" height="29.359" rx="2.25" ry="2.25" style="stroke:#181818;stroke-width:0.45;" width="169.2" x="311.85" y="80.659"/><text fill="#000000" font-family="sans-serif" font-size="12.6" lengthAdjust="spacing" textLength="156.6" x="318.15" y="100.5557">UploadCandidateAnswersUI</text><rect fill="#E2E2F0" height="29.359" rx="2.25" ry="2.25" style="stroke:#181818;stroke-width:0.45;" width="169.2" x="311.85" y="944.7135"/><text fill="#000000" font-family="sans-serif" font-size="12.6" lengthAdjust="spacing" textLength="156.6" x="318.15" y="964.6102">UploadCandidateAnswersUI</text><rect fill="#E2E2F0" height="29.359" rx="2.25" ry="2.25" style="stroke:#181818;stroke-width:0.45;" width="214.2" x="683.55" y="80.659"/><text fill="#000000" font-family="sans-serif" font-size="12.6" lengthAdjust="spacing" textLength="201.6" x="689.85" y="100.5557">UploadCandidateAnswersController</text><rect fill="#E2E2F0" height="29.359" rx="2.25" ry="2.25" style="stroke:#181818;stroke-width:0.45;" width="214.2" x="683.55" y="944.7135"/><text fill="#000000" font-family="sans-serif" font-size="12.6" lengthAdjust="spacing" textLength="201.6" x="689.85" y="964.6102">UploadCandidateAnswersController</text><rect fill="#E2E2F0" height="29.359" rx="2.25" ry="2.25" style="stroke:#181818;stroke-width:0.45;" width="122.4" x="906.75" y="80.659"/><text fill="#000000" font-family="sans-serif" font-size="12.6" lengthAdjust="spacing" textLength="109.8" x="913.05" y="100.5557">PersistenceContext</text><rect fill="#E2E2F0" height="29.359" rx="2.25" ry="2.25" style="stroke:#181818;stroke-width:0.45;" width="122.4" x="906.75" y="944.7135"/><text fill="#000000" font-family="sans-serif" font-size="12.6" lengthAdjust="spacing" textLength="109.8" x="913.05" y="964.6102">PersistenceContext</text><rect fill="#E2E2F0" height="29.359" rx="2.25" ry="2.25" style="stroke:#181818;stroke-width:0.45;" width="117" x="1038.15" y="80.659"/><text fill="#000000" font-family="sans-serif" font-size="12.6" lengthAdjust="spacing" textLength="104.4" x="1044.45" y="100.5557">RepositoryFactory</text><rect fill="#E2E2F0" height="29.359" rx="2.25" ry="2.25" style="stroke:#181818;stroke-width:0.45;" width="117" x="1038.15" y="944.7135"/><text fill="#000000" font-family="sans-serif" font-size="12.6" lengthAdjust="spacing" textLength="104.4" x="1044.45" y="964.6102">RepositoryFactory</text><rect fill="#E2E2F0" height="29.359" rx="2.25" ry="2.25" style="stroke:#181818;stroke-width:0.45;" width="136.8" x="1164.15" y="80.659"/><text fill="#000000" font-family="sans-serif" font-size="12.6" lengthAdjust="spacing" textLength="124.2" x="1170.45" y="100.5557">JobApplicationService</text><rect fill="#E2E2F0" height="29.359" rx="2.25" ry="2.25" style="stroke:#181818;stroke-width:0.45;" width="136.8" x="1164.15" y="944.7135"/><text fill="#000000" font-family="sans-serif" font-size="12.6" lengthAdjust="spacing" textLength="124.2" x="1170.45" y="964.6102">JobApplicationService</text><rect fill="#E2E2F0" height="29.359" rx="2.25" ry="2.25" style="stroke:#181818;stroke-width:0.45;" width="131.4" x="1309.95" y="80.659"/><text fill="#000000" font-family="sans-serif" font-size="12.6" lengthAdjust="spacing" textLength="118.8" x="1316.25" y="100.5557">InterviewModelPlugin</text><rect fill="#E2E2F0" height="29.359" rx="2.25" ry="2.25" style="stroke:#181818;stroke-width:0.45;" width="131.4" x="1309.95" y="944.7135"/><text fill="#000000" font-family="sans-serif" font-size="12.6" lengthAdjust="spacing" textLength="118.8" x="1316.25" y="964.6102">InterviewModelPlugin</text><text fill="#000000" font-family="sans-serif" font-size="12.6" lengthAdjust="spacing" textLength="143.1" x="1450.35" y="107.7557">JobApplicationRepository</text><path d="M1508.4,61.759 C1508.4,52.759 1524.6,52.759 1524.6,52.759 C1524.6,52.759 1540.8,52.759 1540.8,61.759 L1540.8,85.159 C1540.8,94.159 1524.6,94.159 1524.6,94.159 C1524.6,94.159 1508.4,94.159 1508.4,85.159 L1508.4,61.759 " fill="#E2E2F0" style="stroke:#181818;stroke-width:1.35;"/><path d="M1508.4,61.759 C1508.4,70.759 1524.6,70.759 1524.6,70.759 C1524.6,70.759 1540.8,70.759 1540.8,61.759 " fill="none" style="stroke:#181818;stroke-width:1.35;"/><text fill="#000000" font-family="sans-serif" font-size="12.6" lengthAdjust="spacing" textLength="143.1" x="1450.35" y="958.3102">JobApplicationRepository</text><path d="M1508.4,970.4725 C1508.4,961.4725 1524.6,961.4725 1524.6,961.4725 C1524.6,961.4725 1540.8,961.4725 1540.8,970.4725 L1540.8,993.8725 C1540.8,1002.8725 1524.6,1002.8725 1524.6,1002.8725 C1524.6,1002.8725 1508.4,1002.8725 1508.4,993.8725 L1508.4,970.4725 " fill="#E2E2F0" style="stroke:#181818;stroke-width:1.35;"/><path d="M1508.4,970.4725 C1508.4,979.4725 1524.6,979.4725 1524.6,979.4725 C1524.6,979.4725 1540.8,979.4725 1540.8,970.4725 " fill="none" style="stroke:#181818;stroke-width:1.35;"/><text fill="#000000" font-family="sans-serif" font-size="12.6" lengthAdjust="spacing" textLength="144.9" x="1607.85" y="107.7557">InterviewModelRepository</text><path d="M1666.8,61.759 C1666.8,52.759 1683,52.759 1683,52.759 C1683,52.759 1699.2,52.759 1699.2,61.759 L1699.2,85.159 C1699.2,94.159 1683,94.159 1683,94.159 C1683,94.159 1666.8,94.159 1666.8,85.159 L1666.8,61.759 " fill="#E2E2F0" style="stroke:#181818;stroke-width:1.35;"/><path d="M1666.8,61.759 C1666.8,70.759 1683,70.759 1683,70.759 C1683,70.759 1699.2,70.759 1699.2,61.759 " fill="none" style="stroke:#181818;stroke-width:1.35;"/><text fill="#000000" font-family="sans-serif" font-size="12.6" lengthAdjust="spacing" textLength="144.9" x="1607.85" y="958.3102">InterviewModelRepository</text><path d="M1666.8,970.4725 C1666.8,961.4725 1683,961.4725 1683,961.4725 C1683,961.4725 1699.2,961.4725 1699.2,970.4725 L1699.2,993.8725 C1699.2,1002.8725 1683,1002.8725 1683,1002.8725 C1683,1002.8725 1666.8,1002.8725 1666.8,993.8725 L1666.8,970.4725 " fill="#E2E2F0" style="stroke:#181818;stroke-width:1.35;"/><path d="M1666.8,970.4725 C1666.8,979.4725 1683,979.4725 1683,979.4725 C1683,979.4725 1699.2,979.4725 1699.2,970.4725 " fill="none" style="stroke:#181818;stroke-width:1.35;"/><rect fill="#FFFFFF" height="809.4955" style="stroke:#181818;stroke-width:0.9;" width="9" x="55.35" y="119.918"/><rect fill="#FFFFFF" height="788.5336" style="stroke:#181818;stroke-width:0.9;" width="9" x="391.95" y="140.8799"/><rect fill="#FFFFFF" height="309.7811" style="stroke:#181818;stroke-width:0.9;" width="9" x="786.15" y="253.5275"/><rect fill="#FFFFFF" height="28.1619" style="stroke:#181818;stroke-width:0.9;" width="9" x="1092.15" y="366.1752"/><rect fill="#FFFFFF" height="28.1619" style="stroke:#181818;stroke-width:0.9;" width="9" x="1092.15" y="732.2801"/><rect fill="#FFFFFF" height="84.4857" style="stroke:#181818;stroke-width:0.9;" width="9" x="1228.05" y="450.6609"/><rect fill="#FFFFFF" height="28.1619" style="stroke:#181818;stroke-width:0.9;" width="9" x="1371.15" y="844.9277"/><rect fill="#FFFFFF" height="28.1619" style="stroke:#181818;stroke-width:0.9;" width="9" x="1520.1" y="478.8229"/><rect fill="#FFFFFF" height="28.1619" style="stroke:#181818;stroke-width:0.9;" width="9" x="1678.5" y="788.6039"/><polygon fill="#181818" points="381.15,137.2799,390.15,140.8799,381.15,144.4799,384.75,140.8799" style="stroke:#181818;stroke-width:0.9;"/><line style="stroke:#181818;stroke-width:0.9;" x1="64.35" x2="386.55" y1="140.8799" y2="140.8799"/><text fill="#000000" font-family="sans-serif" font-size="11.7" lengthAdjust="spacing" textLength="140.4" x="70.65" y="136.1435">Upload Candidate Answers</text><polygon fill="#181818" points="779.85,165.4418,788.85,169.0418,779.85,172.6418,783.45,169.0418" style="stroke:#181818;stroke-width:0.9;"/><line style="stroke:#181818;stroke-width:0.9;" x1="400.95" x2="785.25" y1="169.0418" y2="169.0418"/><text fill="#000000" font-family="sans-serif" font-size="11.7" lengthAdjust="spacing" textLength="39.6" x="407.25" y="164.3054">create()</text><polygon fill="#181818" points="74.25,193.6037,65.25,197.2037,74.25,200.8037,70.65,197.2037" style="stroke:#181818;stroke-width:0.9;"/><line style="stroke:#181818;stroke-width:0.9;stroke-dasharray:2.0,2.0;" x1="68.85" x2="391.05" y1="197.2037" y2="197.2037"/><text fill="#000000" font-family="sans-serif" font-size="11.7" lengthAdjust="spacing" textLength="306" x="79.65" y="192.4673">insert the job reference you want to upload the interview file</text><polygon fill="#181818" points="381.15,221.7656,390.15,225.3656,381.15,228.9656,384.75,225.3656" style="stroke:#181818;stroke-width:0.9;"/><line style="stroke:#181818;stroke-width:0.9;" x1="64.35" x2="386.55" y1="225.3656" y2="225.3656"/><text fill="#000000" font-family="sans-serif" font-size="11.7" lengthAdjust="spacing" textLength="118.8" x="70.65" y="220.6292">insert the job reference</text><polygon fill="#181818" points="775.35,249.9275,784.35,253.5275,775.35,257.1275,778.95,253.5275" style="stroke:#181818;stroke-width:0.9;"/><line style="stroke:#181818;stroke-width:0.9;" x1="400.95" x2="780.75" y1="253.5275" y2="253.5275"/><text fill="#000000" font-family="sans-serif" font-size="11.7" lengthAdjust="spacing" textLength="168.3" x="407.25" y="248.7911">allJobApplications(jobReference)</text><polygon fill="#181818" points="957.15,278.0895,966.15,281.6895,957.15,285.2895,960.75,281.6895" style="stroke:#181818;stroke-width:0.9;"/><line style="stroke:#181818;stroke-width:0.9;" x1="795.15" x2="962.55" y1="281.6895" y2="281.6895"/><text fill="#000000" font-family="sans-serif" font-size="11.7" lengthAdjust="spacing" textLength="39.6" x="801.45" y="276.953">create()</text><polygon fill="#181818" points="1085.85,306.2514,1094.85,309.8514,1085.85,313.4514,1089.45,309.8514" style="stroke:#181818;stroke-width:0.9;"/><line style="stroke:#181818;stroke-width:0.9;" x1="967.95" x2="1091.25" y1="309.8514" y2="309.8514"/><text fill="#000000" font-family="sans-serif" font-size="11.7" lengthAdjust="spacing" textLength="42.3" x="974.25" y="305.1149">factory()</text><polygon fill="#181818" points="805.05,334.4133,796.05,338.0133,805.05,341.6133,801.45,338.0133" style="stroke:#181818;stroke-width:0.9;"/><line style="stroke:#181818;stroke-width:0.9;stroke-dasharray:2.0,2.0;" x1="799.65" x2="1095.75" y1="338.0133" y2="338.0133"/><text fill="#000000" font-family="sans-serif" font-size="11.7" lengthAdjust="spacing" textLength="35.1" x="810.45" y="333.2769">factory</text><polygon fill="#181818" points="1081.35,362.5752,1090.35,366.1752,1081.35,369.7752,1084.95,366.1752" style="stroke:#181818;stroke-width:0.9;"/><line style="stroke:#181818;stroke-width:0.9;" x1="795.15" x2="1086.75" y1="366.1752" y2="366.1752"/><text fill="#000000" font-family="sans-serif" font-size="11.7" lengthAdjust="spacing" textLength="86.4" x="801.45" y="361.4388">jobApplications()</text><polygon fill="#181818" points="805.05,390.7371,796.05,394.3371,805.05,397.9371,801.45,394.3371" style="stroke:#181818;stroke-width:0.9;"/><line style="stroke:#181818;stroke-width:0.9;stroke-dasharray:2.0,2.0;" x1="799.65" x2="1095.75" y1="394.3371" y2="394.3371"/><text fill="#000000" font-family="sans-serif" font-size="11.7" lengthAdjust="spacing" textLength="131.4" x="810.45" y="389.6007">JobApplicationRepository</text><polygon fill="#181818" points="1221.75,418.899,1230.75,422.499,1221.75,426.099,1225.35,422.499" style="stroke:#181818;stroke-width:0.9;"/><line style="stroke:#181818;stroke-width:0.9;" x1="795.15" x2="1227.15" y1="422.499" y2="422.499"/><text fill="#000000" font-family="sans-serif" font-size="11.7" lengthAdjust="spacing" textLength="168.3" x="801.45" y="417.7626">create(jobApplicationRepository)</text><polygon fill="#181818" points="1217.25,447.0609,1226.25,450.6609,1217.25,454.2609,1220.85,450.6609" style="stroke:#181818;stroke-width:0.9;"/><line style="stroke:#181818;stroke-width:0.9;" x1="795.15" x2="1222.65" y1="450.6609" y2="450.6609"/><text fill="#000000" font-family="sans-serif" font-size="11.7" lengthAdjust="spacing" textLength="177.3" x="801.45" y="445.9245">findByJobReference(jobReference)</text><polygon fill="#181818" points="1509.3,475.2229,1518.3,478.8229,1509.3,482.4229,1512.9,478.8229" style="stroke:#181818;stroke-width:0.9;"/><line style="stroke:#181818;stroke-width:0.9;" x1="1237.05" x2="1514.7" y1="478.8229" y2="478.8229"/><text fill="#000000" font-family="sans-serif" font-size="11.7" lengthAdjust="spacing" textLength="177.3" x="1243.35" y="474.0864">findByJobReference(jobReference)</text><polygon fill="#181818" points="1246.95,503.3848,1237.95,506.9848,1246.95,510.5848,1243.35,506.9848" style="stroke:#181818;stroke-width:0.9;"/><line style="stroke:#181818;stroke-width:0.9;stroke-dasharray:2.0,2.0;" x1="1241.55" x2="1523.7" y1="506.9848" y2="506.9848"/><text fill="#000000" font-family="sans-serif" font-size="11.7" lengthAdjust="spacing" textLength="62.1" x="1252.35" y="502.2483">applications</text><polygon fill="#181818" points="805.05,531.5467,796.05,535.1467,805.05,538.7467,801.45,535.1467" style="stroke:#181818;stroke-width:0.9;"/><line style="stroke:#181818;stroke-width:0.9;stroke-dasharray:2.0,2.0;" x1="799.65" x2="1231.65" y1="535.1467" y2="535.1467"/><text fill="#000000" font-family="sans-serif" font-size="11.7" lengthAdjust="spacing" textLength="62.1" x="810.45" y="530.4103">applications</text><polygon fill="#181818" points="410.85,559.7086,401.85,563.3086,410.85,566.9086,407.25,563.3086" style="stroke:#181818;stroke-width:0.9;"/><line style="stroke:#181818;stroke-width:0.9;stroke-dasharray:2.0,2.0;" x1="405.45" x2="789.75" y1="563.3086" y2="563.3086"/><text fill="#000000" font-family="sans-serif" font-size="11.7" lengthAdjust="spacing" textLength="62.1" x="416.25" y="558.5722">applications</text><polygon fill="#181818" points="74.25,587.8705,65.25,591.4705,74.25,595.0705,70.65,591.4705" style="stroke:#181818;stroke-width:0.9;"/><line style="stroke:#181818;stroke-width:0.9;stroke-dasharray:2.0,2.0;" x1="68.85" x2="391.05" y1="591.4705" y2="591.4705"/><text fill="#000000" font-family="sans-serif" font-size="11.7" lengthAdjust="spacing" textLength="92.7" x="79.65" y="586.7341">show applications</text><polygon fill="#181818" points="381.15,616.0324,390.15,619.6324,381.15,623.2324,384.75,619.6324" style="stroke:#181818;stroke-width:0.9;"/><line style="stroke:#181818;stroke-width:0.9;" x1="64.35" x2="386.55" y1="619.6324" y2="619.6324"/><text fill="#000000" font-family="sans-serif" font-size="11.7" lengthAdjust="spacing" textLength="113.4" x="70.65" y="614.896">choose an application</text><polygon fill="#181818" points="74.25,644.1943,65.25,647.7943,74.25,651.3943,70.65,647.7943" style="stroke:#181818;stroke-width:0.9;"/><line style="stroke:#181818;stroke-width:0.9;stroke-dasharray:2.0,2.0;" x1="68.85" x2="391.05" y1="647.7943" y2="647.7943"/><text fill="#000000" font-family="sans-serif" font-size="11.7" lengthAdjust="spacing" textLength="258.3" x="79.65" y="643.0579">asks to insert the path of the file with the answers</text><polygon fill="#181818" points="381.15,672.3563,390.15,675.9563,381.15,679.5563,384.75,675.9563" style="stroke:#181818;stroke-width:0.9;"/><line style="stroke:#181818;stroke-width:0.9;" x1="64.35" x2="386.55" y1="675.9563" y2="675.9563"/><text fill="#000000" font-family="sans-serif" font-size="11.7" lengthAdjust="spacing" textLength="81" x="70.65" y="671.2198">inserts the path</text><polygon fill="#181818" points="779.85,700.5182,788.85,704.1182,779.85,707.7182,783.45,704.1182" style="stroke:#181818;stroke-width:0.9;"/><line style="stroke:#181818;stroke-width:0.9;" x1="400.95" x2="785.25" y1="704.1182" y2="704.1182"/><text fill="#000000" font-family="sans-serif" font-size="11.7" lengthAdjust="spacing" textLength="368.1" x="407.25" y="699.3817">validateInterviewSyntax(responsesFilePath,directoryPath,jobReference)</text><polygon fill="#181818" points="1081.35,728.6801,1090.35,732.2801,1081.35,735.8801,1084.95,732.2801" style="stroke:#181818;stroke-width:0.9;"/><line style="stroke:#181818;stroke-width:0.9;" x1="790.65" x2="1086.75" y1="732.2801" y2="732.2801"/><text fill="#000000" font-family="sans-serif" font-size="11.7" lengthAdjust="spacing" textLength="89.1" x="796.95" y="727.5437">interviewModels()</text><polygon fill="#181818" points="800.55,756.842,791.55,760.442,800.55,764.042,796.95,760.442" style="stroke:#181818;stroke-width:0.9;"/><line style="stroke:#181818;stroke-width:0.9;stroke-dasharray:2.0,2.0;" x1="795.15" x2="1095.75" y1="760.442" y2="760.442"/><text fill="#000000" font-family="sans-serif" font-size="11.7" lengthAdjust="spacing" textLength="131.4" x="805.95" y="755.7056">interviewModelRepository</text><polygon fill="#181818" points="1667.7,785.0039,1676.7,788.6039,1667.7,792.2039,1671.3,788.6039" style="stroke:#181818;stroke-width:0.9;"/><line style="stroke:#181818;stroke-width:0.9;" x1="790.65" x2="1673.1" y1="788.6039" y2="788.6039"/><text fill="#000000" font-family="sans-serif" font-size="11.7" lengthAdjust="spacing" textLength="177.3" x="796.95" y="783.8675">findByJobReference(jobReference)</text><polygon fill="#181818" points="800.55,813.1658,791.55,816.7658,800.55,820.3658,796.95,816.7658" style="stroke:#181818;stroke-width:0.9;"/><line style="stroke:#181818;stroke-width:0.9;stroke-dasharray:2.0,2.0;" x1="795.15" x2="1682.1" y1="816.7658" y2="816.7658"/><text fill="#000000" font-family="sans-serif" font-size="11.7" lengthAdjust="spacing" textLength="75.6" x="805.95" y="812.0294">interviewModel</text><polygon fill="#181818" points="1360.35,841.3277,1369.35,844.9277,1360.35,848.5277,1363.95,844.9277" style="stroke:#181818;stroke-width:0.9;"/><line style="stroke:#181818;stroke-width:0.9;" x1="790.65" x2="1365.75" y1="844.9277" y2="844.9277"/><text fill="#000000" font-family="sans-serif" font-size="11.7" lengthAdjust="spacing" textLength="263.7" x="796.95" y="840.1913">evaluateInterview(responsesFilePath,directoryPath)</text><polygon fill="#181818" points="800.55,869.4896,791.55,873.0896,800.55,876.6896,796.95,873.0896" style="stroke:#181818;stroke-width:0.9;"/><line style="stroke:#181818;stroke-width:0.9;stroke-dasharray:2.0,2.0;" x1="795.15" x2="1374.75" y1="873.0896" y2="873.0896"/><text fill="#000000" font-family="sans-serif" font-size="11.7" lengthAdjust="spacing" textLength="47.7" x="805.95" y="868.3532">message</text><polygon fill="#181818" points="410.85,897.6516,401.85,901.2516,410.85,904.8516,407.25,901.2516" style="stroke:#181818;stroke-width:0.9;"/><line style="stroke:#181818;stroke-width:0.9;stroke-dasharray:2.0,2.0;" x1="405.45" x2="789.75" y1="901.2516" y2="901.2516"/><text fill="#000000" font-family="sans-serif" font-size="11.7" lengthAdjust="spacing" textLength="47.7" x="416.25" y="896.5151">message</text><polygon fill="#181818" points="69.75,925.8135,60.75,929.4135,69.75,933.0135,66.15,929.4135" style="stroke:#181818;stroke-width:0.9;"/><line style="stroke:#181818;stroke-width:0.9;stroke-dasharray:2.0,2.0;" x1="64.35" x2="395.55" y1="929.4135" y2="929.4135"/><text fill="#000000" font-family="sans-serif" font-size="11.7" lengthAdjust="spacing" textLength="297.9" x="75.15" y="924.6771">displays the message(syntax correct/ syntax not correct)</text><!--SRC=[hLRDRk8m4BxdAKOzWRHexnnMOf4gKQaIQiK3c6GePbqxiWqqRx-sysS7EwIeN8Zj-UQRVrjJpH1s9HEaW0tNA2yKh_1C6MOPoRMGi3uhBJvHlX9EFb02KR2o1rbM4gbfJal2DJpLEjQ45xGW6bTSNL6gtUR90dQRAS9hmRKKZA5qe7uPWhT6b2gDF4ShWb_QYNlReVmRba9HOt7rx3ogd7Zp7Og-YFsgB1dDYQQ2lzjevEZ4eoSXk0lVgoYGRTdvWtA7ZHranc-o9mg7fBsr4Tx-qCE7wWVurA7BBhsOuBVPT7-m-6EIjMmheiiGD2dAmFmwf4chszXjBAxFrn9oYKPWDk_FZK3Di0JA5KeD-eXm4dkGU41fqmQLECFLnb8BEDSMM27QrUN1rQLLwLaxeZ5kdW4GniB8gfa1lhMukSC5ldhLs1tQdwVMa7X527uK0eWlP31D9HhvG_rr0sWb5aCt6a0sPbAl_ZJmU1x2EbVRrfXcGx920tY1u-f3cwFTrWVqbA2SFwBpG7dnjthniZyeXNYGuWCXa8qptfZIs_zJrgIIaEHTZCI7U2MJpEaZ_5r0Rfhp-upH-FlvRoV59DsfNX_CCNKKru72G3oSKVbH23Ek2VSXe_g9-gViAFIcMqdq4SJ1VTjX25TgDkoAD0Dwn89QZ-eKtP8F4d4Xp4t_xX9vhxWcNpE9gZJkehBlXAtHzAkW4brNkzL8nQPc4mtkgP-QJJHv-zsPJMcJKnVguxsxcMHaalUEqqbNqxIJlQ-VCeOIJQMS_KAvLoBpW6DAN9fdKn8MjUmcDf-eb7d5JWpAFSxOW6aO88qQT7b1LSb8LRTbWvufrsYG2sc3zXkQDHUwtGiZwFjWNcMfe_gfzny0]--></g></svg>