<?xml version="1.0" encoding="us-ascii" standalone="no"?><svg xmlns="http://www.w3.org/2000/svg" xmlns:xlink="http://www.w3.org/1999/xlink" contentStyleType="text/css" height="977px" preserveAspectRatio="none" style="width:1633px;height:977px;background:#FFFFFF;" version="1.1" viewBox="0 0 1633 977" width="1633px" zoomAndPan="magnify"><defs/><g><text fill="#000000" font-family="sans-serif" font-size="14" font-weight="bold" lengthAdjust="spacing" textLength="184" x="723.75" y="30.1074">Generate Interview Model</text><rect fill="#FFFFFF" height="742.9844" style="stroke:#181818;stroke-width:1.0;" width="10" x="61.5" y="133.2422"/><rect fill="#FFFFFF" height="719.6934" style="stroke:#181818;stroke-width:1.0;" width="10" x="290.5" y="156.5332"/><rect fill="#FFFFFF" height="250.3281" style="stroke:#181818;stroke-width:1.0;" width="10" x="674.5" y="219.1152"/><rect fill="#FFFFFF" height="156.4551" style="stroke:#181818;stroke-width:1.0;" width="10" x="674.5" y="563.3164"/><rect fill="#FFFFFF" height="93.873" style="stroke:#181818;stroke-width:1.0;" width="10" x="674.5" y="751.0625"/><rect fill="#FFFFFF" height="31.291" style="stroke:#181818;stroke-width:1.0;" width="10" x="901.5" y="250.4063"/><rect fill="#FFFFFF" height="31.291" style="stroke:#181818;stroke-width:1.0;" width="10" x="1044.5" y="344.2793"/><rect fill="#FFFFFF" height="31.291" style="stroke:#181818;stroke-width:1.0;" width="10" x="1044.5" y="594.6074"/><rect fill="#FFFFFF" height="31.291" style="stroke:#181818;stroke-width:1.0;" width="10" x="1194.5" y="406.8613"/><rect fill="#FFFFFF" height="31.291" style="stroke:#181818;stroke-width:1.0;" width="10" x="1368" y="657.1895"/><rect fill="#FFFFFF" height="31.291" style="stroke:#181818;stroke-width:1.0;" width="10" x="1544.5" y="782.3535"/><line style="stroke:#181818;stroke-width:0.5;stroke-dasharray:5.0,5.0;" x1="66" x2="66" y1="123.2422" y2="894.2266"/><line style="stroke:#181818;stroke-width:0.5;stroke-dasharray:5.0,5.0;" x1="295.5" x2="295.5" y1="123.2422" y2="894.2266"/><line style="stroke:#181818;stroke-width:0.5;stroke-dasharray:5.0,5.0;" x1="679.5" x2="679.5" y1="123.2422" y2="894.2266"/><line style="stroke:#181818;stroke-width:0.5;stroke-dasharray:5.0,5.0;" x1="906.5" x2="906.5" y1="123.2422" y2="894.2266"/><line style="stroke:#181818;stroke-width:0.5;stroke-dasharray:5.0,5.0;" x1="1049.5" x2="1049.5" y1="123.2422" y2="894.2266"/><line style="stroke:#181818;stroke-width:0.5;stroke-dasharray:5.0,5.0;" x1="1199.5" x2="1199.5" y1="123.2422" y2="894.2266"/><line style="stroke:#181818;stroke-width:0.5;stroke-dasharray:5.0,5.0;" x1="1372.5" x2="1372.5" y1="123.2422" y2="894.2266"/><line style="stroke:#181818;stroke-width:0.5;stroke-dasharray:5.0,5.0;" x1="1549.5" x2="1549.5" y1="123.2422" y2="894.2266"/><text fill="#000000" font-family="sans-serif" font-size="14" lengthAdjust="spacing" textLength="117" x="5" y="119.7285">CostumerManager</text><ellipse cx="66.5" cy="53.1211" fill="#E2E2F0" rx="8" ry="8" style="stroke:#181818;stroke-width:0.5;"/><path d="M66.5,61.1211 L66.5,88.1211 M53.5,69.1211 L79.5,69.1211 M66.5,88.1211 L53.5,103.1211 M66.5,88.1211 L79.5,103.1211 " fill="none" style="stroke:#181818;stroke-width:0.5;"/><text fill="#000000" font-family="sans-serif" font-size="14" lengthAdjust="spacing" textLength="117" x="5" y="908.334">CostumerManager</text><ellipse cx="66.5" cy="920.3477" fill="#E2E2F0" rx="8" ry="8" style="stroke:#181818;stroke-width:0.5;"/><path d="M66.5,928.3477 L66.5,955.3477 M53.5,936.3477 L79.5,936.3477 M66.5,955.3477 L53.5,970.3477 M66.5,955.3477 L79.5,970.3477 " fill="none" style="stroke:#181818;stroke-width:0.5;"/><rect fill="#E2E2F0" height="32.6211" rx="2.5" ry="2.5" style="stroke:#181818;stroke-width:0.5;" width="248" x="171.5" y="89.6211"/><text fill="#000000" font-family="sans-serif" font-size="14" lengthAdjust="spacing" textLength="234" x="178.5" y="111.7285">GenerateJobRequirementTemplateUI</text><rect fill="#E2E2F0" height="32.6211" rx="2.5" ry="2.5" style="stroke:#181818;stroke-width:0.5;" width="248" x="171.5" y="893.2266"/><text fill="#000000" font-family="sans-serif" font-size="14" lengthAdjust="spacing" textLength="234" x="178.5" y="915.334">GenerateJobRequirementTemplateUI</text><rect fill="#E2E2F0" height="32.6211" rx="2.5" ry="2.5" style="stroke:#181818;stroke-width:0.5;" width="298" x="530.5" y="89.6211"/><text fill="#000000" font-family="sans-serif" font-size="14" lengthAdjust="spacing" textLength="284" x="537.5" y="111.7285">GenerateJobRequirementTemplateController</text><rect fill="#E2E2F0" height="32.6211" rx="2.5" ry="2.5" style="stroke:#181818;stroke-width:0.5;" width="298" x="530.5" y="893.2266"/><text fill="#000000" font-family="sans-serif" font-size="14" lengthAdjust="spacing" textLength="284" x="537.5" y="915.334">GenerateJobRequirementTemplateController</text><rect fill="#E2E2F0" height="32.6211" rx="2.5" ry="2.5" style="stroke:#181818;stroke-width:0.5;" width="136" x="838.5" y="89.6211"/><text fill="#000000" font-family="sans-serif" font-size="14" lengthAdjust="spacing" textLength="122" x="845.5" y="111.7285">PersistenceContext</text><rect fill="#E2E2F0" height="32.6211" rx="2.5" ry="2.5" style="stroke:#181818;stroke-width:0.5;" width="136" x="838.5" y="893.2266"/><text fill="#000000" font-family="sans-serif" font-size="14" lengthAdjust="spacing" textLength="122" x="845.5" y="915.334">PersistenceContext</text><rect fill="#E2E2F0" height="32.6211" rx="2.5" ry="2.5" style="stroke:#181818;stroke-width:0.5;" width="130" x="984.5" y="89.6211"/><text fill="#000000" font-family="sans-serif" font-size="14" lengthAdjust="spacing" textLength="116" x="991.5" y="111.7285">RepositoryFactory</text><rect fill="#E2E2F0" height="32.6211" rx="2.5" ry="2.5" style="stroke:#181818;stroke-width:0.5;" width="130" x="984.5" y="893.2266"/><text fill="#000000" font-family="sans-serif" font-size="14" lengthAdjust="spacing" textLength="116" x="991.5" y="915.334">RepositoryFactory</text><text fill="#000000" font-family="sans-serif" font-size="14" lengthAdjust="spacing" textLength="144" x="1124.5" y="119.7285">JobOpeningRepository</text><path d="M1181.5,68.6211 C1181.5,58.6211 1199.5,58.6211 1199.5,58.6211 C1199.5,58.6211 1217.5,58.6211 1217.5,68.6211 L1217.5,94.6211 C1217.5,104.6211 1199.5,104.6211 1199.5,104.6211 C1199.5,104.6211 1181.5,104.6211 1181.5,94.6211 L1181.5,68.6211 " fill="#E2E2F0" style="stroke:#181818;stroke-width:1.5;"/><path d="M1181.5,68.6211 C1181.5,78.6211 1199.5,78.6211 1199.5,78.6211 C1199.5,78.6211 1217.5,78.6211 1217.5,68.6211 " fill="none" style="stroke:#181818;stroke-width:1.5;"/><text fill="#000000" font-family="sans-serif" font-size="14" lengthAdjust="spacing" textLength="144" x="1124.5" y="908.334">JobOpeningRepository</text><path d="M1181.5,921.8477 C1181.5,911.8477 1199.5,911.8477 1199.5,911.8477 C1199.5,911.8477 1217.5,911.8477 1217.5,921.8477 L1217.5,947.8477 C1217.5,957.8477 1199.5,957.8477 1199.5,957.8477 C1199.5,957.8477 1181.5,957.8477 1181.5,947.8477 L1181.5,921.8477 " fill="#E2E2F0" style="stroke:#181818;stroke-width:1.5;"/><path d="M1181.5,921.8477 C1181.5,931.8477 1199.5,931.8477 1199.5,931.8477 C1199.5,931.8477 1217.5,931.8477 1217.5,921.8477 " fill="none" style="stroke:#181818;stroke-width:1.5;"/><text fill="#000000" font-family="sans-serif" font-size="14" lengthAdjust="spacing" textLength="171" x="1284.5" y="119.7285">JobRequirementRepository</text><path d="M1355,68.6211 C1355,58.6211 1373,58.6211 1373,58.6211 C1373,58.6211 1391,58.6211 1391,68.6211 L1391,94.6211 C1391,104.6211 1373,104.6211 1373,104.6211 C1373,104.6211 1355,104.6211 1355,94.6211 L1355,68.6211 " fill="#E2E2F0" style="stroke:#181818;stroke-width:1.5;"/><path d="M1355,68.6211 C1355,78.6211 1373,78.6211 1373,78.6211 C1373,78.6211 1391,78.6211 1391,68.6211 " fill="none" style="stroke:#181818;stroke-width:1.5;"/><text fill="#000000" font-family="sans-serif" font-size="14" lengthAdjust="spacing" textLength="171" x="1284.5" y="908.334">JobRequirementRepository</text><path d="M1355,921.8477 C1355,911.8477 1373,911.8477 1373,911.8477 C1373,911.8477 1391,911.8477 1391,921.8477 L1391,947.8477 C1391,957.8477 1373,957.8477 1373,957.8477 C1373,957.8477 1355,957.8477 1355,947.8477 L1355,921.8477 " fill="#E2E2F0" style="stroke:#181818;stroke-width:1.5;"/><path d="M1355,921.8477 C1355,931.8477 1373,931.8477 1373,931.8477 C1373,931.8477 1391,931.8477 1391,921.8477 " fill="none" style="stroke:#181818;stroke-width:1.5;"/><rect fill="#E2E2F0" height="32.6211" rx="2.5" ry="2.5" style="stroke:#181818;stroke-width:0.5;" width="156" x="1471.5" y="89.6211"/><text fill="#000000" font-family="sans-serif" font-size="14" lengthAdjust="spacing" textLength="142" x="1478.5" y="111.7285">JobRequirementPlugin</text><rect fill="#E2E2F0" height="32.6211" rx="2.5" ry="2.5" style="stroke:#181818;stroke-width:0.5;" width="156" x="1471.5" y="893.2266"/><text fill="#000000" font-family="sans-serif" font-size="14" lengthAdjust="spacing" textLength="142" x="1478.5" y="915.334">JobRequirementPlugin</text><rect fill="#FFFFFF" height="742.9844" style="stroke:#181818;stroke-width:1.0;" width="10" x="61.5" y="133.2422"/><rect fill="#FFFFFF" height="719.6934" style="stroke:#181818;stroke-width:1.0;" width="10" x="290.5" y="156.5332"/><rect fill="#FFFFFF" height="250.3281" style="stroke:#181818;stroke-width:1.0;" width="10" x="674.5" y="219.1152"/><rect fill="#FFFFFF" height="156.4551" style="stroke:#181818;stroke-width:1.0;" width="10" x="674.5" y="563.3164"/><rect fill="#FFFFFF" height="93.873" style="stroke:#181818;stroke-width:1.0;" width="10" x="674.5" y="751.0625"/><rect fill="#FFFFFF" height="31.291" style="stroke:#181818;stroke-width:1.0;" width="10" x="901.5" y="250.4063"/><rect fill="#FFFFFF" height="31.291" style="stroke:#181818;stroke-width:1.0;" width="10" x="1044.5" y="344.2793"/><rect fill="#FFFFFF" height="31.291" style="stroke:#181818;stroke-width:1.0;" width="10" x="1044.5" y="594.6074"/><rect fill="#FFFFFF" height="31.291" style="stroke:#181818;stroke-width:1.0;" width="10" x="1194.5" y="406.8613"/><rect fill="#FFFFFF" height="31.291" style="stroke:#181818;stroke-width:1.0;" width="10" x="1368" y="657.1895"/><rect fill="#FFFFFF" height="31.291" style="stroke:#181818;stroke-width:1.0;" width="10" x="1544.5" y="782.3535"/><polygon fill="#181818" points="278.5,152.5332,288.5,156.5332,278.5,160.5332,282.5,156.5332" style="stroke:#181818;stroke-width:1.0;"/><line style="stroke:#181818;stroke-width:1.0;" x1="71.5" x2="284.5" y1="156.5332" y2="156.5332"/><text fill="#000000" font-family="sans-serif" font-size="13" lengthAdjust="spacing" textLength="200" x="78.5" y="151.2705">Exports jobRequirements template</text><polygon fill="#181818" points="667.5,183.8242,677.5,187.8242,667.5,191.8242,671.5,187.8242" style="stroke:#181818;stroke-width:1.0;"/><line style="stroke:#181818;stroke-width:1.0;" x1="300.5" x2="673.5" y1="187.8242" y2="187.8242"/><text fill="#000000" font-family="sans-serif" font-size="13" lengthAdjust="spacing" textLength="44" x="307.5" y="182.5615">create()</text><polygon fill="#181818" points="662.5,215.1152,672.5,219.1152,662.5,223.1152,666.5,219.1152" style="stroke:#181818;stroke-width:1.0;"/><line style="stroke:#181818;stroke-width:1.0;" x1="300.5" x2="668.5" y1="219.1152" y2="219.1152"/><text fill="#000000" font-family="sans-serif" font-size="13" lengthAdjust="spacing" textLength="115" x="307.5" y="213.8525">listAllJobOpenings()</text><polygon fill="#181818" points="889.5,246.4063,899.5,250.4063,889.5,254.4063,893.5,250.4063" style="stroke:#181818;stroke-width:1.0;"/><line style="stroke:#181818;stroke-width:1.0;" x1="684.5" x2="895.5" y1="250.4063" y2="250.4063"/><text fill="#000000" font-family="sans-serif" font-size="13" lengthAdjust="spacing" textLength="44" x="691.5" y="245.1436">create()</text><polygon fill="#181818" points="1037.5,277.6973,1047.5,281.6973,1037.5,285.6973,1041.5,281.6973" style="stroke:#181818;stroke-width:1.0;"/><line style="stroke:#181818;stroke-width:1.0;" x1="906.5" x2="1043.5" y1="281.6973" y2="281.6973"/><text fill="#000000" font-family="sans-serif" font-size="13" lengthAdjust="spacing" textLength="47" x="913.5" y="276.4346">factory()</text><polygon fill="#181818" points="695.5,308.9883,685.5,312.9883,695.5,316.9883,691.5,312.9883" style="stroke:#181818;stroke-width:1.0;"/><line style="stroke:#181818;stroke-width:1.0;stroke-dasharray:2.0,2.0;" x1="689.5" x2="1048.5" y1="312.9883" y2="312.9883"/><text fill="#000000" font-family="sans-serif" font-size="13" lengthAdjust="spacing" textLength="39" x="701.5" y="307.7256">factory</text><polygon fill="#181818" points="1032.5,340.2793,1042.5,344.2793,1032.5,348.2793,1036.5,344.2793" style="stroke:#181818;stroke-width:1.0;"/><line style="stroke:#181818;stroke-width:1.0;" x1="684.5" x2="1038.5" y1="344.2793" y2="344.2793"/><text fill="#000000" font-family="sans-serif" font-size="13" lengthAdjust="spacing" textLength="80" x="691.5" y="339.0166">jobOpenings()</text><polygon fill="#181818" points="695.5,371.5703,685.5,375.5703,695.5,379.5703,691.5,375.5703" style="stroke:#181818;stroke-width:1.0;"/><line style="stroke:#181818;stroke-width:1.0;stroke-dasharray:2.0,2.0;" x1="689.5" x2="1048.5" y1="375.5703" y2="375.5703"/><text fill="#000000" font-family="sans-serif" font-size="13" lengthAdjust="spacing" textLength="130" x="701.5" y="370.3076">JobOpeningRepository</text><polygon fill="#181818" points="1182.5,402.8613,1192.5,406.8613,1182.5,410.8613,1186.5,406.8613" style="stroke:#181818;stroke-width:1.0;"/><line style="stroke:#181818;stroke-width:1.0;" x1="684.5" x2="1188.5" y1="406.8613" y2="406.8613"/><text fill="#000000" font-family="sans-serif" font-size="13" lengthAdjust="spacing" textLength="74" x="691.5" y="401.5986">findAllOpen()</text><polygon fill="#181818" points="695.5,434.1523,685.5,438.1523,695.5,442.1523,691.5,438.1523" style="stroke:#181818;stroke-width:1.0;"/><line style="stroke:#181818;stroke-width:1.0;stroke-dasharray:2.0,2.0;" x1="689.5" x2="1198.5" y1="438.1523" y2="438.1523"/><text fill="#000000" font-family="sans-serif" font-size="13" lengthAdjust="spacing" textLength="72" x="701.5" y="432.8896">jobOpenings</text><polygon fill="#181818" points="311.5,465.4434,301.5,469.4434,311.5,473.4434,307.5,469.4434" style="stroke:#181818;stroke-width:1.0;"/><line style="stroke:#181818;stroke-width:1.0;stroke-dasharray:2.0,2.0;" x1="305.5" x2="678.5" y1="469.4434" y2="469.4434"/><text fill="#000000" font-family="sans-serif" font-size="13" lengthAdjust="spacing" textLength="72" x="317.5" y="464.1807">jobOpenings</text><polygon fill="#181818" points="82.5,496.7344,72.5,500.7344,82.5,504.7344,78.5,500.7344" style="stroke:#181818;stroke-width:1.0;"/><line style="stroke:#181818;stroke-width:1.0;stroke-dasharray:2.0,2.0;" x1="76.5" x2="289.5" y1="500.7344" y2="500.7344"/><text fill="#000000" font-family="sans-serif" font-size="13" lengthAdjust="spacing" textLength="162" x="88.5" y="495.4717">asks to select a jobOpening</text><polygon fill="#181818" points="278.5,528.0254,288.5,532.0254,278.5,536.0254,282.5,532.0254" style="stroke:#181818;stroke-width:1.0;"/><line style="stroke:#181818;stroke-width:1.0;" x1="71.5" x2="284.5" y1="532.0254" y2="532.0254"/><text fill="#000000" font-family="sans-serif" font-size="13" lengthAdjust="spacing" textLength="133" x="78.5" y="526.7627">selects the jobOpening</text><polygon fill="#181818" points="662.5,559.3164,672.5,563.3164,662.5,567.3164,666.5,563.3164" style="stroke:#181818;stroke-width:1.0;"/><line style="stroke:#181818;stroke-width:1.0;" x1="300.5" x2="668.5" y1="563.3164" y2="563.3164"/><text fill="#000000" font-family="sans-serif" font-size="13" lengthAdjust="spacing" textLength="233" x="307.5" y="558.0537">findPluginByJobReference(jobReference)</text><polygon fill="#181818" points="1032.5,590.6074,1042.5,594.6074,1032.5,598.6074,1036.5,594.6074" style="stroke:#181818;stroke-width:1.0;"/><line style="stroke:#181818;stroke-width:1.0;" x1="684.5" x2="1038.5" y1="594.6074" y2="594.6074"/><text fill="#000000" font-family="sans-serif" font-size="13" lengthAdjust="spacing" textLength="105" x="691.5" y="589.3447">jobRequirements()</text><polygon fill="#181818" points="695.5,621.8984,685.5,625.8984,695.5,629.8984,691.5,625.8984" style="stroke:#181818;stroke-width:1.0;"/><line style="stroke:#181818;stroke-width:1.0;stroke-dasharray:2.0,2.0;" x1="689.5" x2="1048.5" y1="625.8984" y2="625.8984"/><text fill="#000000" font-family="sans-serif" font-size="13" lengthAdjust="spacing" textLength="152" x="701.5" y="620.6357">jobRequirementRepository</text><polygon fill="#181818" points="1356,653.1895,1366,657.1895,1356,661.1895,1360,657.1895" style="stroke:#181818;stroke-width:1.0;"/><line style="stroke:#181818;stroke-width:1.0;" x1="684.5" x2="1362" y1="657.1895" y2="657.1895"/><text fill="#000000" font-family="sans-serif" font-size="13" lengthAdjust="spacing" textLength="197" x="691.5" y="651.9268">findByJobReference(jobReference)</text><polygon fill="#181818" points="695.5,684.4805,685.5,688.4805,695.5,692.4805,691.5,688.4805" style="stroke:#181818;stroke-width:1.0;"/><line style="stroke:#181818;stroke-width:1.0;stroke-dasharray:2.0,2.0;" x1="689.5" x2="1372" y1="688.4805" y2="688.4805"/><text fill="#000000" font-family="sans-serif" font-size="13" lengthAdjust="spacing" textLength="90" x="701.5" y="683.2178">jobRequirement</text><polygon fill="#181818" points="311.5,715.7715,301.5,719.7715,311.5,723.7715,307.5,719.7715" style="stroke:#181818;stroke-width:1.0;"/><line style="stroke:#181818;stroke-width:1.0;stroke-dasharray:2.0,2.0;" x1="305.5" x2="678.5" y1="719.7715" y2="719.7715"/><text fill="#000000" font-family="sans-serif" font-size="13" lengthAdjust="spacing" textLength="90" x="317.5" y="714.5088">jobRequirement</text><polygon fill="#181818" points="662.5,747.0625,672.5,751.0625,662.5,755.0625,666.5,751.0625" style="stroke:#181818;stroke-width:1.0;"/><line style="stroke:#181818;stroke-width:1.0;" x1="300.5" x2="668.5" y1="751.0625" y2="751.0625"/><text fill="#000000" font-family="sans-serif" font-size="13" lengthAdjust="spacing" textLength="355" x="307.5" y="745.7998">generateAndExportJobRequirementTemplate(jobRequirement)</text><polygon fill="#181818" points="1532.5,778.3535,1542.5,782.3535,1532.5,786.3535,1536.5,782.3535" style="stroke:#181818;stroke-width:1.0;"/><line style="stroke:#181818;stroke-width:1.0;" x1="684.5" x2="1538.5" y1="782.3535" y2="782.3535"/><text fill="#000000" font-family="sans-serif" font-size="13" lengthAdjust="spacing" textLength="204" x="691.5" y="777.0908">generateTemplateJobRequirement()</text><polygon fill="#181818" points="695.5,809.6445,685.5,813.6445,695.5,817.6445,691.5,813.6445" style="stroke:#181818;stroke-width:1.0;"/><line style="stroke:#181818;stroke-width:1.0;stroke-dasharray:2.0,2.0;" x1="689.5" x2="1548.5" y1="813.6445" y2="813.6445"/><text fill="#000000" font-family="sans-serif" font-size="13" lengthAdjust="spacing" textLength="143" x="701.5" y="808.3818">job requirement template</text><polygon fill="#181818" points="311.5,840.9355,301.5,844.9355,311.5,848.9355,307.5,844.9355" style="stroke:#181818;stroke-width:1.0;"/><line style="stroke:#181818;stroke-width:1.0;stroke-dasharray:2.0,2.0;" x1="305.5" x2="678.5" y1="844.9355" y2="844.9355"/><text fill="#000000" font-family="sans-serif" font-size="13" lengthAdjust="spacing" textLength="143" x="317.5" y="839.6729">job requirement template</text><polygon fill="#181818" points="77.5,872.2266,67.5,876.2266,77.5,880.2266,73.5,876.2266" style="stroke:#181818;stroke-width:1.0;"/><line style="stroke:#181818;stroke-width:1.0;stroke-dasharray:2.0,2.0;" x1="71.5" x2="294.5" y1="876.2266" y2="876.2266"/><text fill="#000000" font-family="sans-serif" font-size="13" lengthAdjust="spacing" textLength="143" x="83.5" y="870.9639">job requirement template</text><!--SRC=[bLR1Rjim3BtxAuYSqaD_88S2MR4D6L2qA9OFK6qsKwR8dgHqpT-NakrQSYHBzIMsH3wIZuzI33S2uITALCmWxAH1zSRnFpoq3OggOhLf5TotsfnFg1wOP0TKm3HixKPLTKmPNlEEIGEh4UPN-_AC_yvSuGcb-OsdJj3gVhUoZllTLvpkMsbKAmGgvpnzXY1Fg3JN1cNjFF3TE7DlERH_ngxLd2gu_70LNfpvy5urpB0NfX5MbDHZXvBBm-JXJ6CRePzNpBLlTDEnpTzi7mPstG_StX5f6_Z-thNAQ3W6xXhCG5K5z7mY4CrkOR-p_XDl6wWLai7w9huF6n14sLQ8gKGz6WSHl5vyRjh7mo9ahmKmZtq5wVShiF1H27He506-zczpn0Rpc2F8xRp-0RDQAclAu1YdAQXh55PP_AYsKkL5eSDSOtYsJ2uRQhFTIYQUJoKAVbMIHrAoadmilomt58N8AQLQxHDEFsKR6is_D4qjQ1HO6s0UTkZdZIMvzURa-GUJ7f4fi_G_YVE1osyNToAyeh8YNH-zZrHVKXLbXEgV6_EUvmMxADfZyb2RG-J46nLm57jWiPo_kROBCqx6px2mM7jv-8JiImCjQIMYoyDm7szbqzyuyOjv7MQmH7IvMCDG_NHuAOsnGxDrUPDxn5o3XxYnveAQpAQBjxpDgGGIBVvwk5oplUEk3D_3fhyKaLK7zm40]--></g></svg>