<?xml version="1.0" encoding="us-ascii" standalone="no"?><svg xmlns="http://www.w3.org/2000/svg" xmlns:xlink="http://www.w3.org/1999/xlink" contentStyleType="text/css" height="765px" preserveAspectRatio="none" style="width:2512px;height:765px;background:#FFFFFF;" version="1.1" viewBox="0 0 2512 765" width="2512px" zoomAndPan="magnify"><defs/><g><!--class PublishRankResultsUI--><g id="elem_PublishRankResultsUI"><rect codeLine="1" fill="#F1F1F1" height="97.8242" id="PublishRankResultsUI" rx="2.5" ry="2.5" style="stroke:#181818;stroke-width:0.5;" width="170" x="1337.5" y="7"/><ellipse cx="1352.5" cy="29.291" fill="#ADD1B2" rx="11" ry="11" style="stroke:#181818;stroke-width:1.0;"/><path d="M1355.2656,25.166 Q1355.4219,24.9473 1355.6094,24.8379 Q1355.7969,24.7285 1356.0156,24.7285 Q1356.3906,24.7285 1356.625,24.9941 Q1356.8594,25.2441 1356.8594,25.8535 L1356.8594,27.3066 Q1356.8594,27.916 1356.625,28.1816 Q1356.3906,28.4473 1356.0156,28.4473 Q1355.6719,28.4473 1355.4688,28.2441 Q1355.2656,28.0566 1355.1563,27.541 Q1355.1094,27.1816 1354.9219,26.9941 Q1354.5938,26.6191 1353.9844,26.4004 Q1353.375,26.1816 1352.75,26.1816 Q1351.9844,26.1816 1351.3438,26.5098 Q1350.7188,26.8379 1350.2188,27.5879 Q1349.7344,28.3379 1349.7344,29.3691 L1349.7344,30.4629 Q1349.7344,31.6973 1350.625,32.5254 Q1351.5156,33.3379 1353.1094,33.3379 Q1354.0469,33.3379 1354.7031,33.0879 Q1355.0938,32.9316 1355.5156,32.4941 Q1355.7813,32.2285 1355.9219,32.1504 Q1356.0781,32.0723 1356.2813,32.0723 Q1356.6094,32.0723 1356.8594,32.3379 Q1357.125,32.5879 1357.125,32.9316 Q1357.125,33.2754 1356.7813,33.6816 Q1356.2813,34.2598 1355.4844,34.5879 Q1354.4063,35.041 1353.1094,35.041 Q1351.5938,35.041 1350.3906,34.416 Q1349.4063,33.916 1348.7188,32.8535 Q1348.0313,31.7754 1348.0313,30.4941 L1348.0313,29.3379 Q1348.0313,28.0098 1348.6406,26.8691 Q1349.2656,25.7129 1350.3594,25.1035 Q1351.4531,24.4785 1352.6875,24.4785 Q1353.4219,24.4785 1354.0625,24.6504 Q1354.7188,24.8066 1355.2656,25.166 Z " fill="#000000"/><text fill="#000000" font-family="sans-serif" font-size="12" font-style="italic" lengthAdjust="spacing" textLength="82" x="1394.5" y="24.9492">&#171;presentation&#187;</text><text fill="#000000" font-family="sans-serif" font-size="14" lengthAdjust="spacing" textLength="138" x="1366.5" y="43.0684">PublishRankResultsUI</text><line style="stroke:#181818;stroke-width:0.5;" x1="1338.5" x2="1506.5" y1="51.582" y2="51.582"/><line style="stroke:#181818;stroke-width:0.5;" x1="1338.5" x2="1506.5" y1="59.582" y2="59.582"/><ellipse cx="1348.5" cy="74.3926" fill="#84BE84" rx="3" ry="3" style="stroke:#038048;stroke-width:1.0;"/><text fill="#000000" font-family="sans-serif" font-size="14" lengthAdjust="spacing" textLength="109" x="1357.5" y="78.6895">headline(): String</text><ellipse cx="1348.5" cy="93.0137" fill="#84BE84" rx="3" ry="3" style="stroke:#038048;stroke-width:1.0;"/><text fill="#000000" font-family="sans-serif" font-size="14" lengthAdjust="spacing" textLength="119" x="1357.5" y="97.3105">doShow(): boolean</text></g><!--class PublishRankResultsController--><g id="elem_PublishRankResultsController"><rect codeLine="6" fill="#F1F1F1" height="116.4453" id="PublishRankResultsController" rx="2.5" ry="2.5" style="stroke:#181818;stroke-width:0.5;" width="575" x="1135" y="184"/><ellipse cx="1324.25" cy="206.291" fill="#ADD1B2" rx="11" ry="11" style="stroke:#181818;stroke-width:1.0;"/><path d="M1327.0156,202.166 Q1327.1719,201.9473 1327.3594,201.8379 Q1327.5469,201.7285 1327.7656,201.7285 Q1328.1406,201.7285 1328.375,201.9941 Q1328.6094,202.2441 1328.6094,202.8535 L1328.6094,204.3066 Q1328.6094,204.916 1328.375,205.1816 Q1328.1406,205.4473 1327.7656,205.4473 Q1327.4219,205.4473 1327.2188,205.2441 Q1327.0156,205.0566 1326.9063,204.541 Q1326.8594,204.1816 1326.6719,203.9941 Q1326.3438,203.6191 1325.7344,203.4004 Q1325.125,203.1816 1324.5,203.1816 Q1323.7344,203.1816 1323.0938,203.5098 Q1322.4688,203.8379 1321.9688,204.5879 Q1321.4844,205.3379 1321.4844,206.3691 L1321.4844,207.4629 Q1321.4844,208.6973 1322.375,209.5254 Q1323.2656,210.3379 1324.8594,210.3379 Q1325.7969,210.3379 1326.4531,210.0879 Q1326.8438,209.9316 1327.2656,209.4941 Q1327.5313,209.2285 1327.6719,209.1504 Q1327.8281,209.0723 1328.0313,209.0723 Q1328.3594,209.0723 1328.6094,209.3379 Q1328.875,209.5879 1328.875,209.9316 Q1328.875,210.2754 1328.5313,210.6816 Q1328.0313,211.2598 1327.2344,211.5879 Q1326.1563,212.041 1324.8594,212.041 Q1323.3438,212.041 1322.1406,211.416 Q1321.1563,210.916 1320.4688,209.8535 Q1319.7813,208.7754 1319.7813,207.4941 L1319.7813,206.3379 Q1319.7813,205.0098 1320.3906,203.8691 Q1321.0156,202.7129 1322.1094,202.1035 Q1323.2031,201.4785 1324.4375,201.4785 Q1325.1719,201.4785 1325.8125,201.6504 Q1326.4688,201.8066 1327.0156,202.166 Z " fill="#000000"/><text fill="#000000" font-family="sans-serif" font-size="12" font-style="italic" lengthAdjust="spacing" textLength="74" x="1401.75" y="201.9492">&#171;application&#187;</text><text fill="#000000" font-family="sans-serif" font-size="14" lengthAdjust="spacing" textLength="188" x="1344.75" y="220.0684">PublishRankResultsController</text><line style="stroke:#181818;stroke-width:0.5;" x1="1136" x2="1709" y1="228.582" y2="228.582"/><line style="stroke:#181818;stroke-width:0.5;" x1="1136" x2="1709" y1="236.582" y2="236.582"/><ellipse cx="1146" cy="251.3926" fill="#84BE84" rx="3" ry="3" style="stroke:#038048;stroke-width:1.0;"/><text fill="#000000" font-family="sans-serif" font-size="14" lengthAdjust="spacing" textLength="506" x="1155" y="255.6895">getApplicationsByJobReference(jobReference : String): Iterable&lt;JobApplication&gt;</text><ellipse cx="1146" cy="270.0137" fill="#84BE84" rx="3" ry="3" style="stroke:#038048;stroke-width:1.0;"/><text fill="#000000" font-family="sans-serif" font-size="14" lengthAdjust="spacing" textLength="418" x="1155" y="274.3105">verifyIsInResultPhase(jobReference : String) : JobOpeningProcess</text><ellipse cx="1146" cy="288.6348" fill="#84BE84" rx="3" ry="3" style="stroke:#038048;stroke-width:1.0;"/><text fill="#000000" font-family="sans-serif" font-size="14" lengthAdjust="spacing" textLength="549" x="1155" y="292.9316">publishRankResults(rankList : List&lt;Rank&gt;, applicationList : List &lt;JobApplication&gt;) : void</text></g><!--class JobApplicationService--><g id="elem_JobApplicationService"><rect codeLine="12" fill="#F1F1F1" height="79.2031" id="JobApplicationService" rx="2.5" ry="2.5" style="stroke:#181818;stroke-width:0.5;" width="455" x="536" y="438"/><ellipse cx="690.25" cy="460.291" fill="#ADD1B2" rx="11" ry="11" style="stroke:#181818;stroke-width:1.0;"/><path d="M693.0156,456.166 Q693.1719,455.9473 693.3594,455.8379 Q693.5469,455.7285 693.7656,455.7285 Q694.1406,455.7285 694.375,455.9941 Q694.6094,456.2441 694.6094,456.8535 L694.6094,458.3066 Q694.6094,458.916 694.375,459.1816 Q694.1406,459.4473 693.7656,459.4473 Q693.4219,459.4473 693.2188,459.2441 Q693.0156,459.0566 692.9063,458.541 Q692.8594,458.1816 692.6719,457.9941 Q692.3438,457.6191 691.7344,457.4004 Q691.125,457.1816 690.5,457.1816 Q689.7344,457.1816 689.0938,457.5098 Q688.4688,457.8379 687.9688,458.5879 Q687.4844,459.3379 687.4844,460.3691 L687.4844,461.4629 Q687.4844,462.6973 688.375,463.5254 Q689.2656,464.3379 690.8594,464.3379 Q691.7969,464.3379 692.4531,464.0879 Q692.8438,463.9316 693.2656,463.4941 Q693.5313,463.2285 693.6719,463.1504 Q693.8281,463.0723 694.0313,463.0723 Q694.3594,463.0723 694.6094,463.3379 Q694.875,463.5879 694.875,463.9316 Q694.875,464.2754 694.5313,464.6816 Q694.0313,465.2598 693.2344,465.5879 Q692.1563,466.041 690.8594,466.041 Q689.3438,466.041 688.1406,465.416 Q687.1563,464.916 686.4688,463.8535 Q685.7813,462.7754 685.7813,461.4941 L685.7813,460.3379 Q685.7813,459.0098 686.3906,457.8691 Q687.0156,456.7129 688.1094,456.1035 Q689.2031,455.4785 690.4375,455.4785 Q691.1719,455.4785 691.8125,455.6504 Q692.4688,455.8066 693.0156,456.166 Z " fill="#000000"/><text fill="#000000" font-family="sans-serif" font-size="12" font-style="italic" lengthAdjust="spacing" textLength="53" x="753.25" y="455.9492">&#171;service&#187;</text><text fill="#000000" font-family="sans-serif" font-size="14" lengthAdjust="spacing" textLength="138" x="710.75" y="474.0684">JobApplicationService</text><line style="stroke:#181818;stroke-width:0.5;" x1="537" x2="990" y1="482.582" y2="482.582"/><line style="stroke:#181818;stroke-width:0.5;" x1="537" x2="990" y1="490.582" y2="490.582"/><ellipse cx="547" cy="505.3926" fill="#84BE84" rx="3" ry="3" style="stroke:#038048;stroke-width:1.0;"/><text fill="#000000" font-family="sans-serif" font-size="14" lengthAdjust="spacing" textLength="429" x="556" y="509.6895">findByJobReference(jobReference:String) : Iterable&lt;JobApplication&gt;</text></g><!--class PersistenceContext--><g id="elem_PersistenceContext"><rect codeLine="16" fill="#F1F1F1" height="66.6211" id="PersistenceContext" rx="2.5" ry="2.5" style="stroke:#181818;stroke-width:0.5;" width="234" x="1080.5" y="444"/><ellipse cx="1132.25" cy="460" fill="#ADD1B2" rx="11" ry="11" style="stroke:#181818;stroke-width:1.0;"/><path d="M1135.0156,455.875 Q1135.1719,455.6563 1135.3594,455.5469 Q1135.5469,455.4375 1135.7656,455.4375 Q1136.1406,455.4375 1136.375,455.7031 Q1136.6094,455.9531 1136.6094,456.5625 L1136.6094,458.0156 Q1136.6094,458.625 1136.375,458.8906 Q1136.1406,459.1563 1135.7656,459.1563 Q1135.4219,459.1563 1135.2188,458.9531 Q1135.0156,458.7656 1134.9063,458.25 Q1134.8594,457.8906 1134.6719,457.7031 Q1134.3438,457.3281 1133.7344,457.1094 Q1133.125,456.8906 1132.5,456.8906 Q1131.7344,456.8906 1131.0938,457.2188 Q1130.4688,457.5469 1129.9688,458.2969 Q1129.4844,459.0469 1129.4844,460.0781 L1129.4844,461.1719 Q1129.4844,462.4063 1130.375,463.2344 Q1131.2656,464.0469 1132.8594,464.0469 Q1133.7969,464.0469 1134.4531,463.7969 Q1134.8438,463.6406 1135.2656,463.2031 Q1135.5313,462.9375 1135.6719,462.8594 Q1135.8281,462.7813 1136.0313,462.7813 Q1136.3594,462.7813 1136.6094,463.0469 Q1136.875,463.2969 1136.875,463.6406 Q1136.875,463.9844 1136.5313,464.3906 Q1136.0313,464.9688 1135.2344,465.2969 Q1134.1563,465.75 1132.8594,465.75 Q1131.3438,465.75 1130.1406,465.125 Q1129.1563,464.625 1128.4688,463.5625 Q1127.7813,462.4844 1127.7813,461.2031 L1127.7813,460.0469 Q1127.7813,458.7188 1128.3906,457.5781 Q1129.0156,456.4219 1130.1094,455.8125 Q1131.2031,455.1875 1132.4375,455.1875 Q1133.1719,455.1875 1133.8125,455.3594 Q1134.4688,455.5156 1135.0156,455.875 Z " fill="#000000"/><text fill="#000000" font-family="sans-serif" font-size="14" lengthAdjust="spacing" textLength="122" x="1152.75" y="465.7969">PersistenceContext</text><line style="stroke:#181818;stroke-width:0.5;" x1="1081.5" x2="1313.5" y1="476" y2="476"/><line style="stroke:#181818;stroke-width:0.5;" x1="1081.5" x2="1313.5" y1="484" y2="484"/><ellipse cx="1091.5" cy="498.8105" fill="#84BE84" rx="3" ry="3" style="stroke:#038048;stroke-width:1.0;"/><text fill="#000000" font-family="sans-serif" font-size="14" lengthAdjust="spacing" textLength="208" x="1100.5" y="503.1074">repositories(): RepositoryFactory</text></g><!--class RepositoryFactory--><g id="elem_RepositoryFactory"><rect codeLine="20" fill="#F1F1F1" height="103.8633" id="RepositoryFactory" rx="2.5" ry="2.5" style="stroke:#181818;stroke-width:0.5;" width="382" x="1060.5" y="655"/><ellipse cx="1189.25" cy="671" fill="#ADD1B2" rx="11" ry="11" style="stroke:#181818;stroke-width:1.0;"/><path d="M1192.0156,666.875 Q1192.1719,666.6563 1192.3594,666.5469 Q1192.5469,666.4375 1192.7656,666.4375 Q1193.1406,666.4375 1193.375,666.7031 Q1193.6094,666.9531 1193.6094,667.5625 L1193.6094,669.0156 Q1193.6094,669.625 1193.375,669.8906 Q1193.1406,670.1563 1192.7656,670.1563 Q1192.4219,670.1563 1192.2188,669.9531 Q1192.0156,669.7656 1191.9063,669.25 Q1191.8594,668.8906 1191.6719,668.7031 Q1191.3438,668.3281 1190.7344,668.1094 Q1190.125,667.8906 1189.5,667.8906 Q1188.7344,667.8906 1188.0938,668.2188 Q1187.4688,668.5469 1186.9688,669.2969 Q1186.4844,670.0469 1186.4844,671.0781 L1186.4844,672.1719 Q1186.4844,673.4063 1187.375,674.2344 Q1188.2656,675.0469 1189.8594,675.0469 Q1190.7969,675.0469 1191.4531,674.7969 Q1191.8438,674.6406 1192.2656,674.2031 Q1192.5313,673.9375 1192.6719,673.8594 Q1192.8281,673.7813 1193.0313,673.7813 Q1193.3594,673.7813 1193.6094,674.0469 Q1193.875,674.2969 1193.875,674.6406 Q1193.875,674.9844 1193.5313,675.3906 Q1193.0313,675.9688 1192.2344,676.2969 Q1191.1563,676.75 1189.8594,676.75 Q1188.3438,676.75 1187.1406,676.125 Q1186.1563,675.625 1185.4688,674.5625 Q1184.7813,673.4844 1184.7813,672.2031 L1184.7813,671.0469 Q1184.7813,669.7188 1185.3906,668.5781 Q1186.0156,667.4219 1187.1094,666.8125 Q1188.2031,666.1875 1189.4375,666.1875 Q1190.1719,666.1875 1190.8125,666.3594 Q1191.4688,666.5156 1192.0156,666.875 Z " fill="#000000"/><text fill="#000000" font-family="sans-serif" font-size="14" lengthAdjust="spacing" textLength="116" x="1209.75" y="676.7969">RepositoryFactory</text><line style="stroke:#181818;stroke-width:0.5;" x1="1061.5" x2="1441.5" y1="687" y2="687"/><line style="stroke:#181818;stroke-width:0.5;" x1="1061.5" x2="1441.5" y1="695" y2="695"/><ellipse cx="1071.5" cy="709.8105" fill="#84BE84" rx="3" ry="3" style="stroke:#038048;stroke-width:1.0;"/><text fill="#000000" font-family="sans-serif" font-size="14" lengthAdjust="spacing" textLength="252" x="1080.5" y="714.1074">applications(): JobApplicationRepository</text><ellipse cx="1071.5" cy="728.4316" fill="#84BE84" rx="3" ry="3" style="stroke:#038048;stroke-width:1.0;"/><text fill="#000000" font-family="sans-serif" font-size="14" lengthAdjust="spacing" textLength="356" x="1080.5" y="732.7285">jobOpeningProcesses() : JobOpeningProcessRepository</text><ellipse cx="1071.5" cy="747.0527" fill="#84BE84" rx="3" ry="3" style="stroke:#038048;stroke-width:1.0;"/><text fill="#000000" font-family="sans-serif" font-size="14" lengthAdjust="spacing" textLength="158" x="1080.5" y="751.3496">ranks() : RankRepository</text></g><!--class JobApplicationRepository--><g id="elem_JobApplicationRepository"><rect codeLine="26" fill="#F1F1F1" height="66.6211" id="JobApplicationRepository" rx="2.5" ry="2.5" style="stroke:#181818;stroke-width:0.5;" width="459" x="7" y="673.5"/><ellipse cx="152.75" cy="689.5" fill="#ADD1B2" rx="11" ry="11" style="stroke:#181818;stroke-width:1.0;"/><path d="M155.5156,685.375 Q155.6719,685.1563 155.8594,685.0469 Q156.0469,684.9375 156.2656,684.9375 Q156.6406,684.9375 156.875,685.2031 Q157.1094,685.4531 157.1094,686.0625 L157.1094,687.5156 Q157.1094,688.125 156.875,688.3906 Q156.6406,688.6563 156.2656,688.6563 Q155.9219,688.6563 155.7188,688.4531 Q155.5156,688.2656 155.4063,687.75 Q155.3594,687.3906 155.1719,687.2031 Q154.8438,686.8281 154.2344,686.6094 Q153.625,686.3906 153,686.3906 Q152.2344,686.3906 151.5938,686.7188 Q150.9688,687.0469 150.4688,687.7969 Q149.9844,688.5469 149.9844,689.5781 L149.9844,690.6719 Q149.9844,691.9063 150.875,692.7344 Q151.7656,693.5469 153.3594,693.5469 Q154.2969,693.5469 154.9531,693.2969 Q155.3438,693.1406 155.7656,692.7031 Q156.0313,692.4375 156.1719,692.3594 Q156.3281,692.2813 156.5313,692.2813 Q156.8594,692.2813 157.1094,692.5469 Q157.375,692.7969 157.375,693.1406 Q157.375,693.4844 157.0313,693.8906 Q156.5313,694.4688 155.7344,694.7969 Q154.6563,695.25 153.3594,695.25 Q151.8438,695.25 150.6406,694.625 Q149.6563,694.125 148.9688,693.0625 Q148.2813,691.9844 148.2813,690.7031 L148.2813,689.5469 Q148.2813,688.2188 148.8906,687.0781 Q149.5156,685.9219 150.6094,685.3125 Q151.7031,684.6875 152.9375,684.6875 Q153.6719,684.6875 154.3125,684.8594 Q154.9688,685.0156 155.5156,685.375 Z " fill="#000000"/><text fill="#000000" font-family="sans-serif" font-size="14" lengthAdjust="spacing" textLength="159" x="173.25" y="695.2969">JobApplicationRepository</text><line style="stroke:#181818;stroke-width:0.5;" x1="8" x2="465" y1="705.5" y2="705.5"/><line style="stroke:#181818;stroke-width:0.5;" x1="8" x2="465" y1="713.5" y2="713.5"/><ellipse cx="18" cy="728.3105" fill="#84BE84" rx="3" ry="3" style="stroke:#038048;stroke-width:1.0;"/><text fill="#000000" font-family="sans-serif" font-size="14" lengthAdjust="spacing" textLength="433" x="27" y="732.6074">findByJobReference(jobReference : String): Iterable&lt;JobApplication&gt;</text></g><!--class JobOpeningProcessRepository--><g id="elem_JobOpeningProcessRepository"><rect codeLine="30" fill="#F1F1F1" height="66.6211" id="JobOpeningProcessRepository" rx="2.5" ry="2.5" style="stroke:#181818;stroke-width:0.5;" width="297" x="1350" y="444"/><ellipse cx="1396.75" cy="460" fill="#ADD1B2" rx="11" ry="11" style="stroke:#181818;stroke-width:1.0;"/><path d="M1399.5156,455.875 Q1399.6719,455.6563 1399.8594,455.5469 Q1400.0469,455.4375 1400.2656,455.4375 Q1400.6406,455.4375 1400.875,455.7031 Q1401.1094,455.9531 1401.1094,456.5625 L1401.1094,458.0156 Q1401.1094,458.625 1400.875,458.8906 Q1400.6406,459.1563 1400.2656,459.1563 Q1399.9219,459.1563 1399.7188,458.9531 Q1399.5156,458.7656 1399.4063,458.25 Q1399.3594,457.8906 1399.1719,457.7031 Q1398.8438,457.3281 1398.2344,457.1094 Q1397.625,456.8906 1397,456.8906 Q1396.2344,456.8906 1395.5938,457.2188 Q1394.9688,457.5469 1394.4688,458.2969 Q1393.9844,459.0469 1393.9844,460.0781 L1393.9844,461.1719 Q1393.9844,462.4063 1394.875,463.2344 Q1395.7656,464.0469 1397.3594,464.0469 Q1398.2969,464.0469 1398.9531,463.7969 Q1399.3438,463.6406 1399.7656,463.2031 Q1400.0313,462.9375 1400.1719,462.8594 Q1400.3281,462.7813 1400.5313,462.7813 Q1400.8594,462.7813 1401.1094,463.0469 Q1401.375,463.2969 1401.375,463.6406 Q1401.375,463.9844 1401.0313,464.3906 Q1400.5313,464.9688 1399.7344,465.2969 Q1398.6563,465.75 1397.3594,465.75 Q1395.8438,465.75 1394.6406,465.125 Q1393.6563,464.625 1392.9688,463.5625 Q1392.2813,462.4844 1392.2813,461.2031 L1392.2813,460.0469 Q1392.2813,458.7188 1392.8906,457.5781 Q1393.5156,456.4219 1394.6094,455.8125 Q1395.7031,455.1875 1396.9375,455.1875 Q1397.6719,455.1875 1398.3125,455.3594 Q1398.9688,455.5156 1399.5156,455.875 Z " fill="#000000"/><text fill="#000000" font-family="sans-serif" font-size="14" lengthAdjust="spacing" textLength="195" x="1417.25" y="465.7969">JobOpeningProcessRepository</text><line style="stroke:#181818;stroke-width:0.5;" x1="1351" x2="1646" y1="476" y2="476"/><line style="stroke:#181818;stroke-width:0.5;" x1="1351" x2="1646" y1="484" y2="484"/><ellipse cx="1361" cy="498.8105" fill="#84BE84" rx="3" ry="3" style="stroke:#038048;stroke-width:1.0;"/><text fill="#000000" font-family="sans-serif" font-size="14" lengthAdjust="spacing" textLength="271" x="1370" y="503.1074">findByJobReference(jobReference : String)</text></g><!--class RankRepository--><g id="elem_RankRepository"><rect codeLine="34" fill="#F1F1F1" height="66.6211" id="RankRepository" rx="2.5" ry="2.5" style="stroke:#181818;stroke-width:0.5;" width="365" x="1770" y="673.5"/><ellipse cx="1897.75" cy="689.5" fill="#ADD1B2" rx="11" ry="11" style="stroke:#181818;stroke-width:1.0;"/><path d="M1900.5156,685.375 Q1900.6719,685.1563 1900.8594,685.0469 Q1901.0469,684.9375 1901.2656,684.9375 Q1901.6406,684.9375 1901.875,685.2031 Q1902.1094,685.4531 1902.1094,686.0625 L1902.1094,687.5156 Q1902.1094,688.125 1901.875,688.3906 Q1901.6406,688.6563 1901.2656,688.6563 Q1900.9219,688.6563 1900.7188,688.4531 Q1900.5156,688.2656 1900.4063,687.75 Q1900.3594,687.3906 1900.1719,687.2031 Q1899.8438,686.8281 1899.2344,686.6094 Q1898.625,686.3906 1898,686.3906 Q1897.2344,686.3906 1896.5938,686.7188 Q1895.9688,687.0469 1895.4688,687.7969 Q1894.9844,688.5469 1894.9844,689.5781 L1894.9844,690.6719 Q1894.9844,691.9063 1895.875,692.7344 Q1896.7656,693.5469 1898.3594,693.5469 Q1899.2969,693.5469 1899.9531,693.2969 Q1900.3438,693.1406 1900.7656,692.7031 Q1901.0313,692.4375 1901.1719,692.3594 Q1901.3281,692.2813 1901.5313,692.2813 Q1901.8594,692.2813 1902.1094,692.5469 Q1902.375,692.7969 1902.375,693.1406 Q1902.375,693.4844 1902.0313,693.8906 Q1901.5313,694.4688 1900.7344,694.7969 Q1899.6563,695.25 1898.3594,695.25 Q1896.8438,695.25 1895.6406,694.625 Q1894.6563,694.125 1893.9688,693.0625 Q1893.2813,691.9844 1893.2813,690.7031 L1893.2813,689.5469 Q1893.2813,688.2188 1893.8906,687.0781 Q1894.5156,685.9219 1895.6094,685.3125 Q1896.7031,684.6875 1897.9375,684.6875 Q1898.6719,684.6875 1899.3125,684.8594 Q1899.9688,685.0156 1900.5156,685.375 Z " fill="#000000"/><text fill="#000000" font-family="sans-serif" font-size="14" lengthAdjust="spacing" textLength="101" x="1918.25" y="695.2969">RankRepository</text><line style="stroke:#181818;stroke-width:0.5;" x1="1771" x2="2134" y1="705.5" y2="705.5"/><line style="stroke:#181818;stroke-width:0.5;" x1="1771" x2="2134" y1="713.5" y2="713.5"/><ellipse cx="1781" cy="728.3105" fill="#84BE84" rx="3" ry="3" style="stroke:#038048;stroke-width:1.0;"/><text fill="#000000" font-family="sans-serif" font-size="14" lengthAdjust="spacing" textLength="339" x="1790" y="732.6074">getRankByJobApplication(id : Long) : Optional&lt;Rank&gt;</text></g><!--class RankService--><g id="elem_RankService"><rect codeLine="38" fill="#F1F1F1" height="196.9688" id="RankService" rx="2.5" ry="2.5" style="stroke:#181818;stroke-width:0.5;" width="823" x="1682" y="379"/><ellipse cx="2049.25" cy="395" fill="#ADD1B2" rx="11" ry="11" style="stroke:#181818;stroke-width:1.0;"/><path d="M2052.0156,390.875 Q2052.1719,390.6563 2052.3594,390.5469 Q2052.5469,390.4375 2052.7656,390.4375 Q2053.1406,390.4375 2053.375,390.7031 Q2053.6094,390.9531 2053.6094,391.5625 L2053.6094,393.0156 Q2053.6094,393.625 2053.375,393.8906 Q2053.1406,394.1563 2052.7656,394.1563 Q2052.4219,394.1563 2052.2188,393.9531 Q2052.0156,393.7656 2051.9063,393.25 Q2051.8594,392.8906 2051.6719,392.7031 Q2051.3438,392.3281 2050.7344,392.1094 Q2050.125,391.8906 2049.5,391.8906 Q2048.7344,391.8906 2048.0938,392.2188 Q2047.4688,392.5469 2046.9688,393.2969 Q2046.4844,394.0469 2046.4844,395.0781 L2046.4844,396.1719 Q2046.4844,397.4063 2047.375,398.2344 Q2048.2656,399.0469 2049.8594,399.0469 Q2050.7969,399.0469 2051.4531,398.7969 Q2051.8438,398.6406 2052.2656,398.2031 Q2052.5313,397.9375 2052.6719,397.8594 Q2052.8281,397.7813 2053.0313,397.7813 Q2053.3594,397.7813 2053.6094,398.0469 Q2053.875,398.2969 2053.875,398.6406 Q2053.875,398.9844 2053.5313,399.3906 Q2053.0313,399.9688 2052.2344,400.2969 Q2051.1563,400.75 2049.8594,400.75 Q2048.3438,400.75 2047.1406,400.125 Q2046.1563,399.625 2045.4688,398.5625 Q2044.7813,397.4844 2044.7813,396.2031 L2044.7813,395.0469 Q2044.7813,393.7188 2045.3906,392.5781 Q2046.0156,391.4219 2047.1094,390.8125 Q2048.2031,390.1875 2049.4375,390.1875 Q2050.1719,390.1875 2050.8125,390.3594 Q2051.4688,390.5156 2052.0156,390.875 Z " fill="#000000"/><text fill="#000000" font-family="sans-serif" font-size="14" lengthAdjust="spacing" textLength="80" x="2069.75" y="400.7969">RankService</text><line style="stroke:#181818;stroke-width:0.5;" x1="1683" x2="2504" y1="411" y2="411"/><rect fill="none" height="6" style="stroke:#C82930;stroke-width:1.0;" width="6" x="1690" y="422.8105"/><text fill="#000000" font-family="sans-serif" font-size="14" lengthAdjust="spacing" textLength="205" x="1702" y="430.1074">rankRepository: RankRepository</text><rect fill="none" height="6" style="stroke:#C82930;stroke-width:1.0;" width="6" x="1690" y="441.4316"/><text fill="#000000" font-family="sans-serif" font-size="14" lengthAdjust="spacing" textLength="323" x="1702" y="448.7285">jobApplicationRepository: JobApplicationRepository</text><line style="stroke:#181818;stroke-width:0.5;" x1="1683" x2="2504" y1="456.2422" y2="456.2422"/><ellipse cx="1693" cy="471.0527" fill="#84BE84" rx="3" ry="3" style="stroke:#038048;stroke-width:1.0;"/><text fill="#000000" font-family="sans-serif" font-size="14" lengthAdjust="spacing" textLength="295" x="1702" y="475.3496">RankService(rankRepository: RankRepository)</text><ellipse cx="1693" cy="489.6738" fill="#84BE84" rx="3" ry="3" style="stroke:#038048;stroke-width:1.0;"/><text fill="#000000" font-family="sans-serif" font-size="14" lengthAdjust="spacing" textLength="463" x="1702" y="493.9707">publishRanks(ranks: List&lt;Rank&gt;, applications: List&lt;JobApplication&gt;): void</text><ellipse cx="1693" cy="508.2949" fill="#84BE84" rx="3" ry="3" style="stroke:#038048;stroke-width:1.0;"/><text fill="#000000" font-family="sans-serif" font-size="14" lengthAdjust="spacing" textLength="500" x="1702" y="512.5918">getRanksByJobApplications(applications: Iterable&lt;JobApplication&gt;): List&lt;Rank&gt;</text><rect fill="#F24D5C" height="6" style="stroke:#C82930;stroke-width:1.0;" width="6" x="1690" y="523.916"/><text fill="#000000" font-family="sans-serif" font-size="14" lengthAdjust="spacing" textLength="511" x="1702" y="531.2129">acceptedTemplateMessage(application: JobApplication, fromEmail: String): String</text><rect fill="#F24D5C" height="6" style="stroke:#C82930;stroke-width:1.0;" width="6" x="1690" y="542.5371"/><text fill="#000000" font-family="sans-serif" font-size="14" lengthAdjust="spacing" textLength="504" x="1702" y="549.834">rejectedTemplateMessage(application: JobApplication, fromEmail: String): String</text><rect fill="#F24D5C" height="6" style="stroke:#C82930;stroke-width:1.0;" width="6" x="1690" y="561.1582"/><text fill="#000000" font-family="sans-serif" font-size="14" lengthAdjust="spacing" textLength="797" x="1702" y="568.4551">customerTemplateMessage(customerName: String, jobTitle: String, rankedList: List&lt;String&gt;, unrankedList: List&lt;String&gt;): String</text></g><!--class Rank--><g id="elem_Rank"><rect codeLine="49" fill="#F1F1F1" height="66.6211" id="Rank" rx="2.5" ry="2.5" style="stroke:#181818;stroke-width:0.5;" width="126" x="2170.5" y="673.5"/><ellipse cx="2212.95" cy="689.5" fill="#ADD1B2" rx="11" ry="11" style="stroke:#181818;stroke-width:1.0;"/><path d="M2215.7156,685.375 Q2215.8719,685.1563 2216.0594,685.0469 Q2216.2469,684.9375 2216.4656,684.9375 Q2216.8406,684.9375 2217.075,685.2031 Q2217.3094,685.4531 2217.3094,686.0625 L2217.3094,687.5156 Q2217.3094,688.125 2217.075,688.3906 Q2216.8406,688.6563 2216.4656,688.6563 Q2216.1219,688.6563 2215.9188,688.4531 Q2215.7156,688.2656 2215.6063,687.75 Q2215.5594,687.3906 2215.3719,687.2031 Q2215.0438,686.8281 2214.4344,686.6094 Q2213.825,686.3906 2213.2,686.3906 Q2212.4344,686.3906 2211.7938,686.7188 Q2211.1688,687.0469 2210.6688,687.7969 Q2210.1844,688.5469 2210.1844,689.5781 L2210.1844,690.6719 Q2210.1844,691.9063 2211.075,692.7344 Q2211.9656,693.5469 2213.5594,693.5469 Q2214.4969,693.5469 2215.1531,693.2969 Q2215.5438,693.1406 2215.9656,692.7031 Q2216.2313,692.4375 2216.3719,692.3594 Q2216.5281,692.2813 2216.7313,692.2813 Q2217.0594,692.2813 2217.3094,692.5469 Q2217.575,692.7969 2217.575,693.1406 Q2217.575,693.4844 2217.2313,693.8906 Q2216.7313,694.4688 2215.9344,694.7969 Q2214.8563,695.25 2213.5594,695.25 Q2212.0438,695.25 2210.8406,694.625 Q2209.8563,694.125 2209.1688,693.0625 Q2208.4813,691.9844 2208.4813,690.7031 L2208.4813,689.5469 Q2208.4813,688.2188 2209.0906,687.0781 Q2209.7156,685.9219 2210.8094,685.3125 Q2211.9031,684.6875 2213.1375,684.6875 Q2213.8719,684.6875 2214.5125,684.8594 Q2215.1688,685.0156 2215.7156,685.375 Z " fill="#000000"/><text fill="#000000" font-family="sans-serif" font-size="14" lengthAdjust="spacing" textLength="33" x="2233.05" y="695.2969">Rank</text><line style="stroke:#181818;stroke-width:0.5;" x1="2171.5" x2="2295.5" y1="705.5" y2="705.5"/><line style="stroke:#181818;stroke-width:0.5;" x1="2171.5" x2="2295.5" y1="713.5" y2="713.5"/><rect fill="#F24D5C" height="6" style="stroke:#C82930;stroke-width:1.0;" width="6" x="2178.5" y="725.3105"/><text fill="#000000" font-family="sans-serif" font-size="14" lengthAdjust="spacing" textLength="100" x="2190.5" y="732.6074">publish() : Rank</text></g><!--class JobApplication--><g id="elem_JobApplication"><rect codeLine="53" fill="#F1F1F1" height="66.6211" id="JobApplication" rx="2.5" ry="2.5" style="stroke:#181818;stroke-width:0.5;" width="524" x="501.5" y="673.5"/><ellipse cx="713.75" cy="689.5" fill="#ADD1B2" rx="11" ry="11" style="stroke:#181818;stroke-width:1.0;"/><path d="M716.5156,685.375 Q716.6719,685.1563 716.8594,685.0469 Q717.0469,684.9375 717.2656,684.9375 Q717.6406,684.9375 717.875,685.2031 Q718.1094,685.4531 718.1094,686.0625 L718.1094,687.5156 Q718.1094,688.125 717.875,688.3906 Q717.6406,688.6563 717.2656,688.6563 Q716.9219,688.6563 716.7188,688.4531 Q716.5156,688.2656 716.4063,687.75 Q716.3594,687.3906 716.1719,687.2031 Q715.8438,686.8281 715.2344,686.6094 Q714.625,686.3906 714,686.3906 Q713.2344,686.3906 712.5938,686.7188 Q711.9688,687.0469 711.4688,687.7969 Q710.9844,688.5469 710.9844,689.5781 L710.9844,690.6719 Q710.9844,691.9063 711.875,692.7344 Q712.7656,693.5469 714.3594,693.5469 Q715.2969,693.5469 715.9531,693.2969 Q716.3438,693.1406 716.7656,692.7031 Q717.0313,692.4375 717.1719,692.3594 Q717.3281,692.2813 717.5313,692.2813 Q717.8594,692.2813 718.1094,692.5469 Q718.375,692.7969 718.375,693.1406 Q718.375,693.4844 718.0313,693.8906 Q717.5313,694.4688 716.7344,694.7969 Q715.6563,695.25 714.3594,695.25 Q712.8438,695.25 711.6406,694.625 Q710.6563,694.125 709.9688,693.0625 Q709.2813,691.9844 709.2813,690.7031 L709.2813,689.5469 Q709.2813,688.2188 709.8906,687.0781 Q710.5156,685.9219 711.6094,685.3125 Q712.7031,684.6875 713.9375,684.6875 Q714.6719,684.6875 715.3125,684.8594 Q715.9688,685.0156 716.5156,685.375 Z " fill="#000000"/><text fill="#000000" font-family="sans-serif" font-size="14" lengthAdjust="spacing" textLength="91" x="734.25" y="695.2969">JobApplication</text><line style="stroke:#181818;stroke-width:0.5;" x1="502.5" x2="1024.5" y1="705.5" y2="705.5"/><line style="stroke:#181818;stroke-width:0.5;" x1="502.5" x2="1024.5" y1="713.5" y2="713.5"/><rect fill="#F24D5C" height="6" style="stroke:#C82930;stroke-width:1.0;" width="6" x="509.5" y="725.3105"/><text fill="#000000" font-family="sans-serif" font-size="14" lengthAdjust="spacing" textLength="498" x="521.5" y="732.6074">changeApplicationStatus(applicationStatus : ApplicationStatus) : JobApplication</text></g><!--link PublishRankResultsUI to PublishRankResultsController--><g id="link_PublishRankResultsUI_PublishRankResultsController"><path codeLine="59" d="M1422.5,105.34 C1422.5,129.41 1422.5,152.66 1422.5,177.83 " fill="none" id="PublishRankResultsUI-to-PublishRankResultsController" style="stroke:#181818;stroke-width:1.0;"/><polygon fill="#181818" points="1422.5,183.83,1426.5,174.83,1422.5,178.83,1418.5,174.83,1422.5,183.83" style="stroke:#181818;stroke-width:1.0;"/><text fill="#000000" font-family="sans-serif" font-size="13" lengthAdjust="spacing" textLength="73" x="1423.5" y="150.0283">theController</text></g><!--link PublishRankResultsController to JobApplicationService--><g id="link_PublishRankResultsController_JobApplicationService"><path codeLine="60" d="M1261.29,300.12 C1140.4,342.95 983.8554,398.4158 877.9554,435.9458 " fill="none" id="PublishRankResultsController-to-JobApplicationService" style="stroke:#181818;stroke-width:1.0;"/><polygon fill="#181818" points="872.3,437.95,882.1192,438.7139,877.0128,436.2798,879.4469,431.1734,872.3,437.95" style="stroke:#181818;stroke-width:1.0;"/><text fill="#000000" font-family="sans-serif" font-size="13" lengthAdjust="spacing" textLength="123" x="1172.5" y="345.0283">jobApplicationService</text></g><!--link PublishRankResultsController to RankService--><g id="link_PublishRankResultsController_RankService"><path codeLine="61" d="M1586.65,300.12 C1654.83,323.85 1730.2632,350.0983 1807.3732,376.9283 " fill="none" id="PublishRankResultsController-to-RankService" style="stroke:#181818;stroke-width:1.0;"/><polygon fill="#181818" points="1813.04,378.9,1805.8543,372.1646,1808.3177,377.2569,1803.2254,379.7203,1813.04,378.9" style="stroke:#181818;stroke-width:1.0;"/><text fill="#000000" font-family="sans-serif" font-size="13" lengthAdjust="spacing" textLength="67" x="1719.5" y="345.0283">rankService</text></g><!--link PublishRankResultsController to JobOpeningProcessRepository--><g id="link_PublishRankResultsController_JobOpeningProcessRepository"><path codeLine="62" d="M1441.09,300.12 C1455.77,345.22 1473.8736,400.8244 1485.9736,438.0144 " fill="none" id="PublishRankResultsController-to-JobOpeningProcessRepository" style="stroke:#181818;stroke-width:1.0;"/><polygon fill="#181818" points="1487.83,443.72,1488.8492,433.924,1486.283,438.9653,1481.2417,436.3992,1487.83,443.72" style="stroke:#181818;stroke-width:1.0;"/><text fill="#000000" font-family="sans-serif" font-size="13" lengthAdjust="spacing" textLength="175" x="1457.5" y="345.0283">jobOpeningProcessRepository</text></g><!--link JobApplicationService to JobApplicationRepository--><g id="link_JobApplicationService_JobApplicationRepository"><path codeLine="63" d="M674.1,517.09 C572.2,561.08 412.9286,629.8319 317.3086,671.1119 " fill="none" id="JobApplicationService-to-JobApplicationRepository" style="stroke:#181818;stroke-width:1.0;"/><polygon fill="#181818" points="311.8,673.49,321.6483,673.5952,316.3905,671.5082,318.4775,666.2504,311.8,673.49" style="stroke:#181818;stroke-width:1.0;"/><text fill="#000000" font-family="sans-serif" font-size="13" lengthAdjust="spacing" textLength="143" x="454.5" y="621.0283">jobApplicationRepository</text></g><!--link JobApplicationService to JobApplication--><g id="link_JobApplicationService_JobApplication"><path codeLine="64" d="M763.5,517.09 C763.5,561.08 763.5,626.21 763.5,667.49 " fill="none" id="JobApplicationService-to-JobApplication" style="stroke:#181818;stroke-width:1.0;"/><polygon fill="#181818" points="763.5,673.49,767.5,664.49,763.5,668.49,759.5,664.49,763.5,673.49" style="stroke:#181818;stroke-width:1.0;"/><text fill="#000000" font-family="sans-serif" font-size="13" lengthAdjust="spacing" textLength="81" x="764.5" y="621.0283">jobApplication</text></g><!--link RankService to RankRepository--><g id="link_RankService_RankRepository"><path codeLine="65" d="M2032.89,576.3 C2011.31,611.11 1991.6396,642.8393 1975.8496,668.3293 " fill="none" id="RankService-to-RankRepository" style="stroke:#181818;stroke-width:1.0;"/><polygon fill="#181818" points="1972.69,673.43,1980.8299,667.8855,1975.323,669.1795,1974.029,663.6726,1972.69,673.43" style="stroke:#181818;stroke-width:1.0;"/><text fill="#000000" font-family="sans-serif" font-size="13" lengthAdjust="spacing" textLength="87" x="2011.5" y="621.0283">rankRepository</text></g><!--link RankService to Rank--><g id="link_RankService_Rank"><path codeLine="66" d="M2153.69,576.3 C2175.1,611.11 2194.6249,642.8304 2210.3149,668.3204 " fill="none" id="RankService-to-Rank" style="stroke:#181818;stroke-width:1.0;"/><polygon fill="#181818" points="2213.46,673.43,2212.1487,663.6688,2210.839,669.172,2205.3359,667.8624,2213.46,673.43" style="stroke:#181818;stroke-width:1.0;"/><text fill="#000000" font-family="sans-serif" font-size="13" lengthAdjust="spacing" textLength="25" x="2180.5" y="621.0283">rank</text></g><!--link PublishRankResultsController to PersistenceContext--><g id="link_PublishRankResultsController_PersistenceContext"><path codeLine="67" d="M1367.46,300.12 C1324.01,345.22 1269.0829,402.2091 1233.2529,439.3991 " fill="none" id="PublishRankResultsController-to-PersistenceContext" style="stroke:#181818;stroke-width:1.0;"/><polygon fill="#181818" points="1229.09,443.72,1238.215,440.0139,1232.5591,440.1192,1232.4537,434.4634,1229.09,443.72" style="stroke:#181818;stroke-width:1.0;"/><text fill="#000000" font-family="sans-serif" font-size="13" lengthAdjust="spacing" textLength="67" x="1338.5" y="345.0283">persistence</text></g><!--link PersistenceContext to RepositoryFactory--><g id="link_PersistenceContext_RepositoryFactory"><path codeLine="68" d="M1205.24,511.1 C1214.16,548.69 1227.5542,605.1322 1238.0042,649.1522 " fill="none" id="PersistenceContext-to-RepositoryFactory" style="stroke:#181818;stroke-width:1.0;"/><polygon fill="#181818" points="1239.39,654.99,1241.2031,645.3095,1238.2351,650.1252,1233.4194,647.1573,1239.39,654.99" style="stroke:#181818;stroke-width:1.0;"/><text fill="#000000" font-family="sans-serif" font-size="13" lengthAdjust="spacing" textLength="39" x="1232.5" y="621.0283">factory</text></g><!--SRC=[jLNThjCm3BxlK-Io4pilK5MJ084q19nfEpn0rdfhHfPKIJQO4EzEqhJKIN-sWyGkrYIsFpl-RAVWL6kokUmvqzMMYkzRq1TkzBSroVDQWGPXg65Ih5Q_4jB-tf0AQCcPW7IHaPrHJ1oHi9IxIlvmehsK7AXePB-JvbDCE7mlXL6ISr1vJkkQiw9rIx3V8vYtlL2_ktsI-oqSG84e83sX3Ua2is6i3IYwvv1RRMI-Gi1NKEnmM-kryF5iAggd0EtA0ZtN8EnkesG1MYEeUd2tLDdrPwQDjNIVtCbMIuBkYQGa3jCvl4fM3jCOAkv0NPaDDC-rNuMS7PWePnAMzRURpLV88oXjGtRsZa3uQGAw5DHICoCL0-tgOTljRnzfuJv3n85A08WorW260VQsoEGKK-L26QDmrDenv_Kzdu7A31Uz9da51myNRUnvwYR_v7k4bE3kKKCwOOEBeanPwQfP-dfwhjqPvRxkMtZt7xde2hXtyDGGqBiUfS4hdYRo_r2H8E_flCV5UAVx7jUJ_Tr9ujP6dHqaLCSPrMc8DbKU2nm2IWyj2gWDb2zmhZaryCNM2Jq2HeqpjIG79SyVpfHnL9VHkBSCmGcA_u9SNBIHPr0nSdV-bPwXCrkw0dXXXgCJHmcKBXrjKhp0CdCHKx8mZa4N1BNPylztFDmR2e5nKL5n13o-xKDx2MZs9nPyeDKEC7JU-KwIqSVywMar- -Xcn5JGRvCvtGPizEd9eYviZ- -ZuUxF6juUDfsPVYGRJd_K_kElv_1oU1XCJPc7mKYCaU2xTxa8xX0Ef55zhtG_MIFlTKRg_Z0PKMXy35xbZ1pywWy0]--></g></svg>