<?xml version="1.0" encoding="us-ascii" standalone="no"?><svg xmlns="http://www.w3.org/2000/svg" xmlns:xlink="http://www.w3.org/1999/xlink" contentStyleType="text/css" height="946px" preserveAspectRatio="none" style="width:1756px;height:946px;background:#FFFFFF;" version="1.1" viewBox="0 0 1756 946" width="1756px" zoomAndPan="magnify"><defs/><g><text fill="#000000" font-family="sans-serif" font-size="14" font-weight="bold" lengthAdjust="spacing" textLength="162" x="798.75" y="30.1074">Select Interview Model</text><rect fill="#FFFFFF" height="711.6934" style="stroke:#181818;stroke-width:1.0;" width="10" x="61.5" y="133.2422"/><rect fill="#FFFFFF" height="688.4023" style="stroke:#181818;stroke-width:1.0;" width="10" x="428.5" y="156.5332"/><rect fill="#FFFFFF" height="250.3281" style="stroke:#181818;stroke-width:1.0;" width="10" x="794.5" y="219.1152"/><rect fill="#FFFFFF" height="187.7461" style="stroke:#181818;stroke-width:1.0;" width="10" x="794.5" y="625.8984"/><rect fill="#FFFFFF" height="31.291" style="stroke:#181818;stroke-width:1.0;" width="10" x="976.5" y="250.4063"/><rect fill="#FFFFFF" height="31.291" style="stroke:#181818;stroke-width:1.0;" width="10" x="1119.5" y="344.2793"/><rect fill="#FFFFFF" height="31.291" style="stroke:#181818;stroke-width:1.0;" width="10" x="1119.5" y="719.7715"/><rect fill="#FFFFFF" height="31.291" style="stroke:#181818;stroke-width:1.0;" width="10" x="1498.5" y="406.8613"/><line style="stroke:#181818;stroke-width:0.5;stroke-dasharray:5.0,5.0;" x1="66" x2="66" y1="123.2422" y2="862.9355"/><line style="stroke:#181818;stroke-width:0.5;stroke-dasharray:5.0,5.0;" x1="433.5" x2="433.5" y1="123.2422" y2="862.9355"/><line style="stroke:#181818;stroke-width:0.5;stroke-dasharray:5.0,5.0;" x1="799.5" x2="799.5" y1="123.2422" y2="862.9355"/><line style="stroke:#181818;stroke-width:0.5;stroke-dasharray:5.0,5.0;" x1="981.5" x2="981.5" y1="123.2422" y2="862.9355"/><line style="stroke:#181818;stroke-width:0.5;stroke-dasharray:5.0,5.0;" x1="1124.5" x2="1124.5" y1="123.2422" y2="862.9355"/><line style="stroke:#181818;stroke-width:0.5;stroke-dasharray:5.0,5.0;" x1="1250.5" x2="1250.5" y1="123.2422" y2="862.9355"/><line style="stroke:#181818;stroke-width:0.5;stroke-dasharray:5.0,5.0;" x1="1364.5" x2="1364.5" y1="123.2422" y2="862.9355"/><line style="stroke:#181818;stroke-width:0.5;stroke-dasharray:5.0,5.0;" x1="1503.5" x2="1503.5" y1="123.2422" y2="862.9355"/><line style="stroke:#181818;stroke-width:0.5;stroke-dasharray:5.0,5.0;" x1="1671.5" x2="1671.5" y1="123.2422" y2="862.9355"/><text fill="#000000" font-family="sans-serif" font-size="14" lengthAdjust="spacing" textLength="117" x="5" y="119.7285">CustomerManager</text><ellipse cx="66.5" cy="53.1211" fill="#E2E2F0" rx="8" ry="8" style="stroke:#181818;stroke-width:0.5;"/><path d="M66.5,61.1211 L66.5,88.1211 M53.5,69.1211 L79.5,69.1211 M66.5,88.1211 L53.5,103.1211 M66.5,88.1211 L79.5,103.1211 " fill="none" style="stroke:#181818;stroke-width:0.5;"/><text fill="#000000" font-family="sans-serif" font-size="14" lengthAdjust="spacing" textLength="117" x="5" y="877.043">CustomerManager</text><ellipse cx="66.5" cy="889.0566" fill="#E2E2F0" rx="8" ry="8" style="stroke:#181818;stroke-width:0.5;"/><path d="M66.5,897.0566 L66.5,924.0566 M53.5,905.0566 L79.5,905.0566 M66.5,924.0566 L53.5,939.0566 M66.5,924.0566 L79.5,939.0566 " fill="none" style="stroke:#181818;stroke-width:0.5;"/><rect fill="#E2E2F0" height="32.6211" rx="2.5" ry="2.5" style="stroke:#181818;stroke-width:0.5;" width="158" x="354.5" y="89.6211"/><text fill="#000000" font-family="sans-serif" font-size="14" lengthAdjust="spacing" textLength="144" x="361.5" y="111.7285">SelectInterviewModelUI</text><rect fill="#E2E2F0" height="32.6211" rx="2.5" ry="2.5" style="stroke:#181818;stroke-width:0.5;" width="158" x="354.5" y="861.9355"/><text fill="#000000" font-family="sans-serif" font-size="14" lengthAdjust="spacing" textLength="144" x="361.5" y="884.043">SelectInterviewModelUI</text><rect fill="#E2E2F0" height="32.6211" rx="2.5" ry="2.5" style="stroke:#181818;stroke-width:0.5;" width="208" x="695.5" y="89.6211"/><text fill="#000000" font-family="sans-serif" font-size="14" lengthAdjust="spacing" textLength="194" x="702.5" y="111.7285">SelectInterviewModelController</text><rect fill="#E2E2F0" height="32.6211" rx="2.5" ry="2.5" style="stroke:#181818;stroke-width:0.5;" width="208" x="695.5" y="861.9355"/><text fill="#000000" font-family="sans-serif" font-size="14" lengthAdjust="spacing" textLength="194" x="702.5" y="884.043">SelectInterviewModelController</text><rect fill="#E2E2F0" height="32.6211" rx="2.5" ry="2.5" style="stroke:#181818;stroke-width:0.5;" width="136" x="913.5" y="89.6211"/><text fill="#000000" font-family="sans-serif" font-size="14" lengthAdjust="spacing" textLength="122" x="920.5" y="111.7285">PersistenceContext</text><rect fill="#E2E2F0" height="32.6211" rx="2.5" ry="2.5" style="stroke:#181818;stroke-width:0.5;" width="136" x="913.5" y="861.9355"/><text fill="#000000" font-family="sans-serif" font-size="14" lengthAdjust="spacing" textLength="122" x="920.5" y="884.043">PersistenceContext</text><rect fill="#E2E2F0" height="32.6211" rx="2.5" ry="2.5" style="stroke:#181818;stroke-width:0.5;" width="130" x="1059.5" y="89.6211"/><text fill="#000000" font-family="sans-serif" font-size="14" lengthAdjust="spacing" textLength="116" x="1066.5" y="111.7285">RepositoryFactory</text><rect fill="#E2E2F0" height="32.6211" rx="2.5" ry="2.5" style="stroke:#181818;stroke-width:0.5;" width="130" x="1059.5" y="861.9355"/><text fill="#000000" font-family="sans-serif" font-size="14" lengthAdjust="spacing" textLength="116" x="1066.5" y="884.043">RepositoryFactory</text><rect fill="#E2E2F0" height="32.6211" rx="2.5" ry="2.5" style="stroke:#181818;stroke-width:0.5;" width="102" x="1199.5" y="89.6211"/><text fill="#000000" font-family="sans-serif" font-size="14" lengthAdjust="spacing" textLength="88" x="1206.5" y="111.7285">JobReference</text><rect fill="#E2E2F0" height="32.6211" rx="2.5" ry="2.5" style="stroke:#181818;stroke-width:0.5;" width="102" x="1199.5" y="861.9355"/><text fill="#000000" font-family="sans-serif" font-size="14" lengthAdjust="spacing" textLength="88" x="1206.5" y="884.043">JobReference</text><rect fill="#E2E2F0" height="32.6211" rx="2.5" ry="2.5" style="stroke:#181818;stroke-width:0.5;" width="107" x="1311.5" y="89.6211"/><text fill="#000000" font-family="sans-serif" font-size="14" lengthAdjust="spacing" textLength="93" x="1318.5" y="111.7285">InterviewModel</text><rect fill="#E2E2F0" height="32.6211" rx="2.5" ry="2.5" style="stroke:#181818;stroke-width:0.5;" width="107" x="1311.5" y="861.9355"/><text fill="#000000" font-family="sans-serif" font-size="14" lengthAdjust="spacing" textLength="93" x="1318.5" y="884.043">InterviewModel</text><text fill="#000000" font-family="sans-serif" font-size="14" lengthAdjust="spacing" textLength="144" x="1428.5" y="119.7285">JobOpeningRepository</text><path d="M1485.5,68.6211 C1485.5,58.6211 1503.5,58.6211 1503.5,58.6211 C1503.5,58.6211 1521.5,58.6211 1521.5,68.6211 L1521.5,94.6211 C1521.5,104.6211 1503.5,104.6211 1503.5,104.6211 C1503.5,104.6211 1485.5,104.6211 1485.5,94.6211 L1485.5,68.6211 " fill="#E2E2F0" style="stroke:#181818;stroke-width:1.5;"/><path d="M1485.5,68.6211 C1485.5,78.6211 1503.5,78.6211 1503.5,78.6211 C1503.5,78.6211 1521.5,78.6211 1521.5,68.6211 " fill="none" style="stroke:#181818;stroke-width:1.5;"/><text fill="#000000" font-family="sans-serif" font-size="14" lengthAdjust="spacing" textLength="144" x="1428.5" y="877.043">JobOpeningRepository</text><path d="M1485.5,890.5566 C1485.5,880.5566 1503.5,880.5566 1503.5,880.5566 C1503.5,880.5566 1521.5,880.5566 1521.5,890.5566 L1521.5,916.5566 C1521.5,926.5566 1503.5,926.5566 1503.5,926.5566 C1503.5,926.5566 1485.5,926.5566 1485.5,916.5566 L1485.5,890.5566 " fill="#E2E2F0" style="stroke:#181818;stroke-width:1.5;"/><path d="M1485.5,890.5566 C1485.5,900.5566 1503.5,900.5566 1503.5,900.5566 C1503.5,900.5566 1521.5,900.5566 1521.5,890.5566 " fill="none" style="stroke:#181818;stroke-width:1.5;"/><text fill="#000000" font-family="sans-serif" font-size="14" lengthAdjust="spacing" textLength="161" x="1588.5" y="119.7285">InterviewModelRepository</text><path d="M1654,68.6211 C1654,58.6211 1672,58.6211 1672,58.6211 C1672,58.6211 1690,58.6211 1690,68.6211 L1690,94.6211 C1690,104.6211 1672,104.6211 1672,104.6211 C1672,104.6211 1654,104.6211 1654,94.6211 L1654,68.6211 " fill="#E2E2F0" style="stroke:#181818;stroke-width:1.5;"/><path d="M1654,68.6211 C1654,78.6211 1672,78.6211 1672,78.6211 C1672,78.6211 1690,78.6211 1690,68.6211 " fill="none" style="stroke:#181818;stroke-width:1.5;"/><text fill="#000000" font-family="sans-serif" font-size="14" lengthAdjust="spacing" textLength="161" x="1588.5" y="877.043">InterviewModelRepository</text><path d="M1654,890.5566 C1654,880.5566 1672,880.5566 1672,880.5566 C1672,880.5566 1690,880.5566 1690,890.5566 L1690,916.5566 C1690,926.5566 1672,926.5566 1672,926.5566 C1672,926.5566 1654,926.5566 1654,916.5566 L1654,890.5566 " fill="#E2E2F0" style="stroke:#181818;stroke-width:1.5;"/><path d="M1654,890.5566 C1654,900.5566 1672,900.5566 1672,900.5566 C1672,900.5566 1690,900.5566 1690,890.5566 " fill="none" style="stroke:#181818;stroke-width:1.5;"/><rect fill="#FFFFFF" height="711.6934" style="stroke:#181818;stroke-width:1.0;" width="10" x="61.5" y="133.2422"/><rect fill="#FFFFFF" height="688.4023" style="stroke:#181818;stroke-width:1.0;" width="10" x="428.5" y="156.5332"/><rect fill="#FFFFFF" height="250.3281" style="stroke:#181818;stroke-width:1.0;" width="10" x="794.5" y="219.1152"/><rect fill="#FFFFFF" height="187.7461" style="stroke:#181818;stroke-width:1.0;" width="10" x="794.5" y="625.8984"/><rect fill="#FFFFFF" height="31.291" style="stroke:#181818;stroke-width:1.0;" width="10" x="976.5" y="250.4063"/><rect fill="#FFFFFF" height="31.291" style="stroke:#181818;stroke-width:1.0;" width="10" x="1119.5" y="344.2793"/><rect fill="#FFFFFF" height="31.291" style="stroke:#181818;stroke-width:1.0;" width="10" x="1119.5" y="719.7715"/><rect fill="#FFFFFF" height="31.291" style="stroke:#181818;stroke-width:1.0;" width="10" x="1498.5" y="406.8613"/><polygon fill="#181818" points="416.5,152.5332,426.5,156.5332,416.5,160.5332,420.5,156.5332" style="stroke:#181818;stroke-width:1.0;"/><line style="stroke:#181818;stroke-width:1.0;" x1="71.5" x2="422.5" y1="156.5332" y2="156.5332"/><text fill="#000000" font-family="sans-serif" font-size="13" lengthAdjust="spacing" textLength="132" x="78.5" y="151.2705">Selects interviewModel</text><polygon fill="#181818" points="787.5,183.8242,797.5,187.8242,787.5,191.8242,791.5,187.8242" style="stroke:#181818;stroke-width:1.0;"/><line style="stroke:#181818;stroke-width:1.0;" x1="438.5" x2="793.5" y1="187.8242" y2="187.8242"/><text fill="#000000" font-family="sans-serif" font-size="13" lengthAdjust="spacing" textLength="44" x="445.5" y="182.5615">create()</text><polygon fill="#181818" points="782.5,215.1152,792.5,219.1152,782.5,223.1152,786.5,219.1152" style="stroke:#181818;stroke-width:1.0;"/><line style="stroke:#181818;stroke-width:1.0;" x1="438.5" x2="788.5" y1="219.1152" y2="219.1152"/><text fill="#000000" font-family="sans-serif" font-size="13" lengthAdjust="spacing" textLength="115" x="445.5" y="213.8525">listAllJobOpenings()</text><polygon fill="#181818" points="964.5,246.4063,974.5,250.4063,964.5,254.4063,968.5,250.4063" style="stroke:#181818;stroke-width:1.0;"/><line style="stroke:#181818;stroke-width:1.0;" x1="804.5" x2="970.5" y1="250.4063" y2="250.4063"/><text fill="#000000" font-family="sans-serif" font-size="13" lengthAdjust="spacing" textLength="44" x="811.5" y="245.1436">create()</text><polygon fill="#181818" points="1112.5,277.6973,1122.5,281.6973,1112.5,285.6973,1116.5,281.6973" style="stroke:#181818;stroke-width:1.0;"/><line style="stroke:#181818;stroke-width:1.0;" x1="981.5" x2="1118.5" y1="281.6973" y2="281.6973"/><text fill="#000000" font-family="sans-serif" font-size="13" lengthAdjust="spacing" textLength="47" x="988.5" y="276.4346">factory()</text><polygon fill="#181818" points="815.5,308.9883,805.5,312.9883,815.5,316.9883,811.5,312.9883" style="stroke:#181818;stroke-width:1.0;"/><line style="stroke:#181818;stroke-width:1.0;stroke-dasharray:2.0,2.0;" x1="809.5" x2="1123.5" y1="312.9883" y2="312.9883"/><text fill="#000000" font-family="sans-serif" font-size="13" lengthAdjust="spacing" textLength="39" x="821.5" y="307.7256">factory</text><polygon fill="#181818" points="1107.5,340.2793,1117.5,344.2793,1107.5,348.2793,1111.5,344.2793" style="stroke:#181818;stroke-width:1.0;"/><line style="stroke:#181818;stroke-width:1.0;" x1="804.5" x2="1113.5" y1="344.2793" y2="344.2793"/><text fill="#000000" font-family="sans-serif" font-size="13" lengthAdjust="spacing" textLength="80" x="811.5" y="339.0166">jobOpenings()</text><polygon fill="#181818" points="815.5,371.5703,805.5,375.5703,815.5,379.5703,811.5,375.5703" style="stroke:#181818;stroke-width:1.0;"/><line style="stroke:#181818;stroke-width:1.0;stroke-dasharray:2.0,2.0;" x1="809.5" x2="1123.5" y1="375.5703" y2="375.5703"/><text fill="#000000" font-family="sans-serif" font-size="13" lengthAdjust="spacing" textLength="130" x="821.5" y="370.3076">JobOpeningRepository</text><polygon fill="#181818" points="1486.5,402.8613,1496.5,406.8613,1486.5,410.8613,1490.5,406.8613" style="stroke:#181818;stroke-width:1.0;"/><line style="stroke:#181818;stroke-width:1.0;" x1="804.5" x2="1492.5" y1="406.8613" y2="406.8613"/><text fill="#000000" font-family="sans-serif" font-size="13" lengthAdjust="spacing" textLength="74" x="811.5" y="401.5986">findAllOpen()</text><polygon fill="#181818" points="815.5,434.1523,805.5,438.1523,815.5,442.1523,811.5,438.1523" style="stroke:#181818;stroke-width:1.0;"/><line style="stroke:#181818;stroke-width:1.0;stroke-dasharray:2.0,2.0;" x1="809.5" x2="1502.5" y1="438.1523" y2="438.1523"/><text fill="#000000" font-family="sans-serif" font-size="13" lengthAdjust="spacing" textLength="72" x="821.5" y="432.8896">jobOpenings</text><polygon fill="#181818" points="449.5,465.4434,439.5,469.4434,449.5,473.4434,445.5,469.4434" style="stroke:#181818;stroke-width:1.0;"/><line style="stroke:#181818;stroke-width:1.0;stroke-dasharray:2.0,2.0;" x1="443.5" x2="798.5" y1="469.4434" y2="469.4434"/><text fill="#000000" font-family="sans-serif" font-size="13" lengthAdjust="spacing" textLength="72" x="455.5" y="464.1807">jobOpenings</text><polygon fill="#181818" points="82.5,496.7344,72.5,500.7344,82.5,504.7344,78.5,500.7344" style="stroke:#181818;stroke-width:1.0;"/><line style="stroke:#181818;stroke-width:1.0;stroke-dasharray:2.0,2.0;" x1="76.5" x2="427.5" y1="500.7344" y2="500.7344"/><text fill="#000000" font-family="sans-serif" font-size="13" lengthAdjust="spacing" textLength="162" x="88.5" y="495.4717">asks to select a jobOpening</text><polygon fill="#181818" points="416.5,528.0254,426.5,532.0254,416.5,536.0254,420.5,532.0254" style="stroke:#181818;stroke-width:1.0;"/><line style="stroke:#181818;stroke-width:1.0;" x1="71.5" x2="422.5" y1="532.0254" y2="532.0254"/><text fill="#000000" font-family="sans-serif" font-size="13" lengthAdjust="spacing" textLength="133" x="78.5" y="526.7627">selects the jobOpening</text><polygon fill="#181818" points="82.5,559.3164,72.5,563.3164,82.5,567.3164,78.5,563.3164" style="stroke:#181818;stroke-width:1.0;"/><line style="stroke:#181818;stroke-width:1.0;" x1="76.5" x2="427.5" y1="563.3164" y2="563.3164"/><text fill="#000000" font-family="sans-serif" font-size="13" lengthAdjust="spacing" textLength="211" x="88.5" y="558.0537">asks to insert the name of the plugin</text><polygon fill="#181818" points="416.5,590.6074,426.5,594.6074,416.5,598.6074,420.5,594.6074" style="stroke:#181818;stroke-width:1.0;"/><line style="stroke:#181818;stroke-width:1.0;" x1="71.5" x2="422.5" y1="594.6074" y2="594.6074"/><text fill="#000000" font-family="sans-serif" font-size="13" lengthAdjust="spacing" textLength="171" x="78.5" y="589.3447">inserts the name of the plugin</text><polygon fill="#181818" points="782.5,621.8984,792.5,625.8984,782.5,629.8984,786.5,625.8984" style="stroke:#181818;stroke-width:1.0;"/><line style="stroke:#181818;stroke-width:1.0;" x1="438.5" x2="788.5" y1="625.8984" y2="625.8984"/><text fill="#000000" font-family="sans-serif" font-size="13" lengthAdjust="spacing" textLength="337" x="445.5" y="620.6357">selectInterviewModelToInterview(jobReference,plguinName)</text><polygon fill="#181818" points="1238.5,653.1895,1248.5,657.1895,1238.5,661.1895,1242.5,657.1895" style="stroke:#181818;stroke-width:1.0;"/><line style="stroke:#181818;stroke-width:1.0;" x1="804.5" x2="1244.5" y1="657.1895" y2="657.1895"/><text fill="#000000" font-family="sans-serif" font-size="13" lengthAdjust="spacing" textLength="44" x="811.5" y="651.9268">create()</text><polygon fill="#181818" points="1353,684.4805,1363,688.4805,1353,692.4805,1357,688.4805" style="stroke:#181818;stroke-width:1.0;"/><line style="stroke:#181818;stroke-width:1.0;" x1="804.5" x2="1359" y1="688.4805" y2="688.4805"/><text fill="#000000" font-family="sans-serif" font-size="13" lengthAdjust="spacing" textLength="191" x="811.5" y="683.2178">create(jobReference,pluginName)</text><polygon fill="#181818" points="1107.5,715.7715,1117.5,719.7715,1107.5,723.7715,1111.5,719.7715" style="stroke:#181818;stroke-width:1.0;"/><line style="stroke:#181818;stroke-width:1.0;" x1="804.5" x2="1113.5" y1="719.7715" y2="719.7715"/><text fill="#000000" font-family="sans-serif" font-size="13" lengthAdjust="spacing" textLength="99" x="811.5" y="714.5088">interviewModels()</text><polygon fill="#181818" points="815.5,747.0625,805.5,751.0625,815.5,755.0625,811.5,751.0625" style="stroke:#181818;stroke-width:1.0;"/><line style="stroke:#181818;stroke-width:1.0;stroke-dasharray:2.0,2.0;" x1="809.5" x2="1123.5" y1="751.0625" y2="751.0625"/><text fill="#000000" font-family="sans-serif" font-size="13" lengthAdjust="spacing" textLength="146" x="821.5" y="745.7998">interviewModelRepository</text><polygon fill="#181818" points="1660,778.3535,1670,782.3535,1660,786.3535,1664,782.3535" style="stroke:#181818;stroke-width:1.0;"/><line style="stroke:#181818;stroke-width:1.0;" x1="804.5" x2="1666" y1="782.3535" y2="782.3535"/><text fill="#000000" font-family="sans-serif" font-size="13" lengthAdjust="spacing" textLength="118" x="811.5" y="777.0908">save(interviewModel)</text><polygon fill="#181818" points="449.5,809.6445,439.5,813.6445,449.5,817.6445,445.5,813.6445" style="stroke:#181818;stroke-width:1.0;"/><line style="stroke:#181818;stroke-width:1.0;stroke-dasharray:2.0,2.0;" x1="443.5" x2="798.5" y1="813.6445" y2="813.6445"/><text fill="#000000" font-family="sans-serif" font-size="13" lengthAdjust="spacing" textLength="84" x="455.5" y="808.3818">interviewModel</text><polygon fill="#181818" points="77.5,840.9355,67.5,844.9355,77.5,848.9355,73.5,844.9355" style="stroke:#181818;stroke-width:1.0;"/><line style="stroke:#181818;stroke-width:1.0;stroke-dasharray:2.0,2.0;" x1="71.5" x2="432.5" y1="844.9355" y2="844.9355"/><text fill="#000000" font-family="sans-serif" font-size="13" lengthAdjust="spacing" textLength="333" x="83.5" y="839.6729">displays a message saying plugin registered successfully</text><!--SRC=[ZLR1ZjiW4BtxAz2UKgdx0pbKMcrLAPMshRRD1x3sn6LBm69mMlzz1sp7GC2EBy4mxyqCCsySAwm4zXCar9OTb0Lp4V2NlUW6P5Nnsch3ddkq-WpcXIlUWc4SsPCxgAgE6ojgqN5bsSD8SkNm5CV3WpC_7hPDdxMoHai9naEMrnZw0mmAjA1gS2RmpthpO3ksVuLEew1eXoy-cy6RJ-lOzAj-UuKJ64VYhSADp_hCXOe1SG8U4czDe8PR_iOHl8ll7IYXsYMksTNDGO2BQHDiwT3NJrouXRbU_eSzVgA2xAUY8nCHl6BqN75KEBznF3ZKKfCzgmsGmUv3_fpjcQHoF4cv98QpSUGXgFFrq3q15p47vMMfxnlAi1SYYv25IASc8CBJk4eP6zZcd4aUq_mdpcejhIM2z_mrHNdDJNkV_sn7bTBBKiUnvlXSca8rL6PtL0nyEvGi-KrAmIKLCzds5QRbfN0dSwbJNUyJpwYjFGdo3pAh6OupbGVSCIuG8y5mKgFz3KN4gBBKaL08ndgWucTW-kJNdUnRcZqhBaSWteNC21mpG_oNlhxlteFf-R6JRI_KD_9IQfBIzMOxCHdBnPbm2yuDw0MUnEpk8HFpcf3ZQOgvWDPLjofgKHprASMMkBTk9X8vyWliOjyRLxBqMFHnMGjphG4IZJK2Eya797MT0P7-bL280-bbwbrce7NJsa33iAzhiZdrKWvLoJTzvqf7tkT_]--></g></svg>