<?xml version="1.0" encoding="us-ascii" standalone="no"?><svg xmlns="http://www.w3.org/2000/svg" xmlns:xlink="http://www.w3.org/1999/xlink" contentStyleType="text/css" height="1354px" preserveAspectRatio="none" style="width:2084px;height:1354px;background:#FFFFFF;" version="1.1" viewBox="0 0 2084 1354" width="2084px" zoomAndPan="magnify"><defs/><g><text fill="#000000" font-family="FG Virgil" font-size="14" font-weight="bold" lengthAdjust="spacing" textLength="296" x="895.25" y="30.1074">Evaluate the interviews for a Job Opening</text><rect fill="#FFFFFF" height="1099.1855" style="stroke:#181818;stroke-width:1.0;" width="10" x="61.5" y="137.8633"/><rect fill="#FFFFFF" height="1075.8945" style="stroke:#181818;stroke-width:1.0;" width="10" x="326.5" y="161.1543"/><rect fill="#FFFFFF" height="1006.3125" style="stroke:#181818;stroke-width:1.0;" width="10" x="715.5" y="192.4453"/><rect fill="#FFFFFF" height="250.3281" style="stroke:#181818;stroke-width:1.0;" width="10" x="930.5" y="317.6094"/><rect fill="#FFFFFF" height="93.873" style="stroke:#181818;stroke-width:1.0;" width="10" x="1073" y="839.5566"/><rect fill="#FFFFFF" height="99.873" style="stroke:#181818;stroke-width:1.0;" width="10" x="1212.5" y="1027.3027"/><rect fill="#FFFFFF" height="31.291" style="stroke:#181818;stroke-width:1.0;" width="10" x="1363.5" y="348.9004"/><rect fill="#FFFFFF" height="31.291" style="stroke:#181818;stroke-width:1.0;" width="10" x="1506.5" y="380.1914"/><rect fill="#FFFFFF" height="31.291" style="stroke:#181818;stroke-width:1.0;" width="10" x="1506.5" y="442.7734"/><rect fill="#FFFFFF" height="31.291" style="stroke:#181818;stroke-width:1.0;" width="10" x="1506.5" y="688.1016"/><rect fill="#FFFFFF" height="281.3281" style="stroke:#181818;stroke-width:1.0;" width="10" x="1646" y="964.7207"/><rect fill="#FFFFFF" height="31.291" style="stroke:#181818;stroke-width:1.0;" width="10" x="1803" y="505.3555"/><rect fill="#FFFFFF" height="31.291" style="stroke:#181818;stroke-width:1.0;" width="10" x="1979" y="750.6836"/><rect fill="none" height="592.5293" style="stroke:#000000;stroke-width:1.5;" width="1827.5" x="250" y="614.2285"/><rect fill="none" height="338.2012" style="stroke:#000000;stroke-width:1.5;" width="1111.5" x="614" y="796.9746"/><line style="stroke:#181818;stroke-width:0.5;stroke-dasharray:5.0,5.0;" x1="66" x2="66" y1="127.8633" y2="1255.0488"/><line style="stroke:#181818;stroke-width:0.5;stroke-dasharray:5.0,5.0;" x1="331" x2="331" y1="127.8633" y2="1255.0488"/><line style="stroke:#181818;stroke-width:0.5;stroke-dasharray:5.0,5.0;" x1="720" x2="720" y1="127.8633" y2="1255.0488"/><line style="stroke:#181818;stroke-width:0.5;stroke-dasharray:5.0,5.0;" x1="935.5" x2="935.5" y1="127.8633" y2="1255.0488"/><line style="stroke:#181818;stroke-width:0.5;stroke-dasharray:5.0,5.0;" x1="1077.5" x2="1077.5" y1="127.8633" y2="1255.0488"/><line style="stroke:#181818;stroke-width:0.5;stroke-dasharray:5.0,5.0;" x1="1217.5" x2="1217.5" y1="127.8633" y2="1255.0488"/><line style="stroke:#181818;stroke-width:0.5;stroke-dasharray:5.0,5.0;" x1="1368.5" x2="1368.5" y1="127.8633" y2="1255.0488"/><line style="stroke:#181818;stroke-width:0.5;stroke-dasharray:5.0,5.0;" x1="1511.5" x2="1511.5" y1="127.8633" y2="1255.0488"/><line style="stroke:#181818;stroke-width:0.5;stroke-dasharray:5.0,5.0;" x1="1650.5" x2="1650.5" y1="127.8633" y2="1255.0488"/><line style="stroke:#181818;stroke-width:0.5;stroke-dasharray:5.0,5.0;" x1="1807.5" x2="1807.5" y1="127.8633" y2="1255.0488"/><line style="stroke:#181818;stroke-width:0.5;stroke-dasharray:5.0,5.0;" x1="1983.5" x2="1983.5" y1="127.8633" y2="1255.0488"/><text fill="#000000" font-family="FG Virgil" font-size="14" lengthAdjust="spacing" textLength="117" x="5" y="124.3496">CostumerManager</text><ellipse cx="66.5" cy="57.7422" fill="#E2E2F0" rx="8" ry="8" style="stroke:#181818;stroke-width:0.5;"/><path d="M66.5,65.7422 L66.5,92.7422 M53.5,73.7422 L79.5,73.7422 M66.5,92.7422 L53.5,107.7422 M66.5,92.7422 L79.5,107.7422 " fill="none" style="stroke:#181818;stroke-width:0.5;"/><text fill="#000000" font-family="FG Virgil" font-size="14" lengthAdjust="spacing" textLength="117" x="5" y="1269.1563">CostumerManager</text><ellipse cx="66.5" cy="1281.1699" fill="#E2E2F0" rx="8" ry="8" style="stroke:#181818;stroke-width:0.5;"/><path d="M66.5,1289.1699 L66.5,1316.1699 M53.5,1297.1699 L79.5,1297.1699 M66.5,1316.1699 L53.5,1331.1699 M66.5,1316.1699 L79.5,1331.1699 " fill="none" style="stroke:#181818;stroke-width:0.5;"/><rect fill="#E2E2F0" height="32.6211" rx="2.5" ry="2.5" style="stroke:#181818;stroke-width:0.5;" width="143" x="260" y="94.2422"/><text fill="#000000" font-family="FG Virgil" font-size="14" lengthAdjust="spacing" textLength="129" x="267" y="116.3496">EvaluateInterviewsUI</text><rect fill="#E2E2F0" height="32.6211" rx="2.5" ry="2.5" style="stroke:#181818;stroke-width:0.5;" width="143" x="260" y="1254.0488"/><text fill="#000000" font-family="FG Virgil" font-size="14" lengthAdjust="spacing" textLength="129" x="267" y="1276.1563">EvaluateInterviewsUI</text><rect fill="#E2E2F0" height="32.6211" rx="2.5" ry="2.5" style="stroke:#181818;stroke-width:0.5;" width="193" x="624" y="94.2422"/><text fill="#000000" font-family="FG Virgil" font-size="14" lengthAdjust="spacing" textLength="179" x="631" y="116.3496">EvaluateInterviewsController</text><rect fill="#E2E2F0" height="32.6211" rx="2.5" ry="2.5" style="stroke:#181818;stroke-width:0.5;" width="193" x="624" y="1254.0488"/><text fill="#000000" font-family="FG Virgil" font-size="14" lengthAdjust="spacing" textLength="179" x="631" y="1276.1563">EvaluateInterviewsController</text><rect fill="#E2E2F0" height="51.2422" rx="2.5" ry="2.5" style="stroke:#181818;stroke-width:0.5;" width="152" x="859.5" y="75.6211"/><text fill="#000000" font-family="FG Virgil" font-size="14" font-style="italic" lengthAdjust="spacing" textLength="60" x="905.5" y="97.7285">&#171;service&#187;</text><text fill="#000000" font-family="FG Virgil" font-size="14" lengthAdjust="spacing" textLength="138" x="866.5" y="116.3496">JobApplicationService</text><rect fill="#E2E2F0" height="51.2422" rx="2.5" ry="2.5" style="stroke:#181818;stroke-width:0.5;" width="152" x="859.5" y="1254.0488"/><text fill="#000000" font-family="FG Virgil" font-size="14" font-style="italic" lengthAdjust="spacing" textLength="60" x="905.5" y="1276.1563">&#171;service&#187;</text><text fill="#000000" font-family="FG Virgil" font-size="14" lengthAdjust="spacing" textLength="138" x="866.5" y="1294.7773">JobApplicationService</text><rect fill="#E2E2F0" height="51.2422" rx="2.5" ry="2.5" style="stroke:#181818;stroke-width:0.5;" width="113" x="1021.5" y="75.6211"/><text fill="#000000" font-family="FG Virgil" font-size="14" font-style="italic" lengthAdjust="spacing" textLength="59" x="1048.5" y="97.7285">&#171;builder&#187;</text><text fill="#000000" font-family="FG Virgil" font-size="14" lengthAdjust="spacing" textLength="99" x="1028.5" y="116.3496">InterviewBuilder</text><rect fill="#E2E2F0" height="51.2422" rx="2.5" ry="2.5" style="stroke:#181818;stroke-width:0.5;" width="113" x="1021.5" y="1254.0488"/><text fill="#000000" font-family="FG Virgil" font-size="14" font-style="italic" lengthAdjust="spacing" textLength="59" x="1048.5" y="1276.1563">&#171;builder&#187;</text><text fill="#000000" font-family="FG Virgil" font-size="14" lengthAdjust="spacing" textLength="99" x="1028.5" y="1294.7773">InterviewBuilder</text><rect fill="#E2E2F0" height="51.2422" rx="2.5" ry="2.5" style="stroke:#181818;stroke-width:0.5;" width="146" x="1144.5" y="75.6211"/><text fill="#000000" font-family="FG Virgil" font-size="14" font-style="italic" lengthAdjust="spacing" textLength="54" x="1190.5" y="97.7285">&#171;plugin&#187;</text><text fill="#000000" font-family="FG Virgil" font-size="14" lengthAdjust="spacing" textLength="132" x="1151.5" y="116.3496">InterviewModelPlugin</text><rect fill="#E2E2F0" height="51.2422" rx="2.5" ry="2.5" style="stroke:#181818;stroke-width:0.5;" width="146" x="1144.5" y="1254.0488"/><text fill="#000000" font-family="FG Virgil" font-size="14" font-style="italic" lengthAdjust="spacing" textLength="54" x="1190.5" y="1276.1563">&#171;plugin&#187;</text><text fill="#000000" font-family="FG Virgil" font-size="14" lengthAdjust="spacing" textLength="132" x="1151.5" y="1294.7773">InterviewModelPlugin</text><rect fill="#E2E2F0" height="51.2422" rx="2.5" ry="2.5" style="stroke:#181818;stroke-width:0.5;" width="136" x="1300.5" y="75.6211"/><text fill="#000000" font-family="FG Virgil" font-size="14" font-style="italic" lengthAdjust="spacing" textLength="89" x="1324" y="97.7285">&#171;persistence&#187;</text><text fill="#000000" font-family="FG Virgil" font-size="14" lengthAdjust="spacing" textLength="122" x="1307.5" y="116.3496">PersistenceContext</text><rect fill="#E2E2F0" height="51.2422" rx="2.5" ry="2.5" style="stroke:#181818;stroke-width:0.5;" width="136" x="1300.5" y="1254.0488"/><text fill="#000000" font-family="FG Virgil" font-size="14" font-style="italic" lengthAdjust="spacing" textLength="89" x="1324" y="1276.1563">&#171;persistence&#187;</text><text fill="#000000" font-family="FG Virgil" font-size="14" lengthAdjust="spacing" textLength="122" x="1307.5" y="1294.7773">PersistenceContext</text><rect fill="#E2E2F0" height="51.2422" rx="2.5" ry="2.5" style="stroke:#181818;stroke-width:0.5;" width="130" x="1446.5" y="75.6211"/><text fill="#000000" font-family="FG Virgil" font-size="14" font-style="italic" lengthAdjust="spacing" textLength="59" x="1482" y="97.7285">&#171;factory&#187;</text><text fill="#000000" font-family="FG Virgil" font-size="14" lengthAdjust="spacing" textLength="116" x="1453.5" y="116.3496">RepositoryFactory</text><rect fill="#E2E2F0" height="51.2422" rx="2.5" ry="2.5" style="stroke:#181818;stroke-width:0.5;" width="130" x="1446.5" y="1254.0488"/><text fill="#000000" font-family="FG Virgil" font-size="14" font-style="italic" lengthAdjust="spacing" textLength="59" x="1482" y="1276.1563">&#171;factory&#187;</text><text fill="#000000" font-family="FG Virgil" font-size="14" lengthAdjust="spacing" textLength="116" x="1453.5" y="1294.7773">RepositoryFactory</text><text fill="#000000" font-family="FG Virgil" font-size="14" font-style="italic" lengthAdjust="spacing" textLength="79" x="1608.5" y="105.7285">&#171;repository&#187;</text><text fill="#000000" font-family="FG Virgil" font-size="14" lengthAdjust="spacing" textLength="123" x="1586.5" y="124.3496">InterviewRepository</text><path d="M1633,54.6211 C1633,44.6211 1651,44.6211 1651,44.6211 C1651,44.6211 1669,44.6211 1669,54.6211 L1669,80.6211 C1669,90.6211 1651,90.6211 1651,90.6211 C1651,90.6211 1633,90.6211 1633,80.6211 L1633,54.6211 " fill="#E2E2F0" style="stroke:#181818;stroke-width:1.5;"/><path d="M1633,54.6211 C1633,64.6211 1651,64.6211 1651,64.6211 C1651,64.6211 1669,64.6211 1669,54.6211 " fill="none" style="stroke:#181818;stroke-width:1.5;"/><text fill="#000000" font-family="FG Virgil" font-size="14" font-style="italic" lengthAdjust="spacing" textLength="79" x="1608.5" y="1269.1563">&#171;repository&#187;</text><text fill="#000000" font-family="FG Virgil" font-size="14" lengthAdjust="spacing" textLength="123" x="1586.5" y="1287.7773">InterviewRepository</text><path d="M1633,1301.291 C1633,1291.291 1651,1291.291 1651,1291.291 C1651,1291.291 1669,1291.291 1669,1301.291 L1669,1327.291 C1669,1337.291 1651,1337.291 1651,1337.291 C1651,1337.291 1633,1337.291 1633,1327.291 L1633,1301.291 " fill="#E2E2F0" style="stroke:#181818;stroke-width:1.5;"/><path d="M1633,1301.291 C1633,1311.291 1651,1311.291 1651,1311.291 C1651,1311.291 1669,1311.291 1669,1301.291 " fill="none" style="stroke:#181818;stroke-width:1.5;"/><text fill="#000000" font-family="FG Virgil" font-size="14" font-style="italic" lengthAdjust="spacing" textLength="79" x="1765.5" y="105.7285">&#171;repository&#187;</text><text fill="#000000" font-family="FG Virgil" font-size="14" lengthAdjust="spacing" textLength="159" x="1725.5" y="124.3496">JobApplicationRepository</text><path d="M1790,54.6211 C1790,44.6211 1808,44.6211 1808,44.6211 C1808,44.6211 1826,44.6211 1826,54.6211 L1826,80.6211 C1826,90.6211 1808,90.6211 1808,90.6211 C1808,90.6211 1790,90.6211 1790,80.6211 L1790,54.6211 " fill="#E2E2F0" style="stroke:#181818;stroke-width:1.5;"/><path d="M1790,54.6211 C1790,64.6211 1808,64.6211 1808,64.6211 C1808,64.6211 1826,64.6211 1826,54.6211 " fill="none" style="stroke:#181818;stroke-width:1.5;"/><text fill="#000000" font-family="FG Virgil" font-size="14" font-style="italic" lengthAdjust="spacing" textLength="79" x="1765.5" y="1269.1563">&#171;repository&#187;</text><text fill="#000000" font-family="FG Virgil" font-size="14" lengthAdjust="spacing" textLength="159" x="1725.5" y="1287.7773">JobApplicationRepository</text><path d="M1790,1301.291 C1790,1291.291 1808,1291.291 1808,1291.291 C1808,1291.291 1826,1291.291 1826,1301.291 L1826,1327.291 C1826,1337.291 1808,1337.291 1808,1337.291 C1808,1337.291 1790,1337.291 1790,1327.291 L1790,1301.291 " fill="#E2E2F0" style="stroke:#181818;stroke-width:1.5;"/><path d="M1790,1301.291 C1790,1311.291 1808,1311.291 1808,1311.291 C1808,1311.291 1826,1311.291 1826,1301.291 " fill="none" style="stroke:#181818;stroke-width:1.5;"/><text fill="#000000" font-family="FG Virgil" font-size="14" font-style="italic" lengthAdjust="spacing" textLength="79" x="1941.5" y="105.7285">&#171;repository&#187;</text><text fill="#000000" font-family="FG Virgil" font-size="14" lengthAdjust="spacing" textLength="161" x="1900.5" y="124.3496">InterviewModelRepository</text><path d="M1966,54.6211 C1966,44.6211 1984,44.6211 1984,44.6211 C1984,44.6211 2002,44.6211 2002,54.6211 L2002,80.6211 C2002,90.6211 1984,90.6211 1984,90.6211 C1984,90.6211 1966,90.6211 1966,80.6211 L1966,54.6211 " fill="#E2E2F0" style="stroke:#181818;stroke-width:1.5;"/><path d="M1966,54.6211 C1966,64.6211 1984,64.6211 1984,64.6211 C1984,64.6211 2002,64.6211 2002,54.6211 " fill="none" style="stroke:#181818;stroke-width:1.5;"/><text fill="#000000" font-family="FG Virgil" font-size="14" font-style="italic" lengthAdjust="spacing" textLength="79" x="1941.5" y="1269.1563">&#171;repository&#187;</text><text fill="#000000" font-family="FG Virgil" font-size="14" lengthAdjust="spacing" textLength="161" x="1900.5" y="1287.7773">InterviewModelRepository</text><path d="M1966,1301.291 C1966,1291.291 1984,1291.291 1984,1291.291 C1984,1291.291 2002,1291.291 2002,1301.291 L2002,1327.291 C2002,1337.291 1984,1337.291 1984,1337.291 C1984,1337.291 1966,1337.291 1966,1327.291 L1966,1301.291 " fill="#E2E2F0" style="stroke:#181818;stroke-width:1.5;"/><path d="M1966,1301.291 C1966,1311.291 1984,1311.291 1984,1311.291 C1984,1311.291 2002,1311.291 2002,1301.291 " fill="none" style="stroke:#181818;stroke-width:1.5;"/><rect fill="#FFFFFF" height="1099.1855" style="stroke:#181818;stroke-width:1.0;" width="10" x="61.5" y="137.8633"/><rect fill="#FFFFFF" height="1075.8945" style="stroke:#181818;stroke-width:1.0;" width="10" x="326.5" y="161.1543"/><rect fill="#FFFFFF" height="1006.3125" style="stroke:#181818;stroke-width:1.0;" width="10" x="715.5" y="192.4453"/><rect fill="#FFFFFF" height="250.3281" style="stroke:#181818;stroke-width:1.0;" width="10" x="930.5" y="317.6094"/><rect fill="#FFFFFF" height="93.873" style="stroke:#181818;stroke-width:1.0;" width="10" x="1073" y="839.5566"/><rect fill="#FFFFFF" height="99.873" style="stroke:#181818;stroke-width:1.0;" width="10" x="1212.5" y="1027.3027"/><rect fill="#FFFFFF" height="31.291" style="stroke:#181818;stroke-width:1.0;" width="10" x="1363.5" y="348.9004"/><rect fill="#FFFFFF" height="31.291" style="stroke:#181818;stroke-width:1.0;" width="10" x="1506.5" y="380.1914"/><rect fill="#FFFFFF" height="31.291" style="stroke:#181818;stroke-width:1.0;" width="10" x="1506.5" y="442.7734"/><rect fill="#FFFFFF" height="31.291" style="stroke:#181818;stroke-width:1.0;" width="10" x="1506.5" y="688.1016"/><rect fill="#FFFFFF" height="281.3281" style="stroke:#181818;stroke-width:1.0;" width="10" x="1646" y="964.7207"/><rect fill="#FFFFFF" height="31.291" style="stroke:#181818;stroke-width:1.0;" width="10" x="1803" y="505.3555"/><rect fill="#FFFFFF" height="31.291" style="stroke:#181818;stroke-width:1.0;" width="10" x="1979" y="750.6836"/><polygon fill="#181818" points="314.5,157.1543,324.5,161.1543,314.5,165.1543,318.5,161.1543" style="stroke:#181818;stroke-width:1.0;"/><line style="stroke:#181818;stroke-width:1.0;" x1="71.5" x2="320.5" y1="161.1543" y2="161.1543"/><text fill="#000000" font-family="FG Virgil" font-size="13" lengthAdjust="spacing" textLength="236" x="78.5" y="155.8916">Evaluate the interviews for a Job Opening</text><polygon fill="#181818" points="703.5,188.4453,713.5,192.4453,703.5,196.4453,707.5,192.4453" style="stroke:#181818;stroke-width:1.0;"/><line style="stroke:#181818;stroke-width:1.0;" x1="336.5" x2="709.5" y1="192.4453" y2="192.4453"/><text fill="#000000" font-family="FG Virgil" font-size="13" lengthAdjust="spacing" textLength="44" x="343.5" y="187.1826">create()</text><polygon fill="#181818" points="82.5,219.7363,72.5,223.7363,82.5,227.7363,78.5,223.7363" style="stroke:#181818;stroke-width:1.0;"/><line style="stroke:#181818;stroke-width:1.0;stroke-dasharray:2.0,2.0;" x1="76.5" x2="325.5" y1="223.7363" y2="223.7363"/><text fill="#000000" font-family="FG Virgil" font-size="13" lengthAdjust="spacing" textLength="124" x="88.5" y="218.4736">asks for job reference</text><polygon fill="#181818" points="314.5,251.0273,324.5,255.0273,314.5,259.0273,318.5,255.0273" style="stroke:#181818;stroke-width:1.0;"/><line style="stroke:#181818;stroke-width:1.0;" x1="71.5" x2="320.5" y1="255.0273" y2="255.0273"/><text fill="#000000" font-family="FG Virgil" font-size="13" lengthAdjust="spacing" textLength="74" x="78.5" y="249.7646">job reference</text><polygon fill="#181818" points="703.5,282.3184,713.5,286.3184,703.5,290.3184,707.5,286.3184" style="stroke:#181818;stroke-width:1.0;"/><line style="stroke:#181818;stroke-width:1.0;" x1="336.5" x2="709.5" y1="286.3184" y2="286.3184"/><text fill="#000000" font-family="FG Virgil" font-size="13" lengthAdjust="spacing" textLength="167" x="343.5" y="281.0557">allApplications(jobReference)</text><polygon fill="#181818" points="918.5,313.6094,928.5,317.6094,918.5,321.6094,922.5,317.6094" style="stroke:#181818;stroke-width:1.0;"/><line style="stroke:#181818;stroke-width:1.0;" x1="725.5" x2="924.5" y1="317.6094" y2="317.6094"/><text fill="#000000" font-family="FG Virgil" font-size="13" lengthAdjust="spacing" textLength="186" x="732.5" y="312.3467">listAllApplications(jobReference)</text><polygon fill="#181818" points="1351.5,344.9004,1361.5,348.9004,1351.5,352.9004,1355.5,348.9004" style="stroke:#181818;stroke-width:1.0;"/><line style="stroke:#181818;stroke-width:1.0;" x1="940.5" x2="1357.5" y1="348.9004" y2="348.9004"/><text fill="#000000" font-family="FG Virgil" font-size="13" lengthAdjust="spacing" textLength="44" x="947.5" y="343.6377">create()</text><polygon fill="#181818" points="1494.5,376.1914,1504.5,380.1914,1494.5,384.1914,1498.5,380.1914" style="stroke:#181818;stroke-width:1.0;"/><line style="stroke:#181818;stroke-width:1.0;" x1="1368.5" x2="1500.5" y1="380.1914" y2="380.1914"/><text fill="#000000" font-family="FG Virgil" font-size="13" lengthAdjust="spacing" textLength="47" x="1375.5" y="374.9287">factory()</text><polygon fill="#181818" points="951.5,407.4824,941.5,411.4824,951.5,415.4824,947.5,411.4824" style="stroke:#181818;stroke-width:1.0;"/><line style="stroke:#181818;stroke-width:1.0;stroke-dasharray:2.0,2.0;" x1="945.5" x2="1510.5" y1="411.4824" y2="411.4824"/><text fill="#000000" font-family="FG Virgil" font-size="13" lengthAdjust="spacing" textLength="39" x="957.5" y="406.2197">factory</text><polygon fill="#181818" points="1494.5,438.7734,1504.5,442.7734,1494.5,446.7734,1498.5,442.7734" style="stroke:#181818;stroke-width:1.0;"/><line style="stroke:#181818;stroke-width:1.0;" x1="940.5" x2="1500.5" y1="442.7734" y2="442.7734"/><text fill="#000000" font-family="FG Virgil" font-size="13" lengthAdjust="spacing" textLength="77" x="947.5" y="437.5107">applications()</text><polygon fill="#181818" points="951.5,470.0645,941.5,474.0645,951.5,478.0645,947.5,474.0645" style="stroke:#181818;stroke-width:1.0;"/><line style="stroke:#181818;stroke-width:1.0;stroke-dasharray:2.0,2.0;" x1="945.5" x2="1510.5" y1="474.0645" y2="474.0645"/><text fill="#000000" font-family="FG Virgil" font-size="13" lengthAdjust="spacing" textLength="146" x="957.5" y="468.8018">JobApplicationRepository</text><polygon fill="#181818" points="1791,501.3555,1801,505.3555,1791,509.3555,1795,505.3555" style="stroke:#181818;stroke-width:1.0;"/><line style="stroke:#181818;stroke-width:1.0;" x1="940.5" x2="1797" y1="505.3555" y2="505.3555"/><text fill="#000000" font-family="FG Virgil" font-size="13" lengthAdjust="spacing" textLength="197" x="947.5" y="500.0928">findByJobReference(jobReference)</text><polygon fill="#181818" points="951.5,532.6465,941.5,536.6465,951.5,540.6465,947.5,536.6465" style="stroke:#181818;stroke-width:1.0;"/><line style="stroke:#181818;stroke-width:1.0;stroke-dasharray:2.0,2.0;" x1="945.5" x2="1807" y1="536.6465" y2="536.6465"/><text fill="#000000" font-family="FG Virgil" font-size="13" lengthAdjust="spacing" textLength="69" x="957.5" y="531.3838">applications</text><polygon fill="#181818" points="736.5,563.9375,726.5,567.9375,736.5,571.9375,732.5,567.9375" style="stroke:#181818;stroke-width:1.0;"/><line style="stroke:#181818;stroke-width:1.0;stroke-dasharray:2.0,2.0;" x1="730.5" x2="934.5" y1="567.9375" y2="567.9375"/><text fill="#000000" font-family="FG Virgil" font-size="13" lengthAdjust="spacing" textLength="69" x="742.5" y="562.6748">applications</text><polygon fill="#181818" points="347.5,595.2285,337.5,599.2285,347.5,603.2285,343.5,599.2285" style="stroke:#181818;stroke-width:1.0;"/><line style="stroke:#181818;stroke-width:1.0;stroke-dasharray:2.0,2.0;" x1="341.5" x2="714.5" y1="599.2285" y2="599.2285"/><text fill="#000000" font-family="FG Virgil" font-size="13" lengthAdjust="spacing" textLength="69" x="353.5" y="593.9658">applications</text><path d="M250,614.2285 L323,614.2285 L323,623.5195 L313,633.5195 L250,633.5195 L250,614.2285 " fill="#EEEEEE" style="stroke:#000000;stroke-width:1.5;"/><rect fill="none" height="592.5293" style="stroke:#000000;stroke-width:1.5;" width="1827.5" x="250" y="614.2285"/><text fill="#000000" font-family="FG Virgil" font-size="13" font-weight="bold" lengthAdjust="spacing" textLength="28" x="265" y="629.2568">loop</text><text fill="#000000" font-family="FG Virgil" font-size="11" font-weight="bold" lengthAdjust="spacing" textLength="137" x="338" y="628.0986">[for each JobApplication]</text><polygon fill="#181818" points="703.5,652.8105,713.5,656.8105,703.5,660.8105,707.5,656.8105" style="stroke:#181818;stroke-width:1.0;"/><line style="stroke:#181818;stroke-width:1.0;" x1="336.5" x2="709.5" y1="656.8105" y2="656.8105"/><text fill="#000000" font-family="FG Virgil" font-size="13" lengthAdjust="spacing" textLength="355" x="343.5" y="651.5479">evaluateInterview(directoryFilePath, application, jobReference)</text><polygon fill="#181818" points="1494.5,684.1016,1504.5,688.1016,1494.5,692.1016,1498.5,688.1016" style="stroke:#181818;stroke-width:1.0;"/><line style="stroke:#181818;stroke-width:1.0;" x1="725.5" x2="1500.5" y1="688.1016" y2="688.1016"/><text fill="#000000" font-family="FG Virgil" font-size="13" lengthAdjust="spacing" textLength="99" x="732.5" y="682.8389">interviewmodels()</text><polygon fill="#181818" points="736.5,715.3926,726.5,719.3926,736.5,723.3926,732.5,719.3926" style="stroke:#181818;stroke-width:1.0;"/><line style="stroke:#181818;stroke-width:1.0;stroke-dasharray:2.0,2.0;" x1="730.5" x2="1510.5" y1="719.3926" y2="719.3926"/><text fill="#000000" font-family="FG Virgil" font-size="13" lengthAdjust="spacing" textLength="111" x="742.5" y="714.1299">interviewRepository</text><polygon fill="#181818" points="1967,746.6836,1977,750.6836,1967,754.6836,1971,750.6836" style="stroke:#181818;stroke-width:1.0;"/><line style="stroke:#181818;stroke-width:1.0;" x1="725.5" x2="1973" y1="750.6836" y2="750.6836"/><text fill="#000000" font-family="FG Virgil" font-size="13" lengthAdjust="spacing" textLength="197" x="732.5" y="745.4209">findByJobReference(jobReference)</text><polygon fill="#181818" points="736.5,777.9746,726.5,781.9746,736.5,785.9746,732.5,781.9746" style="stroke:#181818;stroke-width:1.0;"/><line style="stroke:#181818;stroke-width:1.0;stroke-dasharray:2.0,2.0;" x1="730.5" x2="1983" y1="781.9746" y2="781.9746"/><text fill="#000000" font-family="FG Virgil" font-size="13" lengthAdjust="spacing" textLength="84" x="742.5" y="776.7119">interviewModel</text><path d="M614,796.9746 L675,796.9746 L675,806.2656 L665,816.2656 L614,816.2656 L614,796.9746 " fill="#EEEEEE" style="stroke:#000000;stroke-width:1.5;"/><rect fill="none" height="338.2012" style="stroke:#000000;stroke-width:1.5;" width="1111.5" x="614" y="796.9746"/><text fill="#000000" font-family="FG Virgil" font-size="13" font-weight="bold" lengthAdjust="spacing" textLength="16" x="629" y="812.0029">alt</text><text fill="#000000" font-family="FG Virgil" font-size="11" font-weight="bold" lengthAdjust="spacing" textLength="164" x="690" y="810.8447">[if InterviewModel is present]</text><polygon fill="#181818" points="1061,835.5566,1071,839.5566,1061,843.5566,1065,839.5566" style="stroke:#181818;stroke-width:1.0;"/><line style="stroke:#181818;stroke-width:1.0;" x1="725.5" x2="1067" y1="839.5566" y2="839.5566"/><text fill="#000000" font-family="FG Virgil" font-size="13" lengthAdjust="spacing" textLength="76" x="732.5" y="834.2939">withTitle(title)</text><polygon fill="#181818" points="1061,866.8477,1071,870.8477,1061,874.8477,1065,870.8477" style="stroke:#181818;stroke-width:1.0;"/><line style="stroke:#181818;stroke-width:1.0;" x1="725.5" x2="1067" y1="870.8477" y2="870.8477"/><text fill="#000000" font-family="FG Virgil" font-size="13" lengthAdjust="spacing" textLength="188" x="732.5" y="865.585">withDate(Calendar.getInstance())</text><polygon fill="#181818" points="1061,898.1387,1071,902.1387,1061,906.1387,1065,902.1387" style="stroke:#181818;stroke-width:1.0;"/><line style="stroke:#181818;stroke-width:1.0;" x1="725.5" x2="1067" y1="902.1387" y2="902.1387"/><text fill="#000000" font-family="FG Virgil" font-size="13" lengthAdjust="spacing" textLength="217" x="732.5" y="896.876">withModel(jobReference, pluginName)</text><polygon fill="#181818" points="736.5,929.4297,726.5,933.4297,736.5,937.4297,732.5,933.4297" style="stroke:#181818;stroke-width:1.0;"/><line style="stroke:#181818;stroke-width:1.0;stroke-dasharray:2.0,2.0;" x1="730.5" x2="1077" y1="933.4297" y2="933.4297"/><text fill="#000000" font-family="FG Virgil" font-size="13" lengthAdjust="spacing" textLength="49" x="742.5" y="928.167">interview</text><polygon fill="#181818" points="1634,960.7207,1644,964.7207,1634,968.7207,1638,964.7207" style="stroke:#181818;stroke-width:1.0;"/><line style="stroke:#181818;stroke-width:1.0;" x1="725.5" x2="1640" y1="964.7207" y2="964.7207"/><text fill="#000000" font-family="FG Virgil" font-size="13" lengthAdjust="spacing" textLength="83" x="732.5" y="959.458">save(interview)</text><polygon fill="#181818" points="736.5,992.0117,726.5,996.0117,736.5,1000.0117,732.5,996.0117" style="stroke:#181818;stroke-width:1.0;"/><line style="stroke:#181818;stroke-width:1.0;stroke-dasharray:2.0,2.0;" x1="730.5" x2="1645" y1="996.0117" y2="996.0117"/><text fill="#000000" font-family="FG Virgil" font-size="13" lengthAdjust="spacing" textLength="49" x="742.5" y="990.749">interview</text><polygon fill="#181818" points="1200.5,1023.3027,1210.5,1027.3027,1200.5,1031.3027,1204.5,1027.3027" style="stroke:#181818;stroke-width:1.0;"/><line style="stroke:#181818;stroke-width:1.0;" x1="725.5" x2="1206.5" y1="1027.3027" y2="1027.3027"/><text fill="#000000" font-family="FG Virgil" font-size="13" lengthAdjust="spacing" textLength="36" x="732.5" y="1022.04">create</text><polygon fill="#181818" points="1200.5,1054.5938,1210.5,1058.5938,1200.5,1062.5938,1204.5,1058.5938" style="stroke:#181818;stroke-width:1.0;"/><line style="stroke:#181818;stroke-width:1.0;" x1="725.5" x2="1206.5" y1="1058.5938" y2="1058.5938"/><text fill="#000000" font-family="FG Virgil" font-size="13" lengthAdjust="spacing" textLength="356" x="732.5" y="1053.3311">evaluateInterviewAndShowGrades(directoryFilePath, interview)</text><path d="M1227,1071.5938 L1227,1098.5938 L1461,1098.5938 L1461,1081.5938 L1451,1071.5938 L1227,1071.5938 " fill="#FEFFDD" style="stroke:#181818;stroke-width:0.5;"/><path d="M1451,1071.5938 L1451,1081.5938 L1461,1081.5938 L1451,1071.5938 " fill="#FEFFDD" style="stroke:#181818;stroke-width:0.5;"/><text fill="#000000" font-family="FG Virgil" font-size="13" lengthAdjust="spacing" textLength="213" x="1233" y="1090.6221">this path is present in the application</text><polygon fill="#181818" points="736.5,1123.1758,726.5,1127.1758,736.5,1131.1758,732.5,1127.1758" style="stroke:#181818;stroke-width:1.0;"/><line style="stroke:#181818;stroke-width:1.0;stroke-dasharray:2.0,2.0;" x1="730.5" x2="1216.5" y1="1127.1758" y2="1127.1758"/><text fill="#000000" font-family="FG Virgil" font-size="13" lengthAdjust="spacing" textLength="107" x="742.5" y="1121.9131">evaluated interview</text><polygon fill="#181818" points="347.5,1161.4668,337.5,1165.4668,347.5,1169.4668,343.5,1165.4668" style="stroke:#181818;stroke-width:1.0;"/><line style="stroke:#181818;stroke-width:1.0;stroke-dasharray:2.0,2.0;" x1="341.5" x2="714.5" y1="1165.4668" y2="1165.4668"/><text fill="#000000" font-family="FG Virgil" font-size="13" lengthAdjust="spacing" textLength="107" x="353.5" y="1160.2041">evaluated interview</text><line style="stroke:#000000;stroke-width:1.0;stroke-dasharray:2.0,2.0;" x1="250" x2="2077.5" y1="1174.4668" y2="1174.4668"/><polygon fill="#181818" points="347.5,1194.7578,337.5,1198.7578,347.5,1202.7578,343.5,1198.7578" style="stroke:#181818;stroke-width:1.0;"/><line style="stroke:#181818;stroke-width:1.0;stroke-dasharray:2.0,2.0;" x1="341.5" x2="719.5" y1="1198.7578" y2="1198.7578"/><text fill="#000000" font-family="FG Virgil" font-size="13" lengthAdjust="spacing" textLength="181" x="353.5" y="1193.4951">Error: Interview Model not found</text><polygon fill="#181818" points="77.5,1233.0488,67.5,1237.0488,77.5,1241.0488,73.5,1237.0488" style="stroke:#181818;stroke-width:1.0;"/><line style="stroke:#181818;stroke-width:1.0;stroke-dasharray:2.0,2.0;" x1="71.5" x2="330.5" y1="1237.0488" y2="1237.0488"/><text fill="#000000" font-family="FG Virgil" font-size="13" lengthAdjust="spacing" textLength="213" x="83.5" y="1231.7861">Display the score of interview or error</text><!--SRC=[fLTRRziW57xthq1zMIAr-m6MLIdhJQdKhMhNlLFx96ObO059bd-_Ww-0JT9iUKYmETztBdp0YM660xdRKRwb1eWfWJ1XGEqOx3LPIKKeUPJlv4S5WebradpH7qnKLD5Dqez8IKMnLymO46H5kGPdhgBv1rt3gpcW8mMvSUOAMD4jD_TIcEzq0-J-WVnYQisuOwDBMiWz-cwP4veR3Ej6QhFTW7gY0janJ4qMTY9946POpYeg3BdeCblsIRqjBwpns_AKuGr6fIJde6h0yEW1iJYBgk8ifuP9yMgnELZxRfXbkXbTNtl0tj6tBUD5ay7eNPQzDwC0VD5RFia2-3FVhfcemso62ApgGO1x1gMPncNAmUO3VqoD6TvQuF0Ke5-WaffXaG_tzI8SBBWRPjcg6I6ee8Q-Kmr3GWFKozDvdMMgVt0fBlmA3uWwtTXadCwlN40NcmpfQXModTqohUhg7t9rZS9ApzXFFGtgCNbRMe91Q2d95U3aR3xOEJAixH7Gk4un_e_6nMzqe605ogwX5nfQ1PC4Fw5VoyMvKrSzGzHB1vetACSUqPtSKy9HF8kZS8lk4sg13MVtwTYGs1MdKn3NkkToR7q-bmGvEyscfDLiG5Z09EMapvRBzzSvkF8gqpgBkPfaSYenH4tTsix_EwxO9lhNGAER4al0HF7jyEZ8OK8ReroY0NhcKRT-jcxnOXb-pc6VycZtVCB5fExTFTLjM8_Ci-PILlM6HzOoYDctdDZX45vuiuBPwzcUxep3CpNbfUlxaaoS0R7ONR7svz_6dgcXNazhDjIjbmKRtoGZy2dbZeEFNWDd2jXBBaOw3YRgFfv-RNaiyxZtvZZcXh1LO4MO9fK23S8CGKOgrNOiATapK_wqNUNCsE-X8EDGMinvtBVs_B-X74H1rTSrcANGXjfrcC_FOwfpz5RlaZHTasr67R9HMtOLNDFzCYJ7Al_PT8V5IOccEvZrzCUAEIMegJuhhg5OO4rBsTszun2Q-LFeqNcp4CLhAVSFYXQWfmwVYRI5H7-AhKj3vAhhTLDiiwnI4UGe5k5r-qMdpiGM6QvZ5sDnV4NRXBiPLE9qycqt66C5-tVc2EvEAOb1zGKZpQR46k2XlqMd4w4vxM4TbjiYfkIMwOhJGrqNdKi5jefzKCJU9DPduX1YN-eyDStkNm00]--></g></svg>