<?xml version="1.0" encoding="us-ascii" standalone="no"?><svg xmlns="http://www.w3.org/2000/svg" xmlns:xlink="http://www.w3.org/1999/xlink" contentStyleType="text/css" height="230px" preserveAspectRatio="none" style="width:482px;height:230px;background:#FFFFFF;" version="1.1" viewBox="0 0 482 230" width="482px" zoomAndPan="magnify"><defs/><g><!--class User--><g id="elem_User"><rect codeLine="2" fill="#F1F1F1" height="76.543" id="User" rx="2.5" ry="2.5" style="stroke:#181818;stroke-width:0.5;" width="71" x="183.5" y="7"/><ellipse cx="198.5" cy="37.2715" fill="#ADD1B2" rx="11" ry="11" style="stroke:#181818;stroke-width:1.0;"/><path d="M197.3594,38.0684 L197.3594,40.5684 L201.6875,40.5684 L201.6875,39.6465 Q201.6875,39.0371 201.9219,38.7715 Q202.1719,38.5059 202.5469,38.5059 Q202.9219,38.5059 203.1563,38.7715 Q203.3906,39.0371 203.3906,39.6465 L203.3906,42.2715 L195.3906,42.2715 Q194.7656,42.2715 194.5,42.0371 Q194.25,41.8027 194.25,41.4121 Q194.25,41.0371 194.5156,40.8027 Q194.7813,40.5684 195.3906,40.5684 L195.6563,40.5684 L195.6563,33.9121 L195.3906,33.9121 Q194.7656,33.9121 194.5,33.6777 Q194.25,33.4434 194.25,33.0527 Q194.25,32.6777 194.5,32.4434 Q194.7656,32.209 195.3906,32.209 L203.0156,32.209 L203.0156,34.8027 Q203.0156,35.4121 202.7813,35.6777 Q202.5625,35.9277 202.1719,35.9277 Q201.7969,35.9277 201.5625,35.6777 Q201.3281,35.4121 201.3281,34.8027 L201.3281,33.9121 L197.3594,33.9121 L197.3594,36.3652 L198.8438,36.3652 Q198.8438,35.709 198.9688,35.5215 Q199.2344,35.1152 199.7031,35.1152 Q200.0781,35.1152 200.3125,35.3809 Q200.5469,35.6309 200.5469,36.2402 L200.5469,38.209 Q200.5469,38.7559 200.4219,38.9434 Q200.1563,39.334 199.7031,39.334 Q199.2344,39.334 198.9688,38.9277 Q198.8438,38.7402 198.8438,38.0684 L197.3594,38.0684 Z " fill="#000000"/><text fill="#000000" font-family="sans-serif" font-size="12" font-style="italic" lengthAdjust="spacing" textLength="35" x="214.5" y="24.9492">&#171;root&#187;</text><text fill="#000000" font-family="sans-serif" font-size="12" font-style="italic" lengthAdjust="spacing" textLength="43" x="210.5" y="40.9102">&#171;entity&#187;</text><text fill="#000000" font-family="sans-serif" font-size="14" lengthAdjust="spacing" textLength="29" x="217.5" y="59.0293">User</text><line style="stroke:#181818;stroke-width:0.5;" x1="184.5" x2="253.5" y1="67.543" y2="67.543"/><line style="stroke:#181818;stroke-width:0.5;" x1="184.5" x2="253.5" y1="75.543" y2="75.543"/></g><!--class Name--><g id="elem_Name"><rect codeLine="5" fill="#F1F1F1" height="60.582" id="Name" rx="2.5" ry="2.5" style="stroke:#181818;stroke-width:0.5;" width="74" x="7" y="163"/><ellipse cx="22" cy="185.291" fill="#ADD1B2" rx="11" ry="11" style="stroke:#181818;stroke-width:1.0;"/><path d="M24.7656,181.166 Q24.9219,180.9473 25.1094,180.8379 Q25.2969,180.7285 25.5156,180.7285 Q25.8906,180.7285 26.125,180.9941 Q26.3594,181.2441 26.3594,181.8535 L26.3594,183.3066 Q26.3594,183.916 26.125,184.1816 Q25.8906,184.4473 25.5156,184.4473 Q25.1719,184.4473 24.9688,184.2441 Q24.7656,184.0566 24.6563,183.541 Q24.6094,183.1816 24.4219,182.9941 Q24.0938,182.6191 23.4844,182.4004 Q22.875,182.1816 22.25,182.1816 Q21.4844,182.1816 20.8438,182.5098 Q20.2188,182.8379 19.7188,183.5879 Q19.2344,184.3379 19.2344,185.3691 L19.2344,186.4629 Q19.2344,187.6973 20.125,188.5254 Q21.0156,189.3379 22.6094,189.3379 Q23.5469,189.3379 24.2031,189.0879 Q24.5938,188.9316 25.0156,188.4941 Q25.2813,188.2285 25.4219,188.1504 Q25.5781,188.0723 25.7813,188.0723 Q26.1094,188.0723 26.3594,188.3379 Q26.625,188.5879 26.625,188.9316 Q26.625,189.2754 26.2813,189.6816 Q25.7813,190.2598 24.9844,190.5879 Q23.9063,191.041 22.6094,191.041 Q21.0938,191.041 19.8906,190.416 Q18.9063,189.916 18.2188,188.8535 Q17.5313,187.7754 17.5313,186.4941 L17.5313,185.3379 Q17.5313,184.0098 18.1406,182.8691 Q18.7656,181.7129 19.8594,181.1035 Q20.9531,180.4785 22.1875,180.4785 Q22.9219,180.4785 23.5625,180.6504 Q24.2188,180.8066 24.7656,181.166 Z " fill="#000000"/><text fill="#000000" font-family="sans-serif" font-size="12" font-style="italic" lengthAdjust="spacing" textLength="46" x="34" y="180.9492">&#171;Value&#187;</text><text fill="#000000" font-family="sans-serif" font-size="14" lengthAdjust="spacing" textLength="36" x="39" y="199.0684">Name</text><line style="stroke:#181818;stroke-width:0.5;" x1="8" x2="80" y1="207.582" y2="207.582"/><line style="stroke:#181818;stroke-width:0.5;" x1="8" x2="80" y1="215.582" y2="215.582"/></g><!--class Email--><g id="elem_Email"><rect codeLine="8" fill="#F1F1F1" height="60.582" id="Email" rx="2.5" ry="2.5" style="stroke:#181818;stroke-width:0.5;" width="74" x="116" y="163"/><ellipse cx="131" cy="185.291" fill="#ADD1B2" rx="11" ry="11" style="stroke:#181818;stroke-width:1.0;"/><path d="M133.7656,181.166 Q133.9219,180.9473 134.1094,180.8379 Q134.2969,180.7285 134.5156,180.7285 Q134.8906,180.7285 135.125,180.9941 Q135.3594,181.2441 135.3594,181.8535 L135.3594,183.3066 Q135.3594,183.916 135.125,184.1816 Q134.8906,184.4473 134.5156,184.4473 Q134.1719,184.4473 133.9688,184.2441 Q133.7656,184.0566 133.6563,183.541 Q133.6094,183.1816 133.4219,182.9941 Q133.0938,182.6191 132.4844,182.4004 Q131.875,182.1816 131.25,182.1816 Q130.4844,182.1816 129.8438,182.5098 Q129.2188,182.8379 128.7188,183.5879 Q128.2344,184.3379 128.2344,185.3691 L128.2344,186.4629 Q128.2344,187.6973 129.125,188.5254 Q130.0156,189.3379 131.6094,189.3379 Q132.5469,189.3379 133.2031,189.0879 Q133.5938,188.9316 134.0156,188.4941 Q134.2813,188.2285 134.4219,188.1504 Q134.5781,188.0723 134.7813,188.0723 Q135.1094,188.0723 135.3594,188.3379 Q135.625,188.5879 135.625,188.9316 Q135.625,189.2754 135.2813,189.6816 Q134.7813,190.2598 133.9844,190.5879 Q132.9063,191.041 131.6094,191.041 Q130.0938,191.041 128.8906,190.416 Q127.9063,189.916 127.2188,188.8535 Q126.5313,187.7754 126.5313,186.4941 L126.5313,185.3379 Q126.5313,184.0098 127.1406,182.8691 Q127.7656,181.7129 128.8594,181.1035 Q129.9531,180.4785 131.1875,180.4785 Q131.9219,180.4785 132.5625,180.6504 Q133.2188,180.8066 133.7656,181.166 Z " fill="#000000"/><text fill="#000000" font-family="sans-serif" font-size="12" font-style="italic" lengthAdjust="spacing" textLength="46" x="143" y="180.9492">&#171;Value&#187;</text><text fill="#000000" font-family="sans-serif" font-size="14" lengthAdjust="spacing" textLength="34" x="149" y="199.0684">Email</text><line style="stroke:#181818;stroke-width:0.5;" x1="117" x2="189" y1="207.582" y2="207.582"/><line style="stroke:#181818;stroke-width:0.5;" x1="117" x2="189" y1="215.582" y2="215.582"/></g><!--class PhoneNumber--><g id="elem_PhoneNumber"><rect codeLine="11" fill="#F1F1F1" height="60.582" id="PhoneNumber" rx="2.5" ry="2.5" style="stroke:#181818;stroke-width:0.5;" width="122" x="225" y="163"/><ellipse cx="240" cy="185.291" fill="#ADD1B2" rx="11" ry="11" style="stroke:#181818;stroke-width:1.0;"/><path d="M242.7656,181.166 Q242.9219,180.9473 243.1094,180.8379 Q243.2969,180.7285 243.5156,180.7285 Q243.8906,180.7285 244.125,180.9941 Q244.3594,181.2441 244.3594,181.8535 L244.3594,183.3066 Q244.3594,183.916 244.125,184.1816 Q243.8906,184.4473 243.5156,184.4473 Q243.1719,184.4473 242.9688,184.2441 Q242.7656,184.0566 242.6563,183.541 Q242.6094,183.1816 242.4219,182.9941 Q242.0938,182.6191 241.4844,182.4004 Q240.875,182.1816 240.25,182.1816 Q239.4844,182.1816 238.8438,182.5098 Q238.2188,182.8379 237.7188,183.5879 Q237.2344,184.3379 237.2344,185.3691 L237.2344,186.4629 Q237.2344,187.6973 238.125,188.5254 Q239.0156,189.3379 240.6094,189.3379 Q241.5469,189.3379 242.2031,189.0879 Q242.5938,188.9316 243.0156,188.4941 Q243.2813,188.2285 243.4219,188.1504 Q243.5781,188.0723 243.7813,188.0723 Q244.1094,188.0723 244.3594,188.3379 Q244.625,188.5879 244.625,188.9316 Q244.625,189.2754 244.2813,189.6816 Q243.7813,190.2598 242.9844,190.5879 Q241.9063,191.041 240.6094,191.041 Q239.0938,191.041 237.8906,190.416 Q236.9063,189.916 236.2188,188.8535 Q235.5313,187.7754 235.5313,186.4941 L235.5313,185.3379 Q235.5313,184.0098 236.1406,182.8691 Q236.7656,181.7129 237.8594,181.1035 Q238.9531,180.4785 240.1875,180.4785 Q240.9219,180.4785 241.5625,180.6504 Q242.2188,180.8066 242.7656,181.166 Z " fill="#000000"/><text fill="#000000" font-family="sans-serif" font-size="12" font-style="italic" lengthAdjust="spacing" textLength="46" x="276" y="180.9492">&#171;Value&#187;</text><text fill="#000000" font-family="sans-serif" font-size="14" lengthAdjust="spacing" textLength="90" x="254" y="199.0684">PhoneNumber</text><line style="stroke:#181818;stroke-width:0.5;" x1="226" x2="346" y1="207.582" y2="207.582"/><line style="stroke:#181818;stroke-width:0.5;" x1="226" x2="346" y1="215.582" y2="215.582"/></g><!--class Password--><g id="elem_Password"><rect codeLine="14" fill="#F1F1F1" height="60.582" id="Password" rx="2.5" ry="2.5" style="stroke:#181818;stroke-width:0.5;" width="93" x="382.5" y="163"/><ellipse cx="397.5" cy="185.291" fill="#ADD1B2" rx="11" ry="11" style="stroke:#181818;stroke-width:1.0;"/><path d="M400.2656,181.166 Q400.4219,180.9473 400.6094,180.8379 Q400.7969,180.7285 401.0156,180.7285 Q401.3906,180.7285 401.625,180.9941 Q401.8594,181.2441 401.8594,181.8535 L401.8594,183.3066 Q401.8594,183.916 401.625,184.1816 Q401.3906,184.4473 401.0156,184.4473 Q400.6719,184.4473 400.4688,184.2441 Q400.2656,184.0566 400.1563,183.541 Q400.1094,183.1816 399.9219,182.9941 Q399.5938,182.6191 398.9844,182.4004 Q398.375,182.1816 397.75,182.1816 Q396.9844,182.1816 396.3438,182.5098 Q395.7188,182.8379 395.2188,183.5879 Q394.7344,184.3379 394.7344,185.3691 L394.7344,186.4629 Q394.7344,187.6973 395.625,188.5254 Q396.5156,189.3379 398.1094,189.3379 Q399.0469,189.3379 399.7031,189.0879 Q400.0938,188.9316 400.5156,188.4941 Q400.7813,188.2285 400.9219,188.1504 Q401.0781,188.0723 401.2813,188.0723 Q401.6094,188.0723 401.8594,188.3379 Q402.125,188.5879 402.125,188.9316 Q402.125,189.2754 401.7813,189.6816 Q401.2813,190.2598 400.4844,190.5879 Q399.4063,191.041 398.1094,191.041 Q396.5938,191.041 395.3906,190.416 Q394.4063,189.916 393.7188,188.8535 Q393.0313,187.7754 393.0313,186.4941 L393.0313,185.3379 Q393.0313,184.0098 393.6406,182.8691 Q394.2656,181.7129 395.3594,181.1035 Q396.4531,180.4785 397.6875,180.4785 Q398.4219,180.4785 399.0625,180.6504 Q399.7188,180.8066 400.2656,181.166 Z " fill="#000000"/><text fill="#000000" font-family="sans-serif" font-size="12" font-style="italic" lengthAdjust="spacing" textLength="46" x="419" y="180.9492">&#171;Value&#187;</text><text fill="#000000" font-family="sans-serif" font-size="14" lengthAdjust="spacing" textLength="61" x="411.5" y="199.0684">Password</text><line style="stroke:#181818;stroke-width:0.5;" x1="383.5" x2="474.5" y1="207.582" y2="207.582"/><line style="stroke:#181818;stroke-width:0.5;" x1="383.5" x2="474.5" y1="215.582" y2="215.582"/></g><!--link User to Name--><g id="link_User_Name"><path codeLine="17" d="M183.16,76.4 C154.17,100.59 113.38,134.62 83.45,159.59 " fill="none" id="User-to-Name" style="stroke:#181818;stroke-width:1.0;"/><polygon fill="#181818" points="79.49,162.89,88.9608,160.1873,83.3264,159.6834,83.8303,154.0491,79.49,162.89" style="stroke:#181818;stroke-width:1.0;"/><text fill="#000000" font-family="sans-serif" font-size="13" lengthAdjust="spacing" textLength="21" x="138" y="129.0283">has</text><text fill="#000000" font-family="sans-serif" font-size="13" lengthAdjust="spacing" textLength="7" x="168.4149" y="77.912">1</text><text fill="#000000" font-family="sans-serif" font-size="13" lengthAdjust="spacing" textLength="7" x="79.0879" y="151.925">1</text></g><!--link User to PhoneNumber--><g id="link_User_PhoneNumber"><path codeLine="18" d="M236.25,84.1 C246.75,106.97 260.06,135.97 270.27,158.21 " fill="none" id="User-to-PhoneNumber" style="stroke:#181818;stroke-width:1.0;"/><polygon fill="#181818" points="272.39,162.85,272.27,153.0019,270.3038,158.306,264.9996,156.3398,272.39,162.85" style="stroke:#181818;stroke-width:1.0;"/><text fill="#000000" font-family="sans-serif" font-size="13" lengthAdjust="spacing" textLength="21" x="260" y="129.0283">has</text><text fill="#000000" font-family="sans-serif" font-size="13" lengthAdjust="spacing" textLength="7" x="231.4414" y="105.6945">1</text><text fill="#000000" font-family="sans-serif" font-size="13" lengthAdjust="spacing" textLength="7" x="261.8611" y="151.8767">1</text></g><!--link User to Email--><g id="link_User_Email"><path codeLine="19" d="M202,84.1 C191.66,106.97 178.56,135.97 168.5,158.21 " fill="none" id="User-to-Email" style="stroke:#181818;stroke-width:1.0;"/><polygon fill="#181818" points="166.4,162.85,173.7487,156.2928,168.4572,158.2928,166.4571,153.0013,166.4,162.85" style="stroke:#181818;stroke-width:1.0;"/><text fill="#000000" font-family="sans-serif" font-size="13" lengthAdjust="spacing" textLength="21" x="189" y="129.0283">has</text><text fill="#000000" font-family="sans-serif" font-size="13" lengthAdjust="spacing" textLength="7" x="191.7328" y="105.6945">1</text><text fill="#000000" font-family="sans-serif" font-size="13" lengthAdjust="spacing" textLength="7" x="161.4419" y="151.8767">1</text></g><!--link User to Password--><g id="link_User_Password"><path codeLine="20" d="M254.62,71.27 C289.74,95.68 343.59,133.12 382.15,159.93 " fill="none" id="User-to-Password" style="stroke:#181818;stroke-width:1.0;"/><polygon fill="#181818" points="386.3,162.82,381.1893,154.401,382.1932,159.968,376.6261,160.9719,386.3,162.82" style="stroke:#181818;stroke-width:1.0;"/><text fill="#000000" font-family="sans-serif" font-size="13" lengthAdjust="spacing" textLength="21" x="344" y="129.0283">has</text><text fill="#000000" font-family="sans-serif" font-size="13" lengthAdjust="spacing" textLength="7" x="262.6885" y="71.9374">1</text><text fill="#000000" font-family="sans-serif" font-size="13" lengthAdjust="spacing" textLength="7" x="369.7713" y="151.8406">1</text></g><!--SRC=[IyqhoIofL0WjJYrIiB4foiyliRC3CbB1mdPsrLorN5p9EOd5nGf-YRcfG9cmn9pILA0Q91dNtCJC7EnI0HdvUQb-fRb9gKLmUMHf856UNvI2q5mDbEC2kqR9K4b1LzSEJ8FjjbB8I2p6b4Eo0fSIY0DnwOUv0I8F0000]--></g></svg>