<?xml version="1.0" encoding="us-ascii" standalone="no"?><svg xmlns="http://www.w3.org/2000/svg" xmlns:xlink="http://www.w3.org/1999/xlink" contentStyleType="text/css" height="354px" preserveAspectRatio="none" style="width:499px;height:354px;background:#FFFFFF;" version="1.1" viewBox="0 0 499 354" width="499px" zoomAndPan="magnify"><defs/><g><!--class User--><g id="elem_User"><rect codeLine="1" fill="#F1F1F1" height="60.582" id="User" rx="2.5" ry="2.5" style="stroke:#181818;stroke-width:0.5;" width="71" x="200" y="147"/><ellipse cx="215" cy="169.291" fill="#ADD1B2" rx="11" ry="11" style="stroke:#181818;stroke-width:1.0;"/><path d="M213.8594,170.0879 L213.8594,172.5879 L218.1875,172.5879 L218.1875,171.666 Q218.1875,171.0566 218.4219,170.791 Q218.6719,170.5254 219.0469,170.5254 Q219.4219,170.5254 219.6563,170.791 Q219.8906,171.0566 219.8906,171.666 L219.8906,174.291 L211.8906,174.291 Q211.2656,174.291 211,174.0566 Q210.75,173.8223 210.75,173.4316 Q210.75,173.0566 211.0156,172.8223 Q211.2813,172.5879 211.8906,172.5879 L212.1563,172.5879 L212.1563,165.9316 L211.8906,165.9316 Q211.2656,165.9316 211,165.6973 Q210.75,165.4629 210.75,165.0723 Q210.75,164.6973 211,164.4629 Q211.2656,164.2285 211.8906,164.2285 L219.5156,164.2285 L219.5156,166.8223 Q219.5156,167.4316 219.2813,167.6973 Q219.0625,167.9473 218.6719,167.9473 Q218.2969,167.9473 218.0625,167.6973 Q217.8281,167.4316 217.8281,166.8223 L217.8281,165.9316 L213.8594,165.9316 L213.8594,168.3848 L215.3438,168.3848 Q215.3438,167.7285 215.4688,167.541 Q215.7344,167.1348 216.2031,167.1348 Q216.5781,167.1348 216.8125,167.4004 Q217.0469,167.6504 217.0469,168.2598 L217.0469,170.2285 Q217.0469,170.7754 216.9219,170.9629 Q216.6563,171.3535 216.2031,171.3535 Q215.7344,171.3535 215.4688,170.9473 Q215.3438,170.7598 215.3438,170.0879 L213.8594,170.0879 Z " fill="#000000"/><text fill="#000000" font-family="sans-serif" font-size="12" font-style="italic" lengthAdjust="spacing" textLength="43" x="227" y="164.9492">&#171;entity&#187;</text><text fill="#000000" font-family="sans-serif" font-size="14" lengthAdjust="spacing" textLength="29" x="234" y="183.0684">User</text><line style="stroke:#181818;stroke-width:0.5;" x1="201" x2="270" y1="191.582" y2="191.582"/><line style="stroke:#181818;stroke-width:0.5;" x1="201" x2="270" y1="199.582" y2="199.582"/></g><!--class Name--><g id="elem_Name"><rect codeLine="4" fill="#F1F1F1" height="60.582" id="Name" rx="2.5" ry="2.5" style="stroke:#181818;stroke-width:0.5;" width="74" x="23.5" y="287"/><ellipse cx="38.5" cy="309.291" fill="#ADD1B2" rx="11" ry="11" style="stroke:#181818;stroke-width:1.0;"/><path d="M41.2656,305.166 Q41.4219,304.9473 41.6094,304.8379 Q41.7969,304.7285 42.0156,304.7285 Q42.3906,304.7285 42.625,304.9941 Q42.8594,305.2441 42.8594,305.8535 L42.8594,307.3066 Q42.8594,307.916 42.625,308.1816 Q42.3906,308.4473 42.0156,308.4473 Q41.6719,308.4473 41.4688,308.2441 Q41.2656,308.0566 41.1563,307.541 Q41.1094,307.1816 40.9219,306.9941 Q40.5938,306.6191 39.9844,306.4004 Q39.375,306.1816 38.75,306.1816 Q37.9844,306.1816 37.3438,306.5098 Q36.7188,306.8379 36.2188,307.5879 Q35.7344,308.3379 35.7344,309.3691 L35.7344,310.4629 Q35.7344,311.6973 36.625,312.5254 Q37.5156,313.3379 39.1094,313.3379 Q40.0469,313.3379 40.7031,313.0879 Q41.0938,312.9316 41.5156,312.4941 Q41.7813,312.2285 41.9219,312.1504 Q42.0781,312.0723 42.2813,312.0723 Q42.6094,312.0723 42.8594,312.3379 Q43.125,312.5879 43.125,312.9316 Q43.125,313.2754 42.7813,313.6816 Q42.2813,314.2598 41.4844,314.5879 Q40.4063,315.041 39.1094,315.041 Q37.5938,315.041 36.3906,314.416 Q35.4063,313.916 34.7188,312.8535 Q34.0313,311.7754 34.0313,310.4941 L34.0313,309.3379 Q34.0313,308.0098 34.6406,306.8691 Q35.2656,305.7129 36.3594,305.1035 Q37.4531,304.4785 38.6875,304.4785 Q39.4219,304.4785 40.0625,304.6504 Q40.7188,304.8066 41.2656,305.166 Z " fill="#000000"/><text fill="#000000" font-family="sans-serif" font-size="12" font-style="italic" lengthAdjust="spacing" textLength="46" x="50.5" y="304.9492">&#171;Value&#187;</text><text fill="#000000" font-family="sans-serif" font-size="14" lengthAdjust="spacing" textLength="36" x="55.5" y="323.0684">Name</text><line style="stroke:#181818;stroke-width:0.5;" x1="24.5" x2="96.5" y1="331.582" y2="331.582"/><line style="stroke:#181818;stroke-width:0.5;" x1="24.5" x2="96.5" y1="339.582" y2="339.582"/></g><!--class Email--><g id="elem_Email"><rect codeLine="7" fill="#F1F1F1" height="60.582" id="Email" rx="2.5" ry="2.5" style="stroke:#181818;stroke-width:0.5;" width="74" x="132.5" y="287"/><ellipse cx="147.5" cy="309.291" fill="#ADD1B2" rx="11" ry="11" style="stroke:#181818;stroke-width:1.0;"/><path d="M150.2656,305.166 Q150.4219,304.9473 150.6094,304.8379 Q150.7969,304.7285 151.0156,304.7285 Q151.3906,304.7285 151.625,304.9941 Q151.8594,305.2441 151.8594,305.8535 L151.8594,307.3066 Q151.8594,307.916 151.625,308.1816 Q151.3906,308.4473 151.0156,308.4473 Q150.6719,308.4473 150.4688,308.2441 Q150.2656,308.0566 150.1563,307.541 Q150.1094,307.1816 149.9219,306.9941 Q149.5938,306.6191 148.9844,306.4004 Q148.375,306.1816 147.75,306.1816 Q146.9844,306.1816 146.3438,306.5098 Q145.7188,306.8379 145.2188,307.5879 Q144.7344,308.3379 144.7344,309.3691 L144.7344,310.4629 Q144.7344,311.6973 145.625,312.5254 Q146.5156,313.3379 148.1094,313.3379 Q149.0469,313.3379 149.7031,313.0879 Q150.0938,312.9316 150.5156,312.4941 Q150.7813,312.2285 150.9219,312.1504 Q151.0781,312.0723 151.2813,312.0723 Q151.6094,312.0723 151.8594,312.3379 Q152.125,312.5879 152.125,312.9316 Q152.125,313.2754 151.7813,313.6816 Q151.2813,314.2598 150.4844,314.5879 Q149.4063,315.041 148.1094,315.041 Q146.5938,315.041 145.3906,314.416 Q144.4063,313.916 143.7188,312.8535 Q143.0313,311.7754 143.0313,310.4941 L143.0313,309.3379 Q143.0313,308.0098 143.6406,306.8691 Q144.2656,305.7129 145.3594,305.1035 Q146.4531,304.4785 147.6875,304.4785 Q148.4219,304.4785 149.0625,304.6504 Q149.7188,304.8066 150.2656,305.166 Z " fill="#000000"/><text fill="#000000" font-family="sans-serif" font-size="12" font-style="italic" lengthAdjust="spacing" textLength="46" x="159.5" y="304.9492">&#171;Value&#187;</text><text fill="#000000" font-family="sans-serif" font-size="14" lengthAdjust="spacing" textLength="34" x="165.5" y="323.0684">Email</text><line style="stroke:#181818;stroke-width:0.5;" x1="133.5" x2="205.5" y1="331.582" y2="331.582"/><line style="stroke:#181818;stroke-width:0.5;" x1="133.5" x2="205.5" y1="339.582" y2="339.582"/></g><!--class PhoneNumber--><g id="elem_PhoneNumber"><rect codeLine="10" fill="#F1F1F1" height="60.582" id="PhoneNumber" rx="2.5" ry="2.5" style="stroke:#181818;stroke-width:0.5;" width="122" x="241.5" y="287"/><ellipse cx="256.5" cy="309.291" fill="#ADD1B2" rx="11" ry="11" style="stroke:#181818;stroke-width:1.0;"/><path d="M259.2656,305.166 Q259.4219,304.9473 259.6094,304.8379 Q259.7969,304.7285 260.0156,304.7285 Q260.3906,304.7285 260.625,304.9941 Q260.8594,305.2441 260.8594,305.8535 L260.8594,307.3066 Q260.8594,307.916 260.625,308.1816 Q260.3906,308.4473 260.0156,308.4473 Q259.6719,308.4473 259.4688,308.2441 Q259.2656,308.0566 259.1563,307.541 Q259.1094,307.1816 258.9219,306.9941 Q258.5938,306.6191 257.9844,306.4004 Q257.375,306.1816 256.75,306.1816 Q255.9844,306.1816 255.3438,306.5098 Q254.7188,306.8379 254.2188,307.5879 Q253.7344,308.3379 253.7344,309.3691 L253.7344,310.4629 Q253.7344,311.6973 254.625,312.5254 Q255.5156,313.3379 257.1094,313.3379 Q258.0469,313.3379 258.7031,313.0879 Q259.0938,312.9316 259.5156,312.4941 Q259.7813,312.2285 259.9219,312.1504 Q260.0781,312.0723 260.2813,312.0723 Q260.6094,312.0723 260.8594,312.3379 Q261.125,312.5879 261.125,312.9316 Q261.125,313.2754 260.7813,313.6816 Q260.2813,314.2598 259.4844,314.5879 Q258.4063,315.041 257.1094,315.041 Q255.5938,315.041 254.3906,314.416 Q253.4063,313.916 252.7188,312.8535 Q252.0313,311.7754 252.0313,310.4941 L252.0313,309.3379 Q252.0313,308.0098 252.6406,306.8691 Q253.2656,305.7129 254.3594,305.1035 Q255.4531,304.4785 256.6875,304.4785 Q257.4219,304.4785 258.0625,304.6504 Q258.7188,304.8066 259.2656,305.166 Z " fill="#000000"/><text fill="#000000" font-family="sans-serif" font-size="12" font-style="italic" lengthAdjust="spacing" textLength="46" x="292.5" y="304.9492">&#171;Value&#187;</text><text fill="#000000" font-family="sans-serif" font-size="14" lengthAdjust="spacing" textLength="90" x="270.5" y="323.0684">PhoneNumber</text><line style="stroke:#181818;stroke-width:0.5;" x1="242.5" x2="362.5" y1="331.582" y2="331.582"/><line style="stroke:#181818;stroke-width:0.5;" x1="242.5" x2="362.5" y1="339.582" y2="339.582"/></g><!--class Password--><g id="elem_Password"><rect codeLine="13" fill="#F1F1F1" height="60.582" id="Password" rx="2.5" ry="2.5" style="stroke:#181818;stroke-width:0.5;" width="93" x="399" y="287"/><ellipse cx="414" cy="309.291" fill="#ADD1B2" rx="11" ry="11" style="stroke:#181818;stroke-width:1.0;"/><path d="M416.7656,305.166 Q416.9219,304.9473 417.1094,304.8379 Q417.2969,304.7285 417.5156,304.7285 Q417.8906,304.7285 418.125,304.9941 Q418.3594,305.2441 418.3594,305.8535 L418.3594,307.3066 Q418.3594,307.916 418.125,308.1816 Q417.8906,308.4473 417.5156,308.4473 Q417.1719,308.4473 416.9688,308.2441 Q416.7656,308.0566 416.6563,307.541 Q416.6094,307.1816 416.4219,306.9941 Q416.0938,306.6191 415.4844,306.4004 Q414.875,306.1816 414.25,306.1816 Q413.4844,306.1816 412.8438,306.5098 Q412.2188,306.8379 411.7188,307.5879 Q411.2344,308.3379 411.2344,309.3691 L411.2344,310.4629 Q411.2344,311.6973 412.125,312.5254 Q413.0156,313.3379 414.6094,313.3379 Q415.5469,313.3379 416.2031,313.0879 Q416.5938,312.9316 417.0156,312.4941 Q417.2813,312.2285 417.4219,312.1504 Q417.5781,312.0723 417.7813,312.0723 Q418.1094,312.0723 418.3594,312.3379 Q418.625,312.5879 418.625,312.9316 Q418.625,313.2754 418.2813,313.6816 Q417.7813,314.2598 416.9844,314.5879 Q415.9063,315.041 414.6094,315.041 Q413.0938,315.041 411.8906,314.416 Q410.9063,313.916 410.2188,312.8535 Q409.5313,311.7754 409.5313,310.4941 L409.5313,309.3379 Q409.5313,308.0098 410.1406,306.8691 Q410.7656,305.7129 411.8594,305.1035 Q412.9531,304.4785 414.1875,304.4785 Q414.9219,304.4785 415.5625,304.6504 Q416.2188,304.8066 416.7656,305.166 Z " fill="#000000"/><text fill="#000000" font-family="sans-serif" font-size="12" font-style="italic" lengthAdjust="spacing" textLength="46" x="435.5" y="304.9492">&#171;Value&#187;</text><text fill="#000000" font-family="sans-serif" font-size="14" lengthAdjust="spacing" textLength="61" x="428" y="323.0684">Password</text><line style="stroke:#181818;stroke-width:0.5;" x1="400" x2="491" y1="331.582" y2="331.582"/><line style="stroke:#181818;stroke-width:0.5;" x1="400" x2="491" y1="339.582" y2="339.582"/></g><!--class CustomerManager--><g id="elem_CustomerManager"><rect codeLine="15" fill="#F1F1F1" height="60.582" id="CustomerManager" rx="2.5" ry="2.5" style="stroke:#181818;stroke-width:0.5;" width="149" x="7" y="7"/><ellipse cx="22" cy="29.291" fill="#ADD1B2" rx="11" ry="11" style="stroke:#181818;stroke-width:1.0;"/><path d="M20.8594,30.0879 L20.8594,32.5879 L25.1875,32.5879 L25.1875,31.666 Q25.1875,31.0566 25.4219,30.791 Q25.6719,30.5254 26.0469,30.5254 Q26.4219,30.5254 26.6563,30.791 Q26.8906,31.0566 26.8906,31.666 L26.8906,34.291 L18.8906,34.291 Q18.2656,34.291 18,34.0566 Q17.75,33.8223 17.75,33.4316 Q17.75,33.0566 18.0156,32.8223 Q18.2813,32.5879 18.8906,32.5879 L19.1563,32.5879 L19.1563,25.9316 L18.8906,25.9316 Q18.2656,25.9316 18,25.6973 Q17.75,25.4629 17.75,25.0723 Q17.75,24.6973 18,24.4629 Q18.2656,24.2285 18.8906,24.2285 L26.5156,24.2285 L26.5156,26.8223 Q26.5156,27.4316 26.2813,27.6973 Q26.0625,27.9473 25.6719,27.9473 Q25.2969,27.9473 25.0625,27.6973 Q24.8281,27.4316 24.8281,26.8223 L24.8281,25.9316 L20.8594,25.9316 L20.8594,28.3848 L22.3438,28.3848 Q22.3438,27.7285 22.4688,27.541 Q22.7344,27.1348 23.2031,27.1348 Q23.5781,27.1348 23.8125,27.4004 Q24.0469,27.6504 24.0469,28.2598 L24.0469,30.2285 Q24.0469,30.7754 23.9219,30.9629 Q23.6563,31.3535 23.2031,31.3535 Q22.7344,31.3535 22.4688,30.9473 Q22.3438,30.7598 22.3438,30.0879 L20.8594,30.0879 Z " fill="#000000"/><text fill="#000000" font-family="sans-serif" font-size="12" font-style="italic" lengthAdjust="spacing" textLength="43" x="73" y="24.9492">&#171;entity&#187;</text><text fill="#000000" font-family="sans-serif" font-size="14" lengthAdjust="spacing" textLength="117" x="36" y="43.0684">CustomerManager</text><line style="stroke:#181818;stroke-width:0.5;" x1="8" x2="155" y1="51.582" y2="51.582"/><line style="stroke:#181818;stroke-width:0.5;" x1="8" x2="155" y1="59.582" y2="59.582"/></g><!--class Operator--><g id="elem_Operator"><rect codeLine="17" fill="#F1F1F1" height="60.582" id="Operator" rx="2.5" ry="2.5" style="stroke:#181818;stroke-width:0.5;" width="89" x="191" y="7"/><ellipse cx="206" cy="29.291" fill="#ADD1B2" rx="11" ry="11" style="stroke:#181818;stroke-width:1.0;"/><path d="M204.8594,30.0879 L204.8594,32.5879 L209.1875,32.5879 L209.1875,31.666 Q209.1875,31.0566 209.4219,30.791 Q209.6719,30.5254 210.0469,30.5254 Q210.4219,30.5254 210.6563,30.791 Q210.8906,31.0566 210.8906,31.666 L210.8906,34.291 L202.8906,34.291 Q202.2656,34.291 202,34.0566 Q201.75,33.8223 201.75,33.4316 Q201.75,33.0566 202.0156,32.8223 Q202.2813,32.5879 202.8906,32.5879 L203.1563,32.5879 L203.1563,25.9316 L202.8906,25.9316 Q202.2656,25.9316 202,25.6973 Q201.75,25.4629 201.75,25.0723 Q201.75,24.6973 202,24.4629 Q202.2656,24.2285 202.8906,24.2285 L210.5156,24.2285 L210.5156,26.8223 Q210.5156,27.4316 210.2813,27.6973 Q210.0625,27.9473 209.6719,27.9473 Q209.2969,27.9473 209.0625,27.6973 Q208.8281,27.4316 208.8281,26.8223 L208.8281,25.9316 L204.8594,25.9316 L204.8594,28.3848 L206.3438,28.3848 Q206.3438,27.7285 206.4688,27.541 Q206.7344,27.1348 207.2031,27.1348 Q207.5781,27.1348 207.8125,27.4004 Q208.0469,27.6504 208.0469,28.2598 L208.0469,30.2285 Q208.0469,30.7754 207.9219,30.9629 Q207.6563,31.3535 207.2031,31.3535 Q206.7344,31.3535 206.4688,30.9473 Q206.3438,30.7598 206.3438,30.0879 L204.8594,30.0879 Z " fill="#000000"/><text fill="#000000" font-family="sans-serif" font-size="12" font-style="italic" lengthAdjust="spacing" textLength="43" x="227" y="24.9492">&#171;entity&#187;</text><text fill="#000000" font-family="sans-serif" font-size="14" lengthAdjust="spacing" textLength="57" x="220" y="43.0684">Operator</text><line style="stroke:#181818;stroke-width:0.5;" x1="192" x2="279" y1="51.582" y2="51.582"/><line style="stroke:#181818;stroke-width:0.5;" x1="192" x2="279" y1="59.582" y2="59.582"/></g><!--class SystemAdministrator--><g id="elem_SystemAdministrator"><rect codeLine="21" fill="#F1F1F1" height="60.582" id="SystemAdministrator" rx="2.5" ry="2.5" style="stroke:#181818;stroke-width:0.5;" width="161" x="315" y="7"/><ellipse cx="330" cy="29.291" fill="#ADD1B2" rx="11" ry="11" style="stroke:#181818;stroke-width:1.0;"/><path d="M328.8594,30.0879 L328.8594,32.5879 L333.1875,32.5879 L333.1875,31.666 Q333.1875,31.0566 333.4219,30.791 Q333.6719,30.5254 334.0469,30.5254 Q334.4219,30.5254 334.6563,30.791 Q334.8906,31.0566 334.8906,31.666 L334.8906,34.291 L326.8906,34.291 Q326.2656,34.291 326,34.0566 Q325.75,33.8223 325.75,33.4316 Q325.75,33.0566 326.0156,32.8223 Q326.2813,32.5879 326.8906,32.5879 L327.1563,32.5879 L327.1563,25.9316 L326.8906,25.9316 Q326.2656,25.9316 326,25.6973 Q325.75,25.4629 325.75,25.0723 Q325.75,24.6973 326,24.4629 Q326.2656,24.2285 326.8906,24.2285 L334.5156,24.2285 L334.5156,26.8223 Q334.5156,27.4316 334.2813,27.6973 Q334.0625,27.9473 333.6719,27.9473 Q333.2969,27.9473 333.0625,27.6973 Q332.8281,27.4316 332.8281,26.8223 L332.8281,25.9316 L328.8594,25.9316 L328.8594,28.3848 L330.3438,28.3848 Q330.3438,27.7285 330.4688,27.541 Q330.7344,27.1348 331.2031,27.1348 Q331.5781,27.1348 331.8125,27.4004 Q332.0469,27.6504 332.0469,28.2598 L332.0469,30.2285 Q332.0469,30.7754 331.9219,30.9629 Q331.6563,31.3535 331.2031,31.3535 Q330.7344,31.3535 330.4688,30.9473 Q330.3438,30.7598 330.3438,30.0879 L328.8594,30.0879 Z " fill="#000000"/><text fill="#000000" font-family="sans-serif" font-size="12" font-style="italic" lengthAdjust="spacing" textLength="43" x="387" y="24.9492">&#171;entity&#187;</text><text fill="#000000" font-family="sans-serif" font-size="14" lengthAdjust="spacing" textLength="129" x="344" y="43.0684">SystemAdministrator</text><line style="stroke:#181818;stroke-width:0.5;" x1="316" x2="475" y1="51.582" y2="51.582"/><line style="stroke:#181818;stroke-width:0.5;" x1="316" x2="475" y1="59.582" y2="59.582"/></g><!--link CustomerManager to User--><g id="link_CustomerManager_User"><path codeLine="24" d="M114.54,68.1 C139.2,90.21 172.92,120.42 198.49,143.33 " fill="none" id="CustomerManager-to-User" style="stroke:#181818;stroke-width:1.0;"/><polygon fill="#181818" points="202.52,146.94,198.4699,137.9624,198.7901,143.6102,193.1423,143.9303,202.52,146.94" style="stroke:#181818;stroke-width:1.0;"/><text fill="#000000" font-family="sans-serif" font-size="13" lengthAdjust="spacing" textLength="48" x="169.5" y="113.0283">includes</text><text fill="#000000" font-family="sans-serif" font-size="13" lengthAdjust="spacing" textLength="7" x="113.1711" y="89.6493">1</text><text fill="#000000" font-family="sans-serif" font-size="13" lengthAdjust="spacing" textLength="7" x="187.54" y="135.5015">1</text></g><!--link Operator to User--><g id="link_Operator_User"><path codeLine="25" d="M235.5,68.1 C235.5,89.75 235.5,119.18 235.5,141.91 " fill="none" id="Operator-to-User" style="stroke:#181818;stroke-width:1.0;"/><polygon fill="#181818" points="235.5,146.94,239.5,137.94,235.5,141.94,231.5,137.94,235.5,146.94" style="stroke:#181818;stroke-width:1.0;"/><text fill="#000000" font-family="sans-serif" font-size="13" lengthAdjust="spacing" textLength="48" x="236.5" y="113.0283">includes</text><text fill="#000000" font-family="sans-serif" font-size="13" lengthAdjust="spacing" textLength="7" x="227.8328" y="89.6493">1</text><text fill="#000000" font-family="sans-serif" font-size="13" lengthAdjust="spacing" textLength="7" x="227.7344" y="135.5015">1</text></g><!--link SystemAdministrator to User--><g id="link_SystemAdministrator_User"><path codeLine="26" d="M361.18,68.1 C335.45,90.3 300.23,120.67 273.63,143.61 " fill="none" id="SystemAdministrator-to-User" style="stroke:#181818;stroke-width:1.0;"/><polygon fill="#181818" points="269.77,146.94,279.195,144.0819,273.5532,143.6708,273.9643,138.0289,269.77,146.94" style="stroke:#181818;stroke-width:1.0;"/><text fill="#000000" font-family="sans-serif" font-size="13" lengthAdjust="spacing" textLength="48" x="325.5" y="113.0283">includes</text><text fill="#000000" font-family="sans-serif" font-size="13" lengthAdjust="spacing" textLength="7" x="346.9706" y="89.6493">1</text><text fill="#000000" font-family="sans-serif" font-size="13" lengthAdjust="spacing" textLength="7" x="269.5009" y="135.5015">1</text></g><!--link User to Name--><g id="link_User_Name"><path codeLine="27" d="M199.66,206.76 C171.24,229.17 131.49,260.52 101.74,283.98 " fill="none" id="User-to-Name" style="stroke:#181818;stroke-width:1.0;"/><polygon fill="#181818" points="97.8,287.09,107.3431,284.655,101.7251,283.9927,102.3874,278.3748,97.8,287.09" style="stroke:#181818;stroke-width:1.0;"/><text fill="#000000" font-family="sans-serif" font-size="13" lengthAdjust="spacing" textLength="21" x="159.5" y="253.0283">has</text><text fill="#000000" font-family="sans-serif" font-size="13" lengthAdjust="spacing" textLength="7" x="184.9149" y="207.9452">1</text><text fill="#000000" font-family="sans-serif" font-size="13" lengthAdjust="spacing" textLength="7" x="105.5775" y="276.7687">1</text></g><!--link User to PhoneNumber--><g id="link_User_PhoneNumber"><path codeLine="28" d="M249.87,208.1 C260.43,229.84 274.79,259.43 285.84,282.19 " fill="none" id="User-to-PhoneNumber" style="stroke:#181818;stroke-width:1.0;"/><polygon fill="#181818" points="288.15,286.94,287.8159,277.0968,285.9655,282.4425,280.6198,280.592,288.15,286.94" style="stroke:#181818;stroke-width:1.0;"/><text fill="#000000" font-family="sans-serif" font-size="13" lengthAdjust="spacing" textLength="21" x="273.5" y="253.0283">has</text><text fill="#000000" font-family="sans-serif" font-size="13" lengthAdjust="spacing" textLength="7" x="244.9421" y="229.6493">1</text><text fill="#000000" font-family="sans-serif" font-size="13" lengthAdjust="spacing" textLength="7" x="277.2453" y="275.5015">1</text></g><!--link User to Email--><g id="link_User_Email"><path codeLine="29" d="M221.34,208.1 C210.95,229.84 196.8,259.43 185.91,282.19 " fill="none" id="User-to-Email" style="stroke:#181818;stroke-width:1.0;"/><polygon fill="#181818" points="183.64,286.94,191.1295,280.5441,185.7958,282.4286,183.9113,277.0949,183.64,286.94" style="stroke:#181818;stroke-width:1.0;"/><text fill="#000000" font-family="sans-serif" font-size="13" lengthAdjust="spacing" textLength="21" x="207.5" y="253.0283">has</text><text fill="#000000" font-family="sans-serif" font-size="13" lengthAdjust="spacing" textLength="7" x="210.9736" y="229.6493">1</text><text fill="#000000" font-family="sans-serif" font-size="13" lengthAdjust="spacing" textLength="7" x="178.9675" y="275.5015">1</text></g><!--link User to Password--><g id="link_User_Password"><path codeLine="30" d="M271.12,201.91 C305.42,224.45 357.59,258.73 395.93,283.93 " fill="none" id="User-to-Password" style="stroke:#181818;stroke-width:1.0;"/><polygon fill="#181818" points="400.54,286.96,395.2176,278.6731,396.3622,284.213,390.8224,285.3576,400.54,286.96" style="stroke:#181818;stroke-width:1.0;"/><text fill="#000000" font-family="sans-serif" font-size="13" lengthAdjust="spacing" textLength="21" x="353.5" y="253.0283">has</text><text fill="#000000" font-family="sans-serif" font-size="13" lengthAdjust="spacing" textLength="7" x="279.1885" y="202.2929">1</text><text fill="#000000" font-family="sans-serif" font-size="13" lengthAdjust="spacing" textLength="7" x="383.9994" y="276.3721">1</text></g><!--SRC=[VP4z2uCm48Rt_8hGfPD3Lv60b8wrXTBkLpqqa8-IH8f8_tibegPMNHAEvpdkvGwLuwwXTuk69WdwYh6MV0Z91LXBCv3OaGU86XcZ0Jb9u68PNIkjCAlb4yt8GzmzRssAgRdjM3-S7clhj4Hp1WNbRwf9khpGWDD_cVUtnZgKQI6vujPv9orBWoKu79eNdDaKCW-nE-ne537_-rt5bAjSr0LQCcRPafPcRlc-3WL_XvXMiC22TQyf_R7M-eTxzFmB]--></g></svg>