<?xml version="1.0" encoding="us-ascii" standalone="no"?><svg xmlns="http://www.w3.org/2000/svg" xmlns:xlink="http://www.w3.org/1999/xlink" contentStyleType="text/css" height="685px" preserveAspectRatio="none" style="width:1853px;height:685px;background:#FFFFFF;" version="1.1" viewBox="0 0 1853 685" width="1853px" zoomAndPan="magnify"><defs/><g><!--class NotifyCandidateJobRequirementsUI--><g id="elem_NotifyCandidateJobRequirementsUI"><rect codeLine="1" fill="#F1F1F1" height="97.8242" id="NotifyCandidateJobRequirementsUI" rx="2.5" ry="2.5" style="stroke:#181818;stroke-width:0.5;" width="254" x="1269.5" y="7"/><ellipse cx="1284.5" cy="29.291" fill="#ADD1B2" rx="11" ry="11" style="stroke:#181818;stroke-width:1.0;"/><path d="M1287.2656,25.166 Q1287.4219,24.9473 1287.6094,24.8379 Q1287.7969,24.7285 1288.0156,24.7285 Q1288.3906,24.7285 1288.625,24.9941 Q1288.8594,25.2441 1288.8594,25.8535 L1288.8594,27.3066 Q1288.8594,27.916 1288.625,28.1816 Q1288.3906,28.4473 1288.0156,28.4473 Q1287.6719,28.4473 1287.4688,28.2441 Q1287.2656,28.0566 1287.1563,27.541 Q1287.1094,27.1816 1286.9219,26.9941 Q1286.5938,26.6191 1285.9844,26.4004 Q1285.375,26.1816 1284.75,26.1816 Q1283.9844,26.1816 1283.3438,26.5098 Q1282.7188,26.8379 1282.2188,27.5879 Q1281.7344,28.3379 1281.7344,29.3691 L1281.7344,30.4629 Q1281.7344,31.6973 1282.625,32.5254 Q1283.5156,33.3379 1285.1094,33.3379 Q1286.0469,33.3379 1286.7031,33.0879 Q1287.0938,32.9316 1287.5156,32.4941 Q1287.7813,32.2285 1287.9219,32.1504 Q1288.0781,32.0723 1288.2813,32.0723 Q1288.6094,32.0723 1288.8594,32.3379 Q1289.125,32.5879 1289.125,32.9316 Q1289.125,33.2754 1288.7813,33.6816 Q1288.2813,34.2598 1287.4844,34.5879 Q1286.4063,35.041 1285.1094,35.041 Q1283.5938,35.041 1282.3906,34.416 Q1281.4063,33.916 1280.7188,32.8535 Q1280.0313,31.7754 1280.0313,30.4941 L1280.0313,29.3379 Q1280.0313,28.0098 1280.6406,26.8691 Q1281.2656,25.7129 1282.3594,25.1035 Q1283.4531,24.4785 1284.6875,24.4785 Q1285.4219,24.4785 1286.0625,24.6504 Q1286.7188,24.8066 1287.2656,25.166 Z " fill="#000000"/><text fill="#000000" font-family="sans-serif" font-size="12" font-style="italic" lengthAdjust="spacing" textLength="82" x="1368.5" y="24.9492">&#171;presentation&#187;</text><text fill="#000000" font-family="sans-serif" font-size="14" lengthAdjust="spacing" textLength="222" x="1298.5" y="43.0684">NotifyCandidateJobRequirementsUI</text><line style="stroke:#181818;stroke-width:0.5;" x1="1270.5" x2="1522.5" y1="51.582" y2="51.582"/><line style="stroke:#181818;stroke-width:0.5;" x1="1270.5" x2="1522.5" y1="59.582" y2="59.582"/><ellipse cx="1280.5" cy="74.3926" fill="#84BE84" rx="3" ry="3" style="stroke:#038048;stroke-width:1.0;"/><text fill="#000000" font-family="sans-serif" font-size="14" lengthAdjust="spacing" textLength="109" x="1289.5" y="78.6895">headline(): String</text><ellipse cx="1280.5" cy="93.0137" fill="#84BE84" rx="3" ry="3" style="stroke:#038048;stroke-width:1.0;"/><text fill="#000000" font-family="sans-serif" font-size="14" lengthAdjust="spacing" textLength="119" x="1289.5" y="97.3105">doShow(): boolean</text></g><!--class NotifyCandidateJobRequirementsController--><g id="elem_NotifyCandidateJobRequirementsController"><rect codeLine="6" fill="#F1F1F1" height="97.8242" id="NotifyCandidateJobRequirementsController" rx="2.5" ry="2.5" style="stroke:#181818;stroke-width:0.5;" width="558" x="1117.5" y="184"/><ellipse cx="1256.25" cy="206.291" fill="#ADD1B2" rx="11" ry="11" style="stroke:#181818;stroke-width:1.0;"/><path d="M1259.0156,202.166 Q1259.1719,201.9473 1259.3594,201.8379 Q1259.5469,201.7285 1259.7656,201.7285 Q1260.1406,201.7285 1260.375,201.9941 Q1260.6094,202.2441 1260.6094,202.8535 L1260.6094,204.3066 Q1260.6094,204.916 1260.375,205.1816 Q1260.1406,205.4473 1259.7656,205.4473 Q1259.4219,205.4473 1259.2188,205.2441 Q1259.0156,205.0566 1258.9063,204.541 Q1258.8594,204.1816 1258.6719,203.9941 Q1258.3438,203.6191 1257.7344,203.4004 Q1257.125,203.1816 1256.5,203.1816 Q1255.7344,203.1816 1255.0938,203.5098 Q1254.4688,203.8379 1253.9688,204.5879 Q1253.4844,205.3379 1253.4844,206.3691 L1253.4844,207.4629 Q1253.4844,208.6973 1254.375,209.5254 Q1255.2656,210.3379 1256.8594,210.3379 Q1257.7969,210.3379 1258.4531,210.0879 Q1258.8438,209.9316 1259.2656,209.4941 Q1259.5313,209.2285 1259.6719,209.1504 Q1259.8281,209.0723 1260.0313,209.0723 Q1260.3594,209.0723 1260.6094,209.3379 Q1260.875,209.5879 1260.875,209.9316 Q1260.875,210.2754 1260.5313,210.6816 Q1260.0313,211.2598 1259.2344,211.5879 Q1258.1563,212.041 1256.8594,212.041 Q1255.3438,212.041 1254.1406,211.416 Q1253.1563,210.916 1252.4688,209.8535 Q1251.7813,208.7754 1251.7813,207.4941 L1251.7813,206.3379 Q1251.7813,205.0098 1252.3906,203.8691 Q1253.0156,202.7129 1254.1094,202.1035 Q1255.2031,201.4785 1256.4375,201.4785 Q1257.1719,201.4785 1257.8125,201.6504 Q1258.4688,201.8066 1259.0156,202.166 Z " fill="#000000"/><text fill="#000000" font-family="sans-serif" font-size="12" font-style="italic" lengthAdjust="spacing" textLength="74" x="1375.75" y="201.9492">&#171;application&#187;</text><text fill="#000000" font-family="sans-serif" font-size="14" lengthAdjust="spacing" textLength="272" x="1276.75" y="220.0684">NotifyCandidateJobRequirementsController</text><line style="stroke:#181818;stroke-width:0.5;" x1="1118.5" x2="1674.5" y1="228.582" y2="228.582"/><line style="stroke:#181818;stroke-width:0.5;" x1="1118.5" x2="1674.5" y1="236.582" y2="236.582"/><ellipse cx="1128.5" cy="251.3926" fill="#84BE84" rx="3" ry="3" style="stroke:#038048;stroke-width:1.0;"/><text fill="#000000" font-family="sans-serif" font-size="14" lengthAdjust="spacing" textLength="532" x="1137.5" y="255.6895">notifyCandidateRequirements(String jobReference, JobApplication application) : void</text><ellipse cx="1128.5" cy="270.0137" fill="#84BE84" rx="3" ry="3" style="stroke:#038048;stroke-width:1.0;"/><text fill="#000000" font-family="sans-serif" font-size="14" lengthAdjust="spacing" textLength="459" x="1137.5" y="274.3105">listAndSelectApplications(String jobReference) : Iterable&lt;JobApplication&gt;</text></g><!--class CandidateService--><g id="elem_CandidateService"><rect codeLine="11" fill="#F1F1F1" height="135.0664" id="CandidateService" rx="2.5" ry="2.5" style="stroke:#181818;stroke-width:0.5;" width="624" x="508.5" y="361"/><ellipse cx="760.25" cy="383.291" fill="#ADD1B2" rx="11" ry="11" style="stroke:#181818;stroke-width:1.0;"/><path d="M763.0156,379.166 Q763.1719,378.9473 763.3594,378.8379 Q763.5469,378.7285 763.7656,378.7285 Q764.1406,378.7285 764.375,378.9941 Q764.6094,379.2441 764.6094,379.8535 L764.6094,381.3066 Q764.6094,381.916 764.375,382.1816 Q764.1406,382.4473 763.7656,382.4473 Q763.4219,382.4473 763.2188,382.2441 Q763.0156,382.0566 762.9063,381.541 Q762.8594,381.1816 762.6719,380.9941 Q762.3438,380.6191 761.7344,380.4004 Q761.125,380.1816 760.5,380.1816 Q759.7344,380.1816 759.0938,380.5098 Q758.4688,380.8379 757.9688,381.5879 Q757.4844,382.3379 757.4844,383.3691 L757.4844,384.4629 Q757.4844,385.6973 758.375,386.5254 Q759.2656,387.3379 760.8594,387.3379 Q761.7969,387.3379 762.4531,387.0879 Q762.8438,386.9316 763.2656,386.4941 Q763.5313,386.2285 763.6719,386.1504 Q763.8281,386.0723 764.0313,386.0723 Q764.3594,386.0723 764.6094,386.3379 Q764.875,386.5879 764.875,386.9316 Q764.875,387.2754 764.5313,387.6816 Q764.0313,388.2598 763.2344,388.5879 Q762.1563,389.041 760.8594,389.041 Q759.3438,389.041 758.1406,388.416 Q757.1563,387.916 756.4688,386.8535 Q755.7813,385.7754 755.7813,384.4941 L755.7813,383.3379 Q755.7813,382.0098 756.3906,380.8691 Q757.0156,379.7129 758.1094,379.1035 Q759.2031,378.4785 760.4375,378.4785 Q761.1719,378.4785 761.8125,378.6504 Q762.4688,378.8066 763.0156,379.166 Z " fill="#000000"/><text fill="#000000" font-family="sans-serif" font-size="12" font-style="italic" lengthAdjust="spacing" textLength="53" x="810.25" y="378.9492">&#171;service&#187;</text><text fill="#000000" font-family="sans-serif" font-size="14" lengthAdjust="spacing" textLength="112" x="780.75" y="397.0684">CandidateService</text><line style="stroke:#181818;stroke-width:0.5;" x1="509.5" x2="1131.5" y1="405.582" y2="405.582"/><line style="stroke:#181818;stroke-width:0.5;" x1="509.5" x2="1131.5" y1="413.582" y2="413.582"/><ellipse cx="519.5" cy="428.3926" fill="#84BE84" rx="3" ry="3" style="stroke:#038048;stroke-width:1.0;"/><text fill="#000000" font-family="sans-serif" font-size="14" lengthAdjust="spacing" textLength="429" x="528.5" y="432.6895">findByJobReference(jobReference:String) : Iterable&lt;JobApplication&gt;</text><rect fill="#F24D5C" height="6" style="stroke:#C82930;stroke-width:1.0;" width="6" x="516.5" y="444.0137"/><text fill="#000000" font-family="sans-serif" font-size="14" lengthAdjust="spacing" textLength="568" x="528.5" y="451.3105">emailSuccessTemplate (JobApplication application, SystemUser customerManager) :String</text><rect fill="#F24D5C" height="6" style="stroke:#C82930;stroke-width:1.0;" width="6" x="516.5" y="462.6348"/><text fill="#000000" font-family="sans-serif" font-size="14" lengthAdjust="spacing" textLength="598" x="528.5" y="469.9316">emailUnsuccessfulTemplate (JobApplication application, SystemUser customerManager) :String</text><ellipse cx="519.5" cy="484.2559" fill="#84BE84" rx="3" ry="3" style="stroke:#038048;stroke-width:1.0;"/><text fill="#000000" font-family="sans-serif" font-size="14" lengthAdjust="spacing" textLength="595" x="528.5" y="488.5527">notifyCandidateRequirements(JobApplication application, SystemUser costumerManager) :void</text></g><!--class PersistenceContext--><g id="elem_PersistenceContext"><rect codeLine="18" fill="#F1F1F1" height="66.6211" id="PersistenceContext" rx="2.5" ry="2.5" style="stroke:#181818;stroke-width:0.5;" width="234" x="1279.5" y="395"/><ellipse cx="1331.25" cy="411" fill="#ADD1B2" rx="11" ry="11" style="stroke:#181818;stroke-width:1.0;"/><path d="M1334.0156,406.875 Q1334.1719,406.6563 1334.3594,406.5469 Q1334.5469,406.4375 1334.7656,406.4375 Q1335.1406,406.4375 1335.375,406.7031 Q1335.6094,406.9531 1335.6094,407.5625 L1335.6094,409.0156 Q1335.6094,409.625 1335.375,409.8906 Q1335.1406,410.1563 1334.7656,410.1563 Q1334.4219,410.1563 1334.2188,409.9531 Q1334.0156,409.7656 1333.9063,409.25 Q1333.8594,408.8906 1333.6719,408.7031 Q1333.3438,408.3281 1332.7344,408.1094 Q1332.125,407.8906 1331.5,407.8906 Q1330.7344,407.8906 1330.0938,408.2188 Q1329.4688,408.5469 1328.9688,409.2969 Q1328.4844,410.0469 1328.4844,411.0781 L1328.4844,412.1719 Q1328.4844,413.4063 1329.375,414.2344 Q1330.2656,415.0469 1331.8594,415.0469 Q1332.7969,415.0469 1333.4531,414.7969 Q1333.8438,414.6406 1334.2656,414.2031 Q1334.5313,413.9375 1334.6719,413.8594 Q1334.8281,413.7813 1335.0313,413.7813 Q1335.3594,413.7813 1335.6094,414.0469 Q1335.875,414.2969 1335.875,414.6406 Q1335.875,414.9844 1335.5313,415.3906 Q1335.0313,415.9688 1334.2344,416.2969 Q1333.1563,416.75 1331.8594,416.75 Q1330.3438,416.75 1329.1406,416.125 Q1328.1563,415.625 1327.4688,414.5625 Q1326.7813,413.4844 1326.7813,412.2031 L1326.7813,411.0469 Q1326.7813,409.7188 1327.3906,408.5781 Q1328.0156,407.4219 1329.1094,406.8125 Q1330.2031,406.1875 1331.4375,406.1875 Q1332.1719,406.1875 1332.8125,406.3594 Q1333.4688,406.5156 1334.0156,406.875 Z " fill="#000000"/><text fill="#000000" font-family="sans-serif" font-size="14" lengthAdjust="spacing" textLength="122" x="1351.75" y="416.7969">PersistenceContext</text><line style="stroke:#181818;stroke-width:0.5;" x1="1280.5" x2="1512.5" y1="427" y2="427"/><line style="stroke:#181818;stroke-width:0.5;" x1="1280.5" x2="1512.5" y1="435" y2="435"/><ellipse cx="1290.5" cy="449.8105" fill="#84BE84" rx="3" ry="3" style="stroke:#038048;stroke-width:1.0;"/><text fill="#000000" font-family="sans-serif" font-size="14" lengthAdjust="spacing" textLength="208" x="1299.5" y="454.1074">repositories(): RepositoryFactory</text></g><!--class RepositoryFactory--><g id="elem_RepositoryFactory"><rect codeLine="22" fill="#F1F1F1" height="103.8633" id="RepositoryFactory" rx="2.5" ry="2.5" style="stroke:#181818;stroke-width:0.5;" width="382" x="1261.5" y="575"/><ellipse cx="1390.25" cy="591" fill="#ADD1B2" rx="11" ry="11" style="stroke:#181818;stroke-width:1.0;"/><path d="M1393.0156,586.875 Q1393.1719,586.6563 1393.3594,586.5469 Q1393.5469,586.4375 1393.7656,586.4375 Q1394.1406,586.4375 1394.375,586.7031 Q1394.6094,586.9531 1394.6094,587.5625 L1394.6094,589.0156 Q1394.6094,589.625 1394.375,589.8906 Q1394.1406,590.1563 1393.7656,590.1563 Q1393.4219,590.1563 1393.2188,589.9531 Q1393.0156,589.7656 1392.9063,589.25 Q1392.8594,588.8906 1392.6719,588.7031 Q1392.3438,588.3281 1391.7344,588.1094 Q1391.125,587.8906 1390.5,587.8906 Q1389.7344,587.8906 1389.0938,588.2188 Q1388.4688,588.5469 1387.9688,589.2969 Q1387.4844,590.0469 1387.4844,591.0781 L1387.4844,592.1719 Q1387.4844,593.4063 1388.375,594.2344 Q1389.2656,595.0469 1390.8594,595.0469 Q1391.7969,595.0469 1392.4531,594.7969 Q1392.8438,594.6406 1393.2656,594.2031 Q1393.5313,593.9375 1393.6719,593.8594 Q1393.8281,593.7813 1394.0313,593.7813 Q1394.3594,593.7813 1394.6094,594.0469 Q1394.875,594.2969 1394.875,594.6406 Q1394.875,594.9844 1394.5313,595.3906 Q1394.0313,595.9688 1393.2344,596.2969 Q1392.1563,596.75 1390.8594,596.75 Q1389.3438,596.75 1388.1406,596.125 Q1387.1563,595.625 1386.4688,594.5625 Q1385.7813,593.4844 1385.7813,592.2031 L1385.7813,591.0469 Q1385.7813,589.7188 1386.3906,588.5781 Q1387.0156,587.4219 1388.1094,586.8125 Q1389.2031,586.1875 1390.4375,586.1875 Q1391.1719,586.1875 1391.8125,586.3594 Q1392.4688,586.5156 1393.0156,586.875 Z " fill="#000000"/><text fill="#000000" font-family="sans-serif" font-size="14" lengthAdjust="spacing" textLength="116" x="1410.75" y="596.7969">RepositoryFactory</text><line style="stroke:#181818;stroke-width:0.5;" x1="1262.5" x2="1642.5" y1="607" y2="607"/><line style="stroke:#181818;stroke-width:0.5;" x1="1262.5" x2="1642.5" y1="615" y2="615"/><ellipse cx="1272.5" cy="629.8105" fill="#84BE84" rx="3" ry="3" style="stroke:#038048;stroke-width:1.0;"/><text fill="#000000" font-family="sans-serif" font-size="14" lengthAdjust="spacing" textLength="252" x="1281.5" y="634.1074">applications(): JobApplicationRepository</text><ellipse cx="1272.5" cy="648.4316" fill="#84BE84" rx="3" ry="3" style="stroke:#038048;stroke-width:1.0;"/><text fill="#000000" font-family="sans-serif" font-size="14" lengthAdjust="spacing" textLength="356" x="1281.5" y="652.7285">jobOpeningProcesses() : JobOpeningProcessRepository</text><ellipse cx="1272.5" cy="667.0527" fill="#84BE84" rx="3" ry="3" style="stroke:#038048;stroke-width:1.0;"/><text fill="#000000" font-family="sans-serif" font-size="14" lengthAdjust="spacing" textLength="158" x="1281.5" y="671.3496">ranks() : RankRepository</text></g><!--class JobApplicationRepository--><g id="elem_JobApplicationRepository"><rect codeLine="28" fill="#F1F1F1" height="66.6211" id="JobApplicationRepository" rx="2.5" ry="2.5" style="stroke:#181818;stroke-width:0.5;" width="459" x="7" y="593.5"/><ellipse cx="152.75" cy="609.5" fill="#ADD1B2" rx="11" ry="11" style="stroke:#181818;stroke-width:1.0;"/><path d="M155.5156,605.375 Q155.6719,605.1563 155.8594,605.0469 Q156.0469,604.9375 156.2656,604.9375 Q156.6406,604.9375 156.875,605.2031 Q157.1094,605.4531 157.1094,606.0625 L157.1094,607.5156 Q157.1094,608.125 156.875,608.3906 Q156.6406,608.6563 156.2656,608.6563 Q155.9219,608.6563 155.7188,608.4531 Q155.5156,608.2656 155.4063,607.75 Q155.3594,607.3906 155.1719,607.2031 Q154.8438,606.8281 154.2344,606.6094 Q153.625,606.3906 153,606.3906 Q152.2344,606.3906 151.5938,606.7188 Q150.9688,607.0469 150.4688,607.7969 Q149.9844,608.5469 149.9844,609.5781 L149.9844,610.6719 Q149.9844,611.9063 150.875,612.7344 Q151.7656,613.5469 153.3594,613.5469 Q154.2969,613.5469 154.9531,613.2969 Q155.3438,613.1406 155.7656,612.7031 Q156.0313,612.4375 156.1719,612.3594 Q156.3281,612.2813 156.5313,612.2813 Q156.8594,612.2813 157.1094,612.5469 Q157.375,612.7969 157.375,613.1406 Q157.375,613.4844 157.0313,613.8906 Q156.5313,614.4688 155.7344,614.7969 Q154.6563,615.25 153.3594,615.25 Q151.8438,615.25 150.6406,614.625 Q149.6563,614.125 148.9688,613.0625 Q148.2813,611.9844 148.2813,610.7031 L148.2813,609.5469 Q148.2813,608.2188 148.8906,607.0781 Q149.5156,605.9219 150.6094,605.3125 Q151.7031,604.6875 152.9375,604.6875 Q153.6719,604.6875 154.3125,604.8594 Q154.9688,605.0156 155.5156,605.375 Z " fill="#000000"/><text fill="#000000" font-family="sans-serif" font-size="14" lengthAdjust="spacing" textLength="159" x="173.25" y="615.2969">JobApplicationRepository</text><line style="stroke:#181818;stroke-width:0.5;" x1="8" x2="465" y1="625.5" y2="625.5"/><line style="stroke:#181818;stroke-width:0.5;" x1="8" x2="465" y1="633.5" y2="633.5"/><ellipse cx="18" cy="648.3105" fill="#84BE84" rx="3" ry="3" style="stroke:#038048;stroke-width:1.0;"/><text fill="#000000" font-family="sans-serif" font-size="14" lengthAdjust="spacing" textLength="433" x="27" y="652.6074">findByJobReference(jobReference : String): Iterable&lt;JobApplication&gt;</text></g><!--class JobOpeningProcessRepository--><g id="elem_JobOpeningProcessRepository"><rect codeLine="32" fill="#F1F1F1" height="66.6211" id="JobOpeningProcessRepository" rx="2.5" ry="2.5" style="stroke:#181818;stroke-width:0.5;" width="297" x="1549" y="395"/><ellipse cx="1595.75" cy="411" fill="#ADD1B2" rx="11" ry="11" style="stroke:#181818;stroke-width:1.0;"/><path d="M1598.5156,406.875 Q1598.6719,406.6563 1598.8594,406.5469 Q1599.0469,406.4375 1599.2656,406.4375 Q1599.6406,406.4375 1599.875,406.7031 Q1600.1094,406.9531 1600.1094,407.5625 L1600.1094,409.0156 Q1600.1094,409.625 1599.875,409.8906 Q1599.6406,410.1563 1599.2656,410.1563 Q1598.9219,410.1563 1598.7188,409.9531 Q1598.5156,409.7656 1598.4063,409.25 Q1598.3594,408.8906 1598.1719,408.7031 Q1597.8438,408.3281 1597.2344,408.1094 Q1596.625,407.8906 1596,407.8906 Q1595.2344,407.8906 1594.5938,408.2188 Q1593.9688,408.5469 1593.4688,409.2969 Q1592.9844,410.0469 1592.9844,411.0781 L1592.9844,412.1719 Q1592.9844,413.4063 1593.875,414.2344 Q1594.7656,415.0469 1596.3594,415.0469 Q1597.2969,415.0469 1597.9531,414.7969 Q1598.3438,414.6406 1598.7656,414.2031 Q1599.0313,413.9375 1599.1719,413.8594 Q1599.3281,413.7813 1599.5313,413.7813 Q1599.8594,413.7813 1600.1094,414.0469 Q1600.375,414.2969 1600.375,414.6406 Q1600.375,414.9844 1600.0313,415.3906 Q1599.5313,415.9688 1598.7344,416.2969 Q1597.6563,416.75 1596.3594,416.75 Q1594.8438,416.75 1593.6406,416.125 Q1592.6563,415.625 1591.9688,414.5625 Q1591.2813,413.4844 1591.2813,412.2031 L1591.2813,411.0469 Q1591.2813,409.7188 1591.8906,408.5781 Q1592.5156,407.4219 1593.6094,406.8125 Q1594.7031,406.1875 1595.9375,406.1875 Q1596.6719,406.1875 1597.3125,406.3594 Q1597.9688,406.5156 1598.5156,406.875 Z " fill="#000000"/><text fill="#000000" font-family="sans-serif" font-size="14" lengthAdjust="spacing" textLength="195" x="1616.25" y="416.7969">JobOpeningProcessRepository</text><line style="stroke:#181818;stroke-width:0.5;" x1="1550" x2="1845" y1="427" y2="427"/><line style="stroke:#181818;stroke-width:0.5;" x1="1550" x2="1845" y1="435" y2="435"/><ellipse cx="1560" cy="449.8105" fill="#84BE84" rx="3" ry="3" style="stroke:#038048;stroke-width:1.0;"/><text fill="#000000" font-family="sans-serif" font-size="14" lengthAdjust="spacing" textLength="271" x="1569" y="454.1074">findByJobReference(jobReference : String)</text></g><!--class Candidate--><g id="elem_Candidate"><rect codeLine="40" fill="#F1F1F1" height="85.2422" id="Candidate" rx="2.5" ry="2.5" style="stroke:#181818;stroke-width:0.5;" width="524" x="501.5" y="584.5"/><ellipse cx="726.75" cy="600.5" fill="#ADD1B2" rx="11" ry="11" style="stroke:#181818;stroke-width:1.0;"/><path d="M729.5156,596.375 Q729.6719,596.1563 729.8594,596.0469 Q730.0469,595.9375 730.2656,595.9375 Q730.6406,595.9375 730.875,596.2031 Q731.1094,596.4531 731.1094,597.0625 L731.1094,598.5156 Q731.1094,599.125 730.875,599.3906 Q730.6406,599.6563 730.2656,599.6563 Q729.9219,599.6563 729.7188,599.4531 Q729.5156,599.2656 729.4063,598.75 Q729.3594,598.3906 729.1719,598.2031 Q728.8438,597.8281 728.2344,597.6094 Q727.625,597.3906 727,597.3906 Q726.2344,597.3906 725.5938,597.7188 Q724.9688,598.0469 724.4688,598.7969 Q723.9844,599.5469 723.9844,600.5781 L723.9844,601.6719 Q723.9844,602.9063 724.875,603.7344 Q725.7656,604.5469 727.3594,604.5469 Q728.2969,604.5469 728.9531,604.2969 Q729.3438,604.1406 729.7656,603.7031 Q730.0313,603.4375 730.1719,603.3594 Q730.3281,603.2813 730.5313,603.2813 Q730.8594,603.2813 731.1094,603.5469 Q731.375,603.7969 731.375,604.1406 Q731.375,604.4844 731.0313,604.8906 Q730.5313,605.4688 729.7344,605.7969 Q728.6563,606.25 727.3594,606.25 Q725.8438,606.25 724.6406,605.625 Q723.6563,605.125 722.9688,604.0625 Q722.2813,602.9844 722.2813,601.7031 L722.2813,600.5469 Q722.2813,599.2188 722.8906,598.0781 Q723.5156,596.9219 724.6094,596.3125 Q725.7031,595.6875 726.9375,595.6875 Q727.6719,595.6875 728.3125,595.8594 Q728.9688,596.0156 729.5156,596.375 Z " fill="#000000"/><text fill="#000000" font-family="sans-serif" font-size="14" lengthAdjust="spacing" textLength="65" x="747.25" y="606.2969">Candidate</text><line style="stroke:#181818;stroke-width:0.5;" x1="502.5" x2="1024.5" y1="616.5" y2="616.5"/><line style="stroke:#181818;stroke-width:0.5;" x1="502.5" x2="1024.5" y1="624.5" y2="624.5"/><ellipse cx="512.5" cy="639.3105" fill="#84BE84" rx="3" ry="3" style="stroke:#038048;stroke-width:1.0;"/><text fill="#000000" font-family="sans-serif" font-size="14" lengthAdjust="spacing" textLength="170" x="521.5" y="643.6074">systemUser() : SystemUser</text><rect fill="#F24D5C" height="6" style="stroke:#C82930;stroke-width:1.0;" width="6" x="509.5" y="654.9316"/><text fill="#000000" font-family="sans-serif" font-size="14" lengthAdjust="spacing" textLength="498" x="521.5" y="662.2285">changeApplicationStatus(applicationStatus : ApplicationStatus) : JobApplication</text></g><!--class CandidateRepository--><g id="elem_CandidateRepository"><rect fill="#F1F1F1" height="48" id="CandidateRepository" rx="2.5" ry="2.5" style="stroke:#181818;stroke-width:0.5;" width="165" x="1061" y="603"/><ellipse cx="1076" cy="619" fill="#ADD1B2" rx="11" ry="11" style="stroke:#181818;stroke-width:1.0;"/><path d="M1078.7656,614.875 Q1078.9219,614.6563 1079.1094,614.5469 Q1079.2969,614.4375 1079.5156,614.4375 Q1079.8906,614.4375 1080.125,614.7031 Q1080.3594,614.9531 1080.3594,615.5625 L1080.3594,617.0156 Q1080.3594,617.625 1080.125,617.8906 Q1079.8906,618.1563 1079.5156,618.1563 Q1079.1719,618.1563 1078.9688,617.9531 Q1078.7656,617.7656 1078.6563,617.25 Q1078.6094,616.8906 1078.4219,616.7031 Q1078.0938,616.3281 1077.4844,616.1094 Q1076.875,615.8906 1076.25,615.8906 Q1075.4844,615.8906 1074.8438,616.2188 Q1074.2188,616.5469 1073.7188,617.2969 Q1073.2344,618.0469 1073.2344,619.0781 L1073.2344,620.1719 Q1073.2344,621.4063 1074.125,622.2344 Q1075.0156,623.0469 1076.6094,623.0469 Q1077.5469,623.0469 1078.2031,622.7969 Q1078.5938,622.6406 1079.0156,622.2031 Q1079.2813,621.9375 1079.4219,621.8594 Q1079.5781,621.7813 1079.7813,621.7813 Q1080.1094,621.7813 1080.3594,622.0469 Q1080.625,622.2969 1080.625,622.6406 Q1080.625,622.9844 1080.2813,623.3906 Q1079.7813,623.9688 1078.9844,624.2969 Q1077.9063,624.75 1076.6094,624.75 Q1075.0938,624.75 1073.8906,624.125 Q1072.9063,623.625 1072.2188,622.5625 Q1071.5313,621.4844 1071.5313,620.2031 L1071.5313,619.0469 Q1071.5313,617.7188 1072.1406,616.5781 Q1072.7656,615.4219 1073.8594,614.8125 Q1074.9531,614.1875 1076.1875,614.1875 Q1076.9219,614.1875 1077.5625,614.3594 Q1078.2188,614.5156 1078.7656,614.875 Z " fill="#000000"/><text fill="#000000" font-family="sans-serif" font-size="14" lengthAdjust="spacing" textLength="133" x="1090" y="624.7969">CandidateRepository</text><line style="stroke:#181818;stroke-width:0.5;" x1="1062" x2="1225" y1="635" y2="635"/><line style="stroke:#181818;stroke-width:0.5;" x1="1062" x2="1225" y1="643" y2="643"/></g><!--link NotifyCandidateJobRequirementsUI to NotifyCandidateJobRequirementsController--><g id="link_NotifyCandidateJobRequirementsUI_NotifyCandidateJobRequirementsController"><path codeLine="46" d="M1396.5,105.28 C1396.5,129.77 1396.5,153.41 1396.5,177.87 " fill="none" id="NotifyCandidateJobRequirementsUI-to-NotifyCandidateJobRequirementsController" style="stroke:#181818;stroke-width:1.0;"/><polygon fill="#181818" points="1396.5,183.87,1400.5,174.87,1396.5,178.87,1392.5,174.87,1396.5,183.87" style="stroke:#181818;stroke-width:1.0;"/><text fill="#000000" font-family="sans-serif" font-size="13" lengthAdjust="spacing" textLength="73" x="1397.5" y="150.0283">theController</text></g><!--link NotifyCandidateJobRequirementsController to CandidateService--><g id="link_NotifyCandidateJobRequirementsController_CandidateService"><path codeLine="47" d="M1253.38,282.08 C1182.49,305.89 1101.4677,333.1094 1024.3077,359.0294 " fill="none" id="NotifyCandidateJobRequirementsController-to-CandidateService" style="stroke:#181818;stroke-width:1.0;"/><polygon fill="#181818" points="1018.62,360.94,1028.4252,361.8658,1023.3597,359.3478,1025.8777,354.2823,1018.62,360.94" style="stroke:#181818;stroke-width:1.0;"/><text fill="#000000" font-family="sans-serif" font-size="13" lengthAdjust="spacing" textLength="123" x="1161.5" y="327.0283">jobApplicationService</text></g><!--link NotifyCandidateJobRequirementsController to JobOpeningProcessRepository--><g id="link_NotifyCandidateJobRequirementsController_JobOpeningProcessRepository"><path codeLine="48" d="M1471.29,282.08 C1525.96,317.23 1593.6133,360.7149 1641.6533,391.6049 " fill="none" id="NotifyCandidateJobRequirementsController-to-JobOpeningProcessRepository" style="stroke:#181818;stroke-width:1.0;"/><polygon fill="#181818" points="1646.7,394.85,1641.2933,386.6179,1642.4944,392.1458,1636.9665,393.3469,1646.7,394.85" style="stroke:#181818;stroke-width:1.0;"/><text fill="#000000" font-family="sans-serif" font-size="13" lengthAdjust="spacing" textLength="175" x="1548.5" y="327.0283">jobOpeningProcessRepository</text></g><!--link CandidateService to CandidateRepository--><g id="link_CandidateService_CandidateRepository"><path codeLine="49" d="M929.85,496.03 C990.61,532.99 1057.284,573.5517 1100.254,599.6917 " fill="none" id="CandidateService-to-CandidateRepository" style="stroke:#181818;stroke-width:1.0;"/><polygon fill="#181818" points="1105.38,602.81,1099.7698,594.7152,1101.1083,600.2114,1095.6121,601.5499,1105.38,602.81" style="stroke:#181818;stroke-width:1.0;"/><text fill="#000000" font-family="sans-serif" font-size="13" lengthAdjust="spacing" textLength="143" x="1002.5" y="541.0283">jobApplicationRepository</text></g><!--link CandidateService to Candidate--><g id="link_CandidateService_Candidate"><path codeLine="50" d="M801.2,496.03 C792.71,525.31 784.6609,553.0373 777.2209,578.6973 " fill="none" id="CandidateService-to-Candidate" style="stroke:#181818;stroke-width:1.0;"/><polygon fill="#181818" points="775.55,584.46,781.8981,576.9299,776.9424,579.6578,774.2145,574.7021,775.55,584.46" style="stroke:#181818;stroke-width:1.0;"/><text fill="#000000" font-family="sans-serif" font-size="13" lengthAdjust="spacing" textLength="81" x="793.5" y="541.0283">jobApplication</text></g><!--link CandidateService to JobApplicationRepository--><g id="link_CandidateService_JobApplicationRepository"><path codeLine="51" d="M622.78,496.03 C525.17,528.87 417.4868,565.1068 338.9268,591.5368 " fill="none" id="CandidateService-to-JobApplicationRepository" style="stroke:#181818;stroke-width:1.0;"/><polygon fill="#181818" points="333.24,593.45,343.0457,594.3714,337.979,591.8557,340.4947,586.789,333.24,593.45" style="stroke:#181818;stroke-width:1.0;"/></g><!--link NotifyCandidateJobRequirementsController to PersistenceContext--><g id="link_NotifyCandidateJobRequirementsController_PersistenceContext"><path codeLine="53" d="M1396.5,282.33 C1396.5,317.48 1396.5,358.12 1396.5,388.93 " fill="none" id="NotifyCandidateJobRequirementsController-to-PersistenceContext" style="stroke:#181818;stroke-width:1.0;"/><polygon fill="#181818" points="1396.5,394.93,1400.5,385.93,1396.5,389.93,1392.5,385.93,1396.5,394.93" style="stroke:#181818;stroke-width:1.0;"/><text fill="#000000" font-family="sans-serif" font-size="13" lengthAdjust="spacing" textLength="67" x="1397.5" y="327.0283">persistence</text></g><!--link PersistenceContext to RepositoryFactory--><g id="link_PersistenceContext_RepositoryFactory"><path codeLine="54" d="M1405.87,462.39 C1414.62,493.09 1426.166,533.5996 1436.286,569.1196 " fill="none" id="PersistenceContext-to-RepositoryFactory" style="stroke:#181818;stroke-width:1.0;"/><polygon fill="#181818" points="1437.93,574.89,1439.3109,565.1384,1436.56,570.0814,1431.617,567.3305,1437.93,574.89" style="stroke:#181818;stroke-width:1.0;"/><text fill="#000000" font-family="sans-serif" font-size="13" lengthAdjust="spacing" textLength="39" x="1429.5" y="541.0283">factory</text></g><!--SRC=[hLJRRgCm47tdA-QHQ9iVG2XIMscbHkf5OVC1ZXaITurDRTDkjEg_hmr9i86aP5LUy6NcdBaS3-L4QtYIXXNxUo9obXE3IxbPuLlD59OeZ5u_G9fM2hNT4CEaM2p-Hd3uVi0EISwPm7YMG6OK4rllCfVPJdwugusK78bexZwZvaSdaDzBOPJa75MQaghYZ1v203y64MBu074R4xmwt08L2eetO5bkEpJma6UGmBjakOVEcJQt8i-G8pMUsoYsytymgCY6OnhIB8R9dqBEKBqpYhRIkbs5HIwOoE_sIuydzacJDf0lkTqt1y2IC9xLbABMlx2ik0q0ulCrkO5ihmsMQniRq5eRMQ9w989iKLdENjUF16kXMugYvj_FShdfKrcaDdN0ScfzqAONLDgAm9NQ2HB_c41-2YkfcP6AeNPQNntt-v-4kjyGSM0I019VP1OmJAVpzLoi79uh5BP4BqgwghjGe74DpqUz5H6_M_kLNVLCWi3FXG9No1MEas9spLkvaCb_SLzuZK4o-gINfa2TVAO1p87kYDYYbrncvsYjOz8_iUW3gqCFlVCZRHHzERVdyyNa-Pg0sM6tZQRwDIJzEPOuFVgvjCVNWLveE2H3mNkg7OpL8CREi1_cP0ZeUuxRdtstrnLYPFmaK7M7qOY1yniEcGIATlKF]--></g></svg>