<?xml version="1.0" encoding="us-ascii" standalone="no"?><svg xmlns="http://www.w3.org/2000/svg" xmlns:xlink="http://www.w3.org/1999/xlink" contentStyleType="text/css" height="995px" preserveAspectRatio="none" style="width:1838px;height:995px;background:#FFFFFF;" version="1.1" viewBox="0 0 1838 995" width="1838px" zoomAndPan="magnify"><defs/><g><!--class AddBackofficeUserUI--><g id="elem_AddBackofficeUserUI"><polygon fill="#F1F1F1" points="403,7,403,7.2102,413.0417,6.5857,423.0833,7.1933,433.125,7.3997,443.1667,6.2866,453.2083,6.9223,463.25,6.5735,473.2917,6.6165,483.3333,6.9318,493.375,6.3086,503.4167,7.5536,513.4583,6.3697,523.5,6.8022,533.5417,7.4319,543.5833,6.9142,553.625,7.0682,563.6667,6.9681,573.7083,7.1785,583.75,7.2391,593.7917,7.5857,603.8333,7.6711,613.875,7.6793,623.9167,7.2546,633.9583,7.4636,644,7,644.0896,7.2163,644.2616,6.9244,644.7937,7.5018,645.0228,7.348,645.4823,7.7502,645.7678,7.7322,645.6153,7.6691,645.8931,8.077,646.289,8.5339,646.1921,8.7867,646.386,9.1599,646.5,9.5,646.8386,9.5,646.9162,19.5051,646.4961,29.5102,646.7872,39.5153,645.9276,49.5204,646.7844,59.5255,647.0482,69.5306,646.9445,79.5358,647.113,89.5409,646.0169,99.546,645.8478,109.5511,645.8786,119.5562,646.4411,129.5613,646.5,139.5664,646.4395,139.5413,646.5634,140.0069,646.1533,140.2512,645.955,140.5833,645.9845,141.0097,645.7678,141.3342,645.6827,141.1288,645.348,141.3208,645.1434,141.8269,644.7627,141.9077,644.4472,142.1462,644,142.0664,644,141.7446,633.9583,142.3856,623.9167,142.6568,613.875,141.594,603.8333,141.9705,593.7917,142.1924,583.75,142.7182,573.7083,142.0622,563.6667,142.529,553.625,141.5126,543.5833,141.3891,533.5417,142.57,523.5,141.3495,513.4583,142.5754,503.4167,142.273,493.375,141.7985,483.3333,141.7126,473.2917,142.5252,463.25,141.7671,453.2083,142.6583,443.1667,141.5137,433.125,142.6838,423.0833,142.5507,413.0417,142.3114,403,142.0664,403.006,142.0809,402.7391,142.1437,402.3712,141.9625,401.9609,141.6792,401.62,141.5632,401.2322,141.3342,401.1921,141.3176,401.3064,141.072,400.987,140.6468,400.846,140.2955,400.4591,139.8424,400.5,139.5664,400.0948,139.5664,401.0307,129.5613,400.9298,119.5562,400.4571,109.5511,400.1778,99.546,400.2811,89.5409,399.8138,79.5358,400.9147,69.5306,401.2396,59.5255,401.0264,49.5204,401.1949,39.5153,400.3633,29.5102,400.5872,19.5051,400.5,9.5,400.3806,9.4506,400.7339,9.1827,400.8689,8.8244,401.1095,8.5098,401.0151,8.0565,401.2322,7.7322,401.2151,7.6908,401.6424,7.7224,402.0117,7.6141,402.2275,7.1351,402.6217,7.0867,403,7" style="stroke:#181818;stroke-width:0.5;"/><polygon fill="#ADD1B2" points="464.8108,31.9667,463.1984,34.1698,461.2912,37.3967,458.5636,39.5714,455.6974,40.7606,453.412,40.8638,450.4747,39.3766,447.7032,38.4049,445.5995,36.4322,444.4961,34.1738,443.8417,32.3756,443.2006,30.0267,442.16,28.0055,442.9596,26.032,443.6602,23.8702,446.2893,22.1605,448.139,19.9421,450.4284,19.2055,453.1501,18.5711,456.6404,18.948,458.5521,19.8495,460.7747,20.2582,463.4772,23.027,464.4193,25.95,464.8286,27.9444,464.365,31.2309" style="stroke:#181818;stroke-width:1.0;"/><path d="M456.5156,25.166 Q456.6719,24.9473 456.8594,24.8379 Q457.0469,24.7285 457.2656,24.7285 Q457.6406,24.7285 457.875,24.9941 Q458.1094,25.2441 458.1094,25.8535 L458.1094,27.3066 Q458.1094,27.916 457.875,28.1816 Q457.6406,28.4473 457.2656,28.4473 Q456.9219,28.4473 456.7188,28.2441 Q456.5156,28.0566 456.4063,27.541 Q456.3594,27.1816 456.1719,26.9941 Q455.8438,26.6191 455.2344,26.4004 Q454.625,26.1816 454,26.1816 Q453.2344,26.1816 452.5938,26.5098 Q451.9688,26.8379 451.4688,27.5879 Q450.9844,28.3379 450.9844,29.3691 L450.9844,30.4629 Q450.9844,31.6973 451.875,32.5254 Q452.7656,33.3379 454.3594,33.3379 Q455.2969,33.3379 455.9531,33.0879 Q456.3438,32.9316 456.7656,32.4941 Q457.0313,32.2285 457.1719,32.1504 Q457.3281,32.0723 457.5313,32.0723 Q457.8594,32.0723 458.1094,32.3379 Q458.375,32.5879 458.375,32.9316 Q458.375,33.2754 458.0313,33.6816 Q457.5313,34.2598 456.7344,34.5879 Q455.6563,35.041 454.3594,35.041 Q452.8438,35.041 451.6406,34.416 Q450.6563,33.916 449.9688,32.8535 Q449.2813,31.7754 449.2813,30.4941 L449.2813,29.3379 Q449.2813,28.0098 449.8906,26.8691 Q450.5156,25.7129 451.6094,25.1035 Q452.7031,24.4785 453.9375,24.4785 Q454.6719,24.4785 455.3125,24.6504 Q455.9688,24.8066 456.5156,25.166 Z " fill="#000000"/><text fill="#000000" font-family="FG Virgil" font-size="12" font-style="italic" lengthAdjust="spacing" textLength="82" x="498.75" y="24.9492">&#171;presentation&#187;</text><text fill="#000000" font-family="FG Virgil" font-size="14" lengthAdjust="spacing" textLength="131" x="474.25" y="43.0684">AddBackofficeUserUI</text><path d="M401.5,51.582 L401.5,51.8623 L411.6667,51.0296 L421.8333,51.8397 L432,52.1149 L442.1667,50.6308 L452.3333,51.4784 L462.5,51.0134 L472.6667,51.0707 L482.8333,51.4912 L493,50.6602 L503.1667,52.3202 L513.3333,50.7417 L523.5,51.3183 L533.6667,52.158 L543.8333,51.4677 L554,51.673 L564.1667,51.5394 L574.3333,51.8201 L584.5,51.9009 L594.6667,52.363 L604.8333,52.4768 L615,52.4877 L625.1667,51.9215 L635.3333,52.2001 L645.5,51.582 " fill="#F1F1F1" style="stroke:#181818;stroke-width:0.5;"/><path d="M401.5,59.582 L401.5,59.8623 L411.6667,59.0296 L421.8333,59.8397 L432,60.1149 L442.1667,58.6308 L452.3333,59.4784 L462.5,59.0134 L472.6667,59.0707 L482.8333,59.4912 L493,58.6602 L503.1667,60.3202 L513.3333,58.7417 L523.5,59.3183 L533.6667,60.158 L543.8333,59.4677 L554,59.673 L564.1667,59.5394 L574.3333,59.8201 L584.5,59.9009 L594.6667,60.363 L604.8333,60.4768 L615,60.4877 L625.1667,59.9215 L635.3333,60.2001 L645.5,59.582 " fill="#F1F1F1" style="stroke:#181818;stroke-width:0.5;"/><polygon fill="#F24D5C" points="408.5,71.3926,408.5,71.4626,409.7,71.2545,410.9,71.457,412.1,71.5258,413.3,71.1548,414.5,71.3926,414.4741,71.3926,414.3578,72.5926,414.3722,73.7926,414.4773,74.9926,414.2695,76.1926,414.5,77.3926,414.5,77.5771,413.3,77.1825,412.1,77.3267,410.9,77.5366,409.7,77.364,408.5,77.3926,408.5227,77.3926,408.4894,76.1926,408.5595,74.9926,408.5797,73.7926,408.6952,72.5926,408.5,71.3926" style="stroke:#C82930;stroke-width:1.0;"/><text fill="#000000" font-family="FG Virgil" font-size="14" lengthAdjust="spacing" textLength="143" x="420.5" y="78.6895">showBackofficeRoles()</text><polygon fill="#F24D5C" points="408.5,90.0137,408.5,90.0837,409.7,89.8756,410.9,90.0781,412.1,90.1469,413.3,89.7759,414.5,90.0137,414.4741,90.0137,414.3578,91.2137,414.3722,92.4137,414.4773,93.6137,414.2695,94.8137,414.5,96.0137,414.5,96.1982,413.3,95.8036,412.1,95.9477,410.9,96.1577,409.7,95.9851,408.5,96.0137,408.5227,96.0137,408.4894,94.8137,408.5595,93.6137,408.5797,92.4137,408.6952,91.2137,408.5,90.0137" style="stroke:#C82930;stroke-width:1.0;"/><text fill="#000000" font-family="FG Virgil" font-size="14" lengthAdjust="spacing" textLength="169" x="420.5" y="97.3105">doShow(roles : Set&lt;Role&gt;)</text><polygon fill="#F24D5C" points="408.5,108.6348,408.5,108.7048,409.7,108.4967,410.9,108.6992,412.1,108.768,413.3,108.397,414.5,108.6348,414.4741,108.6348,414.3578,109.8348,414.3722,111.0348,414.4773,112.2348,414.2695,113.4348,414.5,114.6348,414.5,114.8193,413.3,114.4247,412.1,114.5688,410.9,114.7787,409.7,114.6062,408.5,114.6348,408.5227,114.6348,408.4894,113.4348,408.5595,112.2348,408.5797,111.0348,408.6952,109.8348,408.5,108.6348" style="stroke:#C82930;stroke-width:1.0;"/><text fill="#000000" font-family="FG Virgil" font-size="14" lengthAdjust="spacing" textLength="220" x="420.5" y="115.9316">buildRolesMenu(roles : Set&lt;Role&gt;)</text><polygon fill="#F24D5C" points="408.5,127.2559,408.5,127.3259,409.7,127.1178,410.9,127.3203,412.1,127.3891,413.3,127.0181,414.5,127.2559,414.4741,127.2559,414.3578,128.4559,414.3722,129.6559,414.4773,130.8559,414.2695,132.0559,414.5,133.2559,414.5,133.4404,413.3,133.0458,412.1,133.1899,410.9,133.3998,409.7,133.2273,408.5,133.2559,408.5227,133.2559,408.4894,132.0559,408.5595,130.8559,408.5797,129.6559,408.6952,128.4559,408.5,127.2559" style="stroke:#C82930;stroke-width:1.0;"/><text fill="#000000" font-family="FG Virgil" font-size="14" lengthAdjust="spacing" textLength="64" x="420.5" y="134.5527">headline()</text></g><!--class AddBackofficeUserController--><g id="elem_AddBackofficeUserController"><polygon fill="#F1F1F1" points="9.5,221,9.5,221.2102,19.4806,220.5857,29.4612,221.1933,39.4417,221.3997,49.4223,220.2866,59.4029,220.9223,69.3835,220.5735,79.3641,220.6165,89.3447,220.9318,99.3252,220.3086,109.3058,221.5536,119.2864,220.3697,129.267,220.8022,139.2476,221.4319,149.2282,220.9142,159.2087,221.0682,169.1893,220.9681,179.1699,221.1785,189.1505,221.2391,199.1311,221.5857,209.1117,221.6711,219.0922,221.6793,229.0728,221.2546,239.0534,221.4636,249.034,221.7022,259.0146,220.2788,268.9951,221.6785,278.9757,220.7035,288.9563,221.5338,298.9369,220.505,308.9175,220.9315,318.8981,221.7416,328.8786,220.9513,338.8592,221.1053,348.8398,221.3386,358.8204,221.4162,368.801,220.9961,378.7816,221.2872,388.7621,220.4276,398.7427,221.2844,408.7233,221.5482,418.7039,221.4445,428.6845,221.613,438.665,220.5169,448.6456,220.3478,458.6262,220.3786,468.6068,220.9411,478.5874,220.8035,488.568,221.6814,498.5485,220.8253,508.5291,220.6569,518.5097,221.2283,528.4903,220.3332,538.4709,220.4809,548.4515,221.649,558.432,221.4357,568.4126,221.7345,578.3932,220.6782,588.3738,221.3192,598.3544,221.5904,608.335,220.5276,618.3155,220.9041,628.2961,221.126,638.2767,221.6518,648.2573,220.9958,658.2379,221.4626,668.2184,220.4462,678.199,220.3227,688.1796,221.5036,698.1602,220.2831,708.1408,221.509,718.1214,221.2066,728.1019,220.7321,738.0825,220.6462,748.0631,221.4588,758.0437,220.7007,768.0243,221.5919,778.0049,220.4473,787.9854,221.6174,797.966,221.4843,807.9466,221.245,817.9272,221.0472,827.9078,221.7266,837.8883,221.6136,847.8689,221.1693,857.8495,221.2682,867.8301,220.8697,877.8107,221.7165,887.7913,221.1549,897.7718,221.1726,907.7524,220.3916,917.733,220.5948,927.7136,221.5307,937.6942,221.4298,947.6748,220.9571,957.6553,220.6778,967.6359,220.7811,977.6165,220.3138,987.5971,221.4147,997.5777,221.7396,1007.5583,221.5264,1017.5388,221.6949,1027.5194,220.8633,1037.5,221,1037.5111,221.0269,1037.8041,221.0271,1038.2433,221.3804,1038.5921,221.5153,1038.9847,221.7559,1039.2678,221.7322,1039.197,221.7029,1039.3728,222.0686,1039.6972,222.4959,1039.8818,222.8653,1039.6957,223.0811,1040,223.5,1039.8061,223.5,1040.1493,233.5051,1039.3892,243.5102,1040.3534,253.5153,1040.258,263.5204,1039.8992,273.5255,1040.1422,283.5306,1040.7287,293.5358,1039.6871,303.5409,1040.315,313.546,1040.2856,323.5511,1040.1158,333.5562,1040.1409,343.5613,1040,353.5664,1040.0349,353.5809,1039.6613,353.8403,1039.5837,354.2224,1039.4185,354.5682,1039.4339,354.9888,1039.2678,355.3342,1039.279,355.3613,1038.9348,355.5304,1038.5235,355.5375,1038.1985,355.7527,1037.8382,355.8829,1037.5,356.0664,1037.5,356.6433,1027.5194,356.493,1017.5388,355.5809,1007.5583,355.9935,997.5777,355.4892,987.5971,356.3548,977.6165,356.6749,967.6359,356.611,957.6553,355.6309,947.6748,356.5304,937.6942,355.3236,927.7136,356.2666,917.733,355.7671,907.7524,356.1631,897.7718,356.3067,887.7913,356.5385,877.8107,355.3465,867.8301,356.5419,857.8495,356.2446,847.8689,356.4217,837.8883,356.8142,827.9078,356.0719,817.9272,356.2417,807.9466,356.2798,797.966,356.2636,787.9854,356.0656,778.0049,356.7771,768.0243,355.4567,758.0437,356.6317,748.0631,355.4424,738.0825,355.5261,728.1019,356.1064,718.1214,356.0947,708.1408,355.5736,698.1602,356.4801,688.1796,356.1753,678.199,356.7931,668.2184,356.7335,658.2379,355.6181,648.2573,355.6685,638.2767,355.9372,628.2961,356.4219,618.3155,356.4694,608.335,356.3676,598.3544,355.7245,588.3738,356.7028,578.3932,356.7002,568.4126,356.0191,558.432,355.8273,548.4515,355.665,538.4709,355.8518,528.4903,356.2038,518.5097,355.998,508.5291,355.6486,498.5485,356.5538,488.568,355.6075,478.5874,356.5688,468.6068,356.4936,458.6262,356.4383,448.6456,356.7589,438.665,355.8205,428.6845,355.7658,418.7039,356.5853,408.7233,355.4695,398.7427,355.8324,388.7621,356.1819,378.7816,356.1351,368.801,355.708,358.8204,356.0234,348.8398,356.811,338.8592,356.7149,328.8786,355.4701,318.8981,356.1449,308.9175,355.5525,298.9369,356.0401,288.9563,356.3594,278.9757,356.4863,268.9951,355.4017,259.0146,356.4669,249.034,356.0748,239.0534,355.5111,229.0728,355.5954,219.0922,356.393,209.1117,356.3163,199.1311,356.05,189.1505,355.3943,179.1699,356.7245,169.1893,355.7546,159.2087,355.5383,149.2282,355.9991,139.2476,356.6561,129.267,356.6818,119.2864,356.1015,109.3058,355.9152,99.3252,356.2362,89.3447,356.2526,79.3641,355.5586,69.3835,356.4804,59.4029,356.6252,49.4223,355.8506,39.4417,355.6372,29.4612,356.7411,19.4806,356.0874,9.5,356.0664,9.5,356.0664,9.1846,356.012,8.7105,355.5747,8.5069,355.7903,8.0838,355.4759,7.7322,355.3342,7.9382,355.4195,7.5193,354.9531,7.5653,354.6792,7.1562,354.2169,7.2219,353.9512,7,353.5664,7.3793,353.5664,6.6727,343.5613,7.363,333.5562,6.4286,323.5511,6.5295,313.546,7.6828,303.5409,7.6844,293.5358,7.5685,283.5306,6.6396,273.5255,7.3842,263.5204,6.5279,253.5153,7.0582,243.5102,6.9987,233.5051,7,223.5,6.9192,223.4665,7.3361,223.225,7.4294,222.8494,7.3406,222.3984,7.748,222.153,7.7322,221.7322,7.744,221.7605,8.0113,221.4061,8.4096,221.3675,8.7259,221.1311,9.1287,221.1036,9.5,221" style="stroke:#181818;stroke-width:0.5;"/><polygon fill="#ADD1B2" points="439.8108,245.9667,438.1984,248.1698,436.2912,251.3967,433.5636,253.5714,430.6974,254.7606,428.412,254.8638,425.4747,253.3766,422.7032,252.4049,420.5995,250.4322,419.4961,248.1738,418.8417,246.3756,418.2006,244.0267,417.16,242.0055,417.9596,240.032,418.6602,237.8702,421.2893,236.1605,423.139,233.9421,425.4284,233.2055,428.1501,232.5711,431.6404,232.948,433.5521,233.8495,435.7747,234.2582,438.4772,237.027,439.4193,239.95,439.8286,241.9444,439.365,245.2309" style="stroke:#181818;stroke-width:1.0;"/><path d="M431.5156,239.166 Q431.6719,238.9473 431.8594,238.8379 Q432.0469,238.7285 432.2656,238.7285 Q432.6406,238.7285 432.875,238.9941 Q433.1094,239.2441 433.1094,239.8535 L433.1094,241.3066 Q433.1094,241.916 432.875,242.1816 Q432.6406,242.4473 432.2656,242.4473 Q431.9219,242.4473 431.7188,242.2441 Q431.5156,242.0566 431.4063,241.541 Q431.3594,241.1816 431.1719,240.9941 Q430.8438,240.6191 430.2344,240.4004 Q429.625,240.1816 429,240.1816 Q428.2344,240.1816 427.5938,240.5098 Q426.9688,240.8379 426.4688,241.5879 Q425.9844,242.3379 425.9844,243.3691 L425.9844,244.4629 Q425.9844,245.6973 426.875,246.5254 Q427.7656,247.3379 429.3594,247.3379 Q430.2969,247.3379 430.9531,247.0879 Q431.3438,246.9316 431.7656,246.4941 Q432.0313,246.2285 432.1719,246.1504 Q432.3281,246.0723 432.5313,246.0723 Q432.8594,246.0723 433.1094,246.3379 Q433.375,246.5879 433.375,246.9316 Q433.375,247.2754 433.0313,247.6816 Q432.5313,248.2598 431.7344,248.5879 Q430.6563,249.041 429.3594,249.041 Q427.8438,249.041 426.6406,248.416 Q425.6563,247.916 424.9688,246.8535 Q424.2813,245.7754 424.2813,244.4941 L424.2813,243.3379 Q424.2813,242.0098 424.8906,240.8691 Q425.5156,239.7129 426.6094,239.1035 Q427.7031,238.4785 428.9375,238.4785 Q429.6719,238.4785 430.3125,238.6504 Q430.9688,238.8066 431.5156,239.166 Z " fill="#000000"/><text fill="#000000" font-family="FG Virgil" font-size="12" font-style="italic" lengthAdjust="spacing" textLength="74" x="502.75" y="238.9492">&#171;application&#187;</text><text fill="#000000" font-family="FG Virgil" font-size="14" lengthAdjust="spacing" textLength="181" x="449.25" y="257.0684">AddBackofficeUserController</text><path d="M8,265.582 L8,265.8623 L18.0097,265.0296 L28.0194,265.8397 L38.0291,266.1149 L48.0388,264.6308 L58.0485,265.4784 L68.0583,265.0134 L78.068,265.0707 L88.0777,265.4912 L98.0874,264.6602 L108.0971,266.3202 L118.1068,264.7417 L128.1165,265.3183 L138.1262,266.158 L148.1359,265.4677 L158.1456,265.673 L168.1553,265.5394 L178.165,265.8201 L188.1748,265.9009 L198.1845,266.363 L208.1942,266.4768 L218.2039,266.4877 L228.2136,265.9215 L238.2233,266.2001 L248.233,266.5183 L258.2427,264.6205 L268.2524,266.4867 L278.2621,265.1867 L288.2718,266.2938 L298.2816,264.922 L308.2913,265.4907 L318.301,266.5708 L328.3107,265.5171 L338.3204,265.7224 L348.3301,266.0335 L358.3398,266.137 L368.3495,265.5768 L378.3592,265.965 L388.3689,264.8188 L398.3786,265.9612 L408.3883,266.313 L418.3981,266.1747 L428.4078,266.3994 L438.4175,264.9379 L448.4272,264.7125 L458.4369,264.7535 L468.4466,265.5035 L478.4563,265.32 L488.466,266.4906 L498.4757,265.3491 L508.4854,265.1246 L518.4951,265.8864 L528.5049,264.6929 L538.5146,264.8899 L548.5243,266.4473 L558.534,266.1629 L568.5437,266.5614 L578.5534,265.153 L588.5631,266.0076 L598.5728,266.3693 L608.5825,264.9522 L618.5922,265.4542 L628.6019,265.75 L638.6117,266.451 L648.6214,265.5764 L658.6311,266.1988 L668.6408,264.8437 L678.6505,264.679 L688.6602,266.2535 L698.6699,264.6261 L708.6796,266.2606 L718.6893,265.8575 L728.699,265.2248 L738.7087,265.1103 L748.7184,266.1937 L758.7282,265.1829 L768.7379,266.3712 L778.7476,264.845 L788.7573,266.4053 L798.767,266.2278 L808.7767,265.9087 L818.7864,265.645 L828.7961,266.5508 L838.8058,266.4001 L848.8155,265.8077 L858.8252,265.9396 L868.835,265.4083 L878.8447,266.5373 L888.8544,265.7885 L898.8641,265.8121 L908.8738,264.7709 L918.8835,265.0417 L928.8932,266.2897 L938.9029,266.155 L948.9126,265.5248 L958.9223,265.1525 L968.932,265.2901 L978.9417,264.6671 L988.9515,266.135 L998.9612,266.5681 L1008.9709,266.2839 L1018.9806,266.5086 L1028.9903,265.3997 L1039,265.582 " fill="#F1F1F1" style="stroke:#181818;stroke-width:0.5;"/><path d="M8,273.582 L8,273.8623 L18.0097,273.0296 L28.0194,273.8397 L38.0291,274.1149 L48.0388,272.6308 L58.0485,273.4784 L68.0583,273.0134 L78.068,273.0707 L88.0777,273.4912 L98.0874,272.6602 L108.0971,274.3202 L118.1068,272.7417 L128.1165,273.3183 L138.1262,274.158 L148.1359,273.4677 L158.1456,273.673 L168.1553,273.5394 L178.165,273.8201 L188.1748,273.9009 L198.1845,274.363 L208.1942,274.4768 L218.2039,274.4877 L228.2136,273.9215 L238.2233,274.2001 L248.233,274.5183 L258.2427,272.6205 L268.2524,274.4867 L278.2621,273.1867 L288.2718,274.2938 L298.2816,272.922 L308.2913,273.4907 L318.301,274.5708 L328.3107,273.5171 L338.3204,273.7224 L348.3301,274.0335 L358.3398,274.137 L368.3495,273.5768 L378.3592,273.965 L388.3689,272.8188 L398.3786,273.9612 L408.3883,274.313 L418.3981,274.1747 L428.4078,274.3994 L438.4175,272.9379 L448.4272,272.7125 L458.4369,272.7535 L468.4466,273.5035 L478.4563,273.32 L488.466,274.4906 L498.4757,273.3491 L508.4854,273.1246 L518.4951,273.8864 L528.5049,272.6929 L538.5146,272.8899 L548.5243,274.4473 L558.534,274.1629 L568.5437,274.5614 L578.5534,273.153 L588.5631,274.0076 L598.5728,274.3693 L608.5825,272.9522 L618.5922,273.4542 L628.6019,273.75 L638.6117,274.451 L648.6214,273.5764 L658.6311,274.1988 L668.6408,272.8437 L678.6505,272.679 L688.6602,274.2535 L698.6699,272.6261 L708.6796,274.2606 L718.6893,273.8575 L728.699,273.2248 L738.7087,273.1103 L748.7184,274.1937 L758.7282,273.1829 L768.7379,274.3712 L778.7476,272.845 L788.7573,274.4053 L798.767,274.2278 L808.7767,273.9087 L818.7864,273.645 L828.7961,274.5508 L838.8058,274.4001 L848.8155,273.8077 L858.8252,273.9396 L868.835,273.4083 L878.8447,274.5373 L888.8544,273.7885 L898.8641,273.8121 L908.8738,272.7709 L918.8835,273.0417 L928.8932,274.2897 L938.9029,274.155 L948.9126,273.5248 L958.9223,273.1525 L968.932,273.2901 L978.9417,272.6671 L988.9515,274.135 L998.9612,274.5681 L1008.9709,274.2839 L1018.9806,274.5086 L1028.9903,273.3997 L1039,273.582 " fill="#F1F1F1" style="stroke:#181818;stroke-width:0.5;"/><polygon fill="#F24D5C" points="15,285.3926,15,285.4626,16.2,285.2545,17.4,285.457,18.6,285.5258,19.8,285.1548,21,285.3926,20.9741,285.3926,20.8578,286.5926,20.8722,287.7926,20.9773,288.9926,20.7695,290.1926,21,291.3926,21,291.5771,19.8,291.1825,18.6,291.3267,17.4,291.5366,16.2,291.364,15,291.3926,15.0227,291.3926,14.9894,290.1926,15.0595,288.9926,15.0797,287.7926,15.1952,286.5926,15,285.3926" style="stroke:#C82930;stroke-width:1.0;"/><text fill="#000000" font-family="FG Virgil" font-size="14" lengthAdjust="spacing" textLength="131" x="27" y="292.6895">getBackofficeRoles()</text><polygon fill="#F24D5C" points="15,304.0137,15,304.0837,16.2,303.8756,17.4,304.0781,18.6,304.1469,19.8,303.7759,21,304.0137,20.9741,304.0137,20.8578,305.2137,20.8722,306.4137,20.9773,307.6137,20.7695,308.8137,21,310.0137,21,310.1982,19.8,309.8036,18.6,309.9477,17.4,310.1577,16.2,309.9851,15,310.0137,15.0227,310.0137,14.9894,308.8137,15.0595,307.6137,15.0797,306.4137,15.1952,305.2137,15,304.0137" style="stroke:#C82930;stroke-width:1.0;"/><text fill="#000000" font-family="FG Virgil" font-size="14" lengthAdjust="spacing" textLength="159" x="27" y="311.3105">getGeneratedPassword()</text><polygon fill="#F24D5C" points="15,322.6348,15,322.7048,16.2,322.4967,17.4,322.6992,18.6,322.768,19.8,322.397,21,322.6348,20.9741,322.6348,20.8578,323.8348,20.8722,325.0348,20.9773,326.2348,20.7695,327.4348,21,328.6348,21,328.8193,19.8,328.4247,18.6,328.5688,17.4,328.7787,16.2,328.6062,15,328.6348,15.0227,328.6348,14.9894,327.4348,15.0595,326.2348,15.0797,325.0348,15.1952,323.8348,15,322.6348" style="stroke:#C82930;stroke-width:1.0;"/><text fill="#000000" font-family="FG Virgil" font-size="14" lengthAdjust="spacing" textLength="817" x="27" y="329.9316">addBackofficeUser(email : String, password : String, firstName : String, lastname : String, email : String, roles : List&lt;Jobs4uRoles&gt;)</text><polygon fill="#F24D5C" points="15,341.2559,15,341.3259,16.2,341.1178,17.4,341.3203,18.6,341.3891,19.8,341.0181,21,341.2559,20.9741,341.2559,20.8578,342.4559,20.8722,343.6559,20.9773,344.8559,20.7695,346.0559,21,347.2559,21,347.4404,19.8,347.0458,18.6,347.1899,17.4,347.3998,16.2,347.2273,15,347.2559,15.0227,347.2559,14.9894,346.0559,15.0595,344.8559,15.0797,343.6559,15.1952,342.4559,15,341.2559" style="stroke:#C82930;stroke-width:1.0;"/><text fill="#000000" font-family="FG Virgil" font-size="14" lengthAdjust="spacing" textLength="1007" x="27" y="348.5527">addBackofficeUser(email : String, password : String, firstName : String, lastname : String, email : String, roles : List&lt;Jobs4uRoles&gt;, time : CurrentTimeCalendars)</text></g><!--class PersistenceContext--><g id="elem_PersistenceContext"><polygon fill="#F1F1F1" points="1157,593,1157,593.2102,1166.9333,592.5857,1176.8667,593.1933,1186.8,593.3997,1196.7333,592.2866,1206.6667,592.9223,1216.6,592.5735,1226.5333,592.6165,1236.4667,592.9318,1246.4,592.3086,1256.3333,593.5536,1266.2667,592.3697,1276.2,592.8022,1286.1333,593.4319,1296.0667,592.9142,1306,593,1306.0087,593.021,1306.3495,593.1366,1306.7299,593.3479,1307.0912,593.513,1307.4889,593.7662,1307.7678,593.7322,1307.9744,593.8178,1308.1234,594.1724,1308.1391,594.4718,1308.3499,594.852,1308.5698,595.236,1308.5,595.5,1307.7788,595.5,1309.1785,606.1004,1308.2035,616.7009,1309.0338,627.3013,1308.005,637.9018,1308.4315,648.5022,1309.2416,659.1027,1308.5,669.7031,1308.485,669.6969,1308.386,670.0701,1308.3114,670.4534,1308.1888,670.8169,1307.913,671.1168,1307.7678,671.4709,1307.8044,671.5593,1307.3412,671.4411,1307.0969,671.8514,1306.777,672.0791,1306.4103,672.1936,1306,672.2031,1306,672.8161,1296.0667,671.72,1286.1333,671.5509,1276.2,671.5817,1266.2667,672.1442,1256.3333,672.0066,1246.4,672.8845,1236.4667,672.0284,1226.5333,671.8601,1216.6,672.4314,1206.6667,671.5363,1196.7333,671.684,1186.8,672.8521,1176.8667,672.6388,1166.9333,672.9376,1157,672.2031,1156.959,672.104,1156.6872,672.155,1156.3682,672.0921,1155.8791,671.6183,1155.5736,671.5878,1155.2322,671.4709,1155.271,671.487,1155.2865,671.2005,1154.938,670.7633,1154.9353,670.4692,1154.4759,669.986,1154.5,669.7031,1153.8227,669.7031,1155.0036,659.1027,1153.7831,648.5022,1155.009,637.9018,1154.7066,627.3013,1154.2321,616.7009,1154.1462,606.1004,1154.5,595.5,1154.6413,595.5585,1154.5543,595.1083,1154.9752,594.8684,1154.7691,594.3688,1155.2759,594.1645,1155.2322,593.7322,1155.294,593.8814,1155.617,593.6612,1155.9454,593.4539,1156.3856,593.5167,1156.7247,593.3354,1157,593" style="stroke:#181818;stroke-width:0.5;"/><polygon fill="#ADD1B2" points="1180.5608,617.9667,1178.9484,620.1698,1177.0412,623.3967,1174.3136,625.5714,1171.4474,626.7606,1169.162,626.8638,1166.2247,625.3766,1163.4532,624.4049,1161.3495,622.4322,1160.2461,620.1738,1159.5917,618.3756,1158.9506,616.0267,1157.91,614.0055,1158.7096,612.032,1159.4102,609.8702,1162.0393,608.1605,1163.889,605.9421,1166.1784,605.2055,1168.9001,604.5711,1172.3904,604.948,1174.3021,605.8495,1176.5247,606.2582,1179.2272,609.027,1180.1693,611.95,1180.5786,613.9444,1180.115,617.2309" style="stroke:#181818;stroke-width:1.0;"/><path d="M1172.2656,611.166 Q1172.4219,610.9473 1172.6094,610.8379 Q1172.7969,610.7285 1173.0156,610.7285 Q1173.3906,610.7285 1173.625,610.9941 Q1173.8594,611.2441 1173.8594,611.8535 L1173.8594,613.3066 Q1173.8594,613.916 1173.625,614.1816 Q1173.3906,614.4473 1173.0156,614.4473 Q1172.6719,614.4473 1172.4688,614.2441 Q1172.2656,614.0566 1172.1563,613.541 Q1172.1094,613.1816 1171.9219,612.9941 Q1171.5938,612.6191 1170.9844,612.4004 Q1170.375,612.1816 1169.75,612.1816 Q1168.9844,612.1816 1168.3438,612.5098 Q1167.7188,612.8379 1167.2188,613.5879 Q1166.7344,614.3379 1166.7344,615.3691 L1166.7344,616.4629 Q1166.7344,617.6973 1167.625,618.5254 Q1168.5156,619.3379 1170.1094,619.3379 Q1171.0469,619.3379 1171.7031,619.0879 Q1172.0938,618.9316 1172.5156,618.4941 Q1172.7813,618.2285 1172.9219,618.1504 Q1173.0781,618.0723 1173.2813,618.0723 Q1173.6094,618.0723 1173.8594,618.3379 Q1174.125,618.5879 1174.125,618.9316 Q1174.125,619.2754 1173.7813,619.6816 Q1173.2813,620.2598 1172.4844,620.5879 Q1171.4063,621.041 1170.1094,621.041 Q1168.5938,621.041 1167.3906,620.416 Q1166.4063,619.916 1165.7188,618.8535 Q1165.0313,617.7754 1165.0313,616.4941 L1165.0313,615.3379 Q1165.0313,614.0098 1165.6406,612.8691 Q1166.2656,611.7129 1167.3594,611.1035 Q1168.4531,610.4785 1169.6875,610.4785 Q1170.4219,610.4785 1171.0625,610.6504 Q1171.7188,610.8066 1172.2656,611.166 Z " fill="#000000"/><text fill="#000000" font-family="FG Virgil" font-size="12" font-style="italic" lengthAdjust="spacing" textLength="77" x="1206" y="610.9492">&#171;persistence&#187;</text><text fill="#000000" font-family="FG Virgil" font-size="14" lengthAdjust="spacing" textLength="122" x="1183.5" y="629.0684">PersistenceContext</text><path d="M1155.5,637.582 L1155.5,637.8623 L1165.6333,637.0296 L1175.7667,637.8397 L1185.9,638.1149 L1196.0333,636.6308 L1206.1667,637.4784 L1216.3,637.0134 L1226.4333,637.0707 L1236.5667,637.4912 L1246.7,636.6602 L1256.8333,638.3202 L1266.9667,636.7417 L1277.1,637.3183 L1287.2333,638.158 L1297.3667,637.4677 L1307.5,637.582 " fill="#F1F1F1" style="stroke:#181818;stroke-width:0.5;"/><path d="M1155.5,645.582 L1155.5,645.8623 L1165.6333,645.0296 L1175.7667,645.8397 L1185.9,646.1149 L1196.0333,644.6308 L1206.1667,645.4784 L1216.3,645.0134 L1226.4333,645.0707 L1236.5667,645.4912 L1246.7,644.6602 L1256.8333,646.3202 L1266.9667,644.7417 L1277.1,645.3183 L1287.2333,646.158 L1297.3667,645.4677 L1307.5,645.582 " fill="#F1F1F1" style="stroke:#181818;stroke-width:0.5;"/><polygon fill="#F24D5C" points="1162.5,657.3926,1162.5,657.4626,1163.7,657.2545,1164.9,657.457,1166.1,657.5258,1167.3,657.1548,1168.5,657.3926,1168.4741,657.3926,1168.3578,658.5926,1168.3722,659.7926,1168.4773,660.9926,1168.2695,662.1926,1168.5,663.3926,1168.5,663.5771,1167.3,663.1825,1166.1,663.3267,1164.9,663.5366,1163.7,663.364,1162.5,663.3926,1162.5227,663.3926,1162.4894,662.1926,1162.5595,660.9926,1162.5797,659.7926,1162.6952,658.5926,1162.5,657.3926" style="stroke:#C82930;stroke-width:1.0;"/><text fill="#000000" font-family="FG Virgil" font-size="14" lengthAdjust="spacing" textLength="84" x="1174.5" y="664.6895">repositories()</text></g><!--class RepositoryFactory--><g id="elem_RepositoryFactory"><polygon fill="#F1F1F1" points="1162,751,1162,751.2102,1172.2143,750.5857,1182.4286,751.1933,1192.6429,751.3997,1202.8571,750.2866,1213.0714,750.9223,1223.2857,750.5735,1233.5,750.6165,1243.7143,750.9318,1253.9286,750.3086,1264.1429,751.5536,1274.3571,750.3697,1284.5714,750.8022,1294.7857,751.4319,1305,751,1304.9891,750.9736,1305.3623,751.1675,1305.703,751.2831,1306.0834,751.4943,1306.4447,751.6594,1306.7678,751.7322,1306.9481,751.8069,1307.1209,752.1714,1307.2698,752.526,1307.2855,752.8254,1307.4963,753.2056,1307.5,753.5,1308.2022,753.5,1306.7788,764.1004,1308.1785,774.7009,1307.2035,785.3013,1308.0338,795.9018,1307.005,806.5022,1307.4315,817.1027,1307.5,827.7031,1307.7284,827.7977,1307.3385,828.0505,1307.2395,828.4237,1307.1649,828.807,1307.0424,829.1704,1306.7678,829.4709,1306.7673,829.4697,1306.4509,829.7058,1305.9876,829.5875,1305.7434,829.9978,1305.4235,830.2255,1305,830.2031,1305,830.6477,1294.7857,830.8161,1284.5714,829.72,1274.3571,829.5509,1264.1429,829.5817,1253.9286,830.1442,1243.7143,830.0066,1233.5,830.8845,1223.2857,830.0284,1213.0714,829.8601,1202.8571,830.4314,1192.6429,829.5363,1182.4286,829.684,1172.2143,830.8521,1162,830.2031,1162.0556,830.3373,1161.7401,830.2829,1161.2518,829.8111,1160.9801,829.8621,1160.6611,829.7992,1160.2322,829.4709,1160.0868,829.4106,1160.0563,829.1051,1159.9781,828.7799,1159.9936,828.4934,1159.6452,828.0561,1159.5,827.7031,1159.9626,827.7031,1158.9462,817.1027,1158.8227,806.5022,1160.0036,795.9018,1158.7831,785.3013,1160.009,774.7009,1159.7066,764.1004,1159.5,753.5,1159.4175,753.4658,1159.5375,753.1013,1159.9342,752.8514,1159.8472,752.4012,1160.2681,752.1613,1160.2322,751.7322,1160.1617,751.562,1160.6645,751.7759,1161.0011,751.5885,1161.3241,751.3683,1161.6525,751.161,1162,751" style="stroke:#181818;stroke-width:0.5;"/><polygon fill="#ADD1B2" points="1185.5608,775.9667,1183.9484,778.1698,1182.0412,781.3967,1179.3136,783.5714,1176.4474,784.7606,1174.162,784.8638,1171.2247,783.3766,1168.4532,782.4049,1166.3495,780.4322,1165.2461,778.1738,1164.5917,776.3756,1163.9506,774.0267,1162.91,772.0055,1163.7096,770.032,1164.4102,767.8702,1167.0393,766.1605,1168.889,763.9421,1171.1784,763.2055,1173.9001,762.5711,1177.3904,762.948,1179.3021,763.8495,1181.5247,764.2582,1184.2272,767.027,1185.1693,769.95,1185.5786,771.9444,1185.115,775.2309" style="stroke:#181818;stroke-width:1.0;"/><path d="M1177.2656,769.166 Q1177.4219,768.9473 1177.6094,768.8379 Q1177.7969,768.7285 1178.0156,768.7285 Q1178.3906,768.7285 1178.625,768.9941 Q1178.8594,769.2441 1178.8594,769.8535 L1178.8594,771.3066 Q1178.8594,771.916 1178.625,772.1816 Q1178.3906,772.4473 1178.0156,772.4473 Q1177.6719,772.4473 1177.4688,772.2441 Q1177.2656,772.0566 1177.1563,771.541 Q1177.1094,771.1816 1176.9219,770.9941 Q1176.5938,770.6191 1175.9844,770.4004 Q1175.375,770.1816 1174.75,770.1816 Q1173.9844,770.1816 1173.3438,770.5098 Q1172.7188,770.8379 1172.2188,771.5879 Q1171.7344,772.3379 1171.7344,773.3691 L1171.7344,774.4629 Q1171.7344,775.6973 1172.625,776.5254 Q1173.5156,777.3379 1175.1094,777.3379 Q1176.0469,777.3379 1176.7031,777.0879 Q1177.0938,776.9316 1177.5156,776.4941 Q1177.7813,776.2285 1177.9219,776.1504 Q1178.0781,776.0723 1178.2813,776.0723 Q1178.6094,776.0723 1178.8594,776.3379 Q1179.125,776.5879 1179.125,776.9316 Q1179.125,777.2754 1178.7813,777.6816 Q1178.2813,778.2598 1177.4844,778.5879 Q1176.4063,779.041 1175.1094,779.041 Q1173.5938,779.041 1172.3906,778.416 Q1171.4063,777.916 1170.7188,776.8535 Q1170.0313,775.7754 1170.0313,774.4941 L1170.0313,773.3379 Q1170.0313,772.0098 1170.6406,770.8691 Q1171.2656,769.7129 1172.3594,769.1035 Q1173.4531,768.4785 1174.6875,768.4785 Q1175.4219,768.4785 1176.0625,768.6504 Q1176.7188,768.8066 1177.2656,769.166 Z " fill="#000000"/><text fill="#000000" font-family="FG Virgil" font-size="12" font-style="italic" lengthAdjust="spacing" textLength="50" x="1221.5" y="768.9492">&#171;factory&#187;</text><text fill="#000000" font-family="FG Virgil" font-size="14" lengthAdjust="spacing" textLength="116" x="1188.5" y="787.0684">RepositoryFactory</text><path d="M1160.5,795.582 L1160.5,795.8623 L1170.2333,795.0296 L1179.9667,795.8397 L1189.7,796.1149 L1199.4333,794.6308 L1209.1667,795.4784 L1218.9,795.0134 L1228.6333,795.0707 L1238.3667,795.4912 L1248.1,794.6602 L1257.8333,796.3202 L1267.5667,794.7417 L1277.3,795.3183 L1287.0333,796.158 L1296.7667,795.4677 L1306.5,795.582 " fill="#F1F1F1" style="stroke:#181818;stroke-width:0.5;"/><path d="M1160.5,803.582 L1160.5,803.8623 L1170.2333,803.0296 L1179.9667,803.8397 L1189.7,804.1149 L1199.4333,802.6308 L1209.1667,803.4784 L1218.9,803.0134 L1228.6333,803.0707 L1238.3667,803.4912 L1248.1,802.6602 L1257.8333,804.3202 L1267.5667,802.7417 L1277.3,803.3183 L1287.0333,804.158 L1296.7667,803.4677 L1306.5,803.582 " fill="#F1F1F1" style="stroke:#181818;stroke-width:0.5;"/><polygon fill="#F24D5C" points="1167.5,815.3926,1167.5,815.4626,1168.7,815.2545,1169.9,815.457,1171.1,815.5258,1172.3,815.1548,1173.5,815.3926,1173.4741,815.3926,1173.3578,816.5926,1173.3722,817.7926,1173.4773,818.9926,1173.2695,820.1926,1173.5,821.3926,1173.5,821.5771,1172.3,821.1825,1171.1,821.3267,1169.9,821.5366,1168.7,821.364,1167.5,821.3926,1167.5227,821.3926,1167.4894,820.1926,1167.5595,818.9926,1167.5797,817.7926,1167.6952,816.5926,1167.5,815.3926" style="stroke:#C82930;stroke-width:1.0;"/><text fill="#000000" font-family="FG Virgil" font-size="14" lengthAdjust="spacing" textLength="45" x="1179.5" y="822.6895">users()</text></g><!--class UserRepository--><g id="elem_UserRepository"><polygon fill="#F1F1F1" points="1209.5,909,1209.5,909.2102,1219.2778,908.5857,1229.0556,909.1933,1238.8333,909.3997,1248.6111,908.2866,1258.3889,908.9223,1268.1667,908.5735,1277.9444,908.6165,1287.7222,908.9318,1297.5,908.3086,1307.2778,909.5536,1317.0556,908.3697,1326.8333,908.8022,1336.6111,909.4319,1346.3889,908.9142,1356.1667,909.0682,1365.9444,908.9681,1375.7222,909.1785,1385.5,909,1385.5305,909.0736,1385.9283,909.3268,1386.2927,909.4996,1386.6473,909.6485,1386.9467,909.6642,1387.2678,909.7322,1387.4105,909.7914,1387.6305,910.1754,1387.3386,910.3473,1387.9161,910.8794,1387.7622,911.1086,1388,911.5,1388.5338,911.5,1387.505,922.1004,1387.9315,932.7009,1388.7416,943.3013,1387.9513,953.9018,1388.1053,964.5022,1388.3386,975.1027,1388,985.7031,1388.1282,985.7562,1387.8524,986.0562,1387.7956,986.4469,1387.3844,986.6908,1387.5018,987.1536,1387.2678,987.4709,1387.3377,987.6397,1386.9709,987.7542,1386.6389,987.9526,1386.1455,987.7615,1385.7704,987.8558,1385.5,988.2031,1385.5,987.5817,1375.7222,988.1442,1365.9444,988.0066,1356.1667,988.8845,1346.3889,988.0284,1336.6111,987.8601,1326.8333,988.4314,1317.0556,987.5363,1307.2778,987.684,1297.5,988.8521,1287.7222,988.6388,1277.9444,988.9376,1268.1667,987.8813,1258.3889,988.5223,1248.6111,988.7935,1238.8333,987.7307,1229.0556,988.1073,1219.2778,988.3291,1209.5,988.2031,1209.5831,988.4038,1209.1459,988.0554,1208.8519,988.0527,1208.3687,987.5932,1207.9994,987.4088,1207.7322,987.4709,1207.8873,987.5351,1207.365,987.0259,1207.5961,986.8287,1207.3565,986.4366,1207.0639,986.0225,1207,985.7031,1206.6462,985.7031,1207.4588,975.1027,1206.7007,964.5022,1207.5919,953.9018,1206.4473,943.3013,1207.6174,932.7009,1207.4843,922.1004,1207,911.5,1207.0754,911.5312,1207.161,911.1525,1207.5167,910.8856,1207.6283,910.5176,1207.6379,910.1074,1207.7322,909.7322,1207.7664,909.8148,1208.0692,909.5457,1208.5307,909.66,1208.8126,909.3406,1209.1685,909.1996,1209.5,909" style="stroke:#181818;stroke-width:0.5;"/><polygon fill="#ADD1B2" points="1256.4608,933.9667,1254.8484,936.1698,1252.9412,939.3967,1250.2136,941.5714,1247.3474,942.7606,1245.062,942.8638,1242.1247,941.3766,1239.3532,940.4049,1237.2495,938.4322,1236.1461,936.1738,1235.4917,934.3756,1234.8506,932.0267,1233.81,930.0055,1234.6096,928.032,1235.3102,925.8702,1237.9393,924.1605,1239.789,921.9421,1242.0784,921.2055,1244.8001,920.5711,1248.2904,920.948,1250.2021,921.8495,1252.4247,922.2582,1255.1272,925.027,1256.0693,927.95,1256.4786,929.9444,1256.015,933.2309" style="stroke:#181818;stroke-width:1.0;"/><path d="M1248.1656,927.166 Q1248.3219,926.9473 1248.5094,926.8379 Q1248.6969,926.7285 1248.9156,926.7285 Q1249.2906,926.7285 1249.525,926.9941 Q1249.7594,927.2441 1249.7594,927.8535 L1249.7594,929.3066 Q1249.7594,929.916 1249.525,930.1816 Q1249.2906,930.4473 1248.9156,930.4473 Q1248.5719,930.4473 1248.3688,930.2441 Q1248.1656,930.0566 1248.0563,929.541 Q1248.0094,929.1816 1247.8219,928.9941 Q1247.4938,928.6191 1246.8844,928.4004 Q1246.275,928.1816 1245.65,928.1816 Q1244.8844,928.1816 1244.2438,928.5098 Q1243.6188,928.8379 1243.1188,929.5879 Q1242.6344,930.3379 1242.6344,931.3691 L1242.6344,932.4629 Q1242.6344,933.6973 1243.525,934.5254 Q1244.4156,935.3379 1246.0094,935.3379 Q1246.9469,935.3379 1247.6031,935.0879 Q1247.9938,934.9316 1248.4156,934.4941 Q1248.6813,934.2285 1248.8219,934.1504 Q1248.9781,934.0723 1249.1813,934.0723 Q1249.5094,934.0723 1249.7594,934.3379 Q1250.025,934.5879 1250.025,934.9316 Q1250.025,935.2754 1249.6813,935.6816 Q1249.1813,936.2598 1248.3844,936.5879 Q1247.3063,937.041 1246.0094,937.041 Q1244.4938,937.041 1243.2906,936.416 Q1242.3063,935.916 1241.6188,934.8535 Q1240.9313,933.7754 1240.9313,932.4941 L1240.9313,931.3379 Q1240.9313,930.0098 1241.5406,928.8691 Q1242.1656,927.7129 1243.2594,927.1035 Q1244.3531,926.4785 1245.5875,926.4785 Q1246.3219,926.4785 1246.9625,926.6504 Q1247.6188,926.8066 1248.1656,927.166 Z " fill="#000000"/><text fill="#000000" font-family="FG Virgil" font-size="12" font-style="italic" lengthAdjust="spacing" textLength="68" x="1279.1" y="926.9492">&#171;repository&#187;</text><text fill="#000000" font-family="FG Virgil" font-size="14" lengthAdjust="spacing" textLength="97" x="1264.6" y="945.0684">UserRepository</text><path d="M1208,953.582 L1208,953.8623 L1217.9444,953.0296 L1227.8889,953.8397 L1237.8333,954.1149 L1247.7778,952.6308 L1257.7222,953.4784 L1267.6667,953.0134 L1277.6111,953.0707 L1287.5556,953.4912 L1297.5,952.6602 L1307.4444,954.3202 L1317.3889,952.7417 L1327.3333,953.3183 L1337.2778,954.158 L1347.2222,953.4677 L1357.1667,953.673 L1367.1111,953.5394 L1377.0556,953.8201 L1387,953.582 " fill="#F1F1F1" style="stroke:#181818;stroke-width:0.5;"/><path d="M1208,961.582 L1208,961.8623 L1217.9444,961.0296 L1227.8889,961.8397 L1237.8333,962.1149 L1247.7778,960.6308 L1257.7222,961.4784 L1267.6667,961.0134 L1277.6111,961.0707 L1287.5556,961.4912 L1297.5,960.6602 L1307.4444,962.3202 L1317.3889,960.7417 L1327.3333,961.3183 L1337.2778,962.158 L1347.2222,961.4677 L1357.1667,961.673 L1367.1111,961.5394 L1377.0556,961.8201 L1387,961.582 " fill="#F1F1F1" style="stroke:#181818;stroke-width:0.5;"/><polygon fill="#F24D5C" points="1215,973.3926,1215,973.4626,1216.2,973.2545,1217.4,973.457,1218.6,973.5258,1219.8,973.1548,1221,973.3926,1220.9741,973.3926,1220.8578,974.5926,1220.8722,975.7926,1220.9773,976.9926,1220.7695,978.1926,1221,979.3926,1221,979.5771,1219.8,979.1825,1218.6,979.3267,1217.4,979.5366,1216.2,979.364,1215,979.3926,1215.0227,979.3926,1214.9894,978.1926,1215.0595,976.9926,1215.0797,975.7926,1215.1952,974.5926,1215,973.3926" style="stroke:#C82930;stroke-width:1.0;"/><text fill="#000000" font-family="FG Virgil" font-size="14" lengthAdjust="spacing" textLength="155" x="1227" y="980.6895">save(user : SystemUser)</text></g><!--class Jobs4uRoles--><g id="elem_Jobs4uRoles"><polygon fill="#F1F1F1" points="119.5,435,119.5,435.2102,129.3571,434.5857,139.2143,435.1933,149.0714,435.3997,158.9286,434.2866,168.7857,434.9223,178.6429,434.5735,188.5,434.6165,198.3571,434.9318,208.2143,434.3086,218.0714,435.5536,227.9286,434.3697,237.7857,434.8022,247.6429,435.4319,257.5,435,257.4891,434.9736,257.8623,435.1675,258.203,435.2831,258.5834,435.4943,258.9447,435.6594,259.2678,435.7322,259.4481,435.8069,259.6209,436.1714,259.7698,436.526,259.7855,436.8254,259.9963,437.2056,260,437.5,260.7022,437.5,259.2788,448.1004,260.6785,458.7009,259.7035,469.3013,260.5338,479.9018,259.505,490.5022,259.9315,501.1027,260,511.7031,260.2284,511.7977,259.8385,512.0505,259.7395,512.4237,259.6649,512.807,259.5424,513.1704,259.2678,513.4709,259.2673,513.4697,258.9509,513.7058,258.4876,513.5875,258.2434,513.9978,257.9235,514.2255,257.5,514.2031,257.5,514.6477,247.6429,514.8161,237.7857,513.72,227.9286,513.5509,218.0714,513.5817,208.2143,514.1442,198.3571,514.0066,188.5,514.8845,178.6429,514.0284,168.7857,513.8601,158.9286,514.4314,149.0714,513.5363,139.2143,513.684,129.3571,514.8521,119.5,514.2031,119.5556,514.3373,119.2401,514.2829,118.7518,513.8111,118.4801,513.8621,118.1611,513.7992,117.7322,513.4709,117.5868,513.4106,117.5563,513.1051,117.4781,512.7799,117.4936,512.4934,117.1452,512.0561,117,511.7031,117.4626,511.7031,116.4462,501.1027,116.3227,490.5022,117.5036,479.9018,116.2831,469.3013,117.509,458.7009,117.2066,448.1004,117,437.5,116.9175,437.4658,117.0375,437.1013,117.4342,436.8514,117.3472,436.4012,117.7681,436.1613,117.7322,435.7322,117.6617,435.562,118.1645,435.7759,118.5011,435.5885,118.8241,435.3683,119.1525,435.161,119.5,435" style="stroke:#181818;stroke-width:0.5;"/><polygon fill="#ADD1B2" points="156.5608,459.9667,154.9484,462.1698,153.0412,465.3967,150.3136,467.5714,147.4474,468.7606,145.162,468.8638,142.2247,467.3766,139.4532,466.4049,137.3495,464.4322,136.2461,462.1738,135.5917,460.3756,134.9506,458.0267,133.91,456.0055,134.7096,454.032,135.4102,451.8702,138.0393,450.1605,139.889,447.9421,142.1784,447.2055,144.9001,446.5711,148.3904,446.948,150.3021,447.8495,152.5247,448.2582,155.2272,451.027,156.1693,453.95,156.5786,455.9444,156.115,459.2309" style="stroke:#181818;stroke-width:1.0;"/><path d="M148.2656,453.166 Q148.4219,452.9473 148.6094,452.8379 Q148.7969,452.7285 149.0156,452.7285 Q149.3906,452.7285 149.625,452.9941 Q149.8594,453.2441 149.8594,453.8535 L149.8594,455.3066 Q149.8594,455.916 149.625,456.1816 Q149.3906,456.4473 149.0156,456.4473 Q148.6719,456.4473 148.4688,456.2441 Q148.2656,456.0566 148.1563,455.541 Q148.1094,455.1816 147.9219,454.9941 Q147.5938,454.6191 146.9844,454.4004 Q146.375,454.1816 145.75,454.1816 Q144.9844,454.1816 144.3438,454.5098 Q143.7188,454.8379 143.2188,455.5879 Q142.7344,456.3379 142.7344,457.3691 L142.7344,458.4629 Q142.7344,459.6973 143.625,460.5254 Q144.5156,461.3379 146.1094,461.3379 Q147.0469,461.3379 147.7031,461.0879 Q148.0938,460.9316 148.5156,460.4941 Q148.7813,460.2285 148.9219,460.1504 Q149.0781,460.0723 149.2813,460.0723 Q149.6094,460.0723 149.8594,460.3379 Q150.125,460.5879 150.125,460.9316 Q150.125,461.2754 149.7813,461.6816 Q149.2813,462.2598 148.4844,462.5879 Q147.4063,463.041 146.1094,463.041 Q144.5938,463.041 143.3906,462.416 Q142.4063,461.916 141.7188,460.8535 Q141.0313,459.7754 141.0313,458.4941 L141.0313,457.3379 Q141.0313,456.0098 141.6406,454.8691 Q142.2656,453.7129 143.3594,453.1035 Q144.4531,452.4785 145.6875,452.4785 Q146.4219,452.4785 147.0625,452.6504 Q147.7188,452.8066 148.2656,453.166 Z " fill="#000000"/><text fill="#000000" font-family="FG Virgil" font-size="12" font-style="italic" lengthAdjust="spacing" textLength="56" x="175" y="452.9492">&#171;domain&#187;</text><text fill="#000000" font-family="FG Virgil" font-size="14" lengthAdjust="spacing" textLength="81" x="162.5" y="471.0684">Jobs4uRoles</text><path d="M118,479.582 L118,479.8623 L128.0714,479.0296 L138.1429,479.8397 L148.2143,480.1149 L158.2857,478.6308 L168.3571,479.4784 L178.4286,479.0134 L188.5,479.0707 L198.5714,479.4912 L208.6429,478.6602 L218.7143,480.3202 L228.7857,478.7417 L238.8571,479.3183 L248.9286,480.158 L259,479.582 " fill="#F1F1F1" style="stroke:#181818;stroke-width:0.5;"/><path d="M118,487.582 L118,487.8623 L128.0714,487.0296 L138.1429,487.8397 L148.2143,488.1149 L158.2857,486.6308 L168.3571,487.4784 L178.4286,487.0134 L188.5,487.0707 L198.5714,487.4912 L208.6429,486.6602 L218.7143,488.3202 L228.7857,486.7417 L238.8571,487.3183 L248.9286,488.158 L259,487.582 " fill="#F1F1F1" style="stroke:#181818;stroke-width:0.5;"/><polygon fill="#F24D5C" points="125,499.3926,125,499.4626,126.2,499.2545,127.4,499.457,128.6,499.5258,129.8,499.1548,131,499.3926,130.9741,499.3926,130.8578,500.5926,130.8722,501.7926,130.9773,502.9926,130.7695,504.1926,131,505.3926,131,505.5771,129.8,505.1825,128.6,505.3267,127.4,505.5366,126.2,505.364,125,505.3926,125.0227,505.3926,124.9894,504.1926,125.0595,502.9926,125.0797,501.7926,125.1952,500.5926,125,499.3926" style="stroke:#C82930;stroke-width:1.0;"/><text fill="#000000" font-family="FG Virgil" font-size="14" lengthAdjust="spacing" textLength="117" x="137" y="506.6895">backofficeValues()</text></g><!--class PasswordGenerator--><g id="elem_PasswordGenerator"><polygon fill="#F1F1F1" points="298,435,298,435.2102,308.2,434.5857,318.4,435.1933,328.6,435.3997,338.8,434.2866,349,434.9223,359.2,434.5735,369.4,434.6165,379.6,434.9318,389.8,434.3086,400,435.5536,410.2,434.3697,420.4,434.8022,430.6,435.4319,440.8,434.9142,451,435,451.0087,435.021,451.3495,435.1366,451.7299,435.3479,452.0912,435.513,452.4889,435.7662,452.7678,435.7322,452.9744,435.8178,453.1234,436.1724,453.1391,436.4718,453.3499,436.852,453.5698,437.236,453.5,437.5,452.7788,437.5,454.1785,448.1004,453.2035,458.7009,454.0338,469.3013,453.005,479.9018,453.4315,490.5022,454.2416,501.1027,453.5,511.7031,453.485,511.6969,453.386,512.0701,453.3114,512.4534,453.1888,512.8169,452.913,513.1168,452.7678,513.4709,452.8044,513.5593,452.3412,513.4411,452.0969,513.8514,451.777,514.0791,451.4103,514.1936,451,514.2031,451,514.8161,440.8,513.72,430.6,513.5509,420.4,513.5817,410.2,514.1442,400,514.0066,389.8,514.8845,379.6,514.0284,369.4,513.8601,359.2,514.4314,349,513.5363,338.8,513.684,328.6,514.8521,318.4,514.6388,308.2,514.9376,298,514.2031,297.959,514.104,297.6872,514.155,297.3682,514.0921,296.8791,513.6183,296.5736,513.5878,296.2322,513.4709,296.271,513.487,296.2865,513.2005,295.938,512.7633,295.9353,512.4692,295.4759,511.986,295.5,511.7031,294.8227,511.7031,296.0036,501.1027,294.7831,490.5022,296.009,479.9018,295.7066,469.3013,295.2321,458.7009,295.1462,448.1004,295.5,437.5,295.6413,437.5585,295.5543,437.1083,295.9752,436.8684,295.7691,436.3688,296.2759,436.1645,296.2322,435.7322,296.294,435.8814,296.617,435.6612,296.9454,435.4539,297.3856,435.5167,297.7247,435.3354,298,435" style="stroke:#181818;stroke-width:0.5;"/><polygon fill="#ADD1B2" points="321.5608,459.9667,319.9484,462.1698,318.0412,465.3967,315.3136,467.5714,312.4474,468.7606,310.162,468.8638,307.2247,467.3766,304.4532,466.4049,302.3495,464.4322,301.2461,462.1738,300.5917,460.3756,299.9506,458.0267,298.91,456.0055,299.7096,454.032,300.4102,451.8702,303.0393,450.1605,304.889,447.9421,307.1784,447.2055,309.9001,446.5711,313.3904,446.948,315.3021,447.8495,317.5247,448.2582,320.2272,451.027,321.1693,453.95,321.5786,455.9444,321.115,459.2309" style="stroke:#181818;stroke-width:1.0;"/><path d="M313.2656,453.166 Q313.4219,452.9473 313.6094,452.8379 Q313.7969,452.7285 314.0156,452.7285 Q314.3906,452.7285 314.625,452.9941 Q314.8594,453.2441 314.8594,453.8535 L314.8594,455.3066 Q314.8594,455.916 314.625,456.1816 Q314.3906,456.4473 314.0156,456.4473 Q313.6719,456.4473 313.4688,456.2441 Q313.2656,456.0566 313.1563,455.541 Q313.1094,455.1816 312.9219,454.9941 Q312.5938,454.6191 311.9844,454.4004 Q311.375,454.1816 310.75,454.1816 Q309.9844,454.1816 309.3438,454.5098 Q308.7188,454.8379 308.2188,455.5879 Q307.7344,456.3379 307.7344,457.3691 L307.7344,458.4629 Q307.7344,459.6973 308.625,460.5254 Q309.5156,461.3379 311.1094,461.3379 Q312.0469,461.3379 312.7031,461.0879 Q313.0938,460.9316 313.5156,460.4941 Q313.7813,460.2285 313.9219,460.1504 Q314.0781,460.0723 314.2813,460.0723 Q314.6094,460.0723 314.8594,460.3379 Q315.125,460.5879 315.125,460.9316 Q315.125,461.2754 314.7813,461.6816 Q314.2813,462.2598 313.4844,462.5879 Q312.4063,463.041 311.1094,463.041 Q309.5938,463.041 308.3906,462.416 Q307.4063,461.916 306.7188,460.8535 Q306.0313,459.7754 306.0313,458.4941 L306.0313,457.3379 Q306.0313,456.0098 306.6406,454.8691 Q307.2656,453.7129 308.3594,453.1035 Q309.4531,452.4785 310.6875,452.4785 Q311.4219,452.4785 312.0625,452.6504 Q312.7188,452.8066 313.2656,453.166 Z " fill="#000000"/><text fill="#000000" font-family="FG Virgil" font-size="12" font-style="italic" lengthAdjust="spacing" textLength="56" x="359.5" y="452.9492">&#171;domain&#187;</text><text fill="#000000" font-family="FG Virgil" font-size="14" lengthAdjust="spacing" textLength="126" x="324.5" y="471.0684">PasswordGenerator</text><path d="M296.5,479.582 L296.5,479.8623 L306.25,479.0296 L316,479.8397 L325.75,480.1149 L335.5,478.6308 L345.25,479.4784 L355,479.0134 L364.75,479.0707 L374.5,479.4912 L384.25,478.6602 L394,480.3202 L403.75,478.7417 L413.5,479.3183 L423.25,480.158 L433,479.4677 L442.75,479.673 L452.5,479.582 " fill="#F1F1F1" style="stroke:#181818;stroke-width:0.5;"/><path d="M296.5,487.582 L296.5,487.8623 L306.25,487.0296 L316,487.8397 L325.75,488.1149 L335.5,486.6308 L345.25,487.4784 L355,487.0134 L364.75,487.0707 L374.5,487.4912 L384.25,486.6602 L394,488.3202 L403.75,486.7417 L413.5,487.3183 L423.25,488.158 L433,487.4677 L442.75,487.673 L452.5,487.582 " fill="#F1F1F1" style="stroke:#181818;stroke-width:0.5;"/><polygon fill="#F24D5C" points="303.5,499.3926,303.5,499.4626,304.7,499.2545,305.9,499.457,307.1,499.5258,308.3,499.1548,309.5,499.3926,309.4741,499.3926,309.3578,500.5926,309.3722,501.7926,309.4773,502.9926,309.2695,504.1926,309.5,505.3926,309.5,505.5771,308.3,505.1825,307.1,505.3267,305.9,505.5366,304.7,505.364,303.5,505.3926,303.5227,505.3926,303.4894,504.1926,303.5595,502.9926,303.5797,501.7926,303.6952,500.5926,303.5,499.3926" style="stroke:#C82930;stroke-width:1.0;"/><text fill="#000000" font-family="FG Virgil" font-size="14" lengthAdjust="spacing" textLength="128" x="315.5" y="506.6895">generatePassword()</text></g><!--class AuthorizationService--><g id="elem_AuthorizationService"><polygon fill="#F1F1F1" points="491,435,491,435.2102,501.0833,434.5857,511.1667,435.1933,521.25,435.3997,531.3333,434.2866,541.4167,434.9223,551.5,434.5735,561.5833,434.6165,571.6667,434.9318,581.75,434.3086,591.8333,435.5536,601.9167,434.3697,612,434.8022,622.0833,435.4319,632.1667,434.9142,642.25,435.0682,652.3333,434.9681,662.4167,435.1785,672.5,435.2391,682.5833,435.5857,692.6667,435.6711,702.75,435.6793,712.8333,435.2546,722.9167,435.4636,733,435.7022,743.0833,434.2788,753.1667,435.6785,763.25,434.7035,773.3333,435.5338,783.4167,434.505,793.5,434.9315,803.5833,435.7416,813.6667,434.9513,823.75,435.1053,833.8333,435.3386,843.9167,435.4162,854,435,853.9995,434.9988,854.3902,435.2349,854.6341,435.1166,855.0969,435.5269,855.4841,435.7546,855.7678,435.7322,855.9047,435.7889,856.103,436.164,855.9119,436.3777,856.0063,436.7097,856.1622,437.0672,856.5,437.5,856.4411,437.5,856.3035,448.1004,857.1814,458.7009,856.3253,469.3013,856.1569,479.9018,856.7283,490.5022,855.8332,501.1027,856.5,511.7031,856.3401,511.6369,856.5534,512.1395,856.3413,512.4658,856.2869,512.8575,855.8151,513.0763,855.7678,513.4709,855.8085,513.5692,855.4895,513.7992,855.0004,513.6183,854.6949,513.8807,854.3696,514.0955,854,514.2031,854,514.8549,843.9167,514.1989,833.8333,514.6657,823.75,513.6493,813.6667,513.5259,803.5833,514.7067,793.5,513.4862,783.4167,514.7121,773.3333,514.4098,763.25,513.9352,753.1667,513.8494,743.0833,514.6619,733,513.9038,722.9167,514.795,712.8333,513.6504,702.75,514.8206,692.6667,514.6874,682.5833,514.4481,672.5,514.2503,662.4167,514.9297,652.3333,514.8167,642.25,514.3724,632.1667,514.4713,622.0833,514.0729,612,514.9196,601.9167,514.358,591.8333,514.3757,581.75,513.5948,571.6667,513.7979,561.5833,514.7339,551.5,514.6329,541.4167,514.1602,531.3333,513.881,521.25,513.9842,511.1667,513.5169,501.0833,514.6179,491,514.2031,491.0943,514.4309,490.7136,514.2188,490.3815,514.1242,489.9219,513.7217,489.5969,513.6442,489.2322,513.4709,489.1129,513.4214,489.1733,513.1536,489.0153,512.7953,488.963,512.4807,488.5757,512.0274,488.5,511.7031,488.3656,511.7031,488.9435,501.1027,489.0673,490.5022,487.9875,479.9018,488.3061,469.3013,488.6493,458.7009,487.8892,448.1004,488.5,437.5,488.6088,437.5451,488.7259,437.1794,488.7619,436.78,488.9831,436.4575,489.3102,436.1787,489.2322,435.7322,489.1923,435.6359,489.626,435.6828,489.9758,435.5273,490.3077,435.3285,490.6644,435.1898,491,435" style="stroke:#181818;stroke-width:0.5;"/><polygon fill="#ADD1B2" points="614.8108,459.9667,613.1984,462.1698,611.2912,465.3967,608.5636,467.5714,605.6974,468.7606,603.412,468.8638,600.4747,467.3766,597.7032,466.4049,595.5995,464.4322,594.4961,462.1738,593.8417,460.3756,593.2006,458.0267,592.16,456.0055,592.9596,454.032,593.6602,451.8702,596.2893,450.1605,598.139,447.9421,600.4284,447.2055,603.1501,446.5711,606.6404,446.948,608.5521,447.8495,610.7747,448.2582,613.4772,451.027,614.4193,453.95,614.8286,455.9444,614.365,459.2309" style="stroke:#181818;stroke-width:1.0;"/><path d="M606.5156,453.166 Q606.6719,452.9473 606.8594,452.8379 Q607.0469,452.7285 607.2656,452.7285 Q607.6406,452.7285 607.875,452.9941 Q608.1094,453.2441 608.1094,453.8535 L608.1094,455.3066 Q608.1094,455.916 607.875,456.1816 Q607.6406,456.4473 607.2656,456.4473 Q606.9219,456.4473 606.7188,456.2441 Q606.5156,456.0566 606.4063,455.541 Q606.3594,455.1816 606.1719,454.9941 Q605.8438,454.6191 605.2344,454.4004 Q604.625,454.1816 604,454.1816 Q603.2344,454.1816 602.5938,454.5098 Q601.9688,454.8379 601.4688,455.5879 Q600.9844,456.3379 600.9844,457.3691 L600.9844,458.4629 Q600.9844,459.6973 601.875,460.5254 Q602.7656,461.3379 604.3594,461.3379 Q605.2969,461.3379 605.9531,461.0879 Q606.3438,460.9316 606.7656,460.4941 Q607.0313,460.2285 607.1719,460.1504 Q607.3281,460.0723 607.5313,460.0723 Q607.8594,460.0723 608.1094,460.3379 Q608.375,460.5879 608.375,460.9316 Q608.375,461.2754 608.0313,461.6816 Q607.5313,462.2598 606.7344,462.5879 Q605.6563,463.041 604.3594,463.041 Q602.8438,463.041 601.6406,462.416 Q600.6563,461.916 599.9688,460.8535 Q599.2813,459.7754 599.2813,458.4941 L599.2813,457.3379 Q599.2813,456.0098 599.8906,454.8691 Q600.5156,453.7129 601.6094,453.1035 Q602.7031,452.4785 603.9375,452.4785 Q604.6719,452.4785 605.3125,452.6504 Q605.9688,452.8066 606.5156,453.166 Z " fill="#000000"/><text fill="#000000" font-family="FG Virgil" font-size="12" font-style="italic" lengthAdjust="spacing" textLength="53" x="662.25" y="452.9492">&#171;service&#187;</text><text fill="#000000" font-family="FG Virgil" font-size="14" lengthAdjust="spacing" textLength="129" x="624.25" y="471.0684">AuthorizationService</text><path d="M489.5,479.582 L489.5,479.8623 L499.3919,479.0296 L509.2838,479.8397 L519.1757,480.1149 L529.0676,478.6308 L538.9595,479.4784 L548.8514,479.0134 L558.7432,479.0707 L568.6351,479.4912 L578.527,478.6602 L588.4189,480.3202 L598.3108,478.7417 L608.2027,479.3183 L618.0946,480.158 L627.9865,479.4677 L637.8784,479.673 L647.7703,479.5394 L657.6622,479.8201 L667.5541,479.9009 L677.4459,480.363 L687.3378,480.4768 L697.2297,480.4877 L707.1216,479.9215 L717.0135,480.2001 L726.9054,480.5183 L736.7973,478.6205 L746.6892,480.4867 L756.5811,479.1867 L766.473,480.2938 L776.3649,478.922 L786.2568,479.4907 L796.1486,480.5708 L806.0405,479.5171 L815.9324,479.7224 L825.8243,480.0335 L835.7162,480.137 L845.6081,479.5768 L855.5,479.582 " fill="#F1F1F1" style="stroke:#181818;stroke-width:0.5;"/><path d="M489.5,487.582 L489.5,487.8623 L499.3919,487.0296 L509.2838,487.8397 L519.1757,488.1149 L529.0676,486.6308 L538.9595,487.4784 L548.8514,487.0134 L558.7432,487.0707 L568.6351,487.4912 L578.527,486.6602 L588.4189,488.3202 L598.3108,486.7417 L608.2027,487.3183 L618.0946,488.158 L627.9865,487.4677 L637.8784,487.673 L647.7703,487.5394 L657.6622,487.8201 L667.5541,487.9009 L677.4459,488.363 L687.3378,488.4768 L697.2297,488.4877 L707.1216,487.9215 L717.0135,488.2001 L726.9054,488.5183 L736.7973,486.6205 L746.6892,488.4867 L756.5811,487.1867 L766.473,488.2938 L776.3649,486.922 L786.2568,487.4907 L796.1486,488.5708 L806.0405,487.5171 L815.9324,487.7224 L825.8243,488.0335 L835.7162,488.137 L845.6081,487.5768 L855.5,487.582 " fill="#F1F1F1" style="stroke:#181818;stroke-width:0.5;"/><polygon fill="#F24D5C" points="496.5,499.3926,496.5,499.4626,497.7,499.2545,498.9,499.457,500.1,499.5258,501.3,499.1548,502.5,499.3926,502.4741,499.3926,502.3578,500.5926,502.3722,501.7926,502.4773,502.9926,502.2695,504.1926,502.5,505.3926,502.5,505.5771,501.3,505.1825,500.1,505.3267,498.9,505.5366,497.7,505.364,496.5,505.3926,496.5227,505.3926,496.4894,504.1926,496.5595,502.9926,496.5797,501.7926,496.6952,500.5926,496.5,499.3926" style="stroke:#C82930;stroke-width:1.0;"/><text fill="#000000" font-family="FG Virgil" font-size="14" lengthAdjust="spacing" textLength="342" x="508.5" y="506.6895">ensureAuthenticatedUserHasAnyOf(roles : Set&lt;Role&gt;)</text></g><!--class UserManagementService--><g id="elem_UserManagementService"><polygon fill="#F1F1F1" points="894.5,435,894.5,435.2102,904.543,434.5857,914.586,435.1933,924.629,435.3997,934.672,434.2866,944.7151,434.9223,954.7581,434.5735,964.8011,434.6165,974.8441,434.9318,984.8871,434.3086,994.9301,435.5536,1004.9731,434.3697,1015.0161,434.8022,1025.0591,435.4319,1035.1022,434.9142,1045.1452,435.0682,1055.1882,434.9681,1065.2312,435.1785,1075.2742,435.2391,1085.3172,435.5857,1095.3602,435.6711,1105.4032,435.6793,1115.4462,435.2546,1125.4892,435.4636,1135.5323,435.7022,1145.5753,434.2788,1155.6183,435.6785,1165.6613,434.7035,1175.7043,435.5338,1185.7473,434.505,1195.7903,434.9315,1205.8333,435.7416,1215.8763,434.9513,1225.9194,435.1053,1235.9624,435.3386,1246.0054,435.4162,1256.0484,434.9961,1266.0914,435.2872,1276.1344,434.4276,1286.1774,435.2844,1296.2204,435.5482,1306.2634,435.4445,1316.3065,435.613,1326.3495,434.5169,1336.3925,434.3478,1346.4355,434.3786,1356.4785,434.9411,1366.5215,434.8035,1376.5645,435.6814,1386.6075,434.8253,1396.6505,434.6569,1406.6935,435.2283,1416.7366,434.3332,1426.7796,434.4809,1436.8226,435.649,1446.8656,435.4357,1456.9086,435.7345,1466.9516,434.6782,1476.9946,435.3192,1487.0376,435.5904,1497.0806,434.5276,1507.1237,434.9041,1517.1667,435.126,1527.2097,435.6518,1537.2527,434.9958,1547.2957,435.4626,1557.3387,434.4462,1567.3817,434.3227,1577.4247,435.5036,1587.4677,434.2831,1597.5108,435.509,1607.5538,435.2066,1617.5968,434.7321,1627.6398,434.6462,1637.6828,435.4588,1647.7258,434.7007,1657.7688,435.5919,1667.8118,434.4473,1677.8548,435.6174,1687.8978,435.4843,1697.9409,435.245,1707.9839,435.0472,1718.0269,435.7266,1728.0699,435.6136,1738.1129,435.1693,1748.1559,435.2682,1758.1989,434.8697,1768.2419,435.7165,1778.2849,435.1549,1788.328,435.1726,1798.371,434.3916,1808.414,434.5948,1818.457,435.5307,1828.5,435,1828.5548,435.1323,1828.8481,435.1332,1829.166,435.1937,1829.5327,435.3719,1829.8267,435.3745,1830.2678,435.7322,1830.3955,435.7851,1830.642,436.1801,1830.7228,436.5065,1830.9211,436.8815,1830.8114,437.129,1831,437.5,1831.0872,437.5,1830.6124,448.1004,1831.284,458.7009,1831.2468,469.3013,1831.5524,479.9018,1830.7703,490.5022,1830.8656,501.1027,1831,511.7031,1831.1366,511.7597,1831.0283,512.129,1830.5493,512.3449,1830.501,512.7391,1830.4602,513.1364,1830.2678,513.4709,1830.1898,513.2828,1829.9593,513.7262,1829.5936,513.8432,1829.1943,513.8792,1828.8717,514.1005,1828.5,514.2031,1828.5,514.9318,1818.457,513.8903,1808.414,514.5181,1798.371,514.4888,1788.328,514.3189,1778.2849,514.344,1768.2419,514.3166,1758.1989,513.579,1748.1559,513.8023,1738.1129,513.7416,1728.0699,514.2669,1718.0269,514.2913,1707.9839,514.3649,1697.9409,513.9121,1687.8978,514.1356,1677.8548,514.0829,1667.8118,514.78,1657.7688,514.6297,1647.7258,513.7176,1637.6828,514.1302,1627.6398,513.6259,1617.5968,514.4915,1607.5538,514.8116,1597.5108,514.7477,1587.4677,513.7676,1577.4247,514.6671,1567.3817,513.4603,1557.3387,514.4033,1547.2957,513.9038,1537.2527,514.2998,1527.2097,514.4435,1517.1667,514.6752,1507.1237,513.4832,1497.0806,514.6786,1487.0376,514.3813,1476.9946,514.5585,1466.9516,514.9509,1456.9086,514.2086,1446.8656,514.3784,1436.8226,514.4166,1426.7796,514.4004,1416.7366,514.2023,1406.6935,514.9138,1396.6505,513.5934,1386.6075,514.7684,1376.5645,513.5791,1366.5215,513.6628,1356.4785,514.2431,1346.4355,514.2314,1336.3925,513.7103,1326.3495,514.6168,1316.3065,514.312,1306.2634,514.9298,1296.2204,514.8702,1286.1774,513.7549,1276.1344,513.8052,1266.0914,514.0739,1256.0484,514.5586,1246.0054,514.6061,1235.9624,514.5043,1225.9194,513.8612,1215.8763,514.8395,1205.8333,514.8369,1195.7903,514.1558,1185.7473,513.9641,1175.7043,513.8017,1165.6613,513.9885,1155.6183,514.3405,1145.5753,514.1347,1135.5323,513.7853,1125.4892,514.6905,1115.4462,513.7442,1105.4032,514.7055,1095.3602,514.6304,1085.3172,514.575,1075.2742,514.8956,1065.2312,513.9572,1055.1882,513.9025,1045.1452,514.722,1035.1022,513.6062,1025.0591,513.9691,1015.0161,514.3186,1004.9731,514.2718,994.9301,513.8447,984.8871,514.1601,974.8441,514.9477,964.8011,514.8516,954.7581,513.6068,944.7151,514.2816,934.672,513.6892,924.629,514.1768,914.586,514.4961,904.543,514.623,894.5,514.2031,894.4152,513.9984,894.1975,514.18,893.794,513.9128,893.3685,513.5928,893.0257,513.4723,892.7322,513.4709,892.8328,513.5126,892.6627,513.1492,892.4343,512.7617,892.0859,512.3245,892.3491,512.1406,892,511.7031,891.6882,511.7031,891.4719,501.1027,891.9327,490.5022,892.5897,479.9018,892.6154,469.3013,892.0351,458.7009,891.8488,448.1004,892,437.5,892.0523,437.5217,892.2038,437.1702,892.1365,436.7281,892.5668,436.4921,892.7579,436.1571,892.7322,435.7322,892.7047,435.6658,893.031,435.4536,893.5254,435.6471,893.7956,435.2994,894.1464,435.1464,894.5,435" style="stroke:#181818;stroke-width:0.5;"/><polygon fill="#ADD1B2" points="1289.3108,459.9667,1287.6984,462.1698,1285.7912,465.3967,1283.0636,467.5714,1280.1974,468.7606,1277.912,468.8638,1274.9747,467.3766,1272.2032,466.4049,1270.0995,464.4322,1268.9961,462.1738,1268.3417,460.3756,1267.7006,458.0267,1266.66,456.0055,1267.4596,454.032,1268.1602,451.8702,1270.7893,450.1605,1272.639,447.9421,1274.9284,447.2055,1277.6501,446.5711,1281.1404,446.948,1283.0521,447.8495,1285.2747,448.2582,1287.9772,451.027,1288.9193,453.95,1289.3286,455.9444,1288.865,459.2309" style="stroke:#181818;stroke-width:1.0;"/><path d="M1281.0156,453.166 Q1281.1719,452.9473 1281.3594,452.8379 Q1281.5469,452.7285 1281.7656,452.7285 Q1282.1406,452.7285 1282.375,452.9941 Q1282.6094,453.2441 1282.6094,453.8535 L1282.6094,455.3066 Q1282.6094,455.916 1282.375,456.1816 Q1282.1406,456.4473 1281.7656,456.4473 Q1281.4219,456.4473 1281.2188,456.2441 Q1281.0156,456.0566 1280.9063,455.541 Q1280.8594,455.1816 1280.6719,454.9941 Q1280.3438,454.6191 1279.7344,454.4004 Q1279.125,454.1816 1278.5,454.1816 Q1277.7344,454.1816 1277.0938,454.5098 Q1276.4688,454.8379 1275.9688,455.5879 Q1275.4844,456.3379 1275.4844,457.3691 L1275.4844,458.4629 Q1275.4844,459.6973 1276.375,460.5254 Q1277.2656,461.3379 1278.8594,461.3379 Q1279.7969,461.3379 1280.4531,461.0879 Q1280.8438,460.9316 1281.2656,460.4941 Q1281.5313,460.2285 1281.6719,460.1504 Q1281.8281,460.0723 1282.0313,460.0723 Q1282.3594,460.0723 1282.6094,460.3379 Q1282.875,460.5879 1282.875,460.9316 Q1282.875,461.2754 1282.5313,461.6816 Q1282.0313,462.2598 1281.2344,462.5879 Q1280.1563,463.041 1278.8594,463.041 Q1277.3438,463.041 1276.1406,462.416 Q1275.1563,461.916 1274.4688,460.8535 Q1273.7813,459.7754 1273.7813,458.4941 L1273.7813,457.3379 Q1273.7813,456.0098 1274.3906,454.8691 Q1275.0156,453.7129 1276.1094,453.1035 Q1277.2031,452.4785 1278.4375,452.4785 Q1279.1719,452.4785 1279.8125,452.6504 Q1280.4688,452.8066 1281.0156,453.166 Z " fill="#000000"/><text fill="#000000" font-family="FG Virgil" font-size="12" font-style="italic" lengthAdjust="spacing" textLength="53" x="1351.25" y="452.9492">&#171;service&#187;</text><text fill="#000000" font-family="FG Virgil" font-size="14" lengthAdjust="spacing" textLength="158" x="1298.75" y="471.0684">UserManagementService</text><path d="M893,479.582 L893,479.8623 L902.9681,479.0296 L912.9362,479.8397 L922.9043,480.1149 L932.8723,478.6308 L942.8404,479.4784 L952.8085,479.0134 L962.7766,479.0707 L972.7447,479.4912 L982.7128,478.6602 L992.6809,480.3202 L1002.6489,478.7417 L1012.617,479.3183 L1022.5851,480.158 L1032.5532,479.4677 L1042.5213,479.673 L1052.4894,479.5394 L1062.4574,479.8201 L1072.4255,479.9009 L1082.3936,480.363 L1092.3617,480.4768 L1102.3298,480.4877 L1112.2979,479.9215 L1122.266,480.2001 L1132.234,480.5183 L1142.2021,478.6205 L1152.1702,480.4867 L1162.1383,479.1867 L1172.1064,480.2938 L1182.0745,478.922 L1192.0426,479.4907 L1202.0106,480.5708 L1211.9787,479.5171 L1221.9468,479.7224 L1231.9149,480.0335 L1241.883,480.137 L1251.8511,479.5768 L1261.8191,479.965 L1271.7872,478.8188 L1281.7553,479.9612 L1291.7234,480.313 L1301.6915,480.1747 L1311.6596,480.3994 L1321.6277,478.9379 L1331.5957,478.7125 L1341.5638,478.7535 L1351.5319,479.5035 L1361.5,479.32 L1371.4681,480.4906 L1381.4362,479.3491 L1391.4043,479.1246 L1401.3723,479.8864 L1411.3404,478.6929 L1421.3085,478.8899 L1431.2766,480.4473 L1441.2447,480.1629 L1451.2128,480.5614 L1461.1809,479.153 L1471.1489,480.0076 L1481.117,480.3693 L1491.0851,478.9522 L1501.0532,479.4542 L1511.0213,479.75 L1520.9894,480.451 L1530.9574,479.5764 L1540.9255,480.1988 L1550.8936,478.8437 L1560.8617,478.679 L1570.8298,480.2535 L1580.7979,478.6261 L1590.766,480.2606 L1600.734,479.8575 L1610.7021,479.2248 L1620.6702,479.1103 L1630.6383,480.1937 L1640.6064,479.1829 L1650.5745,480.3712 L1660.5426,478.845 L1670.5106,480.4053 L1680.4787,480.2278 L1690.4468,479.9087 L1700.4149,479.645 L1710.383,480.5508 L1720.3511,480.4001 L1730.3191,479.8077 L1740.2872,479.9396 L1750.2553,479.4083 L1760.2234,480.5373 L1770.1915,479.7885 L1780.1596,479.8121 L1790.1277,478.7709 L1800.0957,479.0417 L1810.0638,480.2897 L1820.0319,480.155 L1830,479.582 " fill="#F1F1F1" style="stroke:#181818;stroke-width:0.5;"/><path d="M893,487.582 L893,487.8623 L902.9681,487.0296 L912.9362,487.8397 L922.9043,488.1149 L932.8723,486.6308 L942.8404,487.4784 L952.8085,487.0134 L962.7766,487.0707 L972.7447,487.4912 L982.7128,486.6602 L992.6809,488.3202 L1002.6489,486.7417 L1012.617,487.3183 L1022.5851,488.158 L1032.5532,487.4677 L1042.5213,487.673 L1052.4894,487.5394 L1062.4574,487.8201 L1072.4255,487.9009 L1082.3936,488.363 L1092.3617,488.4768 L1102.3298,488.4877 L1112.2979,487.9215 L1122.266,488.2001 L1132.234,488.5183 L1142.2021,486.6205 L1152.1702,488.4867 L1162.1383,487.1867 L1172.1064,488.2938 L1182.0745,486.922 L1192.0426,487.4907 L1202.0106,488.5708 L1211.9787,487.5171 L1221.9468,487.7224 L1231.9149,488.0335 L1241.883,488.137 L1251.8511,487.5768 L1261.8191,487.965 L1271.7872,486.8188 L1281.7553,487.9612 L1291.7234,488.313 L1301.6915,488.1747 L1311.6596,488.3994 L1321.6277,486.9379 L1331.5957,486.7125 L1341.5638,486.7535 L1351.5319,487.5035 L1361.5,487.32 L1371.4681,488.4906 L1381.4362,487.3491 L1391.4043,487.1246 L1401.3723,487.8864 L1411.3404,486.6929 L1421.3085,486.8899 L1431.2766,488.4473 L1441.2447,488.1629 L1451.2128,488.5614 L1461.1809,487.153 L1471.1489,488.0076 L1481.117,488.3693 L1491.0851,486.9522 L1501.0532,487.4542 L1511.0213,487.75 L1520.9894,488.451 L1530.9574,487.5764 L1540.9255,488.1988 L1550.8936,486.8437 L1560.8617,486.679 L1570.8298,488.2535 L1580.7979,486.6261 L1590.766,488.2606 L1600.734,487.8575 L1610.7021,487.2248 L1620.6702,487.1103 L1630.6383,488.1937 L1640.6064,487.1829 L1650.5745,488.3712 L1660.5426,486.845 L1670.5106,488.4053 L1680.4787,488.2278 L1690.4468,487.9087 L1700.4149,487.645 L1710.383,488.5508 L1720.3511,488.4001 L1730.3191,487.8077 L1740.2872,487.9396 L1750.2553,487.4083 L1760.2234,488.5373 L1770.1915,487.7885 L1780.1596,487.8121 L1790.1277,486.7709 L1800.0957,487.0417 L1810.0638,488.2897 L1820.0319,488.155 L1830,487.582 " fill="#F1F1F1" style="stroke:#181818;stroke-width:0.5;"/><polygon fill="#F24D5C" points="900,499.3926,900,499.4626,901.2,499.2545,902.4,499.457,903.6,499.5258,904.8,499.1548,906,499.3926,905.9741,499.3926,905.8578,500.5926,905.8722,501.7926,905.9773,502.9926,905.7695,504.1926,906,505.3926,906,505.5771,904.8,505.1825,903.6,505.3267,902.4,505.5366,901.2,505.364,900,505.3926,900.0227,505.3926,899.9894,504.1926,900.0595,502.9926,900.0797,501.7926,900.1952,500.5926,900,499.3926" style="stroke:#C82930;stroke-width:1.0;"/><text fill="#000000" font-family="FG Virgil" font-size="14" lengthAdjust="spacing" textLength="913" x="912" y="506.6895">registerUser(email : String, password : String, firstName : String, lastname : String, email : String, roles : Set&lt;Role&gt;, time : CurrentTimeCalendars)</text></g><!--class SystemUserBuilder--><g id="elem_SystemUserBuilder"><polygon fill="#F1F1F1" points="1417.5,602,1417.5,602.2102,1427.2333,601.5857,1436.9667,602.1933,1446.7,602.3997,1456.4333,601.2866,1466.1667,601.9223,1475.9,601.5735,1485.6333,601.6165,1495.3667,601.9318,1505.1,601.3086,1514.8333,602.5536,1524.5667,601.3697,1534.3,601.8022,1544.0333,602.4319,1553.7667,601.9142,1563.5,602,1563.5087,602.021,1563.8495,602.1366,1564.2299,602.3479,1564.5912,602.513,1564.9889,602.7662,1565.2678,602.7322,1565.4744,602.8178,1565.6234,603.1724,1565.6391,603.4718,1565.8499,603.852,1566.0698,604.236,1566,604.5,1565.2788,604.5,1566.6785,613.7637,1565.7035,623.0273,1566.5338,632.291,1565.505,641.5547,1565.9315,650.8184,1566,660.082,1566.2284,660.1766,1565.8385,660.4294,1565.7395,660.8026,1565.6649,661.1859,1565.5424,661.5493,1565.2678,661.8498,1565.2673,661.8486,1564.9509,662.0847,1564.4876,661.9664,1564.2434,662.3767,1563.9235,662.6044,1563.5,662.582,1563.5,663.0266,1553.7667,663.1951,1544.0333,662.099,1534.3,661.9298,1524.5667,661.9606,1514.8333,662.5232,1505.1,662.3855,1495.3667,663.2634,1485.6333,662.4074,1475.9,662.239,1466.1667,662.8103,1456.4333,661.9152,1446.7,662.0629,1436.9667,663.231,1427.2333,663.0177,1417.5,662.582,1417.5937,662.8082,1417.1054,662.3365,1416.8336,662.3874,1416.5147,662.3245,1416.0255,661.8508,1415.7322,661.8498,1415.7027,661.8376,1415.6246,661.5123,1415.6401,661.2258,1415.2916,660.7886,1415.2889,660.4946,1415,660.082,1414.4462,660.082,1414.3227,650.8184,1415.5036,641.5547,1414.2831,632.291,1415.509,623.0273,1415.2066,613.7637,1415,604.5,1414.9175,604.4658,1415.0375,604.1013,1415.4342,603.8514,1415.3472,603.4012,1415.7681,603.1613,1415.7322,602.7322,1415.6617,602.562,1416.1645,602.7759,1416.5011,602.5885,1416.8241,602.3683,1417.1525,602.161,1417.5,602" style="stroke:#181818;stroke-width:0.5;"/><polygon fill="#ADD1B2" points="1441.0608,626.9667,1439.4484,629.1698,1437.5412,632.3967,1434.8136,634.5714,1431.9474,635.7606,1429.662,635.8638,1426.7247,634.3766,1423.9532,633.4049,1421.8495,631.4322,1420.7461,629.1738,1420.0917,627.3756,1419.4506,625.0267,1418.41,623.0055,1419.2096,621.032,1419.9102,618.8702,1422.5393,617.1605,1424.389,614.9421,1426.6784,614.2055,1429.4001,613.5711,1432.8904,613.948,1434.8021,614.8495,1437.0247,615.2582,1439.7272,618.027,1440.6693,620.95,1441.0786,622.9444,1440.615,626.2309" style="stroke:#181818;stroke-width:1.0;"/><path d="M1432.7656,620.166 Q1432.9219,619.9473 1433.1094,619.8379 Q1433.2969,619.7285 1433.5156,619.7285 Q1433.8906,619.7285 1434.125,619.9941 Q1434.3594,620.2441 1434.3594,620.8535 L1434.3594,622.3066 Q1434.3594,622.916 1434.125,623.1816 Q1433.8906,623.4473 1433.5156,623.4473 Q1433.1719,623.4473 1432.9688,623.2441 Q1432.7656,623.0566 1432.6563,622.541 Q1432.6094,622.1816 1432.4219,621.9941 Q1432.0938,621.6191 1431.4844,621.4004 Q1430.875,621.1816 1430.25,621.1816 Q1429.4844,621.1816 1428.8438,621.5098 Q1428.2188,621.8379 1427.7188,622.5879 Q1427.2344,623.3379 1427.2344,624.3691 L1427.2344,625.4629 Q1427.2344,626.6973 1428.125,627.5254 Q1429.0156,628.3379 1430.6094,628.3379 Q1431.5469,628.3379 1432.2031,628.0879 Q1432.5938,627.9316 1433.0156,627.4941 Q1433.2813,627.2285 1433.4219,627.1504 Q1433.5781,627.0723 1433.7813,627.0723 Q1434.1094,627.0723 1434.3594,627.3379 Q1434.625,627.5879 1434.625,627.9316 Q1434.625,628.2754 1434.2813,628.6816 Q1433.7813,629.2598 1432.9844,629.5879 Q1431.9063,630.041 1430.6094,630.041 Q1429.0938,630.041 1427.8906,629.416 Q1426.9063,628.916 1426.2188,627.8535 Q1425.5313,626.7754 1425.5313,625.4941 L1425.5313,624.3379 Q1425.5313,623.0098 1426.1406,621.8691 Q1426.7656,620.7129 1427.8594,620.1035 Q1428.9531,619.4785 1430.1875,619.4785 Q1430.9219,619.4785 1431.5625,619.6504 Q1432.2188,619.8066 1432.7656,620.166 Z " fill="#000000"/><text fill="#000000" font-family="FG Virgil" font-size="12" font-style="italic" lengthAdjust="spacing" textLength="53" x="1477" y="619.9492">&#171;builder&#187;</text><text fill="#000000" font-family="FG Virgil" font-size="14" lengthAdjust="spacing" textLength="119" x="1444" y="638.0684">SystemUserBuilder</text><path d="M1416,646.582 L1416,646.8623 L1425.9333,646.0296 L1435.8667,646.8397 L1445.8,647.1149 L1455.7333,645.6308 L1465.6667,646.4784 L1475.6,646.0134 L1485.5333,646.0707 L1495.4667,646.4912 L1505.4,645.6602 L1515.3333,647.3202 L1525.2667,645.7417 L1535.2,646.3183 L1545.1333,647.158 L1555.0667,646.4677 L1565,646.582 " fill="#F1F1F1" style="stroke:#181818;stroke-width:0.5;"/><path d="M1416,654.582 L1416,654.8623 L1425.9333,654.0296 L1435.8667,654.8397 L1445.8,655.1149 L1455.7333,653.6308 L1465.6667,654.4784 L1475.6,654.0134 L1485.5333,654.0707 L1495.4667,654.4912 L1505.4,653.6602 L1515.3333,655.3202 L1525.2667,653.7417 L1535.2,654.3183 L1545.1333,655.158 L1555.0667,654.4677 L1565,654.582 " fill="#F1F1F1" style="stroke:#181818;stroke-width:0.5;"/></g><!--class SystemUser--><g id="elem_SystemUser"><polygon fill="#F1F1F1" points="1439.5,760,1439.5,760.2102,1449.7,759.5857,1459.9,760.1933,1470.1,760.3997,1480.3,759.2866,1490.5,759.9223,1500.7,759.5735,1510.9,759.6165,1521.1,759.9318,1531.3,759.3086,1541.5,760,1541.5706,760.1705,1541.7732,759.9523,1542.1819,760.232,1542.6158,760.5724,1542.9033,760.5594,1543.2678,760.7322,1543.2888,760.7409,1543.4044,761.0817,1543.6156,761.4621,1543.7808,761.8234,1544.0339,762.2212,1544,762.5,1544.6711,762.5,1544.6793,771.7637,1544.2546,781.0273,1544.4636,790.291,1544.7022,799.5547,1543.2788,808.8184,1544,818.082,1544.209,818.1686,1543.7622,818.3978,1543.8715,818.8572,1543.4082,819.0795,1543.3931,819.4875,1543.2678,819.8498,1543.3624,820.0782,1542.908,819.9812,1542.5741,820.1751,1542.2503,820.3934,1541.9066,820.5638,1541.5,820.582,1541.5,820.5781,1531.3,820.8692,1521.1,820.0096,1510.9,820.8664,1500.7,821.1302,1490.5,821.0266,1480.3,821.1951,1470.1,820.099,1459.9,819.9298,1449.7,819.9606,1439.5,820.582,1439.4925,820.5639,1439.1214,820.3751,1438.8798,820.499,1438.4171,820.0889,1438.042,819.8906,1437.7322,819.8498,1437.8025,819.8789,1437.3804,819.4112,1437.2795,819.0765,1437.4927,818.8719,1437.2806,818.4912,1437,818.082,1437.7345,818.082,1436.6782,808.8184,1437.3192,799.5547,1437.5904,790.291,1436.5276,781.0273,1436.9041,771.7637,1437,762.5,1437.0388,762.5161,1437.3472,762.2296,1437.2916,761.7924,1437.5818,761.4983,1437.4152,761.0151,1437.7322,760.7322,1437.6458,760.5237,1438.15,760.7409,1438.3479,760.2186,1438.8578,760.4496,1439.1728,760.2101,1439.5,760" style="stroke:#181818;stroke-width:0.5;"/><polygon fill="#ADD1B2" points="1463.0608,784.9667,1461.4484,787.1698,1459.5412,790.3967,1456.8136,792.5714,1453.9474,793.7606,1451.662,793.8638,1448.7247,792.3766,1445.9532,791.4049,1443.8495,789.4322,1442.7461,787.1738,1442.0917,785.3756,1441.4506,783.0267,1440.41,781.0055,1441.2096,779.032,1441.9102,776.8702,1444.5393,775.1605,1446.389,772.9421,1448.6784,772.2055,1451.4001,771.5711,1454.8904,771.948,1456.8021,772.8495,1459.0247,773.2582,1461.7272,776.027,1462.6693,778.95,1463.0786,780.9444,1462.615,784.2309" style="stroke:#181818;stroke-width:1.0;"/><path d="M1454.7656,778.166 Q1454.9219,777.9473 1455.1094,777.8379 Q1455.2969,777.7285 1455.5156,777.7285 Q1455.8906,777.7285 1456.125,777.9941 Q1456.3594,778.2441 1456.3594,778.8535 L1456.3594,780.3066 Q1456.3594,780.916 1456.125,781.1816 Q1455.8906,781.4473 1455.5156,781.4473 Q1455.1719,781.4473 1454.9688,781.2441 Q1454.7656,781.0566 1454.6563,780.541 Q1454.6094,780.1816 1454.4219,779.9941 Q1454.0938,779.6191 1453.4844,779.4004 Q1452.875,779.1816 1452.25,779.1816 Q1451.4844,779.1816 1450.8438,779.5098 Q1450.2188,779.8379 1449.7188,780.5879 Q1449.2344,781.3379 1449.2344,782.3691 L1449.2344,783.4629 Q1449.2344,784.6973 1450.125,785.5254 Q1451.0156,786.3379 1452.6094,786.3379 Q1453.5469,786.3379 1454.2031,786.0879 Q1454.5938,785.9316 1455.0156,785.4941 Q1455.2813,785.2285 1455.4219,785.1504 Q1455.5781,785.0723 1455.7813,785.0723 Q1456.1094,785.0723 1456.3594,785.3379 Q1456.625,785.5879 1456.625,785.9316 Q1456.625,786.2754 1456.2813,786.6816 Q1455.7813,787.2598 1454.9844,787.5879 Q1453.9063,788.041 1452.6094,788.041 Q1451.0938,788.041 1449.8906,787.416 Q1448.9063,786.916 1448.2188,785.8535 Q1447.5313,784.7754 1447.5313,783.4941 L1447.5313,782.3379 Q1447.5313,781.0098 1448.1406,779.8691 Q1448.7656,778.7129 1449.8594,778.1035 Q1450.9531,777.4785 1452.1875,777.4785 Q1452.9219,777.4785 1453.5625,777.6504 Q1454.2188,777.8066 1454.7656,778.166 Z " fill="#000000"/><text fill="#000000" font-family="FG Virgil" font-size="12" font-style="italic" lengthAdjust="spacing" textLength="56" x="1475.5" y="777.9492">&#171;domain&#187;</text><text fill="#000000" font-family="FG Virgil" font-size="14" lengthAdjust="spacing" textLength="75" x="1466" y="796.0684">SystemUser</text><path d="M1438,804.582 L1438,804.8623 L1447.5455,804.0296 L1457.0909,804.8397 L1466.6364,805.1149 L1476.1818,803.6308 L1485.7273,804.4784 L1495.2727,804.0134 L1504.8182,804.0707 L1514.3636,804.4912 L1523.9091,803.6602 L1533.4545,805.3202 L1543,804.582 " fill="#F1F1F1" style="stroke:#181818;stroke-width:0.5;"/><path d="M1438,812.582 L1438,812.8623 L1447.5455,812.0296 L1457.0909,812.8397 L1466.6364,813.1149 L1476.1818,811.6308 L1485.7273,812.4784 L1495.2727,812.0134 L1504.8182,812.0707 L1514.3636,812.4912 L1523.9091,811.6602 L1533.4545,813.3202 L1543,812.582 " fill="#F1F1F1" style="stroke:#181818;stroke-width:0.5;"/></g><!--link AddBackofficeUserUI to AddBackofficeUserController--><g id="link_AddBackofficeUserUI_AddBackofficeUserController"><path d="M523.5,142.29 L523.7802,142.29 L522.9476,152.7714 L523.7577,163.2529 L524.0329,173.7343 L522.5488,184.2157 L523.3964,194.6971 L522.9313,205.1786 L523.5,215.66 " fill="none" style="stroke:#181818;stroke-width:1.0;"/><polygon fill="#181818" points="523.5,220.68,523.564,220.7085,524.1738,218.8239,525.1589,217.1062,526.0217,215.3341,526.4827,213.3834,527.5,211.68,527.4817,211.6617,526.5995,212.3795,525.8096,213.1896,525.0839,214.0639,524.137,214.717,523.5,215.68,523.6305,215.8105,522.5514,214.7314,521.8534,214.0334,521.2018,213.3818,520.2798,212.4598,519.5,211.68,519.5208,211.6892,520.2903,213.4757,521.1544,215.3042,521.9728,217.1124,522.8784,218.9593,523.5,220.68" style="stroke:#181818;stroke-width:1.0;"/><text fill="#000000" font-family="FG Virgil" font-size="13" lengthAdjust="spacing" textLength="73" x="524.5" y="187.0283">theController</text></g><!--link UserManagementService to PersistenceContext--><g id="link_UserManagementService_PersistenceContext"><path d="M1295.27,514.13 L1295.3289,514.2025 L1293.4778,515.3468 L1291.9717,516.9163 L1290.3533,518.3474 L1288.3654,519.323 L1286.8889,520.9291 L1286.8658,520.9034 L1285.1548,522.2401 L1283.5606,523.706 L1282.0475,525.2616 L1280.2548,526.5078 L1278.8538,528.1875 L1279.0298,528.3594 L1277.1495,529.5312 L1275.7831,531.205 L1274.4794,532.94 L1272.8109,534.3186 L1271.3342,535.8847 L1271.3574,535.9042 L1269.9565,537.4986 L1268.6612,539.1819 L1267.315,540.8223 L1266.066,542.5446 L1264.5,544 L1264.7463,544.1681 L1263.3629,546.2013 L1261.8205,548.1261 L1260.5108,550.2095 L1259.2119,552.3005 L1257.5677,554.1556 L1257.2861,554.0024 L1256.6382,556.4937 L1255.0634,558.4804 L1254.1932,560.8507 L1252.5973,562.8259 L1251.5963,565.125 L1251.5684,565.1126 L1250.8833,567.5312 L1249.5487,569.6599 L1248.5973,571.9597 L1247.6781,574.2738 L1246.5267,576.4844 L1246.7,576.5491 L1245.6797,578.7489 L1244.9556,581.0593 L1243.7523,583.1908 L1243.2638,585.5891 L1242.3,587.81 " fill="none" style="stroke:#181818;stroke-width:1.0;"/><polygon fill="#181818" points="1240.66,592.81,1240.7118,592.8571,1241.8834,591.26,1243.3587,589.9393,1244.7351,588.5285,1245.7862,586.8218,1247.2876,585.5248,1247.276,585.5016,1246.2128,585.9055,1245.2082,586.4261,1244.2444,587.0278,1243.1401,587.35,1242.2326,588.0637,1242.3975,588.1466,1241.537,586.9584,1241.1581,586.0121,1240.8378,585.0953,1240.1758,584.0069,1239.6936,583.0087,1239.7162,583.0109,1239.8763,584.9679,1240.1394,586.935,1240.3528,588.8973,1240.661,590.8689,1240.66,592.81" style="stroke:#181818;stroke-width:1.0;"/><text fill="#000000" font-family="FG Virgil" font-size="13" lengthAdjust="spacing" textLength="69" x="1265.5" y="559.0283">Persistence</text></g><!--link PersistenceContext to RepositoryFactory--><g id="link_PersistenceContext_RepositoryFactory"><path d="M1231.99,672.06 L1232.2702,672.0636 L1231.5733,682.57 L1232.5191,693.0976 L1232.93,703.6183 L1231.5817,714.1163 L1232.565,724.6444 L1232.2357,735.1555 L1232.94,745.68 " fill="none" style="stroke:#181818;stroke-width:1.0;"/><polygon fill="#181818" points="1233,750.84,1233.0643,750.8677,1233.6525,748.9763,1234.6179,747.2474,1235.4605,745.4656,1235.8991,743.5098,1236.8969,741.7949,1236.8784,741.7768,1236.0044,742.5046,1235.2239,743.3237,1234.5082,744.2063,1233.5689,744.8702,1232.9429,745.8403,1233.0719,745.9723,1231.9869,744.8993,1231.2786,744.2116,1230.6162,743.5709,1229.6865,742.6567,1228.8974,741.8863,1228.9181,741.8958,1229.7082,743.6726,1230.5925,745.4926,1231.4314,747.2917,1232.357,749.1306,1233,750.84" style="stroke:#181818;stroke-width:1.0;"/><text fill="#000000" font-family="FG Virgil" font-size="13" lengthAdjust="spacing" textLength="39" x="1234.5" y="717.0283">factory</text></g><!--link RepositoryFactory to UserRepository--><g id="link_RepositoryFactory_UserRepository"><path d="M1235.13,830.06 L1235.2226,830.0722 L1235.2673,832.4557 L1235.8549,834.9109 L1236.2657,837.3427 L1236.0952,839.6977 L1236.7294,842.1591 L1236.6954,842.1527 L1237.0107,844.6239 L1237.4971,847.1271 L1238.1025,849.6526 L1238.2978,852.1013 L1239.0675,854.6575 L1239.3057,854.719 L1239.4387,857.0744 L1240.2671,859.6094 L1241.1805,862.1663 L1241.6001,864.5957 L1242.2794,867.0922 L1242.308,867.1023 L1243.1101,869.469 L1244.0424,871.8818 L1244.9119,874.2724 L1245.9012,876.7054 L1246.5,879 L1246.7678,879.1313 L1248.0486,881.7394 L1249.1566,884.2628 L1250.5175,886.9102 L1251.8903,889.5634 L1252.8875,892.0325 L1252.6151,891.8636 L1254.6943,894.6929 L1255.8765,896.9661 L1257.7407,899.662 L1258.9025,901.9226 L1260.64,904.54 " fill="none" style="stroke:#181818;stroke-width:1.0;"/><polygon fill="#181818" points="1263.73,908.96,1263.7988,908.9733,1263.2216,906.9997,1263.0477,905.1038,1262.7425,903.1827,1262.0054,901.1783,1261.8661,899.2891,1261.8406,899.2846,1261.5272,900.3779,1261.3424,901.4941,1261.2469,902.6263,1260.8434,903.7035,1260.8713,904.8578,1260.9038,905.0395,1259.7206,904.452,1258.6323,904.395,1257.5554,904.4027,1256.4113,904.0338,1255.3026,903.863,1255.3144,903.8825,1256.9826,904.8733,1258.7044,905.9527,1260.4003,906.9894,1262.1456,908.1076,1263.73,908.96" style="stroke:#181818;stroke-width:1.0;"/><text fill="#000000" font-family="FG Virgil" font-size="13" lengthAdjust="spacing" textLength="87" x="1247.5" y="875.0283">userRepository</text></g><!--link AddBackofficeUserController to Jobs4uRoles--><g id="link_AddBackofficeUserController_Jobs4uRoles"><path d="M402.08,356.19 L402.2149,356.4356 L393.1384,360.4708 L384.8528,365.9459 L376.3097,370.9521 L366.9196,374.4163 L358.652,379.9242 L349.7525,384.2816 L341.1045,389.0968 L332.6313,394.2303 L323.5556,398.267 L315.6791,404.487 L306.2436,407.8684 L297.8456,413.1389 L289.5741,418.6398 L280.5662,422.7998 L271.9894,427.7447 L263.27,432.43 " fill="none" style="stroke:#181818;stroke-width:1.0;"/><polygon fill="#181818" points="258.86,434.86,258.8659,434.9298,260.8113,434.5574,262.7911,434.5942,264.7597,434.4977,266.6915,433.963,268.6742,434.035,268.667,434.0101,267.5482,433.5822,266.466,433.2797,265.4091,433.0644,264.2647,432.5487,263.2429,432.4537,263.4201,432.5053,263.3574,431.3087,263.8121,430.2627,264.3299,429.2351,264.4805,428.1006,264.8242,427.0224,264.8423,427.0361,263.6229,428.5834,262.4859,430.1935,261.3091,431.7732,260.2082,433.4107,258.86,434.86" style="stroke:#181818;stroke-width:1.0;"/><text fill="#000000" font-family="FG Virgil" font-size="13" lengthAdjust="spacing" textLength="71" x="347.5" y="401.0283">jobs4uRoles</text></g><!--link AddBackofficeUserController to PasswordGenerator--><g id="link_AddBackofficeUserController_PasswordGenerator"><path d="M469.5,356.19 L469.7178,356.3664 L463.0297,363.3023 L457.6183,371.2722 L451.7911,378.9054 L444.5968,385.4314 L439.2145,393.4248 L432.8121,400.5921 L426.8156,408.0882 L421.1014,415.8128 L414.4146,422.7499 L409.09,430.79 " fill="none" style="stroke:#181818;stroke-width:1.0;"/><polygon fill="#181818" points="405.79,434.86,405.8219,434.9224,407.4811,433.8406,409.3273,433.1245,411.1126,432.2894,412.6977,431.0626,414.5599,430.3779,414.5571,430.3521,413.4198,430.3554,412.2962,430.4886,411.1822,430.712,410.0352,430.6244,408.9343,430.9724,409.1179,430.9918,408.6065,429.8253,408.631,428.7153,408.7208,427.6123,408.4303,426.469,408.3398,425.3469,408.3617,425.3528,407.8195,427.2468,407.3773,429.1676,406.8869,431.0754,406.4885,433.0079,405.79,434.86" style="stroke:#181818;stroke-width:1.0;"/><text fill="#000000" font-family="FG Virgil" font-size="13" lengthAdjust="spacing" textLength="112" x="446.5" y="401.0283">passwordGenerator</text></g><!--link AddBackofficeUserController to AuthorizationService--><g id="link_AddBackofficeUserController_AuthorizationService"><path d="M577.5,356.19 L577.7178,356.3664 L583.1117,363.3023 L589.7823,371.2722 L596.0371,378.9054 L600.9248,385.4314 L607.6245,393.4248 L613.3041,400.5921 L619.3896,408.0882 L625.7574,415.8128 L631.1526,422.7499 L637.91,430.79 " fill="none" style="stroke:#181818;stroke-width:1.0;"/><polygon fill="#181818" points="641.21,434.86,641.2777,434.8781,640.5666,432.9216,640.2523,431.0714,639.8088,429.1866,638.9405,427.188,638.6602,425.3469,638.6345,425.3442,638.3999,426.4571,638.2953,427.5837,638.2809,428.7198,637.9554,429.8231,638.0657,430.9724,638.0851,431.156,636.9185,430.6446,635.8085,430.6691,634.7055,430.7589,633.5622,430.4684,632.4401,430.3779,632.4505,430.3981,634.1893,431.2648,635.9752,432.2237,637.7383,433.1381,639.5449,434.1374,641.21,434.86" style="stroke:#181818;stroke-width:1.0;"/><text fill="#000000" font-family="FG Virgil" font-size="13" lengthAdjust="spacing" textLength="32" x="617.5" y="401.0283">authz</text></g><!--link AddBackofficeUserController to UserManagementService--><g id="link_AddBackofficeUserController_UserManagementService"><path d="M826.63,356.06 L826.6901,356.3337 L836.354,357.6815 L846.3703,360.6339 L856.2718,363.0638 L865.796,363.7754 L875.8203,366.7643 L885.563,368.4712 L895.4178,370.6883 L905.3505,373.2601 L915.0148,374.6096 L925.2133,378.3921 L934.7173,379.0114 L944.6834,381.7358 L954.706,384.717 L964.4005,386.2038 L974.287,388.5655 L984.1009,390.5962 L994.0035,393.0314 L1003.8634,395.2714 L1013.805,397.8839 L1023.6719,400.1561 L1033.5167,402.3279 L1043.2378,403.936 L1053.1401,406.3693 L1063.0508,408.8412 L1072.4863,409.1486 L1082.729,413.1325 L1092.2927,414.0239 L1102.3726,417.2663 L1111.9209,418.0875 L1121.8854,420.8041 L1131.9596,424.0202 L1141.5761,425.1521 L1151.4626,427.5138 L1161.3718,429.9788 L1171.2365,432.241 L1180.96,433.86 " fill="none" style="stroke:#181818;stroke-width:1.0;"/><polygon fill="#181818" points="1185.86,434.93,1185.9015,434.9864,1184.1913,433.6517,1182.7245,432.6479,1181.1784,431.5363,1179.3717,430.0704,1177.9257,429.095,1177.9039,429.081,1178.4161,429.9711,1179.0382,430.9316,1179.7368,431.9411,1180.1719,432.7819,1180.9761,433.859,1181.0756,434.0144,1179.91,434.2921,1179.0349,435.0236,1178.1953,435.8104,1177.1495,436.2751,1176.2121,436.9093,1176.2166,436.9316,1178.1395,436.503,1180.0832,436.1759,1182.0168,435.7998,1183.9696,435.5171,1185.86,434.93" style="stroke:#181818;stroke-width:1.0;"/><text fill="#000000" font-family="FG Virgil" font-size="13" lengthAdjust="spacing" textLength="46" x="1043.5" y="401.0283">userSvc</text></g><!--link UserManagementService to SystemUserBuilder--><g id="link_UserManagementService_SystemUserBuilder"><path d="M1393.39,514.06 L1393.606,514.2386 L1399.2606,521.3225 L1406.1813,529.4533 L1412.6898,537.2432 L1417.8424,543.912 L1424.792,552.0667 L1430.7299,559.3849 L1437.0705,567.036 L1443.6909,574.9185 L1449.3469,582.0035 L1456.9225,590.6759 L1462.65,597.82 " fill="none" style="stroke:#181818;stroke-width:1.0;"/><polygon fill="#181818" points="1465.85,601.69,1465.9174,601.709,1465.1842,599.7563,1464.8462,597.9148,1464.3796,596.0371,1463.4895,594.0404,1463.1855,592.2084,1463.1597,592.206,1462.9387,593.3216,1462.8476,594.4494,1462.847,595.5857,1462.5348,596.6928,1462.6589,597.8407,1462.6761,598.0244,1461.5129,597.5262,1460.3999,597.5644,1459.293,597.6681,1458.1504,597.391,1457.0267,597.3141,1457.0368,597.3345,1458.7866,598.1797,1460.5824,599.1178,1462.3561,600.0111,1464.1721,600.9897,1465.85,601.69" style="stroke:#181818;stroke-width:1.0;"/><text fill="#000000" font-family="FG Virgil" font-size="13" lengthAdjust="spacing" textLength="65" x="1435.5" y="559.0283">userBuilder</text></g><!--link SystemUserBuilder to SystemUser--><g id="link_SystemUserBuilder_SystemUser"><path d="M1490.5,663.21 L1490.7802,663.21 L1489.9476,673.3967 L1490.7577,683.5833 L1491.0329,693.77 L1489.5488,703.9567 L1490.3964,714.1433 L1489.9313,724.33 L1489.9887,734.5167 L1490.4091,744.7033 L1490.5,754.89 " fill="none" style="stroke:#181818;stroke-width:1.0;"/><polygon fill="#181818" points="1490.5,759.9,1490.564,759.9285,1491.1738,758.0439,1492.1589,756.3262,1493.0217,754.5541,1493.4827,752.6034,1494.5,750.9,1494.4817,750.8817,1493.5995,751.5995,1492.8096,752.4096,1492.0839,753.2839,1491.137,753.937,1490.5,754.9,1490.6305,755.0305,1489.5514,753.9514,1488.8534,753.2534,1488.2018,752.6018,1487.2798,751.6798,1486.5,750.9,1486.5208,750.9092,1487.2903,752.6957,1488.1544,754.5242,1488.9728,756.3324,1489.8784,758.1793,1490.5,759.9" style="stroke:#181818;stroke-width:1.0;"/></g><!--link UserManagementService to UserRepository--><g id="link_UserManagementService_UserRepository"><path d="M1365.56,514.15 L1365.6531,514.1575 L1365.6151,517.083 L1366.1229,520.0526 L1366.453,523.0079 L1366.1986,525.9158 L1366.7532,528.8892 L1366.7188,528.8868 L1366.7949,532.2085 L1367.0448,535.5421 L1367.4154,538.8841 L1367.3699,542.1973 L1367.9073,545.5509 L1368.153,545.5648 L1367.8361,549.2156 L1368.2366,552.9069 L1368.7245,556.6033 L1368.7033,560.2708 L1368.9499,563.9534 L1368.9802,563.9547 L1369.1075,567.9452 L1369.3728,571.9416 L1369.5715,575.9351 L1369.8972,579.9341 L1369.8089,583.9153 L1370.107,583.9237 L1370.2313,588.1918 L1370.1633,592.4544 L1370.3767,596.7249 L1370.6034,600.9958 L1370.412,605.255 L1370.0915,605.251 L1370.7686,609.7658 L1370.3902,614.2677 L1370.8142,618.7794 L1370.412,623.281 L1370.687,627.7908 L1370.6566,627.7907 L1370.9915,632.5027 L1370.6152,637.2109 L1370.6586,641.9214 L1370.7372,646.632 L1370.5617,651.3414 L1370.7466,651.3459 L1370.4403,656.218 L1370.4501,661.0979 L1369.9486,665.9653 L1370.2097,670.8514 L1369.9638,675.725 L1370.2071,675.7361 L1369.9326,680.7411 L1369.7788,685.7515 L1369.0636,690.7363 L1368.76,695.74 L1368.821,700.7602 L1368.5454,700.7429 L1368.6353,703.2996 L1368.4146,705.8368 L1368.6443,708.4023 L1368.105,710.9195 L1368.0228,713.4654 L1367.8708,713.454 L1367.9317,716.033 L1367.3426,718.5632 L1367.2158,721.1281 L1367.5412,723.727 L1367.0613,726.2654 L1367.2542,726.2824 L1367.1597,728.8685 L1366.4653,731.4017 L1366.5223,734.0012 L1366.4156,736.5862 L1365.9274,739.1376 L1365.7186,739.1163 L1365.622,741.7176 L1365.4571,744.3118 L1365.4265,746.9198 L1364.8734,749.4746 L1364.6122,752.0591 L1364.8165,752.0829 L1364.0667,754.6203 L1363.711,757.2037 L1363.9312,759.8539 L1363.0913,762.3809 L1363.1067,765.0074 L1363.331,765.0369 L1362.8567,767.6098 L1362.3066,770.1728 L1361.9278,772.7582 L1361.9449,775.3958 L1361.4017,777.9597 L1361.2701,777.9402 L1361.2793,780.5849 L1360.3933,783.0972 L1360.5251,785.76 L1360.0839,788.3381 L1359.4883,790.8933 L1359.5957,790.9111 L1359.0829,793.4752 L1358.9546,796.1029 L1358.4789,798.6732 L1357.8579,801.2194 L1357.3575,803.7856 L1357.4747,803.8072 L1356.8291,806.3408 L1356.7277,808.9745 L1356.0108,811.495 L1355.547,814.0621 L1355.0001,816.6139 L1354.7352,816.5599 L1354.3051,819.1262 L1354.1941,821.7575 L1353.6316,824.2968 L1352.9071,826.8032 L1352.4072,829.3554 L1352.2675,829.324 L1351.7448,831.8604 L1350.9747,834.3413 L1350.8846,836.975 L1350.458,839.533 L1349.5698,841.9874 L1349.7969,842.0436 L1349.2515,844.5615 L1348.2744,846.9728 L1347.7529,849.4967 L1346.9298,851.946 L1346.4788,854.4873 L1346.6007,854.5204 L1345.914,856.9851 L1345.3743,859.4897 L1344.3682,861.8676 L1343.7383,864.3477 L1343.1252,866.8324 L1343.3141,866.8887 L1342.6418,869.3379 L1341.4568,871.6344 L1340.8675,874.1084 L1340.2886,876.5854 L1339.5,879 L1339.2464,878.903 L1338.6582,881.6401 L1337.6301,884.209 L1336.4927,886.736 L1335.605,889.3586 L1334.5575,891.92 L1334.8468,892.0656 L1333.1718,894.3635 L1332.1595,896.9949 L1330.8864,899.4951 L1329.5575,901.9671 L1328.25,904.45 " fill="none" style="stroke:#181818;stroke-width:1.0;"/><polygon fill="#181818" points="1325.7,908.9,1325.7413,908.9566,1327.2086,907.626,1328.9183,906.6269,1330.549,905.5199,1331.9202,904.0579,1333.6506,903.0873,1333.6439,903.0623,1332.5214,903.2454,1331.433,903.5546,1330.3683,903.9514,1329.2219,904.0463,1328.1899,904.5641,1328.3681,904.6123,1327.6918,903.4171,1327.5356,902.3626,1327.4429,901.3253,1326.9809,900.1881,1326.7131,899.1034,1326.7358,899.1057,1326.4999,901.0616,1326.3671,903.0282,1326.1845,904.9896,1326.0968,906.9608,1325.7,908.9" style="stroke:#181818;stroke-width:1.0;"/><text fill="#000000" font-family="FG Virgil" font-size="13" lengthAdjust="spacing" textLength="87" x="1370.5" y="717.0283">userRepository</text></g><!--SRC=[pLHBRjim4Dth5Dp50U9TLe8Xm37gj4NJ1d6J_LWSsMneqXXITfqYv-a9Ue9Sh4FzRIlshkXAv9jvm_aypOLxLcOD1AkeEOab6BabvJqQuId7ZcaDwJCiSEPt6WLXwZisYHdasa-jyLzXXM9wAvuKBPJk-BWbIBjLPY4oq0wZwEA3yKg2H1Ub6fmJOobl-16RPIh5HuVq-4cCHcj2XyQ3LzOaYVWL3JcKtRQU3rQZ6rmoBksCBGCAW8Z53Fqe69DWc-TAoyBr3atUxxD4a5ePv62lx-KquHgPh94uDrYljKgxgItGzsN6y2qQ9F0expdkrf8i370OVu0hK3favecRTSLzBzqxKAR8bOrkCSxMctteC59TynVb_EYpdRlhlCWm-MyIkH9U5Sn9JiH3_ywt2MWq4iXTHirKxf4SSz6a6EQ1FtqGIWjMmo1SMwUy9LMCeMO_rF1k2cduC3ahJnKnv_fBHaK93MbfxD-4hYaEDZW8l53dZjDO1KxxQATCfalBBQarCs_w_WGwtqkrraeb7ak7t4Mbgewe6kdcVicblnJod25j-06ck_9KyT6ud32uShk3b566l3-26vlTjwplFtdjzEGE3E-45NFVUu1m4OP2_qXIJPvdf5GNqOxg9Yo8ug-UbwSaEVBfT9_trzWvcofu-_tsXtTOt_OQ3fEJ6oGMtFVs7lMtD4JfKNpS1QCUXy0xrdeiAgr7nxR0E91wNFmCBH2TgYVmkqAFnO_sTfPvBFQuKKY3dOtIA_jO0CClPydz0oXxCDka9mPqBAIILTsYO_i-wqJeCnFv2m00]--></g></svg>