<?xml version="1.0" encoding="us-ascii" standalone="no"?><svg xmlns="http://www.w3.org/2000/svg" xmlns:xlink="http://www.w3.org/1999/xlink" contentStyleType="text/css" height="650px" preserveAspectRatio="none" style="width:1524px;height:650px;background:#FFFFFF;" version="1.1" viewBox="0 0 1524 650" width="1524px" zoomAndPan="magnify"><defs/><g><text fill="#000000" font-family="sans-serif" font-size="14" font-weight="bold" lengthAdjust="spacing" textLength="261" x="624.5" y="25.1074">Upload Interview File - Class Diagram</text><!--class UploadCandidateAnswersUI--><g id="elem_UploadCandidateAnswersUI"><rect codeLine="3" fill="#F1F1F1" height="85.2422" id="UploadCandidateAnswersUI" rx="2.5" ry="2.5" style="stroke:#181818;stroke-width:0.5;" width="665" x="275.5" y="46.6211"/><ellipse cx="516.75" cy="62.6211" fill="#ADD1B2" rx="11" ry="11" style="stroke:#181818;stroke-width:1.0;"/><path d="M519.5156,58.4961 Q519.6719,58.2773 519.8594,58.168 Q520.0469,58.0586 520.2656,58.0586 Q520.6406,58.0586 520.875,58.3242 Q521.1094,58.5742 521.1094,59.1836 L521.1094,60.6367 Q521.1094,61.2461 520.875,61.5117 Q520.6406,61.7773 520.2656,61.7773 Q519.9219,61.7773 519.7188,61.5742 Q519.5156,61.3867 519.4063,60.8711 Q519.3594,60.5117 519.1719,60.3242 Q518.8438,59.9492 518.2344,59.7305 Q517.625,59.5117 517,59.5117 Q516.2344,59.5117 515.5938,59.8398 Q514.9688,60.168 514.4688,60.918 Q513.9844,61.668 513.9844,62.6992 L513.9844,63.793 Q513.9844,65.0273 514.875,65.8555 Q515.7656,66.668 517.3594,66.668 Q518.2969,66.668 518.9531,66.418 Q519.3438,66.2617 519.7656,65.8242 Q520.0313,65.5586 520.1719,65.4805 Q520.3281,65.4023 520.5313,65.4023 Q520.8594,65.4023 521.1094,65.668 Q521.375,65.918 521.375,66.2617 Q521.375,66.6055 521.0313,67.0117 Q520.5313,67.5898 519.7344,67.918 Q518.6563,68.3711 517.3594,68.3711 Q515.8438,68.3711 514.6406,67.7461 Q513.6563,67.2461 512.9688,66.1836 Q512.2813,65.1055 512.2813,63.8242 L512.2813,62.668 Q512.2813,61.3398 512.8906,60.1992 Q513.5156,59.043 514.6094,58.4336 Q515.7031,57.8086 516.9375,57.8086 Q517.6719,57.8086 518.3125,57.9805 Q518.9688,58.1367 519.5156,58.4961 Z " fill="#000000"/><text fill="#000000" font-family="sans-serif" font-size="14" lengthAdjust="spacing" textLength="174" x="537.25" y="68.418">UploadCandidateAnswersUI</text><line style="stroke:#181818;stroke-width:0.5;" x1="276.5" x2="939.5" y1="78.6211" y2="78.6211"/><line style="stroke:#181818;stroke-width:0.5;" x1="276.5" x2="939.5" y1="86.6211" y2="86.6211"/><ellipse cx="286.5" cy="101.4316" fill="#84BE84" rx="3" ry="3" style="stroke:#038048;stroke-width:1.0;"/><text fill="#000000" font-family="sans-serif" font-size="14" lengthAdjust="spacing" textLength="414" x="295.5" y="105.7285">allJobApplications(jobReference: String): Iterable&lt;JobApplication&gt;</text><ellipse cx="286.5" cy="120.0527" fill="#84BE84" rx="3" ry="3" style="stroke:#038048;stroke-width:1.0;"/><text fill="#000000" font-family="sans-serif" font-size="14" lengthAdjust="spacing" textLength="639" x="295.5" y="124.3496">validateInterviewSyntax(responsesFilePath: String, directoryPath: String, jobReference: String): String</text></g><!--class UploadCandidateAnswersController--><g id="elem_UploadCandidateAnswersController"><rect codeLine="8" fill="#F1F1F1" height="103.8633" id="UploadCandidateAnswersController" rx="2.5" ry="2.5" style="stroke:#181818;stroke-width:0.5;" width="665" x="275.5" y="210.6211"/><ellipse cx="491.75" cy="226.6211" fill="#ADD1B2" rx="11" ry="11" style="stroke:#181818;stroke-width:1.0;"/><path d="M494.5156,222.4961 Q494.6719,222.2773 494.8594,222.168 Q495.0469,222.0586 495.2656,222.0586 Q495.6406,222.0586 495.875,222.3242 Q496.1094,222.5742 496.1094,223.1836 L496.1094,224.6367 Q496.1094,225.2461 495.875,225.5117 Q495.6406,225.7773 495.2656,225.7773 Q494.9219,225.7773 494.7188,225.5742 Q494.5156,225.3867 494.4063,224.8711 Q494.3594,224.5117 494.1719,224.3242 Q493.8438,223.9492 493.2344,223.7305 Q492.625,223.5117 492,223.5117 Q491.2344,223.5117 490.5938,223.8398 Q489.9688,224.168 489.4688,224.918 Q488.9844,225.668 488.9844,226.6992 L488.9844,227.793 Q488.9844,229.0273 489.875,229.8555 Q490.7656,230.668 492.3594,230.668 Q493.2969,230.668 493.9531,230.418 Q494.3438,230.2617 494.7656,229.8242 Q495.0313,229.5586 495.1719,229.4805 Q495.3281,229.4023 495.5313,229.4023 Q495.8594,229.4023 496.1094,229.668 Q496.375,229.918 496.375,230.2617 Q496.375,230.6055 496.0313,231.0117 Q495.5313,231.5898 494.7344,231.918 Q493.6563,232.3711 492.3594,232.3711 Q490.8438,232.3711 489.6406,231.7461 Q488.6563,231.2461 487.9688,230.1836 Q487.2813,229.1055 487.2813,227.8242 L487.2813,226.668 Q487.2813,225.3398 487.8906,224.1992 Q488.5156,223.043 489.6094,222.4336 Q490.7031,221.8086 491.9375,221.8086 Q492.6719,221.8086 493.3125,221.9805 Q493.9688,222.1367 494.5156,222.4961 Z " fill="#000000"/><text fill="#000000" font-family="sans-serif" font-size="14" lengthAdjust="spacing" textLength="224" x="512.25" y="232.418">UploadCandidateAnswersController</text><line style="stroke:#181818;stroke-width:0.5;" x1="276.5" x2="939.5" y1="242.6211" y2="242.6211"/><line style="stroke:#181818;stroke-width:0.5;" x1="276.5" x2="939.5" y1="250.6211" y2="250.6211"/><ellipse cx="286.5" cy="265.4316" fill="#84BE84" rx="3" ry="3" style="stroke:#038048;stroke-width:1.0;"/><text fill="#000000" font-family="sans-serif" font-size="14" lengthAdjust="spacing" textLength="84" x="295.5" y="269.7285">create(): void</text><ellipse cx="286.5" cy="284.0527" fill="#84BE84" rx="3" ry="3" style="stroke:#038048;stroke-width:1.0;"/><text fill="#000000" font-family="sans-serif" font-size="14" lengthAdjust="spacing" textLength="414" x="295.5" y="288.3496">allJobApplications(jobReference: String): Iterable&lt;JobApplication&gt;</text><ellipse cx="286.5" cy="302.6738" fill="#84BE84" rx="3" ry="3" style="stroke:#038048;stroke-width:1.0;"/><text fill="#000000" font-family="sans-serif" font-size="14" lengthAdjust="spacing" textLength="639" x="295.5" y="306.9707">validateInterviewSyntax(responsesFilePath: String, directoryPath: String, jobReference: String): String</text></g><!--class PersistenceContext--><g id="elem_PersistenceContext"><rect codeLine="14" fill="#F1F1F1" height="66.6211" id="PersistenceContext" rx="2.5" ry="2.5" style="stroke:#181818;stroke-width:0.5;" width="154" x="7" y="412.1211"/><ellipse cx="22" cy="428.1211" fill="#ADD1B2" rx="11" ry="11" style="stroke:#181818;stroke-width:1.0;"/><path d="M24.7656,423.9961 Q24.9219,423.7773 25.1094,423.668 Q25.2969,423.5586 25.5156,423.5586 Q25.8906,423.5586 26.125,423.8242 Q26.3594,424.0742 26.3594,424.6836 L26.3594,426.1367 Q26.3594,426.7461 26.125,427.0117 Q25.8906,427.2773 25.5156,427.2773 Q25.1719,427.2773 24.9688,427.0742 Q24.7656,426.8867 24.6563,426.3711 Q24.6094,426.0117 24.4219,425.8242 Q24.0938,425.4492 23.4844,425.2305 Q22.875,425.0117 22.25,425.0117 Q21.4844,425.0117 20.8438,425.3398 Q20.2188,425.668 19.7188,426.418 Q19.2344,427.168 19.2344,428.1992 L19.2344,429.293 Q19.2344,430.5273 20.125,431.3555 Q21.0156,432.168 22.6094,432.168 Q23.5469,432.168 24.2031,431.918 Q24.5938,431.7617 25.0156,431.3242 Q25.2813,431.0586 25.4219,430.9805 Q25.5781,430.9023 25.7813,430.9023 Q26.1094,430.9023 26.3594,431.168 Q26.625,431.418 26.625,431.7617 Q26.625,432.1055 26.2813,432.5117 Q25.7813,433.0898 24.9844,433.418 Q23.9063,433.8711 22.6094,433.8711 Q21.0938,433.8711 19.8906,433.2461 Q18.9063,432.7461 18.2188,431.6836 Q17.5313,430.6055 17.5313,429.3242 L17.5313,428.168 Q17.5313,426.8398 18.1406,425.6992 Q18.7656,424.543 19.8594,423.9336 Q20.9531,423.3086 22.1875,423.3086 Q22.9219,423.3086 23.5625,423.4805 Q24.2188,423.6367 24.7656,423.9961 Z " fill="#000000"/><text fill="#000000" font-family="sans-serif" font-size="14" lengthAdjust="spacing" textLength="122" x="36" y="433.918">PersistenceContext</text><line style="stroke:#181818;stroke-width:0.5;" x1="8" x2="160" y1="444.1211" y2="444.1211"/><line style="stroke:#181818;stroke-width:0.5;" x1="8" x2="160" y1="452.1211" y2="452.1211"/><ellipse cx="18" cy="466.9316" fill="#84BE84" rx="3" ry="3" style="stroke:#038048;stroke-width:1.0;"/><text fill="#000000" font-family="sans-serif" font-size="14" lengthAdjust="spacing" textLength="84" x="27" y="471.2285">create(): void</text></g><!--class RepositoryFactory--><g id="elem_RepositoryFactory"><rect codeLine="18" fill="#F1F1F1" height="103.8633" id="RepositoryFactory" rx="2.5" ry="2.5" style="stroke:#181818;stroke-width:0.5;" width="305" x="196.5" y="393.6211"/><ellipse cx="286.75" cy="409.6211" fill="#ADD1B2" rx="11" ry="11" style="stroke:#181818;stroke-width:1.0;"/><path d="M289.5156,405.4961 Q289.6719,405.2773 289.8594,405.168 Q290.0469,405.0586 290.2656,405.0586 Q290.6406,405.0586 290.875,405.3242 Q291.1094,405.5742 291.1094,406.1836 L291.1094,407.6367 Q291.1094,408.2461 290.875,408.5117 Q290.6406,408.7773 290.2656,408.7773 Q289.9219,408.7773 289.7188,408.5742 Q289.5156,408.3867 289.4063,407.8711 Q289.3594,407.5117 289.1719,407.3242 Q288.8438,406.9492 288.2344,406.7305 Q287.625,406.5117 287,406.5117 Q286.2344,406.5117 285.5938,406.8398 Q284.9688,407.168 284.4688,407.918 Q283.9844,408.668 283.9844,409.6992 L283.9844,410.793 Q283.9844,412.0273 284.875,412.8555 Q285.7656,413.668 287.3594,413.668 Q288.2969,413.668 288.9531,413.418 Q289.3438,413.2617 289.7656,412.8242 Q290.0313,412.5586 290.1719,412.4805 Q290.3281,412.4023 290.5313,412.4023 Q290.8594,412.4023 291.1094,412.668 Q291.375,412.918 291.375,413.2617 Q291.375,413.6055 291.0313,414.0117 Q290.5313,414.5898 289.7344,414.918 Q288.6563,415.3711 287.3594,415.3711 Q285.8438,415.3711 284.6406,414.7461 Q283.6563,414.2461 282.9688,413.1836 Q282.2813,412.1055 282.2813,410.8242 L282.2813,409.668 Q282.2813,408.3398 282.8906,407.1992 Q283.5156,406.043 284.6094,405.4336 Q285.7031,404.8086 286.9375,404.8086 Q287.6719,404.8086 288.3125,404.9805 Q288.9688,405.1367 289.5156,405.4961 Z " fill="#000000"/><text fill="#000000" font-family="sans-serif" font-size="14" lengthAdjust="spacing" textLength="116" x="307.25" y="415.418">RepositoryFactory</text><line style="stroke:#181818;stroke-width:0.5;" x1="197.5" x2="500.5" y1="425.6211" y2="425.6211"/><line style="stroke:#181818;stroke-width:0.5;" x1="197.5" x2="500.5" y1="433.6211" y2="433.6211"/><ellipse cx="207.5" cy="448.4316" fill="#84BE84" rx="3" ry="3" style="stroke:#038048;stroke-width:1.0;"/><text fill="#000000" font-family="sans-serif" font-size="14" lengthAdjust="spacing" textLength="177" x="216.5" y="452.7285">factory(): RepositoryFactory</text><ellipse cx="207.5" cy="467.0527" fill="#84BE84" rx="3" ry="3" style="stroke:#038048;stroke-width:1.0;"/><text fill="#000000" font-family="sans-serif" font-size="14" lengthAdjust="spacing" textLength="272" x="216.5" y="471.3496">jobApplications(): JobApplicationRepository</text><ellipse cx="207.5" cy="485.6738" fill="#84BE84" rx="3" ry="3" style="stroke:#038048;stroke-width:1.0;"/><text fill="#000000" font-family="sans-serif" font-size="14" lengthAdjust="spacing" textLength="279" x="216.5" y="489.9707">interviewModels(): InterviewModelRepository</text></g><!--class JobApplicationService--><g id="elem_JobApplicationService"><rect codeLine="24" fill="#F1F1F1" height="85.2422" id="JobApplicationService" rx="2.5" ry="2.5" style="stroke:#181818;stroke-width:0.5;" width="455" x="536.5" y="403.1211"/><ellipse cx="690.75" cy="419.1211" fill="#ADD1B2" rx="11" ry="11" style="stroke:#181818;stroke-width:1.0;"/><path d="M693.5156,414.9961 Q693.6719,414.7773 693.8594,414.668 Q694.0469,414.5586 694.2656,414.5586 Q694.6406,414.5586 694.875,414.8242 Q695.1094,415.0742 695.1094,415.6836 L695.1094,417.1367 Q695.1094,417.7461 694.875,418.0117 Q694.6406,418.2773 694.2656,418.2773 Q693.9219,418.2773 693.7188,418.0742 Q693.5156,417.8867 693.4063,417.3711 Q693.3594,417.0117 693.1719,416.8242 Q692.8438,416.4492 692.2344,416.2305 Q691.625,416.0117 691,416.0117 Q690.2344,416.0117 689.5938,416.3398 Q688.9688,416.668 688.4688,417.418 Q687.9844,418.168 687.9844,419.1992 L687.9844,420.293 Q687.9844,421.5273 688.875,422.3555 Q689.7656,423.168 691.3594,423.168 Q692.2969,423.168 692.9531,422.918 Q693.3438,422.7617 693.7656,422.3242 Q694.0313,422.0586 694.1719,421.9805 Q694.3281,421.9023 694.5313,421.9023 Q694.8594,421.9023 695.1094,422.168 Q695.375,422.418 695.375,422.7617 Q695.375,423.1055 695.0313,423.5117 Q694.5313,424.0898 693.7344,424.418 Q692.6563,424.8711 691.3594,424.8711 Q689.8438,424.8711 688.6406,424.2461 Q687.6563,423.7461 686.9688,422.6836 Q686.2813,421.6055 686.2813,420.3242 L686.2813,419.168 Q686.2813,417.8398 686.8906,416.6992 Q687.5156,415.543 688.6094,414.9336 Q689.7031,414.3086 690.9375,414.3086 Q691.6719,414.3086 692.3125,414.4805 Q692.9688,414.6367 693.5156,414.9961 Z " fill="#000000"/><text fill="#000000" font-family="sans-serif" font-size="14" lengthAdjust="spacing" textLength="138" x="711.25" y="424.918">JobApplicationService</text><line style="stroke:#181818;stroke-width:0.5;" x1="537.5" x2="990.5" y1="435.1211" y2="435.1211"/><line style="stroke:#181818;stroke-width:0.5;" x1="537.5" x2="990.5" y1="443.1211" y2="443.1211"/><ellipse cx="547.5" cy="457.9316" fill="#84BE84" rx="3" ry="3" style="stroke:#038048;stroke-width:1.0;"/><text fill="#000000" font-family="sans-serif" font-size="14" lengthAdjust="spacing" textLength="407" x="556.5" y="462.2285">create(jobApplicationRepository: JobApplicationRepository): void</text><ellipse cx="547.5" cy="476.5527" fill="#84BE84" rx="3" ry="3" style="stroke:#038048;stroke-width:1.0;"/><text fill="#000000" font-family="sans-serif" font-size="14" lengthAdjust="spacing" textLength="429" x="556.5" y="480.8496">findByJobReference(jobReference: String): Iterable&lt;JobApplication&gt;</text></g><!--class InterviewModelPlugin--><g id="elem_InterviewModelPlugin"><rect codeLine="29" fill="#F1F1F1" height="66.6211" id="InterviewModelPlugin" rx="2.5" ry="2.5" style="stroke:#181818;stroke-width:0.5;" width="490" x="1027" y="412.1211"/><ellipse cx="1201.75" cy="428.1211" fill="#ADD1B2" rx="11" ry="11" style="stroke:#181818;stroke-width:1.0;"/><path d="M1204.5156,423.9961 Q1204.6719,423.7773 1204.8594,423.668 Q1205.0469,423.5586 1205.2656,423.5586 Q1205.6406,423.5586 1205.875,423.8242 Q1206.1094,424.0742 1206.1094,424.6836 L1206.1094,426.1367 Q1206.1094,426.7461 1205.875,427.0117 Q1205.6406,427.2773 1205.2656,427.2773 Q1204.9219,427.2773 1204.7188,427.0742 Q1204.5156,426.8867 1204.4063,426.3711 Q1204.3594,426.0117 1204.1719,425.8242 Q1203.8438,425.4492 1203.2344,425.2305 Q1202.625,425.0117 1202,425.0117 Q1201.2344,425.0117 1200.5938,425.3398 Q1199.9688,425.668 1199.4688,426.418 Q1198.9844,427.168 1198.9844,428.1992 L1198.9844,429.293 Q1198.9844,430.5273 1199.875,431.3555 Q1200.7656,432.168 1202.3594,432.168 Q1203.2969,432.168 1203.9531,431.918 Q1204.3438,431.7617 1204.7656,431.3242 Q1205.0313,431.0586 1205.1719,430.9805 Q1205.3281,430.9023 1205.5313,430.9023 Q1205.8594,430.9023 1206.1094,431.168 Q1206.375,431.418 1206.375,431.7617 Q1206.375,432.1055 1206.0313,432.5117 Q1205.5313,433.0898 1204.7344,433.418 Q1203.6563,433.8711 1202.3594,433.8711 Q1200.8438,433.8711 1199.6406,433.2461 Q1198.6563,432.7461 1197.9688,431.6836 Q1197.2813,430.6055 1197.2813,429.3242 L1197.2813,428.168 Q1197.2813,426.8398 1197.8906,425.6992 Q1198.5156,424.543 1199.6094,423.9336 Q1200.7031,423.3086 1201.9375,423.3086 Q1202.6719,423.3086 1203.3125,423.4805 Q1203.9688,423.6367 1204.5156,423.9961 Z " fill="#000000"/><text fill="#000000" font-family="sans-serif" font-size="14" lengthAdjust="spacing" textLength="132" x="1222.25" y="433.918">InterviewModelPlugin</text><line style="stroke:#181818;stroke-width:0.5;" x1="1028" x2="1516" y1="444.1211" y2="444.1211"/><line style="stroke:#181818;stroke-width:0.5;" x1="1028" x2="1516" y1="452.1211" y2="452.1211"/><ellipse cx="1038" cy="466.9316" fill="#84BE84" rx="3" ry="3" style="stroke:#038048;stroke-width:1.0;"/><text fill="#000000" font-family="sans-serif" font-size="14" lengthAdjust="spacing" textLength="464" x="1047" y="471.2285">evaluateInterview(responsesFilePath: String, directoryPath: String): String</text></g><!--class JobApplicationRepository--><g id="elem_JobApplicationRepository"><rect codeLine="33" fill="#F1F1F1" height="66.6211" id="JobApplicationRepository" rx="2.5" ry="2.5" style="stroke:#181818;stroke-width:0.5;" width="455" x="536.5" y="576.6211"/><ellipse cx="680.25" cy="592.6211" fill="#ADD1B2" rx="11" ry="11" style="stroke:#181818;stroke-width:1.0;"/><path d="M683.0156,588.4961 Q683.1719,588.2773 683.3594,588.168 Q683.5469,588.0586 683.7656,588.0586 Q684.1406,588.0586 684.375,588.3242 Q684.6094,588.5742 684.6094,589.1836 L684.6094,590.6367 Q684.6094,591.2461 684.375,591.5117 Q684.1406,591.7773 683.7656,591.7773 Q683.4219,591.7773 683.2188,591.5742 Q683.0156,591.3867 682.9063,590.8711 Q682.8594,590.5117 682.6719,590.3242 Q682.3438,589.9492 681.7344,589.7305 Q681.125,589.5117 680.5,589.5117 Q679.7344,589.5117 679.0938,589.8398 Q678.4688,590.168 677.9688,590.918 Q677.4844,591.668 677.4844,592.6992 L677.4844,593.793 Q677.4844,595.0273 678.375,595.8555 Q679.2656,596.668 680.8594,596.668 Q681.7969,596.668 682.4531,596.418 Q682.8438,596.2617 683.2656,595.8242 Q683.5313,595.5586 683.6719,595.4805 Q683.8281,595.4023 684.0313,595.4023 Q684.3594,595.4023 684.6094,595.668 Q684.875,595.918 684.875,596.2617 Q684.875,596.6055 684.5313,597.0117 Q684.0313,597.5898 683.2344,597.918 Q682.1563,598.3711 680.8594,598.3711 Q679.3438,598.3711 678.1406,597.7461 Q677.1563,597.2461 676.4688,596.1836 Q675.7813,595.1055 675.7813,593.8242 L675.7813,592.668 Q675.7813,591.3398 676.3906,590.1992 Q677.0156,589.043 678.1094,588.4336 Q679.2031,587.8086 680.4375,587.8086 Q681.1719,587.8086 681.8125,587.9805 Q682.4688,588.1367 683.0156,588.4961 Z " fill="#000000"/><text fill="#000000" font-family="sans-serif" font-size="14" lengthAdjust="spacing" textLength="159" x="700.75" y="598.418">JobApplicationRepository</text><line style="stroke:#181818;stroke-width:0.5;" x1="537.5" x2="990.5" y1="608.6211" y2="608.6211"/><line style="stroke:#181818;stroke-width:0.5;" x1="537.5" x2="990.5" y1="616.6211" y2="616.6211"/><ellipse cx="547.5" cy="631.4316" fill="#84BE84" rx="3" ry="3" style="stroke:#038048;stroke-width:1.0;"/><text fill="#000000" font-family="sans-serif" font-size="14" lengthAdjust="spacing" textLength="429" x="556.5" y="635.7285">findByJobReference(jobReference: String): Iterable&lt;JobApplication&gt;</text></g><!--class InterviewModelRepository--><g id="elem_InterviewModelRepository"><rect codeLine="37" fill="#F1F1F1" height="66.6211" id="InterviewModelRepository" rx="2.5" ry="2.5" style="stroke:#181818;stroke-width:0.5;" width="394" x="107" y="576.6211"/><ellipse cx="219.25" cy="592.6211" fill="#ADD1B2" rx="11" ry="11" style="stroke:#181818;stroke-width:1.0;"/><path d="M222.0156,588.4961 Q222.1719,588.2773 222.3594,588.168 Q222.5469,588.0586 222.7656,588.0586 Q223.1406,588.0586 223.375,588.3242 Q223.6094,588.5742 223.6094,589.1836 L223.6094,590.6367 Q223.6094,591.2461 223.375,591.5117 Q223.1406,591.7773 222.7656,591.7773 Q222.4219,591.7773 222.2188,591.5742 Q222.0156,591.3867 221.9063,590.8711 Q221.8594,590.5117 221.6719,590.3242 Q221.3438,589.9492 220.7344,589.7305 Q220.125,589.5117 219.5,589.5117 Q218.7344,589.5117 218.0938,589.8398 Q217.4688,590.168 216.9688,590.918 Q216.4844,591.668 216.4844,592.6992 L216.4844,593.793 Q216.4844,595.0273 217.375,595.8555 Q218.2656,596.668 219.8594,596.668 Q220.7969,596.668 221.4531,596.418 Q221.8438,596.2617 222.2656,595.8242 Q222.5313,595.5586 222.6719,595.4805 Q222.8281,595.4023 223.0313,595.4023 Q223.3594,595.4023 223.6094,595.668 Q223.875,595.918 223.875,596.2617 Q223.875,596.6055 223.5313,597.0117 Q223.0313,597.5898 222.2344,597.918 Q221.1563,598.3711 219.8594,598.3711 Q218.3438,598.3711 217.1406,597.7461 Q216.1563,597.2461 215.4688,596.1836 Q214.7813,595.1055 214.7813,593.8242 L214.7813,592.668 Q214.7813,591.3398 215.3906,590.1992 Q216.0156,589.043 217.1094,588.4336 Q218.2031,587.8086 219.4375,587.8086 Q220.1719,587.8086 220.8125,587.9805 Q221.4688,588.1367 222.0156,588.4961 Z " fill="#000000"/><text fill="#000000" font-family="sans-serif" font-size="14" lengthAdjust="spacing" textLength="161" x="239.75" y="598.418">InterviewModelRepository</text><line style="stroke:#181818;stroke-width:0.5;" x1="108" x2="500" y1="608.6211" y2="608.6211"/><line style="stroke:#181818;stroke-width:0.5;" x1="108" x2="500" y1="616.6211" y2="616.6211"/><ellipse cx="118" cy="631.4316" fill="#84BE84" rx="3" ry="3" style="stroke:#038048;stroke-width:1.0;"/><text fill="#000000" font-family="sans-serif" font-size="14" lengthAdjust="spacing" textLength="368" x="127" y="635.7285">findByJobReference(jobReference: String): InterviewModel</text></g><!--link UploadCandidateAnswersUI to UploadCandidateAnswersController--><g id="link_UploadCandidateAnswersUI_UploadCandidateAnswersController"><path codeLine="41" d="M608,131.6411 C608,155.3311 608,179.2211 608,204.3711 " fill="none" id="UploadCandidateAnswersUI-to-UploadCandidateAnswersController" style="stroke:#181818;stroke-width:1.0;"/><polygon fill="#181818" points="608,210.3711,612,201.3711,608,205.3711,604,201.3711,608,210.3711" style="stroke:#181818;stroke-width:1.0;"/><text fill="#000000" font-family="sans-serif" font-size="13" lengthAdjust="spacing" textLength="73" x="609" y="176.6494">theController</text></g><!--link UploadCandidateAnswersController to PersistenceContext--><g id="link_UploadCandidateAnswersController_PersistenceContext"><path codeLine="42" d="M410.25,314.6511 C336.53,335.9711 252.85,362.9611 179,393.6211 C166.21,398.9311 158.1819,402.6412 145.6919,409.2012 " fill="none" id="UploadCandidateAnswersController-to-PersistenceContext" style="stroke:#181818;stroke-width:1.0;"/><polygon fill="#181818" points="140.38,411.9911,150.2078,411.3475,144.8066,409.6662,146.4879,404.2649,140.38,411.9911" style="stroke:#181818;stroke-width:1.0;"/><text fill="#000000" font-family="sans-serif" font-size="13" lengthAdjust="spacing" textLength="67" x="308" y="359.6494">persistence</text></g><!--link UploadCandidateAnswersController to RepositoryFactory--><g id="link_UploadCandidateAnswersController_RepositoryFactory"><path codeLine="43" d="M534.82,314.7611 C499.52,339.4311 462.1984,365.5146 426.9184,390.1646 " fill="none" id="UploadCandidateAnswersController-to-RepositoryFactory" style="stroke:#181818;stroke-width:1.0;"/><polygon fill="#181818" points="422,393.6011,431.6686,391.7253,426.0987,390.7374,427.0866,385.1675,422,393.6011" style="stroke:#181818;stroke-width:1.0;"/><text fill="#000000" font-family="sans-serif" font-size="13" lengthAdjust="spacing" textLength="39" x="488" y="359.6494">factory</text></g><!--link RepositoryFactory to JobApplicationRepository--><g id="link_RepositoryFactory_JobApplicationRepository"><path codeLine="44" d="M479.45,497.7011 C545.28,523.4811 617.5828,551.7939 675.2128,574.3539 " fill="none" id="RepositoryFactory-to-JobApplicationRepository" style="stroke:#181818;stroke-width:1.0;"/><polygon fill="#181818" points="680.8,576.5411,673.8774,569.5356,676.144,574.7185,670.9612,576.9851,680.8,576.5411" style="stroke:#181818;stroke-width:1.0;"/><text fill="#000000" font-family="sans-serif" font-size="13" lengthAdjust="spacing" textLength="143" x="595" y="542.6494">jobApplicationRepository</text></g><!--link RepositoryFactory to InterviewModelRepository--><g id="link_RepositoryFactory_InterviewModelRepository"><path codeLine="45" d="M334.76,498.0411 C327.65,523.7011 320.8713,548.1887 314.6513,570.6487 " fill="none" id="RepositoryFactory-to-InterviewModelRepository" style="stroke:#181818;stroke-width:1.0;"/><polygon fill="#181818" points="313.05,576.4311,319.3069,568.8251,314.3845,571.6125,311.5971,566.69,313.05,576.4311" style="stroke:#181818;stroke-width:1.0;"/><text fill="#000000" font-family="sans-serif" font-size="13" lengthAdjust="spacing" textLength="146" x="328" y="542.6494">interviewModelRepository</text></g><!--link UploadCandidateAnswersController to JobApplicationService--><g id="link_UploadCandidateAnswersController_JobApplicationService"><path codeLine="46" d="M652.29,315.0011 C676.25,342.8011 701.5425,372.1565 724.0925,398.3165 " fill="none" id="UploadCandidateAnswersController-to-JobApplicationService" style="stroke:#181818;stroke-width:1.0;"/><polygon fill="#181818" points="728.01,402.8611,725.1635,393.4325,724.7454,399.0739,719.1041,398.6558,728.01,402.8611" style="stroke:#181818;stroke-width:1.0;"/><text fill="#000000" font-family="sans-serif" font-size="13" lengthAdjust="spacing" textLength="123" x="692" y="359.6494">jobApplicationService</text></g><!--link JobApplicationService to JobApplicationRepository--><g id="link_JobApplicationService_JobApplicationRepository"><path codeLine="47" d="M764,488.4711 C764,515.8311 764,545.0711 764,570.3811 " fill="none" id="JobApplicationService-to-JobApplicationRepository" style="stroke:#181818;stroke-width:1.0;"/><polygon fill="#181818" points="764,576.3811,768,567.3811,764,571.3811,760,567.3811,764,576.3811" style="stroke:#181818;stroke-width:1.0;"/><text fill="#000000" font-family="sans-serif" font-size="13" lengthAdjust="spacing" textLength="143" x="765" y="542.6494">jobApplicationRepository</text></g><!--link UploadCandidateAnswersController to InterviewModelPlugin--><g id="link_UploadCandidateAnswersController_InterviewModelPlugin"><path codeLine="48" d="M795.17,314.6411 C909.85,345.9011 1047.4112,383.4033 1146.8412,410.5033 " fill="none" id="UploadCandidateAnswersController-to-InterviewModelPlugin" style="stroke:#181818;stroke-width:1.0;"/><polygon fill="#181818" points="1152.63,412.0811,1144.9986,405.8552,1147.806,410.7663,1142.8949,413.5737,1152.63,412.0811" style="stroke:#181818;stroke-width:1.0;"/><text fill="#000000" font-family="sans-serif" font-size="13" lengthAdjust="spacing" textLength="85" x="961" y="359.6494">interviewPlugin</text></g><!--SRC=[rLJBRi8m4BpxAtoaQlc1g4AYL4X1geH0V8295rZasf5jNghwxxKJ4cA82xJgeJd5cvsPdLrlB5e1T9OBnJXDfGMzHTZH8Rfebmu4CuQ-8bjgzav8LXpBv06J73cpq9Tc1zhCKlf1g7iUcH0ZDU_dkS2CMLJITDPgFe45Q90P97HgDShbGq9J9yVc0fx3_5x9isMY4AYhcXwaPVkE1fCxKZ2-o36pguhnYNBKa5cb3s4u8b- -aC_lZGsKj5e90Reoc6bmdpkEOQkG_tFJOsSHZVLPtYdiRSHcZPX0hWnwmI4hT2l0eZnwn4LEcR4-Qv7B3BjmmfK0hDhmfZY80f06eGQWBZ2adFhi3CvShIEoyOA2SIzGyfV3gD7YkyTTbniQ6elD4cLLBRZxi6bUXxilGil8OmxhEVwPkLzf1KnU8VeZwdPxrvSveNO5fpEv2l2iBTkIqFmKl8tbSeCIUbmUSldD8w8ZIsZi9aUOeWD9ACOswoPJxLjtNjynJjgpVshrfW9RzwpXkeoGBm00]--></g></svg>