<?xml version="1.0" encoding="us-ascii" standalone="no"?><svg xmlns="http://www.w3.org/2000/svg" xmlns:xlink="http://www.w3.org/1999/xlink" contentStyleType="text/css" height="884px" preserveAspectRatio="none" style="width:607px;height:884px;background:#FFFFFF;" version="1.1" viewBox="0 0 607 884" width="607px" zoomAndPan="magnify"><defs/><g><!--class ListBackofficeUsersUI--><g id="elem_ListBackofficeUsersUI"><polygon fill="#F1F1F1" points="207,7,207,7.2102,217.125,6.5857,227.25,7.1933,237.375,7.3997,247.5,6.2866,257.625,6.9223,267.75,6.5735,277.875,6.6165,288,6.9318,298.125,6.3086,308.25,7.5536,318.375,6.3697,328.5,6.8022,338.625,7.4319,348.75,6.9142,358.875,7.0682,369,7,368.9959,6.9902,369.3763,7.2014,369.7376,7.3665,370.1354,7.6197,370.4998,7.7924,370.7678,7.7322,370.977,7.8189,370.9926,8.1183,371.2034,8.4985,371.4234,8.8825,371.1315,9.0545,371.5,9.5,372.1785,9.5,371.2035,18.7637,372.0338,28.0273,371.005,37.291,371.4315,46.5547,372.2416,55.8184,371.5,65.082,371.485,65.0758,371.386,65.449,371.3114,65.8323,371.1888,66.1958,370.913,66.4957,370.7678,66.8498,370.8044,66.9382,370.3412,66.82,370.0969,67.2303,369.777,67.458,369.4103,67.5725,369,67.582,369,68.1951,358.875,67.099,348.75,66.9298,338.625,66.9606,328.5,67.5232,318.375,67.3855,308.25,68.2634,298.125,67.4074,288,67.239,277.875,67.8103,267.75,66.9152,257.625,67.0629,247.5,68.231,237.375,68.0177,227.25,68.3165,217.125,67.2602,207,67.582,207.0407,67.6803,206.7218,67.6174,206.2326,67.1437,205.9271,67.1132,205.6019,67.035,205.2322,66.8498,205.4329,66.9329,205.0845,66.4957,205.0818,66.2017,204.6223,65.7185,204.4379,65.3492,204.5,65.082,205.0036,65.082,203.7831,55.8184,205.009,46.5547,204.7066,37.291,204.2321,28.0273,204.1462,18.7637,204.5,9.5,204.6413,9.5585,204.5543,9.1083,204.9752,8.8684,204.7691,8.3688,205.2759,8.1645,205.2322,7.7322,205.294,7.8814,205.617,7.6612,205.9454,7.4539,206.3856,7.5167,206.7247,7.3354,207,7" style="stroke:#181818;stroke-width:0.5;"/><polygon fill="#ADD1B2" points="230.5608,31.9667,228.9484,34.1698,227.0412,37.3967,224.3136,39.5714,221.4474,40.7606,219.162,40.8638,216.2247,39.3766,213.4532,38.4049,211.3495,36.4322,210.2461,34.1738,209.5917,32.3756,208.9506,30.0267,207.91,28.0055,208.7096,26.032,209.4102,23.8702,212.0393,22.1605,213.889,19.9421,216.1784,19.2055,218.9001,18.5711,222.3904,18.948,224.3021,19.8495,226.5247,20.2582,229.2272,23.027,230.1693,25.95,230.5786,27.9444,230.115,31.2309" style="stroke:#181818;stroke-width:1.0;"/><path d="M222.2656,25.166 Q222.4219,24.9473 222.6094,24.8379 Q222.7969,24.7285 223.0156,24.7285 Q223.3906,24.7285 223.625,24.9941 Q223.8594,25.2441 223.8594,25.8535 L223.8594,27.3066 Q223.8594,27.916 223.625,28.1816 Q223.3906,28.4473 223.0156,28.4473 Q222.6719,28.4473 222.4688,28.2441 Q222.2656,28.0566 222.1563,27.541 Q222.1094,27.1816 221.9219,26.9941 Q221.5938,26.6191 220.9844,26.4004 Q220.375,26.1816 219.75,26.1816 Q218.9844,26.1816 218.3438,26.5098 Q217.7188,26.8379 217.2188,27.5879 Q216.7344,28.3379 216.7344,29.3691 L216.7344,30.4629 Q216.7344,31.6973 217.625,32.5254 Q218.5156,33.3379 220.1094,33.3379 Q221.0469,33.3379 221.7031,33.0879 Q222.0938,32.9316 222.5156,32.4941 Q222.7813,32.2285 222.9219,32.1504 Q223.0781,32.0723 223.2813,32.0723 Q223.6094,32.0723 223.8594,32.3379 Q224.125,32.5879 224.125,32.9316 Q224.125,33.2754 223.7813,33.6816 Q223.2813,34.2598 222.4844,34.5879 Q221.4063,35.041 220.1094,35.041 Q218.5938,35.041 217.3906,34.416 Q216.4063,33.916 215.7188,32.8535 Q215.0313,31.7754 215.0313,30.4941 L215.0313,29.3379 Q215.0313,28.0098 215.6406,26.8691 Q216.2656,25.7129 217.3594,25.1035 Q218.4531,24.4785 219.6875,24.4785 Q220.4219,24.4785 221.0625,24.6504 Q221.7188,24.8066 222.2656,25.166 Z " fill="#000000"/><text fill="#000000" font-family="FG Virgil" font-size="12" font-style="italic" lengthAdjust="spacing" textLength="82" x="260" y="24.9492">&#171;presentation&#187;</text><text fill="#000000" font-family="FG Virgil" font-size="14" lengthAdjust="spacing" textLength="135" x="233.5" y="43.0684">ListBackofficeUsersUI</text><path d="M205.5,51.582 L205.5,51.8623 L215.2059,51.0296 L224.9118,51.8397 L234.6176,52.1149 L244.3235,50.6308 L254.0294,51.4784 L263.7353,51.0134 L273.4412,51.0707 L283.1471,51.4912 L292.8529,50.6602 L302.5588,52.3202 L312.2647,50.7417 L321.9706,51.3183 L331.6765,52.158 L341.3824,51.4677 L351.0882,51.673 L360.7941,51.5394 L370.5,51.582 " fill="#F1F1F1" style="stroke:#181818;stroke-width:0.5;"/><path d="M205.5,59.582 L205.5,59.8623 L215.2059,59.0296 L224.9118,59.8397 L234.6176,60.1149 L244.3235,58.6308 L254.0294,59.4784 L263.7353,59.0134 L273.4412,59.0707 L283.1471,59.4912 L292.8529,58.6602 L302.5588,60.3202 L312.2647,58.7417 L321.9706,59.3183 L331.6765,60.158 L341.3824,59.4677 L351.0882,59.673 L360.7941,59.5394 L370.5,59.582 " fill="#F1F1F1" style="stroke:#181818;stroke-width:0.5;"/></g><!--class ListBackofficeUsersController--><g id="elem_ListBackofficeUsersController"><polygon fill="#F1F1F1" points="128.5,147,128.5,147.2102,138.4688,146.5857,148.4375,147.1933,158.4063,147.3997,168.375,146.2866,178.3438,146.9223,188.3125,146.5735,198.2813,146.6165,208.25,146.9318,218.2188,146.3086,228.1875,147.5536,238.1563,146.3697,248.125,146.8022,258.0938,147.4319,268.0625,146.9142,278.0313,147.0682,288,146.9681,297.9688,147.1785,307.9375,147.2391,317.9063,147.5857,327.875,147.6711,337.8438,147.6793,347.8125,147.2546,357.7813,147.4636,367.75,147.7022,377.7188,146.2788,387.6875,147.6785,397.6563,146.7035,407.625,147.5338,417.5938,146.505,427.5625,146.9315,437.5313,147.7416,447.5,147,447.4938,146.985,447.867,147.1789,448.2503,147.3972,448.6138,147.5675,448.9137,147.5846,449.2678,147.7322,449.3562,147.7689,449.2379,148.0128,449.6482,148.4756,449.8759,148.8628,449.9905,149.2032,450,149.5,450.613,149.5,449.5169,159.8138,449.3478,170.1276,449.3786,180.4414,449.9411,190.7552,449.8035,201.069,450.6814,211.3828,449.8253,221.6966,449.6569,232.0104,450,242.3242,450.0703,242.3533,449.6482,242.5927,449.5472,242.9651,449.7605,243.4677,449.5484,243.794,449.2678,244.092,449.3615,244.3182,448.8732,244.1393,448.6014,244.4832,448.2824,244.7132,447.7933,244.5323,447.5,244.8242,447.5,244.7284,437.5313,244.9502,427.5625,245.476,417.5938,244.82,407.625,245.2868,397.6563,244.2704,387.6875,244.147,377.7188,245.3278,367.75,244.1073,357.7813,245.3332,347.8125,245.0308,337.8438,244.5563,327.875,244.4704,317.9063,245.283,307.9375,244.5249,297.9688,245.4161,288,244.2715,278.0313,245.4416,268.0625,245.3085,258.0938,245.0692,248.125,244.8714,238.1563,245.5508,228.1875,245.4378,218.2188,244.9935,208.25,245.0924,198.2813,244.694,188.3125,245.5407,178.3438,244.9791,168.375,244.9968,158.4063,244.2159,148.4375,244.419,138.4688,245.355,128.5,244.8242,128.5548,244.9566,128.141,244.6646,127.7518,244.4321,127.4114,244.3175,126.9983,244.0271,126.7322,244.092,126.86,244.1449,126.8135,243.8328,126.6014,243.452,126.5069,243.12,126.1043,242.6603,126,242.3242,126.0872,242.3242,125.6124,232.0104,126.284,221.6966,126.2468,211.3828,126.5524,201.069,125.7703,190.7552,125.8656,180.4414,126.4435,170.1276,126.5673,159.8138,126,149.5,125.8422,149.4346,126.0867,149.1217,126.3389,148.8119,126.2512,148.3614,126.6946,148.1309,126.7322,147.7322,126.7651,147.8117,127.0729,147.5548,127.4575,147.4831,127.8858,147.5173,128.1065,147.0501,128.5,147" style="stroke:#181818;stroke-width:0.5;"/><polygon fill="#ADD1B2" points="202.3108,171.9667,200.6984,174.1698,198.7912,177.3967,196.0636,179.5714,193.1974,180.7606,190.912,180.8638,187.9747,179.3766,185.2032,178.4049,183.0995,176.4322,181.9961,174.1738,181.3417,172.3756,180.7006,170.0267,179.66,168.0055,180.4596,166.032,181.1602,163.8702,183.7893,162.1605,185.639,159.9421,187.9284,159.2055,190.6501,158.5711,194.1404,158.948,196.0521,159.8495,198.2747,160.2582,200.9772,163.027,201.9193,165.95,202.3286,167.9444,201.865,171.2309" style="stroke:#181818;stroke-width:1.0;"/><path d="M194.0156,165.166 Q194.1719,164.9473 194.3594,164.8379 Q194.5469,164.7285 194.7656,164.7285 Q195.1406,164.7285 195.375,164.9941 Q195.6094,165.2441 195.6094,165.8535 L195.6094,167.3066 Q195.6094,167.916 195.375,168.1816 Q195.1406,168.4473 194.7656,168.4473 Q194.4219,168.4473 194.2188,168.2441 Q194.0156,168.0566 193.9063,167.541 Q193.8594,167.1816 193.6719,166.9941 Q193.3438,166.6191 192.7344,166.4004 Q192.125,166.1816 191.5,166.1816 Q190.7344,166.1816 190.0938,166.5098 Q189.4688,166.8379 188.9688,167.5879 Q188.4844,168.3379 188.4844,169.3691 L188.4844,170.4629 Q188.4844,171.6973 189.375,172.5254 Q190.2656,173.3379 191.8594,173.3379 Q192.7969,173.3379 193.4531,173.0879 Q193.8438,172.9316 194.2656,172.4941 Q194.5313,172.2285 194.6719,172.1504 Q194.8281,172.0723 195.0313,172.0723 Q195.3594,172.0723 195.6094,172.3379 Q195.875,172.5879 195.875,172.9316 Q195.875,173.2754 195.5313,173.6816 Q195.0313,174.2598 194.2344,174.5879 Q193.1563,175.041 191.8594,175.041 Q190.3438,175.041 189.1406,174.416 Q188.1563,173.916 187.4688,172.8535 Q186.7813,171.7754 186.7813,170.4941 L186.7813,169.3379 Q186.7813,168.0098 187.3906,166.8691 Q188.0156,165.7129 189.1094,165.1035 Q190.2031,164.4785 191.4375,164.4785 Q192.1719,164.4785 192.8125,164.6504 Q193.4688,164.8066 194.0156,165.166 Z " fill="#000000"/><text fill="#000000" font-family="FG Virgil" font-size="12" font-style="italic" lengthAdjust="spacing" textLength="74" x="267.25" y="164.9492">&#171;application&#187;</text><text fill="#000000" font-family="FG Virgil" font-size="14" lengthAdjust="spacing" textLength="185" x="211.75" y="183.0684">ListBackofficeUsersController</text><path d="M127,191.582 L127,191.8623 L137.0625,191.0296 L147.125,191.8397 L157.1875,192.1149 L167.25,190.6308 L177.3125,191.4784 L187.375,191.0134 L197.4375,191.0707 L207.5,191.4912 L217.5625,190.6602 L227.625,192.3202 L237.6875,190.7417 L247.75,191.3183 L257.8125,192.158 L267.875,191.4677 L277.9375,191.673 L288,191.5394 L298.0625,191.8201 L308.125,191.9009 L318.1875,192.363 L328.25,192.4768 L338.3125,192.4877 L348.375,191.9215 L358.4375,192.2001 L368.5,192.5183 L378.5625,190.6205 L388.625,192.4867 L398.6875,191.1867 L408.75,192.2938 L418.8125,190.922 L428.875,191.4907 L438.9375,192.5708 L449,191.582 " fill="#F1F1F1" style="stroke:#181818;stroke-width:0.5;"/><path d="M127,199.582 L127,199.8623 L137.0625,199.0296 L147.125,199.8397 L157.1875,200.1149 L167.25,198.6308 L177.3125,199.4784 L187.375,199.0134 L197.4375,199.0707 L207.5,199.4912 L217.5625,198.6602 L227.625,200.3202 L237.6875,198.7417 L247.75,199.3183 L257.8125,200.158 L267.875,199.4677 L277.9375,199.673 L288,199.5394 L298.0625,199.8201 L308.125,199.9009 L318.1875,200.363 L328.25,200.4768 L338.3125,200.4877 L348.375,199.9215 L358.4375,200.2001 L368.5,200.5183 L378.5625,198.6205 L388.625,200.4867 L398.6875,199.1867 L408.75,200.2938 L418.8125,198.922 L428.875,199.4907 L438.9375,200.5708 L449,199.582 " fill="#F1F1F1" style="stroke:#181818;stroke-width:0.5;"/><polygon fill="#F24D5C" points="134,211.3926,134,211.4626,135.2,211.2545,136.4,211.457,137.6,211.5258,138.8,211.1548,140,211.3926,139.9741,211.3926,139.8578,212.5926,139.8722,213.7926,139.9773,214.9926,139.7695,216.1926,140,217.3926,140,217.5771,138.8,217.1825,137.6,217.3267,136.4,217.5366,135.2,217.364,134,217.3926,134.0227,217.3926,133.9894,216.1926,134.0595,214.9926,134.0797,213.7926,134.1952,212.5926,134,211.3926" style="stroke:#C82930;stroke-width:1.0;"/><text fill="#000000" font-family="FG Virgil" font-size="14" lengthAdjust="spacing" textLength="128" x="146" y="218.6895">listBackofficeUsers()</text><polygon fill="#F24D5C" points="134,230.0137,134,230.0837,135.2,229.8756,136.4,230.0781,137.6,230.1469,138.8,229.7759,140,230.0137,139.9741,230.0137,139.8578,231.2137,139.8722,232.4137,139.9773,233.6137,139.7695,234.8137,140,236.0137,140,236.1982,138.8,235.8036,137.6,235.9477,136.4,236.1577,135.2,235.9851,134,236.0137,134.0227,236.0137,133.9894,234.8137,134.0595,233.6137,134.0797,232.4137,134.1952,231.2137,134,230.0137" style="stroke:#C82930;stroke-width:1.0;"/><text fill="#000000" font-family="FG Virgil" font-size="14" lengthAdjust="spacing" textLength="298" x="146" y="237.3105">filterBackofficeUsers(users : List&lt;SystemUser&gt;)</text></g><!--class AuthorizationService--><g id="elem_AuthorizationService"><polygon fill="#F1F1F1" points="9.5,324,9.5,324.2102,19.5833,323.5857,29.6667,324.1933,39.75,324.3997,49.8333,323.2866,59.9167,323.9223,70,323.5735,80.0833,323.6165,90.1667,323.9318,100.25,323.3086,110.3333,324.5536,120.4167,323.3697,130.5,323.8022,140.5833,324.4319,150.6667,323.9142,160.75,324.0682,170.8333,323.9681,180.9167,324.1785,191,324.2391,201.0833,324.5857,211.1667,324.6711,221.25,324.6793,231.3333,324.2546,241.4167,324.4636,251.5,324.7022,261.5833,323.2788,271.6667,324.6785,281.75,323.7035,291.8333,324.5338,301.9167,323.505,312,323.9315,322.0833,324.7416,332.1667,323.9513,342.25,324.1053,352.3333,324.3386,362.4167,324.4162,372.5,324,372.4995,323.9988,372.8902,324.2349,373.1341,324.1166,373.5969,324.5269,373.9841,324.7546,374.2678,324.7322,374.4047,324.7889,374.603,325.164,374.4119,325.3777,374.5063,325.7097,374.6622,326.0672,375,326.5,374.9411,326.5,374.8035,337.1004,375.6814,347.7009,374.8253,358.3013,374.6569,368.9018,375.2283,379.5022,374.3332,390.1027,375,400.7031,374.8401,400.6369,375.0534,401.1395,374.8413,401.4658,374.7869,401.8575,374.3151,402.0763,374.2678,402.4709,374.3085,402.5692,373.9895,402.7992,373.5004,402.6183,373.1949,402.8807,372.8696,403.0955,372.5,403.2031,372.5,403.8549,362.4167,403.1989,352.3333,403.6657,342.25,402.6493,332.1667,402.5259,322.0833,403.7067,312,402.4862,301.9167,403.7121,291.8333,403.4098,281.75,402.9352,271.6667,402.8494,261.5833,403.6619,251.5,402.9038,241.4167,403.795,231.3333,402.6504,221.25,403.8206,211.1667,403.6874,201.0833,403.4481,191,403.2503,180.9167,403.9297,170.8333,403.8167,160.75,403.3724,150.6667,403.4713,140.5833,403.0729,130.5,403.9196,120.4167,403.358,110.3333,403.3757,100.25,402.5948,90.1667,402.7979,80.0833,403.7339,70,403.6329,59.9167,403.1602,49.8333,402.881,39.75,402.9842,29.6667,402.5169,19.5833,403.6179,9.5,403.2031,9.5943,403.4309,9.2136,403.2188,8.8815,403.1242,8.4219,402.7217,8.0969,402.6442,7.7322,402.4709,7.6129,402.4214,7.6733,402.1536,7.5153,401.7953,7.463,401.4807,7.0757,401.0274,7,400.7031,6.8656,400.7031,7.4435,390.1027,7.5673,379.5022,6.4875,368.9018,6.8061,358.3013,7.1493,347.7009,6.3892,337.1004,7,326.5,7.1088,326.5451,7.2259,326.1794,7.2619,325.78,7.4831,325.4575,7.8102,325.1787,7.7322,324.7322,7.6923,324.6359,8.126,324.6828,8.4758,324.5273,8.8077,324.3285,9.1644,324.1898,9.5,324" style="stroke:#181818;stroke-width:0.5;"/><polygon fill="#ADD1B2" points="133.3108,348.9667,131.6984,351.1698,129.7912,354.3967,127.0636,356.5714,124.1974,357.7606,121.912,357.8638,118.9747,356.3766,116.2032,355.4049,114.0995,353.4322,112.9961,351.1738,112.3417,349.3756,111.7006,347.0267,110.66,345.0055,111.4596,343.032,112.1602,340.8702,114.7893,339.1605,116.639,336.9421,118.9284,336.2055,121.6501,335.5711,125.1404,335.948,127.0521,336.8495,129.2747,337.2582,131.9772,340.027,132.9193,342.95,133.3286,344.9444,132.865,348.2309" style="stroke:#181818;stroke-width:1.0;"/><path d="M125.0156,342.166 Q125.1719,341.9473 125.3594,341.8379 Q125.5469,341.7285 125.7656,341.7285 Q126.1406,341.7285 126.375,341.9941 Q126.6094,342.2441 126.6094,342.8535 L126.6094,344.3066 Q126.6094,344.916 126.375,345.1816 Q126.1406,345.4473 125.7656,345.4473 Q125.4219,345.4473 125.2188,345.2441 Q125.0156,345.0566 124.9063,344.541 Q124.8594,344.1816 124.6719,343.9941 Q124.3438,343.6191 123.7344,343.4004 Q123.125,343.1816 122.5,343.1816 Q121.7344,343.1816 121.0938,343.5098 Q120.4688,343.8379 119.9688,344.5879 Q119.4844,345.3379 119.4844,346.3691 L119.4844,347.4629 Q119.4844,348.6973 120.375,349.5254 Q121.2656,350.3379 122.8594,350.3379 Q123.7969,350.3379 124.4531,350.0879 Q124.8438,349.9316 125.2656,349.4941 Q125.5313,349.2285 125.6719,349.1504 Q125.8281,349.0723 126.0313,349.0723 Q126.3594,349.0723 126.6094,349.3379 Q126.875,349.5879 126.875,349.9316 Q126.875,350.2754 126.5313,350.6816 Q126.0313,351.2598 125.2344,351.5879 Q124.1563,352.041 122.8594,352.041 Q121.3438,352.041 120.1406,351.416 Q119.1563,350.916 118.4688,349.8535 Q117.7813,348.7754 117.7813,347.4941 L117.7813,346.3379 Q117.7813,345.0098 118.3906,343.8691 Q119.0156,342.7129 120.1094,342.1035 Q121.2031,341.4785 122.4375,341.4785 Q123.1719,341.4785 123.8125,341.6504 Q124.4688,341.8066 125.0156,342.166 Z " fill="#000000"/><text fill="#000000" font-family="FG Virgil" font-size="12" font-style="italic" lengthAdjust="spacing" textLength="53" x="180.75" y="341.9492">&#171;service&#187;</text><text fill="#000000" font-family="FG Virgil" font-size="14" lengthAdjust="spacing" textLength="129" x="142.75" y="360.0684">AuthorizationService</text><path d="M8,368.582 L8,368.8623 L17.8919,368.0296 L27.7838,368.8397 L37.6757,369.1149 L47.5676,367.6308 L57.4595,368.4784 L67.3514,368.0134 L77.2432,368.0707 L87.1351,368.4912 L97.027,367.6602 L106.9189,369.3202 L116.8108,367.7417 L126.7027,368.3183 L136.5946,369.158 L146.4865,368.4677 L156.3784,368.673 L166.2703,368.5394 L176.1622,368.8201 L186.0541,368.9009 L195.9459,369.363 L205.8378,369.4768 L215.7297,369.4877 L225.6216,368.9215 L235.5135,369.2001 L245.4054,369.5183 L255.2973,367.6205 L265.1892,369.4867 L275.0811,368.1867 L284.973,369.2938 L294.8649,367.922 L304.7568,368.4907 L314.6486,369.5708 L324.5405,368.5171 L334.4324,368.7224 L344.3243,369.0335 L354.2162,369.137 L364.1081,368.5768 L374,368.582 " fill="#F1F1F1" style="stroke:#181818;stroke-width:0.5;"/><path d="M8,376.582 L8,376.8623 L17.8919,376.0296 L27.7838,376.8397 L37.6757,377.1149 L47.5676,375.6308 L57.4595,376.4784 L67.3514,376.0134 L77.2432,376.0707 L87.1351,376.4912 L97.027,375.6602 L106.9189,377.3202 L116.8108,375.7417 L126.7027,376.3183 L136.5946,377.158 L146.4865,376.4677 L156.3784,376.673 L166.2703,376.5394 L176.1622,376.8201 L186.0541,376.9009 L195.9459,377.363 L205.8378,377.4768 L215.7297,377.4877 L225.6216,376.9215 L235.5135,377.2001 L245.4054,377.5183 L255.2973,375.6205 L265.1892,377.4867 L275.0811,376.1867 L284.973,377.2938 L294.8649,375.922 L304.7568,376.4907 L314.6486,377.5708 L324.5405,376.5171 L334.4324,376.7224 L344.3243,377.0335 L354.2162,377.137 L364.1081,376.5768 L374,376.582 " fill="#F1F1F1" style="stroke:#181818;stroke-width:0.5;"/><polygon fill="#F24D5C" points="15,388.3926,15,388.4626,16.2,388.2545,17.4,388.457,18.6,388.5258,19.8,388.1548,21,388.3926,20.9741,388.3926,20.8578,389.5926,20.8722,390.7926,20.9773,391.9926,20.7695,393.1926,21,394.3926,21,394.5771,19.8,394.1825,18.6,394.3267,17.4,394.5366,16.2,394.364,15,394.3926,15.0227,394.3926,14.9894,393.1926,15.0595,391.9926,15.0797,390.7926,15.1952,389.5926,15,388.3926" style="stroke:#C82930;stroke-width:1.0;"/><text fill="#000000" font-family="FG Virgil" font-size="14" lengthAdjust="spacing" textLength="342" x="27" y="395.6895">ensureAuthenticatedUserHasAnyOf(roles : Set&lt;Role&gt;)</text></g><!--class UserManagementService--><g id="elem_UserManagementService"><polygon fill="#F1F1F1" points="412.5,324,412.5,324.2102,422.2368,323.5857,431.9737,324.1933,441.7105,324.3997,451.4474,323.2866,461.1842,323.9223,470.9211,323.5735,480.6579,323.6165,490.3947,323.9318,500.1316,323.3086,509.8684,324.5536,519.6053,323.3697,529.3421,323.8022,539.0789,324.4319,548.8158,323.9142,558.5526,324.0682,568.2895,323.9681,578.0263,324.1785,587.7632,324.2391,597.5,324,597.5747,324.1804,597.9392,324.3531,598.2938,324.5021,598.5931,324.5178,598.9733,324.7286,599.2678,324.7322,599.484,324.8218,599.1921,324.9938,599.7696,325.5259,599.6158,325.7551,600.0179,326.2145,600,326.5,599.505,326.5,599.9315,337.1004,600.7416,347.7009,599.9513,358.3013,600.1053,368.9018,600.3386,379.5022,600.4162,390.1027,600,400.7031,599.9988,400.7026,599.942,401.0933,599.5308,401.3372,599.6482,401.8001,599.583,402.1873,599.2678,402.4709,599.3245,402.6078,598.9924,402.8061,598.499,402.615,598.1239,402.7094,597.7743,402.8653,597.5,403.2031,597.5,403.1442,587.7632,403.0066,578.0263,403.8845,568.2895,403.0284,558.5526,402.8601,548.8158,403.4314,539.0789,402.5363,529.3421,402.684,519.6053,403.8521,509.8684,403.6388,500.1316,403.9376,490.3947,402.8813,480.6579,403.5223,470.9211,403.7935,461.1842,402.7307,451.4474,403.1073,441.7105,403.3291,431.9737,403.8549,422.2368,403.1989,412.5,403.2031,412.559,403.3456,412.0758,402.8861,411.7065,402.7017,411.5036,402.9189,410.9943,402.3965,410.7322,402.4709,410.889,402.5358,410.6494,402.1437,410.3568,401.7296,410.1839,401.3651,410.2877,401.1152,410,400.7031,409.7007,400.7031,410.5919,390.1027,409.4473,379.5022,410.6174,368.9018,410.4843,358.3013,410.245,347.7009,410.0472,337.1004,410,326.5,410.2238,326.5927,410.3354,326.2247,410.345,325.8145,410.5219,325.4736,410.5457,325.0692,410.7322,324.7322,410.8236,324.9529,411.1055,324.6335,411.4614,324.4925,411.7153,324.1055,412.0948,324.0217,412.5,324" style="stroke:#181818;stroke-width:0.5;"/><polygon fill="#ADD1B2" points="436.0608,348.9667,434.4484,351.1698,432.5412,354.3967,429.8136,356.5714,426.9474,357.7606,424.662,357.8638,421.7247,356.3766,418.9532,355.4049,416.8495,353.4322,415.7461,351.1738,415.0917,349.3756,414.4506,347.0267,413.41,345.0055,414.2096,343.032,414.9102,340.8702,417.5393,339.1605,419.389,336.9421,421.6784,336.2055,424.4001,335.5711,427.8904,335.948,429.8021,336.8495,432.0247,337.2582,434.7272,340.027,435.6693,342.95,436.0786,344.9444,435.615,348.2309" style="stroke:#181818;stroke-width:1.0;"/><path d="M427.7656,342.166 Q427.9219,341.9473 428.1094,341.8379 Q428.2969,341.7285 428.5156,341.7285 Q428.8906,341.7285 429.125,341.9941 Q429.3594,342.2441 429.3594,342.8535 L429.3594,344.3066 Q429.3594,344.916 429.125,345.1816 Q428.8906,345.4473 428.5156,345.4473 Q428.1719,345.4473 427.9688,345.2441 Q427.7656,345.0566 427.6563,344.541 Q427.6094,344.1816 427.4219,343.9941 Q427.0938,343.6191 426.4844,343.4004 Q425.875,343.1816 425.25,343.1816 Q424.4844,343.1816 423.8438,343.5098 Q423.2188,343.8379 422.7188,344.5879 Q422.2344,345.3379 422.2344,346.3691 L422.2344,347.4629 Q422.2344,348.6973 423.125,349.5254 Q424.0156,350.3379 425.6094,350.3379 Q426.5469,350.3379 427.2031,350.0879 Q427.5938,349.9316 428.0156,349.4941 Q428.2813,349.2285 428.4219,349.1504 Q428.5781,349.0723 428.7813,349.0723 Q429.1094,349.0723 429.3594,349.3379 Q429.625,349.5879 429.625,349.9316 Q429.625,350.2754 429.2813,350.6816 Q428.7813,351.2598 427.9844,351.5879 Q426.9063,352.041 425.6094,352.041 Q424.0938,352.041 422.8906,351.416 Q421.9063,350.916 421.2188,349.8535 Q420.5313,348.7754 420.5313,347.4941 L420.5313,346.3379 Q420.5313,345.0098 421.1406,343.8691 Q421.7656,342.7129 422.8594,342.1035 Q423.9531,341.4785 425.1875,341.4785 Q425.9219,341.4785 426.5625,341.6504 Q427.2188,341.8066 427.7656,342.166 Z " fill="#000000"/><text fill="#000000" font-family="FG Virgil" font-size="12" font-style="italic" lengthAdjust="spacing" textLength="53" x="491.5" y="341.9492">&#171;service&#187;</text><text fill="#000000" font-family="FG Virgil" font-size="14" lengthAdjust="spacing" textLength="158" x="439" y="360.0684">UserManagementService</text><path d="M411,368.582 L411,368.8623 L420.8947,368.0296 L430.7895,368.8397 L440.6842,369.1149 L450.5789,367.6308 L460.4737,368.4784 L470.3684,368.0134 L480.2632,368.0707 L490.1579,368.4912 L500.0526,367.6602 L509.9474,369.3202 L519.8421,367.7417 L529.7368,368.3183 L539.6316,369.158 L549.5263,368.4677 L559.4211,368.673 L569.3158,368.5394 L579.2105,368.8201 L589.1053,368.9009 L599,368.582 " fill="#F1F1F1" style="stroke:#181818;stroke-width:0.5;"/><path d="M411,376.582 L411,376.8623 L420.8947,376.0296 L430.7895,376.8397 L440.6842,377.1149 L450.5789,375.6308 L460.4737,376.4784 L470.3684,376.0134 L480.2632,376.0707 L490.1579,376.4912 L500.0526,375.6602 L509.9474,377.3202 L519.8421,375.7417 L529.7368,376.3183 L539.6316,377.158 L549.5263,376.4677 L559.4211,376.673 L569.3158,376.5394 L579.2105,376.8201 L589.1053,376.9009 L599,376.582 " fill="#F1F1F1" style="stroke:#181818;stroke-width:0.5;"/><polygon fill="#F24D5C" points="418,388.3926,418,388.4626,419.2,388.2545,420.4,388.457,421.6,388.5258,422.8,388.1548,424,388.3926,423.9741,388.3926,423.8578,389.5926,423.8722,390.7926,423.9773,391.9926,423.7695,393.1926,424,394.3926,424,394.5771,422.8,394.1825,421.6,394.3267,420.4,394.5366,419.2,394.364,418,394.3926,418.0227,394.3926,417.9894,393.1926,418.0595,391.9926,418.0797,390.7926,418.1952,389.5926,418,388.3926" style="stroke:#C82930;stroke-width:1.0;"/><text fill="#000000" font-family="FG Virgil" font-size="14" lengthAdjust="spacing" textLength="60" x="430" y="395.6895">allUsers()</text></g><!--class PersistenceContext--><g id="elem_PersistenceContext"><polygon fill="#F1F1F1" points="430.5,482,430.5,482.2102,440.4333,481.5857,450.3667,482.1933,460.3,482.3997,470.2333,481.2866,480.1667,481.9223,490.1,481.5735,500.0333,481.6165,509.9667,481.9318,519.9,481.3086,529.8333,482.5536,539.7667,481.3697,549.7,481.8022,559.6333,482.4319,569.5667,481.9142,579.5,482,579.5087,482.021,579.8495,482.1366,580.2299,482.3479,580.5912,482.513,580.9889,482.7662,581.2678,482.7322,581.4744,482.8178,581.6234,483.1724,581.6391,483.4718,581.8499,483.852,582.0698,484.236,582,484.5,581.2788,484.5,582.6785,495.1004,581.7035,505.7009,582.5338,516.3013,581.505,526.9018,581.9315,537.5022,582.7416,548.1027,582,558.7031,581.985,558.6969,581.886,559.0701,581.8114,559.4534,581.6888,559.8169,581.413,560.1168,581.2678,560.4709,581.3044,560.5593,580.8412,560.4411,580.5969,560.8514,580.277,561.0791,579.9103,561.1936,579.5,561.2031,579.5,561.8161,569.5667,560.72,559.6333,560.5509,549.7,560.5817,539.7667,561.1442,529.8333,561.0066,519.9,561.8845,509.9667,561.0284,500.0333,560.8601,490.1,561.4314,480.1667,560.5363,470.2333,560.684,460.3,561.8521,450.3667,561.6388,440.4333,561.9376,430.5,561.2031,430.459,561.104,430.1872,561.155,429.8682,561.0921,429.3791,560.6183,429.0736,560.5878,428.7322,560.4709,428.771,560.487,428.7865,560.2005,428.438,559.7633,428.4353,559.4692,427.9759,558.986,428,558.7031,427.3227,558.7031,428.5036,548.1027,427.2831,537.5022,428.509,526.9018,428.2066,516.3013,427.7321,505.7009,427.6462,495.1004,428,484.5,428.1413,484.5585,428.0543,484.1083,428.4752,483.8684,428.2691,483.3688,428.7759,483.1645,428.7322,482.7322,428.794,482.8814,429.117,482.6612,429.4454,482.4539,429.8856,482.5167,430.2247,482.3354,430.5,482" style="stroke:#181818;stroke-width:0.5;"/><polygon fill="#ADD1B2" points="454.0608,506.9667,452.4484,509.1698,450.5412,512.3967,447.8136,514.5714,444.9474,515.7606,442.662,515.8638,439.7247,514.3766,436.9532,513.4049,434.8495,511.4322,433.7461,509.1738,433.0917,507.3756,432.4506,505.0267,431.41,503.0055,432.2096,501.032,432.9102,498.8702,435.5393,497.1605,437.389,494.9421,439.6784,494.2055,442.4001,493.5711,445.8904,493.948,447.8021,494.8495,450.0247,495.2582,452.7272,498.027,453.6693,500.95,454.0786,502.9444,453.615,506.2309" style="stroke:#181818;stroke-width:1.0;"/><path d="M445.7656,500.166 Q445.9219,499.9473 446.1094,499.8379 Q446.2969,499.7285 446.5156,499.7285 Q446.8906,499.7285 447.125,499.9941 Q447.3594,500.2441 447.3594,500.8535 L447.3594,502.3066 Q447.3594,502.916 447.125,503.1816 Q446.8906,503.4473 446.5156,503.4473 Q446.1719,503.4473 445.9688,503.2441 Q445.7656,503.0566 445.6563,502.541 Q445.6094,502.1816 445.4219,501.9941 Q445.0938,501.6191 444.4844,501.4004 Q443.875,501.1816 443.25,501.1816 Q442.4844,501.1816 441.8438,501.5098 Q441.2188,501.8379 440.7188,502.5879 Q440.2344,503.3379 440.2344,504.3691 L440.2344,505.4629 Q440.2344,506.6973 441.125,507.5254 Q442.0156,508.3379 443.6094,508.3379 Q444.5469,508.3379 445.2031,508.0879 Q445.5938,507.9316 446.0156,507.4941 Q446.2813,507.2285 446.4219,507.1504 Q446.5781,507.0723 446.7813,507.0723 Q447.1094,507.0723 447.3594,507.3379 Q447.625,507.5879 447.625,507.9316 Q447.625,508.2754 447.2813,508.6816 Q446.7813,509.2598 445.9844,509.5879 Q444.9063,510.041 443.6094,510.041 Q442.0938,510.041 440.8906,509.416 Q439.9063,508.916 439.2188,507.8535 Q438.5313,506.7754 438.5313,505.4941 L438.5313,504.3379 Q438.5313,503.0098 439.1406,501.8691 Q439.7656,500.7129 440.8594,500.1035 Q441.9531,499.4785 443.1875,499.4785 Q443.9219,499.4785 444.5625,499.6504 Q445.2188,499.8066 445.7656,500.166 Z " fill="#000000"/><text fill="#000000" font-family="FG Virgil" font-size="12" font-style="italic" lengthAdjust="spacing" textLength="77" x="479.5" y="499.9492">&#171;persistence&#187;</text><text fill="#000000" font-family="FG Virgil" font-size="14" lengthAdjust="spacing" textLength="122" x="457" y="518.0684">PersistenceContext</text><path d="M429,526.582 L429,526.8623 L439.1333,526.0296 L449.2667,526.8397 L459.4,527.1149 L469.5333,525.6308 L479.6667,526.4784 L489.8,526.0134 L499.9333,526.0707 L510.0667,526.4912 L520.2,525.6602 L530.3333,527.3202 L540.4667,525.7417 L550.6,526.3183 L560.7333,527.158 L570.8667,526.4677 L581,526.582 " fill="#F1F1F1" style="stroke:#181818;stroke-width:0.5;"/><path d="M429,534.582 L429,534.8623 L439.1333,534.0296 L449.2667,534.8397 L459.4,535.1149 L469.5333,533.6308 L479.6667,534.4784 L489.8,534.0134 L499.9333,534.0707 L510.0667,534.4912 L520.2,533.6602 L530.3333,535.3202 L540.4667,533.7417 L550.6,534.3183 L560.7333,535.158 L570.8667,534.4677 L581,534.582 " fill="#F1F1F1" style="stroke:#181818;stroke-width:0.5;"/><polygon fill="#F24D5C" points="436,546.3926,436,546.4626,437.2,546.2545,438.4,546.457,439.6,546.5258,440.8,546.1548,442,546.3926,441.9741,546.3926,441.8578,547.5926,441.8722,548.7926,441.9773,549.9926,441.7695,551.1926,442,552.3926,442,552.5771,440.8,552.1825,439.6,552.3267,438.4,552.5366,437.2,552.364,436,552.3926,436.0227,552.3926,435.9894,551.1926,436.0595,549.9926,436.0797,548.7926,436.1952,547.5926,436,546.3926" style="stroke:#C82930;stroke-width:1.0;"/><text fill="#000000" font-family="FG Virgil" font-size="14" lengthAdjust="spacing" textLength="84" x="448" y="553.6895">repositories()</text></g><!--class RepositoryFactory--><g id="elem_RepositoryFactory"><polygon fill="#F1F1F1" points="433.5,640,433.5,640.2102,443.7143,639.5857,453.9286,640.1933,464.1429,640.3997,474.3571,639.2866,484.5714,639.9223,494.7857,639.5735,505,639.6165,515.2143,639.9318,525.4286,639.3086,535.6429,640.5536,545.8571,639.3697,556.0714,639.8022,566.2857,640.4319,576.5,640,576.4891,639.9736,576.8623,640.1675,577.203,640.2831,577.5834,640.4943,577.9447,640.6594,578.2678,640.7322,578.4481,640.8069,578.6209,641.1714,578.7698,641.526,578.7855,641.8254,578.9963,642.2056,579,642.5,579.7022,642.5,578.2788,653.1004,579.6785,663.7009,578.7035,674.3013,579.5338,684.9018,578.505,695.5022,578.9315,706.1027,579,716.7031,579.2284,716.7977,578.8385,717.0505,578.7395,717.4237,578.6649,717.807,578.5424,718.1704,578.2678,718.4709,578.2673,718.4697,577.9509,718.7058,577.4876,718.5875,577.2434,718.9978,576.9235,719.2255,576.5,719.2031,576.5,719.6477,566.2857,719.8161,556.0714,718.72,545.8571,718.5509,535.6429,718.5817,525.4286,719.1442,515.2143,719.0066,505,719.8845,494.7857,719.0284,484.5714,718.8601,474.3571,719.4314,464.1429,718.5363,453.9286,718.684,443.7143,719.8521,433.5,719.2031,433.5556,719.3373,433.2401,719.2829,432.7518,718.8111,432.4801,718.8621,432.1611,718.7992,431.7322,718.4709,431.5868,718.4106,431.5563,718.1051,431.4781,717.7799,431.4936,717.4934,431.1452,717.0561,431,716.7031,431.4626,716.7031,430.4462,706.1027,430.3227,695.5022,431.5036,684.9018,430.2831,674.3013,431.509,663.7009,431.2066,653.1004,431,642.5,430.9175,642.4658,431.0375,642.1013,431.4342,641.8514,431.3472,641.4012,431.7681,641.1613,431.7322,640.7322,431.6617,640.562,432.1645,640.7759,432.5011,640.5885,432.8241,640.3683,433.1525,640.161,433.5,640" style="stroke:#181818;stroke-width:0.5;"/><polygon fill="#ADD1B2" points="457.0608,664.9667,455.4484,667.1698,453.5412,670.3967,450.8136,672.5714,447.9474,673.7606,445.662,673.8638,442.7247,672.3766,439.9532,671.4049,437.8495,669.4322,436.7461,667.1738,436.0917,665.3756,435.4506,663.0267,434.41,661.0055,435.2096,659.032,435.9102,656.8702,438.5393,655.1605,440.389,652.9421,442.6784,652.2055,445.4001,651.5711,448.8904,651.948,450.8021,652.8495,453.0247,653.2582,455.7272,656.027,456.6693,658.95,457.0786,660.9444,456.615,664.2309" style="stroke:#181818;stroke-width:1.0;"/><path d="M448.7656,658.166 Q448.9219,657.9473 449.1094,657.8379 Q449.2969,657.7285 449.5156,657.7285 Q449.8906,657.7285 450.125,657.9941 Q450.3594,658.2441 450.3594,658.8535 L450.3594,660.3066 Q450.3594,660.916 450.125,661.1816 Q449.8906,661.4473 449.5156,661.4473 Q449.1719,661.4473 448.9688,661.2441 Q448.7656,661.0566 448.6563,660.541 Q448.6094,660.1816 448.4219,659.9941 Q448.0938,659.6191 447.4844,659.4004 Q446.875,659.1816 446.25,659.1816 Q445.4844,659.1816 444.8438,659.5098 Q444.2188,659.8379 443.7188,660.5879 Q443.2344,661.3379 443.2344,662.3691 L443.2344,663.4629 Q443.2344,664.6973 444.125,665.5254 Q445.0156,666.3379 446.6094,666.3379 Q447.5469,666.3379 448.2031,666.0879 Q448.5938,665.9316 449.0156,665.4941 Q449.2813,665.2285 449.4219,665.1504 Q449.5781,665.0723 449.7813,665.0723 Q450.1094,665.0723 450.3594,665.3379 Q450.625,665.5879 450.625,665.9316 Q450.625,666.2754 450.2813,666.6816 Q449.7813,667.2598 448.9844,667.5879 Q447.9063,668.041 446.6094,668.041 Q445.0938,668.041 443.8906,667.416 Q442.9063,666.916 442.2188,665.8535 Q441.5313,664.7754 441.5313,663.4941 L441.5313,662.3379 Q441.5313,661.0098 442.1406,659.8691 Q442.7656,658.7129 443.8594,658.1035 Q444.9531,657.4785 446.1875,657.4785 Q446.9219,657.4785 447.5625,657.6504 Q448.2188,657.8066 448.7656,658.166 Z " fill="#000000"/><text fill="#000000" font-family="FG Virgil" font-size="12" font-style="italic" lengthAdjust="spacing" textLength="50" x="493" y="657.9492">&#171;factory&#187;</text><text fill="#000000" font-family="FG Virgil" font-size="14" lengthAdjust="spacing" textLength="116" x="460" y="676.0684">RepositoryFactory</text><path d="M432,684.582 L432,684.8623 L441.7333,684.0296 L451.4667,684.8397 L461.2,685.1149 L470.9333,683.6308 L480.6667,684.4784 L490.4,684.0134 L500.1333,684.0707 L509.8667,684.4912 L519.6,683.6602 L529.3333,685.3202 L539.0667,683.7417 L548.8,684.3183 L558.5333,685.158 L568.2667,684.4677 L578,684.582 " fill="#F1F1F1" style="stroke:#181818;stroke-width:0.5;"/><path d="M432,692.582 L432,692.8623 L441.7333,692.0296 L451.4667,692.8397 L461.2,693.1149 L470.9333,691.6308 L480.6667,692.4784 L490.4,692.0134 L500.1333,692.0707 L509.8667,692.4912 L519.6,691.6602 L529.3333,693.3202 L539.0667,691.7417 L548.8,692.3183 L558.5333,693.158 L568.2667,692.4677 L578,692.582 " fill="#F1F1F1" style="stroke:#181818;stroke-width:0.5;"/><polygon fill="#F24D5C" points="439,704.3926,439,704.4626,440.2,704.2545,441.4,704.457,442.6,704.5258,443.8,704.1548,445,704.3926,444.9741,704.3926,444.8578,705.5926,444.8722,706.7926,444.9773,707.9926,444.7695,709.1926,445,710.3926,445,710.5771,443.8,710.1825,442.6,710.3267,441.4,710.5366,440.2,710.364,439,710.3926,439.0227,710.3926,438.9894,709.1926,439.0595,707.9926,439.0797,706.7926,439.1952,705.5926,439,704.3926" style="stroke:#C82930;stroke-width:1.0;"/><text fill="#000000" font-family="FG Virgil" font-size="14" lengthAdjust="spacing" textLength="45" x="451" y="711.6895">users()</text></g><!--class UserRepository--><g id="elem_UserRepository"><polygon fill="#F1F1F1" points="443,798,443,798.2102,453.3333,797.5857,463.6667,798.1933,474,798.3997,484.3333,797.2866,494.6667,797.9223,505,797.5735,515.3333,797.6165,525.6667,797.9318,536,797.3086,546.3333,798.5536,556.6667,797.3697,567,798,566.9748,797.9391,567.4087,798.2795,567.6962,798.2665,568.0694,798.4604,568.4101,798.5759,568.7678,798.7322,568.8227,798.755,568.9879,799.1163,569.241,799.5141,569.4138,799.8785,569.5627,800.2331,569.5,800.5,569.7546,800.5,569.9636,811.1004,570.2022,821.7009,568.7788,832.3013,570.1785,842.9018,569.2035,853.5022,570.0338,864.1027,569.5,874.7031,569.3476,874.64,569.3325,875.0479,569.4355,875.5048,569.0457,875.7576,568.9466,876.1308,568.7678,876.4709,568.811,876.5752,568.4673,876.7455,568.0602,876.7626,567.7437,876.9987,567.2805,876.8804,567,877.2031,567,877.4875,556.6667,877.7513,546.3333,877.6477,536,877.8161,525.6667,876.72,515.3333,876.5509,505,876.5817,494.6667,877.1442,484.3333,877.0066,474,877.8845,463.6667,877.0284,453.3333,876.8601,443,877.2031,443.0291,877.2734,442.5614,876.8513,442.2267,876.7504,442.0221,876.9636,441.6414,876.7515,441.2322,876.4709,441.4584,876.5646,440.9867,876.0763,441.0376,875.8045,440.9747,875.4855,440.501,874.9964,440.5,874.7031,440.4041,874.7031,440.626,864.1027,441.1518,853.5022,440.4958,842.9018,440.9626,832.3013,439.9462,821.7009,439.8227,811.1004,440.5,800.5,440.6551,800.5642,440.4257,800.055,440.9496,799.8578,441.003,799.4657,441.0033,799.0516,441.2322,798.7322,441.1871,798.6233,441.6443,798.7271,441.9012,798.3472,442.3684,798.4752,442.5759,797.9762,443,798" style="stroke:#181818;stroke-width:0.5;"/><polygon fill="#ADD1B2" points="466.5608,822.9667,464.9484,825.1698,463.0412,828.3967,460.3136,830.5714,457.4474,831.7606,455.162,831.8638,452.2247,830.3766,449.4532,829.4049,447.3495,827.4322,446.2461,825.1738,445.5917,823.3756,444.9506,821.0267,443.91,819.0055,444.7096,817.032,445.4102,814.8702,448.0393,813.1605,449.889,810.9421,452.1784,810.2055,454.9001,809.5711,458.3904,809.948,460.3021,810.8495,462.5247,811.2582,465.2272,814.027,466.1693,816.95,466.5786,818.9444,466.115,822.2309" style="stroke:#181818;stroke-width:1.0;"/><path d="M458.2656,816.166 Q458.4219,815.9473 458.6094,815.8379 Q458.7969,815.7285 459.0156,815.7285 Q459.3906,815.7285 459.625,815.9941 Q459.8594,816.2441 459.8594,816.8535 L459.8594,818.3066 Q459.8594,818.916 459.625,819.1816 Q459.3906,819.4473 459.0156,819.4473 Q458.6719,819.4473 458.4688,819.2441 Q458.2656,819.0566 458.1563,818.541 Q458.1094,818.1816 457.9219,817.9941 Q457.5938,817.6191 456.9844,817.4004 Q456.375,817.1816 455.75,817.1816 Q454.9844,817.1816 454.3438,817.5098 Q453.7188,817.8379 453.2188,818.5879 Q452.7344,819.3379 452.7344,820.3691 L452.7344,821.4629 Q452.7344,822.6973 453.625,823.5254 Q454.5156,824.3379 456.1094,824.3379 Q457.0469,824.3379 457.7031,824.0879 Q458.0938,823.9316 458.5156,823.4941 Q458.7813,823.2285 458.9219,823.1504 Q459.0781,823.0723 459.2813,823.0723 Q459.6094,823.0723 459.8594,823.3379 Q460.125,823.5879 460.125,823.9316 Q460.125,824.2754 459.7813,824.6816 Q459.2813,825.2598 458.4844,825.5879 Q457.4063,826.041 456.1094,826.041 Q454.5938,826.041 453.3906,825.416 Q452.4063,824.916 451.7188,823.8535 Q451.0313,822.7754 451.0313,821.4941 L451.0313,820.3379 Q451.0313,819.0098 451.6406,817.8691 Q452.2656,816.7129 453.3594,816.1035 Q454.4531,815.4785 455.6875,815.4785 Q456.4219,815.4785 457.0625,815.6504 Q457.7188,815.8066 458.2656,816.166 Z " fill="#000000"/><text fill="#000000" font-family="FG Virgil" font-size="12" font-style="italic" lengthAdjust="spacing" textLength="68" x="484" y="815.9492">&#171;repository&#187;</text><text fill="#000000" font-family="FG Virgil" font-size="14" lengthAdjust="spacing" textLength="97" x="469.5" y="834.0684">UserRepository</text><path d="M441.5,842.582 L441.5,842.8623 L451.2692,842.0296 L461.0385,842.8397 L470.8077,843.1149 L480.5769,841.6308 L490.3462,842.4784 L500.1154,842.0134 L509.8846,842.0707 L519.6538,842.4912 L529.4231,841.6602 L539.1923,843.3202 L548.9615,841.7417 L558.7308,842.3183 L568.5,842.582 " fill="#F1F1F1" style="stroke:#181818;stroke-width:0.5;"/><path d="M441.5,850.582 L441.5,850.8623 L451.2692,850.0296 L461.0385,850.8397 L470.8077,851.1149 L480.5769,849.6308 L490.3462,850.4784 L500.1154,850.0134 L509.8846,850.0707 L519.6538,850.4912 L529.4231,849.6602 L539.1923,851.3202 L548.9615,849.7417 L558.7308,850.3183 L568.5,850.582 " fill="#F1F1F1" style="stroke:#181818;stroke-width:0.5;"/><polygon fill="#F24D5C" points="448.5,862.3926,448.5,862.4626,449.7,862.2545,450.9,862.457,452.1,862.5258,453.3,862.1548,454.5,862.3926,454.4741,862.3926,454.3578,863.5926,454.3722,864.7926,454.4773,865.9926,454.2695,867.1926,454.5,868.3926,454.5,868.5771,453.3,868.1825,452.1,868.3267,450.9,868.5366,449.7,868.364,448.5,868.3926,448.5227,868.3926,448.4894,867.1926,448.5595,865.9926,448.5797,864.7926,448.6952,863.5926,448.5,862.3926" style="stroke:#C82930;stroke-width:1.0;"/><text fill="#000000" font-family="FG Virgil" font-size="14" lengthAdjust="spacing" textLength="48" x="460.5" y="869.6895">findAll()</text></g><!--link ListBackofficeUsersUI to ListBackofficeUsersController--><g id="link_ListBackofficeUsersUI_ListBackofficeUsersController"><path d="M288,68.3 L288.2802,68.3 L287.4476,78.7814 L288.2577,89.2629 L288.5329,99.7443 L287.0488,110.2257 L287.8964,120.7071 L287.4313,131.1886 L288,141.67 " fill="none" style="stroke:#181818;stroke-width:1.0;"/><polygon fill="#181818" points="288,146.84,288.064,146.8685,288.6738,144.9839,289.6589,143.2662,290.5217,141.4941,290.9827,139.5434,292,137.84,291.9817,137.8217,291.0995,138.5395,290.3096,139.3496,289.5839,140.2239,288.637,140.877,288,141.84,288.1305,141.9705,287.0514,140.8914,286.3534,140.1934,285.7018,139.5418,284.7798,138.6198,284,137.84,284.0208,137.8492,284.7903,139.6357,285.6544,141.4642,286.4728,143.2724,287.3784,145.1193,288,146.84" style="stroke:#181818;stroke-width:1.0;"/><text fill="#000000" font-family="FG Virgil" font-size="13" lengthAdjust="spacing" textLength="73" x="289" y="113.0283">theController</text></g><!--link ListBackofficeUsersController to AuthorizationService--><g id="link_ListBackofficeUsersController_AuthorizationService"><path d="M259.68,245.31 L259.9218,245.4517 L254.3801,253.2607 L250.2557,261.9003 L245.6698,270.2695 L239.566,277.749 L235.4739,286.4076 L230.2494,294.4025 L225.4755,302.6615 L221.0149,311.1041 L216.27,319.38 " fill="none" style="stroke:#181818;stroke-width:1.0;"/><polygon fill="#181818" points="213.66,323.85,213.7008,323.9069,215.1798,322.5894,216.8983,321.6055,218.5387,320.513,219.9228,319.0631,221.6618,318.1079,221.6552,318.0829,220.5312,318.256,219.4401,318.5556,218.3719,318.943,217.2247,319.0276,216.1882,319.5363,216.3668,319.5829,215.6993,318.3885,215.5531,317.3302,215.4705,316.2885,215.0179,315.1502,214.7599,314.0627,214.7825,314.0653,214.5293,316.019,214.379,317.9843,214.1792,319.944,214.074,321.9144,213.66,323.85" style="stroke:#181818;stroke-width:1.0;"/><text fill="#000000" font-family="FG Virgil" font-size="13" lengthAdjust="spacing" textLength="32" x="240" y="290.0283">authz</text></g><!--link ListBackofficeUsersController to UserManagementService--><g id="link_ListBackofficeUsersController_UserManagementService"><path d="M351.06,245.09 L351.2299,245.3128 L358.9842,250.9499 L367.7346,257.8933 L376.1607,264.4112 L383.5198,269.5303 L392.293,276.5034 L400.2701,282.4328 L408.5641,288.7776 L417.0782,295.4111 L424.8335,301.0495 L434.0993,308.6686 L441.4012,313.7126 L450.17,320.68 " fill="none" style="stroke:#181818;stroke-width:1.0;"/><polygon fill="#181818" points="454.18,323.74,454.2414,323.7737,453.1127,321.946,452.3441,320.3157,451.4583,318.6211,450.1867,316.7152,449.449,315.1018,449.4234,315.0984,449.4592,316.2041,449.6244,317.3273,449.8796,318.4625,449.8247,319.5561,450.2042,320.7081,450.2288,320.891,449.0549,320.6509,447.9529,320.9448,446.8596,321.3038,445.7154,321.2838,444.5979,321.4632,444.6032,321.4853,446.5119,321.9082,448.4445,322.4318,450.3656,322.9068,452.3087,323.4746,454.18,323.74" style="stroke:#181818;stroke-width:1.0;"/><text fill="#000000" font-family="FG Virgil" font-size="13" lengthAdjust="spacing" textLength="48" x="410" y="290.0283">user svc</text></g><!--link UserManagementService to PersistenceContext--><g id="link_UserManagementService_PersistenceContext"><path d="M505,403.06 L505.2802,403.06 L504.4476,413.5771 L505.2577,424.0943 L505.5329,434.6114 L504.0488,445.1286 L504.8964,455.6457 L504.4313,466.1629 L505,476.68 " fill="none" style="stroke:#181818;stroke-width:1.0;"/><polygon fill="#181818" points="505,481.84,505.064,481.8685,505.6738,479.9839,506.6589,478.2662,507.5217,476.4941,507.9827,474.5434,509,472.84,508.9817,472.8217,508.0995,473.5395,507.3096,474.3496,506.5839,475.2239,505.637,475.877,505,476.84,505.1305,476.9705,504.0514,475.8914,503.3534,475.1934,502.7018,474.5418,501.7798,473.6198,501,472.84,501.0208,472.8492,501.7903,474.6357,502.6544,476.4642,503.4728,478.2724,504.3784,480.1193,505,481.84" style="stroke:#181818;stroke-width:1.0;"/><text fill="#000000" font-family="FG Virgil" font-size="13" lengthAdjust="spacing" textLength="67" x="506" y="448.0283">persistence</text></g><!--link PersistenceContext to RepositoryFactory--><g id="link_PersistenceContext_RepositoryFactory"><path d="M505,561.06 L505.2802,561.06 L504.4476,571.5771 L505.2577,582.0943 L505.5329,592.6114 L504.0488,603.1286 L504.8964,613.6457 L504.4313,624.1629 L505,634.68 " fill="none" style="stroke:#181818;stroke-width:1.0;"/><polygon fill="#181818" points="505,639.84,505.064,639.8685,505.6738,637.9839,506.6589,636.2662,507.5217,634.4941,507.9827,632.5434,509,630.84,508.9817,630.8217,508.0995,631.5395,507.3096,632.3496,506.5839,633.2239,505.637,633.877,505,634.84,505.1305,634.9705,504.0514,633.8914,503.3534,633.1934,502.7018,632.5418,501.7798,631.6198,501,630.84,501.0208,630.8492,501.7903,632.6357,502.6544,634.4642,503.4728,636.2724,504.3784,638.1193,505,639.84" style="stroke:#181818;stroke-width:1.0;"/><text fill="#000000" font-family="FG Virgil" font-size="13" lengthAdjust="spacing" textLength="39" x="506" y="606.0283">factory</text></g><!--link RepositoryFactory to UserRepository--><g id="link_RepositoryFactory_UserRepository"><path d="M505,719.06 L505.2802,719.06 L504.4476,729.5771 L505.2577,740.0943 L505.5329,750.6114 L504.0488,761.1286 L504.8964,771.6457 L504.4313,782.1629 L505,792.68 " fill="none" style="stroke:#181818;stroke-width:1.0;"/><polygon fill="#181818" points="505,797.84,505.064,797.8685,505.6738,795.9839,506.6589,794.2662,507.5217,792.4941,507.9827,790.5434,509,788.84,508.9817,788.8217,508.0995,789.5395,507.3096,790.3496,506.5839,791.2239,505.637,791.877,505,792.84,505.1305,792.9705,504.0514,791.8914,503.3534,791.1934,502.7018,790.5418,501.7798,789.6198,501,788.84,501.0208,788.8492,501.7903,790.6357,502.6544,792.4642,503.4728,794.2724,504.3784,796.1193,505,797.84" style="stroke:#181818;stroke-width:1.0;"/><text fill="#000000" font-family="FG Virgil" font-size="13" lengthAdjust="spacing" textLength="87" x="506" y="764.0283">userRepository</text></g><!--SRC=[ZL9HJkD03FsVK_YlyD4BH5Mbxee2qYwiMi6_DN7Q4TD9D7Re5iHvE04du69usZI9QDZb9-En_VpU-6N43ovK675ZsWZM6F9jT28KG69DlLA5zW5Nj9IT9uXafLVBgS3QoxmCSeCRWlabtBkuShxNmslCowqBAoZGCnapkWZYSio9ZVN83BySomzbAOl2MRfZYdnt3PD95Oaf28ehmtGAp-RbQy1FbH1Bxoag4AlAEzlWdiqO_2dWx5ppXVD2yNEbJb_8zZIJvOw5DgamFMy5p6fPbz4zxIcM51yLgxnyYFPQnq21wqYfLH-Hv52UnbmXpyBkjZXJkPHebYIJXSOwloL8ZRynwDut2lwA0Rq_lkN5DCW_UbVT52obdT1VIPliaWqqKbMo4tq49NXBl3ZcTtEqwL1qSOWQPDqoTb8xbBQteu-8meLyvlr1vMZ6N5g7xw_lR_e737i_7a__Ot86kjRkRlxTdUODUfO1Qlhf6_1XHxBzEe0VhHbkID01IpBeMM866XBkr8iC6Y_CQUqeikV5GLsNC1y0]--></g></svg>