<?xml version="1.0" encoding="us-ascii" standalone="no"?><svg xmlns="http://www.w3.org/2000/svg" xmlns:xlink="http://www.w3.org/1999/xlink" contentStyleType="text/css" height="976px" preserveAspectRatio="none" style="width:1037px;height:976px;background:#FFFFFF;" version="1.1" viewBox="0 0 1037 976" width="1037px" zoomAndPan="magnify"><defs/><g><!--class ActivateBackofficeUserUI--><g id="elem_ActivateBackofficeUserUI"><polygon fill="#F1F1F1" points="488,7,488,7.2102,498.1667,6.5857,508.3333,7.1933,518.5,7.3997,528.6667,6.2866,538.8333,6.9223,549,6.5735,559.1667,6.6165,569.3333,6.9318,579.5,6.3086,589.6667,7.5536,599.8333,6.3697,610,6.8022,620.1667,7.4319,630.3333,6.9142,640.5,7.0682,650.6667,6.9681,660.8333,7.1785,671,7,671.0305,7.0736,671.4283,7.3268,671.7927,7.4996,672.1473,7.6485,672.4467,7.6642,672.7678,7.7322,672.9105,7.7914,673.1305,8.1754,672.8386,8.3473,673.4161,8.8794,673.2622,9.1086,673.5,9.5,674.0338,9.5,673.005,19.8138,673.4315,30.1276,674.2416,40.4414,673.4513,50.7552,673.6053,61.069,673.8386,71.3828,673.9162,81.6966,673.4961,92.0104,673.5,102.3242,673.5885,102.3609,673.1773,102.6048,673.2947,103.0676,673.2295,103.4548,673.0511,103.7951,672.7678,104.092,672.846,104.2808,672.3526,104.0897,671.9775,104.184,671.6278,104.34,671.346,104.6596,671,104.8242,671,104.6277,660.8333,105.5056,650.6667,104.6495,640.5,104.4812,630.3333,105.0525,620.1667,104.1574,610,104.3051,599.8333,105.4732,589.6667,105.2599,579.5,105.5587,569.3333,104.5024,559.1667,105.1434,549,105.4146,538.8333,104.3518,528.6667,104.7284,518.5,104.9502,508.3333,105.476,498.1667,104.82,488,104.8242,488.059,104.9667,487.5758,104.5072,487.2065,104.3228,487.0036,104.54,486.4943,104.0176,486.2322,104.092,486.389,104.1569,486.1494,103.7648,485.8568,103.3507,485.6839,102.9862,485.7877,102.7363,485.5,102.3242,485.2007,102.3242,486.0919,92.0104,484.9473,81.6966,486.1174,71.3828,485.9843,61.069,485.745,50.7552,485.5472,40.4414,486.2266,30.1276,486.1136,19.8138,485.5,9.5,485.5521,9.5216,485.729,9.1807,485.7528,8.7763,486.16,8.5307,486.1335,8.1055,486.2322,7.7322,486.2542,7.7854,486.5082,7.3984,486.8876,7.3145,487.3606,7.4563,487.7013,7.2788,488,7" style="stroke:#181818;stroke-width:0.5;"/><polygon fill="#ADD1B2" points="511.5608,31.9667,509.9484,34.1698,508.0412,37.3967,505.3136,39.5714,502.4474,40.7606,500.162,40.8638,497.2247,39.3766,494.4532,38.4049,492.3495,36.4322,491.2461,34.1738,490.5917,32.3756,489.9506,30.0267,488.91,28.0055,489.7096,26.032,490.4102,23.8702,493.0393,22.1605,494.889,19.9421,497.1784,19.2055,499.9001,18.5711,503.3904,18.948,505.3021,19.8495,507.5247,20.2582,510.2272,23.027,511.1693,25.95,511.5786,27.9444,511.115,31.2309" style="stroke:#181818;stroke-width:1.0;"/><path d="M503.2656,25.166 Q503.4219,24.9473 503.6094,24.8379 Q503.7969,24.7285 504.0156,24.7285 Q504.3906,24.7285 504.625,24.9941 Q504.8594,25.2441 504.8594,25.8535 L504.8594,27.3066 Q504.8594,27.916 504.625,28.1816 Q504.3906,28.4473 504.0156,28.4473 Q503.6719,28.4473 503.4688,28.2441 Q503.2656,28.0566 503.1563,27.541 Q503.1094,27.1816 502.9219,26.9941 Q502.5938,26.6191 501.9844,26.4004 Q501.375,26.1816 500.75,26.1816 Q499.9844,26.1816 499.3438,26.5098 Q498.7188,26.8379 498.2188,27.5879 Q497.7344,28.3379 497.7344,29.3691 L497.7344,30.4629 Q497.7344,31.6973 498.625,32.5254 Q499.5156,33.3379 501.1094,33.3379 Q502.0469,33.3379 502.7031,33.0879 Q503.0938,32.9316 503.5156,32.4941 Q503.7813,32.2285 503.9219,32.1504 Q504.0781,32.0723 504.2813,32.0723 Q504.6094,32.0723 504.8594,32.3379 Q505.125,32.5879 505.125,32.9316 Q505.125,33.2754 504.7813,33.6816 Q504.2813,34.2598 503.4844,34.5879 Q502.4063,35.041 501.1094,35.041 Q499.5938,35.041 498.3906,34.416 Q497.4063,33.916 496.7188,32.8535 Q496.0313,31.7754 496.0313,30.4941 L496.0313,29.3379 Q496.0313,28.0098 496.6406,26.8691 Q497.2656,25.7129 498.3594,25.1035 Q499.4531,24.4785 500.6875,24.4785 Q501.4219,24.4785 502.0625,24.6504 Q502.7188,24.8066 503.2656,25.166 Z " fill="#000000"/><text fill="#000000" font-family="FG Virgil" font-size="12" font-style="italic" lengthAdjust="spacing" textLength="82" x="551.5" y="24.9492">&#171;presentation&#187;</text><text fill="#000000" font-family="FG Virgil" font-size="14" lengthAdjust="spacing" textLength="156" x="514.5" y="43.0684">ActivateBackofficeUserUI</text><path d="M486.5,51.582 L486.5,51.8623 L496.2895,51.0296 L506.0789,51.8397 L515.8684,52.1149 L525.6579,50.6308 L535.4474,51.4784 L545.2368,51.0134 L555.0263,51.0707 L564.8158,51.4912 L574.6053,50.6602 L584.3947,52.3202 L594.1842,50.7417 L603.9737,51.3183 L613.7632,52.158 L623.5526,51.4677 L633.3421,51.673 L643.1316,51.5394 L652.9211,51.8201 L662.7105,51.9009 L672.5,51.582 " fill="#F1F1F1" style="stroke:#181818;stroke-width:0.5;"/><path d="M486.5,59.582 L486.5,59.8623 L496.2895,59.0296 L506.0789,59.8397 L515.8684,60.1149 L525.6579,58.6308 L535.4474,59.4784 L545.2368,59.0134 L555.0263,59.0707 L564.8158,59.4912 L574.6053,58.6602 L584.3947,60.3202 L594.1842,58.7417 L603.9737,59.3183 L613.7632,60.158 L623.5526,59.4677 L633.3421,59.673 L643.1316,59.5394 L652.9211,59.8201 L662.7105,59.9009 L672.5,59.582 " fill="#F1F1F1" style="stroke:#181818;stroke-width:0.5;"/><polygon fill="#F24D5C" points="493.5,71.3926,493.5,71.4626,494.7,71.2545,495.9,71.457,497.1,71.5258,498.3,71.1548,499.5,71.3926,499.4741,71.3926,499.3578,72.5926,499.3722,73.7926,499.4773,74.9926,499.2695,76.1926,499.5,77.3926,499.5,77.5771,498.3,77.1825,497.1,77.3267,495.9,77.5366,494.7,77.364,493.5,77.3926,493.5227,77.3926,493.4894,76.1926,493.5595,74.9926,493.5797,73.7926,493.6952,72.5926,493.5,71.3926" style="stroke:#C82930;stroke-width:1.0;"/><text fill="#000000" font-family="FG Virgil" font-size="14" lengthAdjust="spacing" textLength="60" x="505.5" y="78.6895">doShow()</text><polygon fill="#F24D5C" points="493.5,90.0137,493.5,90.0837,494.7,89.8756,495.9,90.0781,497.1,90.1469,498.3,89.7759,499.5,90.0137,499.4741,90.0137,499.3578,91.2137,499.3722,92.4137,499.4773,93.6137,499.2695,94.8137,499.5,96.0137,499.5,96.1982,498.3,95.8036,497.1,95.9477,495.9,96.1577,494.7,95.9851,493.5,96.0137,493.5227,96.0137,493.4894,94.8137,493.5595,93.6137,493.5797,92.4137,493.6952,91.2137,493.5,90.0137" style="stroke:#C82930;stroke-width:1.0;"/><text fill="#000000" font-family="FG Virgil" font-size="14" lengthAdjust="spacing" textLength="64" x="505.5" y="97.3105">headline()</text></g><!--class ActivateBackofficeUserController--><g id="elem_ActivateBackofficeUserController"><polygon fill="#F1F1F1" points="407.5,184,407.5,184.2102,417.6176,183.5857,427.7353,184.1933,437.8529,184.3997,447.9706,183.2866,458.0882,183.9223,468.2059,183.5735,478.3235,183.6165,488.4412,183.9318,498.5588,183.3086,508.6765,184.5536,518.7941,183.3697,528.9118,183.8022,539.0294,184.4319,549.1471,183.9142,559.2647,184.0682,569.3824,183.9681,579.5,184.1785,589.6176,184.2391,599.7353,184.5857,609.8529,184.6711,619.9706,184.6793,630.0882,184.2546,640.2059,184.4636,650.3235,184.7022,660.4412,183.2788,670.5588,184.6785,680.6765,183.7035,690.7941,184.5338,700.9118,183.505,711.0294,183.9315,721.1471,184.7416,731.2647,183.9513,741.3824,184.1053,751.5,184,751.5432,184.1043,751.9066,184.2746,752.2066,184.2917,752.5973,184.5278,752.8412,184.4095,753.2678,184.7322,753.3553,184.7685,753.583,185.1557,753.6976,185.496,753.8959,185.8711,753.7048,186.0848,754,186.5,753.3478,186.5,753.3786,196.6314,753.9411,206.7628,753.8035,216.8942,754.6814,227.0256,753.8253,237.157,753.6569,247.2884,754.2283,257.4197,753.3332,267.5511,753.4809,277.6825,754.649,287.8139,754,297.9453,754.1342,298.0009,754.0797,298.3926,753.608,298.6114,753.659,299.0467,753.596,299.4348,753.2678,299.7131,753.2075,299.5676,752.902,299.83,752.5767,300.0448,752.2902,300.3531,751.853,300.2976,751.5,300.4453,751.5,300.9079,741.3824,299.8915,731.2647,299.7681,721.1471,300.9489,711.0294,299.7284,700.9118,300.9543,690.7941,300.6519,680.6765,300.1774,670.5588,300.0915,660.4412,300.9041,650.3235,300.146,640.2059,301.0372,630.0882,299.8926,619.9706,301.0627,609.8529,300.9296,599.7353,300.6903,589.6176,300.4925,579.5,301.1719,569.3824,301.0589,559.2647,300.6146,549.1471,300.7135,539.0294,300.315,528.9118,301.1618,518.7941,300.6002,508.6765,300.6179,498.5588,299.837,488.4412,300.0401,478.3235,300.9761,468.2059,300.8751,458.0882,300.4024,447.9706,300.1231,437.8529,300.2264,427.7353,299.7591,417.6176,300.86,407.5,300.4453,407.5943,300.6731,407.2136,300.461,406.8815,300.3664,406.4219,299.9639,406.0969,299.8864,405.7322,299.7131,405.6129,299.6636,405.6733,299.3958,405.5153,299.0375,405.463,298.7229,405.0757,298.2696,405,297.9453,404.8656,297.9453,405.4435,287.8139,405.5673,277.6825,404.4875,267.5511,404.8061,257.4197,405.1493,247.2884,404.3892,237.157,405.3534,227.0256,405.258,216.8942,404.8992,206.7628,405.1422,196.6314,405,186.5,405.2244,186.593,405.0501,186.1065,405.3899,185.8331,405.5273,185.4758,405.6214,185.1006,405.7322,184.7322,405.7502,184.7756,406.1003,184.6207,406.3597,184.2471,406.7418,184.1695,407.0876,184.0043,407.5,184" style="stroke:#181818;stroke-width:0.5;"/><polygon fill="#ADD1B2" points="483.3108,208.9667,481.6984,211.1698,479.7912,214.3967,477.0636,216.5714,474.1974,217.7606,471.912,217.8638,468.9747,216.3766,466.2032,215.4049,464.0995,213.4322,462.9961,211.1738,462.3417,209.3756,461.7006,207.0267,460.66,205.0055,461.4596,203.032,462.1602,200.8702,464.7893,199.1605,466.639,196.9421,468.9284,196.2055,471.6501,195.5711,475.1404,195.948,477.0521,196.8495,479.2747,197.2582,481.9772,200.027,482.9193,202.95,483.3286,204.9444,482.865,208.2309" style="stroke:#181818;stroke-width:1.0;"/><path d="M475.0156,202.166 Q475.1719,201.9473 475.3594,201.8379 Q475.5469,201.7285 475.7656,201.7285 Q476.1406,201.7285 476.375,201.9941 Q476.6094,202.2441 476.6094,202.8535 L476.6094,204.3066 Q476.6094,204.916 476.375,205.1816 Q476.1406,205.4473 475.7656,205.4473 Q475.4219,205.4473 475.2188,205.2441 Q475.0156,205.0566 474.9063,204.541 Q474.8594,204.1816 474.6719,203.9941 Q474.3438,203.6191 473.7344,203.4004 Q473.125,203.1816 472.5,203.1816 Q471.7344,203.1816 471.0938,203.5098 Q470.4688,203.8379 469.9688,204.5879 Q469.4844,205.3379 469.4844,206.3691 L469.4844,207.4629 Q469.4844,208.6973 470.375,209.5254 Q471.2656,210.3379 472.8594,210.3379 Q473.7969,210.3379 474.4531,210.0879 Q474.8438,209.9316 475.2656,209.4941 Q475.5313,209.2285 475.6719,209.1504 Q475.8281,209.0723 476.0313,209.0723 Q476.3594,209.0723 476.6094,209.3379 Q476.875,209.5879 476.875,209.9316 Q476.875,210.2754 476.5313,210.6816 Q476.0313,211.2598 475.2344,211.5879 Q474.1563,212.041 472.8594,212.041 Q471.3438,212.041 470.1406,211.416 Q469.1563,210.916 468.4688,209.8535 Q467.7813,208.7754 467.7813,207.4941 L467.7813,206.3379 Q467.7813,205.0098 468.3906,203.8691 Q469.0156,202.7129 470.1094,202.1035 Q471.2031,201.4785 472.4375,201.4785 Q473.1719,201.4785 473.8125,201.6504 Q474.4688,201.8066 475.0156,202.166 Z " fill="#000000"/><text fill="#000000" font-family="FG Virgil" font-size="12" font-style="italic" lengthAdjust="spacing" textLength="74" x="558.75" y="201.9492">&#171;application&#187;</text><text fill="#000000" font-family="FG Virgil" font-size="14" lengthAdjust="spacing" textLength="206" x="492.75" y="220.0684">ActivateBackofficeUserController</text><path d="M406,228.582 L406,228.8623 L415.9143,228.0296 L425.8286,228.8397 L435.7429,229.1149 L445.6571,227.6308 L455.5714,228.4784 L465.4857,228.0134 L475.4,228.0707 L485.3143,228.4912 L495.2286,227.6602 L505.1429,229.3202 L515.0571,227.7417 L524.9714,228.3183 L534.8857,229.158 L544.8,228.4677 L554.7143,228.673 L564.6286,228.5394 L574.5429,228.8201 L584.4571,228.9009 L594.3714,229.363 L604.2857,229.4768 L614.2,229.4877 L624.1143,228.9215 L634.0286,229.2001 L643.9429,229.5183 L653.8571,227.6205 L663.7714,229.4867 L673.6857,228.1867 L683.6,229.2938 L693.5143,227.922 L703.4286,228.4907 L713.3429,229.5708 L723.2571,228.5171 L733.1714,228.7224 L743.0857,229.0335 L753,228.582 " fill="#F1F1F1" style="stroke:#181818;stroke-width:0.5;"/><path d="M406,236.582 L406,236.8623 L415.9143,236.0296 L425.8286,236.8397 L435.7429,237.1149 L445.6571,235.6308 L455.5714,236.4784 L465.4857,236.0134 L475.4,236.0707 L485.3143,236.4912 L495.2286,235.6602 L505.1429,237.3202 L515.0571,235.7417 L524.9714,236.3183 L534.8857,237.158 L544.8,236.4677 L554.7143,236.673 L564.6286,236.5394 L574.5429,236.8201 L584.4571,236.9009 L594.3714,237.363 L604.2857,237.4768 L614.2,237.4877 L624.1143,236.9215 L634.0286,237.2001 L643.9429,237.5183 L653.8571,235.6205 L663.7714,237.4867 L673.6857,236.1867 L683.6,237.2938 L693.5143,235.922 L703.4286,236.4907 L713.3429,237.5708 L723.2571,236.5171 L733.1714,236.7224 L743.0857,237.0335 L753,236.582 " fill="#F1F1F1" style="stroke:#181818;stroke-width:0.5;"/><polygon fill="#F24D5C" points="413,248.3926,413,248.4626,414.2,248.2545,415.4,248.457,416.6,248.5258,417.8,248.1548,419,248.3926,418.9741,248.3926,418.8578,249.5926,418.8722,250.7926,418.9773,251.9926,418.7695,253.1926,419,254.3926,419,254.5771,417.8,254.1825,416.6,254.3267,415.4,254.5366,414.2,254.364,413,254.3926,413.0227,254.3926,412.9894,253.1926,413.0595,251.9926,413.0797,250.7926,413.1952,249.5926,413,248.3926" style="stroke:#C82930;stroke-width:1.0;"/><text fill="#000000" font-family="FG Virgil" font-size="14" lengthAdjust="spacing" textLength="119" x="425" y="255.6895">deactivatedUsers()</text><polygon fill="#F24D5C" points="413,267.0137,413,267.0837,414.2,266.8756,415.4,267.0781,416.6,267.1469,417.8,266.7759,419,267.0137,418.9741,267.0137,418.8578,268.2137,418.8722,269.4137,418.9773,270.6137,418.7695,271.8137,419,273.0137,419,273.1982,417.8,272.8036,416.6,272.9477,415.4,273.1577,414.2,272.9851,413,273.0137,413.0227,273.0137,412.9894,271.8137,413.0595,270.6137,413.0797,269.4137,413.1952,268.2137,413,267.0137" style="stroke:#C82930;stroke-width:1.0;"/><text fill="#000000" font-family="FG Virgil" font-size="14" lengthAdjust="spacing" textLength="323" x="425" y="274.3105">filterBackofficeUsers(users : Iterable&lt;SystemUser&gt;)</text><polygon fill="#F24D5C" points="413,285.6348,413,285.7048,414.2,285.4967,415.4,285.6992,416.6,285.768,417.8,285.397,419,285.6348,418.9741,285.6348,418.8578,286.8348,418.8722,288.0348,418.9773,289.2348,418.7695,290.4348,419,291.6348,419,291.8193,417.8,291.4247,416.6,291.5688,415.4,291.7787,414.2,291.6062,413,291.6348,413.0227,291.6348,412.9894,290.4348,413.0595,289.2348,413.0797,288.0348,413.1952,286.8348,413,285.6348" style="stroke:#C82930;stroke-width:1.0;"/><text fill="#000000" font-family="FG Virgil" font-size="14" lengthAdjust="spacing" textLength="203" x="425" y="292.9316">activateUser(user : SystemUser)</text></g><!--class AuthorizationService--><g id="elem_AuthorizationService"><polygon fill="#F1F1F1" points="9.5,388.5,9.5,388.7102,19.4048,388.0857,29.3095,388.6933,39.2143,388.8997,49.119,387.7866,59.0238,388.4223,68.9286,388.0735,78.8333,388.1165,88.7381,388.4318,98.6429,387.8086,108.5476,389.0536,118.4524,387.8697,128.3571,388.3022,138.2619,388.9319,148.1667,388.4142,158.0714,388.5682,167.9762,388.4681,177.881,388.6785,187.7857,388.7391,197.6905,389.0857,207.5952,389.1711,217.5,389.1793,227.4048,388.7546,237.3095,388.9636,247.2143,389.2022,257.119,387.7788,267.0238,389.1785,276.9286,388.2035,286.8333,389.0338,296.7381,388.005,306.6429,388.4315,316.5476,389.2416,326.4524,388.4513,336.3571,388.6053,346.2619,388.8386,356.1667,388.9162,366.0714,388.4961,375.9762,388.7872,385.881,387.9276,395.7857,388.7844,405.6905,389.0482,415.5952,388.9445,425.5,388.5,425.5782,388.6888,425.7919,388.4977,426.1239,388.592,426.4814,388.748,426.9067,389.0677,427.2678,389.2322,427.2072,389.2072,427.6241,389.6727,427.5069,389.9171,427.6015,390.2491,427.9239,390.6756,428,391,427.3332,391,427.4809,401.6004,428.649,412.2009,428.4357,422.8013,428.7345,433.4018,427.6782,444.0022,428.3192,454.6027,428,465.2031,428.1818,465.2784,427.7081,465.4964,427.6776,465.898,427.5995,466.2799,427.6149,466.7005,427.2678,466.9709,427.2672,466.9696,426.9732,467.2598,426.49,467.0932,426.1207,467.2017,425.9178,467.7118,425.5,467.7031,425.5,466.9862,415.5952,468.2121,405.6905,467.9098,395.7857,467.4352,385.881,467.3494,375.9762,468.1619,366.0714,467.4038,356.1667,468.295,346.2619,467.1504,336.3571,468.3206,326.4524,468.1874,316.5476,467.9481,306.6429,467.7503,296.7381,468.4297,286.8333,468.3167,276.9286,467.8724,267.0238,467.9713,257.119,467.5729,247.2143,468.4196,237.3095,467.858,227.4048,467.8757,217.5,467.0948,207.5952,467.2979,197.6905,468.2339,187.7857,468.1329,177.881,467.6602,167.9762,467.381,158.0714,467.4842,148.1667,467.0169,138.2619,468.1179,128.3571,468.4427,118.4524,468.2295,108.5476,468.3981,98.6429,467.5664,88.7381,467.7903,78.8333,467.3155,68.9286,467.9872,59.0238,467.9499,49.119,468.2555,39.2143,467.4735,29.3095,467.5687,19.4048,468.1466,9.5,467.7031,9.5724,467.8778,9.0811,467.3988,8.7682,467.3505,8.4584,467.3098,8.0079,466.9292,7.7322,466.9709,7.8411,467.016,7.6652,466.6502,7.4083,466.2509,7.3367,465.9284,7.3708,465.6496,7,465.2031,6.6871,465.2031,7.315,454.6027,7.2856,444.0022,7.1158,433.4018,7.1409,422.8013,7.1135,412.2009,6.3758,401.6004,7,391,6.8766,390.9489,7.0043,390.5876,7.3125,390.301,7.4665,389.9506,7.6356,389.6064,7.7322,389.2322,7.6951,389.1426,8.0772,389.065,8.424,388.9023,8.8665,388.9705,9.2009,388.7778,9.5,388.5" style="stroke:#181818;stroke-width:0.5;"/><polygon fill="#ADD1B2" points="159.8108,413.4667,158.1984,415.6698,156.2912,418.8967,153.5636,421.0714,150.6974,422.2606,148.412,422.3638,145.4747,420.8766,142.7032,419.9049,140.5995,417.9322,139.4961,415.6738,138.8417,413.8756,138.2006,411.5267,137.16,409.5055,137.9596,407.532,138.6602,405.3702,141.2893,403.6605,143.139,401.4421,145.4284,400.7055,148.1501,400.0711,151.6404,400.448,153.5521,401.3495,155.7747,401.7582,158.4772,404.527,159.4193,407.45,159.8286,409.4444,159.365,412.7309" style="stroke:#181818;stroke-width:1.0;"/><path d="M151.5156,406.666 Q151.6719,406.4473 151.8594,406.3379 Q152.0469,406.2285 152.2656,406.2285 Q152.6406,406.2285 152.875,406.4941 Q153.1094,406.7441 153.1094,407.3535 L153.1094,408.8066 Q153.1094,409.416 152.875,409.6816 Q152.6406,409.9473 152.2656,409.9473 Q151.9219,409.9473 151.7188,409.7441 Q151.5156,409.5566 151.4063,409.041 Q151.3594,408.6816 151.1719,408.4941 Q150.8438,408.1191 150.2344,407.9004 Q149.625,407.6816 149,407.6816 Q148.2344,407.6816 147.5938,408.0098 Q146.9688,408.3379 146.4688,409.0879 Q145.9844,409.8379 145.9844,410.8691 L145.9844,411.9629 Q145.9844,413.1973 146.875,414.0254 Q147.7656,414.8379 149.3594,414.8379 Q150.2969,414.8379 150.9531,414.5879 Q151.3438,414.4316 151.7656,413.9941 Q152.0313,413.7285 152.1719,413.6504 Q152.3281,413.5723 152.5313,413.5723 Q152.8594,413.5723 153.1094,413.8379 Q153.375,414.0879 153.375,414.4316 Q153.375,414.7754 153.0313,415.1816 Q152.5313,415.7598 151.7344,416.0879 Q150.6563,416.541 149.3594,416.541 Q147.8438,416.541 146.6406,415.916 Q145.6563,415.416 144.9688,414.3535 Q144.2813,413.2754 144.2813,411.9941 L144.2813,410.8379 Q144.2813,409.5098 144.8906,408.3691 Q145.5156,407.2129 146.6094,406.6035 Q147.7031,405.9785 148.9375,405.9785 Q149.6719,405.9785 150.3125,406.1504 Q150.9688,406.3066 151.5156,406.666 Z " fill="#000000"/><text fill="#000000" font-family="FG Virgil" font-size="12" font-style="italic" lengthAdjust="spacing" textLength="53" x="207.25" y="406.4492">&#171;service&#187;</text><text fill="#000000" font-family="FG Virgil" font-size="14" lengthAdjust="spacing" textLength="129" x="169.25" y="424.5684">AuthorizationService</text><path d="M8,433.082 L8,433.3623 L17.9762,432.5296 L27.9524,433.3397 L37.9286,433.6149 L47.9048,432.1308 L57.881,432.9784 L67.8571,432.5134 L77.8333,432.5707 L87.8095,432.9912 L97.7857,432.1602 L107.7619,433.8202 L117.7381,432.2417 L127.7143,432.8183 L137.6905,433.658 L147.6667,432.9677 L157.6429,433.173 L167.619,433.0394 L177.5952,433.3201 L187.5714,433.4009 L197.5476,433.863 L207.5238,433.9768 L217.5,433.9877 L227.4762,433.4215 L237.4524,433.7001 L247.4286,434.0183 L257.4048,432.1205 L267.381,433.9867 L277.3571,432.6867 L287.3333,433.7938 L297.3095,432.422 L307.2857,432.9907 L317.2619,434.0708 L327.2381,433.0171 L337.2143,433.2224 L347.1905,433.5335 L357.1667,433.637 L367.1429,433.0768 L377.119,433.465 L387.0952,432.3188 L397.0714,433.4612 L407.0476,433.813 L417.0238,433.6747 L427,433.082 " fill="#F1F1F1" style="stroke:#181818;stroke-width:0.5;"/><path d="M8,441.082 L8,441.3623 L17.9762,440.5296 L27.9524,441.3397 L37.9286,441.6149 L47.9048,440.1308 L57.881,440.9784 L67.8571,440.5134 L77.8333,440.5707 L87.8095,440.9912 L97.7857,440.1602 L107.7619,441.8202 L117.7381,440.2417 L127.7143,440.8183 L137.6905,441.658 L147.6667,440.9677 L157.6429,441.173 L167.619,441.0394 L177.5952,441.3201 L187.5714,441.4009 L197.5476,441.863 L207.5238,441.9768 L217.5,441.9877 L227.4762,441.4215 L237.4524,441.7001 L247.4286,442.0183 L257.4048,440.1205 L267.381,441.9867 L277.3571,440.6867 L287.3333,441.7938 L297.3095,440.422 L307.2857,440.9907 L317.2619,442.0708 L327.2381,441.0171 L337.2143,441.2224 L347.1905,441.5335 L357.1667,441.637 L367.1429,441.0768 L377.119,441.465 L387.0952,440.3188 L397.0714,441.4612 L407.0476,441.813 L417.0238,441.6747 L427,441.082 " fill="#F1F1F1" style="stroke:#181818;stroke-width:0.5;"/><polygon fill="#F24D5C" points="15,452.8926,15,452.9626,16.2,452.7545,17.4,452.957,18.6,453.0258,19.8,452.6548,21,452.8926,20.9741,452.8926,20.8578,454.0926,20.8722,455.2926,20.9773,456.4926,20.7695,457.6926,21,458.8926,21,459.0771,19.8,458.6825,18.6,458.8267,17.4,459.0366,16.2,458.864,15,458.8926,15.0227,458.8926,14.9894,457.6926,15.0595,456.4926,15.0797,455.2926,15.1952,454.0926,15,452.8926" style="stroke:#C82930;stroke-width:1.0;"/><text fill="#000000" font-family="FG Virgil" font-size="14" lengthAdjust="spacing" textLength="395" x="27" y="460.1895">ensureAuthenticatedUserHasAnyOf(roles : List&lt;Jobs4uRoles&gt;)</text></g><!--class UserManagementService--><g id="elem_UserManagementService"><polygon fill="#F1F1F1" points="465.5,379,465.5,379.2102,475.413,378.5857,485.3261,379.1933,495.2391,379.3997,505.1522,378.2866,515.0652,378.9223,524.9783,378.5735,534.8913,378.6165,544.8043,378.9318,554.7174,378.3086,564.6304,379.5536,574.5435,378.3697,584.4565,378.8022,594.3696,379.4319,604.2826,378.9142,614.1957,379.0682,624.1087,378.9681,634.0217,379.1785,643.9348,379.2391,653.8478,379.5857,663.7609,379.6711,673.6739,379.6793,683.587,379.2546,693.5,379,693.5591,379.1428,693.9431,379.3627,694.1151,379.0708,694.6472,379.6483,694.8764,379.4945,695.2678,379.7322,695.4322,379.8003,695.2618,380.0226,695.5396,380.4306,695.9355,380.8875,695.8385,381.1402,696,381.5,696.1053,381.5,696.3386,391.8138,696.4162,402.1276,695.9961,412.4414,696.2872,422.7552,695.4276,433.069,696.2844,443.3828,696.5482,453.6966,696.4445,464.0104,696,474.3242,696.1888,474.4024,695.7048,474.6161,695.5063,474.9481,695.3693,475.3056,695.3961,475.7309,695.2678,476.092,695.2427,476.0315,695.0011,476.4483,694.5384,476.3311,694.1633,476.4257,693.8827,476.7481,693.5,476.8242,693.5,476.1574,683.587,476.3051,673.6739,477.4732,663.7609,477.2599,653.8478,477.5587,643.9348,476.5024,634.0217,477.1434,624.1087,477.4146,614.1957,476.3518,604.2826,476.7284,594.3696,476.9502,584.4565,477.476,574.5435,476.82,564.6304,477.2868,554.7174,476.2704,544.8043,476.147,534.8913,477.3278,524.9783,476.1073,515.0652,477.3332,505.1522,477.0308,495.2391,476.5563,485.3261,476.4704,475.413,477.283,465.5,476.8242,465.4618,476.732,465.2219,476.86,464.7224,476.3611,464.5181,476.575,464.1476,476.3876,463.7322,476.092,463.8077,476.1232,463.6003,475.7445,463.6631,475.4776,463.4819,475.1096,463.1986,474.6994,463,474.3242,463.2682,474.3242,462.8697,464.0104,463.7165,453.6966,463.1549,443.3828,463.1726,433.069,462.3916,422.7552,462.5948,412.4414,463.5307,402.1276,463.4298,391.8138,463,381.5,462.9868,381.4945,463.0472,381.1054,463.2255,380.765,463.228,380.3518,463.7135,380.1387,463.7322,379.7322,463.8266,379.96,464.1529,379.7479,464.528,379.6534,464.7755,379.2508,465.1576,379.1733,465.5,379" style="stroke:#181818;stroke-width:0.5;"/><polygon fill="#ADD1B2" points="508.4108,403.9667,506.7984,406.1698,504.8912,409.3967,502.1636,411.5714,499.2974,412.7606,497.012,412.8638,494.0747,411.3766,491.3032,410.4049,489.1995,408.4322,488.0961,406.1738,487.4417,404.3756,486.8006,402.0267,485.76,400.0055,486.5596,398.032,487.2602,395.8702,489.8893,394.1605,491.739,391.9421,494.0284,391.2055,496.7501,390.5711,500.2404,390.948,502.1521,391.8495,504.3747,392.2582,507.0772,395.027,508.0193,397.95,508.4286,399.9444,507.965,403.2309" style="stroke:#181818;stroke-width:1.0;"/><path d="M500.1156,397.166 Q500.2719,396.9473 500.4594,396.8379 Q500.6469,396.7285 500.8656,396.7285 Q501.2406,396.7285 501.475,396.9941 Q501.7094,397.2441 501.7094,397.8535 L501.7094,399.3066 Q501.7094,399.916 501.475,400.1816 Q501.2406,400.4473 500.8656,400.4473 Q500.5219,400.4473 500.3188,400.2441 Q500.1156,400.0566 500.0063,399.541 Q499.9594,399.1816 499.7719,398.9941 Q499.4438,398.6191 498.8344,398.4004 Q498.225,398.1816 497.6,398.1816 Q496.8344,398.1816 496.1938,398.5098 Q495.5688,398.8379 495.0688,399.5879 Q494.5844,400.3379 494.5844,401.3691 L494.5844,402.4629 Q494.5844,403.6973 495.475,404.5254 Q496.3656,405.3379 497.9594,405.3379 Q498.8969,405.3379 499.5531,405.0879 Q499.9438,404.9316 500.3656,404.4941 Q500.6313,404.2285 500.7719,404.1504 Q500.9281,404.0723 501.1313,404.0723 Q501.4594,404.0723 501.7094,404.3379 Q501.975,404.5879 501.975,404.9316 Q501.975,405.2754 501.6313,405.6816 Q501.1313,406.2598 500.3344,406.5879 Q499.2563,407.041 497.9594,407.041 Q496.4438,407.041 495.2406,406.416 Q494.2563,405.916 493.5688,404.8535 Q492.8813,403.7754 492.8813,402.4941 L492.8813,401.3379 Q492.8813,400.0098 493.4906,398.8691 Q494.1156,397.7129 495.2094,397.1035 Q496.3031,396.4785 497.5375,396.4785 Q498.2719,396.4785 498.9125,396.6504 Q499.5688,396.8066 500.1156,397.166 Z " fill="#000000"/><text fill="#000000" font-family="FG Virgil" font-size="12" font-style="italic" lengthAdjust="spacing" textLength="53" x="568.15" y="396.9492">&#171;service&#187;</text><text fill="#000000" font-family="FG Virgil" font-size="14" lengthAdjust="spacing" textLength="158" x="515.65" y="415.0684">UserManagementService</text><path d="M464,423.582 L464,423.8623 L474.0435,423.0296 L484.087,423.8397 L494.1304,424.1149 L504.1739,422.6308 L514.2174,423.4784 L524.2609,423.0134 L534.3043,423.0707 L544.3478,423.4912 L554.3913,422.6602 L564.4348,424.3202 L574.4783,422.7417 L584.5217,423.3183 L594.5652,424.158 L604.6087,423.4677 L614.6522,423.673 L624.6957,423.5394 L634.7391,423.8201 L644.7826,423.9009 L654.8261,424.363 L664.8696,424.4768 L674.913,424.4877 L684.9565,423.9215 L695,423.582 " fill="#F1F1F1" style="stroke:#181818;stroke-width:0.5;"/><path d="M464,431.582 L464,431.8623 L474.0435,431.0296 L484.087,431.8397 L494.1304,432.1149 L504.1739,430.6308 L514.2174,431.4784 L524.2609,431.0134 L534.3043,431.0707 L544.3478,431.4912 L554.3913,430.6602 L564.4348,432.3202 L574.4783,430.7417 L584.5217,431.3183 L594.5652,432.158 L604.6087,431.4677 L614.6522,431.673 L624.6957,431.5394 L634.7391,431.8201 L644.7826,431.9009 L654.8261,432.363 L664.8696,432.4768 L674.913,432.4877 L684.9565,431.9215 L695,431.582 " fill="#F1F1F1" style="stroke:#181818;stroke-width:0.5;"/><polygon fill="#F24D5C" points="471,443.3926,471,443.4626,472.2,443.2545,473.4,443.457,474.6,443.5258,475.8,443.1548,477,443.3926,476.9741,443.3926,476.8578,444.5926,476.8722,445.7926,476.9773,446.9926,476.7695,448.1926,477,449.3926,477,449.5771,475.8,449.1825,474.6,449.3267,473.4,449.5366,472.2,449.364,471,449.3926,471.0227,449.3926,470.9894,448.1926,471.0595,446.9926,471.0797,445.7926,471.1952,444.5926,471,443.3926" style="stroke:#C82930;stroke-width:1.0;"/><text fill="#000000" font-family="FG Virgil" font-size="14" lengthAdjust="spacing" textLength="119" x="483" y="450.6895">deactivatedUsers()</text><polygon fill="#F24D5C" points="471,462.0137,471,462.0837,472.2,461.8756,473.4,462.0781,474.6,462.1469,475.8,461.7759,477,462.0137,476.9741,462.0137,476.8578,463.2137,476.8722,464.4137,476.9773,465.6137,476.7695,466.8137,477,468.0137,477,468.1982,475.8,467.8036,474.6,467.9477,473.4,468.1577,472.2,467.9851,471,468.0137,471.0227,468.0137,470.9894,466.8137,471.0595,465.6137,471.0797,464.4137,471.1952,463.2137,471,462.0137" style="stroke:#C82930;stroke-width:1.0;"/><text fill="#000000" font-family="FG Virgil" font-size="14" lengthAdjust="spacing" textLength="207" x="483" y="469.3105">activateUser (user : SystemUser)</text></g><!--class PersistenceContext--><g id="elem_PersistenceContext"><polygon fill="#F1F1F1" points="505,556,505,556.2102,514.9333,555.5857,524.8667,556.1933,534.8,556.3997,544.7333,555.2866,554.6667,555.9223,564.6,555.5735,574.5333,555.6165,584.4667,555.9318,594.4,555.3086,604.3333,556.5536,614.2667,555.3697,624.2,555.8022,634.1333,556.4319,644.0667,555.9142,654,556,654.0087,556.021,654.3495,556.1366,654.7299,556.3479,655.0912,556.513,655.4889,556.7662,655.7678,556.7322,655.9744,556.8178,656.1234,557.1724,656.1391,557.4718,656.3499,557.852,656.5698,558.236,656.5,558.5,655.7788,558.5,657.1785,569.1004,656.2035,579.7009,657.0338,590.3013,656.005,600.9018,656.4315,611.5022,657.2416,622.1027,656.5,632.7031,656.485,632.6969,656.386,633.0701,656.3114,633.4534,656.1888,633.8169,655.913,634.1168,655.7678,634.4709,655.8044,634.5593,655.3412,634.4411,655.0969,634.8514,654.777,635.0791,654.4103,635.1936,654,635.2031,654,635.8161,644.0667,634.72,634.1333,634.5509,624.2,634.5817,614.2667,635.1442,604.3333,635.0066,594.4,635.8845,584.4667,635.0284,574.5333,634.8601,564.6,635.4314,554.6667,634.5363,544.7333,634.684,534.8,635.8521,524.8667,635.6388,514.9333,635.9376,505,635.2031,504.959,635.104,504.6872,635.155,504.3682,635.0921,503.8791,634.6183,503.5736,634.5878,503.2322,634.4709,503.271,634.487,503.2865,634.2005,502.938,633.7633,502.9353,633.4692,502.4759,632.986,502.5,632.7031,501.8227,632.7031,503.0036,622.1027,501.7831,611.5022,503.009,600.9018,502.7066,590.3013,502.2321,579.7009,502.1462,569.1004,502.5,558.5,502.6413,558.5585,502.5543,558.1083,502.9752,557.8684,502.7691,557.3688,503.2759,557.1645,503.2322,556.7322,503.294,556.8814,503.617,556.6612,503.9454,556.4539,504.3856,556.5167,504.7247,556.3354,505,556" style="stroke:#181818;stroke-width:0.5;"/><polygon fill="#ADD1B2" points="528.5608,580.9667,526.9484,583.1698,525.0412,586.3967,522.3136,588.5714,519.4474,589.7606,517.162,589.8638,514.2247,588.3766,511.4532,587.4049,509.3495,585.4322,508.2461,583.1738,507.5917,581.3756,506.9506,579.0267,505.91,577.0055,506.7096,575.032,507.4102,572.8702,510.0393,571.1605,511.889,568.9421,514.1784,568.2055,516.9001,567.5711,520.3904,567.948,522.3021,568.8495,524.5247,569.2582,527.2272,572.027,528.1693,574.95,528.5786,576.9444,528.115,580.2309" style="stroke:#181818;stroke-width:1.0;"/><path d="M520.2656,574.166 Q520.4219,573.9473 520.6094,573.8379 Q520.7969,573.7285 521.0156,573.7285 Q521.3906,573.7285 521.625,573.9941 Q521.8594,574.2441 521.8594,574.8535 L521.8594,576.3066 Q521.8594,576.916 521.625,577.1816 Q521.3906,577.4473 521.0156,577.4473 Q520.6719,577.4473 520.4688,577.2441 Q520.2656,577.0566 520.1563,576.541 Q520.1094,576.1816 519.9219,575.9941 Q519.5938,575.6191 518.9844,575.4004 Q518.375,575.1816 517.75,575.1816 Q516.9844,575.1816 516.3438,575.5098 Q515.7188,575.8379 515.2188,576.5879 Q514.7344,577.3379 514.7344,578.3691 L514.7344,579.4629 Q514.7344,580.6973 515.625,581.5254 Q516.5156,582.3379 518.1094,582.3379 Q519.0469,582.3379 519.7031,582.0879 Q520.0938,581.9316 520.5156,581.4941 Q520.7813,581.2285 520.9219,581.1504 Q521.0781,581.0723 521.2813,581.0723 Q521.6094,581.0723 521.8594,581.3379 Q522.125,581.5879 522.125,581.9316 Q522.125,582.2754 521.7813,582.6816 Q521.2813,583.2598 520.4844,583.5879 Q519.4063,584.041 518.1094,584.041 Q516.5938,584.041 515.3906,583.416 Q514.4063,582.916 513.7188,581.8535 Q513.0313,580.7754 513.0313,579.4941 L513.0313,578.3379 Q513.0313,577.0098 513.6406,575.8691 Q514.2656,574.7129 515.3594,574.1035 Q516.4531,573.4785 517.6875,573.4785 Q518.4219,573.4785 519.0625,573.6504 Q519.7188,573.8066 520.2656,574.166 Z " fill="#000000"/><text fill="#000000" font-family="FG Virgil" font-size="12" font-style="italic" lengthAdjust="spacing" textLength="77" x="554" y="573.9492">&#171;persistence&#187;</text><text fill="#000000" font-family="FG Virgil" font-size="14" lengthAdjust="spacing" textLength="122" x="531.5" y="592.0684">PersistenceContext</text><path d="M503.5,600.582 L503.5,600.8623 L513.6333,600.0296 L523.7667,600.8397 L533.9,601.1149 L544.0333,599.6308 L554.1667,600.4784 L564.3,600.0134 L574.4333,600.0707 L584.5667,600.4912 L594.7,599.6602 L604.8333,601.3202 L614.9667,599.7417 L625.1,600.3183 L635.2333,601.158 L645.3667,600.4677 L655.5,600.582 " fill="#F1F1F1" style="stroke:#181818;stroke-width:0.5;"/><path d="M503.5,608.582 L503.5,608.8623 L513.6333,608.0296 L523.7667,608.8397 L533.9,609.1149 L544.0333,607.6308 L554.1667,608.4784 L564.3,608.0134 L574.4333,608.0707 L584.5667,608.4912 L594.7,607.6602 L604.8333,609.3202 L614.9667,607.7417 L625.1,608.3183 L635.2333,609.158 L645.3667,608.4677 L655.5,608.582 " fill="#F1F1F1" style="stroke:#181818;stroke-width:0.5;"/><polygon fill="#F24D5C" points="510.5,620.3926,510.5,620.4626,511.7,620.2545,512.9,620.457,514.1,620.5258,515.3,620.1548,516.5,620.3926,516.4741,620.3926,516.3578,621.5926,516.3722,622.7926,516.4773,623.9926,516.2695,625.1926,516.5,626.3926,516.5,626.5771,515.3,626.1825,514.1,626.3267,512.9,626.5366,511.7,626.364,510.5,626.3926,510.5227,626.3926,510.4894,625.1926,510.5595,623.9926,510.5797,622.7926,510.6952,621.5926,510.5,620.3926" style="stroke:#C82930;stroke-width:1.0;"/><text fill="#000000" font-family="FG Virgil" font-size="14" lengthAdjust="spacing" textLength="84" x="522.5" y="627.6895">repositories()</text></g><!--class RepositoryFactory--><g id="elem_RepositoryFactory"><polygon fill="#F1F1F1" points="508,714,508,714.2102,518.2143,713.5857,528.4286,714.1933,538.6429,714.3997,548.8571,713.2866,559.0714,713.9223,569.2857,713.5735,579.5,713.6165,589.7143,713.9318,599.9286,713.3086,610.1429,714.5536,620.3571,713.3697,630.5714,713.8022,640.7857,714.4319,651,714,650.9891,713.9736,651.3623,714.1675,651.703,714.2831,652.0834,714.4943,652.4447,714.6594,652.7678,714.7322,652.9481,714.8069,653.1209,715.1714,653.2698,715.526,653.2855,715.8254,653.4963,716.2056,653.5,716.5,654.2022,716.5,652.7788,727.1004,654.1785,737.7009,653.2035,748.3013,654.0338,758.9018,653.005,769.5022,653.4315,780.1027,653.5,790.7031,653.7284,790.7977,653.3385,791.0505,653.2395,791.4237,653.1649,791.807,653.0424,792.1704,652.7678,792.4709,652.7673,792.4697,652.4509,792.7058,651.9876,792.5875,651.7434,792.9978,651.4235,793.2255,651,793.2031,651,793.6477,640.7857,793.8161,630.5714,792.72,620.3571,792.5509,610.1429,792.5817,599.9286,793.1442,589.7143,793.0066,579.5,793.8845,569.2857,793.0284,559.0714,792.8601,548.8571,793.4314,538.6429,792.5363,528.4286,792.684,518.2143,793.8521,508,793.2031,508.0556,793.3373,507.7401,793.2829,507.2518,792.8111,506.9801,792.8621,506.6611,792.7992,506.2322,792.4709,506.0868,792.4106,506.0563,792.1051,505.9781,791.7799,505.9936,791.4934,505.6452,791.0561,505.5,790.7031,505.9626,790.7031,504.9462,780.1027,504.8227,769.5022,506.0036,758.9018,504.7831,748.3013,506.009,737.7009,505.7066,727.1004,505.5,716.5,505.4175,716.4658,505.5375,716.1013,505.9342,715.8514,505.8472,715.4012,506.2681,715.1613,506.2322,714.7322,506.1617,714.562,506.6645,714.7759,507.0011,714.5885,507.3241,714.3683,507.6525,714.161,508,714" style="stroke:#181818;stroke-width:0.5;"/><polygon fill="#ADD1B2" points="531.5608,738.9667,529.9484,741.1698,528.0412,744.3967,525.3136,746.5714,522.4474,747.7606,520.162,747.8638,517.2247,746.3766,514.4532,745.4049,512.3495,743.4322,511.2461,741.1738,510.5917,739.3756,509.9506,737.0267,508.91,735.0055,509.7096,733.032,510.4102,730.8702,513.0393,729.1605,514.889,726.9421,517.1784,726.2055,519.9001,725.5711,523.3904,725.948,525.3021,726.8495,527.5247,727.2582,530.2272,730.027,531.1693,732.95,531.5786,734.9444,531.115,738.2309" style="stroke:#181818;stroke-width:1.0;"/><path d="M523.2656,732.166 Q523.4219,731.9473 523.6094,731.8379 Q523.7969,731.7285 524.0156,731.7285 Q524.3906,731.7285 524.625,731.9941 Q524.8594,732.2441 524.8594,732.8535 L524.8594,734.3066 Q524.8594,734.916 524.625,735.1816 Q524.3906,735.4473 524.0156,735.4473 Q523.6719,735.4473 523.4688,735.2441 Q523.2656,735.0566 523.1563,734.541 Q523.1094,734.1816 522.9219,733.9941 Q522.5938,733.6191 521.9844,733.4004 Q521.375,733.1816 520.75,733.1816 Q519.9844,733.1816 519.3438,733.5098 Q518.7188,733.8379 518.2188,734.5879 Q517.7344,735.3379 517.7344,736.3691 L517.7344,737.4629 Q517.7344,738.6973 518.625,739.5254 Q519.5156,740.3379 521.1094,740.3379 Q522.0469,740.3379 522.7031,740.0879 Q523.0938,739.9316 523.5156,739.4941 Q523.7813,739.2285 523.9219,739.1504 Q524.0781,739.0723 524.2813,739.0723 Q524.6094,739.0723 524.8594,739.3379 Q525.125,739.5879 525.125,739.9316 Q525.125,740.2754 524.7813,740.6816 Q524.2813,741.2598 523.4844,741.5879 Q522.4063,742.041 521.1094,742.041 Q519.5938,742.041 518.3906,741.416 Q517.4063,740.916 516.7188,739.8535 Q516.0313,738.7754 516.0313,737.4941 L516.0313,736.3379 Q516.0313,735.0098 516.6406,733.8691 Q517.2656,732.7129 518.3594,732.1035 Q519.4531,731.4785 520.6875,731.4785 Q521.4219,731.4785 522.0625,731.6504 Q522.7188,731.8066 523.2656,732.166 Z " fill="#000000"/><text fill="#000000" font-family="FG Virgil" font-size="12" font-style="italic" lengthAdjust="spacing" textLength="50" x="567.5" y="731.9492">&#171;factory&#187;</text><text fill="#000000" font-family="FG Virgil" font-size="14" lengthAdjust="spacing" textLength="116" x="534.5" y="750.0684">RepositoryFactory</text><path d="M506.5,758.582 L506.5,758.8623 L516.2333,758.0296 L525.9667,758.8397 L535.7,759.1149 L545.4333,757.6308 L555.1667,758.4784 L564.9,758.0134 L574.6333,758.0707 L584.3667,758.4912 L594.1,757.6602 L603.8333,759.3202 L613.5667,757.7417 L623.3,758.3183 L633.0333,759.158 L642.7667,758.4677 L652.5,758.582 " fill="#F1F1F1" style="stroke:#181818;stroke-width:0.5;"/><path d="M506.5,766.582 L506.5,766.8623 L516.2333,766.0296 L525.9667,766.8397 L535.7,767.1149 L545.4333,765.6308 L555.1667,766.4784 L564.9,766.0134 L574.6333,766.0707 L584.3667,766.4912 L594.1,765.6602 L603.8333,767.3202 L613.5667,765.7417 L623.3,766.3183 L633.0333,767.158 L642.7667,766.4677 L652.5,766.582 " fill="#F1F1F1" style="stroke:#181818;stroke-width:0.5;"/><polygon fill="#F24D5C" points="513.5,778.3926,513.5,778.4626,514.7,778.2545,515.9,778.457,517.1,778.5258,518.3,778.1548,519.5,778.3926,519.4741,778.3926,519.3578,779.5926,519.3722,780.7926,519.4773,781.9926,519.2695,783.1926,519.5,784.3926,519.5,784.5771,518.3,784.1825,517.1,784.3267,515.9,784.5366,514.7,784.364,513.5,784.3926,513.5227,784.3926,513.4894,783.1926,513.5595,781.9926,513.5797,780.7926,513.6952,779.5926,513.5,778.3926" style="stroke:#C82930;stroke-width:1.0;"/><text fill="#000000" font-family="FG Virgil" font-size="14" lengthAdjust="spacing" textLength="45" x="525.5" y="785.6895">users()</text></g><!--class UserRepository--><g id="elem_UserRepository"><polygon fill="#F1F1F1" points="491.5,872,491.5,872.2102,501.2778,871.5857,511.0556,872.1933,520.8333,872.3997,530.6111,871.2866,540.3889,871.9223,550.1667,871.5735,559.9444,871.6165,569.7222,871.9318,579.5,871.3086,589.2778,872.5536,599.0556,871.3697,608.8333,871.8022,618.6111,872.4319,628.3889,871.9142,638.1667,872.0682,647.9444,871.9681,657.7222,872.1785,667.5,872,667.5305,872.0736,667.9283,872.3268,668.2927,872.4996,668.6473,872.6485,668.9467,872.6642,669.2678,872.7322,669.4105,872.7914,669.6305,873.1754,669.3386,873.3473,669.9161,873.8794,669.7622,874.1086,670,874.5,670.5338,874.5,669.505,884.8138,669.9315,895.1276,670.7416,905.4414,669.9513,915.7552,670.1053,926.069,670.3386,936.3828,670.4162,946.6966,669.9961,957.0104,670,967.3242,670.0885,967.3609,669.6773,967.6048,669.7947,968.0676,669.7295,968.4548,669.5511,968.7951,669.2678,969.092,669.346,969.2808,668.8526,969.0897,668.4775,969.184,668.1278,969.34,667.846,969.6596,667.5,969.8242,667.5,969.6277,657.7222,970.5056,647.9444,969.6495,638.1667,969.4812,628.3889,970.0525,618.6111,969.1574,608.8333,969.3051,599.0556,970.4732,589.2778,970.2599,579.5,970.5587,569.7222,969.5024,559.9444,970.1434,550.1667,970.4146,540.3889,969.3518,530.6111,969.7284,520.8333,969.9502,511.0556,970.476,501.2778,969.82,491.5,969.8242,491.559,969.9667,491.0758,969.5072,490.7065,969.3228,490.5036,969.54,489.9943,969.0176,489.7322,969.092,489.889,969.1569,489.6494,968.7648,489.3568,968.3507,489.1839,967.9862,489.2877,967.7363,489,967.3242,488.7007,967.3242,489.5919,957.0104,488.4473,946.6966,489.6174,936.3828,489.4843,926.069,489.245,915.7552,489.0472,905.4414,489.7266,895.1276,489.6136,884.8138,489,874.5,489.0521,874.5216,489.229,874.1807,489.2528,873.7763,489.66,873.5307,489.6335,873.1055,489.7322,872.7322,489.7542,872.7854,490.0082,872.3984,490.3876,872.3145,490.8606,872.4563,491.2013,872.2788,491.5,872" style="stroke:#181818;stroke-width:0.5;"/><polygon fill="#ADD1B2" points="538.4608,896.9667,536.8484,899.1698,534.9412,902.3967,532.2136,904.5714,529.3474,905.7606,527.062,905.8638,524.1247,904.3766,521.3532,903.4049,519.2495,901.4322,518.1461,899.1738,517.4917,897.3756,516.8506,895.0267,515.81,893.0055,516.6096,891.032,517.3102,888.8702,519.9393,887.1605,521.789,884.9421,524.0784,884.2055,526.8001,883.5711,530.2904,883.948,532.2021,884.8495,534.4247,885.2582,537.1272,888.027,538.0693,890.95,538.4786,892.9444,538.015,896.2309" style="stroke:#181818;stroke-width:1.0;"/><path d="M530.1656,890.166 Q530.3219,889.9473 530.5094,889.8379 Q530.6969,889.7285 530.9156,889.7285 Q531.2906,889.7285 531.525,889.9941 Q531.7594,890.2441 531.7594,890.8535 L531.7594,892.3066 Q531.7594,892.916 531.525,893.1816 Q531.2906,893.4473 530.9156,893.4473 Q530.5719,893.4473 530.3688,893.2441 Q530.1656,893.0566 530.0563,892.541 Q530.0094,892.1816 529.8219,891.9941 Q529.4938,891.6191 528.8844,891.4004 Q528.275,891.1816 527.65,891.1816 Q526.8844,891.1816 526.2438,891.5098 Q525.6188,891.8379 525.1188,892.5879 Q524.6344,893.3379 524.6344,894.3691 L524.6344,895.4629 Q524.6344,896.6973 525.525,897.5254 Q526.4156,898.3379 528.0094,898.3379 Q528.9469,898.3379 529.6031,898.0879 Q529.9938,897.9316 530.4156,897.4941 Q530.6813,897.2285 530.8219,897.1504 Q530.9781,897.0723 531.1813,897.0723 Q531.5094,897.0723 531.7594,897.3379 Q532.025,897.5879 532.025,897.9316 Q532.025,898.2754 531.6813,898.6816 Q531.1813,899.2598 530.3844,899.5879 Q529.3063,900.041 528.0094,900.041 Q526.4938,900.041 525.2906,899.416 Q524.3063,898.916 523.6188,897.8535 Q522.9313,896.7754 522.9313,895.4941 L522.9313,894.3379 Q522.9313,893.0098 523.5406,891.8691 Q524.1656,890.7129 525.2594,890.1035 Q526.3531,889.4785 527.5875,889.4785 Q528.3219,889.4785 528.9625,889.6504 Q529.6188,889.8066 530.1656,890.166 Z " fill="#000000"/><text fill="#000000" font-family="FG Virgil" font-size="12" font-style="italic" lengthAdjust="spacing" textLength="68" x="561.1" y="889.9492">&#171;repository&#187;</text><text fill="#000000" font-family="FG Virgil" font-size="14" lengthAdjust="spacing" textLength="97" x="546.6" y="908.0684">UserRepository</text><path d="M490,916.582 L490,916.8623 L499.9444,916.0296 L509.8889,916.8397 L519.8333,917.1149 L529.7778,915.6308 L539.7222,916.4784 L549.6667,916.0134 L559.6111,916.0707 L569.5556,916.4912 L579.5,915.6602 L589.4444,917.3202 L599.3889,915.7417 L609.3333,916.3183 L619.2778,917.158 L629.2222,916.4677 L639.1667,916.673 L649.1111,916.5394 L659.0556,916.8201 L669,916.582 " fill="#F1F1F1" style="stroke:#181818;stroke-width:0.5;"/><path d="M490,924.582 L490,924.8623 L499.9444,924.0296 L509.8889,924.8397 L519.8333,925.1149 L529.7778,923.6308 L539.7222,924.4784 L549.6667,924.0134 L559.6111,924.0707 L569.5556,924.4912 L579.5,923.6602 L589.4444,925.3202 L599.3889,923.7417 L609.3333,924.3183 L619.2778,925.158 L629.2222,924.4677 L639.1667,924.673 L649.1111,924.5394 L659.0556,924.8201 L669,924.582 " fill="#F1F1F1" style="stroke:#181818;stroke-width:0.5;"/><polygon fill="#F24D5C" points="497,936.3926,497,936.4626,498.2,936.2545,499.4,936.457,500.6,936.5258,501.8,936.1548,503,936.3926,502.9741,936.3926,502.8578,937.5926,502.8722,938.7926,502.9773,939.9926,502.7695,941.1926,503,942.3926,503,942.5771,501.8,942.1825,500.6,942.3267,499.4,942.5366,498.2,942.364,497,942.3926,497.0227,942.3926,496.9894,941.1926,497.0595,939.9926,497.0797,938.7926,497.1952,937.5926,497,936.3926" style="stroke:#C82930;stroke-width:1.0;"/><text fill="#000000" font-family="FG Virgil" font-size="14" lengthAdjust="spacing" textLength="117" x="509" y="943.6895">findByActive(false)</text><polygon fill="#F24D5C" points="497,955.0137,497,955.0837,498.2,954.8756,499.4,955.0781,500.6,955.1469,501.8,954.7759,503,955.0137,502.9741,955.0137,502.8578,956.2137,502.8722,957.4137,502.9773,958.6137,502.7695,959.8137,503,961.0137,503,961.1982,501.8,960.8036,500.6,960.9477,499.4,961.1577,498.2,960.9851,497,961.0137,497.0227,961.0137,496.9894,959.8137,497.0595,958.6137,497.0797,957.4137,497.1952,956.2137,497,955.0137" style="stroke:#C82930;stroke-width:1.0;"/><text fill="#000000" font-family="FG Virgil" font-size="14" lengthAdjust="spacing" textLength="155" x="509" y="962.3105">save(user : SystemUser)</text></g><!--class SystemUser--><g id="elem_SystemUser"><polygon fill="#F1F1F1" points="733.5,388.5,733.5,388.7102,743.6379,388.0857,753.7759,388.6933,763.9138,388.8997,774.0517,387.7866,784.1897,388.4223,794.3276,388.0735,804.4655,388.1165,814.6034,388.4318,824.7414,387.8086,834.8793,389.0536,845.0172,387.8697,855.1552,388.3022,865.2931,388.9319,875.431,388.4142,885.569,388.5682,895.7069,388.4681,905.8448,388.6785,915.9828,388.7391,926.1207,389.0857,936.2586,389.1711,946.3966,389.1793,956.5345,388.7546,966.6724,388.9636,976.8103,389.2022,986.9483,387.7788,997.0862,389.1785,1007.2241,388.2035,1017.3621,389.0338,1027.5,388.5,1027.4369,388.3476,1027.8448,388.6254,1028.3017,389.0213,1028.5544,388.9243,1028.9276,389.1182,1029.2678,389.2322,1029.3721,389.2754,1029.5424,389.6389,1029.5595,389.9388,1029.7956,390.3295,1029.6773,390.5734,1030,391,1030.2844,391,1030.5482,401.6004,1030.4445,412.2009,1030.613,422.8013,1029.5169,433.4018,1029.3478,444.0022,1029.3786,454.6027,1030,465.2031,1029.9819,465.1956,1029.793,465.5316,1029.917,465.9972,1029.5069,466.2415,1029.3086,466.5736,1029.2678,466.9709,1029.2969,467.0412,1028.8292,466.912,1028.4944,467.1039,1028.2899,467.6101,1027.9091,467.6908,1027.5,467.7031,1027.5,468.4376,1017.3621,467.3813,1007.2241,468.0223,997.0862,468.2935,986.9483,467.2307,976.8103,467.6073,966.6724,467.8291,956.5345,468.3549,946.3966,467.6989,936.2586,468.1657,926.1207,467.1493,915.9828,467.0259,905.8448,468.2067,895.7069,466.9862,885.569,468.2121,875.431,467.9098,865.2931,467.4352,855.1552,467.3494,845.0172,468.1619,834.8793,467.4038,824.7414,468.295,814.6034,467.1504,804.4655,468.3206,794.3276,468.1874,784.1897,467.9481,774.0517,467.7503,763.9138,468.4297,753.7759,468.3167,743.6379,467.8724,733.5,467.7031,733.5342,467.7857,733.1298,467.5166,732.8843,467.6309,732.4591,467.3115,732.1078,467.1705,731.7322,466.9709,731.5449,466.8933,731.461,466.5656,731.6028,466.3315,731.4252,465.9651,731.1332,465.5512,731,465.2031,730.6778,465.2031,730.7811,454.6027,730.3138,444.0022,731.4147,433.4018,731.7396,422.8013,731.5264,412.2009,731.6949,401.6004,731,391,730.9579,390.9826,731.1733,390.6576,731.1735,390.2435,731.5268,389.9756,731.6618,389.6173,731.7322,389.2322,731.8027,389.4023,732.0565,389.0151,732.4222,388.8979,732.8495,388.9295,733.2188,388.8212,733.5,388.5" style="stroke:#181818;stroke-width:0.5;"/><polygon fill="#ADD1B2" points="849.8108,413.4667,848.1984,415.6698,846.2912,418.8967,843.5636,421.0714,840.6974,422.2606,838.412,422.3638,835.4747,420.8766,832.7032,419.9049,830.5995,417.9322,829.4961,415.6738,828.8417,413.8756,828.2006,411.5267,827.16,409.5055,827.9596,407.532,828.6602,405.3702,831.2893,403.6605,833.139,401.4421,835.4284,400.7055,838.1501,400.0711,841.6404,400.448,843.5521,401.3495,845.7747,401.7582,848.4772,404.527,849.4193,407.45,849.8286,409.4444,849.365,412.7309" style="stroke:#181818;stroke-width:1.0;"/><path d="M841.5156,406.666 Q841.6719,406.4473 841.8594,406.3379 Q842.0469,406.2285 842.2656,406.2285 Q842.6406,406.2285 842.875,406.4941 Q843.1094,406.7441 843.1094,407.3535 L843.1094,408.8066 Q843.1094,409.416 842.875,409.6816 Q842.6406,409.9473 842.2656,409.9473 Q841.9219,409.9473 841.7188,409.7441 Q841.5156,409.5566 841.4063,409.041 Q841.3594,408.6816 841.1719,408.4941 Q840.8438,408.1191 840.2344,407.9004 Q839.625,407.6816 839,407.6816 Q838.2344,407.6816 837.5938,408.0098 Q836.9688,408.3379 836.4688,409.0879 Q835.9844,409.8379 835.9844,410.8691 L835.9844,411.9629 Q835.9844,413.1973 836.875,414.0254 Q837.7656,414.8379 839.3594,414.8379 Q840.2969,414.8379 840.9531,414.5879 Q841.3438,414.4316 841.7656,413.9941 Q842.0313,413.7285 842.1719,413.6504 Q842.3281,413.5723 842.5313,413.5723 Q842.8594,413.5723 843.1094,413.8379 Q843.375,414.0879 843.375,414.4316 Q843.375,414.7754 843.0313,415.1816 Q842.5313,415.7598 841.7344,416.0879 Q840.6563,416.541 839.3594,416.541 Q837.8438,416.541 836.6406,415.916 Q835.6563,415.416 834.9688,414.3535 Q834.2813,413.2754 834.2813,411.9941 L834.2813,410.8379 Q834.2813,409.5098 834.8906,408.3691 Q835.5156,407.2129 836.6094,406.6035 Q837.7031,405.9785 838.9375,405.9785 Q839.6719,405.9785 840.3125,406.1504 Q840.9688,406.3066 841.5156,406.666 Z " fill="#000000"/><text fill="#000000" font-family="FG Virgil" font-size="12" font-style="italic" lengthAdjust="spacing" textLength="56" x="868.75" y="406.4492">&#171;domain&#187;</text><text fill="#000000" font-family="FG Virgil" font-size="14" lengthAdjust="spacing" textLength="75" x="859.25" y="424.5684">SystemUser</text><path d="M732,433.082 L732,433.3623 L741.9,432.5296 L751.8,433.3397 L761.7,433.6149 L771.6,432.1308 L781.5,432.9784 L791.4,432.5134 L801.3,432.5707 L811.2,432.9912 L821.1,432.1602 L831,433.8202 L840.9,432.2417 L850.8,432.8183 L860.7,433.658 L870.6,432.9677 L880.5,433.173 L890.4,433.0394 L900.3,433.3201 L910.2,433.4009 L920.1,433.863 L930,433.9768 L939.9,433.9877 L949.8,433.4215 L959.7,433.7001 L969.6,434.0183 L979.5,432.1205 L989.4,433.9867 L999.3,432.6867 L1009.2,433.7938 L1019.1,432.422 L1029,433.082 " fill="#F1F1F1" style="stroke:#181818;stroke-width:0.5;"/><path d="M732,441.082 L732,441.3623 L741.9,440.5296 L751.8,441.3397 L761.7,441.6149 L771.6,440.1308 L781.5,440.9784 L791.4,440.5134 L801.3,440.5707 L811.2,440.9912 L821.1,440.1602 L831,441.8202 L840.9,440.2417 L850.8,440.8183 L860.7,441.658 L870.6,440.9677 L880.5,441.173 L890.4,441.0394 L900.3,441.3201 L910.2,441.4009 L920.1,441.863 L930,441.9768 L939.9,441.9877 L949.8,441.4215 L959.7,441.7001 L969.6,442.0183 L979.5,440.1205 L989.4,441.9867 L999.3,440.6867 L1009.2,441.7938 L1019.1,440.422 L1029,441.082 " fill="#F1F1F1" style="stroke:#181818;stroke-width:0.5;"/><polygon fill="#F24D5C" points="739,452.8926,739,452.9626,740.2,452.7545,741.4,452.957,742.6,453.0258,743.8,452.6548,745,452.8926,744.9741,452.8926,744.8578,454.0926,744.8722,455.2926,744.9773,456.4926,744.7695,457.6926,745,458.8926,745,459.0771,743.8,458.6825,742.6,458.8267,741.4,459.0366,740.2,458.864,739,458.8926,739.0227,458.8926,738.9894,457.6926,739.0595,456.4926,739.0797,455.2926,739.1952,454.0926,739,452.8926" style="stroke:#C82930;stroke-width:1.0;"/><text fill="#000000" font-family="FG Virgil" font-size="14" lengthAdjust="spacing" textLength="273" x="751" y="460.1895">activate(time : CurrenTime.Calendar.now())</text></g><!--link ActivateBackofficeUserUI to ActivateBackofficeUserController--><g id="link_ActivateBackofficeUserUI_ActivateBackofficeUserController"><path d="M579.5,105.34 L579.7802,105.34 L578.9476,115.8286 L579.7577,126.3171 L580.0329,136.8057 L578.5488,147.2943 L579.3964,157.7829 L578.9313,168.2714 L579.5,178.76 " fill="none" style="stroke:#181818;stroke-width:1.0;"/><polygon fill="#181818" points="579.5,183.83,579.564,183.8585,580.1738,181.9739,581.1589,180.2562,582.0217,178.4841,582.4827,176.5334,583.5,174.83,583.4817,174.8117,582.5995,175.5295,581.8096,176.3396,581.0839,177.2139,580.137,177.867,579.5,178.83,579.6305,178.9605,578.5514,177.8814,577.8534,177.1834,577.2018,176.5318,576.2798,175.6098,575.5,174.83,575.5208,174.8392,576.2903,176.6257,577.1544,178.4542,577.9728,180.2624,578.8784,182.1093,579.5,183.83" style="stroke:#181818;stroke-width:1.0;"/><text fill="#000000" font-family="FG Virgil" font-size="13" lengthAdjust="spacing" textLength="73" x="580.5" y="150.0283">theController</text></g><!--link ActivateBackofficeUserController to AuthorizationService--><g id="link_ActivateBackofficeUserController_AuthorizationService"><path d="M466.95,300.21 L467.077,300.4598 L457.7965,304.2428 L449.2605,309.4903 L440.482,314.2609 L430.9064,317.4631 L422.3873,322.7439 L413.2734,326.8546 L404.3962,331.431 L395.6836,336.3311 L386.4039,340.1156 L378.2529,346.1207 L368.6345,349.2387 L359.9926,354.2781 L351.4699,359.5518 L342.254,363.4617 L333.4439,368.1701 L324.4802,372.5762 L315.7042,377.3517 L306.8376,381.949 L297.79,386.19 " fill="none" style="stroke:#181818;stroke-width:1.0;"/><polygon fill="#181818" points="293.33,388.46,293.3335,388.53,295.2903,388.2226,297.2678,388.3253,299.2385,388.2945,301.187,387.8245,303.1663,387.9625,303.1582,387.9379,302.0469,387.4751,300.9762,387.1364,299.9338,386.884,298.794,386.3344,297.7906,386.2011,297.966,386.2585,297.9433,385.0605,298.4325,384.0303,298.9843,383.0205,299.1726,381.8917,299.552,380.8254,299.5697,380.8398,298.2994,382.3456,297.1093,383.9169,295.8806,385.4565,294.7257,387.0564,293.33,388.46" style="stroke:#181818;stroke-width:1.0;"/><text fill="#000000" font-family="FG Virgil" font-size="13" lengthAdjust="spacing" textLength="32" x="399.5" y="345.0283">authz</text></g><!--link ActivateBackofficeUserController to UserManagementService--><g id="link_ActivateBackofficeUserController_UserManagementService"><path d="M579.5,300.21 L579.7802,300.21 L578.9476,310.7014 L579.7577,321.1929 L580.0329,331.6843 L578.5488,342.1757 L579.3964,352.6671 L578.9313,363.1586 L579.5,373.65 " fill="none" style="stroke:#181818;stroke-width:1.0;"/><polygon fill="#181818" points="579.5,378.8,579.564,378.8285,580.1738,376.9439,581.1589,375.2262,582.0217,373.4541,582.4827,371.5034,583.5,369.8,583.4817,369.7817,582.5995,370.4995,581.8096,371.3096,581.0839,372.1839,580.137,372.837,579.5,373.8,579.6305,373.9305,578.5514,372.8514,577.8534,372.1534,577.2018,371.5018,576.2798,370.5798,575.5,369.8,575.5208,369.8092,576.2903,371.5957,577.1544,373.4242,577.9728,375.2324,578.8784,377.0793,579.5,378.8" style="stroke:#181818;stroke-width:1.0;"/><text fill="#000000" font-family="FG Virgil" font-size="13" lengthAdjust="spacing" textLength="46" x="580.5" y="345.0283">userSvc</text></g><!--link ActivateBackofficeUserController to SystemUser--><g id="link_ActivateBackofficeUserController_SystemUser"><path d="M673.09,300.21 L673.2362,300.4491 L681.5456,305.0837 L690.7119,311.1199 L699.5992,316.6997 L707.5689,320.7784 L716.7547,326.8466 L725.2559,331.7948 L734.0296,337.1887 L742.9926,342.8925 L751.303,347.5285 L760.9125,354.2898 L768.8329,358.288 L777.8775,364.125 L787.0591,370.1864 L795.4428,374.9424 L804.2937,380.4626 L812.99,385.73 " fill="none" style="stroke:#181818;stroke-width:1.0;"/><polygon fill="#181818" points="817.45,388.46,817.5076,388.4999,816.2149,386.7621,815.2598,385.2582,814.1947,383.6781,812.7681,381.8475,811.842,380.3637,811.8168,380.3576,811.9713,381.4294,812.2526,382.5321,812.6221,383.6563,812.6877,384.7065,813.179,385.8603,813.2226,386.0396,812.03,385.9235,810.9648,386.331,809.9151,386.8024,808.775,386.9021,807.6824,387.1973,807.6853,387.2198,809.6346,387.4393,811.5971,387.7614,813.5532,388.034,815.5215,388.4011,817.45,388.46" style="stroke:#181818;stroke-width:1.0;"/><text fill="#000000" font-family="FG Virgil" font-size="13" lengthAdjust="spacing" textLength="51" x="749.5" y="345.0283">activates</text></g><!--link UserManagementService to PersistenceContext--><g id="link_UserManagementService_PersistenceContext"><path d="M579.5,477.31 L579.7802,477.31 L578.9476,487.81 L579.7577,498.31 L580.0329,508.81 L578.5488,519.31 L579.3964,529.81 L578.9313,540.31 L579.5,550.81 " fill="none" style="stroke:#181818;stroke-width:1.0;"/><polygon fill="#181818" points="579.5,555.85,579.564,555.8785,580.1738,553.9939,581.1589,552.2762,582.0217,550.5041,582.4827,548.5534,583.5,546.85,583.4817,546.8317,582.5995,547.5495,581.8096,548.3596,581.0839,549.2339,580.137,549.887,579.5,550.85,579.6305,550.9805,578.5514,549.9014,577.8534,549.2034,577.2018,548.5518,576.2798,547.6298,575.5,546.85,575.5208,546.8592,576.2903,548.6457,577.1544,550.4742,577.9728,552.2824,578.8784,554.1293,579.5,555.85" style="stroke:#181818;stroke-width:1.0;"/><text fill="#000000" font-family="FG Virgil" font-size="13" lengthAdjust="spacing" textLength="67" x="580.5" y="522.0283">persistence</text></g><!--link PersistenceContext to RepositoryFactory--><g id="link_PersistenceContext_RepositoryFactory"><path d="M579.5,635.06 L579.7802,635.06 L578.9476,645.5771 L579.7577,656.0943 L580.0329,666.6114 L578.5488,677.1286 L579.3964,687.6457 L578.9313,698.1629 L579.5,708.68 " fill="none" style="stroke:#181818;stroke-width:1.0;"/><polygon fill="#181818" points="579.5,713.84,579.564,713.8685,580.1738,711.9839,581.1589,710.2662,582.0217,708.4941,582.4827,706.5434,583.5,704.84,583.4817,704.8217,582.5995,705.5395,581.8096,706.3496,581.0839,707.2239,580.137,707.877,579.5,708.84,579.6305,708.9705,578.5514,707.8914,577.8534,707.1934,577.2018,706.5418,576.2798,705.6198,575.5,704.84,575.5208,704.8492,576.2903,706.6357,577.1544,708.4642,577.9728,710.2724,578.8784,712.1193,579.5,713.84" style="stroke:#181818;stroke-width:1.0;"/><text fill="#000000" font-family="FG Virgil" font-size="13" lengthAdjust="spacing" textLength="39" x="580.5" y="680.0283">factory</text></g><!--link RepositoryFactory to UserRepository--><g id="link_RepositoryFactory_UserRepository"><path d="M579.5,793.3 L579.7802,793.3 L578.9476,803.8186 L579.7577,814.3371 L580.0329,824.8557 L578.5488,835.3743 L579.3964,845.8929 L578.9313,856.4114 L579.5,866.93 " fill="none" style="stroke:#181818;stroke-width:1.0;"/><polygon fill="#181818" points="579.5,871.97,579.564,871.9985,580.1738,870.1139,581.1589,868.3962,582.0217,866.6241,582.4827,864.6734,583.5,862.97,583.4817,862.9517,582.5995,863.6695,581.8096,864.4796,581.0839,865.3539,580.137,866.007,579.5,866.97,579.6305,867.1005,578.5514,866.0214,577.8534,865.3234,577.2018,864.6718,576.2798,863.7498,575.5,862.97,575.5208,862.9792,576.2903,864.7657,577.1544,866.5942,577.9728,868.4024,578.8784,870.2493,579.5,871.97" style="stroke:#181818;stroke-width:1.0;"/><text fill="#000000" font-family="FG Virgil" font-size="13" lengthAdjust="spacing" textLength="87" x="580.5" y="838.0283">userRepository</text></g><!--SRC=[ZL9BRjim4Dth5DnPNJYhhWH3W6FKROh-43VTJyIHHOGY1GvbLobwdfwW9yZ5EfGbYqMKpqRYVDwRtrlGdJ8DEAYJyqjKOEJHAU_H2EzQZ48D57UmnvtlD0g7XOzY4ajejTzQuxz0ZMBxNlnGRgzqb4CLI7jKPYzAq8H9idXdl98WaP920v5O5ruTmECbLx9bgGgy8NGtLsArQXmI6WzUMPFdubUo5DBkAdjCt_2pGf1Q6MJZzxDS6sxGMQtHCISqZLR5GDap8Wme6PAfvowLzkZ-fw6q3L-HYIkEmQt6rQuZZtK8vW4r4WL7dyovKqhKPkihwzHztyKEtO4hS6jqUWsJeg7MOKZb5OIEJ_rz05gRxckPyaGOclcaoAy-sbjwsru7LpxL2VcVmV3zQkPugj3i0k9HnFmiGv5l3E4Mq1GO5eq_VRZSv1ogE6miASzZ8qKNknxTtPPBye_1vUar0DkXftYe2SNfP-OHKIeZBxjU2vZsiWiJ4R3rp54c7tDAMuCQDJVk8lMALPw9JUiSckziN6n0ev7WBamGPI1Rh8bieU3XpyDVrlYJwbukyvVbcWc-_cGdBm9wrZbrPGBOVVywXddTPFqfTeVYTIJHFhFp2YcPvmw06I5b8X9ICfCGS8ybb8b1GidZs3XV9A7JO9CZ-GS0]--></g></svg>