<?xml version="1.0" encoding="us-ascii" standalone="no"?><svg xmlns="http://www.w3.org/2000/svg" xmlns:xlink="http://www.w3.org/1999/xlink" contentStyleType="text/css" height="815px" preserveAspectRatio="none" style="width:2499px;height:815px;background:#FFFFFF;" version="1.1" viewBox="0 0 2499 815" width="2499px" zoomAndPan="magnify"><defs/><g><!--class RegisterJobOpeningUI--><g id="elem_RegisterJobOpeningUI"><polygon fill="#F1F1F1" points="1495,7,1495,7.2102,1504.8824,6.5857,1514.7647,7.1933,1524.6471,7.3997,1534.5294,6.2866,1544.4118,6.9223,1554.2941,6.5735,1564.1765,6.6165,1574.0588,6.9318,1583.9412,6.3086,1593.8235,7.5536,1603.7059,6.3697,1613.5882,6.8022,1623.4706,7.4319,1633.3529,6.9142,1643.2353,7.0682,1653.1176,6.9681,1663,7,1663.0228,7.055,1663.3841,7.2201,1663.7818,7.4733,1664.1463,7.646,1664.5009,7.795,1664.7678,7.7322,1664.8462,7.7647,1665.057,8.1449,1665.2769,8.5289,1664.985,8.7009,1665.5625,9.233,1665.5,9.5,1665.2035,9.5,1666.0338,19.8138,1665.005,30.1276,1665.4315,40.4414,1666.2416,50.7552,1665.4513,61.069,1665.6053,71.3828,1665.8386,81.6966,1665.9162,92.0104,1665.5,102.3242,1665.4988,102.3237,1665.442,102.7144,1665.0308,102.9583,1665.1482,103.4212,1665.083,103.8084,1664.7678,104.092,1664.8245,104.2289,1664.4924,104.4272,1663.999,104.2361,1663.6239,104.3305,1663.2743,104.4864,1663,104.8242,1663,104.7653,1653.1176,104.6277,1643.2353,105.5056,1633.3529,104.6495,1623.4706,104.4812,1613.5882,105.0525,1603.7059,104.1574,1593.8235,104.3051,1583.9412,105.4732,1574.0588,105.2599,1564.1765,105.5587,1554.2941,104.5024,1544.4118,105.1434,1534.5294,105.4146,1524.6471,104.3518,1514.7647,104.7284,1504.8824,104.9502,1495,104.8242,1495.0831,105.0249,1494.6459,104.6765,1494.3519,104.6738,1493.8687,104.2143,1493.4994,104.0299,1493.2322,104.092,1493.3873,104.1562,1492.865,103.647,1493.0961,103.4498,1492.8565,103.0577,1492.5639,102.6436,1492.5,102.3242,1492.1462,102.3242,1492.9588,92.0104,1492.2007,81.6966,1493.0919,71.3828,1491.9473,61.069,1493.1174,50.7552,1492.9843,40.4414,1492.745,30.1276,1492.5472,19.8138,1492.5,9.5,1492.7238,9.5927,1492.8354,9.2247,1492.845,8.8145,1493.0219,8.4736,1493.0457,8.0692,1493.2322,7.7322,1493.3236,7.9529,1493.6055,7.6335,1493.9614,7.4925,1494.2153,7.1055,1494.5948,7.0217,1495,7" style="stroke:#181818;stroke-width:0.5;"/><polygon fill="#ADD1B2" points="1518.5608,31.9667,1516.9484,34.1698,1515.0412,37.3967,1512.3136,39.5714,1509.4474,40.7606,1507.162,40.8638,1504.2247,39.3766,1501.4532,38.4049,1499.3495,36.4322,1498.2461,34.1738,1497.5917,32.3756,1496.9506,30.0267,1495.91,28.0055,1496.7096,26.032,1497.4102,23.8702,1500.0393,22.1605,1501.889,19.9421,1504.1784,19.2055,1506.9001,18.5711,1510.3904,18.948,1512.3021,19.8495,1514.5247,20.2582,1517.2272,23.027,1518.1693,25.95,1518.5786,27.9444,1518.115,31.2309" style="stroke:#181818;stroke-width:1.0;"/><path d="M1510.2656,25.166 Q1510.4219,24.9473 1510.6094,24.8379 Q1510.7969,24.7285 1511.0156,24.7285 Q1511.3906,24.7285 1511.625,24.9941 Q1511.8594,25.2441 1511.8594,25.8535 L1511.8594,27.3066 Q1511.8594,27.916 1511.625,28.1816 Q1511.3906,28.4473 1511.0156,28.4473 Q1510.6719,28.4473 1510.4688,28.2441 Q1510.2656,28.0566 1510.1563,27.541 Q1510.1094,27.1816 1509.9219,26.9941 Q1509.5938,26.6191 1508.9844,26.4004 Q1508.375,26.1816 1507.75,26.1816 Q1506.9844,26.1816 1506.3438,26.5098 Q1505.7188,26.8379 1505.2188,27.5879 Q1504.7344,28.3379 1504.7344,29.3691 L1504.7344,30.4629 Q1504.7344,31.6973 1505.625,32.5254 Q1506.5156,33.3379 1508.1094,33.3379 Q1509.0469,33.3379 1509.7031,33.0879 Q1510.0938,32.9316 1510.5156,32.4941 Q1510.7813,32.2285 1510.9219,32.1504 Q1511.0781,32.0723 1511.2813,32.0723 Q1511.6094,32.0723 1511.8594,32.3379 Q1512.125,32.5879 1512.125,32.9316 Q1512.125,33.2754 1511.7813,33.6816 Q1511.2813,34.2598 1510.4844,34.5879 Q1509.4063,35.041 1508.1094,35.041 Q1506.5938,35.041 1505.3906,34.416 Q1504.4063,33.916 1503.7188,32.8535 Q1503.0313,31.7754 1503.0313,30.4941 L1503.0313,29.3379 Q1503.0313,28.0098 1503.6406,26.8691 Q1504.2656,25.7129 1505.3594,25.1035 Q1506.4531,24.4785 1507.6875,24.4785 Q1508.4219,24.4785 1509.0625,24.6504 Q1509.7188,24.8066 1510.2656,25.166 Z " fill="#000000"/><text fill="#000000" font-family="FG Virgil" font-size="12" font-style="italic" lengthAdjust="spacing" textLength="82" x="1551" y="24.9492">&#171;presentation&#187;</text><text fill="#000000" font-family="FG Virgil" font-size="14" lengthAdjust="spacing" textLength="141" x="1521.5" y="43.0684">RegisterJobOpeningUI</text><path d="M1493.5,51.582 L1493.5,51.8623 L1503.5588,51.0296 L1513.6176,51.8397 L1523.6765,52.1149 L1533.7353,50.6308 L1543.7941,51.4784 L1553.8529,51.0134 L1563.9118,51.0707 L1573.9706,51.4912 L1584.0294,50.6602 L1594.0882,52.3202 L1604.1471,50.7417 L1614.2059,51.3183 L1624.2647,52.158 L1634.3235,51.4677 L1644.3824,51.673 L1654.4412,51.5394 L1664.5,51.582 " fill="#F1F1F1" style="stroke:#181818;stroke-width:0.5;"/><path d="M1493.5,59.582 L1493.5,59.8623 L1503.5588,59.0296 L1513.6176,59.8397 L1523.6765,60.1149 L1533.7353,58.6308 L1543.7941,59.4784 L1553.8529,59.0134 L1563.9118,59.0707 L1573.9706,59.4912 L1584.0294,58.6602 L1594.0882,60.3202 L1604.1471,58.7417 L1614.2059,59.3183 L1624.2647,60.158 L1634.3235,59.4677 L1644.3824,59.673 L1654.4412,59.5394 L1664.5,59.582 " fill="#F1F1F1" style="stroke:#181818;stroke-width:0.5;"/><polygon fill="#84BE84" points="1506.5166,75.1223,1506.0768,75.7232,1505.5567,76.6032,1504.8128,77.1963,1504.0311,77.5207,1503.4078,77.5488,1502.6067,77.1432,1501.8509,76.8782,1501.2771,76.3402,1500.9762,75.7242,1500.7977,75.2338,1500.6229,74.5932,1500.3391,74.042,1500.5572,73.5038,1500.7482,72.9142,1501.4653,72.4479,1501.9697,71.8429,1502.5941,71.642,1503.3364,71.469,1504.2883,71.5718,1504.8097,71.8176,1505.4158,71.9291,1506.1529,72.6842,1506.4098,73.4814,1506.5214,74.0253,1506.395,74.9216" style="stroke:#038048;stroke-width:1.0;"/><text fill="#000000" font-family="FG Virgil" font-size="14" lengthAdjust="spacing" textLength="109" x="1512.5" y="78.6895">headline(): String</text><polygon fill="#84BE84" points="1506.5166,93.7434,1506.0768,94.3443,1505.5567,95.2243,1504.8128,95.8174,1504.0311,96.1417,1503.4078,96.1699,1502.6067,95.7643,1501.8509,95.4993,1501.2771,94.9613,1500.9762,94.3453,1500.7977,93.8549,1500.6229,93.2143,1500.3391,92.6631,1500.5572,92.1249,1500.7482,91.5353,1501.4653,91.069,1501.9697,90.464,1502.5941,90.2631,1503.3364,90.09,1504.2883,90.1928,1504.8097,90.4387,1505.4158,90.5502,1506.1529,91.3053,1506.4098,92.1025,1506.5214,92.6464,1506.395,93.5427" style="stroke:#038048;stroke-width:1.0;"/><text fill="#000000" font-family="FG Virgil" font-size="14" lengthAdjust="spacing" textLength="119" x="1512.5" y="97.3105">doShow(): boolean</text></g><!--class RegisterJobOpeningController--><g id="elem_RegisterJobOpeningController"><polygon fill="#F1F1F1" points="1036,184,1036,184.2102,1045.9633,183.5857,1055.9266,184.1933,1065.8899,184.3997,1075.8532,183.2866,1085.8165,183.9223,1095.7798,183.5735,1105.7431,183.6165,1115.7064,183.9318,1125.6697,183.3086,1135.633,184.5536,1145.5963,183.3697,1155.5596,183.8022,1165.5229,184.4319,1175.4862,183.9142,1185.4495,184.0682,1195.4128,183.9681,1205.3761,184.1785,1215.3394,184.2391,1225.3028,184.5857,1235.2661,184.6711,1245.2294,184.6793,1255.1927,184.2546,1265.156,184.4636,1275.1193,184.7022,1285.0826,183.2788,1295.0459,184.6785,1305.0092,183.7035,1314.9725,184.5338,1324.9358,183.505,1334.8991,183.9315,1344.8624,184.7416,1354.8257,183.9513,1364.789,184.1053,1374.7523,184.3386,1384.7156,184.4162,1394.6789,183.9961,1404.6422,184.2872,1414.6055,183.4276,1424.5688,184.2844,1434.5321,184.5482,1444.4954,184.4445,1454.4587,184.613,1464.422,183.5169,1474.3853,183.3478,1484.3486,183.3786,1494.3119,183.9411,1504.2752,183.8035,1514.2385,184.6814,1524.2018,183.8253,1534.1651,183.6569,1544.1284,184.2283,1554.0917,183.3332,1564.055,183.4809,1574.0183,184.649,1583.9817,184.4357,1593.945,184.7345,1603.9083,183.6782,1613.8716,184.3192,1623.8349,184.5904,1633.7982,183.5276,1643.7615,183.9041,1653.7248,184.126,1663.6881,184.6518,1673.6514,183.9958,1683.6147,184.4626,1693.578,183.4462,1703.5413,183.3227,1713.5046,184.5036,1723.4679,183.2831,1733.4312,184.509,1743.3945,184.2066,1753.3578,183.7321,1763.3211,183.6462,1773.2844,184.4588,1783.2477,183.7007,1793.211,184.5919,1803.1743,183.4473,1813.1376,184.6174,1823.1009,184.4843,1833.0642,184.245,1843.0275,184.0472,1852.9908,184.7266,1862.9541,184.6136,1872.9174,184.1693,1882.8807,184.2682,1892.844,183.8697,1902.8073,184.7165,1912.7706,184.1549,1922.7339,184.1726,1932.6972,183.3916,1942.6606,183.5948,1952.6239,184.5307,1962.5872,184.4298,1972.5505,183.9571,1982.5138,183.6778,1992.4771,183.7811,2002.4404,183.3138,2012.4037,184.4147,2022.367,184.7396,2032.3303,184.5264,2042.2936,184.6949,2052.2569,183.8633,2062.2202,184.0872,2072.1835,183.6124,2082.1468,184.284,2092.1101,184.2468,2102.0734,184.5524,2112.0367,183.7703,2122,184,2121.9829,183.9586,2122.4101,184.283,2122.7795,184.4676,2122.9953,184.2815,2123.3895,184.5261,2123.7678,184.7322,2123.8137,184.7513,2123.7261,185.0079,2124.1695,185.4844,2124.2866,185.8258,2124.3225,186.1336,2124.5,186.5,2124.6422,186.5,2125.2287,196.6314,2124.1871,206.7628,2124.815,216.8942,2124.7856,227.0256,2124.6158,237.157,2124.6409,247.2884,2124.6135,257.4197,2123.8758,267.5511,2124.0992,277.6825,2124.0385,287.8139,2124.5,297.9453,2124.5197,297.9535,2124.3807,298.3101,2124.2569,298.6731,2123.9711,298.9689,2123.8934,299.3509,2123.7678,299.7131,2123.7524,299.6761,2123.4878,300.0372,2123.1151,300.1373,2122.6452,300.0029,2122.3443,300.2764,2122,300.4453,2122,299.8681,2112.0367,300.7337,2102.0734,301.0538,2092.1101,300.9899,2082.1468,300.0098,2072.1835,300.9093,2062.2202,299.7025,2052.2569,300.6455,2042.2936,300.146,2032.3303,300.542,2022.367,300.6856,2012.4037,300.9174,2002.4404,299.7254,1992.4771,300.9208,1982.5138,300.6235,1972.5505,300.8006,1962.5872,301.1931,1952.6239,300.4508,1942.6606,300.6206,1932.6972,300.6588,1922.7339,300.6425,1912.7706,300.4445,1902.8073,301.156,1892.844,299.8356,1882.8807,301.0106,1872.9174,299.8213,1862.9541,299.905,1852.9908,300.4853,1843.0275,300.4736,1833.0642,299.9525,1823.1009,300.859,1813.1376,300.5542,1803.1743,301.172,1793.211,301.1124,1783.2477,299.9971,1773.2844,300.0474,1763.3211,300.3161,1753.3578,300.8008,1743.3945,300.8483,1733.4312,300.7465,1723.4679,300.1034,1713.5046,301.0817,1703.5413,301.0791,1693.578,300.398,1683.6147,300.2063,1673.6514,300.0439,1663.6881,300.2307,1653.7248,300.5827,1643.7615,300.3769,1633.7982,300.0275,1623.8349,300.9327,1613.8716,299.9864,1603.9083,300.9477,1593.945,300.8726,1583.9817,300.8172,1574.0183,301.1378,1564.055,300.1994,1554.0917,300.1447,1544.1284,300.9642,1534.1651,299.8484,1524.2018,300.2113,1514.2385,300.5608,1504.2752,300.514,1494.3119,300.0869,1484.3486,300.4023,1474.3853,301.1899,1464.422,301.0938,1454.4587,299.849,1444.4954,300.5238,1434.5321,299.9314,1424.5688,300.419,1414.6055,300.7383,1404.6422,300.8652,1394.6789,299.7806,1384.7156,300.8459,1374.7523,300.4537,1364.789,299.89,1354.8257,299.9743,1344.8624,300.7719,1334.8991,300.6952,1324.9358,300.4289,1314.9725,299.7732,1305.0092,301.1035,1295.0459,300.1335,1285.0826,299.9173,1275.1193,300.378,1265.156,301.035,1255.1927,301.0607,1245.2294,300.4804,1235.2661,300.2941,1225.3028,300.6151,1215.3394,300.6315,1205.3761,299.9375,1195.4128,300.8593,1185.4495,301.0041,1175.4862,300.2296,1165.5229,300.0161,1155.5596,301.12,1145.5963,300.4663,1135.633,300.4452,1125.6697,300.7443,1115.7064,299.7996,1105.7431,300.9753,1095.7798,300.4299,1085.8165,301.1141,1075.8532,300.2295,1065.8899,300.8543,1055.9266,300.0013,1045.9633,300.6903,1036,300.4453,1036.0484,300.5621,1035.6047,300.1981,1035.3392,300.2642,1034.8664,299.83,1034.5258,299.7146,1034.2322,299.7131,1034.4425,299.8002,1034.2965,299.4468,1034.1144,299.0785,1033.6819,298.6065,1033.7648,298.3479,1033.5,297.9453,1033.0279,297.9453,1033.5582,287.8139,1033.4987,277.6825,1033.2376,267.5511,1034.1159,257.4197,1033.9433,247.2884,1033.1792,237.157,1034.0266,227.0256,1033.5919,216.8942,1032.9164,206.7628,1033.2667,196.6314,1033.5,186.5,1033.3382,186.433,1033.6036,186.1287,1033.5992,185.7127,1033.7545,185.3628,1034.1074,185.0948,1034.2322,184.7322,1034.2169,184.6952,1034.5783,184.5678,1034.9211,184.3952,1035.3142,184.3444,1035.5756,183.9755,1036,184" style="stroke:#181818;stroke-width:0.5;"/><polygon fill="#ADD1B2" points="1490.3108,208.9667,1488.6984,211.1698,1486.7912,214.3967,1484.0636,216.5714,1481.1974,217.7606,1478.912,217.8638,1475.9747,216.3766,1473.2032,215.4049,1471.0995,213.4322,1469.9961,211.1738,1469.3417,209.3756,1468.7006,207.0267,1467.66,205.0055,1468.4596,203.032,1469.1602,200.8702,1471.7893,199.1605,1473.639,196.9421,1475.9284,196.2055,1478.6501,195.5711,1482.1404,195.948,1484.0521,196.8495,1486.2747,197.2582,1488.9772,200.027,1489.9193,202.95,1490.3286,204.9444,1489.865,208.2309" style="stroke:#181818;stroke-width:1.0;"/><path d="M1482.0156,202.166 Q1482.1719,201.9473 1482.3594,201.8379 Q1482.5469,201.7285 1482.7656,201.7285 Q1483.1406,201.7285 1483.375,201.9941 Q1483.6094,202.2441 1483.6094,202.8535 L1483.6094,204.3066 Q1483.6094,204.916 1483.375,205.1816 Q1483.1406,205.4473 1482.7656,205.4473 Q1482.4219,205.4473 1482.2188,205.2441 Q1482.0156,205.0566 1481.9063,204.541 Q1481.8594,204.1816 1481.6719,203.9941 Q1481.3438,203.6191 1480.7344,203.4004 Q1480.125,203.1816 1479.5,203.1816 Q1478.7344,203.1816 1478.0938,203.5098 Q1477.4688,203.8379 1476.9688,204.5879 Q1476.4844,205.3379 1476.4844,206.3691 L1476.4844,207.4629 Q1476.4844,208.6973 1477.375,209.5254 Q1478.2656,210.3379 1479.8594,210.3379 Q1480.7969,210.3379 1481.4531,210.0879 Q1481.8438,209.9316 1482.2656,209.4941 Q1482.5313,209.2285 1482.6719,209.1504 Q1482.8281,209.0723 1483.0313,209.0723 Q1483.3594,209.0723 1483.6094,209.3379 Q1483.875,209.5879 1483.875,209.9316 Q1483.875,210.2754 1483.5313,210.6816 Q1483.0313,211.2598 1482.2344,211.5879 Q1481.1563,212.041 1479.8594,212.041 Q1478.3438,212.041 1477.1406,211.416 Q1476.1563,210.916 1475.4688,209.8535 Q1474.7813,208.7754 1474.7813,207.4941 L1474.7813,206.3379 Q1474.7813,205.0098 1475.3906,203.8691 Q1476.0156,202.7129 1477.1094,202.1035 Q1478.2031,201.4785 1479.4375,201.4785 Q1480.1719,201.4785 1480.8125,201.6504 Q1481.4688,201.8066 1482.0156,202.166 Z " fill="#000000"/><text fill="#000000" font-family="FG Virgil" font-size="12" font-style="italic" lengthAdjust="spacing" textLength="74" x="1558.25" y="201.9492">&#171;application&#187;</text><text fill="#000000" font-family="FG Virgil" font-size="14" lengthAdjust="spacing" textLength="191" x="1499.75" y="220.0684">RegisterJobOpeningController</text><path d="M1034.5,228.582 L1034.5,228.8623 L1044.4908,228.0296 L1054.4817,228.8397 L1064.4725,229.1149 L1074.4633,227.6308 L1084.4541,228.4784 L1094.445,228.0134 L1104.4358,228.0707 L1114.4266,228.4912 L1124.4174,227.6602 L1134.4083,229.3202 L1144.3991,227.7417 L1154.3899,228.3183 L1164.3807,229.158 L1174.3716,228.4677 L1184.3624,228.673 L1194.3532,228.5394 L1204.344,228.8201 L1214.3349,228.9009 L1224.3257,229.363 L1234.3165,229.4768 L1244.3073,229.4877 L1254.2982,228.9215 L1264.289,229.2001 L1274.2798,229.5183 L1284.2706,227.6205 L1294.2615,229.4867 L1304.2523,228.1867 L1314.2431,229.2938 L1324.2339,227.922 L1334.2248,228.4907 L1344.2156,229.5708 L1354.2064,228.5171 L1364.1972,228.7224 L1374.1881,229.0335 L1384.1789,229.137 L1394.1697,228.5768 L1404.1606,228.965 L1414.1514,227.8188 L1424.1422,228.9612 L1434.133,229.313 L1444.1239,229.1747 L1454.1147,229.3994 L1464.1055,227.9379 L1474.0963,227.7125 L1484.0872,227.7535 L1494.078,228.5035 L1504.0688,228.32 L1514.0596,229.4906 L1524.0505,228.3491 L1534.0413,228.1246 L1544.0321,228.8864 L1554.0229,227.6929 L1564.0138,227.8899 L1574.0046,229.4473 L1583.9954,229.1629 L1593.9862,229.5614 L1603.9771,228.153 L1613.9679,229.0076 L1623.9587,229.3693 L1633.9495,227.9522 L1643.9404,228.4542 L1653.9312,228.75 L1663.922,229.451 L1673.9128,228.5764 L1683.9037,229.1988 L1693.8945,227.8437 L1703.8853,227.679 L1713.8761,229.2535 L1723.867,227.6261 L1733.8578,229.2606 L1743.8486,228.8575 L1753.8394,228.2248 L1763.8303,228.1103 L1773.8211,229.1937 L1783.8119,228.1829 L1793.8028,229.3712 L1803.7936,227.845 L1813.7844,229.4053 L1823.7752,229.2278 L1833.7661,228.9087 L1843.7569,228.645 L1853.7477,229.5508 L1863.7385,229.4001 L1873.7294,228.8077 L1883.7202,228.9396 L1893.711,228.4083 L1903.7018,229.5373 L1913.6927,228.7885 L1923.6835,228.8121 L1933.6743,227.7709 L1943.6651,228.0417 L1953.656,229.2897 L1963.6468,229.155 L1973.6376,228.5248 L1983.6284,228.1525 L1993.6193,228.2901 L2003.6101,227.6671 L2013.6009,229.135 L2023.5917,229.5681 L2033.5826,229.2839 L2043.5734,229.5086 L2053.5642,228.3997 L2063.555,228.6983 L2073.5459,228.0652 L2083.5367,228.9608 L2093.5275,228.9111 L2103.5183,229.3185 L2113.5092,228.2758 L2123.5,228.582 " fill="#F1F1F1" style="stroke:#181818;stroke-width:0.5;"/><path d="M1034.5,236.582 L1034.5,236.8623 L1044.4908,236.0296 L1054.4817,236.8397 L1064.4725,237.1149 L1074.4633,235.6308 L1084.4541,236.4784 L1094.445,236.0134 L1104.4358,236.0707 L1114.4266,236.4912 L1124.4174,235.6602 L1134.4083,237.3202 L1144.3991,235.7417 L1154.3899,236.3183 L1164.3807,237.158 L1174.3716,236.4677 L1184.3624,236.673 L1194.3532,236.5394 L1204.344,236.8201 L1214.3349,236.9009 L1224.3257,237.363 L1234.3165,237.4768 L1244.3073,237.4877 L1254.2982,236.9215 L1264.289,237.2001 L1274.2798,237.5183 L1284.2706,235.6205 L1294.2615,237.4867 L1304.2523,236.1867 L1314.2431,237.2938 L1324.2339,235.922 L1334.2248,236.4907 L1344.2156,237.5708 L1354.2064,236.5171 L1364.1972,236.7224 L1374.1881,237.0335 L1384.1789,237.137 L1394.1697,236.5768 L1404.1606,236.965 L1414.1514,235.8188 L1424.1422,236.9612 L1434.133,237.313 L1444.1239,237.1747 L1454.1147,237.3994 L1464.1055,235.9379 L1474.0963,235.7125 L1484.0872,235.7535 L1494.078,236.5035 L1504.0688,236.32 L1514.0596,237.4906 L1524.0505,236.3491 L1534.0413,236.1246 L1544.0321,236.8864 L1554.0229,235.6929 L1564.0138,235.8899 L1574.0046,237.4473 L1583.9954,237.1629 L1593.9862,237.5614 L1603.9771,236.153 L1613.9679,237.0076 L1623.9587,237.3693 L1633.9495,235.9522 L1643.9404,236.4542 L1653.9312,236.75 L1663.922,237.451 L1673.9128,236.5764 L1683.9037,237.1988 L1693.8945,235.8437 L1703.8853,235.679 L1713.8761,237.2535 L1723.867,235.6261 L1733.8578,237.2606 L1743.8486,236.8575 L1753.8394,236.2248 L1763.8303,236.1103 L1773.8211,237.1937 L1783.8119,236.1829 L1793.8028,237.3712 L1803.7936,235.845 L1813.7844,237.4053 L1823.7752,237.2278 L1833.7661,236.9087 L1843.7569,236.645 L1853.7477,237.5508 L1863.7385,237.4001 L1873.7294,236.8077 L1883.7202,236.9396 L1893.711,236.4083 L1903.7018,237.5373 L1913.6927,236.7885 L1923.6835,236.8121 L1933.6743,235.7709 L1943.6651,236.0417 L1953.656,237.2897 L1963.6468,237.155 L1973.6376,236.5248 L1983.6284,236.1525 L1993.6193,236.2901 L2003.6101,235.6671 L2013.6009,237.135 L2023.5917,237.5681 L2033.5826,237.2839 L2043.5734,237.5086 L2053.5642,236.3997 L2063.555,236.6983 L2073.5459,236.0652 L2083.5367,236.9608 L2093.5275,236.9111 L2103.5183,237.3185 L2113.5092,236.2758 L2123.5,236.582 " fill="#F1F1F1" style="stroke:#181818;stroke-width:0.5;"/><polygon fill="#84BE84" points="1047.5166,252.1223,1047.0768,252.7232,1046.5567,253.6032,1045.8128,254.1963,1045.0311,254.5207,1044.4078,254.5488,1043.6067,254.1432,1042.8509,253.8782,1042.2771,253.3402,1041.9762,252.7242,1041.7977,252.2338,1041.6229,251.5932,1041.3391,251.042,1041.5572,250.5038,1041.7482,249.9142,1042.4653,249.4479,1042.9697,248.8429,1043.5941,248.642,1044.3364,248.469,1045.2883,248.5718,1045.8097,248.8176,1046.4158,248.9291,1047.1529,249.6842,1047.4098,250.4814,1047.5214,251.0253,1047.395,251.9216" style="stroke:#038048;stroke-width:1.0;"/><text fill="#000000" font-family="FG Virgil" font-size="14" lengthAdjust="spacing" textLength="116" x="1053.5" y="255.6895">findAllCostumers()</text><polygon fill="#84BE84" points="1047.5166,270.7434,1047.0768,271.3443,1046.5567,272.2243,1045.8128,272.8174,1045.0311,273.1417,1044.4078,273.1699,1043.6067,272.7643,1042.8509,272.4993,1042.2771,271.9613,1041.9762,271.3453,1041.7977,270.8549,1041.6229,270.2143,1041.3391,269.6631,1041.5572,269.1249,1041.7482,268.5353,1042.4653,268.069,1042.9697,267.464,1043.5941,267.2631,1044.3364,267.09,1045.2883,267.1928,1045.8097,267.4387,1046.4158,267.5502,1047.1529,268.3053,1047.4098,269.1025,1047.5214,269.6464,1047.395,270.5427" style="stroke:#038048;stroke-width:1.0;"/><text fill="#000000" font-family="FG Virgil" font-size="14" lengthAdjust="spacing" textLength="1058" x="1053.5" y="274.3105">addJobOpening( jobTitle, description, numberOfVacancies,  contractType,workRegime, Calendar jobOpeningCreationDate, jobOpeningStatus, customer,  serialNumber)</text><polygon fill="#84BE84" points="1047.5166,289.3645,1047.0768,289.9653,1046.5567,290.8454,1045.8128,291.4385,1045.0311,291.7628,1044.4078,291.791,1043.6067,291.3854,1042.8509,291.1204,1042.2771,290.5824,1041.9762,289.9664,1041.7977,289.476,1041.6229,288.8354,1041.3391,288.2842,1041.5572,287.7459,1041.7482,287.1564,1042.4653,286.6901,1042.9697,286.0851,1043.5941,285.8842,1044.3364,285.7111,1045.2883,285.8139,1045.8097,286.0598,1046.4158,286.1713,1047.1529,286.9264,1047.4098,287.7236,1047.5214,288.2675,1047.395,289.1638" style="stroke:#038048;stroke-width:1.0;"/><text fill="#000000" font-family="FG Virgil" font-size="14" lengthAdjust="spacing" textLength="1065" x="1053.5" y="292.9316">registerJobOpening(jobTitle, description, numberOfVacancies,  contractType,workRegime, jobOpeningCreationDate, jobOpeningStatus, customer,  serialNumber,  String)</text></g><!--class JobOpeningBuilder--><g id="elem_JobOpeningBuilder"><polygon fill="#F1F1F1" points="319,379,319,379.2102,328.8947,378.5857,338.7895,379.1933,348.6842,379.3997,358.5789,378.2866,368.4737,378.9223,378.3684,378.5735,388.2632,378.6165,398.1579,378.9318,408.0526,378.3086,417.9474,379.5536,427.8421,378.3697,437.7368,378.8022,447.6316,379.4319,457.5263,378.9142,467.4211,379.0682,477.3158,378.9681,487.2105,379.1785,497.1053,379.2391,507,379.5857,516.8947,379.6711,526.7895,379.6793,536.6842,379.2546,546.5789,379.4636,556.4737,379.7022,566.3684,378.2788,576.2632,379.6785,586.1579,378.7035,596.0526,379.5338,605.9474,378.505,615.8421,378.9315,625.7368,379.7416,635.6316,378.9513,645.5263,379.1053,655.4211,379.3386,665.3158,379.4162,675.2105,378.9961,685.1053,379.2872,695,379,694.927,378.8237,695.3898,379.234,695.777,379.4617,696.1174,379.5762,696.4924,379.7746,696.7678,379.7322,696.619,379.6706,696.7134,380.0026,696.8693,380.3601,697.189,380.7854,697.293,381.1214,697.5,381.5,698.1814,381.5,697.3253,391.5747,697.1569,401.6494,697.7283,411.7241,696.8332,421.7988,696.9809,431.8735,698.149,441.9482,697.9357,452.0229,698.2345,462.0977,697.1782,472.1724,697.8192,482.2471,698.0904,492.3218,697.0276,502.3965,697.4041,512.4712,697.626,522.5459,698.1518,532.6206,697.4958,542.6953,697.9626,552.77,696.9462,562.8447,696.8227,572.9194,698.0036,582.9941,696.7831,593.0688,698.009,603.1436,697.7066,613.2183,697.5,623.293,697.4175,623.2588,697.2446,623.6014,697.3484,624.0586,696.9685,624.3154,697.0965,624.7827,696.7678,625.0607,696.6973,624.8905,696.493,625.3973,696.1224,625.5028,695.7384,625.5755,695.3596,625.6611,695,625.793,695,626.5196,685.1053,626.4065,675.2105,625.9622,665.3158,626.0612,655.4211,625.6627,645.5263,626.5094,635.6316,625.9478,625.7368,625.9655,615.8421,625.1846,605.9474,625.3877,596.0526,626.3237,586.1579,626.2227,576.2632,625.75,566.3684,625.4708,556.4737,625.574,546.5789,625.1068,536.6842,626.2077,526.7895,626.5325,516.8947,626.3194,507,626.4879,497.1053,625.6562,487.2105,625.8802,477.3158,625.4054,467.4211,626.077,457.5263,626.0397,447.6316,626.3454,437.7368,625.5633,427.8421,625.6586,417.9474,626.2364,408.0526,626.3603,398.1579,625.2804,388.2632,625.5991,378.3684,625.9422,368.4737,625.1821,358.5789,626.1464,348.6842,626.051,338.7895,625.6922,328.8947,625.9352,319,625.793,319.093,626.0174,318.6065,625.5502,318.3331,625.5971,317.9758,625.4416,317.6006,625.2428,317.2322,625.0607,317.2756,625.0787,317.1207,624.7217,316.7471,624.274,316.6695,623.9489,316.5043,623.5876,316.5,623.293,316.5638,623.293,316.5881,613.2183,316.6617,603.1436,316.209,593.0688,316.4325,582.9941,316.3798,572.9194,317.0769,562.8447,316.9266,552.77,316.0145,542.6953,316.4271,532.6206,315.9228,522.5459,316.7884,512.4712,317.1085,502.3965,317.0446,492.3218,316.0644,482.2471,316.964,472.1724,315.7572,462.0977,316.7002,452.0229,316.2007,441.9482,316.5967,431.8735,316.7403,421.7988,316.9721,411.7241,315.7801,401.6494,316.9755,391.5747,316.5,381.5,316.5549,381.5227,316.7559,381.1918,317.0232,380.8883,316.941,380.44,317.1398,380.1081,317.2322,379.7322,317.2595,379.798,317.6109,379.6465,317.9392,379.4391,318.3836,379.5118,318.5687,378.9587,319,379" style="stroke:#181818;stroke-width:0.5;"/><polygon fill="#ADD1B2" points="453.8108,403.9667,452.1984,406.1698,450.2912,409.3967,447.5636,411.5714,444.6974,412.7606,442.412,412.8638,439.4747,411.3766,436.7032,410.4049,434.5995,408.4322,433.4961,406.1738,432.8417,404.3756,432.2006,402.0267,431.16,400.0055,431.9596,398.032,432.6602,395.8702,435.2893,394.1605,437.139,391.9421,439.4284,391.2055,442.1501,390.5711,445.6404,390.948,447.5521,391.8495,449.7747,392.2582,452.4772,395.027,453.4193,397.95,453.8286,399.9444,453.365,403.2309" style="stroke:#181818;stroke-width:1.0;"/><path d="M445.5156,397.166 Q445.6719,396.9473 445.8594,396.8379 Q446.0469,396.7285 446.2656,396.7285 Q446.6406,396.7285 446.875,396.9941 Q447.1094,397.2441 447.1094,397.8535 L447.1094,399.3066 Q447.1094,399.916 446.875,400.1816 Q446.6406,400.4473 446.2656,400.4473 Q445.9219,400.4473 445.7188,400.2441 Q445.5156,400.0566 445.4063,399.541 Q445.3594,399.1816 445.1719,398.9941 Q444.8438,398.6191 444.2344,398.4004 Q443.625,398.1816 443,398.1816 Q442.2344,398.1816 441.5938,398.5098 Q440.9688,398.8379 440.4688,399.5879 Q439.9844,400.3379 439.9844,401.3691 L439.9844,402.4629 Q439.9844,403.6973 440.875,404.5254 Q441.7656,405.3379 443.3594,405.3379 Q444.2969,405.3379 444.9531,405.0879 Q445.3438,404.9316 445.7656,404.4941 Q446.0313,404.2285 446.1719,404.1504 Q446.3281,404.0723 446.5313,404.0723 Q446.8594,404.0723 447.1094,404.3379 Q447.375,404.5879 447.375,404.9316 Q447.375,405.2754 447.0313,405.6816 Q446.5313,406.2598 445.7344,406.5879 Q444.6563,407.041 443.3594,407.041 Q441.8438,407.041 440.6406,406.416 Q439.6563,405.916 438.9688,404.8535 Q438.2813,403.7754 438.2813,402.4941 L438.2813,401.3379 Q438.2813,400.0098 438.8906,398.8691 Q439.5156,397.7129 440.6094,397.1035 Q441.7031,396.4785 442.9375,396.4785 Q443.6719,396.4785 444.3125,396.6504 Q444.9688,396.8066 445.5156,397.166 Z " fill="#000000"/><text fill="#000000" font-family="FG Virgil" font-size="12" font-style="italic" lengthAdjust="spacing" textLength="53" x="496.75" y="396.9492">&#171;builder&#187;</text><text fill="#000000" font-family="FG Virgil" font-size="14" lengthAdjust="spacing" textLength="120" x="463.25" y="415.0684">JobOpeningBuilder</text><path d="M317.5,423.582 L317.5,423.8623 L327.4737,423.0296 L337.4474,423.8397 L347.4211,424.1149 L357.3947,422.6308 L367.3684,423.4784 L377.3421,423.0134 L387.3158,423.0707 L397.2895,423.4912 L407.2632,422.6602 L417.2368,424.3202 L427.2105,422.7417 L437.1842,423.3183 L447.1579,424.158 L457.1316,423.4677 L467.1053,423.673 L477.0789,423.5394 L487.0526,423.8201 L497.0263,423.9009 L507,424.363 L516.9737,424.4768 L526.9474,424.4877 L536.9211,423.9215 L546.8947,424.2001 L556.8684,424.5183 L566.8421,422.6205 L576.8158,424.4867 L586.7895,423.1867 L596.7632,424.2938 L606.7368,422.922 L616.7105,423.4907 L626.6842,424.5708 L636.6579,423.5171 L646.6316,423.7224 L656.6053,424.0335 L666.5789,424.137 L676.5526,423.5768 L686.5263,423.965 L696.5,423.582 " fill="#F1F1F1" style="stroke:#181818;stroke-width:0.5;"/><path d="M317.5,431.582 L317.5,431.8623 L327.4737,431.0296 L337.4474,431.8397 L347.4211,432.1149 L357.3947,430.6308 L367.3684,431.4784 L377.3421,431.0134 L387.3158,431.0707 L397.2895,431.4912 L407.2632,430.6602 L417.2368,432.3202 L427.2105,430.7417 L437.1842,431.3183 L447.1579,432.158 L457.1316,431.4677 L467.1053,431.673 L477.0789,431.5394 L487.0526,431.8201 L497.0263,431.9009 L507,432.363 L516.9737,432.4768 L526.9474,432.4877 L536.9211,431.9215 L546.8947,432.2001 L556.8684,432.5183 L566.8421,430.6205 L576.8158,432.4867 L586.7895,431.1867 L596.7632,432.2938 L606.7368,430.922 L616.7105,431.4907 L626.6842,432.5708 L636.6579,431.5171 L646.6316,431.7224 L656.6053,432.0335 L666.5789,432.137 L676.5526,431.5768 L686.5263,431.965 L696.5,431.582 " fill="#F1F1F1" style="stroke:#181818;stroke-width:0.5;"/><polygon fill="#84BE84" points="330.5166,447.1223,330.0768,447.7232,329.5567,448.6032,328.8128,449.1963,328.0311,449.5207,327.4078,449.5488,326.6067,449.1432,325.8509,448.8782,325.2771,448.3402,324.9762,447.7242,324.7977,447.2338,324.6229,446.5932,324.3391,446.042,324.5572,445.5038,324.7482,444.9142,325.4653,444.4479,325.9697,443.8429,326.5941,443.642,327.3364,443.469,328.2883,443.5718,328.8097,443.8176,329.4158,443.9291,330.1529,444.6842,330.4098,445.4814,330.5214,446.0253,330.395,446.9216" style="stroke:#038048;stroke-width:1.0;"/><text fill="#000000" font-family="FG Virgil" font-size="14" lengthAdjust="spacing" textLength="124" x="336.5" y="450.6895">build(): JobOpening</text><polygon fill="#84BE84" points="330.5166,465.7434,330.0768,466.3443,329.5567,467.2243,328.8128,467.8174,328.0311,468.1417,327.4078,468.1699,326.6067,467.7643,325.8509,467.4993,325.2771,466.9613,324.9762,466.3453,324.7977,465.8549,324.6229,465.2143,324.3391,464.6631,324.5572,464.1249,324.7482,463.5353,325.4653,463.069,325.9697,462.464,326.5941,462.2631,327.3364,462.09,328.2883,462.1928,328.8097,462.4387,329.4158,462.5502,330.1529,463.3053,330.4098,464.1025,330.5214,464.6464,330.395,465.5427" style="stroke:#038048;stroke-width:1.0;"/><text fill="#000000" font-family="FG Virgil" font-size="14" lengthAdjust="spacing" textLength="90" x="336.5" y="469.3105">titled( jobTitle)</text><polygon fill="#84BE84" points="330.5166,484.3645,330.0768,484.9653,329.5567,485.8454,328.8128,486.4385,328.0311,486.7628,327.4078,486.791,326.6067,486.3854,325.8509,486.1204,325.2771,485.5824,324.9762,484.9664,324.7977,484.476,324.6229,483.8354,324.3391,483.2842,324.5572,482.7459,324.7482,482.1564,325.4653,481.6901,325.9697,481.0851,326.5941,480.8842,327.3364,480.7111,328.2883,480.8139,328.8097,481.0598,329.4158,481.1713,330.1529,481.9264,330.4098,482.7236,330.5214,483.2675,330.395,484.1638" style="stroke:#038048;stroke-width:1.0;"/><text fill="#000000" font-family="FG Virgil" font-size="14" lengthAdjust="spacing" textLength="211" x="336.5" y="487.9316">withJobReference( jobReference)</text><polygon fill="#84BE84" points="330.5166,502.9856,330.0768,503.5864,329.5567,504.4665,328.8128,505.0596,328.0311,505.3839,327.4078,505.4121,326.6067,505.0065,325.8509,504.7415,325.2771,504.2035,324.9762,503.5875,324.7977,503.0971,324.6229,502.4565,324.3391,501.9053,324.5572,501.367,324.7482,500.7775,325.4653,500.3112,325.9697,499.7062,326.5941,499.5053,327.3364,499.3322,328.2883,499.435,328.8097,499.6809,329.4158,499.7924,330.1529,500.5475,330.4098,501.3447,330.5214,501.8886,330.395,502.7849" style="stroke:#038048;stroke-width:1.0;"/><text fill="#000000" font-family="FG Virgil" font-size="14" lengthAdjust="spacing" textLength="178" x="336.5" y="506.5527">withDescription( description)</text><polygon fill="#84BE84" points="330.5166,521.6067,330.0768,522.2075,329.5567,523.0876,328.8128,523.6807,328.0311,524.005,327.4078,524.0332,326.6067,523.6276,325.8509,523.3626,325.2771,522.8245,324.9762,522.2086,324.7977,521.7182,324.6229,521.0776,324.3391,520.5264,324.5572,519.9881,324.7482,519.3986,325.4653,518.9323,325.9697,518.3273,326.5941,518.1263,327.3364,517.9533,328.2883,518.0561,328.8097,518.302,329.4158,518.4135,330.1529,519.1686,330.4098,519.9658,330.5214,520.5097,330.395,521.406" style="stroke:#038048;stroke-width:1.0;"/><text fill="#000000" font-family="FG Virgil" font-size="14" lengthAdjust="spacing" textLength="295" x="336.5" y="525.1738">withNumberOfVacancies( numberOfVacancies)</text><polygon fill="#84BE84" points="330.5166,540.2278,330.0768,540.8286,329.5567,541.7087,328.8128,542.3018,328.0311,542.6261,327.4078,542.6543,326.6067,542.2486,325.8509,541.9837,325.2771,541.4456,324.9762,540.8297,324.7977,540.3393,324.6229,539.6987,324.3391,539.1474,324.5572,538.6092,324.7482,538.0197,325.4653,537.5534,325.9697,536.9483,326.5941,536.7474,327.3364,536.5744,328.2883,536.6772,328.8097,536.9231,329.4158,537.0346,330.1529,537.7897,330.4098,538.5869,330.5214,539.1308,330.395,540.0271" style="stroke:#038048;stroke-width:1.0;"/><text fill="#000000" font-family="FG Virgil" font-size="14" lengthAdjust="spacing" textLength="207" x="336.5" y="543.7949">withContractType( contractType)</text><polygon fill="#84BE84" points="330.5166,558.8489,330.0768,559.4497,329.5567,560.3298,328.8128,560.9229,328.0311,561.2472,327.4078,561.2754,326.6067,560.8697,325.8509,560.6048,325.2771,560.0667,324.9762,559.4508,324.7977,558.9604,324.6229,558.3198,324.3391,557.7685,324.5572,557.2303,324.7482,556.6407,325.4653,556.1745,325.9697,555.5694,326.5941,555.3685,327.3364,555.1955,328.2883,555.2983,328.8097,555.5442,329.4158,555.6556,330.1529,556.4108,330.4098,557.2079,330.5214,557.7519,330.395,558.6482" style="stroke:#038048;stroke-width:1.0;"/><text fill="#000000" font-family="FG Virgil" font-size="14" lengthAdjust="spacing" textLength="196" x="336.5" y="562.416">withWorkRegime( workRegime)</text><polygon fill="#84BE84" points="330.5166,577.47,330.0768,578.0708,329.5567,578.9509,328.8128,579.544,328.0311,579.8683,327.4078,579.8965,326.6067,579.4908,325.8509,579.2258,325.2771,578.6878,324.9762,578.0719,324.7977,577.5815,324.6229,576.9409,324.3391,576.3896,324.5572,575.8514,324.7482,575.2618,325.4653,574.7955,325.9697,574.1905,326.5941,573.9896,327.3364,573.8166,328.2883,573.9194,328.8097,574.1653,329.4158,574.2767,330.1529,575.0319,330.4098,575.829,330.5214,576.373,330.395,577.2693" style="stroke:#038048;stroke-width:1.0;"/><text fill="#000000" font-family="FG Virgil" font-size="14" lengthAdjust="spacing" textLength="355" x="336.5" y="581.0371">withJobOpeningCreationDate( jobOpeningCreationDate)</text><polygon fill="#84BE84" points="330.5166,596.091,330.0768,596.6919,329.5567,597.572,328.8128,598.1651,328.0311,598.4894,327.4078,598.5176,326.6067,598.1119,325.8509,597.8469,325.2771,597.3089,324.9762,596.693,324.7977,596.2026,324.6229,595.562,324.3391,595.0107,324.5572,594.4725,324.7482,593.8829,325.4653,593.4166,325.9697,592.8116,326.5941,592.6107,327.3364,592.4377,328.2883,592.5405,328.8097,592.7864,329.4158,592.8978,330.1529,593.653,330.4098,594.4501,330.5214,594.9941,330.395,595.8904" style="stroke:#038048;stroke-width:1.0;"/><text fill="#000000" font-family="FG Virgil" font-size="14" lengthAdjust="spacing" textLength="267" x="336.5" y="599.6582">withJobOpeningStatus( jobOpeningStatus)</text><polygon fill="#84BE84" points="330.5166,614.7121,330.0768,615.313,329.5567,616.1931,328.8128,616.7862,328.0311,617.1105,327.4078,617.1386,326.6067,616.733,325.8509,616.468,325.2771,615.93,324.9762,615.3141,324.7977,614.8237,324.6229,614.1831,324.3391,613.6318,324.5572,613.0936,324.7482,612.504,325.4653,612.0377,325.9697,611.4327,326.5941,611.2318,327.3364,611.0588,328.2883,611.1616,328.8097,611.4075,329.4158,611.5189,330.1529,612.2741,330.4098,613.0712,330.5214,613.6152,330.395,614.5115" style="stroke:#038048;stroke-width:1.0;"/><text fill="#000000" font-family="FG Virgil" font-size="14" lengthAdjust="spacing" textLength="157" x="336.5" y="618.2793">withCustomer( customer)</text></g><!--class AuthorizationService--><g id="elem_AuthorizationService"><polygon fill="#F1F1F1" points="735,444.5,735,444.7102,745.0196,444.0857,755.0392,444.6933,765.0588,444.8997,775.0784,443.7866,785.098,444.4223,795.1176,444.0735,805.1373,444.1165,815.1569,444.4318,825.1765,443.8086,835.1961,445.0536,845.2157,443.8697,855.2353,444.3022,865.2549,444.9319,875.2745,444.4142,885.2941,444.5682,895.3137,444.4681,905.3333,444.6785,915.3529,444.7391,925.3725,445.0857,935.3922,445.1711,945.4118,445.1793,955.4314,444.7546,965.451,444.9636,975.4706,445.2022,985.4902,443.7788,995.5098,445.1785,1005.5294,444.2035,1015.549,445.0338,1025.5686,444.005,1035.5882,444.4315,1045.6078,445.2416,1055.6275,444.4513,1065.6471,444.6053,1075.6667,444.8386,1085.6863,444.9162,1095.7059,444.4961,1105.7255,444.7872,1115.7451,443.9276,1125.7647,444.7844,1135.7843,445.0482,1145.8039,444.9445,1155.8235,445.113,1165.8431,444.0169,1175.8627,443.8478,1185.8824,443.8786,1195.902,444.4411,1205.9216,444.3035,1215.9412,445.1814,1225.9608,444.3253,1235.9804,444.1569,1246,444.7283,1256.0196,443.8332,1266.0392,443.9809,1276.0588,445.149,1286.0784,444.9357,1296.098,445.2345,1306.1176,444.1782,1316.1373,444.8192,1326.1569,445.0904,1336.1765,444.0276,1346.1961,444.4041,1356.2157,444.626,1366.2353,445.1518,1376.2549,444.4958,1386.2745,444.9626,1396.2941,443.9462,1406.3137,443.8227,1416.3333,445.0036,1426.3529,443.7831,1436.3725,445.009,1446.3922,444.7066,1456.4118,444.2321,1466.4314,444.1462,1476.451,444.9588,1486.4706,444.2007,1496.4902,445.0919,1506.5098,443.9473,1516.5294,445.1174,1526.549,444.9843,1536.5686,444.745,1546.5882,444.5472,1556.6078,445.2266,1566.6275,445.1136,1576.6471,444.6693,1586.6667,444.7682,1596.6863,444.3697,1606.7059,445.2165,1616.7255,444.6549,1626.7451,444.6726,1636.7647,443.8916,1646.7843,444.0948,1656.8039,445.0307,1666.8235,444.9298,1676.8431,444.4571,1686.8627,444.1778,1696.8824,444.2811,1706.902,443.8138,1716.9216,444.9147,1726.9412,445.2396,1736.9608,445.0264,1746.9804,445.1949,1757,444.5,1756.9826,444.4579,1757.3647,444.6733,1757.6577,444.6735,1758.0969,445.0268,1758.4457,445.1618,1758.7678,445.2322,1758.9379,445.3027,1758.8435,445.5565,1759.0193,445.9222,1759.3437,446.3495,1759.5283,446.7188,1759.5,447,1758.9875,447,1759.3061,457.1314,1759.6493,467.2628,1758.8892,477.3942,1759.8534,487.5256,1759.758,497.657,1759.3992,507.7884,1759.6422,517.9197,1760.2287,528.0511,1759.1871,538.1825,1759.815,548.3139,1759.5,558.4453,1759.588,558.4818,1759.3892,558.8136,1759.2505,559.1704,1759.0956,559.5204,1758.722,559.7799,1758.7678,560.2131,1758.7166,560.0896,1758.3553,560.2174,1758.0688,560.5256,1757.7183,560.6796,1757.3742,560.8487,1757,560.9453,1757,560.6543,1746.9804,560.8778,1736.9608,560.8251,1726.9412,561.5222,1716.9216,561.3719,1706.902,560.4598,1696.8824,560.8724,1686.8627,560.3681,1676.8431,561.2337,1666.8235,561.5538,1656.8039,561.4899,1646.7843,560.5098,1636.7647,561.4093,1626.7451,560.2025,1616.7255,561.1455,1606.7059,560.646,1596.6863,561.042,1586.6667,561.1856,1576.6471,561.4174,1566.6275,560.2254,1556.6078,561.4208,1546.5882,561.1235,1536.5686,561.3006,1526.549,561.6931,1516.5294,560.9508,1506.5098,561.1206,1496.4902,561.1588,1486.4706,561.1425,1476.451,560.9445,1466.4314,561.656,1456.4118,560.3356,1446.3922,561.5106,1436.3725,560.3213,1426.3529,560.405,1416.3333,560.9853,1406.3137,560.9736,1396.2941,560.4525,1386.2745,561.359,1376.2549,561.0542,1366.2353,561.672,1356.2157,561.6124,1346.1961,560.4971,1336.1765,560.5474,1326.1569,560.8161,1316.1373,561.3008,1306.1176,561.3483,1296.098,561.2465,1286.0784,560.6034,1276.0588,561.5817,1266.0392,561.5791,1256.0196,560.898,1246,560.7063,1235.9804,560.5439,1225.9608,560.7307,1215.9412,561.0827,1205.9216,560.8769,1195.902,560.5275,1185.8824,561.4327,1175.8627,560.4864,1165.8431,561.4477,1155.8235,561.3726,1145.8039,561.3172,1135.7843,561.6378,1125.7647,560.6994,1115.7451,560.6447,1105.7255,561.4642,1095.7059,560.3484,1085.6863,560.7113,1075.6667,561.0608,1065.6471,561.014,1055.6275,560.5869,1045.6078,560.9023,1035.5882,561.6899,1025.5686,561.5938,1015.549,560.349,1005.5294,561.0238,995.5098,560.4314,985.4902,560.919,975.4706,561.2383,965.451,561.3652,955.4314,560.2806,945.4118,561.3459,935.3922,560.9537,925.3725,560.39,915.3529,560.4743,905.3333,561.2719,895.3137,561.1952,885.2941,560.9289,875.2745,560.2732,865.2549,561.6035,855.2353,560.6335,845.2157,560.4173,835.1961,560.878,825.1765,561.535,815.1569,561.5607,805.1373,560.9804,795.1176,560.7941,785.098,561.1151,775.0784,561.1315,765.0588,560.4375,755.0392,561.3593,745.0196,561.5041,735,560.9453,734.9725,560.8789,734.5917,560.6667,734.379,560.8602,733.942,560.5124,733.5858,560.3595,733.2322,560.2131,733.3243,560.2512,732.8869,559.7772,733.1025,559.5736,732.7881,559.1504,732.8524,558.8842,732.5,558.4453,732.2841,558.4453,732.909,548.3139,732.056,538.1825,732.745,528.0511,732.8793,517.9197,732.1727,507.7884,732.863,497.657,731.9286,487.5256,732.0295,477.3942,733.1828,467.2628,733.1844,457.1314,732.5,447,732.6751,447.0725,732.5355,446.6005,732.9112,446.3419,732.794,445.8791,733.1037,445.5932,733.2322,445.2322,733.2321,445.2318,733.5523,445.005,734.0179,445.129,734.3494,444.9294,734.6055,444.5477,735,444.5" style="stroke:#181818;stroke-width:0.5;"/><polygon fill="#ADD1B2" points="1188.3108,469.4667,1186.6984,471.6698,1184.7912,474.8967,1182.0636,477.0714,1179.1974,478.2606,1176.912,478.3638,1173.9747,476.8766,1171.2032,475.9049,1169.0995,473.9322,1167.9961,471.6738,1167.3417,469.8756,1166.7006,467.5267,1165.66,465.5055,1166.4596,463.532,1167.1602,461.3702,1169.7893,459.6605,1171.639,457.4421,1173.9284,456.7055,1176.6501,456.0711,1180.1404,456.448,1182.0521,457.3495,1184.2747,457.7582,1186.9772,460.527,1187.9193,463.45,1188.3286,465.4444,1187.865,468.7309" style="stroke:#181818;stroke-width:1.0;"/><path d="M1180.0156,462.666 Q1180.1719,462.4473 1180.3594,462.3379 Q1180.5469,462.2285 1180.7656,462.2285 Q1181.1406,462.2285 1181.375,462.4941 Q1181.6094,462.7441 1181.6094,463.3535 L1181.6094,464.8066 Q1181.6094,465.416 1181.375,465.6816 Q1181.1406,465.9473 1180.7656,465.9473 Q1180.4219,465.9473 1180.2188,465.7441 Q1180.0156,465.5566 1179.9063,465.041 Q1179.8594,464.6816 1179.6719,464.4941 Q1179.3438,464.1191 1178.7344,463.9004 Q1178.125,463.6816 1177.5,463.6816 Q1176.7344,463.6816 1176.0938,464.0098 Q1175.4688,464.3379 1174.9688,465.0879 Q1174.4844,465.8379 1174.4844,466.8691 L1174.4844,467.9629 Q1174.4844,469.1973 1175.375,470.0254 Q1176.2656,470.8379 1177.8594,470.8379 Q1178.7969,470.8379 1179.4531,470.5879 Q1179.8438,470.4316 1180.2656,469.9941 Q1180.5313,469.7285 1180.6719,469.6504 Q1180.8281,469.5723 1181.0313,469.5723 Q1181.3594,469.5723 1181.6094,469.8379 Q1181.875,470.0879 1181.875,470.4316 Q1181.875,470.7754 1181.5313,471.1816 Q1181.0313,471.7598 1180.2344,472.0879 Q1179.1563,472.541 1177.8594,472.541 Q1176.3438,472.541 1175.1406,471.916 Q1174.1563,471.416 1173.4688,470.3535 Q1172.7813,469.2754 1172.7813,467.9941 L1172.7813,466.8379 Q1172.7813,465.5098 1173.3906,464.3691 Q1174.0156,463.2129 1175.1094,462.6035 Q1176.2031,461.9785 1177.4375,461.9785 Q1178.1719,461.9785 1178.8125,462.1504 Q1179.4688,462.3066 1180.0156,462.666 Z " fill="#000000"/><text fill="#000000" font-family="FG Virgil" font-size="12" font-style="italic" lengthAdjust="spacing" textLength="53" x="1235.75" y="462.4492">&#171;service&#187;</text><text fill="#000000" font-family="FG Virgil" font-size="14" lengthAdjust="spacing" textLength="129" x="1197.75" y="480.5684">AuthorizationService</text><path d="M733.5,489.082 L733.5,489.3623 L743.4515,488.5296 L753.4029,489.3397 L763.3544,489.6149 L773.3058,488.1308 L783.2573,488.9784 L793.2087,488.5134 L803.1602,488.5707 L813.1117,488.9912 L823.0631,488.1602 L833.0146,489.8202 L842.966,488.2417 L852.9175,488.8183 L862.8689,489.658 L872.8204,488.9677 L882.7718,489.173 L892.7233,489.0394 L902.6748,489.3201 L912.6262,489.4009 L922.5777,489.863 L932.5291,489.9768 L942.4806,489.9877 L952.432,489.4215 L962.3835,489.7001 L972.335,490.0183 L982.2864,488.1205 L992.2379,489.9867 L1002.1893,488.6867 L1012.1408,489.7938 L1022.0922,488.422 L1032.0437,488.9907 L1041.9951,490.0708 L1051.9466,489.0171 L1061.8981,489.2224 L1071.8495,489.5335 L1081.801,489.637 L1091.7524,489.0768 L1101.7039,489.465 L1111.6553,488.3188 L1121.6068,489.4612 L1131.5583,489.813 L1141.5097,489.6747 L1151.4612,489.8994 L1161.4126,488.4379 L1171.3641,488.2125 L1181.3155,488.2535 L1191.267,489.0035 L1201.2184,488.82 L1211.1699,489.9906 L1221.1214,488.8491 L1231.0728,488.6246 L1241.0243,489.3864 L1250.9757,488.1929 L1260.9272,488.3899 L1270.8786,489.9473 L1280.8301,489.6629 L1290.7816,490.0614 L1300.733,488.653 L1310.6845,489.5076 L1320.6359,489.8693 L1330.5874,488.4522 L1340.5388,488.9542 L1350.4903,489.25 L1360.4417,489.951 L1370.3932,489.0764 L1380.3447,489.6988 L1390.2961,488.3437 L1400.2476,488.179 L1410.199,489.7535 L1420.1505,488.1261 L1430.1019,489.7606 L1440.0534,489.3575 L1450.0049,488.7248 L1459.9563,488.6103 L1469.9078,489.6937 L1479.8592,488.6829 L1489.8107,489.8712 L1499.7621,488.345 L1509.7136,489.9053 L1519.665,489.7278 L1529.6165,489.4087 L1539.568,489.145 L1549.5194,490.0508 L1559.4709,489.9001 L1569.4223,489.3077 L1579.3738,489.4396 L1589.3252,488.9083 L1599.2767,490.0373 L1609.2282,489.2885 L1619.1796,489.3121 L1629.1311,488.2709 L1639.0825,488.5417 L1649.034,489.7897 L1658.9854,489.655 L1668.9369,489.0248 L1678.8883,488.6525 L1688.8398,488.7901 L1698.7913,488.1671 L1708.7427,489.635 L1718.6942,490.0681 L1728.6456,489.7839 L1738.5971,490.0086 L1748.5485,488.8997 L1758.5,489.082 " fill="#F1F1F1" style="stroke:#181818;stroke-width:0.5;"/><text fill="#000000" font-family="FG Virgil" font-size="14" lengthAdjust="spacing" textLength="229" x="738.5" y="508.1895">class JobOpeningService &#171;service&#187;{</text><path d="M733.5,515.7031 L733.5,515.9834 L743.4515,515.1507 L753.4029,515.9608 L763.3544,516.236 L773.3058,514.7519 L783.2573,515.5995 L793.2087,515.1345 L803.1602,515.1918 L813.1117,515.6122 L823.0631,514.7813 L833.0146,516.4413 L842.966,514.8628 L852.9175,515.4394 L862.8689,516.2791 L872.8204,515.5888 L882.7718,515.7941 L892.7233,515.6605 L902.6748,515.9412 L912.6262,516.022 L922.5777,516.484 L932.5291,516.5979 L942.4806,516.6088 L952.432,516.0426 L962.3835,516.3212 L972.335,516.6394 L982.2864,514.7415 L992.2379,516.6078 L1002.1893,515.3078 L1012.1408,516.4149 L1022.0922,515.0431 L1032.0437,515.6118 L1041.9951,516.6919 L1051.9466,515.6381 L1061.8981,515.8435 L1071.8495,516.1546 L1081.801,516.2581 L1091.7524,515.6979 L1101.7039,516.0861 L1111.6553,514.9399 L1121.6068,516.0823 L1131.5583,516.4341 L1141.5097,516.2958 L1151.4612,516.5205 L1161.4126,515.059 L1171.3641,514.8335 L1181.3155,514.8746 L1191.267,515.6246 L1201.2184,515.4411 L1211.1699,516.6117 L1221.1214,515.4702 L1231.0728,515.2457 L1241.0243,516.0075 L1250.9757,514.814 L1260.9272,515.011 L1270.8786,516.5684 L1280.8301,516.284 L1290.7816,516.6824 L1300.733,515.2741 L1310.6845,516.1287 L1320.6359,516.4904 L1330.5874,515.0733 L1340.5388,515.5753 L1350.4903,515.8711 L1360.4417,516.5721 L1370.3932,515.6975 L1380.3447,516.3199 L1390.2961,514.9647 L1400.2476,514.8001 L1410.199,516.3746 L1420.1505,514.7472 L1430.1019,516.3817 L1440.0534,515.9786 L1450.0049,515.3459 L1459.9563,515.2314 L1469.9078,516.3148 L1479.8592,515.304 L1489.8107,516.4923 L1499.7621,514.9661 L1509.7136,516.5264 L1519.665,516.3489 L1529.6165,516.0297 L1539.568,515.7661 L1549.5194,516.6719 L1559.4709,516.5212 L1569.4223,515.9288 L1579.3738,516.0607 L1589.3252,515.5294 L1599.2767,516.6584 L1609.2282,515.9096 L1619.1796,515.9332 L1629.1311,514.892 L1639.0825,515.1628 L1649.034,516.4108 L1658.9854,516.2761 L1668.9369,515.6459 L1678.8883,515.2736 L1688.8398,515.4112 L1698.7913,514.7882 L1708.7427,516.2561 L1718.6942,516.6892 L1728.6456,516.405 L1738.5971,516.6297 L1748.5485,515.5208 L1758.5,515.7031 " fill="#F1F1F1" style="stroke:#181818;stroke-width:0.5;"/><polygon fill="#84BE84" points="746.5166,531.2434,746.0768,531.8443,745.5567,532.7243,744.8128,533.3174,744.0311,533.6417,743.4078,533.6699,742.6067,533.2643,741.8509,532.9993,741.2771,532.4613,740.9762,531.8453,740.7977,531.3549,740.6229,530.7143,740.3391,530.1631,740.5572,529.6249,740.7482,529.0353,741.4653,528.569,741.9697,527.964,742.5941,527.7631,743.3364,527.59,744.2883,527.6928,744.8097,527.9387,745.4158,528.0502,746.1529,528.8053,746.4098,529.6025,746.5214,530.1464,746.395,531.0427" style="stroke:#038048;stroke-width:1.0;"/><text fill="#000000" font-family="FG Virgil" font-size="14" lengthAdjust="spacing" textLength="343" x="752.5" y="534.8105">ensureAuthenticatedUserHasAnyOf(roles: Role[]): void</text><polygon fill="#84BE84" points="746.5166,549.8645,746.0768,550.4653,745.5567,551.3454,744.8128,551.9385,744.0311,552.2628,743.4078,552.291,742.6067,551.8854,741.8509,551.6204,741.2771,551.0824,740.9762,550.4664,740.7977,549.976,740.6229,549.3354,740.3391,548.7842,740.5572,548.2459,740.7482,547.6564,741.4653,547.1901,741.9697,546.5851,742.5941,546.3842,743.3364,546.2111,744.2883,546.3139,744.8097,546.5598,745.4158,546.6713,746.1529,547.4264,746.4098,548.2236,746.5214,548.7675,746.395,549.6638" style="stroke:#038048;stroke-width:1.0;"/><text fill="#000000" font-family="FG Virgil" font-size="14" lengthAdjust="spacing" textLength="1001" x="752.5" y="553.4316">registerApplication(candidate: Candidate, jobOpening: JobOpening, applicationStatus: ApplicationStatus, applicationDate: Date, dirPath: String): JobApplication</text></g><!--class JobOpening--><g id="elem_JobOpening"><polygon fill="#F1F1F1" points="9.5,723.5,9.5,723.7102,19.45,723.0857,29.4,723.6933,39.35,723.8997,49.3,722.7866,59.25,723.4223,69.2,723.0735,79.15,723.1165,89.1,723.4318,99.05,722.8086,109,724.0536,118.95,722.8697,128.9,723.3022,138.85,723.9319,148.8,723.4142,158.75,723.5682,168.7,723.4681,178.65,723.6785,188.6,723.7391,198.55,724.0857,208.5,724.1711,218.45,724.1793,228.4,723.7546,238.35,723.9636,248.3,724.2022,258.25,722.7788,268.2,724.1785,278.15,723.2035,288.1,724.0338,298.05,723.005,308,723.4315,317.95,724.2416,327.9,723.4513,337.85,723.6053,347.8,723.8386,357.75,723.9162,367.7,723.4961,377.65,723.7872,387.6,722.9276,397.55,723.7844,407.5,724.0482,417.45,723.9445,427.4,724.113,437.35,723.0169,447.3,722.8478,457.25,722.8786,467.2,723.4411,477.15,723.3035,487.1,724.1814,497.05,723.3253,507,723.1569,516.95,723.7283,526.9,722.8332,536.85,722.9809,546.8,724.149,556.75,723.9357,566.7,724.2345,576.65,723.1782,586.6,723.8192,596.55,724.0904,606.5,723.0276,616.45,723.4041,626.4,723.626,636.35,724.1518,646.3,723.4958,656.25,723.9626,666.2,722.9462,676.15,722.8227,686.1,724.0036,696.05,722.7831,706,724.009,715.95,723.7066,725.9,723.2321,735.85,723.1462,745.8,723.9588,755.75,723.2007,765.7,724.0919,775.65,722.9473,785.6,724.1174,795.55,723.9843,805.5,723.745,815.45,723.5472,825.4,724.2266,835.35,724.1136,845.3,723.6693,855.25,723.7682,865.2,723.3697,875.15,724.2165,885.1,723.6549,895.05,723.6726,905,722.8916,914.95,723.0948,924.9,724.0307,934.85,723.9298,944.8,723.4571,954.75,723.1778,964.7,723.2811,974.65,722.8138,984.6,723.9147,994.55,724.2396,1004.5,723.5,1004.5671,723.6621,1004.9422,723.8605,1005.1897,723.7508,1005.5718,723.9662,1005.8648,723.9664,1006.2678,724.2322,1006.3552,724.2685,1006.4902,724.6173,1006.7308,725.0098,1006.6364,725.2636,1006.8122,725.6293,1007,726,1007.4435,726,1007.5673,736.2702,1006.4875,746.5404,1006.8061,756.8105,1007.1493,767.0807,1006.3892,777.3509,1007,787.6211,1007.1088,787.6662,1006.933,788.0076,1006.6761,788.3153,1006.6045,788.6999,1006.6386,789.1283,1006.2678,789.3889,1006.2279,789.2925,1005.9544,789.6323,1005.5971,789.7697,1005.2219,789.8639,1004.8715,790.018,1004.5,790.1211,1004.5,790.2346,994.55,789.4969,984.6,789.7203,974.65,789.6596,964.7,790.1849,954.75,790.2092,944.8,790.2828,934.85,789.8301,924.9,790.0536,914.95,790.0009,905,790.6979,895.05,790.5477,885.1,789.6356,875.15,790.0482,865.2,789.5439,855.25,790.4095,845.3,790.7296,835.35,790.6657,825.4,789.6855,815.45,790.5851,805.5,789.3783,795.55,790.3212,785.6,789.8218,775.65,790.2178,765.7,790.3614,755.75,790.5932,745.8,789.4012,735.85,790.5966,725.9,790.2993,715.95,790.4764,706,790.8689,696.05,790.1266,686.1,790.2964,676.15,790.3345,666.2,790.3183,656.25,790.1203,646.3,790.8318,636.35,789.5114,626.4,790.6864,616.45,789.4971,606.5,789.5808,596.55,790.1611,586.6,790.1494,576.65,789.6283,566.7,790.5348,556.75,790.2299,546.8,790.8478,536.85,790.7882,526.9,789.6728,516.95,789.7232,507,789.9919,497.05,790.4766,487.1,790.5241,477.15,790.4222,467.2,789.7791,457.25,790.7574,447.3,790.7549,437.35,790.0738,427.4,789.882,417.45,789.7197,407.5,789.9065,397.55,790.2585,387.6,790.0527,377.65,789.7033,367.7,790.6085,357.75,789.6622,347.8,790.6235,337.85,790.5483,327.9,790.493,317.95,790.8136,308,789.8752,298.05,789.8205,288.1,790.64,278.15,789.5242,268.2,789.8871,258.25,790.2366,248.3,790.1898,238.35,789.7626,228.4,790.0781,218.45,790.8657,208.5,790.7696,198.55,789.5248,188.6,790.1996,178.65,789.6072,168.7,790.0948,158.75,790.4141,148.8,790.541,138.85,789.4564,128.9,790.5216,118.95,790.1295,109,789.5657,99.05,789.65,89.1,790.4477,79.15,790.3709,69.2,790.1046,59.25,789.449,49.3,790.7792,39.35,789.8093,29.4,789.593,19.45,790.0538,9.5,790.1211,9.5752,790.3027,9.225,790.1642,8.7974,789.839,8.4201,789.6352,8.1074,789.5876,7.7322,789.3889,7.7896,789.4126,7.4294,788.9705,7.5668,788.7346,7.465,788.3995,7.08,787.9471,7,787.6211,6.5708,787.6211,7.6746,777.3509,7.021,767.0807,6.9998,756.8105,7.299,746.5404,6.3543,736.2702,7,726,7.1632,726.0676,7.1417,725.6445,7.4989,725.3782,7.3729,724.9118,7.7117,724.638,7.7322,724.2322,7.6756,724.0955,8.117,724.1612,8.4877,724.0561,8.7511,723.6921,9.1928,723.7582,9.5,723.5" style="stroke:#181818;stroke-width:0.5;"/><polygon fill="#ADD1B2" points="475.8108,742.1756,474.1984,744.3788,472.2912,747.6057,469.5636,749.7804,466.6974,750.9696,464.412,751.0728,461.4747,749.5855,458.7032,748.6139,456.5995,746.6412,455.4961,744.3828,454.8417,742.5845,454.2006,740.2357,453.16,738.2145,453.9596,736.241,454.6602,734.0792,457.2893,732.3695,459.139,730.1511,461.4284,729.4144,464.1501,728.7801,467.6404,729.157,469.5521,730.0585,471.7747,730.4672,474.4772,733.236,475.4193,736.159,475.8286,738.1534,475.365,741.4399" style="stroke:#181818;stroke-width:1.0;"/><path d="M467.5156,735.375 Q467.6719,735.1563 467.8594,735.0469 Q468.0469,734.9375 468.2656,734.9375 Q468.6406,734.9375 468.875,735.2031 Q469.1094,735.4531 469.1094,736.0625 L469.1094,737.5156 Q469.1094,738.125 468.875,738.3906 Q468.6406,738.6563 468.2656,738.6563 Q467.9219,738.6563 467.7188,738.4531 Q467.5156,738.2656 467.4063,737.75 Q467.3594,737.3906 467.1719,737.2031 Q466.8438,736.8281 466.2344,736.6094 Q465.625,736.3906 465,736.3906 Q464.2344,736.3906 463.5938,736.7188 Q462.9688,737.0469 462.4688,737.7969 Q461.9844,738.5469 461.9844,739.5781 L461.9844,740.6719 Q461.9844,741.9063 462.875,742.7344 Q463.7656,743.5469 465.3594,743.5469 Q466.2969,743.5469 466.9531,743.2969 Q467.3438,743.1406 467.7656,742.7031 Q468.0313,742.4375 468.1719,742.3594 Q468.3281,742.2813 468.5313,742.2813 Q468.8594,742.2813 469.1094,742.5469 Q469.375,742.7969 469.375,743.1406 Q469.375,743.4844 469.0313,743.8906 Q468.5313,744.4688 467.7344,744.7969 Q466.6563,745.25 465.3594,745.25 Q463.8438,745.25 462.6406,744.625 Q461.6563,744.125 460.9688,743.0625 Q460.2813,741.9844 460.2813,740.7031 L460.2813,739.5469 Q460.2813,738.2188 460.8906,737.0781 Q461.5156,735.9219 462.6094,735.3125 Q463.7031,734.6875 464.9375,734.6875 Q465.6719,734.6875 466.3125,734.8594 Q466.9688,735.0156 467.5156,735.375 Z " fill="#000000"/><text fill="#000000" font-family="FG Virgil" font-size="14" lengthAdjust="spacing" textLength="76" x="485.25" y="745.2969">JobOpening</text><path d="M8,755.5 L8,755.7802 L17.98,754.9476 L27.96,755.7577 L37.94,756.0329 L47.92,754.5488 L57.9,755.3964 L67.88,754.9313 L77.86,754.9887 L87.84,755.4091 L97.82,754.5782 L107.8,756.2382 L117.78,754.6596 L127.76,755.2363 L137.74,756.0759 L147.72,755.3856 L157.7,755.591 L167.68,755.4574 L177.66,755.738 L187.64,755.8188 L197.62,756.2809 L207.6,756.3947 L217.58,756.4057 L227.56,755.8395 L237.54,756.1181 L247.52,756.4363 L257.5,754.5384 L267.48,756.4047 L277.46,755.1047 L287.44,756.2117 L297.42,754.84 L307.4,755.4087 L317.38,756.4888 L327.36,755.435 L337.34,755.6404 L347.32,755.9515 L357.3,756.055 L367.28,755.4948 L377.26,755.883 L387.24,754.7368 L397.22,755.8792 L407.2,756.2309 L417.18,756.0927 L427.16,756.3174 L437.14,754.8559 L447.12,754.6304 L457.1,754.6715 L467.08,755.4215 L477.06,755.238 L487.04,756.4085 L497.02,755.2671 L507,755.0426 L516.98,755.8044 L526.96,754.6109 L536.94,754.8078 L546.92,756.3653 L556.9,756.0809 L566.88,756.4793 L576.86,755.0709 L586.84,755.9256 L596.82,756.2872 L606.8,754.8701 L616.78,755.3722 L626.76,755.668 L636.74,756.369 L646.72,755.4944 L656.7,756.1168 L666.68,754.7616 L676.66,754.597 L686.64,756.1715 L696.62,754.5441 L706.6,756.1786 L716.58,755.7755 L726.56,755.1428 L736.54,755.0283 L746.52,756.1117 L756.5,755.1009 L766.48,756.2891 L776.46,754.763 L786.44,756.3232 L796.42,756.1457 L806.4,755.8266 L816.38,755.563 L826.36,756.4688 L836.34,756.3181 L846.32,755.7257 L856.3,755.8576 L866.28,755.3263 L876.26,756.4553 L886.24,755.7065 L896.22,755.7301 L906.2,754.6889 L916.18,754.9597 L926.16,756.2077 L936.14,756.073 L946.12,755.4428 L956.1,755.0704 L966.08,755.2081 L976.06,754.5851 L986.04,756.053 L996.02,756.4861 L1006,755.5 " fill="#F1F1F1" style="stroke:#181818;stroke-width:0.5;"/><path d="M8,763.5 L8,763.7802 L17.98,762.9476 L27.96,763.7577 L37.94,764.0329 L47.92,762.5488 L57.9,763.3964 L67.88,762.9313 L77.86,762.9887 L87.84,763.4091 L97.82,762.5782 L107.8,764.2382 L117.78,762.6596 L127.76,763.2363 L137.74,764.0759 L147.72,763.3856 L157.7,763.591 L167.68,763.4574 L177.66,763.738 L187.64,763.8188 L197.62,764.2809 L207.6,764.3947 L217.58,764.4057 L227.56,763.8395 L237.54,764.1181 L247.52,764.4363 L257.5,762.5384 L267.48,764.4047 L277.46,763.1047 L287.44,764.2117 L297.42,762.84 L307.4,763.4087 L317.38,764.4888 L327.36,763.435 L337.34,763.6404 L347.32,763.9515 L357.3,764.055 L367.28,763.4948 L377.26,763.883 L387.24,762.7368 L397.22,763.8792 L407.2,764.2309 L417.18,764.0927 L427.16,764.3174 L437.14,762.8559 L447.12,762.6304 L457.1,762.6715 L467.08,763.4215 L477.06,763.238 L487.04,764.4085 L497.02,763.2671 L507,763.0426 L516.98,763.8044 L526.96,762.6109 L536.94,762.8078 L546.92,764.3653 L556.9,764.0809 L566.88,764.4793 L576.86,763.0709 L586.84,763.9256 L596.82,764.2872 L606.8,762.8701 L616.78,763.3722 L626.76,763.668 L636.74,764.369 L646.72,763.4944 L656.7,764.1168 L666.68,762.7616 L676.66,762.597 L686.64,764.1715 L696.62,762.5441 L706.6,764.1786 L716.58,763.7755 L726.56,763.1428 L736.54,763.0283 L746.52,764.1117 L756.5,763.1009 L766.48,764.2891 L776.46,762.763 L786.44,764.3232 L796.42,764.1457 L806.4,763.8266 L816.38,763.563 L826.36,764.4688 L836.34,764.3181 L846.32,763.7257 L856.3,763.8576 L866.28,763.3263 L876.26,764.4553 L886.24,763.7065 L896.22,763.7301 L906.2,762.6889 L916.18,762.9597 L926.16,764.2077 L936.14,764.073 L946.12,763.4428 L956.1,763.0704 L966.08,763.2081 L976.06,762.5851 L986.04,764.053 L996.02,764.4861 L1006,763.5 " fill="#F1F1F1" style="stroke:#181818;stroke-width:0.5;"/><polygon fill="#84BE84" points="21.0166,779.0403,20.5768,779.6411,20.0567,780.5212,19.3128,781.1143,18.5311,781.4386,17.9078,781.4668,17.1067,781.0611,16.3509,780.7962,15.7771,780.2581,15.4762,779.6422,15.2977,779.1518,15.1229,778.5112,14.8391,777.9599,15.0572,777.4217,15.2482,776.8322,15.9653,776.3659,16.4697,775.7608,17.0941,775.5599,17.8364,775.3869,18.7883,775.4897,19.3097,775.7356,19.9158,775.8471,20.6529,776.6022,20.9098,777.3994,21.0214,777.9433,20.895,778.8396" style="stroke:#038048;stroke-width:1.0;"/><text fill="#000000" font-family="FG Virgil" font-size="14" lengthAdjust="spacing" textLength="974" x="27" y="782.6074">JobOpening( jobTitle, jobReference, description, numberOfVacancies,  contractType, workRegime, jobOpeningCreationDate, jobOpeningStatus, customer)</text></g><!--class PersistenceContext--><g id="elem_PersistenceContext"><polygon fill="#F1F1F1" points="1797.5,469,1797.5,469.2102,1807.4565,468.5857,1817.413,469.1933,1827.3696,469.3997,1837.3261,468.2866,1847.2826,468.9223,1857.2391,468.5735,1867.1957,468.6165,1877.1522,468.9318,1887.1087,468.3086,1897.0652,469.5536,1907.0217,468.3697,1916.9783,468.8022,1926.9348,469.4319,1936.8913,468.9142,1946.8478,469.0682,1956.8043,468.9681,1966.7609,469.1785,1976.7174,469.2391,1986.6739,469.5857,1996.6304,469.6711,2006.587,469.6793,2016.5435,469.2546,2026.5,469,2026.5591,469.1428,2026.9431,469.3627,2027.1151,469.0708,2027.6472,469.6483,2027.8764,469.4945,2028.2678,469.7322,2028.4322,469.8003,2028.2618,470.0226,2028.5396,470.4306,2028.9355,470.8875,2028.8385,471.1402,2029,471.5,2029.1053,471.5,2029.3386,481.7702,2029.4162,492.0404,2028.9961,502.3105,2029.2872,512.5807,2028.4276,522.8509,2029,533.1211,2029.0876,533.1574,2029.0224,533.5446,2028.844,533.8849,2028.7494,534.26,2028.2654,534.4737,2028.2678,534.8889,2028.1846,534.688,2027.8349,534.8439,2027.5531,535.1636,2027.182,535.2677,2026.9405,535.6845,2026.5,535.6211,2026.5,535.4464,2016.5435,535.278,2006.587,535.8494,1996.6304,534.9543,1986.6739,535.102,1976.7174,536.27,1966.7609,536.0568,1956.8043,536.3556,1946.8478,535.2993,1936.8913,535.9403,1926.9348,536.2115,1916.9783,535.1487,1907.0217,535.5252,1897.0652,535.7471,1887.1087,536.2729,1877.1522,535.6169,1867.1957,536.0837,1857.2391,535.0673,1847.2826,534.9438,1837.3261,536.1247,1827.3696,534.9042,1817.413,536.1301,1807.4565,535.8277,1797.5,535.6211,1797.4658,535.5386,1797.1013,535.3657,1796.8514,535.4695,1796.4012,535.0896,1796.1613,535.2176,1795.7322,534.8889,1795.562,534.8184,1795.7759,534.6141,1795.5885,534.2435,1795.3683,533.8594,1795.161,533.4807,1795,533.1211,1795.7266,533.1211,1795.6136,522.8509,1795.1693,512.5807,1795.2682,502.3105,1794.8697,492.0404,1795.7165,481.7702,1795,471.5,1795.0477,471.5198,1795.1996,471.1685,1795.1055,470.7153,1795.3145,470.3876,1795.7492,470.1535,1795.7322,469.7322,1795.7871,469.8646,1796.0803,469.5726,1796.3982,469.3401,1796.765,469.2255,1797.0589,468.9351,1797.5,469" style="stroke:#181818;stroke-width:0.5;"/><polygon fill="#ADD1B2" points="1857.8108,487.6756,1856.1984,489.8788,1854.2912,493.1057,1851.5636,495.2804,1848.6974,496.4696,1846.412,496.5728,1843.4747,495.0855,1840.7032,494.1139,1838.5995,492.1412,1837.4961,489.8828,1836.8417,488.0845,1836.2006,485.7357,1835.16,483.7145,1835.9596,481.741,1836.6602,479.5792,1839.2893,477.8695,1841.139,475.6511,1843.4284,474.9144,1846.1501,474.2801,1849.6404,474.657,1851.5521,475.5585,1853.7747,475.9672,1856.4772,478.736,1857.4193,481.659,1857.8286,483.6534,1857.365,486.9399" style="stroke:#181818;stroke-width:1.0;"/><path d="M1849.5156,480.875 Q1849.6719,480.6563 1849.8594,480.5469 Q1850.0469,480.4375 1850.2656,480.4375 Q1850.6406,480.4375 1850.875,480.7031 Q1851.1094,480.9531 1851.1094,481.5625 L1851.1094,483.0156 Q1851.1094,483.625 1850.875,483.8906 Q1850.6406,484.1563 1850.2656,484.1563 Q1849.9219,484.1563 1849.7188,483.9531 Q1849.5156,483.7656 1849.4063,483.25 Q1849.3594,482.8906 1849.1719,482.7031 Q1848.8438,482.3281 1848.2344,482.1094 Q1847.625,481.8906 1847,481.8906 Q1846.2344,481.8906 1845.5938,482.2188 Q1844.9688,482.5469 1844.4688,483.2969 Q1843.9844,484.0469 1843.9844,485.0781 L1843.9844,486.1719 Q1843.9844,487.4063 1844.875,488.2344 Q1845.7656,489.0469 1847.3594,489.0469 Q1848.2969,489.0469 1848.9531,488.7969 Q1849.3438,488.6406 1849.7656,488.2031 Q1850.0313,487.9375 1850.1719,487.8594 Q1850.3281,487.7813 1850.5313,487.7813 Q1850.8594,487.7813 1851.1094,488.0469 Q1851.375,488.2969 1851.375,488.6406 Q1851.375,488.9844 1851.0313,489.3906 Q1850.5313,489.9688 1849.7344,490.2969 Q1848.6563,490.75 1847.3594,490.75 Q1845.8438,490.75 1844.6406,490.125 Q1843.6563,489.625 1842.9688,488.5625 Q1842.2813,487.4844 1842.2813,486.2031 L1842.2813,485.0469 Q1842.2813,483.7188 1842.8906,482.5781 Q1843.5156,481.4219 1844.6094,480.8125 Q1845.7031,480.1875 1846.9375,480.1875 Q1847.6719,480.1875 1848.3125,480.3594 Q1848.9688,480.5156 1849.5156,480.875 Z " fill="#000000"/><text fill="#000000" font-family="FG Virgil" font-size="14" lengthAdjust="spacing" textLength="122" x="1867.25" y="490.7969">PersistenceContext</text><path d="M1796,501 L1796,501.2802 L1806.087,500.4476 L1816.1739,501.2577 L1826.2609,501.5329 L1836.3478,500.0488 L1846.4348,500.8964 L1856.5217,500.4313 L1866.6087,500.4887 L1876.6957,500.9091 L1886.7826,500.0782 L1896.8696,501.7382 L1906.9565,500.1596 L1917.0435,500.7363 L1927.1304,501.5759 L1937.2174,500.8856 L1947.3043,501.091 L1957.3913,500.9574 L1967.4783,501.238 L1977.5652,501.3188 L1987.6522,501.7809 L1997.7391,501.8947 L2007.8261,501.9057 L2017.913,501.3395 L2028,501 " fill="#F1F1F1" style="stroke:#181818;stroke-width:0.5;"/><path d="M1796,509 L1796,509.2802 L1806.087,508.4476 L1816.1739,509.2577 L1826.2609,509.5329 L1836.3478,508.0488 L1846.4348,508.8964 L1856.5217,508.4313 L1866.6087,508.4887 L1876.6957,508.9091 L1886.7826,508.0782 L1896.8696,509.7382 L1906.9565,508.1596 L1917.0435,508.7363 L1927.1304,509.5759 L1937.2174,508.8856 L1947.3043,509.091 L1957.3913,508.9574 L1967.4783,509.238 L1977.5652,509.3188 L1987.6522,509.7809 L1997.7391,509.8947 L2007.8261,509.9057 L2017.913,509.3395 L2028,509 " fill="#F1F1F1" style="stroke:#181818;stroke-width:0.5;"/><polygon fill="#84BE84" points="1809.0166,524.5403,1808.5768,525.1411,1808.0567,526.0212,1807.3128,526.6143,1806.5311,526.9386,1805.9078,526.9668,1805.1067,526.5611,1804.3509,526.2962,1803.7771,525.7581,1803.4762,525.1422,1803.2977,524.6518,1803.1229,524.0112,1802.8391,523.4599,1803.0572,522.9217,1803.2482,522.3322,1803.9653,521.8659,1804.4697,521.2608,1805.0941,521.0599,1805.8364,520.8869,1806.7883,520.9897,1807.3097,521.2356,1807.9158,521.3471,1808.6529,522.1022,1808.9098,522.8994,1809.0214,523.4433,1808.895,524.3396" style="stroke:#038048;stroke-width:1.0;"/><text fill="#000000" font-family="FG Virgil" font-size="14" lengthAdjust="spacing" textLength="208" x="1815" y="528.1074">repositories(): RepositoryFactory</text></g><!--class RepositoryFactory--><g id="elem_RepositoryFactory"><polygon fill="#F1F1F1" points="1775.5,705,1775.5,705.2102,1785.6111,704.5857,1795.7222,705.1933,1805.8333,705.3997,1815.9444,704.2866,1826.0556,704.9223,1836.1667,704.5735,1846.2778,704.6165,1856.3889,704.9318,1866.5,704.3086,1876.6111,705.5536,1886.7222,704.3697,1896.8333,704.8022,1906.9444,705.4319,1917.0556,704.9142,1927.1667,705.0682,1937.2778,704.9681,1947.3889,705.1785,1957.5,705.2391,1967.6111,705.5857,1977.7222,705.6711,1987.8333,705.6793,1997.9444,705.2546,2008.0556,705.4636,2018.1667,705.7022,2028.2778,704.2788,2038.3889,705.6785,2048.5,705,2048.4622,704.9087,2048.9216,705.3108,2049.144,705.1404,2049.5519,705.4182,2050.0088,705.8142,2050.2678,705.7322,2050.2528,705.726,2050.4466,706.0992,2050.6649,706.4825,2050.8353,706.846,2050.8524,707.1459,2051,707.5,2051.2872,707.5,2050.4276,717.3863,2051.2844,727.2727,2051.5482,737.159,2051.4445,747.0453,2051.613,756.9316,2050.5169,766.818,2050.3478,776.7043,2050.3786,786.5906,2050.9411,796.477,2051,806.3633,2050.9395,806.3382,2051.0634,806.8038,2050.6533,807.0481,2050.455,807.3802,2050.4845,807.8066,2050.2678,808.131,2050.1827,807.9257,2049.848,808.1176,2049.6434,808.6238,2049.2627,808.7046,2048.9472,808.943,2048.5,808.8633,2048.5,808.5415,2038.3889,809.1825,2028.2778,809.4537,2018.1667,808.3909,2008.0556,808.7674,1997.9444,808.9893,1987.8333,809.515,1977.7222,808.8591,1967.6111,809.3258,1957.5,808.3095,1947.3889,808.186,1937.2778,809.3669,1927.1667,808.1463,1917.0556,809.3722,1906.9444,809.0699,1896.8333,808.5954,1886.7222,808.5095,1876.6111,809.322,1866.5,808.5639,1856.3889,809.4551,1846.2778,808.3105,1836.1667,809.4807,1826.0556,809.3476,1815.9444,809.1082,1805.8333,808.9105,1795.7222,809.5899,1785.6111,809.4769,1775.5,808.8633,1775.5216,808.9154,1775.1807,808.7994,1774.7763,808.5303,1774.5307,808.6446,1774.1055,808.3252,1773.7322,808.131,1773.7854,808.1531,1773.3984,807.6999,1773.3145,807.3723,1773.4563,807.1381,1773.2788,806.7717,1773,806.3633,1772.9571,806.3633,1772.6778,796.477,1772.7811,786.5906,1772.3138,776.7043,1773.4147,766.818,1773.7396,756.9316,1773.5264,747.0453,1773.6949,737.159,1772.8633,727.2727,1773.0872,717.3863,1773,707.5,1772.8806,707.4506,1773.2339,707.1827,1773.3689,706.8244,1773.6095,706.5098,1773.5151,706.0565,1773.7322,705.7322,1773.7151,705.6908,1774.1424,705.7224,1774.5117,705.6141,1774.7275,705.1351,1775.1217,705.0867,1775.5,705" style="stroke:#181818;stroke-width:0.5;"/><polygon fill="#ADD1B2" points="1860.8108,723.6756,1859.1984,725.8788,1857.2912,729.1057,1854.5636,731.2804,1851.6974,732.4696,1849.412,732.5728,1846.4747,731.0855,1843.7032,730.1139,1841.5995,728.1412,1840.4961,725.8828,1839.8417,724.0845,1839.2006,721.7357,1838.16,719.7145,1838.9596,717.741,1839.6602,715.5792,1842.2893,713.8695,1844.139,711.6511,1846.4284,710.9144,1849.1501,710.2801,1852.6404,710.657,1854.5521,711.5585,1856.7747,711.9672,1859.4772,714.736,1860.4193,717.659,1860.8286,719.6534,1860.365,722.9399" style="stroke:#181818;stroke-width:1.0;"/><path d="M1852.5156,716.875 Q1852.6719,716.6563 1852.8594,716.5469 Q1853.0469,716.4375 1853.2656,716.4375 Q1853.6406,716.4375 1853.875,716.7031 Q1854.1094,716.9531 1854.1094,717.5625 L1854.1094,719.0156 Q1854.1094,719.625 1853.875,719.8906 Q1853.6406,720.1563 1853.2656,720.1563 Q1852.9219,720.1563 1852.7188,719.9531 Q1852.5156,719.7656 1852.4063,719.25 Q1852.3594,718.8906 1852.1719,718.7031 Q1851.8438,718.3281 1851.2344,718.1094 Q1850.625,717.8906 1850,717.8906 Q1849.2344,717.8906 1848.5938,718.2188 Q1847.9688,718.5469 1847.4688,719.2969 Q1846.9844,720.0469 1846.9844,721.0781 L1846.9844,722.1719 Q1846.9844,723.4063 1847.875,724.2344 Q1848.7656,725.0469 1850.3594,725.0469 Q1851.2969,725.0469 1851.9531,724.7969 Q1852.3438,724.6406 1852.7656,724.2031 Q1853.0313,723.9375 1853.1719,723.8594 Q1853.3281,723.7813 1853.5313,723.7813 Q1853.8594,723.7813 1854.1094,724.0469 Q1854.375,724.2969 1854.375,724.6406 Q1854.375,724.9844 1854.0313,725.3906 Q1853.5313,725.9688 1852.7344,726.2969 Q1851.6563,726.75 1850.3594,726.75 Q1848.8438,726.75 1847.6406,726.125 Q1846.6563,725.625 1845.9688,724.5625 Q1845.2813,723.4844 1845.2813,722.2031 L1845.2813,721.0469 Q1845.2813,719.7188 1845.8906,718.5781 Q1846.5156,717.4219 1847.6094,716.8125 Q1848.7031,716.1875 1849.9375,716.1875 Q1850.6719,716.1875 1851.3125,716.3594 Q1851.9688,716.5156 1852.5156,716.875 Z " fill="#000000"/><text fill="#000000" font-family="FG Virgil" font-size="14" lengthAdjust="spacing" textLength="116" x="1870.25" y="726.7969">RepositoryFactory</text><path d="M1774,737 L1774,737.2802 L1783.8571,736.4476 L1793.7143,737.2577 L1803.5714,737.5329 L1813.4286,736.0488 L1823.2857,736.8964 L1833.1429,736.4313 L1843,736.4887 L1852.8571,736.9091 L1862.7143,736.0782 L1872.5714,737.7382 L1882.4286,736.1596 L1892.2857,736.7363 L1902.1429,737.5759 L1912,736.8856 L1921.8571,737.091 L1931.7143,736.9574 L1941.5714,737.238 L1951.4286,737.3188 L1961.2857,737.7809 L1971.1429,737.8947 L1981,737.9057 L1990.8571,737.3395 L2000.7143,737.6181 L2010.5714,737.9363 L2020.4286,736.0384 L2030.2857,737.9047 L2040.1429,736.6047 L2050,737 " fill="#F1F1F1" style="stroke:#181818;stroke-width:0.5;"/><path d="M1774,745 L1774,745.2802 L1783.8571,744.4476 L1793.7143,745.2577 L1803.5714,745.5329 L1813.4286,744.0488 L1823.2857,744.8964 L1833.1429,744.4313 L1843,744.4887 L1852.8571,744.9091 L1862.7143,744.0782 L1872.5714,745.7382 L1882.4286,744.1596 L1892.2857,744.7363 L1902.1429,745.5759 L1912,744.8856 L1921.8571,745.091 L1931.7143,744.9574 L1941.5714,745.238 L1951.4286,745.3188 L1961.2857,745.7809 L1971.1429,745.8947 L1981,745.9057 L1990.8571,745.3395 L2000.7143,745.6181 L2010.5714,745.9363 L2020.4286,744.0384 L2030.2857,745.9047 L2040.1429,744.6047 L2050,745 " fill="#F1F1F1" style="stroke:#181818;stroke-width:0.5;"/><polygon fill="#84BE84" points="1787.0166,760.5403,1786.5768,761.1411,1786.0567,762.0212,1785.3128,762.6143,1784.5311,762.9386,1783.9078,762.9668,1783.1067,762.5611,1782.3509,762.2962,1781.7771,761.7581,1781.4762,761.1422,1781.2977,760.6518,1781.1229,760.0112,1780.8391,759.4599,1781.0572,758.9217,1781.2482,758.3322,1781.9653,757.8659,1782.4697,757.2608,1783.0941,757.0599,1783.8364,756.8869,1784.7883,756.9897,1785.3097,757.2356,1785.9158,757.3471,1786.6529,758.1022,1786.9098,758.8994,1787.0214,759.4433,1786.895,760.3396" style="stroke:#038048;stroke-width:1.0;"/><text fill="#000000" font-family="FG Virgil" font-size="14" lengthAdjust="spacing" textLength="220" x="1793" y="764.1074">candidates(): CandidateRepository</text><polygon fill="#84BE84" points="1787.0166,779.1614,1786.5768,779.7622,1786.0567,780.6423,1785.3128,781.2354,1784.5311,781.5597,1783.9078,781.5879,1783.1067,781.1822,1782.3509,780.9173,1781.7771,780.3792,1781.4762,779.7633,1781.2977,779.2729,1781.1229,778.6323,1780.8391,778.081,1781.0572,777.5428,1781.2482,776.9532,1781.9653,776.487,1782.4697,775.8819,1783.0941,775.681,1783.8364,775.508,1784.7883,775.6108,1785.3097,775.8567,1785.9158,775.9681,1786.6529,776.7233,1786.9098,777.5204,1787.0214,778.0644,1786.895,778.9607" style="stroke:#038048;stroke-width:1.0;"/><text fill="#000000" font-family="FG Virgil" font-size="14" lengthAdjust="spacing" textLength="252" x="1793" y="782.7285">applications(): JobApplicationRepository</text><polygon fill="#84BE84" points="1787.0166,797.7825,1786.5768,798.3833,1786.0567,799.2634,1785.3128,799.8565,1784.5311,800.1808,1783.9078,800.209,1783.1067,799.8033,1782.3509,799.5383,1781.7771,799.0003,1781.4762,798.3844,1781.2977,797.894,1781.1229,797.2534,1780.8391,796.7021,1781.0572,796.1639,1781.2482,795.5743,1781.9653,795.108,1782.4697,794.503,1783.0941,794.3021,1783.8364,794.1291,1784.7883,794.2319,1785.3097,794.4778,1785.9158,794.5892,1786.6529,795.3444,1786.9098,796.1415,1787.0214,796.6855,1786.895,797.5818" style="stroke:#038048;stroke-width:1.0;"/><text fill="#000000" font-family="FG Virgil" font-size="14" lengthAdjust="spacing" textLength="242" x="1793" y="801.3496">jobOpenings(): JobOpeningRepository</text></g><!--class JobOpeningRepository--><g id="elem_JobOpeningRepository"><polygon fill="#F1F1F1" points="2066.5,460,2066.5,460.2102,2076.5714,459.5857,2086.6429,460.1933,2096.7143,460.3997,2106.7857,459.2866,2116.8571,459.9223,2126.9286,459.5735,2137,459.6165,2147.0714,459.9318,2157.1429,459.3086,2167.2143,460.5536,2177.2857,459.3697,2187.3571,459.8022,2197.4286,460.4319,2207.5,459.9142,2217.5714,460.0682,2227.6429,459.9681,2237.7143,460.1785,2247.7857,460.2391,2257.8571,460.5857,2267.9286,460.6711,2278,460.6793,2288.0714,460.2546,2298.1429,460.4636,2308.2143,460.7022,2318.2857,459.2788,2328.3571,460.6785,2338.4286,459.7035,2348.5,460.5338,2358.5714,459.505,2368.6429,459.9315,2378.7143,460.7416,2388.7857,459.9513,2398.8571,460.1053,2408.9286,460.3386,2419,460.4162,2429.0714,459.9961,2439.1429,460.2872,2449.2143,459.4276,2459.2857,460.2844,2469.3571,460.5482,2479.4286,460.4445,2489.5,460,2489.5782,460.1888,2489.7919,459.9977,2490.1239,460.092,2490.4814,460.248,2490.9067,460.5677,2491.2678,460.7322,2491.2072,460.7072,2491.6241,461.1727,2491.5069,461.4171,2491.6015,461.7491,2491.9239,462.1756,2492,462.5,2491.3332,462.5,2491.4809,472.5303,2492.649,482.5605,2492.4357,492.5908,2492.7345,502.6211,2491.6782,512.6514,2492.3192,522.6816,2492.5904,532.7119,2492,542.7422,2491.8545,542.6819,2491.824,543.0835,2491.7459,543.4654,2491.7614,543.886,2491.4129,544.1559,2491.2678,544.51,2491.3268,544.6524,2490.8436,544.4859,2490.4743,544.5943,2490.2713,545.1044,2489.7621,544.875,2489.5,545.2422,2489.5,545.7511,2479.4286,545.4488,2469.3571,544.9743,2459.2857,544.8884,2449.2143,545.7009,2439.1429,544.9429,2429.0714,545.834,2419,544.6894,2408.9286,545.8596,2398.8571,545.7265,2388.7857,545.4872,2378.7143,545.2894,2368.6429,545.9688,2358.5714,545.8558,2348.5,545.4114,2338.4286,545.5104,2328.3571,545.1119,2318.2857,545.9586,2308.2143,545.3971,2298.1429,545.4148,2288.0714,544.6338,2278,544.837,2267.9286,545.7729,2257.8571,545.6719,2247.7857,545.1993,2237.7143,544.92,2227.6429,545.0233,2217.5714,544.556,2207.5,545.6569,2197.4286,545.9818,2187.3571,545.7686,2177.2857,545.9371,2167.2143,545.1055,2157.1429,545.3294,2147.0714,544.8546,2137,545.5262,2126.9286,545.489,2116.8571,545.7946,2106.7857,545.0125,2096.7143,545.1078,2086.6429,545.6856,2076.5714,545.8095,2066.5,545.2422,2066.4346,545.0843,2066.1217,545.036,2065.8119,544.9953,2065.3614,544.6147,2065.1309,544.7652,2064.7322,544.51,2064.8117,544.5429,2064.5548,544.1435,2064.4831,543.821,2064.5173,543.5422,2064.0501,543.0558,2064,542.7422,2064.315,542.7422,2064.2856,532.7119,2064.1158,522.6816,2064.1409,512.6514,2064.1135,502.6211,2063.3758,492.5908,2063.5992,482.5605,2063.5385,472.5303,2064,462.5,2064.0197,462.5081,2064.1736,462.1577,2064.3427,461.8135,2064.3497,461.4022,2064.565,461.0772,2064.7322,460.7322,2064.7169,460.6952,2065.1594,460.7634,2065.4938,460.5707,2065.731,460.1434,2066.1371,460.124,2066.5,460" style="stroke:#181818;stroke-width:0.5;"/><polygon fill="#ADD1B2" points="2212.8108,478.6756,2211.1984,480.8788,2209.2912,484.1057,2206.5636,486.2804,2203.6974,487.4696,2201.412,487.5728,2198.4747,486.0855,2195.7032,485.1139,2193.5995,483.1412,2192.4961,480.8828,2191.8417,479.0845,2191.2006,476.7357,2190.16,474.7145,2190.9596,472.741,2191.6602,470.5792,2194.2893,468.8695,2196.139,466.6511,2198.4284,465.9144,2201.1501,465.2801,2204.6404,465.657,2206.5521,466.5585,2208.7747,466.9672,2211.4772,469.736,2212.4193,472.659,2212.8286,474.6534,2212.365,477.9399" style="stroke:#181818;stroke-width:1.0;"/><path d="M2204.5156,471.875 Q2204.6719,471.6563 2204.8594,471.5469 Q2205.0469,471.4375 2205.2656,471.4375 Q2205.6406,471.4375 2205.875,471.7031 Q2206.1094,471.9531 2206.1094,472.5625 L2206.1094,474.0156 Q2206.1094,474.625 2205.875,474.8906 Q2205.6406,475.1563 2205.2656,475.1563 Q2204.9219,475.1563 2204.7188,474.9531 Q2204.5156,474.7656 2204.4063,474.25 Q2204.3594,473.8906 2204.1719,473.7031 Q2203.8438,473.3281 2203.2344,473.1094 Q2202.625,472.8906 2202,472.8906 Q2201.2344,472.8906 2200.5938,473.2188 Q2199.9688,473.5469 2199.4688,474.2969 Q2198.9844,475.0469 2198.9844,476.0781 L2198.9844,477.1719 Q2198.9844,478.4063 2199.875,479.2344 Q2200.7656,480.0469 2202.3594,480.0469 Q2203.2969,480.0469 2203.9531,479.7969 Q2204.3438,479.6406 2204.7656,479.2031 Q2205.0313,478.9375 2205.1719,478.8594 Q2205.3281,478.7813 2205.5313,478.7813 Q2205.8594,478.7813 2206.1094,479.0469 Q2206.375,479.2969 2206.375,479.6406 Q2206.375,479.9844 2206.0313,480.3906 Q2205.5313,480.9688 2204.7344,481.2969 Q2203.6563,481.75 2202.3594,481.75 Q2200.8438,481.75 2199.6406,481.125 Q2198.6563,480.625 2197.9688,479.5625 Q2197.2813,478.4844 2197.2813,477.2031 L2197.2813,476.0469 Q2197.2813,474.7188 2197.8906,473.5781 Q2198.5156,472.4219 2199.6094,471.8125 Q2200.7031,471.1875 2201.9375,471.1875 Q2202.6719,471.1875 2203.3125,471.3594 Q2203.9688,471.5156 2204.5156,471.875 Z " fill="#000000"/><text fill="#000000" font-family="FG Virgil" font-size="14" lengthAdjust="spacing" textLength="144" x="2222.25" y="481.7969">JobOpeningRepository</text><path d="M2065,492 L2065,492.2802 L2074.907,491.4476 L2084.814,492.2577 L2094.7209,492.5329 L2104.6279,491.0488 L2114.5349,491.8964 L2124.4419,491.4313 L2134.3488,491.4887 L2144.2558,491.9091 L2154.1628,491.0782 L2164.0698,492.7382 L2173.9767,491.1596 L2183.8837,491.7363 L2193.7907,492.5759 L2203.6977,491.8856 L2213.6047,492.091 L2223.5116,491.9574 L2233.4186,492.238 L2243.3256,492.3188 L2253.2326,492.7809 L2263.1395,492.8947 L2273.0465,492.9057 L2282.9535,492.3395 L2292.8605,492.6181 L2302.7674,492.9363 L2312.6744,491.0384 L2322.5814,492.9047 L2332.4884,491.6047 L2342.3953,492.7117 L2352.3023,491.34 L2362.2093,491.9087 L2372.1163,492.9888 L2382.0233,491.935 L2391.9302,492.1404 L2401.8372,492.4515 L2411.7442,492.555 L2421.6512,491.9948 L2431.5581,492.383 L2441.4651,491.2368 L2451.3721,492.3792 L2461.2791,492.7309 L2471.186,492.5927 L2481.093,492.8174 L2491,492 " fill="#F1F1F1" style="stroke:#181818;stroke-width:0.5;"/><path d="M2065,500 L2065,500.2802 L2074.907,499.4476 L2084.814,500.2577 L2094.7209,500.5329 L2104.6279,499.0488 L2114.5349,499.8964 L2124.4419,499.4313 L2134.3488,499.4887 L2144.2558,499.9091 L2154.1628,499.0782 L2164.0698,500.7382 L2173.9767,499.1596 L2183.8837,499.7363 L2193.7907,500.5759 L2203.6977,499.8856 L2213.6047,500.091 L2223.5116,499.9574 L2233.4186,500.238 L2243.3256,500.3188 L2253.2326,500.7809 L2263.1395,500.8947 L2273.0465,500.9057 L2282.9535,500.3395 L2292.8605,500.6181 L2302.7674,500.9363 L2312.6744,499.0384 L2322.5814,500.9047 L2332.4884,499.6047 L2342.3953,500.7117 L2352.3023,499.34 L2362.2093,499.9087 L2372.1163,500.9888 L2382.0233,499.935 L2391.9302,500.1404 L2401.8372,500.4515 L2411.7442,500.555 L2421.6512,499.9948 L2431.5581,500.383 L2441.4651,499.2368 L2451.3721,500.3792 L2461.2791,500.7309 L2471.186,500.5927 L2481.093,500.8174 L2491,500 " fill="#F1F1F1" style="stroke:#181818;stroke-width:0.5;"/><polygon fill="#84BE84" points="2078.0166,515.5403,2077.5768,516.1411,2077.0567,517.0212,2076.3128,517.6143,2075.5311,517.9386,2074.9078,517.9668,2074.1067,517.5611,2073.3509,517.2962,2072.7771,516.7581,2072.4762,516.1422,2072.2977,515.6518,2072.1229,515.0112,2071.8391,514.4599,2072.0572,513.9217,2072.2482,513.3322,2072.9653,512.8659,2073.4697,512.2608,2074.0941,512.0599,2074.8364,511.8869,2075.7883,511.9897,2076.3097,512.2356,2076.9158,512.3471,2077.6529,513.1022,2077.9098,513.8994,2078.0214,514.4433,2077.895,515.3396" style="stroke:#038048;stroke-width:1.0;"/><text fill="#000000" font-family="FG Virgil" font-size="14" lengthAdjust="spacing" textLength="261" x="2084" y="519.1074">save(jobApplication: JobApplication): void</text><polygon fill="#84BE84" points="2078.0166,534.1614,2077.5768,534.7622,2077.0567,535.6423,2076.3128,536.2354,2075.5311,536.5597,2074.9078,536.5879,2074.1067,536.1822,2073.3509,535.9173,2072.7771,535.3792,2072.4762,534.7633,2072.2977,534.2729,2072.1229,533.6323,2071.8391,533.081,2072.0572,532.5428,2072.2482,531.9532,2072.9653,531.487,2073.4697,530.8819,2074.0941,530.681,2074.8364,530.508,2075.7883,530.6108,2076.3097,530.8567,2076.9158,530.9681,2077.6529,531.7233,2077.9098,532.5204,2078.0214,533.0644,2077.895,533.9607" style="stroke:#038048;stroke-width:1.0;"/><text fill="#000000" font-family="FG Virgil" font-size="14" lengthAdjust="spacing" textLength="402" x="2084" y="537.7285">findByJobReference(jobReference: JobReference): JobOpening</text></g><!--link RegisterJobOpeningUI to RegisterJobOpeningController--><g id="link_RegisterJobOpeningUI_RegisterJobOpeningController"><path d="M1579,105.34 L1579.2802,105.34 L1578.4476,115.6957 L1579.2577,126.0514 L1579.5329,136.4071 L1578.0488,146.7629 L1578.8964,157.1186 L1578.4313,167.4743 L1579,177.83 " fill="none" style="stroke:#181818;stroke-width:1.0;"/><polygon fill="#181818" points="1579,183.83,1579.064,183.8585,1579.6738,181.9739,1580.6589,180.2562,1581.5217,178.4841,1581.9827,176.5334,1583,174.83,1582.9817,174.8117,1582.0995,175.5295,1581.3096,176.3396,1580.5839,177.2139,1579.637,177.867,1579,178.83,1579.1305,178.9605,1578.0514,177.8814,1577.3534,177.1834,1576.7018,176.5318,1575.7798,175.6098,1575,174.83,1575.0208,174.8392,1575.7903,176.6257,1576.6544,178.4542,1577.4728,180.2624,1578.3784,182.1093,1579,183.83" style="stroke:#181818;stroke-width:1.0;"/><text fill="#000000" font-family="FG Virgil" font-size="13" lengthAdjust="spacing" textLength="73" x="1580" y="150.0283">theController</text></g><!--link RegisterJobOpeningController to AuthorizationService--><g id="link_RegisterJobOpeningController_AuthorizationService"><path d="M1505.51,300.05 L1505.6818,300.2714 L1497.2939,305.7284 L1489.9132,312.4832 L1482.2046,318.8154 L1473.4171,323.7579 L1466.0594,330.5423 L1457.8969,336.2897 L1450.0546,342.4498 L1442.435,348.8968 L1434.0481,354.3552 L1427.1886,361.7814 L1418.3432,366.6492 L1410.8194,373.2196 L1403.4569,379.9976 L1395.1562,385.5672 L1387.4047,391.8442 L1379.4454,397.8535 L1371.7401,404.19 L1363.9122,410.3687 L1356.3181,416.8485 L1348.5105,423.0532 L1340.6398,429.1767 L1332.4153,434.8443 L1324.3297,440.6909 " fill="none" style="stroke:#181818;stroke-width:1.0;"/><polygon fill="#181818" points="1319.59,444.37,1319.6068,444.438,1321.4694,443.7641,1323.4303,443.489,1325.3592,443.0841,1327.1828,442.2521,1329.1522,442.0112,1329.149,441.9855,1328.0119,441.7287,1326.8912,441.6015,1325.7819,441.5644,1324.6334,441.2169,1323.5397,441.3041,1323.7228,441.3272,1323.4727,440.1553,1323.7571,439.0509,1324.1068,437.9546,1324.077,436.8105,1324.2468,435.6916,1324.2668,435.7024,1323.306,437.4223,1322.4365,439.1911,1321.523,440.9363,1320.6934,442.7266,1319.59,444.37" style="stroke:#181818;stroke-width:1.0;"/><text fill="#000000" font-family="FG Virgil" font-size="13" lengthAdjust="spacing" textLength="74" x="1463" y="345.0283">authzService</text></g><!--link RegisterJobOpeningController to JobOpeningRepository--><g id="link_RegisterJobOpeningController_JobOpeningRepository"><path d="M1810.11,300.03 L1810.1357,300.1198 L1815.871,301.5181 L1821.7572,303.4427 L1827.5942,305.196 L1833.2697,306.3855 L1839.1688,308.3554 L1839.1589,308.3223 L1845.0413,309.9341 L1850.9733,311.7128 L1856.9397,313.6075 L1862.7874,315.1024 L1868.8014,317.1573 L1868.874,317.3925 L1874.7185,318.7419 L1880.7749,320.7778 L1886.8571,322.8974 L1892.789,324.5298 L1898.7999,326.4185 L1898.8092,326.4473 L1904.8268,328.3455 L1910.8867,330.3751 L1916.9263,332.3413 L1923.0047,334.4285 L1928.9563,336.1213 L1929.0513,336.4039 L1935.0737,338.4328 L1941.0348,340.2793 L1947.0857,342.3927 L1953.1407,344.5187 L1959.0624,346.2483 L1958.9558,345.946 L1965.1324,348.6394 L1970.9578,350.3375 L1977.0502,352.7922 L1982.8676,354.4678 L1988.9105,356.782 L1988.8999,356.7535 L1994.9017,359.2756 L2000.6557,361.131 L2006.5559,363.3797 L2012.4684,365.6616 L2018.2923,367.7051 L2018.3592,367.8776 L2021.1819,368.8239 L2024.1189,370.0649 L2026.871,370.8291 L2029.8989,372.3046 L2032.7434,373.3072 L2032.8338,373.5334 L2035.668,374.6292 L2038.5471,375.8373 L2041.2178,376.5235 L2044.0412,377.5922 L2047,379 L2046.893,378.7454 L2051.1975,380.7447 L2055.3814,382.4572 L2059.7402,384.5858 L2063.8004,386.0039 L2068.0381,387.8443 L2067.9757,387.7052 L2072.2473,389.8059 L2076.2522,391.3119 L2080.4467,393.2407 L2084.8269,395.5834 L2088.8765,397.1892 L2088.9594,397.3642 L2093.1221,399.4291 L2097.0269,400.9498 L2101.2547,403.1522 L2105.4121,405.206 L2109.4055,406.9138 L2109.3122,406.7257 L2113.4085,408.8723 L2117.4743,410.9572 L2121.6001,413.1632 L2125.4924,414.8987 L2129.5152,416.897 L2129.6096,417.0797 L2133.3183,418.7026 L2137.2092,420.6781 L2141.3662,423.1685 L2145.0332,424.7108 L2149.0956,427.0181 L2149.2024,427.2175 L2152.9272,429.1267 L2156.616,430.9683 L2160.3862,432.9623 L2164.3449,435.3082 L2168.037,437.1561 L2167.9727,437.0396 L2171.8025,439.3932 L2175.1953,440.9545 L2179.0849,443.4167 L2182.6948,445.3717 L2186.2294,447.19 L2186.283,447.2848 L2189.7064,449.1701 L2193.3218,451.3947 L2196.7638,453.3128 L2200.1332,455.1027 L2203.5629,456.9991 " fill="none" style="stroke:#181818;stroke-width:1.0;"/><polygon fill="#181818" points="2208.77,459.98,2208.8265,460.0214,2207.4939,458.3098,2206.4926,456.841,2205.3834,455.2931,2203.9195,453.4851,2202.9466,452.0372,2202.9216,452.0304,2203.1063,453.0916,2203.4169,454.1871,2203.8152,455.3064,2203.9115,456.3437,2204.4307,457.4959,2204.4792,457.674,2203.2839,457.59,2202.23,458.0259,2201.1933,458.5253,2200.0563,458.6556,2198.972,458.98,2198.9744,459.0026,2200.9306,459.1694,2202.8973,459.4392,2204.8589,459.6593,2206.8302,459.9742,2208.77,459.98" style="stroke:#181818;stroke-width:1.0;"/><text fill="#000000" font-family="FG Virgil" font-size="13" lengthAdjust="spacing" textLength="127" x="1961" y="345.0283">jobOpeningRepository</text></g><!--link RegisterJobOpeningController to JobOpeningBuilder--><g id="link_RegisterJobOpeningController_JobOpeningBuilder"><path d="M1033.36,296.99 L1033.377,297.0819 L1029.2931,297.5563 L1025.3089,298.5693 L1021.2923,299.4069 L1017.1688,299.6679 L1013.1932,300.727 L1013.1867,300.6931 L1009.1133,301.3219 L1005.0729,302.1216 L1001.0554,303.0402 L996.9589,303.5492 L992.9731,304.6318 L993.0217,304.8731 L988.867,305.1725 L984.8541,306.1762 L980.8585,307.2658 L976.7622,307.8555 L972.7189,308.7081 L972.7251,308.7378 L968.6621,309.5446 L964.6274,310.4864 L960.5791,311.3631 L956.5568,312.3641 L952.4495,312.9597 L952.5132,313.2511 L948.4609,314.1407 L944.3676,314.8424 L940.3344,315.8193 L936.3039,316.809 L932.1842,317.3902 L932.113,317.0777 L928.2028,318.6068 L924.0581,319.1069 L920.0917,320.3894 L915.9416,320.8662 L911.9421,322.0033 L911.9351,321.9737 L907.9783,323.2839 L903.8571,323.9021 L899.833,324.9286 L895.817,325.9894 L891.7422,326.8029 L891.7867,326.9824 L887.7141,327.7991 L883.7175,328.9226 L879.598,329.5497 L875.6618,330.9173 L871.6038,331.7925 L871.6647,332.0284 L867.6416,333.0205 L863.6487,334.1297 L859.5153,334.6947 L855.4849,335.6586 L851.5458,336.976 L851.4739,336.7093 L847.5473,338.0269 L843.5397,339.044 L839.6496,340.497 L835.5589,341.2058 L831.5874,342.357 L831.5461,342.2102 L827.647,343.5711 L823.5713,344.3046 L819.6212,345.4843 L815.7939,347.1005 L811.7478,347.9393 L811.8024,348.1251 L807.8995,349.4099 L803.8268,350.117 L799.9668,351.5478 L796.0604,352.8209 L792.0461,353.7266 L791.9845,353.5258 L788.1246,354.885 L784.2446,356.1785 L780.4042,357.6011 L776.4097,358.5216 L772.5013,359.7226 L772.5641,359.9183 L768.5525,360.7299 L764.662,361.9193 L760.9484,363.6608 L756.9091,364.3859 L753.1326,365.931 L753.2045,366.1455 L749.3271,367.303 L745.4254,368.3879 L741.5786,369.6366 L737.8586,371.264 L733.9592,372.3556 L733.9152,372.23 L730.2543,373.9327 L726.2942,374.7815 L722.6744,376.6012 L718.863,377.8742 L715,379 L715.0381,379.102 L712.6179,379.9112 L710.3341,381.0855 L707.9271,381.93 L705.4687,382.6364 L703.053,383.4575 " fill="none" style="stroke:#181818;stroke-width:1.0;"/><polygon fill="#181818" points="697.5,385.73,697.5021,385.8,699.4648,385.6506,701.4397,385.9117,703.4107,386.0391,705.3685,385.7269,707.3445,386.0232,707.3345,385.9993,706.2461,385.4547,705.2083,385.0305,704.2055,384.6901,703.0818,384.0611,702.1275,383.8362,702.2977,383.9076,702.3711,382.7116,702.9415,381.7239,703.5724,380.7617,703.8507,379.6516,704.3144,378.6192,704.3309,378.6349,702.9439,380.034,701.6316,381.5047,700.2833,382.9408,699.0038,384.4429,697.5,385.73" style="stroke:#181818;stroke-width:1.0;"/><text fill="#000000" font-family="FG Virgil" font-size="13" lengthAdjust="spacing" textLength="105" x="876" y="345.0283">jobOpeningBuilder</text></g><!--link JobOpeningBuilder to JobOpening--><g id="link_JobOpeningBuilder_JobOpening"><path d="M507,626.05 L507.2802,626.05 L506.4476,636.2 L507.2577,646.35 L507.5329,656.5 L506.0488,666.65 L506.8964,676.8 L506.4313,686.95 L506.4887,697.1 L506.9091,707.25 L507,717.4 " fill="none" style="stroke:#181818;stroke-width:1.0;"/><polygon fill="#181818" points="507,723.4,507.064,723.4285,507.6738,721.5439,508.6589,719.8262,509.5217,718.0541,509.9827,716.1034,511,714.4,510.9817,714.3817,510.0995,715.0995,509.3096,715.9096,508.5839,716.7839,507.637,717.437,507,718.4,507.1305,718.5305,506.0514,717.4514,505.3534,716.7534,504.7018,716.1018,503.7798,715.1798,503,714.4,503.0208,714.4092,503.7903,716.1957,504.6544,718.0242,505.4728,719.8324,506.3784,721.6793,507,723.4" style="stroke:#181818;stroke-width:1.0;"/><text fill="#000000" font-family="FG Virgil" font-size="13" lengthAdjust="spacing" textLength="27" x="508" y="671.0283">build</text></g><!--link RegisterJobOpeningController to PersistenceContext--><g id="link_RegisterJobOpeningController_PersistenceContext"><path d="M1667.57,300.11 L1667.6226,300.1872 L1672.8522,303.6286 L1678.3902,307.5225 L1683.8278,311.269 L1688.9351,314.531 L1694.4995,318.4638 L1694.4797,318.4355 L1699.9618,322.227 L1705.5442,326.1608 L1711.1961,330.1937 L1716.6081,333.8854 L1722.3563,338.055 L1722.5005,338.2544 L1724.9871,339.8495 L1727.8948,342.0267 L1730.8539,344.275 L1733.514,346.11 L1736.3314,348.1623 L1736.3495,348.1867 L1739.0922,350.1977 L1741.917,352.3197 L1744.7021,354.3882 L1747.5629,356.5588 L1750.1773,358.3962 L1750.3574,358.634 L1753.0789,360.6968 L1755.6842,362.6063 L1758.4595,364.7402 L1761.2428,366.8847 L1763.7737,368.6958 L1763.5767,368.4429 L1766.6043,370.9945 L1768.9832,372.7135 L1771.8553,375.0655 L1774.2195,376.7656 L1777,379 L1776.9809,378.9763 L1779.9059,381.4314 L1782.3846,383.3326 L1785.1266,385.5607 L1787.8907,387.8162 L1790.4954,389.8737 L1790.6138,390.0158 L1793.146,392.0818 L1795.8806,394.3906 L1798.2879,396.3064 L1801.1834,398.8084 L1803.7543,400.9207 L1803.9129,401.1056 L1806.4733,403.2932 L1809.1124,405.5726 L1811.3856,407.4254 L1813.927,409.591 L1816.7061,412.0335 L1816.5236,411.8262 L1819.2036,414.2281 L1821.6779,416.3964 L1824.4506,418.9035 L1826.7139,420.8322 L1829.28,423.1047 L1829.178,422.9914 L1831.773,425.3645 L1833.9318,427.2533 L1836.4008,429.4866 L1839.1733,432.0567 L1841.4053,434.0268 L1841.5363,434.1694 L1843.9474,436.4003 L1845.9509,438.1878 L1848.4649,440.5307 L1850.8677,442.7526 L1853.0113,444.6925 L1852.8674,444.5396 L1857.2563,448.6878 L1861.5982,452.786 L1866.0326,456.9825 L1870.107,460.7967 L1874.3825,464.8244 " fill="none" style="stroke:#181818;stroke-width:1.0;"/><polygon fill="#181818" points="1878.72,468.97,1878.7848,468.9966,1877.8437,467.0955,1877.2826,465.3505,1876.5977,463.5546,1875.506,461.5916,1874.9775,459.8599,1874.9516,459.8593,1874.8609,460.9878,1874.9008,462.1192,1875.0315,463.2527,1874.8494,464.379,1875.1054,465.5153,1875.1096,465.6998,1873.9696,465.3309,1872.8418,465.5006,1871.7154,465.736,1870.5804,465.5891,1869.45,465.6433,1869.4577,465.6647,1871.3004,466.2986,1873.1781,467.03,1875.0389,467.7143,1876.9319,468.4884,1878.72,468.97" style="stroke:#181818;stroke-width:1.0;"/><text fill="#000000" font-family="FG Virgil" font-size="13" lengthAdjust="spacing" textLength="67" x="1737" y="345.0283">persistence</text></g><!--link PersistenceContext to RepositoryFactory--><g id="link_PersistenceContext_RepositoryFactory"><path d="M1912,536.25 L1912.2802,536.25 L1911.4476,546.4194 L1912.2577,556.5888 L1912.5329,566.7581 L1911.0488,576.9275 L1911.8964,587.0969 L1911.4313,597.2663 L1911.4887,607.4356 L1911.9091,617.605 L1911.0782,627.7744 L1912.7382,637.9438 L1911.1596,648.1131 L1911.7363,658.2825 L1912.5759,668.4519 L1911.8856,678.6213 L1912.091,688.7906 L1912,698.96 " fill="none" style="stroke:#181818;stroke-width:1.0;"/><polygon fill="#181818" points="1912,704.96,1912.064,704.9885,1912.6738,703.1039,1913.6589,701.3862,1914.5217,699.6141,1914.9827,697.6634,1916,695.96,1915.9817,695.9417,1915.0995,696.6595,1914.3096,697.4696,1913.5839,698.3439,1912.637,698.997,1912,699.96,1912.1305,700.0905,1911.0514,699.0114,1910.3534,698.3134,1909.7018,697.6618,1908.7798,696.7398,1908,695.96,1908.0208,695.9692,1908.7903,697.7557,1909.6544,699.5842,1910.4728,701.3924,1911.3784,703.2393,1912,704.96" style="stroke:#181818;stroke-width:1.0;"/><text fill="#000000" font-family="FG Virgil" font-size="13" lengthAdjust="spacing" textLength="39" x="1913" y="671.0283">factory</text></g><!--SRC=[hLPBJnin4BxdL_ZegE4Fh2Aa44GV1q09q4FLmsGzoReuzihsaeQg_xtZtIJsFW0XcilQdcyUdczc7FSeTGaMjgm0BNPMUe-QULlXo9r49UIFiC6btoja5dEVo0IkeLB-ocX_3LjaLv_PWxGRgHACAq2OdTGRjWRbS3HYzCiLECSMk97Ee_rcLZSbQiBSVsNJQMdHeVRWfT7dvtzgXV3xn0e4eQH6FixOqbjII8J2B0kp2wALCGf1rxA_hpkSK-ZMA8LsEeMoL38_k6MftxNKOgRKt3XVRT4wFaw484IqnzalixgJNk64ikDoAyjWRy9qjLsXlLa_G0uwb-Wc55Hm3hc_svSusHdx6EBRakOS56e1DXWx1cgnZkmIF07Y-PBoL96nl7BUK6narg6LeAvhXscWjdTx_Z-2_N2Cj6t871yPIoYBmLvKKed0qwfPT3YgJmFxKIEH-d1B4Tb9yxAJlY2b1QxHeiwnHfrsNUHbJ1HFizR5NNTpoFjfxUhCanppLiQxoEyd0ZYBP0pSQe0Q_W9bBsit1F8UfRtu3mJp4zNZVXFEAbyOAvzhlqkqJp97wdhNhDeDZzfL5eC63OJGcoZk2VW5t4plRzQSMXTTnXRq-V6Jk7yoKWnNpnkEZhqnYpE04qb22lAPKKCUbcbPfwKsOSdqQ9AJiLdtg8Mwh2qtlIAalGLV7ATQKyM9UZ-BqNMh2uOdKLhFxsrrzh5U7oY0MvgW8TaKJ2Xu_ErPcuhIEEcfHAXdA1EButv_HJ7HPsYkTo0jWoSUQtCdAgDIEinZpXtlqJ2e4k_kskEdWtw1leXg1UtW2SDuJhntepdM-_kDX_ViOj-QUMc9r8xY0EoDL78s-7IVdPs_-iHcZFeuRaUlOMjZWwCYOq37puVjsqQ6if4bh2KqlSFMuJLA3HsEHZrGHpLhtggtlGqqIiRAU3WQ03GSTDiXepzVzUeV]--></g></svg>