<?xml version="1.0" encoding="us-ascii" standalone="no"?><svg xmlns="http://www.w3.org/2000/svg" xmlns:xlink="http://www.w3.org/1999/xlink" contentStyleType="text/css" height="752px" preserveAspectRatio="none" style="width:1895px;height:752px;background:#FFFFFF;" version="1.1" viewBox="0 0 1895 752" width="1895px" zoomAndPan="magnify"><defs/><g><polygon fill="#FFFFFF" points="22.5,121.5332,22.5,121.6033,24.5,121.3951,26.5,121.5976,28.5,121.6664,30.5,121.2954,32.5,121.5332,32.4223,121.5332,32.0735,131.6049,32.1165,141.6766,32.4318,151.7483,31.8086,161.82,33.0536,171.8917,31.8697,181.9634,32.3022,192.035,32.9319,202.1067,32.4142,212.1784,32.5682,222.2501,32.4681,232.3218,32.6785,242.3935,32.7391,252.4652,33.0857,262.5369,33.1711,272.6086,33.1793,282.6803,32.7546,292.752,32.9636,302.8236,33.2022,312.8953,31.7788,322.967,33.1785,333.0387,32.2035,343.1104,33.0338,353.1821,32.005,363.2538,32.4315,373.3255,33.2416,383.3972,32.4513,393.4689,32.6053,403.5406,32.8386,413.6122,32.9162,423.6839,32.4961,433.7556,32.7872,443.8273,31.9276,453.899,32.7844,463.9707,33.0482,474.0424,32.9445,484.1141,33.113,494.1858,32.0169,504.2575,31.8478,514.3292,31.8786,524.4009,32.4411,534.4725,32.3035,544.5442,33.1814,554.6159,32.3253,564.6876,32.1569,574.7593,32.7283,584.831,31.8332,594.9027,31.9809,604.9744,33.149,615.0461,32.9357,625.1178,32.5,635.1895,32.5,635.4343,30.5,635.0822,28.5,635.2959,26.5,635.3863,24.5,635.032,22.5,635.1895,22.4041,635.1895,22.626,625.1178,23.1518,615.0461,22.4958,604.9744,22.9626,594.9027,21.9462,584.831,21.8227,574.7593,23.0036,564.6876,21.7831,554.6159,23.009,544.5442,22.7066,534.4725,22.2321,524.4009,22.1462,514.3292,22.9588,504.2575,22.2007,494.1858,23.0919,484.1141,21.9473,474.0424,23.1174,463.9707,22.9843,453.899,22.745,443.8273,22.5472,433.7556,23.2266,423.6839,23.1136,413.6122,22.6693,403.5406,22.7682,393.4689,22.3697,383.3972,23.2165,373.3255,22.6549,363.2538,22.6726,353.1821,21.8916,343.1104,22.0948,333.0387,23.0307,322.967,22.9298,312.8953,22.4571,302.8236,22.1778,292.752,22.2811,282.6803,21.8138,272.6086,22.9147,262.5369,23.2396,252.4652,23.0264,242.3935,23.1949,232.3218,22.3633,222.2501,22.5872,212.1784,22.1124,202.1067,22.784,192.035,22.7468,181.9634,23.0524,171.8917,22.2703,161.82,22.3656,151.7483,22.9435,141.6766,23.0673,131.6049,22.5,121.5332" style="stroke:#181818;stroke-width:1.0;"/><polygon fill="#FFFFFF" points="197.5,121.5332,197.5,121.6033,199.5,121.3951,201.5,121.5976,203.5,121.6664,205.5,121.2954,207.5,121.5332,207.4223,121.5332,207.0735,131.6049,207.1165,141.6766,207.4318,151.7483,206.8086,161.82,208.0536,171.8917,206.8697,181.9634,207.3022,192.035,207.9319,202.1067,207.4142,212.1784,207.5682,222.2501,207.4681,232.3218,207.6785,242.3935,207.7391,252.4652,208.0857,262.5369,208.1711,272.6086,208.1793,282.6803,207.7546,292.752,207.9636,302.8236,208.2022,312.8953,206.7788,322.967,208.1785,333.0387,207.2035,343.1104,208.0338,353.1821,207.005,363.2538,207.4315,373.3255,208.2416,383.3972,207.4513,393.4689,207.6053,403.5406,207.8386,413.6122,207.9162,423.6839,207.4961,433.7556,207.7872,443.8273,206.9276,453.899,207.7844,463.9707,208.0482,474.0424,207.9445,484.1141,208.113,494.1858,207.0169,504.2575,206.8478,514.3292,206.8786,524.4009,207.4411,534.4725,207.3035,544.5442,208.1814,554.6159,207.3253,564.6876,207.1569,574.7593,207.7283,584.831,206.8332,594.9027,206.9809,604.9744,208.149,615.0461,207.9357,625.1178,207.5,635.1895,207.5,635.4343,205.5,635.0822,203.5,635.2959,201.5,635.3863,199.5,635.032,197.5,635.1895,197.4041,635.1895,197.626,625.1178,198.1518,615.0461,197.4958,604.9744,197.9626,594.9027,196.9462,584.831,196.8227,574.7593,198.0036,564.6876,196.7831,554.6159,198.009,544.5442,197.7066,534.4725,197.2321,524.4009,197.1462,514.3292,197.9588,504.2575,197.2007,494.1858,198.0919,484.1141,196.9473,474.0424,198.1174,463.9707,197.9843,453.899,197.745,443.8273,197.5472,433.7556,198.2266,423.6839,198.1136,413.6122,197.6693,403.5406,197.7682,393.4689,197.3697,383.3972,198.2165,373.3255,197.6549,363.2538,197.6726,353.1821,196.8916,343.1104,197.0948,333.0387,198.0307,322.967,197.9298,312.8953,197.4571,302.8236,197.1778,292.752,197.2811,282.6803,196.8138,272.6086,197.9147,262.5369,198.2396,252.4652,198.0264,242.3935,198.1949,232.3218,197.3633,222.2501,197.5872,212.1784,197.1124,202.1067,197.784,192.035,197.7468,181.9634,198.0524,171.8917,197.2703,161.82,197.3656,151.7483,197.9435,141.6766,198.0673,131.6049,197.5,121.5332" style="stroke:#181818;stroke-width:1.0;"/><polygon fill="#FFFFFF" points="381.5,184.1152,381.5,184.1853,383.5,183.9771,385.5,184.1797,387.5,184.2485,389.5,183.8774,391.5,184.1152,391.4223,184.1152,391.0735,194.1101,391.1165,204.1049,391.4318,214.0997,390.8086,224.0946,392.0536,234.0894,390.8697,244.0843,391.3022,254.0791,391.9319,264.0739,391.4142,274.0688,391.5682,284.0636,391.4681,294.0585,391.6785,304.0533,391.7391,314.0481,392.0857,324.043,392.1711,334.0378,392.1793,344.0326,391.7546,354.0275,391.9636,364.0223,392.2022,374.0172,390.7788,384.012,392.1785,394.0068,391.2035,404.0017,392.0338,413.9965,391.005,423.9914,391.4315,433.9862,392.2416,443.981,391.4513,453.9759,391.6053,463.9707,391.8386,473.9655,391.9162,483.9604,391.4961,493.9552,391.7872,503.9501,390.9276,513.9449,391.7844,523.9397,392.0482,533.9346,391.9445,543.9294,392.113,553.9242,391.0169,563.9191,390.8478,573.9139,390.8786,583.9088,391.4411,593.9036,391.5,603.8984,391.5,603.8329,389.5,604.1256,387.5,603.8402,385.5,603.7841,383.5,603.9745,381.5,603.8984,380.8332,603.8984,380.9809,593.9036,382.149,583.9088,381.9357,573.9139,382.2345,563.9191,381.1782,553.9242,381.8192,543.9294,382.0904,533.9346,381.0276,523.9397,381.4041,513.9449,381.626,503.9501,382.1518,493.9552,381.4958,483.9604,381.9626,473.9655,380.9462,463.9707,380.8227,453.9759,382.0036,443.981,380.7831,433.9862,382.009,423.9914,381.7066,413.9965,381.2321,404.0017,381.1462,394.0068,381.9588,384.012,381.2007,374.0172,382.0919,364.0223,380.9473,354.0275,382.1174,344.0326,381.9843,334.0378,381.745,324.043,381.5472,314.0481,382.2266,304.0533,382.1136,294.0585,381.6693,284.0636,381.7682,274.0688,381.3697,264.0739,382.2165,254.0791,381.6549,244.0843,381.6726,234.0894,380.8916,224.0946,381.0948,214.0997,382.0307,204.1049,381.9298,194.1101,381.5,184.1152" style="stroke:#181818;stroke-width:1.0;"/><polygon fill="#FFFFFF" points="386.5,528.3164,386.5,528.3865,388.5,528.1783,390.5,528.3808,392.5,528.4496,394.5,528.0786,396.5,528.3164,396.4741,528.3164,396.3578,535.7746,396.3722,543.2328,396.4773,550.691,396.2695,558.1492,396.5,565.6074,396.5,565.792,394.5,565.3973,392.5,565.5415,390.5,565.7514,388.5,565.5788,386.5,565.6074,386.5227,565.6074,386.4894,558.1492,386.5595,550.691,386.5797,543.2328,386.6952,535.7746,386.5,528.3164" style="stroke:#181818;stroke-width:1.0;"/><polygon fill="#FFFFFF" points="1085,246.6973,1085,246.7673,1087,246.5592,1089,246.7617,1091,246.8305,1093,246.4595,1095,246.6973,1094.9223,246.6973,1094.5735,256.7551,1094.6165,266.8129,1094.9318,276.8707,1094.3086,286.9286,1095.5536,296.9864,1094.3697,307.0442,1094.8022,317.1021,1095.4319,327.1599,1094.9142,337.2177,1095.0682,347.2755,1094.9681,357.3334,1095.1785,367.3912,1095.2391,377.449,1095.5857,387.5068,1095.6711,397.5647,1095.6793,407.6225,1095.2546,417.6803,1095.4636,427.7381,1095.7022,437.796,1094.2788,447.8538,1095.6785,457.9116,1094.7035,467.9694,1095.5338,478.0273,1094.505,488.0851,1094.9315,498.1429,1095.7416,508.2008,1094.9513,518.2586,1095,528.3164,1095,528.3515,1093,528.4293,1091,528.4552,1089,528.3151,1087,528.4121,1085,528.3164,1084.4276,528.3164,1085.2844,518.2586,1085.5482,508.2008,1085.4445,498.1429,1085.613,488.0851,1084.5169,478.0273,1084.3478,467.9694,1084.3786,457.9116,1084.9411,447.8538,1084.8035,437.796,1085.6814,427.7381,1084.8253,417.6803,1084.6569,407.6225,1085.2283,397.5647,1084.3332,387.5068,1084.4809,377.449,1085.649,367.3912,1085.4357,357.3334,1085.7345,347.2755,1084.6782,337.2177,1085.3192,327.1599,1085.5904,317.1021,1084.5276,307.0442,1084.9041,296.9864,1085.126,286.9286,1085.6518,276.8707,1084.9958,266.8129,1085.4626,256.7551,1085,246.6973" style="stroke:#181818;stroke-width:1.0;"/><polygon fill="#FFFFFF" points="1711,371.8613,1711,371.9314,1713,371.7232,1715,371.9258,1717,371.9946,1719,371.6235,1721,371.8613,1720.9223,371.8613,1720.5735,382.2917,1720.6165,392.722,1720.9318,403.1523,1720.3086,413.5827,1721.5536,424.013,1721,434.4434,1721,434.2333,1719,434.3774,1717,434.5873,1715,434.4148,1713,434.4661,1711,434.4434,1710.9681,434.4434,1711.1785,424.013,1711.2391,413.5827,1711.5857,403.1523,1711.6711,392.722,1711.6793,382.2917,1711,371.8613" style="stroke:#181818;stroke-width:1.0;"/><polygon fill="#FFFFFF" points="1837.5,465.7344,1837.5,465.8044,1839.5,465.5963,1841.5,465.7988,1843.5,465.8676,1845.5,465.4966,1847.5,465.7344,1847.4741,465.7344,1847.3578,471.9926,1847.3722,478.2508,1847.4773,484.509,1847.2695,490.7672,1847.5,497.0254,1847.5,497.2099,1845.5,496.8153,1843.5,496.9595,1841.5,497.1694,1839.5,496.9968,1837.5,497.0254,1837.5227,497.0254,1837.4894,490.7672,1837.5595,484.509,1837.5797,478.2508,1837.6952,471.9926,1837.5,465.7344" style="stroke:#181818;stroke-width:1.0;"/><path d="M27,88.2422 L27.2802,88.2422 L26.4476,98.3305 L27.2577,108.4189 L27.5329,118.5072 L26.0488,128.5956 L26.8964,138.6839 L26.4313,148.7723 L26.4887,158.8606 L26.9091,168.9489 L26.0782,179.0373 L27.7382,189.1256 L26.1596,199.214 L26.7363,209.3023 L27.5759,219.3907 L26.8856,229.479 L27.091,239.5673 L26.9574,249.6557 L27.238,259.744 L27.3188,269.8324 L27.7809,279.9207 L27.8947,290.0091 L27.9057,300.0974 L27.3395,310.1858 L27.6181,320.2741 L27.9363,330.3624 L26.0384,340.4508 L27.9047,350.5391 L26.6047,360.6275 L27.7117,370.7158 L26.34,380.8042 L26.9087,390.8925 L27.9888,400.9809 L26.935,411.0692 L27.1404,421.1575 L27.4515,431.2459 L27.555,441.3342 L26.9948,451.4226 L27.383,461.5109 L26.2368,471.5993 L27.3792,481.6876 L27.7309,491.7759 L27.5927,501.8643 L27.8174,511.9526 L26.3559,522.041 L26.1304,532.1293 L26.1715,542.2177 L26.9215,552.306 L26.738,562.3944 L27.9085,572.4827 L26.7671,582.571 L26.5426,592.6594 L27.3044,602.7477 L26.1109,612.8361 L26.3078,622.9244 L27.8653,633.0128 L27.5809,643.1011 L27,653.1895 " fill="none" style="stroke:#181818;stroke-width:0.5;stroke-dasharray:5.0,5.0;"/><path d="M202,88.2422 L202.2802,88.2422 L201.4476,98.3305 L202.2577,108.4189 L202.5329,118.5072 L201.0488,128.5956 L201.8964,138.6839 L201.4313,148.7723 L201.4887,158.8606 L201.9091,168.9489 L201.0782,179.0373 L202.7382,189.1256 L201.1596,199.214 L201.7363,209.3023 L202.5759,219.3907 L201.8856,229.479 L202.091,239.5673 L201.9574,249.6557 L202.238,259.744 L202.3188,269.8324 L202.7809,279.9207 L202.8947,290.0091 L202.9057,300.0974 L202.3395,310.1858 L202.6181,320.2741 L202.9363,330.3624 L201.0384,340.4508 L202.9047,350.5391 L201.6047,360.6275 L202.7117,370.7158 L201.34,380.8042 L201.9087,390.8925 L202.9888,400.9809 L201.935,411.0692 L202.1404,421.1575 L202.4515,431.2459 L202.555,441.3342 L201.9948,451.4226 L202.383,461.5109 L201.2368,471.5993 L202.3792,481.6876 L202.7309,491.7759 L202.5927,501.8643 L202.8174,511.9526 L201.3559,522.041 L201.1304,532.1293 L201.1715,542.2177 L201.9215,552.306 L201.738,562.3944 L202.9085,572.4827 L201.7671,582.571 L201.5426,592.6594 L202.3044,602.7477 L201.1109,612.8361 L201.3078,622.9244 L202.8653,633.0128 L202.5809,643.1011 L202,653.1895 " fill="none" style="stroke:#181818;stroke-width:0.5;stroke-dasharray:5.0,5.0;"/><path d="M386,88.2422 L386.2802,88.2422 L385.4476,98.3305 L386.2577,108.4189 L386.5329,118.5072 L385.0488,128.5956 L385.8964,138.6839 L385.4313,148.7723 L385.4887,158.8606 L385.9091,168.9489 L385.0782,179.0373 L386.7382,189.1256 L385.1596,199.214 L385.7363,209.3023 L386.5759,219.3907 L385.8856,229.479 L386.091,239.5673 L385.9574,249.6557 L386.238,259.744 L386.3188,269.8324 L386.7809,279.9207 L386.8947,290.0091 L386.9057,300.0974 L386.3395,310.1858 L386.6181,320.2741 L386.9363,330.3624 L385.0384,340.4508 L386.9047,350.5391 L385.6047,360.6275 L386.7117,370.7158 L385.34,380.8042 L385.9087,390.8925 L386.9888,400.9809 L385.935,411.0692 L386.1404,421.1575 L386.4515,431.2459 L386.555,441.3342 L385.9948,451.4226 L386.383,461.5109 L385.2368,471.5993 L386.3792,481.6876 L386.7309,491.7759 L386.5927,501.8643 L386.8174,511.9526 L385.3559,522.041 L385.1304,532.1293 L385.1715,542.2177 L385.9215,552.306 L385.738,562.3944 L386.9085,572.4827 L385.7671,582.571 L385.5426,592.6594 L386.3044,602.7477 L385.1109,612.8361 L385.3078,622.9244 L386.8653,633.0128 L386.5809,643.1011 L386,653.1895 " fill="none" style="stroke:#181818;stroke-width:0.5;stroke-dasharray:5.0,5.0;"/><path d="M922,88.2422 L922.2802,88.2422 L921.4476,98.3305 L922.2577,108.4189 L922.5329,118.5072 L921.0488,128.5956 L921.8964,138.6839 L921.4313,148.7723 L921.4887,158.8606 L921.9091,168.9489 L921.0782,179.0373 L922.7382,189.1256 L921.1596,199.214 L921.7363,209.3023 L922.5759,219.3907 L921.8856,229.479 L922.091,239.5673 L921.9574,249.6557 L922.238,259.744 L922.3188,269.8324 L922.7809,279.9207 L922.8947,290.0091 L922.9057,300.0974 L922.3395,310.1858 L922.6181,320.2741 L922.9363,330.3624 L921.0384,340.4508 L922.9047,350.5391 L921.6047,360.6275 L922.7117,370.7158 L921.34,380.8042 L921.9087,390.8925 L922.9888,400.9809 L921.935,411.0692 L922.1404,421.1575 L922.4515,431.2459 L922.555,441.3342 L921.9948,451.4226 L922.383,461.5109 L921.2368,471.5993 L922.3792,481.6876 L922.7309,491.7759 L922.5927,501.8643 L922.8174,511.9526 L921.3559,522.041 L921.1304,532.1293 L921.1715,542.2177 L921.9215,552.306 L921.738,562.3944 L922.9085,572.4827 L921.7671,582.571 L921.5426,592.6594 L922.3044,602.7477 L921.1109,612.8361 L921.3078,622.9244 L922.8653,633.0128 L922.5809,643.1011 L922,653.1895 " fill="none" style="stroke:#181818;stroke-width:0.5;stroke-dasharray:5.0,5.0;"/><path d="M1090,88.2422 L1090.2802,88.2422 L1089.4476,98.3305 L1090.2577,108.4189 L1090.5329,118.5072 L1089.0488,128.5956 L1089.8964,138.6839 L1089.4313,148.7723 L1089.4887,158.8606 L1089.9091,168.9489 L1089.0782,179.0373 L1090.7382,189.1256 L1089.1596,199.214 L1089.7363,209.3023 L1090.5759,219.3907 L1089.8856,229.479 L1090.091,239.5673 L1089.9574,249.6557 L1090.238,259.744 L1090.3188,269.8324 L1090.7809,279.9207 L1090.8947,290.0091 L1090.9057,300.0974 L1090.3395,310.1858 L1090.6181,320.2741 L1090.9363,330.3624 L1089.0384,340.4508 L1090.9047,350.5391 L1089.6047,360.6275 L1090.7117,370.7158 L1089.34,380.8042 L1089.9087,390.8925 L1090.9888,400.9809 L1089.935,411.0692 L1090.1404,421.1575 L1090.4515,431.2459 L1090.555,441.3342 L1089.9948,451.4226 L1090.383,461.5109 L1089.2368,471.5993 L1090.3792,481.6876 L1090.7309,491.7759 L1090.5927,501.8643 L1090.8174,511.9526 L1089.3559,522.041 L1089.1304,532.1293 L1089.1715,542.2177 L1089.9215,552.306 L1089.738,562.3944 L1090.9085,572.4827 L1089.7671,582.571 L1089.5426,592.6594 L1090.3044,602.7477 L1089.1109,612.8361 L1089.3078,622.9244 L1090.8653,633.0128 L1090.5809,643.1011 L1090,653.1895 " fill="none" style="stroke:#181818;stroke-width:0.5;stroke-dasharray:5.0,5.0;"/><path d="M1252,88.2422 L1252.2802,88.2422 L1251.4476,98.3305 L1252.2577,108.4189 L1252.5329,118.5072 L1251.0488,128.5956 L1251.8964,138.6839 L1251.4313,148.7723 L1251.4887,158.8606 L1251.9091,168.9489 L1251.0782,179.0373 L1252.7382,189.1256 L1251.1596,199.214 L1251.7363,209.3023 L1252.5759,219.3907 L1251.8856,229.479 L1252.091,239.5673 L1251.9574,249.6557 L1252.238,259.744 L1252.3188,269.8324 L1252.7809,279.9207 L1252.8947,290.0091 L1252.9057,300.0974 L1252.3395,310.1858 L1252.6181,320.2741 L1252.9363,330.3624 L1251.0384,340.4508 L1252.9047,350.5391 L1251.6047,360.6275 L1252.7117,370.7158 L1251.34,380.8042 L1251.9087,390.8925 L1252.9888,400.9809 L1251.935,411.0692 L1252.1404,421.1575 L1252.4515,431.2459 L1252.555,441.3342 L1251.9948,451.4226 L1252.383,461.5109 L1251.2368,471.5993 L1252.3792,481.6876 L1252.7309,491.7759 L1252.5927,501.8643 L1252.8174,511.9526 L1251.3559,522.041 L1251.1304,532.1293 L1251.1715,542.2177 L1251.9215,552.306 L1251.738,562.3944 L1252.9085,572.4827 L1251.7671,582.571 L1251.5426,592.6594 L1252.3044,602.7477 L1251.1109,612.8361 L1251.3078,622.9244 L1252.8653,633.0128 L1252.5809,643.1011 L1252,653.1895 " fill="none" style="stroke:#181818;stroke-width:0.5;stroke-dasharray:5.0,5.0;"/><path d="M1412,88.2422 L1412.2802,88.2422 L1411.4476,98.3305 L1412.2577,108.4189 L1412.5329,118.5072 L1411.0488,128.5956 L1411.8964,138.6839 L1411.4313,148.7723 L1411.4887,158.8606 L1411.9091,168.9489 L1411.0782,179.0373 L1412.7382,189.1256 L1411.1596,199.214 L1411.7363,209.3023 L1412.5759,219.3907 L1411.8856,229.479 L1412.091,239.5673 L1411.9574,249.6557 L1412.238,259.744 L1412.3188,269.8324 L1412.7809,279.9207 L1412.8947,290.0091 L1412.9057,300.0974 L1412.3395,310.1858 L1412.6181,320.2741 L1412.9363,330.3624 L1411.0384,340.4508 L1412.9047,350.5391 L1411.6047,360.6275 L1412.7117,370.7158 L1411.34,380.8042 L1411.9087,390.8925 L1412.9888,400.9809 L1411.935,411.0692 L1412.1404,421.1575 L1412.4515,431.2459 L1412.555,441.3342 L1411.9948,451.4226 L1412.383,461.5109 L1411.2368,471.5993 L1412.3792,481.6876 L1412.7309,491.7759 L1412.5927,501.8643 L1412.8174,511.9526 L1411.3559,522.041 L1411.1304,532.1293 L1411.1715,542.2177 L1411.9215,552.306 L1411.738,562.3944 L1412.9085,572.4827 L1411.7671,582.571 L1411.5426,592.6594 L1412.3044,602.7477 L1411.1109,612.8361 L1411.3078,622.9244 L1412.8653,633.0128 L1412.5809,643.1011 L1412,653.1895 " fill="none" style="stroke:#181818;stroke-width:0.5;stroke-dasharray:5.0,5.0;"/><path d="M1573,88.2422 L1573.2802,88.2422 L1572.4476,98.3305 L1573.2577,108.4189 L1573.5329,118.5072 L1572.0488,128.5956 L1572.8964,138.6839 L1572.4313,148.7723 L1572.4887,158.8606 L1572.9091,168.9489 L1572.0782,179.0373 L1573.7382,189.1256 L1572.1596,199.214 L1572.7363,209.3023 L1573.5759,219.3907 L1572.8856,229.479 L1573.091,239.5673 L1572.9574,249.6557 L1573.238,259.744 L1573.3188,269.8324 L1573.7809,279.9207 L1573.8947,290.0091 L1573.9057,300.0974 L1573.3395,310.1858 L1573.6181,320.2741 L1573.9363,330.3624 L1572.0384,340.4508 L1573.9047,350.5391 L1572.6047,360.6275 L1573.7117,370.7158 L1572.34,380.8042 L1572.9087,390.8925 L1573.9888,400.9809 L1572.935,411.0692 L1573.1404,421.1575 L1573.4515,431.2459 L1573.555,441.3342 L1572.9948,451.4226 L1573.383,461.5109 L1572.2368,471.5993 L1573.3792,481.6876 L1573.7309,491.7759 L1573.5927,501.8643 L1573.8174,511.9526 L1572.3559,522.041 L1572.1304,532.1293 L1572.1715,542.2177 L1572.9215,552.306 L1572.738,562.3944 L1573.9085,572.4827 L1572.7671,582.571 L1572.5426,592.6594 L1573.3044,602.7477 L1572.1109,612.8361 L1572.3078,622.9244 L1573.8653,633.0128 L1573.5809,643.1011 L1573,653.1895 " fill="none" style="stroke:#181818;stroke-width:0.5;stroke-dasharray:5.0,5.0;"/><path d="M1716,88.2422 L1716.2802,88.2422 L1715.4476,98.3305 L1716.2577,108.4189 L1716.5329,118.5072 L1715.0488,128.5956 L1715.8964,138.6839 L1715.4313,148.7723 L1715.4887,158.8606 L1715.9091,168.9489 L1715.0782,179.0373 L1716.7382,189.1256 L1715.1596,199.214 L1715.7363,209.3023 L1716.5759,219.3907 L1715.8856,229.479 L1716.091,239.5673 L1715.9574,249.6557 L1716.238,259.744 L1716.3188,269.8324 L1716.7809,279.9207 L1716.8947,290.0091 L1716.9057,300.0974 L1716.3395,310.1858 L1716.6181,320.2741 L1716.9363,330.3624 L1715.0384,340.4508 L1716.9047,350.5391 L1715.6047,360.6275 L1716.7117,370.7158 L1715.34,380.8042 L1715.9087,390.8925 L1716.9888,400.9809 L1715.935,411.0692 L1716.1404,421.1575 L1716.4515,431.2459 L1716.555,441.3342 L1715.9948,451.4226 L1716.383,461.5109 L1715.2368,471.5993 L1716.3792,481.6876 L1716.7309,491.7759 L1716.5927,501.8643 L1716.8174,511.9526 L1715.3559,522.041 L1715.1304,532.1293 L1715.1715,542.2177 L1715.9215,552.306 L1715.738,562.3944 L1716.9085,572.4827 L1715.7671,582.571 L1715.5426,592.6594 L1716.3044,602.7477 L1715.1109,612.8361 L1715.3078,622.9244 L1716.8653,633.0128 L1716.5809,643.1011 L1716,653.1895 " fill="none" style="stroke:#181818;stroke-width:0.5;stroke-dasharray:5.0,5.0;"/><path d="M1842,88.2422 L1842.2802,88.2422 L1841.4476,98.3305 L1842.2577,108.4189 L1842.5329,118.5072 L1841.0488,128.5956 L1841.8964,138.6839 L1841.4313,148.7723 L1841.4887,158.8606 L1841.9091,168.9489 L1841.0782,179.0373 L1842.7382,189.1256 L1841.1596,199.214 L1841.7363,209.3023 L1842.5759,219.3907 L1841.8856,229.479 L1842.091,239.5673 L1841.9574,249.6557 L1842.238,259.744 L1842.3188,269.8324 L1842.7809,279.9207 L1842.8947,290.0091 L1842.9057,300.0974 L1842.3395,310.1858 L1842.6181,320.2741 L1842.9363,330.3624 L1841.0384,340.4508 L1842.9047,350.5391 L1841.6047,360.6275 L1842.7117,370.7158 L1841.34,380.8042 L1841.9087,390.8925 L1842.9888,400.9809 L1841.935,411.0692 L1842.1404,421.1575 L1842.4515,431.2459 L1842.555,441.3342 L1841.9948,451.4226 L1842.383,461.5109 L1841.2368,471.5993 L1842.3792,481.6876 L1842.7309,491.7759 L1842.5927,501.8643 L1842.8174,511.9526 L1841.3559,522.041 L1841.1304,532.1293 L1841.1715,542.2177 L1841.9215,552.306 L1841.738,562.3944 L1842.9085,572.4827 L1841.7671,582.571 L1841.5426,592.6594 L1842.3044,602.7477 L1841.1109,612.8361 L1841.3078,622.9244 L1842.8653,633.0128 L1842.5809,643.1011 L1842,653.1895 " fill="none" style="stroke:#181818;stroke-width:0.5;stroke-dasharray:5.0,5.0;"/><text fill="#000000" font-family="FG Virgil" font-size="14" lengthAdjust="spacing" textLength="39" x="5" y="84.7285">Admin</text><polygon fill="#E3E3E3" points="35.5442,20.067,34.3715,21.6693,32.9845,24.0162,31.0008,25.5977,28.9163,26.4626,27.2542,26.5377,25.118,25.456,23.1023,24.7494,21.5724,23.3147,20.7699,21.6722,20.2939,20.3644,19.8277,18.6561,19.0709,17.1862,19.6525,15.7509,20.162,14.1787,22.074,12.9353,23.4192,11.3219,25.0843,10.7861,27.0637,10.3248,29.6021,10.5989,30.9924,11.2546,32.6089,11.5518,34.5743,13.5654,35.2595,15.6912,35.5571,17.1417,35.22,19.5319" style="stroke:#181818;stroke-width:0.5;"/><path d="M27.5,26.1211 L27.6868,26.1211 L27.1317,31.5211 L27.6718,36.9211 L27.8553,42.3211 L26.8659,47.7211 L27.5,53.1211 M14.5,34.1211 L14.5,34.052 L19.7,33.742 L24.9,33.7802 L30.1,34.0605 L35.3,33.5065 L40.5,34.1211 M27.5,53.1211 L27.8719,53.4434 L24.4766,55.7542 L22.1672,59.006 L19.9901,62.3726 L17.0424,65.0712 L14.5,68.1211 M27.5,53.1211 L27.5458,53.1608 L30.0785,56.1025 L32.8199,59.225 L35.4606,62.2603 L38.2934,65.4621 L40.5,68.1211 " fill="none" style="stroke:#181818;stroke-width:0.5;"/><text fill="#000000" font-family="FG Virgil" font-size="14" lengthAdjust="spacing" textLength="39" x="5" y="667.2969">Admin</text><polygon fill="#E3E3E3" points="35.5442,681.2565,34.3715,682.8588,32.9845,685.2056,31.0008,686.7872,28.9163,687.6521,27.2542,687.7271,25.118,686.6455,23.1023,685.9389,21.5724,684.5041,20.7699,682.8617,20.2939,681.5538,19.8277,679.8456,19.0709,678.3756,19.6525,676.9404,20.162,675.3682,22.074,674.1247,23.4192,672.5113,25.0843,671.9756,27.0637,671.5142,29.6021,671.7883,30.9924,672.444,32.6089,672.7412,34.5743,674.7549,35.2595,676.8807,35.5571,678.3312,35.22,680.7214" style="stroke:#181818;stroke-width:0.5;"/><path d="M27.5,687.3105 L27.6868,687.3105 L27.1317,692.7105 L27.6718,698.1105 L27.8553,703.5105 L26.8659,708.9105 L27.5,714.3105 M14.5,695.3105 L14.5,695.2415 L19.7,694.9314 L24.9,694.9697 L30.1,695.25 L35.3,694.696 L40.5,695.3105 M27.5,714.3105 L27.8719,714.6329 L24.4766,716.9436 L22.1672,720.1954 L19.9901,723.562 L17.0424,726.2606 L14.5,729.3105 M27.5,714.3105 L27.5458,714.3503 L30.0785,717.2919 L32.8199,720.4145 L35.4606,723.4498 L38.2934,726.6515 L40.5,729.3105 " fill="none" style="stroke:#181818;stroke-width:0.5;"/><polygon fill="#E3E3E3" points="130.5,36,130.5,36.2102,140.7857,35.5857,151.0714,36.1933,161.3571,36.3997,171.6429,35.2866,181.9286,35.9223,192.2143,35.5735,202.5,35.6165,212.7857,35.9318,223.0714,35.3086,233.3571,36.5536,243.6429,35.3697,253.9286,35.8022,264.2143,36.4319,274.5,36,274.4891,35.9736,274.8623,36.1675,275.203,36.2831,275.5834,36.4943,275.9447,36.6594,276.2678,36.7322,276.4481,36.8069,276.6209,37.1714,276.7698,37.526,276.7855,37.8254,276.9963,38.2056,277,38.5,277.7022,38.5,276.2788,47.7484,277.6785,56.9969,276.7035,66.2453,277.5338,75.4938,277,84.7422,276.8476,84.679,276.8325,85.087,276.9355,85.5439,276.5457,85.7966,276.4466,86.1698,276.2678,86.51,276.311,86.6142,275.9673,86.7846,275.5602,86.8016,275.2437,87.0377,274.7805,86.9195,274.5,87.2422,274.5,87.5266,264.2143,87.7904,253.9286,87.6867,243.6429,87.8552,233.3571,86.7591,223.0714,86.59,212.7857,86.6208,202.5,87.1833,192.2143,87.0457,181.9286,87.9236,171.6429,87.0675,161.3571,86.8991,151.0714,87.4705,140.7857,86.5753,130.5,87.2422,130.4338,87.0823,130.2292,87.2956,129.8485,87.0835,129.533,87.029,129.0447,86.5573,128.7322,86.51,128.8305,86.5507,128.7676,86.2317,128.2939,85.7426,128.2634,85.4371,128.1852,85.1118,128,84.7422,128.6518,84.7422,127.9958,75.4938,128.4626,66.2453,127.4462,56.9969,127.3227,47.7484,128,38.5,128.1551,38.5642,127.9257,38.055,128.4496,37.8578,128.503,37.4657,128.5033,37.0516,128.7322,36.7322,128.6871,36.6233,129.1443,36.7271,129.4012,36.3472,129.8684,36.4752,130.0759,35.9762,130.5,36" style="stroke:#181818;stroke-width:0.5;"/><text fill="#000000" font-family="FG Virgil" font-size="14" font-style="italic" lengthAdjust="spacing" textLength="95" x="155" y="58.1074">&#171;presentation&#187;</text><text fill="#000000" font-family="FG Virgil" font-size="14" lengthAdjust="spacing" textLength="135" x="135" y="76.7285">ListBackofficeUsersUI</text><polygon fill="#E3E3E3" points="130.5,652.1895,130.5,652.3996,140.7857,651.7751,151.0714,652.3827,161.3571,652.5891,171.6429,651.4761,181.9286,652.1117,192.2143,651.763,202.5,651.806,212.7857,652.1213,223.0714,651.4981,233.3571,652.7431,243.6429,651.5592,253.9286,651.9917,264.2143,652.6214,274.5,652.1895,274.4891,652.163,274.8623,652.3569,275.203,652.4725,275.5834,652.6838,275.9447,652.8489,276.2678,652.9217,276.4481,652.9964,276.6209,653.3608,276.7698,653.7154,276.7855,654.0148,276.9963,654.395,277,654.6895,277.7022,654.6895,276.2788,663.9379,277.6785,673.1863,276.7035,682.4348,277.5338,691.6832,277,700.9316,276.8476,700.8685,276.8325,701.2765,276.9355,701.7333,276.5457,701.9861,276.4466,702.3593,276.2678,702.6994,276.311,702.8037,275.9673,702.974,275.5602,702.9911,275.2437,703.2272,274.7805,703.1089,274.5,703.4316,274.5,703.716,264.2143,703.9798,253.9286,703.8762,243.6429,704.0447,233.3571,702.9486,223.0714,702.7795,212.7857,702.8102,202.5,703.3728,192.2143,703.2351,181.9286,704.1131,171.6429,703.257,161.3571,703.0886,151.0714,703.6599,140.7857,702.7648,130.5,703.4316,130.4338,703.2718,130.2292,703.485,129.8485,703.2729,129.533,703.2185,129.0447,702.7468,128.7322,702.6994,128.8305,702.7401,128.7676,702.4212,128.2939,701.932,128.2634,701.6265,128.1852,701.3013,128,700.9316,128.6518,700.9316,127.9958,691.6832,128.4626,682.4348,127.4462,673.1863,127.3227,663.9379,128,654.6895,128.1551,654.7537,127.9257,654.2444,128.4496,654.0473,128.503,653.6552,128.5033,653.2411,128.7322,652.9217,128.6871,652.8127,129.1443,652.9165,129.4012,652.5366,129.8684,652.6646,130.0759,652.1657,130.5,652.1895" style="stroke:#181818;stroke-width:0.5;"/><text fill="#000000" font-family="FG Virgil" font-size="14" font-style="italic" lengthAdjust="spacing" textLength="95" x="155" y="674.2969">&#171;presentation&#187;</text><text fill="#000000" font-family="FG Virgil" font-size="14" lengthAdjust="spacing" textLength="135" x="135" y="692.918">ListBackofficeUsersUI</text><polygon fill="#E3E3E3" points="289.5,36,289.5,36.2102,299.7105,35.5857,309.9211,36.1933,320.1316,36.3997,330.3421,35.2866,340.5526,35.9223,350.7632,35.5735,360.9737,35.6165,371.1842,35.9318,381.3947,35.3086,391.6053,36.5536,401.8158,35.3697,412.0263,35.8022,422.2368,36.4319,432.4474,35.9142,442.6579,36.0682,452.8684,35.9681,463.0789,36.1785,473.2895,36.2391,483.5,36,483.5747,36.1804,483.9392,36.3531,484.2938,36.5021,484.5931,36.5178,484.9733,36.7286,485.2678,36.7322,485.484,36.8218,485.1921,36.9938,485.7696,37.5259,485.6158,37.7551,486.0179,38.2145,486,38.5,485.505,38.5,485.9315,47.7484,486.7416,56.9969,485.9513,66.2453,486.1053,75.4938,486,84.7422,486.1043,84.7854,485.9817,85.1488,485.7059,85.4488,485.6491,85.8395,485.2379,86.0834,485.2678,86.51,485.304,86.5975,484.9841,86.8252,484.6174,86.9397,484.2853,87.1381,483.7919,86.947,483.5,87.2422,483.5,86.59,473.2895,86.6208,463.0789,87.1833,452.8684,87.0457,442.6579,87.9236,432.4474,87.0675,422.2368,86.8991,412.0263,87.4705,401.8158,86.5753,391.6053,86.7231,381.3947,87.8911,371.1842,87.6779,360.9737,87.9767,350.7632,86.9204,340.5526,87.5614,330.3421,87.8326,320.1316,86.7698,309.9211,87.1463,299.7105,87.3682,289.5,87.2422,289.5831,87.4429,289.1459,87.0945,288.8519,87.0917,288.3687,86.6323,287.9994,86.4478,287.7322,86.51,287.8873,86.5742,287.365,86.0649,287.5961,85.8678,287.3565,85.4757,287.0639,85.0616,287,84.7422,286.6462,84.7422,287.4588,75.4938,286.7007,66.2453,287.5919,56.9969,286.4473,47.7484,287,38.5,287.1901,38.5788,287.2956,38.2082,287.3683,37.8241,287.4539,37.4454,287.8096,37.1785,287.7322,36.7322,287.8105,36.9212,288.1074,36.6379,288.4736,36.5219,288.7763,36.2528,289.2378,36.3671,289.5,36" style="stroke:#181818;stroke-width:0.5;"/><text fill="#000000" font-family="FG Virgil" font-size="14" font-style="italic" lengthAdjust="spacing" textLength="84" x="344.5" y="58.1074">&#171;application&#187;</text><text fill="#000000" font-family="FG Virgil" font-size="14" lengthAdjust="spacing" textLength="185" x="294" y="76.7285">ListBackofficeUsersController</text><polygon fill="#E3E3E3" points="289.5,652.1895,289.5,652.3996,299.7105,651.7751,309.9211,652.3827,320.1316,652.5891,330.3421,651.4761,340.5526,652.1117,350.7632,651.763,360.9737,651.806,371.1842,652.1213,381.3947,651.4981,391.6053,652.7431,401.8158,651.5592,412.0263,651.9917,422.2368,652.6214,432.4474,652.1037,442.6579,652.2577,452.8684,652.1575,463.0789,652.368,473.2895,652.4286,483.5,652.1895,483.5747,652.3698,483.9392,652.5426,484.2938,652.6915,484.5931,652.7072,484.9733,652.918,485.2678,652.9217,485.484,653.0113,485.1921,653.1832,485.7696,653.7153,485.6158,653.9445,486.0179,654.404,486,654.6895,485.505,654.6895,485.9315,663.9379,486.7416,673.1863,485.9513,682.4348,486.1053,691.6832,486,700.9316,486.1043,700.9748,485.9817,701.3383,485.7059,701.6382,485.6491,702.0289,485.2379,702.2728,485.2678,702.6994,485.304,702.787,484.9841,703.0147,484.6174,703.1292,484.2853,703.3275,483.7919,703.1364,483.5,703.4316,483.5,702.7795,473.2895,702.8102,463.0789,703.3728,452.8684,703.2351,442.6579,704.1131,432.4474,703.257,422.2368,703.0886,412.0263,703.6599,401.8158,702.7648,391.6053,702.9125,381.3947,704.0806,371.1842,703.8673,360.9737,704.1661,350.7632,703.1098,340.5526,703.7508,330.3421,704.0221,320.1316,702.9592,309.9211,703.3358,299.7105,703.5576,289.5,703.4316,289.5831,703.6324,289.1459,703.2839,288.8519,703.2812,288.3687,702.8218,287.9994,702.6373,287.7322,702.6994,287.8873,702.7636,287.365,702.2544,287.5961,702.0572,287.3565,701.6651,287.0639,701.251,287,700.9316,286.6462,700.9316,287.4588,691.6832,286.7007,682.4348,287.5919,673.1863,286.4473,663.9379,287,654.6895,287.1901,654.7682,287.2956,654.3977,287.3683,654.0136,287.4539,653.6348,287.8096,653.3679,287.7322,652.9217,287.8105,653.1106,288.1074,652.8274,288.4736,652.7114,288.7763,652.4422,289.2378,652.5565,289.5,652.1895" style="stroke:#181818;stroke-width:0.5;"/><text fill="#000000" font-family="FG Virgil" font-size="14" font-style="italic" lengthAdjust="spacing" textLength="84" x="344.5" y="674.2969">&#171;application&#187;</text><text fill="#000000" font-family="FG Virgil" font-size="14" lengthAdjust="spacing" textLength="185" x="294" y="692.918">ListBackofficeUsersController</text><polygon fill="#E3E3E3" points="853.5,36,853.5,36.2102,863.3571,35.5857,873.2143,36.1933,883.0714,36.3997,892.9286,35.2866,902.7857,35.9223,912.6429,35.5735,922.5,35.6165,932.3571,35.9318,942.2143,35.3086,952.0714,36.5536,961.9286,35.3697,971.7857,35.8022,981.6429,36.4319,991.5,36,991.4891,35.9736,991.8623,36.1675,992.203,36.2831,992.5834,36.4943,992.9447,36.6594,993.2678,36.7322,993.4481,36.8069,993.6209,37.1714,993.7698,37.526,993.7855,37.8254,993.9963,38.2056,994,38.5,994.7022,38.5,993.2788,47.7484,994.6785,56.9969,993.7035,66.2453,994.5338,75.4938,994,84.7422,993.8476,84.679,993.8325,85.087,993.9355,85.5439,993.5457,85.7966,993.4466,86.1698,993.2678,86.51,993.311,86.6142,992.9673,86.7846,992.5602,86.8016,992.2437,87.0377,991.7805,86.9195,991.5,87.2422,991.5,87.5266,981.6429,87.7904,971.7857,87.6867,961.9286,87.8552,952.0714,86.7591,942.2143,86.59,932.3571,86.6208,922.5,87.1833,912.6429,87.0457,902.7857,87.9236,892.9286,87.0675,883.0714,86.8991,873.2143,87.4705,863.3571,86.5753,853.5,87.2422,853.4338,87.0823,853.2292,87.2956,852.8485,87.0835,852.533,87.029,852.0447,86.5573,851.7322,86.51,851.8305,86.5507,851.7676,86.2317,851.2939,85.7426,851.2634,85.4371,851.1852,85.1118,851,84.7422,851.6518,84.7422,850.9958,75.4938,851.4626,66.2453,850.4462,56.9969,850.3227,47.7484,851,38.5,851.1551,38.5642,850.9257,38.055,851.4496,37.8578,851.503,37.4657,851.5033,37.0516,851.7322,36.7322,851.6871,36.6233,852.1443,36.7271,852.4012,36.3472,852.8684,36.4752,853.0759,35.9762,853.5,36" style="stroke:#181818;stroke-width:0.5;"/><text fill="#000000" font-family="FG Virgil" font-size="14" font-style="italic" lengthAdjust="spacing" textLength="60" x="892.5" y="58.1074">&#171;service&#187;</text><text fill="#000000" font-family="FG Virgil" font-size="14" lengthAdjust="spacing" textLength="129" x="858" y="76.7285">AuthorizationService</text><polygon fill="#E3E3E3" points="853.5,652.1895,853.5,652.3996,863.3571,651.7751,873.2143,652.3827,883.0714,652.5891,892.9286,651.4761,902.7857,652.1117,912.6429,651.763,922.5,651.806,932.3571,652.1213,942.2143,651.4981,952.0714,652.7431,961.9286,651.5592,971.7857,651.9917,981.6429,652.6214,991.5,652.1895,991.4891,652.163,991.8623,652.3569,992.203,652.4725,992.5834,652.6838,992.9447,652.8489,993.2678,652.9217,993.4481,652.9964,993.6209,653.3608,993.7698,653.7154,993.7855,654.0148,993.9963,654.395,994,654.6895,994.7022,654.6895,993.2788,663.9379,994.6785,673.1863,993.7035,682.4348,994.5338,691.6832,994,700.9316,993.8476,700.8685,993.8325,701.2765,993.9355,701.7333,993.5457,701.9861,993.4466,702.3593,993.2678,702.6994,993.311,702.8037,992.9673,702.974,992.5602,702.9911,992.2437,703.2272,991.7805,703.1089,991.5,703.4316,991.5,703.716,981.6429,703.9798,971.7857,703.8762,961.9286,704.0447,952.0714,702.9486,942.2143,702.7795,932.3571,702.8102,922.5,703.3728,912.6429,703.2351,902.7857,704.1131,892.9286,703.257,883.0714,703.0886,873.2143,703.6599,863.3571,702.7648,853.5,703.4316,853.4338,703.2718,853.2292,703.485,852.8485,703.2729,852.533,703.2185,852.0447,702.7468,851.7322,702.6994,851.8305,702.7401,851.7676,702.4212,851.2939,701.932,851.2634,701.6265,851.1852,701.3013,851,700.9316,851.6518,700.9316,850.9958,691.6832,851.4626,682.4348,850.4462,673.1863,850.3227,663.9379,851,654.6895,851.1551,654.7537,850.9257,654.2444,851.4496,654.0473,851.503,653.6552,851.5033,653.2411,851.7322,652.9217,851.6871,652.8127,852.1443,652.9165,852.4012,652.5366,852.8684,652.6646,853.0759,652.1657,853.5,652.1895" style="stroke:#181818;stroke-width:0.5;"/><text fill="#000000" font-family="FG Virgil" font-size="14" font-style="italic" lengthAdjust="spacing" textLength="60" x="892.5" y="674.2969">&#171;service&#187;</text><text fill="#000000" font-family="FG Virgil" font-size="14" lengthAdjust="spacing" textLength="129" x="858" y="692.918">AuthorizationService</text><polygon fill="#E3E3E3" points="1006.5,36,1006.5,36.2102,1016.3235,35.5857,1026.1471,36.1933,1035.9706,36.3997,1045.7941,35.2866,1055.6176,35.9223,1065.4412,35.5735,1075.2647,35.6165,1085.0882,35.9318,1094.9118,35.3086,1104.7353,36.5536,1114.5588,35.3697,1124.3824,35.8022,1134.2059,36.4319,1144.0294,35.9142,1153.8529,36.0682,1163.6765,35.9681,1173.5,36,1173.5228,36.055,1173.8841,36.2201,1174.2818,36.4733,1174.6463,36.646,1175.0009,36.795,1175.2678,36.7322,1175.3462,36.7647,1175.557,37.1449,1175.7769,37.5289,1175.485,37.7009,1176.0625,38.233,1176,38.5,1175.7035,38.5,1176.5338,47.7484,1175.505,56.9969,1175.9315,66.2453,1176.7416,75.4938,1176,84.7422,1175.985,84.736,1175.886,85.1092,1175.8114,85.4925,1175.6888,85.8559,1175.413,86.1559,1175.2678,86.51,1175.3044,86.5984,1174.8412,86.4801,1174.5969,86.8904,1174.277,87.1181,1173.9103,87.2326,1173.5,87.2422,1173.5,87.8552,1163.6765,86.7591,1153.8529,86.59,1144.0294,86.6208,1134.2059,87.1833,1124.3824,87.0457,1114.5588,87.9236,1104.7353,87.0675,1094.9118,86.8991,1085.0882,87.4705,1075.2647,86.5753,1065.4412,86.7231,1055.6176,87.8911,1045.7941,87.6779,1035.9706,87.9767,1026.1471,86.9204,1016.3235,87.5614,1006.5,87.2422,1006.5753,87.424,1006.0862,86.9503,1005.7807,86.9198,1005.4554,86.8416,1005.1689,86.8571,1004.7322,86.51,1004.7309,86.5094,1004.7282,86.2154,1004.2688,85.7322,1004.0843,85.3629,1004.3015,85.16,1004,84.7422,1003.2831,84.7422,1004.509,75.4938,1004.2066,66.2453,1003.7321,56.9969,1003.6462,47.7484,1004,38.5,1004.1413,38.5585,1004.0543,38.1083,1004.4752,37.8684,1004.2691,37.3688,1004.7759,37.1645,1004.7322,36.7322,1004.794,36.8814,1005.117,36.6612,1005.4454,36.4539,1005.8856,36.5167,1006.2247,36.3354,1006.5,36" style="stroke:#181818;stroke-width:0.5;"/><text fill="#000000" font-family="FG Virgil" font-size="14" font-style="italic" lengthAdjust="spacing" textLength="60" x="1060" y="58.1074">&#171;service&#187;</text><text fill="#000000" font-family="FG Virgil" font-size="14" lengthAdjust="spacing" textLength="158" x="1011" y="76.7285">UserManagementService</text><polygon fill="#E3E3E3" points="1006.5,652.1895,1006.5,652.3996,1016.3235,651.7751,1026.1471,652.3827,1035.9706,652.5891,1045.7941,651.4761,1055.6176,652.1117,1065.4412,651.763,1075.2647,651.806,1085.0882,652.1213,1094.9118,651.4981,1104.7353,652.7431,1114.5588,651.5592,1124.3824,651.9917,1134.2059,652.6214,1144.0294,652.1037,1153.8529,652.2577,1163.6765,652.1575,1173.5,652.1895,1173.5228,652.2444,1173.8841,652.4095,1174.2818,652.6627,1174.6463,652.8355,1175.0009,652.9844,1175.2678,652.9217,1175.3462,652.9542,1175.557,653.3344,1175.7769,653.7184,1175.485,653.8904,1176.0625,654.4225,1176,654.6895,1175.7035,654.6895,1176.5338,663.9379,1175.505,673.1863,1175.9315,682.4348,1176.7416,691.6832,1176,700.9316,1175.985,700.9254,1175.886,701.2986,1175.8114,701.6819,1175.6888,702.0454,1175.413,702.3454,1175.2678,702.6994,1175.3044,702.7879,1174.8412,702.6696,1174.5969,703.0799,1174.277,703.3076,1173.9103,703.4221,1173.5,703.4316,1173.5,704.0447,1163.6765,702.9486,1153.8529,702.7795,1144.0294,702.8102,1134.2059,703.3728,1124.3824,703.2351,1114.5588,704.1131,1104.7353,703.257,1094.9118,703.0886,1085.0882,703.6599,1075.2647,702.7648,1065.4412,702.9125,1055.6176,704.0806,1045.7941,703.8673,1035.9706,704.1661,1026.1471,703.1098,1016.3235,703.7508,1006.5,703.4316,1006.5753,703.6135,1006.0862,703.1397,1005.7807,703.1092,1005.4554,703.0311,1005.1689,703.0466,1004.7322,702.6994,1004.7309,702.6989,1004.7282,702.4049,1004.2688,701.9217,1004.0843,701.5524,1004.3015,701.3494,1004,700.9316,1003.2831,700.9316,1004.509,691.6832,1004.2066,682.4348,1003.7321,673.1863,1003.6462,663.9379,1004,654.6895,1004.1413,654.748,1004.0543,654.2977,1004.4752,654.0578,1004.2691,653.5583,1004.7759,653.354,1004.7322,652.9217,1004.794,653.0708,1005.117,652.8507,1005.4454,652.6433,1005.8856,652.7061,1006.2247,652.5249,1006.5,652.1895" style="stroke:#181818;stroke-width:0.5;"/><text fill="#000000" font-family="FG Virgil" font-size="14" font-style="italic" lengthAdjust="spacing" textLength="60" x="1060" y="674.2969">&#171;service&#187;</text><text fill="#000000" font-family="FG Virgil" font-size="14" lengthAdjust="spacing" textLength="158" x="1011" y="692.918">UserManagementService</text><polygon fill="#E3E3E3" points="1188.5,36,1188.5,36.2102,1198.3462,35.5857,1208.1923,36.1933,1218.0385,36.3997,1227.8846,35.2866,1237.7308,35.9223,1247.5769,35.5735,1257.4231,35.6165,1267.2692,35.9318,1277.1154,35.3086,1286.9615,36.5536,1296.8077,35.3697,1306.6538,35.8022,1316.5,36,1316.5551,36.133,1316.8426,36.12,1317.2158,36.3139,1317.5566,36.4295,1317.937,36.6408,1318.2678,36.7322,1318.3414,36.7627,1318.5946,37.1605,1318.7673,37.5249,1318.9163,37.8795,1318.932,38.1789,1319,38.5,1319.4636,38.5,1319.7022,47.7484,1318.2788,56.9969,1319.6785,66.2453,1318.7035,75.4938,1319,84.7422,1319.1644,84.8103,1318.7011,85.0326,1318.686,85.4406,1318.789,85.8974,1318.3992,86.1502,1318.2678,86.51,1318.2812,86.5424,1317.9574,86.7607,1317.6138,86.931,1317.2066,86.9481,1316.8902,87.1842,1316.5,87.2422,1316.5,86.6698,1306.6538,87.5266,1296.8077,87.7904,1286.9615,87.6867,1277.1154,87.8552,1267.2692,86.7591,1257.4231,86.59,1247.5769,86.6208,1237.7308,87.1833,1227.8846,87.0457,1218.0385,87.9236,1208.1923,87.0675,1198.3462,86.8991,1188.5,87.2422,1188.5291,87.3125,1188.0614,86.8904,1187.7267,86.7894,1187.5221,87.0027,1187.1414,86.7906,1186.7322,86.51,1186.9584,86.6036,1186.4867,86.1154,1186.5376,85.8436,1186.4747,85.5246,1186.001,85.0355,1186,84.7422,1185.9041,84.7422,1186.126,75.4938,1186.6518,66.2453,1185.9958,56.9969,1186.4626,47.7484,1186,38.5,1185.8295,38.4294,1185.9379,38.0601,1186.448,37.8571,1186.2186,37.3479,1186.7425,37.1507,1186.7322,36.7322,1186.7586,36.7959,1187.0516,36.5033,1187.3942,36.3304,1187.8514,36.4342,1188.1083,36.0543,1188.5,36" style="stroke:#181818;stroke-width:0.5;"/><text fill="#000000" font-family="FG Virgil" font-size="14" font-style="italic" lengthAdjust="spacing" textLength="59" x="1223" y="58.1074">&#171;builder&#187;</text><text fill="#000000" font-family="FG Virgil" font-size="14" lengthAdjust="spacing" textLength="119" x="1193" y="76.7285">SystemUserBuilder</text><polygon fill="#E3E3E3" points="1188.5,652.1895,1188.5,652.3996,1198.3462,651.7751,1208.1923,652.3827,1218.0385,652.5891,1227.8846,651.4761,1237.7308,652.1117,1247.5769,651.763,1257.4231,651.806,1267.2692,652.1213,1277.1154,651.4981,1286.9615,652.7431,1296.8077,651.5592,1306.6538,651.9917,1316.5,652.1895,1316.5551,652.3225,1316.8426,652.3095,1317.2158,652.5034,1317.5566,652.619,1317.937,652.8302,1318.2678,652.9217,1318.3414,652.9522,1318.5946,653.35,1318.7673,653.7144,1318.9163,654.069,1318.932,654.3684,1319,654.6895,1319.4636,654.6895,1319.7022,663.9379,1318.2788,673.1863,1319.6785,682.4348,1318.7035,691.6832,1319,700.9316,1319.1644,700.9997,1318.7011,701.222,1318.686,701.63,1318.789,702.0869,1318.3992,702.3396,1318.2678,702.6994,1318.2812,702.7318,1317.9574,702.9501,1317.6138,703.1205,1317.2066,703.1375,1316.8902,703.3736,1316.5,703.4316,1316.5,702.8592,1306.6538,703.716,1296.8077,703.9798,1286.9615,703.8762,1277.1154,704.0447,1267.2692,702.9486,1257.4231,702.7795,1247.5769,702.8102,1237.7308,703.3728,1227.8846,703.2351,1218.0385,704.1131,1208.1923,703.257,1198.3462,703.0886,1188.5,703.4316,1188.5291,703.5019,1188.0614,703.0798,1187.7267,702.9789,1187.5221,703.1922,1187.1414,702.98,1186.7322,702.6994,1186.9584,702.7931,1186.4867,702.3048,1186.5376,702.033,1186.4747,701.7141,1186.001,701.2249,1186,700.9316,1185.9041,700.9316,1186.126,691.6832,1186.6518,682.4348,1185.9958,673.1863,1186.4626,663.9379,1186,654.6895,1185.8295,654.6188,1185.9379,654.2495,1186.448,654.0466,1186.2186,653.5373,1186.7425,653.3402,1186.7322,652.9217,1186.7586,652.9853,1187.0516,652.6927,1187.3942,652.5198,1187.8514,652.6236,1188.1083,652.2437,1188.5,652.1895" style="stroke:#181818;stroke-width:0.5;"/><text fill="#000000" font-family="FG Virgil" font-size="14" font-style="italic" lengthAdjust="spacing" textLength="59" x="1223" y="674.2969">&#171;builder&#187;</text><text fill="#000000" font-family="FG Virgil" font-size="14" lengthAdjust="spacing" textLength="119" x="1193" y="692.918">SystemUserBuilder</text><polygon fill="#E3E3E3" points="1331.5,36,1331.5,36.2102,1341.5625,35.5857,1351.625,36.1933,1361.6875,36.3997,1371.75,35.2866,1381.8125,35.9223,1391.875,35.5735,1401.9375,35.6165,1412,35.9318,1422.0625,35.3086,1432.125,36.5536,1442.1875,35.3697,1452.25,35.8022,1462.3125,36.4319,1472.375,35.9142,1482.4375,36.0682,1492.5,36,1492.4959,35.9902,1492.8763,36.2014,1493.2376,36.3665,1493.6354,36.6197,1493.9998,36.7924,1494.2678,36.7322,1494.477,36.8189,1494.4926,37.1183,1494.7034,37.4985,1494.9234,37.8825,1494.6315,38.0545,1495,38.5,1495.6785,38.5,1494.7035,47.7484,1495.5338,56.9969,1494.505,66.2453,1494.9315,75.4938,1495,84.7422,1495.2284,84.8368,1494.8385,85.0895,1494.7395,85.4627,1494.6649,85.846,1494.5424,86.2095,1494.2678,86.51,1494.2673,86.5088,1493.9509,86.7449,1493.4876,86.6266,1493.2434,87.0369,1492.9235,87.2646,1492.5,87.2422,1492.5,87.6867,1482.4375,87.8552,1472.375,86.7591,1462.3125,86.59,1452.25,86.6208,1442.1875,87.1833,1432.125,87.0457,1422.0625,87.9236,1412,87.0675,1401.9375,86.8991,1391.875,87.4705,1381.8125,86.5753,1371.75,86.7231,1361.6875,87.8911,1351.625,87.6779,1341.5625,87.9767,1331.5,87.2422,1331.459,87.1431,1331.1872,87.194,1330.8682,87.1311,1330.3791,86.6574,1330.0736,86.6269,1329.7322,86.51,1329.771,86.526,1329.7865,86.2395,1329.438,85.8023,1329.4353,85.5083,1328.9759,85.0251,1329,84.7422,1328.3227,84.7422,1329.5036,75.4938,1328.2831,66.2453,1329.509,56.9969,1329.2066,47.7484,1329,38.5,1328.9175,38.4658,1329.0375,38.1013,1329.4342,37.8514,1329.3472,37.4012,1329.7681,37.1613,1329.7322,36.7322,1329.6617,36.562,1330.1645,36.7759,1330.5011,36.5885,1330.8241,36.3683,1331.1525,36.161,1331.5,36" style="stroke:#181818;stroke-width:0.5;"/><text fill="#000000" font-family="FG Virgil" font-size="14" font-style="italic" lengthAdjust="spacing" textLength="62" x="1381" y="58.1074">&#171;domain&#187;</text><text fill="#000000" font-family="FG Virgil" font-size="14" lengthAdjust="spacing" textLength="152" x="1336" y="76.7285">systemUser:SystemUser</text><polygon fill="#E3E3E3" points="1331.5,652.1895,1331.5,652.3996,1341.5625,651.7751,1351.625,652.3827,1361.6875,652.5891,1371.75,651.4761,1381.8125,652.1117,1391.875,651.763,1401.9375,651.806,1412,652.1213,1422.0625,651.4981,1432.125,652.7431,1442.1875,651.5592,1452.25,651.9917,1462.3125,652.6214,1472.375,652.1037,1482.4375,652.2577,1492.5,652.1895,1492.4959,652.1796,1492.8763,652.3909,1493.2376,652.556,1493.6354,652.8092,1493.9998,652.9819,1494.2678,652.9217,1494.477,653.0083,1494.4926,653.3077,1494.7034,653.6879,1494.9234,654.0719,1494.6315,654.2439,1495,654.6895,1495.6785,654.6895,1494.7035,663.9379,1495.5338,673.1863,1494.505,682.4348,1494.9315,691.6832,1495,700.9316,1495.2284,701.0262,1494.8385,701.279,1494.7395,701.6522,1494.6649,702.0355,1494.5424,702.3989,1494.2678,702.6994,1494.2673,702.6982,1493.9509,702.9343,1493.4876,702.816,1493.2434,703.2263,1492.9235,703.454,1492.5,703.4316,1492.5,703.8762,1482.4375,704.0447,1472.375,702.9486,1462.3125,702.7795,1452.25,702.8102,1442.1875,703.3728,1432.125,703.2351,1422.0625,704.1131,1412,703.257,1401.9375,703.0886,1391.875,703.6599,1381.8125,702.7648,1371.75,702.9125,1361.6875,704.0806,1351.625,703.8673,1341.5625,704.1661,1331.5,703.4316,1331.459,703.3325,1331.1872,703.3835,1330.8682,703.3206,1330.3791,702.8468,1330.0736,702.8163,1329.7322,702.6994,1329.771,702.7155,1329.7865,702.429,1329.438,701.9918,1329.4353,701.6978,1328.9759,701.2146,1329,700.9316,1328.3227,700.9316,1329.5036,691.6832,1328.2831,682.4348,1329.509,673.1863,1329.2066,663.9379,1329,654.6895,1328.9175,654.6553,1329.0375,654.2908,1329.4342,654.0409,1329.3472,653.5906,1329.7681,653.3507,1329.7322,652.9217,1329.6617,652.7515,1330.1645,652.9654,1330.5011,652.7779,1330.8241,652.5578,1331.1525,652.3504,1331.5,652.1895" style="stroke:#181818;stroke-width:0.5;"/><text fill="#000000" font-family="FG Virgil" font-size="14" font-style="italic" lengthAdjust="spacing" textLength="62" x="1381" y="674.2969">&#171;domain&#187;</text><text fill="#000000" font-family="FG Virgil" font-size="14" lengthAdjust="spacing" textLength="152" x="1336" y="692.918">systemUser:SystemUser</text><polygon fill="#E3E3E3" points="1507.5,36,1507.5,36.2102,1517.5769,35.5857,1527.6538,36.1933,1537.7308,36.3997,1547.8077,35.2866,1557.8846,35.9223,1567.9615,35.5735,1578.0385,35.6165,1588.1154,35.9318,1598.1923,35.3086,1608.2692,36.5536,1618.3462,35.3697,1628.4231,35.8022,1638.5,36,1638.5551,36.133,1638.8426,36.12,1639.2158,36.3139,1639.5566,36.4295,1639.937,36.6408,1640.2678,36.7322,1640.3414,36.7627,1640.5946,37.1605,1640.7673,37.5249,1640.9163,37.8795,1640.932,38.1789,1641,38.5,1641.4636,38.5,1641.7022,47.7484,1640.2788,56.9969,1641.6785,66.2453,1640.7035,75.4938,1641,84.7422,1641.1644,84.8103,1640.7011,85.0326,1640.686,85.4406,1640.789,85.8974,1640.3992,86.1502,1640.2678,86.51,1640.2812,86.5424,1639.9574,86.7607,1639.6138,86.931,1639.2066,86.9481,1638.8902,87.1842,1638.5,87.2422,1638.5,86.6698,1628.4231,87.5266,1618.3462,87.7904,1608.2692,87.6867,1598.1923,87.8552,1588.1154,86.7591,1578.0385,86.59,1567.9615,86.6208,1557.8846,87.1833,1547.8077,87.0457,1537.7308,87.9236,1527.6538,87.0675,1517.5769,86.8991,1507.5,87.2422,1507.5291,87.3125,1507.0614,86.8904,1506.7267,86.7894,1506.5221,87.0027,1506.1414,86.7906,1505.7322,86.51,1505.9584,86.6036,1505.4867,86.1154,1505.5376,85.8436,1505.4747,85.5246,1505.001,85.0355,1505,84.7422,1504.9041,84.7422,1505.126,75.4938,1505.6518,66.2453,1504.9958,56.9969,1505.4626,47.7484,1505,38.5,1504.8295,38.4294,1504.9379,38.0601,1505.448,37.8571,1505.2186,37.3479,1505.7425,37.1507,1505.7322,36.7322,1505.7586,36.7959,1506.0516,36.5033,1506.3942,36.3304,1506.8514,36.4342,1507.1083,36.0543,1507.5,36" style="stroke:#181818;stroke-width:0.5;"/><text fill="#000000" font-family="FG Virgil" font-size="14" font-style="italic" lengthAdjust="spacing" textLength="89" x="1528.5" y="58.1074">&#171;persistence&#187;</text><text fill="#000000" font-family="FG Virgil" font-size="14" lengthAdjust="spacing" textLength="122" x="1512" y="76.7285">PersistenceContext</text><polygon fill="#E3E3E3" points="1507.5,652.1895,1507.5,652.3996,1517.5769,651.7751,1527.6538,652.3827,1537.7308,652.5891,1547.8077,651.4761,1557.8846,652.1117,1567.9615,651.763,1578.0385,651.806,1588.1154,652.1213,1598.1923,651.4981,1608.2692,652.7431,1618.3462,651.5592,1628.4231,651.9917,1638.5,652.1895,1638.5551,652.3225,1638.8426,652.3095,1639.2158,652.5034,1639.5566,652.619,1639.937,652.8302,1640.2678,652.9217,1640.3414,652.9522,1640.5946,653.35,1640.7673,653.7144,1640.9163,654.069,1640.932,654.3684,1641,654.6895,1641.4636,654.6895,1641.7022,663.9379,1640.2788,673.1863,1641.6785,682.4348,1640.7035,691.6832,1641,700.9316,1641.1644,700.9997,1640.7011,701.222,1640.686,701.63,1640.789,702.0869,1640.3992,702.3396,1640.2678,702.6994,1640.2812,702.7318,1639.9574,702.9501,1639.6138,703.1205,1639.2066,703.1375,1638.8902,703.3736,1638.5,703.4316,1638.5,702.8592,1628.4231,703.716,1618.3462,703.9798,1608.2692,703.8762,1598.1923,704.0447,1588.1154,702.9486,1578.0385,702.7795,1567.9615,702.8102,1557.8846,703.3728,1547.8077,703.2351,1537.7308,704.1131,1527.6538,703.257,1517.5769,703.0886,1507.5,703.4316,1507.5291,703.5019,1507.0614,703.0798,1506.7267,702.9789,1506.5221,703.1922,1506.1414,702.98,1505.7322,702.6994,1505.9584,702.7931,1505.4867,702.3048,1505.5376,702.033,1505.4747,701.7141,1505.001,701.2249,1505,700.9316,1504.9041,700.9316,1505.126,691.6832,1505.6518,682.4348,1504.9958,673.1863,1505.4626,663.9379,1505,654.6895,1504.8295,654.6188,1504.9379,654.2495,1505.448,654.0466,1505.2186,653.5373,1505.7425,653.3402,1505.7322,652.9217,1505.7586,652.9853,1506.0516,652.6927,1506.3942,652.5198,1506.8514,652.6236,1507.1083,652.2437,1507.5,652.1895" style="stroke:#181818;stroke-width:0.5;"/><text fill="#000000" font-family="FG Virgil" font-size="14" font-style="italic" lengthAdjust="spacing" textLength="89" x="1528.5" y="674.2969">&#171;persistence&#187;</text><text fill="#000000" font-family="FG Virgil" font-size="14" lengthAdjust="spacing" textLength="122" x="1512" y="692.918">PersistenceContext</text><polygon fill="#E3E3E3" points="1653.5,36,1653.5,36.2102,1663.1154,35.5857,1672.7308,36.1933,1682.3462,36.3997,1691.9615,35.2866,1701.5769,35.9223,1711.1923,35.5735,1720.8077,35.6165,1730.4231,35.9318,1740.0385,35.3086,1749.6538,36.5536,1759.2692,35.3697,1768.8846,35.8022,1778.5,36,1778.5551,36.133,1778.8426,36.12,1779.2158,36.3139,1779.5566,36.4295,1779.937,36.6408,1780.2678,36.7322,1780.3414,36.7627,1780.5946,37.1605,1780.7673,37.5249,1780.9163,37.8795,1780.932,38.1789,1781,38.5,1781.4636,38.5,1781.7022,47.7484,1780.2788,56.9969,1781.6785,66.2453,1780.7035,75.4938,1781,84.7422,1781.1644,84.8103,1780.7011,85.0326,1780.686,85.4406,1780.789,85.8974,1780.3992,86.1502,1780.2678,86.51,1780.2812,86.5424,1779.9574,86.7607,1779.6138,86.931,1779.2066,86.9481,1778.8902,87.1842,1778.5,87.2422,1778.5,86.6698,1768.8846,87.5266,1759.2692,87.7904,1749.6538,87.6867,1740.0385,87.8552,1730.4231,86.7591,1720.8077,86.59,1711.1923,86.6208,1701.5769,87.1833,1691.9615,87.0457,1682.3462,87.9236,1672.7308,87.0675,1663.1154,86.8991,1653.5,87.2422,1653.5291,87.3125,1653.0614,86.8904,1652.7267,86.7894,1652.5221,87.0027,1652.1414,86.7906,1651.7322,86.51,1651.9584,86.6036,1651.4867,86.1154,1651.5376,85.8436,1651.4747,85.5246,1651.001,85.0355,1651,84.7422,1650.9041,84.7422,1651.126,75.4938,1651.6518,66.2453,1650.9958,56.9969,1651.4626,47.7484,1651,38.5,1650.8295,38.4294,1650.9379,38.0601,1651.448,37.8571,1651.2186,37.3479,1651.7425,37.1507,1651.7322,36.7322,1651.7586,36.7959,1652.0516,36.5033,1652.3942,36.3304,1652.8514,36.4342,1653.1083,36.0543,1653.5,36" style="stroke:#181818;stroke-width:0.5;"/><text fill="#000000" font-family="FG Virgil" font-size="14" font-style="italic" lengthAdjust="spacing" textLength="59" x="1686.5" y="58.1074">&#171;factory&#187;</text><text fill="#000000" font-family="FG Virgil" font-size="14" lengthAdjust="spacing" textLength="116" x="1658" y="76.7285">RepositoryFactory</text><polygon fill="#E3E3E3" points="1653.5,652.1895,1653.5,652.3996,1663.1154,651.7751,1672.7308,652.3827,1682.3462,652.5891,1691.9615,651.4761,1701.5769,652.1117,1711.1923,651.763,1720.8077,651.806,1730.4231,652.1213,1740.0385,651.4981,1749.6538,652.7431,1759.2692,651.5592,1768.8846,651.9917,1778.5,652.1895,1778.5551,652.3225,1778.8426,652.3095,1779.2158,652.5034,1779.5566,652.619,1779.937,652.8302,1780.2678,652.9217,1780.3414,652.9522,1780.5946,653.35,1780.7673,653.7144,1780.9163,654.069,1780.932,654.3684,1781,654.6895,1781.4636,654.6895,1781.7022,663.9379,1780.2788,673.1863,1781.6785,682.4348,1780.7035,691.6832,1781,700.9316,1781.1644,700.9997,1780.7011,701.222,1780.686,701.63,1780.789,702.0869,1780.3992,702.3396,1780.2678,702.6994,1780.2812,702.7318,1779.9574,702.9501,1779.6138,703.1205,1779.2066,703.1375,1778.8902,703.3736,1778.5,703.4316,1778.5,702.8592,1768.8846,703.716,1759.2692,703.9798,1749.6538,703.8762,1740.0385,704.0447,1730.4231,702.9486,1720.8077,702.7795,1711.1923,702.8102,1701.5769,703.3728,1691.9615,703.2351,1682.3462,704.1131,1672.7308,703.257,1663.1154,703.0886,1653.5,703.4316,1653.5291,703.5019,1653.0614,703.0798,1652.7267,702.9789,1652.5221,703.1922,1652.1414,702.98,1651.7322,702.6994,1651.9584,702.7931,1651.4867,702.3048,1651.5376,702.033,1651.4747,701.7141,1651.001,701.2249,1651,700.9316,1650.9041,700.9316,1651.126,691.6832,1651.6518,682.4348,1650.9958,673.1863,1651.4626,663.9379,1651,654.6895,1650.8295,654.6188,1650.9379,654.2495,1651.448,654.0466,1651.2186,653.5373,1651.7425,653.3402,1651.7322,652.9217,1651.7586,652.9853,1652.0516,652.6927,1652.3942,652.5198,1652.8514,652.6236,1653.1083,652.2437,1653.5,652.1895" style="stroke:#181818;stroke-width:0.5;"/><text fill="#000000" font-family="FG Virgil" font-size="14" font-style="italic" lengthAdjust="spacing" textLength="59" x="1686.5" y="674.2969">&#171;factory&#187;</text><text fill="#000000" font-family="FG Virgil" font-size="14" lengthAdjust="spacing" textLength="116" x="1658" y="692.918">RepositoryFactory</text><text fill="#000000" font-family="FG Virgil" font-size="14" font-style="italic" lengthAdjust="spacing" textLength="79" x="1800" y="66.1074">&#171;repository&#187;</text><text fill="#000000" font-family="FG Virgil" font-size="14" lengthAdjust="spacing" textLength="97" x="1791" y="84.7285">UserRepository</text><path d="M1824.5,15 L1824.5,15 L1824.5651,15.067 L1826.1716,13.118 L1828.1599,11.5616 L1830.0238,9.8774 L1831.479,7.7727 L1833.5,6.25 L1833.4952,6.2158 L1835.2739,5.8122 L1837.0766,5.5812 L1838.8958,5.47 L1840.6577,4.9456 L1842.5,5 L1842.5,5 L1842.5339,5.2437 L1844.2615,4.9725 L1846.0879,5.4129 L1847.9264,5.9402 L1849.6948,5.9622 L1851.5,6.25 L1851.5211,6.2717 L1853.2901,7.9898 L1855.1553,9.8069 L1856.9741,11.5762 L1858.8815,13.4366 L1860.5,15 L1861.0965,15 L1861.1038,20.2 L1860.7263,25.4 L1860.9121,30.6 L1861.1242,35.8 L1860.5,41 L1860.5,41 L1860.2766,40.7702 L1858.9102,42.9662 L1856.8081,44.4055 L1855.2654,46.4201 L1853.1466,47.8423 L1851.5,49.75 L1851.4958,49.7198 L1849.7453,50.3265 L1847.897,50.2285 L1846.1064,50.5464 L1844.3207,50.8991 L1842.5,51 L1842.5,51 L1842.5254,51.1832 L1840.6998,50.7483 L1838.9176,50.6264 L1837.065,49.998 L1835.3174,50.1252 L1833.5,49.75 L1833.6698,49.9247 L1831.8377,48.1417 L1830.0899,46.4453 L1827.9503,44.3461 L1826.0979,42.5422 L1824.5,41 L1823.9476,41 L1824.4477,35.8 L1824.3253,30.6 L1825.1057,25.4 L1824.3447,20.2 L1824.5,15 " fill="#E3E3E3" style="stroke:#181818;stroke-width:1.5;"/><path d="M1824.5,15 L1824.5,15 L1824.5651,15.067 L1826.1716,16.618 L1828.1599,18.5616 L1830.0238,20.3774 L1831.479,21.7727 L1833.5,23.75 L1833.4952,23.7158 L1835.2739,23.8122 L1837.0766,24.0812 L1838.8958,24.47 L1840.6577,24.4456 L1842.5,25 L1842.5,25 L1842.5339,25.2437 L1844.2615,24.4725 L1846.0879,24.4129 L1847.9264,24.4402 L1849.6948,23.9622 L1851.5,23.75 L1851.5211,23.7717 L1853.2901,21.9898 L1855.1553,20.3069 L1856.9741,18.5762 L1858.8815,16.9366 L1860.5,15 " fill="none" style="stroke:#181818;stroke-width:1.5;"/><text fill="#000000" font-family="FG Virgil" font-size="14" font-style="italic" lengthAdjust="spacing" textLength="79" x="1800" y="667.2969">&#171;repository&#187;</text><text fill="#000000" font-family="FG Virgil" font-size="14" lengthAdjust="spacing" textLength="97" x="1791" y="685.918">UserRepository</text><path d="M1824.5,699.4316 L1824.5,699.4316 L1824.5651,699.4986 L1826.1716,697.5496 L1828.1599,695.9932 L1830.0238,694.309 L1831.479,692.2043 L1833.5,690.6816 L1833.4952,690.6474 L1835.2739,690.2439 L1837.0766,690.0128 L1838.8958,689.9016 L1840.6577,689.3773 L1842.5,689.4316 L1842.5,689.4316 L1842.5339,689.6754 L1844.2615,689.4042 L1846.0879,689.8446 L1847.9264,690.3718 L1849.6948,690.3939 L1851.5,690.6816 L1851.5211,690.7034 L1853.2901,692.4215 L1855.1553,694.2385 L1856.9741,696.0078 L1858.8815,697.8683 L1860.5,699.4316 L1861.0965,699.4316 L1861.1038,704.6316 L1860.7263,709.8316 L1860.9121,715.0316 L1861.1242,720.2316 L1860.5,725.4316 L1860.5,725.4316 L1860.2766,725.2018 L1858.9102,727.3979 L1856.8081,728.8372 L1855.2654,730.8517 L1853.1466,732.2739 L1851.5,734.1816 L1851.4958,734.1515 L1849.7453,734.7581 L1847.897,734.6602 L1846.1064,734.978 L1844.3207,735.3307 L1842.5,735.4316 L1842.5,735.4316 L1842.5254,735.6149 L1840.6998,735.1799 L1838.9176,735.0581 L1837.065,734.4297 L1835.3174,734.5568 L1833.5,734.1816 L1833.6698,734.3563 L1831.8377,732.5733 L1830.0899,730.877 L1827.9503,728.7777 L1826.0979,726.9738 L1824.5,725.4316 L1823.9476,725.4316 L1824.4477,720.2316 L1824.3253,715.0316 L1825.1057,709.8316 L1824.3447,704.6316 L1824.5,699.4316 " fill="#E3E3E3" style="stroke:#181818;stroke-width:1.5;"/><path d="M1824.5,699.4316 L1824.5,699.4316 L1824.5651,699.4986 L1826.1716,701.0496 L1828.1599,702.9932 L1830.0238,704.809 L1831.479,706.2043 L1833.5,708.1816 L1833.4952,708.1474 L1835.2739,708.2439 L1837.0766,708.5128 L1838.8958,708.9016 L1840.6577,708.8773 L1842.5,709.4316 L1842.5,709.4316 L1842.5339,709.6754 L1844.2615,708.9042 L1846.0879,708.8446 L1847.9264,708.8718 L1849.6948,708.3939 L1851.5,708.1816 L1851.5211,708.2034 L1853.2901,706.4215 L1855.1553,704.7385 L1856.9741,703.0078 L1858.8815,701.3683 L1860.5,699.4316 " fill="none" style="stroke:#181818;stroke-width:1.5;"/><polygon fill="#FFFFFF" points="22.5,121.5332,22.5,121.6033,24.5,121.3951,26.5,121.5976,28.5,121.6664,30.5,121.2954,32.5,121.5332,32.4223,121.5332,32.0735,131.6049,32.1165,141.6766,32.4318,151.7483,31.8086,161.82,33.0536,171.8917,31.8697,181.9634,32.3022,192.035,32.9319,202.1067,32.4142,212.1784,32.5682,222.2501,32.4681,232.3218,32.6785,242.3935,32.7391,252.4652,33.0857,262.5369,33.1711,272.6086,33.1793,282.6803,32.7546,292.752,32.9636,302.8236,33.2022,312.8953,31.7788,322.967,33.1785,333.0387,32.2035,343.1104,33.0338,353.1821,32.005,363.2538,32.4315,373.3255,33.2416,383.3972,32.4513,393.4689,32.6053,403.5406,32.8386,413.6122,32.9162,423.6839,32.4961,433.7556,32.7872,443.8273,31.9276,453.899,32.7844,463.9707,33.0482,474.0424,32.9445,484.1141,33.113,494.1858,32.0169,504.2575,31.8478,514.3292,31.8786,524.4009,32.4411,534.4725,32.3035,544.5442,33.1814,554.6159,32.3253,564.6876,32.1569,574.7593,32.7283,584.831,31.8332,594.9027,31.9809,604.9744,33.149,615.0461,32.9357,625.1178,32.5,635.1895,32.5,635.4343,30.5,635.0822,28.5,635.2959,26.5,635.3863,24.5,635.032,22.5,635.1895,22.4041,635.1895,22.626,625.1178,23.1518,615.0461,22.4958,604.9744,22.9626,594.9027,21.9462,584.831,21.8227,574.7593,23.0036,564.6876,21.7831,554.6159,23.009,544.5442,22.7066,534.4725,22.2321,524.4009,22.1462,514.3292,22.9588,504.2575,22.2007,494.1858,23.0919,484.1141,21.9473,474.0424,23.1174,463.9707,22.9843,453.899,22.745,443.8273,22.5472,433.7556,23.2266,423.6839,23.1136,413.6122,22.6693,403.5406,22.7682,393.4689,22.3697,383.3972,23.2165,373.3255,22.6549,363.2538,22.6726,353.1821,21.8916,343.1104,22.0948,333.0387,23.0307,322.967,22.9298,312.8953,22.4571,302.8236,22.1778,292.752,22.2811,282.6803,21.8138,272.6086,22.9147,262.5369,23.2396,252.4652,23.0264,242.3935,23.1949,232.3218,22.3633,222.2501,22.5872,212.1784,22.1124,202.1067,22.784,192.035,22.7468,181.9634,23.0524,171.8917,22.2703,161.82,22.3656,151.7483,22.9435,141.6766,23.0673,131.6049,22.5,121.5332" style="stroke:#181818;stroke-width:1.0;"/><polygon fill="#FFFFFF" points="197.5,121.5332,197.5,121.6033,199.5,121.3951,201.5,121.5976,203.5,121.6664,205.5,121.2954,207.5,121.5332,207.4223,121.5332,207.0735,131.6049,207.1165,141.6766,207.4318,151.7483,206.8086,161.82,208.0536,171.8917,206.8697,181.9634,207.3022,192.035,207.9319,202.1067,207.4142,212.1784,207.5682,222.2501,207.4681,232.3218,207.6785,242.3935,207.7391,252.4652,208.0857,262.5369,208.1711,272.6086,208.1793,282.6803,207.7546,292.752,207.9636,302.8236,208.2022,312.8953,206.7788,322.967,208.1785,333.0387,207.2035,343.1104,208.0338,353.1821,207.005,363.2538,207.4315,373.3255,208.2416,383.3972,207.4513,393.4689,207.6053,403.5406,207.8386,413.6122,207.9162,423.6839,207.4961,433.7556,207.7872,443.8273,206.9276,453.899,207.7844,463.9707,208.0482,474.0424,207.9445,484.1141,208.113,494.1858,207.0169,504.2575,206.8478,514.3292,206.8786,524.4009,207.4411,534.4725,207.3035,544.5442,208.1814,554.6159,207.3253,564.6876,207.1569,574.7593,207.7283,584.831,206.8332,594.9027,206.9809,604.9744,208.149,615.0461,207.9357,625.1178,207.5,635.1895,207.5,635.4343,205.5,635.0822,203.5,635.2959,201.5,635.3863,199.5,635.032,197.5,635.1895,197.4041,635.1895,197.626,625.1178,198.1518,615.0461,197.4958,604.9744,197.9626,594.9027,196.9462,584.831,196.8227,574.7593,198.0036,564.6876,196.7831,554.6159,198.009,544.5442,197.7066,534.4725,197.2321,524.4009,197.1462,514.3292,197.9588,504.2575,197.2007,494.1858,198.0919,484.1141,196.9473,474.0424,198.1174,463.9707,197.9843,453.899,197.745,443.8273,197.5472,433.7556,198.2266,423.6839,198.1136,413.6122,197.6693,403.5406,197.7682,393.4689,197.3697,383.3972,198.2165,373.3255,197.6549,363.2538,197.6726,353.1821,196.8916,343.1104,197.0948,333.0387,198.0307,322.967,197.9298,312.8953,197.4571,302.8236,197.1778,292.752,197.2811,282.6803,196.8138,272.6086,197.9147,262.5369,198.2396,252.4652,198.0264,242.3935,198.1949,232.3218,197.3633,222.2501,197.5872,212.1784,197.1124,202.1067,197.784,192.035,197.7468,181.9634,198.0524,171.8917,197.2703,161.82,197.3656,151.7483,197.9435,141.6766,198.0673,131.6049,197.5,121.5332" style="stroke:#181818;stroke-width:1.0;"/><polygon fill="#FFFFFF" points="381.5,184.1152,381.5,184.1853,383.5,183.9771,385.5,184.1797,387.5,184.2485,389.5,183.8774,391.5,184.1152,391.4223,184.1152,391.0735,194.1101,391.1165,204.1049,391.4318,214.0997,390.8086,224.0946,392.0536,234.0894,390.8697,244.0843,391.3022,254.0791,391.9319,264.0739,391.4142,274.0688,391.5682,284.0636,391.4681,294.0585,391.6785,304.0533,391.7391,314.0481,392.0857,324.043,392.1711,334.0378,392.1793,344.0326,391.7546,354.0275,391.9636,364.0223,392.2022,374.0172,390.7788,384.012,392.1785,394.0068,391.2035,404.0017,392.0338,413.9965,391.005,423.9914,391.4315,433.9862,392.2416,443.981,391.4513,453.9759,391.6053,463.9707,391.8386,473.9655,391.9162,483.9604,391.4961,493.9552,391.7872,503.9501,390.9276,513.9449,391.7844,523.9397,392.0482,533.9346,391.9445,543.9294,392.113,553.9242,391.0169,563.9191,390.8478,573.9139,390.8786,583.9088,391.4411,593.9036,391.5,603.8984,391.5,603.8329,389.5,604.1256,387.5,603.8402,385.5,603.7841,383.5,603.9745,381.5,603.8984,380.8332,603.8984,380.9809,593.9036,382.149,583.9088,381.9357,573.9139,382.2345,563.9191,381.1782,553.9242,381.8192,543.9294,382.0904,533.9346,381.0276,523.9397,381.4041,513.9449,381.626,503.9501,382.1518,493.9552,381.4958,483.9604,381.9626,473.9655,380.9462,463.9707,380.8227,453.9759,382.0036,443.981,380.7831,433.9862,382.009,423.9914,381.7066,413.9965,381.2321,404.0017,381.1462,394.0068,381.9588,384.012,381.2007,374.0172,382.0919,364.0223,380.9473,354.0275,382.1174,344.0326,381.9843,334.0378,381.745,324.043,381.5472,314.0481,382.2266,304.0533,382.1136,294.0585,381.6693,284.0636,381.7682,274.0688,381.3697,264.0739,382.2165,254.0791,381.6549,244.0843,381.6726,234.0894,380.8916,224.0946,381.0948,214.0997,382.0307,204.1049,381.9298,194.1101,381.5,184.1152" style="stroke:#181818;stroke-width:1.0;"/><polygon fill="#FFFFFF" points="386.5,528.3164,386.5,528.3865,388.5,528.1783,390.5,528.3808,392.5,528.4496,394.5,528.0786,396.5,528.3164,396.4741,528.3164,396.3578,535.7746,396.3722,543.2328,396.4773,550.691,396.2695,558.1492,396.5,565.6074,396.5,565.792,394.5,565.3973,392.5,565.5415,390.5,565.7514,388.5,565.5788,386.5,565.6074,386.5227,565.6074,386.4894,558.1492,386.5595,550.691,386.5797,543.2328,386.6952,535.7746,386.5,528.3164" style="stroke:#181818;stroke-width:1.0;"/><polygon fill="#FFFFFF" points="1085,246.6973,1085,246.7673,1087,246.5592,1089,246.7617,1091,246.8305,1093,246.4595,1095,246.6973,1094.9223,246.6973,1094.5735,256.7551,1094.6165,266.8129,1094.9318,276.8707,1094.3086,286.9286,1095.5536,296.9864,1094.3697,307.0442,1094.8022,317.1021,1095.4319,327.1599,1094.9142,337.2177,1095.0682,347.2755,1094.9681,357.3334,1095.1785,367.3912,1095.2391,377.449,1095.5857,387.5068,1095.6711,397.5647,1095.6793,407.6225,1095.2546,417.6803,1095.4636,427.7381,1095.7022,437.796,1094.2788,447.8538,1095.6785,457.9116,1094.7035,467.9694,1095.5338,478.0273,1094.505,488.0851,1094.9315,498.1429,1095.7416,508.2008,1094.9513,518.2586,1095,528.3164,1095,528.3515,1093,528.4293,1091,528.4552,1089,528.3151,1087,528.4121,1085,528.3164,1084.4276,528.3164,1085.2844,518.2586,1085.5482,508.2008,1085.4445,498.1429,1085.613,488.0851,1084.5169,478.0273,1084.3478,467.9694,1084.3786,457.9116,1084.9411,447.8538,1084.8035,437.796,1085.6814,427.7381,1084.8253,417.6803,1084.6569,407.6225,1085.2283,397.5647,1084.3332,387.5068,1084.4809,377.449,1085.649,367.3912,1085.4357,357.3334,1085.7345,347.2755,1084.6782,337.2177,1085.3192,327.1599,1085.5904,317.1021,1084.5276,307.0442,1084.9041,296.9864,1085.126,286.9286,1085.6518,276.8707,1084.9958,266.8129,1085.4626,256.7551,1085,246.6973" style="stroke:#181818;stroke-width:1.0;"/><polygon fill="#FFFFFF" points="1711,371.8613,1711,371.9314,1713,371.7232,1715,371.9258,1717,371.9946,1719,371.6235,1721,371.8613,1720.9223,371.8613,1720.5735,382.2917,1720.6165,392.722,1720.9318,403.1523,1720.3086,413.5827,1721.5536,424.013,1721,434.4434,1721,434.2333,1719,434.3774,1717,434.5873,1715,434.4148,1713,434.4661,1711,434.4434,1710.9681,434.4434,1711.1785,424.013,1711.2391,413.5827,1711.5857,403.1523,1711.6711,392.722,1711.6793,382.2917,1711,371.8613" style="stroke:#181818;stroke-width:1.0;"/><polygon fill="#FFFFFF" points="1837.5,465.7344,1837.5,465.8044,1839.5,465.5963,1841.5,465.7988,1843.5,465.8676,1845.5,465.4966,1847.5,465.7344,1847.4741,465.7344,1847.3578,471.9926,1847.3722,478.2508,1847.4773,484.509,1847.2695,490.7672,1847.5,497.0254,1847.5,497.2099,1845.5,496.8153,1843.5,496.9595,1841.5,497.1694,1839.5,496.9968,1837.5,497.0254,1837.5227,497.0254,1837.4894,490.7672,1837.5595,484.509,1837.5797,478.2508,1837.6952,471.9926,1837.5,465.7344" style="stroke:#181818;stroke-width:1.0;"/><polygon fill="#181818" points="185.5,117.5332,185.526,117.5983,187.4487,118.205,189.5239,119.193,191.5495,120.0569,193.4117,120.5124,195.5,121.5332,195.4904,121.5092,193.4472,122.2012,191.4525,123.0145,189.4916,123.9121,187.4144,124.5192,185.5,125.5332,185.6305,125.6637,186.1514,124.5846,187.0534,123.8866,188.0018,123.235,188.6798,122.313,189.5,121.5332,189.5161,121.5493,188.6925,120.7257,187.9421,119.9753,187.1564,119.1896,186.438,118.4713,185.5,117.5332" style="stroke:#181818;stroke-width:1.0;"/><path d="M32.5,121.5332 L32.5,121.8134 L42.4375,120.9808 L52.375,121.7909 L62.3125,122.0661 L72.25,120.582 L82.1875,121.4296 L92.125,120.9645 L102.0625,121.0219 L112,121.4423 L121.9375,120.6114 L131.875,122.2714 L141.8125,120.6928 L151.75,121.2695 L161.6875,122.1091 L171.625,121.4188 L181.5625,121.6242 L191.5,121.5332 " fill="none" style="stroke:#181818;stroke-width:1.0;stroke-dasharray:2.0,2.0;"/><text fill="#000000" font-family="FG Virgil" font-size="13" lengthAdjust="spacing" textLength="119" x="39.5" y="116.2705">List backoffice users</text><polygon fill="#181818" points="374.5,148.8242,374.526,148.8893,376.4487,149.496,378.5239,150.484,380.5495,151.3479,382.4117,151.8034,384.5,152.8242,384.4904,152.8002,382.4472,153.4922,380.4525,154.3055,378.4916,155.2031,376.4144,155.8102,374.5,156.8242,374.6305,156.9547,375.1514,155.8757,376.0534,155.1776,377.0018,154.526,377.6798,153.604,378.5,152.8242,378.5161,152.8403,377.6925,152.0167,376.9421,151.2663,376.1564,150.4806,375.438,149.7623,374.5,148.8242" style="stroke:#181818;stroke-width:1.0;"/><path d="M207.5,152.8242 L207.5,153.1045 L217.6765,152.2718 L227.8529,153.0819 L238.0294,153.3571 L248.2059,151.873 L258.3824,152.7206 L268.5588,152.2556 L278.7353,152.3129 L288.9118,152.7333 L299.0882,151.9024 L309.2647,153.5624 L319.4412,151.9838 L329.6176,152.5605 L339.7941,153.4001 L349.9706,152.7098 L360.1471,152.9152 L370.3235,152.7816 L380.5,152.8242 " fill="none" style="stroke:#181818;stroke-width:1.0;"/><text fill="#000000" font-family="FG Virgil" font-size="13" lengthAdjust="spacing" textLength="36" x="214.5" y="147.5615">create</text><polygon fill="#181818" points="369.5,180.1152,369.526,180.1803,371.4487,180.787,373.5239,181.7751,375.5495,182.6389,377.4117,183.0944,379.5,184.1152,379.4904,184.0912,377.4472,184.7832,375.4525,185.5965,373.4916,186.4941,371.4144,187.1013,369.5,188.1152,369.6305,188.2457,370.1514,187.1667,371.0534,186.4686,372.0018,185.817,372.6798,184.895,373.5,184.1152,373.5161,184.1313,372.6925,183.3077,371.9421,182.5573,371.1564,181.7716,370.438,181.0533,369.5,180.1152" style="stroke:#181818;stroke-width:1.0;"/><path d="M207.5,184.1152 L207.5,184.3955 L217.3824,183.5628 L227.2647,184.3729 L237.1471,184.6481 L247.0294,183.164 L256.9118,184.0116 L266.7941,183.5466 L276.6765,183.6039 L286.5588,184.0244 L296.4412,183.1934 L306.3235,184.8534 L316.2059,183.2749 L326.0882,183.8515 L335.9706,184.6912 L345.8529,184.0009 L355.7353,184.2062 L365.6176,184.0726 L375.5,184.1152 " fill="none" style="stroke:#181818;stroke-width:1.0;stroke-dasharray:2.0,2.0;"/><text fill="#000000" font-family="FG Virgil" font-size="13" lengthAdjust="spacing" textLength="134" x="214.5" y="178.8525">listAllBackofficeUsers()</text><polygon fill="#181818" points="910.5,211.4063,910.526,211.4713,912.4487,212.078,914.5239,213.0661,916.5495,213.9299,918.4117,214.3855,920.5,215.4063,920.4904,215.3822,918.4472,216.0743,916.4525,216.8876,914.4916,217.7852,912.4144,218.3923,910.5,219.4063,910.6305,219.5367,911.1514,218.4577,912.0534,217.7596,913.0018,217.1081,913.6798,216.186,914.5,215.4063,914.5161,215.4223,913.6925,214.5987,912.9421,213.8483,912.1564,213.0626,911.438,212.3443,910.5,211.4063" style="stroke:#181818;stroke-width:1.0;"/><path d="M391.5,215.4063 L391.5,215.6865 L401.4057,214.8538 L411.3113,215.664 L421.217,215.9392 L431.1226,214.4551 L441.0283,215.3026 L450.934,214.8376 L460.8396,214.8949 L470.7453,215.3154 L480.6509,214.4844 L490.5566,216.1444 L500.4623,214.5659 L510.3679,215.1426 L520.2736,215.9822 L530.1792,215.2919 L540.0849,215.4972 L549.9906,215.3637 L559.8962,215.6443 L569.8019,215.7251 L579.7075,216.1872 L589.6132,216.301 L599.5189,216.3119 L609.4245,215.7458 L619.3302,216.0244 L629.2358,216.3426 L639.1415,214.4447 L649.0472,216.3109 L658.9528,215.0109 L668.8585,216.118 L678.7642,214.7462 L688.6698,215.3149 L698.5755,216.3951 L708.4811,215.3413 L718.3868,215.5467 L728.2925,215.8578 L738.1981,215.9612 L748.1038,215.401 L758.0094,215.7892 L767.9151,214.643 L777.8208,215.7854 L787.7264,216.1372 L797.6321,215.999 L807.5377,216.2236 L817.4434,214.7621 L827.3491,214.5367 L837.2547,214.5777 L847.1604,215.3277 L857.066,215.1442 L866.9717,216.3148 L876.8774,215.1733 L886.783,214.9488 L896.6887,215.7106 L906.5943,214.5171 L916.5,215.4063 " fill="none" style="stroke:#181818;stroke-width:1.0;stroke-dasharray:2.0,2.0;"/><text fill="#000000" font-family="FG Virgil" font-size="13" lengthAdjust="spacing" textLength="507" x="398.5" y="210.1436">ensureAuthenticatedUserHasAnyOf(Jobs4uRoles.POWER_USER,Jobs4uRoles.ADMIN)</text><polygon fill="#181818" points="1073,242.6973,1073.026,242.7623,1074.9487,243.369,1077.0239,244.3571,1079.0495,245.221,1080.9117,245.6765,1083,246.6973,1082.9904,246.6732,1080.9472,247.3653,1078.9525,248.1786,1076.9916,249.0762,1074.9144,249.6833,1073,250.6973,1073.1305,250.8278,1073.6514,249.7487,1074.5534,249.0507,1075.5018,248.3991,1076.1798,247.477,1077,246.6973,1077.0161,246.7133,1076.1925,245.8897,1075.4421,245.1393,1074.6564,244.3536,1073.938,243.6353,1073,242.6973" style="stroke:#181818;stroke-width:1.0;"/><path d="M391.5,246.6973 L391.5,246.9775 L401.4638,246.1448 L411.4275,246.955 L421.3913,247.2302 L431.3551,245.7461 L441.3188,246.5936 L451.2826,246.1286 L461.2464,246.1859 L471.2101,246.6064 L481.1739,245.7754 L491.1377,247.4355 L501.1014,245.8569 L511.0652,246.4336 L521.029,247.2732 L530.9928,246.5829 L540.9565,246.7883 L550.9203,246.6547 L560.8841,246.9353 L570.8478,247.0161 L580.8116,247.4782 L590.7754,247.592 L600.7391,247.6029 L610.7029,247.0368 L620.6667,247.3154 L630.6304,247.6336 L640.5942,245.7357 L650.558,247.6019 L660.5217,246.3019 L670.4855,247.409 L680.4493,246.0372 L690.413,246.6059 L700.3768,247.6861 L710.3406,246.6323 L720.3043,246.8377 L730.2681,247.1488 L740.2319,247.2522 L750.1957,246.6921 L760.1594,247.0802 L770.1232,245.934 L780.087,247.0764 L790.0507,247.4282 L800.0145,247.29 L809.9783,247.5146 L819.942,246.0532 L829.9058,245.8277 L839.8696,245.8687 L849.8333,246.6188 L859.7971,246.4352 L869.7609,247.6058 L879.7246,246.4644 L889.6884,246.2399 L899.6522,247.0016 L909.6159,245.8081 L919.5797,246.0051 L929.5435,247.5625 L939.5072,247.2782 L949.471,247.6766 L959.4348,246.2682 L969.3986,247.1229 L979.3623,247.4845 L989.3261,246.0674 L999.2899,246.5695 L1009.2536,246.8652 L1019.2174,247.5663 L1029.1812,246.6917 L1039.1449,247.314 L1049.1087,245.9589 L1059.0725,245.7943 L1069.0362,247.3687 L1079,246.6973 " fill="none" style="stroke:#181818;stroke-width:1.0;stroke-dasharray:2.0,2.0;"/><text fill="#000000" font-family="FG Virgil" font-size="13" lengthAdjust="spacing" textLength="55" x="398.5" y="241.4346">allUsers()</text><polygon fill="#181818" points="1561,273.9883,1561.026,274.0533,1562.9487,274.6601,1565.0239,275.6481,1567.0495,276.512,1568.9117,276.9675,1571,277.9883,1570.9904,277.9642,1568.9472,278.6563,1566.9525,279.4696,1564.9916,280.3672,1562.9144,280.9743,1561,281.9883,1561.1305,282.1188,1561.6514,281.0397,1562.5534,280.3417,1563.5018,279.6901,1564.1798,278.7681,1565,277.9883,1565.0161,278.0044,1564.1925,277.1808,1563.4421,276.4304,1562.6564,275.6446,1561.938,274.9263,1561,273.9883" style="stroke:#181818;stroke-width:1.0;"/><path d="M1095,277.9883 L1095,278.2685 L1105.0426,277.4359 L1115.0851,278.246 L1125.1277,278.5212 L1135.1702,277.0371 L1145.2128,277.8847 L1155.2553,277.4196 L1165.2979,277.4769 L1175.3404,277.8974 L1185.383,277.0665 L1195.4255,278.7265 L1205.4681,277.1479 L1215.5106,277.7246 L1225.5532,278.5642 L1235.5957,277.8739 L1245.6383,278.0793 L1255.6809,277.9457 L1265.7234,278.2263 L1275.766,278.3071 L1285.8085,278.7692 L1295.8511,278.883 L1305.8936,278.894 L1315.9362,278.3278 L1325.9787,278.6064 L1336.0213,278.9246 L1346.0638,277.0267 L1356.1064,278.893 L1366.1489,277.5929 L1376.1915,278.7 L1386.234,277.3283 L1396.2766,277.8969 L1406.3191,278.9771 L1416.3617,277.9233 L1426.4043,278.1287 L1436.4468,278.4398 L1446.4894,278.5433 L1456.5319,277.9831 L1466.5745,278.3712 L1476.617,277.2251 L1486.6596,278.3675 L1496.7021,278.7192 L1506.7447,278.581 L1516.7872,278.8056 L1526.8298,277.3442 L1536.8723,277.1187 L1546.9149,277.1597 L1556.9574,277.9098 L1567,277.9883 " fill="none" style="stroke:#181818;stroke-width:1.0;stroke-dasharray:2.0,2.0;"/><text fill="#000000" font-family="FG Virgil" font-size="13" lengthAdjust="spacing" textLength="75" x="1102" y="272.7256">repositories()</text><polygon fill="#181818" points="1704,305.2793,1704.026,305.3443,1705.9487,305.9511,1708.0239,306.9391,1710.0495,307.803,1711.9117,308.2585,1714,309.2793,1713.9904,309.2552,1711.9472,309.9473,1709.9525,310.7606,1707.9916,311.6582,1705.9144,312.2653,1704,313.2793,1704.1305,313.4098,1704.6514,312.3307,1705.5534,311.6327,1706.5018,310.9811,1707.1798,310.0591,1708,309.2793,1708.0161,309.2954,1707.1925,308.4718,1706.4421,307.7214,1705.6564,306.9357,1704.938,306.2173,1704,305.2793" style="stroke:#181818;stroke-width:1.0;"/><path d="M1573,309.2793 L1573,309.5595 L1582.7857,308.7269 L1592.5714,309.537 L1602.3571,309.8122 L1612.1429,308.3281 L1621.9286,309.1757 L1631.7143,308.7106 L1641.5,308.768 L1651.2857,309.1884 L1661.0714,308.3575 L1670.8571,310.0175 L1680.6429,308.4389 L1690.4286,309.0156 L1700.2143,309.8552 L1710,309.2793 " fill="none" style="stroke:#181818;stroke-width:1.0;stroke-dasharray:2.0,2.0;"/><text fill="#000000" font-family="FG Virgil" font-size="13" lengthAdjust="spacing" textLength="44" x="1580" y="304.0166">create()</text><polygon fill="#181818" points="1106,336.5703,1106.026,336.6354,1103.9487,337.2421,1102.0239,338.2301,1100.0495,339.094,1097.9117,339.5495,1096,340.5703,1095.9904,340.5463,1097.9472,341.2383,1099.9525,342.0516,1101.9916,342.9492,1103.9144,343.5563,1106,344.5703,1106.1305,344.7008,1105.0514,343.6218,1104.3534,342.9237,1103.7018,342.2721,1102.7798,341.3501,1102,340.5703,1102.0161,340.5864,1102.7925,339.7628,1103.6421,339.0124,1104.4564,338.2267,1105.338,337.5084,1106,336.5703" style="stroke:#181818;stroke-width:1.0;"/><path d="M1100,340.5703 L1100,340.8506 L1110.0426,340.0179 L1120.0851,340.828 L1130.1277,341.1032 L1140.1702,339.6191 L1150.2128,340.4667 L1160.2553,340.0017 L1170.2979,340.059 L1180.3404,340.4794 L1190.383,339.6485 L1200.4255,341.3085 L1210.4681,339.7299 L1220.5106,340.3066 L1230.5532,341.1462 L1240.5957,340.4559 L1250.6383,340.6613 L1260.6809,340.5277 L1270.7234,340.8083 L1280.766,340.8892 L1290.8085,341.3512 L1300.8511,341.4651 L1310.8936,341.476 L1320.9362,340.9098 L1330.9787,341.1884 L1341.0213,341.5066 L1351.0638,339.6087 L1361.1064,341.475 L1371.1489,340.175 L1381.1915,341.2821 L1391.234,339.9103 L1401.2766,340.479 L1411.3191,341.5591 L1421.3617,340.5053 L1431.4043,340.7107 L1441.4468,341.0218 L1451.4894,341.1253 L1461.5319,340.5651 L1471.5745,340.9533 L1481.617,339.8071 L1491.6596,340.9495 L1501.7021,341.3012 L1511.7447,341.163 L1521.7872,341.3877 L1531.8298,339.9262 L1541.8723,339.7007 L1551.9149,339.7418 L1561.9574,340.4918 L1572,340.5703 " fill="none" style="stroke:#181818;stroke-width:1.0;stroke-dasharray:2.0,2.0;"/><text fill="#000000" font-family="FG Virgil" font-size="13" lengthAdjust="spacing" textLength="39" x="1112" y="335.3076">factory</text><polygon fill="#181818" points="1699,367.8613,1699.026,367.9264,1700.9487,368.5331,1703.0239,369.5211,1705.0495,370.385,1706.9117,370.8405,1709,371.8613,1708.9904,371.8373,1706.9472,372.5293,1704.9525,373.3426,1702.9916,374.2402,1700.9144,374.8474,1699,375.8613,1699.1305,375.9918,1699.6514,374.9128,1700.5534,374.2147,1701.5018,373.5631,1702.1798,372.6411,1703,371.8613,1703.0161,371.8774,1702.1925,371.0538,1701.4421,370.3034,1700.6564,369.5177,1699.938,368.7994,1699,367.8613" style="stroke:#181818;stroke-width:1.0;"/><path d="M1095,371.8613 L1095,372.1416 L1105,371.3089 L1115,372.119 L1125,372.3942 L1135,370.9101 L1145,371.7577 L1155,371.2927 L1165,371.35 L1175,371.7705 L1185,370.9395 L1195,372.5995 L1205,371.021 L1215,371.5976 L1225,372.4373 L1235,371.747 L1245,371.9523 L1255,371.8187 L1265,372.0994 L1275,372.1802 L1285,372.6422 L1295,372.7561 L1305,372.767 L1315,372.2008 L1325,372.4794 L1335,372.7976 L1345,370.8997 L1355,372.766 L1365,371.466 L1375,372.5731 L1385,371.2013 L1395,371.77 L1405,372.8501 L1415,371.7963 L1425,372.0017 L1435,372.3128 L1445,372.4163 L1455,371.8561 L1465,372.2443 L1475,371.0981 L1485,372.2405 L1495,372.5923 L1505,372.454 L1515,372.6787 L1525,371.2172 L1535,370.9918 L1545,371.0328 L1555,371.7828 L1565,371.5993 L1575,372.7699 L1585,371.6284 L1595,371.4039 L1605,372.1657 L1615,370.9722 L1625,371.1692 L1635,372.7266 L1645,372.4422 L1655,372.8406 L1665,371.4323 L1675,372.2869 L1685,372.6486 L1695,371.2315 L1705,371.8613 " fill="none" style="stroke:#181818;stroke-width:1.0;stroke-dasharray:2.0,2.0;"/><text fill="#000000" font-family="FG Virgil" font-size="13" lengthAdjust="spacing" textLength="40" x="1102" y="366.5986">users()</text><polygon fill="#181818" points="1830.5,399.1523,1830.526,399.2174,1832.4487,399.8241,1834.5239,400.8122,1836.5495,401.676,1838.4117,402.1316,1840.5,403.1523,1840.4904,403.1283,1838.4472,403.8203,1836.4525,404.6337,1834.4916,405.5312,1832.4144,406.1384,1830.5,407.1523,1830.6305,407.2828,1831.1514,406.2038,1832.0534,405.5057,1833.0018,404.8542,1833.6798,403.9321,1834.5,403.1523,1834.5161,403.1684,1833.6925,402.3448,1832.9421,401.5944,1832.1564,400.8087,1831.438,400.0904,1830.5,399.1523" style="stroke:#181818;stroke-width:1.0;"/><path d="M1721,403.1523 L1721,403.4326 L1730.625,402.5999 L1740.25,403.4101 L1749.875,403.6852 L1759.5,402.2012 L1769.125,403.0487 L1778.75,402.5837 L1788.375,402.641 L1798,403.0615 L1807.625,402.2305 L1817.25,403.8905 L1826.875,402.312 L1836.5,403.1523 " fill="none" style="stroke:#181818;stroke-width:1.0;stroke-dasharray:2.0,2.0;"/><text fill="#000000" font-family="FG Virgil" font-size="13" lengthAdjust="spacing" textLength="44" x="1728" y="397.8896">create()</text><polygon fill="#181818" points="1106,430.4434,1106.026,430.5084,1103.9487,431.1151,1102.0239,432.1032,1100.0495,432.9671,1097.9117,433.4226,1096,434.4434,1095.9904,434.4193,1097.9472,435.1114,1099.9525,435.9247,1101.9916,436.8223,1103.9144,437.4294,1106,438.4434,1106.1305,438.5739,1105.0514,437.4948,1104.3534,436.7967,1103.7018,436.1452,1102.7798,435.2231,1102,434.4434,1102.0161,434.4594,1102.7925,433.6358,1103.6421,432.8854,1104.4564,432.0997,1105.338,431.3814,1106,430.4434" style="stroke:#181818;stroke-width:1.0;"/><path d="M1100,434.4434 L1100,434.7236 L1109.9194,433.8909 L1119.8387,434.7011 L1129.7581,434.9763 L1139.6774,433.4922 L1149.5968,434.3397 L1159.5161,433.8747 L1169.4355,433.932 L1179.3548,434.3525 L1189.2742,433.5215 L1199.1935,435.1815 L1209.1129,433.603 L1219.0323,434.1797 L1228.9516,435.0193 L1238.871,434.329 L1248.7903,434.5343 L1258.7097,434.4008 L1268.629,434.6814 L1278.5484,434.7622 L1288.4677,435.2243 L1298.3871,435.3381 L1308.3065,435.349 L1318.2258,434.7829 L1328.1452,435.0615 L1338.0645,435.3797 L1347.9839,433.4818 L1357.9032,435.348 L1367.8226,434.048 L1377.7419,435.1551 L1387.6613,433.7833 L1397.5806,434.352 L1407.5,435.4322 L1417.4194,434.3784 L1427.3387,434.5838 L1437.2581,434.8949 L1447.1774,434.9983 L1457.0968,434.4382 L1467.0161,434.8263 L1476.9355,433.6801 L1486.8548,434.8225 L1496.7742,435.1743 L1506.6935,435.0361 L1516.6129,435.2607 L1526.5323,433.7993 L1536.4516,433.5738 L1546.371,433.6148 L1556.2903,434.3649 L1566.2097,434.1813 L1576.129,435.3519 L1586.0484,434.2105 L1595.9677,433.986 L1605.8871,434.7477 L1615.8065,433.5542 L1625.7258,433.7512 L1635.6452,435.3086 L1645.5645,435.0242 L1655.4839,435.4227 L1665.4032,434.0143 L1675.3226,434.869 L1685.2419,435.2306 L1695.1613,433.8135 L1705.0806,434.3155 L1715,434.4434 " fill="none" style="stroke:#181818;stroke-width:1.0;stroke-dasharray:2.0,2.0;"/><text fill="#000000" font-family="FG Virgil" font-size="13" lengthAdjust="spacing" textLength="87" x="1112" y="429.1807">userRepository</text><polygon fill="#181818" points="1825.5,461.7344,1825.526,461.7994,1827.4487,462.4061,1829.5239,463.3942,1831.5495,464.2581,1833.4117,464.7136,1835.5,465.7344,1835.4904,465.7103,1833.4472,466.4024,1831.4525,467.2157,1829.4916,468.1133,1827.4144,468.7204,1825.5,469.7344,1825.6305,469.8649,1826.1514,468.7858,1827.0534,468.0878,1828.0018,467.4362,1828.6798,466.5142,1829.5,465.7344,1829.5161,465.7505,1828.6925,464.9268,1827.9421,464.1765,1827.1564,463.3907,1826.438,462.6724,1825.5,461.7344" style="stroke:#181818;stroke-width:1.0;"/><path d="M1095,465.7344 L1095,466.0146 L1104.9527,465.1819 L1114.9054,465.9921 L1124.8581,466.2673 L1134.8108,464.7832 L1144.7635,465.6308 L1154.7162,465.1657 L1164.6689,465.223 L1174.6216,465.6435 L1184.5743,464.8125 L1194.527,466.4726 L1204.4797,464.894 L1214.4324,465.4707 L1224.3851,466.3103 L1234.3378,465.62 L1244.2905,465.8254 L1254.2432,465.6918 L1264.1959,465.9724 L1274.1486,466.0532 L1284.1014,466.5153 L1294.0541,466.6291 L1304.0068,466.6401 L1313.9595,466.0739 L1323.9122,466.3525 L1333.8649,466.6707 L1343.8176,464.7728 L1353.7703,466.6391 L1363.723,465.339 L1373.6757,466.4461 L1383.6284,465.0743 L1393.5811,465.643 L1403.5338,466.7232 L1413.4865,465.6694 L1423.4392,465.8748 L1433.3919,466.1859 L1443.3446,466.2894 L1453.2973,465.7292 L1463.25,466.1173 L1473.2027,464.9712 L1483.1554,466.1136 L1493.1081,466.4653 L1503.0608,466.3271 L1513.0135,466.5517 L1522.9662,465.0903 L1532.9189,464.8648 L1542.8716,464.9058 L1552.8243,465.6559 L1562.777,465.4723 L1572.7297,466.6429 L1582.6824,465.5015 L1592.6351,465.277 L1602.5878,466.0387 L1612.5405,464.8453 L1622.4932,465.0422 L1632.4459,466.5996 L1642.3986,466.3153 L1652.3514,466.7137 L1662.3041,465.3053 L1672.2568,466.16 L1682.2095,466.5216 L1692.1622,465.1045 L1702.1149,465.6066 L1712.0676,465.9024 L1722.0203,466.6034 L1731.973,465.7288 L1741.9257,466.3511 L1751.8784,464.996 L1761.8311,464.8314 L1771.7838,466.4059 L1781.7365,464.7785 L1791.6892,466.413 L1801.6419,466.0099 L1811.5946,465.3772 L1821.5473,465.2627 L1831.5,465.7344 " fill="none" style="stroke:#181818;stroke-width:1.0;stroke-dasharray:2.0,2.0;"/><text fill="#000000" font-family="FG Virgil" font-size="13" lengthAdjust="spacing" textLength="43" x="1102" y="460.4717">findAll()</text><polygon fill="#181818" points="1106,493.0254,1106.026,493.0904,1103.9487,493.6972,1102.0239,494.6852,1100.0495,495.5491,1097.9117,496.0046,1096,497.0254,1095.9904,497.0013,1097.9472,497.6934,1099.9525,498.5067,1101.9916,499.4043,1103.9144,500.0114,1106,501.0254,1106.1305,501.1559,1105.0514,500.0768,1104.3534,499.3788,1103.7018,498.7272,1102.7798,497.8052,1102,497.0254,1102.0161,497.0415,1102.7925,496.2179,1103.6421,495.4675,1104.4564,494.6818,1105.338,493.9634,1106,493.0254" style="stroke:#181818;stroke-width:1.0;"/><path d="M1100,497.0254 L1100,497.3056 L1110.0203,496.473 L1120.0405,497.2831 L1130.0608,497.5583 L1140.0811,496.0742 L1150.1014,496.9218 L1160.1216,496.4567 L1170.1419,496.5141 L1180.1622,496.9345 L1190.1824,496.1036 L1200.2027,497.7636 L1210.223,496.185 L1220.2432,496.7617 L1230.2635,497.6013 L1240.2838,496.911 L1250.3041,497.1164 L1260.3243,496.9828 L1270.3446,497.2634 L1280.3649,497.3442 L1290.3851,497.8063 L1300.4054,497.9201 L1310.4257,497.9311 L1320.4459,497.3649 L1330.4662,497.6435 L1340.4865,497.9617 L1350.5068,496.0638 L1360.527,497.9301 L1370.5473,496.6301 L1380.5676,497.7371 L1390.5878,496.3654 L1400.6081,496.9341 L1410.6284,498.0142 L1420.6486,496.9604 L1430.6689,497.1658 L1440.6892,497.4769 L1450.7095,497.5804 L1460.7297,497.0202 L1470.75,497.4083 L1480.7703,496.2622 L1490.7905,497.4046 L1500.8108,497.7563 L1510.8311,497.6181 L1520.8514,497.8428 L1530.8716,496.3813 L1540.8919,496.1558 L1550.9122,496.1969 L1560.9324,496.9469 L1570.9527,496.7634 L1580.973,497.9339 L1590.9932,496.7925 L1601.0135,496.568 L1611.0338,497.3297 L1621.0541,496.1363 L1631.0743,496.3332 L1641.0946,497.8907 L1651.1149,497.6063 L1661.1351,498.0047 L1671.1554,496.5963 L1681.1757,497.451 L1691.1959,497.8126 L1701.2162,496.3955 L1711.2365,496.8976 L1721.2568,497.1934 L1731.277,497.8944 L1741.2973,497.0198 L1751.3176,497.6421 L1761.3378,496.287 L1771.3581,496.1224 L1781.3784,497.6969 L1791.3986,496.0695 L1801.4189,497.704 L1811.4392,497.3009 L1821.4595,496.6682 L1831.4797,496.5537 L1841.5,497.0254 " fill="none" style="stroke:#181818;stroke-width:1.0;stroke-dasharray:2.0,2.0;"/><text fill="#000000" font-family="FG Virgil" font-size="13" lengthAdjust="spacing" textLength="47" x="1112" y="491.7627">allUsers</text><polygon fill="#181818" points="407.5,524.3164,407.526,524.3815,405.4487,524.9882,403.5239,525.9762,401.5495,526.8401,399.4117,527.2956,397.5,528.3164,397.4904,528.2924,399.4472,528.9844,401.4525,529.7977,403.4916,530.6953,405.4144,531.3024,407.5,532.3164,407.6305,532.4469,406.5514,531.3678,405.8534,530.6698,405.2018,530.0182,404.2798,529.0962,403.5,528.3164,403.5161,528.3325,404.2925,527.5089,405.1421,526.7585,405.9564,525.9728,406.838,525.2545,407.5,524.3164" style="stroke:#181818;stroke-width:1.0;"/><path d="M401.5,528.3164 L401.5,528.5966 L411.4638,527.764 L421.4275,528.5741 L431.3913,528.8493 L441.3551,527.3652 L451.3188,528.2128 L461.2826,527.7477 L471.2464,527.8051 L481.2101,528.2255 L491.1739,527.3946 L501.1377,529.0546 L511.1014,527.476 L521.0652,528.0527 L531.029,528.8923 L540.9928,528.202 L550.9565,528.4074 L560.9203,528.2738 L570.8841,528.5544 L580.8478,528.6353 L590.8116,529.0973 L600.7754,529.2111 L610.7391,529.2221 L620.7029,528.6559 L630.6667,528.9345 L640.6304,529.2527 L650.5942,527.3548 L660.558,529.2211 L670.5217,527.9211 L680.4855,529.0282 L690.4493,527.6564 L700.413,528.2251 L710.3768,529.3052 L720.3406,528.2514 L730.3043,528.4568 L740.2681,528.7679 L750.2319,528.8714 L760.1957,528.3112 L770.1594,528.6994 L780.1232,527.5532 L790.087,528.6956 L800.0507,529.0473 L810.0145,528.9091 L819.9783,529.1338 L829.942,527.6723 L839.9058,527.4468 L849.8696,527.4879 L859.8333,528.2379 L869.7971,528.0544 L879.7609,529.225 L889.7246,528.0835 L899.6884,527.859 L909.6522,528.6208 L919.6159,527.4273 L929.5797,527.6242 L939.5435,529.1817 L949.5072,528.8973 L959.471,529.2957 L969.4348,527.8873 L979.3986,528.742 L989.3623,529.1036 L999.3261,527.6865 L1009.2899,528.1886 L1019.2536,528.4844 L1029.2174,529.1854 L1039.1812,528.3108 L1049.1449,528.9332 L1059.1087,527.578 L1069.0725,527.4134 L1079.0362,528.9879 L1089,528.3164 " fill="none" style="stroke:#181818;stroke-width:1.0;stroke-dasharray:2.0,2.0;"/><text fill="#000000" font-family="FG Virgil" font-size="13" lengthAdjust="spacing" textLength="47" x="413.5" y="523.0537">allUsers</text><path d="M396.5,564.6074 L396.5,564.7008 L404.9,564.4233 L413.3,564.6933 L421.7,564.7851 L430.1,564.2904 L438.5,564.6074 " fill="none" style="stroke:#181818;stroke-width:1.0;stroke-dasharray:2.0,2.0;"/><path d="M438.5,564.6074 L438.5934,564.6074 L438.3159,567.2074 L438.5859,569.8074 L438.6776,572.4074 L438.1829,575.0074 L438.5,577.6074 " fill="none" style="stroke:#181818;stroke-width:1.0;stroke-dasharray:2.0,2.0;"/><path d="M391.5,577.6074 L391.5,577.8877 L400.9,577.055 L410.3,577.8651 L419.7,578.1403 L429.1,576.6562 L438.5,577.6074 " fill="none" style="stroke:#181818;stroke-width:1.0;stroke-dasharray:2.0,2.0;"/><polygon fill="#181818" points="401.5,573.6074,401.526,573.6725,399.4487,574.2792,397.5239,575.2672,395.5495,576.1311,393.4117,576.5866,391.5,577.6074,391.4904,577.5834,393.4472,578.2754,395.4525,579.0887,397.4916,579.9863,399.4144,580.5934,401.5,581.6074,401.6305,581.7379,400.5514,580.6589,399.8534,579.9608,399.2018,579.3092,398.2798,578.3872,397.5,577.6074,397.5161,577.6235,398.2925,576.7999,399.1421,576.0495,399.9564,575.2638,400.838,574.5455,401.5,573.6074" style="stroke:#181818;stroke-width:1.0;"/><text fill="#000000" font-family="FG Virgil" font-size="13" lengthAdjust="spacing" textLength="173" x="403.5" y="559.3447">filterBackofficeUsers(allUsers)</text><polygon fill="#181818" points="218.5,599.8984,218.526,599.9635,216.4487,600.5702,214.5239,601.5583,212.5495,602.4221,210.4117,602.8776,208.5,603.8984,208.4904,603.8744,210.4472,604.5664,212.4525,605.3797,214.4916,606.2773,216.4144,606.8845,218.5,607.8984,218.6305,608.0289,217.5514,606.9499,216.8534,606.2518,216.2018,605.6002,215.2798,604.6782,214.5,603.8984,214.5161,603.9145,215.2925,603.0909,216.1421,602.3405,216.9564,601.5548,217.838,600.8365,218.5,599.8984" style="stroke:#181818;stroke-width:1.0;"/><path d="M212.5,603.8984 L212.5,604.1787 L222.6765,603.346 L232.8529,604.1562 L243.0294,604.4313 L253.2059,602.9472 L263.3824,603.7948 L273.5588,603.3298 L283.7353,603.3871 L293.9118,603.8076 L304.0882,602.9766 L314.2647,604.6366 L324.4412,603.0581 L334.6176,603.6347 L344.7941,604.4744 L354.9706,603.7841 L365.1471,603.9894 L375.3235,603.8558 L385.5,603.8984 " fill="none" style="stroke:#181818;stroke-width:1.0;stroke-dasharray:2.0,2.0;"/><text fill="#000000" font-family="FG Virgil" font-size="13" lengthAdjust="spacing" textLength="92" x="224.5" y="598.6357">backofficeUsers</text><polygon fill="#181818" points="38.5,631.1895,38.526,631.2545,36.4487,631.8612,34.5239,632.8493,32.5495,633.7132,30.4117,634.1687,28.5,635.1895,28.4904,635.1654,30.4472,635.8575,32.4525,636.6708,34.4916,637.5684,36.4144,638.1755,38.5,639.1895,38.6305,639.3199,37.5514,638.2409,36.8534,637.5428,36.2018,636.8913,35.2798,635.9692,34.5,635.1895,34.5161,635.2055,35.2925,634.3819,36.1421,633.6315,36.9564,632.8458,37.838,632.1275,38.5,631.1895" style="stroke:#181818;stroke-width:1.0;"/><path d="M32.5,635.1895 L32.5,635.4697 L42.4412,634.637 L52.3824,635.4472 L62.3235,635.7224 L72.2647,634.2383 L82.2059,635.0858 L92.1471,634.6208 L102.0882,634.6781 L112.0294,635.0986 L121.9706,634.2676 L131.9118,635.9276 L141.8529,634.3491 L151.7941,634.9258 L161.7353,635.7654 L171.6765,635.0751 L181.6176,635.2804 L191.5588,635.1469 L201.5,635.1895 " fill="none" style="stroke:#181818;stroke-width:1.0;stroke-dasharray:2.0,2.0;"/><text fill="#000000" font-family="FG Virgil" font-size="13" lengthAdjust="spacing" textLength="141" x="44.5" y="629.9268">display backoffice Users</text><!--SRC=[bLLDRzim3BtxLmYzh0NMvBAJ8GH8rsRBi7uWGRRZeDXq8bIM34bkb_xwKNPiqwxJTZa4eiX7Ff5FygUzzqKydHPAQ5_cQfAOVEeUfIw45VbaxtCLjIRR2vq-M-azQEPj2SIL6ssIlJKv33s5I1x53jR-e81PI3pnfP29Klc5qVvE87JnZVsITYTfKRSNgNcMUiSoeHn4aKYyiMoUvb8puTWyc176Ufd80e_1Vahdhx2goJAPmCQ1TPjb2CL_pWiB3hGNNXezcxq7_8hKh54AR4X0BCv5KIYPZEMPbtvlh7ofV6kmJvYjeehxBqURSrSl1jXGzLPex5YEB0auEDx1hW_EGnu2hqgfqffpi-HyMwy6e3FNek8kmLc0NfjSO9CvJwl50FY0xS66WKuWz0N- -e0Xkw7PdJL0hw0mJkBe3ejge8S0RfQSP_KAGQdmOYiSL0teK26SM9pRra1GLAc2NLxESEXnDLYsRIVBoZ3Q82Jv93mS9TIQcsKKCVoXN13VpJncYGKCgBrDH2-4nKnXhRbI0nsTNtIejb27wvmaLqXD9OF9GRlIGjX4SGJnGHhIVnTkhW_tsVaFitLVofLHu2OFzxzlLdyswvlLPxezlxvTtX4sANHz8CLECY8wH492gTFd8w6aPmGVyb71nAoTeeHUJXeLK8rIcfcy5TjdV5JMsFa9y3JVhd9vFFYhSnz3kXmD9k29QCV8qz0-yRAd_p7-h-eEkVTgPrAdADIn0v0ohPDWJyjWZDLOiY6ntWrwAzcefFxdGlKgPL9vV2m7LxMfVp56u0Cby5M8oMjJd-KZkJRBwifNJrVCKkdmitoWxzOn5Ut7abeLz1y0]--></g></svg>