<?xml version="1.0" encoding="us-ascii" standalone="no"?><svg xmlns="http://www.w3.org/2000/svg" xmlns:xlink="http://www.w3.org/1999/xlink" contentStyleType="text/css" height="809.2px" preserveAspectRatio="none" style="width:2125px;height:809px;background:#FFFFFF;" version="1.1" viewBox="0 0 2125 809" width="2125.2px" zoomAndPan="magnify"><defs/><g><!--cluster JobOpeningAggregate--><g id="cluster_JobOpeningAggregate"><rect fill="none" height="266.35" rx="1.75" ry="1.75" style="stroke:#000000;stroke-width:1.0499999999999998;" width="536.9" x="4.9" y="146.3"/><text fill="#000000" font-family="sans-serif" font-size="9.8" font-weight="bold" lengthAdjust="spacing" textLength="111.3" x="217.7" y="158.2752">JobOpeningAggregate</text></g><!--cluster JobOpeningProcessAggregate--><g id="cluster_JobOpeningProcessAggregate"><rect fill="none" height="282.1" rx="1.75" ry="1.75" style="stroke:#000000;stroke-width:1.0499999999999998;" width="1089.9" x="558.6" y="298.9"/><text fill="#000000" font-family="sans-serif" font-size="9.8" font-weight="bold" lengthAdjust="spacing" textLength="151.2" x="1027.95" y="310.8752">JobOpeningProcessAggregate</text></g><!--cluster ApplicationAggregate--><g id="cluster_ApplicationAggregate"><rect fill="none" height="356.65" rx="1.75" ry="1.75" style="stroke:#000000;stroke-width:1.0499999999999998;" width="140.7" x="1665.3" y="448.35"/><text fill="#000000" font-family="sans-serif" font-size="9.8" font-weight="bold" lengthAdjust="spacing" textLength="105.7" x="1682.8" y="460.3252">ApplicationAggregate</text></g><!--cluster CustomerEmployeeAggregate--><g id="cluster_CustomerEmployeeAggregate"><rect fill="none" height="105.7" rx="1.75" ry="1.75" style="stroke:#000000;stroke-width:1.0499999999999998;" width="157.5" x="1691.2" y="4.9"/><text fill="#000000" font-family="sans-serif" font-size="9.8" font-weight="bold" lengthAdjust="spacing" textLength="146.3" x="1696.8" y="16.8752">CustomerEmployeeAggregate</text></g><!--cluster CustomerManagerAggregate--><g id="cluster_CustomerManagerAggregate"><rect fill="none" height="105.7" rx="1.75" ry="1.75" style="stroke:#000000;stroke-width:1.0499999999999998;" width="153.3" x="1967.7" y="152.6"/><text fill="#000000" font-family="sans-serif" font-size="9.8" font-weight="bold" lengthAdjust="spacing" textLength="142.1" x="1973.3" y="164.5752">CustomerManagerAggregate</text></g><!--cluster CompanyAggregate--><g id="cluster_CompanyAggregate"><rect fill="none" height="240.8" rx="1.75" ry="1.75" style="stroke:#000000;stroke-width:1.0499999999999998;" width="237.3" x="1713.6" y="152.6"/><text fill="#000000" font-family="sans-serif" font-size="9.8" font-weight="bold" lengthAdjust="spacing" textLength="95.9" x="1784.3" y="164.5752">CompanyAggregate</text></g><!--class JobOpening--><g id="elem_JobOpening"><rect codeLine="5" fill="#F1F1F1" height="66.6148" id="JobOpening" rx="1.75" ry="1.75" style="stroke:#181818;stroke-width:0.3499999999999999;" width="75.6" x="455" y="186.9"/><ellipse cx="465.5" cy="208.09" fill="#ADD1B2" rx="7.7" ry="7.7" style="stroke:#181818;stroke-width:0.6999999999999998;"/><path d="M464.7016,208.6479 L464.7016,210.3979 L467.7312,210.3979 L467.7312,209.7525 Q467.7312,209.326 467.8953,209.14 Q468.0703,208.9541 468.3328,208.9541 Q468.5953,208.9541 468.7594,209.14 Q468.9234,209.326 468.9234,209.7525 L468.9234,211.59 L463.3234,211.59 Q462.8859,211.59 462.7,211.426 Q462.525,211.2619 462.525,210.9885 Q462.525,210.726 462.7109,210.5619 Q462.8969,210.3979 463.3234,210.3979 L463.5094,210.3979 L463.5094,205.7385 L463.3234,205.7385 Q462.8859,205.7385 462.7,205.5744 Q462.525,205.4104 462.525,205.1369 Q462.525,204.8744 462.7,204.7104 Q462.8859,204.5463 463.3234,204.5463 L468.6609,204.5463 L468.6609,206.3619 Q468.6609,206.7885 468.4969,206.9744 Q468.3437,207.1494 468.0703,207.1494 Q467.8078,207.1494 467.6437,206.9744 Q467.4797,206.7885 467.4797,206.3619 L467.4797,205.7385 L464.7016,205.7385 L464.7016,207.4557 L465.7406,207.4557 Q465.7406,206.9963 465.8281,206.865 Q466.0141,206.5807 466.3422,206.5807 Q466.6047,206.5807 466.7687,206.7666 Q466.9328,206.9416 466.9328,207.3682 L466.9328,208.7463 Q466.9328,209.1291 466.8453,209.2604 Q466.6594,209.5338 466.3422,209.5338 Q466.0141,209.5338 465.8281,209.2494 Q465.7406,209.1182 465.7406,208.6479 L464.7016,208.6479 Z " fill="#000000"/><text fill="#000000" font-family="sans-serif" font-size="8.4" font-style="italic" lengthAdjust="spacing" textLength="24.5" x="489.65" y="199.4645">&#171;root&#187;</text><text fill="#000000" font-family="sans-serif" font-size="8.4" font-style="italic" lengthAdjust="spacing" textLength="30.1" x="486.85" y="210.6371">&#171;entity&#187;</text><text fill="#000000" font-family="sans-serif" font-size="9.8" lengthAdjust="spacing" textLength="53.2" x="475.3" y="223.3205">JobOpening</text><line style="stroke:#181818;stroke-width:0.3499999999999999;" x1="455.7" x2="529.9" y1="229.2801" y2="229.2801"/><text fill="#000000" font-family="sans-serif" font-size="9.8" lengthAdjust="spacing" textLength="48.3" x="459.2" y="242.6553">description</text><line style="stroke:#181818;stroke-width:0.3499999999999999;" x1="455.7" x2="529.9" y1="247.9148" y2="247.9148"/></g><!--class JobReference--><g id="elem_JobReference"><rect codeLine="9" fill="#F1F1F1" height="42.4074" id="JobReference" rx="1.75" ry="1.75" style="stroke:#181818;stroke-width:0.3499999999999999;" width="84" x="16.1" y="339.5"/><ellipse cx="26.6" cy="355.1037" fill="#ADD1B2" rx="7.7" ry="7.7" style="stroke:#181818;stroke-width:0.6999999999999998;"/><path d="M28.5359,352.2162 Q28.6453,352.0631 28.7766,351.9865 Q28.9078,351.91 29.0609,351.91 Q29.3234,351.91 29.4875,352.0959 Q29.6516,352.2709 29.6516,352.6975 L29.6516,353.7146 Q29.6516,354.1412 29.4875,354.3271 Q29.3234,354.5131 29.0609,354.5131 Q28.8203,354.5131 28.6781,354.3709 Q28.5359,354.2396 28.4594,353.8787 Q28.4266,353.6271 28.2953,353.4959 Q28.0656,353.2334 27.6391,353.0803 Q27.2125,352.9271 26.775,352.9271 Q26.2391,352.9271 25.7906,353.1568 Q25.3531,353.3865 25.0031,353.9115 Q24.6641,354.4365 24.6641,355.1584 L24.6641,355.924 Q24.6641,356.7881 25.2875,357.3678 Q25.9109,357.9365 27.0266,357.9365 Q27.6828,357.9365 28.1422,357.7615 Q28.4156,357.6521 28.7109,357.3459 Q28.8969,357.16 28.9953,357.1053 Q29.1047,357.0506 29.2469,357.0506 Q29.4766,357.0506 29.6516,357.2365 Q29.8375,357.4115 29.8375,357.6521 Q29.8375,357.8928 29.5969,358.1771 Q29.2469,358.5818 28.6891,358.8115 Q27.9344,359.1287 27.0266,359.1287 Q25.9656,359.1287 25.1234,358.6912 Q24.4344,358.3412 23.9531,357.5975 Q23.4719,356.8428 23.4719,355.9459 L23.4719,355.1365 Q23.4719,354.2068 23.8984,353.4084 Q24.3359,352.599 25.1016,352.1725 Q25.8672,351.735 26.7312,351.735 Q27.2453,351.735 27.6937,351.8553 Q28.1531,351.9646 28.5359,352.2162 Z " fill="#000000"/><text fill="#000000" font-family="sans-serif" font-size="8.4" font-style="italic" lengthAdjust="spacing" textLength="32.2" x="51.1" y="352.0645">&#171;Value&#187;</text><text fill="#000000" font-family="sans-serif" font-size="9.8" lengthAdjust="spacing" textLength="61.6" x="36.4" y="364.7479">JobReference</text><line style="stroke:#181818;stroke-width:0.3499999999999999;" x1="16.8" x2="99.4" y1="370.7074" y2="370.7074"/><line style="stroke:#181818;stroke-width:0.3499999999999999;" x1="16.8" x2="99.4" y1="376.3074" y2="376.3074"/></g><!--class NumberOfVacancies--><g id="elem_NumberOfVacancies"><rect codeLine="12" fill="#F1F1F1" height="42.4074" id="NumberOfVacancies" rx="1.75" ry="1.75" style="stroke:#181818;stroke-width:0.3499999999999999;" width="112.7" x="124.95" y="339.5"/><ellipse cx="135.45" cy="355.1037" fill="#ADD1B2" rx="7.7" ry="7.7" style="stroke:#181818;stroke-width:0.6999999999999998;"/><path d="M137.3859,352.2162 Q137.4953,352.0631 137.6266,351.9865 Q137.7578,351.91 137.9109,351.91 Q138.1734,351.91 138.3375,352.0959 Q138.5016,352.2709 138.5016,352.6975 L138.5016,353.7146 Q138.5016,354.1412 138.3375,354.3271 Q138.1734,354.5131 137.9109,354.5131 Q137.6703,354.5131 137.5281,354.3709 Q137.3859,354.2396 137.3094,353.8787 Q137.2766,353.6271 137.1453,353.4959 Q136.9156,353.2334 136.4891,353.0803 Q136.0625,352.9271 135.625,352.9271 Q135.0891,352.9271 134.6406,353.1568 Q134.2031,353.3865 133.8531,353.9115 Q133.5141,354.4365 133.5141,355.1584 L133.5141,355.924 Q133.5141,356.7881 134.1375,357.3678 Q134.7609,357.9365 135.8766,357.9365 Q136.5328,357.9365 136.9922,357.7615 Q137.2656,357.6521 137.5609,357.3459 Q137.7469,357.16 137.8453,357.1053 Q137.9547,357.0506 138.0969,357.0506 Q138.3266,357.0506 138.5016,357.2365 Q138.6875,357.4115 138.6875,357.6521 Q138.6875,357.8928 138.4469,358.1771 Q138.0969,358.5818 137.5391,358.8115 Q136.7844,359.1287 135.8766,359.1287 Q134.8156,359.1287 133.9734,358.6912 Q133.2844,358.3412 132.8031,357.5975 Q132.3219,356.8428 132.3219,355.9459 L132.3219,355.1365 Q132.3219,354.2068 132.7484,353.4084 Q133.1859,352.599 133.9516,352.1725 Q134.7172,351.735 135.5812,351.735 Q136.0953,351.735 136.5437,351.8553 Q137.0031,351.9646 137.3859,352.2162 Z " fill="#000000"/><text fill="#000000" font-family="sans-serif" font-size="8.4" font-style="italic" lengthAdjust="spacing" textLength="32.2" x="174.3" y="352.0645">&#171;Value&#187;</text><text fill="#000000" font-family="sans-serif" font-size="9.8" lengthAdjust="spacing" textLength="90.3" x="145.25" y="364.7479">NumberOfVacancies</text><line style="stroke:#181818;stroke-width:0.3499999999999999;" x1="125.65" x2="236.95" y1="370.7074" y2="370.7074"/><line style="stroke:#181818;stroke-width:0.3499999999999999;" x1="125.65" x2="236.95" y1="376.3074" y2="376.3074"/></g><!--class ContractType--><g id="elem_ContractType"><rect codeLine="15" fill="#F1F1F1" height="68.477" id="ContractType" rx="1.75" ry="1.75" style="stroke:#181818;stroke-width:0.3499999999999999;" width="82.6" x="262.5" y="326.55"/><ellipse cx="273" cy="342.1537" fill="#EB937F" rx="7.7" ry="7.7" style="stroke:#181818;stroke-width:0.6999999999999998;"/><path d="M272.2016,342.7115 L272.2016,344.4615 L275.2312,344.4615 L275.2312,343.8162 Q275.2312,343.3896 275.3953,343.2037 Q275.5703,343.0178 275.8328,343.0178 Q276.0953,343.0178 276.2594,343.2037 Q276.4234,343.3896 276.4234,343.8162 L276.4234,345.6537 L270.8234,345.6537 Q270.3859,345.6537 270.2,345.4896 Q270.025,345.3256 270.025,345.0521 Q270.025,344.7896 270.2109,344.6256 Q270.3969,344.4615 270.8234,344.4615 L271.0094,344.4615 L271.0094,339.8021 L270.8234,339.8021 Q270.3859,339.8021 270.2,339.6381 Q270.025,339.474 270.025,339.2006 Q270.025,338.9381 270.2,338.774 Q270.3859,338.61 270.8234,338.61 L276.1609,338.61 L276.1609,340.4256 Q276.1609,340.8521 275.9969,341.0381 Q275.8437,341.2131 275.5703,341.2131 Q275.3078,341.2131 275.1437,341.0381 Q274.9797,340.8521 274.9797,340.4256 L274.9797,339.8021 L272.2016,339.8021 L272.2016,341.5193 L273.2406,341.5193 Q273.2406,341.06 273.3281,340.9287 Q273.5141,340.6443 273.8422,340.6443 Q274.1047,340.6443 274.2687,340.8303 Q274.4328,341.0053 274.4328,341.4318 L274.4328,342.81 Q274.4328,343.1928 274.3453,343.324 Q274.1594,343.5975 273.8422,343.5975 Q273.5141,343.5975 273.3281,343.3131 Q273.2406,343.1818 273.2406,342.7115 L272.2016,342.7115 Z " fill="#000000"/><text fill="#000000" font-family="sans-serif" font-size="8.4" font-style="italic" lengthAdjust="spacing" textLength="32.2" x="296.8" y="339.1145">&#171;Value&#187;</text><text fill="#000000" font-family="sans-serif" font-size="9.8" lengthAdjust="spacing" textLength="60.2" x="282.8" y="351.7979">ContractType</text><line style="stroke:#181818;stroke-width:0.3499999999999999;" x1="263.2" x2="344.4" y1="357.7574" y2="357.7574"/><text fill="#000000" font-family="sans-serif" font-size="9.8" lengthAdjust="spacing" textLength="34.3" x="266.7" y="371.1326">full-time</text><text fill="#000000" font-family="sans-serif" font-size="9.8" lengthAdjust="spacing" textLength="39.2" x="266.7" y="384.1674">part-time</text><line style="stroke:#181818;stroke-width:0.3499999999999999;" x1="263.2" x2="344.4" y1="389.427" y2="389.427"/></g><!--class WorkRegime--><g id="elem_WorkRegime"><rect codeLine="20" fill="#F1F1F1" height="81.5117" id="WorkRegime" rx="1.75" ry="1.75" style="stroke:#181818;stroke-width:0.3499999999999999;" width="79.1" x="369.95" y="320.25"/><ellipse cx="380.45" cy="335.8537" fill="#EB937F" rx="7.7" ry="7.7" style="stroke:#181818;stroke-width:0.6999999999999998;"/><path d="M379.6516,336.4115 L379.6516,338.1615 L382.6812,338.1615 L382.6812,337.5162 Q382.6812,337.0896 382.8453,336.9037 Q383.0203,336.7178 383.2828,336.7178 Q383.5453,336.7178 383.7094,336.9037 Q383.8734,337.0896 383.8734,337.5162 L383.8734,339.3537 L378.2734,339.3537 Q377.8359,339.3537 377.65,339.1896 Q377.475,339.0256 377.475,338.7521 Q377.475,338.4896 377.6609,338.3256 Q377.8469,338.1615 378.2734,338.1615 L378.4594,338.1615 L378.4594,333.5021 L378.2734,333.5021 Q377.8359,333.5021 377.65,333.3381 Q377.475,333.174 377.475,332.9006 Q377.475,332.6381 377.65,332.474 Q377.8359,332.31 378.2734,332.31 L383.6109,332.31 L383.6109,334.1256 Q383.6109,334.5521 383.4469,334.7381 Q383.2937,334.9131 383.0203,334.9131 Q382.7578,334.9131 382.5937,334.7381 Q382.4297,334.5521 382.4297,334.1256 L382.4297,333.5021 L379.6516,333.5021 L379.6516,335.2193 L380.6906,335.2193 Q380.6906,334.76 380.7781,334.6287 Q380.9641,334.3443 381.2922,334.3443 Q381.5547,334.3443 381.7187,334.5303 Q381.8828,334.7053 381.8828,335.1318 L381.8828,336.51 Q381.8828,336.8928 381.7953,337.024 Q381.6094,337.2975 381.2922,337.2975 Q380.9641,337.2975 380.7781,337.0131 Q380.6906,336.8818 380.6906,336.4115 L379.6516,336.4115 Z " fill="#000000"/><text fill="#000000" font-family="sans-serif" font-size="8.4" font-style="italic" lengthAdjust="spacing" textLength="32.2" x="402.5" y="332.8145">&#171;Value&#187;</text><text fill="#000000" font-family="sans-serif" font-size="9.8" lengthAdjust="spacing" textLength="56.7" x="390.25" y="345.4979">WorkRegime</text><line style="stroke:#181818;stroke-width:0.3499999999999999;" x1="370.65" x2="448.35" y1="351.4574" y2="351.4574"/><text fill="#000000" font-family="sans-serif" font-size="9.8" lengthAdjust="spacing" textLength="30.8" x="374.15" y="364.8326">remote</text><text fill="#000000" font-family="sans-serif" font-size="9.8" lengthAdjust="spacing" textLength="27.3" x="374.15" y="377.8674">hybrid</text><text fill="#000000" font-family="sans-serif" font-size="9.8" lengthAdjust="spacing" textLength="26.6" x="374.15" y="390.9021">onsite</text><line style="stroke:#181818;stroke-width:0.3499999999999999;" x1="370.65" x2="448.35" y1="396.1617" y2="396.1617"/></g><!--class JobTitle--><g id="elem_JobTitle"><rect codeLine="26" fill="#F1F1F1" height="42.4074" id="JobTitle" rx="1.75" ry="1.75" style="stroke:#181818;stroke-width:0.3499999999999999;" width="56.7" x="473.55" y="339.5"/><ellipse cx="484.05" cy="355.1037" fill="#ADD1B2" rx="7.7" ry="7.7" style="stroke:#181818;stroke-width:0.6999999999999998;"/><path d="M485.9859,352.2162 Q486.0953,352.0631 486.2266,351.9865 Q486.3578,351.91 486.5109,351.91 Q486.7734,351.91 486.9375,352.0959 Q487.1016,352.2709 487.1016,352.6975 L487.1016,353.7146 Q487.1016,354.1412 486.9375,354.3271 Q486.7734,354.5131 486.5109,354.5131 Q486.2703,354.5131 486.1281,354.3709 Q485.9859,354.2396 485.9094,353.8787 Q485.8766,353.6271 485.7453,353.4959 Q485.5156,353.2334 485.0891,353.0803 Q484.6625,352.9271 484.225,352.9271 Q483.6891,352.9271 483.2406,353.1568 Q482.8031,353.3865 482.4531,353.9115 Q482.1141,354.4365 482.1141,355.1584 L482.1141,355.924 Q482.1141,356.7881 482.7375,357.3678 Q483.3609,357.9365 484.4766,357.9365 Q485.1328,357.9365 485.5922,357.7615 Q485.8656,357.6521 486.1609,357.3459 Q486.3469,357.16 486.4453,357.1053 Q486.5547,357.0506 486.6969,357.0506 Q486.9266,357.0506 487.1016,357.2365 Q487.2875,357.4115 487.2875,357.6521 Q487.2875,357.8928 487.0469,358.1771 Q486.6969,358.5818 486.1391,358.8115 Q485.3844,359.1287 484.4766,359.1287 Q483.4156,359.1287 482.5734,358.6912 Q481.8844,358.3412 481.4031,357.5975 Q480.9219,356.8428 480.9219,355.9459 L480.9219,355.1365 Q480.9219,354.2068 481.3484,353.4084 Q481.7859,352.599 482.5516,352.1725 Q483.3172,351.735 484.1812,351.735 Q484.6953,351.735 485.1437,351.8553 Q485.6031,351.9646 485.9859,352.2162 Z " fill="#000000"/><text fill="#000000" font-family="sans-serif" font-size="8.4" font-style="italic" lengthAdjust="spacing" textLength="32.2" x="494.9" y="352.0645">&#171;Value&#187;</text><text fill="#000000" font-family="sans-serif" font-size="9.8" lengthAdjust="spacing" textLength="34.3" x="493.85" y="364.7479">JobTitle</text><line style="stroke:#181818;stroke-width:0.3499999999999999;" x1="474.25" x2="529.55" y1="370.7074" y2="370.7074"/><line style="stroke:#181818;stroke-width:0.3499999999999999;" x1="474.25" x2="529.55" y1="376.3074" y2="376.3074"/></g><!--class JobOpeningProcess--><g id="elem_JobOpeningProcess"><rect codeLine="31" fill="#F1F1F1" height="42.4074" id="JobOpeningProcess" rx="1.75" ry="1.75" style="stroke:#181818;stroke-width:0.3499999999999999;" width="111.3" x="931.35" y="339.5"/><ellipse cx="941.85" cy="355.1037" fill="#ADD1B2" rx="7.7" ry="7.7" style="stroke:#181818;stroke-width:0.6999999999999998;"/><path d="M943.7859,352.2162 Q943.8953,352.0631 944.0266,351.9865 Q944.1578,351.91 944.3109,351.91 Q944.5734,351.91 944.7375,352.0959 Q944.9016,352.2709 944.9016,352.6975 L944.9016,353.7146 Q944.9016,354.1412 944.7375,354.3271 Q944.5734,354.5131 944.3109,354.5131 Q944.0703,354.5131 943.9281,354.3709 Q943.7859,354.2396 943.7094,353.8787 Q943.6766,353.6271 943.5453,353.4959 Q943.3156,353.2334 942.8891,353.0803 Q942.4625,352.9271 942.025,352.9271 Q941.4891,352.9271 941.0406,353.1568 Q940.6031,353.3865 940.2531,353.9115 Q939.9141,354.4365 939.9141,355.1584 L939.9141,355.924 Q939.9141,356.7881 940.5375,357.3678 Q941.1609,357.9365 942.2766,357.9365 Q942.9328,357.9365 943.3922,357.7615 Q943.6656,357.6521 943.9609,357.3459 Q944.1469,357.16 944.2453,357.1053 Q944.3547,357.0506 944.4969,357.0506 Q944.7266,357.0506 944.9016,357.2365 Q945.0875,357.4115 945.0875,357.6521 Q945.0875,357.8928 944.8469,358.1771 Q944.4969,358.5818 943.9391,358.8115 Q943.1844,359.1287 942.2766,359.1287 Q941.2156,359.1287 940.3734,358.6912 Q939.6844,358.3412 939.2031,357.5975 Q938.7219,356.8428 938.7219,355.9459 L938.7219,355.1365 Q938.7219,354.2068 939.1484,353.4084 Q939.5859,352.599 940.3516,352.1725 Q941.1172,351.735 941.9812,351.735 Q942.4953,351.735 942.9437,351.8553 Q943.4031,351.9646 943.7859,352.2162 Z " fill="#000000"/><text fill="#000000" font-family="sans-serif" font-size="8.4" font-style="italic" lengthAdjust="spacing" textLength="30.8" x="980.7" y="352.0645">&#171;Entity&#187;</text><text fill="#000000" font-family="sans-serif" font-size="9.8" lengthAdjust="spacing" textLength="88.9" x="951.65" y="364.7479">JobOpeningProcess</text><line style="stroke:#181818;stroke-width:0.3499999999999999;" x1="932.05" x2="1041.95" y1="370.7074" y2="370.7074"/><line style="stroke:#181818;stroke-width:0.3499999999999999;" x1="932.05" x2="1041.95" y1="376.3074" y2="376.3074"/></g><!--class JobOpeningStatus--><g id="elem_JobOpeningStatus"><rect codeLine="34" fill="#F1F1F1" height="107.5812" id="JobOpeningStatus" rx="1.75" ry="1.75" style="stroke:#181818;stroke-width:0.3499999999999999;" width="103.6" x="569.8" y="462"/><ellipse cx="580.3" cy="477.6037" fill="#EB937F" rx="7.7" ry="7.7" style="stroke:#181818;stroke-width:0.6999999999999998;"/><path d="M579.5016,478.1615 L579.5016,479.9115 L582.5312,479.9115 L582.5312,479.2662 Q582.5312,478.8396 582.6953,478.6537 Q582.8703,478.4678 583.1328,478.4678 Q583.3953,478.4678 583.5594,478.6537 Q583.7234,478.8396 583.7234,479.2662 L583.7234,481.1037 L578.1234,481.1037 Q577.6859,481.1037 577.5,480.9396 Q577.325,480.7756 577.325,480.5021 Q577.325,480.2396 577.5109,480.0756 Q577.6969,479.9115 578.1234,479.9115 L578.3094,479.9115 L578.3094,475.2521 L578.1234,475.2521 Q577.6859,475.2521 577.5,475.0881 Q577.325,474.924 577.325,474.6506 Q577.325,474.3881 577.5,474.224 Q577.6859,474.06 578.1234,474.06 L583.4609,474.06 L583.4609,475.8756 Q583.4609,476.3021 583.2969,476.4881 Q583.1437,476.6631 582.8703,476.6631 Q582.6078,476.6631 582.4437,476.4881 Q582.2797,476.3021 582.2797,475.8756 L582.2797,475.2521 L579.5016,475.2521 L579.5016,476.9693 L580.5406,476.9693 Q580.5406,476.51 580.6281,476.3787 Q580.8141,476.0943 581.1422,476.0943 Q581.4047,476.0943 581.5687,476.2803 Q581.7328,476.4553 581.7328,476.8818 L581.7328,478.26 Q581.7328,478.6428 581.6453,478.774 Q581.4594,479.0475 581.1422,479.0475 Q580.8141,479.0475 580.6281,478.7631 Q580.5406,478.6318 580.5406,478.1615 L579.5016,478.1615 Z " fill="#000000"/><text fill="#000000" font-family="sans-serif" font-size="8.4" font-style="italic" lengthAdjust="spacing" textLength="32.2" x="614.6" y="474.5645">&#171;Value&#187;</text><text fill="#000000" font-family="sans-serif" font-size="9.8" lengthAdjust="spacing" textLength="81.2" x="590.1" y="487.2479">JobOpeningStatus</text><line style="stroke:#181818;stroke-width:0.3499999999999999;" x1="570.5" x2="672.7" y1="493.2074" y2="493.2074"/><text fill="#000000" font-family="sans-serif" font-size="9.8" lengthAdjust="spacing" textLength="48.3" x="574" y="506.5826">Application</text><text fill="#000000" font-family="sans-serif" font-size="9.8" lengthAdjust="spacing" textLength="44.8" x="574" y="519.6174">Screening</text><text fill="#000000" font-family="sans-serif" font-size="9.8" lengthAdjust="spacing" textLength="38.5" x="574" y="532.6521">Interview</text><text fill="#000000" font-family="sans-serif" font-size="9.8" lengthAdjust="spacing" textLength="36.4" x="574" y="545.6869">Analysis</text><text fill="#000000" font-family="sans-serif" font-size="9.8" lengthAdjust="spacing" textLength="28" x="574" y="558.7217">Result</text><line style="stroke:#181818;stroke-width:0.3499999999999999;" x1="570.5" x2="672.7" y1="563.9812" y2="563.9812"/></g><!--class JobOpeningApplicationIntervalDate--><g id="elem_JobOpeningApplicationIntervalDate"><rect codeLine="43" fill="#F1F1F1" height="42.4074" id="JobOpeningApplicationIntervalDate" rx="1.75" ry="1.75" style="stroke:#181818;stroke-width:0.3499999999999999;" width="177.1" x="698.25" y="494.55"/><ellipse cx="708.75" cy="510.1537" fill="#ADD1B2" rx="7.7" ry="7.7" style="stroke:#181818;stroke-width:0.6999999999999998;"/><path d="M710.6859,507.2662 Q710.7953,507.1131 710.9266,507.0365 Q711.0578,506.96 711.2109,506.96 Q711.4734,506.96 711.6375,507.1459 Q711.8016,507.3209 711.8016,507.7475 L711.8016,508.7646 Q711.8016,509.1912 711.6375,509.3771 Q711.4734,509.5631 711.2109,509.5631 Q710.9703,509.5631 710.8281,509.4209 Q710.6859,509.2896 710.6094,508.9287 Q710.5766,508.6771 710.4453,508.5459 Q710.2156,508.2834 709.7891,508.1303 Q709.3625,507.9771 708.925,507.9771 Q708.3891,507.9771 707.9406,508.2068 Q707.5031,508.4365 707.1531,508.9615 Q706.8141,509.4865 706.8141,510.2084 L706.8141,510.974 Q706.8141,511.8381 707.4375,512.4178 Q708.0609,512.9865 709.1766,512.9865 Q709.8328,512.9865 710.2922,512.8115 Q710.5656,512.7021 710.8609,512.3959 Q711.0469,512.21 711.1453,512.1553 Q711.2547,512.1006 711.3969,512.1006 Q711.6266,512.1006 711.8016,512.2865 Q711.9875,512.4615 711.9875,512.7021 Q711.9875,512.9428 711.7469,513.2271 Q711.3969,513.6318 710.8391,513.8615 Q710.0844,514.1787 709.1766,514.1787 Q708.1156,514.1787 707.2734,513.7412 Q706.5844,513.3912 706.1031,512.6475 Q705.6219,511.8928 705.6219,510.9959 L705.6219,510.1865 Q705.6219,509.2568 706.0484,508.4584 Q706.4859,507.649 707.2516,507.2225 Q708.0172,506.785 708.8812,506.785 Q709.3953,506.785 709.8437,506.9053 Q710.3031,507.0146 710.6859,507.2662 Z " fill="#000000"/><text fill="#000000" font-family="sans-serif" font-size="8.4" font-style="italic" lengthAdjust="spacing" textLength="32.2" x="779.8" y="507.1145">&#171;Value&#187;</text><text fill="#000000" font-family="sans-serif" font-size="9.8" lengthAdjust="spacing" textLength="154.7" x="718.55" y="519.7979">JobOpeningApplicationIntervalDate</text><line style="stroke:#181818;stroke-width:0.3499999999999999;" x1="698.95" x2="874.65" y1="525.7574" y2="525.7574"/><line style="stroke:#181818;stroke-width:0.3499999999999999;" x1="698.95" x2="874.65" y1="531.3574" y2="531.3574"/></g><!--class JobOpeningScreeningIntervalDate--><g id="elem_JobOpeningScreeningIntervalDate"><rect codeLine="44" fill="#F1F1F1" height="42.4074" id="JobOpeningScreeningIntervalDate" rx="1.75" ry="1.75" style="stroke:#181818;stroke-width:0.3499999999999999;" width="173.6" x="900.2" y="494.55"/><ellipse cx="910.7" cy="510.1537" fill="#ADD1B2" rx="7.7" ry="7.7" style="stroke:#181818;stroke-width:0.6999999999999998;"/><path d="M912.6359,507.2662 Q912.7453,507.1131 912.8766,507.0365 Q913.0078,506.96 913.1609,506.96 Q913.4234,506.96 913.5875,507.1459 Q913.7516,507.3209 913.7516,507.7475 L913.7516,508.7646 Q913.7516,509.1912 913.5875,509.3771 Q913.4234,509.5631 913.1609,509.5631 Q912.9203,509.5631 912.7781,509.4209 Q912.6359,509.2896 912.5594,508.9287 Q912.5266,508.6771 912.3953,508.5459 Q912.1656,508.2834 911.7391,508.1303 Q911.3125,507.9771 910.875,507.9771 Q910.3391,507.9771 909.8906,508.2068 Q909.4531,508.4365 909.1031,508.9615 Q908.7641,509.4865 908.7641,510.2084 L908.7641,510.974 Q908.7641,511.8381 909.3875,512.4178 Q910.0109,512.9865 911.1266,512.9865 Q911.7828,512.9865 912.2422,512.8115 Q912.5156,512.7021 912.8109,512.3959 Q912.9969,512.21 913.0953,512.1553 Q913.2047,512.1006 913.3469,512.1006 Q913.5766,512.1006 913.7516,512.2865 Q913.9375,512.4615 913.9375,512.7021 Q913.9375,512.9428 913.6969,513.2271 Q913.3469,513.6318 912.7891,513.8615 Q912.0344,514.1787 911.1266,514.1787 Q910.0656,514.1787 909.2234,513.7412 Q908.5344,513.3912 908.0531,512.6475 Q907.5719,511.8928 907.5719,510.9959 L907.5719,510.1865 Q907.5719,509.2568 907.9984,508.4584 Q908.4359,507.649 909.2016,507.2225 Q909.9672,506.785 910.8312,506.785 Q911.3453,506.785 911.7937,506.9053 Q912.2531,507.0146 912.6359,507.2662 Z " fill="#000000"/><text fill="#000000" font-family="sans-serif" font-size="8.4" font-style="italic" lengthAdjust="spacing" textLength="32.2" x="980" y="507.1145">&#171;Value&#187;</text><text fill="#000000" font-family="sans-serif" font-size="9.8" lengthAdjust="spacing" textLength="151.2" x="920.5" y="519.7979">JobOpeningScreeningIntervalDate</text><line style="stroke:#181818;stroke-width:0.3499999999999999;" x1="900.9" x2="1073.1" y1="525.7574" y2="525.7574"/><line style="stroke:#181818;stroke-width:0.3499999999999999;" x1="900.9" x2="1073.1" y1="531.3574" y2="531.3574"/></g><!--class JobOpeningInterviewIntervalDate--><g id="elem_JobOpeningInterviewIntervalDate"><rect codeLine="45" fill="#F1F1F1" height="42.4074" id="JobOpeningInterviewIntervalDate" rx="1.75" ry="1.75" style="stroke:#181818;stroke-width:0.3499999999999999;" width="167.3" x="1098.65" y="494.55"/><ellipse cx="1109.15" cy="510.1537" fill="#ADD1B2" rx="7.7" ry="7.7" style="stroke:#181818;stroke-width:0.6999999999999998;"/><path d="M1111.0859,507.2662 Q1111.1953,507.1131 1111.3266,507.0365 Q1111.4578,506.96 1111.6109,506.96 Q1111.8734,506.96 1112.0375,507.1459 Q1112.2016,507.3209 1112.2016,507.7475 L1112.2016,508.7646 Q1112.2016,509.1912 1112.0375,509.3771 Q1111.8734,509.5631 1111.6109,509.5631 Q1111.3703,509.5631 1111.2281,509.4209 Q1111.0859,509.2896 1111.0094,508.9287 Q1110.9766,508.6771 1110.8453,508.5459 Q1110.6156,508.2834 1110.1891,508.1303 Q1109.7625,507.9771 1109.325,507.9771 Q1108.7891,507.9771 1108.3406,508.2068 Q1107.9031,508.4365 1107.5531,508.9615 Q1107.2141,509.4865 1107.2141,510.2084 L1107.2141,510.974 Q1107.2141,511.8381 1107.8375,512.4178 Q1108.4609,512.9865 1109.5766,512.9865 Q1110.2328,512.9865 1110.6922,512.8115 Q1110.9656,512.7021 1111.2609,512.3959 Q1111.4469,512.21 1111.5453,512.1553 Q1111.6547,512.1006 1111.7969,512.1006 Q1112.0266,512.1006 1112.2016,512.2865 Q1112.3875,512.4615 1112.3875,512.7021 Q1112.3875,512.9428 1112.1469,513.2271 Q1111.7969,513.6318 1111.2391,513.8615 Q1110.4844,514.1787 1109.5766,514.1787 Q1108.5156,514.1787 1107.6734,513.7412 Q1106.9844,513.3912 1106.5031,512.6475 Q1106.0219,511.8928 1106.0219,510.9959 L1106.0219,510.1865 Q1106.0219,509.2568 1106.4484,508.4584 Q1106.8859,507.649 1107.6516,507.2225 Q1108.4172,506.785 1109.2812,506.785 Q1109.7953,506.785 1110.2437,506.9053 Q1110.7031,507.0146 1111.0859,507.2662 Z " fill="#000000"/><text fill="#000000" font-family="sans-serif" font-size="8.4" font-style="italic" lengthAdjust="spacing" textLength="32.2" x="1175.3" y="507.1145">&#171;Value&#187;</text><text fill="#000000" font-family="sans-serif" font-size="9.8" lengthAdjust="spacing" textLength="144.9" x="1118.95" y="519.7979">JobOpeningInterviewIntervalDate</text><line style="stroke:#181818;stroke-width:0.3499999999999999;" x1="1099.35" x2="1265.25" y1="525.7574" y2="525.7574"/><line style="stroke:#181818;stroke-width:0.3499999999999999;" x1="1099.35" x2="1265.25" y1="531.3574" y2="531.3574"/></g><!--class JobOpeningAnalysisIntervalDate--><g id="elem_JobOpeningAnalysisIntervalDate"><rect codeLine="46" fill="#F1F1F1" height="42.4074" id="JobOpeningAnalysisIntervalDate" rx="1.75" ry="1.75" style="stroke:#181818;stroke-width:0.3499999999999999;" width="165.2" x="1290.8" y="494.55"/><ellipse cx="1301.3" cy="510.1537" fill="#ADD1B2" rx="7.7" ry="7.7" style="stroke:#181818;stroke-width:0.6999999999999998;"/><path d="M1303.2359,507.2662 Q1303.3453,507.1131 1303.4766,507.0365 Q1303.6078,506.96 1303.7609,506.96 Q1304.0234,506.96 1304.1875,507.1459 Q1304.3516,507.3209 1304.3516,507.7475 L1304.3516,508.7646 Q1304.3516,509.1912 1304.1875,509.3771 Q1304.0234,509.5631 1303.7609,509.5631 Q1303.5203,509.5631 1303.3781,509.4209 Q1303.2359,509.2896 1303.1594,508.9287 Q1303.1266,508.6771 1302.9953,508.5459 Q1302.7656,508.2834 1302.3391,508.1303 Q1301.9125,507.9771 1301.475,507.9771 Q1300.9391,507.9771 1300.4906,508.2068 Q1300.0531,508.4365 1299.7031,508.9615 Q1299.3641,509.4865 1299.3641,510.2084 L1299.3641,510.974 Q1299.3641,511.8381 1299.9875,512.4178 Q1300.6109,512.9865 1301.7266,512.9865 Q1302.3828,512.9865 1302.8422,512.8115 Q1303.1156,512.7021 1303.4109,512.3959 Q1303.5969,512.21 1303.6953,512.1553 Q1303.8047,512.1006 1303.9469,512.1006 Q1304.1766,512.1006 1304.3516,512.2865 Q1304.5375,512.4615 1304.5375,512.7021 Q1304.5375,512.9428 1304.2969,513.2271 Q1303.9469,513.6318 1303.3891,513.8615 Q1302.6344,514.1787 1301.7266,514.1787 Q1300.6656,514.1787 1299.8234,513.7412 Q1299.1344,513.3912 1298.6531,512.6475 Q1298.1719,511.8928 1298.1719,510.9959 L1298.1719,510.1865 Q1298.1719,509.2568 1298.5984,508.4584 Q1299.0359,507.649 1299.8016,507.2225 Q1300.5672,506.785 1301.4312,506.785 Q1301.9453,506.785 1302.3937,506.9053 Q1302.8531,507.0146 1303.2359,507.2662 Z " fill="#000000"/><text fill="#000000" font-family="sans-serif" font-size="8.4" font-style="italic" lengthAdjust="spacing" textLength="32.2" x="1366.4" y="507.1145">&#171;Value&#187;</text><text fill="#000000" font-family="sans-serif" font-size="9.8" lengthAdjust="spacing" textLength="142.8" x="1311.1" y="519.7979">JobOpeningAnalysisIntervalDate</text><line style="stroke:#181818;stroke-width:0.3499999999999999;" x1="1291.5" x2="1455.3" y1="525.7574" y2="525.7574"/><line style="stroke:#181818;stroke-width:0.3499999999999999;" x1="1291.5" x2="1455.3" y1="531.3574" y2="531.3574"/></g><!--class JobOpeningResultIntervalDate--><g id="elem_JobOpeningResultIntervalDate"><rect codeLine="47" fill="#F1F1F1" height="42.4074" id="JobOpeningResultIntervalDate" rx="1.75" ry="1.75" style="stroke:#181818;stroke-width:0.3499999999999999;" width="156.8" x="1480.5" y="494.55"/><ellipse cx="1491" cy="510.1537" fill="#ADD1B2" rx="7.7" ry="7.7" style="stroke:#181818;stroke-width:0.6999999999999998;"/><path d="M1492.9359,507.2662 Q1493.0453,507.1131 1493.1766,507.0365 Q1493.3078,506.96 1493.4609,506.96 Q1493.7234,506.96 1493.8875,507.1459 Q1494.0516,507.3209 1494.0516,507.7475 L1494.0516,508.7646 Q1494.0516,509.1912 1493.8875,509.3771 Q1493.7234,509.5631 1493.4609,509.5631 Q1493.2203,509.5631 1493.0781,509.4209 Q1492.9359,509.2896 1492.8594,508.9287 Q1492.8266,508.6771 1492.6953,508.5459 Q1492.4656,508.2834 1492.0391,508.1303 Q1491.6125,507.9771 1491.175,507.9771 Q1490.6391,507.9771 1490.1906,508.2068 Q1489.7531,508.4365 1489.4031,508.9615 Q1489.0641,509.4865 1489.0641,510.2084 L1489.0641,510.974 Q1489.0641,511.8381 1489.6875,512.4178 Q1490.3109,512.9865 1491.4266,512.9865 Q1492.0828,512.9865 1492.5422,512.8115 Q1492.8156,512.7021 1493.1109,512.3959 Q1493.2969,512.21 1493.3953,512.1553 Q1493.5047,512.1006 1493.6469,512.1006 Q1493.8766,512.1006 1494.0516,512.2865 Q1494.2375,512.4615 1494.2375,512.7021 Q1494.2375,512.9428 1493.9969,513.2271 Q1493.6469,513.6318 1493.0891,513.8615 Q1492.3344,514.1787 1491.4266,514.1787 Q1490.3656,514.1787 1489.5234,513.7412 Q1488.8344,513.3912 1488.3531,512.6475 Q1487.8719,511.8928 1487.8719,510.9959 L1487.8719,510.1865 Q1487.8719,509.2568 1488.2984,508.4584 Q1488.7359,507.649 1489.5016,507.2225 Q1490.2672,506.785 1491.1312,506.785 Q1491.6453,506.785 1492.0937,506.9053 Q1492.5531,507.0146 1492.9359,507.2662 Z " fill="#000000"/><text fill="#000000" font-family="sans-serif" font-size="8.4" font-style="italic" lengthAdjust="spacing" textLength="32.2" x="1551.9" y="507.1145">&#171;Value&#187;</text><text fill="#000000" font-family="sans-serif" font-size="9.8" lengthAdjust="spacing" textLength="134.4" x="1500.8" y="519.7979">JobOpeningResultIntervalDate</text><line style="stroke:#181818;stroke-width:0.3499999999999999;" x1="1481.2" x2="1636.6" y1="525.7574" y2="525.7574"/><line style="stroke:#181818;stroke-width:0.3499999999999999;" x1="1481.2" x2="1636.6" y1="531.3574" y2="531.3574"/></g><!--class Application--><g id="elem_Application"><rect codeLine="52" fill="#F1F1F1" height="53.5801" id="Application" rx="1.75" ry="1.75" style="stroke:#181818;stroke-width:0.3499999999999999;" width="70.7" x="1687.35" y="488.95"/><ellipse cx="1697.85" cy="510.14" fill="#ADD1B2" rx="7.7" ry="7.7" style="stroke:#181818;stroke-width:0.6999999999999998;"/><path d="M1697.0516,510.6979 L1697.0516,512.4479 L1700.0812,512.4479 L1700.0812,511.8025 Q1700.0812,511.376 1700.2453,511.19 Q1700.4203,511.0041 1700.6828,511.0041 Q1700.9453,511.0041 1701.1094,511.19 Q1701.2734,511.376 1701.2734,511.8025 L1701.2734,513.64 L1695.6734,513.64 Q1695.2359,513.64 1695.05,513.476 Q1694.875,513.3119 1694.875,513.0385 Q1694.875,512.776 1695.0609,512.6119 Q1695.2469,512.4479 1695.6734,512.4479 L1695.8594,512.4479 L1695.8594,507.7885 L1695.6734,507.7885 Q1695.2359,507.7885 1695.05,507.6244 Q1694.875,507.4604 1694.875,507.1869 Q1694.875,506.9244 1695.05,506.7604 Q1695.2359,506.5963 1695.6734,506.5963 L1701.0109,506.5963 L1701.0109,508.4119 Q1701.0109,508.8385 1700.8469,509.0244 Q1700.6937,509.1994 1700.4203,509.1994 Q1700.1578,509.1994 1699.9937,509.0244 Q1699.8297,508.8385 1699.8297,508.4119 L1699.8297,507.7885 L1697.0516,507.7885 L1697.0516,509.5057 L1698.0906,509.5057 Q1698.0906,509.0463 1698.1781,508.915 Q1698.3641,508.6307 1698.6922,508.6307 Q1698.9547,508.6307 1699.1187,508.8166 Q1699.2828,508.9916 1699.2828,509.4182 L1699.2828,510.7963 Q1699.2828,511.1791 1699.1953,511.3104 Q1699.0094,511.5838 1698.6922,511.5838 Q1698.3641,511.5838 1698.1781,511.2994 Q1698.0906,511.1682 1698.0906,510.6979 L1697.0516,510.6979 Z " fill="#000000"/><text fill="#000000" font-family="sans-serif" font-size="8.4" font-style="italic" lengthAdjust="spacing" textLength="30.1" x="1716.75" y="501.5145">&#171;entity&#187;</text><text fill="#000000" font-family="sans-serif" font-size="8.4" font-style="italic" lengthAdjust="spacing" textLength="24.5" x="1719.55" y="512.6871">&#171;root&#187;</text><text fill="#000000" font-family="sans-serif" font-size="9.8" lengthAdjust="spacing" textLength="48.3" x="1707.65" y="525.3705">Application</text><line style="stroke:#181818;stroke-width:0.3499999999999999;" x1="1688.05" x2="1757.35" y1="531.3301" y2="531.3301"/><line style="stroke:#181818;stroke-width:0.3499999999999999;" x1="1688.05" x2="1757.35" y1="536.9301" y2="536.9301"/></g><!--class ApplicationDate--><g id="elem_ApplicationDate"><rect codeLine="54" fill="#F1F1F1" height="42.4074" id="ApplicationDate" rx="1.75" ry="1.75" style="stroke:#181818;stroke-width:0.3499999999999999;" width="91.7" x="1676.85" y="613.9"/><ellipse cx="1687.35" cy="629.5037" fill="#ADD1B2" rx="7.7" ry="7.7" style="stroke:#181818;stroke-width:0.6999999999999998;"/><path d="M1689.2859,626.6162 Q1689.3953,626.4631 1689.5266,626.3865 Q1689.6578,626.31 1689.8109,626.31 Q1690.0734,626.31 1690.2375,626.4959 Q1690.4016,626.6709 1690.4016,627.0975 L1690.4016,628.1146 Q1690.4016,628.5412 1690.2375,628.7271 Q1690.0734,628.9131 1689.8109,628.9131 Q1689.5703,628.9131 1689.4281,628.7709 Q1689.2859,628.6396 1689.2094,628.2787 Q1689.1766,628.0271 1689.0453,627.8959 Q1688.8156,627.6334 1688.3891,627.4803 Q1687.9625,627.3271 1687.525,627.3271 Q1686.9891,627.3271 1686.5406,627.5568 Q1686.1031,627.7865 1685.7531,628.3115 Q1685.4141,628.8365 1685.4141,629.5584 L1685.4141,630.324 Q1685.4141,631.1881 1686.0375,631.7678 Q1686.6609,632.3365 1687.7766,632.3365 Q1688.4328,632.3365 1688.8922,632.1615 Q1689.1656,632.0521 1689.4609,631.7459 Q1689.6469,631.56 1689.7453,631.5053 Q1689.8547,631.4506 1689.9969,631.4506 Q1690.2266,631.4506 1690.4016,631.6365 Q1690.5875,631.8115 1690.5875,632.0521 Q1690.5875,632.2928 1690.3469,632.5771 Q1689.9969,632.9818 1689.4391,633.2115 Q1688.6844,633.5287 1687.7766,633.5287 Q1686.7156,633.5287 1685.8734,633.0912 Q1685.1844,632.7412 1684.7031,631.9975 Q1684.2219,631.2428 1684.2219,630.3459 L1684.2219,629.5365 Q1684.2219,628.6068 1684.6484,627.8084 Q1685.0859,626.999 1685.8516,626.5725 Q1686.6172,626.135 1687.4812,626.135 Q1687.9953,626.135 1688.4437,626.2553 Q1688.9031,626.3646 1689.2859,626.6162 Z " fill="#000000"/><text fill="#000000" font-family="sans-serif" font-size="8.4" font-style="italic" lengthAdjust="spacing" textLength="32.2" x="1715.7" y="626.4645">&#171;Value&#187;</text><text fill="#000000" font-family="sans-serif" font-size="9.8" lengthAdjust="spacing" textLength="69.3" x="1697.15" y="639.1479">ApplicationDate</text><line style="stroke:#181818;stroke-width:0.3499999999999999;" x1="1677.55" x2="1767.85" y1="645.1074" y2="645.1074"/><line style="stroke:#181818;stroke-width:0.3499999999999999;" x1="1677.55" x2="1767.85" y1="650.7074" y2="650.7074"/></g><!--class ApplicationStatus--><g id="elem_ApplicationStatus"><rect codeLine="57" fill="#F1F1F1" height="94.5465" id="ApplicationStatus" rx="1.75" ry="1.75" style="stroke:#181818;stroke-width:0.3499999999999999;" width="98.7" x="1695.75" y="699.3"/><ellipse cx="1706.25" cy="714.9037" fill="#EB937F" rx="7.7" ry="7.7" style="stroke:#181818;stroke-width:0.6999999999999998;"/><path d="M1705.4516,715.4615 L1705.4516,717.2115 L1708.4812,717.2115 L1708.4812,716.5662 Q1708.4812,716.1396 1708.6453,715.9537 Q1708.8203,715.7678 1709.0828,715.7678 Q1709.3453,715.7678 1709.5094,715.9537 Q1709.6734,716.1396 1709.6734,716.5662 L1709.6734,718.4037 L1704.0734,718.4037 Q1703.6359,718.4037 1703.45,718.2396 Q1703.275,718.0756 1703.275,717.8021 Q1703.275,717.5396 1703.4609,717.3756 Q1703.6469,717.2115 1704.0734,717.2115 L1704.2594,717.2115 L1704.2594,712.5521 L1704.0734,712.5521 Q1703.6359,712.5521 1703.45,712.3881 Q1703.275,712.224 1703.275,711.9506 Q1703.275,711.6881 1703.45,711.524 Q1703.6359,711.36 1704.0734,711.36 L1709.4109,711.36 L1709.4109,713.1756 Q1709.4109,713.6021 1709.2469,713.7881 Q1709.0937,713.9631 1708.8203,713.9631 Q1708.5578,713.9631 1708.3937,713.7881 Q1708.2297,713.6021 1708.2297,713.1756 L1708.2297,712.5521 L1705.4516,712.5521 L1705.4516,714.2693 L1706.4906,714.2693 Q1706.4906,713.81 1706.5781,713.6787 Q1706.7641,713.3943 1707.0922,713.3943 Q1707.3547,713.3943 1707.5187,713.5803 Q1707.6828,713.7553 1707.6828,714.1818 L1707.6828,715.56 Q1707.6828,715.9428 1707.5953,716.074 Q1707.4094,716.3475 1707.0922,716.3475 Q1706.7641,716.3475 1706.5781,716.0631 Q1706.4906,715.9318 1706.4906,715.4615 L1705.4516,715.4615 Z " fill="#000000"/><text fill="#000000" font-family="sans-serif" font-size="8.4" font-style="italic" lengthAdjust="spacing" textLength="32.2" x="1738.1" y="711.8645">&#171;Value&#187;</text><text fill="#000000" font-family="sans-serif" font-size="9.8" lengthAdjust="spacing" textLength="76.3" x="1716.05" y="724.5479">ApplicationStatus</text><line style="stroke:#181818;stroke-width:0.3499999999999999;" x1="1696.45" x2="1793.75" y1="730.5074" y2="730.5074"/><text fill="#000000" font-family="sans-serif" font-size="9.8" lengthAdjust="spacing" textLength="42.7" x="1699.95" y="743.8826">Approved</text><text fill="#000000" font-family="sans-serif" font-size="9.8" lengthAdjust="spacing" textLength="31.5" x="1699.95" y="756.9174">Denied</text><text fill="#000000" font-family="sans-serif" font-size="9.8" lengthAdjust="spacing" textLength="71.4" x="1699.95" y="769.9521">WaitingInterview</text><text fill="#000000" font-family="sans-serif" font-size="9.8" lengthAdjust="spacing" textLength="47.6" x="1699.95" y="782.9869">InProgress</text><line style="stroke:#181818;stroke-width:0.3499999999999999;" x1="1696.45" x2="1793.75" y1="788.2465" y2="788.2465"/></g><!--class CustomerEmployee--><g id="elem_CustomerEmployee"><rect codeLine="67" fill="#F1F1F1" height="53.5801" id="CustomerEmployee" rx="1.75" ry="1.75" style="stroke:#181818;stroke-width:0.3499999999999999;" width="108.5" x="1715.35" y="45.5"/><ellipse cx="1725.85" cy="66.69" fill="#ADD1B2" rx="7.7" ry="7.7" style="stroke:#181818;stroke-width:0.6999999999999998;"/><path d="M1725.0516,67.2479 L1725.0516,68.9979 L1728.0812,68.9979 L1728.0812,68.3525 Q1728.0812,67.926 1728.2453,67.74 Q1728.4203,67.5541 1728.6828,67.5541 Q1728.9453,67.5541 1729.1094,67.74 Q1729.2734,67.926 1729.2734,68.3525 L1729.2734,70.19 L1723.6734,70.19 Q1723.2359,70.19 1723.05,70.026 Q1722.875,69.8619 1722.875,69.5885 Q1722.875,69.326 1723.0609,69.1619 Q1723.2469,68.9979 1723.6734,68.9979 L1723.8594,68.9979 L1723.8594,64.3385 L1723.6734,64.3385 Q1723.2359,64.3385 1723.05,64.1744 Q1722.875,64.0104 1722.875,63.7369 Q1722.875,63.4744 1723.05,63.3104 Q1723.2359,63.1463 1723.6734,63.1463 L1729.0109,63.1463 L1729.0109,64.9619 Q1729.0109,65.3885 1728.8469,65.5744 Q1728.6937,65.7494 1728.4203,65.7494 Q1728.1578,65.7494 1727.9937,65.5744 Q1727.8297,65.3885 1727.8297,64.9619 L1727.8297,64.3385 L1725.0516,64.3385 L1725.0516,66.0557 L1726.0906,66.0557 Q1726.0906,65.5963 1726.1781,65.465 Q1726.3641,65.1807 1726.6922,65.1807 Q1726.9547,65.1807 1727.1187,65.3666 Q1727.2828,65.5416 1727.2828,65.9682 L1727.2828,67.3463 Q1727.2828,67.7291 1727.1953,67.8604 Q1727.0094,68.1338 1726.6922,68.1338 Q1726.3641,68.1338 1726.1781,67.8494 Q1726.0906,67.7182 1726.0906,67.2479 L1725.0516,67.2479 Z " fill="#000000"/><text fill="#000000" font-family="sans-serif" font-size="8.4" font-style="italic" lengthAdjust="spacing" textLength="30.1" x="1763.65" y="58.0645">&#171;entity&#187;</text><text fill="#000000" font-family="sans-serif" font-size="8.4" font-style="italic" lengthAdjust="spacing" textLength="24.5" x="1766.45" y="69.2371">&#171;root&#187;</text><text fill="#000000" font-family="sans-serif" font-size="9.8" lengthAdjust="spacing" textLength="86.1" x="1735.65" y="81.9205">CustomerEmployee</text><line style="stroke:#181818;stroke-width:0.3499999999999999;" x1="1716.05" x2="1823.15" y1="87.8801" y2="87.8801"/><line style="stroke:#181818;stroke-width:0.3499999999999999;" x1="1716.05" x2="1823.15" y1="93.4801" y2="93.4801"/></g><!--class CustomerManager--><g id="elem_CustomerManager"><rect codeLine="73" fill="#F1F1F1" height="53.5801" id="CustomerManager" rx="1.75" ry="1.75" style="stroke:#181818;stroke-width:0.3499999999999999;" width="104.3" x="1979.25" y="193.2"/><ellipse cx="1989.75" cy="214.39" fill="#ADD1B2" rx="7.7" ry="7.7" style="stroke:#181818;stroke-width:0.6999999999999998;"/><path d="M1988.9516,214.9479 L1988.9516,216.6979 L1991.9812,216.6979 L1991.9812,216.0525 Q1991.9812,215.626 1992.1453,215.44 Q1992.3203,215.2541 1992.5828,215.2541 Q1992.8453,215.2541 1993.0094,215.44 Q1993.1734,215.626 1993.1734,216.0525 L1993.1734,217.89 L1987.5734,217.89 Q1987.1359,217.89 1986.95,217.726 Q1986.775,217.5619 1986.775,217.2885 Q1986.775,217.026 1986.9609,216.8619 Q1987.1469,216.6979 1987.5734,216.6979 L1987.7594,216.6979 L1987.7594,212.0385 L1987.5734,212.0385 Q1987.1359,212.0385 1986.95,211.8744 Q1986.775,211.7104 1986.775,211.4369 Q1986.775,211.1744 1986.95,211.0104 Q1987.1359,210.8463 1987.5734,210.8463 L1992.9109,210.8463 L1992.9109,212.6619 Q1992.9109,213.0885 1992.7469,213.2744 Q1992.5937,213.4494 1992.3203,213.4494 Q1992.0578,213.4494 1991.8937,213.2744 Q1991.7297,213.0885 1991.7297,212.6619 L1991.7297,212.0385 L1988.9516,212.0385 L1988.9516,213.7557 L1989.9906,213.7557 Q1989.9906,213.2963 1990.0781,213.165 Q1990.2641,212.8807 1990.5922,212.8807 Q1990.8547,212.8807 1991.0187,213.0666 Q1991.1828,213.2416 1991.1828,213.6682 L1991.1828,215.0463 Q1991.1828,215.4291 1991.0953,215.5604 Q1990.9094,215.8338 1990.5922,215.8338 Q1990.2641,215.8338 1990.0781,215.5494 Q1989.9906,215.4182 1989.9906,214.9479 L1988.9516,214.9479 Z " fill="#000000"/><text fill="#000000" font-family="sans-serif" font-size="8.4" font-style="italic" lengthAdjust="spacing" textLength="30.1" x="2025.45" y="205.7645">&#171;entity&#187;</text><text fill="#000000" font-family="sans-serif" font-size="8.4" font-style="italic" lengthAdjust="spacing" textLength="24.5" x="2028.25" y="216.9371">&#171;root&#187;</text><text fill="#000000" font-family="sans-serif" font-size="9.8" lengthAdjust="spacing" textLength="81.9" x="1999.55" y="229.6205">CustomerManager</text><line style="stroke:#181818;stroke-width:0.3499999999999999;" x1="1979.95" x2="2082.85" y1="235.5801" y2="235.5801"/><line style="stroke:#181818;stroke-width:0.3499999999999999;" x1="1979.95" x2="2082.85" y1="241.1801" y2="241.1801"/></g><!--class Company--><g id="elem_Company"><rect codeLine="78" fill="#F1F1F1" height="53.5801" id="Company" rx="1.75" ry="1.75" style="stroke:#181818;stroke-width:0.3499999999999999;" width="64.4" x="1737.4" y="193.2"/><ellipse cx="1747.9" cy="214.39" fill="#ADD1B2" rx="7.7" ry="7.7" style="stroke:#181818;stroke-width:0.6999999999999998;"/><path d="M1747.1016,214.9479 L1747.1016,216.6979 L1750.1312,216.6979 L1750.1312,216.0525 Q1750.1312,215.626 1750.2953,215.44 Q1750.4703,215.2541 1750.7328,215.2541 Q1750.9953,215.2541 1751.1594,215.44 Q1751.3234,215.626 1751.3234,216.0525 L1751.3234,217.89 L1745.7234,217.89 Q1745.2859,217.89 1745.1,217.726 Q1744.925,217.5619 1744.925,217.2885 Q1744.925,217.026 1745.1109,216.8619 Q1745.2969,216.6979 1745.7234,216.6979 L1745.9094,216.6979 L1745.9094,212.0385 L1745.7234,212.0385 Q1745.2859,212.0385 1745.1,211.8744 Q1744.925,211.7104 1744.925,211.4369 Q1744.925,211.1744 1745.1,211.0104 Q1745.2859,210.8463 1745.7234,210.8463 L1751.0609,210.8463 L1751.0609,212.6619 Q1751.0609,213.0885 1750.8969,213.2744 Q1750.7437,213.4494 1750.4703,213.4494 Q1750.2078,213.4494 1750.0437,213.2744 Q1749.8797,213.0885 1749.8797,212.6619 L1749.8797,212.0385 L1747.1016,212.0385 L1747.1016,213.7557 L1748.1406,213.7557 Q1748.1406,213.2963 1748.2281,213.165 Q1748.4141,212.8807 1748.7422,212.8807 Q1749.0047,212.8807 1749.1687,213.0666 Q1749.3328,213.2416 1749.3328,213.6682 L1749.3328,215.0463 Q1749.3328,215.4291 1749.2453,215.5604 Q1749.0594,215.8338 1748.7422,215.8338 Q1748.4141,215.8338 1748.2281,215.5494 Q1748.1406,215.4182 1748.1406,214.9479 L1747.1016,214.9479 Z " fill="#000000"/><text fill="#000000" font-family="sans-serif" font-size="8.4" font-style="italic" lengthAdjust="spacing" textLength="30.1" x="1763.65" y="205.7645">&#171;entity&#187;</text><text fill="#000000" font-family="sans-serif" font-size="8.4" font-style="italic" lengthAdjust="spacing" textLength="24.5" x="1766.45" y="216.9371">&#171;root&#187;</text><text fill="#000000" font-family="sans-serif" font-size="9.8" lengthAdjust="spacing" textLength="42" x="1757.7" y="229.6205">Company</text><line style="stroke:#181818;stroke-width:0.3499999999999999;" x1="1738.1" x2="1801.1" y1="235.5801" y2="235.5801"/><line style="stroke:#181818;stroke-width:0.3499999999999999;" x1="1738.1" x2="1801.1" y1="241.1801" y2="241.1801"/></g><!--class CompanyName--><g id="elem_CompanyName"><rect codeLine="81" fill="#F1F1F1" height="42.4074" id="CompanyName" rx="1.75" ry="1.75" style="stroke:#181818;stroke-width:0.3499999999999999;" width="89.6" x="1724.8" y="339.5"/><ellipse cx="1735.3" cy="355.1037" fill="#ADD1B2" rx="7.7" ry="7.7" style="stroke:#181818;stroke-width:0.6999999999999998;"/><path d="M1737.2359,352.2162 Q1737.3453,352.0631 1737.4766,351.9865 Q1737.6078,351.91 1737.7609,351.91 Q1738.0234,351.91 1738.1875,352.0959 Q1738.3516,352.2709 1738.3516,352.6975 L1738.3516,353.7146 Q1738.3516,354.1412 1738.1875,354.3271 Q1738.0234,354.5131 1737.7609,354.5131 Q1737.5203,354.5131 1737.3781,354.3709 Q1737.2359,354.2396 1737.1594,353.8787 Q1737.1266,353.6271 1736.9953,353.4959 Q1736.7656,353.2334 1736.3391,353.0803 Q1735.9125,352.9271 1735.475,352.9271 Q1734.9391,352.9271 1734.4906,353.1568 Q1734.0531,353.3865 1733.7031,353.9115 Q1733.3641,354.4365 1733.3641,355.1584 L1733.3641,355.924 Q1733.3641,356.7881 1733.9875,357.3678 Q1734.6109,357.9365 1735.7266,357.9365 Q1736.3828,357.9365 1736.8422,357.7615 Q1737.1156,357.6521 1737.4109,357.3459 Q1737.5969,357.16 1737.6953,357.1053 Q1737.8047,357.0506 1737.9469,357.0506 Q1738.1766,357.0506 1738.3516,357.2365 Q1738.5375,357.4115 1738.5375,357.6521 Q1738.5375,357.8928 1738.2969,358.1771 Q1737.9469,358.5818 1737.3891,358.8115 Q1736.6344,359.1287 1735.7266,359.1287 Q1734.6656,359.1287 1733.8234,358.6912 Q1733.1344,358.3412 1732.6531,357.5975 Q1732.1719,356.8428 1732.1719,355.9459 L1732.1719,355.1365 Q1732.1719,354.2068 1732.5984,353.4084 Q1733.0359,352.599 1733.8016,352.1725 Q1734.5672,351.735 1735.4312,351.735 Q1735.9453,351.735 1736.3937,351.8553 Q1736.8531,351.9646 1737.2359,352.2162 Z " fill="#000000"/><text fill="#000000" font-family="sans-serif" font-size="8.4" font-style="italic" lengthAdjust="spacing" textLength="32.2" x="1762.6" y="352.0645">&#171;Value&#187;</text><text fill="#000000" font-family="sans-serif" font-size="9.8" lengthAdjust="spacing" textLength="67.2" x="1745.1" y="364.7479">CompanyName</text><line style="stroke:#181818;stroke-width:0.3499999999999999;" x1="1725.5" x2="1813.7" y1="370.7074" y2="370.7074"/><line style="stroke:#181818;stroke-width:0.3499999999999999;" x1="1725.5" x2="1813.7" y1="376.3074" y2="376.3074"/></g><!--class CompanyAddress--><g id="elem_CompanyAddress"><rect codeLine="83" fill="#F1F1F1" height="42.4074" id="CompanyAddress" rx="1.75" ry="1.75" style="stroke:#181818;stroke-width:0.3499999999999999;" width="100.8" x="1838.9" y="339.5"/><ellipse cx="1849.4" cy="355.1037" fill="#ADD1B2" rx="7.7" ry="7.7" style="stroke:#181818;stroke-width:0.6999999999999998;"/><path d="M1851.3359,352.2162 Q1851.4453,352.0631 1851.5766,351.9865 Q1851.7078,351.91 1851.8609,351.91 Q1852.1234,351.91 1852.2875,352.0959 Q1852.4516,352.2709 1852.4516,352.6975 L1852.4516,353.7146 Q1852.4516,354.1412 1852.2875,354.3271 Q1852.1234,354.5131 1851.8609,354.5131 Q1851.6203,354.5131 1851.4781,354.3709 Q1851.3359,354.2396 1851.2594,353.8787 Q1851.2266,353.6271 1851.0953,353.4959 Q1850.8656,353.2334 1850.4391,353.0803 Q1850.0125,352.9271 1849.575,352.9271 Q1849.0391,352.9271 1848.5906,353.1568 Q1848.1531,353.3865 1847.8031,353.9115 Q1847.4641,354.4365 1847.4641,355.1584 L1847.4641,355.924 Q1847.4641,356.7881 1848.0875,357.3678 Q1848.7109,357.9365 1849.8266,357.9365 Q1850.4828,357.9365 1850.9422,357.7615 Q1851.2156,357.6521 1851.5109,357.3459 Q1851.6969,357.16 1851.7953,357.1053 Q1851.9047,357.0506 1852.0469,357.0506 Q1852.2766,357.0506 1852.4516,357.2365 Q1852.6375,357.4115 1852.6375,357.6521 Q1852.6375,357.8928 1852.3969,358.1771 Q1852.0469,358.5818 1851.4891,358.8115 Q1850.7344,359.1287 1849.8266,359.1287 Q1848.7656,359.1287 1847.9234,358.6912 Q1847.2344,358.3412 1846.7531,357.5975 Q1846.2719,356.8428 1846.2719,355.9459 L1846.2719,355.1365 Q1846.2719,354.2068 1846.6984,353.4084 Q1847.1359,352.599 1847.9016,352.1725 Q1848.6672,351.735 1849.5312,351.735 Q1850.0453,351.735 1850.4937,351.8553 Q1850.9531,351.9646 1851.3359,352.2162 Z " fill="#000000"/><text fill="#000000" font-family="sans-serif" font-size="8.4" font-style="italic" lengthAdjust="spacing" textLength="32.2" x="1882.3" y="352.0645">&#171;Value&#187;</text><text fill="#000000" font-family="sans-serif" font-size="9.8" lengthAdjust="spacing" textLength="78.4" x="1859.2" y="364.7479">CompanyAddress</text><line style="stroke:#181818;stroke-width:0.3499999999999999;" x1="1839.6" x2="1939" y1="370.7074" y2="370.7074"/><line style="stroke:#181818;stroke-width:0.3499999999999999;" x1="1839.6" x2="1939" y1="376.3074" y2="376.3074"/></g><!--link JobOpening to JobTitle--><g id="link_JobOpening_JobTitle"><path codeLine="89" d="M494.935,253.512 C496.664,280.049 498.7839,312.489 500.2679,335.176 " fill="none" id="JobOpening-to-JobTitle" style="stroke:#181818;stroke-width:0.6999999999999998;"/><polygon fill="#181818" points="500.542,339.367,502.9248,332.8977,500.3135,335.8745,497.3368,333.2632,500.542,339.367" style="stroke:#181818;stroke-width:0.6999999999999998;"/><text fill="#000000" font-family="sans-serif" font-size="9.1" lengthAdjust="spacing" textLength="34.3" x="497.7" y="284.9198">contains</text><text fill="#000000" font-family="sans-serif" font-size="9.1" lengthAdjust="spacing" textLength="4.9" x="489.9907" y="268.8663">1</text><text fill="#000000" font-family="sans-serif" font-size="9.1" lengthAdjust="spacing" textLength="4.9" x="494.8566" y="331.6799">1</text></g><!--link JobOpening to ContractType--><g id="link_JobOpening_ContractType"><path codeLine="90" d="M454.79,236.271 C426.265,248.976 387.205,268.842 357.7,293.3 C346.22,302.813 338.0537,311.772 329.2337,323.21 " fill="none" id="JobOpening-to-ContractType" style="stroke:#181818;stroke-width:0.6999999999999998;"/><polygon fill="#181818" points="326.669,326.536,332.7334,323.2568,328.8063,323.7643,328.2987,319.8372,326.669,326.536" style="stroke:#181818;stroke-width:0.6999999999999998;"/><text fill="#000000" font-family="sans-serif" font-size="9.1" lengthAdjust="spacing" textLength="4.9" x="444.4532" y="249.0626">1</text><text fill="#000000" font-family="sans-serif" font-size="9.1" lengthAdjust="spacing" textLength="4.9" x="324.768" y="318.566">1</text></g><!--link JobOpening to WorkRegime--><g id="link_JobOpening_WorkRegime"><path codeLine="91" d="M468.741,253.547 C464.023,260.33 459.235,267.519 455,274.4 C446.04,288.974 438.9712,301.741 431.3622,316.35 " fill="none" id="JobOpening-to-WorkRegime" style="stroke:#181818;stroke-width:0.6999999999999998;"/><polygon fill="#181818" points="429.422,320.075,434.8156,315.7809,431.0388,316.9708,429.8489,313.194,429.422,320.075" style="stroke:#181818;stroke-width:0.6999999999999998;"/><text fill="#000000" font-family="sans-serif" font-size="9.1" lengthAdjust="spacing" textLength="34.3" x="455.7" y="284.9198">contains</text><text fill="#000000" font-family="sans-serif" font-size="9.1" lengthAdjust="spacing" textLength="4.9" x="460.1132" y="268.9062">1</text><text fill="#000000" font-family="sans-serif" font-size="9.1" lengthAdjust="spacing" textLength="4.9" x="426.6514" y="312.2936">1</text></g><!--link JobOpening to NumberOfVacancies--><g id="link_JobOpening_NumberOfVacancies"><path codeLine="92" d="M454.888,226.45 C405.23,235.025 316.715,254.646 250.6,293.3 C230.104,305.277 213.7954,321.3807 200.8664,336.1507 " fill="none" id="JobOpening-to-NumberOfVacancies" style="stroke:#181818;stroke-width:0.6999999999999998;"/><polygon fill="#181818" points="198.1,339.311,204.3564,336.4148,200.4053,336.6774,200.1427,332.7264,198.1,339.311" style="stroke:#181818;stroke-width:0.6999999999999998;"/><text fill="#000000" font-family="sans-serif" font-size="9.1" lengthAdjust="spacing" textLength="14.7" x="287.7" y="284.9198">has</text><text fill="#000000" font-family="sans-serif" font-size="9.1" lengthAdjust="spacing" textLength="4.9" x="444.5644" y="237.9219">1</text><text fill="#000000" font-family="sans-serif" font-size="9.1" lengthAdjust="spacing" textLength="4.9" x="196.1597" y="331.6124">1</text></g><!--link JobOpening to JobReference--><g id="link_JobOpening_JobReference"><path codeLine="94" d="M454.797,224.763 C370.447,233.982 170.492,258.881 112.7,293.3 C94.157,304.339 81.4397,320.5579 71.8987,335.7409 " fill="none" id="JobOpening-to-JobReference" style="stroke:#181818;stroke-width:0.6999999999999998;"/><polygon fill="#181818" points="69.664,339.297,75.3868,335.4526,71.5262,336.3335,70.6453,332.473,69.664,339.297" style="stroke:#181818;stroke-width:0.6999999999999998;"/><text fill="#000000" font-family="sans-serif" font-size="9.1" lengthAdjust="spacing" textLength="4.9" x="444.4611" y="222.5091">1</text><text fill="#000000" font-family="sans-serif" font-size="9.1" lengthAdjust="spacing" textLength="4.9" x="66.6438" y="331.5955">1</text></g><!--link JobOpening to Company--><g id="link_JobOpening_Company"><path codeLine="95" d="M530.831,220.15 C932.967,220.15 1330.903,220.15 1733.039,220.15 " fill="none" id="JobOpening-to-Company" style="stroke:#181818;stroke-width:0.6999999999999998;"/><polygon fill="#181818" points="1737.239,220.15,1730.939,217.35,1733.739,220.15,1730.939,222.95,1737.239,220.15" style="stroke:#181818;stroke-width:0.6999999999999998;"/><text fill="#000000" font-family="sans-serif" font-size="9.1" lengthAdjust="spacing" textLength="4.9" x="536.2706" y="217.2763">1</text><text fill="#000000" font-family="sans-serif" font-size="9.1" lengthAdjust="spacing" textLength="4.9" x="1727.0086" y="217.1988">1</text></g><!--link JobOpening to JobOpeningProcess--><g id="link_JobOpening_JobOpeningProcess"><path codeLine="96" d="M530.761,231.546 C617.323,255.948 825.6395,314.6655 927.1535,343.2815 " fill="none" id="JobOpening-to-JobOpeningProcess" style="stroke:#181818;stroke-width:0.6999999999999998;"/><polygon fill="#181818" points="931.196,344.421,925.892,340.0167,927.8273,343.4714,924.3726,345.4067,931.196,344.421" style="stroke:#181818;stroke-width:0.6999999999999998;"/><text fill="#000000" font-family="sans-serif" font-size="9.1" lengthAdjust="spacing" textLength="14.7" x="725.2" y="284.9198">has</text><text fill="#000000" font-family="sans-serif" font-size="9.1" lengthAdjust="spacing" textLength="4.9" x="536.1912" y="243.7027">1</text><text fill="#000000" font-family="sans-serif" font-size="9.1" lengthAdjust="spacing" textLength="14" x="911.7988" y="340.439">1..*</text></g><!--link JobOpeningProcess to JobOpeningStatus--><g id="link_JobOpeningProcess_JobOpeningStatus"><path codeLine="97" d="M931.315,366.891 C867.86,375.081 762.993,395.136 686,442.75 C677.481,448.014 672.4319,451.7954 665.1169,459.0264 " fill="none" id="JobOpeningProcess-to-JobOpeningStatus" style="stroke:#181818;stroke-width:0.6999999999999998;"/><polygon fill="#181818" points="662.13,461.979,668.5789,459.5413,664.6191,459.5185,664.642,455.5587,662.13,461.979" style="stroke:#181818;stroke-width:0.6999999999999998;"/><text fill="#000000" font-family="sans-serif" font-size="9.1" lengthAdjust="spacing" textLength="14.7" x="716.1" y="434.3698">has</text><text fill="#000000" font-family="sans-serif" font-size="9.1" lengthAdjust="spacing" textLength="4.9" x="920.874" y="364.8431">1</text><text fill="#000000" font-family="sans-serif" font-size="9.1" lengthAdjust="spacing" textLength="14" x="651.4306" y="454.0261">1..*</text></g><!--link JobOpening to Application--><g id="link_JobOpening_Application"><path codeLine="98" d="M530.761,220.752 C720.237,220.584 1558.095,223.811 1648.5,293.3 C1664.523,305.613 1699.3676,428.8197 1714.5856,484.8757 " fill="none" id="JobOpening-to-Application" style="stroke:#181818;stroke-width:0.6999999999999998;"/><polygon fill="#181818" points="1715.686,488.929,1716.7376,482.1155,1714.769,485.5513,1711.3332,483.5827,1715.686,488.929" style="stroke:#181818;stroke-width:0.6999999999999998;"/><text fill="#000000" font-family="sans-serif" font-size="9.1" lengthAdjust="spacing" textLength="14.7" x="1696.1" y="364.7198">has</text><text fill="#000000" font-family="sans-serif" font-size="9.1" lengthAdjust="spacing" textLength="4.9" x="536.1912" y="231.4582">1</text><text fill="#000000" font-family="sans-serif" font-size="9.1" lengthAdjust="spacing" textLength="4.9" x="1709.1002" y="481.0314">1</text></g><!--link JobOpeningProcess to JobOpeningApplicationIntervalDate--><g id="link_JobOpeningProcess_JobOpeningApplicationIntervalDate"><path codeLine="101" d="M960.001,382.27 C921.788,411.6 855.6658,462.3479 817.3408,491.7619 " fill="none" id="JobOpeningProcess-to-JobOpeningApplicationIntervalDate" style="stroke:#181818;stroke-width:0.6999999999999998;"/><polygon fill="#181818" points="814.009,494.319,820.7115,492.7045,816.7855,492.1881,817.302,488.2621,814.009,494.319" style="stroke:#181818;stroke-width:0.6999999999999998;"/><text fill="#000000" font-family="sans-serif" font-size="9.1" lengthAdjust="spacing" textLength="4.9" x="949.4873" y="397.3545">1</text><text fill="#000000" font-family="sans-serif" font-size="9.1" lengthAdjust="spacing" textLength="4.9" x="814.2155" y="486.6117">1</text></g><!--link JobOpeningProcess to JobOpeningScreeningIntervalDate--><g id="link_JobOpeningProcess_JobOpeningScreeningIntervalDate"><path codeLine="102" d="M987,382.27 C987,411.6 987,460.705 987,490.119 " fill="none" id="JobOpeningProcess-to-JobOpeningScreeningIntervalDate" style="stroke:#181818;stroke-width:0.6999999999999998;"/><polygon fill="#181818" points="987,494.319,989.8,488.019,987,490.819,984.2,488.019,987,494.319" style="stroke:#181818;stroke-width:0.6999999999999998;"/><text fill="#000000" font-family="sans-serif" font-size="9.1" lengthAdjust="spacing" textLength="4.9" x="981.633" y="397.3545">1</text><text fill="#000000" font-family="sans-serif" font-size="9.1" lengthAdjust="spacing" textLength="4.9" x="981.5947" y="486.6117">1</text></g><!--link JobOpeningProcess to JobOpeningInterviewIntervalDate--><g id="link_JobOpeningProcess_JobOpeningInterviewIntervalDate"><path codeLine="103" d="M1013.341,382.27 C1050.616,411.6 1115.0681,462.308 1152.4551,491.722 " fill="none" id="JobOpeningProcess-to-JobOpeningInterviewIntervalDate" style="stroke:#181818;stroke-width:0.6999999999999998;"/><polygon fill="#181818" points="1155.756,494.319,1152.536,488.223,1153.0053,492.1549,1149.0734,492.6242,1155.756,494.319" style="stroke:#181818;stroke-width:0.6999999999999998;"/><text fill="#000000" font-family="sans-serif" font-size="9.1" lengthAdjust="spacing" textLength="4.9" x="1012.9952" y="397.3545">1</text><text fill="#000000" font-family="sans-serif" font-size="9.1" lengthAdjust="spacing" textLength="15.4" x="1133.2932" y="486.6117">0..1</text></g><!--link JobOpeningProcess to JobOpeningAnalysisIntervalDate--><g id="link_JobOpeningProcess_JobOpeningAnalysisIntervalDate"><path codeLine="104" d="M1042.657,370.58 C1102.99,381.822 1201.004,404.383 1278.2,442.75 C1305.633,456.386 1329.9108,475.5789 1348.2298,491.7559 " fill="none" id="JobOpeningProcess-to-JobOpeningAnalysisIntervalDate" style="stroke:#181818;stroke-width:0.6999999999999998;"/><polygon fill="#181818" points="1351.378,494.536,1348.5091,488.2671,1348.7545,492.2193,1344.8023,492.4647,1351.378,494.536" style="stroke:#181818;stroke-width:0.6999999999999998;"/><text fill="#000000" font-family="sans-serif" font-size="9.1" lengthAdjust="spacing" textLength="4.9" x="1048.1953" y="381.918">1</text><text fill="#000000" font-family="sans-serif" font-size="9.1" lengthAdjust="spacing" textLength="15.4" x="1329.4763" y="486.5352">0..1</text></g><!--link JobOpeningProcess to JobOpeningResultIntervalDate--><g id="link_JobOpeningProcess_JobOpeningResultIntervalDate"><path codeLine="105" d="M1042.685,361.956 C1135.162,364.553 1324.505,378.126 1468.6,442.75 C1495.928,455.007 1519.0299,474.6017 1536.0819,491.2967 " fill="none" id="JobOpeningProcess-to-JobOpeningResultIntervalDate" style="stroke:#181818;stroke-width:0.6999999999999998;"/><polygon fill="#181818" points="1539.083,494.235,1536.5402,487.8269,1536.5821,491.7864,1532.6225,491.8283,1539.083,494.235" style="stroke:#181818;stroke-width:0.6999999999999998;"/><text fill="#000000" font-family="sans-serif" font-size="9.1" lengthAdjust="spacing" textLength="4.9" x="1048.226" y="359.4378">1</text><text fill="#000000" font-family="sans-serif" font-size="9.1" lengthAdjust="spacing" textLength="4.9" x="1529.5904" y="486.5104">1</text></g><!--link CustomerManager to JobOpening--><g id="link_CustomerManager_JobOpening"><path codeLine="108" d="M2012.297,193.137 C1997.786,175.119 1976.072,152.936 1950.9,142.8 C1853.061,103.411 1819.013,139.461 1713.6,142.8 C1246.623,157.577 684.8578,203.7283 534.9178,216.5103 " fill="none" id="CustomerManager-to-JobOpening" style="stroke:#181818;stroke-width:0.6999999999999998;"/><polygon fill="#181818" points="530.733,216.867,537.2481,219.1218,534.2204,216.5697,536.7724,213.542,530.733,216.867" style="stroke:#181818;stroke-width:0.6999999999999998;"/><text fill="#000000" font-family="sans-serif" font-size="9.1" lengthAdjust="spacing" textLength="30.1" x="1121.05" y="132.3198">creates</text><text fill="#000000" font-family="sans-serif" font-size="9.1" lengthAdjust="spacing" textLength="4.9" x="2003.5579" y="185.2319">1</text><text fill="#000000" font-family="sans-serif" font-size="9.1" lengthAdjust="spacing" textLength="14" x="536.2092" y="213.667">0..*</text></g><!--link CustomerEmployee to Company--><g id="link_CustomerEmployee_Company"><path codeLine="109" d="M1769.6,99.645 C1769.6,126.161 1769.6,162.512 1769.6,188.951 " fill="none" id="CustomerEmployee-to-Company" style="stroke:#181818;stroke-width:0.6999999999999998;"/><polygon fill="#181818" points="1769.6,193.151,1772.4,186.851,1769.6,189.651,1766.8,186.851,1769.6,193.151" style="stroke:#181818;stroke-width:0.6999999999999998;"/><text fill="#000000" font-family="sans-serif" font-size="9.1" lengthAdjust="spacing" textLength="42" x="1770.3" y="132.3198">belongs to</text><text fill="#000000" font-family="sans-serif" font-size="9.1" lengthAdjust="spacing" textLength="4.9" x="1764.3248" y="114.5802">1</text><text fill="#000000" font-family="sans-serif" font-size="9.1" lengthAdjust="spacing" textLength="14" x="1754.3531" y="185.2484">1..*</text></g><!--link Company to CompanyName--><g id="link_Company_CompanyName"><path codeLine="110" d="M1769.6,247.38 C1769.6,274.141 1769.6,310.702 1769.6,335.188 " fill="none" id="Company-to-CompanyName" style="stroke:#181818;stroke-width:0.6999999999999998;"/><polygon fill="#181818" points="1769.6,339.388,1772.4,333.088,1769.6,335.888,1766.8,333.088,1769.6,339.388" style="stroke:#181818;stroke-width:0.6999999999999998;"/><text fill="#000000" font-family="sans-serif" font-size="9.1" lengthAdjust="spacing" textLength="14.7" x="1770.3" y="284.9198">has</text><text fill="#000000" font-family="sans-serif" font-size="9.1" lengthAdjust="spacing" textLength="4.9" x="1764.3402" y="262.1116">1</text><text fill="#000000" font-family="sans-serif" font-size="9.1" lengthAdjust="spacing" textLength="4.9" x="1764.1947" y="331.7053">1</text></g><!--link Company to CompanyAddress--><g id="link_Company_CompanyAddress"><path codeLine="111" d="M1792.399,247.38 C1815.394,274.141 1847.6771,311.717 1868.7261,336.203 " fill="none" id="Company-to-CompanyAddress" style="stroke:#181818;stroke-width:0.6999999999999998;"/><polygon fill="#181818" points="1871.464,339.388,1869.4805,332.7853,1869.1824,336.7339,1865.2339,336.4358,1871.464,339.388" style="stroke:#181818;stroke-width:0.6999999999999998;"/><text fill="#000000" font-family="sans-serif" font-size="9.1" lengthAdjust="spacing" textLength="39.2" x="1826.3" y="284.9198">is located</text><text fill="#000000" font-family="sans-serif" font-size="9.1" lengthAdjust="spacing" textLength="4.9" x="1790.4878" y="262.1116">1</text><text fill="#000000" font-family="sans-serif" font-size="9.1" lengthAdjust="spacing" textLength="4.9" x="1862.38" y="331.7053">1</text></g><!--link Application to ApplicationDate--><g id="link_Application_ApplicationDate"><path codeLine="114" d="M1722.7,543.067 C1722.7,564.466 1722.7,589.96 1722.7,609.644 " fill="none" id="Application-to-ApplicationDate" style="stroke:#181818;stroke-width:0.6999999999999998;"/><polygon fill="#181818" points="1722.7,613.844,1725.5,607.544,1722.7,610.344,1719.9,607.544,1722.7,613.844" style="stroke:#181818;stroke-width:0.6999999999999998;"/><text fill="#000000" font-family="sans-serif" font-size="9.1" lengthAdjust="spacing" textLength="4.9" x="1717.4248" y="557.998">1</text><text fill="#000000" font-family="sans-serif" font-size="9.1" lengthAdjust="spacing" textLength="4.9" x="1717.2947" y="606.1728">1</text></g><!--link Application to ApplicationStatus--><g id="link_Application_ApplicationStatus"><path codeLine="116" d="M1743.749,542.878 C1757.259,561.498 1773.583,587.727 1780.8,613.9 C1788.591,642.152 1782.1628,669.972 1771.7538,695.221 " fill="none" id="Application-to-ApplicationStatus" style="stroke:#181818;stroke-width:0.6999999999999998;"/><polygon fill="#181818" points="1770.153,699.104,1775.1428,694.3467,1771.487,695.8682,1769.9655,692.2123,1770.153,699.104" style="stroke:#181818;stroke-width:0.6999999999999998;"/><text fill="#000000" font-family="sans-serif" font-size="9.1" lengthAdjust="spacing" textLength="4.9" x="1741.8132" y="557.9875">1</text><text fill="#000000" font-family="sans-serif" font-size="9.1" lengthAdjust="spacing" textLength="4.9" x="1767.5839" y="691.5255">1</text></g><!--SRC=[bLNBQkCm5DthAqGsWO66pZQKG6Yxc85fXwIqQqMvSKLaoKXo1sFwxoFBiYrRSjfe4ziwvxxlYJupKH15SbmGUYOPx4t50IkWXeYC0qB-E_uj3yy522QoRPOfo8W1N2CCmZ1J1RVuxav9QJOR-z1URZOMTmHD5IiCamBXJuGmvKJhXhU34oWG52pXbV0IBBKECKzbVW3rV7ebb0ZAGCT046MExwKmYb3pKXKmGfnApcyCom7PB9NnZptlJQhp3ZBxSJ1iMGfoQIpklJeeTaHO2iqCJ89_OOP7WJj8NBU_IbBGUbI-vlJ6nZXhzT7NhqCwm-wum0VAtX1Jwb7uxcoBWZDAsggxiwSA7CM__n86r0U3Vnr345vfflth3dJ9pU0z7N7WfhL7-8DDS0ZdCythWxcArOTy5QjBx2fIc_uinHPa6UJUTxPVcjIbQwPVc-1-s9PXWt3j6jv65M2RGCP3rqw6cue0DnqBXxJtIdw0dMZyO9Dq3s-4cR2og1aCEuSsPAsTzIRL-r8RcODwp0ikAu0utrb4ZNp6KmHEv5sZiRy_H5ZZQjxT511vyu1KZUikEPaNH5G99vCBF5XlR-PIG6tVFEg9ZFHbUhqz7bMxz06YMRZbC8qeKDd5pmM-kTcutrw7rfXQ3IHCw3beg95pc40FlpOOY_CQlnEDvl0ZnOz0NP2k96aJgzMFHK8iMw_nzrcYtuqfpnDy9C4kTNaj8nyNlIw-biblyvDoUObzkrgD32ILyne3AH7zTlYnc0vhXoQRse_3RTEse3rs8XLOgaQHaanQtMtdskhw0RWKcSP6ekxpU2k65MtRV07LRUeQCusvjFsq4Zhw7q3Xs8GM9XAE4i0OsGwgLOB_]--></g></svg>