<?xml version="1.0" encoding="us-ascii" standalone="no"?><svg xmlns="http://www.w3.org/2000/svg" xmlns:xlink="http://www.w3.org/1999/xlink" contentStyleType="text/css" height="2620px" preserveAspectRatio="none" style="width:556px;height:2620px;background:#FFFFFF;" version="1.1" viewBox="0 0 556 2620" width="556px" zoomAndPan="magnify"><defs/><g><text fill="#000000" font-family="sans-serif" font-size="14" font-weight="bold" lengthAdjust="spacing" textLength="181" x="180.7411" y="25.1074">System Use Case Diagram</text><!--entity CustomerManager--><g id="elem_CustomerManager"><ellipse cx="68.5" cy="1937.6211" fill="#F1F1F1" rx="8" ry="8" style="stroke:#181818;stroke-width:0.5;"/><path d="M68.5,1945.6211 L68.5,1972.6211 M55.5,1953.6211 L81.5,1953.6211 M68.5,1972.6211 L55.5,1987.6211 M68.5,1972.6211 L81.5,1987.6211 " fill="none" style="stroke:#181818;stroke-width:0.5;"/><text fill="#000000" font-family="sans-serif" font-size="14" lengthAdjust="spacing" textLength="121" x="8" y="2004.2285">Customer Manager</text></g><!--entity LanguageEngineer--><g id="elem_LanguageEngineer"><ellipse cx="68.5" cy="1185.6211" fill="#F1F1F1" rx="8" ry="8" style="stroke:#181818;stroke-width:0.5;"/><path d="M68.5,1193.6211 L68.5,1220.6211 M55.5,1201.6211 L81.5,1201.6211 M68.5,1220.6211 L55.5,1235.6211 M68.5,1220.6211 L81.5,1235.6211 " fill="none" style="stroke:#181818;stroke-width:0.5;"/><text fill="#000000" font-family="sans-serif" font-size="14" lengthAdjust="spacing" textLength="125" x="6" y="1252.2285">Language Engineer</text></g><!--entity Operator--><g id="elem_Operator"><ellipse cx="68.5" cy="854.6211" fill="#F1F1F1" rx="8" ry="8" style="stroke:#181818;stroke-width:0.5;"/><path d="M68.5,862.6211 L68.5,889.6211 M55.5,870.6211 L81.5,870.6211 M68.5,889.6211 L55.5,904.6211 M68.5,889.6211 L81.5,904.6211 " fill="none" style="stroke:#181818;stroke-width:0.5;"/><text fill="#000000" font-family="sans-serif" font-size="14" lengthAdjust="spacing" textLength="57" x="40" y="921.2285">Operator</text></g><!--entity Administrator--><g id="elem_Administrator"><ellipse cx="68.5" cy="578.6211" fill="#F1F1F1" rx="8" ry="8" style="stroke:#181818;stroke-width:0.5;"/><path d="M68.5,586.6211 L68.5,613.6211 M55.5,594.6211 L81.5,594.6211 M68.5,613.6211 L55.5,628.6211 M68.5,613.6211 L81.5,628.6211 " fill="none" style="stroke:#181818;stroke-width:0.5;"/><text fill="#000000" font-family="sans-serif" font-size="14" lengthAdjust="spacing" textLength="83" x="27" y="645.2285">Administrator</text></g><!--entity ProjectManager--><g id="elem_ProjectManager"><ellipse cx="68.5" cy="359.6211" fill="#F1F1F1" rx="8" ry="8" style="stroke:#181818;stroke-width:0.5;"/><path d="M68.5,367.6211 L68.5,394.6211 M55.5,375.6211 L81.5,375.6211 M68.5,394.6211 L55.5,409.6211 M68.5,394.6211 L81.5,409.6211 " fill="none" style="stroke:#181818;stroke-width:0.5;"/><text fill="#000000" font-family="sans-serif" font-size="14" lengthAdjust="spacing" textLength="104" x="16.5" y="426.2285">Project Manager</text></g><!--entity Candidate--><g id="elem_Candidate"><ellipse cx="68.5" cy="196.6211" fill="#F1F1F1" rx="8" ry="8" style="stroke:#181818;stroke-width:0.5;"/><path d="M68.5,204.6211 L68.5,231.6211 M55.5,212.6211 L81.5,212.6211 M68.5,231.6211 L55.5,246.6211 M68.5,231.6211 L81.5,246.6211 " fill="none" style="stroke:#181818;stroke-width:0.5;"/><text fill="#000000" font-family="sans-serif" font-size="14" lengthAdjust="spacing" textLength="65" x="36" y="263.2285">Candidate</text></g><!--entity Customer--><g id="elem_Customer"><ellipse cx="68.5" cy="53.6211" fill="#F1F1F1" rx="8" ry="8" style="stroke:#181818;stroke-width:0.5;"/><path d="M68.5,61.6211 L68.5,88.6211 M55.5,69.6211 L81.5,69.6211 M68.5,88.6211 L55.5,103.6211 M68.5,88.6211 L81.5,103.6211 " fill="none" style="stroke:#181818;stroke-width:0.5;"/><text fill="#000000" font-family="sans-serif" font-size="14" lengthAdjust="spacing" textLength="61" x="38" y="120.2285">Customer</text></g><g id="elem_DisplayCandidateInformation"><ellipse cx="370.2583" cy="1056.7728" fill="#F1F1F1" rx="113.7583" ry="25.1517" style="stroke:#181818;stroke-width:0.5;"/><text fill="#000000" font-family="sans-serif" font-size="14" lengthAdjust="spacing" textLength="189" x="275.7583" y="1060.5696">Display Candidate Information</text></g><g id="elem_ListApplications"><ellipse cx="370.6807" cy="1469.5572" fill="#F1F1F1" rx="77.6807" ry="17.9361" style="stroke:#181818;stroke-width:0.5;"/><text fill="#000000" font-family="sans-serif" font-size="14" lengthAdjust="spacing" textLength="102" x="316.6807" y="1474.3609">List Applications</text></g><g id="elem_GenerateInterviewFile"><ellipse cx="370.3554" cy="1138.4922" fill="#F1F1F1" rx="94.8554" ry="21.3711" style="stroke:#181818;stroke-width:0.5;"/><text fill="#000000" font-family="sans-serif" font-size="14" lengthAdjust="spacing" textLength="146" x="294.6093" y="1143.2211">Generate Interview File</text></g><g id="elem_DisableBackOfficeUsers"><ellipse cx="370.3743" cy="489.5959" fill="#F1F1F1" rx="100.3743" ry="22.4749" style="stroke:#181818;stroke-width:0.5;"/><text fill="#000000" font-family="sans-serif" font-size="14" lengthAdjust="spacing" textLength="159" x="289.8782" y="493.7587">Disable BackOffice Users</text></g><g id="elem_EnableBackOfficeUsers"><ellipse cx="370.5796" cy="569.837" fill="#F1F1F1" rx="99.0796" ry="22.2159" style="stroke:#181818;stroke-width:0.5;"/><text fill="#000000" font-family="sans-serif" font-size="14" lengthAdjust="spacing" textLength="156" x="291.1977" y="574.1326">Enable BackOffice Users</text></g><g id="elem_RegisterBackOfficeUsers"><ellipse cx="370.4985" cy="649.6208" fill="#F1F1F1" rx="102.9985" ry="22.9997" style="stroke:#181818;stroke-width:0.5;"/><text fill="#000000" font-family="sans-serif" font-size="14" lengthAdjust="spacing" textLength="165" x="287.7441" y="653.5144">Register BackOffice Users</text></g><g id="elem_ListUsersFromBackOffice"><ellipse cx="370.6616" cy="731.6534" fill="#F1F1F1" rx="105.6616" ry="23.5323" style="stroke:#181818;stroke-width:0.5;"/><text fill="#000000" font-family="sans-serif" font-size="14" lengthAdjust="spacing" textLength="171" x="285.1616" y="735.4503">List Users From BackOffice</text></g><g id="elem_RegisterApplication"><ellipse cx="370.2688" cy="810.3749" fill="#F1F1F1" rx="86.7688" ry="19.7538" style="stroke:#181818;stroke-width:0.5;"/><text fill="#000000" font-family="sans-serif" font-size="14" lengthAdjust="spacing" textLength="126" x="304.2688" y="815.1786">Register Application</text></g><g id="elem_DisplayCandidateInfo"><ellipse cx="370.4801" cy="1543.4171" fill="#F1F1F1" rx="91.9801" ry="20.796" style="stroke:#181818;stroke-width:0.5;"/><text fill="#000000" font-family="sans-serif" font-size="14" lengthAdjust="spacing" textLength="139" x="297.9801" y="1548.2208">Display candidate Info</text></g><g id="elem_RegisterCandidate"><ellipse cx="370.7022" cy="885.5615" fill="#F1F1F1" rx="85.2022" ry="19.4404" style="stroke:#181818;stroke-width:0.5;"/><text fill="#000000" font-family="sans-serif" font-size="14" lengthAdjust="spacing" textLength="122" x="306.7022" y="890.3653">Register Candidate</text></g><g id="elem_RegisterCustomer"><ellipse cx="370.6549" cy="1618.7521" fill="#F1F1F1" rx="83.6549" ry="19.131" style="stroke:#181818;stroke-width:0.5;"/><text fill="#000000" font-family="sans-serif" font-size="14" lengthAdjust="spacing" textLength="118" x="308.6549" y="1623.5558">Register Customer</text></g><g id="elem_RegisterJobOpening"><ellipse cx="370.6672" cy="1693.7545" fill="#F1F1F1" rx="91.1672" ry="20.6334" style="stroke:#181818;stroke-width:0.5;"/><text fill="#000000" font-family="sans-serif" font-size="14" lengthAdjust="spacing" textLength="137" x="299.1672" y="1698.5582">Register Job Opening</text></g><g id="elem_SetupJobOpeningProcess"><ellipse cx="370.3959" cy="1773.6003" fill="#F1F1F1" rx="107.8959" ry="23.9792" style="stroke:#181818;stroke-width:0.5;"/><text fill="#000000" font-family="sans-serif" font-size="14" lengthAdjust="spacing" textLength="176" x="282.3959" y="1777.3972">Setup Job Opening Process</text></g><g id="elem_SelectInterviewModel"><ellipse cx="370.388" cy="1216.4987" fill="#F1F1F1" rx="92.388" ry="20.8776" style="stroke:#181818;stroke-width:0.5;"/><text fill="#000000" font-family="sans-serif" font-size="14" lengthAdjust="spacing" textLength="140" x="297.388" y="1221.3024">Select Interview Model</text></g><g id="elem_SelectRequirementsforJobOpening"><ellipse cx="370.4506" cy="1302.6112" fill="#F1F1F1" rx="135.4506" ry="29.4901" style="stroke:#181818;stroke-width:0.5;"/><text fill="#000000" font-family="sans-serif" font-size="14" lengthAdjust="spacing" textLength="236" x="252.4506" y="1306.4081">Select Requirements for Job Opening</text></g><g id="elem_DeployandConfigurePlugin"><ellipse cx="370.642" cy="1391.5495" fill="#F1F1F1" rx="110.142" ry="24.4284" style="stroke:#181818;stroke-width:0.5;"/><text fill="#000000" font-family="sans-serif" font-size="14" lengthAdjust="spacing" textLength="181" x="280.142" y="1395.3464">Deploy and Configure Plugin</text></g><g id="elem_AuthenticationServices"><ellipse cx="370.6884" cy="332.6588" fill="#F1F1F1" rx="95.6884" ry="21.5377" style="stroke:#181818;stroke-width:0.5;"/><text fill="#000000" font-family="sans-serif" font-size="14" lengthAdjust="spacing" textLength="148" x="294.2253" y="337.3022">Authentication Services</text></g><g id="elem_AuthorizarionServices"><ellipse cx="370.2968" cy="410.5804" fill="#F1F1F1" rx="92.7968" ry="20.9594" style="stroke:#181818;stroke-width:0.5;"/><text fill="#000000" font-family="sans-serif" font-size="14" lengthAdjust="spacing" textLength="141" x="296.7968" y="415.3842">Authorizarion Services</text></g><g id="elem_PublishRankResults"><ellipse cx="370.4556" cy="1852.6122" fill="#F1F1F1" rx="87.9556" ry="19.9911" style="stroke:#181818;stroke-width:0.5;"/><text fill="#000000" font-family="sans-serif" font-size="14" lengthAdjust="spacing" textLength="129" x="302.9556" y="1857.4159">Publish Rank results</text></g><g id="elem_NotifiedApplicationStatus"><ellipse cx="370.4684" cy="170.6148" fill="#F1F1F1" rx="142.9684" ry="30.9937" style="stroke:#181818;stroke-width:0.5;"/><text fill="#000000" font-family="sans-serif" font-size="14" lengthAdjust="spacing" textLength="252" x="244.4684" y="174.4117">Notified when Application Status change</text></g><g id="elem_ListAllApplications"><ellipse cx="370.5921" cy="256.6395" fill="#F1F1F1" rx="85.5921" ry="19.5184" style="stroke:#181818;stroke-width:0.5;"/><text fill="#000000" font-family="sans-serif" font-size="14" lengthAdjust="spacing" textLength="119" x="306.0921" y="261.4432">List all applications</text></g><g id="elem_ListAllJobOpenings"><ellipse cx="370.3754" cy="84.7962" fill="#F1F1F1" rx="86.3754" ry="19.6751" style="stroke:#181818;stroke-width:0.5;"/><text fill="#000000" font-family="sans-serif" font-size="14" lengthAdjust="spacing" textLength="125" x="304.8754" y="89.5999">List all job openings</text></g><g id="elem_RankCandidates"><ellipse cx="370.6034" cy="1925.8418" fill="#F1F1F1" rx="76.6034" ry="17.7207" style="stroke:#181818;stroke-width:0.5;"/><text fill="#000000" font-family="sans-serif" font-size="14" lengthAdjust="spacing" textLength="99" x="318.1034" y="1930.6455">Rank candidate</text></g><g id="elem_NotifyCandidatesVerificationProcess"><ellipse cx="370.3137" cy="2011.4838" fill="#F1F1F1" rx="154.8137" ry="33.3627" style="stroke:#181818;stroke-width:0.5;"/><text fill="#000000" font-family="sans-serif" font-size="14" lengthAdjust="spacing" textLength="277" x="231.8137" y="2015.2807">Notify Candidates about verification process</text></g><g id="elem_EvaluateGrades"><ellipse cx="370.7122" cy="2105.8635" fill="#F1F1F1" rx="114.2122" ry="25.2424" style="stroke:#181818;stroke-width:0.5;"/><text fill="#000000" font-family="sans-serif" font-size="14" lengthAdjust="spacing" textLength="190" x="275.7122" y="2109.6604">Evaluate grades of a interview</text></g><g id="elem_UploadAnswers"><ellipse cx="370.2713" cy="2189.4754" fill="#F1F1F1" rx="104.7713" ry="23.3543" style="stroke:#181818;stroke-width:0.5;"/><text fill="#000000" font-family="sans-serif" font-size="14" lengthAdjust="spacing" textLength="169" x="285.7713" y="2193.2722">Upload Candidate answers</text></g><g id="elem_UploadRequirements"><ellipse cx="370.4212" cy="968.8053" fill="#F1F1F1" rx="128.9212" ry="28.1842" style="stroke:#181818;stroke-width:0.5;"/><text fill="#000000" font-family="sans-serif" font-size="14" lengthAdjust="spacing" textLength="222" x="259.4212" y="972.6022">Upload Candidate requirements file</text></g><g id="elem_OrderedCandidateList"><ellipse cx="370.7411" cy="2286.4693" fill="#F1F1F1" rx="179.7411" ry="38.3482" style="stroke:#181818;stroke-width:0.5;"/><text fill="#000000" font-family="sans-serif" font-size="14" lengthAdjust="spacing" textLength="329" x="206.2411" y="2290.2662">Get an Ordered list of candidates by interview grade</text></g><g id="elem_OpenClosePhase"><ellipse cx="370.6726" cy="2390.4556" fill="#F1F1F1" rx="139.6726" ry="30.3345" style="stroke:#181818;stroke-width:0.5;"/><text fill="#000000" font-family="sans-serif" font-size="14" lengthAdjust="spacing" textLength="245" x="248.1726" y="2394.2525">Open or close phases of a job opening</text></g><g id="elem_ExecuteVerificationProcess"><ellipse cx="370.2659" cy="2489.6743" fill="#F1F1F1" rx="155.7659" ry="33.5532" style="stroke:#181818;stroke-width:0.5;"/><text fill="#000000" font-family="sans-serif" font-size="14" lengthAdjust="spacing" textLength="279" x="230.7659" y="2493.4711">Execute verification process of requirements</text></g><g id="elem_GetTop20"><ellipse cx="370.5287" cy="2586.5268" fill="#F1F1F1" rx="127.5287" ry="27.9057" style="stroke:#181818;stroke-width:0.5;"/><text fill="#000000" font-family="sans-serif" font-size="14" lengthAdjust="spacing" textLength="219" x="261.0287" y="2590.3237">Get top 20 words of candidate files</text></g><!--link LanguageEngineer to DisplayCandidateInformation--><g id="link_LanguageEngineer_DisplayCandidateInformation"><path d="M100.8,1177.0611 C123.26,1151.2911 155.69,1118.9811 191,1099.6211 C216.3,1085.7511 240.1628,1077.6664 268.0228,1071.2564 " fill="none" id="LanguageEngineer-to-DisplayCandidateInformation" style="stroke:#181818;stroke-width:1.0;"/><polygon fill="#181818" points="273.87,1069.9111,264.2023,1068.0309,268.9973,1071.0322,265.996,1075.8272,273.87,1069.9111" style="stroke:#181818;stroke-width:1.0;"/></g><!--link LanguageEngineer to GenerateInterviewFile--><g id="link_LanguageEngineer_GenerateInterviewFile"><path d="M131.02,1196.2911 C150.14,1190.2711 171.36,1183.8811 191,1178.6211 C226.43,1169.1311 260.3642,1161.3231 293.3642,1154.2231 " fill="none" id="LanguageEngineer-to-GenerateInterviewFile" style="stroke:#181818;stroke-width:1.0;"/><polygon fill="#181818" points="299.23,1152.9611,289.59,1150.9436,294.3419,1154.0128,291.2727,1158.7647,299.23,1152.9611" style="stroke:#181818;stroke-width:1.0;"/></g><!--link LanguageEngineer to DeployandConfigurePlugin--><g id="link_LanguageEngineer_DeployandConfigurePlugin"><path d="M95.71,1256.3811 C117.64,1286.5011 151.62,1326.5011 191,1349.6211 C215.85,1364.2111 239.5736,1372.4262 267.4436,1378.6362 " fill="none" id="LanguageEngineer-to-DeployandConfigurePlugin" style="stroke:#181818;stroke-width:1.0;"/><polygon fill="#181818" points="273.3,1379.9411,265.3854,1374.0795,268.4197,1378.8537,263.6455,1381.888,273.3,1379.9411" style="stroke:#181818;stroke-width:1.0;"/></g><!--link LanguageEngineer to SelectRequirementsforJobOpening--><g id="link_LanguageEngineer_SelectRequirementsforJobOpening"><path d="M131.11,1237.1011 C150.24,1243.2711 171.44,1249.9111 191,1255.6211 C220.22,1264.1511 246.5351,1271.3034 275.3751,1278.8434 " fill="none" id="LanguageEngineer-to-SelectRequirementsforJobOpening" style="stroke:#181818;stroke-width:1.0;"/><polygon fill="#181818" points="281.18,1280.3611,273.4844,1274.2147,276.3426,1279.0964,271.4609,1281.9546,281.18,1280.3611" style="stroke:#181818;stroke-width:1.0;"/></g><!--link LanguageEngineer to SelectInterviewModel--><g id="link_LanguageEngineer_SelectInterviewModel"><path d="M131.3,1216.6211 C173.58,1216.6211 224.36,1216.6211 271.88,1216.6211 " fill="none" id="LanguageEngineer-to-SelectInterviewModel" style="stroke:#181818;stroke-width:1.0;"/><polygon fill="#181818" points="277.88,1216.6211,268.88,1212.6211,272.88,1216.6211,268.88,1220.6211,277.88,1216.6211" style="stroke:#181818;stroke-width:1.0;"/></g><!--link ProjectManager to AuthenticationServices--><g id="link_ProjectManager_AuthenticationServices"><path d="M120.73,380.7211 C169.35,371.3211 236.9891,358.2399 291.5091,347.6999 " fill="none" id="ProjectManager-to-AuthenticationServices" style="stroke:#181818;stroke-width:1.0;"/><polygon fill="#181818" points="297.4,346.5611,287.8044,344.3421,292.4909,347.5101,289.3228,352.1967,297.4,346.5611" style="stroke:#181818;stroke-width:1.0;"/></g><!--link ProjectManager to AuthorizarionServices--><g id="link_ProjectManager_AuthorizarionServices"><path d="M120.73,394.0411 C164.66,396.9611 222.9533,400.8521 275.1633,404.3321 " fill="none" id="ProjectManager-to-AuthorizarionServices" style="stroke:#181818;stroke-width:1.0;"/><polygon fill="#181818" points="281.15,404.7311,272.436,400.1414,276.1611,404.3986,271.9039,408.1237,281.15,404.7311" style="stroke:#181818;stroke-width:1.0;"/></g><!--link CustomerManager to RegisterJobOpening--><g id="link_CustomerManager_RegisterJobOpening"><path d="M78.72,1928.8211 C93.19,1875.5811 126.51,1782.1811 191,1732.6211 C216.53,1713.0011 243.9517,1703.7978 274.9017,1698.6378 " fill="none" id="CustomerManager-to-RegisterJobOpening" style="stroke:#181818;stroke-width:1.0;"/><polygon fill="#181818" points="280.82,1697.6511,271.2847,1695.1856,275.8881,1698.4733,272.6003,1703.0767,280.82,1697.6511" style="stroke:#181818;stroke-width:1.0;"/></g><!--link CustomerManager to SetupJobOpeningProcess--><g id="link_CustomerManager_SetupJobOpeningProcess"><path d="M90.58,1929.1211 C111.43,1893.9311 146.61,1843.7911 191,1815.6211 C215.46,1800.1011 239.2307,1791.6029 267.2607,1785.4229 " fill="none" id="CustomerManager-to-SetupJobOpeningProcess" style="stroke:#181818;stroke-width:1.0;"/><polygon fill="#181818" points="273.12,1784.1311,263.4699,1782.1627,268.2373,1785.2076,265.1923,1789.975,273.12,1784.1311" style="stroke:#181818;stroke-width:1.0;"/></g><!--link CustomerManager to DisplayCandidateInfo--><g id="link_CustomerManager_DisplayCandidateInfo"><path d="M69.68,1929.0611 C72.31,1850.6311 89.88,1675.0411 191,1582.6211 C214.65,1561.0111 241.495,1551.3266 272.515,1546.3766 " fill="none" id="CustomerManager-to-DisplayCandidateInfo" style="stroke:#181818;stroke-width:1.0;"/><polygon fill="#181818" points="278.44,1545.4311,268.9221,1542.8993,273.5025,1546.219,270.1828,1550.7993,278.44,1545.4311" style="stroke:#181818;stroke-width:1.0;"/></g><!--link CustomerManager to ListApplications--><g id="link_CustomerManager_ListApplications"><path d="M74.52,1928.8911 C88.11,1827.7311 128.83,1564.3111 191,1505.6211 C218.13,1480.0111 252.191,1470.8626 287.481,1467.9026 " fill="none" id="CustomerManager-to-ListApplications" style="stroke:#181818;stroke-width:1.0;"/><polygon fill="#181818" points="293.46,1467.4011,284.1572,1464.1673,288.4775,1467.819,284.8258,1472.1393,293.46,1467.4011" style="stroke:#181818;stroke-width:1.0;"/></g><!--link CustomerManager to RegisterCustomer--><g id="link_CustomerManager_RegisterCustomer"><path d="M72.96,1929.0911 C81.04,1862.0411 107.36,1726.4211 191,1655.6211 C217.45,1633.2311 247.9758,1623.9607 281.0658,1619.8507 " fill="none" id="CustomerManager-to-RegisterCustomer" style="stroke:#181818;stroke-width:1.0;"/><polygon fill="#181818" points="287.02,1619.1111,277.5956,1616.2509,282.0581,1619.7274,278.5817,1624.1899,287.02,1619.1111" style="stroke:#181818;stroke-width:1.0;"/></g><!--link CustomerManager to PublishRankResults--><g id="link_CustomerManager_PublishRankResults"><path d="M121.94,1929.0711 C142.55,1915.1311 167.01,1900.4911 191,1890.6211 C223.53,1877.2411 255.4937,1869.3776 287.9737,1863.5676 " fill="none" id="CustomerManager-to-PublishRankResults" style="stroke:#181818;stroke-width:1.0;"/><polygon fill="#181818" points="293.88,1862.5111,284.3163,1860.1584,288.9581,1863.3915,285.725,1868.0334,293.88,1862.5111" style="stroke:#181818;stroke-width:1.0;"/></g><!--link CustomerManager to RankCandidates--><g id="link_CustomerManager_RankCandidates"><path d="M129.13,1960.0711 C180.05,1952.7711 247.1807,1943.1523 299.3707,1935.6723 " fill="none" id="CustomerManager-to-RankCandidates" style="stroke:#181818;stroke-width:1.0;"/><polygon fill="#181818" points="305.31,1934.8211,295.8335,1932.1384,300.3606,1935.5305,296.9685,1940.0575,305.31,1934.8211" style="stroke:#181818;stroke-width:1.0;"/></g><!--link CustomerManager to NotifyCandidatesVerificationProcess--><g id="link_CustomerManager_NotifyCandidatesVerificationProcess"><path d="M129.13,1977.1711 C161.17,1981.7611 196.0407,1986.7598 234.9007,1992.3298 " fill="none" id="CustomerManager-to-NotifyCandidatesVerificationProcess" style="stroke:#181818;stroke-width:1.0;"/><polygon fill="#181818" points="240.84,1993.1811,232.4986,1987.9446,235.8906,1992.4717,231.3635,1995.8637,240.84,1993.1811" style="stroke:#181818;stroke-width:1.0;"/></g><!--link CustomerManager to EvaluateGrades--><g id="link_CustomerManager_EvaluateGrades"><path d="M111.51,2008.3011 C133.65,2027.2511 162.15,2048.7711 191,2062.6211 C217.73,2075.4511 242.7401,2083.2975 271.2101,2089.7875 " fill="none" id="CustomerManager-to-EvaluateGrades" style="stroke:#181818;stroke-width:1.0;"/><polygon fill="#181818" points="277.06,2091.1211,269.1741,2085.2208,272.1851,2090.0098,267.3961,2093.0207,277.06,2091.1211" style="stroke:#181818;stroke-width:1.0;"/></g><!--link CustomerManager to UploadAnswers--><g id="link_CustomerManager_UploadAnswers"><path d="M85.72,2008.4811 C104.71,2049.9911 140.17,2113.7411 191,2148.6211 C214.99,2165.0811 238.7601,2173.7684 266.9601,2179.7384 " fill="none" id="CustomerManager-to-UploadAnswers" style="stroke:#181818;stroke-width:1.0;"/><polygon fill="#181818" points="272.83,2180.9811,264.8536,2175.2038,267.9384,2179.9455,263.1967,2183.0304,272.83,2180.9811" style="stroke:#181818;stroke-width:1.0;"/></g><!--link CustomerManager to OrderedCandidateList--><g id="link_CustomerManager_OrderedCandidateList"><path d="M77.33,2008.4411 C90.66,2065.7511 123.17,2171.0911 191,2230.6211 C205.16,2243.0511 216.5382,2250.3738 234.2282,2257.8938 " fill="none" id="CustomerManager-to-OrderedCandidateList" style="stroke:#181818;stroke-width:1.0;"/><polygon fill="#181818" points="239.75,2260.2411,233.0322,2253.0389,235.1485,2258.285,229.9024,2260.4013,239.75,2260.2411" style="stroke:#181818;stroke-width:1.0;"/></g><!--link CustomerManager to OpenClosePhase--><g id="link_CustomerManager_OpenClosePhase"><path d="M70.56,2008.3411 C74.82,2084.5211 95.22,2251.6411 191,2342.6211 C207.05,2357.8711 221.7406,2366.456 242.9306,2373.676 " fill="none" id="CustomerManager-to-OpenClosePhase" style="stroke:#181818;stroke-width:1.0;"/><polygon fill="#181818" points="248.61,2375.6111,241.381,2368.9222,243.8772,2373.9985,238.8009,2376.4947,248.61,2375.6111" style="stroke:#181818;stroke-width:1.0;"/></g><!--link CustomerManager to ExecuteVerificationProcess--><g id="link_CustomerManager_ExecuteVerificationProcess"><path d="M74.66,2008.2911 C88.65,2110.0111 130.4,2376.4711 191,2438.6211 C204.95,2452.9311 217.0377,2461.0763 235.7977,2468.5663 " fill="none" id="CustomerManager-to-ExecuteVerificationProcess" style="stroke:#181818;stroke-width:1.0;"/><polygon fill="#181818" points="241.37,2470.7911,234.4947,2463.7391,236.7264,2468.9371,231.5284,2471.1688,241.37,2470.7911" style="stroke:#181818;stroke-width:1.0;"/></g><!--link CustomerManager to GetTop20--><g id="link_CustomerManager_GetTop20"><path d="M72.57,2008.2611 C82.41,2124.8511 116.91,2463.2811 191,2540.6211 C207.49,2557.8411 223.7666,2567.1625 246.6866,2574.2325 " fill="none" id="CustomerManager-to-GetTop20" style="stroke:#181818;stroke-width:1.0;"/><polygon fill="#181818" points="252.42,2576.0011,244.9989,2569.526,247.6421,2574.5273,242.6408,2577.1705,252.42,2576.0011" style="stroke:#181818;stroke-width:1.0;"/></g><!--link Administrator to DisableBackOfficeUsers--><g id="link_Administrator_DisableBackOfficeUsers"><path d="M110.19,577.9911 C132.87,561.7211 162.28,542.8011 191,530.6211 C221.3,517.7711 250.393,509.8199 281.313,503.4599 " fill="none" id="Administrator-to-DisableBackOfficeUsers" style="stroke:#181818;stroke-width:1.0;"/><polygon fill="#181818" points="287.19,502.2511,277.5687,500.1464,282.2925,503.2585,279.1805,507.9823,287.19,502.2511" style="stroke:#181818;stroke-width:1.0;"/></g><!--link Administrator to EnableBackOfficeUsers--><g id="link_Administrator_EnableBackOfficeUsers"><path d="M110.27,604.1811 C154.97,598.2211 221.9826,589.2941 279.1326,581.6741 " fill="none" id="Administrator-to-EnableBackOfficeUsers" style="stroke:#181818;stroke-width:1.0;"/><polygon fill="#181818" points="285.08,580.8811,275.6303,578.1057,280.1239,581.5419,276.6876,586.0355,285.08,580.8811" style="stroke:#181818;stroke-width:1.0;"/></g><!--link Administrator to RegisterBackOfficeUsers--><g id="link_Administrator_RegisterBackOfficeUsers"><path d="M110.27,615.0611 C154.09,620.9011 219.1126,629.568 275.7326,637.118 " fill="none" id="Administrator-to-RegisterBackOfficeUsers" style="stroke:#181818;stroke-width:1.0;"/><polygon fill="#181818" points="281.68,637.9111,273.2877,632.7566,276.7239,637.2502,272.2303,640.6864,281.68,637.9111" style="stroke:#181818;stroke-width:1.0;"/></g><!--link Administrator to ListUsersFromBackOffice--><g id="link_Administrator_ListUsersFromBackOffice"><path d="M110.07,642.0911 C132.72,658.7911 162.13,678.1811 191,690.6211 C219.91,703.0811 247.2788,710.7944 277.1888,717.0944 " fill="none" id="Administrator-to-ListUsersFromBackOffice" style="stroke:#181818;stroke-width:1.0;"/><polygon fill="#181818" points="283.06,718.3311,275.0777,712.562,278.1674,717.3005,273.4288,720.3902,283.06,718.3311" style="stroke:#181818;stroke-width:1.0;"/></g><!--link Operator to RegisterApplication--><g id="link_Operator_RegisterApplication"><path d="M97.3,876.4111 C121.8,868.4711 158.55,857.0011 191,848.6211 C227.81,839.1111 263.4591,831.3605 297.1791,824.5405 " fill="none" id="Operator-to-RegisterApplication" style="stroke:#181818;stroke-width:1.0;"/><polygon fill="#181818" points="303.06,823.3511,293.4457,821.2146,298.1592,824.3423,295.0316,829.0559,303.06,823.3511" style="stroke:#181818;stroke-width:1.0;"/></g><!--link Operator to RegisterCandidate--><g id="link_Operator_RegisterCandidate"><path d="M97.19,885.6211 C139.54,885.6211 216.16,885.6211 279.33,885.6211 " fill="none" id="Operator-to-RegisterCandidate" style="stroke:#181818;stroke-width:1.0;"/><polygon fill="#181818" points="285.33,885.6211,276.33,881.6211,280.33,885.6211,276.33,889.6211,285.33,885.6211" style="stroke:#181818;stroke-width:1.0;"/></g><!--link Operator to UploadRequirements--><g id="link_Operator_UploadRequirements"><path d="M97.39,894.4911 C121.95,902.2111 158.73,913.5511 191,922.6211 C221.5,931.1911 249.2968,938.5255 279.0368,946.1255 " fill="none" id="Operator-to-UploadRequirements" style="stroke:#181818;stroke-width:1.0;"/><polygon fill="#181818" points="284.85,947.6111,277.1206,941.5073,280.0057,946.3731,275.1399,949.2582,284.85,947.6111" style="stroke:#181818;stroke-width:1.0;"/></g><!--link Candidate to NotifiedApplicationStatus--><g id="link_Candidate_NotifiedApplicationStatus"><path d="M101.04,221.6311 C139.17,214.3811 199.4654,202.931 256.5754,192.081 " fill="none" id="Candidate-to-NotifiedApplicationStatus" style="stroke:#181818;stroke-width:1.0;"/><polygon fill="#181818" points="262.47,190.9611,252.8816,188.7112,257.5579,191.8943,254.3747,196.5706,262.47,190.9611" style="stroke:#181818;stroke-width:1.0;"/></g><!--link Candidate to ListAllApplications--><g id="link_Candidate_ListAllApplications"><path d="M101.04,230.6711 C145.87,235.0011 223.4879,242.5035 285.5279,248.5035 " fill="none" id="Candidate-to-ListAllApplications" style="stroke:#181818;stroke-width:1.0;"/><polygon fill="#181818" points="291.5,249.0811,282.9268,244.2333,286.5232,248.5998,282.1567,252.1962,291.5,249.0811" style="stroke:#181818;stroke-width:1.0;"/></g><!--link Customer to ListAllJobOpenings--><g id="link_Customer_ListAllJobOpenings"><path d="M99.09,84.6211 C141.66,84.6211 215.9,84.6211 277.96,84.6211 " fill="none" id="Customer-to-ListAllJobOpenings" style="stroke:#181818;stroke-width:1.0;"/><polygon fill="#181818" points="283.96,84.6211,274.96,80.6211,278.96,84.6211,274.96,88.6211,283.96,84.6211" style="stroke:#181818;stroke-width:1.0;"/></g><!--SRC=[ZLTTRziW57tthxZgUwMgFs1IbhRJfdQDadNln2O9BG4FSBlir-zYZ87uEjjB5Tzp3d0_eKuuoM5pieuVuSLoM3BySoVOth1ZPT-4QXd-WfRLRspFD-w4TCDhnzHUygggMEsqWQjbPvq-SWDFJ27FN06p48s3BN8VKTkX0UxLNYW-aACr6YFxkUM6uQ-U53yYk6YEGWdh4gEmHDhAw5SySt6umNPsjYLJZMYOuy61-7NkPk5ULKc-S-0q6B4_E6Y43v3GggewosiVqAixOLl9Jcb5-AfssXoPv_Mh3OoHaE5fcKVq31PjAqNT8pQ43gsvCV6_SEK3vdTptBmB_W4FGWRd8ZP27YbEpBQOxC-O-UVTJjJSruUnyR0UJ5WF9V6zcjS6R5Qwvdjq1ok954TqLjv7gBV1Wz77R9KnL3tgmOGHssS1BNRExDFqraLwP_DAR5SMNZId0YGKUIsEWbYJK_utlVNzeuJQ5nAq3-Oasd3NjRd2jqlDRKX2ZoRP0ELgwRijrToJRhWSf1uQaHwO2DVyLuSzTEJAMS0kc1mzy78QiYW_xdWhzGamYh3KQYVsdU6maXsEc92S7aTuH0EOLbXqxe0R31d7dV7Sw6sODGKMeLAhZVZ332aTeQborMsbi0TOC_M6uzPsqWNT07ZxEfYJwBjsOYTu0nzughn-OUEOwopK1voneS0YDsC5qbadCIc1PQC5qi2Hafuve-uLiwP3HcmkIudAszvxMfTDWAQn0Sxzp4Qf1RRLdODtRj2dmUKsgzSWIFoV6N5IlFVlJ7Q-W_46R71jlGC68XPic603vKlFID8NB2RMP3EUAViH9rS05y5oGMEAue_3Ej3oYi-7FCPRmRDfkC7iInz_F7MTuhCz9G-2N-4s3OfnRv-VjApF4M3prLBZPtj0un2DBB7nLbPBprfvKXRAtxpkq2KgCNwbtDKGs22uc1_lhTCjtDx0XpQDBLpj0sQ7wytzqEtj3RvHpfyMS7tzwU9zImhe-v9UUswiaEn_JRCBehD1MfMFcfuuCwHccDEPL9szudegSNTGj9cBWgAIroH5d3nsBfrll0uf4Z5BoRNACKHH_cV0KBgpGK9Hoh51CSWk9ebbcv87ccz0YfxrMF7kZXcb7dfJ8lqWdFBctdvJvjmhhuh_FnJhvIywaf1UOGLCpEGgpV6nBiXRjkHHz-aOy9oHNvrLzHS0]--></g></svg>