<?xml version="1.0" encoding="us-ascii" standalone="no"?><svg xmlns="http://www.w3.org/2000/svg" xmlns:xlink="http://www.w3.org/1999/xlink" contentStyleType="text/css" height="246px" preserveAspectRatio="none" style="width:474px;height:246px;background:#FFFFFF;" version="1.1" viewBox="0 0 474 246" width="474px" zoomAndPan="magnify"><defs/><g><!--class Company--><g id="elem_Company"><rect codeLine="3" fill="#F1F1F1" height="60.582" id="Company" rx="2.5" ry="2.5" style="stroke:#181818;stroke-width:0.5;" width="92" x="7" y="171"/><ellipse cx="22" cy="193.291" fill="#ADD1B2" rx="11" ry="11" style="stroke:#181818;stroke-width:1.0;"/><path d="M20.8594,194.0879 L20.8594,196.5879 L25.1875,196.5879 L25.1875,195.666 Q25.1875,195.0566 25.4219,194.791 Q25.6719,194.5254 26.0469,194.5254 Q26.4219,194.5254 26.6563,194.791 Q26.8906,195.0566 26.8906,195.666 L26.8906,198.291 L18.8906,198.291 Q18.2656,198.291 18,198.0566 Q17.75,197.8223 17.75,197.4316 Q17.75,197.0566 18.0156,196.8223 Q18.2813,196.5879 18.8906,196.5879 L19.1563,196.5879 L19.1563,189.9316 L18.8906,189.9316 Q18.2656,189.9316 18,189.6973 Q17.75,189.4629 17.75,189.0723 Q17.75,188.6973 18,188.4629 Q18.2656,188.2285 18.8906,188.2285 L26.5156,188.2285 L26.5156,190.8223 Q26.5156,191.4316 26.2813,191.6973 Q26.0625,191.9473 25.6719,191.9473 Q25.2969,191.9473 25.0625,191.6973 Q24.8281,191.4316 24.8281,190.8223 L24.8281,189.9316 L20.8594,189.9316 L20.8594,192.3848 L22.3438,192.3848 Q22.3438,191.7285 22.4688,191.541 Q22.7344,191.1348 23.2031,191.1348 Q23.5781,191.1348 23.8125,191.4004 Q24.0469,191.6504 24.0469,192.2598 L24.0469,194.2285 Q24.0469,194.7754 23.9219,194.9629 Q23.6563,195.3535 23.2031,195.3535 Q22.7344,195.3535 22.4688,194.9473 Q22.3438,194.7598 22.3438,194.0879 L20.8594,194.0879 Z " fill="#000000"/><text fill="#000000" font-family="sans-serif" font-size="12" font-style="italic" lengthAdjust="spacing" textLength="42" x="45" y="188.9492">&#171;class&#187;</text><text fill="#000000" font-family="sans-serif" font-size="14" lengthAdjust="spacing" textLength="60" x="36" y="207.0684">Company</text><line style="stroke:#181818;stroke-width:0.5;" x1="8" x2="98" y1="215.582" y2="215.582"/><line style="stroke:#181818;stroke-width:0.5;" x1="8" x2="98" y1="223.582" y2="223.582"/></g><!--class Candidate--><g id="elem_Candidate"><rect codeLine="5" fill="#F1F1F1" height="76.543" id="Candidate" rx="2.5" ry="2.5" style="stroke:#181818;stroke-width:0.5;" width="97" x="245.5" y="163"/><ellipse cx="260.5" cy="193.2715" fill="#ADD1B2" rx="11" ry="11" style="stroke:#181818;stroke-width:1.0;"/><path d="M259.3594,194.0684 L259.3594,196.5684 L263.6875,196.5684 L263.6875,195.6465 Q263.6875,195.0371 263.9219,194.7715 Q264.1719,194.5059 264.5469,194.5059 Q264.9219,194.5059 265.1563,194.7715 Q265.3906,195.0371 265.3906,195.6465 L265.3906,198.2715 L257.3906,198.2715 Q256.7656,198.2715 256.5,198.0371 Q256.25,197.8027 256.25,197.4121 Q256.25,197.0371 256.5156,196.8027 Q256.7813,196.5684 257.3906,196.5684 L257.6563,196.5684 L257.6563,189.9121 L257.3906,189.9121 Q256.7656,189.9121 256.5,189.6777 Q256.25,189.4434 256.25,189.0527 Q256.25,188.6777 256.5,188.4434 Q256.7656,188.209 257.3906,188.209 L265.0156,188.209 L265.0156,190.8027 Q265.0156,191.4121 264.7813,191.6777 Q264.5625,191.9277 264.1719,191.9277 Q263.7969,191.9277 263.5625,191.6777 Q263.3281,191.4121 263.3281,190.8027 L263.3281,189.9121 L259.3594,189.9121 L259.3594,192.3652 L260.8438,192.3652 Q260.8438,191.709 260.9688,191.5215 Q261.2344,191.1152 261.7031,191.1152 Q262.0781,191.1152 262.3125,191.3809 Q262.5469,191.6309 262.5469,192.2402 L262.5469,194.209 Q262.5469,194.7559 262.4219,194.9434 Q262.1563,195.334 261.7031,195.334 Q261.2344,195.334 260.9688,194.9277 Q260.8438,194.7402 260.8438,194.0684 L259.3594,194.0684 Z " fill="#000000"/><text fill="#000000" font-family="sans-serif" font-size="12" font-style="italic" lengthAdjust="spacing" textLength="43" x="285.5" y="180.9492">&#171;entity&#187;</text><text fill="#000000" font-family="sans-serif" font-size="12" font-style="italic" lengthAdjust="spacing" textLength="35" x="289.5" y="196.9102">&#171;root&#187;</text><text fill="#000000" font-family="sans-serif" font-size="14" lengthAdjust="spacing" textLength="65" x="274.5" y="215.0293">Candidate</text><line style="stroke:#181818;stroke-width:0.5;" x1="246.5" x2="341.5" y1="223.543" y2="223.543"/><line style="stroke:#181818;stroke-width:0.5;" x1="246.5" x2="341.5" y1="231.543" y2="231.543"/></g><!--class CustomerManager--><g id="elem_CustomerManager"><rect codeLine="7" fill="#F1F1F1" height="76.543" id="CustomerManager" rx="2.5" ry="2.5" style="stroke:#181818;stroke-width:0.5;" width="149" x="98.5" y="7"/><ellipse cx="113.5" cy="37.2715" fill="#ADD1B2" rx="11" ry="11" style="stroke:#181818;stroke-width:1.0;"/><path d="M112.3594,38.0684 L112.3594,40.5684 L116.6875,40.5684 L116.6875,39.6465 Q116.6875,39.0371 116.9219,38.7715 Q117.1719,38.5059 117.5469,38.5059 Q117.9219,38.5059 118.1563,38.7715 Q118.3906,39.0371 118.3906,39.6465 L118.3906,42.2715 L110.3906,42.2715 Q109.7656,42.2715 109.5,42.0371 Q109.25,41.8027 109.25,41.4121 Q109.25,41.0371 109.5156,40.8027 Q109.7813,40.5684 110.3906,40.5684 L110.6563,40.5684 L110.6563,33.9121 L110.3906,33.9121 Q109.7656,33.9121 109.5,33.6777 Q109.25,33.4434 109.25,33.0527 Q109.25,32.6777 109.5,32.4434 Q109.7656,32.209 110.3906,32.209 L118.0156,32.209 L118.0156,34.8027 Q118.0156,35.4121 117.7813,35.6777 Q117.5625,35.9277 117.1719,35.9277 Q116.7969,35.9277 116.5625,35.6777 Q116.3281,35.4121 116.3281,34.8027 L116.3281,33.9121 L112.3594,33.9121 L112.3594,36.3652 L113.8438,36.3652 Q113.8438,35.709 113.9688,35.5215 Q114.2344,35.1152 114.7031,35.1152 Q115.0781,35.1152 115.3125,35.3809 Q115.5469,35.6309 115.5469,36.2402 L115.5469,38.209 Q115.5469,38.7559 115.4219,38.9434 Q115.1563,39.334 114.7031,39.334 Q114.2344,39.334 113.9688,38.9277 Q113.8438,38.7402 113.8438,38.0684 L112.3594,38.0684 Z " fill="#000000"/><text fill="#000000" font-family="sans-serif" font-size="12" font-style="italic" lengthAdjust="spacing" textLength="43" x="164.5" y="24.9492">&#171;entity&#187;</text><text fill="#000000" font-family="sans-serif" font-size="12" font-style="italic" lengthAdjust="spacing" textLength="35" x="168.5" y="40.9102">&#171;root&#187;</text><text fill="#000000" font-family="sans-serif" font-size="14" lengthAdjust="spacing" textLength="117" x="127.5" y="59.0293">CustomerManager</text><line style="stroke:#181818;stroke-width:0.5;" x1="99.5" x2="246.5" y1="67.543" y2="67.543"/><line style="stroke:#181818;stroke-width:0.5;" x1="99.5" x2="246.5" y1="75.543" y2="75.543"/></g><!--link CustomerManager to Candidate--><g id="link_CustomerManager_Candidate"><path codeLine="10" d="M226.27,84.27 C236.64,93.22 246.82,103.31 255,114 C266.11,128.53 272.6684,141.1545 279.0884,157.0945 " fill="none" id="CustomerManager-to-Candidate" style="stroke:#181818;stroke-width:1.0;"/><polygon fill="#181818" points="281.33,162.66,281.678,152.8173,279.462,158.022,274.2573,155.8061,281.33,162.66" style="stroke:#181818;stroke-width:1.0;"/><text fill="#000000" font-family="sans-serif" font-size="13" lengthAdjust="spacing" textLength="199" x="267" y="129.0283">sents an email informing the result</text><text fill="#000000" font-family="sans-serif" font-size="13" lengthAdjust="spacing" textLength="7" x="226.891" y="105.5938">1</text><text fill="#000000" font-family="sans-serif" font-size="13" lengthAdjust="spacing" textLength="15" x="262.8633" y="151.616">1..</text></g><!--link CustomerManager to Company--><g id="link_CustomerManager_Company"><path codeLine="11" d="M98.36,71.38 C79.27,81.5 61.04,95.34 50,114 C39.97,130.94 39.8614,147.2971 43.2514,164.9971 " fill="none" id="CustomerManager-to-Company" style="stroke:#181818;stroke-width:1.0;"/><polygon fill="#181818" points="44.38,170.89,46.6156,161.2982,43.4395,165.9793,38.7584,162.8031,44.38,170.89" style="stroke:#181818;stroke-width:1.0;"/><text fill="#000000" font-family="sans-serif" font-size="13" lengthAdjust="spacing" textLength="199" x="51" y="129.0283">sents an email informing the result</text><text fill="#000000" font-family="sans-serif" font-size="13" lengthAdjust="spacing" textLength="7" x="83.3018" y="70.2392">1</text><text fill="#000000" font-family="sans-serif" font-size="13" lengthAdjust="spacing" textLength="7" x="34.8803" y="159.925">1</text></g><!--SRC=[ZOz12W8n34NtFSMd-nbmAwKRrnuYE74ijAaqcSKWtjs28ZA8k0haFLu8YoLRSQZbIh8YX5CcrHXnkpl7BqWofOcCEtwkEW-XrMeRSL6hXTkHX6PkNsrqtMr4-9t7CCG-nz5_tDj3Uq910YwKCfASQoj9PjY5qLYNR3zg_ltOVwK7]--></g></svg>