<?xml version="1.0" encoding="us-ascii" standalone="no"?><svg xmlns="http://www.w3.org/2000/svg" xmlns:xlink="http://www.w3.org/1999/xlink" contentStyleType="text/css" height="902px" preserveAspectRatio="none" style="width:664px;height:902px;background:#FFFFFF;" version="1.1" viewBox="0 0 664 902" width="664px" zoomAndPan="magnify"><defs/><g><!--class DisplayCandidateInfoUI--><g id="elem_DisplayCandidateInfoUI"><polygon fill="#F1F1F1" points="206.5,7,206.5,7.2102,216.6765,6.5857,226.8529,7.1933,237.0294,7.3997,247.2059,6.2866,257.3824,6.9223,267.5588,6.5735,277.7353,6.6165,287.9118,6.9318,298.0882,6.3086,308.2647,7.5536,318.4412,6.3697,328.6176,6.8022,338.7941,7.4319,348.9706,6.9142,359.1471,7.0682,369.3235,6.9681,379.5,7,379.5228,7.055,379.8841,7.2201,380.2818,7.4733,380.6463,7.646,381.0009,7.795,381.2678,7.7322,381.3462,7.7647,381.557,8.1449,381.7769,8.5289,381.485,8.7009,382.0625,9.233,382,9.5,381.7035,9.5,382.5338,19.8138,381.505,30.1276,381.9315,40.4414,382.7416,50.7552,381.9513,61.069,382.1053,71.3828,382.3386,81.6966,382.4162,92.0104,382,102.3242,381.9988,102.3237,381.942,102.7144,381.5308,102.9583,381.6482,103.4212,381.583,103.8084,381.2678,104.092,381.3245,104.2289,380.9924,104.4272,380.499,104.2361,380.1239,104.3305,379.7743,104.4864,379.5,104.8242,379.5,104.7653,369.3235,104.6277,359.1471,105.5056,348.9706,104.6495,338.7941,104.4812,328.6176,105.0525,318.4412,104.1574,308.2647,104.3051,298.0882,105.4732,287.9118,105.2599,277.7353,105.5587,267.5588,104.5024,257.3824,105.1434,247.2059,105.4146,237.0294,104.3518,226.8529,104.7284,216.6765,104.9502,206.5,104.8242,206.5831,105.0249,206.1459,104.6765,205.8519,104.6738,205.3687,104.2143,204.9994,104.0299,204.7322,104.092,204.8873,104.1562,204.365,103.647,204.5961,103.4498,204.3565,103.0577,204.0639,102.6436,204,102.3242,203.6462,102.3242,204.4588,92.0104,203.7007,81.6966,204.5919,71.3828,203.4473,61.069,204.6174,50.7552,204.4843,40.4414,204.245,30.1276,204.0472,19.8138,204,9.5,204.2238,9.5927,204.3354,9.2247,204.345,8.8145,204.5219,8.4736,204.5457,8.0692,204.7322,7.7322,204.8236,7.9529,205.1055,7.6335,205.4614,7.4925,205.7153,7.1055,206.0948,7.0217,206.5,7" style="stroke:#181818;stroke-width:0.5;"/><polygon fill="#ADD1B2" points="230.0608,31.9667,228.4484,34.1698,226.5412,37.3967,223.8136,39.5714,220.9474,40.7606,218.662,40.8638,215.7247,39.3766,212.9532,38.4049,210.8495,36.4322,209.7461,34.1738,209.0917,32.3756,208.4506,30.0267,207.41,28.0055,208.2096,26.032,208.9102,23.8702,211.5393,22.1605,213.389,19.9421,215.6784,19.2055,218.4001,18.5711,221.8904,18.948,223.8021,19.8495,226.0247,20.2582,228.7272,23.027,229.6693,25.95,230.0786,27.9444,229.615,31.2309" style="stroke:#181818;stroke-width:1.0;"/><path d="M221.7656,25.166 Q221.9219,24.9473 222.1094,24.8379 Q222.2969,24.7285 222.5156,24.7285 Q222.8906,24.7285 223.125,24.9941 Q223.3594,25.2441 223.3594,25.8535 L223.3594,27.3066 Q223.3594,27.916 223.125,28.1816 Q222.8906,28.4473 222.5156,28.4473 Q222.1719,28.4473 221.9688,28.2441 Q221.7656,28.0566 221.6563,27.541 Q221.6094,27.1816 221.4219,26.9941 Q221.0938,26.6191 220.4844,26.4004 Q219.875,26.1816 219.25,26.1816 Q218.4844,26.1816 217.8438,26.5098 Q217.2188,26.8379 216.7188,27.5879 Q216.2344,28.3379 216.2344,29.3691 L216.2344,30.4629 Q216.2344,31.6973 217.125,32.5254 Q218.0156,33.3379 219.6094,33.3379 Q220.5469,33.3379 221.2031,33.0879 Q221.5938,32.9316 222.0156,32.4941 Q222.2813,32.2285 222.4219,32.1504 Q222.5781,32.0723 222.7813,32.0723 Q223.1094,32.0723 223.3594,32.3379 Q223.625,32.5879 223.625,32.9316 Q223.625,33.2754 223.2813,33.6816 Q222.7813,34.2598 221.9844,34.5879 Q220.9063,35.041 219.6094,35.041 Q218.0938,35.041 216.8906,34.416 Q215.9063,33.916 215.2188,32.8535 Q214.5313,31.7754 214.5313,30.4941 L214.5313,29.3379 Q214.5313,28.0098 215.1406,26.8691 Q215.7656,25.7129 216.8594,25.1035 Q217.9531,24.4785 219.1875,24.4785 Q219.9219,24.4785 220.5625,24.6504 Q221.2188,24.8066 221.7656,25.166 Z " fill="#000000"/><text fill="#000000" font-family="FG Virgil" font-size="12" font-style="italic" lengthAdjust="spacing" textLength="82" x="265" y="24.9492">&#171;presentation&#187;</text><text fill="#000000" font-family="FG Virgil" font-size="14" lengthAdjust="spacing" textLength="146" x="233" y="43.0684">DisplayCandidateInfoUI</text><path d="M205,51.582 L205,51.8623 L214.7778,51.0296 L224.5556,51.8397 L234.3333,52.1149 L244.1111,50.6308 L253.8889,51.4784 L263.6667,51.0134 L273.4444,51.0707 L283.2222,51.4912 L293,50.6602 L302.7778,52.3202 L312.5556,50.7417 L322.3333,51.3183 L332.1111,52.158 L341.8889,51.4677 L351.6667,51.673 L361.4444,51.5394 L371.2222,51.8201 L381,51.582 " fill="#F1F1F1" style="stroke:#181818;stroke-width:0.5;"/><path d="M205,59.582 L205,59.8623 L214.7778,59.0296 L224.5556,59.8397 L234.3333,60.1149 L244.1111,58.6308 L253.8889,59.4784 L263.6667,59.0134 L273.4444,59.0707 L283.2222,59.4912 L293,58.6602 L302.7778,60.3202 L312.5556,58.7417 L322.3333,59.3183 L332.1111,60.158 L341.8889,59.4677 L351.6667,59.673 L361.4444,59.5394 L371.2222,59.8201 L381,59.582 " fill="#F1F1F1" style="stroke:#181818;stroke-width:0.5;"/><polygon fill="#F24D5C" points="212,71.3926,212,71.4626,213.2,71.2545,214.4,71.457,215.6,71.5258,216.8,71.1548,218,71.3926,217.9741,71.3926,217.8578,72.5926,217.8722,73.7926,217.9773,74.9926,217.7695,76.1926,218,77.3926,218,77.5771,216.8,77.1825,215.6,77.3267,214.4,77.5366,213.2,77.364,212,77.3926,212.0227,77.3926,211.9894,76.1926,212.0595,74.9926,212.0797,73.7926,212.1952,72.5926,212,71.3926" style="stroke:#C82930;stroke-width:1.0;"/><text fill="#000000" font-family="FG Virgil" font-size="14" lengthAdjust="spacing" textLength="60" x="224" y="78.6895">doShow()</text><polygon fill="#84BE84" points="218.0166,93.7434,217.5768,94.3443,217.0567,95.2243,216.3128,95.8174,215.5311,96.1417,214.9078,96.1699,214.1067,95.7643,213.3509,95.4993,212.7771,94.9613,212.4762,94.3453,212.2977,93.8549,212.1229,93.2143,211.8391,92.6631,212.0572,92.1249,212.2482,91.5353,212.9653,91.069,213.4697,90.464,214.0941,90.2631,214.8364,90.09,215.7883,90.1928,216.3097,90.4387,216.9158,90.5502,217.6529,91.3053,217.9098,92.1025,218.0214,92.6464,217.895,93.5427" style="stroke:#038048;stroke-width:1.0;"/><text fill="#000000" font-family="FG Virgil" font-size="14" lengthAdjust="spacing" textLength="64" x="224" y="97.3105">headline()</text></g><!--class DisplayCandidateInfoController--><g id="elem_DisplayCandidateInfoController"><polygon fill="#F1F1F1" points="181.5,184,181.5,184.2102,191.6364,183.5857,201.7727,184.1933,211.9091,184.3997,222.0455,183.2866,232.1818,183.9223,242.3182,183.5735,252.4545,183.6165,262.5909,183.9318,272.7273,183.3086,282.8636,184.5536,293,183.3697,303.1364,183.8022,313.2727,184.4319,323.4091,183.9142,333.5455,184.0682,343.6818,183.9681,353.8182,184.1785,363.9545,184.2391,374.0909,184.5857,384.2273,184.6711,394.3636,184.6793,404.5,184,404.5325,184.0784,404.9127,184.2892,405.2967,184.5092,405.4687,184.2172,406.0008,184.7947,406.2678,184.7322,406.1765,184.6944,406.5786,185.1539,406.4082,185.3762,406.686,185.7842,407.0819,186.241,407,186.5,406.9513,186.5,407.1053,197.1004,407.3386,207.7009,407.4162,218.3013,406.9961,228.9018,407.2872,239.5022,406.4276,250.1027,407,260.7031,407.0876,260.7394,407.0224,261.1266,406.844,261.4669,406.7494,261.842,406.2654,262.0557,406.2678,262.4709,406.1846,262.27,405.8349,262.426,405.5531,262.7457,405.182,262.8497,404.9405,263.2665,404.5,263.2031,404.5,263.0284,394.3636,262.8601,384.2273,263.4314,374.0909,262.5363,363.9545,262.684,353.8182,263.8521,343.6818,263.6388,333.5455,263.9376,323.4091,262.8813,313.2727,263.5223,303.1364,263.7935,293,262.7307,282.8636,263.1073,272.7273,263.3291,262.5909,263.8549,252.4545,263.1989,242.3182,263.6657,232.1818,262.6493,222.0455,262.5259,211.9091,263.7067,201.7727,262.4862,191.6364,263.7121,181.5,263.2031,181.5264,263.2668,181.1123,262.9742,180.7478,262.8013,180.4979,262.9051,180.0476,262.5252,179.7322,262.4709,179.9145,262.5464,179.4156,262.0468,179.6295,261.8425,179.442,261.472,179.2219,261.0879,179,260.7031,179.0472,260.7031,179.7266,250.1027,179.6136,239.5022,179.1693,228.9018,179.2682,218.3013,178.8697,207.7009,179.7165,197.1004,179,186.5,179.0477,186.5198,179.1996,186.1685,179.1055,185.7153,179.3145,185.3876,179.7492,185.1535,179.7322,184.7322,179.7871,184.8646,180.0803,184.5726,180.3982,184.3401,180.765,184.2255,181.0589,183.9351,181.5,184" style="stroke:#181818;stroke-width:0.5;"/><polygon fill="#ADD1B2" points="205.0608,208.9667,203.4484,211.1698,201.5412,214.3967,198.8136,216.5714,195.9474,217.7606,193.662,217.8638,190.7247,216.3766,187.9532,215.4049,185.8495,213.4322,184.7461,211.1738,184.0917,209.3756,183.4506,207.0267,182.41,205.0055,183.2096,203.032,183.9102,200.8702,186.5393,199.1605,188.389,196.9421,190.6784,196.2055,193.4001,195.5711,196.8904,195.948,198.8021,196.8495,201.0247,197.2582,203.7272,200.027,204.6693,202.95,205.0786,204.9444,204.615,208.2309" style="stroke:#181818;stroke-width:1.0;"/><path d="M196.7656,202.166 Q196.9219,201.9473 197.1094,201.8379 Q197.2969,201.7285 197.5156,201.7285 Q197.8906,201.7285 198.125,201.9941 Q198.3594,202.2441 198.3594,202.8535 L198.3594,204.3066 Q198.3594,204.916 198.125,205.1816 Q197.8906,205.4473 197.5156,205.4473 Q197.1719,205.4473 196.9688,205.2441 Q196.7656,205.0566 196.6563,204.541 Q196.6094,204.1816 196.4219,203.9941 Q196.0938,203.6191 195.4844,203.4004 Q194.875,203.1816 194.25,203.1816 Q193.4844,203.1816 192.8438,203.5098 Q192.2188,203.8379 191.7188,204.5879 Q191.2344,205.3379 191.2344,206.3691 L191.2344,207.4629 Q191.2344,208.6973 192.125,209.5254 Q193.0156,210.3379 194.6094,210.3379 Q195.5469,210.3379 196.2031,210.0879 Q196.5938,209.9316 197.0156,209.4941 Q197.2813,209.2285 197.4219,209.1504 Q197.5781,209.0723 197.7813,209.0723 Q198.1094,209.0723 198.3594,209.3379 Q198.625,209.5879 198.625,209.9316 Q198.625,210.2754 198.2813,210.6816 Q197.7813,211.2598 196.9844,211.5879 Q195.9063,212.041 194.6094,212.041 Q193.0938,212.041 191.8906,211.416 Q190.9063,210.916 190.2188,209.8535 Q189.5313,208.7754 189.5313,207.4941 L189.5313,206.3379 Q189.5313,205.0098 190.1406,203.8691 Q190.7656,202.7129 191.8594,202.1035 Q192.9531,201.4785 194.1875,201.4785 Q194.9219,201.4785 195.5625,201.6504 Q196.2188,201.8066 196.7656,202.166 Z " fill="#000000"/><text fill="#000000" font-family="FG Virgil" font-size="12" font-style="italic" lengthAdjust="spacing" textLength="74" x="269" y="201.9492">&#171;application&#187;</text><text fill="#000000" font-family="FG Virgil" font-size="14" lengthAdjust="spacing" textLength="196" x="208" y="220.0684">DisplayCandidateInfoController</text><path d="M180,228.582 L180,228.8623 L189.8261,228.0296 L199.6522,228.8397 L209.4783,229.1149 L219.3043,227.6308 L229.1304,228.4784 L238.9565,228.0134 L248.7826,228.0707 L258.6087,228.4912 L268.4348,227.6602 L278.2609,229.3202 L288.087,227.7417 L297.913,228.3183 L307.7391,229.158 L317.5652,228.4677 L327.3913,228.673 L337.2174,228.5394 L347.0435,228.8201 L356.8696,228.9009 L366.6957,229.363 L376.5217,229.4768 L386.3478,229.4877 L396.1739,228.9215 L406,228.582 " fill="#F1F1F1" style="stroke:#181818;stroke-width:0.5;"/><path d="M180,236.582 L180,236.8623 L189.8261,236.0296 L199.6522,236.8397 L209.4783,237.1149 L219.3043,235.6308 L229.1304,236.4784 L238.9565,236.0134 L248.7826,236.0707 L258.6087,236.4912 L268.4348,235.6602 L278.2609,237.3202 L288.087,235.7417 L297.913,236.3183 L307.7391,237.158 L317.5652,236.4677 L327.3913,236.673 L337.2174,236.5394 L347.0435,236.8201 L356.8696,236.9009 L366.6957,237.363 L376.5217,237.4768 L386.3478,237.4877 L396.1739,236.9215 L406,236.582 " fill="#F1F1F1" style="stroke:#181818;stroke-width:0.5;"/><polygon fill="#84BE84" points="193.0166,252.1223,192.5768,252.7232,192.0567,253.6032,191.3128,254.1963,190.5311,254.5207,189.9078,254.5488,189.1067,254.1432,188.3509,253.8782,187.7771,253.3402,187.4762,252.7242,187.2977,252.2338,187.1229,251.5932,186.8391,251.042,187.0572,250.5038,187.2482,249.9142,187.9653,249.4479,188.4697,248.8429,189.0941,248.642,189.8364,248.469,190.7883,248.5718,191.3097,248.8176,191.9158,248.9291,192.6529,249.6842,192.9098,250.4814,193.0214,251.0253,192.895,251.9216" style="stroke:#038048;stroke-width:1.0;"/><text fill="#000000" font-family="FG Virgil" font-size="14" lengthAdjust="spacing" textLength="172" x="199" y="255.6895">findCandidate(String email)</text></g><!--class AuthorizationService--><g id="elem_AuthorizationService"><polygon fill="#F1F1F1" points="9.5,342,9.5,342.2102,19.5833,341.5857,29.6667,342.1933,39.75,342.3997,49.8333,341.2866,59.9167,341.9223,70,341.5735,80.0833,341.6165,90.1667,341.9318,100.25,341.3086,110.3333,342.5536,120.4167,341.3697,130.5,341.8022,140.5833,342.4319,150.6667,341.9142,160.75,342.0682,170.8333,341.9681,180.9167,342.1785,191,342.2391,201.0833,342.5857,211.1667,342.6711,221.25,342.6793,231.3333,342.2546,241.4167,342.4636,251.5,342.7022,261.5833,341.2788,271.6667,342.6785,281.75,341.7035,291.8333,342.5338,301.9167,341.505,312,341.9315,322.0833,342.7416,332.1667,341.9513,342.25,342.1053,352.3333,342.3386,362.4167,342.4162,372.5,342,372.4995,341.9988,372.8902,342.2349,373.1341,342.1166,373.5969,342.5269,373.9841,342.7546,374.2678,342.7322,374.4047,342.7889,374.603,343.164,374.4119,343.3777,374.5063,343.7097,374.6622,344.0672,375,344.5,374.9411,344.5,374.8035,355.1004,375.6814,365.7009,374.8253,376.3013,374.6569,386.9018,375.2283,397.5022,374.3332,408.1027,375,418.7031,374.8401,418.6369,375.0534,419.1395,374.8413,419.4658,374.7869,419.8575,374.3151,420.0763,374.2678,420.4709,374.3085,420.5692,373.9895,420.7992,373.5004,420.6183,373.1949,420.8807,372.8696,421.0955,372.5,421.2031,372.5,421.8549,362.4167,421.1989,352.3333,421.6657,342.25,420.6493,332.1667,420.5259,322.0833,421.7067,312,420.4862,301.9167,421.7121,291.8333,421.4098,281.75,420.9352,271.6667,420.8494,261.5833,421.6619,251.5,420.9038,241.4167,421.795,231.3333,420.6504,221.25,421.8206,211.1667,421.6874,201.0833,421.4481,191,421.2503,180.9167,421.9297,170.8333,421.8167,160.75,421.3724,150.6667,421.4713,140.5833,421.0729,130.5,421.9196,120.4167,421.358,110.3333,421.3757,100.25,420.5948,90.1667,420.7979,80.0833,421.7339,70,421.6329,59.9167,421.1602,49.8333,420.881,39.75,420.9842,29.6667,420.5169,19.5833,421.6179,9.5,421.2031,9.5943,421.4309,9.2136,421.2188,8.8815,421.1242,8.4219,420.7217,8.0969,420.6442,7.7322,420.4709,7.6129,420.4214,7.6733,420.1536,7.5153,419.7953,7.463,419.4807,7.0757,419.0274,7,418.7031,6.8656,418.7031,7.4435,408.1027,7.5673,397.5022,6.4875,386.9018,6.8061,376.3013,7.1493,365.7009,6.3892,355.1004,7,344.5,7.1088,344.5451,7.2259,344.1794,7.2619,343.78,7.4831,343.4575,7.8102,343.1787,7.7322,342.7322,7.6923,342.6359,8.126,342.6828,8.4758,342.5273,8.8077,342.3285,9.1644,342.1898,9.5,342" style="stroke:#181818;stroke-width:0.5;"/><polygon fill="#ADD1B2" points="133.3108,366.9667,131.6984,369.1698,129.7912,372.3967,127.0636,374.5714,124.1974,375.7606,121.912,375.8638,118.9747,374.3766,116.2032,373.4049,114.0995,371.4322,112.9961,369.1738,112.3417,367.3756,111.7006,365.0267,110.66,363.0055,111.4596,361.032,112.1602,358.8702,114.7893,357.1605,116.639,354.9421,118.9284,354.2055,121.6501,353.5711,125.1404,353.948,127.0521,354.8495,129.2747,355.2582,131.9772,358.027,132.9193,360.95,133.3286,362.9444,132.865,366.2309" style="stroke:#181818;stroke-width:1.0;"/><path d="M125.0156,360.166 Q125.1719,359.9473 125.3594,359.8379 Q125.5469,359.7285 125.7656,359.7285 Q126.1406,359.7285 126.375,359.9941 Q126.6094,360.2441 126.6094,360.8535 L126.6094,362.3066 Q126.6094,362.916 126.375,363.1816 Q126.1406,363.4473 125.7656,363.4473 Q125.4219,363.4473 125.2188,363.2441 Q125.0156,363.0566 124.9063,362.541 Q124.8594,362.1816 124.6719,361.9941 Q124.3438,361.6191 123.7344,361.4004 Q123.125,361.1816 122.5,361.1816 Q121.7344,361.1816 121.0938,361.5098 Q120.4688,361.8379 119.9688,362.5879 Q119.4844,363.3379 119.4844,364.3691 L119.4844,365.4629 Q119.4844,366.6973 120.375,367.5254 Q121.2656,368.3379 122.8594,368.3379 Q123.7969,368.3379 124.4531,368.0879 Q124.8438,367.9316 125.2656,367.4941 Q125.5313,367.2285 125.6719,367.1504 Q125.8281,367.0723 126.0313,367.0723 Q126.3594,367.0723 126.6094,367.3379 Q126.875,367.5879 126.875,367.9316 Q126.875,368.2754 126.5313,368.6816 Q126.0313,369.2598 125.2344,369.5879 Q124.1563,370.041 122.8594,370.041 Q121.3438,370.041 120.1406,369.416 Q119.1563,368.916 118.4688,367.8535 Q117.7813,366.7754 117.7813,365.4941 L117.7813,364.3379 Q117.7813,363.0098 118.3906,361.8691 Q119.0156,360.7129 120.1094,360.1035 Q121.2031,359.4785 122.4375,359.4785 Q123.1719,359.4785 123.8125,359.6504 Q124.4688,359.8066 125.0156,360.166 Z " fill="#000000"/><text fill="#000000" font-family="FG Virgil" font-size="12" font-style="italic" lengthAdjust="spacing" textLength="53" x="180.75" y="359.9492">&#171;service&#187;</text><text fill="#000000" font-family="FG Virgil" font-size="14" lengthAdjust="spacing" textLength="129" x="142.75" y="378.0684">AuthorizationService</text><path d="M8,386.582 L8,386.8623 L17.8919,386.0296 L27.7838,386.8397 L37.6757,387.1149 L47.5676,385.6308 L57.4595,386.4784 L67.3514,386.0134 L77.2432,386.0707 L87.1351,386.4912 L97.027,385.6602 L106.9189,387.3202 L116.8108,385.7417 L126.7027,386.3183 L136.5946,387.158 L146.4865,386.4677 L156.3784,386.673 L166.2703,386.5394 L176.1622,386.8201 L186.0541,386.9009 L195.9459,387.363 L205.8378,387.4768 L215.7297,387.4877 L225.6216,386.9215 L235.5135,387.2001 L245.4054,387.5183 L255.2973,385.6205 L265.1892,387.4867 L275.0811,386.1867 L284.973,387.2938 L294.8649,385.922 L304.7568,386.4907 L314.6486,387.5708 L324.5405,386.5171 L334.4324,386.7224 L344.3243,387.0335 L354.2162,387.137 L364.1081,386.5768 L374,386.582 " fill="#F1F1F1" style="stroke:#181818;stroke-width:0.5;"/><path d="M8,394.582 L8,394.8623 L17.8919,394.0296 L27.7838,394.8397 L37.6757,395.1149 L47.5676,393.6308 L57.4595,394.4784 L67.3514,394.0134 L77.2432,394.0707 L87.1351,394.4912 L97.027,393.6602 L106.9189,395.3202 L116.8108,393.7417 L126.7027,394.3183 L136.5946,395.158 L146.4865,394.4677 L156.3784,394.673 L166.2703,394.5394 L176.1622,394.8201 L186.0541,394.9009 L195.9459,395.363 L205.8378,395.4768 L215.7297,395.4877 L225.6216,394.9215 L235.5135,395.2001 L245.4054,395.5183 L255.2973,393.6205 L265.1892,395.4867 L275.0811,394.1867 L284.973,395.2938 L294.8649,393.922 L304.7568,394.4907 L314.6486,395.5708 L324.5405,394.5171 L334.4324,394.7224 L344.3243,395.0335 L354.2162,395.137 L364.1081,394.5768 L374,394.582 " fill="#F1F1F1" style="stroke:#181818;stroke-width:0.5;"/><polygon fill="#F24D5C" points="15,406.3926,15,406.4626,16.2,406.2545,17.4,406.457,18.6,406.5258,19.8,406.1548,21,406.3926,20.9741,406.3926,20.8578,407.5926,20.8722,408.7926,20.9773,409.9926,20.7695,411.1926,21,412.3926,21,412.5771,19.8,412.1825,18.6,412.3267,17.4,412.5366,16.2,412.364,15,412.3926,15.0227,412.3926,14.9894,411.1926,15.0595,409.9926,15.0797,408.7926,15.1952,407.5926,15,406.3926" style="stroke:#C82930;stroke-width:1.0;"/><text fill="#000000" font-family="FG Virgil" font-size="14" lengthAdjust="spacing" textLength="342" x="27" y="413.6895">ensureAuthenticatedUserHasAnyOf(roles : Set&lt;Role&gt;)</text></g><!--class CandidateService--><g id="elem_CandidateService"><polygon fill="#F1F1F1" points="412.5,342,412.5,342.2102,422.3696,341.5857,432.2391,342.1933,442.1087,342.3997,451.9783,341.2866,461.8478,341.9223,471.7174,341.5735,481.587,341.6165,491.4565,341.9318,501.3261,341.3086,511.1957,342.5536,521.0652,341.3697,530.9348,341.8022,540.8043,342.4319,550.6739,341.9142,560.5435,342.0682,570.413,341.9681,580.2826,342.1785,590.1522,342.2391,600.0217,342.5857,609.8913,342.6711,619.7609,342.6793,629.6304,342.2546,639.5,342,639.5591,342.1428,639.9431,342.3627,640.1151,342.0708,640.6472,342.6483,640.8764,342.4945,641.2678,342.7322,641.4322,342.8003,641.2618,343.0226,641.5396,343.4306,641.9355,343.8875,641.8385,344.1402,642,344.5,642.1053,344.5,642.3386,355.1004,642.4162,365.7009,641.9961,376.3013,642.2872,386.9018,641.4276,397.5022,642.2844,408.1027,642,418.7031,642.1688,418.7731,641.9905,419.1134,641.8959,419.4884,641.4119,419.7022,641.2134,420.0341,641.2678,420.4709,641.1885,420.2795,640.9067,420.5992,640.5356,420.7033,640.294,421.1201,639.8313,421.0029,639.5,421.2031,639.5,420.8601,629.6304,421.4314,619.7609,420.5363,609.8913,420.684,600.0217,421.8521,590.1522,421.6388,580.2826,421.9376,570.413,420.8813,560.5435,421.5223,550.6739,421.7935,540.8043,420.7307,530.9348,421.1073,521.0652,421.3291,511.1957,421.8549,501.3261,421.1989,491.4565,421.6657,481.587,420.6493,471.7174,420.5259,461.8478,421.7067,451.9783,420.4862,442.1087,421.7121,432.2391,421.4098,422.3696,420.9352,412.5,421.2031,412.4549,421.0942,412.205,421.198,411.7547,420.818,411.5148,420.9461,411.0153,420.4471,410.7322,420.4709,410.9224,420.5497,410.7349,420.1791,410.5148,419.795,410.3074,419.4163,410.3702,419.1494,410,418.7031,410.6136,418.7031,410.1693,408.1027,410.2682,397.5022,409.8697,386.9018,410.7165,376.3013,410.1549,365.7009,410.1726,355.1004,410,344.5,409.8127,344.4224,410.0217,344.0948,410.4563,343.8606,410.5717,343.4942,410.5726,343.0803,410.7322,342.7322,410.6911,342.633,411.0579,342.5184,411.3518,342.228,411.8458,342.4206,412.2408,342.3742,412.5,342" style="stroke:#181818;stroke-width:0.5;"/><polygon fill="#ADD1B2" points="476.8108,366.9667,475.1984,369.1698,473.2912,372.3967,470.5636,374.5714,467.6974,375.7606,465.412,375.8638,462.4747,374.3766,459.7032,373.4049,457.5995,371.4322,456.4961,369.1738,455.8417,367.3756,455.2006,365.0267,454.16,363.0055,454.9596,361.032,455.6602,358.8702,458.2893,357.1605,460.139,354.9421,462.4284,354.2055,465.1501,353.5711,468.6404,353.948,470.5521,354.8495,472.7747,355.2582,475.4772,358.027,476.4193,360.95,476.8286,362.9444,476.365,366.2309" style="stroke:#181818;stroke-width:1.0;"/><path d="M468.5156,360.166 Q468.6719,359.9473 468.8594,359.8379 Q469.0469,359.7285 469.2656,359.7285 Q469.6406,359.7285 469.875,359.9941 Q470.1094,360.2441 470.1094,360.8535 L470.1094,362.3066 Q470.1094,362.916 469.875,363.1816 Q469.6406,363.4473 469.2656,363.4473 Q468.9219,363.4473 468.7188,363.2441 Q468.5156,363.0566 468.4063,362.541 Q468.3594,362.1816 468.1719,361.9941 Q467.8438,361.6191 467.2344,361.4004 Q466.625,361.1816 466,361.1816 Q465.2344,361.1816 464.5938,361.5098 Q463.9688,361.8379 463.4688,362.5879 Q462.9844,363.3379 462.9844,364.3691 L462.9844,365.4629 Q462.9844,366.6973 463.875,367.5254 Q464.7656,368.3379 466.3594,368.3379 Q467.2969,368.3379 467.9531,368.0879 Q468.3438,367.9316 468.7656,367.4941 Q469.0313,367.2285 469.1719,367.1504 Q469.3281,367.0723 469.5313,367.0723 Q469.8594,367.0723 470.1094,367.3379 Q470.375,367.5879 470.375,367.9316 Q470.375,368.2754 470.0313,368.6816 Q469.5313,369.2598 468.7344,369.5879 Q467.6563,370.041 466.3594,370.041 Q464.8438,370.041 463.6406,369.416 Q462.6563,368.916 461.9688,367.8535 Q461.2813,366.7754 461.2813,365.4941 L461.2813,364.3379 Q461.2813,363.0098 461.8906,361.8691 Q462.5156,360.7129 463.6094,360.1035 Q464.7031,359.4785 465.9375,359.4785 Q466.6719,359.4785 467.3125,359.6504 Q467.9688,359.8066 468.5156,360.166 Z " fill="#000000"/><text fill="#000000" font-family="FG Virgil" font-size="12" font-style="italic" lengthAdjust="spacing" textLength="53" x="515.75" y="359.9492">&#171;service&#187;</text><text fill="#000000" font-family="FG Virgil" font-size="14" lengthAdjust="spacing" textLength="112" x="486.25" y="378.0684">CandidateService</text><path d="M411,386.582 L411,386.8623 L421,386.0296 L431,386.8397 L441,387.1149 L451,385.6308 L461,386.4784 L471,386.0134 L481,386.0707 L491,386.4912 L501,385.6602 L511,387.3202 L521,385.7417 L531,386.3183 L541,387.158 L551,386.4677 L561,386.673 L571,386.5394 L581,386.8201 L591,386.9009 L601,387.363 L611,387.4768 L621,387.4877 L631,386.9215 L641,386.582 " fill="#F1F1F1" style="stroke:#181818;stroke-width:0.5;"/><path d="M411,394.582 L411,394.8623 L421,394.0296 L431,394.8397 L441,395.1149 L451,393.6308 L461,394.4784 L471,394.0134 L481,394.0707 L491,394.4912 L501,393.6602 L511,395.3202 L521,393.7417 L531,394.3183 L541,395.158 L551,394.4677 L561,394.673 L571,394.5394 L581,394.8201 L591,394.9009 L601,395.363 L611,395.4768 L621,395.4877 L631,394.9215 L641,394.582 " fill="#F1F1F1" style="stroke:#181818;stroke-width:0.5;"/><polygon fill="#84BE84" points="424.0166,410.1223,423.5768,410.7232,423.0567,411.6032,422.3128,412.1963,421.5311,412.5207,420.9078,412.5488,420.1067,412.1432,419.3509,411.8782,418.7771,411.3402,418.4762,410.7242,418.2977,410.2338,418.1229,409.5932,417.8391,409.042,418.0572,408.5038,418.2482,407.9142,418.9653,407.4479,419.4697,406.8429,420.0941,406.642,420.8364,406.469,421.7883,406.5718,422.3097,406.8176,422.9158,406.9291,423.6529,407.6842,423.9098,408.4814,424.0214,409.0253,423.895,409.9216" style="stroke:#038048;stroke-width:1.0;"/><text fill="#000000" font-family="FG Virgil" font-size="14" lengthAdjust="spacing" textLength="206" x="430" y="413.6895">findByEmail(EmailAddress email)</text></g><!--class PersistenceContext--><g id="elem_PersistenceContext"><polygon fill="#F1F1F1" points="451.5,500,451.5,500.2102,461.4333,499.5857,471.3667,500.1933,481.3,500.3997,491.2333,499.2866,501.1667,499.9223,511.1,499.5735,521.0333,499.6165,530.9667,499.9318,540.9,499.3086,550.8333,500.5536,560.7667,499.3697,570.7,499.8022,580.6333,500.4319,590.5667,499.9142,600.5,500,600.5087,500.021,600.8495,500.1366,601.2299,500.3479,601.5912,500.513,601.9889,500.7662,602.2678,500.7322,602.4744,500.8178,602.6234,501.1724,602.6391,501.4718,602.8499,501.852,603.0698,502.236,603,502.5,602.2788,502.5,603.6785,513.1004,602.7035,523.7009,603.5338,534.3013,602.505,544.9018,602.9315,555.5022,603.7416,566.1027,603,576.7031,602.985,576.6969,602.886,577.0701,602.8114,577.4534,602.6888,577.8169,602.413,578.1168,602.2678,578.4709,602.3044,578.5593,601.8412,578.4411,601.5969,578.8514,601.277,579.0791,600.9103,579.1936,600.5,579.2031,600.5,579.8161,590.5667,578.72,580.6333,578.5509,570.7,578.5817,560.7667,579.1442,550.8333,579.0066,540.9,579.8845,530.9667,579.0284,521.0333,578.8601,511.1,579.4314,501.1667,578.5363,491.2333,578.684,481.3,579.8521,471.3667,579.6388,461.4333,579.9376,451.5,579.2031,451.459,579.104,451.1872,579.155,450.8682,579.0921,450.3791,578.6183,450.0736,578.5878,449.7322,578.4709,449.771,578.487,449.7865,578.2005,449.438,577.7633,449.4353,577.4692,448.9759,576.986,449,576.7031,448.3227,576.7031,449.5036,566.1027,448.2831,555.5022,449.509,544.9018,449.2066,534.3013,448.7321,523.7009,448.6462,513.1004,449,502.5,449.1413,502.5585,449.0543,502.1083,449.4752,501.8684,449.2691,501.3688,449.7759,501.1645,449.7322,500.7322,449.794,500.8814,450.117,500.6612,450.4454,500.4539,450.8856,500.5167,451.2247,500.3354,451.5,500" style="stroke:#181818;stroke-width:0.5;"/><polygon fill="#ADD1B2" points="475.0608,524.9667,473.4484,527.1698,471.5412,530.3967,468.8136,532.5714,465.9474,533.7606,463.662,533.8638,460.7247,532.3766,457.9532,531.4049,455.8495,529.4322,454.7461,527.1738,454.0917,525.3756,453.4506,523.0267,452.41,521.0055,453.2096,519.032,453.9102,516.8702,456.5393,515.1605,458.389,512.9421,460.6784,512.2055,463.4001,511.5711,466.8904,511.948,468.8021,512.8495,471.0247,513.2582,473.7272,516.027,474.6693,518.95,475.0786,520.9444,474.615,524.2309" style="stroke:#181818;stroke-width:1.0;"/><path d="M466.7656,518.166 Q466.9219,517.9473 467.1094,517.8379 Q467.2969,517.7285 467.5156,517.7285 Q467.8906,517.7285 468.125,517.9941 Q468.3594,518.2441 468.3594,518.8535 L468.3594,520.3066 Q468.3594,520.916 468.125,521.1816 Q467.8906,521.4473 467.5156,521.4473 Q467.1719,521.4473 466.9688,521.2441 Q466.7656,521.0566 466.6563,520.541 Q466.6094,520.1816 466.4219,519.9941 Q466.0938,519.6191 465.4844,519.4004 Q464.875,519.1816 464.25,519.1816 Q463.4844,519.1816 462.8438,519.5098 Q462.2188,519.8379 461.7188,520.5879 Q461.2344,521.3379 461.2344,522.3691 L461.2344,523.4629 Q461.2344,524.6973 462.125,525.5254 Q463.0156,526.3379 464.6094,526.3379 Q465.5469,526.3379 466.2031,526.0879 Q466.5938,525.9316 467.0156,525.4941 Q467.2813,525.2285 467.4219,525.1504 Q467.5781,525.0723 467.7813,525.0723 Q468.1094,525.0723 468.3594,525.3379 Q468.625,525.5879 468.625,525.9316 Q468.625,526.2754 468.2813,526.6816 Q467.7813,527.2598 466.9844,527.5879 Q465.9063,528.041 464.6094,528.041 Q463.0938,528.041 461.8906,527.416 Q460.9063,526.916 460.2188,525.8535 Q459.5313,524.7754 459.5313,523.4941 L459.5313,522.3379 Q459.5313,521.0098 460.1406,519.8691 Q460.7656,518.7129 461.8594,518.1035 Q462.9531,517.4785 464.1875,517.4785 Q464.9219,517.4785 465.5625,517.6504 Q466.2188,517.8066 466.7656,518.166 Z " fill="#000000"/><text fill="#000000" font-family="FG Virgil" font-size="12" font-style="italic" lengthAdjust="spacing" textLength="77" x="500.5" y="517.9492">&#171;persistence&#187;</text><text fill="#000000" font-family="FG Virgil" font-size="14" lengthAdjust="spacing" textLength="122" x="478" y="536.0684">PersistenceContext</text><path d="M450,544.582 L450,544.8623 L460.1333,544.0296 L470.2667,544.8397 L480.4,545.1149 L490.5333,543.6308 L500.6667,544.4784 L510.8,544.0134 L520.9333,544.0707 L531.0667,544.4912 L541.2,543.6602 L551.3333,545.3202 L561.4667,543.7417 L571.6,544.3183 L581.7333,545.158 L591.8667,544.4677 L602,544.582 " fill="#F1F1F1" style="stroke:#181818;stroke-width:0.5;"/><path d="M450,552.582 L450,552.8623 L460.1333,552.0296 L470.2667,552.8397 L480.4,553.1149 L490.5333,551.6308 L500.6667,552.4784 L510.8,552.0134 L520.9333,552.0707 L531.0667,552.4912 L541.2,551.6602 L551.3333,553.3202 L561.4667,551.7417 L571.6,552.3183 L581.7333,553.158 L591.8667,552.4677 L602,552.582 " fill="#F1F1F1" style="stroke:#181818;stroke-width:0.5;"/><polygon fill="#F24D5C" points="457,564.3926,457,564.4626,458.2,564.2545,459.4,564.457,460.6,564.5258,461.8,564.1548,463,564.3926,462.9741,564.3926,462.8578,565.5926,462.8722,566.7926,462.9773,567.9926,462.7695,569.1926,463,570.3926,463,570.5771,461.8,570.1825,460.6,570.3267,459.4,570.5366,458.2,570.364,457,570.3926,457.0227,570.3926,456.9894,569.1926,457.0595,567.9926,457.0797,566.7926,457.1952,565.5926,457,564.3926" style="stroke:#C82930;stroke-width:1.0;"/><text fill="#000000" font-family="FG Virgil" font-size="14" lengthAdjust="spacing" textLength="84" x="469" y="571.6895">repositories()</text></g><!--class RepositoryFactory--><g id="elem_RepositoryFactory"><polygon fill="#F1F1F1" points="454.5,658,454.5,658.2102,464.7143,657.5857,474.9286,658.1933,485.1429,658.3997,495.3571,657.2866,505.5714,657.9223,515.7857,657.5735,526,657.6165,536.2143,657.9318,546.4286,657.3086,556.6429,658.5536,566.8571,657.3697,577.0714,657.8022,587.2857,658.4319,597.5,658,597.4891,657.9736,597.8623,658.1675,598.203,658.2831,598.5834,658.4943,598.9447,658.6594,599.2678,658.7322,599.4481,658.8069,599.6209,659.1714,599.7698,659.526,599.7855,659.8254,599.9963,660.2056,600,660.5,600.7022,660.5,599.2788,671.1004,600.6785,681.7009,599.7035,692.3013,600.5338,702.9018,599.505,713.5022,599.9315,724.1027,600,734.7031,600.2284,734.7977,599.8385,735.0505,599.7395,735.4237,599.6649,735.807,599.5424,736.1704,599.2678,736.4709,599.2673,736.4697,598.9509,736.7058,598.4876,736.5875,598.2434,736.9978,597.9235,737.2255,597.5,737.2031,597.5,737.6477,587.2857,737.8161,577.0714,736.72,566.8571,736.5509,556.6429,736.5817,546.4286,737.1442,536.2143,737.0066,526,737.8845,515.7857,737.0284,505.5714,736.8601,495.3571,737.4314,485.1429,736.5363,474.9286,736.684,464.7143,737.8521,454.5,737.2031,454.5556,737.3373,454.2401,737.2829,453.7518,736.8111,453.4801,736.8621,453.1611,736.7992,452.7322,736.4709,452.5868,736.4106,452.5563,736.1051,452.4781,735.7799,452.4936,735.4934,452.1452,735.0561,452,734.7031,452.4626,734.7031,451.4462,724.1027,451.3227,713.5022,452.5036,702.9018,451.2831,692.3013,452.509,681.7009,452.2066,671.1004,452,660.5,451.9175,660.4658,452.0375,660.1013,452.4342,659.8514,452.3472,659.4012,452.7681,659.1613,452.7322,658.7322,452.6617,658.562,453.1645,658.7759,453.5011,658.5885,453.8241,658.3683,454.1525,658.161,454.5,658" style="stroke:#181818;stroke-width:0.5;"/><polygon fill="#ADD1B2" points="478.0608,682.9667,476.4484,685.1698,474.5412,688.3967,471.8136,690.5714,468.9474,691.7606,466.662,691.8638,463.7247,690.3766,460.9532,689.4049,458.8495,687.4322,457.7461,685.1738,457.0917,683.3756,456.4506,681.0267,455.41,679.0055,456.2096,677.032,456.9102,674.8702,459.5393,673.1605,461.389,670.9421,463.6784,670.2055,466.4001,669.5711,469.8904,669.948,471.8021,670.8495,474.0247,671.2582,476.7272,674.027,477.6693,676.95,478.0786,678.9444,477.615,682.2309" style="stroke:#181818;stroke-width:1.0;"/><path d="M469.7656,676.166 Q469.9219,675.9473 470.1094,675.8379 Q470.2969,675.7285 470.5156,675.7285 Q470.8906,675.7285 471.125,675.9941 Q471.3594,676.2441 471.3594,676.8535 L471.3594,678.3066 Q471.3594,678.916 471.125,679.1816 Q470.8906,679.4473 470.5156,679.4473 Q470.1719,679.4473 469.9688,679.2441 Q469.7656,679.0566 469.6563,678.541 Q469.6094,678.1816 469.4219,677.9941 Q469.0938,677.6191 468.4844,677.4004 Q467.875,677.1816 467.25,677.1816 Q466.4844,677.1816 465.8438,677.5098 Q465.2188,677.8379 464.7188,678.5879 Q464.2344,679.3379 464.2344,680.3691 L464.2344,681.4629 Q464.2344,682.6973 465.125,683.5254 Q466.0156,684.3379 467.6094,684.3379 Q468.5469,684.3379 469.2031,684.0879 Q469.5938,683.9316 470.0156,683.4941 Q470.2813,683.2285 470.4219,683.1504 Q470.5781,683.0723 470.7813,683.0723 Q471.1094,683.0723 471.3594,683.3379 Q471.625,683.5879 471.625,683.9316 Q471.625,684.2754 471.2813,684.6816 Q470.7813,685.2598 469.9844,685.5879 Q468.9063,686.041 467.6094,686.041 Q466.0938,686.041 464.8906,685.416 Q463.9063,684.916 463.2188,683.8535 Q462.5313,682.7754 462.5313,681.4941 L462.5313,680.3379 Q462.5313,679.0098 463.1406,677.8691 Q463.7656,676.7129 464.8594,676.1035 Q465.9531,675.4785 467.1875,675.4785 Q467.9219,675.4785 468.5625,675.6504 Q469.2188,675.8066 469.7656,676.166 Z " fill="#000000"/><text fill="#000000" font-family="FG Virgil" font-size="12" font-style="italic" lengthAdjust="spacing" textLength="50" x="514" y="675.9492">&#171;factory&#187;</text><text fill="#000000" font-family="FG Virgil" font-size="14" lengthAdjust="spacing" textLength="116" x="481" y="694.0684">RepositoryFactory</text><path d="M453,702.582 L453,702.8623 L462.7333,702.0296 L472.4667,702.8397 L482.2,703.1149 L491.9333,701.6308 L501.6667,702.4784 L511.4,702.0134 L521.1333,702.0707 L530.8667,702.4912 L540.6,701.6602 L550.3333,703.3202 L560.0667,701.7417 L569.8,702.3183 L579.5333,703.158 L589.2667,702.4677 L599,702.582 " fill="#F1F1F1" style="stroke:#181818;stroke-width:0.5;"/><path d="M453,710.582 L453,710.8623 L462.7333,710.0296 L472.4667,710.8397 L482.2,711.1149 L491.9333,709.6308 L501.6667,710.4784 L511.4,710.0134 L521.1333,710.0707 L530.8667,710.4912 L540.6,709.6602 L550.3333,711.3202 L560.0667,709.7417 L569.8,710.3183 L579.5333,711.158 L589.2667,710.4677 L599,710.582 " fill="#F1F1F1" style="stroke:#181818;stroke-width:0.5;"/><polygon fill="#F24D5C" points="460,722.3926,460,722.4626,461.2,722.2545,462.4,722.457,463.6,722.5258,464.8,722.1548,466,722.3926,465.9741,722.3926,465.8578,723.5926,465.8722,724.7926,465.9773,725.9926,465.7695,727.1926,466,728.3926,466,728.5771,464.8,728.1825,463.6,728.3267,462.4,728.5366,461.2,728.364,460,728.3926,460.0227,728.3926,459.9894,727.1926,460.0595,725.9926,460.0797,724.7926,460.1952,723.5926,460,722.3926" style="stroke:#C82930;stroke-width:1.0;"/><text fill="#000000" font-family="FG Virgil" font-size="14" lengthAdjust="spacing" textLength="79" x="472" y="729.6895">candidates()</text></g><!--class CandidateRepository--><g id="elem_CandidateRepository"><polygon fill="#F1F1F1" points="397.5,816,397.5,816.2102,407.3846,815.5857,417.2692,816.1933,427.1538,816.3997,437.0385,815.2866,446.9231,815.9223,456.8077,815.5735,466.6923,815.6165,476.5769,815.9318,486.4615,815.3086,496.3462,816.5536,506.2308,815.3697,516.1154,815.8022,526,816.4319,535.8846,815.9142,545.7692,816.0682,555.6538,815.9681,565.5385,816.1785,575.4231,816.2391,585.3077,816.5857,595.1923,816.6711,605.0769,816.6793,614.9615,816.2546,624.8462,816.4636,634.7308,816.7022,644.6154,815.2788,654.5,816,654.5866,816.209,654.8157,816.0551,655.2752,816.4573,655.4975,816.2869,655.9055,816.5647,656.2678,816.7322,656.4962,816.8268,656.3992,817.0796,656.5931,817.4528,656.8114,817.8361,656.9817,818.1995,657,818.5,656.9961,818.5,657.2872,829.1004,656.4276,839.7009,657.2844,850.3013,657.5482,860.9018,657.4445,871.5022,657.613,882.1027,657,892.7031,656.8512,892.6415,656.6527,892.9735,656.5157,893.331,656.5425,893.7563,656.3537,894.0923,656.2678,894.4709,656.3547,894.6807,655.8919,894.5635,655.5169,894.6581,655.2362,894.9805,654.7685,894.8513,654.5,895.2031,654.5,894.684,644.6154,895.8521,634.7308,895.6388,624.8462,895.9376,614.9615,894.8813,605.0769,895.5223,595.1923,895.7935,585.3077,894.7307,575.4231,895.1073,565.5385,895.3291,555.6538,895.8549,545.7692,895.1989,535.8846,895.6657,526,894.6493,516.1154,894.5259,506.2308,895.7067,496.3462,894.4862,486.4615,895.7121,476.5769,895.4098,466.6923,894.9352,456.8077,894.8494,446.9231,895.6619,437.0385,894.9038,427.1538,895.795,417.2692,894.6504,407.3846,895.8206,397.5,895.2031,397.5618,895.3523,397.1777,895.1321,396.7989,894.9248,396.532,894.9876,396.1641,894.8063,395.7322,894.4709,395.7844,894.4925,395.6684,894.1515,395.3992,893.7472,395.5135,893.5016,395.1941,893.0764,395,892.7031,395.1726,892.7031,394.3916,882.1027,394.5948,871.5022,395.5307,860.9018,395.4298,850.3013,394.9571,839.7009,394.6778,829.1004,395,818.5,394.9326,818.4721,394.9351,818.0589,395.4206,817.8458,395.6671,817.5337,395.7479,817.1529,395.7322,816.7322,395.8209,816.9462,396.0683,816.5437,396.4505,816.4662,396.7435,816.1735,397.1827,816.2339,397.5,816" style="stroke:#181818;stroke-width:0.5;"/><polygon fill="#ADD1B2" points="466.3108,840.9667,464.6984,843.1698,462.7912,846.3967,460.0636,848.5714,457.1974,849.7606,454.912,849.8638,451.9747,848.3766,449.2032,847.4049,447.0995,845.4322,445.9961,843.1738,445.3417,841.3756,444.7006,839.0267,443.66,837.0055,444.4596,835.032,445.1602,832.8702,447.7893,831.1605,449.639,828.9421,451.9284,828.2055,454.6501,827.5711,458.1404,827.948,460.0521,828.8495,462.2747,829.2582,464.9772,832.027,465.9193,834.95,466.3286,836.9444,465.865,840.2309" style="stroke:#181818;stroke-width:1.0;"/><path d="M458.0156,834.166 Q458.1719,833.9473 458.3594,833.8379 Q458.5469,833.7285 458.7656,833.7285 Q459.1406,833.7285 459.375,833.9941 Q459.6094,834.2441 459.6094,834.8535 L459.6094,836.3066 Q459.6094,836.916 459.375,837.1816 Q459.1406,837.4473 458.7656,837.4473 Q458.4219,837.4473 458.2188,837.2441 Q458.0156,837.0566 457.9063,836.541 Q457.8594,836.1816 457.6719,835.9941 Q457.3438,835.6191 456.7344,835.4004 Q456.125,835.1816 455.5,835.1816 Q454.7344,835.1816 454.0938,835.5098 Q453.4688,835.8379 452.9688,836.5879 Q452.4844,837.3379 452.4844,838.3691 L452.4844,839.4629 Q452.4844,840.6973 453.375,841.5254 Q454.2656,842.3379 455.8594,842.3379 Q456.7969,842.3379 457.4531,842.0879 Q457.8438,841.9316 458.2656,841.4941 Q458.5313,841.2285 458.6719,841.1504 Q458.8281,841.0723 459.0313,841.0723 Q459.3594,841.0723 459.6094,841.3379 Q459.875,841.5879 459.875,841.9316 Q459.875,842.2754 459.5313,842.6816 Q459.0313,843.2598 458.2344,843.5879 Q457.1563,844.041 455.8594,844.041 Q454.3438,844.041 453.1406,843.416 Q452.1563,842.916 451.4688,841.8535 Q450.7813,840.7754 450.7813,839.4941 L450.7813,838.3379 Q450.7813,837.0098 451.3906,835.8691 Q452.0156,834.7129 453.1094,834.1035 Q454.2031,833.4785 455.4375,833.4785 Q456.1719,833.4785 456.8125,833.6504 Q457.4688,833.8066 458.0156,834.166 Z " fill="#000000"/><text fill="#000000" font-family="FG Virgil" font-size="12" font-style="italic" lengthAdjust="spacing" textLength="68" x="508.25" y="833.9492">&#171;repository&#187;</text><text fill="#000000" font-family="FG Virgil" font-size="14" lengthAdjust="spacing" textLength="133" x="475.75" y="852.0684">CandidateRepository</text><path d="M396,860.582 L396,860.8623 L406,860.0296 L416,860.8397 L426,861.1149 L436,859.6308 L446,860.4784 L456,860.0134 L466,860.0707 L476,860.4912 L486,859.6602 L496,861.3202 L506,859.7417 L516,860.3183 L526,861.158 L536,860.4677 L546,860.673 L556,860.5394 L566,860.8201 L576,860.9009 L586,861.363 L596,861.4768 L606,861.4877 L616,860.9215 L626,861.2001 L636,861.5183 L646,859.6205 L656,860.582 " fill="#F1F1F1" style="stroke:#181818;stroke-width:0.5;"/><path d="M396,868.582 L396,868.8623 L406,868.0296 L416,868.8397 L426,869.1149 L436,867.6308 L446,868.4784 L456,868.0134 L466,868.0707 L476,868.4912 L486,867.6602 L496,869.3202 L506,867.7417 L516,868.3183 L526,869.158 L536,868.4677 L546,868.673 L556,868.5394 L566,868.8201 L576,868.9009 L586,869.363 L596,869.4768 L606,869.4877 L616,868.9215 L626,869.2001 L636,869.5183 L646,867.6205 L656,868.582 " fill="#F1F1F1" style="stroke:#181818;stroke-width:0.5;"/><polygon fill="#84BE84" points="409.0166,884.1223,408.5768,884.7232,408.0567,885.6032,407.3128,886.1963,406.5311,886.5207,405.9078,886.5488,405.1067,886.1432,404.3509,885.8782,403.7771,885.3402,403.4762,884.7242,403.2977,884.2338,403.1229,883.5932,402.8391,883.042,403.0572,882.5038,403.2482,881.9142,403.9653,881.4479,404.4697,880.8429,405.0941,880.642,405.8364,880.469,406.7883,880.5718,407.3097,880.8176,407.9158,880.9291,408.6529,881.6842,408.9098,882.4814,409.0214,883.0253,408.895,883.9216" style="stroke:#038048;stroke-width:1.0;"/><text fill="#000000" font-family="FG Virgil" font-size="14" lengthAdjust="spacing" textLength="236" x="415" y="887.6895">findByEmail(final EmailAddress email)</text></g><!--link DisplayCandidateInfoUI to DisplayCandidateInfoController--><g id="link_DisplayCandidateInfoUI_DisplayCandidateInfoController"><path d="M293,105.31 L293.2802,105.31 L292.4476,115.81 L293.2577,126.31 L293.5329,136.81 L292.0488,147.31 L292.8964,157.81 L292.4313,168.31 L293,178.81 " fill="none" style="stroke:#181818;stroke-width:1.0;"/><polygon fill="#181818" points="293,183.85,293.064,183.8785,293.6738,181.9939,294.6589,180.2762,295.5217,178.5041,295.9827,176.5534,297,174.85,296.9817,174.8317,296.0995,175.5495,295.3096,176.3596,294.5839,177.2339,293.637,177.887,293,178.85,293.1305,178.9805,292.0514,177.9014,291.3534,177.2034,290.7018,176.5518,289.7798,175.6298,289,174.85,289.0208,174.8592,289.7903,176.6457,290.6544,178.4742,291.4728,180.2824,292.3784,182.1293,293,183.85" style="stroke:#181818;stroke-width:1.0;"/><text fill="#000000" font-family="FG Virgil" font-size="13" lengthAdjust="spacing" textLength="75" x="294" y="150.0283">the controller</text></g><!--link DisplayCandidateInfoController to AuthorizationService--><g id="link_DisplayCandidateInfoController_AuthorizationService"><path d="M267.79,263.06 L268.0245,263.2134 L261.9154,271.0343 L257.1812,279.7544 L251.9993,288.1817 L245.345,295.6461 L240.6422,304.3866 L234.8407,312.4088 L229.4765,320.7168 L224.4162,329.2236 L219.08,337.55 " fill="none" style="stroke:#181818;stroke-width:1.0;"/><polygon fill="#181818" points="216.28,341.84,216.3181,341.8988,217.8581,340.6531,219.6213,339.752,221.3119,338.7387,222.7633,337.3563,224.5457,336.4849,224.5404,336.4595,223.4094,336.5791,222.3053,336.8264,221.2199,337.1625,220.07,337.1926,219.0105,337.6514,219.191,337.6894,218.5716,336.501,218.4794,335.4237,218.4514,334.3599,218.0493,333.2173,217.8439,332.1161,217.8664,332.1197,217.5206,334.0592,217.2771,336.0151,216.9843,337.9631,216.7855,339.9262,216.28,341.84" style="stroke:#181818;stroke-width:1.0;"/><text fill="#000000" font-family="FG Virgil" font-size="13" lengthAdjust="spacing" textLength="32" x="249" y="308.0283">authz</text></g><!--link DisplayCandidateInfoController to CandidateService--><g id="link_DisplayCandidateInfoController_CandidateService"><path d="M350.6,263.06 L350.7559,263.2929 L358.3933,268.0253 L366.9448,274.1227 L375.1986,279.7757 L382.4736,283.9668 L391.0459,290.0953 L398.8879,295.1332 L407.0205,300.6051 L415.3552,306.3788 L422.9935,311.1126 L432.0179,317.9162 L439.2403,322.0289 L447.6619,327.9323 L456.2297,334.0543 L464.01,339 " fill="none" style="stroke:#181818;stroke-width:1.0;"/><polygon fill="#181818" points="468.26,341.84,468.3193,341.8773,467.0957,340.0983,466.2199,338.5377,465.2309,336.906,463.8693,335.0405,463.0234,333.4987,462.998,333.4937,463.1014,334.5816,463.3329,335.6946,463.6535,336.8251,463.6672,337.8954,464.1108,339.05,464.1463,339.2311,462.9601,339.0613,461.8776,339.4203,460.8076,339.8437,459.6642,339.8919,458.5594,340.1374,458.5634,340.1598,460.4977,340.4674,462.4499,340.877,464.3936,341.2375,466.3536,341.6918,468.26,341.84" style="stroke:#181818;stroke-width:1.0;"/><text fill="#000000" font-family="FG Virgil" font-size="13" lengthAdjust="spacing" textLength="100" x="424" y="308.0283">candidate service</text></g><!--link CandidateService to PersistenceContext--><g id="link_CandidateService_PersistenceContext"><path d="M526,421.06 L526.2802,421.06 L525.4476,431.5771 L526.2577,442.0943 L526.5329,452.6114 L525.0488,463.1286 L525.8964,473.6457 L525.4313,484.1629 L526,494.68 " fill="none" style="stroke:#181818;stroke-width:1.0;"/><polygon fill="#181818" points="526,499.84,526.064,499.8685,526.6738,497.9839,527.6589,496.2662,528.5217,494.4941,528.9827,492.5434,530,490.84,529.9817,490.8217,529.0995,491.5395,528.3096,492.3496,527.5839,493.2239,526.637,493.877,526,494.84,526.1305,494.9705,525.0514,493.8914,524.3534,493.1934,523.7018,492.5418,522.7798,491.6198,522,490.84,522.0208,490.8492,522.7903,492.6357,523.6544,494.4642,524.4728,496.2724,525.3784,498.1193,526,499.84" style="stroke:#181818;stroke-width:1.0;"/><text fill="#000000" font-family="FG Virgil" font-size="13" lengthAdjust="spacing" textLength="67" x="527" y="466.0283">persistence</text></g><!--link PersistenceContext to RepositoryFactory--><g id="link_PersistenceContext_RepositoryFactory"><path d="M526,579.06 L526.2802,579.06 L525.4476,589.5771 L526.2577,600.0943 L526.5329,610.6114 L525.0488,621.1286 L525.8964,631.6457 L525.4313,642.1629 L526,652.68 " fill="none" style="stroke:#181818;stroke-width:1.0;"/><polygon fill="#181818" points="526,657.84,526.064,657.8685,526.6738,655.9839,527.6589,654.2662,528.5217,652.4941,528.9827,650.5434,530,648.84,529.9817,648.8217,529.0995,649.5395,528.3096,650.3496,527.5839,651.2239,526.637,651.877,526,652.84,526.1305,652.9705,525.0514,651.8914,524.3534,651.1934,523.7018,650.5418,522.7798,649.6198,522,648.84,522.0208,648.8492,522.7903,650.6357,523.6544,652.4642,524.4728,654.2724,525.3784,656.1193,526,657.84" style="stroke:#181818;stroke-width:1.0;"/><text fill="#000000" font-family="FG Virgil" font-size="13" lengthAdjust="spacing" textLength="39" x="527" y="624.0283">factory</text></g><!--link RepositoryFactory to CandidateRepository--><g id="link_RepositoryFactory_CandidateRepository"><path d="M526,737.06 L526.2802,737.06 L525.4476,747.5771 L526.2577,758.0943 L526.5329,768.6114 L525.0488,779.1286 L525.8964,789.6457 L525.4313,800.1629 L526,810.68 " fill="none" style="stroke:#181818;stroke-width:1.0;"/><polygon fill="#181818" points="526,815.84,526.064,815.8685,526.6738,813.9839,527.6589,812.2662,528.5217,810.4941,528.9827,808.5434,530,806.84,529.9817,806.8217,529.0995,807.5395,528.3096,808.3496,527.5839,809.2239,526.637,809.877,526,810.84,526.1305,810.9705,525.0514,809.8914,524.3534,809.1934,523.7018,808.5418,522.7798,807.6198,522,806.84,522.0208,806.8492,522.7903,808.6357,523.6544,810.4642,524.4728,812.2724,525.3784,814.1193,526,815.84" style="stroke:#181818;stroke-width:1.0;"/><text fill="#000000" font-family="FG Virgil" font-size="13" lengthAdjust="spacing" textLength="117" x="527" y="782.0283">candidate repository</text></g><!--SRC=[ZP9HRjim38RVTGg-nSMG2nX1WAnhrhvqGutkdP3eMAWY6QAop2rsdfrW9-Z5HZMkxI7kkXURfiXV7_bxmG_MjnXnhuO86lJc66rAv2750qsEMjGFkACgTOuWaawJCqCr7bpQ1fzkSK-m_GpVRDnPDwdX1aquMh-36XsJKeihdwn1GwoqGsRuPBbrs5qAW-GJtVWwtD_0QjL6Ol89amr-lOOdjGGJgYOSYmlr0Hf2uwmd-VZv3wLBWOl1EOgYY6thhEu5dqIajjuCvKMLOWQbFLetgcuEgGdHFhwqLHI_MqsYnQUe1oFFXqYvL8Zp5MJkfU8QUUExBtKX2CHGGaLfTIVn-a8D5mm0y-8doe_TLSOgNfuROsGtF9BsIbyficLnKLEUctwalCOnsSD6QWFR94CH5nEGkzTyjqMTNz9TdwA-Kx-YycJj0__OBut39TtC51AZWpTcMMoOWxRu_Elvj_mbR_mVo-NwFSDB43j03mdrJdsMd7Mx19Jqu__qdvbPZak3tbPrLfGxPymhOMAUcYd8VUUkbT2xfixF_cAS63R57ArJVm00]--></g></svg>