<?xml version="1.0" encoding="us-ascii" standalone="no"?><svg xmlns="http://www.w3.org/2000/svg" xmlns:xlink="http://www.w3.org/1999/xlink" contentStyleType="text/css" height="536.2px" preserveAspectRatio="none" style="width:1717px;height:536px;background:#FFFFFF;" version="1.1" viewBox="0 0 1717 536" width="1717.8px" zoomAndPan="magnify"><defs/><g><!--cluster JobOpeningAggregate--><g id="cluster_JobOpeningAggregate"><rect fill="none" height="268.1" rx="1.75" ry="1.75" style="stroke:#000000;stroke-width:1.0499999999999998;" width="536.9" x="793.1" y="144.9"/><text fill="#000000" font-family="sans-serif" font-size="9.8" font-weight="bold" lengthAdjust="spacing" textLength="111.3" x="1005.9" y="156.8752">JobOpeningAggregate</text></g><!--cluster JobOpeningProcessAggregate--><g id="cluster_JobOpeningProcessAggregate"><rect fill="none" height="435.05" rx="1.75" ry="1.75" style="stroke:#000000;stroke-width:1.0499999999999998;" width="434.7" x="175" y="10.5"/><text fill="#000000" font-family="sans-serif" font-size="9.8" font-weight="bold" lengthAdjust="spacing" textLength="151.2" x="316.75" y="22.4752">JobOpeningProcessAggregate</text></g><!--cluster JobRequirementsAggregate--><g id="cluster_JobRequirementsAggregate"><rect fill="none" height="219.45" rx="1.75" ry="1.75" style="stroke:#000000;stroke-width:1.0499999999999998;" width="149.8" x="626.5" y="312.9"/><text fill="#000000" font-family="sans-serif" font-size="9.8" font-weight="bold" lengthAdjust="spacing" textLength="138.6" x="632.1" y="324.8752">JobRequirementsAggregate</text></g><!--cluster ApplicationAggregate--><g id="cluster_ApplicationAggregate"><rect fill="none" height="272.3" rx="1.75" ry="1.75" style="stroke:#000000;stroke-width:1.0499999999999998;" width="238" x="1475.6" y="4.9"/><text fill="#000000" font-family="sans-serif" font-size="9.8" font-weight="bold" lengthAdjust="spacing" textLength="105.7" x="1541.75" y="16.8752">ApplicationAggregate</text></g><!--cluster ValidationService--><g id="cluster_ValidationService"><rect fill="none" height="94.5" rx="1.75" ry="1.75" style="stroke:#000000;stroke-width:1.0499999999999998;" width="116.2" x="653.8" y="156.8"/><text fill="#000000" font-family="sans-serif" font-size="9.8" font-weight="bold" lengthAdjust="spacing" textLength="86.1" x="668.85" y="168.7752">ValidationService</text></g><!--cluster CandidateAggregate--><g id="cluster_CandidateAggregate"><rect fill="none" height="261.8" rx="1.75" ry="1.75" style="stroke:#000000;stroke-width:1.0499999999999998;" width="112" x="1346.8" y="151.2"/><text fill="#000000" font-family="sans-serif" font-size="9.8" font-weight="bold" lengthAdjust="spacing" textLength="100.8" x="1352.4" y="163.1752">CandidateAggregate</text></g><!--cluster CustomerManagerAggregate--><g id="cluster_CustomerManagerAggregate"><rect fill="none" height="105.7" rx="1.75" ry="1.75" style="stroke:#000000;stroke-width:1.0499999999999998;" width="153.3" x="4.9" y="151.2"/><text fill="#000000" font-family="sans-serif" font-size="9.8" font-weight="bold" lengthAdjust="spacing" textLength="142.1" x="10.5" y="163.1752">CustomerManagerAggregate</text></g><!--class JobOpening--><g id="elem_JobOpening"><rect codeLine="5" fill="#F1F1F1" height="66.6148" id="JobOpening" rx="1.75" ry="1.75" style="stroke:#181818;stroke-width:0.3499999999999999;" width="75.6" x="870.1" y="185.5"/><ellipse cx="880.6" cy="206.69" fill="#ADD1B2" rx="7.7" ry="7.7" style="stroke:#181818;stroke-width:0.6999999999999998;"/><path d="M879.8016,207.2479 L879.8016,208.9979 L882.8312,208.9979 L882.8312,208.3525 Q882.8312,207.926 882.9953,207.74 Q883.1703,207.5541 883.4328,207.5541 Q883.6953,207.5541 883.8594,207.74 Q884.0234,207.926 884.0234,208.3525 L884.0234,210.19 L878.4234,210.19 Q877.9859,210.19 877.8,210.026 Q877.625,209.8619 877.625,209.5885 Q877.625,209.326 877.8109,209.1619 Q877.9969,208.9979 878.4234,208.9979 L878.6094,208.9979 L878.6094,204.3385 L878.4234,204.3385 Q877.9859,204.3385 877.8,204.1744 Q877.625,204.0104 877.625,203.7369 Q877.625,203.4744 877.8,203.3104 Q877.9859,203.1463 878.4234,203.1463 L883.7609,203.1463 L883.7609,204.9619 Q883.7609,205.3885 883.5969,205.5744 Q883.4437,205.7494 883.1703,205.7494 Q882.9078,205.7494 882.7437,205.5744 Q882.5797,205.3885 882.5797,204.9619 L882.5797,204.3385 L879.8016,204.3385 L879.8016,206.0557 L880.8406,206.0557 Q880.8406,205.5963 880.9281,205.465 Q881.1141,205.1807 881.4422,205.1807 Q881.7047,205.1807 881.8687,205.3666 Q882.0328,205.5416 882.0328,205.9682 L882.0328,207.3463 Q882.0328,207.7291 881.9453,207.8604 Q881.7594,208.1338 881.4422,208.1338 Q881.1141,208.1338 880.9281,207.8494 Q880.8406,207.7182 880.8406,207.2479 L879.8016,207.2479 Z " fill="#000000"/><text fill="#000000" font-family="sans-serif" font-size="8.4" font-style="italic" lengthAdjust="spacing" textLength="24.5" x="904.75" y="198.0645">&#171;root&#187;</text><text fill="#000000" font-family="sans-serif" font-size="8.4" font-style="italic" lengthAdjust="spacing" textLength="30.1" x="901.95" y="209.2371">&#171;entity&#187;</text><text fill="#000000" font-family="sans-serif" font-size="9.8" lengthAdjust="spacing" textLength="53.2" x="890.4" y="221.9205">JobOpening</text><line style="stroke:#181818;stroke-width:0.3499999999999999;" x1="870.8" x2="945" y1="227.8801" y2="227.8801"/><text fill="#000000" font-family="sans-serif" font-size="9.8" lengthAdjust="spacing" textLength="48.3" x="874.3" y="241.2553">description</text><line style="stroke:#181818;stroke-width:0.3499999999999999;" x1="870.8" x2="945" y1="246.5148" y2="246.5148"/></g><!--class JobReference--><g id="elem_JobReference"><rect codeLine="9" fill="#F1F1F1" height="42.4074" id="JobReference" rx="1.75" ry="1.75" style="stroke:#181818;stroke-width:0.3499999999999999;" width="84" x="804.3" y="359.1"/><ellipse cx="814.8" cy="374.7037" fill="#ADD1B2" rx="7.7" ry="7.7" style="stroke:#181818;stroke-width:0.6999999999999998;"/><path d="M816.7359,371.8162 Q816.8453,371.6631 816.9766,371.5865 Q817.1078,371.51 817.2609,371.51 Q817.5234,371.51 817.6875,371.6959 Q817.8516,371.8709 817.8516,372.2975 L817.8516,373.3146 Q817.8516,373.7412 817.6875,373.9271 Q817.5234,374.1131 817.2609,374.1131 Q817.0203,374.1131 816.8781,373.9709 Q816.7359,373.8396 816.6594,373.4787 Q816.6266,373.2271 816.4953,373.0959 Q816.2656,372.8334 815.8391,372.6803 Q815.4125,372.5271 814.975,372.5271 Q814.4391,372.5271 813.9906,372.7568 Q813.5531,372.9865 813.2031,373.5115 Q812.8641,374.0365 812.8641,374.7584 L812.8641,375.524 Q812.8641,376.3881 813.4875,376.9678 Q814.1109,377.5365 815.2266,377.5365 Q815.8828,377.5365 816.3422,377.3615 Q816.6156,377.2521 816.9109,376.9459 Q817.0969,376.76 817.1953,376.7053 Q817.3047,376.6506 817.4469,376.6506 Q817.6766,376.6506 817.8516,376.8365 Q818.0375,377.0115 818.0375,377.2521 Q818.0375,377.4928 817.7969,377.7771 Q817.4469,378.1818 816.8891,378.4115 Q816.1344,378.7287 815.2266,378.7287 Q814.1656,378.7287 813.3234,378.2912 Q812.6344,377.9412 812.1531,377.1975 Q811.6719,376.4428 811.6719,375.5459 L811.6719,374.7365 Q811.6719,373.8068 812.0984,373.0084 Q812.5359,372.199 813.3016,371.7725 Q814.0672,371.335 814.9312,371.335 Q815.4453,371.335 815.8937,371.4553 Q816.3531,371.5646 816.7359,371.8162 Z " fill="#000000"/><text fill="#000000" font-family="sans-serif" font-size="8.4" font-style="italic" lengthAdjust="spacing" textLength="32.2" x="839.3" y="371.6645">&#171;Value&#187;</text><text fill="#000000" font-family="sans-serif" font-size="9.8" lengthAdjust="spacing" textLength="61.6" x="824.6" y="384.3479">JobReference</text><line style="stroke:#181818;stroke-width:0.3499999999999999;" x1="805" x2="887.6" y1="390.3074" y2="390.3074"/><line style="stroke:#181818;stroke-width:0.3499999999999999;" x1="805" x2="887.6" y1="395.9074" y2="395.9074"/></g><!--class NumberOfVacancies--><g id="elem_NumberOfVacancies"><rect codeLine="10" fill="#F1F1F1" height="42.4074" id="NumberOfVacancies" rx="1.75" ry="1.75" style="stroke:#181818;stroke-width:0.3499999999999999;" width="112.7" x="913.15" y="359.1"/><ellipse cx="923.65" cy="374.7037" fill="#ADD1B2" rx="7.7" ry="7.7" style="stroke:#181818;stroke-width:0.6999999999999998;"/><path d="M925.5859,371.8162 Q925.6953,371.6631 925.8266,371.5865 Q925.9578,371.51 926.1109,371.51 Q926.3734,371.51 926.5375,371.6959 Q926.7016,371.8709 926.7016,372.2975 L926.7016,373.3146 Q926.7016,373.7412 926.5375,373.9271 Q926.3734,374.1131 926.1109,374.1131 Q925.8703,374.1131 925.7281,373.9709 Q925.5859,373.8396 925.5094,373.4787 Q925.4766,373.2271 925.3453,373.0959 Q925.1156,372.8334 924.6891,372.6803 Q924.2625,372.5271 923.825,372.5271 Q923.2891,372.5271 922.8406,372.7568 Q922.4031,372.9865 922.0531,373.5115 Q921.7141,374.0365 921.7141,374.7584 L921.7141,375.524 Q921.7141,376.3881 922.3375,376.9678 Q922.9609,377.5365 924.0766,377.5365 Q924.7328,377.5365 925.1922,377.3615 Q925.4656,377.2521 925.7609,376.9459 Q925.9469,376.76 926.0453,376.7053 Q926.1547,376.6506 926.2969,376.6506 Q926.5266,376.6506 926.7016,376.8365 Q926.8875,377.0115 926.8875,377.2521 Q926.8875,377.4928 926.6469,377.7771 Q926.2969,378.1818 925.7391,378.4115 Q924.9844,378.7287 924.0766,378.7287 Q923.0156,378.7287 922.1734,378.2912 Q921.4844,377.9412 921.0031,377.1975 Q920.5219,376.4428 920.5219,375.5459 L920.5219,374.7365 Q920.5219,373.8068 920.9484,373.0084 Q921.3859,372.199 922.1516,371.7725 Q922.9172,371.335 923.7812,371.335 Q924.2953,371.335 924.7437,371.4553 Q925.2031,371.5646 925.5859,371.8162 Z " fill="#000000"/><text fill="#000000" font-family="sans-serif" font-size="8.4" font-style="italic" lengthAdjust="spacing" textLength="32.2" x="962.5" y="371.6645">&#171;Value&#187;</text><text fill="#000000" font-family="sans-serif" font-size="9.8" lengthAdjust="spacing" textLength="90.3" x="933.45" y="384.3479">NumberOfVacancies</text><line style="stroke:#181818;stroke-width:0.3499999999999999;" x1="913.85" x2="1025.15" y1="390.3074" y2="390.3074"/><line style="stroke:#181818;stroke-width:0.3499999999999999;" x1="913.85" x2="1025.15" y1="395.9074" y2="395.9074"/></g><!--class ContractType--><g id="elem_ContractType"><rect codeLine="11" fill="#F1F1F1" height="42.4074" id="ContractType" rx="1.75" ry="1.75" style="stroke:#181818;stroke-width:0.3499999999999999;" width="82.6" x="1050.7" y="359.1"/><ellipse cx="1061.2" cy="374.7037" fill="#ADD1B2" rx="7.7" ry="7.7" style="stroke:#181818;stroke-width:0.6999999999999998;"/><path d="M1063.1359,371.8162 Q1063.2453,371.6631 1063.3766,371.5865 Q1063.5078,371.51 1063.6609,371.51 Q1063.9234,371.51 1064.0875,371.6959 Q1064.2516,371.8709 1064.2516,372.2975 L1064.2516,373.3146 Q1064.2516,373.7412 1064.0875,373.9271 Q1063.9234,374.1131 1063.6609,374.1131 Q1063.4203,374.1131 1063.2781,373.9709 Q1063.1359,373.8396 1063.0594,373.4787 Q1063.0266,373.2271 1062.8953,373.0959 Q1062.6656,372.8334 1062.2391,372.6803 Q1061.8125,372.5271 1061.375,372.5271 Q1060.8391,372.5271 1060.3906,372.7568 Q1059.9531,372.9865 1059.6031,373.5115 Q1059.2641,374.0365 1059.2641,374.7584 L1059.2641,375.524 Q1059.2641,376.3881 1059.8875,376.9678 Q1060.5109,377.5365 1061.6266,377.5365 Q1062.2828,377.5365 1062.7422,377.3615 Q1063.0156,377.2521 1063.3109,376.9459 Q1063.4969,376.76 1063.5953,376.7053 Q1063.7047,376.6506 1063.8469,376.6506 Q1064.0766,376.6506 1064.2516,376.8365 Q1064.4375,377.0115 1064.4375,377.2521 Q1064.4375,377.4928 1064.1969,377.7771 Q1063.8469,378.1818 1063.2891,378.4115 Q1062.5344,378.7287 1061.6266,378.7287 Q1060.5656,378.7287 1059.7234,378.2912 Q1059.0344,377.9412 1058.5531,377.1975 Q1058.0719,376.4428 1058.0719,375.5459 L1058.0719,374.7365 Q1058.0719,373.8068 1058.4984,373.0084 Q1058.9359,372.199 1059.7016,371.7725 Q1060.4672,371.335 1061.3312,371.335 Q1061.8453,371.335 1062.2937,371.4553 Q1062.7531,371.5646 1063.1359,371.8162 Z " fill="#000000"/><text fill="#000000" font-family="sans-serif" font-size="8.4" font-style="italic" lengthAdjust="spacing" textLength="32.2" x="1085" y="371.6645">&#171;Value&#187;</text><text fill="#000000" font-family="sans-serif" font-size="9.8" lengthAdjust="spacing" textLength="60.2" x="1071" y="384.3479">ContractType</text><line style="stroke:#181818;stroke-width:0.3499999999999999;" x1="1051.4" x2="1132.6" y1="390.3074" y2="390.3074"/><line style="stroke:#181818;stroke-width:0.3499999999999999;" x1="1051.4" x2="1132.6" y1="395.9074" y2="395.9074"/></g><!--class WorkRegime--><g id="elem_WorkRegime"><rect codeLine="12" fill="#F1F1F1" height="42.4074" id="WorkRegime" rx="1.75" ry="1.75" style="stroke:#181818;stroke-width:0.3499999999999999;" width="79.1" x="1158.15" y="359.1"/><ellipse cx="1168.65" cy="374.7037" fill="#ADD1B2" rx="7.7" ry="7.7" style="stroke:#181818;stroke-width:0.6999999999999998;"/><path d="M1170.5859,371.8162 Q1170.6953,371.6631 1170.8266,371.5865 Q1170.9578,371.51 1171.1109,371.51 Q1171.3734,371.51 1171.5375,371.6959 Q1171.7016,371.8709 1171.7016,372.2975 L1171.7016,373.3146 Q1171.7016,373.7412 1171.5375,373.9271 Q1171.3734,374.1131 1171.1109,374.1131 Q1170.8703,374.1131 1170.7281,373.9709 Q1170.5859,373.8396 1170.5094,373.4787 Q1170.4766,373.2271 1170.3453,373.0959 Q1170.1156,372.8334 1169.6891,372.6803 Q1169.2625,372.5271 1168.825,372.5271 Q1168.2891,372.5271 1167.8406,372.7568 Q1167.4031,372.9865 1167.0531,373.5115 Q1166.7141,374.0365 1166.7141,374.7584 L1166.7141,375.524 Q1166.7141,376.3881 1167.3375,376.9678 Q1167.9609,377.5365 1169.0766,377.5365 Q1169.7328,377.5365 1170.1922,377.3615 Q1170.4656,377.2521 1170.7609,376.9459 Q1170.9469,376.76 1171.0453,376.7053 Q1171.1547,376.6506 1171.2969,376.6506 Q1171.5266,376.6506 1171.7016,376.8365 Q1171.8875,377.0115 1171.8875,377.2521 Q1171.8875,377.4928 1171.6469,377.7771 Q1171.2969,378.1818 1170.7391,378.4115 Q1169.9844,378.7287 1169.0766,378.7287 Q1168.0156,378.7287 1167.1734,378.2912 Q1166.4844,377.9412 1166.0031,377.1975 Q1165.5219,376.4428 1165.5219,375.5459 L1165.5219,374.7365 Q1165.5219,373.8068 1165.9484,373.0084 Q1166.3859,372.199 1167.1516,371.7725 Q1167.9172,371.335 1168.7812,371.335 Q1169.2953,371.335 1169.7437,371.4553 Q1170.2031,371.5646 1170.5859,371.8162 Z " fill="#000000"/><text fill="#000000" font-family="sans-serif" font-size="8.4" font-style="italic" lengthAdjust="spacing" textLength="32.2" x="1190.7" y="371.6645">&#171;Value&#187;</text><text fill="#000000" font-family="sans-serif" font-size="9.8" lengthAdjust="spacing" textLength="56.7" x="1178.45" y="384.3479">WorkRegime</text><line style="stroke:#181818;stroke-width:0.3499999999999999;" x1="1158.85" x2="1236.55" y1="390.3074" y2="390.3074"/><line style="stroke:#181818;stroke-width:0.3499999999999999;" x1="1158.85" x2="1236.55" y1="395.9074" y2="395.9074"/></g><!--class JobTitle--><g id="elem_JobTitle"><rect codeLine="13" fill="#F1F1F1" height="42.4074" id="JobTitle" rx="1.75" ry="1.75" style="stroke:#181818;stroke-width:0.3499999999999999;" width="56.7" x="1261.75" y="359.1"/><ellipse cx="1272.25" cy="374.7037" fill="#ADD1B2" rx="7.7" ry="7.7" style="stroke:#181818;stroke-width:0.6999999999999998;"/><path d="M1274.1859,371.8162 Q1274.2953,371.6631 1274.4266,371.5865 Q1274.5578,371.51 1274.7109,371.51 Q1274.9734,371.51 1275.1375,371.6959 Q1275.3016,371.8709 1275.3016,372.2975 L1275.3016,373.3146 Q1275.3016,373.7412 1275.1375,373.9271 Q1274.9734,374.1131 1274.7109,374.1131 Q1274.4703,374.1131 1274.3281,373.9709 Q1274.1859,373.8396 1274.1094,373.4787 Q1274.0766,373.2271 1273.9453,373.0959 Q1273.7156,372.8334 1273.2891,372.6803 Q1272.8625,372.5271 1272.425,372.5271 Q1271.8891,372.5271 1271.4406,372.7568 Q1271.0031,372.9865 1270.6531,373.5115 Q1270.3141,374.0365 1270.3141,374.7584 L1270.3141,375.524 Q1270.3141,376.3881 1270.9375,376.9678 Q1271.5609,377.5365 1272.6766,377.5365 Q1273.3328,377.5365 1273.7922,377.3615 Q1274.0656,377.2521 1274.3609,376.9459 Q1274.5469,376.76 1274.6453,376.7053 Q1274.7547,376.6506 1274.8969,376.6506 Q1275.1266,376.6506 1275.3016,376.8365 Q1275.4875,377.0115 1275.4875,377.2521 Q1275.4875,377.4928 1275.2469,377.7771 Q1274.8969,378.1818 1274.3391,378.4115 Q1273.5844,378.7287 1272.6766,378.7287 Q1271.6156,378.7287 1270.7734,378.2912 Q1270.0844,377.9412 1269.6031,377.1975 Q1269.1219,376.4428 1269.1219,375.5459 L1269.1219,374.7365 Q1269.1219,373.8068 1269.5484,373.0084 Q1269.9859,372.199 1270.7516,371.7725 Q1271.5172,371.335 1272.3812,371.335 Q1272.8953,371.335 1273.3437,371.4553 Q1273.8031,371.5646 1274.1859,371.8162 Z " fill="#000000"/><text fill="#000000" font-family="sans-serif" font-size="8.4" font-style="italic" lengthAdjust="spacing" textLength="32.2" x="1283.1" y="371.6645">&#171;Value&#187;</text><text fill="#000000" font-family="sans-serif" font-size="9.8" lengthAdjust="spacing" textLength="34.3" x="1282.05" y="384.3479">JobTitle</text><line style="stroke:#181818;stroke-width:0.3499999999999999;" x1="1262.45" x2="1317.75" y1="390.3074" y2="390.3074"/><line style="stroke:#181818;stroke-width:0.3499999999999999;" x1="1262.45" x2="1317.75" y1="395.9074" y2="395.9074"/></g><!--class JobOpeningProcess--><g id="elem_JobOpeningProcess"><rect codeLine="17" fill="#F1F1F1" height="42.4074" id="JobOpeningProcess" rx="1.75" ry="1.75" style="stroke:#181818;stroke-width:0.3499999999999999;" width="111.3" x="460.95" y="51.1"/><ellipse cx="471.45" cy="66.7037" fill="#ADD1B2" rx="7.7" ry="7.7" style="stroke:#181818;stroke-width:0.6999999999999998;"/><path d="M473.3859,63.8162 Q473.4953,63.6631 473.6266,63.5865 Q473.7578,63.51 473.9109,63.51 Q474.1734,63.51 474.3375,63.6959 Q474.5016,63.8709 474.5016,64.2975 L474.5016,65.3146 Q474.5016,65.7412 474.3375,65.9271 Q474.1734,66.1131 473.9109,66.1131 Q473.6703,66.1131 473.5281,65.9709 Q473.3859,65.8396 473.3094,65.4787 Q473.2766,65.2271 473.1453,65.0959 Q472.9156,64.8334 472.4891,64.6803 Q472.0625,64.5271 471.625,64.5271 Q471.0891,64.5271 470.6406,64.7568 Q470.2031,64.9865 469.8531,65.5115 Q469.5141,66.0365 469.5141,66.7584 L469.5141,67.524 Q469.5141,68.3881 470.1375,68.9678 Q470.7609,69.5365 471.8766,69.5365 Q472.5328,69.5365 472.9922,69.3615 Q473.2656,69.2521 473.5609,68.9459 Q473.7469,68.76 473.8453,68.7053 Q473.9547,68.6506 474.0969,68.6506 Q474.3266,68.6506 474.5016,68.8365 Q474.6875,69.0115 474.6875,69.2521 Q474.6875,69.4928 474.4469,69.7771 Q474.0969,70.1818 473.5391,70.4115 Q472.7844,70.7287 471.8766,70.7287 Q470.8156,70.7287 469.9734,70.2912 Q469.2844,69.9412 468.8031,69.1975 Q468.3219,68.4428 468.3219,67.5459 L468.3219,66.7365 Q468.3219,65.8068 468.7484,65.0084 Q469.1859,64.199 469.9516,63.7725 Q470.7172,63.335 471.5812,63.335 Q472.0953,63.335 472.5437,63.4553 Q473.0031,63.5646 473.3859,63.8162 Z " fill="#000000"/><text fill="#000000" font-family="sans-serif" font-size="8.4" font-style="italic" lengthAdjust="spacing" textLength="30.8" x="510.3" y="63.6645">&#171;Entity&#187;</text><text fill="#000000" font-family="sans-serif" font-size="9.8" lengthAdjust="spacing" textLength="88.9" x="481.25" y="76.3479">JobOpeningProcess</text><line style="stroke:#181818;stroke-width:0.3499999999999999;" x1="461.65" x2="571.55" y1="82.3074" y2="82.3074"/><line style="stroke:#181818;stroke-width:0.3499999999999999;" x1="461.65" x2="571.55" y1="87.9074" y2="87.9074"/></g><!--class JobOpeningPhases--><g id="elem_JobOpeningPhases"><rect codeLine="19" fill="#F1F1F1" height="107.5812" id="JobOpeningPhases" rx="1.75" ry="1.75" style="stroke:#181818;stroke-width:0.3499999999999999;" width="108.5" x="186.55" y="326.55"/><ellipse cx="197.05" cy="342.1537" fill="#EB937F" rx="7.7" ry="7.7" style="stroke:#181818;stroke-width:0.6999999999999998;"/><path d="M196.2516,342.7115 L196.2516,344.4615 L199.2812,344.4615 L199.2812,343.8162 Q199.2812,343.3896 199.4453,343.2037 Q199.6203,343.0178 199.8828,343.0178 Q200.1453,343.0178 200.3094,343.2037 Q200.4734,343.3896 200.4734,343.8162 L200.4734,345.6537 L194.8734,345.6537 Q194.4359,345.6537 194.25,345.4896 Q194.075,345.3256 194.075,345.0521 Q194.075,344.7896 194.2609,344.6256 Q194.4469,344.4615 194.8734,344.4615 L195.0594,344.4615 L195.0594,339.8021 L194.8734,339.8021 Q194.4359,339.8021 194.25,339.6381 Q194.075,339.474 194.075,339.2006 Q194.075,338.9381 194.25,338.774 Q194.4359,338.61 194.8734,338.61 L200.2109,338.61 L200.2109,340.4256 Q200.2109,340.8521 200.0469,341.0381 Q199.8937,341.2131 199.6203,341.2131 Q199.3578,341.2131 199.1937,341.0381 Q199.0297,340.8521 199.0297,340.4256 L199.0297,339.8021 L196.2516,339.8021 L196.2516,341.5193 L197.2906,341.5193 Q197.2906,341.06 197.3781,340.9287 Q197.5641,340.6443 197.8922,340.6443 Q198.1547,340.6443 198.3187,340.8303 Q198.4828,341.0053 198.4828,341.4318 L198.4828,342.81 Q198.4828,343.1928 198.3953,343.324 Q198.2094,343.5975 197.8922,343.5975 Q197.5641,343.5975 197.3781,343.3131 Q197.2906,343.1818 197.2906,342.7115 L196.2516,342.7115 Z " fill="#000000"/><text fill="#000000" font-family="sans-serif" font-size="8.4" font-style="italic" lengthAdjust="spacing" textLength="32.2" x="233.8" y="339.1145">&#171;Value&#187;</text><text fill="#000000" font-family="sans-serif" font-size="9.8" lengthAdjust="spacing" textLength="86.1" x="206.85" y="351.7979">JobOpeningPhases</text><line style="stroke:#181818;stroke-width:0.3499999999999999;" x1="187.25" x2="294.35" y1="357.7574" y2="357.7574"/><text fill="#000000" font-family="sans-serif" font-size="9.8" lengthAdjust="spacing" textLength="48.3" x="190.75" y="371.1326">Application</text><text fill="#000000" font-family="sans-serif" font-size="9.8" lengthAdjust="spacing" textLength="44.8" x="190.75" y="384.1674">Screening</text><text fill="#000000" font-family="sans-serif" font-size="9.8" lengthAdjust="spacing" textLength="38.5" x="190.75" y="397.2021">Interview</text><text fill="#000000" font-family="sans-serif" font-size="9.8" lengthAdjust="spacing" textLength="36.4" x="190.75" y="410.2369">Analysis</text><text fill="#000000" font-family="sans-serif" font-size="9.8" lengthAdjust="spacing" textLength="28" x="190.75" y="423.2717">Result</text><line style="stroke:#181818;stroke-width:0.3499999999999999;" x1="187.25" x2="294.35" y1="428.5312" y2="428.5312"/></g><!--class JobOpeningPhase--><g id="elem_JobOpeningPhase"><rect codeLine="27" fill="#F1F1F1" height="33.6" id="JobOpeningPhase" rx="1.75" ry="1.75" style="stroke:#181818;stroke-width:0.3499999999999999;" width="103.6" x="387.8" y="201.95"/><ellipse cx="398.3" cy="213.15" fill="#ADD1B2" rx="7.7" ry="7.7" style="stroke:#181818;stroke-width:0.6999999999999998;"/><path d="M400.2359,210.2625 Q400.3453,210.1094 400.4766,210.0328 Q400.6078,209.9562 400.7609,209.9562 Q401.0234,209.9562 401.1875,210.1422 Q401.3516,210.3172 401.3516,210.7437 L401.3516,211.7609 Q401.3516,212.1875 401.1875,212.3734 Q401.0234,212.5594 400.7609,212.5594 Q400.5203,212.5594 400.3781,212.4172 Q400.2359,212.2859 400.1594,211.925 Q400.1266,211.6734 399.9953,211.5422 Q399.7656,211.2797 399.3391,211.1266 Q398.9125,210.9734 398.475,210.9734 Q397.9391,210.9734 397.4906,211.2031 Q397.0531,211.4328 396.7031,211.9578 Q396.3641,212.4828 396.3641,213.2047 L396.3641,213.9703 Q396.3641,214.8344 396.9875,215.4141 Q397.6109,215.9828 398.7266,215.9828 Q399.3828,215.9828 399.8422,215.8078 Q400.1156,215.6984 400.4109,215.3922 Q400.5969,215.2062 400.6953,215.1516 Q400.8047,215.0969 400.9469,215.0969 Q401.1766,215.0969 401.3516,215.2828 Q401.5375,215.4578 401.5375,215.6984 Q401.5375,215.9391 401.2969,216.2234 Q400.9469,216.6281 400.3891,216.8578 Q399.6344,217.175 398.7266,217.175 Q397.6656,217.175 396.8234,216.7375 Q396.1344,216.3875 395.6531,215.6437 Q395.1719,214.8891 395.1719,213.9922 L395.1719,213.1828 Q395.1719,212.2531 395.5984,211.4547 Q396.0359,210.6453 396.8016,210.2187 Q397.5672,209.7812 398.4312,209.7812 Q398.9453,209.7812 399.3937,209.9016 Q399.8531,210.0109 400.2359,210.2625 Z " fill="#000000"/><text fill="#000000" font-family="sans-serif" font-size="9.8" lengthAdjust="spacing" textLength="81.2" x="408.1" y="217.2078">JobOpeningPhase</text><line style="stroke:#181818;stroke-width:0.3499999999999999;" x1="388.5" x2="490.7" y1="224.35" y2="224.35"/><line style="stroke:#181818;stroke-width:0.3499999999999999;" x1="388.5" x2="490.7" y1="229.95" y2="229.95"/></g><!--class StartDate--><g id="elem_StartDate"><rect codeLine="28" fill="#F1F1F1" height="42.4074" id="StartDate" rx="1.75" ry="1.75" style="stroke:#181818;stroke-width:0.3499999999999999;" width="64.4" x="319.9" y="359.1"/><ellipse cx="330.4" cy="374.7037" fill="#ADD1B2" rx="7.7" ry="7.7" style="stroke:#181818;stroke-width:0.6999999999999998;"/><path d="M332.3359,371.8162 Q332.4453,371.6631 332.5766,371.5865 Q332.7078,371.51 332.8609,371.51 Q333.1234,371.51 333.2875,371.6959 Q333.4516,371.8709 333.4516,372.2975 L333.4516,373.3146 Q333.4516,373.7412 333.2875,373.9271 Q333.1234,374.1131 332.8609,374.1131 Q332.6203,374.1131 332.4781,373.9709 Q332.3359,373.8396 332.2594,373.4787 Q332.2266,373.2271 332.0953,373.0959 Q331.8656,372.8334 331.4391,372.6803 Q331.0125,372.5271 330.575,372.5271 Q330.0391,372.5271 329.5906,372.7568 Q329.1531,372.9865 328.8031,373.5115 Q328.4641,374.0365 328.4641,374.7584 L328.4641,375.524 Q328.4641,376.3881 329.0875,376.9678 Q329.7109,377.5365 330.8266,377.5365 Q331.4828,377.5365 331.9422,377.3615 Q332.2156,377.2521 332.5109,376.9459 Q332.6969,376.76 332.7953,376.7053 Q332.9047,376.6506 333.0469,376.6506 Q333.2766,376.6506 333.4516,376.8365 Q333.6375,377.0115 333.6375,377.2521 Q333.6375,377.4928 333.3969,377.7771 Q333.0469,378.1818 332.4891,378.4115 Q331.7344,378.7287 330.8266,378.7287 Q329.7656,378.7287 328.9234,378.2912 Q328.2344,377.9412 327.7531,377.1975 Q327.2719,376.4428 327.2719,375.5459 L327.2719,374.7365 Q327.2719,373.8068 327.6984,373.0084 Q328.1359,372.199 328.9016,371.7725 Q329.6672,371.335 330.5312,371.335 Q331.0453,371.335 331.4937,371.4553 Q331.9531,371.5646 332.3359,371.8162 Z " fill="#000000"/><text fill="#000000" font-family="sans-serif" font-size="8.4" font-style="italic" lengthAdjust="spacing" textLength="30.8" x="345.8" y="371.6645">&#171;value&#187;</text><text fill="#000000" font-family="sans-serif" font-size="9.8" lengthAdjust="spacing" textLength="42" x="340.2" y="384.3479">StartDate</text><line style="stroke:#181818;stroke-width:0.3499999999999999;" x1="320.6" x2="383.6" y1="390.3074" y2="390.3074"/><line style="stroke:#181818;stroke-width:0.3499999999999999;" x1="320.6" x2="383.6" y1="395.9074" y2="395.9074"/></g><!--class EndDate--><g id="elem_EndDate"><rect codeLine="29" fill="#F1F1F1" height="42.4074" id="EndDate" rx="1.75" ry="1.75" style="stroke:#181818;stroke-width:0.3499999999999999;" width="60.9" x="409.15" y="359.1"/><ellipse cx="419.65" cy="374.7037" fill="#ADD1B2" rx="7.7" ry="7.7" style="stroke:#181818;stroke-width:0.6999999999999998;"/><path d="M421.5859,371.8162 Q421.6953,371.6631 421.8266,371.5865 Q421.9578,371.51 422.1109,371.51 Q422.3734,371.51 422.5375,371.6959 Q422.7016,371.8709 422.7016,372.2975 L422.7016,373.3146 Q422.7016,373.7412 422.5375,373.9271 Q422.3734,374.1131 422.1109,374.1131 Q421.8703,374.1131 421.7281,373.9709 Q421.5859,373.8396 421.5094,373.4787 Q421.4766,373.2271 421.3453,373.0959 Q421.1156,372.8334 420.6891,372.6803 Q420.2625,372.5271 419.825,372.5271 Q419.2891,372.5271 418.8406,372.7568 Q418.4031,372.9865 418.0531,373.5115 Q417.7141,374.0365 417.7141,374.7584 L417.7141,375.524 Q417.7141,376.3881 418.3375,376.9678 Q418.9609,377.5365 420.0766,377.5365 Q420.7328,377.5365 421.1922,377.3615 Q421.4656,377.2521 421.7609,376.9459 Q421.9469,376.76 422.0453,376.7053 Q422.1547,376.6506 422.2969,376.6506 Q422.5266,376.6506 422.7016,376.8365 Q422.8875,377.0115 422.8875,377.2521 Q422.8875,377.4928 422.6469,377.7771 Q422.2969,378.1818 421.7391,378.4115 Q420.9844,378.7287 420.0766,378.7287 Q419.0156,378.7287 418.1734,378.2912 Q417.4844,377.9412 417.0031,377.1975 Q416.5219,376.4428 416.5219,375.5459 L416.5219,374.7365 Q416.5219,373.8068 416.9484,373.0084 Q417.3859,372.199 418.1516,371.7725 Q418.9172,371.335 419.7812,371.335 Q420.2953,371.335 420.7437,371.4553 Q421.2031,371.5646 421.5859,371.8162 Z " fill="#000000"/><text fill="#000000" font-family="sans-serif" font-size="8.4" font-style="italic" lengthAdjust="spacing" textLength="30.8" x="433.3" y="371.6645">&#171;value&#187;</text><text fill="#000000" font-family="sans-serif" font-size="9.8" lengthAdjust="spacing" textLength="38.5" x="429.45" y="384.3479">EndDate</text><line style="stroke:#181818;stroke-width:0.3499999999999999;" x1="409.85" x2="469.35" y1="390.3074" y2="390.3074"/><line style="stroke:#181818;stroke-width:0.3499999999999999;" x1="409.85" x2="469.35" y1="395.9074" y2="395.9074"/></g><!--class JobOpeningStatus--><g id="elem_JobOpeningStatus"><rect codeLine="31" fill="#F1F1F1" height="68.477" id="JobOpeningStatus" rx="1.75" ry="1.75" style="stroke:#181818;stroke-width:0.3499999999999999;" width="103.6" x="494.9" y="346.15"/><ellipse cx="505.4" cy="361.7537" fill="#EB937F" rx="7.7" ry="7.7" style="stroke:#181818;stroke-width:0.6999999999999998;"/><path d="M504.6016,362.3115 L504.6016,364.0615 L507.6312,364.0615 L507.6312,363.4162 Q507.6312,362.9896 507.7953,362.8037 Q507.9703,362.6178 508.2328,362.6178 Q508.4953,362.6178 508.6594,362.8037 Q508.8234,362.9896 508.8234,363.4162 L508.8234,365.2537 L503.2234,365.2537 Q502.7859,365.2537 502.6,365.0896 Q502.425,364.9256 502.425,364.6521 Q502.425,364.3896 502.6109,364.2256 Q502.7969,364.0615 503.2234,364.0615 L503.4094,364.0615 L503.4094,359.4021 L503.2234,359.4021 Q502.7859,359.4021 502.6,359.2381 Q502.425,359.074 502.425,358.8006 Q502.425,358.5381 502.6,358.374 Q502.7859,358.21 503.2234,358.21 L508.5609,358.21 L508.5609,360.0256 Q508.5609,360.4521 508.3969,360.6381 Q508.2437,360.8131 507.9703,360.8131 Q507.7078,360.8131 507.5437,360.6381 Q507.3797,360.4521 507.3797,360.0256 L507.3797,359.4021 L504.6016,359.4021 L504.6016,361.1193 L505.6406,361.1193 Q505.6406,360.66 505.7281,360.5287 Q505.9141,360.2443 506.2422,360.2443 Q506.5047,360.2443 506.6687,360.4303 Q506.8328,360.6053 506.8328,361.0318 L506.8328,362.41 Q506.8328,362.7928 506.7453,362.924 Q506.5594,363.1975 506.2422,363.1975 Q505.9141,363.1975 505.7281,362.9131 Q505.6406,362.7818 505.6406,362.3115 L504.6016,362.3115 Z " fill="#000000"/><text fill="#000000" font-family="sans-serif" font-size="8.4" font-style="italic" lengthAdjust="spacing" textLength="30.8" x="540.4" y="358.7145">&#171;value&#187;</text><text fill="#000000" font-family="sans-serif" font-size="9.8" lengthAdjust="spacing" textLength="81.2" x="515.2" y="371.3979">JobOpeningStatus</text><line style="stroke:#181818;stroke-width:0.3499999999999999;" x1="495.6" x2="597.8" y1="377.3574" y2="377.3574"/><text fill="#000000" font-family="sans-serif" font-size="9.8" lengthAdjust="spacing" textLength="26.6" x="499.1" y="390.7326">OPEN</text><text fill="#000000" font-family="sans-serif" font-size="9.8" lengthAdjust="spacing" textLength="39.9" x="499.1" y="403.7674">CLOSED</text><line style="stroke:#181818;stroke-width:0.3499999999999999;" x1="495.6" x2="597.8" y1="409.027" y2="409.027"/></g><!--class JobRequirements--><g id="elem_JobRequirements"><rect codeLine="38" fill="#F1F1F1" height="53.5801" id="JobRequirements" rx="1.75" ry="1.75" style="stroke:#181818;stroke-width:0.3499999999999999;" width="99.4" x="662.2" y="353.5"/><ellipse cx="672.7" cy="374.69" fill="#ADD1B2" rx="7.7" ry="7.7" style="stroke:#181818;stroke-width:0.6999999999999998;"/><path d="M671.9016,375.2479 L671.9016,376.9979 L674.9312,376.9979 L674.9312,376.3525 Q674.9312,375.926 675.0953,375.74 Q675.2703,375.5541 675.5328,375.5541 Q675.7953,375.5541 675.9594,375.74 Q676.1234,375.926 676.1234,376.3525 L676.1234,378.19 L670.5234,378.19 Q670.0859,378.19 669.9,378.026 Q669.725,377.8619 669.725,377.5885 Q669.725,377.326 669.9109,377.1619 Q670.0969,376.9979 670.5234,376.9979 L670.7094,376.9979 L670.7094,372.3385 L670.5234,372.3385 Q670.0859,372.3385 669.9,372.1744 Q669.725,372.0104 669.725,371.7369 Q669.725,371.4744 669.9,371.3104 Q670.0859,371.1463 670.5234,371.1463 L675.8609,371.1463 L675.8609,372.9619 Q675.8609,373.3885 675.6969,373.5744 Q675.5437,373.7494 675.2703,373.7494 Q675.0078,373.7494 674.8437,373.5744 Q674.6797,373.3885 674.6797,372.9619 L674.6797,372.3385 L671.9016,372.3385 L671.9016,374.0557 L672.9406,374.0557 Q672.9406,373.5963 673.0281,373.465 Q673.2141,373.1807 673.5422,373.1807 Q673.8047,373.1807 673.9687,373.3666 Q674.1328,373.5416 674.1328,373.9682 L674.1328,375.3463 Q674.1328,375.7291 674.0453,375.8604 Q673.8594,376.1338 673.5422,376.1338 Q673.2141,376.1338 673.0281,375.8494 Q672.9406,375.7182 672.9406,375.2479 L671.9016,375.2479 Z " fill="#000000"/><text fill="#000000" font-family="sans-serif" font-size="8.4" font-style="italic" lengthAdjust="spacing" textLength="24.5" x="708.75" y="366.0645">&#171;root&#187;</text><text fill="#000000" font-family="sans-serif" font-size="8.4" font-style="italic" lengthAdjust="spacing" textLength="30.1" x="705.95" y="377.2371">&#171;entity&#187;</text><text fill="#000000" font-family="sans-serif" font-size="9.8" lengthAdjust="spacing" textLength="77" x="682.5" y="389.9205">JobRequirements</text><line style="stroke:#181818;stroke-width:0.3499999999999999;" x1="662.9" x2="760.9" y1="395.8801" y2="395.8801"/><line style="stroke:#181818;stroke-width:0.3499999999999999;" x1="662.9" x2="760.9" y1="401.4801" y2="401.4801"/></g><!--class JobRequirementsPlugin--><g id="elem_JobRequirementsPlugin"><rect codeLine="39" fill="#F1F1F1" height="42.4074" id="JobRequirementsPlugin" rx="1.75" ry="1.75" style="stroke:#181818;stroke-width:0.3499999999999999;" width="126.7" x="638.05" y="478.45"/><ellipse cx="648.55" cy="494.0537" fill="#ADD1B2" rx="7.7" ry="7.7" style="stroke:#181818;stroke-width:0.6999999999999998;"/><path d="M650.4859,491.1662 Q650.5953,491.0131 650.7266,490.9365 Q650.8578,490.86 651.0109,490.86 Q651.2734,490.86 651.4375,491.0459 Q651.6016,491.2209 651.6016,491.6475 L651.6016,492.6646 Q651.6016,493.0912 651.4375,493.2771 Q651.2734,493.4631 651.0109,493.4631 Q650.7703,493.4631 650.6281,493.3209 Q650.4859,493.1896 650.4094,492.8287 Q650.3766,492.5771 650.2453,492.4459 Q650.0156,492.1834 649.5891,492.0303 Q649.1625,491.8771 648.725,491.8771 Q648.1891,491.8771 647.7406,492.1068 Q647.3031,492.3365 646.9531,492.8615 Q646.6141,493.3865 646.6141,494.1084 L646.6141,494.874 Q646.6141,495.7381 647.2375,496.3178 Q647.8609,496.8865 648.9766,496.8865 Q649.6328,496.8865 650.0922,496.7115 Q650.3656,496.6021 650.6609,496.2959 Q650.8469,496.11 650.9453,496.0553 Q651.0547,496.0006 651.1969,496.0006 Q651.4266,496.0006 651.6016,496.1865 Q651.7875,496.3615 651.7875,496.6021 Q651.7875,496.8428 651.5469,497.1271 Q651.1969,497.5318 650.6391,497.7615 Q649.8844,498.0787 648.9766,498.0787 Q647.9156,498.0787 647.0734,497.6412 Q646.3844,497.2912 645.9031,496.5475 Q645.4219,495.7928 645.4219,494.8959 L645.4219,494.0865 Q645.4219,493.1568 645.8484,492.3584 Q646.2859,491.549 647.0516,491.1225 Q647.8172,490.685 648.6812,490.685 Q649.1953,490.685 649.6437,490.8053 Q650.1031,490.9146 650.4859,491.1662 Z " fill="#000000"/><text fill="#000000" font-family="sans-serif" font-size="8.4" font-style="italic" lengthAdjust="spacing" textLength="32.2" x="694.4" y="491.0145">&#171;Value&#187;</text><text fill="#000000" font-family="sans-serif" font-size="9.8" lengthAdjust="spacing" textLength="104.3" x="658.35" y="503.6979">JobRequirementsPlugin</text><line style="stroke:#181818;stroke-width:0.3499999999999999;" x1="638.75" x2="764.05" y1="509.6574" y2="509.6574"/><line style="stroke:#181818;stroke-width:0.3499999999999999;" x1="638.75" x2="764.05" y1="515.2574" y2="515.2574"/></g><!--class Application--><g id="elem_Application"><rect codeLine="44" fill="#F1F1F1" height="53.5801" id="Application" rx="1.75" ry="1.75" style="stroke:#181818;stroke-width:0.3499999999999999;" width="70.7" x="1492.05" y="45.5"/><ellipse cx="1502.55" cy="66.69" fill="#ADD1B2" rx="7.7" ry="7.7" style="stroke:#181818;stroke-width:0.6999999999999998;"/><path d="M1501.7516,67.2479 L1501.7516,68.9979 L1504.7812,68.9979 L1504.7812,68.3525 Q1504.7812,67.926 1504.9453,67.74 Q1505.1203,67.5541 1505.3828,67.5541 Q1505.6453,67.5541 1505.8094,67.74 Q1505.9734,67.926 1505.9734,68.3525 L1505.9734,70.19 L1500.3734,70.19 Q1499.9359,70.19 1499.75,70.026 Q1499.575,69.8619 1499.575,69.5885 Q1499.575,69.326 1499.7609,69.1619 Q1499.9469,68.9979 1500.3734,68.9979 L1500.5594,68.9979 L1500.5594,64.3385 L1500.3734,64.3385 Q1499.9359,64.3385 1499.75,64.1744 Q1499.575,64.0104 1499.575,63.7369 Q1499.575,63.4744 1499.75,63.3104 Q1499.9359,63.1463 1500.3734,63.1463 L1505.7109,63.1463 L1505.7109,64.9619 Q1505.7109,65.3885 1505.5469,65.5744 Q1505.3937,65.7494 1505.1203,65.7494 Q1504.8578,65.7494 1504.6937,65.5744 Q1504.5297,65.3885 1504.5297,64.9619 L1504.5297,64.3385 L1501.7516,64.3385 L1501.7516,66.0557 L1502.7906,66.0557 Q1502.7906,65.5963 1502.8781,65.465 Q1503.0641,65.1807 1503.3922,65.1807 Q1503.6547,65.1807 1503.8187,65.3666 Q1503.9828,65.5416 1503.9828,65.9682 L1503.9828,67.3463 Q1503.9828,67.7291 1503.8953,67.8604 Q1503.7094,68.1338 1503.3922,68.1338 Q1503.0641,68.1338 1502.8781,67.8494 Q1502.7906,67.7182 1502.7906,67.2479 L1501.7516,67.2479 Z " fill="#000000"/><text fill="#000000" font-family="sans-serif" font-size="8.4" font-style="italic" lengthAdjust="spacing" textLength="30.1" x="1521.45" y="58.0645">&#171;entity&#187;</text><text fill="#000000" font-family="sans-serif" font-size="8.4" font-style="italic" lengthAdjust="spacing" textLength="24.5" x="1524.25" y="69.2371">&#171;root&#187;</text><text fill="#000000" font-family="sans-serif" font-size="9.8" lengthAdjust="spacing" textLength="48.3" x="1512.35" y="81.9205">Application</text><line style="stroke:#181818;stroke-width:0.3499999999999999;" x1="1492.75" x2="1562.05" y1="87.8801" y2="87.8801"/><line style="stroke:#181818;stroke-width:0.3499999999999999;" x1="1492.75" x2="1562.05" y1="93.4801" y2="93.4801"/></g><!--class ApplicationDate--><g id="elem_ApplicationDate"><rect codeLine="45" fill="#F1F1F1" height="42.4074" id="ApplicationDate" rx="1.75" ry="1.75" style="stroke:#181818;stroke-width:0.3499999999999999;" width="91.7" x="1487.15" y="197.4"/><ellipse cx="1497.65" cy="213.0037" fill="#ADD1B2" rx="7.7" ry="7.7" style="stroke:#181818;stroke-width:0.6999999999999998;"/><path d="M1499.5859,210.1162 Q1499.6953,209.9631 1499.8266,209.8865 Q1499.9578,209.81 1500.1109,209.81 Q1500.3734,209.81 1500.5375,209.9959 Q1500.7016,210.1709 1500.7016,210.5975 L1500.7016,211.6146 Q1500.7016,212.0412 1500.5375,212.2271 Q1500.3734,212.4131 1500.1109,212.4131 Q1499.8703,212.4131 1499.7281,212.2709 Q1499.5859,212.1396 1499.5094,211.7787 Q1499.4766,211.5271 1499.3453,211.3959 Q1499.1156,211.1334 1498.6891,210.9803 Q1498.2625,210.8271 1497.825,210.8271 Q1497.2891,210.8271 1496.8406,211.0568 Q1496.4031,211.2865 1496.0531,211.8115 Q1495.7141,212.3365 1495.7141,213.0584 L1495.7141,213.824 Q1495.7141,214.6881 1496.3375,215.2678 Q1496.9609,215.8365 1498.0766,215.8365 Q1498.7328,215.8365 1499.1922,215.6615 Q1499.4656,215.5521 1499.7609,215.2459 Q1499.9469,215.06 1500.0453,215.0053 Q1500.1547,214.9506 1500.2969,214.9506 Q1500.5266,214.9506 1500.7016,215.1365 Q1500.8875,215.3115 1500.8875,215.5521 Q1500.8875,215.7928 1500.6469,216.0771 Q1500.2969,216.4818 1499.7391,216.7115 Q1498.9844,217.0287 1498.0766,217.0287 Q1497.0156,217.0287 1496.1734,216.5912 Q1495.4844,216.2412 1495.0031,215.4975 Q1494.5219,214.7428 1494.5219,213.8459 L1494.5219,213.0365 Q1494.5219,212.1068 1494.9484,211.3084 Q1495.3859,210.499 1496.1516,210.0725 Q1496.9172,209.635 1497.7812,209.635 Q1498.2953,209.635 1498.7437,209.7553 Q1499.2031,209.8646 1499.5859,210.1162 Z " fill="#000000"/><text fill="#000000" font-family="sans-serif" font-size="8.4" font-style="italic" lengthAdjust="spacing" textLength="32.2" x="1526" y="209.9645">&#171;Value&#187;</text><text fill="#000000" font-family="sans-serif" font-size="9.8" lengthAdjust="spacing" textLength="69.3" x="1507.45" y="222.6479">ApplicationDate</text><line style="stroke:#181818;stroke-width:0.3499999999999999;" x1="1487.85" x2="1578.15" y1="228.6074" y2="228.6074"/><line style="stroke:#181818;stroke-width:0.3499999999999999;" x1="1487.85" x2="1578.15" y1="234.2074" y2="234.2074"/></g><!--class ApplicationStatus--><g id="elem_ApplicationStatus"><rect codeLine="46" fill="#F1F1F1" height="94.5465" id="ApplicationStatus" rx="1.75" ry="1.75" style="stroke:#181818;stroke-width:0.3499999999999999;" width="98.7" x="1603.35" y="171.5"/><ellipse cx="1613.85" cy="187.1037" fill="#EB937F" rx="7.7" ry="7.7" style="stroke:#181818;stroke-width:0.6999999999999998;"/><path d="M1613.0516,187.6615 L1613.0516,189.4115 L1616.0812,189.4115 L1616.0812,188.7662 Q1616.0812,188.3396 1616.2453,188.1537 Q1616.4203,187.9678 1616.6828,187.9678 Q1616.9453,187.9678 1617.1094,188.1537 Q1617.2734,188.3396 1617.2734,188.7662 L1617.2734,190.6037 L1611.6734,190.6037 Q1611.2359,190.6037 1611.05,190.4396 Q1610.875,190.2756 1610.875,190.0021 Q1610.875,189.7396 1611.0609,189.5756 Q1611.2469,189.4115 1611.6734,189.4115 L1611.8594,189.4115 L1611.8594,184.7521 L1611.6734,184.7521 Q1611.2359,184.7521 1611.05,184.5881 Q1610.875,184.424 1610.875,184.1506 Q1610.875,183.8881 1611.05,183.724 Q1611.2359,183.56 1611.6734,183.56 L1617.0109,183.56 L1617.0109,185.3756 Q1617.0109,185.8021 1616.8469,185.9881 Q1616.6937,186.1631 1616.4203,186.1631 Q1616.1578,186.1631 1615.9937,185.9881 Q1615.8297,185.8021 1615.8297,185.3756 L1615.8297,184.7521 L1613.0516,184.7521 L1613.0516,186.4693 L1614.0906,186.4693 Q1614.0906,186.01 1614.1781,185.8787 Q1614.3641,185.5943 1614.6922,185.5943 Q1614.9547,185.5943 1615.1187,185.7803 Q1615.2828,185.9553 1615.2828,186.3818 L1615.2828,187.76 Q1615.2828,188.1428 1615.1953,188.274 Q1615.0094,188.5475 1614.6922,188.5475 Q1614.3641,188.5475 1614.1781,188.2631 Q1614.0906,188.1318 1614.0906,187.6615 L1613.0516,187.6615 Z " fill="#000000"/><text fill="#000000" font-family="sans-serif" font-size="8.4" font-style="italic" lengthAdjust="spacing" textLength="32.2" x="1645.7" y="184.0645">&#171;Value&#187;</text><text fill="#000000" font-family="sans-serif" font-size="9.8" lengthAdjust="spacing" textLength="76.3" x="1623.65" y="196.7479">ApplicationStatus</text><line style="stroke:#181818;stroke-width:0.3499999999999999;" x1="1604.05" x2="1701.35" y1="202.7074" y2="202.7074"/><text fill="#000000" font-family="sans-serif" font-size="9.8" lengthAdjust="spacing" textLength="42.7" x="1607.55" y="216.0826">Approved</text><text fill="#000000" font-family="sans-serif" font-size="9.8" lengthAdjust="spacing" textLength="31.5" x="1607.55" y="229.1174">Denied</text><text fill="#000000" font-family="sans-serif" font-size="9.8" lengthAdjust="spacing" textLength="71.4" x="1607.55" y="242.1521">WaitingInterview</text><text fill="#000000" font-family="sans-serif" font-size="9.8" lengthAdjust="spacing" textLength="47.6" x="1607.55" y="255.1869">InProgress</text><line style="stroke:#181818;stroke-width:0.3499999999999999;" x1="1604.05" x2="1701.35" y1="260.4465" y2="260.4465"/></g><!--class ANTLRValidator--><g id="elem_ANTLRValidator"><rect codeLine="56" fill="#F1F1F1" height="42.4074" id="ANTLRValidator" rx="1.75" ry="1.75" style="stroke:#181818;stroke-width:0.3499999999999999;" width="93.1" x="665.35" y="197.4"/><ellipse cx="675.85" cy="213.0037" fill="#ADD1B2" rx="7.7" ry="7.7" style="stroke:#181818;stroke-width:0.6999999999999998;"/><path d="M675.0516,213.5615 L675.0516,215.3115 L678.0812,215.3115 L678.0812,214.6662 Q678.0812,214.2396 678.2453,214.0537 Q678.4203,213.8678 678.6828,213.8678 Q678.9453,213.8678 679.1094,214.0537 Q679.2734,214.2396 679.2734,214.6662 L679.2734,216.5037 L673.6734,216.5037 Q673.2359,216.5037 673.05,216.3396 Q672.875,216.1756 672.875,215.9021 Q672.875,215.6396 673.0609,215.4756 Q673.2469,215.3115 673.6734,215.3115 L673.8594,215.3115 L673.8594,210.6521 L673.6734,210.6521 Q673.2359,210.6521 673.05,210.4881 Q672.875,210.324 672.875,210.0506 Q672.875,209.7881 673.05,209.624 Q673.2359,209.46 673.6734,209.46 L679.0109,209.46 L679.0109,211.2756 Q679.0109,211.7021 678.8469,211.8881 Q678.6937,212.0631 678.4203,212.0631 Q678.1578,212.0631 677.9937,211.8881 Q677.8297,211.7021 677.8297,211.2756 L677.8297,210.6521 L675.0516,210.6521 L675.0516,212.3693 L676.0906,212.3693 Q676.0906,211.91 676.1781,211.7787 Q676.3641,211.4943 676.6922,211.4943 Q676.9547,211.4943 677.1187,211.6803 Q677.2828,211.8553 677.2828,212.2818 L677.2828,213.66 Q677.2828,214.0428 677.1953,214.174 Q677.0094,214.4475 676.6922,214.4475 Q676.3641,214.4475 676.1781,214.1631 Q676.0906,214.0318 676.0906,213.5615 L675.0516,213.5615 Z " fill="#000000"/><text fill="#000000" font-family="sans-serif" font-size="8.4" font-style="italic" lengthAdjust="spacing" textLength="37.1" x="702.45" y="209.9645">&#171;service&#187;</text><text fill="#000000" font-family="sans-serif" font-size="9.8" lengthAdjust="spacing" textLength="70.7" x="685.65" y="222.6479">ANTLRValidator</text><line style="stroke:#181818;stroke-width:0.3499999999999999;" x1="666.05" x2="757.75" y1="228.6074" y2="228.6074"/><line style="stroke:#181818;stroke-width:0.3499999999999999;" x1="666.05" x2="757.75" y1="234.2074" y2="234.2074"/></g><!--class Candidate--><g id="elem_Candidate"><rect codeLine="61" fill="#F1F1F1" height="53.5801" id="Candidate" rx="1.75" ry="1.75" style="stroke:#181818;stroke-width:0.3499999999999999;" width="67.9" x="1377.25" y="191.8"/><ellipse cx="1387.75" cy="212.99" fill="#ADD1B2" rx="7.7" ry="7.7" style="stroke:#181818;stroke-width:0.6999999999999998;"/><path d="M1386.9516,213.5479 L1386.9516,215.2979 L1389.9812,215.2979 L1389.9812,214.6525 Q1389.9812,214.226 1390.1453,214.04 Q1390.3203,213.8541 1390.5828,213.8541 Q1390.8453,213.8541 1391.0094,214.04 Q1391.1734,214.226 1391.1734,214.6525 L1391.1734,216.49 L1385.5734,216.49 Q1385.1359,216.49 1384.95,216.326 Q1384.775,216.1619 1384.775,215.8885 Q1384.775,215.626 1384.9609,215.4619 Q1385.1469,215.2979 1385.5734,215.2979 L1385.7594,215.2979 L1385.7594,210.6385 L1385.5734,210.6385 Q1385.1359,210.6385 1384.95,210.4744 Q1384.775,210.3104 1384.775,210.0369 Q1384.775,209.7744 1384.95,209.6104 Q1385.1359,209.4463 1385.5734,209.4463 L1390.9109,209.4463 L1390.9109,211.2619 Q1390.9109,211.6885 1390.7469,211.8744 Q1390.5937,212.0494 1390.3203,212.0494 Q1390.0578,212.0494 1389.8937,211.8744 Q1389.7297,211.6885 1389.7297,211.2619 L1389.7297,210.6385 L1386.9516,210.6385 L1386.9516,212.3557 L1387.9906,212.3557 Q1387.9906,211.8963 1388.0781,211.765 Q1388.2641,211.4807 1388.5922,211.4807 Q1388.8547,211.4807 1389.0187,211.6666 Q1389.1828,211.8416 1389.1828,212.2682 L1389.1828,213.6463 Q1389.1828,214.0291 1389.0953,214.1604 Q1388.9094,214.4338 1388.5922,214.4338 Q1388.2641,214.4338 1388.0781,214.1494 Q1387.9906,214.0182 1387.9906,213.5479 L1386.9516,213.5479 Z " fill="#000000"/><text fill="#000000" font-family="sans-serif" font-size="8.4" font-style="italic" lengthAdjust="spacing" textLength="30.1" x="1405.25" y="204.3645">&#171;entity&#187;</text><text fill="#000000" font-family="sans-serif" font-size="8.4" font-style="italic" lengthAdjust="spacing" textLength="24.5" x="1408.05" y="215.5371">&#171;root&#187;</text><text fill="#000000" font-family="sans-serif" font-size="9.8" lengthAdjust="spacing" textLength="45.5" x="1397.55" y="228.2205">Candidate</text><line style="stroke:#181818;stroke-width:0.3499999999999999;" x1="1377.95" x2="1444.45" y1="234.1801" y2="234.1801"/><line style="stroke:#181818;stroke-width:0.3499999999999999;" x1="1377.95" x2="1444.45" y1="239.7801" y2="239.7801"/></g><!--class PhoneNumber--><g id="elem_PhoneNumber"><rect codeLine="62" fill="#F1F1F1" height="42.4074" id="PhoneNumber" rx="1.75" ry="1.75" style="stroke:#181818;stroke-width:0.3499999999999999;" width="85.4" x="1362.2" y="359.1"/><ellipse cx="1372.7" cy="374.7037" fill="#ADD1B2" rx="7.7" ry="7.7" style="stroke:#181818;stroke-width:0.6999999999999998;"/><path d="M1374.6359,371.8162 Q1374.7453,371.6631 1374.8766,371.5865 Q1375.0078,371.51 1375.1609,371.51 Q1375.4234,371.51 1375.5875,371.6959 Q1375.7516,371.8709 1375.7516,372.2975 L1375.7516,373.3146 Q1375.7516,373.7412 1375.5875,373.9271 Q1375.4234,374.1131 1375.1609,374.1131 Q1374.9203,374.1131 1374.7781,373.9709 Q1374.6359,373.8396 1374.5594,373.4787 Q1374.5266,373.2271 1374.3953,373.0959 Q1374.1656,372.8334 1373.7391,372.6803 Q1373.3125,372.5271 1372.875,372.5271 Q1372.3391,372.5271 1371.8906,372.7568 Q1371.4531,372.9865 1371.1031,373.5115 Q1370.7641,374.0365 1370.7641,374.7584 L1370.7641,375.524 Q1370.7641,376.3881 1371.3875,376.9678 Q1372.0109,377.5365 1373.1266,377.5365 Q1373.7828,377.5365 1374.2422,377.3615 Q1374.5156,377.2521 1374.8109,376.9459 Q1374.9969,376.76 1375.0953,376.7053 Q1375.2047,376.6506 1375.3469,376.6506 Q1375.5766,376.6506 1375.7516,376.8365 Q1375.9375,377.0115 1375.9375,377.2521 Q1375.9375,377.4928 1375.6969,377.7771 Q1375.3469,378.1818 1374.7891,378.4115 Q1374.0344,378.7287 1373.1266,378.7287 Q1372.0656,378.7287 1371.2234,378.2912 Q1370.5344,377.9412 1370.0531,377.1975 Q1369.5719,376.4428 1369.5719,375.5459 L1369.5719,374.7365 Q1369.5719,373.8068 1369.9984,373.0084 Q1370.4359,372.199 1371.2016,371.7725 Q1371.9672,371.335 1372.8312,371.335 Q1373.3453,371.335 1373.7937,371.4553 Q1374.2531,371.5646 1374.6359,371.8162 Z " fill="#000000"/><text fill="#000000" font-family="sans-serif" font-size="8.4" font-style="italic" lengthAdjust="spacing" textLength="32.2" x="1397.9" y="371.6645">&#171;Value&#187;</text><text fill="#000000" font-family="sans-serif" font-size="9.8" lengthAdjust="spacing" textLength="63" x="1382.5" y="384.3479">PhoneNumber</text><line style="stroke:#181818;stroke-width:0.3499999999999999;" x1="1362.9" x2="1446.9" y1="390.3074" y2="390.3074"/><line style="stroke:#181818;stroke-width:0.3499999999999999;" x1="1362.9" x2="1446.9" y1="395.9074" y2="395.9074"/></g><!--class CustomerManager--><g id="elem_CustomerManager"><rect codeLine="67" fill="#F1F1F1" height="53.5801" id="CustomerManager" rx="1.75" ry="1.75" style="stroke:#181818;stroke-width:0.3499999999999999;" width="104.3" x="42.35" y="191.8"/><ellipse cx="52.85" cy="212.99" fill="#ADD1B2" rx="7.7" ry="7.7" style="stroke:#181818;stroke-width:0.6999999999999998;"/><path d="M52.0516,213.5479 L52.0516,215.2979 L55.0812,215.2979 L55.0812,214.6525 Q55.0812,214.226 55.2453,214.04 Q55.4203,213.8541 55.6828,213.8541 Q55.9453,213.8541 56.1094,214.04 Q56.2734,214.226 56.2734,214.6525 L56.2734,216.49 L50.6734,216.49 Q50.2359,216.49 50.05,216.326 Q49.875,216.1619 49.875,215.8885 Q49.875,215.626 50.0609,215.4619 Q50.2469,215.2979 50.6734,215.2979 L50.8594,215.2979 L50.8594,210.6385 L50.6734,210.6385 Q50.2359,210.6385 50.05,210.4744 Q49.875,210.3104 49.875,210.0369 Q49.875,209.7744 50.05,209.6104 Q50.2359,209.4463 50.6734,209.4463 L56.0109,209.4463 L56.0109,211.2619 Q56.0109,211.6885 55.8469,211.8744 Q55.6937,212.0494 55.4203,212.0494 Q55.1578,212.0494 54.9937,211.8744 Q54.8297,211.6885 54.8297,211.2619 L54.8297,210.6385 L52.0516,210.6385 L52.0516,212.3557 L53.0906,212.3557 Q53.0906,211.8963 53.1781,211.765 Q53.3641,211.4807 53.6922,211.4807 Q53.9547,211.4807 54.1187,211.6666 Q54.2828,211.8416 54.2828,212.2682 L54.2828,213.6463 Q54.2828,214.0291 54.1953,214.1604 Q54.0094,214.4338 53.6922,214.4338 Q53.3641,214.4338 53.1781,214.1494 Q53.0906,214.0182 53.0906,213.5479 L52.0516,213.5479 Z " fill="#000000"/><text fill="#000000" font-family="sans-serif" font-size="8.4" font-style="italic" lengthAdjust="spacing" textLength="30.1" x="88.55" y="204.3645">&#171;entity&#187;</text><text fill="#000000" font-family="sans-serif" font-size="8.4" font-style="italic" lengthAdjust="spacing" textLength="24.5" x="91.35" y="215.5371">&#171;root&#187;</text><text fill="#000000" font-family="sans-serif" font-size="9.8" lengthAdjust="spacing" textLength="81.9" x="62.65" y="228.2205">CustomerManager</text><line style="stroke:#181818;stroke-width:0.3499999999999999;" x1="43.05" x2="145.95" y1="234.1801" y2="234.1801"/><line style="stroke:#181818;stroke-width:0.3499999999999999;" x1="43.05" x2="145.95" y1="239.7801" y2="239.7801"/></g><!--link JobRequirements to JobRequirementsPlugin--><g id="link_JobRequirements_JobRequirementsPlugin"><path codeLine="72" d="M709.541,407.617 C707.637,429.016 705.3714,454.5266 703.6144,474.2106 " fill="none" id="JobRequirements-to-JobRequirementsPlugin" style="stroke:#181818;stroke-width:0.6999999999999998;"/><polygon fill="#181818" points="703.241,478.394,706.59,472.3679,703.5522,474.9079,701.0122,471.87,703.241,478.394" style="stroke:#181818;stroke-width:0.6999999999999998;"/><text fill="#000000" font-family="sans-serif" font-size="9.1" lengthAdjust="spacing" textLength="4.9" x="703.9046" y="422.548">1</text><text fill="#000000" font-family="sans-serif" font-size="9.1" lengthAdjust="spacing" textLength="4.9" x="698.2154" y="470.7228">1</text></g><!--link ANTLRValidator to JobRequirements--><g id="link_ANTLRValidator_JobRequirements"><path codeLine="74" d="M711.9,240.408 C711.9,269.43 711.9,317.653 711.9,349.265 " fill="none" id="ANTLRValidator-to-JobRequirements" style="stroke:#181818;stroke-width:0.6999999999999998;"/><polygon fill="#181818" points="711.9,353.465,714.7,347.165,711.9,349.965,709.1,347.165,711.9,353.465" style="stroke:#181818;stroke-width:0.6999999999999998;"/><text fill="#000000" font-family="sans-serif" font-size="9.1" lengthAdjust="spacing" textLength="35" x="712.6" y="298.9198">validates</text></g><!--link JobOpening to JobTitle--><g id="link_JobOpening_JobTitle"><path codeLine="76" d="M945.924,219.807 C1013.789,222.32 1157.296,236.348 1249.5,307.3 C1266.412,320.313 1275.852,338.5681 1282.061,354.9691 " fill="none" id="JobOpening-to-JobTitle" style="stroke:#181818;stroke-width:0.6999999999999998;"/><polygon fill="#181818" points="1283.548,358.897,1283.9361,352.0137,1282.3088,355.6237,1278.6988,353.9964,1283.548,358.897" style="stroke:#181818;stroke-width:0.6999999999999998;"/><text fill="#000000" font-family="sans-serif" font-size="9.1" lengthAdjust="spacing" textLength="4.9" x="951.3627" y="217.0753">1</text><text fill="#000000" font-family="sans-serif" font-size="9.1" lengthAdjust="spacing" textLength="4.9" x="1276.7913" y="351.1955">1</text></g><!--link JobOpening to ContractType--><g id="link_JobOpening_ContractType"><path codeLine="77" d="M945.7,240.289 C973.098,256.452 1010.1,280.56 1038.1,307.3 C1054.312,322.784 1066.9335,340.0568 1076.9435,355.3938 " fill="none" id="JobOpening-to-ContractType" style="stroke:#181818;stroke-width:0.6999999999999998;"/><polygon fill="#181818" points="1079.239,358.911,1078.1405,352.1049,1077.326,355.98,1073.4509,355.1656,1079.239,358.911" style="stroke:#181818;stroke-width:0.6999999999999998;"/><text fill="#000000" font-family="sans-serif" font-size="9.1" lengthAdjust="spacing" textLength="4.9" x="951.3602" y="240.4073">1</text><text fill="#000000" font-family="sans-serif" font-size="9.1" lengthAdjust="spacing" textLength="4.9" x="1071.2017" y="351.2124">1</text></g><!--link JobOpening to WorkRegime--><g id="link_JobOpening_WorkRegime"><path codeLine="78" d="M945.903,226.226 C995.904,236.656 1084.629,260.54 1145.9,307.3 C1163.967,321.09 1176.3187,339.2628 1185.3067,355.3628 " fill="none" id="JobOpening-to-WorkRegime" style="stroke:#181818;stroke-width:0.6999999999999998;"/><polygon fill="#181818" points="1187.354,359.03,1186.7279,352.1643,1185.6479,355.974,1181.8383,354.894,1187.354,359.03" style="stroke:#181818;stroke-width:0.6999999999999998;"/><text fill="#000000" font-family="sans-serif" font-size="9.1" lengthAdjust="spacing" textLength="4.9" x="951.3389" y="224.3569">1</text><text fill="#000000" font-family="sans-serif" font-size="9.1" lengthAdjust="spacing" textLength="4.9" x="1179.8148" y="351.3559">1</text></g><!--link JobOpening to NumberOfVacancies--><g id="link_JobOpening_NumberOfVacancies"><path codeLine="79" d="M920.437,252.084 C932.715,284.032 949.5483,327.8236 959.9783,354.9626 " fill="none" id="JobOpening-to-NumberOfVacancies" style="stroke:#181818;stroke-width:0.6999999999999998;"/><polygon fill="#181818" points="961.485,358.883,961.8386,351.9979,960.2294,355.616,956.6113,354.0068,961.485,358.883" style="stroke:#181818;stroke-width:0.6999999999999998;"/><text fill="#000000" font-family="sans-serif" font-size="9.1" lengthAdjust="spacing" textLength="4.9" x="916.9555" y="267.4344">1</text><text fill="#000000" font-family="sans-serif" font-size="9.1" lengthAdjust="spacing" textLength="4.9" x="954.4266" y="351.1786">1</text></g><!--link JobOpening to JobRequirements--><g id="link_JobOpening_JobRequirements"><path codeLine="80" d="M869.855,247.436 C847.231,264.355 818.146,286.594 793.1,307.3 C775.187,322.105 758.8546,336.5825 743.4826,350.5685 " fill="none" id="JobOpening-to-JobRequirements" style="stroke:#181818;stroke-width:0.6999999999999998;"/><polygon fill="#181818" points="740.376,353.395,746.9202,351.2263,742.9648,351.0396,743.1516,347.0842,740.376,353.395" style="stroke:#181818;stroke-width:0.6999999999999998;"/><text fill="#000000" font-family="sans-serif" font-size="9.1" lengthAdjust="spacing" textLength="4.9" x="859.5135" y="248.4169">1</text><text fill="#000000" font-family="sans-serif" font-size="9.1" lengthAdjust="spacing" textLength="4.9" x="739.9492" y="345.6871">1</text></g><!--link JobOpening to JobReference--><g id="link_JobOpening_JobReference"><path codeLine="81" d="M895.363,252.084 C883.085,284.032 866.2517,327.8236 855.8217,354.9626 " fill="none" id="JobOpening-to-JobReference" style="stroke:#181818;stroke-width:0.6999999999999998;"/><polygon fill="#181818" points="854.315,358.883,859.1887,354.0068,855.5706,355.616,853.9614,351.9979,854.315,358.883" style="stroke:#181818;stroke-width:0.6999999999999998;"/><text fill="#000000" font-family="sans-serif" font-size="9.1" lengthAdjust="spacing" textLength="4.9" x="888.3555" y="267.4344">1</text><text fill="#000000" font-family="sans-serif" font-size="9.1" lengthAdjust="spacing" textLength="4.9" x="850.5628" y="351.1786">1</text></g><!--link JobOpeningProcess to JobOpening--><g id="link_JobOpeningProcess_JobOpening"><path codeLine="83" d="M572.327,75.026 C628.243,78.694 715.722,89.404 784.7,120.4 C819.427,136.003 849.8353,160.7187 873.0963,182.6077 " fill="none" id="JobOpeningProcess-to-JobOpening" style="stroke:#181818;stroke-width:0.6999999999999998;"/><polygon fill="#181818" points="876.155,185.486,873.4858,179.1295,873.6061,183.0874,869.6481,183.2077,876.155,185.486" style="stroke:#181818;stroke-width:0.6999999999999998;"/><text fill="#000000" font-family="sans-serif" font-size="9.1" lengthAdjust="spacing" textLength="14.7" x="807.8" y="130.9198">has</text><text fill="#000000" font-family="sans-serif" font-size="9.1" lengthAdjust="spacing" textLength="4.9" x="577.872" y="72.6479">1</text><text fill="#000000" font-family="sans-serif" font-size="9.1" lengthAdjust="spacing" textLength="14" x="872.5206" y="177.6528">1..*</text></g><!--link JobOpeningProcess to JobOpeningPhase--><g id="link_JobOpeningProcess_JobOpeningPhase"><path codeLine="86" d="M505.568,93.912 C490.098,123.018 464.2582,171.6553 450.2022,198.1013 " fill="none" id="JobOpeningProcess-to-JobOpeningPhase" style="stroke:#181818;stroke-width:0.6999999999999998;"/><polygon fill="#181818" points="448.231,201.81,453.6602,197.5611,449.8736,198.7194,448.7153,194.9328,448.231,201.81" style="stroke:#181818;stroke-width:0.6999999999999998;"/><text fill="#000000" font-family="sans-serif" font-size="9.1" lengthAdjust="spacing" textLength="4.9" x="498.098" y="109.0045">1</text><text fill="#000000" font-family="sans-serif" font-size="9.1" lengthAdjust="spacing" textLength="4.9" x="444.8376" y="194.1752">1</text></g><!--link JobOpeningPhase to JobOpeningPhases--><g id="link_JobOpeningPhase_JobOpeningPhases"><path codeLine="87" d="M411.103,235.62 C383.32,252 340.522,278.908 307.3,307.3 C300.419,313.18 296.4858,316.7403 289.8988,323.4253 " fill="none" id="JobOpeningPhase-to-JobOpeningPhases" style="stroke:#181818;stroke-width:0.6999999999999998;"/><polygon fill="#181818" points="286.951,326.417,293.3672,323.8947,289.4075,323.9239,289.3783,319.9642,286.951,326.417" style="stroke:#181818;stroke-width:0.6999999999999998;"/><text fill="#000000" font-family="sans-serif" font-size="9.1" lengthAdjust="spacing" textLength="4.9" x="398.6597" y="251.027">1</text><text fill="#000000" font-family="sans-serif" font-size="9.1" lengthAdjust="spacing" textLength="4.9" x="286.2163" y="318.6398">1</text></g><!--link JobOpeningPhase to StartDate--><g id="link_JobOpeningPhase_StartDate"><path codeLine="88" d="M430.731,235.704 C414.743,264.992 383.1271,322.9054 365.4801,355.2384 " fill="none" id="JobOpeningPhase-to-StartDate" style="stroke:#181818;stroke-width:0.6999999999999998;"/><polygon fill="#181818" points="363.468,358.925,368.944,354.7365,365.1448,355.8528,364.0284,352.0536,363.468,358.925" style="stroke:#181818;stroke-width:0.6999999999999998;"/><text fill="#000000" font-family="sans-serif" font-size="9.1" lengthAdjust="spacing" textLength="4.9" x="423.2135" y="250.8439">1</text><text fill="#000000" font-family="sans-serif" font-size="9.1" lengthAdjust="spacing" textLength="15.4" x="348.8245" y="351.2293">0..1</text></g><!--link JobOpeningPhase to EndDate--><g id="link_JobOpeningPhase_EndDate"><path codeLine="89" d="M439.6,235.704 C439.6,264.992 439.6,322.392 439.6,354.725 " fill="none" id="JobOpeningPhase-to-EndDate" style="stroke:#181818;stroke-width:0.6999999999999998;"/><polygon fill="#181818" points="439.6,358.925,442.4,352.625,439.6,355.425,436.8,352.625,439.6,358.925" style="stroke:#181818;stroke-width:0.6999999999999998;"/><text fill="#000000" font-family="sans-serif" font-size="9.1" lengthAdjust="spacing" textLength="4.9" x="434.1334" y="250.8439">1</text><text fill="#000000" font-family="sans-serif" font-size="9.1" lengthAdjust="spacing" textLength="15.4" x="422.6119" y="351.2293">0..1</text></g><!--link JobOpeningPhase to JobOpeningStatus--><g id="link_JobOpeningPhase_JobOpeningStatus"><path codeLine="90" d="M450.457,235.704 C467.635,261.415 499.1118,308.5187 521.7288,342.3707 " fill="none" id="JobOpeningPhase-to-JobOpeningStatus" style="stroke:#181818;stroke-width:0.6999999999999998;"/><polygon fill="#181818" points="524.062,345.863,522.8903,339.0691,522.1176,342.9528,518.234,342.1801,524.062,345.863" style="stroke:#181818;stroke-width:0.6999999999999998;"/><text fill="#000000" font-family="sans-serif" font-size="9.1" lengthAdjust="spacing" textLength="4.9" x="447.5011" y="250.8439">1</text><text fill="#000000" font-family="sans-serif" font-size="9.1" lengthAdjust="spacing" textLength="4.9" x="515.7908" y="338.3576">1</text></g><!--link Candidate to PhoneNumber--><g id="link_Candidate_PhoneNumber"><path codeLine="92" d="M1410.164,245.742 C1408.918,277.452 1407.0183,325.8953 1405.8773,354.8613 " fill="none" id="Candidate-to-PhoneNumber" style="stroke:#181818;stroke-width:0.6999999999999998;"/><polygon fill="#181818" points="1405.712,359.058,1408.7578,352.8731,1405.8498,355.5607,1403.1621,352.6527,1405.712,359.058" style="stroke:#181818;stroke-width:0.6999999999999998;"/><text fill="#000000" font-family="sans-serif" font-size="9.1" lengthAdjust="spacing" textLength="14.7" x="1409.1" y="298.9198">has</text><text fill="#000000" font-family="sans-serif" font-size="9.1" lengthAdjust="spacing" textLength="4.9" x="1404.7084" y="260.8537">1</text><text fill="#000000" font-family="sans-serif" font-size="9.1" lengthAdjust="spacing" textLength="4.9" x="1400.4537" y="351.051">1</text></g><!--link CustomerManager to JobOpening--><g id="link_CustomerManager_JobOpening"><path codeLine="94" d="M112.987,191.639 C127.421,173.04 149.31,149.877 175,139.3 C233.793,115.087 683.669,137.977 747.25,137.9 C761.25,137.886 765.296,134.036 778.75,137.9 C812.308,147.539 842.2393,166.2159 866.6133,184.4859 " fill="none" id="CustomerManager-to-JobOpening" style="stroke:#181818;stroke-width:0.6999999999999998;"/><polygon fill="#181818" points="869.974,187.005,866.6123,180.9859,867.1734,184.9058,863.2536,185.4669,869.974,187.005" style="stroke:#181818;stroke-width:0.6999999999999998;"/><text fill="#000000" font-family="sans-serif" font-size="9.1" lengthAdjust="spacing" textLength="30.1" x="747.95" y="130.9198">creates</text><text fill="#000000" font-family="sans-serif" font-size="9.1" lengthAdjust="spacing" textLength="4.9" x="110.8434" y="183.9215">1</text><text fill="#000000" font-family="sans-serif" font-size="9.1" lengthAdjust="spacing" textLength="14" x="850.4986" y="180.3362">0..*</text></g><!--link Application to ApplicationDate--><g id="link_Application_ApplicationDate"><path codeLine="97" d="M1528.429,99.729 C1529.514,127.834 1531.0386,167.3871 1532.0326,193.0701 " fill="none" id="Application-to-ApplicationDate" style="stroke:#181818;stroke-width:0.6999999999999998;"/><polygon fill="#181818" points="1532.195,197.267,1534.7493,190.8634,1532.0596,193.7696,1529.1535,191.08,1532.195,197.267" style="stroke:#181818;stroke-width:0.6999999999999998;"/><text fill="#000000" font-family="sans-serif" font-size="9.1" lengthAdjust="spacing" textLength="4.9" x="1523.3203" y="114.4678">1</text><text fill="#000000" font-family="sans-serif" font-size="9.1" lengthAdjust="spacing" textLength="4.9" x="1526.6237" y="189.5799">1</text></g><!--link Application to ApplicationStatus--><g id="link_Application_ApplicationStatus"><path codeLine="99" d="M1554.077,99.596 C1565.732,111.475 1579.389,125.818 1591.1,139.3 C1599.92,149.457 1606.4504,157.3776 1614.8854,168.0946 " fill="none" id="Application-to-ApplicationStatus" style="stroke:#181818;stroke-width:0.6999999999999998;"/><polygon fill="#181818" points="1617.483,171.395,1615.7868,164.7127,1615.3183,168.6447,1611.3863,168.1762,1617.483,171.395" style="stroke:#181818;stroke-width:0.6999999999999998;"/><text fill="#000000" font-family="sans-serif" font-size="9.1" lengthAdjust="spacing" textLength="4.9" x="1552.8868" y="114.5237">1</text><text fill="#000000" font-family="sans-serif" font-size="9.1" lengthAdjust="spacing" textLength="4.9" x="1608.4632" y="163.4932">1</text></g><!--link Application to Candidate--><g id="link_Application_Candidate"><path codeLine="100" d="M1499.106,99.596 C1492.533,106.176 1485.729,113.372 1479.8,120.4 C1460.494,143.283 1443.424,167.9291 1430.215,188.1241 " fill="none" id="Application-to-Candidate" style="stroke:#181818;stroke-width:0.6999999999999998;"/><polygon fill="#181818" points="1427.916,191.639,1433.7078,187.8993,1429.8318,188.7099,1429.0212,184.834,1427.916,191.639" style="stroke:#181818;stroke-width:0.6999999999999998;"/><text fill="#000000" font-family="sans-serif" font-size="9.1" lengthAdjust="spacing" textLength="42" x="1480.5" y="130.9198">belongs to</text><text fill="#000000" font-family="sans-serif" font-size="9.1" lengthAdjust="spacing" textLength="4.9" x="1489.4983" y="114.5237">1</text><text fill="#000000" font-family="sans-serif" font-size="9.1" lengthAdjust="spacing" textLength="4.9" x="1425.468" y="183.9215">1</text></g><!--link Application to JobOpening--><g id="link_Application_JobOpening"><path codeLine="101" d="M1491.868,81.459 C1383.438,106.82 1061.4886,182.1285 949.9156,208.2245 " fill="none" id="Application-to-JobOpening" style="stroke:#181818;stroke-width:0.6999999999999998;"/><polygon fill="#181818" points="945.826,209.181,952.5981,210.4726,949.234,208.3839,951.3228,205.0198,945.826,209.181" style="stroke:#181818;stroke-width:0.6999999999999998;"/><text fill="#000000" font-family="sans-serif" font-size="9.1" lengthAdjust="spacing" textLength="14.7" x="1309.7" y="130.9198">has</text><text fill="#000000" font-family="sans-serif" font-size="9.1" lengthAdjust="spacing" textLength="4.9" x="1481.6268" y="79.8458">1</text><text fill="#000000" font-family="sans-serif" font-size="9.1" lengthAdjust="spacing" textLength="4.9" x="951.2515" y="205.0214">1</text></g><!--SRC=[ZPJDRk8m58NtVWgBvKX5Crk48bN0egCE843jsfZRr2AnKzkXGXNlFeuTmesJq6vQ6t- -FyStnno5B9XcEIqOFx8KjlQS0TN0BPDf1eJKlzE_QhygG0gPFgQfXfHPe5-4Kf1Ms3CwfjEfLiecYLk4moIfG4eFOBWMXHLAkls5k3yyOyPKbpVm1Xea1tVhXMKbkFjVbuPOblaUzEhjXN4ckG3JZysKj9fnkpiNq0kyAdtSG2fob0STkq9smcPH4PS-5TPQSJ2cBKOJfGsvS8jQYIgULwtCCVVE3EufwFLO59dWhDQBqYtNu76_Uv8Mz4d0Ps0boyv66B_PW2apsz4O9qDDRotJTkvQc4vF7KKMyX0VTSjt4MnPbN_2vQ_MYwLVp9vNsyNSbzEMSWCVfT2Gkp4nGrE5cPx9ektNm_GwArCXuvTiyYDrUtEZSvIkAG4dHcWbLZoRNYt4D78rrFMvjJh1mM_cJjXw-Sg4TIAtt_j9kjboLHjprRLfp4KLXv2eki3RNIrtpvkQKDhLO0BJrMV6vA6Ye547XMaEQPysI9hrkv8GlbxymRKIbSQg7FG_9jrMzwPh8xqvQnL8D0Lqz6T47nuI_xztGWY9HAdeECg4di8v69_YQdPHTEyUG-VOdOQOcq4D4Hqhl5CERk4kLfilRktgNJTsFFurmaO_eSv9oFqxezXuIBI_nvfX-FTux9QDTNq7rZRsm-JX0oNaDkMOGoDzbI2Qpu27vB5apiF3417a2AtuaPly2Amh7Y9lZKpe7Z8bKqEj6iIxR_mV]--></g></svg>