<?xml version="1.0" encoding="us-ascii" standalone="no"?><svg xmlns="http://www.w3.org/2000/svg" xmlns:xlink="http://www.w3.org/1999/xlink" contentStyleType="text/css" height="678px" preserveAspectRatio="none" style="width:1729px;height:678px;background:#FFFFFF;" version="1.1" viewBox="0 0 1729 678" width="1729px" zoomAndPan="magnify"><defs/><g><!--cluster InterviewModelAggregate--><g id="cluster_InterviewModelAggregate"><rect fill="none" height="270" rx="2.5" ry="2.5" style="stroke:#000000;stroke-width:1.5;" width="199" x="7" y="402"/><text fill="#000000" font-family="sans-serif" font-size="14" font-weight="bold" lengthAdjust="spacing" textLength="183" x="15" y="419.1074">InterviewModelAggregate</text></g><!--cluster ApplicationAggregate--><g id="cluster_ApplicationAggregate"><rect fill="none" height="344" rx="2.5" ry="2.5" style="stroke:#000000;stroke-width:1.5;" width="340" x="831" y="7"/><text fill="#000000" font-family="sans-serif" font-size="14" font-weight="bold" lengthAdjust="spacing" textLength="151" x="925.5" y="24.1074">ApplicationAggregate</text></g><!--cluster ValidationService--><g id="cluster_ValidationService"><rect fill="none" height="114" rx="2.5" ry="2.5" style="stroke:#000000;stroke-width:1.5;" width="166" x="415" y="15"/><text fill="#000000" font-family="sans-serif" font-size="14" font-weight="bold" lengthAdjust="spacing" textLength="123" x="436.5" y="32.1074">ValidationService</text></g><!--cluster CandidateAggregate--><g id="cluster_CandidateAggregate"><rect fill="none" height="332" rx="2.5" ry="2.5" style="stroke:#000000;stroke-width:1.5;" width="160" x="1195" y="192"/><text fill="#000000" font-family="sans-serif" font-size="14" font-weight="bold" lengthAdjust="spacing" textLength="144" x="1203" y="209.1074">CandidateAggregate</text></g><!--cluster InterviewAggregate--><g id="cluster_InterviewAggregate"><rect fill="none" height="332" rx="2.5" ry="2.5" style="stroke:#000000;stroke-width:1.5;" width="577" x="230" y="192"/><text fill="#000000" font-family="sans-serif" font-size="14" font-weight="bold" lengthAdjust="spacing" textLength="139" x="449" y="209.1074">InterviewAggregate</text></g><!--cluster UserAggregate--><g id="cluster_UserAggregate"><rect fill="none" height="270" rx="2.5" ry="2.5" style="stroke:#000000;stroke-width:1.5;" width="344" x="1379" y="402"/><text fill="#000000" font-family="sans-serif" font-size="14" font-weight="bold" lengthAdjust="spacing" textLength="106" x="1498" y="419.1074">UserAggregate</text></g><!--class InterviewModel--><g id="elem_InterviewModel"><rect codeLine="5" fill="#F1F1F1" height="76.543" id="InterviewModel" rx="2.5" ry="2.5" style="stroke:#181818;stroke-width:0.5;" width="125" x="59.5" y="439"/><ellipse cx="74.5" cy="469.2715" fill="#ADD1B2" rx="11" ry="11" style="stroke:#181818;stroke-width:1.0;"/><path d="M73.3594,470.0684 L73.3594,472.5684 L77.6875,472.5684 L77.6875,471.6465 Q77.6875,471.0371 77.9219,470.7715 Q78.1719,470.5059 78.5469,470.5059 Q78.9219,470.5059 79.1563,470.7715 Q79.3906,471.0371 79.3906,471.6465 L79.3906,474.2715 L71.3906,474.2715 Q70.7656,474.2715 70.5,474.0371 Q70.25,473.8027 70.25,473.4121 Q70.25,473.0371 70.5156,472.8027 Q70.7813,472.5684 71.3906,472.5684 L71.6563,472.5684 L71.6563,465.9121 L71.3906,465.9121 Q70.7656,465.9121 70.5,465.6777 Q70.25,465.4434 70.25,465.0527 Q70.25,464.6777 70.5,464.4434 Q70.7656,464.209 71.3906,464.209 L79.0156,464.209 L79.0156,466.8027 Q79.0156,467.4121 78.7813,467.6777 Q78.5625,467.9277 78.1719,467.9277 Q77.7969,467.9277 77.5625,467.6777 Q77.3281,467.4121 77.3281,466.8027 L77.3281,465.9121 L73.3594,465.9121 L73.3594,468.3652 L74.8438,468.3652 Q74.8438,467.709 74.9688,467.5215 Q75.2344,467.1152 75.7031,467.1152 Q76.0781,467.1152 76.3125,467.3809 Q76.5469,467.6309 76.5469,468.2402 L76.5469,470.209 Q76.5469,470.7559 76.4219,470.9434 Q76.1563,471.334 75.7031,471.334 Q75.2344,471.334 74.9688,470.9277 Q74.8438,470.7402 74.8438,470.0684 L73.3594,470.0684 Z " fill="#000000"/><text fill="#000000" font-family="sans-serif" font-size="12" font-style="italic" lengthAdjust="spacing" textLength="35" x="117.5" y="456.9492">&#171;root&#187;</text><text fill="#000000" font-family="sans-serif" font-size="12" font-style="italic" lengthAdjust="spacing" textLength="43" x="113.5" y="472.9102">&#171;entity&#187;</text><text fill="#000000" font-family="sans-serif" font-size="14" lengthAdjust="spacing" textLength="93" x="88.5" y="491.0293">InterviewModel</text><line style="stroke:#181818;stroke-width:0.5;" x1="60.5" x2="183.5" y1="499.543" y2="499.543"/><line style="stroke:#181818;stroke-width:0.5;" x1="60.5" x2="183.5" y1="507.543" y2="507.543"/></g><!--class InterviewModelPlugin--><g id="elem_InterviewModelPlugin"><rect codeLine="6" fill="#F1F1F1" height="60.582" id="InterviewModelPlugin" rx="2.5" ry="2.5" style="stroke:#181818;stroke-width:0.5;" width="164" x="26" y="595"/><ellipse cx="41" cy="617.291" fill="#ADD1B2" rx="11" ry="11" style="stroke:#181818;stroke-width:1.0;"/><path d="M43.7656,613.166 Q43.9219,612.9473 44.1094,612.8379 Q44.2969,612.7285 44.5156,612.7285 Q44.8906,612.7285 45.125,612.9941 Q45.3594,613.2441 45.3594,613.8535 L45.3594,615.3066 Q45.3594,615.916 45.125,616.1816 Q44.8906,616.4473 44.5156,616.4473 Q44.1719,616.4473 43.9688,616.2441 Q43.7656,616.0566 43.6563,615.541 Q43.6094,615.1816 43.4219,614.9941 Q43.0938,614.6191 42.4844,614.4004 Q41.875,614.1816 41.25,614.1816 Q40.4844,614.1816 39.8438,614.5098 Q39.2188,614.8379 38.7188,615.5879 Q38.2344,616.3379 38.2344,617.3691 L38.2344,618.4629 Q38.2344,619.6973 39.125,620.5254 Q40.0156,621.3379 41.6094,621.3379 Q42.5469,621.3379 43.2031,621.0879 Q43.5938,620.9316 44.0156,620.4941 Q44.2813,620.2285 44.4219,620.1504 Q44.5781,620.0723 44.7813,620.0723 Q45.1094,620.0723 45.3594,620.3379 Q45.625,620.5879 45.625,620.9316 Q45.625,621.2754 45.2813,621.6816 Q44.7813,622.2598 43.9844,622.5879 Q42.9063,623.041 41.6094,623.041 Q40.0938,623.041 38.8906,622.416 Q37.9063,621.916 37.2188,620.8535 Q36.5313,619.7754 36.5313,618.4941 L36.5313,617.3379 Q36.5313,616.0098 37.1406,614.8691 Q37.7656,613.7129 38.8594,613.1035 Q39.9531,612.4785 41.1875,612.4785 Q41.9219,612.4785 42.5625,612.6504 Q43.2188,612.8066 43.7656,613.166 Z " fill="#000000"/><text fill="#000000" font-family="sans-serif" font-size="12" font-style="italic" lengthAdjust="spacing" textLength="46" x="98" y="612.9492">&#171;Value&#187;</text><text fill="#000000" font-family="sans-serif" font-size="14" lengthAdjust="spacing" textLength="132" x="55" y="631.0684">InterviewModelPlugin</text><line style="stroke:#181818;stroke-width:0.5;" x1="27" x2="189" y1="639.582" y2="639.582"/><line style="stroke:#181818;stroke-width:0.5;" x1="27" x2="189" y1="647.582" y2="647.582"/></g><!--class Application--><g id="elem_Application"><rect codeLine="10" fill="#F1F1F1" height="76.543" id="Application" rx="2.5" ry="2.5" style="stroke:#181818;stroke-width:0.5;" width="101" x="948.5" y="44"/><ellipse cx="963.5" cy="74.2715" fill="#ADD1B2" rx="11" ry="11" style="stroke:#181818;stroke-width:1.0;"/><path d="M962.3594,75.0684 L962.3594,77.5684 L966.6875,77.5684 L966.6875,76.6465 Q966.6875,76.0371 966.9219,75.7715 Q967.1719,75.5059 967.5469,75.5059 Q967.9219,75.5059 968.1563,75.7715 Q968.3906,76.0371 968.3906,76.6465 L968.3906,79.2715 L960.3906,79.2715 Q959.7656,79.2715 959.5,79.0371 Q959.25,78.8027 959.25,78.4121 Q959.25,78.0371 959.5156,77.8027 Q959.7813,77.5684 960.3906,77.5684 L960.6563,77.5684 L960.6563,70.9121 L960.3906,70.9121 Q959.7656,70.9121 959.5,70.6777 Q959.25,70.4434 959.25,70.0527 Q959.25,69.6777 959.5,69.4434 Q959.7656,69.209 960.3906,69.209 L968.0156,69.209 L968.0156,71.8027 Q968.0156,72.4121 967.7813,72.6777 Q967.5625,72.9277 967.1719,72.9277 Q966.7969,72.9277 966.5625,72.6777 Q966.3281,72.4121 966.3281,71.8027 L966.3281,70.9121 L962.3594,70.9121 L962.3594,73.3652 L963.8438,73.3652 Q963.8438,72.709 963.9688,72.5215 Q964.2344,72.1152 964.7031,72.1152 Q965.0781,72.1152 965.3125,72.3809 Q965.5469,72.6309 965.5469,73.2402 L965.5469,75.209 Q965.5469,75.7559 965.4219,75.9434 Q965.1563,76.334 964.7031,76.334 Q964.2344,76.334 963.9688,75.9277 Q963.8438,75.7402 963.8438,75.0684 L962.3594,75.0684 Z " fill="#000000"/><text fill="#000000" font-family="sans-serif" font-size="12" font-style="italic" lengthAdjust="spacing" textLength="43" x="990.5" y="61.9492">&#171;entity&#187;</text><text fill="#000000" font-family="sans-serif" font-size="12" font-style="italic" lengthAdjust="spacing" textLength="35" x="994.5" y="77.9102">&#171;root&#187;</text><text fill="#000000" font-family="sans-serif" font-size="14" lengthAdjust="spacing" textLength="69" x="977.5" y="96.0293">Application</text><line style="stroke:#181818;stroke-width:0.5;" x1="949.5" x2="1048.5" y1="104.543" y2="104.543"/><line style="stroke:#181818;stroke-width:0.5;" x1="949.5" x2="1048.5" y1="112.543" y2="112.543"/></g><!--class ApplicationDate--><g id="elem_ApplicationDate"><rect codeLine="11" fill="#F1F1F1" height="60.582" id="ApplicationDate" rx="2.5" ry="2.5" style="stroke:#181818;stroke-width:0.5;" width="131" x="847.5" y="237"/><ellipse cx="862.5" cy="259.291" fill="#ADD1B2" rx="11" ry="11" style="stroke:#181818;stroke-width:1.0;"/><path d="M865.2656,255.166 Q865.4219,254.9473 865.6094,254.8379 Q865.7969,254.7285 866.0156,254.7285 Q866.3906,254.7285 866.625,254.9941 Q866.8594,255.2441 866.8594,255.8535 L866.8594,257.3066 Q866.8594,257.916 866.625,258.1816 Q866.3906,258.4473 866.0156,258.4473 Q865.6719,258.4473 865.4688,258.2441 Q865.2656,258.0566 865.1563,257.541 Q865.1094,257.1816 864.9219,256.9941 Q864.5938,256.6191 863.9844,256.4004 Q863.375,256.1816 862.75,256.1816 Q861.9844,256.1816 861.3438,256.5098 Q860.7188,256.8379 860.2188,257.5879 Q859.7344,258.3379 859.7344,259.3691 L859.7344,260.4629 Q859.7344,261.6973 860.625,262.5254 Q861.5156,263.3379 863.1094,263.3379 Q864.0469,263.3379 864.7031,263.0879 Q865.0938,262.9316 865.5156,262.4941 Q865.7813,262.2285 865.9219,262.1504 Q866.0781,262.0723 866.2813,262.0723 Q866.6094,262.0723 866.8594,262.3379 Q867.125,262.5879 867.125,262.9316 Q867.125,263.2754 866.7813,263.6816 Q866.2813,264.2598 865.4844,264.5879 Q864.4063,265.041 863.1094,265.041 Q861.5938,265.041 860.3906,264.416 Q859.4063,263.916 858.7188,262.8535 Q858.0313,261.7754 858.0313,260.4941 L858.0313,259.3379 Q858.0313,258.0098 858.6406,256.8691 Q859.2656,255.7129 860.3594,255.1035 Q861.4531,254.4785 862.6875,254.4785 Q863.4219,254.4785 864.0625,254.6504 Q864.7188,254.8066 865.2656,255.166 Z " fill="#000000"/><text fill="#000000" font-family="sans-serif" font-size="12" font-style="italic" lengthAdjust="spacing" textLength="46" x="903" y="254.9492">&#171;Value&#187;</text><text fill="#000000" font-family="sans-serif" font-size="14" lengthAdjust="spacing" textLength="99" x="876.5" y="273.0684">ApplicationDate</text><line style="stroke:#181818;stroke-width:0.5;" x1="848.5" x2="977.5" y1="281.582" y2="281.582"/><line style="stroke:#181818;stroke-width:0.5;" x1="848.5" x2="977.5" y1="289.582" y2="289.582"/></g><!--class ApplicationStatus--><g id="elem_ApplicationStatus"><rect codeLine="12" fill="#F1F1F1" height="135.0664" id="ApplicationStatus" rx="2.5" ry="2.5" style="stroke:#181818;stroke-width:0.5;" width="141" x="1013.5" y="200"/><ellipse cx="1028.5" cy="222.291" fill="#EB937F" rx="11" ry="11" style="stroke:#181818;stroke-width:1.0;"/><path d="M1027.3594,223.0879 L1027.3594,225.5879 L1031.6875,225.5879 L1031.6875,224.666 Q1031.6875,224.0566 1031.9219,223.791 Q1032.1719,223.5254 1032.5469,223.5254 Q1032.9219,223.5254 1033.1563,223.791 Q1033.3906,224.0566 1033.3906,224.666 L1033.3906,227.291 L1025.3906,227.291 Q1024.7656,227.291 1024.5,227.0566 Q1024.25,226.8223 1024.25,226.4316 Q1024.25,226.0566 1024.5156,225.8223 Q1024.7813,225.5879 1025.3906,225.5879 L1025.6563,225.5879 L1025.6563,218.9316 L1025.3906,218.9316 Q1024.7656,218.9316 1024.5,218.6973 Q1024.25,218.4629 1024.25,218.0723 Q1024.25,217.6973 1024.5,217.4629 Q1024.7656,217.2285 1025.3906,217.2285 L1033.0156,217.2285 L1033.0156,219.8223 Q1033.0156,220.4316 1032.7813,220.6973 Q1032.5625,220.9473 1032.1719,220.9473 Q1031.7969,220.9473 1031.5625,220.6973 Q1031.3281,220.4316 1031.3281,219.8223 L1031.3281,218.9316 L1027.3594,218.9316 L1027.3594,221.3848 L1028.8438,221.3848 Q1028.8438,220.7285 1028.9688,220.541 Q1029.2344,220.1348 1029.7031,220.1348 Q1030.0781,220.1348 1030.3125,220.4004 Q1030.5469,220.6504 1030.5469,221.2598 L1030.5469,223.2285 Q1030.5469,223.7754 1030.4219,223.9629 Q1030.1563,224.3535 1029.7031,224.3535 Q1029.2344,224.3535 1028.9688,223.9473 Q1028.8438,223.7598 1028.8438,223.0879 L1027.3594,223.0879 Z " fill="#000000"/><text fill="#000000" font-family="sans-serif" font-size="12" font-style="italic" lengthAdjust="spacing" textLength="46" x="1074" y="217.9492">&#171;Value&#187;</text><text fill="#000000" font-family="sans-serif" font-size="14" lengthAdjust="spacing" textLength="109" x="1042.5" y="236.0684">ApplicationStatus</text><line style="stroke:#181818;stroke-width:0.5;" x1="1014.5" x2="1153.5" y1="244.582" y2="244.582"/><text fill="#000000" font-family="sans-serif" font-size="14" lengthAdjust="spacing" textLength="61" x="1019.5" y="263.6895">Approved</text><text fill="#000000" font-family="sans-serif" font-size="14" lengthAdjust="spacing" textLength="45" x="1019.5" y="282.3105">Denied</text><text fill="#000000" font-family="sans-serif" font-size="14" lengthAdjust="spacing" textLength="102" x="1019.5" y="300.9316">WaitingInterview</text><text fill="#000000" font-family="sans-serif" font-size="14" lengthAdjust="spacing" textLength="68" x="1019.5" y="319.5527">InProgress</text><line style="stroke:#181818;stroke-width:0.5;" x1="1014.5" x2="1153.5" y1="327.0664" y2="327.0664"/></g><!--class ANTLRValidator--><g id="elem_ANTLRValidator"><rect codeLine="21" fill="#F1F1F1" height="60.582" id="ANTLRValidator" rx="2.5" ry="2.5" style="stroke:#181818;stroke-width:0.5;" width="133" x="431.5" y="52"/><ellipse cx="446.5" cy="74.291" fill="#ADD1B2" rx="11" ry="11" style="stroke:#181818;stroke-width:1.0;"/><path d="M445.3594,75.0879 L445.3594,77.5879 L449.6875,77.5879 L449.6875,76.666 Q449.6875,76.0566 449.9219,75.791 Q450.1719,75.5254 450.5469,75.5254 Q450.9219,75.5254 451.1563,75.791 Q451.3906,76.0566 451.3906,76.666 L451.3906,79.291 L443.3906,79.291 Q442.7656,79.291 442.5,79.0566 Q442.25,78.8223 442.25,78.4316 Q442.25,78.0566 442.5156,77.8223 Q442.7813,77.5879 443.3906,77.5879 L443.6563,77.5879 L443.6563,70.9316 L443.3906,70.9316 Q442.7656,70.9316 442.5,70.6973 Q442.25,70.4629 442.25,70.0723 Q442.25,69.6973 442.5,69.4629 Q442.7656,69.2285 443.3906,69.2285 L451.0156,69.2285 L451.0156,71.8223 Q451.0156,72.4316 450.7813,72.6973 Q450.5625,72.9473 450.1719,72.9473 Q449.7969,72.9473 449.5625,72.6973 Q449.3281,72.4316 449.3281,71.8223 L449.3281,70.9316 L445.3594,70.9316 L445.3594,73.3848 L446.8438,73.3848 Q446.8438,72.7285 446.9688,72.541 Q447.2344,72.1348 447.7031,72.1348 Q448.0781,72.1348 448.3125,72.4004 Q448.5469,72.6504 448.5469,73.2598 L448.5469,75.2285 Q448.5469,75.7754 448.4219,75.9629 Q448.1563,76.3535 447.7031,76.3535 Q447.2344,76.3535 446.9688,75.9473 Q446.8438,75.7598 446.8438,75.0879 L445.3594,75.0879 Z " fill="#000000"/><text fill="#000000" font-family="sans-serif" font-size="12" font-style="italic" lengthAdjust="spacing" textLength="53" x="484.5" y="69.9492">&#171;service&#187;</text><text fill="#000000" font-family="sans-serif" font-size="14" lengthAdjust="spacing" textLength="101" x="460.5" y="88.0684">ANTLRValidator</text><line style="stroke:#181818;stroke-width:0.5;" x1="432.5" x2="563.5" y1="96.582" y2="96.582"/><line style="stroke:#181818;stroke-width:0.5;" x1="432.5" x2="563.5" y1="104.582" y2="104.582"/></g><!--class Candidate--><g id="elem_Candidate"><rect codeLine="25" fill="#F1F1F1" height="76.543" id="Candidate" rx="2.5" ry="2.5" style="stroke:#181818;stroke-width:0.5;" width="97" x="1226.5" y="229"/><ellipse cx="1241.5" cy="259.2715" fill="#ADD1B2" rx="11" ry="11" style="stroke:#181818;stroke-width:1.0;"/><path d="M1240.3594,260.0684 L1240.3594,262.5684 L1244.6875,262.5684 L1244.6875,261.6465 Q1244.6875,261.0371 1244.9219,260.7715 Q1245.1719,260.5059 1245.5469,260.5059 Q1245.9219,260.5059 1246.1563,260.7715 Q1246.3906,261.0371 1246.3906,261.6465 L1246.3906,264.2715 L1238.3906,264.2715 Q1237.7656,264.2715 1237.5,264.0371 Q1237.25,263.8027 1237.25,263.4121 Q1237.25,263.0371 1237.5156,262.8027 Q1237.7813,262.5684 1238.3906,262.5684 L1238.6563,262.5684 L1238.6563,255.9121 L1238.3906,255.9121 Q1237.7656,255.9121 1237.5,255.6777 Q1237.25,255.4434 1237.25,255.0527 Q1237.25,254.6777 1237.5,254.4434 Q1237.7656,254.209 1238.3906,254.209 L1246.0156,254.209 L1246.0156,256.8027 Q1246.0156,257.4121 1245.7813,257.6777 Q1245.5625,257.9277 1245.1719,257.9277 Q1244.7969,257.9277 1244.5625,257.6777 Q1244.3281,257.4121 1244.3281,256.8027 L1244.3281,255.9121 L1240.3594,255.9121 L1240.3594,258.3652 L1241.8438,258.3652 Q1241.8438,257.709 1241.9688,257.5215 Q1242.2344,257.1152 1242.7031,257.1152 Q1243.0781,257.1152 1243.3125,257.3809 Q1243.5469,257.6309 1243.5469,258.2402 L1243.5469,260.209 Q1243.5469,260.7559 1243.4219,260.9434 Q1243.1563,261.334 1242.7031,261.334 Q1242.2344,261.334 1241.9688,260.9277 Q1241.8438,260.7402 1241.8438,260.0684 L1240.3594,260.0684 Z " fill="#000000"/><text fill="#000000" font-family="sans-serif" font-size="12" font-style="italic" lengthAdjust="spacing" textLength="43" x="1266.5" y="246.9492">&#171;entity&#187;</text><text fill="#000000" font-family="sans-serif" font-size="12" font-style="italic" lengthAdjust="spacing" textLength="35" x="1270.5" y="262.9102">&#171;root&#187;</text><text fill="#000000" font-family="sans-serif" font-size="14" lengthAdjust="spacing" textLength="65" x="1255.5" y="281.0293">Candidate</text><line style="stroke:#181818;stroke-width:0.5;" x1="1227.5" x2="1322.5" y1="289.543" y2="289.543"/><line style="stroke:#181818;stroke-width:0.5;" x1="1227.5" x2="1322.5" y1="297.543" y2="297.543"/></g><!--class PhoneNumber--><g id="elem_PhoneNumber"><rect codeLine="26" fill="#F1F1F1" height="60.582" id="PhoneNumber" rx="2.5" ry="2.5" style="stroke:#181818;stroke-width:0.5;" width="122" x="1214" y="447"/><ellipse cx="1229" cy="469.291" fill="#ADD1B2" rx="11" ry="11" style="stroke:#181818;stroke-width:1.0;"/><path d="M1231.7656,465.166 Q1231.9219,464.9473 1232.1094,464.8379 Q1232.2969,464.7285 1232.5156,464.7285 Q1232.8906,464.7285 1233.125,464.9941 Q1233.3594,465.2441 1233.3594,465.8535 L1233.3594,467.3066 Q1233.3594,467.916 1233.125,468.1816 Q1232.8906,468.4473 1232.5156,468.4473 Q1232.1719,468.4473 1231.9688,468.2441 Q1231.7656,468.0566 1231.6563,467.541 Q1231.6094,467.1816 1231.4219,466.9941 Q1231.0938,466.6191 1230.4844,466.4004 Q1229.875,466.1816 1229.25,466.1816 Q1228.4844,466.1816 1227.8438,466.5098 Q1227.2188,466.8379 1226.7188,467.5879 Q1226.2344,468.3379 1226.2344,469.3691 L1226.2344,470.4629 Q1226.2344,471.6973 1227.125,472.5254 Q1228.0156,473.3379 1229.6094,473.3379 Q1230.5469,473.3379 1231.2031,473.0879 Q1231.5938,472.9316 1232.0156,472.4941 Q1232.2813,472.2285 1232.4219,472.1504 Q1232.5781,472.0723 1232.7813,472.0723 Q1233.1094,472.0723 1233.3594,472.3379 Q1233.625,472.5879 1233.625,472.9316 Q1233.625,473.2754 1233.2813,473.6816 Q1232.7813,474.2598 1231.9844,474.5879 Q1230.9063,475.041 1229.6094,475.041 Q1228.0938,475.041 1226.8906,474.416 Q1225.9063,473.916 1225.2188,472.8535 Q1224.5313,471.7754 1224.5313,470.4941 L1224.5313,469.3379 Q1224.5313,468.0098 1225.1406,466.8691 Q1225.7656,465.7129 1226.8594,465.1035 Q1227.9531,464.4785 1229.1875,464.4785 Q1229.9219,464.4785 1230.5625,464.6504 Q1231.2188,464.8066 1231.7656,465.166 Z " fill="#000000"/><text fill="#000000" font-family="sans-serif" font-size="12" font-style="italic" lengthAdjust="spacing" textLength="46" x="1265" y="464.9492">&#171;Value&#187;</text><text fill="#000000" font-family="sans-serif" font-size="14" lengthAdjust="spacing" textLength="90" x="1243" y="483.0684">PhoneNumber</text><line style="stroke:#181818;stroke-width:0.5;" x1="1215" x2="1335" y1="491.582" y2="491.582"/><line style="stroke:#181818;stroke-width:0.5;" x1="1215" x2="1335" y1="499.582" y2="499.582"/></g><!--class Interview--><g id="elem_Interview"><rect codeLine="30" fill="#F1F1F1" height="76.543" id="Interview" rx="2.5" ry="2.5" style="stroke:#181818;stroke-width:0.5;" width="87" x="454.5" y="229"/><ellipse cx="469.5" cy="259.2715" fill="#ADD1B2" rx="11" ry="11" style="stroke:#181818;stroke-width:1.0;"/><path d="M472.2656,255.1465 Q472.4219,254.9277 472.6094,254.8184 Q472.7969,254.709 473.0156,254.709 Q473.3906,254.709 473.625,254.9746 Q473.8594,255.2246 473.8594,255.834 L473.8594,257.2871 Q473.8594,257.8965 473.625,258.1621 Q473.3906,258.4277 473.0156,258.4277 Q472.6719,258.4277 472.4688,258.2246 Q472.2656,258.0371 472.1563,257.5215 Q472.1094,257.1621 471.9219,256.9746 Q471.5938,256.5996 470.9844,256.3809 Q470.375,256.1621 469.75,256.1621 Q468.9844,256.1621 468.3438,256.4902 Q467.7188,256.8184 467.2188,257.5684 Q466.7344,258.3184 466.7344,259.3496 L466.7344,260.4434 Q466.7344,261.6777 467.625,262.5059 Q468.5156,263.3184 470.1094,263.3184 Q471.0469,263.3184 471.7031,263.0684 Q472.0938,262.9121 472.5156,262.4746 Q472.7813,262.209 472.9219,262.1309 Q473.0781,262.0527 473.2813,262.0527 Q473.6094,262.0527 473.8594,262.3184 Q474.125,262.5684 474.125,262.9121 Q474.125,263.2559 473.7813,263.6621 Q473.2813,264.2402 472.4844,264.5684 Q471.4063,265.0215 470.1094,265.0215 Q468.5938,265.0215 467.3906,264.3965 Q466.4063,263.8965 465.7188,262.834 Q465.0313,261.7559 465.0313,260.4746 L465.0313,259.3184 Q465.0313,257.9902 465.6406,256.8496 Q466.2656,255.6934 467.3594,255.084 Q468.4531,254.459 469.6875,254.459 Q470.4219,254.459 471.0625,254.6309 Q471.7188,254.7871 472.2656,255.1465 Z " fill="#000000"/><text fill="#000000" font-family="sans-serif" font-size="12" font-style="italic" lengthAdjust="spacing" textLength="43" x="489.5" y="246.9492">&#171;entity&#187;</text><text fill="#000000" font-family="sans-serif" font-size="12" font-style="italic" lengthAdjust="spacing" textLength="35" x="493.5" y="262.9102">&#171;root&#187;</text><text fill="#000000" font-family="sans-serif" font-size="14" lengthAdjust="spacing" textLength="55" x="483.5" y="281.0293">Interview</text><line style="stroke:#181818;stroke-width:0.5;" x1="455.5" x2="540.5" y1="289.543" y2="289.543"/><line style="stroke:#181818;stroke-width:0.5;" x1="455.5" x2="540.5" y1="297.543" y2="297.543"/></g><!--class Score--><g id="elem_Score"><rect codeLine="31" fill="#F1F1F1" height="60.582" id="Score" rx="2.5" ry="2.5" style="stroke:#181818;stroke-width:0.5;" width="72" x="246" y="447"/><ellipse cx="261" cy="469.291" fill="#ADD1B2" rx="11" ry="11" style="stroke:#181818;stroke-width:1.0;"/><path d="M263.7656,465.166 Q263.9219,464.9473 264.1094,464.8379 Q264.2969,464.7285 264.5156,464.7285 Q264.8906,464.7285 265.125,464.9941 Q265.3594,465.2441 265.3594,465.8535 L265.3594,467.3066 Q265.3594,467.916 265.125,468.1816 Q264.8906,468.4473 264.5156,468.4473 Q264.1719,468.4473 263.9688,468.2441 Q263.7656,468.0566 263.6563,467.541 Q263.6094,467.1816 263.4219,466.9941 Q263.0938,466.6191 262.4844,466.4004 Q261.875,466.1816 261.25,466.1816 Q260.4844,466.1816 259.8438,466.5098 Q259.2188,466.8379 258.7188,467.5879 Q258.2344,468.3379 258.2344,469.3691 L258.2344,470.4629 Q258.2344,471.6973 259.125,472.5254 Q260.0156,473.3379 261.6094,473.3379 Q262.5469,473.3379 263.2031,473.0879 Q263.5938,472.9316 264.0156,472.4941 Q264.2813,472.2285 264.4219,472.1504 Q264.5781,472.0723 264.7813,472.0723 Q265.1094,472.0723 265.3594,472.3379 Q265.625,472.5879 265.625,472.9316 Q265.625,473.2754 265.2813,473.6816 Q264.7813,474.2598 263.9844,474.5879 Q262.9063,475.041 261.6094,475.041 Q260.0938,475.041 258.8906,474.416 Q257.9063,473.916 257.2188,472.8535 Q256.5313,471.7754 256.5313,470.4941 L256.5313,469.3379 Q256.5313,468.0098 257.1406,466.8691 Q257.7656,465.7129 258.8594,465.1035 Q259.9531,464.4785 261.1875,464.4785 Q261.9219,464.4785 262.5625,464.6504 Q263.2188,464.8066 263.7656,465.166 Z " fill="#000000"/><text fill="#000000" font-family="sans-serif" font-size="12" font-style="italic" lengthAdjust="spacing" textLength="44" x="273" y="464.9492">&#171;value&#187;</text><text fill="#000000" font-family="sans-serif" font-size="14" lengthAdjust="spacing" textLength="37" x="276.5" y="483.0684">Score</text><line style="stroke:#181818;stroke-width:0.5;" x1="247" x2="317" y1="491.582" y2="491.582"/><line style="stroke:#181818;stroke-width:0.5;" x1="247" x2="317" y1="499.582" y2="499.582"/></g><!--class JustificationText--><g id="elem_JustificationText"><rect codeLine="32" fill="#F1F1F1" height="60.582" id="JustificationText" rx="2.5" ry="2.5" style="stroke:#181818;stroke-width:0.5;" width="132" x="353" y="447"/><ellipse cx="368" cy="469.291" fill="#ADD1B2" rx="11" ry="11" style="stroke:#181818;stroke-width:1.0;"/><path d="M370.7656,465.166 Q370.9219,464.9473 371.1094,464.8379 Q371.2969,464.7285 371.5156,464.7285 Q371.8906,464.7285 372.125,464.9941 Q372.3594,465.2441 372.3594,465.8535 L372.3594,467.3066 Q372.3594,467.916 372.125,468.1816 Q371.8906,468.4473 371.5156,468.4473 Q371.1719,468.4473 370.9688,468.2441 Q370.7656,468.0566 370.6563,467.541 Q370.6094,467.1816 370.4219,466.9941 Q370.0938,466.6191 369.4844,466.4004 Q368.875,466.1816 368.25,466.1816 Q367.4844,466.1816 366.8438,466.5098 Q366.2188,466.8379 365.7188,467.5879 Q365.2344,468.3379 365.2344,469.3691 L365.2344,470.4629 Q365.2344,471.6973 366.125,472.5254 Q367.0156,473.3379 368.6094,473.3379 Q369.5469,473.3379 370.2031,473.0879 Q370.5938,472.9316 371.0156,472.4941 Q371.2813,472.2285 371.4219,472.1504 Q371.5781,472.0723 371.7813,472.0723 Q372.1094,472.0723 372.3594,472.3379 Q372.625,472.5879 372.625,472.9316 Q372.625,473.2754 372.2813,473.6816 Q371.7813,474.2598 370.9844,474.5879 Q369.9063,475.041 368.6094,475.041 Q367.0938,475.041 365.8906,474.416 Q364.9063,473.916 364.2188,472.8535 Q363.5313,471.7754 363.5313,470.4941 L363.5313,469.3379 Q363.5313,468.0098 364.1406,466.8691 Q364.7656,465.7129 365.8594,465.1035 Q366.9531,464.4785 368.1875,464.4785 Q368.9219,464.4785 369.5625,464.6504 Q370.2188,464.8066 370.7656,465.166 Z " fill="#000000"/><text fill="#000000" font-family="sans-serif" font-size="12" font-style="italic" lengthAdjust="spacing" textLength="44" x="410" y="464.9492">&#171;value&#187;</text><text fill="#000000" font-family="sans-serif" font-size="14" lengthAdjust="spacing" textLength="100" x="382" y="483.0684">JustificationText</text><line style="stroke:#181818;stroke-width:0.5;" x1="354" x2="484" y1="491.582" y2="491.582"/><line style="stroke:#181818;stroke-width:0.5;" x1="354" x2="484" y1="499.582" y2="499.582"/></g><!--class InterviewDate--><g id="elem_InterviewDate"><rect codeLine="33" fill="#F1F1F1" height="60.582" id="InterviewDate" rx="2.5" ry="2.5" style="stroke:#181818;stroke-width:0.5;" width="117" x="520.5" y="447"/><ellipse cx="535.5" cy="469.291" fill="#ADD1B2" rx="11" ry="11" style="stroke:#181818;stroke-width:1.0;"/><path d="M538.2656,465.166 Q538.4219,464.9473 538.6094,464.8379 Q538.7969,464.7285 539.0156,464.7285 Q539.3906,464.7285 539.625,464.9941 Q539.8594,465.2441 539.8594,465.8535 L539.8594,467.3066 Q539.8594,467.916 539.625,468.1816 Q539.3906,468.4473 539.0156,468.4473 Q538.6719,468.4473 538.4688,468.2441 Q538.2656,468.0566 538.1563,467.541 Q538.1094,467.1816 537.9219,466.9941 Q537.5938,466.6191 536.9844,466.4004 Q536.375,466.1816 535.75,466.1816 Q534.9844,466.1816 534.3438,466.5098 Q533.7188,466.8379 533.2188,467.5879 Q532.7344,468.3379 532.7344,469.3691 L532.7344,470.4629 Q532.7344,471.6973 533.625,472.5254 Q534.5156,473.3379 536.1094,473.3379 Q537.0469,473.3379 537.7031,473.0879 Q538.0938,472.9316 538.5156,472.4941 Q538.7813,472.2285 538.9219,472.1504 Q539.0781,472.0723 539.2813,472.0723 Q539.6094,472.0723 539.8594,472.3379 Q540.125,472.5879 540.125,472.9316 Q540.125,473.2754 539.7813,473.6816 Q539.2813,474.2598 538.4844,474.5879 Q537.4063,475.041 536.1094,475.041 Q534.5938,475.041 533.3906,474.416 Q532.4063,473.916 531.7188,472.8535 Q531.0313,471.7754 531.0313,470.4941 L531.0313,469.3379 Q531.0313,468.0098 531.6406,466.8691 Q532.2656,465.7129 533.3594,465.1035 Q534.4531,464.4785 535.6875,464.4785 Q536.4219,464.4785 537.0625,464.6504 Q537.7188,464.8066 538.2656,465.166 Z " fill="#000000"/><text fill="#000000" font-family="sans-serif" font-size="12" font-style="italic" lengthAdjust="spacing" textLength="44" x="570" y="464.9492">&#171;value&#187;</text><text fill="#000000" font-family="sans-serif" font-size="14" lengthAdjust="spacing" textLength="85" x="549.5" y="483.0684">InterviewDate</text><line style="stroke:#181818;stroke-width:0.5;" x1="521.5" x2="636.5" y1="491.582" y2="491.582"/><line style="stroke:#181818;stroke-width:0.5;" x1="521.5" x2="636.5" y1="499.582" y2="499.582"/></g><!--class InterviewTime--><g id="elem_InterviewTime"><rect codeLine="34" fill="#F1F1F1" height="60.582" id="InterviewTime" rx="2.5" ry="2.5" style="stroke:#181818;stroke-width:0.5;" width="118" x="673" y="447"/><ellipse cx="688" cy="469.291" fill="#ADD1B2" rx="11" ry="11" style="stroke:#181818;stroke-width:1.0;"/><path d="M690.7656,465.166 Q690.9219,464.9473 691.1094,464.8379 Q691.2969,464.7285 691.5156,464.7285 Q691.8906,464.7285 692.125,464.9941 Q692.3594,465.2441 692.3594,465.8535 L692.3594,467.3066 Q692.3594,467.916 692.125,468.1816 Q691.8906,468.4473 691.5156,468.4473 Q691.1719,468.4473 690.9688,468.2441 Q690.7656,468.0566 690.6563,467.541 Q690.6094,467.1816 690.4219,466.9941 Q690.0938,466.6191 689.4844,466.4004 Q688.875,466.1816 688.25,466.1816 Q687.4844,466.1816 686.8438,466.5098 Q686.2188,466.8379 685.7188,467.5879 Q685.2344,468.3379 685.2344,469.3691 L685.2344,470.4629 Q685.2344,471.6973 686.125,472.5254 Q687.0156,473.3379 688.6094,473.3379 Q689.5469,473.3379 690.2031,473.0879 Q690.5938,472.9316 691.0156,472.4941 Q691.2813,472.2285 691.4219,472.1504 Q691.5781,472.0723 691.7813,472.0723 Q692.1094,472.0723 692.3594,472.3379 Q692.625,472.5879 692.625,472.9316 Q692.625,473.2754 692.2813,473.6816 Q691.7813,474.2598 690.9844,474.5879 Q689.9063,475.041 688.6094,475.041 Q687.0938,475.041 685.8906,474.416 Q684.9063,473.916 684.2188,472.8535 Q683.5313,471.7754 683.5313,470.4941 L683.5313,469.3379 Q683.5313,468.0098 684.1406,466.8691 Q684.7656,465.7129 685.8594,465.1035 Q686.9531,464.4785 688.1875,464.4785 Q688.9219,464.4785 689.5625,464.6504 Q690.2188,464.8066 690.7656,465.166 Z " fill="#000000"/><text fill="#000000" font-family="sans-serif" font-size="12" font-style="italic" lengthAdjust="spacing" textLength="44" x="723" y="464.9492">&#171;value&#187;</text><text fill="#000000" font-family="sans-serif" font-size="14" lengthAdjust="spacing" textLength="86" x="702" y="483.0684">InterviewTime</text><line style="stroke:#181818;stroke-width:0.5;" x1="674" x2="790" y1="491.582" y2="491.582"/><line style="stroke:#181818;stroke-width:0.5;" x1="674" x2="790" y1="499.582" y2="499.582"/></g><!--class User--><g id="elem_User"><rect codeLine="38" fill="#F1F1F1" height="76.543" id="User" rx="2.5" ry="2.5" style="stroke:#181818;stroke-width:0.5;" width="71" x="1438.5" y="439"/><ellipse cx="1453.5" cy="469.2715" fill="#ADD1B2" rx="11" ry="11" style="stroke:#181818;stroke-width:1.0;"/><path d="M1452.3594,470.0684 L1452.3594,472.5684 L1456.6875,472.5684 L1456.6875,471.6465 Q1456.6875,471.0371 1456.9219,470.7715 Q1457.1719,470.5059 1457.5469,470.5059 Q1457.9219,470.5059 1458.1563,470.7715 Q1458.3906,471.0371 1458.3906,471.6465 L1458.3906,474.2715 L1450.3906,474.2715 Q1449.7656,474.2715 1449.5,474.0371 Q1449.25,473.8027 1449.25,473.4121 Q1449.25,473.0371 1449.5156,472.8027 Q1449.7813,472.5684 1450.3906,472.5684 L1450.6563,472.5684 L1450.6563,465.9121 L1450.3906,465.9121 Q1449.7656,465.9121 1449.5,465.6777 Q1449.25,465.4434 1449.25,465.0527 Q1449.25,464.6777 1449.5,464.4434 Q1449.7656,464.209 1450.3906,464.209 L1458.0156,464.209 L1458.0156,466.8027 Q1458.0156,467.4121 1457.7813,467.6777 Q1457.5625,467.9277 1457.1719,467.9277 Q1456.7969,467.9277 1456.5625,467.6777 Q1456.3281,467.4121 1456.3281,466.8027 L1456.3281,465.9121 L1452.3594,465.9121 L1452.3594,468.3652 L1453.8438,468.3652 Q1453.8438,467.709 1453.9688,467.5215 Q1454.2344,467.1152 1454.7031,467.1152 Q1455.0781,467.1152 1455.3125,467.3809 Q1455.5469,467.6309 1455.5469,468.2402 L1455.5469,470.209 Q1455.5469,470.7559 1455.4219,470.9434 Q1455.1563,471.334 1454.7031,471.334 Q1454.2344,471.334 1453.9688,470.9277 Q1453.8438,470.7402 1453.8438,470.0684 L1452.3594,470.0684 Z " fill="#000000"/><text fill="#000000" font-family="sans-serif" font-size="12" font-style="italic" lengthAdjust="spacing" textLength="35" x="1469.5" y="456.9492">&#171;root&#187;</text><text fill="#000000" font-family="sans-serif" font-size="12" font-style="italic" lengthAdjust="spacing" textLength="43" x="1465.5" y="472.9102">&#171;entity&#187;</text><text fill="#000000" font-family="sans-serif" font-size="14" lengthAdjust="spacing" textLength="29" x="1472.5" y="491.0293">User</text><line style="stroke:#181818;stroke-width:0.5;" x1="1439.5" x2="1508.5" y1="499.543" y2="499.543"/><line style="stroke:#181818;stroke-width:0.5;" x1="1439.5" x2="1508.5" y1="507.543" y2="507.543"/></g><!--class Name--><g id="elem_Name"><rect codeLine="39" fill="#F1F1F1" height="60.582" id="Name" rx="2.5" ry="2.5" style="stroke:#181818;stroke-width:0.5;" width="74" x="1395" y="595"/><ellipse cx="1410" cy="617.291" fill="#ADD1B2" rx="11" ry="11" style="stroke:#181818;stroke-width:1.0;"/><path d="M1412.7656,613.166 Q1412.9219,612.9473 1413.1094,612.8379 Q1413.2969,612.7285 1413.5156,612.7285 Q1413.8906,612.7285 1414.125,612.9941 Q1414.3594,613.2441 1414.3594,613.8535 L1414.3594,615.3066 Q1414.3594,615.916 1414.125,616.1816 Q1413.8906,616.4473 1413.5156,616.4473 Q1413.1719,616.4473 1412.9688,616.2441 Q1412.7656,616.0566 1412.6563,615.541 Q1412.6094,615.1816 1412.4219,614.9941 Q1412.0938,614.6191 1411.4844,614.4004 Q1410.875,614.1816 1410.25,614.1816 Q1409.4844,614.1816 1408.8438,614.5098 Q1408.2188,614.8379 1407.7188,615.5879 Q1407.2344,616.3379 1407.2344,617.3691 L1407.2344,618.4629 Q1407.2344,619.6973 1408.125,620.5254 Q1409.0156,621.3379 1410.6094,621.3379 Q1411.5469,621.3379 1412.2031,621.0879 Q1412.5938,620.9316 1413.0156,620.4941 Q1413.2813,620.2285 1413.4219,620.1504 Q1413.5781,620.0723 1413.7813,620.0723 Q1414.1094,620.0723 1414.3594,620.3379 Q1414.625,620.5879 1414.625,620.9316 Q1414.625,621.2754 1414.2813,621.6816 Q1413.7813,622.2598 1412.9844,622.5879 Q1411.9063,623.041 1410.6094,623.041 Q1409.0938,623.041 1407.8906,622.416 Q1406.9063,621.916 1406.2188,620.8535 Q1405.5313,619.7754 1405.5313,618.4941 L1405.5313,617.3379 Q1405.5313,616.0098 1406.1406,614.8691 Q1406.7656,613.7129 1407.8594,613.1035 Q1408.9531,612.4785 1410.1875,612.4785 Q1410.9219,612.4785 1411.5625,612.6504 Q1412.2188,612.8066 1412.7656,613.166 Z " fill="#000000"/><text fill="#000000" font-family="sans-serif" font-size="12" font-style="italic" lengthAdjust="spacing" textLength="46" x="1422" y="612.9492">&#171;Value&#187;</text><text fill="#000000" font-family="sans-serif" font-size="14" lengthAdjust="spacing" textLength="36" x="1427" y="631.0684">Name</text><line style="stroke:#181818;stroke-width:0.5;" x1="1396" x2="1468" y1="639.582" y2="639.582"/><line style="stroke:#181818;stroke-width:0.5;" x1="1396" x2="1468" y1="647.582" y2="647.582"/></g><!--class Email--><g id="elem_Email"><rect codeLine="40" fill="#F1F1F1" height="60.582" id="Email" rx="2.5" ry="2.5" style="stroke:#181818;stroke-width:0.5;" width="74" x="1504" y="595"/><ellipse cx="1519" cy="617.291" fill="#ADD1B2" rx="11" ry="11" style="stroke:#181818;stroke-width:1.0;"/><path d="M1521.7656,613.166 Q1521.9219,612.9473 1522.1094,612.8379 Q1522.2969,612.7285 1522.5156,612.7285 Q1522.8906,612.7285 1523.125,612.9941 Q1523.3594,613.2441 1523.3594,613.8535 L1523.3594,615.3066 Q1523.3594,615.916 1523.125,616.1816 Q1522.8906,616.4473 1522.5156,616.4473 Q1522.1719,616.4473 1521.9688,616.2441 Q1521.7656,616.0566 1521.6563,615.541 Q1521.6094,615.1816 1521.4219,614.9941 Q1521.0938,614.6191 1520.4844,614.4004 Q1519.875,614.1816 1519.25,614.1816 Q1518.4844,614.1816 1517.8438,614.5098 Q1517.2188,614.8379 1516.7188,615.5879 Q1516.2344,616.3379 1516.2344,617.3691 L1516.2344,618.4629 Q1516.2344,619.6973 1517.125,620.5254 Q1518.0156,621.3379 1519.6094,621.3379 Q1520.5469,621.3379 1521.2031,621.0879 Q1521.5938,620.9316 1522.0156,620.4941 Q1522.2813,620.2285 1522.4219,620.1504 Q1522.5781,620.0723 1522.7813,620.0723 Q1523.1094,620.0723 1523.3594,620.3379 Q1523.625,620.5879 1523.625,620.9316 Q1523.625,621.2754 1523.2813,621.6816 Q1522.7813,622.2598 1521.9844,622.5879 Q1520.9063,623.041 1519.6094,623.041 Q1518.0938,623.041 1516.8906,622.416 Q1515.9063,621.916 1515.2188,620.8535 Q1514.5313,619.7754 1514.5313,618.4941 L1514.5313,617.3379 Q1514.5313,616.0098 1515.1406,614.8691 Q1515.7656,613.7129 1516.8594,613.1035 Q1517.9531,612.4785 1519.1875,612.4785 Q1519.9219,612.4785 1520.5625,612.6504 Q1521.2188,612.8066 1521.7656,613.166 Z " fill="#000000"/><text fill="#000000" font-family="sans-serif" font-size="12" font-style="italic" lengthAdjust="spacing" textLength="46" x="1531" y="612.9492">&#171;Value&#187;</text><text fill="#000000" font-family="sans-serif" font-size="14" lengthAdjust="spacing" textLength="34" x="1537" y="631.0684">Email</text><line style="stroke:#181818;stroke-width:0.5;" x1="1505" x2="1577" y1="639.582" y2="639.582"/><line style="stroke:#181818;stroke-width:0.5;" x1="1505" x2="1577" y1="647.582" y2="647.582"/></g><!--class Password--><g id="elem_Password"><rect codeLine="41" fill="#F1F1F1" height="60.582" id="Password" rx="2.5" ry="2.5" style="stroke:#181818;stroke-width:0.5;" width="93" x="1613.5" y="595"/><ellipse cx="1628.5" cy="617.291" fill="#ADD1B2" rx="11" ry="11" style="stroke:#181818;stroke-width:1.0;"/><path d="M1631.2656,613.166 Q1631.4219,612.9473 1631.6094,612.8379 Q1631.7969,612.7285 1632.0156,612.7285 Q1632.3906,612.7285 1632.625,612.9941 Q1632.8594,613.2441 1632.8594,613.8535 L1632.8594,615.3066 Q1632.8594,615.916 1632.625,616.1816 Q1632.3906,616.4473 1632.0156,616.4473 Q1631.6719,616.4473 1631.4688,616.2441 Q1631.2656,616.0566 1631.1563,615.541 Q1631.1094,615.1816 1630.9219,614.9941 Q1630.5938,614.6191 1629.9844,614.4004 Q1629.375,614.1816 1628.75,614.1816 Q1627.9844,614.1816 1627.3438,614.5098 Q1626.7188,614.8379 1626.2188,615.5879 Q1625.7344,616.3379 1625.7344,617.3691 L1625.7344,618.4629 Q1625.7344,619.6973 1626.625,620.5254 Q1627.5156,621.3379 1629.1094,621.3379 Q1630.0469,621.3379 1630.7031,621.0879 Q1631.0938,620.9316 1631.5156,620.4941 Q1631.7813,620.2285 1631.9219,620.1504 Q1632.0781,620.0723 1632.2813,620.0723 Q1632.6094,620.0723 1632.8594,620.3379 Q1633.125,620.5879 1633.125,620.9316 Q1633.125,621.2754 1632.7813,621.6816 Q1632.2813,622.2598 1631.4844,622.5879 Q1630.4063,623.041 1629.1094,623.041 Q1627.5938,623.041 1626.3906,622.416 Q1625.4063,621.916 1624.7188,620.8535 Q1624.0313,619.7754 1624.0313,618.4941 L1624.0313,617.3379 Q1624.0313,616.0098 1624.6406,614.8691 Q1625.2656,613.7129 1626.3594,613.1035 Q1627.4531,612.4785 1628.6875,612.4785 Q1629.4219,612.4785 1630.0625,612.6504 Q1630.7188,612.8066 1631.2656,613.166 Z " fill="#000000"/><text fill="#000000" font-family="sans-serif" font-size="12" font-style="italic" lengthAdjust="spacing" textLength="46" x="1650" y="612.9492">&#171;Value&#187;</text><text fill="#000000" font-family="sans-serif" font-size="14" lengthAdjust="spacing" textLength="61" x="1642.5" y="631.0684">Password</text><line style="stroke:#181818;stroke-width:0.5;" x1="1614.5" x2="1705.5" y1="639.582" y2="639.582"/><line style="stroke:#181818;stroke-width:0.5;" x1="1614.5" x2="1705.5" y1="647.582" y2="647.582"/></g><!--link Interview to Score--><g id="link_Interview_Score"><path codeLine="45" d="M454.2,296.48 C419.63,319.9 371.48,355.58 336,394 C322.52,408.6 310.16,426.92 300.68,442.59 " fill="none" id="Interview-to-Score" style="stroke:#181818;stroke-width:1.0;"/><polygon fill="#181818" points="298.08,446.93,306.1321,441.2587,300.6462,442.6388,299.2661,437.1528,298.08,446.93" style="stroke:#181818;stroke-width:1.0;"/><text fill="#000000" font-family="sans-serif" font-size="13" lengthAdjust="spacing" textLength="57" x="360" y="382.0283">generates</text><text fill="#000000" font-family="sans-serif" font-size="13" lengthAdjust="spacing" textLength="7" x="439.3659" y="316.7779">1</text><text fill="#000000" font-family="sans-serif" font-size="13" lengthAdjust="spacing" textLength="7" x="293.6746" y="435.9732">1</text></g><!--link Interview to JustificationText--><g id="link_Interview_JustificationText"><path codeLine="46" d="M483.69,306.17 C469.01,344.82 446.36,404.46 432.13,441.94 " fill="none" id="Interview-to-JustificationText" style="stroke:#181818;stroke-width:1.0;"/><polygon fill="#181818" points="430.26,446.85,437.2099,439.8715,432.0453,442.1796,429.7373,437.015,430.26,446.85" style="stroke:#181818;stroke-width:1.0;"/><text fill="#000000" font-family="sans-serif" font-size="13" lengthAdjust="spacing" textLength="7" x="473.9628" y="327.4785">1</text><text fill="#000000" font-family="sans-serif" font-size="13" lengthAdjust="spacing" textLength="7" x="424.8605" y="435.8767">1</text></g><!--link Interview to InterviewDate--><g id="link_Interview_InterviewDate"><path codeLine="47" d="M512.67,306.17 C527.72,344.82 550.94,404.46 565.54,441.94 " fill="none" id="Interview-to-InterviewDate" style="stroke:#181818;stroke-width:1.0;"/><polygon fill="#181818" points="567.45,446.85,567.9102,437.0119,565.635,442.1911,560.4559,439.9159,567.45,446.85" style="stroke:#181818;stroke-width:1.0;"/><text fill="#000000" font-family="sans-serif" font-size="13" lengthAdjust="spacing" textLength="7" x="507.3804" y="327.4785">1</text><text fill="#000000" font-family="sans-serif" font-size="13" lengthAdjust="spacing" textLength="7" x="557.3459" y="435.8767">1</text></g><!--link Interview to InterviewTime--><g id="link_Interview_InterviewTime"><path codeLine="48" d="M541.71,300.71 C574.01,325.15 618.52,360.21 655,394 C671.56,409.34 688.82,427.59 702.78,443.02 " fill="none" id="Interview-to-InterviewTime" style="stroke:#181818;stroke-width:1.0;"/><polygon fill="#181818" points="706.26,446.87,703.2125,437.5045,702.9152,443.1535,697.2661,442.8562,706.26,446.87" style="stroke:#181818;stroke-width:1.0;"/><text fill="#000000" font-family="sans-serif" font-size="13" lengthAdjust="spacing" textLength="7" x="549.5292" y="301.8929">1</text><text fill="#000000" font-family="sans-serif" font-size="13" lengthAdjust="spacing" textLength="7" x="693.2293" y="435.9009">1</text></g><!--link InterviewModel to InterviewModelPlugin--><g id="link_InterviewModel_InterviewModelPlugin"><path codeLine="50" d="M118.39,516.1 C116.22,538.78 113.47,567.48 111.34,589.65 " fill="none" id="InterviewModel-to-InterviewModelPlugin" style="stroke:#181818;stroke-width:1.0;"/><polygon fill="#181818" points="110.84,594.85,115.6718,586.2678,111.312,589.8723,107.7075,585.5126,110.84,594.85" style="stroke:#181818;stroke-width:1.0;"/><text fill="#000000" font-family="sans-serif" font-size="13" lengthAdjust="spacing" textLength="21" x="116" y="561.0283">has</text><text fill="#000000" font-family="sans-serif" font-size="13" lengthAdjust="spacing" textLength="7" x="110.2568" y="537.6945">1</text><text fill="#000000" font-family="sans-serif" font-size="13" lengthAdjust="spacing" textLength="7" x="103.7039" y="583.8767">1</text></g><!--link Interview to InterviewModel--><g id="link_Interview_InterviewModel"><path codeLine="51" d="M454.3,285.56 C400.01,307.51 305.34,348.31 230,394 C209.74,406.28 188.76,421.62 170.74,435.73 " fill="none" id="Interview-to-InterviewModel" style="stroke:#181818;stroke-width:1.0;"/><polygon fill="#181818" points="166.71,438.91,176.2531,436.475,170.6351,435.8127,171.2974,430.1948,166.71,438.91" style="stroke:#181818;stroke-width:1.0;"/><text fill="#000000" font-family="sans-serif" font-size="13" lengthAdjust="spacing" textLength="39" x="273" y="382.0283">follows</text><text fill="#000000" font-family="sans-serif" font-size="13" lengthAdjust="spacing" textLength="7" x="439.4825" y="284.2336">1</text><text fill="#000000" font-family="sans-serif" font-size="13" lengthAdjust="spacing" textLength="7" x="167.0505" y="427.617">1</text></g><!--link ANTLRValidator to Interview--><g id="link_ANTLRValidator_Interview"><path codeLine="53" d="M498,113.31 C498,143.21 498,189.56 498,223.44 " fill="none" id="ANTLRValidator-to-Interview" style="stroke:#181818;stroke-width:1.0;"/><polygon fill="#181818" points="498,228.77,502,219.77,498,223.77,494,219.77,498,228.77" style="stroke:#181818;stroke-width:1.0;"/><text fill="#000000" font-family="sans-serif" font-size="13" lengthAdjust="spacing" textLength="50" x="499" y="166.0283">validates</text></g><!--link Candidate to PhoneNumber--><g id="link_Candidate_PhoneNumber"><path codeLine="55" d="M1275,306.17 C1275,344.66 1275,403.97 1275,441.48 " fill="none" id="Candidate-to-PhoneNumber" style="stroke:#181818;stroke-width:1.0;"/><polygon fill="#181818" points="1275,446.85,1279,437.85,1275,441.85,1271,437.85,1275,446.85" style="stroke:#181818;stroke-width:1.0;"/><text fill="#000000" font-family="sans-serif" font-size="13" lengthAdjust="spacing" textLength="21" x="1276" y="382.0283">has</text><text fill="#000000" font-family="sans-serif" font-size="13" lengthAdjust="spacing" textLength="7" x="1267.4641" y="327.4785">1</text><text fill="#000000" font-family="sans-serif" font-size="13" lengthAdjust="spacing" textLength="7" x="1267.2781" y="435.8767">1</text></g><!--link Candidate to User--><g id="link_Candidate_User"><path codeLine="56" d="M1311.04,306.17 C1345.83,342.54 1398.41,397.49 1434.37,435.08 " fill="none" id="Candidate-to-User" style="stroke:#181818;stroke-width:1.0;"/><polygon fill="#181818" points="1438.23,439.11,1434.8996,429.8413,1434.7739,435.4968,1429.1184,435.3711,1438.23,439.11" style="stroke:#181818;stroke-width:1.0;"/><text fill="#000000" font-family="sans-serif" font-size="13" lengthAdjust="spacing" textLength="48" x="1387" y="382.0283">includes</text><text fill="#000000" font-family="sans-serif" font-size="13" lengthAdjust="spacing" textLength="7" x="1309.0227" y="327.4785">1</text><text fill="#000000" font-family="sans-serif" font-size="13" lengthAdjust="spacing" textLength="7" x="1424.235" y="427.8527">1</text></g><!--link User to Name--><g id="link_User_Name"><path codeLine="57" d="M1463.18,516.1 C1456.63,538.88 1448.33,567.73 1441.94,589.93 " fill="none" id="User-to-Name" style="stroke:#181818;stroke-width:1.0;"/><polygon fill="#181818" points="1440.53,594.85,1446.8693,587.3126,1441.9168,590.0462,1439.1832,585.0937,1440.53,594.85" style="stroke:#181818;stroke-width:1.0;"/><text fill="#000000" font-family="sans-serif" font-size="13" lengthAdjust="spacing" textLength="21" x="1455" y="561.0283">has</text><text fill="#000000" font-family="sans-serif" font-size="13" lengthAdjust="spacing" textLength="7" x="1453.8978" y="537.6945">1</text><text fill="#000000" font-family="sans-serif" font-size="13" lengthAdjust="spacing" textLength="7" x="1434.5674" y="583.8767">1</text></g><!--link User to Email--><g id="link_User_Email"><path codeLine="58" d="M1491.25,516.1 C1501.75,538.97 1515.06,567.97 1525.27,590.21 " fill="none" id="User-to-Email" style="stroke:#181818;stroke-width:1.0;"/><polygon fill="#181818" points="1527.39,594.85,1527.27,585.0019,1525.3038,590.306,1519.9996,588.3398,1527.39,594.85" style="stroke:#181818;stroke-width:1.0;"/><text fill="#000000" font-family="sans-serif" font-size="13" lengthAdjust="spacing" textLength="21" x="1514" y="561.0283">has</text><text fill="#000000" font-family="sans-serif" font-size="13" lengthAdjust="spacing" textLength="7" x="1486.4414" y="537.6945">1</text><text fill="#000000" font-family="sans-serif" font-size="13" lengthAdjust="spacing" textLength="7" x="1516.8611" y="583.8767">1</text></g><!--link User to Password--><g id="link_User_Password"><path codeLine="59" d="M1509.86,506.65 C1540.78,530.92 1585.45,565.98 1618.02,591.55 " fill="none" id="User-to-Password" style="stroke:#181818;stroke-width:1.0;"/><polygon fill="#181818" points="1622.33,594.93,1617.723,586.2251,1618.3979,591.8415,1612.7815,592.5164,1622.33,594.93" style="stroke:#181818;stroke-width:1.0;"/><text fill="#000000" font-family="sans-serif" font-size="13" lengthAdjust="spacing" textLength="21" x="1584" y="561.0283">has</text><text fill="#000000" font-family="sans-serif" font-size="13" lengthAdjust="spacing" textLength="7" x="1517.609" y="507.8174">1</text><text fill="#000000" font-family="sans-serif" font-size="13" lengthAdjust="spacing" textLength="7" x="1606.8387" y="583.9732">1</text></g><!--link Application to ApplicationDate--><g id="link_Application_ApplicationDate"><path codeLine="61" d="M981.18,121.42 C965.85,154.05 943.92,200.71 929.1,232.23 " fill="none" id="Application-to-ApplicationDate" style="stroke:#181818;stroke-width:1.0;"/><polygon fill="#181818" points="926.97,236.77,934.4185,230.3264,929.0969,232.2449,927.1784,226.9233,926.97,236.77" style="stroke:#181818;stroke-width:1.0;"/><text fill="#000000" font-family="sans-serif" font-size="13" lengthAdjust="spacing" textLength="7" x="971.0486" y="142.4681">1</text><text fill="#000000" font-family="sans-serif" font-size="13" lengthAdjust="spacing" textLength="7" x="922.1294" y="225.7802">1</text></g><!--link Application to Interview--><g id="link_Application_Interview"><path codeLine="62" d="M948.2,102.05 C851.33,137.44 641.37,214.13 546.4,248.82 " fill="none" id="Application-to-Interview" style="stroke:#181818;stroke-width:1.0;"/><polygon fill="#181818" points="541.69,250.54,551.5158,251.2139,546.3873,248.8267,548.7745,243.6982,541.69,250.54" style="stroke:#181818;stroke-width:1.0;"/><text fill="#000000" font-family="sans-serif" font-size="13" lengthAdjust="spacing" textLength="7" x="933.5641" y="100.6848">1</text><text fill="#000000" font-family="sans-serif" font-size="13" lengthAdjust="spacing" textLength="7" x="549.5058" y="243.4135">1</text></g><!--link Application to ApplicationStatus--><g id="link_Application_ApplicationStatus"><path codeLine="63" d="M1016.61,121.42 C1026.5,142.71 1039.16,169.97 1050.84,195.1 " fill="none" id="Application-to-ApplicationStatus" style="stroke:#181818;stroke-width:1.0;"/><polygon fill="#181818" points="1053,199.77,1052.8544,189.9222,1050.902,195.2315,1045.5928,193.279,1053,199.77" style="stroke:#181818;stroke-width:1.0;"/><text fill="#000000" font-family="sans-serif" font-size="13" lengthAdjust="spacing" textLength="7" x="1011.6824" y="142.4681">1</text><text fill="#000000" font-family="sans-serif" font-size="13" lengthAdjust="spacing" textLength="7" x="1042.4422" y="188.9487">1</text></g><!--link Application to Candidate--><g id="link_Application_Candidate"><path codeLine="64" d="M1049.83,110.7 C1084.7,129.96 1131.6,157.06 1171,184 C1189.59,196.71 1209.14,211.74 1226.21,225.46 " fill="none" id="Application-to-Candidate" style="stroke:#181818;stroke-width:1.0;"/><polygon fill="#181818" points="1230.5,228.92,1226.0179,220.1501,1226.6124,225.7757,1220.9869,226.3702,1230.5,228.92" style="stroke:#181818;stroke-width:1.0;"/><text fill="#000000" font-family="sans-serif" font-size="13" lengthAdjust="spacing" textLength="60" x="1149" y="166.0283">belongs to</text><text fill="#000000" font-family="sans-serif" font-size="13" lengthAdjust="spacing" textLength="7" x="1057.4702" y="110.5512">1</text><text fill="#000000" font-family="sans-serif" font-size="13" lengthAdjust="spacing" textLength="7" x="1214.95" y="217.6288">1</text></g><!--SRC=[ZPNVJzim4CVV_LUSU8A78fe1qwAg6gCCqRLTH4ltx2P7i73io3_ILOZ_7ISfYLlIiPSszdtolVFT-QAVcSYfeXdaD7wcASxDXYCeZ0qLAKT2jljm9mogWk5wAXFaLscgCAK6uOK0e33CRFQGmK19QOP360ngktjyUNLqpAdMUt34RSg4GvUKMnmE7VZQ-hxASyvYQfWKdOuzk-Ui2S1tww6ZKgNnM4CeREOpSqEDrJxb82W99GjCgiK81Ti-_g7CC94sPwisxqIaf8jQQxVSEPSJPKdjf-JZtKFD5fFxBI6L2q7NJ1sgft9DHL92sEJ6KscCq9KPBp7HanGuizaArO4gDAVQhS5UEJq_xsuyB_DOAXmCYaR_tJ2ssh37RTON-DTqGOsJidJ_11Oism6yOpouF7PsKMc0Zgxrz6Sq-z0ojUKceuntcoBtivOgsUzkqkRig7y4lTwm-gzI126aA52v4FK1xaF63d0xIVkCAVFc1LRTpMxIlxOXF57zcNIj5SAZv5okDI5x3Lw-q4g4KDGMTtxIDh6lx7NiDe9khgfh24p4t2PEhbhxG5NLMk63hQxh0MDJsTfElC6nm-qDdODSEpV-GwaUJGV9DXSXh91BaMemqdLTrNhm7KLYCqv8nAam3zC95AXqAT8_3Sw2BwV1yTmA-8ah22xXx5iON8JdN-5ske3IV4AERwC9Q6cLcre9qqQnbIs3E25ZMb2uj-xsP1Z2xnp5UFJhVGDkHC6K59cxNMIydBR0vNdl1pDGJaANvkMKZF2HMcxS6x5Ct5GDuJhl1nS1cRXFatLNEOJSa6lfXDKcX6Zn1W00]--></g></svg>