<?xml version="1.0" encoding="us-ascii" standalone="no"?><svg xmlns="http://www.w3.org/2000/svg" xmlns:xlink="http://www.w3.org/1999/xlink" contentStyleType="text/css" height="976px" preserveAspectRatio="none" style="width:1069px;height:976px;background:#FFFFFF;" version="1.1" viewBox="0 0 1069 976" width="1069px" zoomAndPan="magnify"><defs/><g><!--class DeactivateBackofficeUserUI--><g id="elem_DeactivateBackofficeUserUI"><polygon fill="#F1F1F1" points="487.5,7,487.5,7.2102,497.5,6.5857,507.5,7.1933,517.5,7.3997,527.5,6.2866,537.5,6.9223,547.5,6.5735,557.5,6.6165,567.5,6.9318,577.5,6.3086,587.5,7.5536,597.5,6.3697,607.5,6.8022,617.5,7.4319,627.5,6.9142,637.5,7.0682,647.5,6.9681,657.5,7.1785,667.5,7.2391,677.5,7.5857,687.5,7,687.5856,7.2067,687.9402,7.3556,688.2396,7.3713,688.6198,7.5821,689.0038,7.802,689.2678,7.7322,689.0457,7.6402,689.6232,8.1723,689.4693,8.4015,689.8715,8.861,689.7011,9.0833,690,9.5,689.9315,9.5,690.7416,19.8138,689.9513,30.1276,690.1053,40.4414,690.3386,50.7552,690.4162,61.069,689.9961,71.3828,690.2872,81.6966,689.4276,92.0104,690,102.3242,690.0876,102.3605,690.0224,102.7477,689.844,103.088,689.7494,103.4631,689.2654,103.6768,689.2678,104.092,689.1846,103.8911,688.8349,104.0471,688.5531,104.3667,688.182,104.4708,687.9405,104.8876,687.5,104.8242,687.5,104.6495,677.5,104.4812,667.5,105.0525,657.5,104.1574,647.5,104.3051,637.5,105.4732,627.5,105.2599,617.5,105.5587,607.5,104.5024,597.5,105.1434,587.5,105.4146,577.5,104.3518,567.5,104.7284,557.5,104.9502,547.5,105.476,537.5,104.82,527.5,105.2868,517.5,104.2704,507.5,104.147,497.5,105.3278,487.5,104.8242,487.4085,104.6034,487.2114,104.8345,486.8193,104.595,486.4052,104.3024,486.0407,104.1295,485.7322,104.092,485.8735,104.1505,485.4936,103.7002,485.6216,103.4604,485.1227,102.9608,485.3366,102.7565,485,102.3242,485.4843,102.3242,485.245,92.0104,485.0472,81.6966,485.7266,71.3828,485.6136,61.069,485.1693,50.7552,485.2682,40.4414,484.8697,30.1276,485.7165,19.8138,485,9.5,485.0477,9.5198,485.1996,9.1685,485.1055,8.7153,485.3145,8.3876,485.7492,8.1535,485.7322,7.7322,485.7871,7.8646,486.0803,7.5726,486.3982,7.3401,486.765,7.2255,487.0589,6.9351,487.5,7" style="stroke:#181818;stroke-width:0.5;"/><polygon fill="#ADD1B2" points="511.0608,31.9667,509.4484,34.1698,507.5412,37.3967,504.8136,39.5714,501.9474,40.7606,499.662,40.8638,496.7247,39.3766,493.9532,38.4049,491.8495,36.4322,490.7461,34.1738,490.0917,32.3756,489.4506,30.0267,488.41,28.0055,489.2096,26.032,489.9102,23.8702,492.5393,22.1605,494.389,19.9421,496.6784,19.2055,499.4001,18.5711,502.8904,18.948,504.8021,19.8495,507.0247,20.2582,509.7272,23.027,510.6693,25.95,511.0786,27.9444,510.615,31.2309" style="stroke:#181818;stroke-width:1.0;"/><path d="M502.7656,25.166 Q502.9219,24.9473 503.1094,24.8379 Q503.2969,24.7285 503.5156,24.7285 Q503.8906,24.7285 504.125,24.9941 Q504.3594,25.2441 504.3594,25.8535 L504.3594,27.3066 Q504.3594,27.916 504.125,28.1816 Q503.8906,28.4473 503.5156,28.4473 Q503.1719,28.4473 502.9688,28.2441 Q502.7656,28.0566 502.6563,27.541 Q502.6094,27.1816 502.4219,26.9941 Q502.0938,26.6191 501.4844,26.4004 Q500.875,26.1816 500.25,26.1816 Q499.4844,26.1816 498.8438,26.5098 Q498.2188,26.8379 497.7188,27.5879 Q497.2344,28.3379 497.2344,29.3691 L497.2344,30.4629 Q497.2344,31.6973 498.125,32.5254 Q499.0156,33.3379 500.6094,33.3379 Q501.5469,33.3379 502.2031,33.0879 Q502.5938,32.9316 503.0156,32.4941 Q503.2813,32.2285 503.4219,32.1504 Q503.5781,32.0723 503.7813,32.0723 Q504.1094,32.0723 504.3594,32.3379 Q504.625,32.5879 504.625,32.9316 Q504.625,33.2754 504.2813,33.6816 Q503.7813,34.2598 502.9844,34.5879 Q501.9063,35.041 500.6094,35.041 Q499.0938,35.041 497.8906,34.416 Q496.9063,33.916 496.2188,32.8535 Q495.5313,31.7754 495.5313,30.4941 L495.5313,29.3379 Q495.5313,28.0098 496.1406,26.8691 Q496.7656,25.7129 497.8594,25.1035 Q498.9531,24.4785 500.1875,24.4785 Q500.9219,24.4785 501.5625,24.6504 Q502.2188,24.8066 502.7656,25.166 Z " fill="#000000"/><text fill="#000000" font-family="FG Virgil" font-size="12" font-style="italic" lengthAdjust="spacing" textLength="82" x="559.5" y="24.9492">&#171;presentation&#187;</text><text fill="#000000" font-family="FG Virgil" font-size="14" lengthAdjust="spacing" textLength="173" x="514" y="43.0684">DeactivateBackofficeUserUI</text><path d="M486,51.582 L486,51.8623 L496.15,51.0296 L506.3,51.8397 L516.45,52.1149 L526.6,50.6308 L536.75,51.4784 L546.9,51.0134 L557.05,51.0707 L567.2,51.4912 L577.35,50.6602 L587.5,52.3202 L597.65,50.7417 L607.8,51.3183 L617.95,52.158 L628.1,51.4677 L638.25,51.673 L648.4,51.5394 L658.55,51.8201 L668.7,51.9009 L678.85,52.363 L689,51.582 " fill="#F1F1F1" style="stroke:#181818;stroke-width:0.5;"/><path d="M486,59.582 L486,59.8623 L496.15,59.0296 L506.3,59.8397 L516.45,60.1149 L526.6,58.6308 L536.75,59.4784 L546.9,59.0134 L557.05,59.0707 L567.2,59.4912 L577.35,58.6602 L587.5,60.3202 L597.65,58.7417 L607.8,59.3183 L617.95,60.158 L628.1,59.4677 L638.25,59.673 L648.4,59.5394 L658.55,59.8201 L668.7,59.9009 L678.85,60.363 L689,59.582 " fill="#F1F1F1" style="stroke:#181818;stroke-width:0.5;"/><polygon fill="#F24D5C" points="493,71.3926,493,71.4626,494.2,71.2545,495.4,71.457,496.6,71.5258,497.8,71.1548,499,71.3926,498.9741,71.3926,498.8578,72.5926,498.8722,73.7926,498.9773,74.9926,498.7695,76.1926,499,77.3926,499,77.5771,497.8,77.1825,496.6,77.3267,495.4,77.5366,494.2,77.364,493,77.3926,493.0227,77.3926,492.9894,76.1926,493.0595,74.9926,493.0797,73.7926,493.1952,72.5926,493,71.3926" style="stroke:#C82930;stroke-width:1.0;"/><text fill="#000000" font-family="FG Virgil" font-size="14" lengthAdjust="spacing" textLength="60" x="505" y="78.6895">doShow()</text><polygon fill="#F24D5C" points="493,90.0137,493,90.0837,494.2,89.8756,495.4,90.0781,496.6,90.1469,497.8,89.7759,499,90.0137,498.9741,90.0137,498.8578,91.2137,498.8722,92.4137,498.9773,93.6137,498.7695,94.8137,499,96.0137,499,96.1982,497.8,95.8036,496.6,95.9477,495.4,96.1577,494.2,95.9851,493,96.0137,493.0227,96.0137,492.9894,94.8137,493.0595,93.6137,493.0797,92.4137,493.1952,91.2137,493,90.0137" style="stroke:#C82930;stroke-width:1.0;"/><text fill="#000000" font-family="FG Virgil" font-size="14" lengthAdjust="spacing" textLength="64" x="505" y="97.3105">headline()</text></g><!--class DeactivateBackofficeUserController--><g id="elem_DeactivateBackofficeUserController"><polygon fill="#F1F1F1" points="415.5,184,415.5,184.2102,425.6176,183.5857,435.7353,184.1933,445.8529,184.3997,455.9706,183.2866,466.0882,183.9223,476.2059,183.5735,486.3235,183.6165,496.4412,183.9318,506.5588,183.3086,516.6765,184.5536,526.7941,183.3697,536.9118,183.8022,547.0294,184.4319,557.1471,183.9142,567.2647,184.0682,577.3824,183.9681,587.5,184.1785,597.6176,184.2391,607.7353,184.5857,617.8529,184.6711,627.9706,184.6793,638.0882,184.2546,648.2059,184.4636,658.3235,184.7022,668.4412,183.2788,678.5588,184.6785,688.6765,183.7035,698.7941,184.5338,708.9118,183.505,719.0294,183.9315,729.1471,184.7416,739.2647,183.9513,749.3824,184.1053,759.5,184,759.5432,184.1043,759.9066,184.2746,760.2066,184.2917,760.5973,184.5278,760.8412,184.4095,761.2678,184.7322,761.3553,184.7685,761.583,185.1557,761.6976,185.496,761.8959,185.8711,761.7048,186.0848,762,186.5,761.3478,186.5,761.3786,196.6314,761.9411,206.7628,761.8035,216.8942,762.6814,227.0256,761.8253,237.157,761.6569,247.2884,762.2283,257.4197,761.3332,267.5511,761.4809,277.6825,762.649,287.8139,762,297.9453,762.1342,298.0009,762.0797,298.3926,761.608,298.6114,761.659,299.0467,761.596,299.4348,761.2678,299.7131,761.2075,299.5676,760.902,299.83,760.5767,300.0448,760.2902,300.3531,759.853,300.2976,759.5,300.4453,759.5,300.9079,749.3824,299.8915,739.2647,299.7681,729.1471,300.9489,719.0294,299.7284,708.9118,300.9543,698.7941,300.6519,688.6765,300.1774,678.5588,300.0915,668.4412,300.9041,658.3235,300.146,648.2059,301.0372,638.0882,299.8926,627.9706,301.0627,617.8529,300.9296,607.7353,300.6903,597.6176,300.4925,587.5,301.1719,577.3824,301.0589,567.2647,300.6146,557.1471,300.7135,547.0294,300.315,536.9118,301.1618,526.7941,300.6002,516.6765,300.6179,506.5588,299.837,496.4412,300.0401,486.3235,300.9761,476.2059,300.8751,466.0882,300.4024,455.9706,300.1231,445.8529,300.2264,435.7353,299.7591,425.6176,300.86,415.5,300.4453,415.5943,300.6731,415.2136,300.461,414.8815,300.3664,414.4219,299.9639,414.0969,299.8864,413.7322,299.7131,413.6129,299.6636,413.6733,299.3958,413.5153,299.0375,413.463,298.7229,413.0757,298.2696,413,297.9453,412.8656,297.9453,413.4435,287.8139,413.5673,277.6825,412.4875,267.5511,412.8061,257.4197,413.1493,247.2884,412.3892,237.157,413.3534,227.0256,413.258,216.8942,412.8992,206.7628,413.1422,196.6314,413,186.5,413.2244,186.593,413.0501,186.1065,413.3899,185.8331,413.5273,185.4758,413.6214,185.1006,413.7322,184.7322,413.7502,184.7756,414.1003,184.6207,414.3597,184.2471,414.7418,184.1695,415.0876,184.0043,415.5,184" style="stroke:#181818;stroke-width:0.5;"/><polygon fill="#ADD1B2" points="482.8108,208.9667,481.1984,211.1698,479.2912,214.3967,476.5636,216.5714,473.6974,217.7606,471.412,217.8638,468.4747,216.3766,465.7032,215.4049,463.5995,213.4322,462.4961,211.1738,461.8417,209.3756,461.2006,207.0267,460.16,205.0055,460.9596,203.032,461.6602,200.8702,464.2893,199.1605,466.139,196.9421,468.4284,196.2055,471.1501,195.5711,474.6404,195.948,476.5521,196.8495,478.7747,197.2582,481.4772,200.027,482.4193,202.95,482.8286,204.9444,482.365,208.2309" style="stroke:#181818;stroke-width:1.0;"/><path d="M474.5156,202.166 Q474.6719,201.9473 474.8594,201.8379 Q475.0469,201.7285 475.2656,201.7285 Q475.6406,201.7285 475.875,201.9941 Q476.1094,202.2441 476.1094,202.8535 L476.1094,204.3066 Q476.1094,204.916 475.875,205.1816 Q475.6406,205.4473 475.2656,205.4473 Q474.9219,205.4473 474.7188,205.2441 Q474.5156,205.0566 474.4063,204.541 Q474.3594,204.1816 474.1719,203.9941 Q473.8438,203.6191 473.2344,203.4004 Q472.625,203.1816 472,203.1816 Q471.2344,203.1816 470.5938,203.5098 Q469.9688,203.8379 469.4688,204.5879 Q468.9844,205.3379 468.9844,206.3691 L468.9844,207.4629 Q468.9844,208.6973 469.875,209.5254 Q470.7656,210.3379 472.3594,210.3379 Q473.2969,210.3379 473.9531,210.0879 Q474.3438,209.9316 474.7656,209.4941 Q475.0313,209.2285 475.1719,209.1504 Q475.3281,209.0723 475.5313,209.0723 Q475.8594,209.0723 476.1094,209.3379 Q476.375,209.5879 476.375,209.9316 Q476.375,210.2754 476.0313,210.6816 Q475.5313,211.2598 474.7344,211.5879 Q473.6563,212.041 472.3594,212.041 Q470.8438,212.041 469.6406,211.416 Q468.6563,210.916 467.9688,209.8535 Q467.2813,208.7754 467.2813,207.4941 L467.2813,206.3379 Q467.2813,205.0098 467.8906,203.8691 Q468.5156,202.7129 469.6094,202.1035 Q470.7031,201.4785 471.9375,201.4785 Q472.6719,201.4785 473.3125,201.6504 Q473.9688,201.8066 474.5156,202.166 Z " fill="#000000"/><text fill="#000000" font-family="FG Virgil" font-size="12" font-style="italic" lengthAdjust="spacing" textLength="74" x="566.75" y="201.9492">&#171;application&#187;</text><text fill="#000000" font-family="FG Virgil" font-size="14" lengthAdjust="spacing" textLength="223" x="492.25" y="220.0684">DeactivateBackofficeUserController</text><path d="M414,228.582 L414,228.8623 L423.9143,228.0296 L433.8286,228.8397 L443.7429,229.1149 L453.6571,227.6308 L463.5714,228.4784 L473.4857,228.0134 L483.4,228.0707 L493.3143,228.4912 L503.2286,227.6602 L513.1429,229.3202 L523.0571,227.7417 L532.9714,228.3183 L542.8857,229.158 L552.8,228.4677 L562.7143,228.673 L572.6286,228.5394 L582.5429,228.8201 L592.4571,228.9009 L602.3714,229.363 L612.2857,229.4768 L622.2,229.4877 L632.1143,228.9215 L642.0286,229.2001 L651.9429,229.5183 L661.8571,227.6205 L671.7714,229.4867 L681.6857,228.1867 L691.6,229.2938 L701.5143,227.922 L711.4286,228.4907 L721.3429,229.5708 L731.2571,228.5171 L741.1714,228.7224 L751.0857,229.0335 L761,228.582 " fill="#F1F1F1" style="stroke:#181818;stroke-width:0.5;"/><path d="M414,236.582 L414,236.8623 L423.9143,236.0296 L433.8286,236.8397 L443.7429,237.1149 L453.6571,235.6308 L463.5714,236.4784 L473.4857,236.0134 L483.4,236.0707 L493.3143,236.4912 L503.2286,235.6602 L513.1429,237.3202 L523.0571,235.7417 L532.9714,236.3183 L542.8857,237.158 L552.8,236.4677 L562.7143,236.673 L572.6286,236.5394 L582.5429,236.8201 L592.4571,236.9009 L602.3714,237.363 L612.2857,237.4768 L622.2,237.4877 L632.1143,236.9215 L642.0286,237.2001 L651.9429,237.5183 L661.8571,235.6205 L671.7714,237.4867 L681.6857,236.1867 L691.6,237.2938 L701.5143,235.922 L711.4286,236.4907 L721.3429,237.5708 L731.2571,236.5171 L741.1714,236.7224 L751.0857,237.0335 L761,236.582 " fill="#F1F1F1" style="stroke:#181818;stroke-width:0.5;"/><polygon fill="#F24D5C" points="421,248.3926,421,248.4626,422.2,248.2545,423.4,248.457,424.6,248.5258,425.8,248.1548,427,248.3926,426.9741,248.3926,426.8578,249.5926,426.8722,250.7926,426.9773,251.9926,426.7695,253.1926,427,254.3926,427,254.5771,425.8,254.1825,424.6,254.3267,423.4,254.5366,422.2,254.364,421,254.3926,421.0227,254.3926,420.9894,253.1926,421.0595,251.9926,421.0797,250.7926,421.1952,249.5926,421,248.3926" style="stroke:#C82930;stroke-width:1.0;"/><text fill="#000000" font-family="FG Virgil" font-size="14" lengthAdjust="spacing" textLength="83" x="433" y="255.6895">activeUsers()</text><polygon fill="#F24D5C" points="421,267.0137,421,267.0837,422.2,266.8756,423.4,267.0781,424.6,267.1469,425.8,266.7759,427,267.0137,426.9741,267.0137,426.8578,268.2137,426.8722,269.4137,426.9773,270.6137,426.7695,271.8137,427,273.0137,427,273.1982,425.8,272.8036,424.6,272.9477,423.4,273.1577,422.2,272.9851,421,273.0137,421.0227,273.0137,420.9894,271.8137,421.0595,270.6137,421.0797,269.4137,421.1952,268.2137,421,267.0137" style="stroke:#C82930;stroke-width:1.0;"/><text fill="#000000" font-family="FG Virgil" font-size="14" lengthAdjust="spacing" textLength="323" x="433" y="274.3105">filterBackofficeUsers(users : Iterable&lt;SystemUser&gt;)</text><polygon fill="#F24D5C" points="421,285.6348,421,285.7048,422.2,285.4967,423.4,285.6992,424.6,285.768,425.8,285.397,427,285.6348,426.9741,285.6348,426.8578,286.8348,426.8722,288.0348,426.9773,289.2348,426.7695,290.4348,427,291.6348,427,291.8193,425.8,291.4247,424.6,291.5688,423.4,291.7787,422.2,291.6062,421,291.6348,421.0227,291.6348,420.9894,290.4348,421.0595,289.2348,421.0797,288.0348,421.1952,286.8348,421,285.6348" style="stroke:#C82930;stroke-width:1.0;"/><text fill="#000000" font-family="FG Virgil" font-size="14" lengthAdjust="spacing" textLength="219" x="433" y="292.9316">deactivateUser(user : SystemUser)</text></g><!--class AuthorizationService--><g id="elem_AuthorizationService"><polygon fill="#F1F1F1" points="9.5,388.5,9.5,388.7102,19.4048,388.0857,29.3095,388.6933,39.2143,388.8997,49.119,387.7866,59.0238,388.4223,68.9286,388.0735,78.8333,388.1165,88.7381,388.4318,98.6429,387.8086,108.5476,389.0536,118.4524,387.8697,128.3571,388.3022,138.2619,388.9319,148.1667,388.4142,158.0714,388.5682,167.9762,388.4681,177.881,388.6785,187.7857,388.7391,197.6905,389.0857,207.5952,389.1711,217.5,389.1793,227.4048,388.7546,237.3095,388.9636,247.2143,389.2022,257.119,387.7788,267.0238,389.1785,276.9286,388.2035,286.8333,389.0338,296.7381,388.005,306.6429,388.4315,316.5476,389.2416,326.4524,388.4513,336.3571,388.6053,346.2619,388.8386,356.1667,388.9162,366.0714,388.4961,375.9762,388.7872,385.881,387.9276,395.7857,388.7844,405.6905,389.0482,415.5952,388.9445,425.5,388.5,425.5782,388.6888,425.7919,388.4977,426.1239,388.592,426.4814,388.748,426.9067,389.0677,427.2678,389.2322,427.2072,389.2072,427.6241,389.6727,427.5069,389.9171,427.6015,390.2491,427.9239,390.6756,428,391,427.3332,391,427.4809,401.6004,428.649,412.2009,428.4357,422.8013,428.7345,433.4018,427.6782,444.0022,428.3192,454.6027,428,465.2031,428.1818,465.2784,427.7081,465.4964,427.6776,465.898,427.5995,466.2799,427.6149,466.7005,427.2678,466.9709,427.2672,466.9696,426.9732,467.2598,426.49,467.0932,426.1207,467.2017,425.9178,467.7118,425.5,467.7031,425.5,466.9862,415.5952,468.2121,405.6905,467.9098,395.7857,467.4352,385.881,467.3494,375.9762,468.1619,366.0714,467.4038,356.1667,468.295,346.2619,467.1504,336.3571,468.3206,326.4524,468.1874,316.5476,467.9481,306.6429,467.7503,296.7381,468.4297,286.8333,468.3167,276.9286,467.8724,267.0238,467.9713,257.119,467.5729,247.2143,468.4196,237.3095,467.858,227.4048,467.8757,217.5,467.0948,207.5952,467.2979,197.6905,468.2339,187.7857,468.1329,177.881,467.6602,167.9762,467.381,158.0714,467.4842,148.1667,467.0169,138.2619,468.1179,128.3571,468.4427,118.4524,468.2295,108.5476,468.3981,98.6429,467.5664,88.7381,467.7903,78.8333,467.3155,68.9286,467.9872,59.0238,467.9499,49.119,468.2555,39.2143,467.4735,29.3095,467.5687,19.4048,468.1466,9.5,467.7031,9.5724,467.8778,9.0811,467.3988,8.7682,467.3505,8.4584,467.3098,8.0079,466.9292,7.7322,466.9709,7.8411,467.016,7.6652,466.6502,7.4083,466.2509,7.3367,465.9284,7.3708,465.6496,7,465.2031,6.6871,465.2031,7.315,454.6027,7.2856,444.0022,7.1158,433.4018,7.1409,422.8013,7.1135,412.2009,6.3758,401.6004,7,391,6.8766,390.9489,7.0043,390.5876,7.3125,390.301,7.4665,389.9506,7.6356,389.6064,7.7322,389.2322,7.6951,389.1426,8.0772,389.065,8.424,388.9023,8.8665,388.9705,9.2009,388.7778,9.5,388.5" style="stroke:#181818;stroke-width:0.5;"/><polygon fill="#ADD1B2" points="159.8108,413.4667,158.1984,415.6698,156.2912,418.8967,153.5636,421.0714,150.6974,422.2606,148.412,422.3638,145.4747,420.8766,142.7032,419.9049,140.5995,417.9322,139.4961,415.6738,138.8417,413.8756,138.2006,411.5267,137.16,409.5055,137.9596,407.532,138.6602,405.3702,141.2893,403.6605,143.139,401.4421,145.4284,400.7055,148.1501,400.0711,151.6404,400.448,153.5521,401.3495,155.7747,401.7582,158.4772,404.527,159.4193,407.45,159.8286,409.4444,159.365,412.7309" style="stroke:#181818;stroke-width:1.0;"/><path d="M151.5156,406.666 Q151.6719,406.4473 151.8594,406.3379 Q152.0469,406.2285 152.2656,406.2285 Q152.6406,406.2285 152.875,406.4941 Q153.1094,406.7441 153.1094,407.3535 L153.1094,408.8066 Q153.1094,409.416 152.875,409.6816 Q152.6406,409.9473 152.2656,409.9473 Q151.9219,409.9473 151.7188,409.7441 Q151.5156,409.5566 151.4063,409.041 Q151.3594,408.6816 151.1719,408.4941 Q150.8438,408.1191 150.2344,407.9004 Q149.625,407.6816 149,407.6816 Q148.2344,407.6816 147.5938,408.0098 Q146.9688,408.3379 146.4688,409.0879 Q145.9844,409.8379 145.9844,410.8691 L145.9844,411.9629 Q145.9844,413.1973 146.875,414.0254 Q147.7656,414.8379 149.3594,414.8379 Q150.2969,414.8379 150.9531,414.5879 Q151.3438,414.4316 151.7656,413.9941 Q152.0313,413.7285 152.1719,413.6504 Q152.3281,413.5723 152.5313,413.5723 Q152.8594,413.5723 153.1094,413.8379 Q153.375,414.0879 153.375,414.4316 Q153.375,414.7754 153.0313,415.1816 Q152.5313,415.7598 151.7344,416.0879 Q150.6563,416.541 149.3594,416.541 Q147.8438,416.541 146.6406,415.916 Q145.6563,415.416 144.9688,414.3535 Q144.2813,413.2754 144.2813,411.9941 L144.2813,410.8379 Q144.2813,409.5098 144.8906,408.3691 Q145.5156,407.2129 146.6094,406.6035 Q147.7031,405.9785 148.9375,405.9785 Q149.6719,405.9785 150.3125,406.1504 Q150.9688,406.3066 151.5156,406.666 Z " fill="#000000"/><text fill="#000000" font-family="FG Virgil" font-size="12" font-style="italic" lengthAdjust="spacing" textLength="53" x="207.25" y="406.4492">&#171;service&#187;</text><text fill="#000000" font-family="FG Virgil" font-size="14" lengthAdjust="spacing" textLength="129" x="169.25" y="424.5684">AuthorizationService</text><path d="M8,433.082 L8,433.3623 L17.9762,432.5296 L27.9524,433.3397 L37.9286,433.6149 L47.9048,432.1308 L57.881,432.9784 L67.8571,432.5134 L77.8333,432.5707 L87.8095,432.9912 L97.7857,432.1602 L107.7619,433.8202 L117.7381,432.2417 L127.7143,432.8183 L137.6905,433.658 L147.6667,432.9677 L157.6429,433.173 L167.619,433.0394 L177.5952,433.3201 L187.5714,433.4009 L197.5476,433.863 L207.5238,433.9768 L217.5,433.9877 L227.4762,433.4215 L237.4524,433.7001 L247.4286,434.0183 L257.4048,432.1205 L267.381,433.9867 L277.3571,432.6867 L287.3333,433.7938 L297.3095,432.422 L307.2857,432.9907 L317.2619,434.0708 L327.2381,433.0171 L337.2143,433.2224 L347.1905,433.5335 L357.1667,433.637 L367.1429,433.0768 L377.119,433.465 L387.0952,432.3188 L397.0714,433.4612 L407.0476,433.813 L417.0238,433.6747 L427,433.082 " fill="#F1F1F1" style="stroke:#181818;stroke-width:0.5;"/><path d="M8,441.082 L8,441.3623 L17.9762,440.5296 L27.9524,441.3397 L37.9286,441.6149 L47.9048,440.1308 L57.881,440.9784 L67.8571,440.5134 L77.8333,440.5707 L87.8095,440.9912 L97.7857,440.1602 L107.7619,441.8202 L117.7381,440.2417 L127.7143,440.8183 L137.6905,441.658 L147.6667,440.9677 L157.6429,441.173 L167.619,441.0394 L177.5952,441.3201 L187.5714,441.4009 L197.5476,441.863 L207.5238,441.9768 L217.5,441.9877 L227.4762,441.4215 L237.4524,441.7001 L247.4286,442.0183 L257.4048,440.1205 L267.381,441.9867 L277.3571,440.6867 L287.3333,441.7938 L297.3095,440.422 L307.2857,440.9907 L317.2619,442.0708 L327.2381,441.0171 L337.2143,441.2224 L347.1905,441.5335 L357.1667,441.637 L367.1429,441.0768 L377.119,441.465 L387.0952,440.3188 L397.0714,441.4612 L407.0476,441.813 L417.0238,441.6747 L427,441.082 " fill="#F1F1F1" style="stroke:#181818;stroke-width:0.5;"/><polygon fill="#F24D5C" points="15,452.8926,15,452.9626,16.2,452.7545,17.4,452.957,18.6,453.0258,19.8,452.6548,21,452.8926,20.9741,452.8926,20.8578,454.0926,20.8722,455.2926,20.9773,456.4926,20.7695,457.6926,21,458.8926,21,459.0771,19.8,458.6825,18.6,458.8267,17.4,459.0366,16.2,458.864,15,458.8926,15.0227,458.8926,14.9894,457.6926,15.0595,456.4926,15.0797,455.2926,15.1952,454.0926,15,452.8926" style="stroke:#C82930;stroke-width:1.0;"/><text fill="#000000" font-family="FG Virgil" font-size="14" lengthAdjust="spacing" textLength="395" x="27" y="460.1895">ensureAuthenticatedUserHasAnyOf(roles : List&lt;Jobs4uRoles&gt;)</text></g><!--class UserManagementService--><g id="elem_UserManagementService"><polygon fill="#F1F1F1" points="465.5,379,465.5,379.2102,475.6667,378.5857,485.8333,379.1933,496,379.3997,506.1667,378.2866,516.3333,378.9223,526.5,378.5735,536.6667,378.6165,546.8333,378.9318,557,378.3086,567.1667,379.5536,577.3333,378.3697,587.5,378.8022,597.6667,379.4319,607.8333,378.9142,618,379.0682,628.1667,378.9681,638.3333,379.1785,648.5,379.2391,658.6667,379.5857,668.8333,379.6711,679,379.6793,689.1667,379.2546,699.3333,379.4636,709.5,379,709.5896,379.2163,709.7616,378.9244,710.2937,379.5018,710.5228,379.348,710.9823,379.7502,711.2678,379.7322,711.1153,379.6691,711.3931,380.077,711.789,380.5339,711.6921,380.7867,711.886,381.1599,712,381.5,712.3386,381.5,712.4162,391.8138,711.9961,402.1276,712.2872,412.4414,711.4276,422.7552,712.2844,433.069,712.5482,443.3828,712.4445,453.6966,712.613,464.0104,712,474.3242,711.8512,474.2626,711.6527,474.5946,711.5157,474.9521,711.5425,475.3774,711.3537,475.7134,711.2678,476.092,711.3547,476.3018,710.8919,476.1846,710.5169,476.2792,710.2362,476.6016,709.7685,476.4724,709.5,476.8242,709.5,476.3051,699.3333,477.4732,689.1667,477.2599,679,477.5587,668.8333,476.5024,658.6667,477.1434,648.5,477.4146,638.3333,476.3518,628.1667,476.7284,618,476.9502,607.8333,477.476,597.6667,476.82,587.5,477.2868,577.3333,476.2704,567.1667,476.147,557,477.3278,546.8333,476.1073,536.6667,477.3332,526.5,477.0308,516.3333,476.5563,506.1667,476.4704,496,477.283,485.8333,476.5249,475.6667,477.4161,465.5,476.8242,465.4295,476.654,465.2252,476.8679,464.8547,476.6805,464.4706,476.4603,464.0918,476.253,463.7322,476.092,463.956,476.1847,463.7747,475.8167,463.4915,475.4065,463.3755,475.0655,463.1063,474.6612,463,474.3242,463.7165,474.3242,463.1549,464.0104,463.1726,453.6966,462.3916,443.3828,462.5948,433.069,463.5307,422.7552,463.4298,412.4414,462.9571,402.1276,462.6778,391.8138,463,381.5,462.9326,381.4721,462.9351,381.0589,463.4206,380.8458,463.6671,380.5337,463.7479,380.1529,463.7322,379.7322,463.8209,379.9462,464.0683,379.5437,464.4505,379.4662,464.7435,379.1735,465.1827,379.2339,465.5,379" style="stroke:#181818;stroke-width:0.5;"/><polygon fill="#ADD1B2" points="515.6108,403.9667,513.9984,406.1698,512.0912,409.3967,509.3636,411.5714,506.4974,412.7606,504.212,412.8638,501.2747,411.3766,498.5032,410.4049,496.3995,408.4322,495.2961,406.1738,494.6417,404.3756,494.0006,402.0267,492.96,400.0055,493.7596,398.032,494.4602,395.8702,497.0893,394.1605,498.939,391.9421,501.2284,391.2055,503.9501,390.5711,507.4404,390.948,509.3521,391.8495,511.5747,392.2582,514.2772,395.027,515.2193,397.95,515.6286,399.9444,515.165,403.2309" style="stroke:#181818;stroke-width:1.0;"/><path d="M507.3156,397.166 Q507.4719,396.9473 507.6594,396.8379 Q507.8469,396.7285 508.0656,396.7285 Q508.4406,396.7285 508.675,396.9941 Q508.9094,397.2441 508.9094,397.8535 L508.9094,399.3066 Q508.9094,399.916 508.675,400.1816 Q508.4406,400.4473 508.0656,400.4473 Q507.7219,400.4473 507.5188,400.2441 Q507.3156,400.0566 507.2063,399.541 Q507.1594,399.1816 506.9719,398.9941 Q506.6438,398.6191 506.0344,398.4004 Q505.425,398.1816 504.8,398.1816 Q504.0344,398.1816 503.3938,398.5098 Q502.7688,398.8379 502.2688,399.5879 Q501.7844,400.3379 501.7844,401.3691 L501.7844,402.4629 Q501.7844,403.6973 502.675,404.5254 Q503.5656,405.3379 505.1594,405.3379 Q506.0969,405.3379 506.7531,405.0879 Q507.1438,404.9316 507.5656,404.4941 Q507.8313,404.2285 507.9719,404.1504 Q508.1281,404.0723 508.3313,404.0723 Q508.6594,404.0723 508.9094,404.3379 Q509.175,404.5879 509.175,404.9316 Q509.175,405.2754 508.8313,405.6816 Q508.3313,406.2598 507.5344,406.5879 Q506.4563,407.041 505.1594,407.041 Q503.6438,407.041 502.4406,406.416 Q501.4563,405.916 500.7688,404.8535 Q500.0813,403.7754 500.0813,402.4941 L500.0813,401.3379 Q500.0813,400.0098 500.6906,398.8691 Q501.3156,397.7129 502.4094,397.1035 Q503.5031,396.4785 504.7375,396.4785 Q505.4719,396.4785 506.1125,396.6504 Q506.7688,396.8066 507.3156,397.166 Z " fill="#000000"/><text fill="#000000" font-family="FG Virgil" font-size="12" font-style="italic" lengthAdjust="spacing" textLength="53" x="576.95" y="396.9492">&#171;service&#187;</text><text fill="#000000" font-family="FG Virgil" font-size="14" lengthAdjust="spacing" textLength="158" x="524.45" y="415.0684">UserManagementService</text><path d="M464,423.582 L464,423.8623 L473.88,423.0296 L483.76,423.8397 L493.64,424.1149 L503.52,422.6308 L513.4,423.4784 L523.28,423.0134 L533.16,423.0707 L543.04,423.4912 L552.92,422.6602 L562.8,424.3202 L572.68,422.7417 L582.56,423.3183 L592.44,424.158 L602.32,423.4677 L612.2,423.673 L622.08,423.5394 L631.96,423.8201 L641.84,423.9009 L651.72,424.363 L661.6,424.4768 L671.48,424.4877 L681.36,423.9215 L691.24,424.2001 L701.12,424.5183 L711,423.582 " fill="#F1F1F1" style="stroke:#181818;stroke-width:0.5;"/><path d="M464,431.582 L464,431.8623 L473.88,431.0296 L483.76,431.8397 L493.64,432.1149 L503.52,430.6308 L513.4,431.4784 L523.28,431.0134 L533.16,431.0707 L543.04,431.4912 L552.92,430.6602 L562.8,432.3202 L572.68,430.7417 L582.56,431.3183 L592.44,432.158 L602.32,431.4677 L612.2,431.673 L622.08,431.5394 L631.96,431.8201 L641.84,431.9009 L651.72,432.363 L661.6,432.4768 L671.48,432.4877 L681.36,431.9215 L691.24,432.2001 L701.12,432.5183 L711,431.582 " fill="#F1F1F1" style="stroke:#181818;stroke-width:0.5;"/><polygon fill="#F24D5C" points="471,443.3926,471,443.4626,472.2,443.2545,473.4,443.457,474.6,443.5258,475.8,443.1548,477,443.3926,476.9741,443.3926,476.8578,444.5926,476.8722,445.7926,476.9773,446.9926,476.7695,448.1926,477,449.3926,477,449.5771,475.8,449.1825,474.6,449.3267,473.4,449.5366,472.2,449.364,471,449.3926,471.0227,449.3926,470.9894,448.1926,471.0595,446.9926,471.0797,445.7926,471.1952,444.5926,471,443.3926" style="stroke:#C82930;stroke-width:1.0;"/><text fill="#000000" font-family="FG Virgil" font-size="14" lengthAdjust="spacing" textLength="83" x="483" y="450.6895">activeUsers()</text><polygon fill="#F24D5C" points="471,462.0137,471,462.0837,472.2,461.8756,473.4,462.0781,474.6,462.1469,475.8,461.7759,477,462.0137,476.9741,462.0137,476.8578,463.2137,476.8722,464.4137,476.9773,465.6137,476.7695,466.8137,477,468.0137,477,468.1982,475.8,467.8036,474.6,467.9477,473.4,468.1577,472.2,467.9851,471,468.0137,471.0227,468.0137,470.9894,466.8137,471.0595,465.6137,471.0797,464.4137,471.1952,463.2137,471,462.0137" style="stroke:#C82930;stroke-width:1.0;"/><text fill="#000000" font-family="FG Virgil" font-size="14" lengthAdjust="spacing" textLength="223" x="483" y="469.3105">deactivateUser (user : SystemUser)</text></g><!--class PersistenceContext--><g id="elem_PersistenceContext"><polygon fill="#F1F1F1" points="513,556,513,556.2102,522.9333,555.5857,532.8667,556.1933,542.8,556.3997,552.7333,555.2866,562.6667,555.9223,572.6,555.5735,582.5333,555.6165,592.4667,555.9318,602.4,555.3086,612.3333,556.5536,622.2667,555.3697,632.2,555.8022,642.1333,556.4319,652.0667,555.9142,662,556,662.0087,556.021,662.3495,556.1366,662.7299,556.3479,663.0912,556.513,663.4889,556.7662,663.7678,556.7322,663.9744,556.8178,664.1234,557.1724,664.1391,557.4718,664.3499,557.852,664.5698,558.236,664.5,558.5,663.7788,558.5,665.1785,569.1004,664.2035,579.7009,665.0338,590.3013,664.005,600.9018,664.4315,611.5022,665.2416,622.1027,664.5,632.7031,664.485,632.6969,664.386,633.0701,664.3114,633.4534,664.1888,633.8169,663.913,634.1168,663.7678,634.4709,663.8044,634.5593,663.3412,634.4411,663.0969,634.8514,662.777,635.0791,662.4103,635.1936,662,635.2031,662,635.8161,652.0667,634.72,642.1333,634.5509,632.2,634.5817,622.2667,635.1442,612.3333,635.0066,602.4,635.8845,592.4667,635.0284,582.5333,634.8601,572.6,635.4314,562.6667,634.5363,552.7333,634.684,542.8,635.8521,532.8667,635.6388,522.9333,635.9376,513,635.2031,512.959,635.104,512.6872,635.155,512.3682,635.0921,511.8791,634.6183,511.5736,634.5878,511.2322,634.4709,511.271,634.487,511.2865,634.2005,510.938,633.7633,510.9353,633.4692,510.4759,632.986,510.5,632.7031,509.8227,632.7031,511.0036,622.1027,509.7831,611.5022,511.009,600.9018,510.7066,590.3013,510.2321,579.7009,510.1462,569.1004,510.5,558.5,510.6413,558.5585,510.5543,558.1083,510.9752,557.8684,510.7691,557.3688,511.2759,557.1645,511.2322,556.7322,511.294,556.8814,511.617,556.6612,511.9454,556.4539,512.3856,556.5167,512.7247,556.3354,513,556" style="stroke:#181818;stroke-width:0.5;"/><polygon fill="#ADD1B2" points="536.5608,580.9667,534.9484,583.1698,533.0412,586.3967,530.3136,588.5714,527.4474,589.7606,525.162,589.8638,522.2247,588.3766,519.4532,587.4049,517.3495,585.4322,516.2461,583.1738,515.5917,581.3756,514.9506,579.0267,513.91,577.0055,514.7096,575.032,515.4102,572.8702,518.0393,571.1605,519.889,568.9421,522.1784,568.2055,524.9001,567.5711,528.3904,567.948,530.3021,568.8495,532.5247,569.2582,535.2272,572.027,536.1693,574.95,536.5786,576.9444,536.115,580.2309" style="stroke:#181818;stroke-width:1.0;"/><path d="M528.2656,574.166 Q528.4219,573.9473 528.6094,573.8379 Q528.7969,573.7285 529.0156,573.7285 Q529.3906,573.7285 529.625,573.9941 Q529.8594,574.2441 529.8594,574.8535 L529.8594,576.3066 Q529.8594,576.916 529.625,577.1816 Q529.3906,577.4473 529.0156,577.4473 Q528.6719,577.4473 528.4688,577.2441 Q528.2656,577.0566 528.1563,576.541 Q528.1094,576.1816 527.9219,575.9941 Q527.5938,575.6191 526.9844,575.4004 Q526.375,575.1816 525.75,575.1816 Q524.9844,575.1816 524.3438,575.5098 Q523.7188,575.8379 523.2188,576.5879 Q522.7344,577.3379 522.7344,578.3691 L522.7344,579.4629 Q522.7344,580.6973 523.625,581.5254 Q524.5156,582.3379 526.1094,582.3379 Q527.0469,582.3379 527.7031,582.0879 Q528.0938,581.9316 528.5156,581.4941 Q528.7813,581.2285 528.9219,581.1504 Q529.0781,581.0723 529.2813,581.0723 Q529.6094,581.0723 529.8594,581.3379 Q530.125,581.5879 530.125,581.9316 Q530.125,582.2754 529.7813,582.6816 Q529.2813,583.2598 528.4844,583.5879 Q527.4063,584.041 526.1094,584.041 Q524.5938,584.041 523.3906,583.416 Q522.4063,582.916 521.7188,581.8535 Q521.0313,580.7754 521.0313,579.4941 L521.0313,578.3379 Q521.0313,577.0098 521.6406,575.8691 Q522.2656,574.7129 523.3594,574.1035 Q524.4531,573.4785 525.6875,573.4785 Q526.4219,573.4785 527.0625,573.6504 Q527.7188,573.8066 528.2656,574.166 Z " fill="#000000"/><text fill="#000000" font-family="FG Virgil" font-size="12" font-style="italic" lengthAdjust="spacing" textLength="77" x="562" y="573.9492">&#171;persistence&#187;</text><text fill="#000000" font-family="FG Virgil" font-size="14" lengthAdjust="spacing" textLength="122" x="539.5" y="592.0684">PersistenceContext</text><path d="M511.5,600.582 L511.5,600.8623 L521.6333,600.0296 L531.7667,600.8397 L541.9,601.1149 L552.0333,599.6308 L562.1667,600.4784 L572.3,600.0134 L582.4333,600.0707 L592.5667,600.4912 L602.7,599.6602 L612.8333,601.3202 L622.9667,599.7417 L633.1,600.3183 L643.2333,601.158 L653.3667,600.4677 L663.5,600.582 " fill="#F1F1F1" style="stroke:#181818;stroke-width:0.5;"/><path d="M511.5,608.582 L511.5,608.8623 L521.6333,608.0296 L531.7667,608.8397 L541.9,609.1149 L552.0333,607.6308 L562.1667,608.4784 L572.3,608.0134 L582.4333,608.0707 L592.5667,608.4912 L602.7,607.6602 L612.8333,609.3202 L622.9667,607.7417 L633.1,608.3183 L643.2333,609.158 L653.3667,608.4677 L663.5,608.582 " fill="#F1F1F1" style="stroke:#181818;stroke-width:0.5;"/><polygon fill="#F24D5C" points="518.5,620.3926,518.5,620.4626,519.7,620.2545,520.9,620.457,522.1,620.5258,523.3,620.1548,524.5,620.3926,524.4741,620.3926,524.3578,621.5926,524.3722,622.7926,524.4773,623.9926,524.2695,625.1926,524.5,626.3926,524.5,626.5771,523.3,626.1825,522.1,626.3267,520.9,626.5366,519.7,626.364,518.5,626.3926,518.5227,626.3926,518.4894,625.1926,518.5595,623.9926,518.5797,622.7926,518.6952,621.5926,518.5,620.3926" style="stroke:#C82930;stroke-width:1.0;"/><text fill="#000000" font-family="FG Virgil" font-size="14" lengthAdjust="spacing" textLength="84" x="530.5" y="627.6895">repositories()</text></g><!--class RepositoryFactory--><g id="elem_RepositoryFactory"><polygon fill="#F1F1F1" points="516,714,516,714.2102,526.2143,713.5857,536.4286,714.1933,546.6429,714.3997,556.8571,713.2866,567.0714,713.9223,577.2857,713.5735,587.5,713.6165,597.7143,713.9318,607.9286,713.3086,618.1429,714.5536,628.3571,713.3697,638.5714,713.8022,648.7857,714.4319,659,714,658.9891,713.9736,659.3623,714.1675,659.703,714.2831,660.0834,714.4943,660.4447,714.6594,660.7678,714.7322,660.9481,714.8069,661.1209,715.1714,661.2698,715.526,661.2855,715.8254,661.4963,716.2056,661.5,716.5,662.2022,716.5,660.7788,727.1004,662.1785,737.7009,661.2035,748.3013,662.0338,758.9018,661.005,769.5022,661.4315,780.1027,661.5,790.7031,661.7284,790.7977,661.3385,791.0505,661.2395,791.4237,661.1649,791.807,661.0424,792.1704,660.7678,792.4709,660.7673,792.4697,660.4509,792.7058,659.9876,792.5875,659.7434,792.9978,659.4235,793.2255,659,793.2031,659,793.6477,648.7857,793.8161,638.5714,792.72,628.3571,792.5509,618.1429,792.5817,607.9286,793.1442,597.7143,793.0066,587.5,793.8845,577.2857,793.0284,567.0714,792.8601,556.8571,793.4314,546.6429,792.5363,536.4286,792.684,526.2143,793.8521,516,793.2031,516.0556,793.3373,515.7401,793.2829,515.2518,792.8111,514.9801,792.8621,514.6611,792.7992,514.2322,792.4709,514.0868,792.4106,514.0563,792.1051,513.9781,791.7799,513.9936,791.4934,513.6452,791.0561,513.5,790.7031,513.9626,790.7031,512.9462,780.1027,512.8227,769.5022,514.0036,758.9018,512.7831,748.3013,514.009,737.7009,513.7066,727.1004,513.5,716.5,513.4175,716.4658,513.5375,716.1013,513.9342,715.8514,513.8472,715.4012,514.2681,715.1613,514.2322,714.7322,514.1617,714.562,514.6645,714.7759,515.0011,714.5885,515.3241,714.3683,515.6525,714.161,516,714" style="stroke:#181818;stroke-width:0.5;"/><polygon fill="#ADD1B2" points="539.5608,738.9667,537.9484,741.1698,536.0412,744.3967,533.3136,746.5714,530.4474,747.7606,528.162,747.8638,525.2247,746.3766,522.4532,745.4049,520.3495,743.4322,519.2461,741.1738,518.5917,739.3756,517.9506,737.0267,516.91,735.0055,517.7096,733.032,518.4102,730.8702,521.0393,729.1605,522.889,726.9421,525.1784,726.2055,527.9001,725.5711,531.3904,725.948,533.3021,726.8495,535.5247,727.2582,538.2272,730.027,539.1693,732.95,539.5786,734.9444,539.115,738.2309" style="stroke:#181818;stroke-width:1.0;"/><path d="M531.2656,732.166 Q531.4219,731.9473 531.6094,731.8379 Q531.7969,731.7285 532.0156,731.7285 Q532.3906,731.7285 532.625,731.9941 Q532.8594,732.2441 532.8594,732.8535 L532.8594,734.3066 Q532.8594,734.916 532.625,735.1816 Q532.3906,735.4473 532.0156,735.4473 Q531.6719,735.4473 531.4688,735.2441 Q531.2656,735.0566 531.1563,734.541 Q531.1094,734.1816 530.9219,733.9941 Q530.5938,733.6191 529.9844,733.4004 Q529.375,733.1816 528.75,733.1816 Q527.9844,733.1816 527.3438,733.5098 Q526.7188,733.8379 526.2188,734.5879 Q525.7344,735.3379 525.7344,736.3691 L525.7344,737.4629 Q525.7344,738.6973 526.625,739.5254 Q527.5156,740.3379 529.1094,740.3379 Q530.0469,740.3379 530.7031,740.0879 Q531.0938,739.9316 531.5156,739.4941 Q531.7813,739.2285 531.9219,739.1504 Q532.0781,739.0723 532.2813,739.0723 Q532.6094,739.0723 532.8594,739.3379 Q533.125,739.5879 533.125,739.9316 Q533.125,740.2754 532.7813,740.6816 Q532.2813,741.2598 531.4844,741.5879 Q530.4063,742.041 529.1094,742.041 Q527.5938,742.041 526.3906,741.416 Q525.4063,740.916 524.7188,739.8535 Q524.0313,738.7754 524.0313,737.4941 L524.0313,736.3379 Q524.0313,735.0098 524.6406,733.8691 Q525.2656,732.7129 526.3594,732.1035 Q527.4531,731.4785 528.6875,731.4785 Q529.4219,731.4785 530.0625,731.6504 Q530.7188,731.8066 531.2656,732.166 Z " fill="#000000"/><text fill="#000000" font-family="FG Virgil" font-size="12" font-style="italic" lengthAdjust="spacing" textLength="50" x="575.5" y="731.9492">&#171;factory&#187;</text><text fill="#000000" font-family="FG Virgil" font-size="14" lengthAdjust="spacing" textLength="116" x="542.5" y="750.0684">RepositoryFactory</text><path d="M514.5,758.582 L514.5,758.8623 L524.2333,758.0296 L533.9667,758.8397 L543.7,759.1149 L553.4333,757.6308 L563.1667,758.4784 L572.9,758.0134 L582.6333,758.0707 L592.3667,758.4912 L602.1,757.6602 L611.8333,759.3202 L621.5667,757.7417 L631.3,758.3183 L641.0333,759.158 L650.7667,758.4677 L660.5,758.582 " fill="#F1F1F1" style="stroke:#181818;stroke-width:0.5;"/><path d="M514.5,766.582 L514.5,766.8623 L524.2333,766.0296 L533.9667,766.8397 L543.7,767.1149 L553.4333,765.6308 L563.1667,766.4784 L572.9,766.0134 L582.6333,766.0707 L592.3667,766.4912 L602.1,765.6602 L611.8333,767.3202 L621.5667,765.7417 L631.3,766.3183 L641.0333,767.158 L650.7667,766.4677 L660.5,766.582 " fill="#F1F1F1" style="stroke:#181818;stroke-width:0.5;"/><polygon fill="#F24D5C" points="521.5,778.3926,521.5,778.4626,522.7,778.2545,523.9,778.457,525.1,778.5258,526.3,778.1548,527.5,778.3926,527.4741,778.3926,527.3578,779.5926,527.3722,780.7926,527.4773,781.9926,527.2695,783.1926,527.5,784.3926,527.5,784.5771,526.3,784.1825,525.1,784.3267,523.9,784.5366,522.7,784.364,521.5,784.3926,521.5227,784.3926,521.4894,783.1926,521.5595,781.9926,521.5797,780.7926,521.6952,779.5926,521.5,778.3926" style="stroke:#C82930;stroke-width:1.0;"/><text fill="#000000" font-family="FG Virgil" font-size="14" lengthAdjust="spacing" textLength="45" x="533.5" y="785.6895">users()</text></g><!--class UserRepository--><g id="elem_UserRepository"><polygon fill="#F1F1F1" points="499.5,872,499.5,872.2102,509.2778,871.5857,519.0556,872.1933,528.8333,872.3997,538.6111,871.2866,548.3889,871.9223,558.1667,871.5735,567.9444,871.6165,577.7222,871.9318,587.5,871.3086,597.2778,872.5536,607.0556,871.3697,616.8333,871.8022,626.6111,872.4319,636.3889,871.9142,646.1667,872.0682,655.9444,871.9681,665.7222,872.1785,675.5,872,675.5305,872.0736,675.9283,872.3268,676.2927,872.4996,676.6473,872.6485,676.9467,872.6642,677.2678,872.7322,677.4105,872.7914,677.6305,873.1754,677.3386,873.3473,677.9161,873.8794,677.7622,874.1086,678,874.5,678.5338,874.5,677.505,884.8138,677.9315,895.1276,678.7416,905.4414,677.9513,915.7552,678.1053,926.069,678.3386,936.3828,678.4162,946.6966,677.9961,957.0104,678,967.3242,678.0885,967.3609,677.6773,967.6048,677.7947,968.0676,677.7295,968.4548,677.5511,968.7951,677.2678,969.092,677.346,969.2808,676.8526,969.0897,676.4775,969.184,676.1278,969.34,675.846,969.6596,675.5,969.8242,675.5,969.6277,665.7222,970.5056,655.9444,969.6495,646.1667,969.4812,636.3889,970.0525,626.6111,969.1574,616.8333,969.3051,607.0556,970.4732,597.2778,970.2599,587.5,970.5587,577.7222,969.5024,567.9444,970.1434,558.1667,970.4146,548.3889,969.3518,538.6111,969.7284,528.8333,969.9502,519.0556,970.476,509.2778,969.82,499.5,969.8242,499.559,969.9667,499.0758,969.5072,498.7065,969.3228,498.5036,969.54,497.9943,969.0176,497.7322,969.092,497.889,969.1569,497.6494,968.7648,497.3568,968.3507,497.1839,967.9862,497.2877,967.7363,497,967.3242,496.7007,967.3242,497.5919,957.0104,496.4473,946.6966,497.6174,936.3828,497.4843,926.069,497.245,915.7552,497.0472,905.4414,497.7266,895.1276,497.6136,884.8138,497,874.5,497.0521,874.5216,497.229,874.1807,497.2528,873.7763,497.66,873.5307,497.6335,873.1055,497.7322,872.7322,497.7542,872.7854,498.0082,872.3984,498.3876,872.3145,498.8606,872.4563,499.2013,872.2788,499.5,872" style="stroke:#181818;stroke-width:0.5;"/><polygon fill="#ADD1B2" points="546.4608,896.9667,544.8484,899.1698,542.9412,902.3967,540.2136,904.5714,537.3474,905.7606,535.062,905.8638,532.1247,904.3766,529.3532,903.4049,527.2495,901.4322,526.1461,899.1738,525.4917,897.3756,524.8506,895.0267,523.81,893.0055,524.6096,891.032,525.3102,888.8702,527.9393,887.1605,529.789,884.9421,532.0784,884.2055,534.8001,883.5711,538.2904,883.948,540.2021,884.8495,542.4247,885.2582,545.1272,888.027,546.0693,890.95,546.4786,892.9444,546.015,896.2309" style="stroke:#181818;stroke-width:1.0;"/><path d="M538.1656,890.166 Q538.3219,889.9473 538.5094,889.8379 Q538.6969,889.7285 538.9156,889.7285 Q539.2906,889.7285 539.525,889.9941 Q539.7594,890.2441 539.7594,890.8535 L539.7594,892.3066 Q539.7594,892.916 539.525,893.1816 Q539.2906,893.4473 538.9156,893.4473 Q538.5719,893.4473 538.3688,893.2441 Q538.1656,893.0566 538.0563,892.541 Q538.0094,892.1816 537.8219,891.9941 Q537.4938,891.6191 536.8844,891.4004 Q536.275,891.1816 535.65,891.1816 Q534.8844,891.1816 534.2438,891.5098 Q533.6188,891.8379 533.1188,892.5879 Q532.6344,893.3379 532.6344,894.3691 L532.6344,895.4629 Q532.6344,896.6973 533.525,897.5254 Q534.4156,898.3379 536.0094,898.3379 Q536.9469,898.3379 537.6031,898.0879 Q537.9938,897.9316 538.4156,897.4941 Q538.6813,897.2285 538.8219,897.1504 Q538.9781,897.0723 539.1813,897.0723 Q539.5094,897.0723 539.7594,897.3379 Q540.025,897.5879 540.025,897.9316 Q540.025,898.2754 539.6813,898.6816 Q539.1813,899.2598 538.3844,899.5879 Q537.3063,900.041 536.0094,900.041 Q534.4938,900.041 533.2906,899.416 Q532.3063,898.916 531.6188,897.8535 Q530.9313,896.7754 530.9313,895.4941 L530.9313,894.3379 Q530.9313,893.0098 531.5406,891.8691 Q532.1656,890.7129 533.2594,890.1035 Q534.3531,889.4785 535.5875,889.4785 Q536.3219,889.4785 536.9625,889.6504 Q537.6188,889.8066 538.1656,890.166 Z " fill="#000000"/><text fill="#000000" font-family="FG Virgil" font-size="12" font-style="italic" lengthAdjust="spacing" textLength="68" x="569.1" y="889.9492">&#171;repository&#187;</text><text fill="#000000" font-family="FG Virgil" font-size="14" lengthAdjust="spacing" textLength="97" x="554.6" y="908.0684">UserRepository</text><path d="M498,916.582 L498,916.8623 L507.9444,916.0296 L517.8889,916.8397 L527.8333,917.1149 L537.7778,915.6308 L547.7222,916.4784 L557.6667,916.0134 L567.6111,916.0707 L577.5556,916.4912 L587.5,915.6602 L597.4444,917.3202 L607.3889,915.7417 L617.3333,916.3183 L627.2778,917.158 L637.2222,916.4677 L647.1667,916.673 L657.1111,916.5394 L667.0556,916.8201 L677,916.582 " fill="#F1F1F1" style="stroke:#181818;stroke-width:0.5;"/><path d="M498,924.582 L498,924.8623 L507.9444,924.0296 L517.8889,924.8397 L527.8333,925.1149 L537.7778,923.6308 L547.7222,924.4784 L557.6667,924.0134 L567.6111,924.0707 L577.5556,924.4912 L587.5,923.6602 L597.4444,925.3202 L607.3889,923.7417 L617.3333,924.3183 L627.2778,925.158 L637.2222,924.4677 L647.1667,924.673 L657.1111,924.5394 L667.0556,924.8201 L677,924.582 " fill="#F1F1F1" style="stroke:#181818;stroke-width:0.5;"/><polygon fill="#F24D5C" points="505,936.3926,505,936.4626,506.2,936.2545,507.4,936.457,508.6,936.5258,509.8,936.1548,511,936.3926,510.9741,936.3926,510.8578,937.5926,510.8722,938.7926,510.9773,939.9926,510.7695,941.1926,511,942.3926,511,942.5771,509.8,942.1825,508.6,942.3267,507.4,942.5366,506.2,942.364,505,942.3926,505.0227,942.3926,504.9894,941.1926,505.0595,939.9926,505.0797,938.7926,505.1952,937.5926,505,936.3926" style="stroke:#C82930;stroke-width:1.0;"/><text fill="#000000" font-family="FG Virgil" font-size="14" lengthAdjust="spacing" textLength="112" x="517" y="943.6895">findByActive(true)</text><polygon fill="#F24D5C" points="505,955.0137,505,955.0837,506.2,954.8756,507.4,955.0781,508.6,955.1469,509.8,954.7759,511,955.0137,510.9741,955.0137,510.8578,956.2137,510.8722,957.4137,510.9773,958.6137,510.7695,959.8137,511,961.0137,511,961.1982,509.8,960.8036,508.6,960.9477,507.4,961.1577,506.2,960.9851,505,961.0137,505.0227,961.0137,504.9894,959.8137,505.0595,958.6137,505.0797,957.4137,505.1952,956.2137,505,955.0137" style="stroke:#C82930;stroke-width:1.0;"/><text fill="#000000" font-family="FG Virgil" font-size="14" lengthAdjust="spacing" textLength="155" x="517" y="962.3105">save(user : SystemUser)</text></g><!--class SystemUser--><g id="elem_SystemUser"><polygon fill="#F1F1F1" points="749.5,388.5,749.5,388.7102,759.5,388.0857,769.5,388.6933,779.5,388.8997,789.5,387.7866,799.5,388.4223,809.5,388.0735,819.5,388.1165,829.5,388.4318,839.5,387.8086,849.5,389.0536,859.5,387.8697,869.5,388.3022,879.5,388.9319,889.5,388.4142,899.5,388.5682,909.5,388.4681,919.5,388.6785,929.5,388.7391,939.5,389.0857,949.5,389.1711,959.5,389.1793,969.5,388.7546,979.5,388.9636,989.5,389.2022,999.5,387.7788,1009.5,389.1785,1019.5,388.2035,1029.5,389.0338,1039.5,388.005,1049.5,388.4315,1059.5,388.5,1059.5946,388.7284,1059.8473,388.6314,1060.2205,388.8253,1060.6039,389.0436,1060.9673,389.214,1061.2678,389.2322,1061.2666,389.2317,1061.5027,389.6224,1061.3844,389.8663,1061.7947,390.3292,1062.0224,390.7164,1062,391,1062.4445,391,1062.613,401.6004,1061.5169,412.2009,1061.3478,422.8013,1061.3786,433.4018,1061.9411,444.0022,1061.8035,454.6027,1062,465.2031,1062.2098,465.29,1061.7998,465.5344,1061.6015,465.8665,1061.631,466.2929,1061.2089,466.5323,1061.2678,466.9709,1061.2015,466.811,1060.997,467.3172,1060.6162,467.398,1060.3008,467.6364,1059.8125,467.4576,1059.5,467.7031,1059.5,468.0223,1049.5,468.2935,1039.5,467.2307,1029.5,467.6073,1019.5,467.8291,1009.5,468.3549,999.5,467.6989,989.5,468.1657,979.5,467.1493,969.5,467.0259,959.5,468.2067,949.5,466.9862,939.5,468.2121,929.5,467.9098,919.5,467.4352,909.5,467.3494,899.5,468.1619,889.5,467.4038,879.5,468.295,869.5,467.1504,859.5,468.3206,849.5,468.1874,839.5,467.9481,829.5,467.7503,819.5,468.4297,809.5,468.3167,799.5,467.8724,789.5,467.9713,779.5,467.5729,769.5,468.4196,759.5,467.858,749.5,467.7031,749.522,467.7563,749.0688,467.3693,748.7412,467.2854,748.507,467.4272,748.1406,467.2497,747.7322,466.9709,747.719,466.9654,747.4866,466.5762,747.3719,466.2359,747.0816,465.8227,747.2742,465.6096,747,465.2031,747.7396,465.2031,747.5264,454.6027,747.6949,444.0022,746.8633,433.4018,747.0872,422.8013,746.6124,412.2009,747.284,401.6004,747,391,747.076,391.0315,747.3166,390.7169,747.2222,390.2636,747.3979,389.9222,747.7224,389.6424,747.7322,389.2322,747.8046,389.4069,748.0204,388.9279,748.4146,388.8796,748.8119,388.8389,749.0685,388.4583,749.5,388.5" style="stroke:#181818;stroke-width:0.5;"/><polygon fill="#ADD1B2" points="873.8108,413.4667,872.1984,415.6698,870.2912,418.8967,867.5636,421.0714,864.6974,422.2606,862.412,422.3638,859.4747,420.8766,856.7032,419.9049,854.5995,417.9322,853.4961,415.6738,852.8417,413.8756,852.2006,411.5267,851.16,409.5055,851.9596,407.532,852.6602,405.3702,855.2893,403.6605,857.139,401.4421,859.4284,400.7055,862.1501,400.0711,865.6404,400.448,867.5521,401.3495,869.7747,401.7582,872.4772,404.527,873.4193,407.45,873.8286,409.4444,873.365,412.7309" style="stroke:#181818;stroke-width:1.0;"/><path d="M865.5156,406.666 Q865.6719,406.4473 865.8594,406.3379 Q866.0469,406.2285 866.2656,406.2285 Q866.6406,406.2285 866.875,406.4941 Q867.1094,406.7441 867.1094,407.3535 L867.1094,408.8066 Q867.1094,409.416 866.875,409.6816 Q866.6406,409.9473 866.2656,409.9473 Q865.9219,409.9473 865.7188,409.7441 Q865.5156,409.5566 865.4063,409.041 Q865.3594,408.6816 865.1719,408.4941 Q864.8438,408.1191 864.2344,407.9004 Q863.625,407.6816 863,407.6816 Q862.2344,407.6816 861.5938,408.0098 Q860.9688,408.3379 860.4688,409.0879 Q859.9844,409.8379 859.9844,410.8691 L859.9844,411.9629 Q859.9844,413.1973 860.875,414.0254 Q861.7656,414.8379 863.3594,414.8379 Q864.2969,414.8379 864.9531,414.5879 Q865.3438,414.4316 865.7656,413.9941 Q866.0313,413.7285 866.1719,413.6504 Q866.3281,413.5723 866.5313,413.5723 Q866.8594,413.5723 867.1094,413.8379 Q867.375,414.0879 867.375,414.4316 Q867.375,414.7754 867.0313,415.1816 Q866.5313,415.7598 865.7344,416.0879 Q864.6563,416.541 863.3594,416.541 Q861.8438,416.541 860.6406,415.916 Q859.6563,415.416 858.9688,414.3535 Q858.2813,413.2754 858.2813,411.9941 L858.2813,410.8379 Q858.2813,409.5098 858.8906,408.3691 Q859.5156,407.2129 860.6094,406.6035 Q861.7031,405.9785 862.9375,405.9785 Q863.6719,405.9785 864.3125,406.1504 Q864.9688,406.3066 865.5156,406.666 Z " fill="#000000"/><text fill="#000000" font-family="FG Virgil" font-size="12" font-style="italic" lengthAdjust="spacing" textLength="56" x="892.75" y="406.4492">&#171;domain&#187;</text><text fill="#000000" font-family="FG Virgil" font-size="14" lengthAdjust="spacing" textLength="75" x="883.25" y="424.5684">SystemUser</text><path d="M748,433.082 L748,433.3623 L758.0968,432.5296 L768.1935,433.3397 L778.2903,433.6149 L788.3871,432.1308 L798.4839,432.9784 L808.5806,432.5134 L818.6774,432.5707 L828.7742,432.9912 L838.871,432.1602 L848.9677,433.8202 L859.0645,432.2417 L869.1613,432.8183 L879.2581,433.658 L889.3548,432.9677 L899.4516,433.173 L909.5484,433.0394 L919.6452,433.3201 L929.7419,433.4009 L939.8387,433.863 L949.9355,433.9768 L960.0323,433.9877 L970.129,433.4215 L980.2258,433.7001 L990.3226,434.0183 L1000.4194,432.1205 L1010.5161,433.9867 L1020.6129,432.6867 L1030.7097,433.7938 L1040.8065,432.422 L1050.9032,432.9907 L1061,433.082 " fill="#F1F1F1" style="stroke:#181818;stroke-width:0.5;"/><path d="M748,441.082 L748,441.3623 L758.0968,440.5296 L768.1935,441.3397 L778.2903,441.6149 L788.3871,440.1308 L798.4839,440.9784 L808.5806,440.5134 L818.6774,440.5707 L828.7742,440.9912 L838.871,440.1602 L848.9677,441.8202 L859.0645,440.2417 L869.1613,440.8183 L879.2581,441.658 L889.3548,440.9677 L899.4516,441.173 L909.5484,441.0394 L919.6452,441.3201 L929.7419,441.4009 L939.8387,441.863 L949.9355,441.9768 L960.0323,441.9877 L970.129,441.4215 L980.2258,441.7001 L990.3226,442.0183 L1000.4194,440.1205 L1010.5161,441.9867 L1020.6129,440.6867 L1030.7097,441.7938 L1040.8065,440.422 L1050.9032,440.9907 L1061,441.082 " fill="#F1F1F1" style="stroke:#181818;stroke-width:0.5;"/><polygon fill="#F24D5C" points="755,452.8926,755,452.9626,756.2,452.7545,757.4,452.957,758.6,453.0258,759.8,452.6548,761,452.8926,760.9741,452.8926,760.8578,454.0926,760.8722,455.2926,760.9773,456.4926,760.7695,457.6926,761,458.8926,761,459.0771,759.8,458.6825,758.6,458.8267,757.4,459.0366,756.2,458.864,755,458.8926,755.0227,458.8926,754.9894,457.6926,755.0595,456.4926,755.0797,455.2926,755.1952,454.0926,755,452.8926" style="stroke:#C82930;stroke-width:1.0;"/><text fill="#000000" font-family="FG Virgil" font-size="14" lengthAdjust="spacing" textLength="289" x="767" y="460.1895">deactivate(time : CurrenTime.Calendar.now())</text></g><!--link DeactivateBackofficeUserUI to DeactivateBackofficeUserController--><g id="link_DeactivateBackofficeUserUI_DeactivateBackofficeUserController"><path d="M587.5,105.34 L587.7802,105.34 L586.9476,115.8286 L587.7577,126.3171 L588.0329,136.8057 L586.5488,147.2943 L587.3964,157.7829 L586.9313,168.2714 L587.5,178.76 " fill="none" style="stroke:#181818;stroke-width:1.0;"/><polygon fill="#181818" points="587.5,183.83,587.564,183.8585,588.1738,181.9739,589.1589,180.2562,590.0217,178.4841,590.4827,176.5334,591.5,174.83,591.4817,174.8117,590.5995,175.5295,589.8096,176.3396,589.0839,177.2139,588.137,177.867,587.5,178.83,587.6305,178.9605,586.5514,177.8814,585.8534,177.1834,585.2018,176.5318,584.2798,175.6098,583.5,174.83,583.5208,174.8392,584.2903,176.6257,585.1544,178.4542,585.9728,180.2624,586.8784,182.1093,587.5,183.83" style="stroke:#181818;stroke-width:1.0;"/><text fill="#000000" font-family="FG Virgil" font-size="13" lengthAdjust="spacing" textLength="73" x="588.5" y="150.0283">theController</text></g><!--link DeactivateBackofficeUserController to AuthorizationService--><g id="link_DeactivateBackofficeUserController_AuthorizationService"><path d="M472.71,300.08 L472.8348,300.3309 L463.3572,304.1143 L454.6111,309.3686 L445.6268,314.144 L435.8591,317.3441 L427.1296,322.632 L417.8157,326.7445 L408.7344,331.3248 L399.8148,336.2302 L390.3379,340.0151 L381.9703,346.0304 L372.1605,349.146 L363.3105,354.1913 L354.5775,359.472 L345.1633,363.3829 L336.1479,368.0957 L326.9816,372.505 L317.9997,377.2852 L308.9288,381.8865 L299.68,386.13 " fill="none" style="stroke:#181818;stroke-width:1.0;"/><polygon fill="#181818" points="295.11,388.4,295.1131,388.47,297.0718,388.1751,299.0485,388.2905,301.0194,388.2723,302.9709,387.8147,304.9493,387.9654,304.941,387.9408,303.8313,387.4714,302.763,387.1259,301.7235,386.8664,300.5847,386.3103,299.585,386.1697,299.76,386.2282,299.7449,385.0301,300.2408,384.003,300.799,382.9968,300.9945,381.8692,301.3807,380.8054,301.3982,380.8199,300.1184,382.3175,298.9183,383.8811,297.6797,385.4129,296.5147,387.0054,295.11,388.4" style="stroke:#181818;stroke-width:1.0;"/><text fill="#000000" font-family="FG Virgil" font-size="13" lengthAdjust="spacing" textLength="32" x="403.5" y="345.0283">authz</text></g><!--link DeactivateBackofficeUserController to UserManagementService--><g id="link_DeactivateBackofficeUserController_UserManagementService"><path d="M587.5,300.21 L587.7802,300.21 L586.9476,310.7014 L587.7577,321.1929 L588.0329,331.6843 L586.5488,342.1757 L587.3964,352.6671 L586.9313,363.1586 L587.5,373.65 " fill="none" style="stroke:#181818;stroke-width:1.0;"/><polygon fill="#181818" points="587.5,378.8,587.564,378.8285,588.1738,376.9439,589.1589,375.2262,590.0217,373.4541,590.4827,371.5034,591.5,369.8,591.4817,369.7817,590.5995,370.4995,589.8096,371.3096,589.0839,372.1839,588.137,372.837,587.5,373.8,587.6305,373.9305,586.5514,372.8514,585.8534,372.1534,585.2018,371.5018,584.2798,370.5798,583.5,369.8,583.5208,369.8092,584.2903,371.5957,585.1544,373.4242,585.9728,375.2324,586.8784,377.0793,587.5,378.8" style="stroke:#181818;stroke-width:1.0;"/><text fill="#000000" font-family="FG Virgil" font-size="13" lengthAdjust="spacing" textLength="46" x="588.5" y="345.0283">userSvc</text></g><!--link DeactivateBackofficeUserController to SystemUser--><g id="link_DeactivateBackofficeUserController_SystemUser"><path d="M686.06,300.21 L686.2007,300.4524 L694.465,304.7716 L703.5541,310.5117 L712.3746,315.7891 L720.3119,319.545 L729.4197,325.3174 L737.8687,329.9547 L746.5798,335.0436 L755.4732,340.4467 L763.7384,344.7674 L773.2541,351.2426 L781.144,354.9167 L790.1159,360.4549 L799.2197,366.2205 L807.5555,370.6629 L816.341,375.8799 L824.9563,380.8037 L833.66,385.88 " fill="none" style="stroke:#181818;stroke-width:1.0;"/><polygon fill="#181818" points="838.09,388.46,838.1468,388.5011,836.8235,386.7832,835.8329,385.306,834.734,383.7505,833.2787,381.9372,832.3167,380.4807,832.2917,380.4741,832.4692,381.5379,832.773,382.6351,833.1646,383.7556,833.2537,384.796,833.7665,385.9486,833.8138,386.127,832.619,386.0355,831.5624,386.4648,830.5226,386.9577,829.3848,387.0808,828.2985,387.3984,828.301,387.421,830.2557,387.6001,832.2215,387.8822,834.182,388.1146,836.1527,388.4418,838.09,388.46" style="stroke:#181818;stroke-width:1.0;"/><text fill="#000000" font-family="FG Virgil" font-size="13" lengthAdjust="spacing" textLength="65" x="766.5" y="345.0283">deactivates</text></g><!--link UserManagementService to PersistenceContext--><g id="link_UserManagementService_PersistenceContext"><path d="M587.5,477.31 L587.7802,477.31 L586.9476,487.81 L587.7577,498.31 L588.0329,508.81 L586.5488,519.31 L587.3964,529.81 L586.9313,540.31 L587.5,550.81 " fill="none" style="stroke:#181818;stroke-width:1.0;"/><polygon fill="#181818" points="587.5,555.85,587.564,555.8785,588.1738,553.9939,589.1589,552.2762,590.0217,550.5041,590.4827,548.5534,591.5,546.85,591.4817,546.8317,590.5995,547.5495,589.8096,548.3596,589.0839,549.2339,588.137,549.887,587.5,550.85,587.6305,550.9805,586.5514,549.9014,585.8534,549.2034,585.2018,548.5518,584.2798,547.6298,583.5,546.85,583.5208,546.8592,584.2903,548.6457,585.1544,550.4742,585.9728,552.2824,586.8784,554.1293,587.5,555.85" style="stroke:#181818;stroke-width:1.0;"/><text fill="#000000" font-family="FG Virgil" font-size="13" lengthAdjust="spacing" textLength="67" x="588.5" y="522.0283">persistence</text></g><!--link PersistenceContext to RepositoryFactory--><g id="link_PersistenceContext_RepositoryFactory"><path d="M587.5,635.06 L587.7802,635.06 L586.9476,645.5771 L587.7577,656.0943 L588.0329,666.6114 L586.5488,677.1286 L587.3964,687.6457 L586.9313,698.1629 L587.5,708.68 " fill="none" style="stroke:#181818;stroke-width:1.0;"/><polygon fill="#181818" points="587.5,713.84,587.564,713.8685,588.1738,711.9839,589.1589,710.2662,590.0217,708.4941,590.4827,706.5434,591.5,704.84,591.4817,704.8217,590.5995,705.5395,589.8096,706.3496,589.0839,707.2239,588.137,707.877,587.5,708.84,587.6305,708.9705,586.5514,707.8914,585.8534,707.1934,585.2018,706.5418,584.2798,705.6198,583.5,704.84,583.5208,704.8492,584.2903,706.6357,585.1544,708.4642,585.9728,710.2724,586.8784,712.1193,587.5,713.84" style="stroke:#181818;stroke-width:1.0;"/><text fill="#000000" font-family="FG Virgil" font-size="13" lengthAdjust="spacing" textLength="39" x="588.5" y="680.0283">factory</text></g><!--link RepositoryFactory to UserRepository--><g id="link_RepositoryFactory_UserRepository"><path d="M587.5,793.3 L587.7802,793.3 L586.9476,803.8186 L587.7577,814.3371 L588.0329,824.8557 L586.5488,835.3743 L587.3964,845.8929 L586.9313,856.4114 L587.5,866.93 " fill="none" style="stroke:#181818;stroke-width:1.0;"/><polygon fill="#181818" points="587.5,871.97,587.564,871.9985,588.1738,870.1139,589.1589,868.3962,590.0217,866.6241,590.4827,864.6734,591.5,862.97,591.4817,862.9517,590.5995,863.6695,589.8096,864.4796,589.0839,865.3539,588.137,866.007,587.5,866.97,587.6305,867.1005,586.5514,866.0214,585.8534,865.3234,585.2018,864.6718,584.2798,863.7498,583.5,862.97,583.5208,862.9792,584.2903,864.7657,585.1544,866.5942,585.9728,868.4024,586.8784,870.2493,587.5,871.97" style="stroke:#181818;stroke-width:1.0;"/><text fill="#000000" font-family="FG Virgil" font-size="13" lengthAdjust="spacing" textLength="87" x="588.5" y="838.0283">userRepository</text></g><!--SRC=[ZL9BSjim3Dth5DnPNJYhhZGUpJXktARJtqHDzuW8MPnGf8QWx2gTdgSdw0boiOAoB2cDcdeZaI3U0nxm5dIlJ0qEgcWuYHACF3ZbFHhXNOEJfnhoUzXXvbkDmc7k9syI2sYqtrhZFq65OljMV5Dkf_GaXqgGzg3CJXIW2QDeSMMyaY2Hebm3aNY3a7kr1u-NNCiMXShnbj3TNelLgdP8Q3nuPKsQYX_HKaYRbVOGl-9ZYI2rCiYNd_zXst2JpcgDZbcXhhNAUzB0sM6wFEg82wKzkgSC53VXAn9npMzmft6LjUIn2ezfGCcXTWXrwPmz9erThXjVMgSUkXOoT7kkmNtHyTGBHKEDmv3A4mZjeWmixu3MflrSn2m7GpiV5FdLUtj7hvkR44h7EY7_8nXUOCKS_ohqj_gdEiIyaBx25mPnVJGvXX7ZTn-sDWRx4WvhIygpPgJ9jcvEuNRB9Vd7uE9uwe5DtzLKqOZYz87vX2YKaPVjkjCK1pS7IGHyUM4XOumffQr03NORXX5xnIPFnAPn3irNlbniGAEHu2vCS6IWMwo9RAxWyTVZRxRu2-PUBjDpt9e8tlzuZyw01EPPXoK2EFnmBiUyUv9k9za-FvTcCjjaCawAvla3PCPLYPYuAff92BZdVaf4xwVe-Tj9uyHFHt5Z8Fe3]--></g></svg>